<?xml version="1.0" encoding="UTF-8" standalone="no"?>
<!DOCTYPE svg PUBLIC "-//W3C//DTD SVG 1.1//EN"
 "http://www.w3.org/Graphics/SVG/1.1/DTD/svg11.dtd">
<!-- Generated by graphviz version 2.40.1 (20161225.0304)
 -->
<!-- Title: src/activity/ActivityType.hxx Pages: 1 -->
<svg width="1939pt" height="588pt"
 viewBox="0.00 0.00 1938.72 588.00" xmlns="http://www.w3.org/2000/svg" xmlns:xlink="http://www.w3.org/1999/xlink">
<g id="graph0" class="graph" transform="scale(1 1) rotate(0) translate(4 584)">
<title>src/activity/ActivityType.hxx</title>
<!-- Node2 -->
<g id="node1" class="node">
<title>Node2</title>
<polygon fill="#bfbfbf" stroke="#000000" points="1701.721,-560.5 1701.721,-579.5 1856.721,-579.5 1856.721,-560.5 1701.721,-560.5"/>
<text text-anchor="middle" x="1779.221" y="-567.5" font-family="Helvetica,sans-Serif" font-size="10.00" fill="#000000">src/activity/ActivityType.hxx</text>
</g>
<!-- Node3 -->
<g id="node2" class="node">
<title>Node3</title>
<g id="a_node2"><a xlink:href="UIEvents_8hxx.html" target="_top" xlink:title="src/events/UIEvents.hxx">
<polygon fill="none" stroke="#000000" points="1665.221,-504.5 1665.221,-523.5 1799.221,-523.5 1799.221,-504.5 1665.221,-504.5"/>
<text text-anchor="middle" x="1732.221" y="-511.5" font-family="Helvetica,sans-Serif" font-size="10.00" fill="#000000">src/events/UIEvents.hxx</text>
</a>
</g>
</g>
<!-- Node2&#45;&gt;Node3 -->
<g id="edge1" class="edge">
<title>Node2&#45;&gt;Node3</title>
<path fill="none" stroke="#191970" d="M1764.5338,-552.5004C1756.5413,-542.9775 1746.9585,-531.5596 1740.3139,-523.6427"/>
<polygon fill="#191970" stroke="#191970" points="1761.9245,-554.8358 1771.0342,-560.2455 1767.2864,-550.3357 1761.9245,-554.8358"/>
</g>
<!-- Node6 -->
<g id="node5" class="node">
<title>Node6</title>
<g id="a_node5"><a xlink:href="iActivity_8hxx.html" target="_top" xlink:title="src/activity/iActivity.hxx">
<polygon fill="none" stroke="#000000" points="1736.221,-168.5 1736.221,-187.5 1870.221,-187.5 1870.221,-168.5 1736.221,-168.5"/>
<text text-anchor="middle" x="1803.221" y="-175.5" font-family="Helvetica,sans-Serif" font-size="10.00" fill="#000000">src/activity/iActivity.hxx</text>
</a>
</g>
</g>
<!-- Node2&#45;&gt;Node6 -->
<g id="edge53" class="edge">
<title>Node2&#45;&gt;Node6</title>
<path fill="none" stroke="#191970" d="M1792.3065,-552.0403C1806.5193,-530.7218 1827.221,-493.5659 1827.221,-458 1827.221,-458 1827.221,-458 1827.221,-290 1827.221,-251.4214 1813.4383,-206.9942 1806.7622,-187.7375"/>
<polygon fill="#191970" stroke="#191970" points="1789.3277,-550.1941 1786.5111,-560.4077 1795.0822,-554.1798 1789.3277,-550.1941"/>
</g>
<!-- Node4 -->
<g id="node3" class="node">
<title>Node4</title>
<g id="a_node3"><a xlink:href="Events_8hxx.html" target="_top" xlink:title="src/Events.hxx">
<polygon fill="none" stroke="#000000" points="1528.221,-448.5 1528.221,-467.5 1616.221,-467.5 1616.221,-448.5 1528.221,-448.5"/>
<text text-anchor="middle" x="1572.221" y="-455.5" font-family="Helvetica,sans-Serif" font-size="10.00" fill="#000000">src/Events.hxx</text>
</a>
</g>
</g>
<!-- Node3&#45;&gt;Node4 -->
<g id="edge2" class="edge">
<title>Node3&#45;&gt;Node4</title>
<path fill="none" stroke="#191970" d="M1695.241,-501.057C1665.9592,-490.8084 1625.7324,-476.729 1599.367,-467.5011"/>
<polygon fill="#191970" stroke="#191970" points="1694.1211,-504.3732 1704.716,-504.3733 1696.4336,-497.7662 1694.1211,-504.3732"/>
</g>
<!-- Node8 -->
<g id="node7" class="node">
<title>Node8</title>
<g id="a_node7"><a xlink:href="Window_8hxx.html" target="_top" xlink:title="src/view/Window.hxx">
<polygon fill="none" stroke="#000000" points="1446.721,-112.5 1446.721,-131.5 1565.721,-131.5 1565.721,-112.5 1446.721,-112.5"/>
<text text-anchor="middle" x="1506.221" y="-119.5" font-family="Helvetica,sans-Serif" font-size="10.00" fill="#000000">src/view/Window.hxx</text>
</a>
</g>
</g>
<!-- Node3&#45;&gt;Node8 -->
<g id="edge52" class="edge">
<title>Node3&#45;&gt;Node8</title>
<path fill="none" stroke="#191970" d="M1747.5709,-496.6687C1764.4534,-475.7623 1789.221,-438.8174 1789.221,-402 1789.221,-402 1789.221,-402 1789.221,-346 1789.221,-255.0408 1760.5703,-223.1285 1688.221,-168 1668.7788,-153.1855 1609.6357,-139.9389 1563.9911,-131.509"/>
<polygon fill="#191970" stroke="#191970" points="1744.8699,-494.4426 1741.1272,-504.3544 1750.2341,-498.94 1744.8699,-494.4426"/>
</g>
<!-- Node5 -->
<g id="node4" class="node">
<title>Node5</title>
<g id="a_node4"><a xlink:href="GameService_8hxx.html" target="_top" xlink:title="src/GameService.hxx">
<polygon fill="none" stroke="#000000" points="750.221,-224.5 750.221,-243.5 870.221,-243.5 870.221,-224.5 750.221,-224.5"/>
<text text-anchor="middle" x="810.221" y="-231.5" font-family="Helvetica,sans-Serif" font-size="10.00" fill="#000000">src/GameService.hxx</text>
</a>
</g>
</g>
<!-- Node4&#45;&gt;Node5 -->
<g id="edge3" class="edge">
<title>Node4&#45;&gt;Node5</title>
<path fill="none" stroke="#191970" d="M1518.2599,-452.6769C1423.3018,-442.1293 1221.1455,-414.3656 1060.221,-356 968.5105,-322.7376 865.8757,-266.0078 826.6573,-243.555"/>
<polygon fill="#191970" stroke="#191970" points="1517.8852,-456.1567 1528.2058,-453.762 1518.6444,-449.198 1517.8852,-456.1567"/>
</g>
<!-- Node7 -->
<g id="node6" class="node">
<title>Node7</title>
<g id="a_node6"><a xlink:href="iActivity_8cxx.html" target="_top" xlink:title="src/activity/iActivity.cxx">
<polygon fill="none" stroke="#000000" points="1797.721,-56.5 1797.721,-75.5 1930.721,-75.5 1930.721,-56.5 1797.721,-56.5"/>
<text text-anchor="middle" x="1864.221" y="-63.5" font-family="Helvetica,sans-Serif" font-size="10.00" fill="#000000">src/activity/iActivity.cxx</text>
</a>
</g>
</g>
<!-- Node4&#45;&gt;Node7 -->
<g id="edge51" class="edge">
<title>Node4&#45;&gt;Node7</title>
<path fill="none" stroke="#191970" d="M1602.6273,-443.8738C1670.3023,-410.5455 1832.4818,-319.7803 1897.221,-188 1912.1198,-157.6726 1910.017,-144.0183 1899.221,-112 1894.4116,-97.7366 1883.2219,-84.3952 1874.78,-75.7924"/>
<polygon fill="#191970" stroke="#191970" points="1600.8216,-440.8595 1593.3511,-448.3723 1603.8761,-447.158 1600.8216,-440.8595"/>
</g>
<!-- Node27 -->
<g id="node26" class="node">
<title>Node27</title>
<g id="a_node26"><a xlink:href="MessageQueue_8hxx.html" target="_top" xlink:title="src/engine/MessageQueue.hxx">
<polygon fill="none" stroke="#000000" points="1296.721,-392.5 1296.721,-411.5 1461.721,-411.5 1461.721,-392.5 1296.721,-392.5"/>
<text text-anchor="middle" x="1379.221" y="-399.5" font-family="Helvetica,sans-Serif" font-size="10.00" fill="#000000">src/engine/MessageQueue.hxx</text>
</a>
</g>
</g>
<!-- Node4&#45;&gt;Node27 -->
<g id="edge36" class="edge">
<title>Node4&#45;&gt;Node27</title>
<path fill="none" stroke="#191970" d="M1528.9893,-445.4561C1493.5613,-435.1765 1444.184,-420.8494 1411.9659,-411.5011"/>
<polygon fill="#191970" stroke="#191970" points="1528.4638,-448.9479 1539.0431,-448.3733 1530.4145,-442.2252 1528.4638,-448.9479"/>
</g>
<!-- Node5&#45;&gt;Node6 -->
<g id="edge4" class="edge">
<title>Node5&#45;&gt;Node6</title>
<path fill="none" stroke="#191970" d="M880.7832,-231.1277C1029.9413,-224.8746 1388.215,-208.8965 1688.221,-188 1703.7149,-186.9208 1720.3673,-185.5785 1736.0567,-184.2314"/>
<polygon fill="#191970" stroke="#191970" points="880.254,-227.6467 870.4088,-231.5611 880.5462,-234.6406 880.254,-227.6467"/>
</g>
<!-- Node5&#45;&gt;Node8 -->
<g id="edge15" class="edge">
<title>Node5&#45;&gt;Node8</title>
<path fill="none" stroke="#191970" d="M880.5688,-229.6378C945.4541,-224.2432 1043.8983,-212.562 1126.221,-188 1146.4183,-181.9739 1148.9907,-173.9147 1169.221,-168 1284.5729,-134.2747 1318.1946,-148.6189 1437.221,-132 1440.218,-131.5815 1443.2877,-131.1495 1446.3873,-130.7104"/>
<polygon fill="#191970" stroke="#191970" points="880.1384,-226.161 870.4509,-230.4506 880.6991,-233.1385 880.1384,-226.161"/>
</g>
<!-- Node12 -->
<g id="node11" class="node">
<title>Node12</title>
<g id="a_node11"><a xlink:href="Game_8hxx.html" target="_top" xlink:title="src/Game.hxx">
<polygon fill="none" stroke="#000000" points="430.221,-56.5 430.221,-75.5 514.221,-75.5 514.221,-56.5 430.221,-56.5"/>
<text text-anchor="middle" x="472.221" y="-63.5" font-family="Helvetica,sans-Serif" font-size="10.00" fill="#000000">src/Game.hxx</text>
</a>
</g>
</g>
<!-- Node5&#45;&gt;Node12 -->
<g id="edge16" class="edge">
<title>Node5&#45;&gt;Node12</title>
<path fill="none" stroke="#191970" d="M740.0985,-232.5159C550.7836,-228.1692 41.8495,-214.0986 17.221,-188 -5.9616,-163.4337 -5.4305,-137.0569 17.221,-112 44.6411,-81.668 322.5544,-70.3655 430.0684,-67.1076"/>
<polygon fill="#191970" stroke="#191970" points="740.1414,-236.0177 750.2184,-232.746 740.3006,-229.0195 740.1414,-236.0177"/>
</g>
<!-- Node15 -->
<g id="node14" class="node">
<title>Node15</title>
<g id="a_node14"><a xlink:href="Window_8cxx.html" target="_top" xlink:title="src/view/Window.cxx">
<polygon fill="none" stroke="#000000" points="1076.721,-56.5 1076.721,-75.5 1195.721,-75.5 1195.721,-56.5 1076.721,-56.5"/>
<text text-anchor="middle" x="1136.221" y="-63.5" font-family="Helvetica,sans-Serif" font-size="10.00" fill="#000000">src/view/Window.cxx</text>
</a>
</g>
</g>
<!-- Node5&#45;&gt;Node15 -->
<g id="edge35" class="edge">
<title>Node5&#45;&gt;Node15</title>
<path fill="none" stroke="#191970" d="M880.4652,-226.8376C942.1259,-219.4673 1026.2195,-206.4531 1054.221,-188 1097.6917,-159.3526 1123.9518,-98.8908 1132.8263,-75.5102"/>
<polygon fill="#191970" stroke="#191970" points="879.9151,-223.378 870.3893,-228.016 880.7282,-230.3306 879.9151,-223.378"/>
</g>
<!-- Node16 -->
<g id="node15" class="node">
<title>Node16</title>
<g id="a_node15"><a xlink:href="Randomizer_8hxx.html" target="_top" xlink:title="src/services/Randomizer.hxx">
<polygon fill="none" stroke="#000000" points="228.221,-168.5 228.221,-187.5 384.221,-187.5 384.221,-168.5 228.221,-168.5"/>
<text text-anchor="middle" x="306.221" y="-175.5" font-family="Helvetica,sans-Serif" font-size="10.00" fill="#000000">src/services/Randomizer.hxx</text>
</a>
</g>
</g>
<!-- Node5&#45;&gt;Node16 -->
<g id="edge17" class="edge">
<title>Node5&#45;&gt;Node16</title>
<path fill="none" stroke="#191970" d="M739.9732,-226.1947C646.5042,-215.8093 481.753,-197.5036 384.4274,-186.6896"/>
<polygon fill="#191970" stroke="#191970" points="739.8517,-229.7026 750.1771,-227.3285 740.6248,-222.7455 739.8517,-229.7026"/>
</g>
<!-- Node19 -->
<g id="node18" class="node">
<title>Node19</title>
<g id="a_node18"><a xlink:href="GameClock_8hxx.html" target="_top" xlink:title="src/services/GameClock.hxx">
<polygon fill="none" stroke="#000000" points="890.721,-168.5 890.721,-187.5 1045.721,-187.5 1045.721,-168.5 890.721,-168.5"/>
<text text-anchor="middle" x="968.221" y="-175.5" font-family="Helvetica,sans-Serif" font-size="10.00" fill="#000000">src/services/GameClock.hxx</text>
</a>
</g>
</g>
<!-- Node5&#45;&gt;Node19 -->
<g id="edge21" class="edge">
<title>Node5&#45;&gt;Node19</title>
<path fill="none" stroke="#191970" d="M847.1164,-220.9231C875.9997,-210.686 915.4916,-196.6889 941.4142,-187.5011"/>
<polygon fill="#191970" stroke="#191970" points="845.6384,-217.7336 837.3821,-224.3733 847.9769,-224.3314 845.6384,-217.7336"/>
</g>
<!-- Node22 -->
<g id="node21" class="node">
<title>Node22</title>
<g id="a_node21"><a xlink:href="ResourceManager_8hxx.html" target="_top" xlink:title="src/services/ResourceManager.hxx">
<polygon fill="none" stroke="#000000" points="26.221,-168.5 26.221,-187.5 210.221,-187.5 210.221,-168.5 26.221,-168.5"/>
<text text-anchor="middle" x="118.221" y="-175.5" font-family="Helvetica,sans-Serif" font-size="10.00" fill="#000000">src/services/ResourceManager.hxx</text>
</a>
</g>
</g>
<!-- Node5&#45;&gt;Node22 -->
<g id="edge27" class="edge">
<title>Node5&#45;&gt;Node22</title>
<path fill="none" stroke="#191970" d="M740.1674,-229.026C629.4748,-221.0587 407.3565,-204.6335 219.221,-188 216.3249,-187.744 213.3826,-187.4794 210.412,-187.2084"/>
<polygon fill="#191970" stroke="#191970" points="739.979,-232.5214 750.2041,-229.7472 740.4807,-225.5394 739.979,-232.5214"/>
</g>
<!-- Node24 -->
<g id="node23" class="node">
<title>Node24</title>
<g id="a_node23"><a xlink:href="GameService_8cxx.html" target="_top" xlink:title="src/GameService.cxx">
<polygon fill="none" stroke="#000000" points="610.721,-168.5 610.721,-187.5 729.721,-187.5 729.721,-168.5 610.721,-168.5"/>
<text text-anchor="middle" x="670.221" y="-175.5" font-family="Helvetica,sans-Serif" font-size="10.00" fill="#000000">src/GameService.cxx</text>
</a>
</g>
</g>
<!-- Node5&#45;&gt;Node24 -->
<g id="edge31" class="edge">
<title>Node5&#45;&gt;Node24</title>
<path fill="none" stroke="#191970" d="M776.8561,-220.6541C751.3257,-210.4419 716.7426,-196.6086 693.9738,-187.5011"/>
<polygon fill="#191970" stroke="#191970" points="775.5694,-223.909 786.1541,-224.3733 778.1692,-217.4096 775.5694,-223.909"/>
</g>
<!-- Node25 -->
<g id="node24" class="node">
<title>Node25</title>
<g id="a_node24"><a xlink:href="iLayout_8cxx.html" target="_top" xlink:title="src/layout/iLayout.cxx">
<polygon fill="none" stroke="#000000" points="748.221,-168.5 748.221,-187.5 872.221,-187.5 872.221,-168.5 748.221,-168.5"/>
<text text-anchor="middle" x="810.221" y="-175.5" font-family="Helvetica,sans-Serif" font-size="10.00" fill="#000000">src/layout/iLayout.cxx</text>
</a>
</g>
</g>
<!-- Node5&#45;&gt;Node25 -->
<g id="edge32" class="edge">
<title>Node5&#45;&gt;Node25</title>
<path fill="none" stroke="#191970" d="M810.221,-214.1575C810.221,-205.155 810.221,-194.9199 810.221,-187.6427"/>
<polygon fill="#191970" stroke="#191970" points="806.7211,-214.2455 810.221,-224.2455 813.7211,-214.2456 806.7211,-214.2455"/>
</g>
<!-- Node26 -->
<g id="node25" class="node">
<title>Node26</title>
<g id="a_node25"><a xlink:href="AudioMixer_8hxx.html" target="_top" xlink:title="src/services/AudioMixer.hxx">
<polygon fill="none" stroke="#000000" points="440.221,-168.5 440.221,-187.5 592.221,-187.5 592.221,-168.5 440.221,-168.5"/>
<text text-anchor="middle" x="516.221" y="-175.5" font-family="Helvetica,sans-Serif" font-size="10.00" fill="#000000">src/services/AudioMixer.hxx</text>
</a>
</g>
</g>
<!-- Node5&#45;&gt;Node26 -->
<g id="edge33" class="edge">
<title>Node5&#45;&gt;Node26</title>
<path fill="none" stroke="#191970" d="M750.1893,-222.5654C695.9668,-212.2373 617.0945,-197.214 566.2202,-187.5237"/>
<polygon fill="#191970" stroke="#191970" points="749.5363,-226.0039 760.0146,-224.4369 750.8462,-219.1275 749.5363,-226.0039"/>
</g>
<!-- Node6&#45;&gt;Node7 -->
<g id="edge5" class="edge">
<title>Node6&#45;&gt;Node7</title>
<path fill="none" stroke="#191970" d="M1813.2575,-159.5723C1826.3891,-135.4618 1848.915,-94.1028 1859.0333,-75.5249"/>
<polygon fill="#191970" stroke="#191970" points="1810.1312,-157.9949 1808.4218,-168.4509 1816.2786,-161.3431 1810.1312,-157.9949"/>
</g>
<!-- Node6&#45;&gt;Node8 -->
<g id="edge6" class="edge">
<title>Node6&#45;&gt;Node8</title>
<path fill="none" stroke="#191970" d="M1742.5767,-166.5654C1687.8009,-156.2373 1608.1238,-141.214 1556.7304,-131.5237"/>
<polygon fill="#191970" stroke="#191970" points="1742.0269,-170.0233 1752.5023,-168.4369 1743.324,-163.1445 1742.0269,-170.0233"/>
</g>
<!-- Node8&#45;&gt;Node7 -->
<g id="edge7" class="edge">
<title>Node8&#45;&gt;Node7</title>
<path fill="none" stroke="#191970" d="M1575.6541,-111.139C1641.7569,-100.7989 1740.2574,-85.3909 1803.3621,-75.5198"/>
<polygon fill="#191970" stroke="#191970" points="1575.0782,-107.6864 1565.7393,-112.6899 1576.1601,-114.6023 1575.0782,-107.6864"/>
</g>
<!-- Node9 -->
<g id="node8" class="node">
<title>Node9</title>
<g id="a_node8"><a xlink:href="Camera_8cxx.html" target="_top" xlink:title="src/engine/basics/Camera.cxx">
<polygon fill="none" stroke="#000000" points="1425.221,-56.5 1425.221,-75.5 1587.221,-75.5 1587.221,-56.5 1425.221,-56.5"/>
<text text-anchor="middle" x="1506.221" y="-63.5" font-family="Helvetica,sans-Serif" font-size="10.00" fill="#000000">src/engine/basics/Camera.cxx</text>
</a>
</g>
</g>
<!-- Node8&#45;&gt;Node9 -->
<g id="edge8" class="edge">
<title>Node8&#45;&gt;Node9</title>
<path fill="none" stroke="#191970" d="M1506.221,-102.1575C1506.221,-93.155 1506.221,-82.9199 1506.221,-75.6427"/>
<polygon fill="#191970" stroke="#191970" points="1502.7211,-102.2455 1506.221,-112.2455 1509.7211,-102.2456 1502.7211,-102.2455"/>
</g>
<!-- Node10 -->
<g id="node9" class="node">
<title>Node10</title>
<g id="a_node9"><a xlink:href="Map_8cxx.html" target="_top" xlink:title="src/engine/Map.cxx">
<polygon fill="none" stroke="#000000" points="1605.221,-56.5 1605.221,-75.5 1715.221,-75.5 1715.221,-56.5 1605.221,-56.5"/>
<text text-anchor="middle" x="1660.221" y="-63.5" font-family="Helvetica,sans-Serif" font-size="10.00" fill="#000000">src/engine/Map.cxx</text>
</a>
</g>
</g>
<!-- Node8&#45;&gt;Node10 -->
<g id="edge9" class="edge">
<title>Node8&#45;&gt;Node10</title>
<path fill="none" stroke="#191970" d="M1542.1824,-108.9231C1570.3344,-98.686 1608.8265,-84.6889 1634.0929,-75.5011"/>
<polygon fill="#191970" stroke="#191970" points="1540.8963,-105.6665 1532.6945,-112.3733 1543.2886,-112.245 1540.8963,-105.6665"/>
</g>
<!-- Node11 -->
<g id="node10" class="node">
<title>Node11</title>
<g id="a_node10"><a xlink:href="WindowManager_8cxx.html" target="_top" xlink:title="src/engine/WindowManager.cxx">
<polygon fill="none" stroke="#000000" points="1237.221,-56.5 1237.221,-75.5 1407.221,-75.5 1407.221,-56.5 1237.221,-56.5"/>
<text text-anchor="middle" x="1322.221" y="-63.5" font-family="Helvetica,sans-Serif" font-size="10.00" fill="#000000">src/engine/WindowManager.cxx</text>
</a>
</g>
</g>
<!-- Node8&#45;&gt;Node11 -->
<g id="edge10" class="edge">
<title>Node8&#45;&gt;Node11</title>
<path fill="none" stroke="#191970" d="M1465.0052,-109.4561C1431.2294,-99.1765 1384.1546,-84.8494 1353.4389,-75.5011"/>
<polygon fill="#191970" stroke="#191970" points="1464.0044,-112.8099 1474.5902,-112.3733 1466.0426,-106.1132 1464.0044,-112.8099"/>
</g>
<!-- Node8&#45;&gt;Node12 -->
<g id="edge11" class="edge">
<title>Node8&#45;&gt;Node12</title>
<path fill="none" stroke="#191970" d="M1436.2537,-112.0031C1073.6161,-77.6656 648.4567,-68.6584 514.6532,-66.5657"/>
<polygon fill="#191970" stroke="#191970" points="1436.1369,-115.5077 1446.4244,-112.9744 1436.8025,-108.5394 1436.1369,-115.5077"/>
</g>
<!-- Node8&#45;&gt;Node15 -->
<g id="edge14" class="edge">
<title>Node8&#45;&gt;Node15</title>
<path fill="none" stroke="#191970" d="M1436.3916,-111.4312C1366.9811,-100.9259 1261.6533,-84.9843 1195.9931,-75.0466"/>
<polygon fill="#191970" stroke="#191970" points="1435.9517,-114.9044 1446.3628,-112.9404 1436.9992,-107.9832 1435.9517,-114.9044"/>
</g>
<!-- Node13 -->
<g id="node12" class="node">
<title>Node13</title>
<g id="a_node12"><a xlink:href="Game_8cxx.html" target="_top" xlink:title="src/Game.cxx">
<polygon fill="none" stroke="#000000" points="381.721,-.5 381.721,-19.5 464.721,-19.5 464.721,-.5 381.721,-.5"/>
<text text-anchor="middle" x="423.221" y="-7.5" font-family="Helvetica,sans-Serif" font-size="10.00" fill="#000000">src/Game.cxx</text>
</a>
</g>
</g>
<!-- Node12&#45;&gt;Node13 -->
<g id="edge12" class="edge">
<title>Node12&#45;&gt;Node13</title>
<path fill="none" stroke="#191970" d="M456.9088,-48.5004C448.5763,-38.9775 438.5856,-27.5596 431.6583,-19.6427"/>
<polygon fill="#191970" stroke="#191970" points="454.4667,-51.0245 463.6858,-56.2455 459.7348,-46.415 454.4667,-51.0245"/>
</g>
<!-- Node14 -->
<g id="node13" class="node">
<title>Node14</title>
<g id="a_node13"><a xlink:href="main_8cxx.html" target="_top" xlink:title="src/main.cxx">
<polygon fill="none" stroke="#000000" points="482.721,-.5 482.721,-19.5 561.721,-19.5 561.721,-.5 482.721,-.5"/>
<text text-anchor="middle" x="522.221" y="-7.5" font-family="Helvetica,sans-Serif" font-size="10.00" fill="#000000">src/main.cxx</text>
</a>
</g>
</g>
<!-- Node12&#45;&gt;Node14 -->
<g id="edge13" class="edge">
<title>Node12&#45;&gt;Node14</title>
<path fill="none" stroke="#191970" d="M487.8456,-48.5004C496.3482,-38.9775 506.5427,-27.5596 513.6114,-19.6427"/>
<polygon fill="#191970" stroke="#191970" points="484.9797,-46.4551 480.9303,-56.2455 490.2013,-51.1172 484.9797,-46.4551"/>
</g>
<!-- Node16&#45;&gt;Node12 -->
<g id="edge18" class="edge">
<title>Node16&#45;&gt;Node12</title>
<path fill="none" stroke="#191970" d="M295.9786,-159.0043C289.8038,-144.6867 284.9279,-125.31 295.221,-112 311.5848,-90.8398 383.0891,-77.6064 430.0573,-71.0321"/>
<polygon fill="#191970" stroke="#191970" points="293.0047,-160.8945 300.5061,-168.3765 299.3078,-157.8496 293.0047,-160.8945"/>
</g>
<!-- Node17 -->
<g id="node16" class="node">
<title>Node17</title>
<g id="a_node16"><a xlink:href="AudioMixer_8cxx.html" target="_top" xlink:title="src/services/AudioMixer.cxx">
<polygon fill="none" stroke="#000000" points="478.221,-112.5 478.221,-131.5 630.221,-131.5 630.221,-112.5 478.221,-112.5"/>
<text text-anchor="middle" x="554.221" y="-119.5" font-family="Helvetica,sans-Serif" font-size="10.00" fill="#000000">src/services/AudioMixer.cxx</text>
</a>
</g>
</g>
<!-- Node16&#45;&gt;Node17 -->
<g id="edge19" class="edge">
<title>Node16&#45;&gt;Node17</title>
<path fill="none" stroke="#191970" d="M358.5776,-166.1775C404.2514,-155.8641 469.6646,-141.0934 512.0447,-131.5237"/>
<polygon fill="#191970" stroke="#191970" points="357.5554,-162.8202 348.5719,-168.4369 359.0973,-169.6482 357.5554,-162.8202"/>
</g>
<!-- Node18 -->
<g id="node17" class="node">
<title>Node18</title>
<g id="a_node17"><a xlink:href="Randomizer_8cxx.html" target="_top" xlink:title="src/services/Randomizer.cxx">
<polygon fill="none" stroke="#000000" points="304.721,-112.5 304.721,-131.5 459.721,-131.5 459.721,-112.5 304.721,-112.5"/>
<text text-anchor="middle" x="382.221" y="-119.5" font-family="Helvetica,sans-Serif" font-size="10.00" fill="#000000">src/services/Randomizer.cxx</text>
</a>
</g>
</g>
<!-- Node16&#45;&gt;Node18 -->
<g id="edge20" class="edge">
<title>Node16&#45;&gt;Node18</title>
<path fill="none" stroke="#191970" d="M327.6506,-162.2097C340.9987,-152.3743 357.7389,-140.0394 369.1345,-131.6427"/>
<polygon fill="#191970" stroke="#191970" points="325.4335,-159.4958 319.4592,-168.2455 329.5859,-165.1312 325.4335,-159.4958"/>
</g>
<!-- Node19&#45;&gt;Node12 -->
<g id="edge22" class="edge">
<title>Node19&#45;&gt;Node12</title>
<path fill="none" stroke="#191970" d="M880.454,-167.2176C826.5165,-159.6055 756.2833,-147.9159 695.221,-132 669.6469,-125.3341 664.4226,-119.9591 639.221,-112 595.2022,-98.0981 543.9298,-84.3292 509.9286,-75.5319"/>
<polygon fill="#191970" stroke="#191970" points="880.286,-170.7279 890.6728,-168.6386 881.2502,-163.7946 880.286,-170.7279"/>
</g>
<!-- Node19&#45;&gt;Node17 -->
<g id="edge25" class="edge">
<title>Node19&#45;&gt;Node17</title>
<path fill="none" stroke="#191970" d="M887.4594,-167.0757C811.0301,-156.7375 697.4564,-141.3748 624.6281,-131.5237"/>
<polygon fill="#191970" stroke="#191970" points="887.1433,-170.5648 897.5222,-168.4369 888.0817,-163.6279 887.1433,-170.5648"/>
</g>
<!-- Node20 -->
<g id="node19" class="node">
<title>Node20</title>
<g id="a_node19"><a xlink:href="GameClock_8inl_8hxx.html" target="_top" xlink:title="src/services/GameClock.inl.hxx">
<polygon fill="none" stroke="#000000" points="876.221,-112.5 876.221,-131.5 1046.221,-131.5 1046.221,-112.5 876.221,-112.5"/>
<text text-anchor="middle" x="961.221" y="-119.5" font-family="Helvetica,sans-Serif" font-size="10.00" fill="#000000">src/services/GameClock.inl.hxx</text>
</a>
</g>
</g>
<!-- Node19&#45;&gt;Node20 -->
<g id="edge23" class="edge">
<title>Node19&#45;&gt;Node20</title>
<path fill="none" stroke="#191970" d="M959.3089,-158.4538C957.5536,-149.3803 956.6639,-138.9998 957.1812,-131.6427"/>
<polygon fill="#191970" stroke="#191970" points="955.9327,-159.3807 961.7348,-168.2455 962.7272,-157.6973 955.9327,-159.3807"/>
</g>
<!-- Node21 -->
<g id="node20" class="node">
<title>Node21</title>
<g id="a_node20"><a xlink:href="GameClock_8cxx.html" target="_top" xlink:title="src/services/GameClock.cxx">
<polygon fill="none" stroke="#000000" points="704.221,-112.5 704.221,-131.5 858.221,-131.5 858.221,-112.5 704.221,-112.5"/>
<text text-anchor="middle" x="781.221" y="-119.5" font-family="Helvetica,sans-Serif" font-size="10.00" fill="#000000">src/services/GameClock.cxx</text>
</a>
</g>
</g>
<!-- Node19&#45;&gt;Node21 -->
<g id="edge26" class="edge">
<title>Node19&#45;&gt;Node21</title>
<path fill="none" stroke="#191970" d="M926.3332,-165.4561C892.0067,-155.1765 844.1644,-140.8494 812.9479,-131.5011"/>
<polygon fill="#191970" stroke="#191970" points="925.4907,-168.8573 936.0745,-168.3733 927.4989,-162.1515 925.4907,-168.8573"/>
</g>
<!-- Node20&#45;&gt;Node19 -->
<g id="edge24" class="edge">
<title>Node20&#45;&gt;Node19</title>
<path fill="none" stroke="#191970" d="M970.1063,-141.4087C971.8704,-150.4689 972.7716,-160.8579 972.2685,-168.2455"/>
<polygon fill="#191970" stroke="#191970" points="973.4867,-140.4989 967.6714,-131.6427 966.6946,-142.1924 973.4867,-140.4989"/>
</g>
<!-- Node22&#45;&gt;Node12 -->
<g id="edge28" class="edge">
<title>Node22&#45;&gt;Node12</title>
<path fill="none" stroke="#191970" d="M149.1285,-164.4342C182.5,-150.1246 237.4405,-127.5392 286.221,-112 334.8731,-96.5017 392.0536,-83.0508 430.043,-74.7641"/>
<polygon fill="#191970" stroke="#191970" points="147.6981,-161.2394 139.9032,-168.4151 150.4715,-167.6666 147.6981,-161.2394"/>
</g>
<!-- Node22&#45;&gt;Node17 -->
<g id="edge29" class="edge">
<title>Node22&#45;&gt;Node17</title>
<path fill="none" stroke="#191970" d="M202.7819,-167.139C283.2766,-156.8002 403.2175,-141.3949 480.0724,-131.5237"/>
<polygon fill="#191970" stroke="#191970" points="202.1493,-163.6914 192.6766,-168.4369 203.0411,-170.6343 202.1493,-163.6914"/>
</g>
<!-- Node23 -->
<g id="node22" class="node">
<title>Node23</title>
<g id="a_node22"><a xlink:href="ResourceManager_8cxx.html" target="_top" xlink:title="src/services/ResourceManager.cxx">
<polygon fill="none" stroke="#000000" points="26.721,-112.5 26.721,-131.5 209.721,-131.5 209.721,-112.5 26.721,-112.5"/>
<text text-anchor="middle" x="118.221" y="-119.5" font-family="Helvetica,sans-Serif" font-size="10.00" fill="#000000">src/services/ResourceManager.cxx</text>
</a>
</g>
</g>
<!-- Node22&#45;&gt;Node23 -->
<g id="edge30" class="edge">
<title>Node22&#45;&gt;Node23</title>
<path fill="none" stroke="#191970" d="M118.221,-158.1575C118.221,-149.155 118.221,-138.9199 118.221,-131.6427"/>
<polygon fill="#191970" stroke="#191970" points="114.7211,-158.2455 118.221,-168.2455 121.7211,-158.2456 114.7211,-158.2455"/>
</g>
<!-- Node26&#45;&gt;Node17 -->
<g id="edge34" class="edge">
<title>Node26&#45;&gt;Node17</title>
<path fill="none" stroke="#191970" d="M528.4889,-159.9209C534.8698,-150.5176 542.414,-139.3997 547.6777,-131.6427"/>
<polygon fill="#191970" stroke="#191970" points="525.5589,-158.0055 522.8401,-168.2455 531.3513,-161.936 525.5589,-158.0055"/>
</g>
<!-- Node27&#45;&gt;Node7 -->
<g id="edge37" class="edge">
<title>Node27&#45;&gt;Node7</title>
<path fill="none" stroke="#191970" d="M1415.8128,-388.9815C1526.4608,-349.2622 1851.6457,-229.7971 1879.221,-188 1902.8421,-152.1964 1880.1236,-97.4063 1869.2715,-75.5162"/>
<polygon fill="#191970" stroke="#191970" points="1414.3266,-385.7961 1406.0928,-392.4635 1416.6873,-392.386 1414.3266,-385.7961"/>
</g>
<!-- Node27&#45;&gt;Node12 -->
<g id="edge49" class="edge">
<title>Node27&#45;&gt;Node12</title>
<path fill="none" stroke="#191970" d="M1309.0759,-390.6758C1219.0169,-374.1134 1074.221,-339.749 1074.221,-290 1074.221,-290 1074.221,-290 1074.221,-178 1074.221,-147.4754 1078.8672,-131.3031 1055.221,-112 1013.5358,-77.9713 641.0755,-68.7562 514.2737,-66.5938"/>
<polygon fill="#191970" stroke="#191970" points="1308.4996,-394.1282 1318.9628,-392.4632 1309.745,-387.2399 1308.4996,-394.1282"/>
</g>
<!-- Node27&#45;&gt;Node17 -->
<g id="edge50" class="edge">
<title>Node27&#45;&gt;Node17</title>
<path fill="none" stroke="#191970" d="M1286.1609,-400.8677C1043.8771,-396.6909 412.221,-377.4188 412.221,-290 412.221,-290 412.221,-290 412.221,-234 412.221,-203.4754 410.4901,-190.405 431.221,-168 448.4854,-149.3414 474.0441,-138.21 497.3969,-131.5884"/>
<polygon fill="#191970" stroke="#191970" points="1286.2998,-404.3704 1296.3571,-401.0385 1286.4171,-397.3714 1286.2998,-404.3704"/>
</g>
<!-- Node28 -->
<g id="node27" class="node">
<title>Node28</title>
<g id="a_node27"><a xlink:href="DataModel_8hxx.html" target="_top" xlink:title="src/model/DataModel.hxx">
<polygon fill="none" stroke="#000000" points="1308.721,-280.5 1308.721,-299.5 1449.721,-299.5 1449.721,-280.5 1308.721,-280.5"/>
<text text-anchor="middle" x="1379.221" y="-287.5" font-family="Helvetica,sans-Serif" font-size="10.00" fill="#000000">src/model/DataModel.hxx</text>
</a>
</g>
</g>
<!-- Node27&#45;&gt;Node28 -->
<g id="edge38" class="edge">
<title>Node27&#45;&gt;Node28</title>
<path fill="none" stroke="#191970" d="M1398.2743,-384.9779C1410.2821,-372.0893 1422.4377,-353.6477 1416.221,-336 1411.1131,-321.5 1399.2881,-308.1993 1390.3712,-299.6707"/>
<polygon fill="#191970" stroke="#191970" points="1395.6056,-382.6957 1390.9824,-392.2286 1400.5413,-387.6595 1395.6056,-382.6957"/>
</g>
<!-- Node35 -->
<g id="node34" class="node">
<title>Node35</title>
<g id="a_node34"><a xlink:href="UIMQDispatcher_8hxx.html" target="_top" xlink:title="src/engine/UIMQDispatcher.hxx">
<polygon fill="none" stroke="#000000" points="1238.721,-336.5 1238.721,-355.5 1407.721,-355.5 1407.721,-336.5 1238.721,-336.5"/>
<text text-anchor="middle" x="1323.221" y="-343.5" font-family="Helvetica,sans-Serif" font-size="10.00" fill="#000000">src/engine/UIMQDispatcher.hxx</text>
</a>
</g>
</g>
<!-- Node27&#45;&gt;Node35 -->
<g id="edge47" class="edge">
<title>Node27&#45;&gt;Node35</title>
<path fill="none" stroke="#191970" d="M1362.2961,-385.0751C1352.6612,-375.4402 1340.9405,-363.7196 1332.8636,-355.6427"/>
<polygon fill="#191970" stroke="#191970" points="1359.9205,-387.6493 1369.4665,-392.2455 1364.8703,-382.6996 1359.9205,-387.6493"/>
</g>
<!-- Node29 -->
<g id="node28" class="node">
<title>Node29</title>
<g id="a_node28"><a xlink:href="MouseState_8hxx.html" target="_top" xlink:title="src/model/MouseState.hxx">
<polygon fill="none" stroke="#000000" points="1410.221,-224.5 1410.221,-243.5 1556.221,-243.5 1556.221,-224.5 1410.221,-224.5"/>
<text text-anchor="middle" x="1483.221" y="-231.5" font-family="Helvetica,sans-Serif" font-size="10.00" fill="#000000">src/model/MouseState.hxx</text>
</a>
</g>
</g>
<!-- Node28&#45;&gt;Node29 -->
<g id="edge39" class="edge">
<title>Node28&#45;&gt;Node29</title>
<path fill="none" stroke="#191970" d="M1406.2238,-275.46C1424.8346,-265.4388 1449.0508,-252.3993 1465.3131,-243.6427"/>
<polygon fill="#191970" stroke="#191970" points="1404.4817,-272.4228 1397.3364,-280.2455 1407.8005,-278.5861 1404.4817,-272.4228"/>
</g>
<!-- Node33 -->
<g id="node32" class="node">
<title>Node33</title>
<g id="a_node32"><a xlink:href="ButtonState_8hxx.html" target="_top" xlink:title="src/model/ButtonState.hxx">
<polygon fill="none" stroke="#000000" points="1201.221,-224.5 1201.221,-243.5 1347.221,-243.5 1347.221,-224.5 1201.221,-224.5"/>
<text text-anchor="middle" x="1274.221" y="-231.5" font-family="Helvetica,sans-Serif" font-size="10.00" fill="#000000">src/model/ButtonState.hxx</text>
</a>
</g>
</g>
<!-- Node28&#45;&gt;Node33 -->
<g id="edge45" class="edge">
<title>Node28&#45;&gt;Node33</title>
<path fill="none" stroke="#191970" d="M1351.9585,-275.46C1333.1688,-265.4388 1308.7197,-252.3993 1292.301,-243.6427"/>
<polygon fill="#191970" stroke="#191970" points="1350.4607,-278.6278 1360.9314,-280.2455 1353.7549,-272.4514 1350.4607,-278.6278"/>
</g>
<!-- Node29&#45;&gt;Node8 -->
<g id="edge43" class="edge">
<title>Node29&#45;&gt;Node8</title>
<path fill="none" stroke="#191970" d="M1487.2052,-214.5987C1492.1821,-190.363 1500.5007,-149.8551 1504.265,-131.5249"/>
<polygon fill="#191970" stroke="#191970" points="1483.7651,-213.9513 1485.1819,-224.4509 1490.6221,-215.3594 1483.7651,-213.9513"/>
</g>
<!-- Node30 -->
<g id="node29" class="node">
<title>Node30</title>
<g id="a_node29"><a xlink:href="CursorView_8hxx.html" target="_top" xlink:title="src/view/CursorView.hxx">
<polygon fill="none" stroke="#000000" points="1342.221,-168.5 1342.221,-187.5 1478.221,-187.5 1478.221,-168.5 1342.221,-168.5"/>
<text text-anchor="middle" x="1410.221" y="-175.5" font-family="Helvetica,sans-Serif" font-size="10.00" fill="#000000">src/view/CursorView.hxx</text>
</a>
</g>
</g>
<!-- Node29&#45;&gt;Node30 -->
<g id="edge40" class="edge">
<title>Node29&#45;&gt;Node30</title>
<path fill="none" stroke="#191970" d="M1462.27,-217.928C1449.5102,-208.1397 1433.6324,-195.9595 1422.7909,-187.6427"/>
<polygon fill="#191970" stroke="#191970" points="1460.4407,-220.9359 1470.5053,-224.2455 1464.7013,-215.3819 1460.4407,-220.9359"/>
</g>
<!-- Node32 -->
<g id="node31" class="node">
<title>Node32</title>
<g id="a_node31"><a xlink:href="MouseState_8cxx.html" target="_top" xlink:title="src/model/MouseState.cxx">
<polygon fill="none" stroke="#000000" points="1534.721,-168.5 1534.721,-187.5 1679.721,-187.5 1679.721,-168.5 1534.721,-168.5"/>
<text text-anchor="middle" x="1607.221" y="-175.5" font-family="Helvetica,sans-Serif" font-size="10.00" fill="#000000">src/model/MouseState.cxx</text>
</a>
</g>
</g>
<!-- Node29&#45;&gt;Node32 -->
<g id="edge44" class="edge">
<title>Node29&#45;&gt;Node32</title>
<path fill="none" stroke="#191970" d="M1513.6734,-220.2473C1536.1931,-210.0771 1566.2826,-196.4883 1586.1828,-187.5011"/>
<polygon fill="#191970" stroke="#191970" points="1512.2105,-217.0675 1504.5373,-224.3733 1515.0916,-223.4471 1512.2105,-217.0675"/>
</g>
<!-- Node30&#45;&gt;Node8 -->
<g id="edge41" class="edge">
<title>Node30&#45;&gt;Node8</title>
<path fill="none" stroke="#191970" d="M1435.8556,-163.0465C1452.9369,-153.0824 1474.8849,-140.2794 1489.6907,-131.6427"/>
<polygon fill="#191970" stroke="#191970" points="1433.8171,-160.1836 1426.9429,-168.2455 1437.3443,-166.23 1433.8171,-160.1836"/>
</g>
<!-- Node31 -->
<g id="node30" class="node">
<title>Node31</title>
<g id="a_node30"><a xlink:href="CursorView_8cxx.html" target="_top" xlink:title="src/view/CursorView.cxx">
<polygon fill="none" stroke="#000000" points="1293.721,-112.5 1293.721,-131.5 1428.721,-131.5 1428.721,-112.5 1293.721,-112.5"/>
<text text-anchor="middle" x="1361.221" y="-119.5" font-family="Helvetica,sans-Serif" font-size="10.00" fill="#000000">src/view/CursorView.cxx</text>
</a>
</g>
</g>
<!-- Node30&#45;&gt;Node31 -->
<g id="edge42" class="edge">
<title>Node30&#45;&gt;Node31</title>
<path fill="none" stroke="#191970" d="M1394.9088,-160.5004C1386.5763,-150.9775 1376.5856,-139.5596 1369.6583,-131.6427"/>
<polygon fill="#191970" stroke="#191970" points="1392.4667,-163.0245 1401.6858,-168.2455 1397.7348,-158.415 1392.4667,-163.0245"/>
</g>
<!-- Node34 -->
<g id="node33" class="node">
<title>Node34</title>
<g id="a_node33"><a xlink:href="ButtonState_8cxx.html" target="_top" xlink:title="src/model/ButtonState.cxx">
<polygon fill="none" stroke="#000000" points="1178.221,-168.5 1178.221,-187.5 1324.221,-187.5 1324.221,-168.5 1178.221,-168.5"/>
<text text-anchor="middle" x="1251.221" y="-175.5" font-family="Helvetica,sans-Serif" font-size="10.00" fill="#000000">src/model/ButtonState.cxx</text>
</a>
</g>
</g>
<!-- Node33&#45;&gt;Node34 -->
<g id="edge46" class="edge">
<title>Node33&#45;&gt;Node34</title>
<path fill="none" stroke="#191970" d="M1266.3144,-214.7493C1262.5593,-205.6064 1258.2359,-195.0798 1255.1813,-187.6427"/>
<polygon fill="#191970" stroke="#191970" points="1263.1778,-216.3251 1270.2147,-224.2455 1269.653,-213.6656 1263.1778,-216.3251"/>
</g>
<!-- Node35&#45;&gt;Node28 -->
<g id="edge48" class="edge">
<title>Node35&#45;&gt;Node28</title>
<path fill="none" stroke="#191970" d="M1340.1458,-329.0751C1349.7807,-319.4402 1361.5014,-307.7196 1369.5783,-299.6427"/>
<polygon fill="#191970" stroke="#191970" points="1337.5716,-326.6996 1332.9754,-336.2455 1342.5214,-331.6493 1337.5716,-326.6996"/>
</g>
</g>
</svg>
