<?xml version="1.0" encoding="UTF-8" standalone="no"?>
<!DOCTYPE svg PUBLIC "-//W3C//DTD SVG 1.1//EN"
 "http://www.w3.org/Graphics/SVG/1.1/DTD/svg11.dtd">
<!-- Generated by graphviz version 2.40.1 (20161225.0304)
 -->
<!-- Title: src/events/AudioEvents.hxx Pages: 1 -->
<svg width="714pt" height="252pt"
 viewBox="0.00 0.00 714.00 252.00" xmlns="http://www.w3.org/2000/svg" xmlns:xlink="http://www.w3.org/1999/xlink">
<g id="graph0" class="graph" transform="scale(1 1) rotate(0) translate(4 248)">
<title>src/events/AudioEvents.hxx</title>
<!-- Node0 -->
<g id="node1" class="node">
<title>Node0</title>
<polygon fill="#bfbfbf" stroke="#000000" points="296,-224.5 296,-243.5 448,-243.5 448,-224.5 296,-224.5"/>
<text text-anchor="middle" x="372" y="-231.5" font-family="Helvetica,sans-Serif" font-size="10.00" fill="#000000">src/events/AudioEvents.hxx</text>
</g>
<!-- Node1 -->
<g id="node2" class="node">
<title>Node1</title>
<g id="a_node2"><a xlink:href="Soundtrack_8hxx.html" target="_top" xlink:title="../engine/audio/Soundtrack.hxx">
<polygon fill="none" stroke="#000000" points="195.5,-112.5 195.5,-131.5 362.5,-131.5 362.5,-112.5 195.5,-112.5"/>
<text text-anchor="middle" x="279" y="-119.5" font-family="Helvetica,sans-Serif" font-size="10.00" fill="#000000">../engine/audio/Soundtrack.hxx</text>
</a>
</g>
</g>
<!-- Node0&#45;&gt;Node1 -->
<g id="edge1" class="edge">
<title>Node0&#45;&gt;Node1</title>
<path fill="none" stroke="#191970" d="M364.0709,-224.4509C348.4223,-205.6054 313.3642,-163.3849 293.483,-139.4419"/>
<polygon fill="#191970" stroke="#191970" points="295.9901,-136.9824 286.9091,-131.5249 290.6047,-141.4543 295.9901,-136.9824"/>
</g>
<!-- Node12 -->
<g id="node13" class="node">
<title>Node12</title>
<g id="a_node13"><a xlink:href="AudioConfig_8hxx.html" target="_top" xlink:title="../engine/audio/AudioConfig.hxx">
<polygon fill="none" stroke="#000000" points="361.5,-168.5 361.5,-187.5 532.5,-187.5 532.5,-168.5 361.5,-168.5"/>
<text text-anchor="middle" x="447" y="-175.5" font-family="Helvetica,sans-Serif" font-size="10.00" fill="#000000">../engine/audio/AudioConfig.hxx</text>
</a>
</g>
</g>
<!-- Node0&#45;&gt;Node12 -->
<g id="edge12" class="edge">
<title>Node0&#45;&gt;Node12</title>
<path fill="none" stroke="#191970" d="M385.064,-224.2455C396.3562,-215.814 412.8845,-203.4729 426.0271,-193.6598"/>
<polygon fill="#191970" stroke="#191970" points="428.1669,-196.4301 434.0857,-187.6427 423.9789,-190.8211 428.1669,-196.4301"/>
</g>
<!-- Node2 -->
<g id="node3" class="node">
<title>Node2</title>
<polygon fill="none" stroke="#bfbfbf" points="0,-56.5 0,-75.5 58,-75.5 58,-56.5 0,-56.5"/>
<text text-anchor="middle" x="29" y="-63.5" font-family="Helvetica,sans-Serif" font-size="10.00" fill="#000000">memory</text>
</g>
<!-- Node1&#45;&gt;Node2 -->
<g id="edge2" class="edge">
<title>Node1&#45;&gt;Node2</title>
<path fill="none" stroke="#191970" d="M232.1316,-112.4433C191.2705,-103.9736 130.1765,-90.9799 67.9987,-76.167"/>
<polygon fill="#191970" stroke="#191970" points="68.5535,-72.7009 58.0132,-73.7744 66.9224,-79.5083 68.5535,-72.7009"/>
</g>
<!-- Node3 -->
<g id="node4" class="node">
<title>Node3</title>
<polygon fill="none" stroke="#bfbfbf" points="76,-56.5 76,-75.5 120,-75.5 120,-56.5 76,-56.5"/>
<text text-anchor="middle" x="98" y="-63.5" font-family="Helvetica,sans-Serif" font-size="10.00" fill="#000000">string</text>
</g>
<!-- Node1&#45;&gt;Node3 -->
<g id="edge3" class="edge">
<title>Node1&#45;&gt;Node3</title>
<path fill="none" stroke="#191970" d="M247.3544,-112.4406C218.9268,-103.8213 175.8049,-90.6678 129.594,-76.1582"/>
<polygon fill="#191970" stroke="#191970" points="130.5924,-72.8032 120.0029,-73.1411 128.4918,-79.4807 130.5924,-72.8032"/>
</g>
<!-- Node4 -->
<g id="node5" class="node">
<title>Node4</title>
<g id="a_node5"><a xlink:href="Meta_8hxx.html" target="_top" xlink:title="../../util/Meta.hxx">
<polygon fill="none" stroke="#000000" points="138,-56.5 138,-75.5 236,-75.5 236,-56.5 138,-56.5"/>
<text text-anchor="middle" x="187" y="-63.5" font-family="Helvetica,sans-Serif" font-size="10.00" fill="#000000">../../util/Meta.hxx</text>
</a>
</g>
</g>
<!-- Node1&#45;&gt;Node4 -->
<g id="edge4" class="edge">
<title>Node1&#45;&gt;Node4</title>
<path fill="none" stroke="#191970" d="M262.9748,-112.2455C248.8592,-103.6534 228.0737,-91.0014 211.8101,-81.1018"/>
<polygon fill="#191970" stroke="#191970" points="213.2034,-77.8525 202.8415,-75.6427 209.5637,-83.8319 213.2034,-77.8525"/>
</g>
<!-- Node9 -->
<g id="node10" class="node">
<title>Node9</title>
<polygon fill="none" stroke="#bfbfbf" points="254,-56.5 254,-75.5 304,-75.5 304,-56.5 254,-56.5"/>
<text text-anchor="middle" x="279" y="-63.5" font-family="Helvetica,sans-Serif" font-size="10.00" fill="#000000">AL/al.h</text>
</g>
<!-- Node1&#45;&gt;Node9 -->
<g id="edge9" class="edge">
<title>Node1&#45;&gt;Node9</title>
<path fill="none" stroke="#191970" d="M279,-112.2455C279,-104.9382 279,-94.6944 279,-85.7046"/>
<polygon fill="#191970" stroke="#191970" points="282.5001,-85.6426 279,-75.6427 275.5001,-85.6427 282.5001,-85.6426"/>
</g>
<!-- Node10 -->
<g id="node11" class="node">
<title>Node10</title>
<polygon fill="none" stroke="#bfbfbf" points="322.5,-56.5 322.5,-75.5 377.5,-75.5 377.5,-56.5 322.5,-56.5"/>
<text text-anchor="middle" x="350" y="-63.5" font-family="Helvetica,sans-Serif" font-size="10.00" fill="#000000">AL/alc.h</text>
</g>
<!-- Node1&#45;&gt;Node10 -->
<g id="edge10" class="edge">
<title>Node1&#45;&gt;Node10</title>
<path fill="none" stroke="#191970" d="M291.3673,-112.2455C301.9554,-103.8943 317.4064,-91.7076 329.7893,-81.9408"/>
<polygon fill="#191970" stroke="#191970" points="332.0903,-84.5837 337.7745,-75.6427 327.7553,-79.0875 332.0903,-84.5837"/>
</g>
<!-- Node11 -->
<g id="node12" class="node">
<title>Node11</title>
<polygon fill="none" stroke="#bfbfbf" points="395.5,-56.5 395.5,-75.5 442.5,-75.5 442.5,-56.5 395.5,-56.5"/>
<text text-anchor="middle" x="419" y="-63.5" font-family="Helvetica,sans-Serif" font-size="10.00" fill="#000000">vector</text>
</g>
<!-- Node1&#45;&gt;Node11 -->
<g id="edge11" class="edge">
<title>Node1&#45;&gt;Node11</title>
<path fill="none" stroke="#191970" d="M303.0669,-112.3733C325.8428,-103.2629 360.2344,-89.5062 385.649,-79.3404"/>
<polygon fill="#191970" stroke="#191970" points="387.2623,-82.4648 395.2472,-75.5011 384.6625,-75.9654 387.2623,-82.4648"/>
</g>
<!-- Node5 -->
<g id="node6" class="node">
<title>Node5</title>
<polygon fill="none" stroke="#bfbfbf" points="35,-.5 35,-19.5 95,-19.5 95,-.5 35,-.5"/>
<text text-anchor="middle" x="65" y="-7.5" font-family="Helvetica,sans-Serif" font-size="10.00" fill="#000000">iostream</text>
</g>
<!-- Node4&#45;&gt;Node5 -->
<g id="edge5" class="edge">
<title>Node4&#45;&gt;Node5</title>
<path fill="none" stroke="#191970" d="M166.0275,-56.3733C146.4433,-47.3838 117.0039,-33.8706 94.949,-23.7471"/>
<polygon fill="#191970" stroke="#191970" points="96.2473,-20.4919 85.6989,-19.5011 93.3271,-26.8538 96.2473,-20.4919"/>
</g>
<!-- Node6 -->
<g id="node7" class="node">
<title>Node6</title>
<polygon fill="none" stroke="#bfbfbf" points="113.5,-.5 113.5,-19.5 182.5,-19.5 182.5,-.5 113.5,-.5"/>
<text text-anchor="middle" x="148" y="-7.5" font-family="Helvetica,sans-Serif" font-size="10.00" fill="#000000">type_traits</text>
</g>
<!-- Node4&#45;&gt;Node6 -->
<g id="edge6" class="edge">
<title>Node4&#45;&gt;Node6</title>
<path fill="none" stroke="#191970" d="M180.2067,-56.2455C174.7822,-48.4564 167.0339,-37.3308 160.4967,-27.9439"/>
<polygon fill="#191970" stroke="#191970" points="163.3025,-25.8485 154.7154,-19.6427 157.5583,-29.849 163.3025,-25.8485"/>
</g>
<!-- Node7 -->
<g id="node8" class="node">
<title>Node7</title>
<polygon fill="none" stroke="#bfbfbf" points="200.5,-.5 200.5,-19.5 251.5,-19.5 251.5,-.5 200.5,-.5"/>
<text text-anchor="middle" x="226" y="-7.5" font-family="Helvetica,sans-Serif" font-size="10.00" fill="#000000">variant</text>
</g>
<!-- Node4&#45;&gt;Node7 -->
<g id="edge7" class="edge">
<title>Node4&#45;&gt;Node7</title>
<path fill="none" stroke="#191970" d="M193.7933,-56.2455C199.2178,-48.4564 206.9661,-37.3308 213.5033,-27.9439"/>
<polygon fill="#191970" stroke="#191970" points="216.4417,-29.849 219.2846,-19.6427 210.6975,-25.8485 216.4417,-29.849"/>
</g>
<!-- Node8 -->
<g id="node9" class="node">
<title>Node8</title>
<polygon fill="none" stroke="#bfbfbf" points="269.5,-.5 269.5,-19.5 310.5,-19.5 310.5,-.5 269.5,-.5"/>
<text text-anchor="middle" x="290" y="-7.5" font-family="Helvetica,sans-Serif" font-size="10.00" fill="#000000">tuple</text>
</g>
<!-- Node4&#45;&gt;Node8 -->
<g id="edge8" class="edge">
<title>Node4&#45;&gt;Node8</title>
<path fill="none" stroke="#191970" d="M204.9412,-56.2455C221.04,-47.4928 244.8879,-34.527 263.2391,-24.5496"/>
<polygon fill="#191970" stroke="#191970" points="265.1507,-27.4942 272.2644,-19.6427 261.8071,-21.3444 265.1507,-27.4942"/>
</g>
<!-- Node12&#45;&gt;Node1 -->
<g id="edge13" class="edge">
<title>Node12&#45;&gt;Node1</title>
<path fill="none" stroke="#191970" d="M418.1198,-168.3733C390.1839,-159.0613 347.6858,-144.8953 317.0131,-134.671"/>
<polygon fill="#191970" stroke="#191970" points="318.097,-131.3431 307.5034,-131.5011 315.8834,-137.9839 318.097,-131.3431"/>
</g>
<!-- Node12&#45;&gt;Node11 -->
<g id="edge15" class="edge">
<title>Node12&#45;&gt;Node11</title>
<path fill="none" stroke="#191970" d="M435.8498,-168.3293C426.9329,-159.8007 415.1079,-146.5 410,-132 404.664,-116.8523 407.7659,-98.7165 411.7212,-85.2922"/>
<polygon fill="#191970" stroke="#191970" points="415.0823,-86.2773 414.9314,-75.6835 408.443,-84.0591 415.0823,-86.2773"/>
</g>
<!-- Node13 -->
<g id="node14" class="node">
<title>Node13</title>
<polygon fill="none" stroke="#bfbfbf" points="418.5,-112.5 418.5,-131.5 511.5,-131.5 511.5,-112.5 418.5,-112.5"/>
<text text-anchor="middle" x="465" y="-119.5" font-family="Helvetica,sans-Serif" font-size="10.00" fill="#000000">unordered_map</text>
</g>
<!-- Node12&#45;&gt;Node13 -->
<g id="edge14" class="edge">
<title>Node12&#45;&gt;Node13</title>
<path fill="none" stroke="#191970" d="M450.1354,-168.2455C452.51,-160.8579 455.8493,-150.4689 458.7615,-141.4087"/>
<polygon fill="#191970" stroke="#191970" points="462.1725,-142.234 461.9006,-131.6427 455.5083,-140.0919 462.1725,-142.234"/>
</g>
<!-- Node14 -->
<g id="node15" class="node">
<title>Node14</title>
<polygon fill="none" stroke="#bfbfbf" points="530,-112.5 530,-131.5 630,-131.5 630,-112.5 530,-112.5"/>
<text text-anchor="middle" x="580" y="-119.5" font-family="Helvetica,sans-Serif" font-size="10.00" fill="#000000">betterEnums.hxx</text>
</g>
<!-- Node12&#45;&gt;Node14 -->
<g id="edge16" class="edge">
<title>Node12&#45;&gt;Node14</title>
<path fill="none" stroke="#191970" d="M469.8635,-168.3733C491.405,-159.3032 523.8838,-145.6279 547.9956,-135.4755"/>
<polygon fill="#191970" stroke="#191970" points="549.5767,-138.6075 557.4348,-131.5011 546.8603,-132.156 549.5767,-138.6075"/>
</g>
<!-- Node15 -->
<g id="node16" class="node">
<title>Node15</title>
<polygon fill="none" stroke="#bfbfbf" points="648,-112.5 648,-131.5 706,-131.5 706,-112.5 648,-112.5"/>
<text text-anchor="middle" x="677" y="-119.5" font-family="Helvetica,sans-Serif" font-size="10.00" fill="#000000">json.hxx</text>
</g>
<!-- Node12&#45;&gt;Node15 -->
<g id="edge17" class="edge">
<title>Node12&#45;&gt;Node15</title>
<path fill="none" stroke="#191970" d="M487.8898,-168.4806C524.676,-159.8546 580.4575,-146.6223 637.9746,-132.2206"/>
<polygon fill="#191970" stroke="#191970" points="639.1247,-135.5405 647.9709,-129.71 637.4196,-128.7513 639.1247,-135.5405"/>
</g>
</g>
</svg>
