<?xml version="1.0" encoding="UTF-8" standalone="no"?>
<!DOCTYPE svg PUBLIC "-//W3C//DTD SVG 1.1//EN"
 "http://www.w3.org/Graphics/SVG/1.1/DTD/svg11.dtd">
<!-- Generated by graphviz version 2.40.1 (20161225.0304)
 -->
<!-- Title: src/engine/ui/basics/ButtonGroup.cxx Pages: 1 -->
<svg width="1294pt" height="599pt"
 viewBox="0.00 0.00 1293.75 599.00" xmlns="http://www.w3.org/2000/svg" xmlns:xlink="http://www.w3.org/1999/xlink">
<g id="graph0" class="graph" transform="scale(1 1) rotate(0) translate(4 595)">
<title>src/engine/ui/basics/ButtonGroup.cxx</title>
<!-- Node0 -->
<g id="node1" class="node">
<title>Node0</title>
<polygon fill="#bfbfbf" stroke="#000000" points="377.253,-560.5 377.253,-590.5 490.253,-590.5 490.253,-560.5 377.253,-560.5"/>
<text text-anchor="start" x="385.253" y="-578.5" font-family="Helvetica,sans-Serif" font-size="10.00" fill="#000000">src/engine/ui/basics</text>
<text text-anchor="middle" x="433.753" y="-567.5" font-family="Helvetica,sans-Serif" font-size="10.00" fill="#000000">/ButtonGroup.cxx</text>
</g>
<!-- Node1 -->
<g id="node2" class="node">
<title>Node1</title>
<g id="a_node2"><a xlink:href="ButtonGroup_8hxx.html" target="_top" xlink:title="ButtonGroup.hxx">
<polygon fill="none" stroke="#000000" points="176.253,-448.5 176.253,-467.5 275.253,-467.5 275.253,-448.5 176.253,-448.5"/>
<text text-anchor="middle" x="225.753" y="-455.5" font-family="Helvetica,sans-Serif" font-size="10.00" fill="#000000">ButtonGroup.hxx</text>
</a>
</g>
</g>
<!-- Node0&#45;&gt;Node1 -->
<g id="edge1" class="edge">
<title>Node0&#45;&gt;Node1</title>
<path fill="none" stroke="#191970" d="M406.9865,-560.3795C366.7615,-537.6562 291.2222,-494.9838 251.5646,-472.5811"/>
<polygon fill="#191970" stroke="#191970" points="253.1835,-469.4758 242.7552,-467.6046 249.7405,-475.5705 253.1835,-469.4758"/>
</g>
<!-- Node26 -->
<g id="node27" class="node">
<title>Node26</title>
<g id="a_node27"><a xlink:href="UIManager_8hxx.html" target="_top" xlink:title="../../UIManager.hxx">
<polygon fill="none" stroke="#000000" points="588.253,-504.5 588.253,-523.5 695.253,-523.5 695.253,-504.5 588.253,-504.5"/>
<text text-anchor="middle" x="641.753" y="-511.5" font-family="Helvetica,sans-Serif" font-size="10.00" fill="#000000">../../UIManager.hxx</text>
</a>
</g>
</g>
<!-- Node0&#45;&gt;Node26 -->
<g id="edge41" class="edge">
<title>Node0&#45;&gt;Node26</title>
<path fill="none" stroke="#191970" d="M484.6355,-560.4554C519.9497,-550.0139 566.4333,-536.27 599.661,-526.4455"/>
<polygon fill="#191970" stroke="#191970" points="600.9232,-529.7221 609.5204,-523.5303 598.9384,-523.0094 600.9232,-529.7221"/>
</g>
<!-- Node2 -->
<g id="node3" class="node">
<title>Node2</title>
<g id="a_node3"><a xlink:href="UIElement_8hxx.html" target="_top" xlink:title="UIElement.hxx">
<polygon fill="none" stroke="#000000" points="492.253,-280.5 492.253,-299.5 581.253,-299.5 581.253,-280.5 492.253,-280.5"/>
<text text-anchor="middle" x="536.753" y="-287.5" font-family="Helvetica,sans-Serif" font-size="10.00" fill="#000000">UIElement.hxx</text>
</a>
</g>
</g>
<!-- Node1&#45;&gt;Node2 -->
<g id="edge2" class="edge">
<title>Node1&#45;&gt;Node2</title>
<path fill="none" stroke="#191970" d="M226.2985,-448.2436C228.1667,-424.8402 236.344,-365.287 271.753,-336 303.0262,-310.1338 414.0093,-298.1859 482.036,-293.1807"/>
<polygon fill="#191970" stroke="#191970" points="482.4285,-296.6618 492.1562,-292.4638 481.9339,-289.6793 482.4285,-296.6618"/>
</g>
<!-- Node24 -->
<g id="node25" class="node">
<title>Node24</title>
<g id="a_node25"><a xlink:href="Button_8hxx.html" target="_top" xlink:title="../widgets/Button.hxx">
<polygon fill="none" stroke="#000000" points="329.753,-392.5 329.753,-411.5 449.753,-411.5 449.753,-392.5 329.753,-392.5"/>
<text text-anchor="middle" x="389.753" y="-399.5" font-family="Helvetica,sans-Serif" font-size="10.00" fill="#000000">../widgets/Button.hxx</text>
</a>
</g>
</g>
<!-- Node1&#45;&gt;Node24 -->
<g id="edge36" class="edge">
<title>Node1&#45;&gt;Node24</title>
<path fill="none" stroke="#191970" d="M253.9456,-448.3733C281.0983,-439.1016 322.3437,-425.0178 352.2555,-414.804"/>
<polygon fill="#191970" stroke="#191970" points="353.5958,-418.0449 361.9283,-411.5011 351.3338,-411.4204 353.5958,-418.0449"/>
</g>
<!-- Node3 -->
<g id="node4" class="node">
<title>Node3</title>
<polygon fill="none" stroke="#bfbfbf" points="577.753,-56.5 577.753,-75.5 621.753,-75.5 621.753,-56.5 577.753,-56.5"/>
<text text-anchor="middle" x="599.753" y="-63.5" font-family="Helvetica,sans-Serif" font-size="10.00" fill="#000000">string</text>
</g>
<!-- Node2&#45;&gt;Node3 -->
<g id="edge3" class="edge">
<title>Node2&#45;&gt;Node3</title>
<path fill="none" stroke="#191970" d="M492.0952,-289.1902C344.3022,-285.1025 -111.9075,-260.4415 25.753,-112 61.8944,-73.0282 449.8128,-80.7257 502.753,-76 524.279,-74.0785 548.4568,-71.5867 567.289,-69.5712"/>
<polygon fill="#191970" stroke="#191970" points="567.8574,-73.0303 577.4241,-68.4774 567.1063,-66.0707 567.8574,-73.0303"/>
</g>
<!-- Node4 -->
<g id="node5" class="node">
<title>Node4</title>
<g id="a_node5"><a xlink:href="mapEdit_8hxx.html" target="_top" xlink:title="../../basics/mapEdit.hxx">
<polygon fill="none" stroke="#000000" points="175.753,-224.5 175.753,-243.5 305.753,-243.5 305.753,-224.5 175.753,-224.5"/>
<text text-anchor="middle" x="240.753" y="-231.5" font-family="Helvetica,sans-Serif" font-size="10.00" fill="#000000">../../basics/mapEdit.hxx</text>
</a>
</g>
</g>
<!-- Node2&#45;&gt;Node4 -->
<g id="edge4" class="edge">
<title>Node2&#45;&gt;Node4</title>
<path fill="none" stroke="#191970" d="M492.1183,-281.5556C441.2312,-271.9283 357.7807,-256.1404 301.117,-245.4202"/>
<polygon fill="#191970" stroke="#191970" points="301.6894,-241.9665 291.213,-243.5465 300.3881,-248.8445 301.6894,-241.9665"/>
</g>
<!-- Node5 -->
<g id="node6" class="node">
<title>Node5</title>
<g id="a_node6"><a xlink:href="ResourcesManager_8hxx.html" target="_top" xlink:title="../../ResourcesManager.hxx">
<polygon fill="none" stroke="#000000" points="323.753,-224.5 323.753,-243.5 469.753,-243.5 469.753,-224.5 323.753,-224.5"/>
<text text-anchor="middle" x="396.753" y="-231.5" font-family="Helvetica,sans-Serif" font-size="10.00" fill="#000000">../../ResourcesManager.hxx</text>
</a>
</g>
</g>
<!-- Node2&#45;&gt;Node5 -->
<g id="edge6" class="edge">
<title>Node2&#45;&gt;Node5</title>
<path fill="none" stroke="#191970" d="M512.6861,-280.3733C489.9102,-271.2629 455.5186,-257.5062 430.104,-247.3404"/>
<polygon fill="#191970" stroke="#191970" points="431.0905,-243.9654 420.5058,-243.5011 428.4907,-250.4648 431.0905,-243.9654"/>
</g>
<!-- Node8 -->
<g id="node9" class="node">
<title>Node8</title>
<polygon fill="none" stroke="#bfbfbf" points="514.753,-112.5 514.753,-131.5 558.753,-131.5 558.753,-112.5 514.753,-112.5"/>
<text text-anchor="middle" x="536.753" y="-119.5" font-family="Helvetica,sans-Serif" font-size="10.00" fill="#000000">SDL.h</text>
</g>
<!-- Node2&#45;&gt;Node8 -->
<g id="edge35" class="edge">
<title>Node2&#45;&gt;Node8</title>
<path fill="none" stroke="#191970" d="M528.0441,-280.1949C509.4047,-258.9565 466.767,-208.9328 459.753,-188 456.9289,-179.5717 455.3661,-175.7309 459.753,-168 465.1026,-158.5726 487.406,-145.7947 506.6413,-136.0985"/>
<polygon fill="#191970" stroke="#191970" points="508.3241,-139.1713 515.75,-131.6143 505.2323,-132.891 508.3241,-139.1713"/>
</g>
<!-- Node18 -->
<g id="node19" class="node">
<title>Node18</title>
<g id="a_node19"><a xlink:href="WindowManager_8hxx.html" target="_top" xlink:title="../../WindowManager.hxx">
<polygon fill="none" stroke="#000000" points="468.753,-168.5 468.753,-187.5 604.753,-187.5 604.753,-168.5 468.753,-168.5"/>
<text text-anchor="middle" x="536.753" y="-175.5" font-family="Helvetica,sans-Serif" font-size="10.00" fill="#000000">../../WindowManager.hxx</text>
</a>
</g>
</g>
<!-- Node2&#45;&gt;Node18 -->
<g id="edge23" class="edge">
<title>Node2&#45;&gt;Node18</title>
<path fill="none" stroke="#191970" d="M536.753,-280.4509C536.753,-262.184 536.753,-221.9553 536.753,-197.6976"/>
<polygon fill="#191970" stroke="#191970" points="540.2531,-197.5249 536.753,-187.5249 533.2531,-197.5249 540.2531,-197.5249"/>
</g>
<!-- Node19 -->
<g id="node20" class="node">
<title>Node19</title>
<g id="a_node20"><a xlink:href="signal_8hxx.html" target="_top" xlink:title="../../basics/signal.hxx">
<polygon fill="none" stroke="#000000" points="676.253,-224.5 676.253,-243.5 795.253,-243.5 795.253,-224.5 676.253,-224.5"/>
<text text-anchor="middle" x="735.753" y="-231.5" font-family="Helvetica,sans-Serif" font-size="10.00" fill="#000000">../../basics/signal.hxx</text>
</a>
</g>
</g>
<!-- Node2&#45;&gt;Node19 -->
<g id="edge29" class="edge">
<title>Node2&#45;&gt;Node19</title>
<path fill="none" stroke="#191970" d="M570.9623,-280.3733C604.4828,-270.9404 655.7035,-256.5265 692.134,-246.2747"/>
<polygon fill="#191970" stroke="#191970" points="693.3121,-249.5792 701.9901,-243.5011 691.4158,-242.8409 693.3121,-249.5792"/>
</g>
<!-- Node4&#45;&gt;Node3 -->
<g id="edge5" class="edge">
<title>Node4&#45;&gt;Node3</title>
<path fill="none" stroke="#191970" d="M194.3337,-224.4939C120.3269,-207.4039 -11.0346,-167.98 40.753,-112 75.7184,-74.2041 451.4736,-80.6404 502.753,-76 524.2767,-74.0523 548.4544,-71.5604 567.2872,-69.5515"/>
<polygon fill="#191970" stroke="#191970" points="567.8541,-73.0108 577.4227,-68.462 567.1059,-66.0509 567.8541,-73.0108"/>
</g>
<!-- Node6 -->
<g id="node7" class="node">
<title>Node6</title>
<polygon fill="none" stroke="#bfbfbf" points="576.753,-112.5 576.753,-131.5 636.753,-131.5 636.753,-112.5 576.753,-112.5"/>
<text text-anchor="middle" x="606.753" y="-119.5" font-family="Helvetica,sans-Serif" font-size="10.00" fill="#000000">iostream</text>
</g>
<!-- Node5&#45;&gt;Node6 -->
<g id="edge7" class="edge">
<title>Node5&#45;&gt;Node6</title>
<path fill="none" stroke="#191970" d="M403.3636,-224.4579C413.7538,-210.1548 435.2652,-183.2152 459.753,-168 469.0448,-162.2267 526.5172,-145.0399 566.7806,-133.3892"/>
<polygon fill="#191970" stroke="#191970" points="567.9673,-136.6897 576.6065,-130.5567 566.0283,-129.9636 567.9673,-136.6897"/>
</g>
<!-- Node7 -->
<g id="node8" class="node">
<title>Node7</title>
<polygon fill="none" stroke="#bfbfbf" points="50.253,-112.5 50.253,-131.5 143.253,-131.5 143.253,-112.5 50.253,-112.5"/>
<text text-anchor="middle" x="96.753" y="-119.5" font-family="Helvetica,sans-Serif" font-size="10.00" fill="#000000">unordered_map</text>
</g>
<!-- Node5&#45;&gt;Node7 -->
<g id="edge8" class="edge">
<title>Node5&#45;&gt;Node7</title>
<path fill="none" stroke="#191970" d="M323.835,-224.4688C283.9493,-217.5677 234.3372,-206.1745 192.753,-188 163.6348,-175.2738 134.0977,-153.3082 115.624,-138.2379"/>
<polygon fill="#191970" stroke="#191970" points="117.6494,-135.3699 107.725,-131.6608 113.1702,-140.7493 117.6494,-135.3699"/>
</g>
<!-- Node5&#45;&gt;Node8 -->
<g id="edge9" class="edge">
<title>Node5&#45;&gt;Node8</title>
<path fill="none" stroke="#191970" d="M391.7929,-224.4218C385.3794,-210.5521 376.41,-184.712 388.753,-168 419.308,-126.6298 450.2779,-145.9172 505.0077,-131.9202"/>
<polygon fill="#191970" stroke="#191970" points="506.0946,-135.2498 514.7493,-129.1386 504.1726,-128.5188 506.0946,-135.2498"/>
</g>
<!-- Node9 -->
<g id="node10" class="node">
<title>Node9</title>
<g id="a_node10"><a xlink:href="TileManager_8hxx.html" target="_top" xlink:title="TileManager.hxx">
<polygon fill="none" stroke="#000000" points="201.253,-168.5 201.253,-187.5 298.253,-187.5 298.253,-168.5 201.253,-168.5"/>
<text text-anchor="middle" x="249.753" y="-175.5" font-family="Helvetica,sans-Serif" font-size="10.00" fill="#000000">TileManager.hxx</text>
</a>
</g>
</g>
<!-- Node5&#45;&gt;Node9 -->
<g id="edge10" class="edge">
<title>Node5&#45;&gt;Node9</title>
<path fill="none" stroke="#191970" d="M371.4828,-224.3733C347.3564,-215.1822 310.8168,-201.2624 284.0653,-191.0713"/>
<polygon fill="#191970" stroke="#191970" points="285.2843,-187.7904 274.6935,-187.5011 282.7923,-194.3318 285.2843,-187.7904"/>
</g>
<!-- Node9&#45;&gt;Node3 -->
<g id="edge13" class="edge">
<title>Node9&#45;&gt;Node3</title>
<path fill="none" stroke="#191970" d="M277.7325,-168.468C302.697,-159.7237 340.0905,-146.0337 371.753,-132 389.5618,-124.1066 392.4968,-118.7946 410.753,-112 464.2727,-92.0809 529.5536,-78.4059 567.7057,-71.4171"/>
<polygon fill="#191970" stroke="#191970" points="568.4889,-74.8326 577.7148,-69.6236 567.2542,-67.9423 568.4889,-74.8326"/>
</g>
<!-- Node9&#45;&gt;Node7 -->
<g id="edge12" class="edge">
<title>Node9&#45;&gt;Node7</title>
<path fill="none" stroke="#191970" d="M223.4514,-168.3733C198.3402,-159.1822 160.3092,-145.2624 132.4658,-135.0713"/>
<polygon fill="#191970" stroke="#191970" points="133.3052,-131.6516 122.7114,-131.5011 130.8992,-138.2251 133.3052,-131.6516"/>
</g>
<!-- Node9&#45;&gt;Node8 -->
<g id="edge11" class="edge">
<title>Node9&#45;&gt;Node8</title>
<path fill="none" stroke="#191970" d="M298.3701,-170.0652C357.2094,-160.3319 453.8199,-143.9034 504.6737,-131.9702"/>
<polygon fill="#191970" stroke="#191970" points="505.6199,-135.3421 514.5053,-129.5715 503.9607,-128.5415 505.6199,-135.3421"/>
</g>
<!-- Node10 -->
<g id="node11" class="node">
<title>Node10</title>
<g id="a_node11"><a xlink:href="tileData_8hxx.html" target="_top" xlink:title="tileData.hxx">
<polygon fill="none" stroke="#000000" points="419.253,-112.5 419.253,-131.5 496.253,-131.5 496.253,-112.5 419.253,-112.5"/>
<text text-anchor="middle" x="457.753" y="-119.5" font-family="Helvetica,sans-Serif" font-size="10.00" fill="#000000">tileData.hxx</text>
</a>
</g>
</g>
<!-- Node9&#45;&gt;Node10 -->
<g id="edge14" class="edge">
<title>Node9&#45;&gt;Node10</title>
<path fill="none" stroke="#191970" d="M285.5095,-168.3733C320.6956,-158.9001 374.5411,-144.4032 412.6486,-134.1435"/>
<polygon fill="#191970" stroke="#191970" points="413.7169,-137.4806 422.4631,-131.5011 411.897,-130.7213 413.7169,-137.4806"/>
</g>
<!-- Node15 -->
<g id="node16" class="node">
<title>Node15</title>
<polygon fill="none" stroke="#bfbfbf" points="304.753,-112.5 304.753,-131.5 362.753,-131.5 362.753,-112.5 304.753,-112.5"/>
<text text-anchor="middle" x="333.753" y="-119.5" font-family="Helvetica,sans-Serif" font-size="10.00" fill="#000000">json.hxx</text>
</g>
<!-- Node9&#45;&gt;Node15 -->
<g id="edge20" class="edge">
<title>Node9&#45;&gt;Node15</title>
<path fill="none" stroke="#191970" d="M264.3847,-168.2455C277.1524,-159.7337 295.8968,-147.2375 310.6829,-137.3801"/>
<polygon fill="#191970" stroke="#191970" points="312.9099,-140.1019 319.289,-131.6427 309.027,-134.2775 312.9099,-140.1019"/>
</g>
<!-- Node16 -->
<g id="node17" class="node">
<title>Node16</title>
<g id="a_node17"><a xlink:href="Singleton_8hxx.html" target="_top" xlink:title="Singleton.hxx">
<polygon fill="none" stroke="#000000" points="793.253,-112.5 793.253,-131.5 876.253,-131.5 876.253,-112.5 793.253,-112.5"/>
<text text-anchor="middle" x="834.753" y="-119.5" font-family="Helvetica,sans-Serif" font-size="10.00" fill="#000000">Singleton.hxx</text>
</a>
</g>
</g>
<!-- Node9&#45;&gt;Node16 -->
<g id="edge21" class="edge">
<title>Node9&#45;&gt;Node16</title>
<path fill="none" stroke="#191970" d="M298.6236,-173.3218C407.9371,-162.8576 671.353,-137.6417 783.1681,-126.938"/>
<polygon fill="#191970" stroke="#191970" points="783.5667,-130.416 793.1877,-125.9789 782.8996,-123.4478 783.5667,-130.416"/>
</g>
<!-- Node17 -->
<g id="node18" class="node">
<title>Node17</title>
<polygon fill="none" stroke="#bfbfbf" points="161.253,-112.5 161.253,-131.5 286.253,-131.5 286.253,-112.5 161.253,-112.5"/>
<text text-anchor="middle" x="223.753" y="-119.5" font-family="Helvetica,sans-Serif" font-size="10.00" fill="#000000">../common/enums.hxx</text>
</g>
<!-- Node9&#45;&gt;Node17 -->
<g id="edge22" class="edge">
<title>Node9&#45;&gt;Node17</title>
<path fill="none" stroke="#191970" d="M245.2242,-168.2455C241.7196,-160.6973 236.7603,-150.0158 232.4907,-140.8197"/>
<polygon fill="#191970" stroke="#191970" points="235.6157,-139.2389 228.23,-131.6427 229.2666,-142.1867 235.6157,-139.2389"/>
</g>
<!-- Node10&#45;&gt;Node3 -->
<g id="edge15" class="edge">
<title>Node10&#45;&gt;Node3</title>
<path fill="none" stroke="#191970" d="M482.1637,-112.3733C505.9298,-103.0007 542.1651,-88.7107 568.1277,-78.472"/>
<polygon fill="#191970" stroke="#191970" points="569.509,-81.6896 577.5277,-74.7649 566.9409,-75.1777 569.509,-81.6896"/>
</g>
<!-- Node11 -->
<g id="node12" class="node">
<title>Node11</title>
<polygon fill="none" stroke="#bfbfbf" points="901.253,-56.5 901.253,-75.5 948.253,-75.5 948.253,-56.5 901.253,-56.5"/>
<text text-anchor="middle" x="924.753" y="-63.5" font-family="Helvetica,sans-Serif" font-size="10.00" fill="#000000">vector</text>
</g>
<!-- Node10&#45;&gt;Node11 -->
<g id="edge16" class="edge">
<title>Node10&#45;&gt;Node11</title>
<path fill="none" stroke="#191970" d="M496.4668,-113.6017C499.6019,-113.0232 502.7265,-112.4803 505.753,-112 648.0587,-89.4184 819.3187,-74.3619 890.8163,-68.6129"/>
<polygon fill="#191970" stroke="#191970" points="891.3301,-72.0832 901.0211,-67.8013 890.7751,-65.1052 891.3301,-72.0832"/>
</g>
<!-- Node12 -->
<g id="node13" class="node">
<title>Node12</title>
<g id="a_node13"><a xlink:href="enums_8hxx.html" target="_top" xlink:title="enums.hxx">
<polygon fill="none" stroke="#000000" points="422.253,-56.5 422.253,-75.5 493.253,-75.5 493.253,-56.5 422.253,-56.5"/>
<text text-anchor="middle" x="457.753" y="-63.5" font-family="Helvetica,sans-Serif" font-size="10.00" fill="#000000">enums.hxx</text>
</a>
</g>
</g>
<!-- Node10&#45;&gt;Node12 -->
<g id="edge17" class="edge">
<title>Node10&#45;&gt;Node12</title>
<path fill="none" stroke="#191970" d="M457.753,-112.2455C457.753,-104.9382 457.753,-94.6944 457.753,-85.7046"/>
<polygon fill="#191970" stroke="#191970" points="461.2531,-85.6426 457.753,-75.6427 454.2531,-85.6427 461.2531,-85.6426"/>
</g>
<!-- Node13 -->
<g id="node14" class="node">
<title>Node13</title>
<polygon fill="none" stroke="#bfbfbf" points="381.753,-.5 381.753,-19.5 437.753,-19.5 437.753,-.5 381.753,-.5"/>
<text text-anchor="middle" x="409.753" y="-7.5" font-family="Helvetica,sans-Serif" font-size="10.00" fill="#000000">stddef.h</text>
</g>
<!-- Node12&#45;&gt;Node13 -->
<g id="edge18" class="edge">
<title>Node12&#45;&gt;Node13</title>
<path fill="none" stroke="#191970" d="M449.392,-56.2455C442.578,-48.2958 432.7849,-36.8706 424.6378,-27.3656"/>
<polygon fill="#191970" stroke="#191970" points="427.1835,-24.9575 418.0182,-19.6427 421.8687,-29.513 427.1835,-24.9575"/>
</g>
<!-- Node14 -->
<g id="node15" class="node">
<title>Node14</title>
<polygon fill="none" stroke="#bfbfbf" points="455.753,-.5 455.753,-19.5 555.753,-19.5 555.753,-.5 455.753,-.5"/>
<text text-anchor="middle" x="505.753" y="-7.5" font-family="Helvetica,sans-Serif" font-size="10.00" fill="#000000">betterEnums.hxx</text>
</g>
<!-- Node12&#45;&gt;Node14 -->
<g id="edge19" class="edge">
<title>Node12&#45;&gt;Node14</title>
<path fill="none" stroke="#191970" d="M466.114,-56.2455C472.928,-48.2958 482.7211,-36.8706 490.8682,-27.3656"/>
<polygon fill="#191970" stroke="#191970" points="493.6373,-29.513 497.4879,-19.6427 488.3225,-24.9575 493.6373,-29.513"/>
</g>
<!-- Node18&#45;&gt;Node3 -->
<g id="edge24" class="edge">
<title>Node18&#45;&gt;Node3</title>
<path fill="none" stroke="#191970" d="M590.771,-168.4617C611.5806,-161.8668 633.3199,-150.742 645.753,-132 657.259,-114.6556 639.7813,-95.1392 623.1651,-81.8569"/>
<polygon fill="#191970" stroke="#191970" points="624.814,-78.7189 614.7124,-75.5239 620.6168,-84.321 624.814,-78.7189"/>
</g>
<!-- Node18&#45;&gt;Node6 -->
<g id="edge25" class="edge">
<title>Node18&#45;&gt;Node6</title>
<path fill="none" stroke="#191970" d="M548.9461,-168.2455C559.3851,-159.8943 574.6185,-147.7076 586.827,-137.9408"/>
<polygon fill="#191970" stroke="#191970" points="589.0774,-140.6227 594.6997,-131.6427 584.7045,-135.1566 589.0774,-140.6227"/>
</g>
<!-- Node18&#45;&gt;Node8 -->
<g id="edge27" class="edge">
<title>Node18&#45;&gt;Node8</title>
<path fill="none" stroke="#191970" d="M536.753,-168.2455C536.753,-160.9382 536.753,-150.6944 536.753,-141.7046"/>
<polygon fill="#191970" stroke="#191970" points="540.2531,-141.6426 536.753,-131.6427 533.2531,-141.6427 540.2531,-141.6426"/>
</g>
<!-- Node18&#45;&gt;Node11 -->
<g id="edge26" class="edge">
<title>Node18&#45;&gt;Node11</title>
<path fill="none" stroke="#191970" d="M569.8337,-168.4509C642.9953,-147.3321 817.8485,-96.859 891.328,-75.6485"/>
<polygon fill="#191970" stroke="#191970" points="892.3653,-78.992 901.0024,-72.8559 890.4239,-72.2666 892.3653,-78.992"/>
</g>
<!-- Node18&#45;&gt;Node16 -->
<g id="edge28" class="edge">
<title>Node18&#45;&gt;Node16</title>
<path fill="none" stroke="#191970" d="M587.6424,-168.4369C642.2591,-158.1734 728.5358,-141.9603 783.35,-131.6596"/>
<polygon fill="#191970" stroke="#191970" points="784.0226,-135.0946 793.2041,-129.8078 782.7297,-128.215 784.0226,-135.0946"/>
</g>
<!-- Node19&#45;&gt;Node11 -->
<g id="edge33" class="edge">
<title>Node19&#45;&gt;Node11</title>
<path fill="none" stroke="#191970" d="M795.5767,-224.8673C838.3876,-217.0754 890.9619,-204.5107 905.753,-188 931.0339,-159.78 930.4626,-112.3713 927.6861,-85.723"/>
<polygon fill="#191970" stroke="#191970" points="931.1453,-85.1777 926.4301,-75.6899 924.1995,-86.0472 931.1453,-85.1777"/>
</g>
<!-- Node20 -->
<g id="node21" class="node">
<title>Node20</title>
<polygon fill="none" stroke="#bfbfbf" points="622.753,-168.5 622.753,-187.5 680.753,-187.5 680.753,-168.5 622.753,-168.5"/>
<text text-anchor="middle" x="651.753" y="-175.5" font-family="Helvetica,sans-Serif" font-size="10.00" fill="#000000">memory</text>
</g>
<!-- Node19&#45;&gt;Node20 -->
<g id="edge30" class="edge">
<title>Node19&#45;&gt;Node20</title>
<path fill="none" stroke="#191970" d="M721.1213,-224.2455C708.3536,-215.7337 689.6092,-203.2375 674.8231,-193.3801"/>
<polygon fill="#191970" stroke="#191970" points="676.479,-190.2775 666.217,-187.6427 672.5961,-196.1019 676.479,-190.2775"/>
</g>
<!-- Node21 -->
<g id="node22" class="node">
<title>Node21</title>
<polygon fill="none" stroke="#bfbfbf" points="699.253,-168.5 699.253,-187.5 764.253,-187.5 764.253,-168.5 699.253,-168.5"/>
<text text-anchor="middle" x="731.753" y="-175.5" font-family="Helvetica,sans-Serif" font-size="10.00" fill="#000000">functional</text>
</g>
<!-- Node19&#45;&gt;Node21 -->
<g id="edge31" class="edge">
<title>Node19&#45;&gt;Node21</title>
<path fill="none" stroke="#191970" d="M735.0563,-224.2455C734.5343,-216.9382 733.8026,-206.6944 733.1605,-197.7046"/>
<polygon fill="#191970" stroke="#191970" points="736.6454,-197.3679 732.4418,-187.6427 729.6632,-197.8667 736.6454,-197.3679"/>
</g>
<!-- Node22 -->
<g id="node23" class="node">
<title>Node22</title>
<polygon fill="none" stroke="#bfbfbf" points="782.753,-168.5 782.753,-187.5 814.753,-187.5 814.753,-168.5 782.753,-168.5"/>
<text text-anchor="middle" x="798.753" y="-175.5" font-family="Helvetica,sans-Serif" font-size="10.00" fill="#000000">list</text>
</g>
<!-- Node19&#45;&gt;Node22 -->
<g id="edge32" class="edge">
<title>Node19&#45;&gt;Node22</title>
<path fill="none" stroke="#191970" d="M746.7268,-224.2455C755.9412,-216.0549 769.3062,-204.1749 780.1827,-194.5069"/>
<polygon fill="#191970" stroke="#191970" points="782.7562,-196.9023 787.905,-187.6427 778.1056,-191.6704 782.7562,-196.9023"/>
</g>
<!-- Node23 -->
<g id="node24" class="node">
<title>Node23</title>
<polygon fill="none" stroke="#bfbfbf" points="832.753,-168.5 832.753,-187.5 896.753,-187.5 896.753,-168.5 832.753,-168.5"/>
<text text-anchor="middle" x="864.753" y="-175.5" font-family="Helvetica,sans-Serif" font-size="10.00" fill="#000000">algorithm</text>
</g>
<!-- Node19&#45;&gt;Node23 -->
<g id="edge34" class="edge">
<title>Node19&#45;&gt;Node23</title>
<path fill="none" stroke="#191970" d="M757.9289,-224.3733C778.7296,-215.3435 810.0447,-201.7494 833.3988,-191.6111"/>
<polygon fill="#191970" stroke="#191970" points="835.0873,-194.6938 842.8665,-187.5011 832.2998,-188.2727 835.0873,-194.6938"/>
</g>
<!-- Node24&#45;&gt;Node2 -->
<g id="edge37" class="edge">
<title>Node24&#45;&gt;Node2</title>
<path fill="none" stroke="#191970" d="M402.2861,-392.4509C427.6719,-373.1094 485.3732,-329.1465 516.2906,-305.5904"/>
<polygon fill="#191970" stroke="#191970" points="518.4184,-308.3694 524.2516,-299.5249 514.1761,-302.8013 518.4184,-308.3694"/>
</g>
<!-- Node25 -->
<g id="node26" class="node">
<title>Node25</title>
<g id="a_node26"><a xlink:href="Text_8hxx.html" target="_top" xlink:title="Text.hxx">
<polygon fill="none" stroke="#000000" points="763.753,-336.5 763.753,-355.5 821.753,-355.5 821.753,-336.5 763.753,-336.5"/>
<text text-anchor="middle" x="792.753" y="-343.5" font-family="Helvetica,sans-Serif" font-size="10.00" fill="#000000">Text.hxx</text>
</a>
</g>
</g>
<!-- Node24&#45;&gt;Node25 -->
<g id="edge38" class="edge">
<title>Node24&#45;&gt;Node25</title>
<path fill="none" stroke="#191970" d="M450.0795,-393.3639C453.3515,-392.9011 456.5922,-392.4441 459.753,-392 565.7415,-377.1089 690.7669,-359.9464 753.1625,-351.4086"/>
<polygon fill="#191970" stroke="#191970" points="753.9135,-354.8386 763.3469,-350.0156 752.9648,-347.9032 753.9135,-354.8386"/>
</g>
<!-- Node25&#45;&gt;Node2 -->
<g id="edge40" class="edge">
<title>Node25&#45;&gt;Node2</title>
<path fill="none" stroke="#191970" d="M763.3866,-339.5761C721.1899,-330.3456 642.7066,-313.1774 590.0948,-301.6685"/>
<polygon fill="#191970" stroke="#191970" points="590.7784,-298.2354 580.2615,-299.5175 589.2825,-305.0737 590.7784,-298.2354"/>
</g>
<!-- Node25&#45;&gt;Node3 -->
<g id="edge39" class="edge">
<title>Node25&#45;&gt;Node3</title>
<path fill="none" stroke="#191970" d="M799.773,-336.268C824.3473,-302.1898 905.0544,-190.1776 905.753,-188 916.4221,-154.7416 912.6102,-134.3303 885.753,-112 847.6566,-80.3249 698.7855,-70.1587 632.223,-67.1558"/>
<polygon fill="#191970" stroke="#191970" points="632.0442,-63.6452 621.9049,-66.7184 631.7477,-70.6389 632.0442,-63.6452"/>
</g>
<!-- Node26&#45;&gt;Node1 -->
<g id="edge50" class="edge">
<title>Node26&#45;&gt;Node1</title>
<path fill="none" stroke="#191970" d="M588.1346,-507.765C520.1924,-499.7143 399.2403,-484.8836 285.2523,-468.0246"/>
<polygon fill="#191970" stroke="#191970" points="285.7107,-464.5544 275.3047,-466.5455 284.6811,-471.4783 285.7107,-464.5544"/>
</g>
<!-- Node26&#45;&gt;Node2 -->
<g id="edge44" class="edge">
<title>Node26&#45;&gt;Node2</title>
<path fill="none" stroke="#191970" d="M610.017,-504.4549C529.8438,-480.2714 325.1864,-418.0736 320.753,-412 274.459,-348.5794 403.6539,-313.6148 481.8627,-298.7411"/>
<polygon fill="#191970" stroke="#191970" points="482.8691,-302.1146 492.0682,-296.8584 481.5991,-295.2307 482.8691,-302.1146"/>
</g>
<!-- Node26&#45;&gt;Node8 -->
<g id="edge42" class="edge">
<title>Node26&#45;&gt;Node8</title>
<path fill="none" stroke="#191970" d="M588.2208,-512.1216C471.0468,-507.5417 199.7236,-494.207 167.753,-468 144.0487,-448.569 147.753,-432.6506 147.753,-402 147.753,-402 147.753,-402 147.753,-290 147.753,-259.4754 144.8441,-245.2545 166.753,-224 213.1746,-178.965 245.3192,-204.8858 307.753,-188 338.9869,-179.5525 346.6236,-176.8246 377.753,-168 431.6105,-152.7324 447.5232,-149.4076 504.5191,-132.3008"/>
<polygon fill="#191970" stroke="#191970" points="505.8698,-135.5493 514.4336,-129.3113 503.8489,-128.8473 505.8698,-135.5493"/>
</g>
<!-- Node26&#45;&gt;Node11 -->
<g id="edge43" class="edge">
<title>Node26&#45;&gt;Node11</title>
<path fill="none" stroke="#191970" d="M695.5957,-511.1441C805.6469,-504.9523 1052.8704,-489.1306 1134.753,-468 1205.6714,-449.6988 1285.753,-475.2417 1285.753,-402 1285.753,-402 1285.753,-402 1285.753,-178 1285.753,-143.6999 1274.3658,-130.9157 1245.753,-112 1199.0723,-81.1398 1031.3218,-70.4693 958.6825,-67.2414"/>
<polygon fill="#191970" stroke="#191970" points="958.4159,-63.7271 948.2769,-66.8014 958.1201,-70.7208 958.4159,-63.7271"/>
</g>
<!-- Node26&#45;&gt;Node16 -->
<g id="edge76" class="edge">
<title>Node26&#45;&gt;Node16</title>
<path fill="none" stroke="#191970" d="M695.6156,-512.0101C815.8755,-506.1022 1095.753,-483.5884 1095.753,-402 1095.753,-402 1095.753,-402 1095.753,-234 1095.753,-188.875 962.3346,-151.0236 886.278,-133.1122"/>
<polygon fill="#191970" stroke="#191970" points="886.93,-129.6705 876.3978,-130.8213 885.3488,-136.4897 886.93,-129.6705"/>
</g>
<!-- Node26&#45;&gt;Node24 -->
<g id="edge51" class="edge">
<title>Node26&#45;&gt;Node24</title>
<path fill="none" stroke="#191970" d="M620.2676,-504.4509C575.5404,-484.5722 472.2946,-438.6852 420.523,-415.6756"/>
<polygon fill="#191970" stroke="#191970" points="421.7436,-412.388 411.184,-411.5249 418.9006,-418.7847 421.7436,-412.388"/>
</g>
<!-- Node26&#45;&gt;Node25 -->
<g id="edge62" class="edge">
<title>Node26&#45;&gt;Node25</title>
<path fill="none" stroke="#191970" d="M670.649,-504.4193C691.6226,-496.6163 720.0125,-484.2393 741.753,-468 768.2489,-448.2087 778.6533,-442.7786 790.753,-412 796.5199,-397.3304 796.6689,-379.3791 795.5711,-365.9033"/>
<polygon fill="#191970" stroke="#191970" points="799.0324,-365.3599 794.4517,-355.8065 792.0751,-366.1313 799.0324,-365.3599"/>
</g>
<!-- Node27 -->
<g id="node28" class="node">
<title>Node27</title>
<g id="a_node28"><a xlink:href="Layout_8hxx.html" target="_top" xlink:title="ui/basics/Layout.hxx">
<polygon fill="none" stroke="#000000" points="1123.753,-336.5 1123.753,-355.5 1239.753,-355.5 1239.753,-336.5 1123.753,-336.5"/>
<text text-anchor="middle" x="1181.753" y="-343.5" font-family="Helvetica,sans-Serif" font-size="10.00" fill="#000000">ui/basics/Layout.hxx</text>
</a>
</g>
</g>
<!-- Node26&#45;&gt;Node27 -->
<g id="edge45" class="edge">
<title>Node26&#45;&gt;Node27</title>
<path fill="none" stroke="#191970" d="M695.497,-511.4449C811.0457,-505.5625 1075.4668,-489.8705 1109.753,-468 1147.095,-444.1802 1167.5303,-393.4967 1176.3657,-365.5346"/>
<polygon fill="#191970" stroke="#191970" points="1179.7898,-366.2991 1179.2835,-355.7164 1173.0798,-364.305 1179.7898,-366.2991"/>
</g>
<!-- Node28 -->
<g id="node29" class="node">
<title>Node28</title>
<g id="a_node29"><a xlink:href="Checkbox_8hxx.html" target="_top" xlink:title="ui/widgets/Checkbox.hxx">
<polygon fill="none" stroke="#000000" points="468.253,-392.5 468.253,-411.5 607.253,-411.5 607.253,-392.5 468.253,-392.5"/>
<text text-anchor="middle" x="537.753" y="-399.5" font-family="Helvetica,sans-Serif" font-size="10.00" fill="#000000">ui/widgets/Checkbox.hxx</text>
</a>
</g>
</g>
<!-- Node26&#45;&gt;Node28 -->
<g id="edge52" class="edge">
<title>Node26&#45;&gt;Node28</title>
<path fill="none" stroke="#191970" d="M615.4972,-504.4784C598.1128,-496.9709 575.977,-484.9262 561.753,-468 550.6121,-454.7426 544.4458,-435.8801 541.1636,-421.7129"/>
<polygon fill="#191970" stroke="#191970" points="544.5221,-420.6625 539.1096,-411.5545 537.6609,-422.0498 544.5221,-420.6625"/>
</g>
<!-- Node29 -->
<g id="node30" class="node">
<title>Node29</title>
<g id="a_node30"><a xlink:href="Combobox_8hxx.html" target="_top" xlink:title="ui/widgets/Combobox.hxx">
<polygon fill="none" stroke="#000000" points="570.253,-448.5 570.253,-467.5 713.253,-467.5 713.253,-448.5 570.253,-448.5"/>
<text text-anchor="middle" x="641.753" y="-455.5" font-family="Helvetica,sans-Serif" font-size="10.00" fill="#000000">ui/widgets/Combobox.hxx</text>
</a>
</g>
</g>
<!-- Node26&#45;&gt;Node29 -->
<g id="edge54" class="edge">
<title>Node26&#45;&gt;Node29</title>
<path fill="none" stroke="#191970" d="M641.753,-504.2455C641.753,-496.9382 641.753,-486.6944 641.753,-477.7046"/>
<polygon fill="#191970" stroke="#191970" points="645.2531,-477.6426 641.753,-467.6427 638.2531,-477.6427 645.2531,-477.6426"/>
</g>
<!-- Node30 -->
<g id="node31" class="node">
<title>Node30</title>
<g id="a_node31"><a xlink:href="TextField_8hxx.html" target="_top" xlink:title="TextField.hxx">
<polygon fill="none" stroke="#000000" points="701.753,-392.5 701.753,-411.5 781.753,-411.5 781.753,-392.5 701.753,-392.5"/>
<text text-anchor="middle" x="741.753" y="-399.5" font-family="Helvetica,sans-Serif" font-size="10.00" fill="#000000">TextField.hxx</text>
</a>
</g>
</g>
<!-- Node26&#45;&gt;Node30 -->
<g id="edge63" class="edge">
<title>Node26&#45;&gt;Node30</title>
<path fill="none" stroke="#191970" d="M669.8786,-504.3783C687.4552,-497.0033 709.2417,-485.149 722.753,-468 733.2338,-454.6974 737.9334,-435.8399 740.0406,-421.6861"/>
<polygon fill="#191970" stroke="#191970" points="743.5418,-421.8802 741.2356,-411.5394 736.5899,-421.0613 743.5418,-421.8802"/>
</g>
<!-- Node31 -->
<g id="node32" class="node">
<title>Node31</title>
<g id="a_node32"><a xlink:href="Frame_8hxx.html" target="_top" xlink:title="ui/widgets/Frame.hxx">
<polygon fill="none" stroke="#000000" points="293.253,-448.5 293.253,-467.5 414.253,-467.5 414.253,-448.5 293.253,-448.5"/>
<text text-anchor="middle" x="353.753" y="-455.5" font-family="Helvetica,sans-Serif" font-size="10.00" fill="#000000">ui/widgets/Frame.hxx</text>
</a>
</g>
</g>
<!-- Node26&#45;&gt;Node31 -->
<g id="edge60" class="edge">
<title>Node26&#45;&gt;Node31</title>
<path fill="none" stroke="#191970" d="M592.5713,-504.4369C542.7646,-494.7522 465.7145,-479.7703 412.6742,-469.4569"/>
<polygon fill="#191970" stroke="#191970" points="413.2161,-465.9968 402.7319,-467.5237 411.88,-472.8681 413.2161,-465.9968"/>
</g>
<!-- Node32 -->
<g id="node33" class="node">
<title>Node32</title>
<g id="a_node33"><a xlink:href="Tooltip_8hxx.html" target="_top" xlink:title="ui/widgets/Tooltip.hxx">
<polygon fill="none" stroke="#000000" points="838.253,-392.5 838.253,-411.5 961.253,-411.5 961.253,-392.5 838.253,-392.5"/>
<text text-anchor="middle" x="899.753" y="-399.5" font-family="Helvetica,sans-Serif" font-size="10.00" fill="#000000">ui/widgets/Tooltip.hxx</text>
</a>
</g>
</g>
<!-- Node26&#45;&gt;Node32 -->
<g id="edge64" class="edge">
<title>Node26&#45;&gt;Node32</title>
<path fill="none" stroke="#191970" d="M695.4853,-507.1681C733.0319,-500.8161 783.4544,-489.0479 823.753,-468 847.5395,-455.5763 870.1358,-434.309 884.4109,-419.2782"/>
<polygon fill="#191970" stroke="#191970" points="887.2279,-421.3866 891.4401,-411.6651 882.0848,-416.638 887.2279,-421.3866"/>
</g>
<!-- Node37 -->
<g id="node38" class="node">
<title>Node37</title>
<g id="a_node38"><a xlink:href="Slider_8hxx.html" target="_top" xlink:title="ui/widgets/Slider.hxx">
<polygon fill="none" stroke="#000000" points="930.753,-336.5 930.753,-355.5 1048.753,-355.5 1048.753,-336.5 930.753,-336.5"/>
<text text-anchor="middle" x="989.753" y="-343.5" font-family="Helvetica,sans-Serif" font-size="10.00" fill="#000000">ui/widgets/Slider.hxx</text>
</a>
</g>
</g>
<!-- Node26&#45;&gt;Node37 -->
<g id="edge73" class="edge">
<title>Node26&#45;&gt;Node37</title>
<path fill="none" stroke="#191970" d="M695.295,-505.6889C738.2767,-498.2071 799.8089,-485.6612 851.753,-468 907.0941,-449.1838 932.8459,-456.4943 970.753,-412 981.7358,-399.1087 986.3803,-380.2061 988.339,-365.9306"/>
<polygon fill="#191970" stroke="#191970" points="991.8521,-365.9853 989.4038,-355.6772 984.8895,-365.2622 991.8521,-365.9853"/>
</g>
<!-- Node27&#45;&gt;Node2 -->
<g id="edge46" class="edge">
<title>Node27&#45;&gt;Node2</title>
<path fill="none" stroke="#191970" d="M1123.6612,-340.9564C999.9963,-330.2196 712.1732,-305.2303 591.5168,-294.7547"/>
<polygon fill="#191970" stroke="#191970" points="591.6665,-291.2546 581.4012,-293.8764 591.0609,-298.2284 591.6665,-291.2546"/>
</g>
<!-- Node27&#45;&gt;Node3 -->
<g id="edge47" class="edge">
<title>Node27&#45;&gt;Node3</title>
<path fill="none" stroke="#191970" d="M1185.8845,-336.3161C1193.6732,-317.1534 1209.753,-272.8832 1209.753,-234 1209.753,-234 1209.753,-234 1209.753,-178 1209.753,-118.6914 757.9067,-78.5097 631.9841,-68.4632"/>
<polygon fill="#191970" stroke="#191970" points="632.0679,-64.959 621.8236,-67.6618 631.5174,-71.9373 632.0679,-64.959"/>
</g>
<!-- Node27&#45;&gt;Node11 -->
<g id="edge48" class="edge">
<title>Node27&#45;&gt;Node11</title>
<path fill="none" stroke="#191970" d="M1192.7012,-336.3551C1202.0298,-327.6418 1215.2403,-314.0615 1223.753,-300 1239.9174,-273.2992 1247.753,-265.2125 1247.753,-234 1247.753,-234 1247.753,-234 1247.753,-178 1247.753,-146.7875 1247.8784,-131.8038 1223.753,-112 1183.7744,-79.1828 1028.3192,-69.6339 958.7451,-66.9749"/>
<polygon fill="#191970" stroke="#191970" points="958.4653,-63.4629 948.3471,-66.6049 958.2163,-70.4584 958.4653,-63.4629"/>
</g>
<!-- Node27&#45;&gt;Node16 -->
<g id="edge49" class="edge">
<title>Node27&#45;&gt;Node16</title>
<path fill="none" stroke="#191970" d="M1181.0291,-336.3816C1178.2029,-306.1508 1165.1383,-212.43 1109.753,-168 1076.2175,-141.0979 956.8195,-129.3819 886.8602,-124.7299"/>
<polygon fill="#191970" stroke="#191970" points="886.6981,-121.2125 876.4954,-124.0682 886.252,-128.1983 886.6981,-121.2125"/>
</g>
<!-- Node28&#45;&gt;Node2 -->
<g id="edge53" class="edge">
<title>Node28&#45;&gt;Node2</title>
<path fill="none" stroke="#191970" d="M537.6677,-392.4509C537.5046,-374.184 537.1455,-333.9553 536.9289,-309.6976"/>
<polygon fill="#191970" stroke="#191970" points="540.4273,-309.4932 536.8381,-299.5249 533.4276,-309.5558 540.4273,-309.4932"/>
</g>
<!-- Node29&#45;&gt;Node2 -->
<g id="edge56" class="edge">
<title>Node29&#45;&gt;Node2</title>
<path fill="none" stroke="#191970" d="M639.0587,-448.1951C635.1914,-434.9345 627.3481,-410.7827 616.753,-392 598.4673,-359.5837 570.4217,-326.4833 552.8568,-307.1103"/>
<polygon fill="#191970" stroke="#191970" points="555.3762,-304.6793 546.0296,-299.6901 550.2248,-309.4189 555.3762,-304.6793"/>
</g>
<!-- Node29&#45;&gt;Node20 -->
<g id="edge55" class="edge">
<title>Node29&#45;&gt;Node20</title>
<path fill="none" stroke="#191970" d="M642.0972,-448.3618C643.5337,-408.1418 649.0667,-253.2159 651.0448,-197.8288"/>
<polygon fill="#191970" stroke="#191970" points="654.551,-197.7163 651.4102,-187.5977 647.5555,-197.4664 654.551,-197.7163"/>
</g>
<!-- Node29&#45;&gt;Node30 -->
<g id="edge57" class="edge">
<title>Node29&#45;&gt;Node30</title>
<path fill="none" stroke="#191970" d="M659.1717,-448.2455C674.8015,-439.4928 697.9549,-426.527 715.7715,-416.5496"/>
<polygon fill="#191970" stroke="#191970" points="717.519,-419.5825 724.5339,-411.6427 714.0987,-413.475 717.519,-419.5825"/>
</g>
<!-- Node30&#45;&gt;Node2 -->
<g id="edge58" class="edge">
<title>Node30&#45;&gt;Node2</title>
<path fill="none" stroke="#191970" d="M730.1507,-392.2947C713.2627,-378.4983 680.5566,-353.0065 649.753,-336 625.8471,-322.8017 597.3609,-311.2305 574.9705,-302.9949"/>
<polygon fill="#191970" stroke="#191970" points="576.0598,-299.6671 565.4655,-299.5634 573.6828,-306.2512 576.0598,-299.6671"/>
</g>
<!-- Node30&#45;&gt;Node25 -->
<g id="edge59" class="edge">
<title>Node30&#45;&gt;Node25</title>
<path fill="none" stroke="#191970" d="M750.6365,-392.2455C757.9496,-384.2155 768.4921,-372.6394 777.1997,-363.0781"/>
<polygon fill="#191970" stroke="#191970" points="779.8257,-365.3928 783.9713,-355.6427 774.6502,-360.6795 779.8257,-365.3928"/>
</g>
<!-- Node31&#45;&gt;Node2 -->
<g id="edge61" class="edge">
<title>Node31&#45;&gt;Node2</title>
<path fill="none" stroke="#191970" d="M329.9671,-448.4178C314.8862,-440.9442 296.6068,-428.9629 287.753,-412 272.1236,-382.0557 266.1466,-361.9635 287.753,-336 311.976,-306.8922 416.3688,-296.1288 482.0552,-292.202"/>
<polygon fill="#191970" stroke="#191970" points="482.4593,-295.6849 492.2469,-291.6287 482.0661,-288.696 482.4593,-295.6849"/>
</g>
<!-- Node32&#45;&gt;Node2 -->
<g id="edge65" class="edge">
<title>Node32&#45;&gt;Node2</title>
<path fill="none" stroke="#191970" d="M892.9375,-392.4827C881.7783,-377.7001 858.0949,-349.519 830.753,-336 789.7579,-315.7302 664.8523,-301.4959 591.7038,-294.6437"/>
<polygon fill="#191970" stroke="#191970" points="591.5818,-291.1177 581.3031,-293.6864 590.9402,-298.0883 591.5818,-291.1177"/>
</g>
<!-- Node32&#45;&gt;Node25 -->
<g id="edge66" class="edge">
<title>Node32&#45;&gt;Node25</title>
<path fill="none" stroke="#191970" d="M881.115,-392.2455C864.3144,-383.4527 839.3896,-370.4079 820.2912,-360.4125"/>
<polygon fill="#191970" stroke="#191970" points="821.6603,-357.1787 811.1774,-355.6427 818.4144,-363.3807 821.6603,-357.1787"/>
</g>
<!-- Node33 -->
<g id="node34" class="node">
<title>Node33</title>
<g id="a_node34"><a xlink:href="Timer_8hxx.html" target="_top" xlink:title="../../basics/Timer.hxx">
<polygon fill="none" stroke="#000000" points="854.253,-280.5 854.253,-299.5 971.253,-299.5 971.253,-280.5 854.253,-280.5"/>
<text text-anchor="middle" x="912.753" y="-287.5" font-family="Helvetica,sans-Serif" font-size="10.00" fill="#000000">../../basics/Timer.hxx</text>
</a>
</g>
</g>
<!-- Node32&#45;&gt;Node33 -->
<g id="edge67" class="edge">
<title>Node32&#45;&gt;Node33</title>
<path fill="none" stroke="#191970" d="M900.8614,-392.4509C902.9817,-374.184 907.6511,-333.9553 910.4667,-309.6976"/>
<polygon fill="#191970" stroke="#191970" points="913.971,-309.8618 911.6474,-299.5249 907.0177,-309.0546 913.971,-309.8618"/>
</g>
<!-- Node33&#45;&gt;Node8 -->
<g id="edge71" class="edge">
<title>Node33&#45;&gt;Node8</title>
<path fill="none" stroke="#191970" d="M903.3912,-280.3788C895.6296,-271.6808 885.178,-258.1096 880.753,-244 878.0931,-235.5184 878.0965,-232.4827 880.753,-224 886.5746,-205.4106 899.9314,-206.5894 905.753,-188 908.4095,-179.5173 911.6962,-174.6099 905.753,-168 857.1721,-113.97 657.6781,-145.0808 568.9568,-131.5877"/>
<polygon fill="#191970" stroke="#191970" points="569.4207,-128.1147 558.9555,-129.7671 568.167,-135.0015 569.4207,-128.1147"/>
</g>
<!-- Node33&#45;&gt;Node19 -->
<g id="edge72" class="edge">
<title>Node33&#45;&gt;Node19</title>
<path fill="none" stroke="#191970" d="M882.3256,-280.3733C852.7658,-271.021 807.7304,-256.7725 775.3835,-246.5385"/>
<polygon fill="#191970" stroke="#191970" points="776.3733,-243.1807 765.7833,-243.5011 774.2618,-249.8546 776.3733,-243.1807"/>
</g>
<!-- Node34 -->
<g id="node35" class="node">
<title>Node34</title>
<polygon fill="none" stroke="#bfbfbf" points="1023.753,-224.5 1023.753,-243.5 1067.753,-243.5 1067.753,-224.5 1023.753,-224.5"/>
<text text-anchor="middle" x="1045.753" y="-231.5" font-family="Helvetica,sans-Serif" font-size="10.00" fill="#000000">ctime</text>
</g>
<!-- Node33&#45;&gt;Node34 -->
<g id="edge68" class="edge">
<title>Node33&#45;&gt;Node34</title>
<path fill="none" stroke="#191970" d="M935.6165,-280.3733C957.2885,-271.2482 990.0309,-257.462 1014.1861,-247.2913"/>
<polygon fill="#191970" stroke="#191970" points="1015.7716,-250.4214 1023.6298,-243.315 1013.0552,-243.9699 1015.7716,-250.4214"/>
</g>
<!-- Node35 -->
<g id="node36" class="node">
<title>Node35</title>
<polygon fill="none" stroke="#bfbfbf" points="889.753,-224.5 889.753,-243.5 939.753,-243.5 939.753,-224.5 889.753,-224.5"/>
<text text-anchor="middle" x="914.753" y="-231.5" font-family="Helvetica,sans-Serif" font-size="10.00" fill="#000000">chrono</text>
</g>
<!-- Node33&#45;&gt;Node35 -->
<g id="edge69" class="edge">
<title>Node33&#45;&gt;Node35</title>
<path fill="none" stroke="#191970" d="M913.1014,-280.2455C913.3624,-272.9382 913.7282,-262.6944 914.0493,-253.7046"/>
<polygon fill="#191970" stroke="#191970" points="917.5494,-253.7613 914.4086,-243.6427 910.5538,-253.5113 917.5494,-253.7613"/>
</g>
<!-- Node36 -->
<g id="node37" class="node">
<title>Node36</title>
<polygon fill="none" stroke="#bfbfbf" points="957.753,-224.5 957.753,-243.5 1005.753,-243.5 1005.753,-224.5 957.753,-224.5"/>
<text text-anchor="middle" x="981.753" y="-231.5" font-family="Helvetica,sans-Serif" font-size="10.00" fill="#000000">thread</text>
</g>
<!-- Node33&#45;&gt;Node36 -->
<g id="edge70" class="edge">
<title>Node33&#45;&gt;Node36</title>
<path fill="none" stroke="#191970" d="M924.7719,-280.2455C934.9628,-271.9746 949.7892,-259.9416 961.7637,-250.2232"/>
<polygon fill="#191970" stroke="#191970" points="964.3129,-252.662 969.8719,-243.6427 959.9016,-247.2268 964.3129,-252.662"/>
</g>
<!-- Node37&#45;&gt;Node2 -->
<g id="edge75" class="edge">
<title>Node37&#45;&gt;Node2</title>
<path fill="none" stroke="#191970" d="M930.5312,-338.679C842.1505,-327.7533 676.9952,-307.3368 591.3712,-296.7519"/>
<polygon fill="#191970" stroke="#191970" points="591.6879,-293.2645 581.334,-295.5111 590.8291,-300.2116 591.6879,-293.2645"/>
</g>
<!-- Node37&#45;&gt;Node3 -->
<g id="edge74" class="edge">
<title>Node37&#45;&gt;Node3</title>
<path fill="none" stroke="#191970" d="M1005.8148,-336.4448C1037.033,-316.5869 1100.8123,-268.9551 1076.753,-224 1034.4093,-144.8801 992.4866,-144.2743 908.753,-112 858.5534,-92.651 700.5897,-75.6659 632.0322,-69.0008"/>
<polygon fill="#191970" stroke="#191970" points="632.1157,-65.4928 621.8269,-68.021 631.4466,-72.4608 632.1157,-65.4928"/>
</g>
</g>
</svg>
