<?xml version="1.0" encoding="UTF-8" standalone="no"?>
<!DOCTYPE svg PUBLIC "-//W3C//DTD SVG 1.1//EN"
 "http://www.w3.org/Graphics/SVG/1.1/DTD/svg11.dtd">
<!-- Generated by graphviz version 2.40.1 (20161225.0304)
 -->
<!-- Title: src/model/ButtonState.cxx Pages: 1 -->
<!--zoomable 532 -->
<svg id="main" version="1.1" xmlns="http://www.w3.org/2000/svg" xmlns:xlink="http://www.w3.org/1999/xlink" xml:space="preserve" onload="init(evt)">
<style type="text/css"><![CDATA[
.edge:hover path { stroke: red; }
.edge:hover polygon { stroke: red; fill: red; }
]]></style>
<script type="text/javascript"><![CDATA[
var edges = document.getElementsByTagName('g');
if (edges && edges.length) {
  for (var i=0;i<edges.length;i++) {
    if (edges[i].id.substr(0,4)=='edge') {
      edges[i].setAttribute('class','edge');
    }
  }
}
]]></script>
        <defs>
                <circle id="rim" cx="0" cy="0" r="7"/>
                <circle id="rim2" cx="0" cy="0" r="3.5"/>
                <g id="zoomPlus">
                        <use xlink:href="#rim" fill="#404040">
                                <set attributeName="fill" to="#808080" begin="zoomplus.mouseover" end="zoomplus.mouseout"/>
                        </use>
                        <path d="M-4,0h8M0,-4v8" fill="none" stroke="white" stroke-width="1.5" pointer-events="none"/>
                </g>
                <g id="zoomMin">
                        <use xlink:href="#rim" fill="#404040">
                                <set attributeName="fill" to="#808080" begin="zoomminus.mouseover" end="zoomminus.mouseout"/>
                        </use>
                        <path d="M-4,0h8" fill="none" stroke="white" stroke-width="1.5" pointer-events="none"/>
                </g>
                <g id="dirArrow">
                        <path fill="none" stroke="white" stroke-width="1.5" d="M0,-3.0v7 M-2.5,-0.5L0,-3.0L2.5,-0.5"/>
                </g>
               <g id="resetDef">
                       <use xlink:href="#rim2" fill="#404040">
                               <set attributeName="fill" to="#808080" begin="reset.mouseover" end="reset.mouseout"/>
                       </use>
               </g>
        </defs>

<script type="text/javascript">
var viewWidth = 1665;
var viewHeight = 532;
var sectionId = 'dynsection-0';
</script>
<script xlink:href="svgpan.js"/>
<svg id="graph" class="graph">
<g id="viewport">
<title>src/model/ButtonState.cxx</title>
<!-- Node0 -->
<g id="node1" class="node">
<title>Node0</title>
<polygon fill="#bfbfbf" stroke="#000000" points="1125,-504.5 1125,-523.5 1271,-523.5 1271,-504.5 1125,-504.5"/>
<text text-anchor="middle" x="1198" y="-511.5" font-family="Helvetica,sans-Serif" font-size="10.00" fill="#000000">src/model/ButtonState.cxx</text>
</g>
<!-- Node1 -->
<g id="node2" class="node">
<title>Node1</title>
<g id="a_node2"><a xlink:href="ButtonState_8hxx.html" target="_top" xlink:title="ButtonState.hxx">
<polygon fill="none" stroke="#000000" points="770.5,-448.5 770.5,-467.5 865.5,-467.5 865.5,-448.5 770.5,-448.5"/>
<text text-anchor="middle" x="818" y="-455.5" font-family="Helvetica,sans-Serif" font-size="10.00" fill="#000000">ButtonState.hxx</text>
</a>
</g>
</g>
<!-- Node0&#45;&gt;Node1 -->
<g id="edge1" class="edge">
<title>Node0&#45;&gt;Node1</title>
<path fill="none" stroke="#191970" d="M1133.1074,-504.4369C1060.9249,-493.7995 945.3756,-476.7711 876.0723,-466.558"/>
<polygon fill="#191970" stroke="#191970" points="876.1805,-463.0362 865.777,-465.0408 875.1599,-469.9614 876.1805,-463.0362"/>
</g>
<!-- Node25 -->
<g id="node26" class="node">
<title>Node25</title>
<g id="a_node26"><a xlink:href="LOG_8hxx.html" target="_top" xlink:title="../util/LOG.hxx">
<polygon fill="none" stroke="#000000" points="1155,-280.5 1155,-299.5 1241,-299.5 1241,-280.5 1155,-280.5"/>
<text text-anchor="middle" x="1198" y="-287.5" font-family="Helvetica,sans-Serif" font-size="10.00" fill="#000000">../util/LOG.hxx</text>
</a>
</g>
</g>
<!-- Node0&#45;&gt;Node25 -->
<g id="edge34" class="edge">
<title>Node0&#45;&gt;Node25</title>
<path fill="none" stroke="#191970" d="M1198,-504.375C1198,-470.4851 1198,-356.2317 1198,-309.8332"/>
<polygon fill="#191970" stroke="#191970" points="1201.5001,-309.5891 1198,-299.5891 1194.5001,-309.5892 1201.5001,-309.5891"/>
</g>
<!-- Node26 -->
<g id="node27" class="node">
<title>Node26</title>
<g id="a_node27"><a xlink:href="Exception_8hxx.html" target="_top" xlink:title="Exception.hxx">
<polygon fill="none" stroke="#000000" points="1540,-224.5 1540,-243.5 1626,-243.5 1626,-224.5 1540,-224.5"/>
<text text-anchor="middle" x="1583" y="-231.5" font-family="Helvetica,sans-Serif" font-size="10.00" fill="#000000">Exception.hxx</text>
</a>
</g>
</g>
<!-- Node0&#45;&gt;Node26 -->
<g id="edge49" class="edge">
<title>Node0&#45;&gt;Node26</title>
<path fill="none" stroke="#191970" d="M1236.9887,-504.457C1305.1969,-486.614 1439,-446.0039 1439,-402 1439,-402 1439,-402 1439,-346 1439,-294.1394 1497.9141,-262.7998 1540.3759,-246.9471"/>
<polygon fill="#191970" stroke="#191970" points="1541.7238,-250.1823 1549.9635,-243.5221 1539.3689,-243.5903 1541.7238,-250.1823"/>
</g>
<!-- Node2 -->
<g id="node3" class="node">
<title>Node2</title>
<polygon fill="none" stroke="#bfbfbf" points="795,-56.5 795,-75.5 895,-75.5 895,-56.5 795,-56.5"/>
<text text-anchor="middle" x="845" y="-63.5" font-family="Helvetica,sans-Serif" font-size="10.00" fill="#000000">betterEnums.hxx</text>
</g>
<!-- Node1&#45;&gt;Node2 -->
<g id="edge2" class="edge">
<title>Node1&#45;&gt;Node2</title>
<path fill="none" stroke="#191970" d="M818,-448.4116C818,-429.0538 818,-383.9167 818,-346 818,-346 818,-346 818,-290 818,-259.4754 817.2339,-247.2605 837,-224 861.2025,-195.5188 893.0134,-219.5828 913,-188 936.2674,-151.2329 893.5089,-106.0694 865.852,-82.3437"/>
<polygon fill="#191970" stroke="#191970" points="867.7751,-79.3915 857.8434,-75.7018 863.3064,-84.7797 867.7751,-79.3915"/>
</g>
<!-- Node3 -->
<g id="node4" class="node">
<title>Node3</title>
<g id="a_node4"><a xlink:href="DataModel_8hxx.html" target="_top" xlink:title="DataModel.hxx">
<polygon fill="none" stroke="#000000" points="192,-392.5 192,-411.5 282,-411.5 282,-392.5 192,-392.5"/>
<text text-anchor="middle" x="237" y="-399.5" font-family="Helvetica,sans-Serif" font-size="10.00" fill="#000000">DataModel.hxx</text>
</a>
</g>
</g>
<!-- Node1&#45;&gt;Node3 -->
<g id="edge3" class="edge">
<title>Node1&#45;&gt;Node3</title>
<path fill="none" stroke="#191970" d="M770.4543,-453.4173C663.8846,-443.1455 406.3522,-418.3231 292.6006,-407.3591"/>
<polygon fill="#191970" stroke="#191970" points="292.6661,-403.8493 282.3764,-406.3736 291.9945,-410.817 292.6661,-403.8493"/>
</g>
<!-- Node4 -->
<g id="node5" class="node">
<title>Node4</title>
<g id="a_node5"><a xlink:href="iModel_8hxx.html" target="_top" xlink:title="iModel.hxx">
<polygon fill="none" stroke="#000000" points="0,-336.5 0,-355.5 70,-355.5 70,-336.5 0,-336.5"/>
<text text-anchor="middle" x="35" y="-343.5" font-family="Helvetica,sans-Serif" font-size="10.00" fill="#000000">iModel.hxx</text>
</a>
</g>
</g>
<!-- Node3&#45;&gt;Node4 -->
<g id="edge4" class="edge">
<title>Node3&#45;&gt;Node4</title>
<path fill="none" stroke="#191970" d="M202.275,-392.3733C168.2492,-382.9404 116.2563,-368.5265 79.2766,-358.2747"/>
<polygon fill="#191970" stroke="#191970" points="79.8435,-354.7999 69.2719,-355.5011 77.9734,-361.5455 79.8435,-354.7999"/>
</g>
<!-- Node6 -->
<g id="node7" class="node">
<title>Node6</title>
<g id="a_node7"><a xlink:href="Observer_8hxx.html" target="_top" xlink:title="../util/Observer.hxx">
<polygon fill="none" stroke="#000000" points="251.5,-112.5 251.5,-131.5 360.5,-131.5 360.5,-112.5 251.5,-112.5"/>
<text text-anchor="middle" x="306" y="-119.5" font-family="Helvetica,sans-Serif" font-size="10.00" fill="#000000">../util/Observer.hxx</text>
</a>
</g>
</g>
<!-- Node3&#45;&gt;Node6 -->
<g id="edge6" class="edge">
<title>Node3&#45;&gt;Node6</title>
<path fill="none" stroke="#191970" d="M205.8057,-392.3822C164.8239,-377.5796 98,-345.0089 98,-290 98,-290 98,-290 98,-234 98,-167.954 180.3047,-140.6817 241.3677,-129.5365"/>
<polygon fill="#191970" stroke="#191970" points="242.0876,-132.9642 251.3504,-127.8212 240.9021,-126.0653 242.0876,-132.9642"/>
</g>
<!-- Node13 -->
<g id="node14" class="node">
<title>Node13</title>
<g id="a_node14"><a xlink:href="MessageQueue_8hxx.html" target="_top" xlink:title="../engine/MessageQueue.hxx">
<polygon fill="none" stroke="#000000" points="404.5,-280.5 404.5,-299.5 561.5,-299.5 561.5,-280.5 404.5,-280.5"/>
<text text-anchor="middle" x="483" y="-287.5" font-family="Helvetica,sans-Serif" font-size="10.00" fill="#000000">../engine/MessageQueue.hxx</text>
</a>
</g>
</g>
<!-- Node3&#45;&gt;Node13 -->
<g id="edge14" class="edge">
<title>Node3&#45;&gt;Node13</title>
<path fill="none" stroke="#191970" d="M257.9738,-392.4509C301.6361,-372.5722 402.4237,-326.6852 452.9626,-303.6756"/>
<polygon fill="#191970" stroke="#191970" points="454.4284,-306.8539 462.0793,-299.5249 451.5278,-300.4832 454.4284,-306.8539"/>
</g>
<!-- Node24 -->
<g id="node25" class="node">
<title>Node24</title>
<g id="a_node25"><a xlink:href="UIMQDispatcher_8hxx.html" target="_top" xlink:title="../engine/UIMQDispatcher.hxx">
<polygon fill="none" stroke="#000000" points="156.5,-336.5 156.5,-355.5 317.5,-355.5 317.5,-336.5 156.5,-336.5"/>
<text text-anchor="middle" x="237" y="-343.5" font-family="Helvetica,sans-Serif" font-size="10.00" fill="#000000">../engine/UIMQDispatcher.hxx</text>
</a>
</g>
</g>
<!-- Node3&#45;&gt;Node24 -->
<g id="edge31" class="edge">
<title>Node3&#45;&gt;Node24</title>
<path fill="none" stroke="#191970" d="M237,-392.2455C237,-384.9382 237,-374.6944 237,-365.7046"/>
<polygon fill="#191970" stroke="#191970" points="240.5001,-365.6426 237,-355.6427 233.5001,-365.6427 240.5001,-365.6426"/>
</g>
<!-- Node5 -->
<g id="node6" class="node">
<title>Node5</title>
<polygon fill="none" stroke="#bfbfbf" points="148,-56.5 148,-75.5 206,-75.5 206,-56.5 148,-56.5"/>
<text text-anchor="middle" x="177" y="-63.5" font-family="Helvetica,sans-Serif" font-size="10.00" fill="#000000">memory</text>
</g>
<!-- Node4&#45;&gt;Node5 -->
<g id="edge5" class="edge">
<title>Node4&#45;&gt;Node5</title>
<path fill="none" stroke="#191970" d="M36.7193,-336.4486C40.0374,-317.1572 47,-272.1337 47,-234 47,-234 47,-234 47,-178 47,-128.5666 101.6201,-96.1607 140.0515,-79.4777"/>
<polygon fill="#191970" stroke="#191970" points="141.5429,-82.6481 149.4303,-75.5743 138.8531,-76.1855 141.5429,-82.6481"/>
</g>
<!-- Node6&#45;&gt;Node5 -->
<g id="edge8" class="edge">
<title>Node6&#45;&gt;Node5</title>
<path fill="none" stroke="#191970" d="M283.8241,-112.3733C263.0234,-103.3435 231.7083,-89.7494 208.3542,-79.6111"/>
<polygon fill="#191970" stroke="#191970" points="209.4532,-76.2727 198.8865,-75.5011 206.6657,-82.6938 209.4532,-76.2727"/>
</g>
<!-- Node7 -->
<g id="node8" class="node">
<title>Node7</title>
<polygon fill="none" stroke="#bfbfbf" points="529.5,-56.5 529.5,-75.5 576.5,-75.5 576.5,-56.5 529.5,-56.5"/>
<text text-anchor="middle" x="553" y="-63.5" font-family="Helvetica,sans-Serif" font-size="10.00" fill="#000000">vector</text>
</g>
<!-- Node6&#45;&gt;Node7 -->
<g id="edge7" class="edge">
<title>Node6&#45;&gt;Node7</title>
<path fill="none" stroke="#191970" d="M348.1802,-112.4369C396.5251,-101.4761 474.7983,-83.7299 519.2763,-73.6459"/>
<polygon fill="#191970" stroke="#191970" points="520.3104,-77.0003 529.289,-71.3758 518.7626,-70.1736 520.3104,-77.0003"/>
</g>
<!-- Node8 -->
<g id="node9" class="node">
<title>Node8</title>
<g id="a_node9"><a xlink:href="Meta_8hxx.html" target="_top" xlink:title="Meta.hxx">
<polygon fill="none" stroke="#000000" points="939,-56.5 939,-75.5 1001,-75.5 1001,-56.5 939,-56.5"/>
<text text-anchor="middle" x="970" y="-63.5" font-family="Helvetica,sans-Serif" font-size="10.00" fill="#000000">Meta.hxx</text>
</a>
</g>
</g>
<!-- Node6&#45;&gt;Node8 -->
<g id="edge9" class="edge">
<title>Node6&#45;&gt;Node8</title>
<path fill="none" stroke="#191970" d="M360.5462,-119.1514C465.8375,-113.3547 704.3312,-98.7747 904,-76 912.0151,-75.0858 920.5512,-73.9294 928.7324,-72.7301"/>
<polygon fill="#191970" stroke="#191970" points="929.4745,-76.1578 938.8394,-71.203 928.4287,-69.2363 929.4745,-76.1578"/>
</g>
<!-- Node9 -->
<g id="node10" class="node">
<title>Node9</title>
<polygon fill="none" stroke="#bfbfbf" points="1108,-.5 1108,-19.5 1168,-19.5 1168,-.5 1108,-.5"/>
<text text-anchor="middle" x="1138" y="-7.5" font-family="Helvetica,sans-Serif" font-size="10.00" fill="#000000">iostream</text>
</g>
<!-- Node8&#45;&gt;Node9 -->
<g id="edge10" class="edge">
<title>Node8&#45;&gt;Node9</title>
<path fill="none" stroke="#191970" d="M998.8802,-56.3733C1026.8161,-47.0613 1069.3142,-32.8953 1099.9869,-22.671"/>
<polygon fill="#191970" stroke="#191970" points="1101.1166,-25.9839 1109.4966,-19.5011 1098.903,-19.3431 1101.1166,-25.9839"/>
</g>
<!-- Node10 -->
<g id="node11" class="node">
<title>Node10</title>
<polygon fill="none" stroke="#bfbfbf" points="857.5,-.5 857.5,-19.5 926.5,-19.5 926.5,-.5 857.5,-.5"/>
<text text-anchor="middle" x="892" y="-7.5" font-family="Helvetica,sans-Serif" font-size="10.00" fill="#000000">type_traits</text>
</g>
<!-- Node8&#45;&gt;Node10 -->
<g id="edge11" class="edge">
<title>Node8&#45;&gt;Node10</title>
<path fill="none" stroke="#191970" d="M956.4134,-56.2455C944.6695,-47.814 927.4801,-35.4729 913.8118,-25.6598"/>
<polygon fill="#191970" stroke="#191970" points="915.5954,-22.6316 905.4309,-19.6427 911.5129,-28.3179 915.5954,-22.6316"/>
</g>
<!-- Node11 -->
<g id="node12" class="node">
<title>Node11</title>
<polygon fill="none" stroke="#bfbfbf" points="944.5,-.5 944.5,-19.5 995.5,-19.5 995.5,-.5 944.5,-.5"/>
<text text-anchor="middle" x="970" y="-7.5" font-family="Helvetica,sans-Serif" font-size="10.00" fill="#000000">variant</text>
</g>
<!-- Node8&#45;&gt;Node11 -->
<g id="edge12" class="edge">
<title>Node8&#45;&gt;Node11</title>
<path fill="none" stroke="#191970" d="M970,-56.2455C970,-48.9382 970,-38.6944 970,-29.7046"/>
<polygon fill="#191970" stroke="#191970" points="973.5001,-29.6426 970,-19.6427 966.5001,-29.6427 973.5001,-29.6426"/>
</g>
<!-- Node12 -->
<g id="node13" class="node">
<title>Node12</title>
<polygon fill="none" stroke="#bfbfbf" points="1013.5,-.5 1013.5,-19.5 1054.5,-19.5 1054.5,-.5 1013.5,-.5"/>
<text text-anchor="middle" x="1034" y="-7.5" font-family="Helvetica,sans-Serif" font-size="10.00" fill="#000000">tuple</text>
</g>
<!-- Node8&#45;&gt;Node12 -->
<g id="edge13" class="edge">
<title>Node8&#45;&gt;Node12</title>
<path fill="none" stroke="#191970" d="M981.1479,-56.2455C990.5087,-48.0549 1004.0858,-36.1749 1015.1349,-26.5069"/>
<polygon fill="#191970" stroke="#191970" points="1017.7588,-28.8618 1022.9798,-19.6427 1013.1492,-23.5937 1017.7588,-28.8618"/>
</g>
<!-- Node13&#45;&gt;Node7 -->
<g id="edge18" class="edge">
<title>Node13&#45;&gt;Node7</title>
<path fill="none" stroke="#191970" d="M514.5032,-280.3744C531.8159,-273.2912 551.796,-261.7494 562,-244 591.2229,-193.1682 572.2529,-120.0617 560.4238,-85.5069"/>
<polygon fill="#191970" stroke="#191970" points="563.5818,-83.9453 556.9043,-75.7196 556.9947,-86.3141 563.5818,-83.9453"/>
</g>
<!-- Node14 -->
<g id="node15" class="node">
<title>Node14</title>
<polygon fill="none" stroke="#bfbfbf" points="381.5,-224.5 381.5,-243.5 488.5,-243.5 488.5,-224.5 381.5,-224.5"/>
<text text-anchor="middle" x="435" y="-231.5" font-family="Helvetica,sans-Serif" font-size="10.00" fill="#000000">condition_variable</text>
</g>
<!-- Node13&#45;&gt;Node14 -->
<g id="edge15" class="edge">
<title>Node13&#45;&gt;Node14</title>
<path fill="none" stroke="#191970" d="M474.639,-280.2455C467.825,-272.2958 458.0319,-260.8706 449.8848,-251.3656"/>
<polygon fill="#191970" stroke="#191970" points="452.4305,-248.9575 443.2651,-243.6427 447.1157,-253.513 452.4305,-248.9575"/>
</g>
<!-- Node15 -->
<g id="node16" class="node">
<title>Node15</title>
<polygon fill="none" stroke="#bfbfbf" points="846,-224.5 846,-243.5 894,-243.5 894,-224.5 846,-224.5"/>
<text text-anchor="middle" x="870" y="-231.5" font-family="Helvetica,sans-Serif" font-size="10.00" fill="#000000">mutex</text>
</g>
<!-- Node13&#45;&gt;Node15 -->
<g id="edge16" class="edge">
<title>Node13&#45;&gt;Node15</title>
<path fill="none" stroke="#191970" d="M549.0879,-280.4369C632.1141,-268.4228 771.4778,-248.2564 835.697,-238.9637"/>
<polygon fill="#191970" stroke="#191970" points="836.3053,-242.4123 845.701,-237.5161 835.3028,-235.4844 836.3053,-242.4123"/>
</g>
<!-- Node16 -->
<g id="node17" class="node">
<title>Node16</title>
<polygon fill="none" stroke="#bfbfbf" points="506.5,-224.5 506.5,-243.5 553.5,-243.5 553.5,-224.5 506.5,-224.5"/>
<text text-anchor="middle" x="530" y="-231.5" font-family="Helvetica,sans-Serif" font-size="10.00" fill="#000000">deque</text>
</g>
<!-- Node13&#45;&gt;Node16 -->
<g id="edge17" class="edge">
<title>Node13&#45;&gt;Node16</title>
<path fill="none" stroke="#191970" d="M491.1868,-280.2455C497.8589,-272.2958 507.4479,-260.8706 515.4253,-251.3656"/>
<polygon fill="#191970" stroke="#191970" points="518.1592,-253.5525 521.907,-243.6427 512.7974,-249.0524 518.1592,-253.5525"/>
</g>
<!-- Node17 -->
<g id="node18" class="node">
<title>Node17</title>
<polygon fill="none" stroke="#bfbfbf" points="587.5,-112.5 587.5,-131.5 652.5,-131.5 652.5,-112.5 587.5,-112.5"/>
<text text-anchor="middle" x="620" y="-119.5" font-family="Helvetica,sans-Serif" font-size="10.00" fill="#000000">functional</text>
</g>
<!-- Node13&#45;&gt;Node17 -->
<g id="edge19" class="edge">
<title>Node13&#45;&gt;Node17</title>
<path fill="none" stroke="#191970" d="M534.5587,-280.4423C556.5565,-273.7951 580.6443,-262.635 596,-244 620.1553,-214.6863 622.4431,-168.0315 621.5125,-141.7235"/>
<polygon fill="#191970" stroke="#191970" points="624.9943,-141.2949 620.9484,-131.503 618.0049,-141.6807 624.9943,-141.2949"/>
</g>
<!-- Node18 -->
<g id="node19" class="node">
<title>Node18</title>
<polygon fill="none" stroke="#bfbfbf" points="164,-224.5 164,-243.5 218,-243.5 218,-224.5 164,-224.5"/>
<text text-anchor="middle" x="191" y="-231.5" font-family="Helvetica,sans-Serif" font-size="10.00" fill="#000000">ciso646</text>
</g>
<!-- Node13&#45;&gt;Node18 -->
<g id="edge20" class="edge">
<title>Node13&#45;&gt;Node18</title>
<path fill="none" stroke="#191970" d="M420.8577,-280.497C371.15,-272.5162 299.4955,-260.1663 228.1246,-244.099"/>
<polygon fill="#191970" stroke="#191970" points="228.5855,-240.6144 218.058,-241.8072 227.0316,-247.4398 228.5855,-240.6144"/>
</g>
<!-- Node19 -->
<g id="node20" class="node">
<title>Node19</title>
<g id="a_node20"><a xlink:href="Events_8hxx.html" target="_top" xlink:title="../Events.hxx">
<polygon fill="none" stroke="#000000" points="710,-224.5 710,-243.5 790,-243.5 790,-224.5 710,-224.5"/>
<text text-anchor="middle" x="750" y="-231.5" font-family="Helvetica,sans-Serif" font-size="10.00" fill="#000000">../Events.hxx</text>
</a>
</g>
</g>
<!-- Node13&#45;&gt;Node19 -->
<g id="edge21" class="edge">
<title>Node13&#45;&gt;Node19</title>
<path fill="none" stroke="#191970" d="M528.5956,-280.4369C576.2506,-270.4418 650.8078,-254.8044 700.0336,-244.4798"/>
<polygon fill="#191970" stroke="#191970" points="700.7613,-247.9035 709.8299,-242.4252 699.3243,-241.0525 700.7613,-247.9035"/>
</g>
<!-- Node23 -->
<g id="node24" class="node">
<title>Node23</title>
<g id="a_node24"><a xlink:href="MessageQueue_8inl_8hxx.html" target="_top" xlink:title="MessageQueue.inl.hxx">
<polygon fill="none" stroke="#000000" points="236.5,-224.5 236.5,-243.5 363.5,-243.5 363.5,-224.5 236.5,-224.5"/>
<text text-anchor="middle" x="300" y="-231.5" font-family="Helvetica,sans-Serif" font-size="10.00" fill="#000000">MessageQueue.inl.hxx</text>
</a>
</g>
</g>
<!-- Node13&#45;&gt;Node23 -->
<g id="edge30" class="edge">
<title>Node13&#45;&gt;Node23</title>
<path fill="none" stroke="#191970" d="M451.5412,-280.3733C420.9793,-271.021 374.4174,-256.7725 340.9739,-246.5385"/>
<polygon fill="#191970" stroke="#191970" points="341.6348,-243.0806 331.0483,-243.5011 339.5864,-249.7742 341.6348,-243.0806"/>
</g>
<!-- Node19&#45;&gt;Node2 -->
<g id="edge23" class="edge">
<title>Node19&#45;&gt;Node2</title>
<path fill="none" stroke="#191970" d="M759.0822,-224.381C774.8701,-207.169 807.4584,-169.3931 826,-132 833.2834,-117.3115 838.2241,-99.3616 841.2375,-85.8911"/>
<polygon fill="#191970" stroke="#191970" points="844.7267,-86.3011 843.3245,-75.7994 837.8717,-84.8834 844.7267,-86.3011"/>
</g>
<!-- Node19&#45;&gt;Node8 -->
<g id="edge24" class="edge">
<title>Node19&#45;&gt;Node8</title>
<path fill="none" stroke="#191970" d="M763.3589,-224.203C775.9526,-214.9402 795.3288,-200.619 812,-188 861.7972,-150.3068 919.781,-105.2254 949.7488,-81.8363"/>
<polygon fill="#191970" stroke="#191970" points="952.0427,-84.4857 957.7696,-75.572 947.734,-78.9689 952.0427,-84.4857"/>
</g>
<!-- Node20 -->
<g id="node21" class="node">
<title>Node20</title>
<polygon fill="none" stroke="#bfbfbf" points="860,-168.5 860,-187.5 904,-187.5 904,-168.5 860,-168.5"/>
<text text-anchor="middle" x="882" y="-175.5" font-family="Helvetica,sans-Serif" font-size="10.00" fill="#000000">string</text>
</g>
<!-- Node19&#45;&gt;Node20 -->
<g id="edge22" class="edge">
<title>Node19&#45;&gt;Node20</title>
<path fill="none" stroke="#191970" d="M772.6916,-224.3733C794.0711,-215.3032 826.3057,-201.6279 850.2362,-191.4755"/>
<polygon fill="#191970" stroke="#191970" points="851.7656,-194.6287 859.6045,-187.5011 849.0317,-188.1846 851.7656,-194.6287"/>
</g>
<!-- Node21 -->
<g id="node22" class="node">
<title>Node21</title>
<g id="a_node22"><a xlink:href="UIEvents_8hxx.html" target="_top" xlink:title="events/UIEvents.hxx">
<polygon fill="none" stroke="#000000" points="648.5,-168.5 648.5,-187.5 765.5,-187.5 765.5,-168.5 648.5,-168.5"/>
<text text-anchor="middle" x="707" y="-175.5" font-family="Helvetica,sans-Serif" font-size="10.00" fill="#000000">events/UIEvents.hxx</text>
</a>
</g>
</g>
<!-- Node19&#45;&gt;Node21 -->
<g id="edge25" class="edge">
<title>Node19&#45;&gt;Node21</title>
<path fill="none" stroke="#191970" d="M742.51,-224.2455C736.4674,-216.3761 727.8097,-205.101 720.5559,-195.6542"/>
<polygon fill="#191970" stroke="#191970" points="723.2705,-193.4426 714.4042,-187.6427 717.7185,-197.7058 723.2705,-193.4426"/>
</g>
<!-- Node21&#45;&gt;Node6 -->
<g id="edge29" class="edge">
<title>Node21&#45;&gt;Node6</title>
<path fill="none" stroke="#191970" d="M648.2617,-169.7971C574.2485,-159.4611 447.4693,-141.7563 370.7317,-131.0398"/>
<polygon fill="#191970" stroke="#191970" points="371.0955,-127.5568 360.7075,-129.64 370.1273,-134.4895 371.0955,-127.5568"/>
</g>
<!-- Node21&#45;&gt;Node17 -->
<g id="edge26" class="edge">
<title>Node21&#45;&gt;Node17</title>
<path fill="none" stroke="#191970" d="M691.8458,-168.2455C678.4973,-159.6534 658.8414,-147.0014 643.4617,-137.1018"/>
<polygon fill="#191970" stroke="#191970" points="645.2836,-134.1121 634.9806,-131.6427 641.4949,-139.9982 645.2836,-134.1121"/>
</g>
<!-- Node22 -->
<g id="node23" class="node">
<title>Node22</title>
<g id="a_node23"><a xlink:href="ActivityType_8hxx.html" target="_top" xlink:title="../activity/ActivityType.hxx">
<polygon fill="none" stroke="#000000" points="671,-112.5 671,-131.5 817,-131.5 817,-112.5 671,-112.5"/>
<text text-anchor="middle" x="744" y="-119.5" font-family="Helvetica,sans-Serif" font-size="10.00" fill="#000000">../activity/ActivityType.hxx</text>
</a>
</g>
</g>
<!-- Node21&#45;&gt;Node22 -->
<g id="edge27" class="edge">
<title>Node21&#45;&gt;Node22</title>
<path fill="none" stroke="#191970" d="M713.4449,-168.2455C718.5382,-160.5367 725.7908,-149.5598 731.952,-140.2348"/>
<polygon fill="#191970" stroke="#191970" points="735.0365,-141.9155 737.6289,-131.6427 729.1962,-138.0566 735.0365,-141.9155"/>
</g>
<!-- Node22&#45;&gt;Node2 -->
<g id="edge28" class="edge">
<title>Node22&#45;&gt;Node2</title>
<path fill="none" stroke="#191970" d="M761.5929,-112.2455C777.379,-103.4928 800.7639,-90.527 818.7587,-80.5496"/>
<polygon fill="#191970" stroke="#191970" points="820.5603,-83.5528 827.6087,-75.6427 817.1659,-77.4308 820.5603,-83.5528"/>
</g>
<!-- Node24&#45;&gt;Node6 -->
<g id="edge32" class="edge">
<title>Node24&#45;&gt;Node6</title>
<path fill="none" stroke="#191970" d="M221.7309,-336.3159C192.0664,-316.2201 131.5322,-268.1727 155,-224 178.7758,-179.2476 231.9186,-150.5644 268.3682,-135.3625"/>
<polygon fill="#191970" stroke="#191970" points="269.7341,-138.5857 277.707,-131.6083 267.1231,-132.0909 269.7341,-138.5857"/>
</g>
<!-- Node24&#45;&gt;Node13 -->
<g id="edge33" class="edge">
<title>Node24&#45;&gt;Node13</title>
<path fill="none" stroke="#191970" d="M279.0094,-336.4369C321.1104,-326.8529 386.0005,-312.0812 431.2521,-301.78"/>
<polygon fill="#191970" stroke="#191970" points="432.1902,-305.1561 441.1639,-299.5237 430.6364,-298.3307 432.1902,-305.1561"/>
</g>
<!-- Node25&#45;&gt;Node8 -->
<g id="edge47" class="edge">
<title>Node25&#45;&gt;Node8</title>
<path fill="none" stroke="#191970" d="M1188.2031,-280.375C1152.9041,-245.6953 1031.9495,-126.8627 986.9999,-82.7017"/>
<polygon fill="#191970" stroke="#191970" points="989.3467,-80.1007 979.7604,-75.5891 984.4409,-85.0941 989.3467,-80.1007"/>
</g>
<!-- Node25&#45;&gt;Node9 -->
<g id="edge39" class="edge">
<title>Node25&#45;&gt;Node9</title>
<path fill="none" stroke="#191970" d="M1194.1636,-280.2883C1186.9313,-261.0769 1172,-216.7253 1172,-178 1172,-178 1172,-178 1172,-122 1172,-87.9677 1157.4485,-50.5293 1147.3849,-28.7067"/>
<polygon fill="#191970" stroke="#191970" points="1150.4939,-27.0954 1143.0168,-19.5891 1144.181,-30.1198 1150.4939,-27.0954"/>
</g>
<!-- Node25&#45;&gt;Node15 -->
<g id="edge46" class="edge">
<title>Node25&#45;&gt;Node15</title>
<path fill="none" stroke="#191970" d="M1154.6494,-285.1626C1098.7927,-278.508 998.5826,-265.1445 904.0584,-243.9861"/>
<polygon fill="#191970" stroke="#191970" points="904.5736,-240.514 894.0465,-241.7104 903.022,-247.3399 904.5736,-240.514"/>
</g>
<!-- Node25&#45;&gt;Node20 -->
<g id="edge35" class="edge">
<title>Node25&#45;&gt;Node20</title>
<path fill="none" stroke="#191970" d="M1181.6737,-280.4704C1153.627,-264.2186 1097.2629,-232.1093 1076,-224 1020.8958,-202.9843 953.2083,-189.5667 914.0952,-182.9424"/>
<polygon fill="#191970" stroke="#191970" points="914.5258,-179.4662 904.0893,-181.291 913.3858,-186.3727 914.5258,-179.4662"/>
</g>
<!-- Node25&#45;&gt;Node26 -->
<g id="edge36" class="edge">
<title>Node25&#45;&gt;Node26</title>
<path fill="none" stroke="#191970" d="M1241.2159,-284.7693C1302.9655,-277.1329 1420.224,-262.0311 1529.9852,-244.1007"/>
<polygon fill="#191970" stroke="#191970" points="1530.6018,-247.5464 1539.9011,-242.4696 1529.4656,-240.6392 1530.6018,-247.5464"/>
</g>
<!-- Node29 -->
<g id="node30" class="node">
<title>Node29</title>
<polygon fill="none" stroke="#bfbfbf" points="1200,-224.5 1200,-243.5 1250,-243.5 1250,-224.5 1200,-224.5"/>
<text text-anchor="middle" x="1225" y="-231.5" font-family="Helvetica,sans-Serif" font-size="10.00" fill="#000000">chrono</text>
</g>
<!-- Node25&#45;&gt;Node29 -->
<g id="edge40" class="edge">
<title>Node25&#45;&gt;Node29</title>
<path fill="none" stroke="#191970" d="M1202.703,-280.2455C1206.3424,-272.6973 1211.4924,-262.0158 1215.9262,-252.8197"/>
<polygon fill="#191970" stroke="#191970" points="1219.1605,-254.1704 1220.3509,-243.6427 1212.8551,-251.1303 1219.1605,-254.1704"/>
</g>
<!-- Node30 -->
<g id="node31" class="node">
<title>Node30</title>
<polygon fill="none" stroke="#bfbfbf" points="1268,-224.5 1268,-243.5 1312,-243.5 1312,-224.5 1268,-224.5"/>
<text text-anchor="middle" x="1290" y="-231.5" font-family="Helvetica,sans-Serif" font-size="10.00" fill="#000000">ctime</text>
</g>
<!-- Node25&#45;&gt;Node30 -->
<g id="edge41" class="edge">
<title>Node25&#45;&gt;Node30</title>
<path fill="none" stroke="#191970" d="M1214.0252,-280.2455C1228.1408,-271.6534 1248.9263,-259.0014 1265.1899,-249.1018"/>
<polygon fill="#191970" stroke="#191970" points="1267.4363,-251.8319 1274.1585,-243.6427 1263.7966,-245.8525 1267.4363,-251.8319"/>
</g>
<!-- Node31 -->
<g id="node32" class="node">
<title>Node31</title>
<polygon fill="none" stroke="#bfbfbf" points="1330.5,-224.5 1330.5,-243.5 1385.5,-243.5 1385.5,-224.5 1330.5,-224.5"/>
<text text-anchor="middle" x="1358" y="-231.5" font-family="Helvetica,sans-Serif" font-size="10.00" fill="#000000">fstream</text>
</g>
<!-- Node25&#45;&gt;Node31 -->
<g id="edge42" class="edge">
<title>Node25&#45;&gt;Node31</title>
<path fill="none" stroke="#191970" d="M1225.505,-280.3733C1251.8802,-271.1419 1291.8851,-257.1402 1321.0358,-246.9375"/>
<polygon fill="#191970" stroke="#191970" points="1322.5716,-250.1082 1330.8539,-243.5011 1320.2591,-243.5012 1322.5716,-250.1082"/>
</g>
<!-- Node32 -->
<g id="node33" class="node">
<title>Node32</title>
<polygon fill="none" stroke="#bfbfbf" points="1404,-224.5 1404,-243.5 1460,-243.5 1460,-224.5 1404,-224.5"/>
<text text-anchor="middle" x="1432" y="-231.5" font-family="Helvetica,sans-Serif" font-size="10.00" fill="#000000">sstream</text>
</g>
<!-- Node25&#45;&gt;Node32 -->
<g id="edge43" class="edge">
<title>Node25&#45;&gt;Node32</title>
<path fill="none" stroke="#191970" d="M1240.7588,-280.4639C1278.6243,-271.9186 1335.6328,-258.8095 1393.989,-244.1981"/>
<polygon fill="#191970" stroke="#191970" points="1394.9004,-247.578 1403.7446,-241.7445 1393.1929,-240.7894 1394.9004,-247.578"/>
</g>
<!-- Node33 -->
<g id="node34" class="node">
<title>Node33</title>
<polygon fill="none" stroke="#bfbfbf" points="1478,-224.5 1478,-243.5 1522,-243.5 1522,-224.5 1478,-224.5"/>
<text text-anchor="middle" x="1500" y="-231.5" font-family="Helvetica,sans-Serif" font-size="10.00" fill="#000000">SDL.h</text>
</g>
<!-- Node25&#45;&gt;Node33 -->
<g id="edge44" class="edge">
<title>Node25&#45;&gt;Node33</title>
<path fill="none" stroke="#191970" d="M1241.1026,-284.6343C1292.9011,-277.7572 1382.5396,-264.4932 1467.9099,-243.9995"/>
<polygon fill="#191970" stroke="#191970" points="1468.8727,-247.3673 1477.7588,-241.5977 1467.2143,-240.5666 1468.8727,-247.3673"/>
</g>
<!-- Node34 -->
<g id="node35" class="node">
<title>Node34</title>
<polygon fill="none" stroke="#bfbfbf" points="912,-224.5 912,-243.5 976,-243.5 976,-224.5 912,-224.5"/>
<text text-anchor="middle" x="944" y="-231.5" font-family="Helvetica,sans-Serif" font-size="10.00" fill="#000000">algorithm</text>
</g>
<!-- Node25&#45;&gt;Node34 -->
<g id="edge45" class="edge">
<title>Node25&#45;&gt;Node34</title>
<path fill="none" stroke="#191970" d="M1154.6826,-280.9967C1113.6958,-272.3991 1050.2015,-258.8781 986.0858,-244.2092"/>
<polygon fill="#191970" stroke="#191970" points="986.7395,-240.7682 976.2098,-241.9415 985.1729,-247.5907 986.7395,-240.7682"/>
</g>
<!-- Node35 -->
<g id="node36" class="node">
<title>Node35</title>
<g id="a_node36"><a xlink:href="LOG_8inl_8hxx.html" target="_top" xlink:title="LOG.inl.hxx">
<polygon fill="none" stroke="#000000" points="994.5,-224.5 994.5,-243.5 1067.5,-243.5 1067.5,-224.5 994.5,-224.5"/>
<text text-anchor="middle" x="1031" y="-231.5" font-family="Helvetica,sans-Serif" font-size="10.00" fill="#000000">LOG.inl.hxx</text>
</a>
</g>
</g>
<!-- Node25&#45;&gt;Node35 -->
<g id="edge48" class="edge">
<title>Node25&#45;&gt;Node35</title>
<path fill="none" stroke="#191970" d="M1169.2917,-280.3733C1141.6423,-271.1016 1099.6424,-257.0178 1069.1834,-246.804"/>
<polygon fill="#191970" stroke="#191970" points="1069.9276,-243.3621 1059.3337,-243.5011 1067.7021,-249.9989 1069.9276,-243.3621"/>
</g>
<!-- Node27 -->
<g id="node28" class="node">
<title>Node27</title>
<polygon fill="none" stroke="#bfbfbf" points="1508.5,-168.5 1508.5,-187.5 1573.5,-187.5 1573.5,-168.5 1508.5,-168.5"/>
<text text-anchor="middle" x="1541" y="-175.5" font-family="Helvetica,sans-Serif" font-size="10.00" fill="#000000">stdexcept</text>
</g>
<!-- Node26&#45;&gt;Node27 -->
<g id="edge37" class="edge">
<title>Node26&#45;&gt;Node27</title>
<path fill="none" stroke="#191970" d="M1575.6842,-224.2455C1569.7821,-216.3761 1561.3258,-205.101 1554.2406,-195.6542"/>
<polygon fill="#191970" stroke="#191970" points="1557.0321,-193.5427 1548.232,-187.6427 1551.432,-197.7427 1557.0321,-193.5427"/>
</g>
<!-- Node28 -->
<g id="node29" class="node">
<title>Node28</title>
<polygon fill="none" stroke="#bfbfbf" points="1591.5,-168.5 1591.5,-187.5 1656.5,-187.5 1656.5,-168.5 1591.5,-168.5"/>
<text text-anchor="middle" x="1624" y="-175.5" font-family="Helvetica,sans-Serif" font-size="10.00" fill="#000000">exception</text>
</g>
<!-- Node26&#45;&gt;Node28 -->
<g id="edge38" class="edge">
<title>Node26&#45;&gt;Node28</title>
<path fill="none" stroke="#191970" d="M1590.1417,-224.2455C1595.8444,-216.4564 1603.99,-205.3308 1610.8625,-195.9439"/>
<polygon fill="#191970" stroke="#191970" points="1613.8568,-197.7789 1616.9402,-187.6427 1608.2087,-193.6437 1613.8568,-197.7789"/>
</g>
</g>
</svg>
        <g id="navigator" transform="translate(0 0)" fill="#404254">
                <rect fill="#f2f5e9" fill-opacity="0.5" stroke="#606060" stroke-width=".5" x="0" y="0" width="60" height="60"/>
                <use id="zoomplus" xlink:href="#zoomPlus" x="17" y="9" onmousedown="handleZoom(evt,'in')"/>
                <use id="zoomminus" xlink:href="#zoomMin" x="42" y="9" onmousedown="handleZoom(evt,'out')"/>
                <use id="reset" xlink:href="#resetDef" x="30" y="36" onmousedown="handleReset()"/>
                <g id="arrowUp" xlink:href="#dirArrow" transform="translate(30 24)" onmousedown="handlePan(0,-1)">
                  <use xlink:href="#rim" fill="#404040">
                        <set attributeName="fill" to="#808080" begin="arrowUp.mouseover" end="arrowUp.mouseout"/>
                  </use>
                  <path fill="none" stroke="white" stroke-width="1.5" d="M0,-3.0v7 M-2.5,-0.5L0,-3.0L2.5,-0.5"/>
                </g>
                <g id="arrowRight" xlink:href="#dirArrow" transform="rotate(90) translate(36 -43)" onmousedown="handlePan(1,0)">
                  <use xlink:href="#rim" fill="#404040">
                        <set attributeName="fill" to="#808080" begin="arrowRight.mouseover" end="arrowRight.mouseout"/>
                  </use>
                  <path fill="none" stroke="white" stroke-width="1.5" d="M0,-3.0v7 M-2.5,-0.5L0,-3.0L2.5,-0.5"/>
                </g>
                <g id="arrowDown" xlink:href="#dirArrow" transform="rotate(180) translate(-30 -48)" onmousedown="handlePan(0,1)">
                  <use xlink:href="#rim" fill="#404040">
                        <set attributeName="fill" to="#808080" begin="arrowDown.mouseover" end="arrowDown.mouseout"/>
                  </use>
                  <path fill="none" stroke="white" stroke-width="1.5" d="M0,-3.0v7 M-2.5,-0.5L0,-3.0L2.5,-0.5"/>
                </g>
                <g id="arrowLeft" xlink:href="#dirArrow" transform="rotate(270) translate(-36 17)" onmousedown="handlePan(-1,0)">
                  <use xlink:href="#rim" fill="#404040">
                        <set attributeName="fill" to="#808080" begin="arrowLeft.mouseover" end="arrowLeft.mouseout"/>
                  </use>
                  <path fill="none" stroke="white" stroke-width="1.5" d="M0,-3.0v7 M-2.5,-0.5L0,-3.0L2.5,-0.5"/>
                </g>
        </g>
        <svg viewBox="0 0 15 15" width="100%" height="30px" preserveAspectRatio="xMaxYMin meet">
         <g id="arrow_out" transform="scale(0.3 0.3)">
          <a xlink:href="ButtonState_8cxx__incl_org.svg" target="_base">
           <rect id="button" ry="5" rx="5" y="6" x="6" height="38" width="38"
                fill="#f2f5e9" fill-opacity="0.5" stroke="#606060" stroke-width="1.0"/>
           <path id="arrow"
             d="M 11.500037,31.436501 C 11.940474,20.09759 22.043105,11.32322 32.158766,21.979434 L 37.068811,17.246167 C 37.068811,17.246167 37.088388,32 37.088388,32 L 22.160133,31.978069 C 22.160133,31.978069 26.997745,27.140456 26.997745,27.140456 C 18.528582,18.264221 13.291696,25.230495 11.500037,31.436501 z"
             style="fill:#404040;"/>
          </a>
         </g>
        </svg>
</svg>
