<?xml version="1.0" encoding="UTF-8" standalone="no"?>
<!DOCTYPE svg PUBLIC "-//W3C//DTD SVG 1.1//EN"
 "http://www.w3.org/Graphics/SVG/1.1/DTD/svg11.dtd">
<!-- Generated by graphviz version 2.40.1 (20161225.0304)
 -->
<!-- Title: src/engine/basics/Camera.hxx Pages: 1 -->
<svg width="270pt" height="84pt"
 viewBox="0.00 0.00 270.00 84.00" xmlns="http://www.w3.org/2000/svg" xmlns:xlink="http://www.w3.org/1999/xlink">
<g id="graph0" class="graph" transform="scale(1 1) rotate(0) translate(4 80)">
<title>src/engine/basics/Camera.hxx</title>
<!-- Node0 -->
<g id="node1" class="node">
<title>Node0</title>
<polygon fill="#bfbfbf" stroke="#000000" points="58.5,-56.5 58.5,-75.5 221.5,-75.5 221.5,-56.5 58.5,-56.5"/>
<text text-anchor="middle" x="140" y="-63.5" font-family="Helvetica,sans-Serif" font-size="10.00" fill="#000000">src/engine/basics/Camera.hxx</text>
</g>
<!-- Node1 -->
<g id="node2" class="node">
<title>Node1</title>
<g id="a_node2"><a xlink:href="point_8hxx.html" target="_top" xlink:title="point.hxx">
<polygon fill="none" stroke="#000000" points="0,-.5 0,-19.5 62,-19.5 62,-.5 0,-.5"/>
<text text-anchor="middle" x="31" y="-7.5" font-family="Helvetica,sans-Serif" font-size="10.00" fill="#000000">point.hxx</text>
</a>
</g>
</g>
<!-- Node0&#45;&gt;Node1 -->
<g id="edge1" class="edge">
<title>Node0&#45;&gt;Node1</title>
<path fill="none" stroke="#191970" d="M121.0136,-56.2455C103.8208,-47.4125 78.2762,-34.2887 58.7868,-24.2758"/>
<polygon fill="#191970" stroke="#191970" points="60.263,-21.0993 49.7688,-19.6427 57.0641,-27.3257 60.263,-21.0993"/>
</g>
<!-- Node2 -->
<g id="node3" class="node">
<title>Node2</title>
<g id="a_node3"><a xlink:href="Singleton_8hxx.html" target="_top" xlink:title="../../util/Singleton.hxx">
<polygon fill="none" stroke="#000000" points="80,-.5 80,-19.5 200,-19.5 200,-.5 80,-.5"/>
<text text-anchor="middle" x="140" y="-7.5" font-family="Helvetica,sans-Serif" font-size="10.00" fill="#000000">../../util/Singleton.hxx</text>
</a>
</g>
</g>
<!-- Node0&#45;&gt;Node2 -->
<g id="edge2" class="edge">
<title>Node0&#45;&gt;Node2</title>
<path fill="none" stroke="#191970" d="M140,-56.2455C140,-48.9382 140,-38.6944 140,-29.7046"/>
<polygon fill="#191970" stroke="#191970" points="143.5001,-29.6426 140,-19.6427 136.5001,-29.6427 143.5001,-29.6426"/>
</g>
<!-- Node3 -->
<g id="node4" class="node">
<title>Node3</title>
<polygon fill="none" stroke="#bfbfbf" points="218,-.5 218,-19.5 262,-19.5 262,-.5 218,-.5"/>
<text text-anchor="middle" x="240" y="-7.5" font-family="Helvetica,sans-Serif" font-size="10.00" fill="#000000">SDL.h</text>
</g>
<!-- Node0&#45;&gt;Node3 -->
<g id="edge3" class="edge">
<title>Node0&#45;&gt;Node3</title>
<path fill="none" stroke="#191970" d="M157.4187,-56.2455C173.0485,-47.4928 196.2019,-34.527 214.0185,-24.5496"/>
<polygon fill="#191970" stroke="#191970" points="215.766,-27.5825 222.7809,-19.6427 212.3457,-21.475 215.766,-27.5825"/>
</g>
</g>
</svg>
