<?xml version="1.0" encoding="UTF-8" standalone="no"?>
<!DOCTYPE svg PUBLIC "-//W3C//DTD SVG 1.1//EN"
 "http://www.w3.org/Graphics/SVG/1.1/DTD/svg11.dtd">
<!-- Generated by graphviz version 2.40.1 (20161225.0304)
 -->
<!-- Title: UIManager::setFPSCounterText Pages: 1 -->
<svg width="484pt" height="28pt"
 viewBox="0.00 0.00 484.00 28.00" xmlns="http://www.w3.org/2000/svg" xmlns:xlink="http://www.w3.org/1999/xlink">
<g id="graph0" class="graph" transform="scale(1 1) rotate(0) translate(4 24)">
<title>UIManager::setFPSCounterText</title>
<!-- Node289 -->
<g id="node1" class="node">
<title>Node289</title>
<polygon fill="#bfbfbf" stroke="#000000" points="0,-.5 0,-19.5 166,-19.5 166,-.5 0,-.5"/>
<text text-anchor="middle" x="83" y="-7.5" font-family="Helvetica,sans-Serif" font-size="10.00" fill="#000000">UIManager::setFPSCounterText</text>
</g>
<!-- Node290 -->
<g id="node2" class="node">
<title>Node290</title>
<g id="a_node2"><a xlink:href="classGame.html#a1c2ab25d5216b2f4b2fe41efd2c09114" target="_top" xlink:title="begins the game starts running the game ">
<polygon fill="none" stroke="#000000" points="202,-.5 202,-19.5 270,-19.5 270,-.5 202,-.5"/>
<text text-anchor="middle" x="236" y="-7.5" font-family="Helvetica,sans-Serif" font-size="10.00" fill="#000000">Game::run</text>
</a>
</g>
</g>
<!-- Node289&#45;&gt;Node290 -->
<g id="edge1" class="edge">
<title>Node289&#45;&gt;Node290</title>
<path fill="none" stroke="#191970" d="M176.4815,-10C185.4748,-10 194.1384,-10 201.9404,-10"/>
<polygon fill="#191970" stroke="#191970" points="176.216,-6.5001 166.2159,-10 176.2159,-13.5001 176.216,-6.5001"/>
</g>
<!-- Node291 -->
<g id="node3" class="node">
<title>Node291</title>
<g id="a_node3"><a xlink:href="main_8cxx.html#af582d708d899e67ead623eac34a22387" target="_top" xlink:title="protected_main">
<polygon fill="none" stroke="#000000" points="306,-.5 306,-19.5 399,-19.5 399,-.5 306,-.5"/>
<text text-anchor="middle" x="352.5" y="-7.5" font-family="Helvetica,sans-Serif" font-size="10.00" fill="#000000">protected_main</text>
</a>
</g>
</g>
<!-- Node290&#45;&gt;Node291 -->
<g id="edge2" class="edge">
<title>Node290&#45;&gt;Node291</title>
<path fill="none" stroke="#191970" d="M280.2653,-10C288.5757,-10 297.2897,-10 305.6749,-10"/>
<polygon fill="#191970" stroke="#191970" points="280.0098,-6.5001 270.0098,-10 280.0098,-13.5001 280.0098,-6.5001"/>
</g>
<!-- Node292 -->
<g id="node4" class="node">
<title>Node292</title>
<g id="a_node4"><a xlink:href="main_8cxx.html#a3c04138a5bfe5d72780bb7e82a18e627" target="_top" xlink:title="main">
<polygon fill="none" stroke="#000000" points="435,-.5 435,-19.5 476,-19.5 476,-.5 435,-.5"/>
<text text-anchor="middle" x="455.5" y="-7.5" font-family="Helvetica,sans-Serif" font-size="10.00" fill="#000000">main</text>
</a>
</g>
</g>
<!-- Node291&#45;&gt;Node292 -->
<g id="edge3" class="edge">
<title>Node291&#45;&gt;Node292</title>
<path fill="none" stroke="#191970" d="M409.2133,-10C418.4322,-10 427.4259,-10 434.9965,-10"/>
<polygon fill="#191970" stroke="#191970" points="409.1782,-6.5001 399.1782,-10 409.1781,-13.5001 409.1782,-6.5001"/>
</g>
</g>
</svg>
