<?xml version="1.0" encoding="UTF-8" standalone="no"?>
<!DOCTYPE svg PUBLIC "-//W3C//DTD SVG 1.1//EN"
 "http://www.w3.org/Graphics/SVG/1.1/DTD/svg11.dtd">
<!-- Generated by graphviz version 2.40.1 (20161225.0304)
 -->
<!-- Title: PixelBuffer::scale Pages: 1 -->
<svg width="394pt" height="180pt"
 viewBox="0.00 0.00 394.00 180.00" xmlns="http://www.w3.org/2000/svg" xmlns:xlink="http://www.w3.org/1999/xlink">
<g id="graph0" class="graph" transform="scale(1 1) rotate(0) translate(4 176)">
<title>PixelBuffer::scale</title>
<!-- Node60 -->
<g id="node1" class="node">
<title>Node60</title>
<polygon fill="#bfbfbf" stroke="#000000" points="0,-76.5 0,-95.5 101,-95.5 101,-76.5 0,-76.5"/>
<text text-anchor="middle" x="50.5" y="-83.5" font-family="Helvetica,sans-Serif" font-size="10.00" fill="#000000">PixelBuffer::scale</text>
</g>
<!-- Node61 -->
<g id="node2" class="node">
<title>Node61</title>
<g id="a_node2"><a xlink:href="classRectangle.html#a6d7591d194230afb71ac2efcb8fd782f" target="_top" xlink:title="Rectangle::width">
<polygon fill="none" stroke="#000000" points="139.5,-152.5 139.5,-171.5 237.5,-171.5 237.5,-152.5 139.5,-152.5"/>
<text text-anchor="middle" x="188.5" y="-159.5" font-family="Helvetica,sans-Serif" font-size="10.00" fill="#000000">Rectangle::width</text>
</a>
</g>
</g>
<!-- Node60&#45;&gt;Node61 -->
<g id="edge1" class="edge">
<title>Node60&#45;&gt;Node61</title>
<path fill="none" stroke="#191970" d="M63.1255,-95.6634C79.4918,-107.8674 109.2327,-128.9634 137,-143 141.032,-145.0382 145.3367,-146.9731 149.6748,-148.773"/>
<polygon fill="#191970" stroke="#191970" points="148.545,-152.0894 159.1324,-152.4855 151.1028,-145.5734 148.545,-152.0894"/>
</g>
<!-- Node63 -->
<g id="node4" class="node">
<title>Node63</title>
<g id="a_node4"><a xlink:href="classRectangle.html#a21cbebe8e941c0c92d7eba0f7badcb6a" target="_top" xlink:title="Rectangle::height">
<polygon fill="none" stroke="#000000" points="138,-114.5 138,-133.5 239,-133.5 239,-114.5 138,-114.5"/>
<text text-anchor="middle" x="188.5" y="-121.5" font-family="Helvetica,sans-Serif" font-size="10.00" fill="#000000">Rectangle::height</text>
</a>
</g>
</g>
<!-- Node60&#45;&gt;Node63 -->
<g id="edge3" class="edge">
<title>Node60&#45;&gt;Node63</title>
<path fill="none" stroke="#191970" d="M85.3232,-95.589C103.1377,-100.4944 125.0184,-106.5196 144.0389,-111.7571"/>
<polygon fill="#191970" stroke="#191970" points="143.1175,-115.1336 153.6879,-114.4141 144.976,-108.3848 143.1175,-115.1336"/>
</g>
<!-- Node64 -->
<g id="node5" class="node">
<title>Node64</title>
<g id="a_node5"><a xlink:href="classRectangle.html#aeae19d58b6473a6c4285fe9afe51e688" target="_top" xlink:title="Rectangle::EMPTY">
<polygon fill="none" stroke="#000000" points="137,-76.5 137,-95.5 240,-95.5 240,-76.5 137,-76.5"/>
<text text-anchor="middle" x="188.5" y="-83.5" font-family="Helvetica,sans-Serif" font-size="10.00" fill="#000000">Rectangle::EMPTY</text>
</a>
</g>
</g>
<!-- Node60&#45;&gt;Node64 -->
<g id="edge5" class="edge">
<title>Node60&#45;&gt;Node64</title>
<path fill="none" stroke="#191970" d="M101.1025,-86C109.5065,-86 118.3032,-86 126.9425,-86"/>
<polygon fill="#191970" stroke="#191970" points="126.979,-89.5001 136.979,-86 126.979,-82.5001 126.979,-89.5001"/>
</g>
<!-- Node65 -->
<g id="node6" class="node">
<title>Node65</title>
<g id="a_node6"><a xlink:href="classRectangle.html#ab5d4a97869ade9b36bde39f91cc70275" target="_top" xlink:title="Rectangle::x1">
<polygon fill="none" stroke="#000000" points="147,-38.5 147,-57.5 230,-57.5 230,-38.5 147,-38.5"/>
<text text-anchor="middle" x="188.5" y="-45.5" font-family="Helvetica,sans-Serif" font-size="10.00" fill="#000000">Rectangle::x1</text>
</a>
</g>
</g>
<!-- Node60&#45;&gt;Node65 -->
<g id="edge6" class="edge">
<title>Node60&#45;&gt;Node65</title>
<path fill="none" stroke="#191970" d="M85.3232,-76.411C103.1377,-71.5056 125.0184,-65.4804 144.0389,-60.2429"/>
<polygon fill="#191970" stroke="#191970" points="144.976,-63.6152 153.6879,-57.5859 143.1175,-56.8664 144.976,-63.6152"/>
</g>
<!-- Node66 -->
<g id="node7" class="node">
<title>Node66</title>
<g id="a_node7"><a xlink:href="classRectangle.html#a74a0197166d7dfa4518183939c336247" target="_top" xlink:title="Rectangle::y1">
<polygon fill="none" stroke="#000000" points="147,-.5 147,-19.5 230,-19.5 230,-.5 147,-.5"/>
<text text-anchor="middle" x="188.5" y="-7.5" font-family="Helvetica,sans-Serif" font-size="10.00" fill="#000000">Rectangle::y1</text>
</a>
</g>
</g>
<!-- Node60&#45;&gt;Node66 -->
<g id="edge7" class="edge">
<title>Node60&#45;&gt;Node66</title>
<path fill="none" stroke="#191970" d="M63.1255,-76.3366C79.4918,-64.1326 109.2327,-43.0366 137,-29 141.032,-26.9618 145.3367,-25.0269 149.6748,-23.227"/>
<polygon fill="#191970" stroke="#191970" points="151.1028,-26.4266 159.1324,-19.5145 148.545,-19.9106 151.1028,-26.4266"/>
</g>
<!-- Node62 -->
<g id="node3" class="node">
<title>Node62</title>
<g id="a_node3"><a xlink:href="classRectangle.html#ace89ac3a7085543f3f60449fb5cdc8af" target="_top" xlink:title="Rectangle::isEmpty">
<polygon fill="none" stroke="#000000" points="276,-133.5 276,-152.5 386,-152.5 386,-133.5 276,-133.5"/>
<text text-anchor="middle" x="331" y="-140.5" font-family="Helvetica,sans-Serif" font-size="10.00" fill="#000000">Rectangle::isEmpty</text>
</a>
</g>
</g>
<!-- Node61&#45;&gt;Node62 -->
<g id="edge2" class="edge">
<title>Node61&#45;&gt;Node62</title>
<path fill="none" stroke="#191970" d="M237.5404,-155.4613C246.5271,-154.263 256.0376,-152.995 265.4163,-151.7445"/>
<polygon fill="#191970" stroke="#191970" points="266.0608,-155.1896 275.5105,-150.3986 265.1356,-148.251 266.0608,-155.1896"/>
</g>
<!-- Node63&#45;&gt;Node62 -->
<g id="edge4" class="edge">
<title>Node63&#45;&gt;Node62</title>
<path fill="none" stroke="#191970" d="M239.1414,-130.7522C247.7436,-131.8991 256.7843,-133.1046 265.6999,-134.2933"/>
<polygon fill="#191970" stroke="#191970" points="265.3078,-137.7719 275.6827,-135.6244 266.233,-130.8333 265.3078,-137.7719"/>
</g>
</g>
</svg>
