<?xml version="1.0" encoding="UTF-8" standalone="no"?>
<!DOCTYPE svg PUBLIC "-//W3C//DTD SVG 1.1//EN"
 "http://www.w3.org/Graphics/SVG/1.1/DTD/svg11.dtd">
<!-- Generated by graphviz version 2.40.1 (20161225.0304)
 -->
<!-- Title: SDLRenderer::drawText Pages: 1 -->
<svg width="566pt" height="123pt"
 viewBox="0.00 0.00 566.00 123.00" xmlns="http://www.w3.org/2000/svg" xmlns:xlink="http://www.w3.org/1999/xlink">
<g id="graph0" class="graph" transform="scale(1 1) rotate(0) translate(4 119)">
<title>SDLRenderer::drawText</title>
<!-- Node26 -->
<g id="node1" class="node">
<title>Node26</title>
<polygon fill="#bfbfbf" stroke="#000000" points="0,-38.5 0,-57.5 129,-57.5 129,-38.5 0,-38.5"/>
<text text-anchor="middle" x="64.5" y="-45.5" font-family="Helvetica,sans-Serif" font-size="10.00" fill="#000000">SDLRenderer::drawText</text>
</g>
<!-- Node27 -->
<g id="node2" class="node">
<title>Node27</title>
<g id="a_node2"><a xlink:href="structRGBAColor.html#aba740eb0cce3571dbb4af983ab7d055d" target="_top" xlink:title="RGBAColor::to_SDL">
<polygon fill="none" stroke="#000000" points="165,-95.5 165,-114.5 275,-114.5 275,-95.5 165,-95.5"/>
<text text-anchor="middle" x="220" y="-102.5" font-family="Helvetica,sans-Serif" font-size="10.00" fill="#000000">RGBAColor::to_SDL</text>
</a>
</g>
</g>
<!-- Node26&#45;&gt;Node27 -->
<g id="edge1" class="edge">
<title>Node26&#45;&gt;Node27</title>
<path fill="none" stroke="#191970" d="M90.5272,-57.5405C116.2042,-66.9527 155.6552,-81.4138 184.262,-91.8999"/>
<polygon fill="#191970" stroke="#191970" points="183.2942,-95.2728 193.8879,-95.4284 185.7034,-88.7004 183.2942,-95.2728"/>
</g>
<!-- Node28 -->
<g id="node3" class="node">
<title>Node28</title>
<g id="a_node3"><a xlink:href="classRectangle.html#a8e643108a9d90f031b397c7f561e9b66" target="_top" xlink:title="Rectangle::to_SDL">
<polygon fill="none" stroke="#000000" points="168,-19.5 168,-38.5 272,-38.5 272,-19.5 168,-19.5"/>
<text text-anchor="middle" x="220" y="-26.5" font-family="Helvetica,sans-Serif" font-size="10.00" fill="#000000">Rectangle::to_SDL</text>
</a>
</g>
</g>
<!-- Node26&#45;&gt;Node28 -->
<g id="edge2" class="edge">
<title>Node26&#45;&gt;Node28</title>
<path fill="none" stroke="#191970" d="M129.0951,-40.1074C138.5321,-38.9543 148.2354,-37.7687 157.627,-36.6211"/>
<polygon fill="#191970" stroke="#191970" points="158.1664,-40.0814 167.6681,-35.3943 157.3173,-33.133 158.1664,-40.0814"/>
</g>
<!-- Node29 -->
<g id="node4" class="node">
<title>Node29</title>
<g id="a_node4"><a xlink:href="classRectangle.html#a6d7591d194230afb71ac2efcb8fd782f" target="_top" xlink:title="Rectangle::width">
<polygon fill="none" stroke="#000000" points="312.5,-38.5 312.5,-57.5 410.5,-57.5 410.5,-38.5 312.5,-38.5"/>
<text text-anchor="middle" x="361.5" y="-45.5" font-family="Helvetica,sans-Serif" font-size="10.00" fill="#000000">Rectangle::width</text>
</a>
</g>
</g>
<!-- Node26&#45;&gt;Node29 -->
<g id="edge7" class="edge">
<title>Node26&#45;&gt;Node29</title>
<path fill="none" stroke="#191970" d="M129.3109,-48C180.8878,-48 252.4629,-48 302.4644,-48"/>
<polygon fill="#191970" stroke="#191970" points="302.478,-51.5001 312.478,-48 302.4779,-44.5001 302.478,-51.5001"/>
</g>
<!-- Node31 -->
<g id="node6" class="node">
<title>Node31</title>
<g id="a_node6"><a xlink:href="classRectangle.html#a21cbebe8e941c0c92d7eba0f7badcb6a" target="_top" xlink:title="Rectangle::height">
<polygon fill="none" stroke="#000000" points="311,-.5 311,-19.5 412,-19.5 412,-.5 311,-.5"/>
<text text-anchor="middle" x="361.5" y="-7.5" font-family="Helvetica,sans-Serif" font-size="10.00" fill="#000000">Rectangle::height</text>
</a>
</g>
</g>
<!-- Node26&#45;&gt;Node31 -->
<g id="edge8" class="edge">
<title>Node26&#45;&gt;Node31</title>
<path fill="none" stroke="#191970" d="M83.5428,-38.4152C103.3236,-29.0367 135.4571,-15.3987 165,-10 209.9767,-1.7809 261.7174,-2.1677 300.8125,-4.4022"/>
<polygon fill="#191970" stroke="#191970" points="300.7768,-7.9067 310.9765,-5.0407 301.2157,-.9205 300.7768,-7.9067"/>
</g>
<!-- Node28&#45;&gt;Node29 -->
<g id="edge3" class="edge">
<title>Node28&#45;&gt;Node29</title>
<path fill="none" stroke="#191970" d="M272.2874,-36.0209C281.9867,-37.3233 292.1839,-38.6925 302.0776,-40.021"/>
<polygon fill="#191970" stroke="#191970" points="301.8676,-43.5242 312.2445,-41.3862 302.7992,-36.5864 301.8676,-43.5242"/>
</g>
<!-- Node28&#45;&gt;Node31 -->
<g id="edge5" class="edge">
<title>Node28&#45;&gt;Node31</title>
<path fill="none" stroke="#191970" d="M272.2874,-21.9791C281.5377,-20.737 291.2409,-19.4341 300.7018,-18.1637"/>
<polygon fill="#191970" stroke="#191970" points="301.3946,-21.6022 310.8399,-16.8024 300.463,-14.6644 301.3946,-21.6022"/>
</g>
<!-- Node30 -->
<g id="node5" class="node">
<title>Node30</title>
<g id="a_node5"><a xlink:href="classRectangle.html#ace89ac3a7085543f3f60449fb5cdc8af" target="_top" xlink:title="Rectangle::isEmpty">
<polygon fill="none" stroke="#000000" points="448,-19.5 448,-38.5 558,-38.5 558,-19.5 448,-19.5"/>
<text text-anchor="middle" x="503" y="-26.5" font-family="Helvetica,sans-Serif" font-size="10.00" fill="#000000">Rectangle::isEmpty</text>
</a>
</g>
</g>
<!-- Node29&#45;&gt;Node30 -->
<g id="edge4" class="edge">
<title>Node29&#45;&gt;Node30</title>
<path fill="none" stroke="#191970" d="M410.5927,-41.408C419.292,-40.2399 428.4748,-39.0069 437.541,-37.7895"/>
<polygon fill="#191970" stroke="#191970" points="438.2503,-41.2258 447.6956,-36.426 437.3187,-34.2881 438.2503,-41.2258"/>
</g>
<!-- Node31&#45;&gt;Node30 -->
<g id="edge6" class="edge">
<title>Node31&#45;&gt;Node30</title>
<path fill="none" stroke="#191970" d="M412.1851,-16.8058C420.5067,-17.9232 429.232,-19.0948 437.846,-20.2514"/>
<polygon fill="#191970" stroke="#191970" points="437.4993,-23.7362 447.8761,-21.5982 438.4309,-16.7984 437.4993,-23.7362"/>
</g>
</g>
</svg>
