<?xml version="1.0" encoding="UTF-8" standalone="no"?>
<!DOCTYPE svg PUBLIC "-//W3C//DTD SVG 1.1//EN"
 "http://www.w3.org/Graphics/SVG/1.1/DTD/svg11.dtd">
<!-- Generated by graphviz version 2.40.1 (20161225.0304)
 -->
<!-- Title: UIManager::setBuildMenuLayout Pages: 1 -->
<svg width="1028pt" height="97pt"
 viewBox="0.00 0.00 1028.00 96.60" xmlns="http://www.w3.org/2000/svg" xmlns:xlink="http://www.w3.org/1999/xlink">
<g id="graph0" class="graph" transform="scale(1 1) rotate(0) translate(4 92.6033)">
<title>UIManager::setBuildMenuLayout</title>
<!-- Node229 -->
<g id="node1" class="node">
<title>Node229</title>
<polygon fill="#bfbfbf" stroke="#000000" points="0,-50 0,-69 174,-69 174,-50 0,-50"/>
<text text-anchor="middle" x="87" y="-57" font-family="Helvetica,sans-Serif" font-size="10.00" fill="#000000">UIManager::setBuildMenuLayout</text>
</g>
<!-- Node230 -->
<g id="node2" class="node">
<title>Node230</title>
<g id="a_node2"><a xlink:href="classUIManager.html#aedd9d0577af515a852425dfe414b2968" target="_top" xlink:title="Parses the UiLayout.json files and creates UI Elements. ">
<polygon fill="none" stroke="#000000" points="619,-50 619,-69 710,-69 710,-50 619,-50"/>
<text text-anchor="middle" x="664.5" y="-57" font-family="Helvetica,sans-Serif" font-size="10.00" fill="#000000">UIManager::init</text>
</a>
</g>
</g>
<!-- Node229&#45;&gt;Node230 -->
<g id="edge1" class="edge">
<title>Node229&#45;&gt;Node230</title>
<path fill="none" stroke="#191970" d="M171.3418,-70.1177C184.2721,-71.4506 197.4799,-72.6443 210,-73.5 375.4068,-84.8047 418.2933,-97.4449 583,-78.5 599.1656,-76.6406 616.7859,-72.7715 631.4938,-69.007"/>
<polygon fill="#191970" stroke="#191970" points="171.3641,-66.6004 161.0499,-69.0226 170.6234,-73.5611 171.3641,-66.6004"/>
</g>
<!-- Node234 -->
<g id="node6" class="node">
<title>Node234</title>
<g id="a_node6"><a xlink:href="classUIManager.html#aae7a89e9d50bb6192e4140e07bd5f94b" target="_top" xlink:title="UIManager::createBuildMenu">
<polygon fill="none" stroke="#000000" points="426,-50 426,-69 583,-69 583,-50 426,-50"/>
<text text-anchor="middle" x="504.5" y="-57" font-family="Helvetica,sans-Serif" font-size="10.00" fill="#000000">UIManager::createBuildMenu</text>
</a>
</g>
</g>
<!-- Node229&#45;&gt;Node234 -->
<g id="edge5" class="edge">
<title>Node229&#45;&gt;Node234</title>
<path fill="none" stroke="#191970" d="M184.1985,-59.5C257.6486,-59.5 357.1871,-59.5 425.7065,-59.5"/>
<polygon fill="#191970" stroke="#191970" points="184.0135,-56.0001 174.0135,-59.5 184.0134,-63.0001 184.0135,-56.0001"/>
</g>
<!-- Node235 -->
<g id="node7" class="node">
<title>Node235</title>
<g id="a_node7"><a xlink:href="classUIManager.html#a3ccb2fc669262f18ebdcdf3d5c43a3e8" target="_top" xlink:title="CallbackFunction that sets the Build Menu Position Used as callback function for the ComboBox that ho...">
<polygon fill="none" stroke="#000000" points="210,-9 210,-28 390,-28 390,-9 210,-9"/>
<text text-anchor="middle" x="300" y="-16" font-family="Helvetica,sans-Serif" font-size="10.00" fill="#000000">UIManager::setBuildMenuPosition</text>
</a>
</g>
</g>
<!-- Node229&#45;&gt;Node235 -->
<g id="edge7" class="edge">
<title>Node229&#45;&gt;Node235</title>
<path fill="none" stroke="#191970" d="M146.3224,-48.0811C179.1222,-41.7676 219.4044,-34.0137 250.4976,-28.0286"/>
<polygon fill="#191970" stroke="#191970" points="145.56,-44.6636 136.4019,-49.9907 146.8832,-51.5374 145.56,-44.6636"/>
</g>
<!-- Node231 -->
<g id="node3" class="node">
<title>Node231</title>
<g id="a_node3"><a xlink:href="classGame.html#a1c2ab25d5216b2f4b2fe41efd2c09114" target="_top" xlink:title="begins the game starts running the game ">
<polygon fill="none" stroke="#000000" points="746,-50 746,-69 814,-69 814,-50 746,-50"/>
<text text-anchor="middle" x="780" y="-57" font-family="Helvetica,sans-Serif" font-size="10.00" fill="#000000">Game::run</text>
</a>
</g>
</g>
<!-- Node230&#45;&gt;Node231 -->
<g id="edge2" class="edge">
<title>Node230&#45;&gt;Node231</title>
<path fill="none" stroke="#191970" d="M720.2726,-59.5C728.9603,-59.5 737.7077,-59.5 745.7272,-59.5"/>
<polygon fill="#191970" stroke="#191970" points="720.1487,-56.0001 710.1487,-59.5 720.1486,-63.0001 720.1487,-56.0001"/>
</g>
<!-- Node232 -->
<g id="node4" class="node">
<title>Node232</title>
<g id="a_node4"><a xlink:href="main_8cxx.html#af582d708d899e67ead623eac34a22387" target="_top" xlink:title="protected_main">
<polygon fill="none" stroke="#000000" points="850,-50 850,-69 943,-69 943,-50 850,-50"/>
<text text-anchor="middle" x="896.5" y="-57" font-family="Helvetica,sans-Serif" font-size="10.00" fill="#000000">protected_main</text>
</a>
</g>
</g>
<!-- Node231&#45;&gt;Node232 -->
<g id="edge3" class="edge">
<title>Node231&#45;&gt;Node232</title>
<path fill="none" stroke="#191970" d="M824.2653,-59.5C832.5757,-59.5 841.2897,-59.5 849.6749,-59.5"/>
<polygon fill="#191970" stroke="#191970" points="824.0098,-56.0001 814.0098,-59.5 824.0098,-63.0001 824.0098,-56.0001"/>
</g>
<!-- Node233 -->
<g id="node5" class="node">
<title>Node233</title>
<g id="a_node5"><a xlink:href="main_8cxx.html#a3c04138a5bfe5d72780bb7e82a18e627" target="_top" xlink:title="main">
<polygon fill="none" stroke="#000000" points="979,-50 979,-69 1020,-69 1020,-50 979,-50"/>
<text text-anchor="middle" x="999.5" y="-57" font-family="Helvetica,sans-Serif" font-size="10.00" fill="#000000">main</text>
</a>
</g>
</g>
<!-- Node232&#45;&gt;Node233 -->
<g id="edge4" class="edge">
<title>Node232&#45;&gt;Node233</title>
<path fill="none" stroke="#191970" d="M953.2133,-59.5C962.4322,-59.5 971.4259,-59.5 978.9965,-59.5"/>
<polygon fill="#191970" stroke="#191970" points="953.1782,-56.0001 943.1782,-59.5 953.1781,-63.0001 953.1782,-56.0001"/>
</g>
<!-- Node234&#45;&gt;Node230 -->
<g id="edge6" class="edge">
<title>Node234&#45;&gt;Node230</title>
<path fill="none" stroke="#191970" d="M593.348,-59.5C602.049,-59.5 610.6087,-59.5 618.6086,-59.5"/>
<polygon fill="#191970" stroke="#191970" points="593.0938,-56.0001 583.0938,-59.5 593.0938,-63.0001 593.0938,-56.0001"/>
</g>
<!-- Node236 -->
<g id="node8" class="node">
<title>Node236</title>
<g id="a_node8"><a xlink:href="classUIManager.html#a5c4cb8e02504ffa0d3faf45181feab9d" target="_top" xlink:title="Fill UI Widgets whose ID start with a $ with data Used for filling widgets with data, like BuildMenu Position combobox, Screen Resolution ComboBox and so on. ">
<polygon fill="none" stroke="#000000" points="431.5,-.5 431.5,-30.5 577.5,-30.5 577.5,-.5 431.5,-.5"/>
<text text-anchor="start" x="439.5" y="-18.5" font-family="Helvetica,sans-Serif" font-size="10.00" fill="#000000">UIManager::initializeDollar</text>
<text text-anchor="middle" x="504.5" y="-7.5" font-family="Helvetica,sans-Serif" font-size="10.00" fill="#000000">Variables</text>
</a>
</g>
</g>
<!-- Node235&#45;&gt;Node236 -->
<g id="edge8" class="edge">
<title>Node235&#45;&gt;Node236</title>
<path fill="none" stroke="#191970" d="M400.6025,-17.0242C410.9361,-16.8726 421.2922,-16.7207 431.2484,-16.5746"/>
<polygon fill="#191970" stroke="#191970" points="400.2395,-13.529 390.292,-17.1754 400.3423,-20.5283 400.2395,-13.529"/>
</g>
<!-- Node236&#45;&gt;Node230 -->
<g id="edge9" class="edge">
<title>Node236&#45;&gt;Node230</title>
<path fill="none" stroke="#191970" d="M568.8524,-33.1969C589.6277,-38.9101 611.8681,-45.0262 629.6699,-49.9217"/>
<polygon fill="#191970" stroke="#191970" points="569.6855,-29.7962 559.1154,-30.5192 567.8294,-36.5456 569.6855,-29.7962"/>
</g>
</g>
</svg>
