<?xml version="1.0" encoding="UTF-8" standalone="no"?>
<!DOCTYPE svg PUBLIC "-//W3C//DTD SVG 1.1//EN"
 "http://www.w3.org/Graphics/SVG/1.1/DTD/svg11.dtd">
<!-- Generated by graphviz version 2.40.1 (20161225.0304)
 -->
<!-- Title: UIManager::setBuildMenuPosition Pages: 1 -->
<svg width="1050pt" height="432pt"
 viewBox="0.00 0.00 1050.00 431.50" xmlns="http://www.w3.org/2000/svg" xmlns:xlink="http://www.w3.org/1999/xlink">
<g id="graph0" class="graph" transform="scale(1 1) rotate(0) translate(4 427.5)">
<title>UIManager::setBuildMenuPosition</title>
<!-- Node237 -->
<g id="node1" class="node">
<title>Node237</title>
<polygon fill="#bfbfbf" stroke="#000000" points="0,-240.5 0,-259.5 180,-259.5 180,-240.5 0,-240.5"/>
<text text-anchor="middle" x="90" y="-247.5" font-family="Helvetica,sans-Serif" font-size="10.00" fill="#000000">UIManager::setBuildMenuPosition</text>
</g>
<!-- Node238 -->
<g id="node2" class="node">
<title>Node238</title>
<g id="a_node2"><a xlink:href="classSingleton.html#af5cb1e5749949e2b68416cfb8d378044" target="_top" xlink:title="Get an instance of the singleton. ">
<polygon fill="none" stroke="#000000" points="655,-393 655,-423 768,-423 768,-393 655,-393"/>
<text text-anchor="start" x="663" y="-411" font-family="Helvetica,sans-Serif" font-size="10.00" fill="#000000">Singleton&lt; Settings</text>
<text text-anchor="middle" x="711.5" y="-400" font-family="Helvetica,sans-Serif" font-size="10.00" fill="#000000"> &gt;::instance</text>
</a>
</g>
</g>
<!-- Node237&#45;&gt;Node238 -->
<g id="edge1" class="edge">
<title>Node237&#45;&gt;Node238</title>
<path fill="none" stroke="#191970" d="M114.6385,-259.5696C168.7803,-286.1018 303.1061,-357.6846 426,-386 499.4352,-402.9198 586.2267,-404.339 644.678,-404.5739"/>
<polygon fill="#191970" stroke="#191970" points="644.8798,-408.0745 654.891,-404.6065 644.9023,-401.0745 644.8798,-408.0745"/>
</g>
<!-- Node237&#45;&gt;Node238 -->
<g id="edge7" class="edge">
<title>Node237&#45;&gt;Node238</title>
<path fill="none" stroke="#191970" d="M100.5307,-259.6191C140.9135,-288.8549 290.4143,-372.7604 426,-404 499.4352,-420.9198 586.2267,-422.339 644.678,-418.815"/>
<polygon fill="#191970" stroke="#191970" points="645.148,-422.2914 654.891,-418.1291 644.6789,-415.3071 645.148,-422.2914"/>
</g>
<!-- Node239 -->
<g id="node3" class="node">
<title>Node239</title>
<g id="a_node3"><a xlink:href="classComboBox.html#afddbdfd25efa15206eb724b641665cfc" target="_top" xlink:title="Get ID of selected element returns the ID of the selected element in the comboBox. ">
<polygon fill="none" stroke="#000000" points="236.5,-145.5 236.5,-164.5 369.5,-164.5 369.5,-145.5 236.5,-145.5"/>
<text text-anchor="middle" x="303" y="-152.5" font-family="Helvetica,sans-Serif" font-size="10.00" fill="#000000">ComboBox::getActiveID</text>
</a>
</g>
</g>
<!-- Node237&#45;&gt;Node239 -->
<g id="edge2" class="edge">
<title>Node237&#45;&gt;Node239</title>
<path fill="none" stroke="#191970" d="M111.5958,-240.3681C149.6482,-223.3963 228.7372,-188.1219 272.3985,-168.6486"/>
<polygon fill="#191970" stroke="#191970" points="273.9566,-171.786 281.6638,-164.5162 271.1053,-165.393 273.9566,-171.786"/>
</g>
<!-- Node241 -->
<g id="node5" class="node">
<title>Node241</title>
<g id="a_node5"><a xlink:href="classUIManager.html#af885d42286536573cd418ed008abfc07" target="_top" xlink:title="UIManager::setBuildMenuLayout">
<polygon fill="none" stroke="#000000" points="216,-44.5 216,-63.5 390,-63.5 390,-44.5 216,-44.5"/>
<text text-anchor="middle" x="303" y="-51.5" font-family="Helvetica,sans-Serif" font-size="10.00" fill="#000000">UIManager::setBuildMenuLayout</text>
</a>
</g>
</g>
<!-- Node237&#45;&gt;Node241 -->
<g id="edge4" class="edge">
<title>Node237&#45;&gt;Node241</title>
<path fill="none" stroke="#191970" d="M100.5627,-240.2803C134.6306,-208.9315 241.8842,-110.238 284.8949,-70.6601"/>
<polygon fill="#191970" stroke="#191970" points="287.3849,-73.1252 292.3735,-63.7783 282.6449,-67.9742 287.3849,-73.1252"/>
</g>
<!-- Node244 -->
<g id="node8" class="node">
<title>Node244</title>
<g id="a_node8"><a xlink:href="classLayout.html#afa734c5af10f59f3dadb066054fe81ab" target="_top" xlink:title="Arrange the layout elements. ">
<polygon fill="none" stroke="#000000" points="233.5,-240.5 233.5,-259.5 372.5,-259.5 372.5,-240.5 233.5,-240.5"/>
<text text-anchor="middle" x="303" y="-247.5" font-family="Helvetica,sans-Serif" font-size="10.00" fill="#000000">Layout::arrangeElements</text>
</a>
</g>
</g>
<!-- Node237&#45;&gt;Node244 -->
<g id="edge8" class="edge">
<title>Node237&#45;&gt;Node244</title>
<path fill="none" stroke="#191970" d="M180.0224,-250C194.3666,-250 209.1195,-250 223.2061,-250"/>
<polygon fill="#191970" stroke="#191970" points="223.3302,-253.5001 233.3301,-250 223.3301,-246.5001 223.3302,-253.5001"/>
</g>
<!-- Node240 -->
<g id="node4" class="node">
<title>Node240</title>
<g id="a_node4"><a xlink:href="classComboBox.html#ad0dba514b01ed2bb3c41c738c80a7d6a" target="_top" xlink:title="Set ID of selected element sets the ID of the selected element in the comboBox. ">
<polygon fill="none" stroke="#000000" points="442,-88.5 442,-107.5 574,-107.5 574,-88.5 442,-88.5"/>
<text text-anchor="middle" x="508" y="-95.5" font-family="Helvetica,sans-Serif" font-size="10.00" fill="#000000">ComboBox::setActiveID</text>
</a>
</g>
</g>
<!-- Node239&#45;&gt;Node240 -->
<g id="edge3" class="edge">
<title>Node239&#45;&gt;Node240</title>
<path fill="none" stroke="#191970" d="M337.3124,-145.4595C372.05,-135.8007 425.9103,-120.8249 463.8198,-110.2842"/>
<polygon fill="#191970" stroke="#191970" points="464.8788,-113.6227 473.5757,-107.5716 463.0035,-106.8785 464.8788,-113.6227"/>
</g>
<!-- Node242 -->
<g id="node6" class="node">
<title>Node242</title>
<g id="a_node6"><a xlink:href="namespaceutils_1_1strings.html#a1460a4e19b93604e32bb76f8407c4221" target="_top" xlink:title="checks if a string ends with a certain substring ">
<polygon fill="none" stroke="#000000" points="444,-.5 444,-19.5 572,-19.5 572,-.5 444,-.5"/>
<text text-anchor="middle" x="508" y="-7.5" font-family="Helvetica,sans-Serif" font-size="10.00" fill="#000000">utils::strings::endsWith</text>
</a>
</g>
</g>
<!-- Node241&#45;&gt;Node242 -->
<g id="edge5" class="edge">
<title>Node241&#45;&gt;Node242</title>
<path fill="none" stroke="#191970" d="M347.4819,-44.4527C378.6437,-37.7643 420.4729,-28.7863 453.6185,-21.6721"/>
<polygon fill="#191970" stroke="#191970" points="454.5621,-25.0494 463.6049,-19.5287 453.093,-18.2053 454.5621,-25.0494"/>
</g>
<!-- Node243 -->
<g id="node7" class="node">
<title>Node243</title>
<g id="a_node7"><a xlink:href="namespaceutils_1_1strings.html#ab8a6e07e519cb0ee76d762fe635901c1" target="_top" xlink:title="Erase First Occurrence of given substring from main string. ">
<polygon fill="none" stroke="#000000" points="439,-39 439,-69 577,-69 577,-39 439,-39"/>
<text text-anchor="start" x="447" y="-57" font-family="Helvetica,sans-Serif" font-size="10.00" fill="#000000">utils::strings::removeSub</text>
<text text-anchor="middle" x="508" y="-46" font-family="Helvetica,sans-Serif" font-size="10.00" fill="#000000">String</text>
</a>
</g>
</g>
<!-- Node241&#45;&gt;Node243 -->
<g id="edge6" class="edge">
<title>Node241&#45;&gt;Node243</title>
<path fill="none" stroke="#191970" d="M390.2357,-54C403.0481,-54 416.1859,-54 428.8242,-54"/>
<polygon fill="#191970" stroke="#191970" points="428.837,-57.5001 438.8369,-54 428.8369,-50.5001 428.837,-57.5001"/>
</g>
<!-- Node244&#45;&gt;Node238 -->
<g id="edge16" class="edge">
<title>Node244&#45;&gt;Node238</title>
<path fill="none" stroke="#191970" d="M321.7554,-259.6342C345.5205,-271.548 387.9728,-291.8586 426,-305 497.0114,-329.5401 524.8751,-308.5356 590,-346 609.8878,-357.4409 606.3419,-371.1687 626,-383 631.8758,-386.5364 638.2814,-389.5977 644.8569,-392.2425"/>
<polygon fill="#191970" stroke="#191970" points="643.9771,-395.6485 654.5705,-395.8262 646.4001,-389.0812 643.9771,-395.6485"/>
</g>
<!-- Node245 -->
<g id="node9" class="node">
<title>Node245</title>
<g id="a_node9"><a xlink:href="classWindow.html#a4959f94d75af5e975fb117f5ea0ef077" target="_top" xlink:title="Window::getBounds">
<polygon fill="none" stroke="#000000" points="655,-354.5 655,-373.5 768,-373.5 768,-354.5 655,-354.5"/>
<text text-anchor="middle" x="711.5" y="-361.5" font-family="Helvetica,sans-Serif" font-size="10.00" fill="#000000">Window::getBounds</text>
</a>
</g>
</g>
<!-- Node244&#45;&gt;Node245 -->
<g id="edge9" class="edge">
<title>Node244&#45;&gt;Node245</title>
<path fill="none" stroke="#191970" d="M365.376,-259.5501C437.5814,-271.2844 551.5142,-292.0932 590,-312 609.2788,-321.972 606.7508,-334.9711 626,-345 631.9799,-348.1155 638.4535,-350.7218 645.0704,-352.9018"/>
<polygon fill="#191970" stroke="#191970" points="644.2439,-356.3074 654.8266,-355.8004 646.2375,-349.5973 644.2439,-356.3074"/>
</g>
<!-- Node246 -->
<g id="node10" class="node">
<title>Node246</title>
<g id="a_node10"><a xlink:href="classRectangle.html#a6d7591d194230afb71ac2efcb8fd782f" target="_top" xlink:title="Rectangle::width">
<polygon fill="none" stroke="#000000" points="662.5,-202.5 662.5,-221.5 760.5,-221.5 760.5,-202.5 662.5,-202.5"/>
<text text-anchor="middle" x="711.5" y="-209.5" font-family="Helvetica,sans-Serif" font-size="10.00" fill="#000000">Rectangle::width</text>
</a>
</g>
</g>
<!-- Node244&#45;&gt;Node246 -->
<g id="edge10" class="edge">
<title>Node244&#45;&gt;Node246</title>
<path fill="none" stroke="#191970" d="M357.971,-240.4651C379.1759,-237.0614 403.6637,-233.4637 426,-231 504.0206,-222.3943 594.497,-217.1735 652.3285,-214.4376"/>
<polygon fill="#191970" stroke="#191970" points="652.5554,-217.9309 662.3825,-213.9715 652.2311,-210.9384 652.5554,-217.9309"/>
</g>
<!-- Node248 -->
<g id="node12" class="node">
<title>Node248</title>
<g id="a_node12"><a xlink:href="classRectangle.html#a21cbebe8e941c0c92d7eba0f7badcb6a" target="_top" xlink:title="Rectangle::height">
<polygon fill="none" stroke="#000000" points="661,-164.5 661,-183.5 762,-183.5 762,-164.5 661,-164.5"/>
<text text-anchor="middle" x="711.5" y="-171.5" font-family="Helvetica,sans-Serif" font-size="10.00" fill="#000000">Rectangle::height</text>
</a>
</g>
</g>
<!-- Node244&#45;&gt;Node248 -->
<g id="edge12" class="edge">
<title>Node244&#45;&gt;Node248</title>
<path fill="none" stroke="#191970" d="M330.5203,-240.3695C355.237,-232.0462 392.66,-220.2451 426,-213 502.6686,-196.3392 592.551,-185.4549 650.6818,-179.5224"/>
<polygon fill="#191970" stroke="#191970" points="651.1989,-182.9882 660.7994,-178.5072 650.4999,-176.0232 651.1989,-182.9882"/>
</g>
<!-- Node249 -->
<g id="node13" class="node">
<title>Node249</title>
<g id="a_node13"><a xlink:href="classLayout.html#a79480df6d9dd2d32b23468c05c6ac944" target="_top" xlink:title="Calculates height and width of layout groups. ">
<polygon fill="none" stroke="#000000" points="427,-355 427,-385 589,-385 589,-355 427,-355"/>
<text text-anchor="start" x="435" y="-373" font-family="Helvetica,sans-Serif" font-size="10.00" fill="#000000">Layout::calculateLayoutGroup</text>
<text text-anchor="middle" x="508" y="-362" font-family="Helvetica,sans-Serif" font-size="10.00" fill="#000000">Dimensions</text>
</a>
</g>
</g>
<!-- Node244&#45;&gt;Node249 -->
<g id="edge14" class="edge">
<title>Node244&#45;&gt;Node249</title>
<path fill="none" stroke="#191970" d="M313.8194,-259.5693C334.4142,-277.3932 381.2033,-316.0363 426,-340 433.6722,-344.1042 442.0263,-347.8761 450.3707,-351.2584"/>
<polygon fill="#191970" stroke="#191970" points="449.1623,-354.5438 459.7509,-354.9085 451.7009,-348.0203 449.1623,-354.5438"/>
</g>
<!-- Node250 -->
<g id="node14" class="node">
<title>Node250</title>
<g id="a_node14"><a xlink:href="classUIManager.html#a0d32c5b63c4110ff8e43ab06c1c7d761" target="_top" xlink:title="Get the Layoutgroup container Returns the container, that holds LayoutGroups. ">
<polygon fill="none" stroke="#000000" points="626,-126.5 626,-145.5 797,-145.5 797,-126.5 626,-126.5"/>
<text text-anchor="middle" x="711.5" y="-133.5" font-family="Helvetica,sans-Serif" font-size="10.00" fill="#000000">UIManager::getAllLayoutGroups</text>
</a>
</g>
</g>
<!-- Node244&#45;&gt;Node250 -->
<g id="edge17" class="edge">
<title>Node244&#45;&gt;Node250</title>
<path fill="none" stroke="#191970" d="M316.6446,-240.3654C338.586,-225.3694 383.5609,-196.6497 426,-182 487.3339,-160.8279 559.5045,-149.3091 615.938,-143.0929"/>
<polygon fill="#191970" stroke="#191970" points="616.3538,-146.5685 625.9271,-142.0296 615.6128,-139.6078 616.3538,-146.5685"/>
</g>
<!-- Node251 -->
<g id="node15" class="node">
<title>Node251</title>
<g id="a_node15"><a xlink:href="classLayout.html#a99004e4afcea6a945e3890b19cce6236" target="_top" xlink:title="Arrange Elements that are aligned to a parent This is a seperate function, so it can recurse if a par...">
<polygon fill="none" stroke="#000000" points="426,-240.5 426,-259.5 590,-259.5 590,-240.5 426,-240.5"/>
<text text-anchor="middle" x="508" y="-247.5" font-family="Helvetica,sans-Serif" font-size="10.00" fill="#000000">Layout::arrangeChildElements</text>
</a>
</g>
</g>
<!-- Node244&#45;&gt;Node251 -->
<g id="edge18" class="edge">
<title>Node244&#45;&gt;Node251</title>
<path fill="none" stroke="#191970" d="M372.6897,-250C386.42,-250 401.0283,-250 415.3761,-250"/>
<polygon fill="#191970" stroke="#191970" points="415.7613,-253.5001 425.7613,-250 415.7612,-246.5001 415.7613,-253.5001"/>
</g>
<!-- Node247 -->
<g id="node11" class="node">
<title>Node247</title>
<g id="a_node11"><a xlink:href="classRectangle.html#ace89ac3a7085543f3f60449fb5cdc8af" target="_top" xlink:title="Rectangle::isEmpty">
<polygon fill="none" stroke="#000000" points="882.5,-183.5 882.5,-202.5 992.5,-202.5 992.5,-183.5 882.5,-183.5"/>
<text text-anchor="middle" x="937.5" y="-190.5" font-family="Helvetica,sans-Serif" font-size="10.00" fill="#000000">Rectangle::isEmpty</text>
</a>
</g>
</g>
<!-- Node246&#45;&gt;Node247 -->
<g id="edge11" class="edge">
<title>Node246&#45;&gt;Node247</title>
<path fill="none" stroke="#191970" d="M760.5386,-207.8773C793.1501,-205.1356 836.3591,-201.503 871.9165,-198.5137"/>
<polygon fill="#191970" stroke="#191970" points="872.5335,-201.9742 882.2051,-197.6487 871.9471,-194.9988 872.5335,-201.9742"/>
</g>
<!-- Node248&#45;&gt;Node247 -->
<g id="edge13" class="edge">
<title>Node248&#45;&gt;Node247</title>
<path fill="none" stroke="#191970" d="M762.2188,-178.264C794.6738,-180.9925 837.0969,-184.559 872.078,-187.4999"/>
<polygon fill="#191970" stroke="#191970" points="871.9448,-191.001 882.2029,-188.3511 872.5313,-184.0256 871.9448,-191.001"/>
</g>
<!-- Node249&#45;&gt;Node238 -->
<g id="edge15" class="edge">
<title>Node249&#45;&gt;Node238</title>
<path fill="none" stroke="#191970" d="M588.4286,-385.0186C607.1762,-388.5194 626.935,-392.209 645.0018,-395.5826"/>
<polygon fill="#191970" stroke="#191970" points="644.3751,-399.026 654.8477,-397.4212 645.6601,-392.145 644.3751,-399.026"/>
</g>
<!-- Node251&#45;&gt;Node238 -->
<g id="edge22" class="edge">
<title>Node251&#45;&gt;Node238</title>
<path fill="none" stroke="#191970" d="M524.8852,-259.5662C542.8535,-270.4152 571.2261,-289.5444 590,-312 612.6932,-339.1436 598.7809,-360.3975 626,-383 631.7259,-387.7547 638.3205,-391.6053 645.2549,-394.7236"/>
<polygon fill="#191970" stroke="#191970" points="644.2858,-398.1044 654.8718,-398.5381 646.8668,-391.5976 644.2858,-398.1044"/>
</g>
<!-- Node251&#45;&gt;Node245 -->
<g id="edge19" class="edge">
<title>Node251&#45;&gt;Node245</title>
<path fill="none" stroke="#191970" d="M563.5888,-259.5452C573.0949,-262.9798 582.3549,-267.6499 590,-274 617.2161,-296.6061 598.0521,-323.3051 626,-345 631.7806,-349.4873 638.4093,-352.9589 645.3631,-355.6381"/>
<polygon fill="#191970" stroke="#191970" points="644.4045,-359.0074 654.9977,-358.8214 646.6007,-352.3608 644.4045,-359.0074"/>
</g>
<!-- Node251&#45;&gt;Node246 -->
<g id="edge20" class="edge">
<title>Node251&#45;&gt;Node246</title>
<path fill="none" stroke="#191970" d="M559.089,-240.46C587.4196,-235.1698 622.7851,-228.5659 652.3154,-223.0517"/>
<polygon fill="#191970" stroke="#191970" points="653.3086,-226.4268 662.4962,-221.1506 652.0236,-219.5457 653.3086,-226.4268"/>
</g>
<!-- Node251&#45;&gt;Node248 -->
<g id="edge21" class="edge">
<title>Node251&#45;&gt;Node248</title>
<path fill="none" stroke="#191970" d="M524.6687,-240.4156C547.0586,-227.9036 588.3903,-206.0646 626,-193 633.9495,-190.2386 642.4579,-187.7831 650.9119,-185.6304"/>
<polygon fill="#191970" stroke="#191970" points="651.8791,-188.9974 660.7744,-183.2421 650.2316,-182.194 651.8791,-188.9974"/>
</g>
<!-- Node251&#45;&gt;Node250 -->
<g id="edge25" class="edge">
<title>Node251&#45;&gt;Node250</title>
<path fill="none" stroke="#191970" d="M516.7517,-240.4723C535.0544,-221.1594 579.5442,-177.3406 626,-155 631.1795,-152.5092 636.6934,-150.3397 642.33,-148.4509"/>
<polygon fill="#191970" stroke="#191970" points="643.3527,-151.7982 651.8944,-145.5302 641.3082,-145.1034 643.3527,-151.7982"/>
</g>
<!-- Node252 -->
<g id="node16" class="node">
<title>Node252</title>
<g id="a_node16"><a xlink:href="classUIManager.html#aa5b6dbe1a9d5c50b588c55e9c9673f58" target="_top" xlink:title="Get the Ui Element By ID Finds and returns an UiElement by its elementID parameter. ">
<polygon fill="none" stroke="#000000" points="629,-316.5 629,-335.5 794,-335.5 794,-316.5 629,-316.5"/>
<text text-anchor="middle" x="711.5" y="-323.5" font-family="Helvetica,sans-Serif" font-size="10.00" fill="#000000">UIManager::getUiElementByID</text>
</a>
</g>
</g>
<!-- Node251&#45;&gt;Node252 -->
<g id="edge23" class="edge">
<title>Node251&#45;&gt;Node252</title>
<path fill="none" stroke="#191970" d="M554.1814,-259.5314C566.287,-263.0823 579.0168,-267.8082 590,-274 608.9075,-284.6591 606.7508,-296.9711 626,-307 630.5197,-309.3548 635.3214,-311.4186 640.2539,-313.2274"/>
<polygon fill="#191970" stroke="#191970" points="639.2675,-316.5875 649.8607,-316.4007 641.4631,-309.9407 639.2675,-316.5875"/>
</g>
<!-- Node253 -->
<g id="node17" class="node">
<title>Node253</title>
<g id="a_node17"><a xlink:href="classUIElement.html#a6451228b4c9bc058d69e4d4f2b03c719" target="_top" xlink:title="UIElement::getUiElementData">
<polygon fill="none" stroke="#000000" points="629.5,-278.5 629.5,-297.5 793.5,-297.5 793.5,-278.5 629.5,-278.5"/>
<text text-anchor="middle" x="711.5" y="-285.5" font-family="Helvetica,sans-Serif" font-size="10.00" fill="#000000">UIElement::getUiElementData</text>
</a>
</g>
</g>
<!-- Node251&#45;&gt;Node253 -->
<g id="edge24" class="edge">
<title>Node251&#45;&gt;Node253</title>
<path fill="none" stroke="#191970" d="M559.089,-259.54C586.7877,-264.7122 621.211,-271.1401 650.3309,-276.5778"/>
<polygon fill="#191970" stroke="#191970" points="649.9174,-280.061 660.39,-278.4561 651.2024,-273.1799 649.9174,-280.061"/>
</g>
<!-- Node254 -->
<g id="node18" class="node">
<title>Node254</title>
<g id="a_node18"><a xlink:href="classUIElement.html#ad1c0d7431b71bdd9a3704a6d5c8a4643" target="_top" xlink:title="Get the position and the size of this ui element Gets the position and the size of this ui element...">
<polygon fill="none" stroke="#000000" points="631,-240.5 631,-259.5 792,-259.5 792,-240.5 631,-240.5"/>
<text text-anchor="middle" x="711.5" y="-247.5" font-family="Helvetica,sans-Serif" font-size="10.00" fill="#000000">UIElement::getUiElementRect</text>
</a>
</g>
</g>
<!-- Node251&#45;&gt;Node254 -->
<g id="edge26" class="edge">
<title>Node251&#45;&gt;Node254</title>
<path fill="none" stroke="#191970" d="M590.1847,-250C600.278,-250 610.6383,-250 620.8478,-250"/>
<polygon fill="#191970" stroke="#191970" points="620.9915,-253.5001 630.9915,-250 620.9915,-246.5001 620.9915,-253.5001"/>
</g>
<!-- Node255 -->
<g id="node19" class="node">
<title>Node255</title>
<g id="a_node19"><a xlink:href="classUIElement.html#aa7f624963eaeb31043d74219ee24386c" target="_top" xlink:title="Checks if the mouse cursor is over the current UI Element Check if the coordinates match the ones sto...">
<polygon fill="none" stroke="#000000" points="869,-268.5 869,-287.5 1006,-287.5 1006,-268.5 869,-268.5"/>
<text text-anchor="middle" x="937.5" y="-275.5" font-family="Helvetica,sans-Serif" font-size="10.00" fill="#000000">UIElement::isMouseOver</text>
</a>
</g>
</g>
<!-- Node254&#45;&gt;Node255 -->
<g id="edge27" class="edge">
<title>Node254&#45;&gt;Node255</title>
<path fill="none" stroke="#191970" d="M788.3286,-259.5186C811.0683,-262.3359 835.9927,-265.4239 858.8459,-268.2552"/>
<polygon fill="#191970" stroke="#191970" points="858.4872,-271.7375 868.8417,-269.4937 859.3479,-264.7906 858.4872,-271.7375"/>
</g>
<!-- Node256 -->
<g id="node20" class="node">
<title>Node256</title>
<g id="a_node20"><a xlink:href="classUIElement.html#a570841bf8b7970ca935b1a00e571036a" target="_top" xlink:title="Handling for the hovering event Check, if the mouse cursor is hovering over the element. virtual function to provide custom handling if necessary (e.g. Combobox) Per default, it&#39;s the same implementation as isMouseOver. ">
<polygon fill="none" stroke="#000000" points="833,-230.5 833,-249.5 1042,-249.5 1042,-230.5 833,-230.5"/>
<text text-anchor="middle" x="937.5" y="-237.5" font-family="Helvetica,sans-Serif" font-size="10.00" fill="#000000">UIElement::isMouseOverHoverableArea</text>
</a>
</g>
</g>
<!-- Node254&#45;&gt;Node256 -->
<g id="edge28" class="edge">
<title>Node254&#45;&gt;Node256</title>
<path fill="none" stroke="#191970" d="M792.134,-246.4321C802.0217,-245.9946 812.2705,-245.5411 822.5409,-245.0867"/>
<polygon fill="#191970" stroke="#191970" points="822.9704,-248.5712 832.8059,-244.6325 822.6609,-241.578 822.9704,-248.5712"/>
</g>
</g>
</svg>
