<?xml version="1.0" encoding="UTF-8" standalone="no"?>
<!DOCTYPE svg PUBLIC "-//W3C//DTD SVG 1.1//EN"
 "http://www.w3.org/Graphics/SVG/1.1/DTD/svg11.dtd">
<!-- Generated by graphviz version 2.40.1 (20161225.0304)
 -->
<!-- Title: Map::loadMapFromFile Pages: 1 -->
<!--zoomable 119 -->
<svg id="main" version="1.1" xmlns="http://www.w3.org/2000/svg" xmlns:xlink="http://www.w3.org/1999/xlink" xml:space="preserve" onload="init(evt)">
<style type="text/css"><![CDATA[
.edge:hover path { stroke: red; }
.edge:hover polygon { stroke: red; fill: red; }
]]></style>
<script type="text/javascript"><![CDATA[
var edges = document.getElementsByTagName('g');
if (edges && edges.length) {
  for (var i=0;i<edges.length;i++) {
    if (edges[i].id.substr(0,4)=='edge') {
      edges[i].setAttribute('class','edge');
    }
  }
}
]]></script>
        <defs>
                <circle id="rim" cx="0" cy="0" r="7"/>
                <circle id="rim2" cx="0" cy="0" r="3.5"/>
                <g id="zoomPlus">
                        <use xlink:href="#rim" fill="#404040">
                                <set attributeName="fill" to="#808080" begin="zoomplus.mouseover" end="zoomplus.mouseout"/>
                        </use>
                        <path d="M-4,0h8M0,-4v8" fill="none" stroke="white" stroke-width="1.5" pointer-events="none"/>
                </g>
                <g id="zoomMin">
                        <use xlink:href="#rim" fill="#404040">
                                <set attributeName="fill" to="#808080" begin="zoomminus.mouseover" end="zoomminus.mouseout"/>
                        </use>
                        <path d="M-4,0h8" fill="none" stroke="white" stroke-width="1.5" pointer-events="none"/>
                </g>
                <g id="dirArrow">
                        <path fill="none" stroke="white" stroke-width="1.5" d="M0,-3.0v7 M-2.5,-0.5L0,-3.0L2.5,-0.5"/>
                </g>
               <g id="resetDef">
                       <use xlink:href="#rim2" fill="#404040">
                               <set attributeName="fill" to="#808080" begin="reset.mouseover" end="reset.mouseout"/>
                       </use>
               </g>
        </defs>

<script type="text/javascript">
var viewWidth = 1129;
var viewHeight = 119;
var sectionId = 'dynsection-21';
</script>
<script xlink:href="svgpan.js"/>
<svg id="graph" class="graph">
<g id="viewport">
<title>Map::loadMapFromFile</title>
<!-- Node107 -->
<g id="node1" class="node">
<title>Node107</title>
<polygon fill="#bfbfbf" stroke="#000000" points="0,-53.768 0,-72.768 125,-72.768 125,-53.768 0,-53.768"/>
<text text-anchor="middle" x="62.5" y="-60.768" font-family="Helvetica,sans-Serif" font-size="10.00" fill="#000000">Map::loadMapFromFile</text>
</g>
<!-- Node108 -->
<g id="node2" class="node">
<title>Node108</title>
<g id="a_node2"><a xlink:href="classEngine.html#a83b7dbeee899b36a13d5b07c7ad87ebc" target="_top" xlink:title="Loads a saved game Loads a saved Game. ">
<polygon fill="none" stroke="#000000" points="161,-53.768 161,-72.768 267,-72.768 267,-53.768 161,-53.768"/>
<text text-anchor="middle" x="214" y="-60.768" font-family="Helvetica,sans-Serif" font-size="10.00" fill="#000000">Engine::loadGame</text>
</a>
</g>
</g>
<!-- Node107&#45;&gt;Node108 -->
<g id="edge1" class="edge">
<title>Node107&#45;&gt;Node108</title>
<path fill="none" stroke="#191970" d="M135.6629,-63.268C144.0896,-63.268 152.559,-63.268 160.6534,-63.268"/>
<polygon fill="#191970" stroke="#191970" points="135.4335,-59.7681 125.4335,-63.268 135.4334,-66.7681 135.4335,-59.7681"/>
</g>
<!-- Node109 -->
<g id="node3" class="node">
<title>Node109</title>
<g id="a_node3"><a xlink:href="classEngine.html#a0ba57971ffb5173ecc425461f65a4cd8" target="_top" xlink:title="Quits the game Sets m_running to false and quitting the game. ">
<polygon fill="none" stroke="#000000" points="303,-53.768 303,-72.768 407,-72.768 407,-53.768 303,-53.768"/>
<text text-anchor="middle" x="355" y="-60.768" font-family="Helvetica,sans-Serif" font-size="10.00" fill="#000000">Engine::quitGame</text>
</a>
</g>
</g>
<!-- Node108&#45;&gt;Node109 -->
<g id="edge2" class="edge">
<title>Node108&#45;&gt;Node109</title>
<path fill="none" stroke="#191970" d="M277.4467,-63.268C285.8417,-63.268 294.3713,-63.268 302.5532,-63.268"/>
<polygon fill="#191970" stroke="#191970" points="277.3061,-59.7681 267.3061,-63.268 277.306,-66.7681 277.3061,-59.7681"/>
</g>
<!-- Node114 -->
<g id="node8" class="node">
<title>Node114</title>
<g id="a_node8"><a xlink:href="classUIManager.html#aa78e356fc3b356d790c848319d1c387e" target="_top" xlink:title="UIManager::setCallbackFunctions">
<polygon fill="none" stroke="#000000" points="443,-91.768 443,-110.768 621,-110.768 621,-91.768 443,-91.768"/>
<text text-anchor="middle" x="532" y="-98.768" font-family="Helvetica,sans-Serif" font-size="10.00" fill="#000000">UIManager::setCallbackFunctions</text>
</a>
</g>
</g>
<!-- Node108&#45;&gt;Node114 -->
<g id="edge13" class="edge">
<title>Node108&#45;&gt;Node114</title>
<path fill="none" stroke="#191970" d="M263.2955,-74.9625C276.1604,-77.6921 290.0501,-80.3565 303,-82.268 348.8791,-89.0403 400.3124,-93.5799 442.7948,-96.5181"/>
<polygon fill="#191970" stroke="#191970" points="263.751,-71.4797 253.2354,-72.7725 262.262,-78.3196 263.751,-71.4797"/>
</g>
<!-- Node117 -->
<g id="node11" class="node">
<title>Node117</title>
<g id="a_node11"><a xlink:href="classGame.html#a560299f0291c281f7b44e7ef0dd7b264" target="_top" xlink:title="initializes and displays the main menu initializes and displays the main menu ">
<polygon fill="none" stroke="#000000" points="682.5,-15.768 682.5,-34.768 785.5,-34.768 785.5,-15.768 682.5,-15.768"/>
<text text-anchor="middle" x="734" y="-22.768" font-family="Helvetica,sans-Serif" font-size="10.00" fill="#000000">Game::mainMenu</text>
</a>
</g>
</g>
<!-- Node108&#45;&gt;Node117 -->
<g id="edge14" class="edge">
<title>Node108&#45;&gt;Node117</title>
<path fill="none" stroke="#191970" d="M252.5111,-50.6131C297.5852,-36.5235 374.7596,-14.6332 443,-6.268 521.5233,3.3577 542.1631,.3137 621,-6.268 643.2034,-8.1217 667.6077,-11.9901 688.0373,-15.7556"/>
<polygon fill="#191970" stroke="#191970" points="251.3324,-47.3149 242.8528,-53.6668 253.4427,-53.9893 251.3324,-47.3149"/>
</g>
<!-- Node110 -->
<g id="node4" class="node">
<title>Node110</title>
<g id="a_node4"><a xlink:href="classEventManager.html#a65ec91fd5016d4f9c4167fb8babed2df" target="_top" xlink:title="EventManager::checkEvents">
<polygon fill="none" stroke="#000000" points="657,-53.768 657,-72.768 811,-72.768 811,-53.768 657,-53.768"/>
<text text-anchor="middle" x="734" y="-60.768" font-family="Helvetica,sans-Serif" font-size="10.00" fill="#000000">EventManager::checkEvents</text>
</a>
</g>
</g>
<!-- Node109&#45;&gt;Node110 -->
<g id="edge3" class="edge">
<title>Node109&#45;&gt;Node110</title>
<path fill="none" stroke="#191970" d="M417.4982,-63.268C483.1196,-63.268 586.3875,-63.268 656.9955,-63.268"/>
<polygon fill="#191970" stroke="#191970" points="417.3004,-59.7681 407.3004,-63.268 417.3004,-66.7681 417.3004,-59.7681"/>
</g>
<!-- Node109&#45;&gt;Node114 -->
<g id="edge7" class="edge">
<title>Node109&#45;&gt;Node114</title>
<path fill="none" stroke="#191970" d="M409.7423,-75.0206C434.77,-80.3938 464.0348,-86.6766 487.6566,-91.748"/>
<polygon fill="#191970" stroke="#191970" points="410.1765,-71.5341 399.6646,-72.857 408.7071,-78.3782 410.1765,-71.5341"/>
</g>
<!-- Node116 -->
<g id="node10" class="node">
<title>Node116</title>
<g id="a_node10"><a xlink:href="classGame.html#a8272be134d16c277bb014ad6a22fc357" target="_top" xlink:title="Game::quit">
<polygon fill="none" stroke="#000000" points="496.5,-15.768 496.5,-34.768 567.5,-34.768 567.5,-15.768 496.5,-15.768"/>
<text text-anchor="middle" x="532" y="-22.768" font-family="Helvetica,sans-Serif" font-size="10.00" fill="#000000">Game::quit</text>
</a>
</g>
</g>
<!-- Node109&#45;&gt;Node116 -->
<g id="edge10" class="edge">
<title>Node109&#45;&gt;Node116</title>
<path fill="none" stroke="#191970" d="M409.7714,-51.5092C437.9331,-45.4632 471.4531,-38.2668 496.2613,-32.9407"/>
<polygon fill="#191970" stroke="#191970" points="408.7071,-48.1579 399.6646,-53.679 410.1765,-55.0019 408.7071,-48.1579"/>
</g>
<!-- Node111 -->
<g id="node5" class="node">
<title>Node111</title>
<g id="a_node5"><a xlink:href="classGame.html#a1c2ab25d5216b2f4b2fe41efd2c09114" target="_top" xlink:title="begins the game starts running the game ">
<polygon fill="none" stroke="#000000" points="847,-53.768 847,-72.768 915,-72.768 915,-53.768 847,-53.768"/>
<text text-anchor="middle" x="881" y="-60.768" font-family="Helvetica,sans-Serif" font-size="10.00" fill="#000000">Game::run</text>
</a>
</g>
</g>
<!-- Node110&#45;&gt;Node111 -->
<g id="edge4" class="edge">
<title>Node110&#45;&gt;Node111</title>
<path fill="none" stroke="#191970" d="M821.5248,-63.268C830.4338,-63.268 839.0572,-63.268 846.845,-63.268"/>
<polygon fill="#191970" stroke="#191970" points="821.3744,-59.7681 811.3744,-63.268 821.3743,-66.7681 821.3744,-59.7681"/>
</g>
<!-- Node112 -->
<g id="node6" class="node">
<title>Node112</title>
<g id="a_node6"><a xlink:href="main_8cxx.html#af582d708d899e67ead623eac34a22387" target="_top" xlink:title="protected_main">
<polygon fill="none" stroke="#000000" points="951,-34.768 951,-53.768 1044,-53.768 1044,-34.768 951,-34.768"/>
<text text-anchor="middle" x="997.5" y="-41.768" font-family="Helvetica,sans-Serif" font-size="10.00" fill="#000000">protected_main</text>
</a>
</g>
</g>
<!-- Node111&#45;&gt;Node112 -->
<g id="edge5" class="edge">
<title>Node111&#45;&gt;Node112</title>
<path fill="none" stroke="#191970" d="M924.9884,-56.0939C933.382,-54.725 942.1965,-53.2875 950.6749,-51.9047"/>
<polygon fill="#191970" stroke="#191970" points="924.316,-52.6573 915.0098,-57.7214 925.4428,-59.566 924.316,-52.6573"/>
</g>
<!-- Node113 -->
<g id="node7" class="node">
<title>Node113</title>
<g id="a_node7"><a xlink:href="main_8cxx.html#a3c04138a5bfe5d72780bb7e82a18e627" target="_top" xlink:title="main">
<polygon fill="none" stroke="#000000" points="1080,-34.768 1080,-53.768 1121,-53.768 1121,-34.768 1080,-34.768"/>
<text text-anchor="middle" x="1100.5" y="-41.768" font-family="Helvetica,sans-Serif" font-size="10.00" fill="#000000">main</text>
</a>
</g>
</g>
<!-- Node112&#45;&gt;Node113 -->
<g id="edge6" class="edge">
<title>Node112&#45;&gt;Node113</title>
<path fill="none" stroke="#191970" d="M1054.2133,-44.268C1063.4322,-44.268 1072.4259,-44.268 1079.9965,-44.268"/>
<polygon fill="#191970" stroke="#191970" points="1054.1782,-40.7681 1044.1782,-44.268 1054.1781,-47.7681 1054.1782,-40.7681"/>
</g>
<!-- Node115 -->
<g id="node9" class="node">
<title>Node115</title>
<g id="a_node9"><a xlink:href="classUIManager.html#aedd9d0577af515a852425dfe414b2968" target="_top" xlink:title="Parses the UiLayout.json files and creates UI Elements. ">
<polygon fill="none" stroke="#000000" points="688.5,-91.768 688.5,-110.768 779.5,-110.768 779.5,-91.768 688.5,-91.768"/>
<text text-anchor="middle" x="734" y="-98.768" font-family="Helvetica,sans-Serif" font-size="10.00" fill="#000000">UIManager::init</text>
</a>
</g>
</g>
<!-- Node114&#45;&gt;Node115 -->
<g id="edge8" class="edge">
<title>Node114&#45;&gt;Node115</title>
<path fill="none" stroke="#191970" d="M631.3078,-101.268C651.3186,-101.268 671.4179,-101.268 688.4626,-101.268"/>
<polygon fill="#191970" stroke="#191970" points="631.1882,-97.7681 621.1881,-101.268 631.1881,-104.7681 631.1882,-97.7681"/>
</g>
<!-- Node115&#45;&gt;Node111 -->
<g id="edge9" class="edge">
<title>Node115&#45;&gt;Node111</title>
<path fill="none" stroke="#191970" d="M783.406,-89.2564C792.5883,-86.9731 802.0925,-84.5756 811,-82.268 822.7025,-79.2364 835.4719,-75.8067 846.8623,-72.7037"/>
<polygon fill="#191970" stroke="#191970" points="782.4787,-85.8802 773.612,-91.6796 784.1599,-92.6754 782.4787,-85.8802"/>
</g>
<!-- Node116&#45;&gt;Node117 -->
<g id="edge11" class="edge">
<title>Node116&#45;&gt;Node117</title>
<path fill="none" stroke="#191970" d="M577.7878,-25.268C608.9077,-25.268 650.1235,-25.268 682.405,-25.268"/>
<polygon fill="#191970" stroke="#191970" points="577.6486,-21.7681 567.6486,-25.268 577.6485,-28.7681 577.6486,-21.7681"/>
</g>
<!-- Node117&#45;&gt;Node112 -->
<g id="edge12" class="edge">
<title>Node117&#45;&gt;Node112</title>
<path fill="none" stroke="#191970" d="M795.8846,-29.7303C843.2616,-33.1465 907.5977,-37.7855 950.733,-40.8958"/>
<polygon fill="#191970" stroke="#191970" points="795.9706,-26.2275 785.7447,-28.9991 795.4671,-33.2094 795.9706,-26.2275"/>
</g>
</g>
</svg>
        <g id="navigator" transform="translate(0 0)" fill="#404254">
                <rect fill="#f2f5e9" fill-opacity="0.5" stroke="#606060" stroke-width=".5" x="0" y="0" width="60" height="60"/>
                <use id="zoomplus" xlink:href="#zoomPlus" x="17" y="9" onmousedown="handleZoom(evt,'in')"/>
                <use id="zoomminus" xlink:href="#zoomMin" x="42" y="9" onmousedown="handleZoom(evt,'out')"/>
                <use id="reset" xlink:href="#resetDef" x="30" y="36" onmousedown="handleReset()"/>
                <g id="arrowUp" xlink:href="#dirArrow" transform="translate(30 24)" onmousedown="handlePan(0,-1)">
                  <use xlink:href="#rim" fill="#404040">
                        <set attributeName="fill" to="#808080" begin="arrowUp.mouseover" end="arrowUp.mouseout"/>
                  </use>
                  <path fill="none" stroke="white" stroke-width="1.5" d="M0,-3.0v7 M-2.5,-0.5L0,-3.0L2.5,-0.5"/>
                </g>
                <g id="arrowRight" xlink:href="#dirArrow" transform="rotate(90) translate(36 -43)" onmousedown="handlePan(1,0)">
                  <use xlink:href="#rim" fill="#404040">
                        <set attributeName="fill" to="#808080" begin="arrowRight.mouseover" end="arrowRight.mouseout"/>
                  </use>
                  <path fill="none" stroke="white" stroke-width="1.5" d="M0,-3.0v7 M-2.5,-0.5L0,-3.0L2.5,-0.5"/>
                </g>
                <g id="arrowDown" xlink:href="#dirArrow" transform="rotate(180) translate(-30 -48)" onmousedown="handlePan(0,1)">
                  <use xlink:href="#rim" fill="#404040">
                        <set attributeName="fill" to="#808080" begin="arrowDown.mouseover" end="arrowDown.mouseout"/>
                  </use>
                  <path fill="none" stroke="white" stroke-width="1.5" d="M0,-3.0v7 M-2.5,-0.5L0,-3.0L2.5,-0.5"/>
                </g>
                <g id="arrowLeft" xlink:href="#dirArrow" transform="rotate(270) translate(-36 17)" onmousedown="handlePan(-1,0)">
                  <use xlink:href="#rim" fill="#404040">
                        <set attributeName="fill" to="#808080" begin="arrowLeft.mouseover" end="arrowLeft.mouseout"/>
                  </use>
                  <path fill="none" stroke="white" stroke-width="1.5" d="M0,-3.0v7 M-2.5,-0.5L0,-3.0L2.5,-0.5"/>
                </g>
        </g>
        <svg viewBox="0 0 15 15" width="100%" height="30px" preserveAspectRatio="xMaxYMin meet">
         <g id="arrow_out" transform="scale(0.3 0.3)">
          <a xlink:href="classMap_afefe996cc1f62b61ec60d0ae415953bf_icgraph_org.svg" target="_base">
           <rect id="button" ry="5" rx="5" y="6" x="6" height="38" width="38"
                fill="#f2f5e9" fill-opacity="0.5" stroke="#606060" stroke-width="1.0"/>
           <path id="arrow"
             d="M 11.500037,31.436501 C 11.940474,20.09759 22.043105,11.32322 32.158766,21.979434 L 37.068811,17.246167 C 37.068811,17.246167 37.088388,32 37.088388,32 L 22.160133,31.978069 C 22.160133,31.978069 26.997745,27.140456 26.997745,27.140456 C 18.528582,18.264221 13.291696,25.230495 11.500037,31.436501 z"
             style="fill:#404040;"/>
          </a>
         </g>
        </svg>
</svg>
