<?xml version="1.0" encoding="UTF-8" standalone="no"?>
<!DOCTYPE svg PUBLIC "-//W3C//DTD SVG 1.1//EN"
 "http://www.w3.org/Graphics/SVG/1.1/DTD/svg11.dtd">
<!-- Generated by graphviz version 2.40.1 (20161225.0304)
 -->
<!-- Title: MessageQueue::push Pages: 1 -->
<svg width="534pt" height="88pt"
 viewBox="0.00 0.00 534.00 88.00" xmlns="http://www.w3.org/2000/svg" xmlns:xlink="http://www.w3.org/1999/xlink">
<g id="graph0" class="graph" transform="scale(1 1) rotate(0) translate(4 84)">
<title>MessageQueue::push</title>
<!-- Node15 -->
<g id="node1" class="node">
<title>Node15</title>
<polygon fill="#bfbfbf" stroke="#000000" points="0,-24.5 0,-43.5 120,-43.5 120,-24.5 0,-24.5"/>
<text text-anchor="middle" x="60" y="-31.5" font-family="Helvetica,sans-Serif" font-size="10.00" fill="#000000">MessageQueue::push</text>
</g>
<!-- Node16 -->
<g id="node2" class="node">
<title>Node16</title>
<g id="a_node2"><a xlink:href="structUIMQDispatcher.html#acb9423f000faae11b0186b92599e6f0e" target="_top" xlink:title="UIMQDispatcher\&lt; VariantType\l\&lt; ButtonNotifications \&gt;\l \&gt;::dispatch">
<polygon fill="none" stroke="#000000" points="156,-38.5 156,-79.5 320,-79.5 320,-38.5 156,-38.5"/>
<text text-anchor="start" x="164" y="-67.5" font-family="Helvetica,sans-Serif" font-size="10.00" fill="#000000">UIMQDispatcher&lt; VariantType</text>
<text text-anchor="start" x="164" y="-56.5" font-family="Helvetica,sans-Serif" font-size="10.00" fill="#000000">&lt; ButtonNotifications &gt;</text>
<text text-anchor="middle" x="238" y="-45.5" font-family="Helvetica,sans-Serif" font-size="10.00" fill="#000000"> &gt;::dispatch</text>
</a>
</g>
</g>
<!-- Node15&#45;&gt;Node16 -->
<g id="edge1" class="edge">
<title>Node15&#45;&gt;Node16</title>
<path fill="none" stroke="#191970" d="M130.3016,-43.8738C138.6421,-45.0452 147.2121,-46.2489 155.7003,-47.4411"/>
<polygon fill="#191970" stroke="#191970" points="130.6523,-40.3888 120.2627,-42.4639 129.6787,-47.3208 130.6523,-40.3888"/>
</g>
<!-- Node17 -->
<g id="node3" class="node">
<title>Node17</title>
<g id="a_node3"><a xlink:href="classGame.html#aee1b95e6fd0cb0f441c3b7cef73b1abe" target="_top" xlink:title="ends the game shuts down the game ">
<polygon fill="none" stroke="#000000" points="188.5,-.5 188.5,-19.5 287.5,-19.5 287.5,-.5 188.5,-.5"/>
<text text-anchor="middle" x="238" y="-7.5" font-family="Helvetica,sans-Serif" font-size="10.00" fill="#000000">Game::shutdown</text>
</a>
</g>
</g>
<!-- Node15&#45;&gt;Node17 -->
<g id="edge2" class="edge">
<title>Node15&#45;&gt;Node17</title>
<path fill="none" stroke="#191970" d="M130.2991,-24.5215C149.7492,-21.899 170.4472,-19.1082 188.4466,-16.6814"/>
<polygon fill="#191970" stroke="#191970" points="129.7053,-21.0698 120.2627,-25.8747 130.6407,-28.007 129.7053,-21.0698"/>
</g>
<!-- Node18 -->
<g id="node4" class="node">
<title>Node18</title>
<g id="a_node4"><a xlink:href="main_8cxx.html#af582d708d899e67ead623eac34a22387" target="_top" xlink:title="protected_main">
<polygon fill="none" stroke="#000000" points="356,-.5 356,-19.5 449,-19.5 449,-.5 356,-.5"/>
<text text-anchor="middle" x="402.5" y="-7.5" font-family="Helvetica,sans-Serif" font-size="10.00" fill="#000000">protected_main</text>
</a>
</g>
</g>
<!-- Node17&#45;&gt;Node18 -->
<g id="edge3" class="edge">
<title>Node17&#45;&gt;Node18</title>
<path fill="none" stroke="#191970" d="M297.9211,-10C317.0521,-10 337.9268,-10 355.9596,-10"/>
<polygon fill="#191970" stroke="#191970" points="297.8019,-6.5001 287.8018,-10 297.8018,-13.5001 297.8019,-6.5001"/>
</g>
<!-- Node19 -->
<g id="node5" class="node">
<title>Node19</title>
<g id="a_node5"><a xlink:href="main_8cxx.html#a3c04138a5bfe5d72780bb7e82a18e627" target="_top" xlink:title="main">
<polygon fill="none" stroke="#000000" points="485,-.5 485,-19.5 526,-19.5 526,-.5 485,-.5"/>
<text text-anchor="middle" x="505.5" y="-7.5" font-family="Helvetica,sans-Serif" font-size="10.00" fill="#000000">main</text>
</a>
</g>
</g>
<!-- Node18&#45;&gt;Node19 -->
<g id="edge4" class="edge">
<title>Node18&#45;&gt;Node19</title>
<path fill="none" stroke="#191970" d="M459.2133,-10C468.4322,-10 477.4259,-10 484.9965,-10"/>
<polygon fill="#191970" stroke="#191970" points="459.1782,-6.5001 449.1782,-10 459.1781,-13.5001 459.1782,-6.5001"/>
</g>
</g>
</svg>
