<?xml version="1.0" encoding="UTF-8" standalone="no"?>
<!DOCTYPE svg PUBLIC "-//W3C//DTD SVG 1.1//EN"
 "http://www.w3.org/Graphics/SVG/1.1/DTD/svg11.dtd">
<!-- Generated by graphviz version 2.40.1 (20161225.0304)
 -->
<!-- Title: MapNode::isDataAutoTile Pages: 1 -->
<svg width="941pt" height="137pt"
 viewBox="0.00 0.00 941.00 137.35" xmlns="http://www.w3.org/2000/svg" xmlns:xlink="http://www.w3.org/1999/xlink">
<g id="graph0" class="graph" transform="scale(1 1) rotate(0) translate(4 133.3504)">
<title>MapNode::isDataAutoTile</title>
<!-- Node117 -->
<g id="node1" class="node">
<title>Node117</title>
<polygon fill="#bfbfbf" stroke="#000000" points="0,-7.0488 0,-26.0488 140,-26.0488 140,-7.0488 0,-7.0488"/>
<text text-anchor="middle" x="70" y="-14.0488" font-family="Helvetica,sans-Serif" font-size="10.00" fill="#000000">MapNode::isDataAutoTile</text>
</g>
<!-- Node118 -->
<g id="node2" class="node">
<title>Node118</title>
<g id="a_node2"><a xlink:href="classMapNode.html#afb1cbc0f9e987b7befced46220dd9277" target="_top" xlink:title="check if specific layer can be autotiled. ">
<polygon fill="none" stroke="#000000" points="176,-37.0488 176,-56.0488 320,-56.0488 320,-37.0488 176,-37.0488"/>
<text text-anchor="middle" x="248" y="-44.0488" font-family="Helvetica,sans-Serif" font-size="10.00" fill="#000000">MapNode::isLayerAutoTile</text>
</a>
</g>
</g>
<!-- Node117&#45;&gt;Node118 -->
<g id="edge1" class="edge">
<title>Node117&#45;&gt;Node118</title>
<path fill="none" stroke="#191970" d="M136.917,-27.827C154.8666,-30.8522 174.0955,-34.093 191.4246,-37.0136"/>
<polygon fill="#191970" stroke="#191970" points="137.2524,-24.3342 126.8097,-26.1235 136.0889,-31.2369 137.2524,-24.3342"/>
</g>
<!-- Node123 -->
<g id="node7" class="node">
<title>Node123</title>
<g id="a_node7"><a xlink:href="classMap.html#a404c38b33d61f8c63ce2c2efb864d6dd" target="_top" xlink:title="Set the Tile ID Of Node object Also invokes all necessary texture updates (auto&#45;tiling, slopes, ...) ">
<polygon fill="none" stroke="#000000" points="732,-8.5488 732,-60.5488 933,-60.5488 933,-8.5488 732,-8.5488"/>
<text text-anchor="start" x="740" y="-48.5488" font-family="Helvetica,sans-Serif" font-size="10.00" fill="#000000">Map&lt; ObserverSPtr&lt;</text>
<text text-anchor="start" x="740" y="-37.5488" font-family="Helvetica,sans-Serif" font-size="10.00" fill="#000000"> Notification &gt;, Set</text>
<text text-anchor="start" x="740" y="-26.5488" font-family="Helvetica,sans-Serif" font-size="10.00" fill="#000000">&lt; typename Notification</text>
<text text-anchor="middle" x="832.5" y="-15.5488" font-family="Helvetica,sans-Serif" font-size="10.00" fill="#000000">::TransitionType &gt; &gt;::setTileIDOfNode</text>
</a>
</g>
</g>
<!-- Node117&#45;&gt;Node123 -->
<g id="edge10" class="edge">
<title>Node117&#45;&gt;Node123</title>
<path fill="none" stroke="#191970" d="M150.3206,-10.3583C269.6929,-2.4121 500.8286,8.1522 696,-11.5488 707.5966,-12.7194 719.6985,-14.272 731.698,-16.0198"/>
<polygon fill="#191970" stroke="#191970" points="149.9121,-6.8778 140.1715,-11.0456 150.3851,-13.8618 149.9121,-6.8778"/>
</g>
<!-- Node119 -->
<g id="node3" class="node">
<title>Node119</title>
<g id="a_node3"><a xlink:href="classMapNode.html#aabbb10c19ddd79e9c519eb4af5e995e0" target="_top" xlink:title="Update texture. ">
<polygon fill="none" stroke="#000000" points="369.5,-97.0488 369.5,-116.0488 507.5,-116.0488 507.5,-97.0488 369.5,-97.0488"/>
<text text-anchor="middle" x="438.5" y="-104.0488" font-family="Helvetica,sans-Serif" font-size="10.00" fill="#000000">MapNode::updateTexture</text>
</a>
</g>
</g>
<!-- Node118&#45;&gt;Node119 -->
<g id="edge2" class="edge">
<title>Node118&#45;&gt;Node119</title>
<path fill="none" stroke="#191970" d="M279.9578,-59.9978C301.2473,-68.6288 329.9885,-79.6565 356,-87.5488 367.533,-91.0482 380.1422,-94.2551 391.9549,-96.998"/>
<polygon fill="#191970" stroke="#191970" points="281.0245,-56.6525 270.4441,-56.0995 278.3703,-63.1298 281.0245,-56.6525"/>
</g>
<!-- Node125 -->
<g id="node9" class="node">
<title>Node125</title>
<g id="a_node9"><a xlink:href="classMap.html#af192be95053d30ea6c6d9327106bf6d8" target="_top" xlink:title="Get a bitmask that represents same&#45;tile neighbors Checks all neighboring tiles and returns the elevat...">
<polygon fill="none" stroke="#000000" points="356,-15.0488 356,-78.0488 521,-78.0488 521,-15.0488 356,-15.0488"/>
<text text-anchor="start" x="364" y="-66.0488" font-family="Helvetica,sans-Serif" font-size="10.00" fill="#000000">Map&lt; ObserverSPtr&lt;</text>
<text text-anchor="start" x="364" y="-55.0488" font-family="Helvetica,sans-Serif" font-size="10.00" fill="#000000"> Notification &gt;, Set</text>
<text text-anchor="start" x="364" y="-44.0488" font-family="Helvetica,sans-Serif" font-size="10.00" fill="#000000">&lt; typename Notification</text>
<text text-anchor="start" x="364" y="-33.0488" font-family="Helvetica,sans-Serif" font-size="10.00" fill="#000000">::TransitionType &gt; &gt;::calculate</text>
<text text-anchor="middle" x="438.5" y="-22.0488" font-family="Helvetica,sans-Serif" font-size="10.00" fill="#000000">AutotileBitmask</text>
</a>
</g>
</g>
<!-- Node118&#45;&gt;Node125 -->
<g id="edge9" class="edge">
<title>Node118&#45;&gt;Node125</title>
<path fill="none" stroke="#191970" d="M330.2682,-46.5488C338.742,-46.5488 347.3554,-46.5488 355.8334,-46.5488"/>
<polygon fill="#191970" stroke="#191970" points="330.0199,-43.0489 320.0199,-46.5488 330.0198,-50.0489 330.0199,-43.0489"/>
</g>
<!-- Node120 -->
<g id="node4" class="node">
<title>Node120</title>
<g id="a_node4"><a xlink:href="classMapNode.html#ae515fc96b543bf97237bfb1ca53fe571" target="_top" xlink:title="MapNode::MapNode">
<polygon fill="none" stroke="#000000" points="775.5,-93.0488 775.5,-112.0488 889.5,-112.0488 889.5,-93.0488 775.5,-93.0488"/>
<text text-anchor="middle" x="832.5" y="-100.0488" font-family="Helvetica,sans-Serif" font-size="10.00" fill="#000000">MapNode::MapNode</text>
</a>
</g>
</g>
<!-- Node119&#45;&gt;Node120 -->
<g id="edge3" class="edge">
<title>Node119&#45;&gt;Node120</title>
<path fill="none" stroke="#191970" d="M496.7805,-117.7825C515.8911,-120.9593 537.2816,-123.9781 557,-125.5488 618.5827,-130.4545 634.4373,-130.6991 696,-125.5488 726.7736,-122.9743 761.0455,-117.1894 787.5501,-112.0656"/>
<polygon fill="#191970" stroke="#191970" points="497.1675,-114.2979 486.7205,-116.0618 495.9873,-121.1977 497.1675,-114.2979"/>
</g>
<!-- Node121 -->
<g id="node5" class="node">
<title>Node121</title>
<g id="a_node5"><a xlink:href="classMapNode.html#a92b521fa20e0a75d81523a52ba1d8250" target="_top" xlink:title="MapNode::setBitmask">
<polygon fill="none" stroke="#000000" points="564.5,-97.0488 564.5,-116.0488 688.5,-116.0488 688.5,-97.0488 564.5,-97.0488"/>
<text text-anchor="middle" x="626.5" y="-104.0488" font-family="Helvetica,sans-Serif" font-size="10.00" fill="#000000">MapNode::setBitmask</text>
</a>
</g>
</g>
<!-- Node119&#45;&gt;Node121 -->
<g id="edge4" class="edge">
<title>Node119&#45;&gt;Node121</title>
<path fill="none" stroke="#191970" d="M517.8086,-106.5488C533.3344,-106.5488 549.4084,-106.5488 564.2796,-106.5488"/>
<polygon fill="#191970" stroke="#191970" points="517.7034,-103.0489 507.7033,-106.5488 517.7033,-110.0489 517.7034,-103.0489"/>
</g>
<!-- Node122 -->
<g id="node6" class="node">
<title>Node122</title>
<g id="a_node6"><a xlink:href="classMapNode.html#a26e55c94192a56990f8a59e7af139a73" target="_top" xlink:title="MapNode::setTileID">
<polygon fill="none" stroke="#000000" points="570.5,-59.0488 570.5,-78.0488 682.5,-78.0488 682.5,-59.0488 570.5,-59.0488"/>
<text text-anchor="middle" x="626.5" y="-66.0488" font-family="Helvetica,sans-Serif" font-size="10.00" fill="#000000">MapNode::setTileID</text>
</a>
</g>
</g>
<!-- Node119&#45;&gt;Node122 -->
<g id="edge5" class="edge">
<title>Node119&#45;&gt;Node122</title>
<path fill="none" stroke="#191970" d="M495.9365,-94.9393C522.6744,-89.5348 554.0879,-83.1853 579.4008,-78.0689"/>
<polygon fill="#191970" stroke="#191970" points="495.0487,-91.5479 485.9403,-96.9598 496.4356,-98.4092 495.0487,-91.5479"/>
</g>
<!-- Node124 -->
<g id="node8" class="node">
<title>Node124</title>
<g id="a_node8"><a xlink:href="classMapNode.html#a002b868485074599fbf087fc4c96b2c9" target="_top" xlink:title="Demolish a node Removes all tiles on a node. This effects all layers where something to demolish is p...">
<polygon fill="none" stroke="#000000" points="557,-21.0488 557,-40.0488 696,-40.0488 696,-21.0488 557,-21.0488"/>
<text text-anchor="middle" x="626.5" y="-28.0488" font-family="Helvetica,sans-Serif" font-size="10.00" fill="#000000">MapNode::demolishNode</text>
</a>
</g>
</g>
<!-- Node119&#45;&gt;Node124 -->
<g id="edge8" class="edge">
<title>Node119&#45;&gt;Node124</title>
<path fill="none" stroke="#191970" d="M508.6481,-93.497C512.9348,-91.7565 517.0904,-89.7841 521,-87.5488 541.1964,-76.0016 537.0416,-61.5027 557,-49.5488 563.4387,-45.6924 570.677,-42.6 577.9864,-40.1253"/>
<polygon fill="#191970" stroke="#191970" points="507.3137,-90.2576 499.099,-96.9485 509.6933,-96.8408 507.3137,-90.2576"/>
</g>
<!-- Node122&#45;&gt;Node120 -->
<g id="edge6" class="edge">
<title>Node122&#45;&gt;Node120</title>
<path fill="none" stroke="#191970" d="M692.5395,-79.4485C719.2209,-83.8523 749.7172,-88.8857 775.4178,-93.1275"/>
<polygon fill="#191970" stroke="#191970" points="692.9548,-75.9698 682.5183,-77.7946 691.8148,-82.8764 692.9548,-75.9698"/>
</g>
<!-- Node122&#45;&gt;Node123 -->
<g id="edge7" class="edge">
<title>Node122&#45;&gt;Node123</title>
<path fill="none" stroke="#191970" d="M692.3851,-57.6746C704.9364,-55.603 718.3365,-53.3913 731.6876,-51.1878"/>
<polygon fill="#191970" stroke="#191970" points="691.8148,-54.2213 682.5183,-59.3031 692.9548,-61.1278 691.8148,-54.2213"/>
</g>
</g>
</svg>
