<?xml version="1.0" encoding="UTF-8" standalone="no"?>
<!DOCTYPE svg PUBLIC "-//W3C//DTD SVG 1.1//EN"
 "http://www.w3.org/Graphics/SVG/1.1/DTD/svg11.dtd">
<!-- Generated by graphviz version 2.40.1 (20161225.0304)
 -->
<!-- Title: ResourceManager::ResourceManager Pages: 1 -->
<svg width="334pt" height="192pt"
 viewBox="0.00 0.00 334.00 192.00" xmlns="http://www.w3.org/2000/svg" xmlns:xlink="http://www.w3.org/1999/xlink">
<g id="graph0" class="graph" transform="scale(1 1) rotate(0) translate(4 188)">
<title>ResourceManager::ResourceManager</title>
<!-- Node0 -->
<g id="node1" class="node">
<title>Node0</title>
<polygon fill="#bfbfbf" stroke="#000000" points="0,-71 0,-101 153,-101 153,-71 0,-71"/>
<text text-anchor="start" x="8" y="-89" font-family="Helvetica,sans-Serif" font-size="10.00" fill="#000000">ResourceManager::Resource</text>
<text text-anchor="middle" x="76.5" y="-78" font-family="Helvetica,sans-Serif" font-size="10.00" fill="#000000">Manager</text>
</g>
<!-- Node1 -->
<g id="node2" class="node">
<title>Node1</title>
<g id="a_node2"><a xlink:href="namespacefs.html#ac2d9a48234828392a1f6a6dfce785830" target="_top" xlink:title="Read contents from a file as string. ">
<polygon fill="none" stroke="#000000" points="202.5,-164.5 202.5,-183.5 312.5,-183.5 312.5,-164.5 202.5,-164.5"/>
<text text-anchor="middle" x="257.5" y="-171.5" font-family="Helvetica,sans-Serif" font-size="10.00" fill="#000000">fs::readFileAsString</text>
</a>
</g>
</g>
<!-- Node0&#45;&gt;Node1 -->
<g id="edge1" class="edge">
<title>Node0&#45;&gt;Node1</title>
<path fill="none" stroke="#191970" d="M97.0981,-101.0876C118.954,-116.4942 154.9639,-140.192 189,-155 194.4373,-157.3656 200.2466,-159.5125 206.0966,-161.4395"/>
<polygon fill="#191970" stroke="#191970" points="205.3343,-164.8671 215.9218,-164.4746 207.4003,-158.179 205.3343,-164.8671"/>
</g>
<!-- Node2 -->
<g id="node3" class="node">
<title>Node2</title>
<g id="a_node3"><a xlink:href="classSingleton.html#af5cb1e5749949e2b68416cfb8d378044" target="_top" xlink:title="Get an instance of the singleton. ">
<polygon fill="none" stroke="#000000" points="201,-115 201,-145 314,-145 314,-115 201,-115"/>
<text text-anchor="start" x="209" y="-133" font-family="Helvetica,sans-Serif" font-size="10.00" fill="#000000">Singleton&lt; Settings</text>
<text text-anchor="middle" x="257.5" y="-122" font-family="Helvetica,sans-Serif" font-size="10.00" fill="#000000"> &gt;::instance</text>
</a>
</g>
</g>
<!-- Node0&#45;&gt;Node2 -->
<g id="edge2" class="edge">
<title>Node0&#45;&gt;Node2</title>
<path fill="none" stroke="#191970" d="M138.2837,-101.0192C155.2343,-105.1398 173.6843,-109.6249 190.8928,-113.8082"/>
<polygon fill="#191970" stroke="#191970" points="190.317,-117.2701 200.8608,-116.2313 191.9705,-110.4682 190.317,-117.2701"/>
</g>
<!-- Node3 -->
<g id="node4" class="node">
<title>Node3</title>
<g id="a_node4"><a xlink:href="structStrongType.html#acc66e6d6b9c95193a97a839560499933" target="_top" xlink:title="StrongType::get">
<polygon fill="none" stroke="#000000" points="211.5,-76.5 211.5,-95.5 303.5,-95.5 303.5,-76.5 211.5,-76.5"/>
<text text-anchor="middle" x="257.5" y="-83.5" font-family="Helvetica,sans-Serif" font-size="10.00" fill="#000000">StrongType::get</text>
</a>
</g>
</g>
<!-- Node0&#45;&gt;Node3 -->
<g id="edge3" class="edge">
<title>Node0&#45;&gt;Node3</title>
<path fill="none" stroke="#191970" d="M153.2603,-86C169.3087,-86 185.9473,-86 201.0936,-86"/>
<polygon fill="#191970" stroke="#191970" points="201.3156,-89.5001 211.3156,-86 201.3156,-82.5001 201.3156,-89.5001"/>
</g>
<!-- Node4 -->
<g id="node5" class="node">
<title>Node4</title>
<g id="a_node5"><a xlink:href="namespacefs.html#a28e4c1324680c188092ecfe5fd8a91a3" target="_top" xlink:title="fs::getBasePath">
<polygon fill="none" stroke="#000000" points="211.5,-38.5 211.5,-57.5 303.5,-57.5 303.5,-38.5 211.5,-38.5"/>
<text text-anchor="middle" x="257.5" y="-45.5" font-family="Helvetica,sans-Serif" font-size="10.00" fill="#000000">fs::getBasePath</text>
</a>
</g>
</g>
<!-- Node0&#45;&gt;Node4 -->
<g id="edge4" class="edge">
<title>Node0&#45;&gt;Node4</title>
<path fill="none" stroke="#191970" d="M148.036,-70.9814C166.1258,-67.1835 185.2741,-63.1634 202.4112,-59.5656"/>
<polygon fill="#191970" stroke="#191970" points="203.1781,-62.981 212.2456,-57.5009 201.7398,-56.1303 203.1781,-62.981"/>
</g>
<!-- Node5 -->
<g id="node6" class="node">
<title>Node5</title>
<g id="a_node6"><a xlink:href="classResourceManager.html#a4d8cbbffb292e62ca4fb82fc07a8cfc5" target="_top" xlink:title="Cleans up the cache of unused resources. ">
<polygon fill="none" stroke="#000000" points="189,-.5 189,-19.5 326,-19.5 326,-.5 189,-.5"/>
<text text-anchor="middle" x="257.5" y="-7.5" font-family="Helvetica,sans-Serif" font-size="10.00" fill="#000000">ResourceManager::prune</text>
</a>
</g>
</g>
<!-- Node0&#45;&gt;Node5 -->
<g id="edge5" class="edge">
<title>Node0&#45;&gt;Node5</title>
<path fill="none" stroke="#191970" d="M102.6402,-70.8802C125.0166,-58.3987 158.3771,-40.8693 189,-29 195.0413,-26.6584 201.4856,-24.4782 207.9136,-22.4916"/>
<polygon fill="#191970" stroke="#191970" points="209.3398,-25.72 217.941,-19.5338 207.3593,-19.006 209.3398,-25.72"/>
</g>
</g>
</svg>
