<?xml version="1.0" encoding="UTF-8" standalone="no"?>
<!DOCTYPE svg PUBLIC "-//W3C//DTD SVG 1.1//EN"
 "http://www.w3.org/Graphics/SVG/1.1/DTD/svg11.dtd">
<!-- Generated by graphviz version 2.40.1 (20161225.0304)
 -->
<!-- Title: Sprite::getActiveClipRect Pages: 1 -->
<svg width="869pt" height="159pt"
 viewBox="0.00 0.00 869.00 158.50" xmlns="http://www.w3.org/2000/svg" xmlns:xlink="http://www.w3.org/1999/xlink">
<g id="graph0" class="graph" transform="scale(1 1) rotate(0) translate(4 154.5)">
<title>Sprite::getActiveClipRect</title>
<!-- Node11 -->
<g id="node1" class="node">
<title>Node11</title>
<polygon fill="#bfbfbf" stroke="#000000" points="0,-38.5 0,-57.5 137,-57.5 137,-38.5 0,-38.5"/>
<text text-anchor="middle" x="68.5" y="-45.5" font-family="Helvetica,sans-Serif" font-size="10.00" fill="#000000">Sprite::getActiveClipRect</text>
</g>
<!-- Node12 -->
<g id="node2" class="node">
<title>Node12</title>
<g id="a_node2"><a xlink:href="classMapLayers.html#a1d810628821913c499b8348107b66891" target="_top" xlink:title="Check if given Layer is being drawn. ">
<polygon fill="none" stroke="#000000" points="173,-38.5 173,-57.5 314,-57.5 314,-38.5 173,-38.5"/>
<text text-anchor="middle" x="243.5" y="-45.5" font-family="Helvetica,sans-Serif" font-size="10.00" fill="#000000">MapLayers::isLayerActive</text>
</a>
</g>
</g>
<!-- Node11&#45;&gt;Node12 -->
<g id="edge1" class="edge">
<title>Node11&#45;&gt;Node12</title>
<path fill="none" stroke="#191970" d="M137.1624,-48C145.4677,-48 154.0108,-48 162.4727,-48"/>
<polygon fill="#191970" stroke="#191970" points="162.7327,-51.5001 172.7327,-48 162.7326,-44.5001 162.7327,-51.5001"/>
</g>
<!-- Node13 -->
<g id="node3" class="node">
<title>Node13</title>
<g id="a_node3"><a xlink:href="classMapLayers.html#ab663dfc9e4c144f904ad85543b66ac8f" target="_top" xlink:title="Toggle Drawing Layer Toggle Drawing Layer (use bitwise XOR to toggle layer) ">
<polygon fill="none" stroke="#000000" points="350,-76.5 350,-95.5 512,-95.5 512,-76.5 350,-76.5"/>
<text text-anchor="middle" x="431" y="-83.5" font-family="Helvetica,sans-Serif" font-size="10.00" fill="#000000">MapLayers::setLayerEditMode</text>
</a>
</g>
</g>
<!-- Node12&#45;&gt;Node13 -->
<g id="edge2" class="edge">
<title>Node12&#45;&gt;Node13</title>
<path fill="none" stroke="#191970" d="M290.8142,-57.589C316.1141,-62.7165 347.4502,-69.0672 374.075,-74.4632"/>
<polygon fill="#191970" stroke="#191970" points="373.5301,-77.9238 384.0261,-76.4799 374.9205,-71.0633 373.5301,-77.9238"/>
</g>
<!-- Node18 -->
<g id="node8" class="node">
<title>Node18</title>
<g id="a_node8"><a xlink:href="classMapLayers.html#a53d7fcd90e70eaf36239d7a75c0c5dda" target="_top" xlink:title="MapLayers::MapLayers">
<polygon fill="none" stroke="#000000" points="367,-38.5 367,-57.5 495,-57.5 495,-38.5 367,-38.5"/>
<text text-anchor="middle" x="431" y="-45.5" font-family="Helvetica,sans-Serif" font-size="10.00" fill="#000000">MapLayers::MapLayers</text>
</a>
</g>
</g>
<!-- Node12&#45;&gt;Node18 -->
<g id="edge7" class="edge">
<title>Node12&#45;&gt;Node18</title>
<path fill="none" stroke="#191970" d="M314.1185,-48C328.0688,-48 342.7479,-48 356.8122,-48"/>
<polygon fill="#191970" stroke="#191970" points="356.9254,-51.5001 366.9254,-48 356.9254,-44.5001 356.9254,-51.5001"/>
</g>
<!-- Node19 -->
<g id="node9" class="node">
<title>Node19</title>
<g id="a_node9"><a xlink:href="classMapLayers.html#aa7fa21110e27ec69f131692b0a510d66" target="_top" xlink:title="MapLayers::~MapLayers">
<polygon fill="none" stroke="#000000" points="363,-.5 363,-19.5 499,-19.5 499,-.5 363,-.5"/>
<text text-anchor="middle" x="431" y="-7.5" font-family="Helvetica,sans-Serif" font-size="10.00" fill="#000000">MapLayers::~MapLayers</text>
</a>
</g>
</g>
<!-- Node12&#45;&gt;Node19 -->
<g id="edge8" class="edge">
<title>Node12&#45;&gt;Node19</title>
<path fill="none" stroke="#191970" d="M290.8142,-38.411C316.1141,-33.2835 347.4502,-26.9328 374.075,-21.5368"/>
<polygon fill="#191970" stroke="#191970" points="374.9205,-24.9367 384.0261,-19.5201 373.5301,-18.0762 374.9205,-24.9367"/>
</g>
<!-- Node14 -->
<g id="node4" class="node">
<title>Node14</title>
<g id="a_node4"><a xlink:href="classMapLayers.html#a0a64d01a42e8864b78e1bc54007cb7d9" target="_top" xlink:title="Toggle Drawing Layer Toggle Drawing Layer (use bitwise XOR to toggle layer) ">
<polygon fill="none" stroke="#000000" points="548,-120 548,-150 688,-150 688,-120 548,-120"/>
<text text-anchor="start" x="556" y="-138" font-family="Helvetica,sans-Serif" font-size="10.00" fill="#000000">MapLayers::deactivateAll</text>
<text text-anchor="middle" x="618" y="-127" font-family="Helvetica,sans-Serif" font-size="10.00" fill="#000000">Layers</text>
</a>
</g>
</g>
<!-- Node13&#45;&gt;Node14 -->
<g id="edge3" class="edge">
<title>Node13&#45;&gt;Node14</title>
<path fill="none" stroke="#191970" d="M467.4994,-95.564C491.1742,-101.7676 522.7334,-110.0371 550.8364,-117.401"/>
<polygon fill="#191970" stroke="#191970" points="550.0534,-120.8139 560.614,-119.963 551.8278,-114.0425 550.0534,-120.8139"/>
</g>
<!-- Node16 -->
<g id="node6" class="node">
<title>Node16</title>
<g id="a_node6"><a xlink:href="classSingleton.html#af5cb1e5749949e2b68416cfb8d378044" target="_top" xlink:title="Get an instance of the singleton. ">
<polygon fill="none" stroke="#000000" points="561.5,-71 561.5,-101 674.5,-101 674.5,-71 561.5,-71"/>
<text text-anchor="start" x="569.5" y="-89" font-family="Helvetica,sans-Serif" font-size="10.00" fill="#000000">Singleton&lt; Settings</text>
<text text-anchor="middle" x="618" y="-78" font-family="Helvetica,sans-Serif" font-size="10.00" fill="#000000"> &gt;::instance</text>
</a>
</g>
</g>
<!-- Node13&#45;&gt;Node16 -->
<g id="edge5" class="edge">
<title>Node13&#45;&gt;Node16</title>
<path fill="none" stroke="#191970" d="M512.2051,-86C525.1419,-86 538.3983,-86 550.9603,-86"/>
<polygon fill="#191970" stroke="#191970" points="551.3269,-89.5001 561.3268,-86 551.3268,-82.5001 551.3269,-89.5001"/>
</g>
<!-- Node17 -->
<g id="node7" class="node">
<title>Node17</title>
<g id="a_node7"><a xlink:href="classMapLayers.html#a5db6ba7e194ada6a4d0334d0428ff89b" target="_top" xlink:title="Enable drawing layers. ">
<polygon fill="none" stroke="#000000" points="548,-32.5 548,-51.5 688,-51.5 688,-32.5 548,-32.5"/>
<text text-anchor="middle" x="618" y="-39.5" font-family="Helvetica,sans-Serif" font-size="10.00" fill="#000000">MapLayers::enableLayers</text>
</a>
</g>
</g>
<!-- Node13&#45;&gt;Node17 -->
<g id="edge6" class="edge">
<title>Node13&#45;&gt;Node17</title>
<path fill="none" stroke="#191970" d="M471.7936,-76.4413C484.6584,-73.4241 498.9237,-70.0756 512,-67 530.1552,-62.7297 550.057,-58.0386 567.664,-53.8849"/>
<polygon fill="#191970" stroke="#191970" points="568.8061,-57.2116 577.735,-51.5086 567.1985,-50.3987 568.8061,-57.2116"/>
</g>
<!-- Node15 -->
<g id="node5" class="node">
<title>Node15</title>
<g id="a_node5"><a xlink:href="classMapLayers.html#a3b1b1f10dd431fa83e098a20e4c836b9" target="_top" xlink:title="Disable Drawing Layer Disable Drawing Layer ( Turned off by using bitwise AND with inversed pattern) ...">
<polygon fill="none" stroke="#000000" points="724,-125.5 724,-144.5 861,-144.5 861,-125.5 724,-125.5"/>
<text text-anchor="middle" x="792.5" y="-132.5" font-family="Helvetica,sans-Serif" font-size="10.00" fill="#000000">MapLayers::disableLayer</text>
</a>
</g>
</g>
<!-- Node14&#45;&gt;Node15 -->
<g id="edge4" class="edge">
<title>Node14&#45;&gt;Node15</title>
<path fill="none" stroke="#191970" d="M688.2215,-135C696.5704,-135 705.1356,-135 713.5953,-135"/>
<polygon fill="#191970" stroke="#191970" points="713.8402,-138.5001 723.8402,-135 713.8402,-131.5001 713.8402,-138.5001"/>
</g>
</g>
</svg>
