<?xml version="1.0" encoding="UTF-8" standalone="no"?>
<!DOCTYPE svg PUBLIC "-//W3C//DTD SVG 1.1//EN"
 "http://www.w3.org/Graphics/SVG/1.1/DTD/svg11.dtd">
<!-- Generated by graphviz version 2.40.1 (20161225.0304)
 -->
<!-- Title: Layout::calculateLayoutGroupDimensions Pages: 1 -->
<svg width="1180pt" height="61pt"
 viewBox="0.00 0.00 1180.00 61.00" xmlns="http://www.w3.org/2000/svg" xmlns:xlink="http://www.w3.org/1999/xlink">
<g id="graph0" class="graph" transform="scale(1 1) rotate(0) translate(4 57)">
<title>Layout::calculateLayoutGroupDimensions</title>
<!-- Node47 -->
<g id="node1" class="node">
<title>Node47</title>
<polygon fill="#bfbfbf" stroke="#000000" points="0,-22.5 0,-52.5 162,-52.5 162,-22.5 0,-22.5"/>
<text text-anchor="start" x="8" y="-40.5" font-family="Helvetica,sans-Serif" font-size="10.00" fill="#000000">Layout::calculateLayoutGroup</text>
<text text-anchor="middle" x="81" y="-29.5" font-family="Helvetica,sans-Serif" font-size="10.00" fill="#000000">Dimensions</text>
</g>
<!-- Node48 -->
<g id="node2" class="node">
<title>Node48</title>
<g id="a_node2"><a xlink:href="classLayout.html#afa734c5af10f59f3dadb066054fe81ab" target="_top" xlink:title="Arrange the layout elements. ">
<polygon fill="none" stroke="#000000" points="198,-28 198,-47 337,-47 337,-28 198,-28"/>
<text text-anchor="middle" x="267.5" y="-35" font-family="Helvetica,sans-Serif" font-size="10.00" fill="#000000">Layout::arrangeElements</text>
</a>
</g>
</g>
<!-- Node47&#45;&gt;Node48 -->
<g id="edge1" class="edge">
<title>Node47&#45;&gt;Node48</title>
<path fill="none" stroke="#191970" d="M172.3257,-37.5C180.9244,-37.5 189.545,-37.5 197.8948,-37.5"/>
<polygon fill="#191970" stroke="#191970" points="172.2591,-34.0001 162.2591,-37.5 172.259,-41.0001 172.2591,-34.0001"/>
</g>
<!-- Node49 -->
<g id="node3" class="node">
<title>Node49</title>
<g id="a_node3"><a xlink:href="classUIManager.html#aedd9d0577af515a852425dfe414b2968" target="_top" xlink:title="Parses the UiLayout.json files and creates UI Elements. ">
<polygon fill="none" stroke="#000000" points="771,-28 771,-47 862,-47 862,-28 771,-28"/>
<text text-anchor="middle" x="816.5" y="-35" font-family="Helvetica,sans-Serif" font-size="10.00" fill="#000000">UIManager::init</text>
</a>
</g>
</g>
<!-- Node48&#45;&gt;Node49 -->
<g id="edge2" class="edge">
<title>Node48&#45;&gt;Node49</title>
<path fill="none" stroke="#191970" d="M347.3906,-38.6454C440.4697,-39.7934 598.8879,-41.1698 735,-39.5 746.6051,-39.3576 759.1375,-39.1013 770.8126,-38.8185"/>
<polygon fill="#191970" stroke="#191970" points="347.246,-35.1434 337.2028,-38.5174 347.158,-42.1428 347.246,-35.1434"/>
</g>
<!-- Node53 -->
<g id="node7" class="node">
<title>Node53</title>
<g id="a_node7"><a xlink:href="classUIManager.html#a3ccb2fc669262f18ebdcdf3d5c43a3e8" target="_top" xlink:title="CallbackFunction that sets the Build Menu Position Used as callback function for the ComboBox that ho...">
<polygon fill="none" stroke="#000000" points="373,-9 373,-28 553,-28 553,-9 373,-9"/>
<text text-anchor="middle" x="463" y="-16" font-family="Helvetica,sans-Serif" font-size="10.00" fill="#000000">UIManager::setBuildMenuPosition</text>
</a>
</g>
</g>
<!-- Node48&#45;&gt;Node53 -->
<g id="edge6" class="edge">
<title>Node48&#45;&gt;Node53</title>
<path fill="none" stroke="#191970" d="M347.3614,-29.7385C355.7373,-28.9245 364.2946,-28.0929 372.7759,-27.2686"/>
<polygon fill="#191970" stroke="#191970" points="346.8665,-26.27 337.252,-30.721 347.5437,-33.2372 346.8665,-26.27"/>
</g>
<!-- Node50 -->
<g id="node4" class="node">
<title>Node50</title>
<g id="a_node4"><a xlink:href="classGame.html#a1c2ab25d5216b2f4b2fe41efd2c09114" target="_top" xlink:title="begins the game starts running the game ">
<polygon fill="none" stroke="#000000" points="898,-28 898,-47 966,-47 966,-28 898,-28"/>
<text text-anchor="middle" x="932" y="-35" font-family="Helvetica,sans-Serif" font-size="10.00" fill="#000000">Game::run</text>
</a>
</g>
</g>
<!-- Node49&#45;&gt;Node50 -->
<g id="edge3" class="edge">
<title>Node49&#45;&gt;Node50</title>
<path fill="none" stroke="#191970" d="M872.2726,-37.5C880.9603,-37.5 889.7077,-37.5 897.7272,-37.5"/>
<polygon fill="#191970" stroke="#191970" points="872.1487,-34.0001 862.1487,-37.5 872.1486,-41.0001 872.1487,-34.0001"/>
</g>
<!-- Node51 -->
<g id="node5" class="node">
<title>Node51</title>
<g id="a_node5"><a xlink:href="main_8cxx.html#af582d708d899e67ead623eac34a22387" target="_top" xlink:title="protected_main">
<polygon fill="none" stroke="#000000" points="1002,-28 1002,-47 1095,-47 1095,-28 1002,-28"/>
<text text-anchor="middle" x="1048.5" y="-35" font-family="Helvetica,sans-Serif" font-size="10.00" fill="#000000">protected_main</text>
</a>
</g>
</g>
<!-- Node50&#45;&gt;Node51 -->
<g id="edge4" class="edge">
<title>Node50&#45;&gt;Node51</title>
<path fill="none" stroke="#191970" d="M976.2653,-37.5C984.5757,-37.5 993.2897,-37.5 1001.6749,-37.5"/>
<polygon fill="#191970" stroke="#191970" points="976.0098,-34.0001 966.0098,-37.5 976.0098,-41.0001 976.0098,-34.0001"/>
</g>
<!-- Node52 -->
<g id="node6" class="node">
<title>Node52</title>
<g id="a_node6"><a xlink:href="main_8cxx.html#a3c04138a5bfe5d72780bb7e82a18e627" target="_top" xlink:title="main">
<polygon fill="none" stroke="#000000" points="1131,-28 1131,-47 1172,-47 1172,-28 1131,-28"/>
<text text-anchor="middle" x="1151.5" y="-35" font-family="Helvetica,sans-Serif" font-size="10.00" fill="#000000">main</text>
</a>
</g>
</g>
<!-- Node51&#45;&gt;Node52 -->
<g id="edge5" class="edge">
<title>Node51&#45;&gt;Node52</title>
<path fill="none" stroke="#191970" d="M1105.2133,-37.5C1114.4322,-37.5 1123.4259,-37.5 1130.9965,-37.5"/>
<polygon fill="#191970" stroke="#191970" points="1105.1782,-34.0001 1095.1782,-37.5 1105.1781,-41.0001 1105.1782,-34.0001"/>
</g>
<!-- Node54 -->
<g id="node8" class="node">
<title>Node54</title>
<g id="a_node8"><a xlink:href="classUIManager.html#a5c4cb8e02504ffa0d3faf45181feab9d" target="_top" xlink:title="Fill UI Widgets whose ID start with a $ with data Used for filling widgets with data, like BuildMenu Position combobox, Screen Resolution ComboBox and so on. ">
<polygon fill="none" stroke="#000000" points="589,-.5 589,-30.5 735,-30.5 735,-.5 589,-.5"/>
<text text-anchor="start" x="597" y="-18.5" font-family="Helvetica,sans-Serif" font-size="10.00" fill="#000000">UIManager::initializeDollar</text>
<text text-anchor="middle" x="662" y="-7.5" font-family="Helvetica,sans-Serif" font-size="10.00" fill="#000000">Variables</text>
</a>
</g>
</g>
<!-- Node53&#45;&gt;Node54 -->
<g id="edge7" class="edge">
<title>Node53&#45;&gt;Node54</title>
<path fill="none" stroke="#191970" d="M563.2766,-16.9883C571.8841,-16.8585 580.4838,-16.7289 588.8181,-16.6032"/>
<polygon fill="#191970" stroke="#191970" points="563.1301,-13.49 553.184,-17.1404 563.2357,-20.4892 563.1301,-13.49"/>
</g>
<!-- Node54&#45;&gt;Node49 -->
<g id="edge8" class="edge">
<title>Node54&#45;&gt;Node49</title>
<path fill="none" stroke="#191970" d="M745.1644,-27.3422C753.9925,-28.5993 762.717,-29.8416 770.873,-31.003"/>
<polygon fill="#191970" stroke="#191970" points="745.5715,-23.8649 735.1779,-25.9202 744.5846,-30.795 745.5715,-23.8649"/>
</g>
</g>
</svg>
