<?xml version="1.0" encoding="UTF-8" standalone="no"?>
<!DOCTYPE svg PUBLIC "-//W3C//DTD SVG 1.1//EN"
 "http://www.w3.org/Graphics/SVG/1.1/DTD/svg11.dtd">
<!-- Generated by graphviz version 2.40.1 (20161225.0304)
 -->
<!-- Title: UIElement::drawFrame Pages: 1 -->
<svg width="974pt" height="104pt"
 viewBox="0.00 0.00 974.00 104.00" xmlns="http://www.w3.org/2000/svg" xmlns:xlink="http://www.w3.org/1999/xlink">
<g id="graph0" class="graph" transform="scale(1 1) rotate(0) translate(4 100)">
<title>UIElement::drawFrame</title>
<!-- Node69 -->
<g id="node1" class="node">
<title>Node69</title>
<polygon fill="#bfbfbf" stroke="#000000" points="0,-38.5 0,-57.5 128,-57.5 128,-38.5 0,-38.5"/>
<text text-anchor="middle" x="64" y="-45.5" font-family="Helvetica,sans-Serif" font-size="10.00" fill="#000000">UIElement::drawFrame</text>
</g>
<!-- Node70 -->
<g id="node2" class="node">
<title>Node70</title>
<g id="a_node2"><a xlink:href="classButton.html#a6b08fa54560842dec2eabed9a93c3103" target="_top" xlink:title="Button::drawImageButtonFrame">
<polygon fill="none" stroke="#000000" points="164,-76.5 164,-95.5 336,-95.5 336,-76.5 164,-76.5"/>
<text text-anchor="middle" x="250" y="-83.5" font-family="Helvetica,sans-Serif" font-size="10.00" fill="#000000">Button::drawImageButtonFrame</text>
</a>
</g>
</g>
<!-- Node69&#45;&gt;Node70 -->
<g id="edge1" class="edge">
<title>Node69&#45;&gt;Node70</title>
<path fill="none" stroke="#191970" d="M120.8255,-59.6095C147.279,-65.014 178.3583,-71.3635 203.4019,-76.4799"/>
<polygon fill="#191970" stroke="#191970" points="121.4339,-56.1616 110.9357,-57.589 120.0327,-63.0199 121.4339,-56.1616"/>
</g>
<!-- Node76 -->
<g id="node8" class="node">
<title>Node76</title>
<g id="a_node8"><a xlink:href="classFrame.html#af8abf245526132e86ee984601a71267a" target="_top" xlink:title="Draw the UI Element and/or render it&#39;s textures to the screen Renders the texture of the Ui Element...">
<polygon fill="none" stroke="#000000" points="211.5,-38.5 211.5,-57.5 288.5,-57.5 288.5,-38.5 211.5,-38.5"/>
<text text-anchor="middle" x="250" y="-45.5" font-family="Helvetica,sans-Serif" font-size="10.00" fill="#000000">Frame::draw</text>
</a>
</g>
</g>
<!-- Node69&#45;&gt;Node76 -->
<g id="edge7" class="edge">
<title>Node69&#45;&gt;Node76</title>
<path fill="none" stroke="#191970" d="M138.237,-48C163.2879,-48 190.234,-48 211.3901,-48"/>
<polygon fill="#191970" stroke="#191970" points="138.0107,-44.5001 128.0106,-48 138.0106,-51.5001 138.0107,-44.5001"/>
</g>
<!-- Node77 -->
<g id="node9" class="node">
<title>Node77</title>
<g id="a_node9"><a xlink:href="classSlider.html#a4a3727f40be79a7cc6543086435b8194" target="_top" xlink:title="Draw the UI Element and/or render it&#39;s textures to the screen Renders the texture of the Ui Element...">
<polygon fill="none" stroke="#000000" points="213,-.5 213,-19.5 287,-19.5 287,-.5 213,-.5"/>
<text text-anchor="middle" x="250" y="-7.5" font-family="Helvetica,sans-Serif" font-size="10.00" fill="#000000">Slider::draw</text>
</a>
</g>
</g>
<!-- Node69&#45;&gt;Node77 -->
<g id="edge8" class="edge">
<title>Node69&#45;&gt;Node77</title>
<path fill="none" stroke="#191970" d="M120.8135,-36.3929C150.6724,-30.2927 186.4275,-22.9879 212.7444,-17.6114"/>
<polygon fill="#191970" stroke="#191970" points="120.0327,-32.9801 110.9357,-38.411 121.4339,-39.8384 120.0327,-32.9801"/>
</g>
<!-- Node71 -->
<g id="node3" class="node">
<title>Node71</title>
<g id="a_node3"><a xlink:href="classUIManager.html#aae7a89e9d50bb6192e4140e07bd5f94b" target="_top" xlink:title="UIManager::createBuildMenu">
<polygon fill="none" stroke="#000000" points="372,-76.5 372,-95.5 529,-95.5 529,-76.5 372,-76.5"/>
<text text-anchor="middle" x="450.5" y="-83.5" font-family="Helvetica,sans-Serif" font-size="10.00" fill="#000000">UIManager::createBuildMenu</text>
</a>
</g>
</g>
<!-- Node70&#45;&gt;Node71 -->
<g id="edge2" class="edge">
<title>Node70&#45;&gt;Node71</title>
<path fill="none" stroke="#191970" d="M346.2722,-86C354.886,-86 363.539,-86 371.9763,-86"/>
<polygon fill="#191970" stroke="#191970" points="346.1937,-82.5001 336.1936,-86 346.1936,-89.5001 346.1937,-82.5001"/>
</g>
<!-- Node72 -->
<g id="node4" class="node">
<title>Node72</title>
<g id="a_node4"><a xlink:href="classUIManager.html#aedd9d0577af515a852425dfe414b2968" target="_top" xlink:title="Parses the UiLayout.json files and creates UI Elements. ">
<polygon fill="none" stroke="#000000" points="565,-76.5 565,-95.5 656,-95.5 656,-76.5 565,-76.5"/>
<text text-anchor="middle" x="610.5" y="-83.5" font-family="Helvetica,sans-Serif" font-size="10.00" fill="#000000">UIManager::init</text>
</a>
</g>
</g>
<!-- Node71&#45;&gt;Node72 -->
<g id="edge3" class="edge">
<title>Node71&#45;&gt;Node72</title>
<path fill="none" stroke="#191970" d="M539.348,-86C548.049,-86 556.6087,-86 564.6086,-86"/>
<polygon fill="#191970" stroke="#191970" points="539.0938,-82.5001 529.0938,-86 539.0938,-89.5001 539.0938,-82.5001"/>
</g>
<!-- Node73 -->
<g id="node5" class="node">
<title>Node73</title>
<g id="a_node5"><a xlink:href="classGame.html#a1c2ab25d5216b2f4b2fe41efd2c09114" target="_top" xlink:title="begins the game starts running the game ">
<polygon fill="none" stroke="#000000" points="692,-76.5 692,-95.5 760,-95.5 760,-76.5 692,-76.5"/>
<text text-anchor="middle" x="726" y="-83.5" font-family="Helvetica,sans-Serif" font-size="10.00" fill="#000000">Game::run</text>
</a>
</g>
</g>
<!-- Node72&#45;&gt;Node73 -->
<g id="edge4" class="edge">
<title>Node72&#45;&gt;Node73</title>
<path fill="none" stroke="#191970" d="M666.2726,-86C674.9603,-86 683.7077,-86 691.7272,-86"/>
<polygon fill="#191970" stroke="#191970" points="666.1487,-82.5001 656.1487,-86 666.1486,-89.5001 666.1487,-82.5001"/>
</g>
<!-- Node74 -->
<g id="node6" class="node">
<title>Node74</title>
<g id="a_node6"><a xlink:href="main_8cxx.html#af582d708d899e67ead623eac34a22387" target="_top" xlink:title="protected_main">
<polygon fill="none" stroke="#000000" points="796,-76.5 796,-95.5 889,-95.5 889,-76.5 796,-76.5"/>
<text text-anchor="middle" x="842.5" y="-83.5" font-family="Helvetica,sans-Serif" font-size="10.00" fill="#000000">protected_main</text>
</a>
</g>
</g>
<!-- Node73&#45;&gt;Node74 -->
<g id="edge5" class="edge">
<title>Node73&#45;&gt;Node74</title>
<path fill="none" stroke="#191970" d="M770.2653,-86C778.5757,-86 787.2897,-86 795.6749,-86"/>
<polygon fill="#191970" stroke="#191970" points="770.0098,-82.5001 760.0098,-86 770.0098,-89.5001 770.0098,-82.5001"/>
</g>
<!-- Node75 -->
<g id="node7" class="node">
<title>Node75</title>
<g id="a_node7"><a xlink:href="main_8cxx.html#a3c04138a5bfe5d72780bb7e82a18e627" target="_top" xlink:title="main">
<polygon fill="none" stroke="#000000" points="925,-76.5 925,-95.5 966,-95.5 966,-76.5 925,-76.5"/>
<text text-anchor="middle" x="945.5" y="-83.5" font-family="Helvetica,sans-Serif" font-size="10.00" fill="#000000">main</text>
</a>
</g>
</g>
<!-- Node74&#45;&gt;Node75 -->
<g id="edge6" class="edge">
<title>Node74&#45;&gt;Node75</title>
<path fill="none" stroke="#191970" d="M899.2133,-86C908.4322,-86 917.4259,-86 924.9965,-86"/>
<polygon fill="#191970" stroke="#191970" points="899.1782,-82.5001 889.1782,-86 899.1781,-89.5001 899.1782,-82.5001"/>
</g>
</g>
</svg>
