<?xml version="1.0" encoding="UTF-8" standalone="no"?>
<!DOCTYPE svg PUBLIC "-//W3C//DTD SVG 1.1//EN"
 "http://www.w3.org/Graphics/SVG/1.1/DTD/svg11.dtd">
<!-- Generated by graphviz version 2.40.1 (20161225.0304)
 -->
<!-- Title: Layout::arrangeElements Pages: 1 -->
<svg width="799pt" height="306pt"
 viewBox="0.00 0.00 799.00 306.00" xmlns="http://www.w3.org/2000/svg" xmlns:xlink="http://www.w3.org/1999/xlink">
<g id="graph0" class="graph" transform="scale(1 1) rotate(0) translate(4 302)">
<title>Layout::arrangeElements</title>
<!-- Node24 -->
<g id="node1" class="node">
<title>Node24</title>
<polygon fill="#bfbfbf" stroke="#000000" points="0,-156.5 0,-175.5 139,-175.5 139,-156.5 0,-156.5"/>
<text text-anchor="middle" x="69.5" y="-163.5" font-family="Helvetica,sans-Serif" font-size="10.00" fill="#000000">Layout::arrangeElements</text>
</g>
<!-- Node25 -->
<g id="node2" class="node">
<title>Node25</title>
<g id="a_node2"><a xlink:href="classWindow.html#a4959f94d75af5e975fb117f5ea0ef077" target="_top" xlink:title="Window::getBounds">
<polygon fill="none" stroke="#000000" points="404,-278.5 404,-297.5 517,-297.5 517,-278.5 404,-278.5"/>
<text text-anchor="middle" x="460.5" y="-285.5" font-family="Helvetica,sans-Serif" font-size="10.00" fill="#000000">Window::getBounds</text>
</a>
</g>
</g>
<!-- Node24&#45;&gt;Node25 -->
<g id="edge1" class="edge">
<title>Node24&#45;&gt;Node25</title>
<path fill="none" stroke="#191970" d="M80.6398,-175.6598C98.9824,-191.0146 137.2812,-220.8038 175,-236 246.5648,-264.832 334.6748,-277.7773 393.9257,-283.5254"/>
<polygon fill="#191970" stroke="#191970" points="393.6296,-287.0128 403.9104,-284.4524 394.2768,-280.0428 393.6296,-287.0128"/>
</g>
<!-- Node26 -->
<g id="node3" class="node">
<title>Node26</title>
<g id="a_node3"><a xlink:href="classRectangle.html#a6d7591d194230afb71ac2efcb8fd782f" target="_top" xlink:title="Rectangle::width">
<polygon fill="none" stroke="#000000" points="411.5,-240.5 411.5,-259.5 509.5,-259.5 509.5,-240.5 411.5,-240.5"/>
<text text-anchor="middle" x="460.5" y="-247.5" font-family="Helvetica,sans-Serif" font-size="10.00" fill="#000000">Rectangle::width</text>
</a>
</g>
</g>
<!-- Node24&#45;&gt;Node26 -->
<g id="edge2" class="edge">
<title>Node24&#45;&gt;Node26</title>
<path fill="none" stroke="#191970" d="M90.0628,-175.5617C111.0015,-184.9205 144.6166,-198.9149 175,-207 251.7688,-227.4284 342.9062,-239.0433 401.1992,-244.9279"/>
<polygon fill="#191970" stroke="#191970" points="401.0387,-248.429 411.3338,-245.9266 401.7252,-241.4627 401.0387,-248.429"/>
</g>
<!-- Node28 -->
<g id="node5" class="node">
<title>Node28</title>
<g id="a_node5"><a xlink:href="classRectangle.html#a21cbebe8e941c0c92d7eba0f7badcb6a" target="_top" xlink:title="Rectangle::height">
<polygon fill="none" stroke="#000000" points="410,-202.5 410,-221.5 511,-221.5 511,-202.5 410,-202.5"/>
<text text-anchor="middle" x="460.5" y="-209.5" font-family="Helvetica,sans-Serif" font-size="10.00" fill="#000000">Rectangle::height</text>
</a>
</g>
</g>
<!-- Node24&#45;&gt;Node28 -->
<g id="edge4" class="edge">
<title>Node24&#45;&gt;Node28</title>
<path fill="none" stroke="#191970" d="M117.4201,-175.5069C135.4228,-178.8471 156.1009,-182.4092 175,-185 252.243,-195.589 341.8163,-203.3263 399.7313,-207.7385"/>
<polygon fill="#191970" stroke="#191970" points="399.5768,-211.2366 409.8113,-208.4971 400.1022,-204.2564 399.5768,-211.2366"/>
</g>
<!-- Node29 -->
<g id="node6" class="node">
<title>Node29</title>
<g id="a_node6"><a xlink:href="classLayout.html#a79480df6d9dd2d32b23468c05c6ac944" target="_top" xlink:title="Calculates height and width of layout groups. ">
<polygon fill="none" stroke="#000000" points="176,-99 176,-129 338,-129 338,-99 176,-99"/>
<text text-anchor="start" x="184" y="-117" font-family="Helvetica,sans-Serif" font-size="10.00" fill="#000000">Layout::calculateLayoutGroup</text>
<text text-anchor="middle" x="257" y="-106" font-family="Helvetica,sans-Serif" font-size="10.00" fill="#000000">Dimensions</text>
</a>
</g>
</g>
<!-- Node24&#45;&gt;Node29 -->
<g id="edge6" class="edge">
<title>Node24&#45;&gt;Node29</title>
<path fill="none" stroke="#191970" d="M103.8904,-156.4624C128.6814,-149.587 162.88,-140.1026 192.669,-131.8411"/>
<polygon fill="#191970" stroke="#191970" points="193.8814,-135.1371 202.5823,-129.0918 192.0106,-128.3917 193.8814,-135.1371"/>
</g>
<!-- Node30 -->
<g id="node7" class="node">
<title>Node30</title>
<g id="a_node7"><a xlink:href="classSingleton.html#af5cb1e5749949e2b68416cfb8d378044" target="_top" xlink:title="Get an instance of the singleton. ">
<polygon fill="none" stroke="#000000" points="397.5,-39 397.5,-69 523.5,-69 523.5,-39 397.5,-39"/>
<text text-anchor="start" x="405.5" y="-57" font-family="Helvetica,sans-Serif" font-size="10.00" fill="#000000">Singleton&lt; UIManager</text>
<text text-anchor="middle" x="460.5" y="-46" font-family="Helvetica,sans-Serif" font-size="10.00" fill="#000000"> &gt;::instance</text>
</a>
</g>
</g>
<!-- Node24&#45;&gt;Node30 -->
<g id="edge8" class="edge">
<title>Node24&#45;&gt;Node30</title>
<path fill="none" stroke="#191970" d="M79.2383,-156.3176C96.7149,-139.601 135.2984,-105.6209 175,-90 243.6672,-62.9824 328.1385,-55.1574 387.3177,-53.3718"/>
<polygon fill="#191970" stroke="#191970" points="387.4177,-56.8705 397.3265,-53.12 387.2416,-49.8727 387.4177,-56.8705"/>
</g>
<!-- Node31 -->
<g id="node8" class="node">
<title>Node31</title>
<g id="a_node8"><a xlink:href="classUIManager.html#a0d32c5b63c4110ff8e43ab06c1c7d761" target="_top" xlink:title="Get the Layoutgroup container Returns the container, that holds LayoutGroups. ">
<polygon fill="none" stroke="#000000" points="375,-.5 375,-19.5 546,-19.5 546,-.5 375,-.5"/>
<text text-anchor="middle" x="460.5" y="-7.5" font-family="Helvetica,sans-Serif" font-size="10.00" fill="#000000">UIManager::getAllLayoutGroups</text>
</a>
</g>
</g>
<!-- Node24&#45;&gt;Node31 -->
<g id="edge9" class="edge">
<title>Node24&#45;&gt;Node31</title>
<path fill="none" stroke="#191970" d="M75.1986,-156.4088C89.075,-134.011 127.0271,-78.2564 175,-53 233.1596,-22.3806 306.6437,-11.847 364.4945,-8.8561"/>
<polygon fill="#191970" stroke="#191970" points="364.906,-12.3412 374.739,-8.3962 364.5921,-5.3483 364.906,-12.3412"/>
</g>
<!-- Node32 -->
<g id="node9" class="node">
<title>Node32</title>
<g id="a_node9"><a xlink:href="classLayout.html#a99004e4afcea6a945e3890b19cce6236" target="_top" xlink:title="Arrange Elements that are aligned to a parent This is a seperate function, so it can recurse if a par...">
<polygon fill="none" stroke="#000000" points="175,-156.5 175,-175.5 339,-175.5 339,-156.5 175,-156.5"/>
<text text-anchor="middle" x="257" y="-163.5" font-family="Helvetica,sans-Serif" font-size="10.00" fill="#000000">Layout::arrangeChildElements</text>
</a>
</g>
</g>
<!-- Node24&#45;&gt;Node32 -->
<g id="edge10" class="edge">
<title>Node24&#45;&gt;Node32</title>
<path fill="none" stroke="#191970" d="M139.0516,-166C147.4413,-166 156.1086,-166 164.7587,-166"/>
<polygon fill="#191970" stroke="#191970" points="164.8877,-169.5001 174.8876,-166 164.8876,-162.5001 164.8877,-169.5001"/>
</g>
<!-- Node27 -->
<g id="node4" class="node">
<title>Node27</title>
<g id="a_node4"><a xlink:href="classRectangle.html#ace89ac3a7085543f3f60449fb5cdc8af" target="_top" xlink:title="Rectangle::isEmpty">
<polygon fill="none" stroke="#000000" points="631.5,-221.5 631.5,-240.5 741.5,-240.5 741.5,-221.5 631.5,-221.5"/>
<text text-anchor="middle" x="686.5" y="-228.5" font-family="Helvetica,sans-Serif" font-size="10.00" fill="#000000">Rectangle::isEmpty</text>
</a>
</g>
</g>
<!-- Node26&#45;&gt;Node27 -->
<g id="edge3" class="edge">
<title>Node26&#45;&gt;Node27</title>
<path fill="none" stroke="#191970" d="M509.5386,-245.8773C542.1501,-243.1356 585.3591,-239.503 620.9165,-236.5137"/>
<polygon fill="#191970" stroke="#191970" points="621.5335,-239.9742 631.2051,-235.6487 620.9471,-232.9988 621.5335,-239.9742"/>
</g>
<!-- Node28&#45;&gt;Node27 -->
<g id="edge5" class="edge">
<title>Node28&#45;&gt;Node27</title>
<path fill="none" stroke="#191970" d="M511.2188,-216.264C543.6738,-218.9925 586.0969,-222.559 621.078,-225.4999"/>
<polygon fill="#191970" stroke="#191970" points="620.9448,-229.001 631.2029,-226.3511 621.5313,-222.0256 620.9448,-229.001"/>
</g>
<!-- Node29&#45;&gt;Node30 -->
<g id="edge7" class="edge">
<title>Node29&#45;&gt;Node30</title>
<path fill="none" stroke="#191970" d="M307.5185,-98.9689C328.4018,-92.7675 352.8623,-85.5196 375,-79 382.8048,-76.7015 391.0126,-74.2919 399.1281,-71.9139"/>
<polygon fill="#191970" stroke="#191970" points="400.3347,-75.2076 408.9483,-69.0386 398.3677,-68.4897 400.3347,-75.2076"/>
</g>
<!-- Node32&#45;&gt;Node25 -->
<g id="edge11" class="edge">
<title>Node32&#45;&gt;Node25</title>
<path fill="none" stroke="#191970" d="M265.0274,-175.7242C282.6398,-196.3761 326.9515,-244.7048 375,-269 381.0173,-272.0426 387.5154,-274.6012 394.1472,-276.7522"/>
<polygon fill="#191970" stroke="#191970" points="393.3377,-280.1622 403.9187,-279.621 395.3096,-273.4457 393.3377,-280.1622"/>
</g>
<!-- Node32&#45;&gt;Node26 -->
<g id="edge12" class="edge">
<title>Node32&#45;&gt;Node26</title>
<path fill="none" stroke="#191970" d="M271.2521,-175.617C292.8074,-189.7438 335.3965,-216.0442 375,-231 383.4618,-234.1955 392.6075,-236.9318 401.6625,-239.2498"/>
<polygon fill="#191970" stroke="#191970" points="400.8737,-242.6599 411.4157,-241.6029 402.5155,-235.8551 400.8737,-242.6599"/>
</g>
<!-- Node32&#45;&gt;Node28 -->
<g id="edge13" class="edge">
<title>Node32&#45;&gt;Node28</title>
<path fill="none" stroke="#191970" d="M298.4888,-175.5601C321.0997,-180.7533 349.5791,-187.2672 375,-193 385.454,-195.3575 396.6321,-197.857 407.3432,-200.2416"/>
<polygon fill="#191970" stroke="#191970" points="406.9095,-203.7306 417.4307,-202.4843 408.4287,-196.8974 406.9095,-203.7306"/>
</g>
<!-- Node32&#45;&gt;Node30 -->
<g id="edge14" class="edge">
<title>Node32&#45;&gt;Node30</title>
<path fill="none" stroke="#191970" d="M304.9888,-156.4574C316.9555,-152.4687 329.1649,-146.8598 339,-139 363.2937,-119.5853 350.3834,-98.0036 375,-79 379.0283,-75.8902 383.4337,-73.1668 388.0527,-70.7818"/>
<polygon fill="#191970" stroke="#191970" points="389.5297,-73.955 397.1556,-66.6 386.6075,-67.5942 389.5297,-73.955"/>
</g>
<!-- Node32&#45;&gt;Node31 -->
<g id="edge17" class="edge">
<title>Node32&#45;&gt;Node31</title>
<path fill="none" stroke="#191970" d="M310.5251,-156.3663C321.0072,-152.4173 331.1645,-146.8497 339,-139 375.3411,-102.5933 336.8947,-63.5559 375,-29 376.6931,-27.4646 378.4822,-26.044 380.3501,-24.73"/>
<polygon fill="#191970" stroke="#191970" points="382.1612,-27.7252 388.9918,-19.6263 378.6015,-21.6979 382.1612,-27.7252"/>
</g>
<!-- Node33 -->
<g id="node10" class="node">
<title>Node33</title>
<g id="a_node10"><a xlink:href="classUIManager.html#aa5b6dbe1a9d5c50b588c55e9c9673f58" target="_top" xlink:title="Get the Ui Element By ID Finds and returns an UiElement by its elementID parameter. ">
<polygon fill="none" stroke="#000000" points="378,-164.5 378,-183.5 543,-183.5 543,-164.5 378,-164.5"/>
<text text-anchor="middle" x="460.5" y="-171.5" font-family="Helvetica,sans-Serif" font-size="10.00" fill="#000000">UIManager::getUiElementByID</text>
</a>
</g>
</g>
<!-- Node32&#45;&gt;Node33 -->
<g id="edge15" class="edge">
<title>Node32&#45;&gt;Node33</title>
<path fill="none" stroke="#191970" d="M339.1847,-169.2308C348.5007,-169.5971 358.0441,-169.9723 367.4865,-170.3434"/>
<polygon fill="#191970" stroke="#191970" points="367.5474,-173.8485 377.6772,-170.7441 367.8224,-166.8539 367.5474,-173.8485"/>
</g>
<!-- Node34 -->
<g id="node11" class="node">
<title>Node34</title>
<g id="a_node11"><a xlink:href="classUIElement.html#a6451228b4c9bc058d69e4d4f2b03c719" target="_top" xlink:title="UIElement::getUiElementData">
<polygon fill="none" stroke="#000000" points="378.5,-126.5 378.5,-145.5 542.5,-145.5 542.5,-126.5 378.5,-126.5"/>
<text text-anchor="middle" x="460.5" y="-133.5" font-family="Helvetica,sans-Serif" font-size="10.00" fill="#000000">UIElement::getUiElementData</text>
</a>
</g>
</g>
<!-- Node32&#45;&gt;Node34 -->
<g id="edge16" class="edge">
<title>Node32&#45;&gt;Node34</title>
<path fill="none" stroke="#191970" d="M321.6683,-156.4666C342.0716,-153.4587 364.7794,-150.1111 385.8214,-147.0091"/>
<polygon fill="#191970" stroke="#191970" points="386.6174,-150.4297 396,-145.5086 385.5964,-143.5046 386.6174,-150.4297"/>
</g>
<!-- Node35 -->
<g id="node12" class="node">
<title>Node35</title>
<g id="a_node12"><a xlink:href="classUIElement.html#ad1c0d7431b71bdd9a3704a6d5c8a4643" target="_top" xlink:title="Get the position and the size of this ui element Gets the position and the size of this ui element...">
<polygon fill="none" stroke="#000000" points="380,-88.5 380,-107.5 541,-107.5 541,-88.5 380,-88.5"/>
<text text-anchor="middle" x="460.5" y="-95.5" font-family="Helvetica,sans-Serif" font-size="10.00" fill="#000000">UIElement::getUiElementRect</text>
</a>
</g>
</g>
<!-- Node32&#45;&gt;Node35 -->
<g id="edge18" class="edge">
<title>Node32&#45;&gt;Node35</title>
<path fill="none" stroke="#191970" d="M291.991,-156.4259C306.793,-151.8811 324.037,-145.9225 339,-139 356.0181,-131.1267 357.6117,-124.018 375,-117 381.3475,-114.4381 388.1064,-112.1897 394.9357,-110.2238"/>
<polygon fill="#191970" stroke="#191970" points="396.1977,-113.5093 404.9522,-107.5419 394.3872,-106.7474 396.1977,-113.5093"/>
</g>
<!-- Node36 -->
<g id="node13" class="node">
<title>Node36</title>
<g id="a_node13"><a xlink:href="classUIElement.html#aa7f624963eaeb31043d74219ee24386c" target="_top" xlink:title="Checks if the mouse cursor is over the current UI Element Check if the coordinates match the ones sto...">
<polygon fill="none" stroke="#000000" points="618,-69.5 618,-88.5 755,-88.5 755,-69.5 618,-69.5"/>
<text text-anchor="middle" x="686.5" y="-76.5" font-family="Helvetica,sans-Serif" font-size="10.00" fill="#000000">UIElement::isMouseOver</text>
</a>
</g>
</g>
<!-- Node35&#45;&gt;Node36 -->
<g id="edge19" class="edge">
<title>Node35&#45;&gt;Node36</title>
<path fill="none" stroke="#191970" d="M541.134,-91.221C562.802,-89.3994 586.204,-87.432 607.7673,-85.6191"/>
<polygon fill="#191970" stroke="#191970" points="608.1881,-89.0962 617.8597,-84.7706 607.6016,-82.1208 608.1881,-89.0962"/>
</g>
<!-- Node37 -->
<g id="node14" class="node">
<title>Node37</title>
<g id="a_node14"><a xlink:href="classUIElement.html#a570841bf8b7970ca935b1a00e571036a" target="_top" xlink:title="Handling for the hovering event Check, if the mouse cursor is hovering over the element. virtual function to provide custom handling if necessary (e.g. Combobox) Per default, it&#39;s the same implementation as isMouseOver. ">
<polygon fill="none" stroke="#000000" points="582,-107.5 582,-126.5 791,-126.5 791,-107.5 582,-107.5"/>
<text text-anchor="middle" x="686.5" y="-114.5" font-family="Helvetica,sans-Serif" font-size="10.00" fill="#000000">UIElement::isMouseOverHoverableArea</text>
</a>
</g>
</g>
<!-- Node35&#45;&gt;Node37 -->
<g id="edge20" class="edge">
<title>Node35&#45;&gt;Node37</title>
<path fill="none" stroke="#191970" d="M541.134,-104.779C551.0217,-105.6102 561.2705,-106.4719 571.5409,-107.3353"/>
<polygon fill="#191970" stroke="#191970" points="571.5478,-110.8481 581.8059,-108.1983 572.1343,-103.8727 571.5478,-110.8481"/>
</g>
</g>
</svg>
