<?xml version="1.0" encoding="UTF-8" standalone="no"?>
<!DOCTYPE svg PUBLIC "-//W3C//DTD SVG 1.1//EN"
 "http://www.w3.org/Graphics/SVG/1.1/DTD/svg11.dtd">
<!-- Generated by graphviz version 2.40.1 (20161225.0304)
 -->
<!-- Title: UIElement::setVisibility Pages: 1 -->
<svg width="804pt" height="203pt"
 viewBox="0.00 0.00 804.00 203.31" xmlns="http://www.w3.org/2000/svg" xmlns:xlink="http://www.w3.org/1999/xlink">
<g id="graph0" class="graph" transform="scale(1 1) rotate(0) translate(4 199.3079)">
<title>UIElement::setVisibility</title>
<!-- Node313 -->
<g id="node1" class="node">
<title>Node313</title>
<polygon fill="#bfbfbf" stroke="#000000" points="0,-97.9722 0,-116.9722 131,-116.9722 131,-97.9722 0,-97.9722"/>
<text text-anchor="middle" x="65.5" y="-104.9722" font-family="Helvetica,sans-Serif" font-size="10.00" fill="#000000">UIElement::setVisibility</text>
</g>
<!-- Node314 -->
<g id="node2" class="node">
<title>Node314</title>
<g id="a_node2"><a xlink:href="classTooltip.html#a46a4bafd52456186b1fc7f48a554f8ef" target="_top" xlink:title="Tooltip::Tooltip">
<polygon fill="none" stroke="#000000" points="362,-154.9722 362,-173.9722 449,-173.9722 449,-154.9722 362,-154.9722"/>
<text text-anchor="middle" x="405.5" y="-161.9722" font-family="Helvetica,sans-Serif" font-size="10.00" fill="#000000">Tooltip::Tooltip</text>
</a>
</g>
</g>
<!-- Node313&#45;&gt;Node314 -->
<g id="edge1" class="edge">
<title>Node313&#45;&gt;Node314</title>
<path fill="none" stroke="#191970" d="M81.0843,-124.3903C99.5043,-143.0133 132.0927,-171.8518 167,-183.4722 239.3193,-207.547 330.5029,-187.3462 376.3495,-173.9734"/>
<polygon fill="#191970" stroke="#191970" points="83.5448,-121.8994 74.092,-117.1144 78.4976,-126.7498 83.5448,-121.8994"/>
</g>
<!-- Node315 -->
<g id="node3" class="node">
<title>Node315</title>
<g id="a_node3"><a xlink:href="classTooltip.html#ac48e36748acaf4cdd9838288f7732cc2" target="_top" xlink:title="starts the countdown to when the Tooltip appears starts the timer for the countdown to when the Toolt...">
<polygon fill="none" stroke="#000000" points="192.5,-154.9722 192.5,-173.9722 298.5,-173.9722 298.5,-154.9722 192.5,-154.9722"/>
<text text-anchor="middle" x="245.5" y="-161.9722" font-family="Helvetica,sans-Serif" font-size="10.00" fill="#000000">Tooltip::startTimer</text>
</a>
</g>
</g>
<!-- Node313&#45;&gt;Node315 -->
<g id="edge2" class="edge">
<title>Node313&#45;&gt;Node315</title>
<path fill="none" stroke="#191970" d="M98.0524,-120.8045C117.795,-128.6021 143.6106,-138.2921 167,-145.4722 178.2599,-148.9288 190.5822,-152.1627 202.0575,-154.9478"/>
<polygon fill="#191970" stroke="#191970" points="99.1919,-117.4908 88.6068,-117.0355 96.5976,-123.9924 99.1919,-117.4908"/>
</g>
<!-- Node316 -->
<g id="node4" class="node">
<title>Node316</title>
<g id="a_node4"><a xlink:href="classTooltip.html#ab7c16dc309b2b97523e842c57b0534eb" target="_top" xlink:title="makes the Tooltip visible makes the Tooltip visible ">
<polygon fill="none" stroke="#000000" points="189,-116.9722 189,-135.9722 302,-135.9722 302,-116.9722 189,-116.9722"/>
<text text-anchor="middle" x="245.5" y="-123.9722" font-family="Helvetica,sans-Serif" font-size="10.00" fill="#000000">Tooltip::showTooltip</text>
</a>
</g>
</g>
<!-- Node313&#45;&gt;Node316 -->
<g id="edge3" class="edge">
<title>Node313&#45;&gt;Node316</title>
<path fill="none" stroke="#191970" d="M141.5537,-115.5001C157.398,-117.1726 173.8332,-118.9074 188.8306,-120.4905"/>
<polygon fill="#191970" stroke="#191970" points="141.5604,-111.9815 131.2482,-114.4123 140.8255,-118.9428 141.5604,-111.9815"/>
</g>
<!-- Node317 -->
<g id="node5" class="node">
<title>Node317</title>
<g id="a_node5"><a xlink:href="classTooltip.html#ad451a89f3aaaa61d6cef9ea4ba590c68" target="_top" xlink:title="resets the Tooltip Hides and deactivates the Tooltip and stops the timer ">
<polygon fill="none" stroke="#000000" points="205.5,-78.9722 205.5,-97.9722 285.5,-97.9722 285.5,-78.9722 205.5,-78.9722"/>
<text text-anchor="middle" x="245.5" y="-85.9722" font-family="Helvetica,sans-Serif" font-size="10.00" fill="#000000">Tooltip::reset</text>
</a>
</g>
</g>
<!-- Node313&#45;&gt;Node317 -->
<g id="edge5" class="edge">
<title>Node313&#45;&gt;Node317</title>
<path fill="none" stroke="#191970" d="M141.2528,-99.4761C163.2485,-97.1543 186.409,-94.7096 205.2984,-92.7157"/>
<polygon fill="#191970" stroke="#191970" points="140.8255,-96.0017 131.2482,-100.5321 141.5604,-102.963 140.8255,-96.0017"/>
</g>
<!-- Node318 -->
<g id="node6" class="node">
<title>Node318</title>
<g id="a_node6"><a xlink:href="classUIManager.html#aae7a89e9d50bb6192e4140e07bd5f94b" target="_top" xlink:title="UIManager::createBuildMenu">
<polygon fill="none" stroke="#000000" points="167,-40.9722 167,-59.9722 324,-59.9722 324,-40.9722 167,-40.9722"/>
<text text-anchor="middle" x="245.5" y="-47.9722" font-family="Helvetica,sans-Serif" font-size="10.00" fill="#000000">UIManager::createBuildMenu</text>
</a>
</g>
</g>
<!-- Node313&#45;&gt;Node318 -->
<g id="edge6" class="edge">
<title>Node313&#45;&gt;Node318</title>
<path fill="none" stroke="#191970" d="M98.0524,-94.14C117.795,-86.3423 143.6106,-76.6524 167,-69.4722 178.2599,-66.0157 190.5822,-62.7818 202.0575,-59.9967"/>
<polygon fill="#191970" stroke="#191970" points="96.5976,-90.9521 88.6068,-97.909 99.1919,-97.4536 96.5976,-90.9521"/>
</g>
<!-- Node323 -->
<g id="node11" class="node">
<title>Node323</title>
<g id="a_node11"><a xlink:href="classGame.html#a560299f0291c281f7b44e7ef0dd7b264" target="_top" xlink:title="initializes and displays the main menu initializes and displays the main menu ">
<polygon fill="none" stroke="#000000" points="487,-2.9722 487,-21.9722 590,-21.9722 590,-2.9722 487,-2.9722"/>
<text text-anchor="middle" x="538.5" y="-9.9722" font-family="Helvetica,sans-Serif" font-size="10.00" fill="#000000">Game::mainMenu</text>
</a>
</g>
</g>
<!-- Node313&#45;&gt;Node323 -->
<g id="edge11" class="edge">
<title>Node313&#45;&gt;Node323</title>
<path fill="none" stroke="#191970" d="M81.4879,-90.5865C100.0607,-72.249 132.5821,-43.9152 167,-31.4722 275.4096,7.7207 413.2543,1.4953 486.7794,-5.866"/>
<polygon fill="#191970" stroke="#191970" points="78.9458,-88.1797 74.4172,-97.758 83.9304,-93.0943 78.9458,-88.1797"/>
</g>
<!-- Node316&#45;&gt;Node314 -->
<g id="edge4" class="edge">
<title>Node316&#45;&gt;Node314</title>
<path fill="none" stroke="#191970" d="M295.8915,-138.4402C318.313,-143.7653 344.3472,-149.9485 365.4156,-154.9522"/>
<polygon fill="#191970" stroke="#191970" points="296.4129,-134.9668 285.8748,-136.0612 294.7953,-141.7773 296.4129,-134.9668"/>
</g>
<!-- Node319 -->
<g id="node7" class="node">
<title>Node319</title>
<g id="a_node7"><a xlink:href="classUIManager.html#aedd9d0577af515a852425dfe414b2968" target="_top" xlink:title="Parses the UiLayout.json files and creates UI Elements. ">
<polygon fill="none" stroke="#000000" points="360,-40.9722 360,-59.9722 451,-59.9722 451,-40.9722 360,-40.9722"/>
<text text-anchor="middle" x="405.5" y="-47.9722" font-family="Helvetica,sans-Serif" font-size="10.00" fill="#000000">UIManager::init</text>
</a>
</g>
</g>
<!-- Node318&#45;&gt;Node319 -->
<g id="edge7" class="edge">
<title>Node318&#45;&gt;Node319</title>
<path fill="none" stroke="#191970" d="M334.348,-50.4722C343.049,-50.4722 351.6087,-50.4722 359.6086,-50.4722"/>
<polygon fill="#191970" stroke="#191970" points="334.0938,-46.9723 324.0938,-50.4722 334.0938,-53.9723 334.0938,-46.9723"/>
</g>
<!-- Node320 -->
<g id="node8" class="node">
<title>Node320</title>
<g id="a_node8"><a xlink:href="classGame.html#a1c2ab25d5216b2f4b2fe41efd2c09114" target="_top" xlink:title="begins the game starts running the game ">
<polygon fill="none" stroke="#000000" points="504.5,-40.9722 504.5,-59.9722 572.5,-59.9722 572.5,-40.9722 504.5,-40.9722"/>
<text text-anchor="middle" x="538.5" y="-47.9722" font-family="Helvetica,sans-Serif" font-size="10.00" fill="#000000">Game::run</text>
</a>
</g>
</g>
<!-- Node319&#45;&gt;Node320 -->
<g id="edge8" class="edge">
<title>Node319&#45;&gt;Node320</title>
<path fill="none" stroke="#191970" d="M461.6863,-50.4722C476.2093,-50.4722 491.4049,-50.4722 504.4111,-50.4722"/>
<polygon fill="#191970" stroke="#191970" points="461.2711,-46.9723 451.2711,-50.4722 461.271,-53.9723 461.2711,-46.9723"/>
</g>
<!-- Node321 -->
<g id="node9" class="node">
<title>Node321</title>
<g id="a_node9"><a xlink:href="main_8cxx.html#af582d708d899e67ead623eac34a22387" target="_top" xlink:title="protected_main">
<polygon fill="none" stroke="#000000" points="626,-21.9722 626,-40.9722 719,-40.9722 719,-21.9722 626,-21.9722"/>
<text text-anchor="middle" x="672.5" y="-28.9722" font-family="Helvetica,sans-Serif" font-size="10.00" fill="#000000">protected_main</text>
</a>
</g>
</g>
<!-- Node320&#45;&gt;Node321 -->
<g id="edge9" class="edge">
<title>Node320&#45;&gt;Node321</title>
<path fill="none" stroke="#191970" d="M582.8611,-44.1822C596.6278,-42.2302 611.8396,-40.0733 625.7626,-38.0992"/>
<polygon fill="#191970" stroke="#191970" points="582.0702,-40.7593 572.6606,-45.6286 583.0529,-47.69 582.0702,-40.7593"/>
</g>
<!-- Node322 -->
<g id="node10" class="node">
<title>Node322</title>
<g id="a_node10"><a xlink:href="main_8cxx.html#a3c04138a5bfe5d72780bb7e82a18e627" target="_top" xlink:title="main">
<polygon fill="none" stroke="#000000" points="755,-21.9722 755,-40.9722 796,-40.9722 796,-21.9722 755,-21.9722"/>
<text text-anchor="middle" x="775.5" y="-28.9722" font-family="Helvetica,sans-Serif" font-size="10.00" fill="#000000">main</text>
</a>
</g>
</g>
<!-- Node321&#45;&gt;Node322 -->
<g id="edge10" class="edge">
<title>Node321&#45;&gt;Node322</title>
<path fill="none" stroke="#191970" d="M729.2133,-31.4722C738.4322,-31.4722 747.4259,-31.4722 754.9965,-31.4722"/>
<polygon fill="#191970" stroke="#191970" points="729.1782,-27.9723 719.1782,-31.4722 729.1781,-34.9723 729.1782,-27.9723"/>
</g>
<!-- Node323&#45;&gt;Node321 -->
<g id="edge12" class="edge">
<title>Node323&#45;&gt;Node321</title>
<path fill="none" stroke="#191970" d="M600.2457,-21.2272C608.7846,-22.438 617.438,-23.6649 625.6465,-24.8288"/>
<polygon fill="#191970" stroke="#191970" points="600.7003,-17.7567 590.3079,-19.8181 599.7175,-24.6874 600.7003,-17.7567"/>
</g>
</g>
</svg>
