<?xml version="1.0" encoding="UTF-8" standalone="no"?>
<!DOCTYPE svg PUBLIC "-//W3C//DTD SVG 1.1//EN"
 "http://www.w3.org/Graphics/SVG/1.1/DTD/svg11.dtd">
<!-- Generated by graphviz version 2.40.1 (20161225.0304)
 -->
<!-- Title: Map::decreaseHeight Pages: 1 -->
<svg width="795pt" height="28pt"
 viewBox="0.00 0.00 795.00 28.00" xmlns="http://www.w3.org/2000/svg" xmlns:xlink="http://www.w3.org/1999/xlink">
<g id="graph0" class="graph" transform="scale(1 1) rotate(0) translate(4 24)">
<title>Map::decreaseHeight</title>
<!-- Node20 -->
<g id="node1" class="node">
<title>Node20</title>
<polygon fill="#bfbfbf" stroke="#000000" points="0,-.5 0,-19.5 119,-19.5 119,-.5 0,-.5"/>
<text text-anchor="middle" x="59.5" y="-7.5" font-family="Helvetica,sans-Serif" font-size="10.00" fill="#000000">Map::decreaseHeight</text>
</g>
<!-- Node21 -->
<g id="node2" class="node">
<title>Node21</title>
<g id="a_node2"><a xlink:href="classEngine.html#a13572fdd7f6470dca48a14497f58980e" target="_top" xlink:title="Decrease Height Decreases the height of the given map node Calls the according function of the Map ob...">
<polygon fill="none" stroke="#000000" points="155,-.5 155,-19.5 287,-19.5 287,-.5 155,-.5"/>
<text text-anchor="middle" x="221" y="-7.5" font-family="Helvetica,sans-Serif" font-size="10.00" fill="#000000">Engine::decreaseHeight</text>
</a>
</g>
</g>
<!-- Node20&#45;&gt;Node21 -->
<g id="edge1" class="edge">
<title>Node20&#45;&gt;Node21</title>
<path fill="none" stroke="#191970" d="M129.3603,-10C137.7945,-10 146.3902,-10 154.7702,-10"/>
<polygon fill="#191970" stroke="#191970" points="129.1778,-6.5001 119.1778,-10 129.1778,-13.5001 129.1778,-6.5001"/>
</g>
<!-- Node22 -->
<g id="node3" class="node">
<title>Node22</title>
<g id="a_node3"><a xlink:href="classEventManager.html#a65ec91fd5016d4f9c4167fb8babed2df" target="_top" xlink:title="EventManager::checkEvents">
<polygon fill="none" stroke="#000000" points="323,-.5 323,-19.5 477,-19.5 477,-.5 323,-.5"/>
<text text-anchor="middle" x="400" y="-7.5" font-family="Helvetica,sans-Serif" font-size="10.00" fill="#000000">EventManager::checkEvents</text>
</a>
</g>
</g>
<!-- Node21&#45;&gt;Node22 -->
<g id="edge2" class="edge">
<title>Node21&#45;&gt;Node22</title>
<path fill="none" stroke="#191970" d="M297.3704,-10C305.8361,-10 314.4621,-10 322.9364,-10"/>
<polygon fill="#191970" stroke="#191970" points="297.1445,-6.5001 287.1444,-10 297.1444,-13.5001 297.1445,-6.5001"/>
</g>
<!-- Node23 -->
<g id="node4" class="node">
<title>Node23</title>
<g id="a_node4"><a xlink:href="classGame.html#a1c2ab25d5216b2f4b2fe41efd2c09114" target="_top" xlink:title="begins the game starts running the game ">
<polygon fill="none" stroke="#000000" points="513,-.5 513,-19.5 581,-19.5 581,-.5 513,-.5"/>
<text text-anchor="middle" x="547" y="-7.5" font-family="Helvetica,sans-Serif" font-size="10.00" fill="#000000">Game::run</text>
</a>
</g>
</g>
<!-- Node22&#45;&gt;Node23 -->
<g id="edge3" class="edge">
<title>Node22&#45;&gt;Node23</title>
<path fill="none" stroke="#191970" d="M487.5248,-10C496.4338,-10 505.0572,-10 512.845,-10"/>
<polygon fill="#191970" stroke="#191970" points="487.3744,-6.5001 477.3744,-10 487.3743,-13.5001 487.3744,-6.5001"/>
</g>
<!-- Node24 -->
<g id="node5" class="node">
<title>Node24</title>
<g id="a_node5"><a xlink:href="main_8cxx.html#af582d708d899e67ead623eac34a22387" target="_top" xlink:title="protected_main">
<polygon fill="none" stroke="#000000" points="617,-.5 617,-19.5 710,-19.5 710,-.5 617,-.5"/>
<text text-anchor="middle" x="663.5" y="-7.5" font-family="Helvetica,sans-Serif" font-size="10.00" fill="#000000">protected_main</text>
</a>
</g>
</g>
<!-- Node23&#45;&gt;Node24 -->
<g id="edge4" class="edge">
<title>Node23&#45;&gt;Node24</title>
<path fill="none" stroke="#191970" d="M591.2653,-10C599.5757,-10 608.2897,-10 616.6749,-10"/>
<polygon fill="#191970" stroke="#191970" points="591.0098,-6.5001 581.0098,-10 591.0098,-13.5001 591.0098,-6.5001"/>
</g>
<!-- Node25 -->
<g id="node6" class="node">
<title>Node25</title>
<g id="a_node6"><a xlink:href="main_8cxx.html#a3c04138a5bfe5d72780bb7e82a18e627" target="_top" xlink:title="main">
<polygon fill="none" stroke="#000000" points="746,-.5 746,-19.5 787,-19.5 787,-.5 746,-.5"/>
<text text-anchor="middle" x="766.5" y="-7.5" font-family="Helvetica,sans-Serif" font-size="10.00" fill="#000000">main</text>
</a>
</g>
</g>
<!-- Node24&#45;&gt;Node25 -->
<g id="edge5" class="edge">
<title>Node24&#45;&gt;Node25</title>
<path fill="none" stroke="#191970" d="M720.2133,-10C729.4322,-10 738.4259,-10 745.9965,-10"/>
<polygon fill="#191970" stroke="#191970" points="720.1782,-6.5001 710.1782,-10 720.1781,-13.5001 720.1782,-6.5001"/>
</g>
</g>
</svg>
