<?xml version="1.0" encoding="UTF-8" standalone="no"?>
<!DOCTYPE svg PUBLIC "-//W3C//DTD SVG 1.1//EN"
 "http://www.w3.org/Graphics/SVG/1.1/DTD/svg11.dtd">
<!-- Generated by graphviz version 2.40.1 (20161225.0304)
 -->
<!-- Title: Rectangle::width Pages: 1 -->
<!--zoomable 612 -->
<svg id="main" version="1.1" xmlns="http://www.w3.org/2000/svg" xmlns:xlink="http://www.w3.org/1999/xlink" xml:space="preserve" onload="init(evt)">
<style type="text/css"><![CDATA[
.edge:hover path { stroke: red; }
.edge:hover polygon { stroke: red; fill: red; }
]]></style>
<script type="text/javascript"><![CDATA[
var edges = document.getElementsByTagName('g');
if (edges && edges.length) {
  for (var i=0;i<edges.length;i++) {
    if (edges[i].id.substr(0,4)=='edge') {
      edges[i].setAttribute('class','edge');
    }
  }
}
]]></script>
        <defs>
                <circle id="rim" cx="0" cy="0" r="7"/>
                <circle id="rim2" cx="0" cy="0" r="3.5"/>
                <g id="zoomPlus">
                        <use xlink:href="#rim" fill="#404040">
                                <set attributeName="fill" to="#808080" begin="zoomplus.mouseover" end="zoomplus.mouseout"/>
                        </use>
                        <path d="M-4,0h8M0,-4v8" fill="none" stroke="white" stroke-width="1.5" pointer-events="none"/>
                </g>
                <g id="zoomMin">
                        <use xlink:href="#rim" fill="#404040">
                                <set attributeName="fill" to="#808080" begin="zoomminus.mouseover" end="zoomminus.mouseout"/>
                        </use>
                        <path d="M-4,0h8" fill="none" stroke="white" stroke-width="1.5" pointer-events="none"/>
                </g>
                <g id="dirArrow">
                        <path fill="none" stroke="white" stroke-width="1.5" d="M0,-3.0v7 M-2.5,-0.5L0,-3.0L2.5,-0.5"/>
                </g>
               <g id="resetDef">
                       <use xlink:href="#rim2" fill="#404040">
                               <set attributeName="fill" to="#808080" begin="reset.mouseover" end="reset.mouseout"/>
                       </use>
               </g>
        </defs>

<script type="text/javascript">
var viewWidth = 1358;
var viewHeight = 612;
var sectionId = 'dynsection-14';
</script>
<script xlink:href="svgpan.js"/>
<svg id="graph" class="graph">
<g id="viewport">
<title>Rectangle::width</title>
<!-- Node110 -->
<g id="node1" class="node">
<title>Node110</title>
<polygon fill="#bfbfbf" stroke="#000000" points="0,-266.5 0,-285.5 98,-285.5 98,-266.5 0,-266.5"/>
<text text-anchor="middle" x="49" y="-273.5" font-family="Helvetica,sans-Serif" font-size="10.00" fill="#000000">Rectangle::width</text>
</g>
<!-- Node111 -->
<g id="node2" class="node">
<title>Node111</title>
<g id="a_node2"><a xlink:href="classCamera.html#adfb240823ff20b97b69459490dbd8dc3" target="_top" xlink:title="Centers camera on given isometric coordinates. ">
<polygon fill="none" stroke="#000000" points="135,-380.5 135,-399.5 298,-399.5 298,-380.5 135,-380.5"/>
<text text-anchor="middle" x="216.5" y="-387.5" font-family="Helvetica,sans-Serif" font-size="10.00" fill="#000000">Camera::centerScreenOnPoint</text>
</a>
</g>
</g>
<!-- Node110&#45;&gt;Node111 -->
<g id="edge1" class="edge">
<title>Node110&#45;&gt;Node111</title>
<path fill="none" stroke="#191970" d="M61.4739,-294.1496C76.4153,-314.544 103.3065,-347.2437 134,-366 144.1826,-372.2224 156.0578,-376.8996 167.5732,-380.3896"/>
<polygon fill="#191970" stroke="#191970" points="64.1335,-291.8509 55.479,-285.7394 58.4334,-295.914 64.1335,-291.8509"/>
</g>
<!-- Node114 -->
<g id="node5" class="node">
<title>Node114</title>
<g id="a_node5"><a xlink:href="classEventManager.html#a65ec91fd5016d4f9c4167fb8babed2df" target="_top" xlink:title="EventManager::checkEvents">
<polygon fill="none" stroke="#000000" points="747,-418.5 747,-437.5 901,-437.5 901,-418.5 747,-418.5"/>
<text text-anchor="middle" x="824" y="-425.5" font-family="Helvetica,sans-Serif" font-size="10.00" fill="#000000">EventManager::checkEvents</text>
</a>
</g>
</g>
<!-- Node110&#45;&gt;Node114 -->
<g id="edge15" class="edge">
<title>Node110&#45;&gt;Node114</title>
<path fill="none" stroke="#191970" d="M56.0398,-295.2015C67.6945,-324.28 93.7802,-379.2415 134,-409 195.1994,-454.2812 231.59,-419.6214 299,-455 317.4418,-464.6787 315.4167,-477.9098 335,-485 506.1788,-546.9753 731.0283,-466.3601 801.7342,-437.5299"/>
<polygon fill="#191970" stroke="#191970" points="59.2611,-293.8269 52.3995,-285.7541 52.7292,-296.3438 59.2611,-293.8269"/>
</g>
<!-- Node120 -->
<g id="node11" class="node">
<title>Node120</title>
<g id="a_node11"><a xlink:href="classMap.html#af654ddecf0d25b836d7c9c27ee5c2150" target="_top" xlink:title="Map\&lt; ObserverSPtr\&lt;\l Notification \&gt;, Set\l\&lt; typename Notification\l::TransitionType \&gt; \&gt;::calculate\lVisibleMap">
<polygon fill="none" stroke="#000000" points="134,-464.5 134,-527.5 299,-527.5 299,-464.5 134,-464.5"/>
<text text-anchor="start" x="142" y="-515.5" font-family="Helvetica,sans-Serif" font-size="10.00" fill="#000000">Map&lt; ObserverSPtr&lt;</text>
<text text-anchor="start" x="142" y="-504.5" font-family="Helvetica,sans-Serif" font-size="10.00" fill="#000000"> Notification &gt;, Set</text>
<text text-anchor="start" x="142" y="-493.5" font-family="Helvetica,sans-Serif" font-size="10.00" fill="#000000">&lt; typename Notification</text>
<text text-anchor="start" x="142" y="-482.5" font-family="Helvetica,sans-Serif" font-size="10.00" fill="#000000">::TransitionType &gt; &gt;::calculate</text>
<text text-anchor="middle" x="216.5" y="-471.5" font-family="Helvetica,sans-Serif" font-size="10.00" fill="#000000">VisibleMap</text>
</a>
</g>
</g>
<!-- Node110&#45;&gt;Node120 -->
<g id="edge16" class="edge">
<title>Node110&#45;&gt;Node120</title>
<path fill="none" stroke="#191970" d="M54.3593,-295.7645C64.665,-330.6325 90.1899,-403.7472 134,-450 138.9619,-455.2386 144.6553,-460.0353 150.6822,-464.3873"/>
<polygon fill="#191970" stroke="#191970" points="57.6472,-294.5306 51.5442,-285.8701 50.9145,-296.4462 57.6472,-294.5306"/>
</g>
<!-- Node121 -->
<g id="node12" class="node">
<title>Node121</title>
<g id="a_node12"><a xlink:href="classLayout.html#afa734c5af10f59f3dadb066054fe81ab" target="_top" xlink:title="Arrange the layout elements. ">
<polygon fill="none" stroke="#000000" points="345.5,-554.5 345.5,-573.5 484.5,-573.5 484.5,-554.5 345.5,-554.5"/>
<text text-anchor="middle" x="415" y="-561.5" font-family="Helvetica,sans-Serif" font-size="10.00" fill="#000000">Layout::arrangeElements</text>
</a>
</g>
</g>
<!-- Node110&#45;&gt;Node121 -->
<g id="edge17" class="edge">
<title>Node110&#45;&gt;Node121</title>
<path fill="none" stroke="#191970" d="M52.5305,-295.5651C62.9075,-350.7682 95.044,-505.7627 134,-537 165.4962,-562.2556 272.8331,-566.1869 345.3508,-565.7806"/>
<polygon fill="#191970" stroke="#191970" points="55.9574,-294.8484 50.7005,-285.6497 49.0737,-296.1189 55.9574,-294.8484"/>
</g>
<!-- Node125 -->
<g id="node16" class="node">
<title>Node125</title>
<g id="a_node16"><a xlink:href="classLayout.html#a99004e4afcea6a945e3890b19cce6236" target="_top" xlink:title="Arrange Elements that are aligned to a parent This is a seperate function, so it can recurse if a par...">
<polygon fill="none" stroke="#000000" points="134.5,-584.5 134.5,-603.5 298.5,-603.5 298.5,-584.5 134.5,-584.5"/>
<text text-anchor="middle" x="216.5" y="-591.5" font-family="Helvetica,sans-Serif" font-size="10.00" fill="#000000">Layout::arrangeChildElements</text>
</a>
</g>
</g>
<!-- Node110&#45;&gt;Node125 -->
<g id="edge23" class="edge">
<title>Node110&#45;&gt;Node125</title>
<path fill="none" stroke="#191970" d="M52.1649,-295.6659C62.076,-354.9303 94.2375,-530.1716 134,-570 140.3234,-576.3338 148.2145,-581.0171 156.5912,-584.4754"/>
<polygon fill="#191970" stroke="#191970" points="55.6057,-295.0196 50.5297,-285.7198 48.6984,-296.1552 55.6057,-295.0196"/>
</g>
<!-- Node126 -->
<g id="node17" class="node">
<title>Node126</title>
<g id="a_node17"><a xlink:href="classGame.html#a560299f0291c281f7b44e7ef0dd7b264" target="_top" xlink:title="initializes and displays the main menu initializes and displays the main menu ">
<polygon fill="none" stroke="#000000" points="937,-301.5 937,-320.5 1040,-320.5 1040,-301.5 937,-301.5"/>
<text text-anchor="middle" x="988.5" y="-308.5" font-family="Helvetica,sans-Serif" font-size="10.00" fill="#000000">Game::mainMenu</text>
</a>
</g>
</g>
<!-- Node110&#45;&gt;Node126 -->
<g id="edge25" class="edge">
<title>Node110&#45;&gt;Node126</title>
<path fill="none" stroke="#191970" d="M66.4879,-292.3373C82.6177,-306.2033 107.9446,-325.0725 134,-333 204.1579,-354.3459 225.6872,-334.737 299,-333 402.198,-330.5549 427.8389,-325.6853 531,-322 678.0874,-316.7455 851.8676,-313.3356 936.6875,-311.8521"/>
<polygon fill="#191970" stroke="#191970" points="68.7363,-289.6531 58.9363,-285.6268 64.0865,-294.8856 68.7363,-289.6531"/>
</g>
<!-- Node127 -->
<g id="node18" class="node">
<title>Node127</title>
<g id="a_node18"><a xlink:href="classSDLRenderer.html#a6541b0f4cc60e8fe20cc6fb0bec97f1b" target="_top" xlink:title="SDLRenderer::drawText">
<polygon fill="none" stroke="#000000" points="350.5,-190.5 350.5,-209.5 479.5,-209.5 479.5,-190.5 350.5,-190.5"/>
<text text-anchor="middle" x="415" y="-197.5" font-family="Helvetica,sans-Serif" font-size="10.00" fill="#000000">SDLRenderer::drawText</text>
</a>
</g>
</g>
<!-- Node110&#45;&gt;Node127 -->
<g id="edge27" class="edge">
<title>Node110&#45;&gt;Node127</title>
<path fill="none" stroke="#191970" d="M66.8955,-259.8583C83.1263,-246.2913 108.3702,-227.7535 134,-219 205.1429,-194.7023 292.1887,-192.7369 350.3737,-195.0432"/>
<polygon fill="#191970" stroke="#191970" points="64.568,-257.2437 59.2751,-266.4217 69.1362,-262.5476 64.568,-257.2437"/>
</g>
<!-- Node128 -->
<g id="node19" class="node">
<title>Node128</title>
<g id="a_node19"><a xlink:href="classSDLRenderer.html#adccd397815cc5c7dbc61d93ce04e2439" target="_top" xlink:title="SDLRenderer::drawPicture">
<polygon fill="none" stroke="#000000" points="343.5,-95.5 343.5,-114.5 486.5,-114.5 486.5,-95.5 343.5,-95.5"/>
<text text-anchor="middle" x="415" y="-102.5" font-family="Helvetica,sans-Serif" font-size="10.00" fill="#000000">SDLRenderer::drawPicture</text>
</a>
</g>
</g>
<!-- Node110&#45;&gt;Node128 -->
<g id="edge28" class="edge">
<title>Node110&#45;&gt;Node128</title>
<path fill="none" stroke="#191970" d="M52.0245,-256.1702C58.9116,-218.806 79.6016,-138.7081 134,-105 212.9979,-56.0487 330.0271,-79.9507 384.7417,-95.3864"/>
<polygon fill="#191970" stroke="#191970" points="48.5287,-255.8511 50.3082,-266.2954 55.4303,-257.021 48.5287,-255.8511"/>
</g>
<!-- Node129 -->
<g id="node20" class="node">
<title>Node129</title>
<g id="a_node20"><a xlink:href="classPixelBuffer.html#a5402df89a5dc5b23594a697285f21e34" target="_top" xlink:title="Scale the pixel buffer using nearest&#45;neighbor in both dimensions. ">
<polygon fill="none" stroke="#000000" points="166,-304.5 166,-323.5 267,-323.5 267,-304.5 166,-304.5"/>
<text text-anchor="middle" x="216.5" y="-311.5" font-family="Helvetica,sans-Serif" font-size="10.00" fill="#000000">PixelBuffer::scale</text>
</a>
</g>
</g>
<!-- Node110&#45;&gt;Node129 -->
<g id="edge29" class="edge">
<title>Node110&#45;&gt;Node129</title>
<path fill="none" stroke="#191970" d="M101.1201,-287.8243C124.7347,-293.1816 152.282,-299.4311 174.5366,-304.4799"/>
<polygon fill="#191970" stroke="#191970" points="101.7939,-284.3883 91.2673,-285.589 100.2451,-291.2148 101.7939,-284.3883"/>
</g>
<!-- Node130 -->
<g id="node21" class="node">
<title>Node130</title>
<g id="a_node21"><a xlink:href="classCursorView.html#a31952d744480fd52f49aa3d552a90f9f" target="_top" xlink:title="CursorView::CursorView">
<polygon fill="none" stroke="#000000" points="348.5,-266.5 348.5,-285.5 481.5,-285.5 481.5,-266.5 348.5,-266.5"/>
<text text-anchor="middle" x="415" y="-273.5" font-family="Helvetica,sans-Serif" font-size="10.00" fill="#000000">CursorView::CursorView</text>
</a>
</g>
</g>
<!-- Node110&#45;&gt;Node130 -->
<g id="edge41" class="edge">
<title>Node110&#45;&gt;Node130</title>
<path fill="none" stroke="#191970" d="M108.5655,-276C174.358,-276 280.0234,-276 348.4781,-276"/>
<polygon fill="#191970" stroke="#191970" points="108.3604,-272.5001 98.3604,-276 108.3604,-279.5001 108.3604,-272.5001"/>
</g>
<!-- Node131 -->
<g id="node22" class="node">
<title>Node131</title>
<g id="a_node22"><a xlink:href="classPixelBuffer.html#abbad3bec56ca536a543c42024045c99d" target="_top" xlink:title="Crop the pixel buffer around a region. ">
<polygon fill="none" stroke="#000000" points="168,-228.5 168,-247.5 265,-247.5 265,-228.5 168,-228.5"/>
<text text-anchor="middle" x="216.5" y="-235.5" font-family="Helvetica,sans-Serif" font-size="10.00" fill="#000000">PixelBuffer::crop</text>
</a>
</g>
</g>
<!-- Node110&#45;&gt;Node131 -->
<g id="edge31" class="edge">
<title>Node110&#45;&gt;Node131</title>
<path fill="none" stroke="#191970" d="M101.1201,-264.1757C124.7347,-258.8184 152.282,-252.5689 174.5366,-247.5201"/>
<polygon fill="#191970" stroke="#191970" points="100.2451,-260.7852 91.2673,-266.411 101.7939,-267.6117 100.2451,-260.7852"/>
</g>
<!-- Node132 -->
<g id="node23" class="node">
<title>Node132</title>
<g id="a_node23"><a xlink:href="classPixelBuffer.html#af2200c8401646984b4119c3c7ec8e6b5" target="_top" xlink:title="Expands the sprite with a center cross to reach a dimension. ">
<polygon fill="none" stroke="#000000" points="144.5,-114.5 144.5,-133.5 288.5,-133.5 288.5,-114.5 144.5,-114.5"/>
<text text-anchor="middle" x="216.5" y="-121.5" font-family="Helvetica,sans-Serif" font-size="10.00" fill="#000000">PixelBuffer::expandCenter</text>
</a>
</g>
</g>
<!-- Node110&#45;&gt;Node132 -->
<g id="edge33" class="edge">
<title>Node110&#45;&gt;Node132</title>
<path fill="none" stroke="#191970" d="M55.7089,-256.9987C67.0606,-227.7311 92.9138,-171.976 134,-143 139.5252,-139.1034 145.7285,-135.9936 152.1878,-133.5138"/>
<polygon fill="#191970" stroke="#191970" points="52.3865,-255.8916 52.1815,-266.4845 58.9475,-258.3315 52.3865,-255.8916"/>
</g>
<!-- Node133 -->
<g id="node24" class="node">
<title>Node133</title>
<g id="a_node24"><a xlink:href="classPixelBuffer.html#a7571d255af3979a30246e5a6c122ddd3" target="_top" xlink:title="Convert to SDL_Surface. ">
<polygon fill="none" stroke="#000000" points="155.5,-.5 155.5,-19.5 277.5,-19.5 277.5,-.5 155.5,-.5"/>
<text text-anchor="middle" x="216.5" y="-7.5" font-family="Helvetica,sans-Serif" font-size="10.00" fill="#000000">PixelBuffer::toSurface</text>
</a>
</g>
</g>
<!-- Node110&#45;&gt;Node133 -->
<g id="edge34" class="edge">
<title>Node110&#45;&gt;Node133</title>
<path fill="none" stroke="#191970" d="M53.1879,-256.3476C64.8212,-203.5545 98.9857,-60.5156 134,-29 140.1177,-23.4936 147.5066,-19.4871 155.3179,-16.5877"/>
<polygon fill="#191970" stroke="#191970" points="49.7,-255.9166 50.9996,-266.4314 56.5408,-257.4012 49.7,-255.9166"/>
</g>
<!-- Node135 -->
<g id="node26" class="node">
<title>Node135</title>
<g id="a_node26"><a xlink:href="classPixelBuffer.html#a0d7a4fd0591121980a922794307c19e9" target="_top" xlink:title="Construct a PixelBuffer from bounds and a range. ">
<polygon fill="none" stroke="#000000" points="152,-38.5 152,-57.5 281,-57.5 281,-38.5 152,-38.5"/>
<text text-anchor="middle" x="216.5" y="-45.5" font-family="Helvetica,sans-Serif" font-size="10.00" fill="#000000">PixelBuffer::PixelBuffer</text>
</a>
</g>
</g>
<!-- Node110&#45;&gt;Node135 -->
<g id="edge36" class="edge">
<title>Node110&#45;&gt;Node135</title>
<path fill="none" stroke="#191970" d="M51.5301,-256.2208C57.7893,-215.5736 77.7896,-122.2582 134,-72 141.1168,-65.6368 149.8314,-60.9552 158.9002,-57.5121"/>
<polygon fill="#191970" stroke="#191970" points="48.0525,-255.8162 50.1103,-266.2092 54.9828,-256.8013 48.0525,-255.8162"/>
</g>
<!-- Node136 -->
<g id="node27" class="node">
<title>Node136</title>
<g id="a_node27"><a xlink:href="classRectangle.html#a8e643108a9d90f031b397c7f561e9b66" target="_top" xlink:title="Rectangle::to_SDL">
<polygon fill="none" stroke="#000000" points="164.5,-152.5 164.5,-171.5 268.5,-171.5 268.5,-152.5 164.5,-152.5"/>
<text text-anchor="middle" x="216.5" y="-159.5" font-family="Helvetica,sans-Serif" font-size="10.00" fill="#000000">Rectangle::to_SDL</text>
</a>
</g>
</g>
<!-- Node110&#45;&gt;Node136 -->
<g id="edge37" class="edge">
<title>Node110&#45;&gt;Node136</title>
<path fill="none" stroke="#191970" d="M61.4739,-257.8504C76.4153,-237.456 103.3065,-204.7563 134,-186 144.1826,-179.7776 156.0578,-175.1004 167.5732,-171.6104"/>
<polygon fill="#191970" stroke="#191970" points="58.4334,-256.086 55.479,-266.2606 64.1335,-260.1491 58.4334,-256.086"/>
</g>
<!-- Node112 -->
<g id="node3" class="node">
<title>Node112</title>
<g id="a_node3"><a xlink:href="classCamera.html#a0a8ee04ccb4f4cc9af52a964cf225f66" target="_top" xlink:title="Increases the zoom level of the camera. ">
<polygon fill="none" stroke="#000000" points="336.5,-380.5 336.5,-399.5 493.5,-399.5 493.5,-380.5 336.5,-380.5"/>
<text text-anchor="middle" x="415" y="-387.5" font-family="Helvetica,sans-Serif" font-size="10.00" fill="#000000">Camera::increaseZoomLevel</text>
</a>
</g>
</g>
<!-- Node111&#45;&gt;Node112 -->
<g id="edge2" class="edge">
<title>Node111&#45;&gt;Node112</title>
<path fill="none" stroke="#191970" d="M308.2191,-390C317.5947,-390 327.0605,-390 336.2792,-390"/>
<polygon fill="#191970" stroke="#191970" points="308.0969,-386.5001 298.0969,-390 308.0968,-393.5001 308.0969,-386.5001"/>
</g>
<!-- Node113 -->
<g id="node4" class="node">
<title>Node113</title>
<g id="a_node4"><a xlink:href="classCamera.html#a1f8ecd427814c5a4970223c2d13b9310" target="_top" xlink:title="Sets the pinch distance for Android. ">
<polygon fill="none" stroke="#000000" points="548.5,-418.5 548.5,-437.5 693.5,-437.5 693.5,-418.5 548.5,-418.5"/>
<text text-anchor="middle" x="621" y="-425.5" font-family="Helvetica,sans-Serif" font-size="10.00" fill="#000000">Camera::setPinchDistance</text>
</a>
</g>
</g>
<!-- Node111&#45;&gt;Node113 -->
<g id="edge12" class="edge">
<title>Node111&#45;&gt;Node113</title>
<path fill="none" stroke="#191970" d="M279.2254,-401.1684C297.1907,-404.0649 316.8298,-406.9442 335,-409 407.3159,-417.1818 490.3474,-422.2163 548.2492,-425.0292"/>
<polygon fill="#191970" stroke="#191970" points="279.5869,-397.681 269.152,-399.515 278.4531,-404.5885 279.5869,-397.681"/>
</g>
<!-- Node118 -->
<g id="node9" class="node">
<title>Node118</title>
<g id="a_node9"><a xlink:href="classCamera.html#aeea39f352d5873495dea6f376cf3207e" target="_top" xlink:title="Decreases the zoom level of the camera. ">
<polygon fill="none" stroke="#000000" points="335,-456.5 335,-475.5 495,-475.5 495,-456.5 335,-456.5"/>
<text text-anchor="middle" x="415" y="-463.5" font-family="Helvetica,sans-Serif" font-size="10.00" fill="#000000">Camera::decreaseZoomLevel</text>
</a>
</g>
</g>
<!-- Node111&#45;&gt;Node118 -->
<g id="edge9" class="edge">
<title>Node111&#45;&gt;Node118</title>
<path fill="none" stroke="#191970" d="M253.5825,-403.1458C267.9517,-408.5599 284.4218,-415.1626 299,-422 315.5712,-429.7722 318.1364,-434.8845 335,-442 348.3599,-447.6371 363.4894,-452.5323 376.9674,-456.4051"/>
<polygon fill="#191970" stroke="#191970" points="254.6123,-399.7949 244.0193,-399.5993 252.1783,-406.3581 254.6123,-399.7949"/>
</g>
<!-- Node119 -->
<g id="node10" class="node">
<title>Node119</title>
<g id="a_node10"><a xlink:href="classCamera.html#af29da768f8948f3afbf0a9b43530eb1d" target="_top" xlink:title="Centers camera on the middle of the map. ">
<polygon fill="none" stroke="#000000" points="542,-331 542,-361 700,-361 700,-331 542,-331"/>
<text text-anchor="start" x="550" y="-349" font-family="Helvetica,sans-Serif" font-size="10.00" fill="#000000">Camera::centerScreenOnMap</text>
<text text-anchor="middle" x="621" y="-338" font-family="Helvetica,sans-Serif" font-size="10.00" fill="#000000">Center</text>
</a>
</g>
</g>
<!-- Node111&#45;&gt;Node119 -->
<g id="edge13" class="edge">
<title>Node111&#45;&gt;Node119</title>
<path fill="none" stroke="#191970" d="M280.7925,-378.8298C298.3365,-376.0172 317.3687,-373.1812 335,-371 404.7457,-362.3715 484.4231,-355.6639 541.9338,-351.3787"/>
<polygon fill="#191970" stroke="#191970" points="279.9653,-375.4183 270.6567,-380.478 281.0889,-382.3275 279.9653,-375.4183"/>
</g>
<!-- Node112&#45;&gt;Node113 -->
<g id="edge3" class="edge">
<title>Node112&#45;&gt;Node113</title>
<path fill="none" stroke="#191970" d="M476.8982,-401.4181C506.3731,-406.8552 541.2197,-413.2832 569.2621,-418.4561"/>
<polygon fill="#191970" stroke="#191970" points="477.1856,-397.9122 466.7166,-399.54 475.9157,-404.796 477.1856,-397.9122"/>
</g>
<!-- Node112&#45;&gt;Node114 -->
<g id="edge8" class="edge">
<title>Node112&#45;&gt;Node114</title>
<path fill="none" stroke="#191970" d="M503.7382,-393.319C562.6463,-396.1065 641.6105,-400.9608 711,-409 731.7493,-411.4039 754.4875,-415.0322 774.0924,-418.4761"/>
<polygon fill="#191970" stroke="#191970" points="503.8726,-389.8216 493.7216,-392.8558 503.5492,-396.8141 503.8726,-389.8216"/>
</g>
<!-- Node113&#45;&gt;Node114 -->
<g id="edge4" class="edge">
<title>Node113&#45;&gt;Node114</title>
<path fill="none" stroke="#191970" d="M703.969,-428C718.1972,-428 732.9282,-428 746.9921,-428"/>
<polygon fill="#191970" stroke="#191970" points="703.7143,-424.5001 693.7143,-428 703.7142,-431.5001 703.7143,-424.5001"/>
</g>
<!-- Node115 -->
<g id="node6" class="node">
<title>Node115</title>
<g id="a_node6"><a xlink:href="classGame.html#a1c2ab25d5216b2f4b2fe41efd2c09114" target="_top" xlink:title="begins the game starts running the game ">
<polygon fill="none" stroke="#000000" points="1076,-400.5 1076,-419.5 1144,-419.5 1144,-400.5 1076,-400.5"/>
<text text-anchor="middle" x="1110" y="-407.5" font-family="Helvetica,sans-Serif" font-size="10.00" fill="#000000">Game::run</text>
</a>
</g>
</g>
<!-- Node114&#45;&gt;Node115 -->
<g id="edge5" class="edge">
<title>Node114&#45;&gt;Node115</title>
<path fill="none" stroke="#191970" d="M911.1973,-422.5121C966.586,-419.0261 1035.2222,-414.7063 1075.6483,-412.162"/>
<polygon fill="#191970" stroke="#191970" points="910.7794,-419.0313 901.019,-423.1527 911.2191,-426.0175 910.7794,-419.0313"/>
</g>
<!-- Node116 -->
<g id="node7" class="node">
<title>Node116</title>
<g id="a_node7"><a xlink:href="main_8cxx.html#af582d708d899e67ead623eac34a22387" target="_top" xlink:title="protected_main">
<polygon fill="none" stroke="#000000" points="1180,-361.5 1180,-380.5 1273,-380.5 1273,-361.5 1180,-361.5"/>
<text text-anchor="middle" x="1226.5" y="-368.5" font-family="Helvetica,sans-Serif" font-size="10.00" fill="#000000">protected_main</text>
</a>
</g>
</g>
<!-- Node115&#45;&gt;Node116 -->
<g id="edge6" class="edge">
<title>Node115&#45;&gt;Node116</title>
<path fill="none" stroke="#191970" d="M1148.2168,-397.2064C1164.3962,-391.7901 1182.9236,-385.5878 1197.8913,-380.5771"/>
<polygon fill="#191970" stroke="#191970" points="1146.8708,-393.966 1138.4991,-400.4595 1149.093,-400.6039 1146.8708,-393.966"/>
</g>
<!-- Node117 -->
<g id="node8" class="node">
<title>Node117</title>
<g id="a_node8"><a xlink:href="main_8cxx.html#a3c04138a5bfe5d72780bb7e82a18e627" target="_top" xlink:title="main">
<polygon fill="none" stroke="#000000" points="1309,-361.5 1309,-380.5 1350,-380.5 1350,-361.5 1309,-361.5"/>
<text text-anchor="middle" x="1329.5" y="-368.5" font-family="Helvetica,sans-Serif" font-size="10.00" fill="#000000">main</text>
</a>
</g>
</g>
<!-- Node116&#45;&gt;Node117 -->
<g id="edge7" class="edge">
<title>Node116&#45;&gt;Node117</title>
<path fill="none" stroke="#191970" d="M1283.2133,-371C1292.4322,-371 1301.4259,-371 1308.9965,-371"/>
<polygon fill="#191970" stroke="#191970" points="1283.1782,-367.5001 1273.1782,-371 1283.1781,-374.5001 1283.1782,-367.5001"/>
</g>
<!-- Node118&#45;&gt;Node113 -->
<g id="edge10" class="edge">
<title>Node118&#45;&gt;Node113</title>
<path fill="none" stroke="#191970" d="M476.8982,-454.5819C506.3731,-449.1448 541.2197,-442.7168 569.2621,-437.5439"/>
<polygon fill="#191970" stroke="#191970" points="475.9157,-451.204 466.7166,-456.46 477.1856,-458.0878 475.9157,-451.204"/>
</g>
<!-- Node118&#45;&gt;Node114 -->
<g id="edge11" class="edge">
<title>Node118&#45;&gt;Node114</title>
<path fill="none" stroke="#191970" d="M505.2821,-462.6076C564.0213,-459.8087 642.2149,-454.9692 711,-447 731.7493,-444.5961 754.4875,-440.9678 774.0924,-437.5239"/>
<polygon fill="#191970" stroke="#191970" points="505.1149,-459.1115 495.2887,-463.0731 505.4407,-466.104 505.1149,-459.1115"/>
</g>
<!-- Node119&#45;&gt;Node115 -->
<g id="edge14" class="edge">
<title>Node119&#45;&gt;Node115</title>
<path fill="none" stroke="#191970" d="M710.1732,-357.6709C819.9059,-372.0327 1000.8783,-395.7182 1075.8414,-405.5293"/>
<polygon fill="#191970" stroke="#191970" points="710.4795,-354.1812 700.1098,-356.3538 709.571,-361.1221 710.4795,-354.1812"/>
</g>
<!-- Node122 -->
<g id="node13" class="node">
<title>Node122</title>
<g id="a_node13"><a xlink:href="classUIManager.html#aedd9d0577af515a852425dfe414b2968" target="_top" xlink:title="Parses the UiLayout.json files and creates UI Elements. ">
<polygon fill="none" stroke="#000000" points="943,-532.5 943,-551.5 1034,-551.5 1034,-532.5 943,-532.5"/>
<text text-anchor="middle" x="988.5" y="-539.5" font-family="Helvetica,sans-Serif" font-size="10.00" fill="#000000">UIManager::init</text>
</a>
</g>
</g>
<!-- Node121&#45;&gt;Node122 -->
<g id="edge18" class="edge">
<title>Node121&#45;&gt;Node122</title>
<path fill="none" stroke="#191970" d="M494.7711,-560.9399C616.6701,-556.2637 845.3904,-547.4898 942.747,-543.7551"/>
<polygon fill="#191970" stroke="#191970" points="494.6075,-557.4435 484.749,-561.3244 494.8759,-564.4384 494.6075,-557.4435"/>
</g>
<!-- Node123 -->
<g id="node14" class="node">
<title>Node123</title>
<g id="a_node14"><a xlink:href="classUIManager.html#a3ccb2fc669262f18ebdcdf3d5c43a3e8" target="_top" xlink:title="CallbackFunction that sets the Build Menu Position Used as callback function for the ComboBox that ho...">
<polygon fill="none" stroke="#000000" points="531,-573.5 531,-592.5 711,-592.5 711,-573.5 531,-573.5"/>
<text text-anchor="middle" x="621" y="-580.5" font-family="Helvetica,sans-Serif" font-size="10.00" fill="#000000">UIManager::setBuildMenuPosition</text>
</a>
</g>
</g>
<!-- Node121&#45;&gt;Node123 -->
<g id="edge20" class="edge">
<title>Node121&#45;&gt;Node123</title>
<path fill="none" stroke="#191970" d="M494.9598,-571.3749C506.7294,-572.4605 518.9221,-573.585 530.8795,-574.6879"/>
<polygon fill="#191970" stroke="#191970" points="495.0214,-567.8658 484.7422,-570.4325 494.3785,-574.8363 495.0214,-567.8658"/>
</g>
<!-- Node122&#45;&gt;Node115 -->
<g id="edge19" class="edge">
<title>Node122&#45;&gt;Node115</title>
<path fill="none" stroke="#191970" d="M1004.5462,-524.5671C1030.47,-496.403 1080.7151,-441.8157 1101.092,-419.6778"/>
<polygon fill="#191970" stroke="#191970" points="1001.8295,-522.3505 997.6322,-532.0785 1006.9798,-527.0912 1001.8295,-522.3505"/>
</g>
<!-- Node124 -->
<g id="node15" class="node">
<title>Node124</title>
<g id="a_node15"><a xlink:href="classUIManager.html#a5c4cb8e02504ffa0d3faf45181feab9d" target="_top" xlink:title="Fill UI Widgets whose ID start with a $ with data Used for filling widgets with data, like BuildMenu Position combobox, Screen Resolution ComboBox and so on. ">
<polygon fill="none" stroke="#000000" points="751,-571 751,-601 897,-601 897,-571 751,-571"/>
<text text-anchor="start" x="759" y="-589" font-family="Helvetica,sans-Serif" font-size="10.00" fill="#000000">UIManager::initializeDollar</text>
<text text-anchor="middle" x="824" y="-578" font-family="Helvetica,sans-Serif" font-size="10.00" fill="#000000">Variables</text>
</a>
</g>
</g>
<!-- Node123&#45;&gt;Node124 -->
<g id="edge21" class="edge">
<title>Node123&#45;&gt;Node124</title>
<path fill="none" stroke="#191970" d="M721.4944,-584.4851C731.3723,-584.6311 741.2629,-584.7773 750.7919,-584.9181"/>
<polygon fill="#191970" stroke="#191970" points="721.2716,-580.9816 711.2209,-584.3333 721.1681,-587.9808 721.2716,-580.9816"/>
</g>
<!-- Node124&#45;&gt;Node122 -->
<g id="edge22" class="edge">
<title>Node124&#45;&gt;Node122</title>
<path fill="none" stroke="#191970" d="M889.8724,-568.3806C911.3149,-562.6453 934.305,-556.4959 952.6903,-551.5783"/>
<polygon fill="#191970" stroke="#191970" points="888.9075,-565.0156 880.1515,-570.9808 890.7163,-571.7779 888.9075,-565.0156"/>
</g>
<!-- Node125&#45;&gt;Node121 -->
<g id="edge24" class="edge">
<title>Node125&#45;&gt;Node121</title>
<path fill="none" stroke="#191970" d="M289.513,-582.9653C310.047,-579.8619 332.1951,-576.5146 352.0847,-573.5086"/>
<polygon fill="#191970" stroke="#191970" points="288.944,-579.5114 279.5794,-584.4666 289.9902,-586.4328 288.944,-579.5114"/>
</g>
<!-- Node126&#45;&gt;Node116 -->
<g id="edge26" class="edge">
<title>Node126&#45;&gt;Node116</title>
<path fill="none" stroke="#191970" d="M1035.9941,-322.9733C1080.8245,-334.2751 1147.1743,-351.0019 1188.5713,-361.4382"/>
<polygon fill="#191970" stroke="#191970" points="1036.764,-319.558 1026.2118,-320.5072 1035.0528,-326.3456 1036.764,-319.558"/>
</g>
<!-- Node129&#45;&gt;Node130 -->
<g id="edge30" class="edge">
<title>Node129&#45;&gt;Node130</title>
<path fill="none" stroke="#191970" d="M276.517,-302.5106C304.8396,-297.0886 338.2423,-290.6942 365.1458,-285.5439"/>
<polygon fill="#191970" stroke="#191970" points="275.4973,-299.1422 266.3337,-304.46 276.8135,-306.0173 275.4973,-299.1422"/>
</g>
<!-- Node131&#45;&gt;Node130 -->
<g id="edge32" class="edge">
<title>Node131&#45;&gt;Node130</title>
<path fill="none" stroke="#191970" d="M274.9519,-249.1898C303.6276,-254.6793 337.8045,-261.222 365.2173,-266.4698"/>
<polygon fill="#191970" stroke="#191970" points="275.5383,-245.7386 265.0586,-247.2958 274.2221,-252.6137 275.5383,-245.7386"/>
</g>
<!-- Node134 -->
<g id="node25" class="node">
<title>Node134</title>
<g id="a_node25"><a xlink:href="classWindow.html#a51382238ba9aad6491768c86d123a48f" target="_top" xlink:title="Window::Window">
<polygon fill="none" stroke="#000000" points="365,-.5 365,-19.5 465,-19.5 465,-.5 365,-.5"/>
<text text-anchor="middle" x="415" y="-7.5" font-family="Helvetica,sans-Serif" font-size="10.00" fill="#000000">Window::Window</text>
</a>
</g>
</g>
<!-- Node133&#45;&gt;Node134 -->
<g id="edge35" class="edge">
<title>Node133&#45;&gt;Node134</title>
<path fill="none" stroke="#191970" d="M288.0039,-10C313.4003,-10 341.4321,-10 364.6846,-10"/>
<polygon fill="#191970" stroke="#191970" points="287.6763,-6.5001 277.6762,-10 287.6762,-13.5001 287.6763,-6.5001"/>
</g>
<!-- Node136&#45;&gt;Node127 -->
<g id="edge38" class="edge">
<title>Node136&#45;&gt;Node127</title>
<path fill="none" stroke="#191970" d="M276.517,-173.4894C304.8396,-178.9114 338.2423,-185.3058 365.1458,-190.4561"/>
<polygon fill="#191970" stroke="#191970" points="276.8135,-169.9827 266.3337,-171.54 275.4973,-176.8578 276.8135,-169.9827"/>
</g>
<!-- Node136&#45;&gt;Node128 -->
<g id="edge39" class="edge">
<title>Node136&#45;&gt;Node128</title>
<path fill="none" stroke="#191970" d="M271.1902,-150.1359C280.5058,-147.9064 290.0573,-145.489 299,-143 329.828,-134.4195 364.6468,-122.7405 388.023,-114.6036"/>
<polygon fill="#191970" stroke="#191970" points="270.1508,-146.7846 261.2143,-152.4759 271.7494,-153.5996 270.1508,-146.7846"/>
</g>
<!-- Node137 -->
<g id="node28" class="node">
<title>Node137</title>
<g id="a_node28"><a xlink:href="classSDLRenderer.html#a437321420e34cd050515bdcd59b3add4" target="_top" xlink:title="SDLRenderer::drawShape">
<polygon fill="none" stroke="#000000" points="345.5,-152.5 345.5,-171.5 484.5,-171.5 484.5,-152.5 345.5,-152.5"/>
<text text-anchor="middle" x="415" y="-159.5" font-family="Helvetica,sans-Serif" font-size="10.00" fill="#000000">SDLRenderer::drawShape</text>
</a>
</g>
</g>
<!-- Node136&#45;&gt;Node137 -->
<g id="edge40" class="edge">
<title>Node136&#45;&gt;Node137</title>
<path fill="none" stroke="#191970" d="M278.7894,-162C299.9042,-162 323.6228,-162 345.278,-162"/>
<polygon fill="#191970" stroke="#191970" points="278.6536,-158.5001 268.6535,-162 278.6535,-165.5001 278.6536,-158.5001"/>
</g>
</g>
</svg>
        <g id="navigator" transform="translate(0 0)" fill="#404254">
                <rect fill="#f2f5e9" fill-opacity="0.5" stroke="#606060" stroke-width=".5" x="0" y="0" width="60" height="60"/>
                <use id="zoomplus" xlink:href="#zoomPlus" x="17" y="9" onmousedown="handleZoom(evt,'in')"/>
                <use id="zoomminus" xlink:href="#zoomMin" x="42" y="9" onmousedown="handleZoom(evt,'out')"/>
                <use id="reset" xlink:href="#resetDef" x="30" y="36" onmousedown="handleReset()"/>
                <g id="arrowUp" xlink:href="#dirArrow" transform="translate(30 24)" onmousedown="handlePan(0,-1)">
                  <use xlink:href="#rim" fill="#404040">
                        <set attributeName="fill" to="#808080" begin="arrowUp.mouseover" end="arrowUp.mouseout"/>
                  </use>
                  <path fill="none" stroke="white" stroke-width="1.5" d="M0,-3.0v7 M-2.5,-0.5L0,-3.0L2.5,-0.5"/>
                </g>
                <g id="arrowRight" xlink:href="#dirArrow" transform="rotate(90) translate(36 -43)" onmousedown="handlePan(1,0)">
                  <use xlink:href="#rim" fill="#404040">
                        <set attributeName="fill" to="#808080" begin="arrowRight.mouseover" end="arrowRight.mouseout"/>
                  </use>
                  <path fill="none" stroke="white" stroke-width="1.5" d="M0,-3.0v7 M-2.5,-0.5L0,-3.0L2.5,-0.5"/>
                </g>
                <g id="arrowDown" xlink:href="#dirArrow" transform="rotate(180) translate(-30 -48)" onmousedown="handlePan(0,1)">
                  <use xlink:href="#rim" fill="#404040">
                        <set attributeName="fill" to="#808080" begin="arrowDown.mouseover" end="arrowDown.mouseout"/>
                  </use>
                  <path fill="none" stroke="white" stroke-width="1.5" d="M0,-3.0v7 M-2.5,-0.5L0,-3.0L2.5,-0.5"/>
                </g>
                <g id="arrowLeft" xlink:href="#dirArrow" transform="rotate(270) translate(-36 17)" onmousedown="handlePan(-1,0)">
                  <use xlink:href="#rim" fill="#404040">
                        <set attributeName="fill" to="#808080" begin="arrowLeft.mouseover" end="arrowLeft.mouseout"/>
                  </use>
                  <path fill="none" stroke="white" stroke-width="1.5" d="M0,-3.0v7 M-2.5,-0.5L0,-3.0L2.5,-0.5"/>
                </g>
        </g>
        <svg viewBox="0 0 15 15" width="100%" height="30px" preserveAspectRatio="xMaxYMin meet">
         <g id="arrow_out" transform="scale(0.3 0.3)">
          <a xlink:href="classRectangle_a6d7591d194230afb71ac2efcb8fd782f_icgraph_org.svg" target="_base">
           <rect id="button" ry="5" rx="5" y="6" x="6" height="38" width="38"
                fill="#f2f5e9" fill-opacity="0.5" stroke="#606060" stroke-width="1.0"/>
           <path id="arrow"
             d="M 11.500037,31.436501 C 11.940474,20.09759 22.043105,11.32322 32.158766,21.979434 L 37.068811,17.246167 C 37.068811,17.246167 37.088388,32 37.088388,32 L 22.160133,31.978069 C 22.160133,31.978069 26.997745,27.140456 26.997745,27.140456 C 18.528582,18.264221 13.291696,25.230495 11.500037,31.436501 z"
             style="fill:#404040;"/>
          </a>
         </g>
        </svg>
</svg>
