<?xml version="1.0" encoding="UTF-8" standalone="no"?>
<!DOCTYPE svg PUBLIC "-//W3C//DTD SVG 1.1//EN"
 "http://www.w3.org/Graphics/SVG/1.1/DTD/svg11.dtd">
<!-- Generated by graphviz version 2.40.1 (20161225.0304)
 -->
<!-- Title: UIElement::setActionParameter Pages: 1 -->
<svg width="808pt" height="28pt"
 viewBox="0.00 0.00 808.00 28.00" xmlns="http://www.w3.org/2000/svg" xmlns:xlink="http://www.w3.org/1999/xlink">
<g id="graph0" class="graph" transform="scale(1 1) rotate(0) translate(4 24)">
<title>UIElement::setActionParameter</title>
<!-- Node244 -->
<g id="node1" class="node">
<title>Node244</title>
<polygon fill="#bfbfbf" stroke="#000000" points="0,-.5 0,-19.5 170,-19.5 170,-.5 0,-.5"/>
<text text-anchor="middle" x="85" y="-7.5" font-family="Helvetica,sans-Serif" font-size="10.00" fill="#000000">UIElement::setActionParameter</text>
</g>
<!-- Node245 -->
<g id="node2" class="node">
<title>Node245</title>
<g id="a_node2"><a xlink:href="classUIManager.html#aae7a89e9d50bb6192e4140e07bd5f94b" target="_top" xlink:title="UIManager::createBuildMenu">
<polygon fill="none" stroke="#000000" points="206,-.5 206,-19.5 363,-19.5 363,-.5 206,-.5"/>
<text text-anchor="middle" x="284.5" y="-7.5" font-family="Helvetica,sans-Serif" font-size="10.00" fill="#000000">UIManager::createBuildMenu</text>
</a>
</g>
</g>
<!-- Node244&#45;&gt;Node245 -->
<g id="edge1" class="edge">
<title>Node244&#45;&gt;Node245</title>
<path fill="none" stroke="#191970" d="M180.244,-10C188.8436,-10 197.488,-10 205.9208,-10"/>
<polygon fill="#191970" stroke="#191970" points="180.1847,-6.5001 170.1846,-10 180.1846,-13.5001 180.1847,-6.5001"/>
</g>
<!-- Node246 -->
<g id="node3" class="node">
<title>Node246</title>
<g id="a_node3"><a xlink:href="classUIManager.html#aedd9d0577af515a852425dfe414b2968" target="_top" xlink:title="Parses the UiLayout.json files and creates UI Elements. ">
<polygon fill="none" stroke="#000000" points="399,-.5 399,-19.5 490,-19.5 490,-.5 399,-.5"/>
<text text-anchor="middle" x="444.5" y="-7.5" font-family="Helvetica,sans-Serif" font-size="10.00" fill="#000000">UIManager::init</text>
</a>
</g>
</g>
<!-- Node245&#45;&gt;Node246 -->
<g id="edge2" class="edge">
<title>Node245&#45;&gt;Node246</title>
<path fill="none" stroke="#191970" d="M373.348,-10C382.049,-10 390.6087,-10 398.6086,-10"/>
<polygon fill="#191970" stroke="#191970" points="373.0938,-6.5001 363.0938,-10 373.0938,-13.5001 373.0938,-6.5001"/>
</g>
<!-- Node247 -->
<g id="node4" class="node">
<title>Node247</title>
<g id="a_node4"><a xlink:href="classGame.html#a1c2ab25d5216b2f4b2fe41efd2c09114" target="_top" xlink:title="begins the game starts running the game ">
<polygon fill="none" stroke="#000000" points="526,-.5 526,-19.5 594,-19.5 594,-.5 526,-.5"/>
<text text-anchor="middle" x="560" y="-7.5" font-family="Helvetica,sans-Serif" font-size="10.00" fill="#000000">Game::run</text>
</a>
</g>
</g>
<!-- Node246&#45;&gt;Node247 -->
<g id="edge3" class="edge">
<title>Node246&#45;&gt;Node247</title>
<path fill="none" stroke="#191970" d="M500.2726,-10C508.9603,-10 517.7077,-10 525.7272,-10"/>
<polygon fill="#191970" stroke="#191970" points="500.1487,-6.5001 490.1487,-10 500.1486,-13.5001 500.1487,-6.5001"/>
</g>
<!-- Node248 -->
<g id="node5" class="node">
<title>Node248</title>
<g id="a_node5"><a xlink:href="main_8cxx.html#af582d708d899e67ead623eac34a22387" target="_top" xlink:title="protected_main">
<polygon fill="none" stroke="#000000" points="630,-.5 630,-19.5 723,-19.5 723,-.5 630,-.5"/>
<text text-anchor="middle" x="676.5" y="-7.5" font-family="Helvetica,sans-Serif" font-size="10.00" fill="#000000">protected_main</text>
</a>
</g>
</g>
<!-- Node247&#45;&gt;Node248 -->
<g id="edge4" class="edge">
<title>Node247&#45;&gt;Node248</title>
<path fill="none" stroke="#191970" d="M604.2653,-10C612.5757,-10 621.2897,-10 629.6749,-10"/>
<polygon fill="#191970" stroke="#191970" points="604.0098,-6.5001 594.0098,-10 604.0098,-13.5001 604.0098,-6.5001"/>
</g>
<!-- Node249 -->
<g id="node6" class="node">
<title>Node249</title>
<g id="a_node6"><a xlink:href="main_8cxx.html#a3c04138a5bfe5d72780bb7e82a18e627" target="_top" xlink:title="main">
<polygon fill="none" stroke="#000000" points="759,-.5 759,-19.5 800,-19.5 800,-.5 759,-.5"/>
<text text-anchor="middle" x="779.5" y="-7.5" font-family="Helvetica,sans-Serif" font-size="10.00" fill="#000000">main</text>
</a>
</g>
</g>
<!-- Node248&#45;&gt;Node249 -->
<g id="edge5" class="edge">
<title>Node248&#45;&gt;Node249</title>
<path fill="none" stroke="#191970" d="M733.2133,-10C742.4322,-10 751.4259,-10 758.9965,-10"/>
<polygon fill="#191970" stroke="#191970" points="733.1782,-6.5001 723.1782,-10 733.1781,-13.5001 733.1782,-6.5001"/>
</g>
</g>
</svg>
