<?xml version="1.0" encoding="UTF-8" standalone="no"?>
<!DOCTYPE svg PUBLIC "-//W3C//DTD SVG 1.1//EN"
 "http://www.w3.org/Graphics/SVG/1.1/DTD/svg11.dtd">
<!-- Generated by graphviz version 2.40.1 (20161225.0304)
 -->
<!-- Title: MapNode::MapNode Pages: 1 -->
<svg width="845pt" height="404pt"
 viewBox="0.00 0.00 845.00 404.31" xmlns="http://www.w3.org/2000/svg" xmlns:xlink="http://www.w3.org/1999/xlink">
<g id="graph0" class="graph" transform="scale(1 1) rotate(0) translate(4 400.3131)">
<title>MapNode::MapNode</title>
<!-- Node0 -->
<g id="node1" class="node">
<title>Node0</title>
<polygon fill="#bfbfbf" stroke="#000000" points="0,-180.5 0,-199.5 114,-199.5 114,-180.5 0,-180.5"/>
<text text-anchor="middle" x="57" y="-187.5" font-family="Helvetica,sans-Serif" font-size="10.00" fill="#000000">MapNode::MapNode</text>
</g>
<!-- Node1 -->
<g id="node2" class="node">
<title>Node1</title>
<g id="a_node2"><a xlink:href="classMapNode.html#a26e55c94192a56990f8a59e7af139a73" target="_top" xlink:title="MapNode::setTileID">
<polygon fill="none" stroke="#000000" points="150,-227.5 150,-246.5 262,-246.5 262,-227.5 150,-227.5"/>
<text text-anchor="middle" x="206" y="-234.5" font-family="Helvetica,sans-Serif" font-size="10.00" fill="#000000">MapNode::setTileID</text>
</a>
</g>
</g>
<!-- Node0&#45;&gt;Node1 -->
<g id="edge1" class="edge">
<title>Node0&#45;&gt;Node1</title>
<path fill="none" stroke="#191970" d="M87.1524,-199.5112C109.7981,-206.6544 141.0392,-216.509 165.8075,-224.3218"/>
<polygon fill="#191970" stroke="#191970" points="165.0474,-227.752 175.6371,-227.4224 167.1532,-221.0763 165.0474,-227.752"/>
</g>
<!-- Node2 -->
<g id="node3" class="node">
<title>Node2</title>
<g id="a_node3"><a xlink:href="classSingleton.html#af5cb1e5749949e2b68416cfb8d378044" target="_top" xlink:title="Get an instance of the singleton. ">
<polygon fill="none" stroke="#000000" points="517,-175 517,-205 651,-205 651,-175 517,-175"/>
<text text-anchor="start" x="525" y="-193" font-family="Helvetica,sans-Serif" font-size="10.00" fill="#000000">Singleton&lt; TileManager</text>
<text text-anchor="middle" x="584" y="-182" font-family="Helvetica,sans-Serif" font-size="10.00" fill="#000000"> &gt;::instance</text>
</a>
</g>
</g>
<!-- Node0&#45;&gt;Node2 -->
<g id="edge20" class="edge">
<title>Node0&#45;&gt;Node2</title>
<path fill="none" stroke="#191970" d="M114.15,-190C209.1441,-190 399.6434,-190 506.5946,-190"/>
<polygon fill="#191970" stroke="#191970" points="506.6779,-193.5001 516.6779,-190 506.6779,-186.5001 506.6779,-193.5001"/>
</g>
<!-- Node4 -->
<g id="node5" class="node">
<title>Node4</title>
<g id="a_node5"><a xlink:href="classTileManager.html#a105151a0c336807e918aff002ffd6101" target="_top" xlink:title="TileManager::getTileLayer">
<polygon fill="none" stroke="#000000" points="313,-341.5 313,-360.5 456,-360.5 456,-341.5 313,-341.5"/>
<text text-anchor="middle" x="384.5" y="-348.5" font-family="Helvetica,sans-Serif" font-size="10.00" fill="#000000">TileManager::getTileLayer</text>
</a>
</g>
</g>
<!-- Node0&#45;&gt;Node4 -->
<g id="edge21" class="edge">
<title>Node0&#45;&gt;Node4</title>
<path fill="none" stroke="#191970" d="M69.2508,-199.5527C86.6831,-212.9439 119.8787,-237.7063 150,-256 213.2007,-294.384 228.4213,-306.971 298,-332 305.3243,-334.6347 313.1345,-336.9704 320.952,-339.0223"/>
<polygon fill="#191970" stroke="#191970" points="320.2735,-342.46 330.8221,-341.4707 321.959,-335.6659 320.2735,-342.46"/>
</g>
<!-- Node9 -->
<g id="node10" class="node">
<title>Node9</title>
<g id="a_node10"><a xlink:href="classMapNode.html#aabbb10c19ddd79e9c519eb4af5e995e0" target="_top" xlink:title="Update texture. ">
<polygon fill="none" stroke="#000000" points="315.5,-95.5 315.5,-114.5 453.5,-114.5 453.5,-95.5 315.5,-95.5"/>
<text text-anchor="middle" x="384.5" y="-102.5" font-family="Helvetica,sans-Serif" font-size="10.00" fill="#000000">MapNode::updateTexture</text>
</a>
</g>
</g>
<!-- Node0&#45;&gt;Node9 -->
<g id="edge22" class="edge">
<title>Node0&#45;&gt;Node9</title>
<path fill="none" stroke="#191970" d="M67.7894,-180.3725C84.2126,-166.3469 117.0659,-140.6966 150,-129 199.7607,-111.3275 258.9338,-105.3728 305.3893,-103.8134"/>
<polygon fill="#191970" stroke="#191970" points="305.5012,-107.3117 315.4012,-103.5382 305.3088,-100.3143 305.5012,-107.3117"/>
</g>
<!-- Node1&#45;&gt;Node2 -->
<g id="edge2" class="edge">
<title>Node1&#45;&gt;Node2</title>
<path fill="none" stroke="#191970" d="M219.9446,-227.4161C237.8969,-220.4223 270.1044,-213.2338 298,-209 368.2625,-198.336 448.8832,-190.8702 506.5802,-187.8959"/>
<polygon fill="#191970" stroke="#191970" points="506.8971,-191.3848 516.7176,-187.409 506.5612,-184.3929 506.8971,-191.3848"/>
</g>
<!-- Node1&#45;&gt;Node2 -->
<g id="edge8" class="edge">
<title>Node1&#45;&gt;Node2</title>
<path fill="none" stroke="#191970" d="M262.2687,-233.194C274.0337,-231.0359 286.3903,-228.7621 298,-227 368.2625,-216.336 448.8832,-208.8702 506.5802,-202.7948"/>
<polygon fill="#191970" stroke="#191970" points="507.1446,-206.2546 516.7176,-201.7151 506.4032,-199.2939 507.1446,-206.2546"/>
</g>
<!-- Node3 -->
<g id="node4" class="node">
<title>Node3</title>
<g id="a_node4"><a xlink:href="classTileManager.html#a8ee071ff8b24926288437d310f9bc714" target="_top" xlink:title="TileManager::getTileData">
<polygon fill="none" stroke="#000000" points="514,-360.5 514,-379.5 654,-379.5 654,-360.5 514,-360.5"/>
<text text-anchor="middle" x="584" y="-367.5" font-family="Helvetica,sans-Serif" font-size="10.00" fill="#000000">TileManager::getTileData</text>
</a>
</g>
</g>
<!-- Node1&#45;&gt;Node3 -->
<g id="edge3" class="edge">
<title>Node1&#45;&gt;Node3</title>
<path fill="none" stroke="#191970" d="M209.1639,-246.7869C218.1432,-272.712 246.5258,-343.0171 298,-370 375.3714,-410.5583 481.4777,-395.369 540.279,-381.9012"/>
<polygon fill="#191970" stroke="#191970" points="541.4244,-385.2264 550.3424,-379.5063 539.8038,-378.4166 541.4244,-385.2264"/>
</g>
<!-- Node1&#45;&gt;Node4 -->
<g id="edge4" class="edge">
<title>Node1&#45;&gt;Node4</title>
<path fill="none" stroke="#191970" d="M214.8887,-246.7997C235.937,-269.9137 287.8242,-326.3237 298,-332 302.1458,-334.3126 306.5497,-336.3437 311.0893,-338.1277"/>
<polygon fill="#191970" stroke="#191970" points="309.9637,-341.4419 320.5585,-341.4532 312.2832,-334.8373 309.9637,-341.4419"/>
</g>
<!-- Node5 -->
<g id="node6" class="node">
<title>Node5</title>
<g id="a_node6"><a xlink:href="classMapNode.html#abda77a5705086a50cbc5755d10883e8a" target="_top" xlink:title="Sets a node to be Transparent This sets a node to be Transparent. &#160;transparencyFactor (0&#45;1...">
<polygon fill="none" stroke="#000000" points="298,-303.5 298,-322.5 471,-322.5 471,-303.5 298,-303.5"/>
<text text-anchor="middle" x="384.5" y="-310.5" font-family="Helvetica,sans-Serif" font-size="10.00" fill="#000000">MapNode::setNodeTransparency</text>
</a>
</g>
</g>
<!-- Node1&#45;&gt;Node5 -->
<g id="edge7" class="edge">
<title>Node1&#45;&gt;Node5</title>
<path fill="none" stroke="#191970" d="M218.3605,-246.5777C235.3638,-259.2878 267.3571,-281.5667 298,-294 304.3178,-296.5634 311.0422,-298.8089 317.8429,-300.7696"/>
<polygon fill="#191970" stroke="#191970" points="317.2577,-304.2361 327.8227,-303.4424 319.0687,-297.4744 317.2577,-304.2361"/>
</g>
<!-- Node6 -->
<g id="node7" class="node">
<title>Node6</title>
<g id="a_node7"><a xlink:href="classMapNode.html#a06be1917d4b251010ae78d8a2b7bc88a" target="_top" xlink:title="demolish specific layer of a Node. ">
<polygon fill="none" stroke="#000000" points="314.5,-265.5 314.5,-284.5 454.5,-284.5 454.5,-265.5 314.5,-265.5"/>
<text text-anchor="middle" x="384.5" y="-272.5" font-family="Helvetica,sans-Serif" font-size="10.00" fill="#000000">MapNode::demolishLayer</text>
</a>
</g>
</g>
<!-- Node1&#45;&gt;Node6 -->
<g id="edge9" class="edge">
<title>Node1&#45;&gt;Node6</title>
<path fill="none" stroke="#191970" d="M251.0431,-246.589C275.0225,-251.6939 304.6979,-258.0113 329.9721,-263.3918"/>
<polygon fill="#191970" stroke="#191970" points="329.2712,-266.821 339.7808,-265.4799 330.7288,-259.9744 329.2712,-266.821"/>
</g>
<!-- Node8 -->
<g id="node9" class="node">
<title>Node8</title>
<g id="a_node9"><a xlink:href="classMapNode.html#ae38d4ab8e73fc9c44e404f3c9a196953" target="_top" xlink:title="MapNode::isLayerOccupied">
<polygon fill="none" stroke="#000000" points="310,-227.5 310,-246.5 459,-246.5 459,-227.5 310,-227.5"/>
<text text-anchor="middle" x="384.5" y="-234.5" font-family="Helvetica,sans-Serif" font-size="10.00" fill="#000000">MapNode::isLayerOccupied</text>
</a>
</g>
</g>
<!-- Node1&#45;&gt;Node8 -->
<g id="edge11" class="edge">
<title>Node1&#45;&gt;Node8</title>
<path fill="none" stroke="#191970" d="M262.4785,-237C274.3258,-237 287.0677,-237 299.6909,-237"/>
<polygon fill="#191970" stroke="#191970" points="299.7696,-240.5001 309.7696,-237 299.7696,-233.5001 299.7696,-240.5001"/>
</g>
<!-- Node1&#45;&gt;Node9 -->
<g id="edge12" class="edge">
<title>Node1&#45;&gt;Node9</title>
<path fill="none" stroke="#191970" d="M218.4146,-227.3757C236.0106,-213.7756 269.2637,-188.2241 298,-167 319.7686,-150.9221 344.9433,-132.9463 362.5006,-120.5075"/>
<polygon fill="#191970" stroke="#191970" points="364.7855,-123.1785 370.9292,-114.5469 360.7437,-117.4632 364.7855,-123.1785"/>
</g>
<!-- Node4&#45;&gt;Node2 -->
<g id="edge5" class="edge">
<title>Node4&#45;&gt;Node2</title>
<path fill="none" stroke="#191970" d="M455.0479,-341.4272C460.7684,-338.9276 466.1883,-335.8303 471,-332 500.2419,-308.7223 484.3132,-285.7027 507,-256 520.0751,-238.8814 538.2392,-223.051 553.6419,-211.1872"/>
<polygon fill="#191970" stroke="#191970" points="555.964,-213.8208 561.865,-205.0214 551.7646,-208.2203 555.964,-213.8208"/>
</g>
<!-- Node4&#45;&gt;Node3 -->
<g id="edge6" class="edge">
<title>Node4&#45;&gt;Node3</title>
<path fill="none" stroke="#191970" d="M456.2422,-357.8326C471.637,-359.2988 488.0004,-360.8572 503.6955,-362.352"/>
<polygon fill="#191970" stroke="#191970" points="503.6093,-365.8595 513.8961,-363.3234 504.273,-358.891 503.6093,-365.8595"/>
</g>
<!-- Node7 -->
<g id="node8" class="node">
<title>Node7</title>
<g id="a_node8"><a xlink:href="classMapNode.html#a67296a58e167356efbabeaac3226b5d3" target="_top" xlink:title="get iso coordinates of this node gets the iso coordinates of this node ">
<polygon fill="none" stroke="#000000" points="512.5,-265.5 512.5,-284.5 655.5,-284.5 655.5,-265.5 512.5,-265.5"/>
<text text-anchor="middle" x="584" y="-272.5" font-family="Helvetica,sans-Serif" font-size="10.00" fill="#000000">MapNode::getCoordinates</text>
</a>
</g>
</g>
<!-- Node6&#45;&gt;Node7 -->
<g id="edge10" class="edge">
<title>Node6&#45;&gt;Node7</title>
<path fill="none" stroke="#191970" d="M454.5557,-275C469.9363,-275 486.3532,-275 502.1508,-275"/>
<polygon fill="#191970" stroke="#191970" points="502.4256,-278.5001 512.4256,-275 502.4255,-271.5001 502.4256,-278.5001"/>
</g>
<!-- Node9&#45;&gt;Node2 -->
<g id="edge13" class="edge">
<title>Node9&#45;&gt;Node2</title>
<path fill="none" stroke="#191970" d="M453.8701,-111.6731C459.8378,-114.0519 465.6368,-116.8224 471,-120 490.7394,-131.6952 487.4473,-144.9954 507,-157 517.0599,-163.1764 528.8446,-167.8876 540.1271,-171.7502"/>
<polygon fill="#191970" stroke="#191970" points="539.264,-175.1505 549.8567,-174.9417 541.4458,-168.4992 539.264,-175.1505"/>
</g>
<!-- Node9&#45;&gt;Node2 -->
<g id="edge19" class="edge">
<title>Node9&#45;&gt;Node2</title>
<path fill="none" stroke="#191970" d="M404.5637,-114.512C422.8911,-119.4859 450.2176,-125.6868 471,-138 490.7394,-149.6952 487.4473,-162.9954 507,-175 507.2909,-175.1786 507.5832,-175.3559 507.8769,-175.5321"/>
<polygon fill="#191970" stroke="#191970" points="506.2695,-178.6416 516.7344,-180.2956 509.585,-172.4766 506.2695,-178.6416"/>
</g>
<!-- Node10 -->
<g id="node11" class="node">
<title>Node10</title>
<g id="a_node11"><a xlink:href="classTileManager.html#a519b2d5c91877025a2faa0dff3ba099c" target="_top" xlink:title="TileManager::calculateSlope\lOrientation">
<polygon fill="none" stroke="#000000" points="507,-126 507,-156 661,-156 661,-126 507,-126"/>
<text text-anchor="start" x="515" y="-144" font-family="Helvetica,sans-Serif" font-size="10.00" fill="#000000">TileManager::calculateSlope</text>
<text text-anchor="middle" x="584" y="-133" font-family="Helvetica,sans-Serif" font-size="10.00" fill="#000000">Orientation</text>
</a>
</g>
</g>
<!-- Node9&#45;&gt;Node10 -->
<g id="edge14" class="edge">
<title>Node9&#45;&gt;Node10</title>
<path fill="none" stroke="#191970" d="M437.1772,-114.5057C455.5306,-117.8176 476.6427,-121.6272 497.0305,-125.3063"/>
<polygon fill="#191970" stroke="#191970" points="496.503,-128.7675 506.9656,-127.0991 497.7462,-121.8788 496.503,-128.7675"/>
</g>
<!-- Node11 -->
<g id="node12" class="node">
<title>Node11</title>
<g id="a_node12"><a xlink:href="classTileManager.html#a05d41a7f0858cff242f027a08e06ea43" target="_top" xlink:title="TileManager::calculateTile\lOrientation">
<polygon fill="none" stroke="#000000" points="511.5,-77 511.5,-107 656.5,-107 656.5,-77 511.5,-77"/>
<text text-anchor="start" x="519.5" y="-95" font-family="Helvetica,sans-Serif" font-size="10.00" fill="#000000">TileManager::calculateTile</text>
<text text-anchor="middle" x="584" y="-84" font-family="Helvetica,sans-Serif" font-size="10.00" fill="#000000">Orientation</text>
</a>
</g>
</g>
<!-- Node9&#45;&gt;Node11 -->
<g id="edge15" class="edge">
<title>Node9&#45;&gt;Node11</title>
<path fill="none" stroke="#191970" d="M453.7155,-100.4897C468.948,-99.4971 485.2317,-98.436 500.9465,-97.412"/>
<polygon fill="#191970" stroke="#191970" points="501.4231,-100.8885 511.1743,-96.7455 500.9679,-93.9033 501.4231,-100.8885"/>
</g>
<!-- Node12 -->
<g id="node13" class="node">
<title>Node12</title>
<g id="a_node13"><a xlink:href="classMapNode.html#afb1cbc0f9e987b7befced46220dd9277" target="_top" xlink:title="check if specific layer can be autotiled. ">
<polygon fill="none" stroke="#000000" points="512,-38.5 512,-57.5 656,-57.5 656,-38.5 512,-38.5"/>
<text text-anchor="middle" x="584" y="-45.5" font-family="Helvetica,sans-Serif" font-size="10.00" fill="#000000">MapNode::isLayerAutoTile</text>
</a>
</g>
</g>
<!-- Node9&#45;&gt;Node12 -->
<g id="edge16" class="edge">
<title>Node9&#45;&gt;Node12</title>
<path fill="none" stroke="#191970" d="M413.5637,-95.4549C438.2952,-87.4602 474.8215,-75.9527 507,-67 515.5778,-64.6135 524.7351,-62.2204 533.6318,-59.9762"/>
<polygon fill="#191970" stroke="#191970" points="534.6629,-63.3264 543.521,-57.5141 532.9716,-56.5338 534.6629,-63.3264"/>
</g>
<!-- Node14 -->
<g id="node15" class="node">
<title>Node14</title>
<g id="a_node15"><a xlink:href="classMapNode.html#ab34930f43b60310cd475f514e969a401" target="_top" xlink:title="get TileID of specific layer inside NodeData. ">
<polygon fill="none" stroke="#000000" points="527.5,-.5 527.5,-19.5 640.5,-19.5 640.5,-.5 527.5,-.5"/>
<text text-anchor="middle" x="584" y="-7.5" font-family="Helvetica,sans-Serif" font-size="10.00" fill="#000000">MapNode::getTileID</text>
</a>
</g>
</g>
<!-- Node9&#45;&gt;Node14 -->
<g id="edge18" class="edge">
<title>Node9&#45;&gt;Node14</title>
<path fill="none" stroke="#191970" d="M397.0001,-95.3717C418.3845,-79.3448 463.867,-47.1655 507,-29 512.8293,-26.545 519.0459,-24.3593 525.3231,-22.4252"/>
<polygon fill="#191970" stroke="#191970" points="526.5454,-25.7157 535.1903,-19.5906 524.6127,-18.9878 526.5454,-25.7157"/>
</g>
<!-- Node13 -->
<g id="node14" class="node">
<title>Node13</title>
<g id="a_node14"><a xlink:href="classMapNode.html#a64cb9a4523c9e78f256fde42f1dee43d" target="_top" xlink:title="check if specific Tile Data is autotile category. ">
<polygon fill="none" stroke="#000000" points="697,-38.5 697,-57.5 837,-57.5 837,-38.5 697,-38.5"/>
<text text-anchor="middle" x="767" y="-45.5" font-family="Helvetica,sans-Serif" font-size="10.00" fill="#000000">MapNode::isDataAutoTile</text>
</a>
</g>
</g>
<!-- Node12&#45;&gt;Node13 -->
<g id="edge17" class="edge">
<title>Node12&#45;&gt;Node13</title>
<path fill="none" stroke="#191970" d="M656.0638,-48C666.1158,-48 676.4959,-48 686.688,-48"/>
<polygon fill="#191970" stroke="#191970" points="686.7984,-51.5001 696.7984,-48 686.7983,-44.5001 686.7984,-51.5001"/>
</g>
</g>
</svg>
