<?xml version="1.0" encoding="UTF-8" standalone="no"?>
<!DOCTYPE svg PUBLIC "-//W3C//DTD SVG 1.1//EN"
 "http://www.w3.org/Graphics/SVG/1.1/DTD/svg11.dtd">
<!-- Generated by graphviz version 2.40.1 (20161225.0304)
 -->
<!-- Title: AudioMixer::AudioMixer Pages: 1 -->
<svg width="289pt" height="166pt"
 viewBox="0.00 0.00 289.00 165.50" xmlns="http://www.w3.org/2000/svg" xmlns:xlink="http://www.w3.org/1999/xlink">
<g id="graph0" class="graph" transform="scale(1 1) rotate(0) translate(4 161.5)">
<title>AudioMixer::AudioMixer</title>
<!-- Node0 -->
<g id="node1" class="node">
<title>Node0</title>
<polygon fill="#bfbfbf" stroke="#000000" points="0,-72 0,-91 132,-91 132,-72 0,-72"/>
<text text-anchor="middle" x="66" y="-79" font-family="Helvetica,sans-Serif" font-size="10.00" fill="#000000">AudioMixer::AudioMixer</text>
</g>
<!-- Node1 -->
<g id="node2" class="node">
<title>Node1</title>
<g id="a_node2"><a xlink:href="namespacefs.html#ac2d9a48234828392a1f6a6dfce785830" target="_top" xlink:title="Read contents from a file as string. ">
<polygon fill="none" stroke="#000000" points="169.5,-138 169.5,-157 279.5,-157 279.5,-138 169.5,-138"/>
<text text-anchor="middle" x="224.5" y="-145" font-family="Helvetica,sans-Serif" font-size="10.00" fill="#000000">fs::readFileAsString</text>
</a>
</g>
</g>
<!-- Node0&#45;&gt;Node1 -->
<g id="edge1" class="edge">
<title>Node0&#45;&gt;Node1</title>
<path fill="none" stroke="#191970" d="M85.2839,-91.1406C105.5959,-101.1158 138.6444,-116.8398 168,-128.5 173.2297,-130.5773 178.7868,-132.6293 184.2963,-134.5731"/>
<polygon fill="#191970" stroke="#191970" points="183.4862,-137.9956 194.0809,-137.937 185.7621,-131.3759 183.4862,-137.9956"/>
</g>
<!-- Node2 -->
<g id="node3" class="node">
<title>Node2</title>
<g id="a_node3"><a xlink:href="classSingleton.html#af5cb1e5749949e2b68416cfb8d378044" target="_top" xlink:title="Get an instance of the singleton. ">
<polygon fill="none" stroke="#000000" points="168,-88.5 168,-118.5 281,-118.5 281,-88.5 168,-88.5"/>
<text text-anchor="start" x="176" y="-106.5" font-family="Helvetica,sans-Serif" font-size="10.00" fill="#000000">Singleton&lt; Settings</text>
<text text-anchor="middle" x="224.5" y="-95.5" font-family="Helvetica,sans-Serif" font-size="10.00" fill="#000000"> &gt;::instance</text>
</a>
</g>
</g>
<!-- Node0&#45;&gt;Node2 -->
<g id="edge2" class="edge">
<title>Node0&#45;&gt;Node2</title>
<path fill="none" stroke="#191970" d="M132.2999,-90.7025C140.6225,-91.8577 149.141,-93.0401 157.4747,-94.1968"/>
<polygon fill="#191970" stroke="#191970" points="157.1365,-97.6833 167.5228,-95.5915 158.099,-90.7498 157.1365,-97.6833"/>
</g>
<!-- Node3 -->
<g id="node4" class="node">
<title>Node3</title>
<g id="a_node4"><a xlink:href="structStrongType.html#acc66e6d6b9c95193a97a839560499933" target="_top" xlink:title="StrongType::get">
<polygon fill="none" stroke="#000000" points="178.5,-50 178.5,-69 270.5,-69 270.5,-50 178.5,-50"/>
<text text-anchor="middle" x="224.5" y="-57" font-family="Helvetica,sans-Serif" font-size="10.00" fill="#000000">StrongType::get</text>
</a>
</g>
</g>
<!-- Node0&#45;&gt;Node3 -->
<g id="edge3" class="edge">
<title>Node0&#45;&gt;Node3</title>
<path fill="none" stroke="#191970" d="M132.2999,-72.2975C144.2411,-70.64 156.5854,-68.9266 168.2087,-67.3133"/>
<polygon fill="#191970" stroke="#191970" points="168.7853,-70.7669 178.2092,-65.9252 167.8229,-63.8334 168.7853,-70.7669"/>
</g>
<!-- Node4 -->
<g id="node5" class="node">
<title>Node4</title>
<g id="a_node5"><a xlink:href="classAudioMixer.html#ae6fae36e162f7d34c14b7cafbfed00bf" target="_top" xlink:title="Get a descriptive error message from an error code. ">
<polygon fill="none" stroke="#000000" points="171,-.5 171,-30.5 278,-30.5 278,-.5 171,-.5"/>
<text text-anchor="start" x="179" y="-18.5" font-family="Helvetica,sans-Serif" font-size="10.00" fill="#000000">AudioMixer::get_al</text>
<text text-anchor="middle" x="224.5" y="-7.5" font-family="Helvetica,sans-Serif" font-size="10.00" fill="#000000">_error_msg</text>
</a>
</g>
</g>
<!-- Node0&#45;&gt;Node4 -->
<g id="edge4" class="edge">
<title>Node0&#45;&gt;Node4</title>
<path fill="none" stroke="#191970" d="M89.0473,-71.903C112.5219,-62.1281 149.5512,-46.709 178.9646,-34.4611"/>
<polygon fill="#191970" stroke="#191970" points="180.3338,-37.6824 188.22,-30.6071 177.6429,-31.2202 180.3338,-37.6824"/>
</g>
</g>
</svg>
