<?xml version="1.0" encoding="UTF-8" standalone="no"?>
<!DOCTYPE svg PUBLIC "-//W3C//DTD SVG 1.1//EN"
 "http://www.w3.org/Graphics/SVG/1.1/DTD/svg11.dtd">
<!-- Generated by graphviz version 2.40.1 (20161225.0304)
 -->
<!-- Title: Layout Pages: 1 -->
<svg width="203pt" height="376pt"
 viewBox="0.00 0.00 203.00 376.00" xmlns="http://www.w3.org/2000/svg" xmlns:xlink="http://www.w3.org/1999/xlink">
<g id="graph0" class="graph" transform="scale(1 1) rotate(0) translate(4 372)">
<title>Layout</title>
<!-- Node0 -->
<g id="node1" class="node">
<title>Node0</title>
<polygon fill="#bfbfbf" stroke="#000000" points="0,-.5 0,-123.5 195,-123.5 195,-.5 0,-.5"/>
<text text-anchor="middle" x="97.5" y="-111.5" font-family="Helvetica,sans-Serif" font-size="10.00" fill="#000000">Layout</text>
<polyline fill="none" stroke="#000000" points="0,-104.5 195,-104.5 "/>
<text text-anchor="start" x="8" y="-92.5" font-family="Helvetica,sans-Serif" font-size="10.00" fill="#000000">&#45; Singleton</text>
<text text-anchor="start" x="8" y="-81.5" font-family="Helvetica,sans-Serif" font-size="10.00" fill="#000000">&#45; m_Window</text>
<polyline fill="none" stroke="#000000" points="0,-74.5 195,-74.5 "/>
<text text-anchor="start" x="8" y="-62.5" font-family="Helvetica,sans-Serif" font-size="10.00" fill="#000000">+ arrangeElements()</text>
<text text-anchor="start" x="8" y="-51.5" font-family="Helvetica,sans-Serif" font-size="10.00" fill="#000000">+ setWindow()</text>
<text text-anchor="start" x="8" y="-40.5" font-family="Helvetica,sans-Serif" font-size="10.00" fill="#000000">&#45; Layout()</text>
<text text-anchor="start" x="8" y="-29.5" font-family="Helvetica,sans-Serif" font-size="10.00" fill="#000000">&#45; ~Layout()</text>
<text text-anchor="start" x="8" y="-18.5" font-family="Helvetica,sans-Serif" font-size="10.00" fill="#000000">&#45; arrangeChildElements()</text>
<text text-anchor="start" x="8" y="-7.5" font-family="Helvetica,sans-Serif" font-size="10.00" fill="#000000">&#45; calculateLayoutGroupDimensions()</text>
</g>
<!-- Node1 -->
<g id="node2" class="node">
<title>Node1</title>
<g id="a_node2"><a xlink:href="classSingleton.html" target="_top" xlink:title="{Singleton\&lt; Layout \&gt;\n||+ instance()\l# Singleton()\l# ~Singleton()\l}">
<polygon fill="none" stroke="#000000" points="38.5,-161.5 38.5,-240.5 156.5,-240.5 156.5,-161.5 38.5,-161.5"/>
<text text-anchor="middle" x="97.5" y="-228.5" font-family="Helvetica,sans-Serif" font-size="10.00" fill="#000000">Singleton&lt; Layout &gt;</text>
<polyline fill="none" stroke="#000000" points="38.5,-221.5 156.5,-221.5 "/>
<text text-anchor="middle" x="97.5" y="-209.5" font-family="Helvetica,sans-Serif" font-size="10.00" fill="#000000"> </text>
<polyline fill="none" stroke="#000000" points="38.5,-202.5 156.5,-202.5 "/>
<text text-anchor="start" x="46.5" y="-190.5" font-family="Helvetica,sans-Serif" font-size="10.00" fill="#000000">+ instance()</text>
<text text-anchor="start" x="46.5" y="-179.5" font-family="Helvetica,sans-Serif" font-size="10.00" fill="#000000"># Singleton()</text>
<text text-anchor="start" x="46.5" y="-168.5" font-family="Helvetica,sans-Serif" font-size="10.00" fill="#000000"># ~Singleton()</text>
</a>
</g>
</g>
<!-- Node1&#45;&gt;Node0 -->
<g id="edge1" class="edge">
<title>Node1&#45;&gt;Node0</title>
<path fill="none" stroke="#191970" d="M97.5,-150.996C97.5,-142.1171 97.5,-132.7763 97.5,-123.6203"/>
<polygon fill="none" stroke="#191970" points="94.0001,-151.1681 97.5,-161.1682 101.0001,-151.1682 94.0001,-151.1681"/>
</g>
<!-- Node2 -->
<g id="node3" class="node">
<title>Node2</title>
<g id="a_node3"><a xlink:href="classSingleton.html" target="_top" xlink:title="Abstract Singleton implementation. ">
<polygon fill="none" stroke="#000000" points="52,-288.5 52,-367.5 143,-367.5 143,-288.5 52,-288.5"/>
<text text-anchor="middle" x="97.5" y="-355.5" font-family="Helvetica,sans-Serif" font-size="10.00" fill="#000000">Singleton&lt; T &gt;</text>
<polyline fill="none" stroke="#000000" points="52,-348.5 143,-348.5 "/>
<text text-anchor="middle" x="97.5" y="-336.5" font-family="Helvetica,sans-Serif" font-size="10.00" fill="#000000"> </text>
<polyline fill="none" stroke="#000000" points="52,-329.5 143,-329.5 "/>
<text text-anchor="start" x="60" y="-317.5" font-family="Helvetica,sans-Serif" font-size="10.00" fill="#000000">+ instance()</text>
<text text-anchor="start" x="60" y="-306.5" font-family="Helvetica,sans-Serif" font-size="10.00" fill="#000000"># Singleton()</text>
<text text-anchor="start" x="60" y="-295.5" font-family="Helvetica,sans-Serif" font-size="10.00" fill="#000000"># ~Singleton()</text>
</a>
</g>
</g>
<!-- Node2&#45;&gt;Node1 -->
<g id="edge2" class="edge">
<title>Node2&#45;&gt;Node1</title>
<path fill="none" stroke="#ffa500" d="M97.5,-277.9789C97.5,-265.5999 97.5,-252.5045 97.5,-240.6938"/>
<polygon fill="#ffa500" stroke="#ffa500" points="94.0001,-278.1648 97.5,-288.1649 101.0001,-278.1649 94.0001,-278.1648"/>
<text text-anchor="middle" x="127" y="-262" font-family="Helvetica,sans-Serif" font-size="10.00" fill="#000000"> &lt; Layout &gt;</text>
</g>
</g>
</svg>
