<?xml version="1.0" encoding="UTF-8" standalone="no"?>
<!DOCTYPE svg PUBLIC "-//W3C//DTD SVG 1.1//EN"
 "http://www.w3.org/Graphics/SVG/1.1/DTD/svg11.dtd">
<!-- Generated by graphviz version 2.40.1 (20161225.0304)
 -->
<!-- Title: Window::Window Pages: 1 -->
<svg width="633pt" height="218pt"
 viewBox="0.00 0.00 633.00 218.00" xmlns="http://www.w3.org/2000/svg" xmlns:xlink="http://www.w3.org/1999/xlink">
<g id="graph0" class="graph" transform="scale(1 1) rotate(0) translate(4 214)">
<title>Window::Window</title>
<!-- Node0 -->
<g id="node1" class="node">
<title>Node0</title>
<polygon fill="#bfbfbf" stroke="#000000" points="0,-114.5 0,-133.5 100,-133.5 100,-114.5 0,-114.5"/>
<text text-anchor="middle" x="50" y="-121.5" font-family="Helvetica,sans-Serif" font-size="10.00" fill="#000000">Window::Window</text>
</g>
<!-- Node1 -->
<g id="node2" class="node">
<title>Node1</title>
<g id="a_node2"><a xlink:href="namespacefs.html#a28e4c1324680c188092ecfe5fd8a91a3" target="_top" xlink:title="fs::getBasePath">
<polygon fill="none" stroke="#000000" points="153,-190.5 153,-209.5 245,-209.5 245,-190.5 153,-190.5"/>
<text text-anchor="middle" x="199" y="-197.5" font-family="Helvetica,sans-Serif" font-size="10.00" fill="#000000">fs::getBasePath</text>
</a>
</g>
</g>
<!-- Node0&#45;&gt;Node1 -->
<g id="edge1" class="edge">
<title>Node0&#45;&gt;Node1</title>
<path fill="none" stroke="#191970" d="M61.8594,-133.5057C77.8576,-145.9307 107.6274,-167.6735 136,-181 140.7258,-183.2197 145.7722,-185.2524 150.8741,-187.0942"/>
<polygon fill="#191970" stroke="#191970" points="150.0898,-190.5232 160.684,-190.3995 152.325,-183.8897 150.0898,-190.5232"/>
</g>
<!-- Node2 -->
<g id="node3" class="node">
<title>Node2</title>
<g id="a_node3"><a xlink:href="namespacefs.html#a5ac40d33d614ee6213b3296869d2fc6f" target="_top" xlink:title="Read contents from a PNG file. ">
<polygon fill="none" stroke="#000000" points="153.5,-152.5 153.5,-171.5 244.5,-171.5 244.5,-152.5 153.5,-152.5"/>
<text text-anchor="middle" x="199" y="-159.5" font-family="Helvetica,sans-Serif" font-size="10.00" fill="#000000">fs::readPNGFile</text>
</a>
</g>
</g>
<!-- Node0&#45;&gt;Node2 -->
<g id="edge2" class="edge">
<title>Node0&#45;&gt;Node2</title>
<path fill="none" stroke="#191970" d="M87.599,-133.589C107.084,-138.5583 131.0745,-144.6767 151.7958,-149.9613"/>
<polygon fill="#191970" stroke="#191970" points="151.1166,-153.4001 161.6714,-152.4799 152.8465,-146.6172 151.1166,-153.4001"/>
</g>
<!-- Node3 -->
<g id="node4" class="node">
<title>Node3</title>
<g id="a_node4"><a xlink:href="classPixelBuffer.html#a7571d255af3979a30246e5a6c122ddd3" target="_top" xlink:title="Convert to SDL_Surface. ">
<polygon fill="none" stroke="#000000" points="138,-114.5 138,-133.5 260,-133.5 260,-114.5 138,-114.5"/>
<text text-anchor="middle" x="199" y="-121.5" font-family="Helvetica,sans-Serif" font-size="10.00" fill="#000000">PixelBuffer::toSurface</text>
</a>
</g>
</g>
<!-- Node0&#45;&gt;Node3 -->
<g id="edge3" class="edge">
<title>Node0&#45;&gt;Node3</title>
<path fill="none" stroke="#191970" d="M100.0293,-124C108.9698,-124 118.4391,-124 127.8375,-124"/>
<polygon fill="#191970" stroke="#191970" points="127.9796,-127.5001 137.9795,-124 127.9795,-120.5001 127.9796,-127.5001"/>
</g>
<!-- Node8 -->
<g id="node9" class="node">
<title>Node8</title>
<g id="a_node9"><a xlink:href="classSubject.html#a7485d7b20255cf08ff713f45280c3f90" target="_top" xlink:title="Adds an observer to listen to Subject&#39;s events. ">
<polygon fill="none" stroke="#000000" points="138.5,-76.5 138.5,-95.5 259.5,-95.5 259.5,-76.5 138.5,-76.5"/>
<text text-anchor="middle" x="199" y="-83.5" font-family="Helvetica,sans-Serif" font-size="10.00" fill="#000000">Subject::addObserver</text>
</a>
</g>
</g>
<!-- Node0&#45;&gt;Node8 -->
<g id="edge9" class="edge">
<title>Node0&#45;&gt;Node8</title>
<path fill="none" stroke="#191970" d="M87.599,-114.411C107.084,-109.4417 131.0745,-103.3233 151.7958,-98.0387"/>
<polygon fill="#191970" stroke="#191970" points="152.8465,-101.3828 161.6714,-95.5201 151.1166,-94.5999 152.8465,-101.3828"/>
</g>
<!-- Node9 -->
<g id="node10" class="node">
<title>Node9</title>
<g id="a_node10"><a xlink:href="classMouseState.html#a91b56ec7e5254f1b7a823bdd58aedd41" target="_top" xlink:title="MouseState::setCursor">
<polygon fill="none" stroke="#000000" points="136,-33.5 136,-52.5 262,-52.5 262,-33.5 136,-33.5"/>
<text text-anchor="middle" x="199" y="-40.5" font-family="Helvetica,sans-Serif" font-size="10.00" fill="#000000">MouseState::setCursor</text>
</a>
</g>
</g>
<!-- Node0&#45;&gt;Node9 -->
<g id="edge10" class="edge">
<title>Node0&#45;&gt;Node9</title>
<path fill="none" stroke="#191970" d="M62.5665,-114.3763C78.8529,-102.2142 108.4374,-81.1624 136,-67 143.707,-63.04 152.225,-59.3632 160.4405,-56.1371"/>
<polygon fill="#191970" stroke="#191970" points="161.7641,-59.3785 169.8791,-52.5669 159.2875,-52.8313 161.7641,-59.3785"/>
</g>
<!-- Node4 -->
<g id="node5" class="node">
<title>Node4</title>
<g id="a_node5"><a xlink:href="classPixelBuffer.html#a14b14bfb06b1478467592f66a7bb5ca5" target="_top" xlink:title="Read&#45;only access to the bounds of the PixelBuffer. ">
<polygon fill="none" stroke="#000000" points="333,-158.5 333,-177.5 444,-177.5 444,-158.5 333,-158.5"/>
<text text-anchor="middle" x="388.5" y="-165.5" font-family="Helvetica,sans-Serif" font-size="10.00" fill="#000000">PixelBuffer::bounds</text>
</a>
</g>
</g>
<!-- Node3&#45;&gt;Node4 -->
<g id="edge4" class="edge">
<title>Node3&#45;&gt;Node4</title>
<path fill="none" stroke="#191970" d="M235.5863,-133.6143C254.2257,-138.4169 277.274,-144.2095 298,-149 308.7783,-151.4912 320.311,-154.0179 331.4111,-156.3805"/>
<polygon fill="#191970" stroke="#191970" points="330.9423,-159.8585 341.4495,-158.4983 332.3874,-153.0093 330.9423,-159.8585"/>
</g>
<!-- Node5 -->
<g id="node6" class="node">
<title>Node5</title>
<g id="a_node6"><a xlink:href="classRectangle.html#a6d7591d194230afb71ac2efcb8fd782f" target="_top" xlink:title="Rectangle::width">
<polygon fill="none" stroke="#000000" points="339.5,-120.5 339.5,-139.5 437.5,-139.5 437.5,-120.5 339.5,-120.5"/>
<text text-anchor="middle" x="388.5" y="-127.5" font-family="Helvetica,sans-Serif" font-size="10.00" fill="#000000">Rectangle::width</text>
</a>
</g>
</g>
<!-- Node3&#45;&gt;Node5 -->
<g id="edge5" class="edge">
<title>Node3&#45;&gt;Node5</title>
<path fill="none" stroke="#191970" d="M260.0021,-125.9315C282.1389,-126.6324 307.1029,-127.4228 329.0995,-128.1192"/>
<polygon fill="#191970" stroke="#191970" points="329.1984,-131.624 339.3042,-128.4423 329.42,-124.6275 329.1984,-131.624"/>
</g>
<!-- Node7 -->
<g id="node8" class="node">
<title>Node7</title>
<g id="a_node8"><a xlink:href="classRectangle.html#a21cbebe8e941c0c92d7eba0f7badcb6a" target="_top" xlink:title="Rectangle::height">
<polygon fill="none" stroke="#000000" points="338,-82.5 338,-101.5 439,-101.5 439,-82.5 338,-82.5"/>
<text text-anchor="middle" x="388.5" y="-89.5" font-family="Helvetica,sans-Serif" font-size="10.00" fill="#000000">Rectangle::height</text>
</a>
</g>
</g>
<!-- Node3&#45;&gt;Node7 -->
<g id="edge7" class="edge">
<title>Node3&#45;&gt;Node7</title>
<path fill="none" stroke="#191970" d="M255.3432,-114.4856C278.152,-110.634 304.5351,-106.1788 327.7708,-102.2551"/>
<polygon fill="#191970" stroke="#191970" points="328.58,-105.6681 337.8575,-100.5518 327.4143,-98.7658 328.58,-105.6681"/>
</g>
<!-- Node6 -->
<g id="node7" class="node">
<title>Node6</title>
<g id="a_node7"><a xlink:href="classRectangle.html#ace89ac3a7085543f3f60449fb5cdc8af" target="_top" xlink:title="Rectangle::isEmpty">
<polygon fill="none" stroke="#000000" points="515,-101.5 515,-120.5 625,-120.5 625,-101.5 515,-101.5"/>
<text text-anchor="middle" x="570" y="-108.5" font-family="Helvetica,sans-Serif" font-size="10.00" fill="#000000">Rectangle::isEmpty</text>
</a>
</g>
</g>
<!-- Node5&#45;&gt;Node6 -->
<g id="edge6" class="edge">
<title>Node5&#45;&gt;Node6</title>
<path fill="none" stroke="#191970" d="M437.6165,-124.8583C458.2829,-122.6949 482.6269,-120.1465 504.7658,-117.8289"/>
<polygon fill="#191970" stroke="#191970" points="505.1802,-121.3048 514.7614,-116.7826 504.4513,-114.3428 505.1802,-121.3048"/>
</g>
<!-- Node7&#45;&gt;Node6 -->
<g id="edge8" class="edge">
<title>Node7&#45;&gt;Node6</title>
<path fill="none" stroke="#191970" d="M439.0579,-97.2926C459.4318,-99.4254 483.1927,-101.9127 504.8385,-104.1787"/>
<polygon fill="#191970" stroke="#191970" points="504.6316,-107.6761 514.9416,-105.2363 505.3604,-100.7141 504.6316,-107.6761"/>
</g>
<!-- Node10 -->
<g id="node11" class="node">
<title>Node10</title>
<g id="a_node11"><a xlink:href="classSubject.html#ae4bcb495f832df82e0734dc461bcfb36" target="_top" xlink:title="notifies all affected observers ">
<polygon fill="none" stroke="#000000" points="298,-.5 298,-63.5 479,-63.5 479,-.5 298,-.5"/>
<text text-anchor="start" x="306" y="-51.5" font-family="Helvetica,sans-Serif" font-size="10.00" fill="#000000">Subject&lt; VariantType</text>
<text text-anchor="start" x="306" y="-40.5" font-family="Helvetica,sans-Serif" font-size="10.00" fill="#000000">&lt; MouseStateNotification</text>
<text text-anchor="start" x="306" y="-29.5" font-family="Helvetica,sans-Serif" font-size="10.00" fill="#000000"> &gt;, UIMQDispatcher&lt; VariantType</text>
<text text-anchor="start" x="306" y="-18.5" font-family="Helvetica,sans-Serif" font-size="10.00" fill="#000000">&lt; MouseStateNotification &gt; &gt;</text>
<text text-anchor="middle" x="388.5" y="-7.5" font-family="Helvetica,sans-Serif" font-size="10.00" fill="#000000"> &gt;::notifyObservers</text>
</a>
</g>
</g>
<!-- Node9&#45;&gt;Node10 -->
<g id="edge11" class="edge">
<title>Node9&#45;&gt;Node10</title>
<path fill="none" stroke="#191970" d="M262.1008,-39.3372C270.381,-38.8565 279.0257,-38.3547 287.7384,-37.849"/>
<polygon fill="#191970" stroke="#191970" points="288.1995,-41.3282 297.9798,-37.2545 287.7937,-34.3399 288.1995,-41.3282"/>
</g>
</g>
</svg>
