<?xml version="1.0" encoding="UTF-8" standalone="no"?>
<!DOCTYPE svg PUBLIC "-//W3C//DTD SVG 1.1//EN"
 "http://www.w3.org/Graphics/SVG/1.1/DTD/svg11.dtd">
<!-- Generated by graphviz version 2.40.1 (20161225.0304)
 -->
<!-- Title: UIElement::isMouseOver Pages: 1 -->
<svg width="1589pt" height="282pt"
 viewBox="0.00 0.00 1589.00 282.42" xmlns="http://www.w3.org/2000/svg" xmlns:xlink="http://www.w3.org/1999/xlink">
<g id="graph0" class="graph" transform="scale(1 1) rotate(0) translate(4 278.416)">
<title>UIElement::isMouseOver</title>
<!-- Node151 -->
<g id="node1" class="node">
<title>Node151</title>
<polygon fill="#bfbfbf" stroke="#000000" points="0,-95.5 0,-114.5 137,-114.5 137,-95.5 0,-95.5"/>
<text text-anchor="middle" x="68.5" y="-102.5" font-family="Helvetica,sans-Serif" font-size="10.00" fill="#000000">UIElement::isMouseOver</text>
</g>
<!-- Node152 -->
<g id="node2" class="node">
<title>Node152</title>
<g id="a_node2"><a xlink:href="classUIElement.html#ad1c0d7431b71bdd9a3704a6d5c8a4643" target="_top" xlink:title="Get the position and the size of this ui element Gets the position and the size of this ui element...">
<polygon fill="none" stroke="#000000" points="179.5,-190.5 179.5,-209.5 340.5,-209.5 340.5,-190.5 179.5,-190.5"/>
<text text-anchor="middle" x="260" y="-197.5" font-family="Helvetica,sans-Serif" font-size="10.00" fill="#000000">UIElement::getUiElementRect</text>
</a>
</g>
</g>
<!-- Node151&#45;&gt;Node152 -->
<g id="edge1" class="edge">
<title>Node151&#45;&gt;Node152</title>
<path fill="none" stroke="#191970" d="M86.104,-121.3952C105.7851,-138.8168 139.3337,-165.8885 173,-181 181.6037,-184.8619 191.0469,-187.9621 200.441,-190.4444"/>
<polygon fill="#191970" stroke="#191970" points="88.3263,-118.6861 78.5583,-114.5826 83.6353,-123.8818 88.3263,-118.6861"/>
</g>
<!-- Node165 -->
<g id="node15" class="node">
<title>Node165</title>
<g id="a_node15"><a xlink:href="classButton.html#acfeb33328b356d4fda989808888f81db" target="_top" xlink:title="Button::onMouseButtonUp">
<polygon fill="none" stroke="#000000" points="188,-152.5 188,-171.5 332,-171.5 332,-152.5 188,-152.5"/>
<text text-anchor="middle" x="260" y="-159.5" font-family="Helvetica,sans-Serif" font-size="10.00" fill="#000000">Button::onMouseButtonUp</text>
</a>
</g>
</g>
<!-- Node151&#45;&gt;Node165 -->
<g id="edge17" class="edge">
<title>Node151&#45;&gt;Node165</title>
<path fill="none" stroke="#191970" d="M101.3135,-118.2132C121.7163,-126.1072 148.6193,-135.9392 173,-143 185.177,-146.5265 198.4793,-149.7433 210.9366,-152.4868"/>
<polygon fill="#191970" stroke="#191970" points="102.4471,-114.8984 91.8592,-114.5143 99.8966,-121.4173 102.4471,-114.8984"/>
</g>
<!-- Node166 -->
<g id="node16" class="node">
<title>Node166</title>
<g id="a_node16"><a xlink:href="classButton.html#a407ed56d8e7936c774e469bd3a732f94" target="_top" xlink:title="Button::onMouseButtonDown">
<polygon fill="none" stroke="#000000" points="181,-114.5 181,-133.5 339,-133.5 339,-114.5 181,-114.5"/>
<text text-anchor="middle" x="260" y="-121.5" font-family="Helvetica,sans-Serif" font-size="10.00" fill="#000000">Button::onMouseButtonDown</text>
</a>
</g>
</g>
<!-- Node151&#45;&gt;Node166 -->
<g id="edge18" class="edge">
<title>Node151&#45;&gt;Node166</title>
<path fill="none" stroke="#191970" d="M147.1804,-112.8064C158.2786,-113.9075 169.6929,-115.04 180.8008,-116.1421"/>
<polygon fill="#191970" stroke="#191970" points="147.3917,-109.3103 137.095,-111.8058 146.7005,-116.2761 147.3917,-109.3103"/>
</g>
<!-- Node167 -->
<g id="node17" class="node">
<title>Node167</title>
<g id="a_node17"><a xlink:href="classCheckbox.html#ae58c2c6329459ca23d025f1761c0c78e" target="_top" xlink:title="Checkbox::onMouseButtonUp">
<polygon fill="none" stroke="#000000" points="180,-76.5 180,-95.5 340,-95.5 340,-76.5 180,-76.5"/>
<text text-anchor="middle" x="260" y="-83.5" font-family="Helvetica,sans-Serif" font-size="10.00" fill="#000000">Checkbox::onMouseButtonUp</text>
</a>
</g>
</g>
<!-- Node151&#45;&gt;Node167 -->
<g id="edge19" class="edge">
<title>Node151&#45;&gt;Node167</title>
<path fill="none" stroke="#191970" d="M147.2808,-97.1836C158.0179,-96.1183 169.0491,-95.0238 179.8108,-93.9561"/>
<polygon fill="#191970" stroke="#191970" points="146.7005,-93.7239 137.095,-98.1942 147.3917,-100.6897 146.7005,-93.7239"/>
</g>
<!-- Node168 -->
<g id="node18" class="node">
<title>Node168</title>
<g id="a_node18"><a xlink:href="classCheckbox.html#a77988b3bf139576b2d33ce755c6bbca5" target="_top" xlink:title="Checkbox::onMouseButtonDown">
<polygon fill="none" stroke="#000000" points="173,-38.5 173,-57.5 347,-57.5 347,-38.5 173,-38.5"/>
<text text-anchor="middle" x="260" y="-45.5" font-family="Helvetica,sans-Serif" font-size="10.00" fill="#000000">Checkbox::onMouseButtonDown</text>
</a>
</g>
</g>
<!-- Node151&#45;&gt;Node168 -->
<g id="edge20" class="edge">
<title>Node151&#45;&gt;Node168</title>
<path fill="none" stroke="#191970" d="M101.3135,-91.7868C121.7163,-83.8928 148.6193,-74.0608 173,-67 185.177,-63.4735 198.4793,-60.2567 210.9366,-57.5132"/>
<polygon fill="#191970" stroke="#191970" points="99.8966,-88.5827 91.8592,-95.4857 102.4471,-95.1016 99.8966,-88.5827"/>
</g>
<!-- Node169 -->
<g id="node19" class="node">
<title>Node169</title>
<g id="a_node19"><a xlink:href="classTextField.html#a37a7a796a3feb9b7795aafbf5c8be152" target="_top" xlink:title="TextField::onMouseButtonUp">
<polygon fill="none" stroke="#000000" points="182.5,-.5 182.5,-19.5 337.5,-19.5 337.5,-.5 182.5,-.5"/>
<text text-anchor="middle" x="260" y="-7.5" font-family="Helvetica,sans-Serif" font-size="10.00" fill="#000000">TextField::onMouseButtonUp</text>
</a>
</g>
</g>
<!-- Node151&#45;&gt;Node169 -->
<g id="edge21" class="edge">
<title>Node151&#45;&gt;Node169</title>
<path fill="none" stroke="#191970" d="M86.104,-88.6048C105.7851,-71.1832 139.3337,-44.1115 173,-29 181.6037,-25.1381 191.0469,-22.0379 200.441,-19.5556"/>
<polygon fill="#191970" stroke="#191970" points="83.6353,-86.1182 78.5583,-95.4174 88.3263,-91.3139 83.6353,-86.1182"/>
</g>
<!-- Node153 -->
<g id="node3" class="node">
<title>Node153</title>
<g id="a_node3"><a xlink:href="classLayout.html#a99004e4afcea6a945e3890b19cce6236" target="_top" xlink:title="Arrange Elements that are aligned to a parent This is a seperate function, so it can recurse if a par...">
<polygon fill="none" stroke="#000000" points="383,-247.5 383,-266.5 547,-266.5 547,-247.5 383,-247.5"/>
<text text-anchor="middle" x="465" y="-254.5" font-family="Helvetica,sans-Serif" font-size="10.00" fill="#000000">Layout::arrangeChildElements</text>
</a>
</g>
</g>
<!-- Node152&#45;&gt;Node153 -->
<g id="edge2" class="edge">
<title>Node152&#45;&gt;Node153</title>
<path fill="none" stroke="#191970" d="M298.9827,-212.8301C323.0671,-220.5604 354.6793,-230.3548 383,-238 395.2742,-241.3134 408.6762,-244.5691 421.022,-247.4237"/>
<polygon fill="#191970" stroke="#191970" points="299.7449,-209.3984 289.1532,-209.6558 297.5937,-216.0596 299.7449,-209.3984"/>
</g>
<!-- Node161 -->
<g id="node11" class="node">
<title>Node161</title>
<g id="a_node11"><a xlink:href="classTextField.html#abe03b4b6ebf469645940cfa018bcdca2" target="_top" xlink:title="TextField::addText">
<polygon fill="none" stroke="#000000" points="413,-209.5 413,-228.5 517,-228.5 517,-209.5 413,-209.5"/>
<text text-anchor="middle" x="465" y="-216.5" font-family="Helvetica,sans-Serif" font-size="10.00" fill="#000000">TextField::addText</text>
</a>
</g>
</g>
<!-- Node152&#45;&gt;Node161 -->
<g id="edge11" class="edge">
<title>Node152&#45;&gt;Node161</title>
<path fill="none" stroke="#191970" d="M350.7808,-208.4138C372.0809,-210.388 394.065,-212.4255 412.9888,-214.1794"/>
<polygon fill="#191970" stroke="#191970" points="351.0075,-204.9199 340.7272,-207.482 350.3614,-211.8901 351.0075,-204.9199"/>
</g>
<!-- Node162 -->
<g id="node12" class="node">
<title>Node162</title>
<g id="a_node12"><a xlink:href="classUIManager.html#a007e9b56a4835b98db2b203df96ea79d" target="_top" xlink:title="Draws the tile (defined by the string, tiledata pair) onto the button. ">
<polygon fill="none" stroke="#000000" points="583,-169 583,-199 735,-199 735,-169 583,-169"/>
<text text-anchor="start" x="591" y="-187" font-family="Helvetica,sans-Serif" font-size="10.00" fill="#000000">UIManager::setupButtonTile</text>
<text text-anchor="middle" x="659" y="-176" font-family="Helvetica,sans-Serif" font-size="10.00" fill="#000000">Image</text>
</a>
</g>
</g>
<!-- Node152&#45;&gt;Node162 -->
<g id="edge12" class="edge">
<title>Node152&#45;&gt;Node162</title>
<path fill="none" stroke="#191970" d="M350.8861,-196.3554C420.9387,-193.5463 516.6929,-189.7065 582.7729,-187.0567"/>
<polygon fill="#191970" stroke="#191970" points="350.5953,-192.8642 340.7436,-196.7622 350.8758,-199.8586 350.5953,-192.8642"/>
</g>
<!-- Node164 -->
<g id="node14" class="node">
<title>Node164</title>
<g id="a_node14"><a xlink:href="classGame.html#a560299f0291c281f7b44e7ef0dd7b264" target="_top" xlink:title="initializes and displays the main menu initializes and displays the main menu ">
<polygon fill="none" stroke="#000000" points="809.5,-133.5 809.5,-152.5 912.5,-152.5 912.5,-133.5 809.5,-133.5"/>
<text text-anchor="middle" x="861" y="-140.5" font-family="Helvetica,sans-Serif" font-size="10.00" fill="#000000">Game::mainMenu</text>
</a>
</g>
</g>
<!-- Node152&#45;&gt;Node164 -->
<g id="edge15" class="edge">
<title>Node152&#45;&gt;Node164</title>
<path fill="none" stroke="#191970" d="M342.9859,-189.1476C356.3635,-187.4147 370.0632,-185.65 383,-184 471.8608,-172.6667 493.7894,-167.1337 583,-159 661.8359,-151.8122 753.561,-147.2733 809.4305,-144.9355"/>
<polygon fill="#191970" stroke="#191970" points="342.3034,-185.7067 332.8368,-190.4641 343.2039,-192.6486 342.3034,-185.7067"/>
</g>
<!-- Node154 -->
<g id="node4" class="node">
<title>Node154</title>
<g id="a_node4"><a xlink:href="classLayout.html#afa734c5af10f59f3dadb066054fe81ab" target="_top" xlink:title="Arrange the layout elements. ">
<polygon fill="none" stroke="#000000" points="589.5,-247.5 589.5,-266.5 728.5,-266.5 728.5,-247.5 589.5,-247.5"/>
<text text-anchor="middle" x="659" y="-254.5" font-family="Helvetica,sans-Serif" font-size="10.00" fill="#000000">Layout::arrangeElements</text>
</a>
</g>
</g>
<!-- Node153&#45;&gt;Node154 -->
<g id="edge3" class="edge">
<title>Node153&#45;&gt;Node154</title>
<path fill="none" stroke="#191970" d="M557.5349,-257C568.279,-257 579.0964,-257 589.4582,-257"/>
<polygon fill="#191970" stroke="#191970" points="557.2735,-253.5001 547.2735,-257 557.2734,-260.5001 557.2735,-253.5001"/>
</g>
<!-- Node155 -->
<g id="node5" class="node">
<title>Node155</title>
<g id="a_node5"><a xlink:href="classUIManager.html#aedd9d0577af515a852425dfe414b2968" target="_top" xlink:title="Parses the UiLayout.json files and creates UI Elements. ">
<polygon fill="none" stroke="#000000" points="1180,-205.5 1180,-224.5 1271,-224.5 1271,-205.5 1180,-205.5"/>
<text text-anchor="middle" x="1225.5" y="-212.5" font-family="Helvetica,sans-Serif" font-size="10.00" fill="#000000">UIManager::init</text>
</a>
</g>
</g>
<!-- Node154&#45;&gt;Node155 -->
<g id="edge4" class="edge">
<title>Node154&#45;&gt;Node155</title>
<path fill="none" stroke="#191970" d="M738.7258,-266.1442C835.7812,-275.0072 1004.0598,-283.0344 1144,-252 1168.1212,-246.6507 1193.7186,-233.6732 1209.6535,-224.6067"/>
<polygon fill="#191970" stroke="#191970" points="738.9772,-262.6525 728.6937,-265.2017 738.3225,-269.6218 738.9772,-262.6525"/>
</g>
<!-- Node159 -->
<g id="node9" class="node">
<title>Node159</title>
<g id="a_node9"><a xlink:href="classUIManager.html#a3ccb2fc669262f18ebdcdf3d5c43a3e8" target="_top" xlink:title="CallbackFunction that sets the Build Menu Position Used as callback function for the ComboBox that ho...">
<polygon fill="none" stroke="#000000" points="771,-220.5 771,-239.5 951,-239.5 951,-220.5 771,-220.5"/>
<text text-anchor="middle" x="861" y="-227.5" font-family="Helvetica,sans-Serif" font-size="10.00" fill="#000000">UIManager::setBuildMenuPosition</text>
</a>
</g>
</g>
<!-- Node154&#45;&gt;Node159 -->
<g id="edge8" class="edge">
<title>Node154&#45;&gt;Node159</title>
<path fill="none" stroke="#191970" d="M738.8376,-246.3286C755.6107,-244.0867 773.199,-241.7358 789.638,-239.5385"/>
<polygon fill="#191970" stroke="#191970" points="737.9651,-242.914 728.5169,-247.7081 738.8925,-249.8523 737.9651,-242.914"/>
</g>
<!-- Node156 -->
<g id="node6" class="node">
<title>Node156</title>
<g id="a_node6"><a xlink:href="classGame.html#a1c2ab25d5216b2f4b2fe41efd2c09114" target="_top" xlink:title="begins the game starts running the game ">
<polygon fill="none" stroke="#000000" points="1307,-194.5 1307,-213.5 1375,-213.5 1375,-194.5 1307,-194.5"/>
<text text-anchor="middle" x="1341" y="-201.5" font-family="Helvetica,sans-Serif" font-size="10.00" fill="#000000">Game::run</text>
</a>
</g>
</g>
<!-- Node155&#45;&gt;Node156 -->
<g id="edge5" class="edge">
<title>Node155&#45;&gt;Node156</title>
<path fill="none" stroke="#191970" d="M1281.2726,-209.6883C1289.9603,-208.8609 1298.7077,-208.0278 1306.7272,-207.2641"/>
<polygon fill="#191970" stroke="#191970" points="1280.7718,-206.2201 1271.1487,-210.6525 1281.4355,-213.1886 1280.7718,-206.2201"/>
</g>
<!-- Node157 -->
<g id="node7" class="node">
<title>Node157</title>
<g id="a_node7"><a xlink:href="main_8cxx.html#af582d708d899e67ead623eac34a22387" target="_top" xlink:title="protected_main">
<polygon fill="none" stroke="#000000" points="1411,-153.5 1411,-172.5 1504,-172.5 1504,-153.5 1411,-153.5"/>
<text text-anchor="middle" x="1457.5" y="-160.5" font-family="Helvetica,sans-Serif" font-size="10.00" fill="#000000">protected_main</text>
</a>
</g>
</g>
<!-- Node156&#45;&gt;Node157 -->
<g id="edge6" class="edge">
<title>Node156&#45;&gt;Node157</title>
<path fill="none" stroke="#191970" d="M1377.6555,-191.0998C1394.6733,-185.1107 1414.5556,-178.1135 1430.2227,-172.5997"/>
<polygon fill="#191970" stroke="#191970" points="1376.2912,-187.8694 1368.0203,-194.4907 1378.6151,-194.4724 1376.2912,-187.8694"/>
</g>
<!-- Node158 -->
<g id="node8" class="node">
<title>Node158</title>
<g id="a_node8"><a xlink:href="main_8cxx.html#a3c04138a5bfe5d72780bb7e82a18e627" target="_top" xlink:title="main">
<polygon fill="none" stroke="#000000" points="1540,-153.5 1540,-172.5 1581,-172.5 1581,-153.5 1540,-153.5"/>
<text text-anchor="middle" x="1560.5" y="-160.5" font-family="Helvetica,sans-Serif" font-size="10.00" fill="#000000">main</text>
</a>
</g>
</g>
<!-- Node157&#45;&gt;Node158 -->
<g id="edge7" class="edge">
<title>Node157&#45;&gt;Node158</title>
<path fill="none" stroke="#191970" d="M1514.2133,-163C1523.4322,-163 1532.4259,-163 1539.9965,-163"/>
<polygon fill="#191970" stroke="#191970" points="1514.1782,-159.5001 1504.1782,-163 1514.1781,-166.5001 1514.1782,-159.5001"/>
</g>
<!-- Node160 -->
<g id="node10" class="node">
<title>Node160</title>
<g id="a_node10"><a xlink:href="classUIManager.html#a5c4cb8e02504ffa0d3faf45181feab9d" target="_top" xlink:title="Fill UI Widgets whose ID start with a $ with data Used for filling widgets with data, like BuildMenu Position combobox, Screen Resolution ComboBox and so on. ">
<polygon fill="none" stroke="#000000" points="992.5,-212 992.5,-242 1138.5,-242 1138.5,-212 992.5,-212"/>
<text text-anchor="start" x="1000.5" y="-230" font-family="Helvetica,sans-Serif" font-size="10.00" fill="#000000">UIManager::initializeDollar</text>
<text text-anchor="middle" x="1065.5" y="-219" font-family="Helvetica,sans-Serif" font-size="10.00" fill="#000000">Variables</text>
</a>
</g>
</g>
<!-- Node159&#45;&gt;Node160 -->
<g id="edge9" class="edge">
<title>Node159&#45;&gt;Node160</title>
<path fill="none" stroke="#191970" d="M961.6025,-228.5242C971.9361,-228.3726 982.2922,-228.2207 992.2484,-228.0746"/>
<polygon fill="#191970" stroke="#191970" points="961.2395,-225.029 951.292,-228.6754 961.3423,-232.0283 961.2395,-225.029"/>
</g>
<!-- Node160&#45;&gt;Node155 -->
<g id="edge10" class="edge">
<title>Node160&#45;&gt;Node155</title>
<path fill="none" stroke="#191970" d="M1149.1138,-220.729C1159.7193,-219.9336 1170.2399,-219.1445 1179.9281,-218.4179"/>
<polygon fill="#191970" stroke="#191970" points="1148.6542,-217.2535 1138.944,-221.4917 1149.1778,-224.2339 1148.6542,-217.2535"/>
</g>
<!-- Node163 -->
<g id="node13" class="node">
<title>Node163</title>
<g id="a_node13"><a xlink:href="classUIManager.html#aae7a89e9d50bb6192e4140e07bd5f94b" target="_top" xlink:title="UIManager::createBuildMenu">
<polygon fill="none" stroke="#000000" points="987,-173.5 987,-192.5 1144,-192.5 1144,-173.5 987,-173.5"/>
<text text-anchor="middle" x="1065.5" y="-180.5" font-family="Helvetica,sans-Serif" font-size="10.00" fill="#000000">UIManager::createBuildMenu</text>
</a>
</g>
</g>
<!-- Node162&#45;&gt;Node163 -->
<g id="edge13" class="edge">
<title>Node162&#45;&gt;Node163</title>
<path fill="none" stroke="#191970" d="M745.7913,-183.7865C817.2939,-183.6106 917.8183,-183.3633 986.959,-183.1932"/>
<polygon fill="#191970" stroke="#191970" points="745.4509,-180.2872 735.4595,-183.8119 745.4682,-187.2872 745.4509,-180.2872"/>
</g>
<!-- Node163&#45;&gt;Node155 -->
<g id="edge14" class="edge">
<title>Node163&#45;&gt;Node155</title>
<path fill="none" stroke="#191970" d="M1122.9387,-194.4877C1141.6082,-198.2216 1162.063,-202.3126 1179.76,-205.852"/>
<polygon fill="#191970" stroke="#191970" points="1123.5643,-191.0436 1113.0721,-192.5144 1122.1915,-197.9077 1123.5643,-191.0436"/>
</g>
<!-- Node164&#45;&gt;Node157 -->
<g id="edge16" class="edge">
<title>Node164&#45;&gt;Node157</title>
<path fill="none" stroke="#191970" d="M922.7347,-145.0699C1042.4848,-149.085 1303.9034,-157.8501 1410.6677,-161.4298"/>
<polygon fill="#191970" stroke="#191970" points="922.7442,-141.5683 912.6325,-144.7312 922.5095,-148.5644 922.7442,-141.5683"/>
</g>
</g>
</svg>
