<?xml version="1.0" encoding="UTF-8" standalone="no"?>
<!DOCTYPE svg PUBLIC "-//W3C//DTD SVG 1.1//EN"
 "http://www.w3.org/Graphics/SVG/1.1/DTD/svg11.dtd">
<!-- Generated by graphviz version 2.40.1 (20161225.0304)
 -->
<!-- Title: Engine::quitGame Pages: 1 -->
<svg width="861pt" height="104pt"
 viewBox="0.00 0.00 861.00 104.00" xmlns="http://www.w3.org/2000/svg" xmlns:xlink="http://www.w3.org/1999/xlink">
<g id="graph0" class="graph" transform="scale(1 1) rotate(0) translate(4 100)">
<title>Engine::quitGame</title>
<!-- Node52 -->
<g id="node1" class="node">
<title>Node52</title>
<polygon fill="#bfbfbf" stroke="#000000" points="0,-38.5 0,-57.5 104,-57.5 104,-38.5 0,-38.5"/>
<text text-anchor="middle" x="52" y="-45.5" font-family="Helvetica,sans-Serif" font-size="10.00" fill="#000000">Engine::quitGame</text>
</g>
<!-- Node53 -->
<g id="node2" class="node">
<title>Node53</title>
<g id="a_node2"><a xlink:href="classEventManager.html#a65ec91fd5016d4f9c4167fb8babed2df" target="_top" xlink:title="EventManager::checkEvents">
<polygon fill="none" stroke="#000000" points="354,-76.5 354,-95.5 508,-95.5 508,-76.5 354,-76.5"/>
<text text-anchor="middle" x="431" y="-83.5" font-family="Helvetica,sans-Serif" font-size="10.00" fill="#000000">EventManager::checkEvents</text>
</a>
</g>
</g>
<!-- Node52&#45;&gt;Node53 -->
<g id="edge1" class="edge">
<title>Node52&#45;&gt;Node53</title>
<path fill="none" stroke="#191970" d="M100.3504,-59.7789C113.1725,-62.5342 127.0531,-65.1897 140,-67 212.0772,-77.078 294.9631,-81.8288 353.7925,-84.0574"/>
<polygon fill="#191970" stroke="#191970" points="100.8524,-56.3054 90.3323,-57.5621 99.3399,-63.1401 100.8524,-56.3054"/>
</g>
<!-- Node57 -->
<g id="node6" class="node">
<title>Node57</title>
<g id="a_node6"><a xlink:href="classUIManager.html#aa78e356fc3b356d790c848319d1c387e" target="_top" xlink:title="UIManager::setCallbackFunctions">
<polygon fill="none" stroke="#000000" points="140,-38.5 140,-57.5 318,-57.5 318,-38.5 140,-38.5"/>
<text text-anchor="middle" x="229" y="-45.5" font-family="Helvetica,sans-Serif" font-size="10.00" fill="#000000">UIManager::setCallbackFunctions</text>
</a>
</g>
</g>
<!-- Node52&#45;&gt;Node57 -->
<g id="edge5" class="edge">
<title>Node52&#45;&gt;Node57</title>
<path fill="none" stroke="#191970" d="M114.3639,-48C122.5875,-48 131.1418,-48 139.706,-48"/>
<polygon fill="#191970" stroke="#191970" points="114.1485,-44.5001 104.1485,-48 114.1485,-51.5001 114.1485,-44.5001"/>
</g>
<!-- Node59 -->
<g id="node8" class="node">
<title>Node59</title>
<g id="a_node8"><a xlink:href="classGame.html#a8272be134d16c277bb014ad6a22fc357" target="_top" xlink:title="Game::quit">
<polygon fill="none" stroke="#000000" points="193.5,-.5 193.5,-19.5 264.5,-19.5 264.5,-.5 193.5,-.5"/>
<text text-anchor="middle" x="229" y="-7.5" font-family="Helvetica,sans-Serif" font-size="10.00" fill="#000000">Game::quit</text>
</a>
</g>
</g>
<!-- Node52&#45;&gt;Node59 -->
<g id="edge8" class="edge">
<title>Node52&#45;&gt;Node59</title>
<path fill="none" stroke="#191970" d="M106.3541,-36.2438C117.4832,-33.8425 129.119,-31.3361 140,-29 157.6102,-25.2192 177.1853,-21.0379 193.4832,-17.5625"/>
<polygon fill="#191970" stroke="#191970" points="105.3484,-32.8802 96.3121,-38.4116 106.8256,-39.7226 105.3484,-32.8802"/>
</g>
<!-- Node54 -->
<g id="node3" class="node">
<title>Node54</title>
<g id="a_node3"><a xlink:href="classGame.html#a1c2ab25d5216b2f4b2fe41efd2c09114" target="_top" xlink:title="begins the game starts running the game ">
<polygon fill="none" stroke="#000000" points="561.5,-38.5 561.5,-57.5 629.5,-57.5 629.5,-38.5 561.5,-38.5"/>
<text text-anchor="middle" x="595.5" y="-45.5" font-family="Helvetica,sans-Serif" font-size="10.00" fill="#000000">Game::run</text>
</a>
</g>
</g>
<!-- Node53&#45;&gt;Node54 -->
<g id="edge2" class="edge">
<title>Node53&#45;&gt;Node54</title>
<path fill="none" stroke="#191970" d="M482.4868,-74.1064C508.2354,-68.1584 538.6834,-61.1248 561.4841,-55.8578"/>
<polygon fill="#191970" stroke="#191970" points="481.4659,-70.75 472.5103,-76.411 483.0415,-77.5704 481.4659,-70.75"/>
</g>
<!-- Node55 -->
<g id="node4" class="node">
<title>Node55</title>
<g id="a_node4"><a xlink:href="main_8cxx.html#af582d708d899e67ead623eac34a22387" target="_top" xlink:title="protected_main">
<polygon fill="none" stroke="#000000" points="683,-19.5 683,-38.5 776,-38.5 776,-19.5 683,-19.5"/>
<text text-anchor="middle" x="729.5" y="-26.5" font-family="Helvetica,sans-Serif" font-size="10.00" fill="#000000">protected_main</text>
</a>
</g>
</g>
<!-- Node54&#45;&gt;Node55 -->
<g id="edge3" class="edge">
<title>Node54&#45;&gt;Node55</title>
<path fill="none" stroke="#191970" d="M639.8611,-41.71C653.6278,-39.758 668.8396,-37.6011 682.7626,-35.6269"/>
<polygon fill="#191970" stroke="#191970" points="639.0702,-38.287 629.6606,-43.1563 640.0529,-45.2177 639.0702,-38.287"/>
</g>
<!-- Node56 -->
<g id="node5" class="node">
<title>Node56</title>
<g id="a_node5"><a xlink:href="main_8cxx.html#a3c04138a5bfe5d72780bb7e82a18e627" target="_top" xlink:title="main">
<polygon fill="none" stroke="#000000" points="812,-19.5 812,-38.5 853,-38.5 853,-19.5 812,-19.5"/>
<text text-anchor="middle" x="832.5" y="-26.5" font-family="Helvetica,sans-Serif" font-size="10.00" fill="#000000">main</text>
</a>
</g>
</g>
<!-- Node55&#45;&gt;Node56 -->
<g id="edge4" class="edge">
<title>Node55&#45;&gt;Node56</title>
<path fill="none" stroke="#191970" d="M786.2133,-29C795.4322,-29 804.4259,-29 811.9965,-29"/>
<polygon fill="#191970" stroke="#191970" points="786.1782,-25.5001 776.1782,-29 786.1781,-32.5001 786.1782,-25.5001"/>
</g>
<!-- Node58 -->
<g id="node7" class="node">
<title>Node58</title>
<g id="a_node7"><a xlink:href="classUIManager.html#aedd9d0577af515a852425dfe414b2968" target="_top" xlink:title="Parses the UiLayout.json files and creates UI Elements. ">
<polygon fill="none" stroke="#000000" points="385.5,-38.5 385.5,-57.5 476.5,-57.5 476.5,-38.5 385.5,-38.5"/>
<text text-anchor="middle" x="431" y="-45.5" font-family="Helvetica,sans-Serif" font-size="10.00" fill="#000000">UIManager::init</text>
</a>
</g>
</g>
<!-- Node57&#45;&gt;Node58 -->
<g id="edge6" class="edge">
<title>Node57&#45;&gt;Node58</title>
<path fill="none" stroke="#191970" d="M328.3078,-48C348.3186,-48 368.4179,-48 385.4626,-48"/>
<polygon fill="#191970" stroke="#191970" points="328.1882,-44.5001 318.1881,-48 328.1881,-51.5001 328.1882,-44.5001"/>
</g>
<!-- Node58&#45;&gt;Node54 -->
<g id="edge7" class="edge">
<title>Node58&#45;&gt;Node54</title>
<path fill="none" stroke="#191970" d="M487.1492,-48C511.8137,-48 539.9717,-48 561.3999,-48"/>
<polygon fill="#191970" stroke="#191970" points="486.8225,-44.5001 476.8224,-48 486.8224,-51.5001 486.8225,-44.5001"/>
</g>
<!-- Node60 -->
<g id="node9" class="node">
<title>Node60</title>
<g id="a_node9"><a xlink:href="classGame.html#a560299f0291c281f7b44e7ef0dd7b264" target="_top" xlink:title="initializes and displays the main menu initializes and displays the main menu ">
<polygon fill="none" stroke="#000000" points="544,-.5 544,-19.5 647,-19.5 647,-.5 544,-.5"/>
<text text-anchor="middle" x="595.5" y="-7.5" font-family="Helvetica,sans-Serif" font-size="10.00" fill="#000000">Game::mainMenu</text>
</a>
</g>
</g>
<!-- Node59&#45;&gt;Node60 -->
<g id="edge9" class="edge">
<title>Node59&#45;&gt;Node60</title>
<path fill="none" stroke="#191970" d="M274.8672,-10C343.3691,-10 472.0079,-10 543.7699,-10"/>
<polygon fill="#191970" stroke="#191970" points="274.8089,-6.5001 264.8089,-10 274.8088,-13.5001 274.8089,-6.5001"/>
</g>
<!-- Node60&#45;&gt;Node55 -->
<g id="edge10" class="edge">
<title>Node60&#45;&gt;Node55</title>
<path fill="none" stroke="#191970" d="M657.2457,-18.755C665.7846,-19.9657 674.438,-21.1927 682.6465,-22.3566"/>
<polygon fill="#191970" stroke="#191970" points="657.7003,-15.2845 647.3079,-17.3459 656.7175,-22.2152 657.7003,-15.2845"/>
</g>
</g>
</svg>
