<?xml version="1.0" encoding="UTF-8" standalone="no"?>
<!DOCTYPE svg PUBLIC "-//W3C//DTD SVG 1.1//EN"
 "http://www.w3.org/Graphics/SVG/1.1/DTD/svg11.dtd">
<!-- Generated by graphviz version 2.40.1 (20161225.0304)
 -->
<!-- Title: Rectangle::intersect Pages: 1 -->
<svg width="423pt" height="28pt"
 viewBox="0.00 0.00 423.00 28.00" xmlns="http://www.w3.org/2000/svg" xmlns:xlink="http://www.w3.org/1999/xlink">
<g id="graph0" class="graph" transform="scale(1 1) rotate(0) translate(4 24)">
<title>Rectangle::intersect</title>
<!-- Node48 -->
<g id="node1" class="node">
<title>Node48</title>
<polygon fill="#bfbfbf" stroke="#000000" points="0,-.5 0,-19.5 113,-19.5 113,-.5 0,-.5"/>
<text text-anchor="middle" x="56.5" y="-7.5" font-family="Helvetica,sans-Serif" font-size="10.00" fill="#000000">Rectangle::intersect</text>
</g>
<!-- Node49 -->
<g id="node2" class="node">
<title>Node49</title>
<g id="a_node2"><a xlink:href="classPixelBuffer.html#abbad3bec56ca536a543c42024045c99d" target="_top" xlink:title="Crop the pixel buffer around a region. ">
<polygon fill="none" stroke="#000000" points="149,-.5 149,-19.5 246,-19.5 246,-.5 149,-.5"/>
<text text-anchor="middle" x="197.5" y="-7.5" font-family="Helvetica,sans-Serif" font-size="10.00" fill="#000000">PixelBuffer::crop</text>
</a>
</g>
</g>
<!-- Node48&#45;&gt;Node49 -->
<g id="edge1" class="edge">
<title>Node48&#45;&gt;Node49</title>
<path fill="none" stroke="#191970" d="M123.0909,-10C131.7118,-10 140.4108,-10 148.6703,-10"/>
<polygon fill="#191970" stroke="#191970" points="123.0377,-6.5001 113.0377,-10 123.0376,-13.5001 123.0377,-6.5001"/>
</g>
<!-- Node50 -->
<g id="node3" class="node">
<title>Node50</title>
<g id="a_node3"><a xlink:href="classCursorView.html#a31952d744480fd52f49aa3d552a90f9f" target="_top" xlink:title="CursorView::CursorView">
<polygon fill="none" stroke="#000000" points="282,-.5 282,-19.5 415,-19.5 415,-.5 282,-.5"/>
<text text-anchor="middle" x="348.5" y="-7.5" font-family="Helvetica,sans-Serif" font-size="10.00" fill="#000000">CursorView::CursorView</text>
</a>
</g>
</g>
<!-- Node49&#45;&gt;Node50 -->
<g id="edge2" class="edge">
<title>Node49&#45;&gt;Node50</title>
<path fill="none" stroke="#191970" d="M256.1825,-10C264.585,-10 273.2803,-10 281.8228,-10"/>
<polygon fill="#191970" stroke="#191970" points="256.1086,-6.5001 246.1085,-10 256.1085,-13.5001 256.1086,-6.5001"/>
</g>
</g>
</svg>
