<?xml version="1.0" encoding="UTF-8" standalone="no"?>
<!DOCTYPE svg PUBLIC "-//W3C//DTD SVG 1.1//EN"
 "http://www.w3.org/Graphics/SVG/1.1/DTD/svg11.dtd">
<!-- Generated by graphviz version 2.40.1 (20161225.0304)
 -->
<!-- Title: MapNode::demolishNode Pages: 1 -->
<svg width="920pt" height="350pt"
 viewBox="0.00 0.00 920.00 349.50" xmlns="http://www.w3.org/2000/svg" xmlns:xlink="http://www.w3.org/1999/xlink">
<g id="graph0" class="graph" transform="scale(1 1) rotate(0) translate(4 345.5)">
<title>MapNode::demolishNode</title>
<!-- Node30 -->
<g id="node1" class="node">
<title>Node30</title>
<polygon fill="#bfbfbf" stroke="#000000" points="0,-142.5 0,-161.5 139,-161.5 139,-142.5 0,-142.5"/>
<text text-anchor="middle" x="69.5" y="-149.5" font-family="Helvetica,sans-Serif" font-size="10.00" fill="#000000">MapNode::demolishNode</text>
</g>
<!-- Node31 -->
<g id="node2" class="node">
<title>Node31</title>
<g id="a_node2"><a xlink:href="classMapLayers.html#a1d810628821913c499b8348107b66891" target="_top" xlink:title="Check if given Layer is being drawn. ">
<polygon fill="none" stroke="#000000" points="191,-237.5 191,-256.5 332,-256.5 332,-237.5 191,-237.5"/>
<text text-anchor="middle" x="261.5" y="-244.5" font-family="Helvetica,sans-Serif" font-size="10.00" fill="#000000">MapLayers::isLayerActive</text>
</a>
</g>
</g>
<!-- Node30&#45;&gt;Node31 -->
<g id="edge1" class="edge">
<title>Node30&#45;&gt;Node31</title>
<path fill="none" stroke="#191970" d="M88.9666,-161.6319C122.9792,-178.461 193.3634,-213.2866 232.9166,-232.8572"/>
<polygon fill="#191970" stroke="#191970" points="231.7523,-236.186 242.2673,-237.4838 234.8566,-229.912 231.7523,-236.186"/>
</g>
<!-- Node35 -->
<g id="node6" class="node">
<title>Node35</title>
<g id="a_node6"><a xlink:href="classSingleton.html#af5cb1e5749949e2b68416cfb8d378044" target="_top" xlink:title="Get an instance of the singleton. ">
<polygon fill="none" stroke="#000000" points="602.5,-175 602.5,-205 715.5,-205 715.5,-175 602.5,-175"/>
<text text-anchor="start" x="610.5" y="-193" font-family="Helvetica,sans-Serif" font-size="10.00" fill="#000000">Singleton&lt; Settings</text>
<text text-anchor="middle" x="659" y="-182" font-family="Helvetica,sans-Serif" font-size="10.00" fill="#000000"> &gt;::instance</text>
</a>
</g>
</g>
<!-- Node30&#45;&gt;Node35 -->
<g id="edge9" class="edge">
<title>Node30&#45;&gt;Node35</title>
<path fill="none" stroke="#191970" d="M114.4782,-161.5219C133.1204,-165.0969 155.0192,-168.8193 175,-171 323.259,-187.1811 498.389,-190.0612 592.0028,-190.3037"/>
<polygon fill="#191970" stroke="#191970" points="592.1756,-193.8039 602.1814,-190.3204 592.1872,-186.8039 592.1756,-193.8039"/>
</g>
<!-- Node39 -->
<g id="node10" class="node">
<title>Node39</title>
<g id="a_node10"><a xlink:href="classMapNode.html#a06be1917d4b251010ae78d8a2b7bc88a" target="_top" xlink:title="demolish specific layer of a Node. ">
<polygon fill="none" stroke="#000000" points="191.5,-142.5 191.5,-161.5 331.5,-161.5 331.5,-142.5 191.5,-142.5"/>
<text text-anchor="middle" x="261.5" y="-149.5" font-family="Helvetica,sans-Serif" font-size="10.00" fill="#000000">MapNode::demolishLayer</text>
</a>
</g>
</g>
<!-- Node30&#45;&gt;Node39 -->
<g id="edge10" class="edge">
<title>Node30&#45;&gt;Node39</title>
<path fill="none" stroke="#191970" d="M139.0879,-152C152.7324,-152 167.1489,-152 181.1125,-152"/>
<polygon fill="#191970" stroke="#191970" points="181.1827,-155.5001 191.1826,-152 181.1826,-148.5001 181.1827,-155.5001"/>
</g>
<!-- Node41 -->
<g id="node12" class="node">
<title>Node41</title>
<g id="a_node12"><a xlink:href="classMapNode.html#abda77a5705086a50cbc5755d10883e8a" target="_top" xlink:title="Sets a node to be Transparent This sets a node to be Transparent. &#160;transparencyFactor (0&#45;1...">
<polygon fill="none" stroke="#000000" points="175,-104.5 175,-123.5 348,-123.5 348,-104.5 175,-104.5"/>
<text text-anchor="middle" x="261.5" y="-111.5" font-family="Helvetica,sans-Serif" font-size="10.00" fill="#000000">MapNode::setNodeTransparency</text>
</a>
</g>
</g>
<!-- Node30&#45;&gt;Node41 -->
<g id="edge12" class="edge">
<title>Node30&#45;&gt;Node41</title>
<path fill="none" stroke="#191970" d="M117.9497,-142.411C143.971,-137.261 176.2279,-130.8768 203.5688,-125.4656"/>
<polygon fill="#191970" stroke="#191970" points="204.2685,-128.895 213.3987,-123.5201 202.9094,-122.0282 204.2685,-128.895"/>
</g>
<!-- Node42 -->
<g id="node13" class="node">
<title>Node42</title>
<g id="a_node13"><a xlink:href="classMapNode.html#aabbb10c19ddd79e9c519eb4af5e995e0" target="_top" xlink:title="Update texture. ">
<polygon fill="none" stroke="#000000" points="396,-82.5 396,-101.5 534,-101.5 534,-82.5 396,-82.5"/>
<text text-anchor="middle" x="465" y="-89.5" font-family="Helvetica,sans-Serif" font-size="10.00" fill="#000000">MapNode::updateTexture</text>
</a>
</g>
</g>
<!-- Node30&#45;&gt;Node42 -->
<g id="edge13" class="edge">
<title>Node30&#45;&gt;Node42</title>
<path fill="none" stroke="#191970" d="M82.2809,-142.3904C101.3003,-128.746 138.7185,-104.3744 175,-95 244.5854,-77.0206 326.7328,-78.1587 385.7992,-82.6847"/>
<polygon fill="#191970" stroke="#191970" points="385.5603,-86.1768 395.8117,-83.5012 386.1293,-79.1999 385.5603,-86.1768"/>
</g>
<!-- Node32 -->
<g id="node3" class="node">
<title>Node32</title>
<g id="a_node3"><a xlink:href="classMapLayers.html#ab663dfc9e4c144f904ad85543b66ac8f" target="_top" xlink:title="Toggle Drawing Layer Toggle Drawing Layer (use bitwise XOR to toggle layer) ">
<polygon fill="none" stroke="#000000" points="384,-294.5 384,-313.5 546,-313.5 546,-294.5 384,-294.5"/>
<text text-anchor="middle" x="465" y="-301.5" font-family="Helvetica,sans-Serif" font-size="10.00" fill="#000000">MapLayers::setLayerEditMode</text>
</a>
</g>
</g>
<!-- Node31&#45;&gt;Node32 -->
<g id="edge2" class="edge">
<title>Node31&#45;&gt;Node32</title>
<path fill="none" stroke="#191970" d="M290.5375,-256.6405C315.2529,-264.6934 351.7705,-276.2328 384,-285 392.9049,-287.4223 402.4102,-289.819 411.6615,-292.052"/>
<polygon fill="#191970" stroke="#191970" points="411.0218,-295.4974 421.56,-294.4042 412.6402,-288.687 411.0218,-295.4974"/>
</g>
<!-- Node37 -->
<g id="node8" class="node">
<title>Node37</title>
<g id="a_node8"><a xlink:href="classMapLayers.html#a53d7fcd90e70eaf36239d7a75c0c5dda" target="_top" xlink:title="MapLayers::MapLayers">
<polygon fill="none" stroke="#000000" points="401,-256.5 401,-275.5 529,-275.5 529,-256.5 401,-256.5"/>
<text text-anchor="middle" x="465" y="-263.5" font-family="Helvetica,sans-Serif" font-size="10.00" fill="#000000">MapLayers::MapLayers</text>
</a>
</g>
</g>
<!-- Node31&#45;&gt;Node37 -->
<g id="edge7" class="edge">
<title>Node31&#45;&gt;Node37</title>
<path fill="none" stroke="#191970" d="M332.1033,-253.592C351.0783,-255.3636 371.6527,-257.2845 390.8161,-259.0737"/>
<polygon fill="#191970" stroke="#191970" points="390.7121,-262.5792 400.9942,-260.024 391.3629,-255.6095 390.7121,-262.5792"/>
</g>
<!-- Node38 -->
<g id="node9" class="node">
<title>Node38</title>
<g id="a_node9"><a xlink:href="classMapLayers.html#aa7fa21110e27ec69f131692b0a510d66" target="_top" xlink:title="MapLayers::~MapLayers">
<polygon fill="none" stroke="#000000" points="397,-218.5 397,-237.5 533,-237.5 533,-218.5 397,-218.5"/>
<text text-anchor="middle" x="465" y="-225.5" font-family="Helvetica,sans-Serif" font-size="10.00" fill="#000000">MapLayers::~MapLayers</text>
</a>
</g>
</g>
<!-- Node31&#45;&gt;Node38 -->
<g id="edge8" class="edge">
<title>Node31&#45;&gt;Node38</title>
<path fill="none" stroke="#191970" d="M332.1033,-240.408C349.7465,-238.7608 368.7724,-236.9844 386.7612,-235.3049"/>
<polygon fill="#191970" stroke="#191970" points="387.2912,-238.7707 396.9225,-234.3561 386.6404,-231.801 387.2912,-238.7707"/>
</g>
<!-- Node33 -->
<g id="node4" class="node">
<title>Node33</title>
<g id="a_node4"><a xlink:href="classMapLayers.html#a0a64d01a42e8864b78e1bc54007cb7d9" target="_top" xlink:title="Toggle Drawing Layer Toggle Drawing Layer (use bitwise XOR to toggle layer) ">
<polygon fill="none" stroke="#000000" points="589,-311 589,-341 729,-341 729,-311 589,-311"/>
<text text-anchor="start" x="597" y="-329" font-family="Helvetica,sans-Serif" font-size="10.00" fill="#000000">MapLayers::deactivateAll</text>
<text text-anchor="middle" x="659" y="-318" font-family="Helvetica,sans-Serif" font-size="10.00" fill="#000000">Layers</text>
</a>
</g>
</g>
<!-- Node32&#45;&gt;Node33 -->
<g id="edge3" class="edge">
<title>Node32&#45;&gt;Node33</title>
<path fill="none" stroke="#191970" d="M546.1494,-313.2025C556.9291,-314.4249 567.9772,-315.6778 578.7416,-316.8985"/>
<polygon fill="#191970" stroke="#191970" points="578.6265,-320.4078 588.9573,-318.057 579.4154,-313.4524 578.6265,-320.4078"/>
</g>
<!-- Node32&#45;&gt;Node35 -->
<g id="edge5" class="edge">
<title>Node32&#45;&gt;Node35</title>
<path fill="none" stroke="#191970" d="M521.1133,-294.4725C529.6874,-291.9914 538.2527,-288.8842 546,-285 582.526,-266.6872 617.3817,-234.341 638.4824,-212.5416"/>
<polygon fill="#191970" stroke="#191970" points="641.2642,-214.6948 645.6116,-205.033 636.1879,-209.875 641.2642,-214.6948"/>
</g>
<!-- Node36 -->
<g id="node7" class="node">
<title>Node36</title>
<g id="a_node7"><a xlink:href="classMapLayers.html#a5db6ba7e194ada6a4d0334d0428ff89b" target="_top" xlink:title="Enable drawing layers. ">
<polygon fill="none" stroke="#000000" points="589,-272.5 589,-291.5 729,-291.5 729,-272.5 589,-272.5"/>
<text text-anchor="middle" x="659" y="-279.5" font-family="Helvetica,sans-Serif" font-size="10.00" fill="#000000">MapLayers::enableLayers</text>
</a>
</g>
</g>
<!-- Node32&#45;&gt;Node36 -->
<g id="edge6" class="edge">
<title>Node32&#45;&gt;Node36</title>
<path fill="none" stroke="#191970" d="M546.1494,-294.7975C556.9291,-293.5751 567.9772,-292.3222 578.7416,-291.1015"/>
<polygon fill="#191970" stroke="#191970" points="579.4154,-294.5476 588.9573,-289.943 578.6265,-287.5922 579.4154,-294.5476"/>
</g>
<!-- Node34 -->
<g id="node5" class="node">
<title>Node34</title>
<g id="a_node5"><a xlink:href="classMapLayers.html#a3b1b1f10dd431fa83e098a20e4c836b9" target="_top" xlink:title="Disable Drawing Layer Disable Drawing Layer ( Turned off by using bitwise AND with inversed pattern) ...">
<polygon fill="none" stroke="#000000" points="773.5,-316.5 773.5,-335.5 910.5,-335.5 910.5,-316.5 773.5,-316.5"/>
<text text-anchor="middle" x="842" y="-323.5" font-family="Helvetica,sans-Serif" font-size="10.00" fill="#000000">MapLayers::disableLayer</text>
</a>
</g>
</g>
<!-- Node33&#45;&gt;Node34 -->
<g id="edge4" class="edge">
<title>Node33&#45;&gt;Node34</title>
<path fill="none" stroke="#191970" d="M729.2292,-326C740.3418,-326 751.8976,-326 763.1904,-326"/>
<polygon fill="#191970" stroke="#191970" points="763.4672,-329.5001 773.4671,-326 763.4671,-322.5001 763.4672,-329.5001"/>
</g>
<!-- Node40 -->
<g id="node11" class="node">
<title>Node40</title>
<g id="a_node11"><a xlink:href="classMapNode.html#a67296a58e167356efbabeaac3226b5d3" target="_top" xlink:title="get iso coordinates of this node gets the iso coordinates of this node ">
<polygon fill="none" stroke="#000000" points="393.5,-142.5 393.5,-161.5 536.5,-161.5 536.5,-142.5 393.5,-142.5"/>
<text text-anchor="middle" x="465" y="-149.5" font-family="Helvetica,sans-Serif" font-size="10.00" fill="#000000">MapNode::getCoordinates</text>
</a>
</g>
</g>
<!-- Node39&#45;&gt;Node40 -->
<g id="edge11" class="edge">
<title>Node39&#45;&gt;Node40</title>
<path fill="none" stroke="#191970" d="M331.5332,-152C348.2561,-152 366.249,-152 383.4408,-152"/>
<polygon fill="#191970" stroke="#191970" points="383.4548,-155.5001 393.4547,-152 383.4547,-148.5001 383.4548,-155.5001"/>
</g>
<!-- Node42&#45;&gt;Node35 -->
<g id="edge14" class="edge">
<title>Node42&#45;&gt;Node35</title>
<path fill="none" stroke="#191970" d="M506.2045,-101.6031C519.3576,-107.638 533.6867,-115.4805 546,-124 563.8493,-136.3497 563.186,-146.1766 582,-157 592.6201,-163.1096 604.9759,-167.8465 616.6402,-171.7947"/>
<polygon fill="#191970" stroke="#191970" points="615.6295,-175.1466 626.2223,-174.9385 617.8117,-168.4954 615.6295,-175.1466"/>
</g>
<!-- Node42&#45;&gt;Node35 -->
<g id="edge20" class="edge">
<title>Node42&#45;&gt;Node35</title>
<path fill="none" stroke="#191970" d="M474.9581,-101.6477C490.7402,-111.5376 522.151,-125.4992 546,-142 563.8493,-154.3497 563.186,-164.1766 582,-175 585.4515,-176.9856 589.0864,-178.8262 592.8213,-180.5172"/>
<polygon fill="#191970" stroke="#191970" points="591.6845,-183.8343 602.2637,-184.4098 594.3524,-177.3626 591.6845,-183.8343"/>
</g>
<!-- Node43 -->
<g id="node14" class="node">
<title>Node43</title>
<g id="a_node14"><a xlink:href="classTileManager.html#a519b2d5c91877025a2faa0dff3ba099c" target="_top" xlink:title="TileManager::calculateSlope\lOrientation">
<polygon fill="none" stroke="#000000" points="582,-126 582,-156 736,-156 736,-126 582,-126"/>
<text text-anchor="start" x="590" y="-144" font-family="Helvetica,sans-Serif" font-size="10.00" fill="#000000">TileManager::calculateSlope</text>
<text text-anchor="middle" x="659" y="-133" font-family="Helvetica,sans-Serif" font-size="10.00" fill="#000000">Orientation</text>
</a>
</g>
</g>
<!-- Node42&#45;&gt;Node43 -->
<g id="edge15" class="edge">
<title>Node42&#45;&gt;Node43</title>
<path fill="none" stroke="#191970" d="M502.8657,-101.564C527.534,-107.7947 560.4534,-116.1094 589.704,-123.4974"/>
<polygon fill="#191970" stroke="#191970" points="588.9132,-126.9075 599.4659,-125.963 590.6275,-120.1207 588.9132,-126.9075"/>
</g>
<!-- Node44 -->
<g id="node15" class="node">
<title>Node44</title>
<g id="a_node15"><a xlink:href="classTileManager.html#a05d41a7f0858cff242f027a08e06ea43" target="_top" xlink:title="TileManager::calculateTile\lOrientation">
<polygon fill="none" stroke="#000000" points="586.5,-77 586.5,-107 731.5,-107 731.5,-77 586.5,-77"/>
<text text-anchor="start" x="594.5" y="-95" font-family="Helvetica,sans-Serif" font-size="10.00" fill="#000000">TileManager::calculateTile</text>
<text text-anchor="middle" x="659" y="-84" font-family="Helvetica,sans-Serif" font-size="10.00" fill="#000000">Orientation</text>
</a>
</g>
</g>
<!-- Node42&#45;&gt;Node44 -->
<g id="edge16" class="edge">
<title>Node42&#45;&gt;Node44</title>
<path fill="none" stroke="#191970" d="M534.2168,-92C547.7891,-92 562.154,-92 576.1198,-92"/>
<polygon fill="#191970" stroke="#191970" points="576.2016,-95.5001 586.2015,-92 576.2015,-88.5001 576.2016,-95.5001"/>
</g>
<!-- Node45 -->
<g id="node16" class="node">
<title>Node45</title>
<g id="a_node16"><a xlink:href="classMapNode.html#afb1cbc0f9e987b7befced46220dd9277" target="_top" xlink:title="check if specific layer can be autotiled. ">
<polygon fill="none" stroke="#000000" points="587,-38.5 587,-57.5 731,-57.5 731,-38.5 587,-38.5"/>
<text text-anchor="middle" x="659" y="-45.5" font-family="Helvetica,sans-Serif" font-size="10.00" fill="#000000">MapNode::isLayerAutoTile</text>
</a>
</g>
</g>
<!-- Node42&#45;&gt;Node45 -->
<g id="edge17" class="edge">
<title>Node42&#45;&gt;Node45</title>
<path fill="none" stroke="#191970" d="M507.0951,-82.4527C536.4576,-75.7931 575.8284,-66.8637 607.1305,-59.7642"/>
<polygon fill="#191970" stroke="#191970" points="608.0089,-63.154 616.987,-57.5287 606.4605,-56.3273 608.0089,-63.154"/>
</g>
<!-- Node47 -->
<g id="node18" class="node">
<title>Node47</title>
<g id="a_node18"><a xlink:href="classMapNode.html#ab34930f43b60310cd475f514e969a401" target="_top" xlink:title="get TileID of specific layer inside NodeData. ">
<polygon fill="none" stroke="#000000" points="602.5,-.5 602.5,-19.5 715.5,-19.5 715.5,-.5 602.5,-.5"/>
<text text-anchor="middle" x="659" y="-7.5" font-family="Helvetica,sans-Serif" font-size="10.00" fill="#000000">MapNode::getTileID</text>
</a>
</g>
</g>
<!-- Node42&#45;&gt;Node47 -->
<g id="edge19" class="edge">
<title>Node42&#45;&gt;Node47</title>
<path fill="none" stroke="#191970" d="M479.9295,-82.3613C501.6187,-68.7364 543.4684,-43.8533 582,-29 588.3876,-26.5377 595.1985,-24.3151 602.0272,-22.3321"/>
<polygon fill="#191970" stroke="#191970" points="603.2794,-25.618 611.9978,-19.598 601.4282,-18.8672 603.2794,-25.618"/>
</g>
<!-- Node46 -->
<g id="node17" class="node">
<title>Node46</title>
<g id="a_node17"><a xlink:href="classMapNode.html#a64cb9a4523c9e78f256fde42f1dee43d" target="_top" xlink:title="check if specific Tile Data is autotile category. ">
<polygon fill="none" stroke="#000000" points="772,-38.5 772,-57.5 912,-57.5 912,-38.5 772,-38.5"/>
<text text-anchor="middle" x="842" y="-45.5" font-family="Helvetica,sans-Serif" font-size="10.00" fill="#000000">MapNode::isDataAutoTile</text>
</a>
</g>
</g>
<!-- Node45&#45;&gt;Node46 -->
<g id="edge18" class="edge">
<title>Node45&#45;&gt;Node46</title>
<path fill="none" stroke="#191970" d="M731.0638,-48C741.1158,-48 751.4959,-48 761.688,-48"/>
<polygon fill="#191970" stroke="#191970" points="761.7984,-51.5001 771.7984,-48 761.7983,-44.5001 761.7984,-51.5001"/>
</g>
</g>
</svg>
