<?xml version="1.0" encoding="UTF-8" standalone="no"?>
<!DOCTYPE svg PUBLIC "-//W3C//DTD SVG 1.1//EN"
 "http://www.w3.org/Graphics/SVG/1.1/DTD/svg11.dtd">
<!-- Generated by graphviz version 2.40.1 (20161225.0304)
 -->
<!-- Title: Camera::centerScreenOnPoint Pages: 1 -->
<svg width="540pt" height="256pt"
 viewBox="0.00 0.00 540.00 256.00" xmlns="http://www.w3.org/2000/svg" xmlns:xlink="http://www.w3.org/1999/xlink">
<g id="graph0" class="graph" transform="scale(1 1) rotate(0) translate(4 252)">
<title>Camera::centerScreenOnPoint</title>
<!-- Node41 -->
<g id="node1" class="node">
<title>Node41</title>
<polygon fill="#bfbfbf" stroke="#000000" points="0,-114.5 0,-133.5 163,-133.5 163,-114.5 0,-114.5"/>
<text text-anchor="middle" x="81.5" y="-121.5" font-family="Helvetica,sans-Serif" font-size="10.00" fill="#000000">Camera::centerScreenOnPoint</text>
</g>
<!-- Node42 -->
<g id="node2" class="node">
<title>Node42</title>
<g id="a_node2"><a xlink:href="isoMath_8cxx.html#a7fa61c3d8ef446fb1c48dc4838023649" target="_top" xlink:title="Check if given coordinates are within map boundaries Checks if coordinates are within map boundaries...">
<polygon fill="none" stroke="#000000" points="206,-228.5 206,-247.5 362,-247.5 362,-228.5 206,-228.5"/>
<text text-anchor="middle" x="284" y="-235.5" font-family="Helvetica,sans-Serif" font-size="10.00" fill="#000000">isPointWithinMapBoundaries</text>
</a>
</g>
</g>
<!-- Node41&#45;&gt;Node42 -->
<g id="edge1" class="edge">
<title>Node41&#45;&gt;Node42</title>
<path fill="none" stroke="#191970" d="M91.2897,-133.6334C110.3923,-151.9136 154.6598,-191.7875 199,-214 208.2466,-218.6322 218.5209,-222.4894 228.6396,-225.6585"/>
<polygon fill="#191970" stroke="#191970" points="227.6733,-229.0225 238.2547,-228.489 229.6501,-222.3074 227.6733,-229.0225"/>
</g>
<!-- Node43 -->
<g id="node3" class="node">
<title>Node43</title>
<g id="a_node3"><a xlink:href="classSingleton.html#af5cb1e5749949e2b68416cfb8d378044" target="_top" xlink:title="Get an instance of the singleton. ">
<polygon fill="none" stroke="#000000" points="412,-215 412,-245 525,-245 525,-215 412,-215"/>
<text text-anchor="start" x="420" y="-233" font-family="Helvetica,sans-Serif" font-size="10.00" fill="#000000">Singleton&lt; Settings</text>
<text text-anchor="middle" x="468.5" y="-222" font-family="Helvetica,sans-Serif" font-size="10.00" fill="#000000"> &gt;::instance</text>
</a>
</g>
</g>
<!-- Node41&#45;&gt;Node43 -->
<g id="edge13" class="edge">
<title>Node41&#45;&gt;Node43</title>
<path fill="none" stroke="#191970" d="M97.6395,-133.5898C119.7557,-146.3138 161.0686,-168.6083 199,-181 266.3441,-203.0005 346.5757,-215.9892 401.8885,-223.0041"/>
<polygon fill="#191970" stroke="#191970" points="401.5638,-226.4905 411.9179,-224.2452 402.4235,-219.5435 401.5638,-226.4905"/>
</g>
<!-- Node44 -->
<g id="node4" class="node">
<title>Node44</title>
<g id="a_node4"><a xlink:href="isoMath_8cxx.html#a229d5dd54cd4e1f43ed5911e4fd266d3" target="_top" xlink:title="converts coordinates from isometric to screen space The given isometric coordinates (which contain he...">
<polygon fill="none" stroke="#000000" points="199,-152.5 199,-171.5 369,-171.5 369,-152.5 199,-152.5"/>
<text text-anchor="middle" x="284" y="-159.5" font-family="Helvetica,sans-Serif" font-size="10.00" fill="#000000">convertIsoToScreenCoordinates</text>
</a>
</g>
</g>
<!-- Node41&#45;&gt;Node44 -->
<g id="edge3" class="edge">
<title>Node41&#45;&gt;Node44</title>
<path fill="none" stroke="#191970" d="M132.3379,-133.54C159.9005,-138.7122 194.1547,-145.1401 223.1314,-150.5778"/>
<polygon fill="#191970" stroke="#191970" points="222.6672,-154.0516 233.1412,-152.4561 223.9583,-147.1717 222.6672,-154.0516"/>
</g>
<!-- Node48 -->
<g id="node8" class="node">
<title>Node48</title>
<g id="a_node8"><a xlink:href="classWindow.html#a4959f94d75af5e975fb117f5ea0ef077" target="_top" xlink:title="Window::getBounds">
<polygon fill="none" stroke="#000000" points="227.5,-114.5 227.5,-133.5 340.5,-133.5 340.5,-114.5 227.5,-114.5"/>
<text text-anchor="middle" x="284" y="-121.5" font-family="Helvetica,sans-Serif" font-size="10.00" fill="#000000">Window::getBounds</text>
</a>
</g>
</g>
<!-- Node41&#45;&gt;Node48 -->
<g id="edge8" class="edge">
<title>Node41&#45;&gt;Node48</title>
<path fill="none" stroke="#191970" d="M163.2808,-124C181.0975,-124 199.7501,-124 216.9179,-124"/>
<polygon fill="#191970" stroke="#191970" points="217.3948,-127.5001 227.3948,-124 217.3947,-120.5001 217.3948,-127.5001"/>
</g>
<!-- Node49 -->
<g id="node9" class="node">
<title>Node49</title>
<g id="a_node9"><a xlink:href="classRectangle.html#a6d7591d194230afb71ac2efcb8fd782f" target="_top" xlink:title="Rectangle::width">
<polygon fill="none" stroke="#000000" points="235,-76.5 235,-95.5 333,-95.5 333,-76.5 235,-76.5"/>
<text text-anchor="middle" x="284" y="-83.5" font-family="Helvetica,sans-Serif" font-size="10.00" fill="#000000">Rectangle::width</text>
</a>
</g>
</g>
<!-- Node41&#45;&gt;Node49 -->
<g id="edge9" class="edge">
<title>Node41&#45;&gt;Node49</title>
<path fill="none" stroke="#191970" d="M132.3379,-114.46C160.4245,-109.1895 195.4595,-102.615 224.7783,-97.1132"/>
<polygon fill="#191970" stroke="#191970" points="225.7067,-100.5002 234.8896,-95.2158 224.4156,-93.6203 225.7067,-100.5002"/>
</g>
<!-- Node51 -->
<g id="node11" class="node">
<title>Node51</title>
<g id="a_node11"><a xlink:href="classRectangle.html#a21cbebe8e941c0c92d7eba0f7badcb6a" target="_top" xlink:title="Rectangle::height">
<polygon fill="none" stroke="#000000" points="233.5,-38.5 233.5,-57.5 334.5,-57.5 334.5,-38.5 233.5,-38.5"/>
<text text-anchor="middle" x="284" y="-45.5" font-family="Helvetica,sans-Serif" font-size="10.00" fill="#000000">Rectangle::height</text>
</a>
</g>
</g>
<!-- Node41&#45;&gt;Node51 -->
<g id="edge11" class="edge">
<title>Node41&#45;&gt;Node51</title>
<path fill="none" stroke="#191970" d="M98.0947,-114.4185C120.386,-101.9097 161.5384,-80.0743 199,-67 206.7138,-64.3078 214.9579,-61.9057 223.1648,-59.7911"/>
<polygon fill="#191970" stroke="#191970" points="224.238,-63.1318 233.1189,-57.3542 222.5734,-56.3326 224.238,-63.1318"/>
</g>
<!-- Node52 -->
<g id="node12" class="node">
<title>Node52</title>
<g id="a_node12"><a xlink:href="classMap.html#ab69938ac0e56eb0da1d1701221f3d185" target="_top" xlink:title="Refresh all the map tile textures. ">
<polygon fill="none" stroke="#000000" points="245.5,-.5 245.5,-19.5 322.5,-19.5 322.5,-.5 245.5,-.5"/>
<text text-anchor="middle" x="284" y="-7.5" font-family="Helvetica,sans-Serif" font-size="10.00" fill="#000000">Map::refresh</text>
</a>
</g>
</g>
<!-- Node41&#45;&gt;Node52 -->
<g id="edge14" class="edge">
<title>Node41&#45;&gt;Node52</title>
<path fill="none" stroke="#191970" d="M90.208,-114.4755C108.4208,-95.1686 152.7006,-51.3601 199,-29 210.1697,-23.6057 222.9087,-19.7175 235.0644,-16.9241"/>
<polygon fill="#191970" stroke="#191970" points="236.0197,-20.3001 245.0908,-14.8262 234.586,-13.4485 236.0197,-20.3001"/>
</g>
<!-- Node42&#45;&gt;Node43 -->
<g id="edge2" class="edge">
<title>Node42&#45;&gt;Node43</title>
<path fill="none" stroke="#191970" d="M362.2446,-234.6073C375.4191,-234.036 388.9837,-233.4479 401.8298,-232.8908"/>
<polygon fill="#191970" stroke="#191970" points="402.1179,-236.3817 411.9569,-232.4517 401.8146,-229.3883 402.1179,-236.3817"/>
</g>
<!-- Node44&#45;&gt;Node43 -->
<g id="edge4" class="edge">
<title>Node44&#45;&gt;Node43</title>
<path fill="none" stroke="#191970" d="M324.3618,-171.5321C338.6778,-175.399 354.7623,-180.3066 369,-186 385.7984,-192.7174 388.5579,-197.4525 405,-205 409.4114,-207.025 414.0371,-209.0421 418.6956,-211.002"/>
<polygon fill="#191970" stroke="#191970" points="417.6659,-214.3629 428.2456,-214.9289 420.328,-207.8888 417.6659,-214.3629"/>
</g>
<!-- Node45 -->
<g id="node5" class="node">
<title>Node45</title>
<g id="a_node5"><a xlink:href="classCamera.html#a8521826d32e55e2cc92fee0fcd10ea8b" target="_top" xlink:title="Camera::cameraOffset">
<polygon fill="none" stroke="#000000" points="405,-176.5 405,-195.5 532,-195.5 532,-176.5 405,-176.5"/>
<text text-anchor="middle" x="468.5" y="-183.5" font-family="Helvetica,sans-Serif" font-size="10.00" fill="#000000">Camera::cameraOffset</text>
</a>
</g>
</g>
<!-- Node44&#45;&gt;Node45 -->
<g id="edge5" class="edge">
<title>Node44&#45;&gt;Node45</title>
<path fill="none" stroke="#191970" d="M357.1843,-171.5199C369.5245,-173.1251 382.3406,-174.7923 394.6965,-176.3995"/>
<polygon fill="#191970" stroke="#191970" points="394.5786,-179.9136 404.9465,-177.7329 395.4816,-172.9721 394.5786,-179.9136"/>
</g>
<!-- Node46 -->
<g id="node6" class="node">
<title>Node46</title>
<g id="a_node6"><a xlink:href="classCamera.html#a72f8d27fc42f8292cc319084409d718e" target="_top" xlink:title="Camera::zoomLevel">
<polygon fill="none" stroke="#000000" points="411.5,-138.5 411.5,-157.5 525.5,-157.5 525.5,-138.5 411.5,-138.5"/>
<text text-anchor="middle" x="468.5" y="-145.5" font-family="Helvetica,sans-Serif" font-size="10.00" fill="#000000">Camera::zoomLevel</text>
</a>
</g>
</g>
<!-- Node44&#45;&gt;Node46 -->
<g id="edge6" class="edge">
<title>Node44&#45;&gt;Node46</title>
<path fill="none" stroke="#191970" d="M369.2292,-155.5327C379.9221,-154.7214 390.7415,-153.9004 401.1084,-153.1137"/>
<polygon fill="#191970" stroke="#191970" points="401.5964,-156.5869 411.3029,-152.3402 401.0667,-149.6069 401.5964,-156.5869"/>
</g>
<!-- Node47 -->
<g id="node7" class="node">
<title>Node47</title>
<g id="a_node7"><a xlink:href="classCamera.html#a96eee891e27570059e7ef82916dce1c1" target="_top" xlink:title="Camera::tileSize">
<polygon fill="none" stroke="#000000" points="420,-100.5 420,-119.5 517,-119.5 517,-100.5 420,-100.5"/>
<text text-anchor="middle" x="468.5" y="-107.5" font-family="Helvetica,sans-Serif" font-size="10.00" fill="#000000">Camera::tileSize</text>
</a>
</g>
</g>
<!-- Node44&#45;&gt;Node47 -->
<g id="edge7" class="edge">
<title>Node44&#45;&gt;Node47</title>
<path fill="none" stroke="#191970" d="M332.8756,-152.4004C344.7865,-149.6978 357.4271,-146.5217 369,-143 385.4237,-138.0022 388.7635,-134.5761 405,-129 411.4347,-126.7901 418.2843,-124.5875 425.014,-122.5067"/>
<polygon fill="#191970" stroke="#191970" points="426.1733,-125.8125 434.7254,-119.5586 424.1399,-119.1144 426.1733,-125.8125"/>
</g>
<!-- Node50 -->
<g id="node10" class="node">
<title>Node50</title>
<g id="a_node10"><a xlink:href="classRectangle.html#ace89ac3a7085543f3f60449fb5cdc8af" target="_top" xlink:title="Rectangle::isEmpty">
<polygon fill="none" stroke="#000000" points="413.5,-54.5 413.5,-73.5 523.5,-73.5 523.5,-54.5 413.5,-54.5"/>
<text text-anchor="middle" x="468.5" y="-61.5" font-family="Helvetica,sans-Serif" font-size="10.00" fill="#000000">Rectangle::isEmpty</text>
</a>
</g>
</g>
<!-- Node49&#45;&gt;Node50 -->
<g id="edge10" class="edge">
<title>Node49&#45;&gt;Node50</title>
<path fill="none" stroke="#191970" d="M333.4426,-80.1044C354.9212,-77.5433 380.3779,-74.5078 403.3683,-71.7664"/>
<polygon fill="#191970" stroke="#191970" points="403.8767,-75.2306 413.3919,-70.5712 403.0478,-68.2799 403.8767,-75.2306"/>
</g>
<!-- Node51&#45;&gt;Node50 -->
<g id="edge12" class="edge">
<title>Node51&#45;&gt;Node50</title>
<path fill="none" stroke="#191970" d="M334.9038,-52.4144C355.9929,-54.2433 380.7168,-56.3874 403.1233,-58.3305"/>
<polygon fill="#191970" stroke="#191970" points="402.9687,-61.8301 413.2338,-59.2073 403.5736,-54.8563 402.9687,-61.8301"/>
</g>
</g>
</svg>
