<?xml version="1.0" encoding="UTF-8" standalone="no"?>
<!DOCTYPE svg PUBLIC "-//W3C//DTD SVG 1.1//EN"
 "http://www.w3.org/Graphics/SVG/1.1/DTD/svg11.dtd">
<!-- Generated by graphviz version 2.40.1 (20161225.0304)
 -->
<!-- Title: UIElement::drawSolidRect Pages: 1 -->
<!--zoomable 256 -->
<svg id="main" version="1.1" xmlns="http://www.w3.org/2000/svg" xmlns:xlink="http://www.w3.org/1999/xlink" xml:space="preserve" onload="init(evt)">
<style type="text/css"><![CDATA[
.edge:hover path { stroke: red; }
.edge:hover polygon { stroke: red; fill: red; }
]]></style>
<script type="text/javascript"><![CDATA[
var edges = document.getElementsByTagName('g');
if (edges && edges.length) {
  for (var i=0;i<edges.length;i++) {
    if (edges[i].id.substr(0,4)=='edge') {
      edges[i].setAttribute('class','edge');
    }
  }
}
]]></script>
        <defs>
                <circle id="rim" cx="0" cy="0" r="7"/>
                <circle id="rim2" cx="0" cy="0" r="3.5"/>
                <g id="zoomPlus">
                        <use xlink:href="#rim" fill="#404040">
                                <set attributeName="fill" to="#808080" begin="zoomplus.mouseover" end="zoomplus.mouseout"/>
                        </use>
                        <path d="M-4,0h8M0,-4v8" fill="none" stroke="white" stroke-width="1.5" pointer-events="none"/>
                </g>
                <g id="zoomMin">
                        <use xlink:href="#rim" fill="#404040">
                                <set attributeName="fill" to="#808080" begin="zoomminus.mouseover" end="zoomminus.mouseout"/>
                        </use>
                        <path d="M-4,0h8" fill="none" stroke="white" stroke-width="1.5" pointer-events="none"/>
                </g>
                <g id="dirArrow">
                        <path fill="none" stroke="white" stroke-width="1.5" d="M0,-3.0v7 M-2.5,-0.5L0,-3.0L2.5,-0.5"/>
                </g>
               <g id="resetDef">
                       <use xlink:href="#rim2" fill="#404040">
                               <set attributeName="fill" to="#808080" begin="reset.mouseover" end="reset.mouseout"/>
                       </use>
               </g>
        </defs>

<script type="text/javascript">
var viewWidth = 1185;
var viewHeight = 256;
var sectionId = 'dynsection-12';
</script>
<script xlink:href="svgpan.js"/>
<svg id="graph" class="graph">
<g id="viewport">
<title>UIElement::drawSolidRect</title>
<!-- Node84 -->
<g id="node1" class="node">
<title>Node84</title>
<polygon fill="#bfbfbf" stroke="#000000" points="0,-133.5 0,-152.5 143,-152.5 143,-133.5 0,-133.5"/>
<text text-anchor="middle" x="71.5" y="-140.5" font-family="Helvetica,sans-Serif" font-size="10.00" fill="#000000">UIElement::drawSolidRect</text>
</g>
<!-- Node85 -->
<g id="node2" class="node">
<title>Node85</title>
<g id="a_node2"><a xlink:href="classUIElement.html#a9c39d325adcf1f6cd925d6c247375778" target="_top" xlink:title="Draws a frame around a textfield Draws a frame around around an existing textfield. This function cannot be used without an existing textfield. ">
<polygon fill="none" stroke="#000000" points="185,-228.5 185,-247.5 333,-247.5 333,-228.5 185,-228.5"/>
<text text-anchor="middle" x="259" y="-235.5" font-family="Helvetica,sans-Serif" font-size="10.00" fill="#000000">UIElement::drawTextFrame</text>
</a>
</g>
</g>
<!-- Node84&#45;&gt;Node85 -->
<g id="edge1" class="edge">
<title>Node84&#45;&gt;Node85</title>
<path fill="none" stroke="#191970" d="M91.4493,-158.7717C112.2733,-174.5928 146.3829,-198.741 179,-214 191.4775,-219.8373 205.7112,-224.6472 218.6794,-228.3885"/>
<polygon fill="#191970" stroke="#191970" points="93.4377,-155.8853 83.3812,-152.5512 89.1636,-161.4289 93.4377,-155.8853"/>
</g>
<!-- Node87 -->
<g id="node4" class="node">
<title>Node87</title>
<g id="a_node4"><a xlink:href="classUIElement.html#afa1b8ca68981752ffb5e40e22ee2a946" target="_top" xlink:title="Change the Texture of the button Changes the texture. ">
<polygon fill="none" stroke="#000000" points="179,-152.5 179,-171.5 339,-171.5 339,-152.5 179,-152.5"/>
<text text-anchor="middle" x="259" y="-159.5" font-family="Helvetica,sans-Serif" font-size="10.00" fill="#000000">UIElement::drawButtonFrame</text>
</a>
</g>
</g>
<!-- Node84&#45;&gt;Node87 -->
<g id="edge3" class="edge">
<title>Node84&#45;&gt;Node87</title>
<path fill="none" stroke="#191970" d="M153.1428,-151.2731C161.6908,-152.1393 170.3753,-153.0194 178.9058,-153.8838"/>
<polygon fill="#191970" stroke="#191970" points="153.4902,-147.7905 143.1883,-150.2644 152.7844,-154.7548 153.4902,-147.7905"/>
</g>
<!-- Node89 -->
<g id="node6" class="node">
<title>Node89</title>
<g id="a_node6"><a xlink:href="classCheckbox.html#a05078cbd151f1192fc70ad2a7528aade" target="_top" xlink:title="Draw the UI Element and/or render it&#39;s textures to the screen Renders the texture of the Ui Element...">
<polygon fill="none" stroke="#000000" points="413.5,-190.5 413.5,-209.5 508.5,-209.5 508.5,-190.5 413.5,-190.5"/>
<text text-anchor="middle" x="461" y="-197.5" font-family="Helvetica,sans-Serif" font-size="10.00" fill="#000000">Checkbox::draw</text>
</a>
</g>
</g>
<!-- Node84&#45;&gt;Node89 -->
<g id="edge17" class="edge">
<title>Node84&#45;&gt;Node89</title>
<path fill="none" stroke="#191970" d="M102.6527,-156.5592C123.7749,-165.1132 152.5573,-175.5427 179,-181 260.0954,-197.7368 356.812,-200.6643 413.318,-200.7157"/>
<polygon fill="#191970" stroke="#191970" points="103.8118,-153.2511 93.2333,-152.6634 101.1364,-159.7197 103.8118,-153.2511"/>
</g>
<!-- Node90 -->
<g id="node7" class="node">
<title>Node90</title>
<g id="a_node7"><a xlink:href="classComboBox.html#a1e4e851a79fccea5a1bd69b96c3bdec7" target="_top" xlink:title="Draw the UI Element and/or render it&#39;s textures to the screen Renders the texture of the Ui Element...">
<polygon fill="none" stroke="#000000" points="411,-114.5 411,-133.5 511,-133.5 511,-114.5 411,-114.5"/>
<text text-anchor="middle" x="461" y="-121.5" font-family="Helvetica,sans-Serif" font-size="10.00" fill="#000000">ComboBox::draw</text>
</a>
</g>
</g>
<!-- Node84&#45;&gt;Node90 -->
<g id="edge18" class="edge">
<title>Node84&#45;&gt;Node90</title>
<path fill="none" stroke="#191970" d="M153.6472,-138.9928C231.4661,-135.1968 345.8247,-129.6183 410.8728,-126.4452"/>
<polygon fill="#191970" stroke="#191970" points="153.2118,-135.5098 143.3942,-139.493 153.5529,-142.5015 153.2118,-135.5098"/>
</g>
<!-- Node92 -->
<g id="node9" class="node">
<title>Node92</title>
<g id="a_node9"><a xlink:href="classUIElement.html#af84e7dae94a8239bb12d73a856e4be67" target="_top" xlink:title="UIElement::drawFrame">
<polygon fill="none" stroke="#000000" points="195,-76.5 195,-95.5 323,-95.5 323,-76.5 195,-76.5"/>
<text text-anchor="middle" x="259" y="-83.5" font-family="Helvetica,sans-Serif" font-size="10.00" fill="#000000">UIElement::drawFrame</text>
</a>
</g>
</g>
<!-- Node84&#45;&gt;Node92 -->
<g id="edge8" class="edge">
<title>Node84&#45;&gt;Node92</title>
<path fill="none" stroke="#191970" d="M112.2909,-130.4111C132.3712,-124.231 156.9457,-116.6931 179,-110 194.8181,-105.1995 212.4124,-99.9151 227.0643,-95.5298"/>
<polygon fill="#191970" stroke="#191970" points="111.0587,-127.1282 102.5319,-133.4166 113.1191,-133.8182 111.0587,-127.1282"/>
</g>
<!-- Node100 -->
<g id="node17" class="node">
<title>Node100</title>
<g id="a_node17"><a xlink:href="classTextField.html#ad5c415ddf2b231d7940dc3cd06f8a068" target="_top" xlink:title="Draw the UI Element and/or render it&#39;s textures to the screen Renders the texture of the Ui Element...">
<polygon fill="none" stroke="#000000" points="214.5,-38.5 214.5,-57.5 303.5,-57.5 303.5,-38.5 214.5,-38.5"/>
<text text-anchor="middle" x="259" y="-45.5" font-family="Helvetica,sans-Serif" font-size="10.00" fill="#000000">TextField::draw</text>
</a>
</g>
</g>
<!-- Node84&#45;&gt;Node100 -->
<g id="edge19" class="edge">
<title>Node84&#45;&gt;Node100</title>
<path fill="none" stroke="#191970" d="M89.8041,-126.6998C110.1794,-109.398 144.7653,-82.4646 179,-67 190.0581,-62.0048 202.5925,-58.2321 214.4037,-55.4207"/>
<polygon fill="#191970" stroke="#191970" points="87.506,-124.0599 82.2297,-133.2475 92.0838,-129.3555 87.506,-124.0599"/>
</g>
<!-- Node86 -->
<g id="node3" class="node">
<title>Node86</title>
<g id="a_node3"><a xlink:href="classTooltip.html#af6075fc45363e3072fd532f7a1bf1376" target="_top" xlink:title="implements draw function. Renders the SDL_Texture generated from the TTF. ">
<polygon fill="none" stroke="#000000" points="421.5,-228.5 421.5,-247.5 500.5,-247.5 500.5,-228.5 421.5,-228.5"/>
<text text-anchor="middle" x="461" y="-235.5" font-family="Helvetica,sans-Serif" font-size="10.00" fill="#000000">Tooltip::draw</text>
</a>
</g>
</g>
<!-- Node85&#45;&gt;Node86 -->
<g id="edge2" class="edge">
<title>Node85&#45;&gt;Node86</title>
<path fill="none" stroke="#191970" d="M343.3244,-238C370.3318,-238 398.9752,-238 421.2401,-238"/>
<polygon fill="#191970" stroke="#191970" points="343.0704,-234.5001 333.0703,-238 343.0703,-241.5001 343.0704,-234.5001"/>
</g>
<!-- Node88 -->
<g id="node5" class="node">
<title>Node88</title>
<g id="a_node5"><a xlink:href="classButton.html#af4d14cf544d8e0620f4ffcd7984103f7" target="_top" xlink:title="Draw the UI Element and/or render it&#39;s textures to the screen Renders the texture of the Ui Element...">
<polygon fill="none" stroke="#000000" points="421.5,-152.5 421.5,-171.5 500.5,-171.5 500.5,-152.5 421.5,-152.5"/>
<text text-anchor="middle" x="461" y="-159.5" font-family="Helvetica,sans-Serif" font-size="10.00" fill="#000000">Button::draw</text>
</a>
</g>
</g>
<!-- Node87&#45;&gt;Node88 -->
<g id="edge4" class="edge">
<title>Node87&#45;&gt;Node88</title>
<path fill="none" stroke="#191970" d="M349.1572,-162C374.5076,-162 400.7797,-162 421.486,-162"/>
<polygon fill="#191970" stroke="#191970" points="349.1259,-158.5001 339.1259,-162 349.1258,-165.5001 349.1259,-158.5001"/>
</g>
<!-- Node87&#45;&gt;Node89 -->
<g id="edge5" class="edge">
<title>Node87&#45;&gt;Node89</title>
<path fill="none" stroke="#191970" d="M319.6546,-173.4103C349.6715,-179.057 385.3779,-185.7741 413.3926,-191.0442"/>
<polygon fill="#191970" stroke="#191970" points="320.1871,-169.9491 309.7124,-171.54 318.8929,-176.8285 320.1871,-169.9491"/>
</g>
<!-- Node87&#45;&gt;Node90 -->
<g id="edge6" class="edge">
<title>Node87&#45;&gt;Node90</title>
<path fill="none" stroke="#191970" d="M319.7741,-150.5673C348.906,-145.087 383.3748,-138.6028 410.9666,-133.4122"/>
<polygon fill="#191970" stroke="#191970" points="318.8929,-147.1715 309.7124,-152.46 320.1871,-154.0509 318.8929,-147.1715"/>
</g>
<!-- Node91 -->
<g id="node8" class="node">
<title>Node91</title>
<g id="a_node8"><a xlink:href="classSlider.html#a4a3727f40be79a7cc6543086435b8194" target="_top" xlink:title="Draw the UI Element and/or render it&#39;s textures to the screen Renders the texture of the Ui Element...">
<polygon fill="none" stroke="#000000" points="424,-76.5 424,-95.5 498,-95.5 498,-76.5 424,-76.5"/>
<text text-anchor="middle" x="461" y="-83.5" font-family="Helvetica,sans-Serif" font-size="10.00" fill="#000000">Slider::draw</text>
</a>
</g>
</g>
<!-- Node87&#45;&gt;Node91 -->
<g id="edge7" class="edge">
<title>Node87&#45;&gt;Node91</title>
<path fill="none" stroke="#191970" d="M284.1257,-147.4596C307.1231,-134.6889 342.4294,-116.4146 375,-105 390.5845,-99.5383 408.3257,-95.3033 423.6302,-92.2321"/>
<polygon fill="#191970" stroke="#191970" points="282.3586,-144.4378 275.3604,-152.3924 285.7917,-150.5381 282.3586,-144.4378"/>
</g>
<!-- Node92&#45;&gt;Node91 -->
<g id="edge16" class="edge">
<title>Node92&#45;&gt;Node91</title>
<path fill="none" stroke="#191970" d="M333.4653,-86C364.212,-86 398.4899,-86 423.7593,-86"/>
<polygon fill="#191970" stroke="#191970" points="333.1916,-82.5001 323.1916,-86 333.1916,-89.5001 333.1916,-82.5001"/>
</g>
<!-- Node93 -->
<g id="node10" class="node">
<title>Node93</title>
<g id="a_node10"><a xlink:href="classButton.html#a6b08fa54560842dec2eabed9a93c3103" target="_top" xlink:title="Button::drawImageButtonFrame">
<polygon fill="none" stroke="#000000" points="375,-.5 375,-19.5 547,-19.5 547,-.5 375,-.5"/>
<text text-anchor="middle" x="461" y="-7.5" font-family="Helvetica,sans-Serif" font-size="10.00" fill="#000000">Button::drawImageButtonFrame</text>
</a>
</g>
</g>
<!-- Node92&#45;&gt;Node93 -->
<g id="edge9" class="edge">
<title>Node92&#45;&gt;Node93</title>
<path fill="none" stroke="#191970" d="M326.7902,-72.9254C331.0295,-71.1902 335.1387,-69.2252 339,-67 359.1569,-55.3839 354.7523,-40.4571 375,-29 381.9201,-25.0843 389.5772,-21.9754 397.3865,-19.5071"/>
<polygon fill="#191970" stroke="#191970" points="325.5433,-69.6546 317.3477,-76.3689 327.9416,-76.231 325.5433,-69.6546"/>
</g>
<!-- Node99 -->
<g id="node16" class="node">
<title>Node99</title>
<g id="a_node16"><a xlink:href="classFrame.html#af8abf245526132e86ee984601a71267a" target="_top" xlink:title="Draw the UI Element and/or render it&#39;s textures to the screen Renders the texture of the Ui Element...">
<polygon fill="none" stroke="#000000" points="422.5,-38.5 422.5,-57.5 499.5,-57.5 499.5,-38.5 422.5,-38.5"/>
<text text-anchor="middle" x="461" y="-45.5" font-family="Helvetica,sans-Serif" font-size="10.00" fill="#000000">Frame::draw</text>
</a>
</g>
</g>
<!-- Node92&#45;&gt;Node99 -->
<g id="edge15" class="edge">
<title>Node92&#45;&gt;Node99</title>
<path fill="none" stroke="#191970" d="M319.8043,-74.5616C353.1087,-68.2964 393.381,-60.7204 422.3785,-55.2654"/>
<polygon fill="#191970" stroke="#191970" points="318.8929,-71.1715 309.7124,-76.46 320.1871,-78.0509 318.8929,-71.1715"/>
</g>
<!-- Node94 -->
<g id="node11" class="node">
<title>Node94</title>
<g id="a_node11"><a xlink:href="classUIManager.html#aae7a89e9d50bb6192e4140e07bd5f94b" target="_top" xlink:title="UIManager::createBuildMenu">
<polygon fill="none" stroke="#000000" points="583,-.5 583,-19.5 740,-19.5 740,-.5 583,-.5"/>
<text text-anchor="middle" x="661.5" y="-7.5" font-family="Helvetica,sans-Serif" font-size="10.00" fill="#000000">UIManager::createBuildMenu</text>
</a>
</g>
</g>
<!-- Node93&#45;&gt;Node94 -->
<g id="edge10" class="edge">
<title>Node93&#45;&gt;Node94</title>
<path fill="none" stroke="#191970" d="M557.2722,-10C565.886,-10 574.539,-10 582.9763,-10"/>
<polygon fill="#191970" stroke="#191970" points="557.1937,-6.5001 547.1936,-10 557.1936,-13.5001 557.1937,-6.5001"/>
</g>
<!-- Node95 -->
<g id="node12" class="node">
<title>Node95</title>
<g id="a_node12"><a xlink:href="classUIManager.html#aedd9d0577af515a852425dfe414b2968" target="_top" xlink:title="Parses the UiLayout.json files and creates UI Elements. ">
<polygon fill="none" stroke="#000000" points="776,-.5 776,-19.5 867,-19.5 867,-.5 776,-.5"/>
<text text-anchor="middle" x="821.5" y="-7.5" font-family="Helvetica,sans-Serif" font-size="10.00" fill="#000000">UIManager::init</text>
</a>
</g>
</g>
<!-- Node94&#45;&gt;Node95 -->
<g id="edge11" class="edge">
<title>Node94&#45;&gt;Node95</title>
<path fill="none" stroke="#191970" d="M750.348,-10C759.049,-10 767.6087,-10 775.6086,-10"/>
<polygon fill="#191970" stroke="#191970" points="750.0938,-6.5001 740.0938,-10 750.0938,-13.5001 750.0938,-6.5001"/>
</g>
<!-- Node96 -->
<g id="node13" class="node">
<title>Node96</title>
<g id="a_node13"><a xlink:href="classGame.html#a1c2ab25d5216b2f4b2fe41efd2c09114" target="_top" xlink:title="begins the game starts running the game ">
<polygon fill="none" stroke="#000000" points="903,-.5 903,-19.5 971,-19.5 971,-.5 903,-.5"/>
<text text-anchor="middle" x="937" y="-7.5" font-family="Helvetica,sans-Serif" font-size="10.00" fill="#000000">Game::run</text>
</a>
</g>
</g>
<!-- Node95&#45;&gt;Node96 -->
<g id="edge12" class="edge">
<title>Node95&#45;&gt;Node96</title>
<path fill="none" stroke="#191970" d="M877.2726,-10C885.9603,-10 894.7077,-10 902.7272,-10"/>
<polygon fill="#191970" stroke="#191970" points="877.1487,-6.5001 867.1487,-10 877.1486,-13.5001 877.1487,-6.5001"/>
</g>
<!-- Node97 -->
<g id="node14" class="node">
<title>Node97</title>
<g id="a_node14"><a xlink:href="main_8cxx.html#af582d708d899e67ead623eac34a22387" target="_top" xlink:title="protected_main">
<polygon fill="none" stroke="#000000" points="1007,-.5 1007,-19.5 1100,-19.5 1100,-.5 1007,-.5"/>
<text text-anchor="middle" x="1053.5" y="-7.5" font-family="Helvetica,sans-Serif" font-size="10.00" fill="#000000">protected_main</text>
</a>
</g>
</g>
<!-- Node96&#45;&gt;Node97 -->
<g id="edge13" class="edge">
<title>Node96&#45;&gt;Node97</title>
<path fill="none" stroke="#191970" d="M981.2653,-10C989.5757,-10 998.2897,-10 1006.6749,-10"/>
<polygon fill="#191970" stroke="#191970" points="981.0098,-6.5001 971.0098,-10 981.0098,-13.5001 981.0098,-6.5001"/>
</g>
<!-- Node98 -->
<g id="node15" class="node">
<title>Node98</title>
<g id="a_node15"><a xlink:href="main_8cxx.html#a3c04138a5bfe5d72780bb7e82a18e627" target="_top" xlink:title="main">
<polygon fill="none" stroke="#000000" points="1136,-.5 1136,-19.5 1177,-19.5 1177,-.5 1136,-.5"/>
<text text-anchor="middle" x="1156.5" y="-7.5" font-family="Helvetica,sans-Serif" font-size="10.00" fill="#000000">main</text>
</a>
</g>
</g>
<!-- Node97&#45;&gt;Node98 -->
<g id="edge14" class="edge">
<title>Node97&#45;&gt;Node98</title>
<path fill="none" stroke="#191970" d="M1110.2133,-10C1119.4322,-10 1128.4259,-10 1135.9965,-10"/>
<polygon fill="#191970" stroke="#191970" points="1110.1782,-6.5001 1100.1782,-10 1110.1781,-13.5001 1110.1782,-6.5001"/>
</g>
</g>
</svg>
        <g id="navigator" transform="translate(0 0)" fill="#404254">
                <rect fill="#f2f5e9" fill-opacity="0.5" stroke="#606060" stroke-width=".5" x="0" y="0" width="60" height="60"/>
                <use id="zoomplus" xlink:href="#zoomPlus" x="17" y="9" onmousedown="handleZoom(evt,'in')"/>
                <use id="zoomminus" xlink:href="#zoomMin" x="42" y="9" onmousedown="handleZoom(evt,'out')"/>
                <use id="reset" xlink:href="#resetDef" x="30" y="36" onmousedown="handleReset()"/>
                <g id="arrowUp" xlink:href="#dirArrow" transform="translate(30 24)" onmousedown="handlePan(0,-1)">
                  <use xlink:href="#rim" fill="#404040">
                        <set attributeName="fill" to="#808080" begin="arrowUp.mouseover" end="arrowUp.mouseout"/>
                  </use>
                  <path fill="none" stroke="white" stroke-width="1.5" d="M0,-3.0v7 M-2.5,-0.5L0,-3.0L2.5,-0.5"/>
                </g>
                <g id="arrowRight" xlink:href="#dirArrow" transform="rotate(90) translate(36 -43)" onmousedown="handlePan(1,0)">
                  <use xlink:href="#rim" fill="#404040">
                        <set attributeName="fill" to="#808080" begin="arrowRight.mouseover" end="arrowRight.mouseout"/>
                  </use>
                  <path fill="none" stroke="white" stroke-width="1.5" d="M0,-3.0v7 M-2.5,-0.5L0,-3.0L2.5,-0.5"/>
                </g>
                <g id="arrowDown" xlink:href="#dirArrow" transform="rotate(180) translate(-30 -48)" onmousedown="handlePan(0,1)">
                  <use xlink:href="#rim" fill="#404040">
                        <set attributeName="fill" to="#808080" begin="arrowDown.mouseover" end="arrowDown.mouseout"/>
                  </use>
                  <path fill="none" stroke="white" stroke-width="1.5" d="M0,-3.0v7 M-2.5,-0.5L0,-3.0L2.5,-0.5"/>
                </g>
                <g id="arrowLeft" xlink:href="#dirArrow" transform="rotate(270) translate(-36 17)" onmousedown="handlePan(-1,0)">
                  <use xlink:href="#rim" fill="#404040">
                        <set attributeName="fill" to="#808080" begin="arrowLeft.mouseover" end="arrowLeft.mouseout"/>
                  </use>
                  <path fill="none" stroke="white" stroke-width="1.5" d="M0,-3.0v7 M-2.5,-0.5L0,-3.0L2.5,-0.5"/>
                </g>
        </g>
        <svg viewBox="0 0 15 15" width="100%" height="30px" preserveAspectRatio="xMaxYMin meet">
         <g id="arrow_out" transform="scale(0.3 0.3)">
          <a xlink:href="classUIElement_a4aca28b5f308b875340868697d0cc50c_icgraph_org.svg" target="_base">
           <rect id="button" ry="5" rx="5" y="6" x="6" height="38" width="38"
                fill="#f2f5e9" fill-opacity="0.5" stroke="#606060" stroke-width="1.0"/>
           <path id="arrow"
             d="M 11.500037,31.436501 C 11.940474,20.09759 22.043105,11.32322 32.158766,21.979434 L 37.068811,17.246167 C 37.068811,17.246167 37.088388,32 37.088388,32 L 22.160133,31.978069 C 22.160133,31.978069 26.997745,27.140456 26.997745,27.140456 C 18.528582,18.264221 13.291696,25.230495 11.500037,31.436501 z"
             style="fill:#404040;"/>
          </a>
         </g>
        </svg>
</svg>
