<?xml version="1.0" encoding="UTF-8" standalone="no"?>
<!DOCTYPE svg PUBLIC "-//W3C//DTD SVG 1.1//EN"
 "http://www.w3.org/Graphics/SVG/1.1/DTD/svg11.dtd">
<!-- Generated by graphviz version 2.40.1 (20161225.0304)
 -->
<!-- Title: Engine::loadGame Pages: 1 -->
<!--zoomable 119 -->
<svg id="main" version="1.1" xmlns="http://www.w3.org/2000/svg" xmlns:xlink="http://www.w3.org/1999/xlink" xml:space="preserve" onload="init(evt)">
<style type="text/css"><![CDATA[
.edge:hover path { stroke: red; }
.edge:hover polygon { stroke: red; fill: red; }
]]></style>
<script type="text/javascript"><![CDATA[
var edges = document.getElementsByTagName('g');
if (edges && edges.length) {
  for (var i=0;i<edges.length;i++) {
    if (edges[i].id.substr(0,4)=='edge') {
      edges[i].setAttribute('class','edge');
    }
  }
}
]]></script>
        <defs>
                <circle id="rim" cx="0" cy="0" r="7"/>
                <circle id="rim2" cx="0" cy="0" r="3.5"/>
                <g id="zoomPlus">
                        <use xlink:href="#rim" fill="#404040">
                                <set attributeName="fill" to="#808080" begin="zoomplus.mouseover" end="zoomplus.mouseout"/>
                        </use>
                        <path d="M-4,0h8M0,-4v8" fill="none" stroke="white" stroke-width="1.5" pointer-events="none"/>
                </g>
                <g id="zoomMin">
                        <use xlink:href="#rim" fill="#404040">
                                <set attributeName="fill" to="#808080" begin="zoomminus.mouseover" end="zoomminus.mouseout"/>
                        </use>
                        <path d="M-4,0h8" fill="none" stroke="white" stroke-width="1.5" pointer-events="none"/>
                </g>
                <g id="dirArrow">
                        <path fill="none" stroke="white" stroke-width="1.5" d="M0,-3.0v7 M-2.5,-0.5L0,-3.0L2.5,-0.5"/>
                </g>
               <g id="resetDef">
                       <use xlink:href="#rim2" fill="#404040">
                               <set attributeName="fill" to="#808080" begin="reset.mouseover" end="reset.mouseout"/>
                       </use>
               </g>
        </defs>

<script type="text/javascript">
var viewWidth = 968;
var viewHeight = 119;
var sectionId = 'dynsection-8';
</script>
<script xlink:href="svgpan.js"/>
<svg id="graph" class="graph">
<g id="viewport">
<title>Engine::loadGame</title>
<!-- Node27 -->
<g id="node1" class="node">
<title>Node27</title>
<polygon fill="#bfbfbf" stroke="#000000" points="0,-53.768 0,-72.768 106,-72.768 106,-53.768 0,-53.768"/>
<text text-anchor="middle" x="53" y="-60.768" font-family="Helvetica,sans-Serif" font-size="10.00" fill="#000000">Engine::loadGame</text>
</g>
<!-- Node28 -->
<g id="node2" class="node">
<title>Node28</title>
<g id="a_node2"><a xlink:href="classEngine.html#a0ba57971ffb5173ecc425461f65a4cd8" target="_top" xlink:title="Quits the game Sets m_running to false and quitting the game. ">
<polygon fill="none" stroke="#000000" points="142,-53.768 142,-72.768 246,-72.768 246,-53.768 142,-53.768"/>
<text text-anchor="middle" x="194" y="-60.768" font-family="Helvetica,sans-Serif" font-size="10.00" fill="#000000">Engine::quitGame</text>
</a>
</g>
</g>
<!-- Node27&#45;&gt;Node28 -->
<g id="edge1" class="edge">
<title>Node27&#45;&gt;Node28</title>
<path fill="none" stroke="#191970" d="M116.4467,-63.268C124.8417,-63.268 133.3713,-63.268 141.5532,-63.268"/>
<polygon fill="#191970" stroke="#191970" points="116.3061,-59.7681 106.3061,-63.268 116.306,-66.7681 116.3061,-59.7681"/>
</g>
<!-- Node33 -->
<g id="node7" class="node">
<title>Node33</title>
<g id="a_node7"><a xlink:href="classUIManager.html#aa78e356fc3b356d790c848319d1c387e" target="_top" xlink:title="UIManager::setCallbackFunctions">
<polygon fill="none" stroke="#000000" points="282,-91.768 282,-110.768 460,-110.768 460,-91.768 282,-91.768"/>
<text text-anchor="middle" x="371" y="-98.768" font-family="Helvetica,sans-Serif" font-size="10.00" fill="#000000">UIManager::setCallbackFunctions</text>
</a>
</g>
</g>
<!-- Node27&#45;&gt;Node33 -->
<g id="edge12" class="edge">
<title>Node27&#45;&gt;Node33</title>
<path fill="none" stroke="#191970" d="M102.2955,-74.9625C115.1604,-77.6921 129.0501,-80.3565 142,-82.268 187.8791,-89.0403 239.3124,-93.5799 281.7948,-96.5181"/>
<polygon fill="#191970" stroke="#191970" points="102.751,-71.4797 92.2354,-72.7725 101.262,-78.3196 102.751,-71.4797"/>
</g>
<!-- Node36 -->
<g id="node10" class="node">
<title>Node36</title>
<g id="a_node10"><a xlink:href="classGame.html#a560299f0291c281f7b44e7ef0dd7b264" target="_top" xlink:title="initializes and displays the main menu initializes and displays the main menu ">
<polygon fill="none" stroke="#000000" points="521.5,-15.768 521.5,-34.768 624.5,-34.768 624.5,-15.768 521.5,-15.768"/>
<text text-anchor="middle" x="573" y="-22.768" font-family="Helvetica,sans-Serif" font-size="10.00" fill="#000000">Game::mainMenu</text>
</a>
</g>
</g>
<!-- Node27&#45;&gt;Node36 -->
<g id="edge13" class="edge">
<title>Node27&#45;&gt;Node36</title>
<path fill="none" stroke="#191970" d="M91.5111,-50.6131C136.5852,-36.5235 213.7596,-14.6332 282,-6.268 360.5233,3.3577 381.1631,.3137 460,-6.268 482.2034,-8.1217 506.6077,-11.9901 527.0373,-15.7556"/>
<polygon fill="#191970" stroke="#191970" points="90.3324,-47.3149 81.8528,-53.6668 92.4427,-53.9893 90.3324,-47.3149"/>
</g>
<!-- Node29 -->
<g id="node3" class="node">
<title>Node29</title>
<g id="a_node3"><a xlink:href="classEventManager.html#a65ec91fd5016d4f9c4167fb8babed2df" target="_top" xlink:title="EventManager::checkEvents">
<polygon fill="none" stroke="#000000" points="496,-53.768 496,-72.768 650,-72.768 650,-53.768 496,-53.768"/>
<text text-anchor="middle" x="573" y="-60.768" font-family="Helvetica,sans-Serif" font-size="10.00" fill="#000000">EventManager::checkEvents</text>
</a>
</g>
</g>
<!-- Node28&#45;&gt;Node29 -->
<g id="edge2" class="edge">
<title>Node28&#45;&gt;Node29</title>
<path fill="none" stroke="#191970" d="M256.4982,-63.268C322.1196,-63.268 425.3875,-63.268 495.9955,-63.268"/>
<polygon fill="#191970" stroke="#191970" points="256.3004,-59.7681 246.3004,-63.268 256.3004,-66.7681 256.3004,-59.7681"/>
</g>
<!-- Node28&#45;&gt;Node33 -->
<g id="edge6" class="edge">
<title>Node28&#45;&gt;Node33</title>
<path fill="none" stroke="#191970" d="M248.7423,-75.0206C273.77,-80.3938 303.0348,-86.6766 326.6566,-91.748"/>
<polygon fill="#191970" stroke="#191970" points="249.1765,-71.5341 238.6646,-72.857 247.7071,-78.3782 249.1765,-71.5341"/>
</g>
<!-- Node35 -->
<g id="node9" class="node">
<title>Node35</title>
<g id="a_node9"><a xlink:href="classGame.html#a8272be134d16c277bb014ad6a22fc357" target="_top" xlink:title="Game::quit">
<polygon fill="none" stroke="#000000" points="335.5,-15.768 335.5,-34.768 406.5,-34.768 406.5,-15.768 335.5,-15.768"/>
<text text-anchor="middle" x="371" y="-22.768" font-family="Helvetica,sans-Serif" font-size="10.00" fill="#000000">Game::quit</text>
</a>
</g>
</g>
<!-- Node28&#45;&gt;Node35 -->
<g id="edge9" class="edge">
<title>Node28&#45;&gt;Node35</title>
<path fill="none" stroke="#191970" d="M248.7714,-51.5092C276.9331,-45.4632 310.4531,-38.2668 335.2613,-32.9407"/>
<polygon fill="#191970" stroke="#191970" points="247.7071,-48.1579 238.6646,-53.679 249.1765,-55.0019 247.7071,-48.1579"/>
</g>
<!-- Node30 -->
<g id="node4" class="node">
<title>Node30</title>
<g id="a_node4"><a xlink:href="classGame.html#a1c2ab25d5216b2f4b2fe41efd2c09114" target="_top" xlink:title="begins the game starts running the game ">
<polygon fill="none" stroke="#000000" points="686,-53.768 686,-72.768 754,-72.768 754,-53.768 686,-53.768"/>
<text text-anchor="middle" x="720" y="-60.768" font-family="Helvetica,sans-Serif" font-size="10.00" fill="#000000">Game::run</text>
</a>
</g>
</g>
<!-- Node29&#45;&gt;Node30 -->
<g id="edge3" class="edge">
<title>Node29&#45;&gt;Node30</title>
<path fill="none" stroke="#191970" d="M660.5248,-63.268C669.4338,-63.268 678.0572,-63.268 685.845,-63.268"/>
<polygon fill="#191970" stroke="#191970" points="660.3744,-59.7681 650.3744,-63.268 660.3743,-66.7681 660.3744,-59.7681"/>
</g>
<!-- Node31 -->
<g id="node5" class="node">
<title>Node31</title>
<g id="a_node5"><a xlink:href="main_8cxx.html#af582d708d899e67ead623eac34a22387" target="_top" xlink:title="protected_main">
<polygon fill="none" stroke="#000000" points="790,-34.768 790,-53.768 883,-53.768 883,-34.768 790,-34.768"/>
<text text-anchor="middle" x="836.5" y="-41.768" font-family="Helvetica,sans-Serif" font-size="10.00" fill="#000000">protected_main</text>
</a>
</g>
</g>
<!-- Node30&#45;&gt;Node31 -->
<g id="edge4" class="edge">
<title>Node30&#45;&gt;Node31</title>
<path fill="none" stroke="#191970" d="M763.9884,-56.0939C772.382,-54.725 781.1965,-53.2875 789.6749,-51.9047"/>
<polygon fill="#191970" stroke="#191970" points="763.316,-52.6573 754.0098,-57.7214 764.4428,-59.566 763.316,-52.6573"/>
</g>
<!-- Node32 -->
<g id="node6" class="node">
<title>Node32</title>
<g id="a_node6"><a xlink:href="main_8cxx.html#a3c04138a5bfe5d72780bb7e82a18e627" target="_top" xlink:title="main">
<polygon fill="none" stroke="#000000" points="919,-34.768 919,-53.768 960,-53.768 960,-34.768 919,-34.768"/>
<text text-anchor="middle" x="939.5" y="-41.768" font-family="Helvetica,sans-Serif" font-size="10.00" fill="#000000">main</text>
</a>
</g>
</g>
<!-- Node31&#45;&gt;Node32 -->
<g id="edge5" class="edge">
<title>Node31&#45;&gt;Node32</title>
<path fill="none" stroke="#191970" d="M893.2133,-44.268C902.4322,-44.268 911.4259,-44.268 918.9965,-44.268"/>
<polygon fill="#191970" stroke="#191970" points="893.1782,-40.7681 883.1782,-44.268 893.1781,-47.7681 893.1782,-40.7681"/>
</g>
<!-- Node34 -->
<g id="node8" class="node">
<title>Node34</title>
<g id="a_node8"><a xlink:href="classUIManager.html#aedd9d0577af515a852425dfe414b2968" target="_top" xlink:title="Parses the UiLayout.json files and creates UI Elements. ">
<polygon fill="none" stroke="#000000" points="527.5,-91.768 527.5,-110.768 618.5,-110.768 618.5,-91.768 527.5,-91.768"/>
<text text-anchor="middle" x="573" y="-98.768" font-family="Helvetica,sans-Serif" font-size="10.00" fill="#000000">UIManager::init</text>
</a>
</g>
</g>
<!-- Node33&#45;&gt;Node34 -->
<g id="edge7" class="edge">
<title>Node33&#45;&gt;Node34</title>
<path fill="none" stroke="#191970" d="M470.3078,-101.268C490.3186,-101.268 510.4179,-101.268 527.4626,-101.268"/>
<polygon fill="#191970" stroke="#191970" points="470.1882,-97.7681 460.1881,-101.268 470.1881,-104.7681 470.1882,-97.7681"/>
</g>
<!-- Node34&#45;&gt;Node30 -->
<g id="edge8" class="edge">
<title>Node34&#45;&gt;Node30</title>
<path fill="none" stroke="#191970" d="M622.406,-89.2564C631.5883,-86.9731 641.0925,-84.5756 650,-82.268 661.7025,-79.2364 674.4719,-75.8067 685.8623,-72.7037"/>
<polygon fill="#191970" stroke="#191970" points="621.4787,-85.8802 612.612,-91.6796 623.1599,-92.6754 621.4787,-85.8802"/>
</g>
<!-- Node35&#45;&gt;Node36 -->
<g id="edge10" class="edge">
<title>Node35&#45;&gt;Node36</title>
<path fill="none" stroke="#191970" d="M416.7878,-25.268C447.9077,-25.268 489.1235,-25.268 521.405,-25.268"/>
<polygon fill="#191970" stroke="#191970" points="416.6486,-21.7681 406.6486,-25.268 416.6485,-28.7681 416.6486,-21.7681"/>
</g>
<!-- Node36&#45;&gt;Node31 -->
<g id="edge11" class="edge">
<title>Node36&#45;&gt;Node31</title>
<path fill="none" stroke="#191970" d="M634.8846,-29.7303C682.2616,-33.1465 746.5977,-37.7855 789.733,-40.8958"/>
<polygon fill="#191970" stroke="#191970" points="634.9706,-26.2275 624.7447,-28.9991 634.4671,-33.2094 634.9706,-26.2275"/>
</g>
</g>
</svg>
        <g id="navigator" transform="translate(0 0)" fill="#404254">
                <rect fill="#f2f5e9" fill-opacity="0.5" stroke="#606060" stroke-width=".5" x="0" y="0" width="60" height="60"/>
                <use id="zoomplus" xlink:href="#zoomPlus" x="17" y="9" onmousedown="handleZoom(evt,'in')"/>
                <use id="zoomminus" xlink:href="#zoomMin" x="42" y="9" onmousedown="handleZoom(evt,'out')"/>
                <use id="reset" xlink:href="#resetDef" x="30" y="36" onmousedown="handleReset()"/>
                <g id="arrowUp" xlink:href="#dirArrow" transform="translate(30 24)" onmousedown="handlePan(0,-1)">
                  <use xlink:href="#rim" fill="#404040">
                        <set attributeName="fill" to="#808080" begin="arrowUp.mouseover" end="arrowUp.mouseout"/>
                  </use>
                  <path fill="none" stroke="white" stroke-width="1.5" d="M0,-3.0v7 M-2.5,-0.5L0,-3.0L2.5,-0.5"/>
                </g>
                <g id="arrowRight" xlink:href="#dirArrow" transform="rotate(90) translate(36 -43)" onmousedown="handlePan(1,0)">
                  <use xlink:href="#rim" fill="#404040">
                        <set attributeName="fill" to="#808080" begin="arrowRight.mouseover" end="arrowRight.mouseout"/>
                  </use>
                  <path fill="none" stroke="white" stroke-width="1.5" d="M0,-3.0v7 M-2.5,-0.5L0,-3.0L2.5,-0.5"/>
                </g>
                <g id="arrowDown" xlink:href="#dirArrow" transform="rotate(180) translate(-30 -48)" onmousedown="handlePan(0,1)">
                  <use xlink:href="#rim" fill="#404040">
                        <set attributeName="fill" to="#808080" begin="arrowDown.mouseover" end="arrowDown.mouseout"/>
                  </use>
                  <path fill="none" stroke="white" stroke-width="1.5" d="M0,-3.0v7 M-2.5,-0.5L0,-3.0L2.5,-0.5"/>
                </g>
                <g id="arrowLeft" xlink:href="#dirArrow" transform="rotate(270) translate(-36 17)" onmousedown="handlePan(-1,0)">
                  <use xlink:href="#rim" fill="#404040">
                        <set attributeName="fill" to="#808080" begin="arrowLeft.mouseover" end="arrowLeft.mouseout"/>
                  </use>
                  <path fill="none" stroke="white" stroke-width="1.5" d="M0,-3.0v7 M-2.5,-0.5L0,-3.0L2.5,-0.5"/>
                </g>
        </g>
        <svg viewBox="0 0 15 15" width="100%" height="30px" preserveAspectRatio="xMaxYMin meet">
         <g id="arrow_out" transform="scale(0.3 0.3)">
          <a xlink:href="classEngine_a83b7dbeee899b36a13d5b07c7ad87ebc_icgraph_org.svg" target="_base">
           <rect id="button" ry="5" rx="5" y="6" x="6" height="38" width="38"
                fill="#f2f5e9" fill-opacity="0.5" stroke="#606060" stroke-width="1.0"/>
           <path id="arrow"
             d="M 11.500037,31.436501 C 11.940474,20.09759 22.043105,11.32322 32.158766,21.979434 L 37.068811,17.246167 C 37.068811,17.246167 37.088388,32 37.088388,32 L 22.160133,31.978069 C 22.160133,31.978069 26.997745,27.140456 26.997745,27.140456 C 18.528582,18.264221 13.291696,25.230495 11.500037,31.436501 z"
             style="fill:#404040;"/>
          </a>
         </g>
        </svg>
</svg>
