<?xml version="1.0" encoding="UTF-8" standalone="no"?>
<!DOCTYPE svg PUBLIC "-//W3C//DTD SVG 1.1//EN"
 "http://www.w3.org/Graphics/SVG/1.1/DTD/svg11.dtd">
<!-- Generated by graphviz version 2.40.1 (20161225.0304)
 -->
<!-- Title: Subject&lt; Data, DispatchPolicy &gt; Pages: 1 -->
<svg width="184pt" height="204pt"
 viewBox="0.00 0.00 184.00 204.00" xmlns="http://www.w3.org/2000/svg" xmlns:xlink="http://www.w3.org/1999/xlink">
<g id="graph0" class="graph" transform="scale(1 1) rotate(0) translate(4 200)">
<title>Subject&lt; Data, DispatchPolicy &gt;</title>
<!-- Node12 -->
<g id="node1" class="node">
<title>Node12</title>
<polygon fill="#bfbfbf" stroke="#000000" points="0,-.5 0,-101.5 176,-101.5 176,-.5 0,-.5"/>
<text text-anchor="middle" x="88" y="-89.5" font-family="Helvetica,sans-Serif" font-size="10.00" fill="#000000">Subject&lt; Data, DispatchPolicy &gt;</text>
<polyline fill="none" stroke="#000000" points="0,-82.5 176,-82.5 "/>
<text text-anchor="start" x="8" y="-70.5" font-family="Helvetica,sans-Serif" font-size="10.00" fill="#000000">&#45; m_Observers</text>
<polyline fill="none" stroke="#000000" points="0,-63.5 176,-63.5 "/>
<text text-anchor="start" x="8" y="-51.5" font-family="Helvetica,sans-Serif" font-size="10.00" fill="#000000">+ addObserver()</text>
<text text-anchor="start" x="8" y="-40.5" font-family="Helvetica,sans-Serif" font-size="10.00" fill="#000000"># Subject()</text>
<text text-anchor="start" x="8" y="-29.5" font-family="Helvetica,sans-Serif" font-size="10.00" fill="#000000"># notifyObservers()</text>
<text text-anchor="start" x="8" y="-18.5" font-family="Helvetica,sans-Serif" font-size="10.00" fill="#000000"># ~Subject()</text>
<text text-anchor="start" x="8" y="-7.5" font-family="Helvetica,sans-Serif" font-size="10.00" fill="#000000"># mustNotify()</text>
</g>
<!-- Node13 -->
<g id="node2" class="node">
<title>Node13</title>
<polygon fill="none" stroke="#bfbfbf" points="43.5,-138.5 43.5,-195.5 132.5,-195.5 132.5,-138.5 43.5,-138.5"/>
<text text-anchor="middle" x="88" y="-183.5" font-family="Helvetica,sans-Serif" font-size="10.00" fill="#000000">DispatchPolicy</text>
<polyline fill="none" stroke="#bfbfbf" points="43.5,-176.5 132.5,-176.5 "/>
<text text-anchor="middle" x="88" y="-164.5" font-family="Helvetica,sans-Serif" font-size="10.00" fill="#000000"> </text>
<polyline fill="none" stroke="#bfbfbf" points="43.5,-157.5 132.5,-157.5 "/>
<text text-anchor="middle" x="88" y="-145.5" font-family="Helvetica,sans-Serif" font-size="10.00" fill="#000000"> </text>
</g>
<!-- Node13&#45;&gt;Node12 -->
<g id="edge1" class="edge">
<title>Node13&#45;&gt;Node12</title>
<path fill="none" stroke="#8b1a1a" d="M88,-128.0826C88,-119.6942 88,-110.7064 88,-101.9373"/>
<polygon fill="none" stroke="#8b1a1a" points="84.5001,-128.3258 88,-138.3258 91.5001,-128.3259 84.5001,-128.3258"/>
</g>
</g>
</svg>
