<?xml version="1.0" encoding="UTF-8" standalone="no"?>
<!DOCTYPE svg PUBLIC "-//W3C//DTD SVG 1.1//EN"
 "http://www.w3.org/Graphics/SVG/1.1/DTD/svg11.dtd">
<!-- Generated by graphviz version 2.40.1 (20161225.0304)
 -->
<!-- Title: MarginConfiguration Pages: 1 -->
<svg width="123pt" height="193pt"
 viewBox="0.00 0.00 123.00 193.00" xmlns="http://www.w3.org/2000/svg" xmlns:xlink="http://www.w3.org/1999/xlink">
<g id="graph0" class="graph" transform="scale(1 1) rotate(0) translate(4 189)">
<title>MarginConfiguration</title>
<!-- Node0 -->
<g id="node1" class="node">
<title>Node0</title>
<polygon fill="#bfbfbf" stroke="#000000" points="0,-.5 0,-57.5 115,-57.5 115,-.5 0,-.5"/>
<text text-anchor="middle" x="57.5" y="-45.5" font-family="Helvetica,sans-Serif" font-size="10.00" fill="#000000">MarginConfiguration</text>
<polyline fill="none" stroke="#000000" points="0,-38.5 115,-38.5 "/>
<text text-anchor="middle" x="57.5" y="-26.5" font-family="Helvetica,sans-Serif" font-size="10.00" fill="#000000"> </text>
<polyline fill="none" stroke="#000000" points="0,-19.5 115,-19.5 "/>
<text text-anchor="middle" x="57.5" y="-7.5" font-family="Helvetica,sans-Serif" font-size="10.00" fill="#000000"> </text>
</g>
<!-- Node1 -->
<g id="node2" class="node">
<title>Node1</title>
<g id="a_node2"><a xlink:href="structPositionHint.html" target="_top" xlink:title="Represents a hint to the position of a (or multiple) Box. ">
<polygon fill="none" stroke="#000000" points="19.5,-94.5 19.5,-184.5 95.5,-184.5 95.5,-94.5 19.5,-94.5"/>
<text text-anchor="middle" x="57.5" y="-172.5" font-family="Helvetica,sans-Serif" font-size="10.00" fill="#000000">PositionHint</text>
<polyline fill="none" stroke="#000000" points="19.5,-165.5 95.5,-165.5 "/>
<text text-anchor="start" x="27.5" y="-153.5" font-family="Helvetica,sans-Serif" font-size="10.00" fill="#000000">+ left</text>
<text text-anchor="start" x="27.5" y="-142.5" font-family="Helvetica,sans-Serif" font-size="10.00" fill="#000000">+ right</text>
<text text-anchor="start" x="27.5" y="-131.5" font-family="Helvetica,sans-Serif" font-size="10.00" fill="#000000">+ top</text>
<text text-anchor="start" x="27.5" y="-120.5" font-family="Helvetica,sans-Serif" font-size="10.00" fill="#000000">+ bottom</text>
<polyline fill="none" stroke="#000000" points="19.5,-113.5 95.5,-113.5 "/>
<text text-anchor="middle" x="57.5" y="-101.5" font-family="Helvetica,sans-Serif" font-size="10.00" fill="#000000"> </text>
</a>
</g>
</g>
<!-- Node1&#45;&gt;Node0 -->
<g id="edge1" class="edge">
<title>Node1&#45;&gt;Node0</title>
<path fill="none" stroke="#191970" d="M57.5,-83.9648C57.5,-74.8235 57.5,-65.6927 57.5,-57.5732"/>
<polygon fill="none" stroke="#191970" points="54.0001,-84.2366 57.5,-94.2366 61.0001,-84.2366 54.0001,-84.2366"/>
</g>
</g>
</svg>
