<?xml version="1.0" encoding="UTF-8" standalone="no"?>
<!DOCTYPE svg PUBLIC "-//W3C//DTD SVG 1.1//EN"
 "http://www.w3.org/Graphics/SVG/1.1/DTD/svg11.dtd">
<!-- Generated by graphviz version 2.40.1 (20161225.0304)
 -->
<!-- Title: MapNode::getTileID Pages: 1 -->
<svg width="707pt" height="131pt"
 viewBox="0.00 0.00 707.00 131.00" xmlns="http://www.w3.org/2000/svg" xmlns:xlink="http://www.w3.org/1999/xlink">
<g id="graph0" class="graph" transform="scale(1 1) rotate(0) translate(4 127)">
<title>MapNode::getTileID</title>
<!-- Node97 -->
<g id="node1" class="node">
<title>Node97</title>
<polygon fill="#bfbfbf" stroke="#000000" points="0,-57.5 0,-76.5 113,-76.5 113,-57.5 0,-57.5"/>
<text text-anchor="middle" x="56.5" y="-64.5" font-family="Helvetica,sans-Serif" font-size="10.00" fill="#000000">MapNode::getTileID</text>
</g>
<!-- Node98 -->
<g id="node2" class="node">
<title>Node98</title>
<g id="a_node2"><a xlink:href="classMapNode.html#aabbb10c19ddd79e9c519eb4af5e995e0" target="_top" xlink:title="Update texture. ">
<polygon fill="none" stroke="#000000" points="149,-57.5 149,-76.5 287,-76.5 287,-57.5 149,-57.5"/>
<text text-anchor="middle" x="218" y="-64.5" font-family="Helvetica,sans-Serif" font-size="10.00" fill="#000000">MapNode::updateTexture</text>
</a>
</g>
</g>
<!-- Node97&#45;&gt;Node98 -->
<g id="edge1" class="edge">
<title>Node97&#45;&gt;Node98</title>
<path fill="none" stroke="#191970" d="M123.5123,-67C131.8735,-67 140.4372,-67 148.8305,-67"/>
<polygon fill="#191970" stroke="#191970" points="123.4389,-63.5001 113.4389,-67 123.4388,-70.5001 123.4389,-63.5001"/>
</g>
<!-- Node99 -->
<g id="node3" class="node">
<title>Node99</title>
<g id="a_node3"><a xlink:href="classMapNode.html#ae515fc96b543bf97237bfb1ca53fe571" target="_top" xlink:title="MapNode::MapNode">
<polygon fill="none" stroke="#000000" points="541.5,-103.5 541.5,-122.5 655.5,-122.5 655.5,-103.5 541.5,-103.5"/>
<text text-anchor="middle" x="598.5" y="-110.5" font-family="Helvetica,sans-Serif" font-size="10.00" fill="#000000">MapNode::MapNode</text>
</a>
</g>
</g>
<!-- Node98&#45;&gt;Node99 -->
<g id="edge2" class="edge">
<title>Node98&#45;&gt;Node99</title>
<path fill="none" stroke="#191970" d="M247.5529,-80.565C268.2089,-89.3257 296.6953,-99.9919 323,-105 397.504,-119.1846 485.3599,-118.8714 541.4743,-116.5752"/>
<polygon fill="#191970" stroke="#191970" points="248.9344,-77.3492 238.3679,-76.5761 246.146,-83.7699 248.9344,-77.3492"/>
</g>
<!-- Node100 -->
<g id="node4" class="node">
<title>Node100</title>
<g id="a_node4"><a xlink:href="classMapNode.html#a92b521fa20e0a75d81523a52ba1d8250" target="_top" xlink:title="MapNode::setBitmask">
<polygon fill="none" stroke="#000000" points="330.5,-76.5 330.5,-95.5 454.5,-95.5 454.5,-76.5 330.5,-76.5"/>
<text text-anchor="middle" x="392.5" y="-83.5" font-family="Helvetica,sans-Serif" font-size="10.00" fill="#000000">MapNode::setBitmask</text>
</a>
</g>
</g>
<!-- Node98&#45;&gt;Node100 -->
<g id="edge3" class="edge">
<title>Node98&#45;&gt;Node100</title>
<path fill="none" stroke="#191970" d="M297.3436,-75.6391C308.4451,-76.8479 319.7186,-78.0754 330.4375,-79.2425"/>
<polygon fill="#191970" stroke="#191970" points="297.5378,-72.1397 287.2177,-74.5366 296.78,-79.0985 297.5378,-72.1397"/>
</g>
<!-- Node101 -->
<g id="node5" class="node">
<title>Node101</title>
<g id="a_node5"><a xlink:href="classMapNode.html#a26e55c94192a56990f8a59e7af139a73" target="_top" xlink:title="MapNode::setTileID">
<polygon fill="none" stroke="#000000" points="336.5,-38.5 336.5,-57.5 448.5,-57.5 448.5,-38.5 336.5,-38.5"/>
<text text-anchor="middle" x="392.5" y="-45.5" font-family="Helvetica,sans-Serif" font-size="10.00" fill="#000000">MapNode::setTileID</text>
</a>
</g>
</g>
<!-- Node98&#45;&gt;Node101 -->
<g id="edge4" class="edge">
<title>Node98&#45;&gt;Node101</title>
<path fill="none" stroke="#191970" d="M297.2213,-58.3742C310.392,-56.9401 323.8088,-55.4793 336.2575,-54.1238"/>
<polygon fill="#191970" stroke="#191970" points="296.78,-54.9015 287.2177,-59.4634 297.5378,-61.8603 296.78,-54.9015"/>
</g>
<!-- Node103 -->
<g id="node7" class="node">
<title>Node103</title>
<g id="a_node7"><a xlink:href="classMapNode.html#a002b868485074599fbf087fc4c96b2c9" target="_top" xlink:title="Demolish a node Removes all tiles on a node. This effects all layers where something to demolish is p...">
<polygon fill="none" stroke="#000000" points="323,-.5 323,-19.5 462,-19.5 462,-.5 323,-.5"/>
<text text-anchor="middle" x="392.5" y="-7.5" font-family="Helvetica,sans-Serif" font-size="10.00" fill="#000000">MapNode::demolishNode</text>
</a>
</g>
</g>
<!-- Node98&#45;&gt;Node103 -->
<g id="edge7" class="edge">
<title>Node98&#45;&gt;Node103</title>
<path fill="none" stroke="#191970" d="M252.3286,-53.7868C272.7244,-46.1347 299.1787,-36.5532 323,-29 333.4928,-25.6729 344.9843,-22.3881 355.5479,-19.5096"/>
<polygon fill="#191970" stroke="#191970" points="250.9588,-50.5627 242.8409,-57.3709 253.4326,-57.1111 250.9588,-50.5627"/>
</g>
<!-- Node101&#45;&gt;Node99 -->
<g id="edge5" class="edge">
<title>Node101&#45;&gt;Node99</title>
<path fill="none" stroke="#191970" d="M442.0356,-60.3994C448.8033,-62.4248 455.6147,-64.64 462,-67 478.597,-73.1341 481.4466,-77.7493 498,-84 518.047,-91.5698 540.9657,-98.3227 559.8496,-103.4034"/>
<polygon fill="#191970" stroke="#191970" points="442.784,-56.9728 432.2061,-57.5731 440.8495,-63.7003 442.784,-56.9728"/>
</g>
<!-- Node102 -->
<g id="node6" class="node">
<title>Node102</title>
<g id="a_node6"><a xlink:href="classMap.html#a404c38b33d61f8c63ce2c2efb864d6dd" target="_top" xlink:title="Set the Tile ID Of Node object Also invokes all necessary texture updates (auto&#45;tiling, slopes, ...) ">
<polygon fill="none" stroke="#000000" points="498,-22 498,-74 699,-74 699,-22 498,-22"/>
<text text-anchor="start" x="506" y="-62" font-family="Helvetica,sans-Serif" font-size="10.00" fill="#000000">Map&lt; ObserverSPtr&lt;</text>
<text text-anchor="start" x="506" y="-51" font-family="Helvetica,sans-Serif" font-size="10.00" fill="#000000"> Notification &gt;, Set</text>
<text text-anchor="start" x="506" y="-40" font-family="Helvetica,sans-Serif" font-size="10.00" fill="#000000">&lt; typename Notification</text>
<text text-anchor="middle" x="598.5" y="-29" font-family="Helvetica,sans-Serif" font-size="10.00" fill="#000000">::TransitionType &gt; &gt;::setTileIDOfNode</text>
</a>
</g>
</g>
<!-- Node101&#45;&gt;Node102 -->
<g id="edge6" class="edge">
<title>Node101&#45;&gt;Node102</title>
<path fill="none" stroke="#191970" d="M458.7581,-48C471.2017,-48 484.4687,-48 497.6876,-48"/>
<polygon fill="#191970" stroke="#191970" points="458.5183,-44.5001 448.5183,-48 458.5183,-51.5001 458.5183,-44.5001"/>
</g>
</g>
</svg>
