<?xml version="1.0" encoding="UTF-8" standalone="no"?>
<!DOCTYPE svg PUBLIC "-//W3C//DTD SVG 1.1//EN"
 "http://www.w3.org/Graphics/SVG/1.1/DTD/svg11.dtd">
<!-- Generated by graphviz version 2.40.1 (20161225.0304)
 -->
<!-- Title: EventManager::setWindow Pages: 1 -->
<svg width="490pt" height="28pt"
 viewBox="0.00 0.00 490.00 28.00" xmlns="http://www.w3.org/2000/svg" xmlns:xlink="http://www.w3.org/1999/xlink">
<g id="graph0" class="graph" transform="scale(1 1) rotate(0) translate(4 24)">
<title>EventManager::setWindow</title>
<!-- Node79 -->
<g id="node1" class="node">
<title>Node79</title>
<polygon fill="#bfbfbf" stroke="#000000" points="0,-.5 0,-19.5 146,-19.5 146,-.5 0,-.5"/>
<text text-anchor="middle" x="73" y="-7.5" font-family="Helvetica,sans-Serif" font-size="10.00" fill="#000000">EventManager::setWindow</text>
</g>
<!-- Node80 -->
<g id="node2" class="node">
<title>Node80</title>
<g id="a_node2"><a xlink:href="classGame.html#afa220e533b80333d5b3c8dbba01fdd16" target="_top" xlink:title="starts setting up the game starts game initialization. ">
<polygon fill="none" stroke="#000000" points="182,-.5 182,-19.5 276,-19.5 276,-.5 182,-.5"/>
<text text-anchor="middle" x="229" y="-7.5" font-family="Helvetica,sans-Serif" font-size="10.00" fill="#000000">Game::initialize</text>
</a>
</g>
</g>
<!-- Node79&#45;&gt;Node80 -->
<g id="edge1" class="edge">
<title>Node79&#45;&gt;Node80</title>
<path fill="none" stroke="#191970" d="M156.5761,-10C165.2033,-10 173.739,-10 181.7583,-10"/>
<polygon fill="#191970" stroke="#191970" points="156.432,-6.5001 146.432,-10 156.432,-13.5001 156.432,-6.5001"/>
</g>
<!-- Node81 -->
<g id="node3" class="node">
<title>Node81</title>
<g id="a_node3"><a xlink:href="main_8cxx.html#af582d708d899e67ead623eac34a22387" target="_top" xlink:title="protected_main">
<polygon fill="none" stroke="#000000" points="312,-.5 312,-19.5 405,-19.5 405,-.5 312,-.5"/>
<text text-anchor="middle" x="358.5" y="-7.5" font-family="Helvetica,sans-Serif" font-size="10.00" fill="#000000">protected_main</text>
</a>
</g>
</g>
<!-- Node80&#45;&gt;Node81 -->
<g id="edge2" class="edge">
<title>Node80&#45;&gt;Node81</title>
<path fill="none" stroke="#191970" d="M286.3173,-10C294.7805,-10 303.4153,-10 311.6331,-10"/>
<polygon fill="#191970" stroke="#191970" points="286.1188,-6.5001 276.1188,-10 286.1188,-13.5001 286.1188,-6.5001"/>
</g>
<!-- Node82 -->
<g id="node4" class="node">
<title>Node82</title>
<g id="a_node4"><a xlink:href="main_8cxx.html#a3c04138a5bfe5d72780bb7e82a18e627" target="_top" xlink:title="main">
<polygon fill="none" stroke="#000000" points="441,-.5 441,-19.5 482,-19.5 482,-.5 441,-.5"/>
<text text-anchor="middle" x="461.5" y="-7.5" font-family="Helvetica,sans-Serif" font-size="10.00" fill="#000000">main</text>
</a>
</g>
</g>
<!-- Node81&#45;&gt;Node82 -->
<g id="edge3" class="edge">
<title>Node81&#45;&gt;Node82</title>
<path fill="none" stroke="#191970" d="M415.2133,-10C424.4322,-10 433.4259,-10 440.9965,-10"/>
<polygon fill="#191970" stroke="#191970" points="415.1782,-6.5001 405.1782,-10 415.1781,-13.5001 415.1782,-6.5001"/>
</g>
</g>
</svg>
