<?xml version="1.0" encoding="UTF-8" standalone="no"?>
<!DOCTYPE svg PUBLIC "-//W3C//DTD SVG 1.1//EN"
 "http://www.w3.org/Graphics/SVG/1.1/DTD/svg11.dtd">
<!-- Generated by graphviz version 2.40.1 (20161225.0304)
 -->
<!-- Title: ComboBox::getActiveID Pages: 1 -->
<svg width="976pt" height="39pt"
 viewBox="0.00 0.00 976.00 39.00" xmlns="http://www.w3.org/2000/svg" xmlns:xlink="http://www.w3.org/1999/xlink">
<g id="graph0" class="graph" transform="scale(1 1) rotate(0) translate(4 35)">
<title>ComboBox::getActiveID</title>
<!-- Node51 -->
<g id="node1" class="node">
<title>Node51</title>
<polygon fill="#bfbfbf" stroke="#000000" points="0,-6 0,-25 133,-25 133,-6 0,-6"/>
<text text-anchor="middle" x="66.5" y="-13" font-family="Helvetica,sans-Serif" font-size="10.00" fill="#000000">ComboBox::getActiveID</text>
</g>
<!-- Node52 -->
<g id="node2" class="node">
<title>Node52</title>
<g id="a_node2"><a xlink:href="classUIManager.html#a3ccb2fc669262f18ebdcdf3d5c43a3e8" target="_top" xlink:title="CallbackFunction that sets the Build Menu Position Used as callback function for the ComboBox that ho...">
<polygon fill="none" stroke="#000000" points="169,-6 169,-25 349,-25 349,-6 169,-6"/>
<text text-anchor="middle" x="259" y="-13" font-family="Helvetica,sans-Serif" font-size="10.00" fill="#000000">UIManager::setBuildMenuPosition</text>
</a>
</g>
</g>
<!-- Node51&#45;&gt;Node52 -->
<g id="edge1" class="edge">
<title>Node51&#45;&gt;Node52</title>
<path fill="none" stroke="#191970" d="M143.1464,-15.5C151.5502,-15.5 160.1622,-15.5 168.7112,-15.5"/>
<polygon fill="#191970" stroke="#191970" points="143.0172,-12.0001 133.0171,-15.5 143.0171,-19.0001 143.0172,-12.0001"/>
</g>
<!-- Node53 -->
<g id="node3" class="node">
<title>Node53</title>
<g id="a_node3"><a xlink:href="classUIManager.html#a5c4cb8e02504ffa0d3faf45181feab9d" target="_top" xlink:title="Fill UI Widgets whose ID start with a $ with data Used for filling widgets with data, like BuildMenu Position combobox, Screen Resolution ComboBox and so on. ">
<polygon fill="none" stroke="#000000" points="385,-.5 385,-30.5 531,-30.5 531,-.5 385,-.5"/>
<text text-anchor="start" x="393" y="-18.5" font-family="Helvetica,sans-Serif" font-size="10.00" fill="#000000">UIManager::initializeDollar</text>
<text text-anchor="middle" x="458" y="-7.5" font-family="Helvetica,sans-Serif" font-size="10.00" fill="#000000">Variables</text>
</a>
</g>
</g>
<!-- Node52&#45;&gt;Node53 -->
<g id="edge2" class="edge">
<title>Node52&#45;&gt;Node53</title>
<path fill="none" stroke="#191970" d="M359.2766,-15.5C367.8841,-15.5 376.4838,-15.5 384.8181,-15.5"/>
<polygon fill="#191970" stroke="#191970" points="359.1841,-12.0001 349.184,-15.5 359.184,-19.0001 359.1841,-12.0001"/>
</g>
<!-- Node54 -->
<g id="node4" class="node">
<title>Node54</title>
<g id="a_node4"><a xlink:href="classUIManager.html#aedd9d0577af515a852425dfe414b2968" target="_top" xlink:title="Parses the UiLayout.json files and creates UI Elements. ">
<polygon fill="none" stroke="#000000" points="567,-6 567,-25 658,-25 658,-6 567,-6"/>
<text text-anchor="middle" x="612.5" y="-13" font-family="Helvetica,sans-Serif" font-size="10.00" fill="#000000">UIManager::init</text>
</a>
</g>
</g>
<!-- Node53&#45;&gt;Node54 -->
<g id="edge3" class="edge">
<title>Node53&#45;&gt;Node54</title>
<path fill="none" stroke="#191970" d="M541.4491,-15.5C550.1801,-15.5 558.8047,-15.5 566.873,-15.5"/>
<polygon fill="#191970" stroke="#191970" points="541.178,-12.0001 531.1779,-15.5 541.1779,-19.0001 541.178,-12.0001"/>
</g>
<!-- Node55 -->
<g id="node5" class="node">
<title>Node55</title>
<g id="a_node5"><a xlink:href="classGame.html#a1c2ab25d5216b2f4b2fe41efd2c09114" target="_top" xlink:title="begins the game starts running the game ">
<polygon fill="none" stroke="#000000" points="694,-6 694,-25 762,-25 762,-6 694,-6"/>
<text text-anchor="middle" x="728" y="-13" font-family="Helvetica,sans-Serif" font-size="10.00" fill="#000000">Game::run</text>
</a>
</g>
</g>
<!-- Node54&#45;&gt;Node55 -->
<g id="edge4" class="edge">
<title>Node54&#45;&gt;Node55</title>
<path fill="none" stroke="#191970" d="M668.2726,-15.5C676.9603,-15.5 685.7077,-15.5 693.7272,-15.5"/>
<polygon fill="#191970" stroke="#191970" points="668.1487,-12.0001 658.1487,-15.5 668.1486,-19.0001 668.1487,-12.0001"/>
</g>
<!-- Node56 -->
<g id="node6" class="node">
<title>Node56</title>
<g id="a_node6"><a xlink:href="main_8cxx.html#af582d708d899e67ead623eac34a22387" target="_top" xlink:title="protected_main">
<polygon fill="none" stroke="#000000" points="798,-6 798,-25 891,-25 891,-6 798,-6"/>
<text text-anchor="middle" x="844.5" y="-13" font-family="Helvetica,sans-Serif" font-size="10.00" fill="#000000">protected_main</text>
</a>
</g>
</g>
<!-- Node55&#45;&gt;Node56 -->
<g id="edge5" class="edge">
<title>Node55&#45;&gt;Node56</title>
<path fill="none" stroke="#191970" d="M772.2653,-15.5C780.5757,-15.5 789.2897,-15.5 797.6749,-15.5"/>
<polygon fill="#191970" stroke="#191970" points="772.0098,-12.0001 762.0098,-15.5 772.0098,-19.0001 772.0098,-12.0001"/>
</g>
<!-- Node57 -->
<g id="node7" class="node">
<title>Node57</title>
<g id="a_node7"><a xlink:href="main_8cxx.html#a3c04138a5bfe5d72780bb7e82a18e627" target="_top" xlink:title="main">
<polygon fill="none" stroke="#000000" points="927,-6 927,-25 968,-25 968,-6 927,-6"/>
<text text-anchor="middle" x="947.5" y="-13" font-family="Helvetica,sans-Serif" font-size="10.00" fill="#000000">main</text>
</a>
</g>
</g>
<!-- Node56&#45;&gt;Node57 -->
<g id="edge6" class="edge">
<title>Node56&#45;&gt;Node57</title>
<path fill="none" stroke="#191970" d="M901.2133,-15.5C910.4322,-15.5 919.4259,-15.5 926.9965,-15.5"/>
<polygon fill="#191970" stroke="#191970" points="901.1782,-12.0001 891.1782,-15.5 901.1781,-19.0001 901.1782,-12.0001"/>
</g>
</g>
</svg>
