<?xml version="1.0" encoding="UTF-8" standalone="no"?>
<!DOCTYPE svg PUBLIC "-//W3C//DTD SVG 1.1//EN"
 "http://www.w3.org/Graphics/SVG/1.1/DTD/svg11.dtd">
<!-- Generated by graphviz version 2.40.1 (20161225.0304)
 -->
<!-- Title: UIManager::getUiElementByID Pages: 1 -->
<svg width="1383pt" height="91pt"
 viewBox="0.00 0.00 1383.00 90.78" xmlns="http://www.w3.org/2000/svg" xmlns:xlink="http://www.w3.org/1999/xlink">
<g id="graph0" class="graph" transform="scale(1 1) rotate(0) translate(4 86.779)">
<title>UIManager::getUiElementByID</title>
<!-- Node97 -->
<g id="node1" class="node">
<title>Node97</title>
<polygon fill="#bfbfbf" stroke="#000000" points="0,-9.922 0,-28.922 165,-28.922 165,-9.922 0,-9.922"/>
<text text-anchor="middle" x="82.5" y="-16.922" font-family="Helvetica,sans-Serif" font-size="10.00" fill="#000000">UIManager::getUiElementByID</text>
</g>
<!-- Node98 -->
<g id="node2" class="node">
<title>Node98</title>
<g id="a_node2"><a xlink:href="classLayout.html#a99004e4afcea6a945e3890b19cce6236" target="_top" xlink:title="Arrange Elements that are aligned to a parent This is a seperate function, so it can recurse if a par...">
<polygon fill="none" stroke="#000000" points="201,-31.922 201,-50.922 365,-50.922 365,-31.922 201,-31.922"/>
<text text-anchor="middle" x="283" y="-38.922" font-family="Helvetica,sans-Serif" font-size="10.00" fill="#000000">Layout::arrangeChildElements</text>
</a>
</g>
</g>
<!-- Node97&#45;&gt;Node98 -->
<g id="edge1" class="edge">
<title>Node97&#45;&gt;Node98</title>
<path fill="none" stroke="#191970" d="M175.1932,-29.5928C183.7402,-30.5307 192.3609,-31.4766 200.8049,-32.4031"/>
<polygon fill="#191970" stroke="#191970" points="175.5307,-26.1089 165.2086,-28.4973 174.7672,-33.0672 175.5307,-26.1089"/>
</g>
<!-- Node100 -->
<g id="node4" class="node">
<title>Node100</title>
<g id="a_node4"><a xlink:href="classUIManager.html#aedd9d0577af515a852425dfe414b2968" target="_top" xlink:title="Parses the UiLayout.json files and creates UI Elements. ">
<polygon fill="none" stroke="#000000" points="974,-34.922 974,-53.922 1065,-53.922 1065,-34.922 974,-34.922"/>
<text text-anchor="middle" x="1019.5" y="-41.922" font-family="Helvetica,sans-Serif" font-size="10.00" fill="#000000">UIManager::init</text>
</a>
</g>
</g>
<!-- Node97&#45;&gt;Node100 -->
<g id="edge10" class="edge">
<title>Node97&#45;&gt;Node100</title>
<path fill="none" stroke="#191970" d="M175.6745,-12.297C254.2316,-6.9049 369.6501,-.422 470.5,-.422 470.5,-.422 470.5,-.422 666,-.422 787.2152,-.422 818.7408,1.266 938,-20.422 956.4303,-23.7737 976.6322,-29.7065 992.312,-34.8346"/>
<polygon fill="#191970" stroke="#191970" points="175.0544,-8.8315 165.3209,-13.016 175.5394,-15.8147 175.0544,-8.8315"/>
</g>
<!-- Node99 -->
<g id="node3" class="node">
<title>Node99</title>
<g id="a_node3"><a xlink:href="classLayout.html#afa734c5af10f59f3dadb066054fe81ab" target="_top" xlink:title="Arrange the layout elements. ">
<polygon fill="none" stroke="#000000" points="401,-34.922 401,-53.922 540,-53.922 540,-34.922 401,-34.922"/>
<text text-anchor="middle" x="470.5" y="-41.922" font-family="Helvetica,sans-Serif" font-size="10.00" fill="#000000">Layout::arrangeElements</text>
</a>
</g>
</g>
<!-- Node98&#45;&gt;Node99 -->
<g id="edge2" class="edge">
<title>Node98&#45;&gt;Node99</title>
<path fill="none" stroke="#191970" d="M375.3281,-42.8993C383.9426,-43.0371 392.5731,-43.1752 400.9286,-43.3089"/>
<polygon fill="#191970" stroke="#191970" points="375.295,-39.3984 365.2402,-42.7379 375.1829,-46.3975 375.295,-39.3984"/>
</g>
<!-- Node99&#45;&gt;Node100 -->
<g id="edge3" class="edge">
<title>Node99&#45;&gt;Node100</title>
<path fill="none" stroke="#191970" d="M524.8895,-55.8299C541.2474,-58.8239 559.29,-61.6951 576,-63.422 736.0586,-79.963 778.8676,-93.2802 938,-69.422 957.6128,-66.4815 979.0234,-59.7697 994.9761,-54.0403"/>
<polygon fill="#191970" stroke="#191970" points="525.4239,-52.3691 514.949,-53.959 524.1291,-59.2483 525.4239,-52.3691"/>
</g>
<!-- Node104 -->
<g id="node8" class="node">
<title>Node104</title>
<g id="a_node8"><a xlink:href="classUIManager.html#a3ccb2fc669262f18ebdcdf3d5c43a3e8" target="_top" xlink:title="CallbackFunction that sets the Build Menu Position Used as callback function for the ComboBox that ho...">
<polygon fill="none" stroke="#000000" points="576,-34.922 576,-53.922 756,-53.922 756,-34.922 576,-34.922"/>
<text text-anchor="middle" x="666" y="-41.922" font-family="Helvetica,sans-Serif" font-size="10.00" fill="#000000">UIManager::setBuildMenuPosition</text>
</a>
</g>
</g>
<!-- Node99&#45;&gt;Node104 -->
<g id="edge7" class="edge">
<title>Node99&#45;&gt;Node104</title>
<path fill="none" stroke="#191970" d="M550.3614,-44.422C558.7373,-44.422 567.2946,-44.422 575.7759,-44.422"/>
<polygon fill="#191970" stroke="#191970" points="550.252,-40.9221 540.252,-44.422 550.252,-47.9221 550.252,-40.9221"/>
</g>
<!-- Node101 -->
<g id="node5" class="node">
<title>Node101</title>
<g id="a_node5"><a xlink:href="classGame.html#a1c2ab25d5216b2f4b2fe41efd2c09114" target="_top" xlink:title="begins the game starts running the game ">
<polygon fill="none" stroke="#000000" points="1101,-34.922 1101,-53.922 1169,-53.922 1169,-34.922 1101,-34.922"/>
<text text-anchor="middle" x="1135" y="-41.922" font-family="Helvetica,sans-Serif" font-size="10.00" fill="#000000">Game::run</text>
</a>
</g>
</g>
<!-- Node100&#45;&gt;Node101 -->
<g id="edge4" class="edge">
<title>Node100&#45;&gt;Node101</title>
<path fill="none" stroke="#191970" d="M1075.2726,-44.422C1083.9603,-44.422 1092.7077,-44.422 1100.7272,-44.422"/>
<polygon fill="#191970" stroke="#191970" points="1075.1487,-40.9221 1065.1487,-44.422 1075.1486,-47.9221 1075.1487,-40.9221"/>
</g>
<!-- Node102 -->
<g id="node6" class="node">
<title>Node102</title>
<g id="a_node6"><a xlink:href="main_8cxx.html#af582d708d899e67ead623eac34a22387" target="_top" xlink:title="protected_main">
<polygon fill="none" stroke="#000000" points="1205,-34.922 1205,-53.922 1298,-53.922 1298,-34.922 1205,-34.922"/>
<text text-anchor="middle" x="1251.5" y="-41.922" font-family="Helvetica,sans-Serif" font-size="10.00" fill="#000000">protected_main</text>
</a>
</g>
</g>
<!-- Node101&#45;&gt;Node102 -->
<g id="edge5" class="edge">
<title>Node101&#45;&gt;Node102</title>
<path fill="none" stroke="#191970" d="M1179.2653,-44.422C1187.5757,-44.422 1196.2897,-44.422 1204.6749,-44.422"/>
<polygon fill="#191970" stroke="#191970" points="1179.0098,-40.9221 1169.0098,-44.422 1179.0098,-47.9221 1179.0098,-40.9221"/>
</g>
<!-- Node103 -->
<g id="node7" class="node">
<title>Node103</title>
<g id="a_node7"><a xlink:href="main_8cxx.html#a3c04138a5bfe5d72780bb7e82a18e627" target="_top" xlink:title="main">
<polygon fill="none" stroke="#000000" points="1334,-34.922 1334,-53.922 1375,-53.922 1375,-34.922 1334,-34.922"/>
<text text-anchor="middle" x="1354.5" y="-41.922" font-family="Helvetica,sans-Serif" font-size="10.00" fill="#000000">main</text>
</a>
</g>
</g>
<!-- Node102&#45;&gt;Node103 -->
<g id="edge6" class="edge">
<title>Node102&#45;&gt;Node103</title>
<path fill="none" stroke="#191970" d="M1308.2133,-44.422C1317.4322,-44.422 1326.4259,-44.422 1333.9965,-44.422"/>
<polygon fill="#191970" stroke="#191970" points="1308.1782,-40.9221 1298.1782,-44.422 1308.1781,-47.9221 1308.1782,-40.9221"/>
</g>
<!-- Node105 -->
<g id="node9" class="node">
<title>Node105</title>
<g id="a_node9"><a xlink:href="classUIManager.html#a5c4cb8e02504ffa0d3faf45181feab9d" target="_top" xlink:title="Fill UI Widgets whose ID start with a $ with data Used for filling widgets with data, like BuildMenu Position combobox, Screen Resolution ComboBox and so on. ">
<polygon fill="none" stroke="#000000" points="792,-29.422 792,-59.422 938,-59.422 938,-29.422 792,-29.422"/>
<text text-anchor="start" x="800" y="-47.422" font-family="Helvetica,sans-Serif" font-size="10.00" fill="#000000">UIManager::initializeDollar</text>
<text text-anchor="middle" x="865" y="-36.422" font-family="Helvetica,sans-Serif" font-size="10.00" fill="#000000">Variables</text>
</a>
</g>
</g>
<!-- Node104&#45;&gt;Node105 -->
<g id="edge8" class="edge">
<title>Node104&#45;&gt;Node105</title>
<path fill="none" stroke="#191970" d="M766.2766,-44.422C774.8841,-44.422 783.4838,-44.422 791.8181,-44.422"/>
<polygon fill="#191970" stroke="#191970" points="766.1841,-40.9221 756.184,-44.422 766.184,-47.9221 766.1841,-40.9221"/>
</g>
<!-- Node105&#45;&gt;Node100 -->
<g id="edge9" class="edge">
<title>Node105&#45;&gt;Node100</title>
<path fill="none" stroke="#191970" d="M948.4491,-44.422C957.1801,-44.422 965.8047,-44.422 973.873,-44.422"/>
<polygon fill="#191970" stroke="#191970" points="948.178,-40.9221 938.1779,-44.422 948.1779,-47.9221 948.178,-40.9221"/>
</g>
</g>
</svg>
