<?xml version="1.0" encoding="UTF-8" standalone="no"?>
<!DOCTYPE svg PUBLIC "-//W3C//DTD SVG 1.1//EN"
 "http://www.w3.org/Graphics/SVG/1.1/DTD/svg11.dtd">
<!-- Generated by graphviz version 2.40.1 (20161225.0304)
 -->
<!-- Title: MapNode::getTileData Pages: 1 -->
<svg width="633pt" height="28pt"
 viewBox="0.00 0.00 633.00 28.00" xmlns="http://www.w3.org/2000/svg" xmlns:xlink="http://www.w3.org/1999/xlink">
<g id="graph0" class="graph" transform="scale(1 1) rotate(0) translate(4 24)">
<title>MapNode::getTileData</title>
<!-- Node91 -->
<g id="node1" class="node">
<title>Node91</title>
<polygon fill="#bfbfbf" stroke="#000000" points="0,-.5 0,-19.5 125,-19.5 125,-.5 0,-.5"/>
<text text-anchor="middle" x="62.5" y="-7.5" font-family="Helvetica,sans-Serif" font-size="10.00" fill="#000000">MapNode::getTileData</text>
</g>
<!-- Node92 -->
<g id="node2" class="node">
<title>Node92</title>
<g id="a_node2"><a xlink:href="classEventManager.html#a65ec91fd5016d4f9c4167fb8babed2df" target="_top" xlink:title="EventManager::checkEvents">
<polygon fill="none" stroke="#000000" points="161,-.5 161,-19.5 315,-19.5 315,-.5 161,-.5"/>
<text text-anchor="middle" x="238" y="-7.5" font-family="Helvetica,sans-Serif" font-size="10.00" fill="#000000">EventManager::checkEvents</text>
</a>
</g>
</g>
<!-- Node91&#45;&gt;Node92 -->
<g id="edge1" class="edge">
<title>Node91&#45;&gt;Node92</title>
<path fill="none" stroke="#191970" d="M135.4777,-10C143.8621,-10 152.4318,-10 160.8685,-10"/>
<polygon fill="#191970" stroke="#191970" points="135.3639,-6.5001 125.3638,-10 135.3638,-13.5001 135.3639,-6.5001"/>
</g>
<!-- Node93 -->
<g id="node3" class="node">
<title>Node93</title>
<g id="a_node3"><a xlink:href="classGame.html#a1c2ab25d5216b2f4b2fe41efd2c09114" target="_top" xlink:title="begins the game starts running the game ">
<polygon fill="none" stroke="#000000" points="351,-.5 351,-19.5 419,-19.5 419,-.5 351,-.5"/>
<text text-anchor="middle" x="385" y="-7.5" font-family="Helvetica,sans-Serif" font-size="10.00" fill="#000000">Game::run</text>
</a>
</g>
</g>
<!-- Node92&#45;&gt;Node93 -->
<g id="edge2" class="edge">
<title>Node92&#45;&gt;Node93</title>
<path fill="none" stroke="#191970" d="M325.5248,-10C334.4338,-10 343.0572,-10 350.845,-10"/>
<polygon fill="#191970" stroke="#191970" points="325.3744,-6.5001 315.3744,-10 325.3743,-13.5001 325.3744,-6.5001"/>
</g>
<!-- Node94 -->
<g id="node4" class="node">
<title>Node94</title>
<g id="a_node4"><a xlink:href="main_8cxx.html#af582d708d899e67ead623eac34a22387" target="_top" xlink:title="protected_main">
<polygon fill="none" stroke="#000000" points="455,-.5 455,-19.5 548,-19.5 548,-.5 455,-.5"/>
<text text-anchor="middle" x="501.5" y="-7.5" font-family="Helvetica,sans-Serif" font-size="10.00" fill="#000000">protected_main</text>
</a>
</g>
</g>
<!-- Node93&#45;&gt;Node94 -->
<g id="edge3" class="edge">
<title>Node93&#45;&gt;Node94</title>
<path fill="none" stroke="#191970" d="M429.2653,-10C437.5757,-10 446.2897,-10 454.6749,-10"/>
<polygon fill="#191970" stroke="#191970" points="429.0098,-6.5001 419.0098,-10 429.0098,-13.5001 429.0098,-6.5001"/>
</g>
<!-- Node95 -->
<g id="node5" class="node">
<title>Node95</title>
<g id="a_node5"><a xlink:href="main_8cxx.html#a3c04138a5bfe5d72780bb7e82a18e627" target="_top" xlink:title="main">
<polygon fill="none" stroke="#000000" points="584,-.5 584,-19.5 625,-19.5 625,-.5 584,-.5"/>
<text text-anchor="middle" x="604.5" y="-7.5" font-family="Helvetica,sans-Serif" font-size="10.00" fill="#000000">main</text>
</a>
</g>
</g>
<!-- Node94&#45;&gt;Node95 -->
<g id="edge4" class="edge">
<title>Node94&#45;&gt;Node95</title>
<path fill="none" stroke="#191970" d="M558.2133,-10C567.4322,-10 576.4259,-10 583.9965,-10"/>
<polygon fill="#191970" stroke="#191970" points="558.1782,-6.5001 548.1782,-10 558.1781,-13.5001 558.1782,-6.5001"/>
</g>
</g>
</svg>
