<?xml version="1.0" encoding="UTF-8" standalone="no"?>
<!DOCTYPE svg PUBLIC "-//W3C//DTD SVG 1.1//EN"
 "http://www.w3.org/Graphics/SVG/1.1/DTD/svg11.dtd">
<!-- Generated by graphviz version 2.40.1 (20161225.0304)
 -->
<!-- Title: ResourcesManager::loadTexture Pages: 1 -->
<svg width="488pt" height="102pt"
 viewBox="0.00 0.00 488.00 101.50" xmlns="http://www.w3.org/2000/svg" xmlns:xlink="http://www.w3.org/1999/xlink">
<g id="graph0" class="graph" transform="scale(1 1) rotate(0) translate(4 97.5)">
<title>ResourcesManager::loadTexture</title>
<!-- Node57 -->
<g id="node1" class="node">
<title>Node57</title>
<polygon fill="#bfbfbf" stroke="#000000" points="0,-30 0,-49 171,-49 171,-30 0,-30"/>
<text text-anchor="middle" x="85.5" y="-37" font-family="Helvetica,sans-Serif" font-size="10.00" fill="#000000">ResourcesManager::loadTexture</text>
</g>
<!-- Node58 -->
<g id="node2" class="node">
<title>Node58</title>
<g id="a_node2"><a xlink:href="classResourcesManager.html#a54721d26f52c4887b735d2cdaf60b078" target="_top" xlink:title="ResourcesManager::create\lSurfaceFromFile">
<polygon fill="none" stroke="#000000" points="207,-49.5 207,-79.5 352,-79.5 352,-49.5 207,-49.5"/>
<text text-anchor="start" x="215" y="-67.5" font-family="Helvetica,sans-Serif" font-size="10.00" fill="#000000">ResourcesManager::create</text>
<text text-anchor="middle" x="279.5" y="-56.5" font-family="Helvetica,sans-Serif" font-size="10.00" fill="#000000">SurfaceFromFile</text>
</a>
</g>
</g>
<!-- Node57&#45;&gt;Node58 -->
<g id="edge1" class="edge">
<title>Node57&#45;&gt;Node58</title>
<path fill="none" stroke="#191970" d="M159.3965,-49.0227C171.5265,-50.5859 184.1683,-52.215 196.5017,-53.8043"/>
<polygon fill="#191970" stroke="#191970" points="196.4057,-57.3208 206.7711,-55.1277 197.3005,-50.3782 196.4057,-57.3208"/>
</g>
<!-- Node61 -->
<g id="node5" class="node">
<title>Node61</title>
<g id="a_node5"><a xlink:href="classResourcesManager.html#ad7712ca96233a151d8bc22cd2ba17d01" target="_top" xlink:title="ResourcesManager::create\lTextureFromSurface">
<polygon fill="none" stroke="#000000" points="207,-.5 207,-30.5 352,-30.5 352,-.5 207,-.5"/>
<text text-anchor="start" x="215" y="-18.5" font-family="Helvetica,sans-Serif" font-size="10.00" fill="#000000">ResourcesManager::create</text>
<text text-anchor="middle" x="279.5" y="-7.5" font-family="Helvetica,sans-Serif" font-size="10.00" fill="#000000">TextureFromSurface</text>
</a>
</g>
</g>
<!-- Node57&#45;&gt;Node61 -->
<g id="edge4" class="edge">
<title>Node57&#45;&gt;Node61</title>
<path fill="none" stroke="#191970" d="M162.4526,-29.9801C173.7438,-28.5832 185.414,-27.1395 196.8145,-25.7291"/>
<polygon fill="#191970" stroke="#191970" points="197.2528,-29.2017 206.7474,-24.5003 196.3933,-22.2546 197.2528,-29.2017"/>
</g>
<!-- Node59 -->
<g id="node3" class="node">
<title>Node59</title>
<g id="a_node3"><a xlink:href="namespacefs.html#a28e4c1324680c188092ecfe5fd8a91a3" target="_top" xlink:title="fs::getBasePath">
<polygon fill="none" stroke="#000000" points="388,-74 388,-93 480,-93 480,-74 388,-74"/>
<text text-anchor="middle" x="434" y="-81" font-family="Helvetica,sans-Serif" font-size="10.00" fill="#000000">fs::getBasePath</text>
</a>
</g>
</g>
<!-- Node58&#45;&gt;Node59 -->
<g id="edge2" class="edge">
<title>Node58&#45;&gt;Node59</title>
<path fill="none" stroke="#191970" d="M352.2259,-73.4436C360.7008,-74.4859 369.2484,-75.537 377.4591,-76.5467"/>
<polygon fill="#191970" stroke="#191970" points="377.2957,-80.0529 387.6482,-77.7998 378.1502,-73.1053 377.2957,-80.0529"/>
</g>
<!-- Node60 -->
<g id="node4" class="node">
<title>Node60</title>
<g id="a_node4"><a xlink:href="namespacefs.html#a000d1f9ae14d782b6193298e6d27023f" target="_top" xlink:title="fs::fileExists">
<polygon fill="none" stroke="#000000" points="396,-36 396,-55 472,-55 472,-36 396,-36"/>
<text text-anchor="middle" x="434" y="-43" font-family="Helvetica,sans-Serif" font-size="10.00" fill="#000000">fs::fileExists</text>
</a>
</g>
</g>
<!-- Node58&#45;&gt;Node60 -->
<g id="edge3" class="edge">
<title>Node58&#45;&gt;Node60</title>
<path fill="none" stroke="#191970" d="M352.2259,-55.5564C363.4963,-54.1704 374.8956,-52.7685 385.4597,-51.4694"/>
<polygon fill="#191970" stroke="#191970" points="386.2118,-54.9033 395.7098,-50.2088 385.3573,-47.9557 386.2118,-54.9033"/>
</g>
</g>
</svg>
