<?xml version="1.0" encoding="UTF-8" standalone="no"?>
<!DOCTYPE svg PUBLIC "-//W3C//DTD SVG 1.1//EN"
 "http://www.w3.org/Graphics/SVG/1.1/DTD/svg11.dtd">
<!-- Generated by graphviz version 2.40.1 (20161225.0304)
 -->
<!-- Title: ComboBox::setActiveID Pages: 1 -->
<svg width="1144pt" height="53pt"
 viewBox="0.00 0.00 1144.00 52.50" xmlns="http://www.w3.org/2000/svg" xmlns:xlink="http://www.w3.org/1999/xlink">
<g id="graph0" class="graph" transform="scale(1 1) rotate(0) translate(4 48.5)">
<title>ComboBox::setActiveID</title>
<!-- Node98 -->
<g id="node1" class="node">
<title>Node98</title>
<polygon fill="#bfbfbf" stroke="#000000" points="0,-6 0,-25 132,-25 132,-6 0,-6"/>
<text text-anchor="middle" x="66" y="-13" font-family="Helvetica,sans-Serif" font-size="10.00" fill="#000000">ComboBox::setActiveID</text>
</g>
<!-- Node99 -->
<g id="node2" class="node">
<title>Node99</title>
<g id="a_node2"><a xlink:href="classComboBox.html#afddbdfd25efa15206eb724b641665cfc" target="_top" xlink:title="Get ID of selected element returns the ID of the selected element in the comboBox. ">
<polygon fill="none" stroke="#000000" points="168,-25 168,-44 301,-44 301,-25 168,-25"/>
<text text-anchor="middle" x="234.5" y="-32" font-family="Helvetica,sans-Serif" font-size="10.00" fill="#000000">ComboBox::getActiveID</text>
</a>
</g>
</g>
<!-- Node98&#45;&gt;Node99 -->
<g id="edge1" class="edge">
<title>Node98&#45;&gt;Node99</title>
<path fill="none" stroke="#191970" d="M142.0868,-24.0795C150.6465,-25.0447 159.3197,-26.0227 167.7484,-26.9731"/>
<polygon fill="#191970" stroke="#191970" points="142.4413,-20.5974 132.112,-22.9548 141.6569,-27.5533 142.4413,-20.5974"/>
</g>
<!-- Node101 -->
<g id="node4" class="node">
<title>Node101</title>
<g id="a_node4"><a xlink:href="classUIManager.html#a5c4cb8e02504ffa0d3faf45181feab9d" target="_top" xlink:title="Fill UI Widgets whose ID start with a $ with data Used for filling widgets with data, like BuildMenu Position combobox, Screen Resolution ComboBox and so on. ">
<polygon fill="none" stroke="#000000" points="553,-.5 553,-30.5 699,-30.5 699,-.5 553,-.5"/>
<text text-anchor="start" x="561" y="-18.5" font-family="Helvetica,sans-Serif" font-size="10.00" fill="#000000">UIManager::initializeDollar</text>
<text text-anchor="middle" x="626" y="-7.5" font-family="Helvetica,sans-Serif" font-size="10.00" fill="#000000">Variables</text>
</a>
</g>
</g>
<!-- Node98&#45;&gt;Node101 -->
<g id="edge8" class="edge">
<title>Node98&#45;&gt;Node101</title>
<path fill="none" stroke="#191970" d="M142.3393,-15.5C250.4119,-15.5 446.6609,-15.5 552.9248,-15.5"/>
<polygon fill="#191970" stroke="#191970" points="142.1619,-12.0001 132.1619,-15.5 142.1619,-19.0001 142.1619,-12.0001"/>
</g>
<!-- Node100 -->
<g id="node3" class="node">
<title>Node100</title>
<g id="a_node3"><a xlink:href="classUIManager.html#a3ccb2fc669262f18ebdcdf3d5c43a3e8" target="_top" xlink:title="CallbackFunction that sets the Build Menu Position Used as callback function for the ComboBox that ho...">
<polygon fill="none" stroke="#000000" points="337,-25 337,-44 517,-44 517,-25 337,-25"/>
<text text-anchor="middle" x="427" y="-32" font-family="Helvetica,sans-Serif" font-size="10.00" fill="#000000">UIManager::setBuildMenuPosition</text>
</a>
</g>
</g>
<!-- Node99&#45;&gt;Node100 -->
<g id="edge2" class="edge">
<title>Node99&#45;&gt;Node100</title>
<path fill="none" stroke="#191970" d="M311.1464,-34.5C319.5502,-34.5 328.1622,-34.5 336.7112,-34.5"/>
<polygon fill="#191970" stroke="#191970" points="311.0172,-31.0001 301.0171,-34.5 311.0171,-38.0001 311.0172,-31.0001"/>
</g>
<!-- Node100&#45;&gt;Node101 -->
<g id="edge3" class="edge">
<title>Node100&#45;&gt;Node101</title>
<path fill="none" stroke="#191970" d="M527.2766,-24.9259C535.8841,-24.104 544.4838,-23.283 552.8181,-22.4872"/>
<polygon fill="#191970" stroke="#191970" points="526.8061,-21.4548 517.184,-25.8895 527.4714,-28.4231 526.8061,-21.4548"/>
</g>
<!-- Node102 -->
<g id="node5" class="node">
<title>Node102</title>
<g id="a_node5"><a xlink:href="classUIManager.html#aedd9d0577af515a852425dfe414b2968" target="_top" xlink:title="Parses the UiLayout.json files and creates UI Elements. ">
<polygon fill="none" stroke="#000000" points="735,-6 735,-25 826,-25 826,-6 735,-6"/>
<text text-anchor="middle" x="780.5" y="-13" font-family="Helvetica,sans-Serif" font-size="10.00" fill="#000000">UIManager::init</text>
</a>
</g>
</g>
<!-- Node101&#45;&gt;Node102 -->
<g id="edge4" class="edge">
<title>Node101&#45;&gt;Node102</title>
<path fill="none" stroke="#191970" d="M709.4491,-15.5C718.1801,-15.5 726.8047,-15.5 734.873,-15.5"/>
<polygon fill="#191970" stroke="#191970" points="709.178,-12.0001 699.1779,-15.5 709.1779,-19.0001 709.178,-12.0001"/>
</g>
<!-- Node103 -->
<g id="node6" class="node">
<title>Node103</title>
<g id="a_node6"><a xlink:href="classGame.html#a1c2ab25d5216b2f4b2fe41efd2c09114" target="_top" xlink:title="begins the game starts running the game ">
<polygon fill="none" stroke="#000000" points="862,-6 862,-25 930,-25 930,-6 862,-6"/>
<text text-anchor="middle" x="896" y="-13" font-family="Helvetica,sans-Serif" font-size="10.00" fill="#000000">Game::run</text>
</a>
</g>
</g>
<!-- Node102&#45;&gt;Node103 -->
<g id="edge5" class="edge">
<title>Node102&#45;&gt;Node103</title>
<path fill="none" stroke="#191970" d="M836.2726,-15.5C844.9603,-15.5 853.7077,-15.5 861.7272,-15.5"/>
<polygon fill="#191970" stroke="#191970" points="836.1487,-12.0001 826.1487,-15.5 836.1486,-19.0001 836.1487,-12.0001"/>
</g>
<!-- Node104 -->
<g id="node7" class="node">
<title>Node104</title>
<g id="a_node7"><a xlink:href="main_8cxx.html#af582d708d899e67ead623eac34a22387" target="_top" xlink:title="protected_main">
<polygon fill="none" stroke="#000000" points="966,-6 966,-25 1059,-25 1059,-6 966,-6"/>
<text text-anchor="middle" x="1012.5" y="-13" font-family="Helvetica,sans-Serif" font-size="10.00" fill="#000000">protected_main</text>
</a>
</g>
</g>
<!-- Node103&#45;&gt;Node104 -->
<g id="edge6" class="edge">
<title>Node103&#45;&gt;Node104</title>
<path fill="none" stroke="#191970" d="M940.2653,-15.5C948.5757,-15.5 957.2897,-15.5 965.6749,-15.5"/>
<polygon fill="#191970" stroke="#191970" points="940.0098,-12.0001 930.0098,-15.5 940.0098,-19.0001 940.0098,-12.0001"/>
</g>
<!-- Node105 -->
<g id="node8" class="node">
<title>Node105</title>
<g id="a_node8"><a xlink:href="main_8cxx.html#a3c04138a5bfe5d72780bb7e82a18e627" target="_top" xlink:title="main">
<polygon fill="none" stroke="#000000" points="1095,-6 1095,-25 1136,-25 1136,-6 1095,-6"/>
<text text-anchor="middle" x="1115.5" y="-13" font-family="Helvetica,sans-Serif" font-size="10.00" fill="#000000">main</text>
</a>
</g>
</g>
<!-- Node104&#45;&gt;Node105 -->
<g id="edge7" class="edge">
<title>Node104&#45;&gt;Node105</title>
<path fill="none" stroke="#191970" d="M1069.2133,-15.5C1078.4322,-15.5 1087.4259,-15.5 1094.9965,-15.5"/>
<polygon fill="#191970" stroke="#191970" points="1069.1782,-12.0001 1059.1782,-15.5 1069.1781,-19.0001 1069.1782,-12.0001"/>
</g>
</g>
</svg>
