<?xml version="1.0" encoding="UTF-8" standalone="no"?>
<!DOCTYPE svg PUBLIC "-//W3C//DTD SVG 1.1//EN"
 "http://www.w3.org/Graphics/SVG/1.1/DTD/svg11.dtd">
<!-- Generated by graphviz version 2.40.1 (20161225.0304)
 -->
<!-- Title: Map::refresh Pages: 1 -->
<!--zoomable 183 -->
<svg id="main" version="1.1" xmlns="http://www.w3.org/2000/svg" xmlns:xlink="http://www.w3.org/1999/xlink" xml:space="preserve" onload="init(evt)">
<style type="text/css"><![CDATA[
.edge:hover path { stroke: red; }
.edge:hover polygon { stroke: red; fill: red; }
]]></style>
<script type="text/javascript"><![CDATA[
var edges = document.getElementsByTagName('g');
if (edges && edges.length) {
  for (var i=0;i<edges.length;i++) {
    if (edges[i].id.substr(0,4)=='edge') {
      edges[i].setAttribute('class','edge');
    }
  }
}
]]></script>
        <defs>
                <circle id="rim" cx="0" cy="0" r="7"/>
                <circle id="rim2" cx="0" cy="0" r="3.5"/>
                <g id="zoomPlus">
                        <use xlink:href="#rim" fill="#404040">
                                <set attributeName="fill" to="#808080" begin="zoomplus.mouseover" end="zoomplus.mouseout"/>
                        </use>
                        <path d="M-4,0h8M0,-4v8" fill="none" stroke="white" stroke-width="1.5" pointer-events="none"/>
                </g>
                <g id="zoomMin">
                        <use xlink:href="#rim" fill="#404040">
                                <set attributeName="fill" to="#808080" begin="zoomminus.mouseover" end="zoomminus.mouseout"/>
                        </use>
                        <path d="M-4,0h8" fill="none" stroke="white" stroke-width="1.5" pointer-events="none"/>
                </g>
                <g id="dirArrow">
                        <path fill="none" stroke="white" stroke-width="1.5" d="M0,-3.0v7 M-2.5,-0.5L0,-3.0L2.5,-0.5"/>
                </g>
               <g id="resetDef">
                       <use xlink:href="#rim2" fill="#404040">
                               <set attributeName="fill" to="#808080" begin="reset.mouseover" end="reset.mouseout"/>
                       </use>
               </g>
        </defs>

<script type="text/javascript">
var viewWidth = 1174;
var viewHeight = 183;
var sectionId = 'dynsection-23';
</script>
<script xlink:href="svgpan.js"/>
<svg id="graph" class="graph">
<g id="viewport">
<title>Map::refresh</title>
<!-- Node137 -->
<g id="node1" class="node">
<title>Node137</title>
<polygon fill="#bfbfbf" stroke="#000000" points="0,-107 0,-126 77,-126 77,-107 0,-107"/>
<text text-anchor="middle" x="38.5" y="-114" font-family="Helvetica,sans-Serif" font-size="10.00" fill="#000000">Map::refresh</text>
</g>
<!-- Node138 -->
<g id="node2" class="node">
<title>Node138</title>
<g id="a_node2"><a xlink:href="classCamera.html#a0a8ee04ccb4f4cc9af52a964cf225f66" target="_top" xlink:title="Increases the zoom level of the camera. ">
<polygon fill="none" stroke="#000000" points="313.5,-126 313.5,-145 470.5,-145 470.5,-126 313.5,-126"/>
<text text-anchor="middle" x="392" y="-133" font-family="Helvetica,sans-Serif" font-size="10.00" fill="#000000">Camera::increaseZoomLevel</text>
</a>
</g>
</g>
<!-- Node137&#45;&gt;Node138 -->
<g id="edge1" class="edge">
<title>Node137&#45;&gt;Node138</title>
<path fill="none" stroke="#191970" d="M87.0633,-119.1102C145.4175,-122.2466 244.1065,-127.551 313.3694,-131.2737"/>
<polygon fill="#191970" stroke="#191970" points="87.1771,-115.6113 77.0036,-118.5695 86.8013,-122.6013 87.1771,-115.6113"/>
</g>
<!-- Node140 -->
<g id="node4" class="node">
<title>Node140</title>
<g id="a_node4"><a xlink:href="classEventManager.html#a65ec91fd5016d4f9c4167fb8babed2df" target="_top" xlink:title="EventManager::checkEvents">
<polygon fill="none" stroke="#000000" points="702,-88 702,-107 856,-107 856,-88 702,-88"/>
<text text-anchor="middle" x="779" y="-95" font-family="Helvetica,sans-Serif" font-size="10.00" fill="#000000">EventManager::checkEvents</text>
</a>
</g>
</g>
<!-- Node137&#45;&gt;Node140 -->
<g id="edge17" class="edge">
<title>Node137&#45;&gt;Node140</title>
<path fill="none" stroke="#191970" d="M74.1353,-129.2811C86.3148,-133.1702 100.1161,-137.0577 113,-139.5 354.4791,-185.275 425.8172,-189.6511 666,-137.5 698.5392,-130.4347 734.545,-116.5761 756.9736,-107.1756"/>
<polygon fill="#191970" stroke="#191970" points="74.935,-125.8593 64.3418,-126.0455 72.7391,-132.5059 74.935,-125.8593"/>
</g>
<!-- Node144 -->
<g id="node8" class="node">
<title>Node144</title>
<g id="a_node8"><a xlink:href="classCamera.html#aeea39f352d5873495dea6f376cf3207e" target="_top" xlink:title="Decreases the zoom level of the camera. ">
<polygon fill="none" stroke="#000000" points="312,-50 312,-69 472,-69 472,-50 312,-50"/>
<text text-anchor="middle" x="392" y="-57" font-family="Helvetica,sans-Serif" font-size="10.00" fill="#000000">Camera::decreaseZoomLevel</text>
</a>
</g>
</g>
<!-- Node137&#45;&gt;Node144 -->
<g id="edge8" class="edge">
<title>Node137&#45;&gt;Node144</title>
<path fill="none" stroke="#191970" d="M61.515,-101.6847C75.7553,-93.3164 94.7477,-83.5482 113,-78.5 178.2762,-60.4461 255.2577,-56.4263 311.8045,-56.5065"/>
<polygon fill="#191970" stroke="#191970" points="59.6289,-98.7352 52.8989,-106.918 63.2628,-104.7181 59.6289,-98.7352"/>
</g>
<!-- Node145 -->
<g id="node9" class="node">
<title>Node145</title>
<g id="a_node9"><a xlink:href="classCamera.html#adfb240823ff20b97b69459490dbd8dc3" target="_top" xlink:title="Centers camera on given isometric coordinates. ">
<polygon fill="none" stroke="#000000" points="113,-88 113,-107 276,-107 276,-88 113,-88"/>
<text text-anchor="middle" x="194.5" y="-95" font-family="Helvetica,sans-Serif" font-size="10.00" fill="#000000">Camera::centerScreenOnPoint</text>
</a>
</g>
</g>
<!-- Node137&#45;&gt;Node145 -->
<g id="edge11" class="edge">
<title>Node137&#45;&gt;Node145</title>
<path fill="none" stroke="#191970" d="M87.2503,-110.5625C96.549,-109.4299 106.4962,-108.2184 116.4447,-107.0067"/>
<polygon fill="#191970" stroke="#191970" points="86.5653,-107.1199 77.0618,-111.8034 87.4116,-114.0686 86.5653,-107.1199"/>
</g>
<!-- Node139 -->
<g id="node3" class="node">
<title>Node139</title>
<g id="a_node3"><a xlink:href="classCamera.html#a1f8ecd427814c5a4970223c2d13b9310" target="_top" xlink:title="Sets the pinch distance for Android. ">
<polygon fill="none" stroke="#000000" points="514.5,-88 514.5,-107 659.5,-107 659.5,-88 514.5,-88"/>
<text text-anchor="middle" x="587" y="-95" font-family="Helvetica,sans-Serif" font-size="10.00" fill="#000000">Camera::setPinchDistance</text>
</a>
</g>
</g>
<!-- Node138&#45;&gt;Node139 -->
<g id="edge2" class="edge">
<title>Node138&#45;&gt;Node139</title>
<path fill="none" stroke="#191970" d="M450.9588,-124.0106C478.782,-118.5886 511.5957,-112.1942 538.0248,-107.0439"/>
<polygon fill="#191970" stroke="#191970" points="450.1009,-120.6118 440.955,-125.96 451.4399,-127.4826 450.1009,-120.6118"/>
</g>
<!-- Node138&#45;&gt;Node140 -->
<g id="edge7" class="edge">
<title>Node138&#45;&gt;Node140</title>
<path fill="none" stroke="#191970" d="M480.9105,-131.5299C534.6236,-128.5861 604.3875,-123.7984 666,-116.5 686.6443,-114.0545 709.2636,-110.4396 728.8056,-107.0174"/>
<polygon fill="#191970" stroke="#191970" points="480.5297,-128.0452 470.7317,-132.0762 480.905,-135.0351 480.5297,-128.0452"/>
</g>
<!-- Node139&#45;&gt;Node140 -->
<g id="edge3" class="edge">
<title>Node139&#45;&gt;Node140</title>
<path fill="none" stroke="#191970" d="M669.7207,-97.5C680.3799,-97.5 691.2617,-97.5 701.8269,-97.5"/>
<polygon fill="#191970" stroke="#191970" points="669.587,-94.0001 659.587,-97.5 669.5869,-101.0001 669.587,-94.0001"/>
</g>
<!-- Node141 -->
<g id="node5" class="node">
<title>Node141</title>
<g id="a_node5"><a xlink:href="classGame.html#a1c2ab25d5216b2f4b2fe41efd2c09114" target="_top" xlink:title="begins the game starts running the game ">
<polygon fill="none" stroke="#000000" points="892,-47 892,-66 960,-66 960,-47 892,-47"/>
<text text-anchor="middle" x="926" y="-54" font-family="Helvetica,sans-Serif" font-size="10.00" fill="#000000">Game::run</text>
</a>
</g>
</g>
<!-- Node140&#45;&gt;Node141 -->
<g id="edge4" class="edge">
<title>Node140&#45;&gt;Node141</title>
<path fill="none" stroke="#191970" d="M822.8958,-85.2569C844.9621,-79.1024 871.3026,-71.7557 891.8363,-66.0286"/>
<polygon fill="#191970" stroke="#191970" points="821.7863,-81.9327 813.0942,-87.9907 823.6669,-88.6754 821.7863,-81.9327"/>
</g>
<!-- Node142 -->
<g id="node6" class="node">
<title>Node142</title>
<g id="a_node6"><a xlink:href="main_8cxx.html#af582d708d899e67ead623eac34a22387" target="_top" xlink:title="protected_main">
<polygon fill="none" stroke="#000000" points="996,-47 996,-66 1089,-66 1089,-47 996,-47"/>
<text text-anchor="middle" x="1042.5" y="-54" font-family="Helvetica,sans-Serif" font-size="10.00" fill="#000000">protected_main</text>
</a>
</g>
</g>
<!-- Node141&#45;&gt;Node142 -->
<g id="edge5" class="edge">
<title>Node141&#45;&gt;Node142</title>
<path fill="none" stroke="#191970" d="M970.2653,-56.5C978.5757,-56.5 987.2897,-56.5 995.6749,-56.5"/>
<polygon fill="#191970" stroke="#191970" points="970.0098,-53.0001 960.0098,-56.5 970.0098,-60.0001 970.0098,-53.0001"/>
</g>
<!-- Node143 -->
<g id="node7" class="node">
<title>Node143</title>
<g id="a_node7"><a xlink:href="main_8cxx.html#a3c04138a5bfe5d72780bb7e82a18e627" target="_top" xlink:title="main">
<polygon fill="none" stroke="#000000" points="1125,-47 1125,-66 1166,-66 1166,-47 1125,-47"/>
<text text-anchor="middle" x="1145.5" y="-54" font-family="Helvetica,sans-Serif" font-size="10.00" fill="#000000">main</text>
</a>
</g>
</g>
<!-- Node142&#45;&gt;Node143 -->
<g id="edge6" class="edge">
<title>Node142&#45;&gt;Node143</title>
<path fill="none" stroke="#191970" d="M1099.2133,-56.5C1108.4322,-56.5 1117.4259,-56.5 1124.9965,-56.5"/>
<polygon fill="#191970" stroke="#191970" points="1099.1782,-53.0001 1089.1782,-56.5 1099.1781,-60.0001 1099.1782,-53.0001"/>
</g>
<!-- Node144&#45;&gt;Node139 -->
<g id="edge9" class="edge">
<title>Node144&#45;&gt;Node139</title>
<path fill="none" stroke="#191970" d="M450.9588,-70.9894C478.782,-76.4114 511.5957,-82.8058 538.0248,-87.9561"/>
<polygon fill="#191970" stroke="#191970" points="451.4399,-67.5174 440.955,-69.04 450.1009,-74.3882 451.4399,-67.5174"/>
</g>
<!-- Node144&#45;&gt;Node140 -->
<g id="edge10" class="edge">
<title>Node144&#45;&gt;Node140</title>
<path fill="none" stroke="#191970" d="M482.3687,-63.5503C535.8822,-66.5005 604.9436,-71.2674 666,-78.5 686.6443,-80.9455 709.2636,-84.5604 728.8056,-87.9826"/>
<polygon fill="#191970" stroke="#191970" points="482.3963,-60.0468 472.2221,-63.0023 482.0188,-67.0366 482.3963,-60.0468"/>
</g>
<!-- Node145&#45;&gt;Node138 -->
<g id="edge12" class="edge">
<title>Node145&#45;&gt;Node138</title>
<path fill="none" stroke="#191970" d="M254.2147,-108.9894C282.3946,-114.4114 315.629,-120.8058 342.3969,-125.9561"/>
<polygon fill="#191970" stroke="#191970" points="254.5639,-105.4925 244.0827,-107.04 253.2412,-112.3664 254.5639,-105.4925"/>
</g>
<!-- Node145&#45;&gt;Node139 -->
<g id="edge14" class="edge">
<title>Node145&#45;&gt;Node139</title>
<path fill="none" stroke="#191970" d="M286.3678,-97.5C355.8384,-97.5 449.9227,-97.5 514.224,-97.5"/>
<polygon fill="#191970" stroke="#191970" points="286.3031,-94.0001 276.3031,-97.5 286.3031,-101.0001 286.3031,-94.0001"/>
</g>
<!-- Node145&#45;&gt;Node144 -->
<g id="edge13" class="edge">
<title>Node145&#45;&gt;Node144</title>
<path fill="none" stroke="#191970" d="M254.2147,-86.0106C282.3946,-80.5886 315.629,-74.1942 342.3969,-69.0439"/>
<polygon fill="#191970" stroke="#191970" points="253.2412,-82.6336 244.0827,-87.96 254.5639,-89.5075 253.2412,-82.6336"/>
</g>
<!-- Node146 -->
<g id="node10" class="node">
<title>Node146</title>
<g id="a_node10"><a xlink:href="classCamera.html#af29da768f8948f3afbf0a9b43530eb1d" target="_top" xlink:title="Centers camera on the middle of the map. ">
<polygon fill="none" stroke="#000000" points="508,-.5 508,-30.5 666,-30.5 666,-.5 508,-.5"/>
<text text-anchor="start" x="516" y="-18.5" font-family="Helvetica,sans-Serif" font-size="10.00" fill="#000000">Camera::centerScreenOnMap</text>
<text text-anchor="middle" x="587" y="-7.5" font-family="Helvetica,sans-Serif" font-size="10.00" fill="#000000">Center</text>
</a>
</g>
</g>
<!-- Node145&#45;&gt;Node146 -->
<g id="edge15" class="edge">
<title>Node145&#45;&gt;Node146</title>
<path fill="none" stroke="#191970" d="M218.4836,-82.6544C241.5383,-69.1767 277.8254,-50.0008 312,-40.5 376.3171,-22.6193 452.0303,-16.7939 507.7119,-15.1995"/>
<polygon fill="#191970" stroke="#191970" points="216.5464,-79.7344 209.748,-87.8604 220.13,-85.7476 216.5464,-79.7344"/>
</g>
<!-- Node146&#45;&gt;Node141 -->
<g id="edge16" class="edge">
<title>Node146&#45;&gt;Node141</title>
<path fill="none" stroke="#191970" d="M676.2863,-26.2986C746.8907,-34.8378 841.6287,-46.2958 891.6803,-52.3492"/>
<polygon fill="#191970" stroke="#191970" points="676.4005,-22.787 666.0526,-25.0609 675.56,-29.7364 676.4005,-22.787"/>
</g>
</g>
</svg>
        <g id="navigator" transform="translate(0 0)" fill="#404254">
                <rect fill="#f2f5e9" fill-opacity="0.5" stroke="#606060" stroke-width=".5" x="0" y="0" width="60" height="60"/>
                <use id="zoomplus" xlink:href="#zoomPlus" x="17" y="9" onmousedown="handleZoom(evt,'in')"/>
                <use id="zoomminus" xlink:href="#zoomMin" x="42" y="9" onmousedown="handleZoom(evt,'out')"/>
                <use id="reset" xlink:href="#resetDef" x="30" y="36" onmousedown="handleReset()"/>
                <g id="arrowUp" xlink:href="#dirArrow" transform="translate(30 24)" onmousedown="handlePan(0,-1)">
                  <use xlink:href="#rim" fill="#404040">
                        <set attributeName="fill" to="#808080" begin="arrowUp.mouseover" end="arrowUp.mouseout"/>
                  </use>
                  <path fill="none" stroke="white" stroke-width="1.5" d="M0,-3.0v7 M-2.5,-0.5L0,-3.0L2.5,-0.5"/>
                </g>
                <g id="arrowRight" xlink:href="#dirArrow" transform="rotate(90) translate(36 -43)" onmousedown="handlePan(1,0)">
                  <use xlink:href="#rim" fill="#404040">
                        <set attributeName="fill" to="#808080" begin="arrowRight.mouseover" end="arrowRight.mouseout"/>
                  </use>
                  <path fill="none" stroke="white" stroke-width="1.5" d="M0,-3.0v7 M-2.5,-0.5L0,-3.0L2.5,-0.5"/>
                </g>
                <g id="arrowDown" xlink:href="#dirArrow" transform="rotate(180) translate(-30 -48)" onmousedown="handlePan(0,1)">
                  <use xlink:href="#rim" fill="#404040">
                        <set attributeName="fill" to="#808080" begin="arrowDown.mouseover" end="arrowDown.mouseout"/>
                  </use>
                  <path fill="none" stroke="white" stroke-width="1.5" d="M0,-3.0v7 M-2.5,-0.5L0,-3.0L2.5,-0.5"/>
                </g>
                <g id="arrowLeft" xlink:href="#dirArrow" transform="rotate(270) translate(-36 17)" onmousedown="handlePan(-1,0)">
                  <use xlink:href="#rim" fill="#404040">
                        <set attributeName="fill" to="#808080" begin="arrowLeft.mouseover" end="arrowLeft.mouseout"/>
                  </use>
                  <path fill="none" stroke="white" stroke-width="1.5" d="M0,-3.0v7 M-2.5,-0.5L0,-3.0L2.5,-0.5"/>
                </g>
        </g>
        <svg viewBox="0 0 15 15" width="100%" height="30px" preserveAspectRatio="xMaxYMin meet">
         <g id="arrow_out" transform="scale(0.3 0.3)">
          <a xlink:href="classMap_ab69938ac0e56eb0da1d1701221f3d185_icgraph_org.svg" target="_base">
           <rect id="button" ry="5" rx="5" y="6" x="6" height="38" width="38"
                fill="#f2f5e9" fill-opacity="0.5" stroke="#606060" stroke-width="1.0"/>
           <path id="arrow"
             d="M 11.500037,31.436501 C 11.940474,20.09759 22.043105,11.32322 32.158766,21.979434 L 37.068811,17.246167 C 37.068811,17.246167 37.088388,32 37.088388,32 L 22.160133,31.978069 C 22.160133,31.978069 26.997745,27.140456 26.997745,27.140456 C 18.528582,18.264221 13.291696,25.230495 11.500037,31.436501 z"
             style="fill:#404040;"/>
          </a>
         </g>
        </svg>
</svg>
