<?xml version="1.0" encoding="UTF-8" standalone="no"?>
<!DOCTYPE svg PUBLIC "-//W3C//DTD SVG 1.1//EN"
 "http://www.w3.org/Graphics/SVG/1.1/DTD/svg11.dtd">
<!-- Generated by graphviz version 2.40.1 (20161225.0304)
 -->
<!-- Title: Camera::tileSize Pages: 1 -->
<svg width="1447pt" height="471pt"
 viewBox="0.00 0.00 1447.00 471.02" xmlns="http://www.w3.org/2000/svg" xmlns:xlink="http://www.w3.org/1999/xlink">
<g id="graph0" class="graph" transform="scale(1 1) rotate(0) translate(4 467.0212)">
<title>Camera::tileSize</title>
<!-- Node144 -->
<g id="node1" class="node">
<title>Node144</title>
<polygon fill="#bfbfbf" stroke="#000000" points="0,-254.5 0,-273.5 97,-273.5 97,-254.5 0,-254.5"/>
<text text-anchor="middle" x="48.5" y="-261.5" font-family="Helvetica,sans-Serif" font-size="10.00" fill="#000000">Camera::tileSize</text>
</g>
<!-- Node145 -->
<g id="node2" class="node">
<title>Node145</title>
<g id="a_node2"><a xlink:href="isoMath_8hxx.html#a0a076d973bc64ffa7859b894793c8000" target="_top" xlink:title="Calculates screen space coordinates to isometric space coordinates. A formula is used to calculate th...">
<polygon fill="none" stroke="#000000" points="151,-360.5 151,-379.5 285,-379.5 285,-360.5 151,-360.5"/>
<text text-anchor="middle" x="218" y="-367.5" font-family="Helvetica,sans-Serif" font-size="10.00" fill="#000000">calculateIsoCoordinates</text>
</a>
</g>
</g>
<!-- Node144&#45;&gt;Node145 -->
<g id="edge1" class="edge">
<title>Node144&#45;&gt;Node145</title>
<path fill="none" stroke="#191970" d="M72.5417,-279.035C107.8066,-301.0885 172.5878,-341.6006 202.3257,-360.1978"/>
<polygon fill="#191970" stroke="#191970" points="74.1753,-275.9285 63.8409,-273.5937 70.4637,-281.8635 74.1753,-275.9285"/>
</g>
<!-- Node153 -->
<g id="node10" class="node">
<title>Node153</title>
<g id="a_node10"><a xlink:href="isoMath_8hxx.html#a391008ab09b55454e07562478b3f4103" target="_top" xlink:title="converts coordinates from isometric to screen space The given isometric coordinates (which contain he...">
<polygon fill="none" stroke="#000000" points="133,-186.5 133,-205.5 303,-205.5 303,-186.5 133,-186.5"/>
<text text-anchor="middle" x="218" y="-193.5" font-family="Helvetica,sans-Serif" font-size="10.00" fill="#000000">convertIsoToScreenCoordinates</text>
</a>
</g>
</g>
<!-- Node144&#45;&gt;Node153 -->
<g id="edge9" class="edge">
<title>Node144&#45;&gt;Node153</title>
<path fill="none" stroke="#191970" d="M82.1273,-250.5094C115.2401,-237.2252 164.977,-217.2718 194.196,-205.5497"/>
<polygon fill="#191970" stroke="#191970" points="80.4035,-247.4297 72.4257,-254.4015 83.0099,-253.9264 80.4035,-247.4297"/>
</g>
<!-- Node146 -->
<g id="node3" class="node">
<title>Node146</title>
<g id="a_node3"><a xlink:href="isoMath_8hxx.html#ad3c5f070c4a876bc6e8978635d02ce52" target="_top" xlink:title="converts screen space coordinates to isometric space coordinates. To convert screen coordinates in to...">
<polygon fill="none" stroke="#000000" points="765,-377.5 765,-396.5 935,-396.5 935,-377.5 765,-377.5"/>
<text text-anchor="middle" x="850" y="-384.5" font-family="Helvetica,sans-Serif" font-size="10.00" fill="#000000">convertScreenToIsoCoordinates</text>
</a>
</g>
</g>
<!-- Node145&#45;&gt;Node146 -->
<g id="edge2" class="edge">
<title>Node145&#45;&gt;Node146</title>
<path fill="none" stroke="#191970" d="M236.3626,-386.0163C258.7922,-404.414 298.7424,-433.5353 339,-445 520.1871,-496.599 749.8396,-423.7387 824.9783,-396.5295"/>
<polygon fill="#191970" stroke="#191970" points="238.5692,-383.2989 228.66,-379.5495 234.0682,-388.66 238.5692,-383.2989"/>
</g>
<!-- Node151 -->
<g id="node8" class="node">
<title>Node151</title>
<g id="a_node8"><a xlink:href="classMap.html#a64e71e521c539cf28828be9978c34889" target="_top" xlink:title="Returns the node at given screencoordinates. ">
<polygon fill="none" stroke="#000000" points="339,-383 339,-435 533,-435 533,-383 339,-383"/>
<text text-anchor="start" x="347" y="-423" font-family="Helvetica,sans-Serif" font-size="10.00" fill="#000000">Map&lt; ObserverSPtr&lt;</text>
<text text-anchor="start" x="347" y="-412" font-family="Helvetica,sans-Serif" font-size="10.00" fill="#000000"> Notification &gt;, Set</text>
<text text-anchor="start" x="347" y="-401" font-family="Helvetica,sans-Serif" font-size="10.00" fill="#000000">&lt; typename Notification</text>
<text text-anchor="middle" x="436" y="-390" font-family="Helvetica,sans-Serif" font-size="10.00" fill="#000000">::TransitionType &gt; &gt;::findNodeInMap</text>
</a>
</g>
</g>
<!-- Node145&#45;&gt;Node151 -->
<g id="edge7" class="edge">
<title>Node145&#45;&gt;Node151</title>
<path fill="none" stroke="#191970" d="M281.3967,-381.3416C299.4127,-384.5647 319.4564,-388.1504 338.981,-391.6434"/>
<polygon fill="#191970" stroke="#191970" points="281.7889,-377.8563 271.3288,-379.5405 280.5561,-384.7469 281.7889,-377.8563"/>
</g>
<!-- Node152 -->
<g id="node9" class="node">
<title>Node152</title>
<g id="a_node9"><a xlink:href="classMap.html#af654ddecf0d25b836d7c9c27ee5c2150" target="_top" xlink:title="Map\&lt; ObserverSPtr\&lt;\l Notification \&gt;, Set\l\&lt; typename Notification\l::TransitionType \&gt; \&gt;::calculate\lVisibleMap">
<polygon fill="none" stroke="#000000" points="353.5,-300.5 353.5,-363.5 518.5,-363.5 518.5,-300.5 353.5,-300.5"/>
<text text-anchor="start" x="361.5" y="-351.5" font-family="Helvetica,sans-Serif" font-size="10.00" fill="#000000">Map&lt; ObserverSPtr&lt;</text>
<text text-anchor="start" x="361.5" y="-340.5" font-family="Helvetica,sans-Serif" font-size="10.00" fill="#000000"> Notification &gt;, Set</text>
<text text-anchor="start" x="361.5" y="-329.5" font-family="Helvetica,sans-Serif" font-size="10.00" fill="#000000">&lt; typename Notification</text>
<text text-anchor="start" x="361.5" y="-318.5" font-family="Helvetica,sans-Serif" font-size="10.00" fill="#000000">::TransitionType &gt; &gt;::calculate</text>
<text text-anchor="middle" x="436" y="-307.5" font-family="Helvetica,sans-Serif" font-size="10.00" fill="#000000">VisibleMap</text>
</a>
</g>
</g>
<!-- Node145&#45;&gt;Node152 -->
<g id="edge8" class="edge">
<title>Node145&#45;&gt;Node152</title>
<path fill="none" stroke="#191970" d="M282.6679,-358.7276C304.7849,-354.8723 329.8373,-350.5054 353.1859,-346.4355"/>
<polygon fill="#191970" stroke="#191970" points="281.9796,-355.2947 272.7292,-360.46 283.1817,-362.1907 281.9796,-355.2947"/>
</g>
<!-- Node147 -->
<g id="node4" class="node">
<title>Node147</title>
<g id="a_node4"><a xlink:href="classEventManager.html#a65ec91fd5016d4f9c4167fb8babed2df" target="_top" xlink:title="EventManager::checkEvents">
<polygon fill="none" stroke="#000000" points="973,-205.5 973,-224.5 1127,-224.5 1127,-205.5 973,-205.5"/>
<text text-anchor="middle" x="1050" y="-212.5" font-family="Helvetica,sans-Serif" font-size="10.00" fill="#000000">EventManager::checkEvents</text>
</a>
</g>
</g>
<!-- Node146&#45;&gt;Node147 -->
<g id="edge3" class="edge">
<title>Node146&#45;&gt;Node147</title>
<path fill="none" stroke="#191970" d="M868.9917,-370.6671C910.0518,-335.3555 1006.0241,-252.8193 1038.7983,-224.6335"/>
<polygon fill="#191970" stroke="#191970" points="866.6256,-368.0856 861.3259,-377.2597 871.1899,-373.3929 866.6256,-368.0856"/>
</g>
<!-- Node148 -->
<g id="node5" class="node">
<title>Node148</title>
<g id="a_node5"><a xlink:href="classGame.html#a1c2ab25d5216b2f4b2fe41efd2c09114" target="_top" xlink:title="begins the game starts running the game ">
<polygon fill="none" stroke="#000000" points="1165,-167.5 1165,-186.5 1233,-186.5 1233,-167.5 1165,-167.5"/>
<text text-anchor="middle" x="1199" y="-174.5" font-family="Helvetica,sans-Serif" font-size="10.00" fill="#000000">Game::run</text>
</a>
</g>
</g>
<!-- Node147&#45;&gt;Node148 -->
<g id="edge4" class="edge">
<title>Node147&#45;&gt;Node148</title>
<path fill="none" stroke="#191970" d="M1097.4019,-202.9109C1119.367,-197.3091 1144.9706,-190.7793 1164.9798,-185.6763"/>
<polygon fill="#191970" stroke="#191970" points="1096.4239,-199.5482 1087.599,-205.411 1098.1538,-206.3311 1096.4239,-199.5482"/>
</g>
<!-- Node149 -->
<g id="node6" class="node">
<title>Node149</title>
<g id="a_node6"><a xlink:href="main_8cxx.html#af582d708d899e67ead623eac34a22387" target="_top" xlink:title="protected_main">
<polygon fill="none" stroke="#000000" points="1269,-167.5 1269,-186.5 1362,-186.5 1362,-167.5 1269,-167.5"/>
<text text-anchor="middle" x="1315.5" y="-174.5" font-family="Helvetica,sans-Serif" font-size="10.00" fill="#000000">protected_main</text>
</a>
</g>
</g>
<!-- Node148&#45;&gt;Node149 -->
<g id="edge5" class="edge">
<title>Node148&#45;&gt;Node149</title>
<path fill="none" stroke="#191970" d="M1243.2653,-177C1251.5757,-177 1260.2897,-177 1268.6749,-177"/>
<polygon fill="#191970" stroke="#191970" points="1243.0098,-173.5001 1233.0098,-177 1243.0098,-180.5001 1243.0098,-173.5001"/>
</g>
<!-- Node150 -->
<g id="node7" class="node">
<title>Node150</title>
<g id="a_node7"><a xlink:href="main_8cxx.html#a3c04138a5bfe5d72780bb7e82a18e627" target="_top" xlink:title="main">
<polygon fill="none" stroke="#000000" points="1398,-167.5 1398,-186.5 1439,-186.5 1439,-167.5 1398,-167.5"/>
<text text-anchor="middle" x="1418.5" y="-174.5" font-family="Helvetica,sans-Serif" font-size="10.00" fill="#000000">main</text>
</a>
</g>
</g>
<!-- Node149&#45;&gt;Node150 -->
<g id="edge6" class="edge">
<title>Node149&#45;&gt;Node150</title>
<path fill="none" stroke="#191970" d="M1372.2133,-177C1381.4322,-177 1390.4259,-177 1397.9965,-177"/>
<polygon fill="#191970" stroke="#191970" points="1372.1782,-173.5001 1362.1782,-177 1372.1781,-180.5001 1372.1782,-173.5001"/>
</g>
<!-- Node153&#45;&gt;Node147 -->
<g id="edge21" class="edge">
<title>Node153&#45;&gt;Node147</title>
<path fill="none" stroke="#191970" d="M272.4762,-207.6443C341.2018,-221.6862 463.2048,-244.4657 569,-253 731.2761,-266.0905 773.679,-259.9184 935,-238 959.7147,-234.642 987.1091,-229.2313 1008.9594,-224.5012"/>
<polygon fill="#191970" stroke="#191970" points="272.8231,-204.1424 262.3228,-205.5539 271.4116,-210.9986 272.8231,-204.1424"/>
</g>
<!-- Node154 -->
<g id="node11" class="node">
<title>Node154</title>
<g id="a_node11"><a xlink:href="classCamera.html#adfb240823ff20b97b69459490dbd8dc3" target="_top" xlink:title="Centers camera on given isometric coordinates. ">
<polygon fill="none" stroke="#000000" points="354.5,-186.5 354.5,-205.5 517.5,-205.5 517.5,-186.5 354.5,-186.5"/>
<text text-anchor="middle" x="436" y="-193.5" font-family="Helvetica,sans-Serif" font-size="10.00" fill="#000000">Camera::centerScreenOnPoint</text>
</a>
</g>
</g>
<!-- Node153&#45;&gt;Node154 -->
<g id="edge10" class="edge">
<title>Node153&#45;&gt;Node154</title>
<path fill="none" stroke="#191970" d="M313.566,-196C327.1851,-196 341.0883,-196 354.4076,-196"/>
<polygon fill="#191970" stroke="#191970" points="313.2211,-192.5001 303.2211,-196 313.2211,-199.5001 313.2211,-192.5001"/>
</g>
<!-- Node159 -->
<g id="node16" class="node">
<title>Node159</title>
<g id="a_node16"><a xlink:href="classSprite.html#abcd3ca18d49d4eef5cfd5955b9975518" target="_top" xlink:title="Sprite::Sprite">
<polygon fill="none" stroke="#000000" points="396,-148.5 396,-167.5 476,-167.5 476,-148.5 396,-148.5"/>
<text text-anchor="middle" x="436" y="-155.5" font-family="Helvetica,sans-Serif" font-size="10.00" fill="#000000">Sprite::Sprite</text>
</a>
</g>
</g>
<!-- Node153&#45;&gt;Node159 -->
<g id="edge22" class="edge">
<title>Node153&#45;&gt;Node159</title>
<path fill="none" stroke="#191970" d="M282.829,-184.6995C319.4521,-178.3157 364.0824,-170.5361 395.6973,-165.0252"/>
<polygon fill="#191970" stroke="#191970" points="281.9796,-181.2947 272.7292,-186.46 283.1817,-188.1907 281.9796,-181.2947"/>
</g>
<!-- Node160 -->
<g id="node17" class="node">
<title>Node160</title>
<g id="a_node17"><a xlink:href="classSprite.html#ababb7913a4d642b0d20a2c48c2a7e77a" target="_top" xlink:title="Sprite::refresh">
<polygon fill="none" stroke="#000000" points="393,-55.5 393,-74.5 479,-74.5 479,-55.5 393,-55.5"/>
<text text-anchor="middle" x="436" y="-62.5" font-family="Helvetica,sans-Serif" font-size="10.00" fill="#000000">Sprite::refresh</text>
</a>
</g>
</g>
<!-- Node153&#45;&gt;Node160 -->
<g id="edge23" class="edge">
<title>Node153&#45;&gt;Node160</title>
<path fill="none" stroke="#191970" d="M242.8827,-181.0475C288.0387,-153.9125 382.2852,-97.2782 419.9464,-74.6469"/>
<polygon fill="#191970" stroke="#191970" points="240.7988,-178.2165 234.0301,-186.3673 244.4043,-184.2165 240.7988,-178.2165"/>
</g>
<!-- Node155 -->
<g id="node12" class="node">
<title>Node155</title>
<g id="a_node12"><a xlink:href="classCamera.html#a0a8ee04ccb4f4cc9af52a964cf225f66" target="_top" xlink:title="Increases the zoom level of the camera. ">
<polygon fill="none" stroke="#000000" points="570.5,-224.5 570.5,-243.5 727.5,-243.5 727.5,-224.5 570.5,-224.5"/>
<text text-anchor="middle" x="649" y="-231.5" font-family="Helvetica,sans-Serif" font-size="10.00" fill="#000000">Camera::increaseZoomLevel</text>
</a>
</g>
</g>
<!-- Node154&#45;&gt;Node155 -->
<g id="edge11" class="edge">
<title>Node154&#45;&gt;Node155</title>
<path fill="none" stroke="#191970" d="M499.6026,-207.347C530.1632,-212.7991 566.3821,-219.2607 595.504,-224.4561"/>
<polygon fill="#191970" stroke="#191970" points="499.9333,-203.8507 489.474,-205.54 498.7038,-210.7419 499.9333,-203.8507"/>
</g>
<!-- Node156 -->
<g id="node13" class="node">
<title>Node156</title>
<g id="a_node13"><a xlink:href="classCamera.html#a1f8ecd427814c5a4970223c2d13b9310" target="_top" xlink:title="Sets the pinch distance for Android. ">
<polygon fill="none" stroke="#000000" points="777.5,-186.5 777.5,-205.5 922.5,-205.5 922.5,-186.5 777.5,-186.5"/>
<text text-anchor="middle" x="850" y="-193.5" font-family="Helvetica,sans-Serif" font-size="10.00" fill="#000000">Camera::setPinchDistance</text>
</a>
</g>
</g>
<!-- Node154&#45;&gt;Node156 -->
<g id="edge18" class="edge">
<title>Node154&#45;&gt;Node156</title>
<path fill="none" stroke="#191970" d="M528.1968,-196C603.3644,-196 708.0707,-196 777.3796,-196"/>
<polygon fill="#191970" stroke="#191970" points="527.7931,-192.5001 517.7931,-196 527.793,-199.5001 527.7931,-192.5001"/>
</g>
<!-- Node157 -->
<g id="node14" class="node">
<title>Node157</title>
<g id="a_node14"><a xlink:href="classCamera.html#aeea39f352d5873495dea6f376cf3207e" target="_top" xlink:title="Decreases the zoom level of the camera. ">
<polygon fill="none" stroke="#000000" points="569,-148.5 569,-167.5 729,-167.5 729,-148.5 569,-148.5"/>
<text text-anchor="middle" x="649" y="-155.5" font-family="Helvetica,sans-Serif" font-size="10.00" fill="#000000">Camera::decreaseZoomLevel</text>
</a>
</g>
</g>
<!-- Node154&#45;&gt;Node157 -->
<g id="edge15" class="edge">
<title>Node154&#45;&gt;Node157</title>
<path fill="none" stroke="#191970" d="M499.6026,-184.653C530.1632,-179.2009 566.3821,-172.7393 595.504,-167.5439"/>
<polygon fill="#191970" stroke="#191970" points="498.7038,-181.2581 489.474,-186.46 499.9333,-188.1493 498.7038,-181.2581"/>
</g>
<!-- Node158 -->
<g id="node15" class="node">
<title>Node158</title>
<g id="a_node15"><a xlink:href="classCamera.html#af29da768f8948f3afbf0a9b43530eb1d" target="_top" xlink:title="Centers camera on the middle of the map. ">
<polygon fill="none" stroke="#000000" points="971,-140 971,-170 1129,-170 1129,-140 971,-140"/>
<text text-anchor="start" x="979" y="-158" font-family="Helvetica,sans-Serif" font-size="10.00" fill="#000000">Camera::centerScreenOnMap</text>
<text text-anchor="middle" x="1050" y="-147" font-family="Helvetica,sans-Serif" font-size="10.00" fill="#000000">Center</text>
</a>
</g>
</g>
<!-- Node154&#45;&gt;Node158 -->
<g id="edge19" class="edge">
<title>Node154&#45;&gt;Node158</title>
<path fill="none" stroke="#191970" d="M519.8006,-183.1252C524.3705,-181.3388 528.8042,-179.3081 533,-177 553.3838,-165.7868 547.6287,-148.1925 569,-139 715.0245,-76.1902 909.6615,-115.5731 1000.0086,-139.9462"/>
<polygon fill="#191970" stroke="#191970" points="518.5469,-179.8557 510.2617,-186.4592 520.8565,-186.4637 518.5469,-179.8557"/>
</g>
<!-- Node155&#45;&gt;Node147 -->
<g id="edge14" class="edge">
<title>Node155&#45;&gt;Node147</title>
<path fill="none" stroke="#191970" d="M737.9305,-229.7863C808.3272,-226.4508 905.6438,-221.8398 972.7972,-218.658"/>
<polygon fill="#191970" stroke="#191970" points="737.5694,-226.2994 727.7462,-230.2689 737.9007,-233.2916 737.5694,-226.2994"/>
</g>
<!-- Node155&#45;&gt;Node156 -->
<g id="edge12" class="edge">
<title>Node155&#45;&gt;Node156</title>
<path fill="none" stroke="#191970" d="M709.3959,-222.5819C738.1554,-217.1448 772.1561,-210.7168 799.5179,-205.5439"/>
<polygon fill="#191970" stroke="#191970" points="708.6371,-219.1632 699.4613,-224.46 709.9375,-226.0414 708.6371,-219.1632"/>
</g>
<!-- Node156&#45;&gt;Node147 -->
<g id="edge13" class="edge">
<title>Node156&#45;&gt;Node147</title>
<path fill="none" stroke="#191970" d="M932.8205,-203.868C946.0902,-205.1286 959.7759,-206.4287 972.905,-207.676"/>
<polygon fill="#191970" stroke="#191970" points="933.0566,-200.3747 922.7704,-202.9132 932.3945,-207.3433 933.0566,-200.3747"/>
</g>
<!-- Node157&#45;&gt;Node147 -->
<g id="edge17" class="edge">
<title>Node157&#45;&gt;Node147</title>
<path fill="none" stroke="#191970" d="M739.2253,-158.1799C795.8982,-159.7216 870.2654,-164.3664 935,-177 967.6075,-183.3637 1003.771,-196.3472 1026.6801,-205.3551"/>
<polygon fill="#191970" stroke="#191970" points="739.2972,-154.6807 729.2145,-157.9347 739.1257,-161.6786 739.2972,-154.6807"/>
</g>
<!-- Node157&#45;&gt;Node156 -->
<g id="edge16" class="edge">
<title>Node157&#45;&gt;Node156</title>
<path fill="none" stroke="#191970" d="M709.3959,-169.4181C738.1554,-174.8552 772.1561,-181.2832 799.5179,-186.4561"/>
<polygon fill="#191970" stroke="#191970" points="709.9375,-165.9586 699.4613,-167.54 708.6371,-172.8368 709.9375,-165.9586"/>
</g>
<!-- Node158&#45;&gt;Node148 -->
<g id="edge20" class="edge">
<title>Node158&#45;&gt;Node148</title>
<path fill="none" stroke="#191970" d="M1139.2027,-168.1709C1148.2454,-169.506 1156.9871,-170.7968 1164.866,-171.9601"/>
<polygon fill="#191970" stroke="#191970" points="1139.7028,-164.7068 1129.2988,-166.7085 1138.6803,-171.6318 1139.7028,-164.7068"/>
</g>
<!-- Node161 -->
<g id="node18" class="node">
<title>Node161</title>
<g id="a_node18"><a xlink:href="classMap.html#ab69938ac0e56eb0da1d1701221f3d185" target="_top" xlink:title="Refresh all the map tile textures. ">
<polygon fill="none" stroke="#000000" points="571.5,-39 571.5,-91 726.5,-91 726.5,-39 571.5,-39"/>
<text text-anchor="start" x="579.5" y="-79" font-family="Helvetica,sans-Serif" font-size="10.00" fill="#000000">Map&lt; ObserverSPtr&lt;</text>
<text text-anchor="start" x="579.5" y="-68" font-family="Helvetica,sans-Serif" font-size="10.00" fill="#000000"> Notification &gt;, Set</text>
<text text-anchor="start" x="579.5" y="-57" font-family="Helvetica,sans-Serif" font-size="10.00" fill="#000000">&lt; typename Notification</text>
<text text-anchor="middle" x="649" y="-46" font-family="Helvetica,sans-Serif" font-size="10.00" fill="#000000">::TransitionType &gt; &gt;::refresh</text>
</a>
</g>
</g>
<!-- Node160&#45;&gt;Node161 -->
<g id="edge24" class="edge">
<title>Node160&#45;&gt;Node161</title>
<path fill="none" stroke="#191970" d="M489.4042,-65C514.2316,-65 544.2321,-65 571.4902,-65"/>
<polygon fill="#191970" stroke="#191970" points="489.1038,-61.5001 479.1037,-65 489.1037,-68.5001 489.1038,-61.5001"/>
</g>
<!-- Node162 -->
<g id="node19" class="node">
<title>Node162</title>
<g id="a_node19"><a xlink:href="classSprite.html#afe62071332bb38f2e262b63c3ee37736" target="_top" xlink:title="Sprite::setTexture">
<polygon fill="none" stroke="#000000" points="598,-.5 598,-19.5 700,-19.5 700,-.5 598,-.5"/>
<text text-anchor="middle" x="649" y="-7.5" font-family="Helvetica,sans-Serif" font-size="10.00" fill="#000000">Sprite::setTexture</text>
</a>
</g>
</g>
<!-- Node160&#45;&gt;Node162 -->
<g id="edge25" class="edge">
<title>Node160&#45;&gt;Node162</title>
<path fill="none" stroke="#191970" d="M479.9709,-52.7287C505.84,-45.6017 539.2192,-36.565 569,-29 581.5906,-25.8017 595.3387,-22.4764 607.8305,-19.5185"/>
<polygon fill="#191970" stroke="#191970" points="478.7988,-49.4214 470.092,-55.4581 480.663,-56.1686 478.7988,-49.4214"/>
</g>
</g>
</svg>
