<?xml version="1.0" encoding="UTF-8" standalone="no"?>
<!DOCTYPE svg PUBLIC "-//W3C//DTD SVG 1.1//EN"
 "http://www.w3.org/Graphics/SVG/1.1/DTD/svg11.dtd">
<!-- Generated by graphviz version 2.40.1 (20161225.0304)
 -->
<!-- Title: MapLayers::isLayerActive Pages: 1 -->
<svg width="863pt" height="313pt"
 viewBox="0.00 0.00 863.00 312.50" xmlns="http://www.w3.org/2000/svg" xmlns:xlink="http://www.w3.org/1999/xlink">
<g id="graph0" class="graph" transform="scale(1 1) rotate(0) translate(4 308.5)">
<title>MapLayers::isLayerActive</title>
<!-- Node94 -->
<g id="node1" class="node">
<title>Node94</title>
<polygon fill="#bfbfbf" stroke="#000000" points="0,-114.5 0,-133.5 141,-133.5 141,-114.5 0,-114.5"/>
<text text-anchor="middle" x="70.5" y="-121.5" font-family="Helvetica,sans-Serif" font-size="10.00" fill="#000000">MapLayers::isLayerActive</text>
</g>
<!-- Node95 -->
<g id="node2" class="node">
<title>Node95</title>
<g id="a_node2"><a xlink:href="classMapNode.html#ac307762dc7ad609974c6b13774c3c00d" target="_top" xlink:title="return topmost active layer. check layers in order of significance for the topmost active layer that ...">
<polygon fill="none" stroke="#000000" points="201,-263 201,-293 356,-293 356,-263 201,-263"/>
<text text-anchor="start" x="209" y="-281" font-family="Helvetica,sans-Serif" font-size="10.00" fill="#000000">MapNode::getTopMostActive</text>
<text text-anchor="middle" x="278.5" y="-270" font-family="Helvetica,sans-Serif" font-size="10.00" fill="#000000">Layer</text>
</a>
</g>
</g>
<!-- Node94&#45;&gt;Node95 -->
<g id="edge1" class="edge">
<title>Node94&#45;&gt;Node95</title>
<path fill="none" stroke="#191970" d="M80.4626,-142.4119C96.7698,-170.73 131.9082,-224.6622 177,-253 184.3756,-257.6352 192.5537,-261.411 200.974,-264.4869"/>
<polygon fill="#191970" stroke="#191970" points="83.4368,-140.5597 75.4944,-133.5476 77.3304,-143.9821 83.4368,-140.5597"/>
</g>
<!-- Node98 -->
<g id="node5" class="node">
<title>Node98</title>
<g id="a_node5"><a xlink:href="classMapNode.html#a002b868485074599fbf087fc4c96b2c9" target="_top" xlink:title="Demolish a node Removes all tiles on a node. This effects all layers where something to demolish is p...">
<polygon fill="none" stroke="#000000" points="209,-224.5 209,-243.5 348,-243.5 348,-224.5 209,-224.5"/>
<text text-anchor="middle" x="278.5" y="-231.5" font-family="Helvetica,sans-Serif" font-size="10.00" fill="#000000">MapNode::demolishNode</text>
</a>
</g>
</g>
<!-- Node94&#45;&gt;Node98 -->
<g id="edge4" class="edge">
<title>Node94&#45;&gt;Node98</title>
<path fill="none" stroke="#191970" d="M85.1363,-141.08C104.0985,-162.018 139.2301,-196.9381 177,-215 186.9467,-219.7566 197.9721,-223.3243 208.9839,-225.9999"/>
<polygon fill="#191970" stroke="#191970" points="87.7211,-138.7196 78.4714,-133.5531 82.4804,-143.3602 87.7211,-138.7196"/>
</g>
<!-- Node99 -->
<g id="node6" class="node">
<title>Node99</title>
<g id="a_node6"><a xlink:href="classMap.html#a352929ea8cc2efc4f415c7ec795e1538" target="_top" xlink:title="Map\&lt; ObserverSPtr\&lt;\l Notification \&gt;, Set\l\&lt; typename Notification\l::TransitionType \&gt; \&gt;::isClickWithinTile">
<polygon fill="none" stroke="#000000" points="177,-153 177,-205 380,-205 380,-153 177,-153"/>
<text text-anchor="start" x="185" y="-193" font-family="Helvetica,sans-Serif" font-size="10.00" fill="#000000">Map&lt; ObserverSPtr&lt;</text>
<text text-anchor="start" x="185" y="-182" font-family="Helvetica,sans-Serif" font-size="10.00" fill="#000000"> Notification &gt;, Set</text>
<text text-anchor="start" x="185" y="-171" font-family="Helvetica,sans-Serif" font-size="10.00" fill="#000000">&lt; typename Notification</text>
<text text-anchor="middle" x="278.5" y="-160" font-family="Helvetica,sans-Serif" font-size="10.00" fill="#000000">::TransitionType &gt; &gt;::isClickWithinTile</text>
</a>
</g>
</g>
<!-- Node94&#45;&gt;Node99 -->
<g id="edge5" class="edge">
<title>Node94&#45;&gt;Node99</title>
<path fill="none" stroke="#191970" d="M116.5022,-136.164C135.3397,-141.1451 157.909,-147.113 180.1343,-152.9898"/>
<polygon fill="#191970" stroke="#191970" points="117.2933,-132.753 106.7308,-133.5803 115.5038,-139.5204 117.2933,-132.753"/>
</g>
<!-- Node100 -->
<g id="node7" class="node">
<title>Node100</title>
<g id="a_node7"><a xlink:href="classSprite.html#abdf111e2030274680af0f00f296d8605" target="_top" xlink:title="Sprite::render">
<polygon fill="none" stroke="#000000" points="237,-114.5 237,-133.5 320,-133.5 320,-114.5 237,-114.5"/>
<text text-anchor="middle" x="278.5" y="-121.5" font-family="Helvetica,sans-Serif" font-size="10.00" fill="#000000">Sprite::render</text>
</a>
</g>
</g>
<!-- Node94&#45;&gt;Node100 -->
<g id="edge6" class="edge">
<title>Node94&#45;&gt;Node100</title>
<path fill="none" stroke="#191970" d="M151.4096,-124C180.5936,-124 212.3323,-124 236.792,-124"/>
<polygon fill="#191970" stroke="#191970" points="151.2096,-120.5001 141.2095,-124 151.2095,-127.5001 151.2096,-120.5001"/>
</g>
<!-- Node102 -->
<g id="node9" class="node">
<title>Node102</title>
<g id="a_node9"><a xlink:href="classSprite.html#a87428873289f8ec84f4b75d9162c9d7c" target="_top" xlink:title="Sprite::getActiveClipRect">
<polygon fill="none" stroke="#000000" points="210,-76.5 210,-95.5 347,-95.5 347,-76.5 210,-76.5"/>
<text text-anchor="middle" x="278.5" y="-83.5" font-family="Helvetica,sans-Serif" font-size="10.00" fill="#000000">Sprite::getActiveClipRect</text>
</a>
</g>
</g>
<!-- Node94&#45;&gt;Node102 -->
<g id="edge8" class="edge">
<title>Node94&#45;&gt;Node102</title>
<path fill="none" stroke="#191970" d="M132.6096,-112.653C162.4528,-107.2009 197.8215,-100.7393 226.2598,-95.5439"/>
<polygon fill="#191970" stroke="#191970" points="131.9268,-109.2198 122.7187,-114.46 133.1849,-116.1058 131.9268,-109.2198"/>
</g>
<!-- Node103 -->
<g id="node10" class="node">
<title>Node103</title>
<g id="a_node10"><a xlink:href="classSprite.html#a7376c698bf914312fbcc7c2b8180cbed" target="_top" xlink:title="Sprite::isLayerUsed">
<polygon fill="none" stroke="#000000" points="223,-38.5 223,-57.5 334,-57.5 334,-38.5 223,-38.5"/>
<text text-anchor="middle" x="278.5" y="-45.5" font-family="Helvetica,sans-Serif" font-size="10.00" fill="#000000">Sprite::isLayerUsed</text>
</a>
</g>
</g>
<!-- Node94&#45;&gt;Node103 -->
<g id="edge9" class="edge">
<title>Node94&#45;&gt;Node103</title>
<path fill="none" stroke="#191970" d="M93.5201,-108.9935C114.4714,-96.0021 146.6701,-77.6686 177,-67 191.5442,-61.8841 207.7712,-58.0612 222.909,-55.2399"/>
<polygon fill="#191970" stroke="#191970" points="91.5908,-106.0723 85.0003,-114.3679 95.3255,-111.9928 91.5908,-106.0723"/>
</g>
<!-- Node104 -->
<g id="node11" class="node">
<title>Node104</title>
<g id="a_node11"><a xlink:href="classSprite.html#aedfac1c3b8a22c5ae4d97bd9586a6a26" target="_top" xlink:title="Sprite::getActiveDestRect">
<polygon fill="none" stroke="#000000" points="208,-.5 208,-19.5 349,-19.5 349,-.5 208,-.5"/>
<text text-anchor="middle" x="278.5" y="-7.5" font-family="Helvetica,sans-Serif" font-size="10.00" fill="#000000">Sprite::getActiveDestRect</text>
</a>
</g>
</g>
<!-- Node94&#45;&gt;Node104 -->
<g id="edge10" class="edge">
<title>Node94&#45;&gt;Node104</title>
<path fill="none" stroke="#191970" d="M84.6839,-106.4899C103.4052,-84.6554 138.5227,-47.9066 177,-29 186.5736,-24.2958 197.18,-20.752 207.8219,-18.0832"/>
<polygon fill="#191970" stroke="#191970" points="81.8636,-104.4063 78.1258,-114.32 87.23,-108.901 81.8636,-104.4063"/>
</g>
<!-- Node96 -->
<g id="node3" class="node">
<title>Node96</title>
<g id="a_node3"><a xlink:href="classMapNode.html#a0b089ef93b46bbfed8ccf71dc516c4ef" target="_top" xlink:title="MapNode::getActiveMapNodeData">
<polygon fill="none" stroke="#000000" points="416,-268.5 416,-287.5 600,-287.5 600,-268.5 416,-268.5"/>
<text text-anchor="middle" x="508" y="-275.5" font-family="Helvetica,sans-Serif" font-size="10.00" fill="#000000">MapNode::getActiveMapNodeData</text>
</a>
</g>
</g>
<!-- Node95&#45;&gt;Node96 -->
<g id="edge2" class="edge">
<title>Node95&#45;&gt;Node96</title>
<path fill="none" stroke="#191970" d="M366.6374,-278C382.7061,-278 399.5117,-278 415.6972,-278"/>
<polygon fill="#191970" stroke="#191970" points="366.1983,-274.5001 356.1982,-278 366.1982,-281.5001 366.1983,-274.5001"/>
</g>
<!-- Node97 -->
<g id="node4" class="node">
<title>Node97</title>
<g id="a_node4"><a xlink:href="classMap.html#a0241b997090783e5d13667114731a592" target="_top" xlink:title="Debug MapNodeData to Console Used as Tile&#45;Inspector until we implement a GUI variant. ">
<polygon fill="none" stroke="#000000" points="636,-252 636,-304 855,-304 855,-252 636,-252"/>
<text text-anchor="start" x="644" y="-292" font-family="Helvetica,sans-Serif" font-size="10.00" fill="#000000">Map&lt; ObserverSPtr&lt;</text>
<text text-anchor="start" x="644" y="-281" font-family="Helvetica,sans-Serif" font-size="10.00" fill="#000000"> Notification &gt;, Set</text>
<text text-anchor="start" x="644" y="-270" font-family="Helvetica,sans-Serif" font-size="10.00" fill="#000000">&lt; typename Notification</text>
<text text-anchor="middle" x="745.5" y="-259" font-family="Helvetica,sans-Serif" font-size="10.00" fill="#000000">::TransitionType &gt; &gt;::getNodeInformation</text>
</a>
</g>
</g>
<!-- Node96&#45;&gt;Node97 -->
<g id="edge3" class="edge">
<title>Node96&#45;&gt;Node97</title>
<path fill="none" stroke="#191970" d="M610.4198,-278C618.8836,-278 627.4603,-278 635.9733,-278"/>
<polygon fill="#191970" stroke="#191970" points="610.1637,-274.5001 600.1636,-278 610.1636,-281.5001 610.1637,-274.5001"/>
</g>
<!-- Node101 -->
<g id="node8" class="node">
<title>Node101</title>
<g id="a_node8"><a xlink:href="classMap.html#a8ffaf087a7bf669a890301a1efad6976" target="_top" xlink:title="Map\&lt; ObserverSPtr\&lt;\l Notification \&gt;, Set\l\&lt; typename Notification\l::TransitionType \&gt; \&gt;::renderMap">
<polygon fill="none" stroke="#000000" points="421.5,-98 421.5,-150 594.5,-150 594.5,-98 421.5,-98"/>
<text text-anchor="start" x="429.5" y="-138" font-family="Helvetica,sans-Serif" font-size="10.00" fill="#000000">Map&lt; ObserverSPtr&lt;</text>
<text text-anchor="start" x="429.5" y="-127" font-family="Helvetica,sans-Serif" font-size="10.00" fill="#000000"> Notification &gt;, Set</text>
<text text-anchor="start" x="429.5" y="-116" font-family="Helvetica,sans-Serif" font-size="10.00" fill="#000000">&lt; typename Notification</text>
<text text-anchor="middle" x="508" y="-105" font-family="Helvetica,sans-Serif" font-size="10.00" fill="#000000">::TransitionType &gt; &gt;::renderMap</text>
</a>
</g>
</g>
<!-- Node100&#45;&gt;Node101 -->
<g id="edge7" class="edge">
<title>Node100&#45;&gt;Node101</title>
<path fill="none" stroke="#191970" d="M330.3542,-124C357.1356,-124 390.5313,-124 421.1158,-124"/>
<polygon fill="#191970" stroke="#191970" points="330.0608,-120.5001 320.0607,-124 330.0607,-127.5001 330.0608,-120.5001"/>
</g>
</g>
</svg>
