<?xml version="1.0" encoding="UTF-8" standalone="no"?>
<!DOCTYPE svg PUBLIC "-//W3C//DTD SVG 1.1//EN"
 "http://www.w3.org/Graphics/SVG/1.1/DTD/svg11.dtd">
<!-- Generated by graphviz version 2.40.1 (20161225.0304)
 -->
<!-- Title: MapLayers::MapLayers Pages: 1 -->
<svg width="1027pt" height="313pt"
 viewBox="0.00 0.00 1027.00 312.50" xmlns="http://www.w3.org/2000/svg" xmlns:xlink="http://www.w3.org/1999/xlink">
<g id="graph0" class="graph" transform="scale(1 1) rotate(0) translate(4 308.5)">
<title>MapLayers::MapLayers</title>
<!-- Node1 -->
<g id="node1" class="node">
<title>Node1</title>
<polygon fill="#bfbfbf" stroke="#000000" points="0,-114.5 0,-133.5 128,-133.5 128,-114.5 0,-114.5"/>
<text text-anchor="middle" x="64" y="-121.5" font-family="Helvetica,sans-Serif" font-size="10.00" fill="#000000">MapLayers::MapLayers</text>
</g>
<!-- Node2 -->
<g id="node2" class="node">
<title>Node2</title>
<g id="a_node2"><a xlink:href="classMapLayers.html#a1d810628821913c499b8348107b66891" target="_top" xlink:title="Check if given Layer is being drawn. ">
<polygon fill="none" stroke="#000000" points="164,-114.5 164,-133.5 305,-133.5 305,-114.5 164,-114.5"/>
<text text-anchor="middle" x="234.5" y="-121.5" font-family="Helvetica,sans-Serif" font-size="10.00" fill="#000000">MapLayers::isLayerActive</text>
</a>
</g>
</g>
<!-- Node1&#45;&gt;Node2 -->
<g id="edge1" class="edge">
<title>Node1&#45;&gt;Node2</title>
<path fill="none" stroke="#191970" d="M138.6319,-124C147.0476,-124 155.6035,-124 163.9647,-124"/>
<polygon fill="#191970" stroke="#191970" points="138.4588,-120.5001 128.4587,-124 138.4587,-127.5001 138.4588,-120.5001"/>
</g>
<!-- Node3 -->
<g id="node3" class="node">
<title>Node3</title>
<g id="a_node3"><a xlink:href="classMapNode.html#ac307762dc7ad609974c6b13774c3c00d" target="_top" xlink:title="return topmost active layer. check layers in order of significance for the topmost active layer that ...">
<polygon fill="none" stroke="#000000" points="365,-263 365,-293 520,-293 520,-263 365,-263"/>
<text text-anchor="start" x="373" y="-281" font-family="Helvetica,sans-Serif" font-size="10.00" fill="#000000">MapNode::getTopMostActive</text>
<text text-anchor="middle" x="442.5" y="-270" font-family="Helvetica,sans-Serif" font-size="10.00" fill="#000000">Layer</text>
</a>
</g>
</g>
<!-- Node2&#45;&gt;Node3 -->
<g id="edge2" class="edge">
<title>Node2&#45;&gt;Node3</title>
<path fill="none" stroke="#191970" d="M244.4626,-142.4119C260.7698,-170.73 295.9082,-224.6622 341,-253 348.3756,-257.6352 356.5537,-261.411 364.974,-264.4869"/>
<polygon fill="#191970" stroke="#191970" points="247.4368,-140.5597 239.4944,-133.5476 241.3304,-143.9821 247.4368,-140.5597"/>
</g>
<!-- Node6 -->
<g id="node6" class="node">
<title>Node6</title>
<g id="a_node6"><a xlink:href="classMapNode.html#a002b868485074599fbf087fc4c96b2c9" target="_top" xlink:title="Demolish a node Removes all tiles on a node. This effects all layers where something to demolish is p...">
<polygon fill="none" stroke="#000000" points="373,-224.5 373,-243.5 512,-243.5 512,-224.5 373,-224.5"/>
<text text-anchor="middle" x="442.5" y="-231.5" font-family="Helvetica,sans-Serif" font-size="10.00" fill="#000000">MapNode::demolishNode</text>
</a>
</g>
</g>
<!-- Node2&#45;&gt;Node6 -->
<g id="edge5" class="edge">
<title>Node2&#45;&gt;Node6</title>
<path fill="none" stroke="#191970" d="M249.1363,-141.08C268.0985,-162.018 303.2301,-196.9381 341,-215 350.9467,-219.7566 361.9721,-223.3243 372.9839,-225.9999"/>
<polygon fill="#191970" stroke="#191970" points="251.7211,-138.7196 242.4714,-133.5531 246.4804,-143.3602 251.7211,-138.7196"/>
</g>
<!-- Node7 -->
<g id="node7" class="node">
<title>Node7</title>
<g id="a_node7"><a xlink:href="classMap.html#a352929ea8cc2efc4f415c7ec795e1538" target="_top" xlink:title="Map\&lt; ObserverSPtr\&lt;\l Notification \&gt;, Set\l\&lt; typename Notification\l::TransitionType \&gt; \&gt;::isClickWithinTile">
<polygon fill="none" stroke="#000000" points="341,-153 341,-205 544,-205 544,-153 341,-153"/>
<text text-anchor="start" x="349" y="-193" font-family="Helvetica,sans-Serif" font-size="10.00" fill="#000000">Map&lt; ObserverSPtr&lt;</text>
<text text-anchor="start" x="349" y="-182" font-family="Helvetica,sans-Serif" font-size="10.00" fill="#000000"> Notification &gt;, Set</text>
<text text-anchor="start" x="349" y="-171" font-family="Helvetica,sans-Serif" font-size="10.00" fill="#000000">&lt; typename Notification</text>
<text text-anchor="middle" x="442.5" y="-160" font-family="Helvetica,sans-Serif" font-size="10.00" fill="#000000">::TransitionType &gt; &gt;::isClickWithinTile</text>
</a>
</g>
</g>
<!-- Node2&#45;&gt;Node7 -->
<g id="edge6" class="edge">
<title>Node2&#45;&gt;Node7</title>
<path fill="none" stroke="#191970" d="M280.5022,-136.164C299.3397,-141.1451 321.909,-147.113 344.1343,-152.9898"/>
<polygon fill="#191970" stroke="#191970" points="281.2933,-132.753 270.7308,-133.5803 279.5038,-139.5204 281.2933,-132.753"/>
</g>
<!-- Node8 -->
<g id="node8" class="node">
<title>Node8</title>
<g id="a_node8"><a xlink:href="classSprite.html#abdf111e2030274680af0f00f296d8605" target="_top" xlink:title="Sprite::render">
<polygon fill="none" stroke="#000000" points="401,-114.5 401,-133.5 484,-133.5 484,-114.5 401,-114.5"/>
<text text-anchor="middle" x="442.5" y="-121.5" font-family="Helvetica,sans-Serif" font-size="10.00" fill="#000000">Sprite::render</text>
</a>
</g>
</g>
<!-- Node2&#45;&gt;Node8 -->
<g id="edge7" class="edge">
<title>Node2&#45;&gt;Node8</title>
<path fill="none" stroke="#191970" d="M315.4096,-124C344.5936,-124 376.3323,-124 400.792,-124"/>
<polygon fill="#191970" stroke="#191970" points="315.2096,-120.5001 305.2095,-124 315.2095,-127.5001 315.2096,-120.5001"/>
</g>
<!-- Node10 -->
<g id="node10" class="node">
<title>Node10</title>
<g id="a_node10"><a xlink:href="classSprite.html#a87428873289f8ec84f4b75d9162c9d7c" target="_top" xlink:title="Sprite::getActiveClipRect">
<polygon fill="none" stroke="#000000" points="374,-76.5 374,-95.5 511,-95.5 511,-76.5 374,-76.5"/>
<text text-anchor="middle" x="442.5" y="-83.5" font-family="Helvetica,sans-Serif" font-size="10.00" fill="#000000">Sprite::getActiveClipRect</text>
</a>
</g>
</g>
<!-- Node2&#45;&gt;Node10 -->
<g id="edge9" class="edge">
<title>Node2&#45;&gt;Node10</title>
<path fill="none" stroke="#191970" d="M296.6096,-112.653C326.4528,-107.2009 361.8215,-100.7393 390.2598,-95.5439"/>
<polygon fill="#191970" stroke="#191970" points="295.9268,-109.2198 286.7187,-114.46 297.1849,-116.1058 295.9268,-109.2198"/>
</g>
<!-- Node11 -->
<g id="node11" class="node">
<title>Node11</title>
<g id="a_node11"><a xlink:href="classSprite.html#a7376c698bf914312fbcc7c2b8180cbed" target="_top" xlink:title="Sprite::isLayerUsed">
<polygon fill="none" stroke="#000000" points="387,-38.5 387,-57.5 498,-57.5 498,-38.5 387,-38.5"/>
<text text-anchor="middle" x="442.5" y="-45.5" font-family="Helvetica,sans-Serif" font-size="10.00" fill="#000000">Sprite::isLayerUsed</text>
</a>
</g>
</g>
<!-- Node2&#45;&gt;Node11 -->
<g id="edge10" class="edge">
<title>Node2&#45;&gt;Node11</title>
<path fill="none" stroke="#191970" d="M257.5201,-108.9935C278.4714,-96.0021 310.6701,-77.6686 341,-67 355.5442,-61.8841 371.7712,-58.0612 386.909,-55.2399"/>
<polygon fill="#191970" stroke="#191970" points="255.5908,-106.0723 249.0003,-114.3679 259.3255,-111.9928 255.5908,-106.0723"/>
</g>
<!-- Node12 -->
<g id="node12" class="node">
<title>Node12</title>
<g id="a_node12"><a xlink:href="classSprite.html#aedfac1c3b8a22c5ae4d97bd9586a6a26" target="_top" xlink:title="Sprite::getActiveDestRect">
<polygon fill="none" stroke="#000000" points="372,-.5 372,-19.5 513,-19.5 513,-.5 372,-.5"/>
<text text-anchor="middle" x="442.5" y="-7.5" font-family="Helvetica,sans-Serif" font-size="10.00" fill="#000000">Sprite::getActiveDestRect</text>
</a>
</g>
</g>
<!-- Node2&#45;&gt;Node12 -->
<g id="edge11" class="edge">
<title>Node2&#45;&gt;Node12</title>
<path fill="none" stroke="#191970" d="M248.6839,-106.4899C267.4052,-84.6554 302.5227,-47.9066 341,-29 350.5736,-24.2958 361.18,-20.752 371.8219,-18.0832"/>
<polygon fill="#191970" stroke="#191970" points="245.8636,-104.4063 242.1258,-114.32 251.23,-108.901 245.8636,-104.4063"/>
</g>
<!-- Node4 -->
<g id="node4" class="node">
<title>Node4</title>
<g id="a_node4"><a xlink:href="classMapNode.html#a0b089ef93b46bbfed8ccf71dc516c4ef" target="_top" xlink:title="MapNode::getActiveMapNodeData">
<polygon fill="none" stroke="#000000" points="580,-268.5 580,-287.5 764,-287.5 764,-268.5 580,-268.5"/>
<text text-anchor="middle" x="672" y="-275.5" font-family="Helvetica,sans-Serif" font-size="10.00" fill="#000000">MapNode::getActiveMapNodeData</text>
</a>
</g>
</g>
<!-- Node3&#45;&gt;Node4 -->
<g id="edge3" class="edge">
<title>Node3&#45;&gt;Node4</title>
<path fill="none" stroke="#191970" d="M530.6374,-278C546.7061,-278 563.5117,-278 579.6972,-278"/>
<polygon fill="#191970" stroke="#191970" points="530.1983,-274.5001 520.1982,-278 530.1982,-281.5001 530.1983,-274.5001"/>
</g>
<!-- Node5 -->
<g id="node5" class="node">
<title>Node5</title>
<g id="a_node5"><a xlink:href="classMap.html#a0241b997090783e5d13667114731a592" target="_top" xlink:title="Debug MapNodeData to Console Used as Tile&#45;Inspector until we implement a GUI variant. ">
<polygon fill="none" stroke="#000000" points="800,-252 800,-304 1019,-304 1019,-252 800,-252"/>
<text text-anchor="start" x="808" y="-292" font-family="Helvetica,sans-Serif" font-size="10.00" fill="#000000">Map&lt; ObserverSPtr&lt;</text>
<text text-anchor="start" x="808" y="-281" font-family="Helvetica,sans-Serif" font-size="10.00" fill="#000000"> Notification &gt;, Set</text>
<text text-anchor="start" x="808" y="-270" font-family="Helvetica,sans-Serif" font-size="10.00" fill="#000000">&lt; typename Notification</text>
<text text-anchor="middle" x="909.5" y="-259" font-family="Helvetica,sans-Serif" font-size="10.00" fill="#000000">::TransitionType &gt; &gt;::getNodeInformation</text>
</a>
</g>
</g>
<!-- Node4&#45;&gt;Node5 -->
<g id="edge4" class="edge">
<title>Node4&#45;&gt;Node5</title>
<path fill="none" stroke="#191970" d="M774.4198,-278C782.8836,-278 791.4603,-278 799.9733,-278"/>
<polygon fill="#191970" stroke="#191970" points="774.1637,-274.5001 764.1636,-278 774.1636,-281.5001 774.1637,-274.5001"/>
</g>
<!-- Node9 -->
<g id="node9" class="node">
<title>Node9</title>
<g id="a_node9"><a xlink:href="classMap.html#a8ffaf087a7bf669a890301a1efad6976" target="_top" xlink:title="Map\&lt; ObserverSPtr\&lt;\l Notification \&gt;, Set\l\&lt; typename Notification\l::TransitionType \&gt; \&gt;::renderMap">
<polygon fill="none" stroke="#000000" points="585.5,-98 585.5,-150 758.5,-150 758.5,-98 585.5,-98"/>
<text text-anchor="start" x="593.5" y="-138" font-family="Helvetica,sans-Serif" font-size="10.00" fill="#000000">Map&lt; ObserverSPtr&lt;</text>
<text text-anchor="start" x="593.5" y="-127" font-family="Helvetica,sans-Serif" font-size="10.00" fill="#000000"> Notification &gt;, Set</text>
<text text-anchor="start" x="593.5" y="-116" font-family="Helvetica,sans-Serif" font-size="10.00" fill="#000000">&lt; typename Notification</text>
<text text-anchor="middle" x="672" y="-105" font-family="Helvetica,sans-Serif" font-size="10.00" fill="#000000">::TransitionType &gt; &gt;::renderMap</text>
</a>
</g>
</g>
<!-- Node8&#45;&gt;Node9 -->
<g id="edge8" class="edge">
<title>Node8&#45;&gt;Node9</title>
<path fill="none" stroke="#191970" d="M494.3542,-124C521.1356,-124 554.5313,-124 585.1158,-124"/>
<polygon fill="#191970" stroke="#191970" points="494.0608,-120.5001 484.0607,-124 494.0607,-127.5001 494.0608,-120.5001"/>
</g>
</g>
</svg>
