<?xml version="1.0" encoding="UTF-8" standalone="no"?>
<!DOCTYPE svg PUBLIC "-//W3C//DTD SVG 1.1//EN"
 "http://www.w3.org/Graphics/SVG/1.1/DTD/svg11.dtd">
<!-- Generated by graphviz version 2.40.1 (20161225.0304)
 -->
<!-- Title: MouseState Pages: 1 -->
<!--zoomable 1337 -->
<svg id="main" version="1.1" xmlns="http://www.w3.org/2000/svg" xmlns:xlink="http://www.w3.org/1999/xlink" xml:space="preserve" onload="init(evt)">
<style type="text/css"><![CDATA[
.edge:hover path { stroke: red; }
.edge:hover polygon { stroke: red; fill: red; }
]]></style>
<script type="text/javascript"><![CDATA[
var edges = document.getElementsByTagName('g');
if (edges && edges.length) {
  for (var i=0;i<edges.length;i++) {
    if (edges[i].id.substr(0,4)=='edge') {
      edges[i].setAttribute('class','edge');
    }
  }
}
]]></script>
        <defs>
                <circle id="rim" cx="0" cy="0" r="7"/>
                <circle id="rim2" cx="0" cy="0" r="3.5"/>
                <g id="zoomPlus">
                        <use xlink:href="#rim" fill="#404040">
                                <set attributeName="fill" to="#808080" begin="zoomplus.mouseover" end="zoomplus.mouseout"/>
                        </use>
                        <path d="M-4,0h8M0,-4v8" fill="none" stroke="white" stroke-width="1.5" pointer-events="none"/>
                </g>
                <g id="zoomMin">
                        <use xlink:href="#rim" fill="#404040">
                                <set attributeName="fill" to="#808080" begin="zoomminus.mouseover" end="zoomminus.mouseout"/>
                        </use>
                        <path d="M-4,0h8" fill="none" stroke="white" stroke-width="1.5" pointer-events="none"/>
                </g>
                <g id="dirArrow">
                        <path fill="none" stroke="white" stroke-width="1.5" d="M0,-3.0v7 M-2.5,-0.5L0,-3.0L2.5,-0.5"/>
                </g>
               <g id="resetDef">
                       <use xlink:href="#rim2" fill="#404040">
                               <set attributeName="fill" to="#808080" begin="reset.mouseover" end="reset.mouseout"/>
                       </use>
               </g>
        </defs>

<script type="text/javascript">
var viewWidth = 624;
var viewHeight = 1337;
var sectionId = 'dynsection-1';
</script>
<script xlink:href="svgpan.js"/>
<svg id="graph" class="graph">
<g id="viewport">
<title>MouseState</title>
<!-- Node11 -->
<g id="node1" class="node">
<title>Node11</title>
<polygon fill="#bfbfbf" stroke="#000000" points="226,-.5 226,-79.5 327,-79.5 327,-.5 226,-.5"/>
<text text-anchor="middle" x="276.5" y="-67.5" font-family="Helvetica,sans-Serif" font-size="10.00" fill="#000000">MouseState</text>
<polyline fill="none" stroke="#000000" points="226,-60.5 327,-60.5 "/>
<text text-anchor="middle" x="276.5" y="-48.5" font-family="Helvetica,sans-Serif" font-size="10.00" fill="#000000"> </text>
<polyline fill="none" stroke="#000000" points="226,-41.5 327,-41.5 "/>
<text text-anchor="start" x="234" y="-29.5" font-family="Helvetica,sans-Serif" font-size="10.00" fill="#000000">+ setPosition()</text>
<text text-anchor="start" x="234" y="-18.5" font-family="Helvetica,sans-Serif" font-size="10.00" fill="#000000">+ setCursor()</text>
<text text-anchor="start" x="234" y="-7.5" font-family="Helvetica,sans-Serif" font-size="10.00" fill="#000000">+ ~MouseState()</text>
</g>
<!-- Node12 -->
<g id="node2" class="node">
<title>Node12</title>
<g id="a_node2"><a xlink:href="structDataModel.html" target="_top" xlink:title="{DataModel\&lt; MouseStateNotification \&gt;\n||+ DataModel()\l}">
<polygon fill="none" stroke="#000000" points="88,-149.5 88,-206.5 293,-206.5 293,-149.5 88,-149.5"/>
<text text-anchor="middle" x="190.5" y="-194.5" font-family="Helvetica,sans-Serif" font-size="10.00" fill="#000000">DataModel&lt; MouseStateNotification &gt;</text>
<polyline fill="none" stroke="#000000" points="88,-187.5 293,-187.5 "/>
<text text-anchor="middle" x="190.5" y="-175.5" font-family="Helvetica,sans-Serif" font-size="10.00" fill="#000000"> </text>
<polyline fill="none" stroke="#000000" points="88,-168.5 293,-168.5 "/>
<text text-anchor="start" x="96" y="-156.5" font-family="Helvetica,sans-Serif" font-size="10.00" fill="#000000">+ DataModel()</text>
</a>
</g>
</g>
<!-- Node12&#45;&gt;Node11 -->
<g id="edge1" class="edge">
<title>Node12&#45;&gt;Node11</title>
<path fill="none" stroke="#191970" d="M213.7153,-140.7476C225.5162,-121.8113 239.8593,-98.7955 251.8559,-79.5453"/>
<polygon fill="none" stroke="#191970" points="210.6378,-139.0683 208.3193,-149.4063 216.5786,-142.7706 210.6378,-139.0683"/>
</g>
<!-- Node13 -->
<g id="node3" class="node">
<title>Node13</title>
<g id="a_node3"><a xlink:href="classiModel.html" target="_top" xlink:title="{iModel\n||+ ~iModel()\l}">
<polygon fill="none" stroke="#000000" points="199.5,-410 199.5,-467 275.5,-467 275.5,-410 199.5,-410"/>
<text text-anchor="middle" x="237.5" y="-455" font-family="Helvetica,sans-Serif" font-size="10.00" fill="#000000">iModel</text>
<polyline fill="none" stroke="#000000" points="199.5,-448 275.5,-448 "/>
<text text-anchor="middle" x="237.5" y="-436" font-family="Helvetica,sans-Serif" font-size="10.00" fill="#000000"> </text>
<polyline fill="none" stroke="#000000" points="199.5,-429 275.5,-429 "/>
<text text-anchor="start" x="207.5" y="-417" font-family="Helvetica,sans-Serif" font-size="10.00" fill="#000000">+ ~iModel()</text>
</a>
</g>
</g>
<!-- Node13&#45;&gt;Node12 -->
<g id="edge2" class="edge">
<title>Node13&#45;&gt;Node12</title>
<path fill="none" stroke="#191970" d="M225.8311,-400.1267C220.2177,-380.4997 213.7923,-356.1398 209.5,-334 200.9579,-289.9391 195.5485,-238.0899 192.7729,-206.6546"/>
<polygon fill="none" stroke="#191970" points="222.5259,-401.2957 228.6769,-409.9222 229.248,-399.3427 222.5259,-401.2957"/>
</g>
<!-- Node22 -->
<g id="node12" class="node">
<title>Node22</title>
<g id="a_node12"><a xlink:href="structDataModel.html" target="_top" xlink:title="{DataModel\&lt; DataList \&gt;\n||+ DataModel()\l}">
<polygon fill="none" stroke="#000000" points="218.5,-276.5 218.5,-333.5 350.5,-333.5 350.5,-276.5 218.5,-276.5"/>
<text text-anchor="middle" x="284.5" y="-321.5" font-family="Helvetica,sans-Serif" font-size="10.00" fill="#000000">DataModel&lt; DataList &gt;</text>
<polyline fill="none" stroke="#000000" points="218.5,-314.5 350.5,-314.5 "/>
<text text-anchor="middle" x="284.5" y="-302.5" font-family="Helvetica,sans-Serif" font-size="10.00" fill="#000000"> </text>
<polyline fill="none" stroke="#000000" points="218.5,-295.5 350.5,-295.5 "/>
<text text-anchor="start" x="226.5" y="-283.5" font-family="Helvetica,sans-Serif" font-size="10.00" fill="#000000">+ DataModel()</text>
</a>
</g>
</g>
<!-- Node13&#45;&gt;Node22 -->
<g id="edge13" class="edge">
<title>Node13&#45;&gt;Node22</title>
<path fill="none" stroke="#191970" d="M250.9915,-400.1785C258.4619,-378.9592 267.5918,-353.0263 274.434,-333.5917"/>
<polygon fill="none" stroke="#191970" points="247.6022,-399.2661 247.5827,-409.8609 254.2049,-401.5907 247.6022,-399.2661"/>
</g>
<!-- Node14 -->
<g id="node4" class="node">
<title>Node14</title>
<g id="a_node4"><a xlink:href="classSubject.html" target="_top" xlink:title="{Subject\&lt; VariantType\l\&lt; MouseStateNotification\l \&gt;, UIMQDispatcher\&lt; VariantType\l\&lt; MouseStateNotification \&gt; \&gt; \&gt;\n|&#45; m_Observers\l|+ addObserver()\l# Subject()\l# notifyObservers()\l# ~Subject()\l# mustNotify()\l}">
<polygon fill="none" stroke="#000000" points="0,-371.5 0,-505.5 181,-505.5 181,-371.5 0,-371.5"/>
<text text-anchor="start" x="8" y="-493.5" font-family="Helvetica,sans-Serif" font-size="10.00" fill="#000000">Subject&lt; VariantType</text>
<text text-anchor="start" x="8" y="-482.5" font-family="Helvetica,sans-Serif" font-size="10.00" fill="#000000">&lt; MouseStateNotification</text>
<text text-anchor="start" x="8" y="-471.5" font-family="Helvetica,sans-Serif" font-size="10.00" fill="#000000"> &gt;, UIMQDispatcher&lt; VariantType</text>
<text text-anchor="middle" x="90.5" y="-460.5" font-family="Helvetica,sans-Serif" font-size="10.00" fill="#000000">&lt; MouseStateNotification &gt; &gt; &gt;</text>
<polyline fill="none" stroke="#000000" points="0,-453.5 181,-453.5 "/>
<text text-anchor="start" x="8" y="-441.5" font-family="Helvetica,sans-Serif" font-size="10.00" fill="#000000">&#45; m_Observers</text>
<polyline fill="none" stroke="#000000" points="0,-434.5 181,-434.5 "/>
<text text-anchor="start" x="8" y="-422.5" font-family="Helvetica,sans-Serif" font-size="10.00" fill="#000000">+ addObserver()</text>
<text text-anchor="start" x="8" y="-411.5" font-family="Helvetica,sans-Serif" font-size="10.00" fill="#000000"># Subject()</text>
<text text-anchor="start" x="8" y="-400.5" font-family="Helvetica,sans-Serif" font-size="10.00" fill="#000000"># notifyObservers()</text>
<text text-anchor="start" x="8" y="-389.5" font-family="Helvetica,sans-Serif" font-size="10.00" fill="#000000"># ~Subject()</text>
<text text-anchor="start" x="8" y="-378.5" font-family="Helvetica,sans-Serif" font-size="10.00" fill="#000000"># mustNotify()</text>
</a>
</g>
</g>
<!-- Node14&#45;&gt;Node12 -->
<g id="edge3" class="edge">
<title>Node14&#45;&gt;Node12</title>
<path fill="none" stroke="#191970" d="M119.9234,-361.8522C139.9357,-309.72 165.2752,-243.7105 179.5047,-206.6427"/>
<polygon fill="none" stroke="#191970" points="116.5688,-360.8247 116.2525,-371.4148 123.1039,-363.3334 116.5688,-360.8247"/>
</g>
<!-- Node15 -->
<g id="node5" class="node">
<title>Node15</title>
<g id="a_node5"><a xlink:href="structUIMQDispatcher.html" target="_top" xlink:title="{UIMQDispatcher\&lt; VariantType\l\&lt; MouseStateNotification \&gt; \&gt;\n||+ dispatch()\l}">
<polygon fill="none" stroke="#000000" points="4.5,-592 4.5,-660 168.5,-660 168.5,-592 4.5,-592"/>
<text text-anchor="start" x="12.5" y="-648" font-family="Helvetica,sans-Serif" font-size="10.00" fill="#000000">UIMQDispatcher&lt; VariantType</text>
<text text-anchor="middle" x="86.5" y="-637" font-family="Helvetica,sans-Serif" font-size="10.00" fill="#000000">&lt; MouseStateNotification &gt; &gt;</text>
<polyline fill="none" stroke="#000000" points="4.5,-630 168.5,-630 "/>
<text text-anchor="middle" x="86.5" y="-618" font-family="Helvetica,sans-Serif" font-size="10.00" fill="#000000"> </text>
<polyline fill="none" stroke="#000000" points="4.5,-611 168.5,-611 "/>
<text text-anchor="start" x="12.5" y="-599" font-family="Helvetica,sans-Serif" font-size="10.00" fill="#000000">+ dispatch()</text>
</a>
</g>
</g>
<!-- Node15&#45;&gt;Node14 -->
<g id="edge4" class="edge">
<title>Node15&#45;&gt;Node14</title>
<path fill="none" stroke="#8b1a1a" d="M87.3299,-581.8175C87.6764,-563.8749 88.0926,-542.9472 88.5,-524 88.6277,-518.0622 88.7643,-511.8926 88.9039,-505.7086"/>
<polygon fill="none" stroke="#8b1a1a" points="83.8271,-581.934 87.1345,-591.9993 90.8258,-582.0684 83.8271,-581.934"/>
</g>
<!-- Node16 -->
<g id="node6" class="node">
<title>Node16</title>
<g id="a_node6"><a xlink:href="classUILoopMQ.html" target="_top" xlink:title="UI Actor&#39;s message queue. ">
<polygon fill="none" stroke="#000000" points="218.5,-840.5 218.5,-897.5 284.5,-897.5 284.5,-840.5 218.5,-840.5"/>
<text text-anchor="middle" x="251.5" y="-885.5" font-family="Helvetica,sans-Serif" font-size="10.00" fill="#000000">UILoopMQ</text>
<polyline fill="none" stroke="#000000" points="218.5,-878.5 284.5,-878.5 "/>
<text text-anchor="middle" x="251.5" y="-866.5" font-family="Helvetica,sans-Serif" font-size="10.00" fill="#000000"> </text>
<polyline fill="none" stroke="#000000" points="218.5,-859.5 284.5,-859.5 "/>
<text text-anchor="middle" x="251.5" y="-847.5" font-family="Helvetica,sans-Serif" font-size="10.00" fill="#000000"> </text>
</a>
</g>
</g>
<!-- Node16&#45;&gt;Node15 -->
<g id="edge5" class="edge">
<title>Node16&#45;&gt;Node15</title>
<path fill="none" stroke="#404040" d="M218.3361,-856.2728C190.4502,-843.9929 151.4127,-822.8576 127.5,-793 100.0383,-758.7111 90.6004,-708.664 87.5394,-672.3036"/>
<polygon fill="none" stroke="#404040" points="87.521,-672.0337 83.1215,-666.3201 86.7035,-660.0616 91.103,-665.7751 87.521,-672.0337"/>
<text text-anchor="middle" x="144" y="-761.5" font-family="Helvetica,sans-Serif" font-size="10.00" fill="#000000"> +loop</text>
</g>
<!-- Node19 -->
<g id="node9" class="node">
<title>Node19</title>
<g id="a_node9"><a xlink:href="structUIMQDispatcher.html" target="_top" xlink:title="An asynchronous dispatch to Observers based on a UIMessageQueue processed on another thread...">
<polygon fill="none" stroke="#000000" points="170,-735.5 170,-792.5 333,-792.5 333,-735.5 170,-735.5"/>
<text text-anchor="middle" x="251.5" y="-780.5" font-family="Helvetica,sans-Serif" font-size="10.00" fill="#000000">UIMQDispatcher&lt; DataArgs &gt;</text>
<polyline fill="none" stroke="#000000" points="170,-773.5 333,-773.5 "/>
<text text-anchor="middle" x="251.5" y="-761.5" font-family="Helvetica,sans-Serif" font-size="10.00" fill="#000000"> </text>
<polyline fill="none" stroke="#000000" points="170,-754.5 333,-754.5 "/>
<text text-anchor="start" x="178" y="-742.5" font-family="Helvetica,sans-Serif" font-size="10.00" fill="#000000">+ dispatch()</text>
</a>
</g>
</g>
<!-- Node16&#45;&gt;Node19 -->
<g id="edge9" class="edge">
<title>Node16&#45;&gt;Node19</title>
<path fill="none" stroke="#404040" d="M251.5,-840.3083C251.5,-829.4281 251.5,-816.817 251.5,-805.0192"/>
<polygon fill="none" stroke="#404040" points="251.5001,-804.657 247.5,-798.6571 251.5,-792.657 255.5,-798.657 251.5001,-804.657"/>
<text text-anchor="middle" x="268" y="-814" font-family="Helvetica,sans-Serif" font-size="10.00" fill="#000000"> +loop</text>
</g>
<!-- Node24 -->
<g id="node14" class="node">
<title>Node24</title>
<g id="a_node14"><a xlink:href="structUIMQDispatcher.html" target="_top" xlink:title="{UIMQDispatcher\&lt; VariantType\l\&lt; DataList \&gt; \&gt;\n||+ dispatch()\l}">
<polygon fill="none" stroke="#000000" points="451.5,-592 451.5,-660 615.5,-660 615.5,-592 451.5,-592"/>
<text text-anchor="start" x="459.5" y="-648" font-family="Helvetica,sans-Serif" font-size="10.00" fill="#000000">UIMQDispatcher&lt; VariantType</text>
<text text-anchor="middle" x="533.5" y="-637" font-family="Helvetica,sans-Serif" font-size="10.00" fill="#000000">&lt; DataList &gt; &gt;</text>
<polyline fill="none" stroke="#000000" points="451.5,-630 615.5,-630 "/>
<text text-anchor="middle" x="533.5" y="-618" font-family="Helvetica,sans-Serif" font-size="10.00" fill="#000000"> </text>
<polyline fill="none" stroke="#000000" points="451.5,-611 615.5,-611 "/>
<text text-anchor="start" x="459.5" y="-599" font-family="Helvetica,sans-Serif" font-size="10.00" fill="#000000">+ dispatch()</text>
</a>
</g>
</g>
<!-- Node16&#45;&gt;Node24 -->
<g id="edge16" class="edge">
<title>Node16&#45;&gt;Node24</title>
<path fill="none" stroke="#404040" d="M284.5019,-863.0573C344.63,-851.5694 468.5099,-824.6389 497.5,-793 527.293,-760.4849 534.6218,-709.4021 535.5311,-672.2901"/>
<polygon fill="none" stroke="#404040" points="535.531,-672.2866 531.5739,-666.2582 535.6165,-660.2869 539.5737,-666.3152 535.531,-672.2866"/>
<text text-anchor="middle" x="543" y="-761.5" font-family="Helvetica,sans-Serif" font-size="10.00" fill="#000000"> +loop</text>
</g>
<!-- Node17 -->
<g id="node7" class="node">
<title>Node17</title>
<g id="a_node7"><a xlink:href="classMessageQueue.html" target="_top" xlink:title="{MessageQueue\&lt; VariantType\l\&lt; UIEvents \&gt; \&gt;\n|&#45; m_OnEvent\l&#45; m_Semaphore\l&#45; m_Queue\l|+ push()\l+ peek()\l+ getEnumerable()\l+ MessageQueue()\l+ MessageQueue()\l+ MessageQueue()\l+ operator=()\l+ operator=()\l&#45; wakeCondition()\l}">
<polygon fill="none" stroke="#000000" points="172,-935.5 172,-1113.5 331,-1113.5 331,-935.5 172,-935.5"/>
<text text-anchor="start" x="180" y="-1101.5" font-family="Helvetica,sans-Serif" font-size="10.00" fill="#000000">MessageQueue&lt; VariantType</text>
<text text-anchor="middle" x="251.5" y="-1090.5" font-family="Helvetica,sans-Serif" font-size="10.00" fill="#000000">&lt; UIEvents &gt; &gt;</text>
<polyline fill="none" stroke="#000000" points="172,-1083.5 331,-1083.5 "/>
<text text-anchor="start" x="180" y="-1071.5" font-family="Helvetica,sans-Serif" font-size="10.00" fill="#000000">&#45; m_OnEvent</text>
<text text-anchor="start" x="180" y="-1060.5" font-family="Helvetica,sans-Serif" font-size="10.00" fill="#000000">&#45; m_Semaphore</text>
<text text-anchor="start" x="180" y="-1049.5" font-family="Helvetica,sans-Serif" font-size="10.00" fill="#000000">&#45; m_Queue</text>
<polyline fill="none" stroke="#000000" points="172,-1042.5 331,-1042.5 "/>
<text text-anchor="start" x="180" y="-1030.5" font-family="Helvetica,sans-Serif" font-size="10.00" fill="#000000">+ push()</text>
<text text-anchor="start" x="180" y="-1019.5" font-family="Helvetica,sans-Serif" font-size="10.00" fill="#000000">+ peek()</text>
<text text-anchor="start" x="180" y="-1008.5" font-family="Helvetica,sans-Serif" font-size="10.00" fill="#000000">+ getEnumerable()</text>
<text text-anchor="start" x="180" y="-997.5" font-family="Helvetica,sans-Serif" font-size="10.00" fill="#000000">+ MessageQueue()</text>
<text text-anchor="start" x="180" y="-986.5" font-family="Helvetica,sans-Serif" font-size="10.00" fill="#000000">+ MessageQueue()</text>
<text text-anchor="start" x="180" y="-975.5" font-family="Helvetica,sans-Serif" font-size="10.00" fill="#000000">+ MessageQueue()</text>
<text text-anchor="start" x="180" y="-964.5" font-family="Helvetica,sans-Serif" font-size="10.00" fill="#000000">+ operator=()</text>
<text text-anchor="start" x="180" y="-953.5" font-family="Helvetica,sans-Serif" font-size="10.00" fill="#000000">+ operator=()</text>
<text text-anchor="start" x="180" y="-942.5" font-family="Helvetica,sans-Serif" font-size="10.00" fill="#000000">&#45; wakeCondition()</text>
</a>
</g>
</g>
<!-- Node17&#45;&gt;Node16 -->
<g id="edge6" class="edge">
<title>Node17&#45;&gt;Node16</title>
<path fill="none" stroke="#191970" d="M251.5,-925.3332C251.5,-915.4109 251.5,-905.9934 251.5,-897.7987"/>
<polygon fill="none" stroke="#191970" points="248.0001,-925.397 251.5,-935.397 255.0001,-925.3971 248.0001,-925.397"/>
</g>
<!-- Node18 -->
<g id="node8" class="node">
<title>Node18</title>
<g id="a_node8"><a xlink:href="classMessageQueue.html" target="_top" xlink:title="{MessageQueue\&lt; Event \&gt;\n|&#45; m_OnEvent\l&#45; m_Semaphore\l&#45; m_Queue\l|+ push()\l+ peek()\l+ getEnumerable()\l+ MessageQueue()\l+ operator=()\l+ MessageQueue()\l+ MessageQueue()\l+ operator=()\l&#45; wakeCondition()\l}">
<polygon fill="none" stroke="#000000" points="181,-1161.5 181,-1328.5 322,-1328.5 322,-1161.5 181,-1161.5"/>
<text text-anchor="middle" x="251.5" y="-1316.5" font-family="Helvetica,sans-Serif" font-size="10.00" fill="#000000">MessageQueue&lt; Event &gt;</text>
<polyline fill="none" stroke="#000000" points="181,-1309.5 322,-1309.5 "/>
<text text-anchor="start" x="189" y="-1297.5" font-family="Helvetica,sans-Serif" font-size="10.00" fill="#000000">&#45; m_OnEvent</text>
<text text-anchor="start" x="189" y="-1286.5" font-family="Helvetica,sans-Serif" font-size="10.00" fill="#000000">&#45; m_Semaphore</text>
<text text-anchor="start" x="189" y="-1275.5" font-family="Helvetica,sans-Serif" font-size="10.00" fill="#000000">&#45; m_Queue</text>
<polyline fill="none" stroke="#000000" points="181,-1268.5 322,-1268.5 "/>
<text text-anchor="start" x="189" y="-1256.5" font-family="Helvetica,sans-Serif" font-size="10.00" fill="#000000">+ push()</text>
<text text-anchor="start" x="189" y="-1245.5" font-family="Helvetica,sans-Serif" font-size="10.00" fill="#000000">+ peek()</text>
<text text-anchor="start" x="189" y="-1234.5" font-family="Helvetica,sans-Serif" font-size="10.00" fill="#000000">+ getEnumerable()</text>
<text text-anchor="start" x="189" y="-1223.5" font-family="Helvetica,sans-Serif" font-size="10.00" fill="#000000">+ MessageQueue()</text>
<text text-anchor="start" x="189" y="-1212.5" font-family="Helvetica,sans-Serif" font-size="10.00" fill="#000000">+ operator=()</text>
<text text-anchor="start" x="189" y="-1201.5" font-family="Helvetica,sans-Serif" font-size="10.00" fill="#000000">+ MessageQueue()</text>
<text text-anchor="start" x="189" y="-1190.5" font-family="Helvetica,sans-Serif" font-size="10.00" fill="#000000">+ MessageQueue()</text>
<text text-anchor="start" x="189" y="-1179.5" font-family="Helvetica,sans-Serif" font-size="10.00" fill="#000000">+ operator=()</text>
<text text-anchor="start" x="189" y="-1168.5" font-family="Helvetica,sans-Serif" font-size="10.00" fill="#000000">&#45; wakeCondition()</text>
</a>
</g>
</g>
<!-- Node18&#45;&gt;Node17 -->
<g id="edge7" class="edge">
<title>Node18&#45;&gt;Node17</title>
<path fill="none" stroke="#ffa500" d="M251.5,-1150.996C251.5,-1138.6056 251.5,-1125.9353 251.5,-1113.6296"/>
<polygon fill="#ffa500" stroke="#ffa500" points="248.0001,-1151.324 251.5,-1161.324 255.0001,-1151.324 248.0001,-1151.324"/>
<text text-anchor="middle" x="326" y="-1135" font-family="Helvetica,sans-Serif" font-size="10.00" fill="#000000"> &lt; VariantType&lt; UIEvents &gt; &gt;</text>
</g>
<!-- Node19&#45;&gt;Node15 -->
<g id="edge8" class="edge">
<title>Node19&#45;&gt;Node15</title>
<path fill="none" stroke="#ffa500" d="M160.0829,-742.917C145.5413,-736.4419 131.6444,-727.9995 120.5,-717 105.1357,-701.8355 96.6357,-679.0855 91.9767,-660.1266"/>
<polygon fill="#ffa500" stroke="#ffa500" points="159.1307,-746.3106 169.7094,-746.8951 161.8042,-739.8412 159.1307,-746.3106"/>
<text text-anchor="start" x="120.5" y="-709" font-family="Helvetica,sans-Serif" font-size="10.00" fill="#000000"> &lt; VariantType&lt; MouseState</text>
<text text-anchor="middle" x="190.5" y="-698" font-family="Helvetica,sans-Serif" font-size="10.00" fill="#000000">Notification &gt; &gt;</text>
</g>
<!-- Node19&#45;&gt;Node24 -->
<g id="edge17" class="edge">
<title>Node19&#45;&gt;Node24</title>
<path fill="none" stroke="#ffa500" d="M302.61,-730.1359C323.0674,-717.7233 347.2621,-704.4224 370.5,-695 401.0676,-682.6056 411.8425,-689.1704 442.5,-677 454.2829,-672.3224 466.4259,-666.3897 477.8511,-660.238"/>
<polygon fill="#ffa500" stroke="#ffa500" points="300.7636,-727.1625 294.0851,-735.3873 304.435,-733.1224 300.7636,-727.1625"/>
<text text-anchor="middle" x="443.5" y="-703.5" font-family="Helvetica,sans-Serif" font-size="10.00" fill="#000000"> &lt; VariantType&lt; DataList &gt; &gt;</text>
</g>
<!-- Node20 -->
<g id="node10" class="node">
<title>Node20</title>
<g id="a_node10"><a xlink:href="classSubject.html" target="_top" xlink:title="Allows to notify Observers about events. ">
<polygon fill="none" stroke="#000000" points="257.5,-575.5 257.5,-676.5 433.5,-676.5 433.5,-575.5 257.5,-575.5"/>
<text text-anchor="middle" x="345.5" y="-664.5" font-family="Helvetica,sans-Serif" font-size="10.00" fill="#000000">Subject&lt; Data, DispatchPolicy &gt;</text>
<polyline fill="none" stroke="#000000" points="257.5,-657.5 433.5,-657.5 "/>
<text text-anchor="start" x="265.5" y="-645.5" font-family="Helvetica,sans-Serif" font-size="10.00" fill="#000000">&#45; m_Observers</text>
<polyline fill="none" stroke="#000000" points="257.5,-638.5 433.5,-638.5 "/>
<text text-anchor="start" x="265.5" y="-626.5" font-family="Helvetica,sans-Serif" font-size="10.00" fill="#000000">+ addObserver()</text>
<text text-anchor="start" x="265.5" y="-615.5" font-family="Helvetica,sans-Serif" font-size="10.00" fill="#000000"># Subject()</text>
<text text-anchor="start" x="265.5" y="-604.5" font-family="Helvetica,sans-Serif" font-size="10.00" fill="#000000"># notifyObservers()</text>
<text text-anchor="start" x="265.5" y="-593.5" font-family="Helvetica,sans-Serif" font-size="10.00" fill="#000000"># ~Subject()</text>
<text text-anchor="start" x="265.5" y="-582.5" font-family="Helvetica,sans-Serif" font-size="10.00" fill="#000000"># mustNotify()</text>
</a>
</g>
</g>
<!-- Node20&#45;&gt;Node14 -->
<g id="edge10" class="edge">
<title>Node20&#45;&gt;Node14</title>
<path fill="none" stroke="#ffa500" d="M247.5899,-596.2685C188.2576,-578.1604 123.7116,-558.2565 122.5,-557 109.1131,-543.1178 101.192,-524.2414 96.5452,-505.6367"/>
<polygon fill="#ffa500" stroke="#ffa500" points="246.8526,-599.7027 257.4387,-599.2725 248.8948,-593.0073 246.8526,-599.7027"/>
<text text-anchor="start" x="122.5" y="-549" font-family="Helvetica,sans-Serif" font-size="10.00" fill="#000000"> &lt; VariantType&lt; MouseState</text>
<text text-anchor="start" x="122.5" y="-538" font-family="Helvetica,sans-Serif" font-size="10.00" fill="#000000">Notification &gt;, UIMQDispatcher</text>
<text text-anchor="middle" x="236" y="-527" font-family="Helvetica,sans-Serif" font-size="10.00" fill="#000000">&lt; VariantType&lt; MouseStateNotification &gt; &gt; &gt;</text>
</g>
<!-- Node23 -->
<g id="node13" class="node">
<title>Node23</title>
<g id="a_node13"><a xlink:href="classSubject.html" target="_top" xlink:title="{Subject\&lt; VariantType\l\&lt; DataList \&gt;, UIMQDispatcher\l\&lt; VariantType\&lt; DataList \&gt; \&gt; \&gt;\n|&#45; m_Observers\l|+ addObserver()\l# Subject()\l# notifyObservers()\l# ~Subject()\l# mustNotify()\l}">
<polygon fill="none" stroke="#000000" points="293.5,-377 293.5,-500 463.5,-500 463.5,-377 293.5,-377"/>
<text text-anchor="start" x="301.5" y="-488" font-family="Helvetica,sans-Serif" font-size="10.00" fill="#000000">Subject&lt; VariantType</text>
<text text-anchor="start" x="301.5" y="-477" font-family="Helvetica,sans-Serif" font-size="10.00" fill="#000000">&lt; DataList &gt;, UIMQDispatcher</text>
<text text-anchor="middle" x="378.5" y="-466" font-family="Helvetica,sans-Serif" font-size="10.00" fill="#000000">&lt; VariantType&lt; DataList &gt; &gt; &gt;</text>
<polyline fill="none" stroke="#000000" points="293.5,-459 463.5,-459 "/>
<text text-anchor="start" x="301.5" y="-447" font-family="Helvetica,sans-Serif" font-size="10.00" fill="#000000">&#45; m_Observers</text>
<polyline fill="none" stroke="#000000" points="293.5,-440 463.5,-440 "/>
<text text-anchor="start" x="301.5" y="-428" font-family="Helvetica,sans-Serif" font-size="10.00" fill="#000000">+ addObserver()</text>
<text text-anchor="start" x="301.5" y="-417" font-family="Helvetica,sans-Serif" font-size="10.00" fill="#000000"># Subject()</text>
<text text-anchor="start" x="301.5" y="-406" font-family="Helvetica,sans-Serif" font-size="10.00" fill="#000000"># notifyObservers()</text>
<text text-anchor="start" x="301.5" y="-395" font-family="Helvetica,sans-Serif" font-size="10.00" fill="#000000"># ~Subject()</text>
<text text-anchor="start" x="301.5" y="-384" font-family="Helvetica,sans-Serif" font-size="10.00" fill="#000000"># mustNotify()</text>
</a>
</g>
</g>
<!-- Node20&#45;&gt;Node23 -->
<g id="edge18" class="edge">
<title>Node20&#45;&gt;Node23</title>
<path fill="none" stroke="#ffa500" d="M352.2241,-565.0596C354.0098,-551.5026 356.1161,-537.23 358.5,-524 359.8787,-516.3486 361.5019,-508.3524 363.2173,-500.4525"/>
<polygon fill="#ffa500" stroke="#ffa500" points="348.7167,-564.8952 350.9217,-575.2581 355.6603,-565.782 348.7167,-564.8952"/>
<text text-anchor="start" x="358.5" y="-549" font-family="Helvetica,sans-Serif" font-size="10.00" fill="#000000"> &lt; VariantType&lt; DataList</text>
<text text-anchor="start" x="358.5" y="-538" font-family="Helvetica,sans-Serif" font-size="10.00" fill="#000000"> &gt;, UIMQDispatcher&lt; VariantType</text>
<text text-anchor="middle" x="441" y="-527" font-family="Helvetica,sans-Serif" font-size="10.00" fill="#000000">&lt; DataList &gt; &gt; &gt;</text>
</g>
<!-- Node21 -->
<g id="node11" class="node">
<title>Node21</title>
<polygon fill="none" stroke="#bfbfbf" points="399,-735.5 399,-792.5 488,-792.5 488,-735.5 399,-735.5"/>
<text text-anchor="middle" x="443.5" y="-780.5" font-family="Helvetica,sans-Serif" font-size="10.00" fill="#000000">DispatchPolicy</text>
<polyline fill="none" stroke="#bfbfbf" points="399,-773.5 488,-773.5 "/>
<text text-anchor="middle" x="443.5" y="-761.5" font-family="Helvetica,sans-Serif" font-size="10.00" fill="#000000"> </text>
<polyline fill="none" stroke="#bfbfbf" points="399,-754.5 488,-754.5 "/>
<text text-anchor="middle" x="443.5" y="-742.5" font-family="Helvetica,sans-Serif" font-size="10.00" fill="#000000"> </text>
</g>
<!-- Node21&#45;&gt;Node20 -->
<g id="edge11" class="edge">
<title>Node21&#45;&gt;Node20</title>
<path fill="none" stroke="#8b1a1a" d="M440.366,-725.1348C438.2972,-714.8122 434.9352,-704.0335 429.5,-695 425.6081,-688.5316 420.8816,-682.3999 415.6764,-676.6578"/>
<polygon fill="none" stroke="#8b1a1a" points="436.9495,-725.928 442.0326,-735.2238 443.8559,-724.787 436.9495,-725.928"/>
</g>
<!-- Node22&#45;&gt;Node12 -->
<g id="edge12" class="edge">
<title>Node22&#45;&gt;Node12</title>
<path fill="none" stroke="#ffa500" d="M257.4086,-268.3978C242.9274,-248.8328 225.3531,-225.0887 211.8503,-206.8456"/>
<polygon fill="#ffa500" stroke="#ffa500" points="254.642,-270.5431 263.4046,-276.4987 260.2685,-266.3786 254.642,-270.5431"/>
<text text-anchor="middle" x="319" y="-250" font-family="Helvetica,sans-Serif" font-size="10.00" fill="#000000"> &lt; MouseStateNotification &gt;</text>
</g>
<!-- Node23&#45;&gt;Node22 -->
<g id="edge14" class="edge">
<title>Node23&#45;&gt;Node22</title>
<path fill="none" stroke="#191970" d="M329.1126,-368.3594C320.5015,-356.1299 311.9976,-344.0525 304.761,-333.7749"/>
<polygon fill="none" stroke="#191970" points="326.458,-370.6687 335.077,-376.8301 332.1815,-366.6386 326.458,-370.6687"/>
</g>
<!-- Node24&#45;&gt;Node23 -->
<g id="edge15" class="edge">
<title>Node24&#45;&gt;Node23</title>
<path fill="none" stroke="#8b1a1a" d="M537.7429,-581.5461C537.4848,-562.5086 534.2392,-540.8334 523.5,-524 509.1967,-501.5801 486.7403,-484.2957 463.7344,-471.3288"/>
<polygon fill="none" stroke="#8b1a1a" points="534.2399,-581.7583 537.6076,-591.8036 541.2393,-581.8507 534.2399,-581.7583"/>
</g>
<!-- Node25 -->
<g id="node15" class="node">
<title>Node25</title>
<g id="a_node15"><a xlink:href="structMouseStateModel.html" target="_top" xlink:title="{MouseStateModel\n|+ xPosition\l+ yPosition\l+ xVelocity\l+ yVelocity\l+ cursorType\l|}">
<polygon fill="none" stroke="#000000" points="311,-127.5 311,-228.5 414,-228.5 414,-127.5 311,-127.5"/>
<text text-anchor="middle" x="362.5" y="-216.5" font-family="Helvetica,sans-Serif" font-size="10.00" fill="#000000">MouseStateModel</text>
<polyline fill="none" stroke="#000000" points="311,-209.5 414,-209.5 "/>
<text text-anchor="start" x="319" y="-197.5" font-family="Helvetica,sans-Serif" font-size="10.00" fill="#000000">+ xPosition</text>
<text text-anchor="start" x="319" y="-186.5" font-family="Helvetica,sans-Serif" font-size="10.00" fill="#000000">+ yPosition</text>
<text text-anchor="start" x="319" y="-175.5" font-family="Helvetica,sans-Serif" font-size="10.00" fill="#000000">+ xVelocity</text>
<text text-anchor="start" x="319" y="-164.5" font-family="Helvetica,sans-Serif" font-size="10.00" fill="#000000">+ yVelocity</text>
<text text-anchor="start" x="319" y="-153.5" font-family="Helvetica,sans-Serif" font-size="10.00" fill="#000000">+ cursorType</text>
<polyline fill="none" stroke="#000000" points="311,-146.5 414,-146.5 "/>
<text text-anchor="middle" x="362.5" y="-134.5" font-family="Helvetica,sans-Serif" font-size="10.00" fill="#000000"> </text>
</a>
</g>
</g>
<!-- Node25&#45;&gt;Node11 -->
<g id="edge19" class="edge">
<title>Node25&#45;&gt;Node11</title>
<path fill="none" stroke="#404040" d="M330.9651,-127.3975C323.4014,-115.2603 315.327,-102.3038 307.7751,-90.1857"/>
<polygon fill="none" stroke="#404040" points="307.6458,-89.9781 301.0777,-87.0015 301.299,-79.7938 307.8672,-82.7703 307.6458,-89.9781"/>
<text text-anchor="middle" x="345.5" y="-101" font-family="Helvetica,sans-Serif" font-size="10.00" fill="#000000"> &#45;m_Model</text>
</g>
</g>
</svg>
        <g id="navigator" transform="translate(0 0)" fill="#404254">
                <rect fill="#f2f5e9" fill-opacity="0.5" stroke="#606060" stroke-width=".5" x="0" y="0" width="60" height="60"/>
                <use id="zoomplus" xlink:href="#zoomPlus" x="17" y="9" onmousedown="handleZoom(evt,'in')"/>
                <use id="zoomminus" xlink:href="#zoomMin" x="42" y="9" onmousedown="handleZoom(evt,'out')"/>
                <use id="reset" xlink:href="#resetDef" x="30" y="36" onmousedown="handleReset()"/>
                <g id="arrowUp" xlink:href="#dirArrow" transform="translate(30 24)" onmousedown="handlePan(0,-1)">
                  <use xlink:href="#rim" fill="#404040">
                        <set attributeName="fill" to="#808080" begin="arrowUp.mouseover" end="arrowUp.mouseout"/>
                  </use>
                  <path fill="none" stroke="white" stroke-width="1.5" d="M0,-3.0v7 M-2.5,-0.5L0,-3.0L2.5,-0.5"/>
                </g>
                <g id="arrowRight" xlink:href="#dirArrow" transform="rotate(90) translate(36 -43)" onmousedown="handlePan(1,0)">
                  <use xlink:href="#rim" fill="#404040">
                        <set attributeName="fill" to="#808080" begin="arrowRight.mouseover" end="arrowRight.mouseout"/>
                  </use>
                  <path fill="none" stroke="white" stroke-width="1.5" d="M0,-3.0v7 M-2.5,-0.5L0,-3.0L2.5,-0.5"/>
                </g>
                <g id="arrowDown" xlink:href="#dirArrow" transform="rotate(180) translate(-30 -48)" onmousedown="handlePan(0,1)">
                  <use xlink:href="#rim" fill="#404040">
                        <set attributeName="fill" to="#808080" begin="arrowDown.mouseover" end="arrowDown.mouseout"/>
                  </use>
                  <path fill="none" stroke="white" stroke-width="1.5" d="M0,-3.0v7 M-2.5,-0.5L0,-3.0L2.5,-0.5"/>
                </g>
                <g id="arrowLeft" xlink:href="#dirArrow" transform="rotate(270) translate(-36 17)" onmousedown="handlePan(-1,0)">
                  <use xlink:href="#rim" fill="#404040">
                        <set attributeName="fill" to="#808080" begin="arrowLeft.mouseover" end="arrowLeft.mouseout"/>
                  </use>
                  <path fill="none" stroke="white" stroke-width="1.5" d="M0,-3.0v7 M-2.5,-0.5L0,-3.0L2.5,-0.5"/>
                </g>
        </g>
        <svg viewBox="0 0 15 15" width="100%" height="30px" preserveAspectRatio="xMaxYMin meet">
         <g id="arrow_out" transform="scale(0.3 0.3)">
          <a xlink:href="classMouseState__coll__graph_org.svg" target="_base">
           <rect id="button" ry="5" rx="5" y="6" x="6" height="38" width="38"
                fill="#f2f5e9" fill-opacity="0.5" stroke="#606060" stroke-width="1.0"/>
           <path id="arrow"
             d="M 11.500037,31.436501 C 11.940474,20.09759 22.043105,11.32322 32.158766,21.979434 L 37.068811,17.246167 C 37.068811,17.246167 37.088388,32 37.088388,32 L 22.160133,31.978069 C 22.160133,31.978069 26.997745,27.140456 26.997745,27.140456 C 18.528582,18.264221 13.291696,25.230495 11.500037,31.436501 z"
             style="fill:#404040;"/>
          </a>
         </g>
        </svg>
</svg>
