<?xml version="1.0" encoding="UTF-8" standalone="no"?>
<!DOCTYPE svg PUBLIC "-//W3C//DTD SVG 1.1//EN"
 "http://www.w3.org/Graphics/SVG/1.1/DTD/svg11.dtd">
<!-- Generated by graphviz version 2.40.1 (20161225.0304)
 -->
<!-- Title: UIElement::getUiElementData Pages: 1 -->
<!--zoomable 192 -->
<svg id="main" version="1.1" xmlns="http://www.w3.org/2000/svg" xmlns:xlink="http://www.w3.org/1999/xlink" xml:space="preserve" onload="init(evt)">
<style type="text/css"><![CDATA[
.edge:hover path { stroke: red; }
.edge:hover polygon { stroke: red; fill: red; }
]]></style>
<script type="text/javascript"><![CDATA[
var edges = document.getElementsByTagName('g');
if (edges && edges.length) {
  for (var i=0;i<edges.length;i++) {
    if (edges[i].id.substr(0,4)=='edge') {
      edges[i].setAttribute('class','edge');
    }
  }
}
]]></script>
        <defs>
                <circle id="rim" cx="0" cy="0" r="7"/>
                <circle id="rim2" cx="0" cy="0" r="3.5"/>
                <g id="zoomPlus">
                        <use xlink:href="#rim" fill="#404040">
                                <set attributeName="fill" to="#808080" begin="zoomplus.mouseover" end="zoomplus.mouseout"/>
                        </use>
                        <path d="M-4,0h8M0,-4v8" fill="none" stroke="white" stroke-width="1.5" pointer-events="none"/>
                </g>
                <g id="zoomMin">
                        <use xlink:href="#rim" fill="#404040">
                                <set attributeName="fill" to="#808080" begin="zoomminus.mouseover" end="zoomminus.mouseout"/>
                        </use>
                        <path d="M-4,0h8" fill="none" stroke="white" stroke-width="1.5" pointer-events="none"/>
                </g>
                <g id="dirArrow">
                        <path fill="none" stroke="white" stroke-width="1.5" d="M0,-3.0v7 M-2.5,-0.5L0,-3.0L2.5,-0.5"/>
                </g>
               <g id="resetDef">
                       <use xlink:href="#rim2" fill="#404040">
                               <set attributeName="fill" to="#808080" begin="reset.mouseover" end="reset.mouseout"/>
                       </use>
               </g>
        </defs>

<script type="text/javascript">
var viewWidth = 1446;
var viewHeight = 192;
var sectionId = 'dynsection-16';
</script>
<script xlink:href="svgpan.js"/>
<svg id="graph" class="graph">
<g id="viewport">
<title>UIElement::getUiElementData</title>
<!-- Node121 -->
<g id="node1" class="node">
<title>Node121</title>
<polygon fill="#bfbfbf" stroke="#000000" points="0,-76.5 0,-95.5 164,-95.5 164,-76.5 0,-76.5"/>
<text text-anchor="middle" x="82" y="-83.5" font-family="Helvetica,sans-Serif" font-size="10.00" fill="#000000">UIElement::getUiElementData</text>
</g>
<!-- Node122 -->
<g id="node2" class="node">
<title>Node122</title>
<g id="a_node2"><a xlink:href="classLayout.html#a99004e4afcea6a945e3890b19cce6236" target="_top" xlink:title="Arrange Elements that are aligned to a parent This is a seperate function, so it can recurse if a par...">
<polygon fill="none" stroke="#000000" points="207,-95.5 207,-114.5 371,-114.5 371,-95.5 207,-95.5"/>
<text text-anchor="middle" x="289" y="-102.5" font-family="Helvetica,sans-Serif" font-size="10.00" fill="#000000">Layout::arrangeChildElements</text>
</a>
</g>
</g>
<!-- Node121&#45;&gt;Node122 -->
<g id="edge1" class="edge">
<title>Node121&#45;&gt;Node122</title>
<path fill="none" stroke="#191970" d="M174.1071,-94.4543C185.0621,-95.4598 196.1894,-96.4812 206.9901,-97.4725"/>
<polygon fill="#191970" stroke="#191970" points="174.3873,-90.9654 164.1092,-93.5366 173.7474,-97.9361 174.3873,-90.9654"/>
</g>
<!-- Node130 -->
<g id="node10" class="node">
<title>Node130</title>
<g id="a_node10"><a xlink:href="classUIManager.html#a23bbbe53c18c31ff1c68c105dfa0dbd3" target="_top" xlink:title="Callback function for toggling the visibility of an UiGroup Callback function for Ui Widgets with the...">
<polygon fill="none" stroke="#000000" points="200,-19.5 200,-38.5 378,-38.5 378,-19.5 200,-19.5"/>
<text text-anchor="middle" x="289" y="-26.5" font-family="Helvetica,sans-Serif" font-size="10.00" fill="#000000">UIManager::toggleGroupVisibility</text>
</a>
</g>
</g>
<!-- Node121&#45;&gt;Node130 -->
<g id="edge10" class="edge">
<title>Node121&#45;&gt;Node130</title>
<path fill="none" stroke="#191970" d="M125.6244,-73.6957C147.8705,-67.4477 175.3633,-59.7666 200,-53 217.5923,-48.1682 237.1655,-42.8804 253.4666,-38.501"/>
<polygon fill="#191970" stroke="#191970" points="124.4811,-70.3814 115.8015,-76.4572 126.3756,-77.1201 124.4811,-70.3814"/>
</g>
<!-- Node132 -->
<g id="node12" class="node">
<title>Node132</title>
<g id="a_node12"><a xlink:href="classUIManager.html#aa78e356fc3b356d790c848319d1c387e" target="_top" xlink:title="UIManager::setCallbackFunctions">
<polygon fill="none" stroke="#000000" points="414,-38.5 414,-57.5 592,-57.5 592,-38.5 414,-38.5"/>
<text text-anchor="middle" x="503" y="-45.5" font-family="Helvetica,sans-Serif" font-size="10.00" fill="#000000">UIManager::setCallbackFunctions</text>
</a>
</g>
</g>
<!-- Node121&#45;&gt;Node132 -->
<g id="edge15" class="edge">
<title>Node121&#45;&gt;Node132</title>
<path fill="none" stroke="#191970" d="M174.4735,-77.6532C245.6434,-71.2293 343.4091,-62.4049 413.757,-56.0552"/>
<polygon fill="#191970" stroke="#191970" points="173.8173,-74.1981 164.1725,-78.583 174.4466,-81.1698 173.8173,-74.1981"/>
</g>
<!-- Node133 -->
<g id="node13" class="node">
<title>Node133</title>
<g id="a_node13"><a xlink:href="classUIManager.html#aae7a89e9d50bb6192e4140e07bd5f94b" target="_top" xlink:title="UIManager::createBuildMenu">
<polygon fill="none" stroke="#000000" points="844,-164.5 844,-183.5 1001,-183.5 1001,-164.5 844,-164.5"/>
<text text-anchor="middle" x="922.5" y="-171.5" font-family="Helvetica,sans-Serif" font-size="10.00" fill="#000000">UIManager::createBuildMenu</text>
</a>
</g>
</g>
<!-- Node121&#45;&gt;Node133 -->
<g id="edge16" class="edge">
<title>Node121&#45;&gt;Node133</title>
<path fill="none" stroke="#191970" d="M115.3843,-99.1501C138.7087,-107.7396 170.7828,-118.3713 200,-124 431.0315,-168.5087 710.3452,-174.6644 843.917,-174.755"/>
<polygon fill="#191970" stroke="#191970" points="116.5499,-95.8493 105.9577,-95.6145 114.0916,-102.4034 116.5499,-95.8493"/>
</g>
<!-- Node123 -->
<g id="node3" class="node">
<title>Node123</title>
<g id="a_node3"><a xlink:href="classLayout.html#afa734c5af10f59f3dadb066054fe81ab" target="_top" xlink:title="Arrange the layout elements. ">
<polygon fill="none" stroke="#000000" points="433.5,-95.5 433.5,-114.5 572.5,-114.5 572.5,-95.5 433.5,-95.5"/>
<text text-anchor="middle" x="503" y="-102.5" font-family="Helvetica,sans-Serif" font-size="10.00" fill="#000000">Layout::arrangeElements</text>
</a>
</g>
</g>
<!-- Node122&#45;&gt;Node123 -->
<g id="edge2" class="edge">
<title>Node122&#45;&gt;Node123</title>
<path fill="none" stroke="#191970" d="M381.3103,-105C398.7357,-105 416.691,-105 433.28,-105"/>
<polygon fill="#191970" stroke="#191970" points="381.126,-101.5001 371.126,-105 381.1259,-108.5001 381.126,-101.5001"/>
</g>
<!-- Node124 -->
<g id="node4" class="node">
<title>Node124</title>
<g id="a_node4"><a xlink:href="classUIManager.html#aedd9d0577af515a852425dfe414b2968" target="_top" xlink:title="Parses the UiLayout.json files and creates UI Elements. ">
<polygon fill="none" stroke="#000000" points="1037,-76.5 1037,-95.5 1128,-95.5 1128,-76.5 1037,-76.5"/>
<text text-anchor="middle" x="1082.5" y="-83.5" font-family="Helvetica,sans-Serif" font-size="10.00" fill="#000000">UIManager::init</text>
</a>
</g>
</g>
<!-- Node123&#45;&gt;Node124 -->
<g id="edge3" class="edge">
<title>Node123&#45;&gt;Node124</title>
<path fill="none" stroke="#191970" d="M582.7389,-102.3856C705.9427,-98.3461 938.605,-90.7179 1036.8677,-87.4961"/>
<polygon fill="#191970" stroke="#191970" points="582.4931,-98.8917 572.6132,-102.7176 582.7226,-105.8879 582.4931,-98.8917"/>
</g>
<!-- Node128 -->
<g id="node8" class="node">
<title>Node128</title>
<g id="a_node8"><a xlink:href="classUIManager.html#a3ccb2fc669262f18ebdcdf3d5c43a3e8" target="_top" xlink:title="CallbackFunction that sets the Build Menu Position Used as callback function for the ComboBox that ho...">
<polygon fill="none" stroke="#000000" points="628,-117.5 628,-136.5 808,-136.5 808,-117.5 628,-117.5"/>
<text text-anchor="middle" x="718" y="-124.5" font-family="Helvetica,sans-Serif" font-size="10.00" fill="#000000">UIManager::setBuildMenuPosition</text>
</a>
</g>
</g>
<!-- Node123&#45;&gt;Node128 -->
<g id="edge7" class="edge">
<title>Node123&#45;&gt;Node128</title>
<path fill="none" stroke="#191970" d="M582.5957,-113.1447C597.3635,-114.6558 612.8861,-116.2442 627.94,-117.7846"/>
<polygon fill="#191970" stroke="#191970" points="582.8118,-109.6486 572.5074,-112.1124 582.0992,-116.6122 582.8118,-109.6486"/>
</g>
<!-- Node125 -->
<g id="node5" class="node">
<title>Node125</title>
<g id="a_node5"><a xlink:href="classGame.html#a1c2ab25d5216b2f4b2fe41efd2c09114" target="_top" xlink:title="begins the game starts running the game ">
<polygon fill="none" stroke="#000000" points="1164,-38.5 1164,-57.5 1232,-57.5 1232,-38.5 1164,-38.5"/>
<text text-anchor="middle" x="1198" y="-45.5" font-family="Helvetica,sans-Serif" font-size="10.00" fill="#000000">Game::run</text>
</a>
</g>
</g>
<!-- Node124&#45;&gt;Node125 -->
<g id="edge4" class="edge">
<title>Node124&#45;&gt;Node125</title>
<path fill="none" stroke="#191970" d="M1121.4841,-73.1741C1136.9817,-68.0753 1154.5024,-62.3109 1168.8638,-57.5859"/>
<polygon fill="#191970" stroke="#191970" points="1120.0508,-69.961 1111.6455,-76.411 1122.2385,-76.6104 1120.0508,-69.961"/>
</g>
<!-- Node126 -->
<g id="node6" class="node">
<title>Node126</title>
<g id="a_node6"><a xlink:href="main_8cxx.html#af582d708d899e67ead623eac34a22387" target="_top" xlink:title="protected_main">
<polygon fill="none" stroke="#000000" points="1268,-38.5 1268,-57.5 1361,-57.5 1361,-38.5 1268,-38.5"/>
<text text-anchor="middle" x="1314.5" y="-45.5" font-family="Helvetica,sans-Serif" font-size="10.00" fill="#000000">protected_main</text>
</a>
</g>
</g>
<!-- Node125&#45;&gt;Node126 -->
<g id="edge5" class="edge">
<title>Node125&#45;&gt;Node126</title>
<path fill="none" stroke="#191970" d="M1242.2653,-48C1250.5757,-48 1259.2897,-48 1267.6749,-48"/>
<polygon fill="#191970" stroke="#191970" points="1242.0098,-44.5001 1232.0098,-48 1242.0098,-51.5001 1242.0098,-44.5001"/>
</g>
<!-- Node127 -->
<g id="node7" class="node">
<title>Node127</title>
<g id="a_node7"><a xlink:href="main_8cxx.html#a3c04138a5bfe5d72780bb7e82a18e627" target="_top" xlink:title="main">
<polygon fill="none" stroke="#000000" points="1397,-38.5 1397,-57.5 1438,-57.5 1438,-38.5 1397,-38.5"/>
<text text-anchor="middle" x="1417.5" y="-45.5" font-family="Helvetica,sans-Serif" font-size="10.00" fill="#000000">main</text>
</a>
</g>
</g>
<!-- Node126&#45;&gt;Node127 -->
<g id="edge6" class="edge">
<title>Node126&#45;&gt;Node127</title>
<path fill="none" stroke="#191970" d="M1371.2133,-48C1380.4322,-48 1389.4259,-48 1396.9965,-48"/>
<polygon fill="#191970" stroke="#191970" points="1371.1782,-44.5001 1361.1782,-48 1371.1781,-51.5001 1371.1782,-44.5001"/>
</g>
<!-- Node129 -->
<g id="node9" class="node">
<title>Node129</title>
<g id="a_node9"><a xlink:href="classUIManager.html#a5c4cb8e02504ffa0d3faf45181feab9d" target="_top" xlink:title="Fill UI Widgets whose ID start with a $ with data Used for filling widgets with data, like BuildMenu Position combobox, Screen Resolution ComboBox and so on. ">
<polygon fill="none" stroke="#000000" points="849.5,-115 849.5,-145 995.5,-145 995.5,-115 849.5,-115"/>
<text text-anchor="start" x="857.5" y="-133" font-family="Helvetica,sans-Serif" font-size="10.00" fill="#000000">UIManager::initializeDollar</text>
<text text-anchor="middle" x="922.5" y="-122" font-family="Helvetica,sans-Serif" font-size="10.00" fill="#000000">Variables</text>
</a>
</g>
</g>
<!-- Node128&#45;&gt;Node129 -->
<g id="edge8" class="edge">
<title>Node128&#45;&gt;Node129</title>
<path fill="none" stroke="#191970" d="M818.6025,-128.4758C828.9361,-128.6274 839.2922,-128.7793 849.2484,-128.9254"/>
<polygon fill="#191970" stroke="#191970" points="818.3423,-124.9717 808.292,-128.3246 818.2395,-131.971 818.3423,-124.9717"/>
</g>
<!-- Node129&#45;&gt;Node124 -->
<g id="edge9" class="edge">
<title>Node129&#45;&gt;Node124</title>
<path fill="none" stroke="#191970" d="M986.8524,-112.3031C1007.6277,-106.5899 1029.8681,-100.4738 1047.6699,-95.5783"/>
<polygon fill="#191970" stroke="#191970" points="985.8294,-108.9544 977.1154,-114.9808 987.6855,-115.7038 985.8294,-108.9544"/>
</g>
<!-- Node131 -->
<g id="node11" class="node">
<title>Node131</title>
<g id="a_node11"><a xlink:href="classEventManager.html#a65ec91fd5016d4f9c4167fb8babed2df" target="_top" xlink:title="EventManager::checkEvents">
<polygon fill="none" stroke="#000000" points="641,-.5 641,-19.5 795,-19.5 795,-.5 641,-.5"/>
<text text-anchor="middle" x="718" y="-7.5" font-family="Helvetica,sans-Serif" font-size="10.00" fill="#000000">EventManager::checkEvents</text>
</a>
</g>
</g>
<!-- Node130&#45;&gt;Node131 -->
<g id="edge11" class="edge">
<title>Node130&#45;&gt;Node131</title>
<path fill="none" stroke="#191970" d="M388.3306,-24.6007C465.2188,-21.1954 570.1717,-16.5472 640.8254,-13.418"/>
<polygon fill="#191970" stroke="#191970" points="387.9849,-21.1125 378.1495,-25.0517 388.2946,-28.1057 387.9849,-21.1125"/>
</g>
<!-- Node130&#45;&gt;Node132 -->
<g id="edge13" class="edge">
<title>Node130&#45;&gt;Node132</title>
<path fill="none" stroke="#191970" d="M388.2299,-37.8101C396.8066,-38.5716 405.4503,-39.339 413.9388,-40.0927"/>
<polygon fill="#191970" stroke="#191970" points="388.476,-34.3183 378.2057,-36.9201 387.8569,-41.2909 388.476,-34.3183"/>
</g>
<!-- Node131&#45;&gt;Node125 -->
<g id="edge12" class="edge">
<title>Node131&#45;&gt;Node125</title>
<path fill="none" stroke="#191970" d="M805.2875,-16.9103C912.6588,-25.4105 1089.7834,-39.4329 1163.8164,-45.2938"/>
<polygon fill="#191970" stroke="#191970" points="805.3654,-13.4056 795.1203,-16.1054 804.8129,-20.3837 805.3654,-13.4056"/>
</g>
<!-- Node132&#45;&gt;Node124 -->
<g id="edge14" class="edge">
<title>Node132&#45;&gt;Node124</title>
<path fill="none" stroke="#191970" d="M602.3846,-54.517C729.212,-62.8336 943.3294,-76.8741 1036.6844,-82.9957"/>
<polygon fill="#191970" stroke="#191970" points="602.4845,-51.0161 592.2769,-53.8542 602.0264,-58.0011 602.4845,-51.0161"/>
</g>
<!-- Node133&#45;&gt;Node124 -->
<g id="edge17" class="edge">
<title>Node133&#45;&gt;Node124</title>
<path fill="none" stroke="#191970" d="M983.5163,-161.358C989.5629,-159.251 995.4936,-156.8138 1001,-154 1030.8649,-138.7392 1059.4584,-110.8079 1073.4935,-95.9354"/>
<polygon fill="#191970" stroke="#191970" points="982.4274,-158.0314 973.9632,-164.4038 984.5538,-164.7007 982.4274,-158.0314"/>
</g>
</g>
</svg>
        <g id="navigator" transform="translate(0 0)" fill="#404254">
                <rect fill="#f2f5e9" fill-opacity="0.5" stroke="#606060" stroke-width=".5" x="0" y="0" width="60" height="60"/>
                <use id="zoomplus" xlink:href="#zoomPlus" x="17" y="9" onmousedown="handleZoom(evt,'in')"/>
                <use id="zoomminus" xlink:href="#zoomMin" x="42" y="9" onmousedown="handleZoom(evt,'out')"/>
                <use id="reset" xlink:href="#resetDef" x="30" y="36" onmousedown="handleReset()"/>
                <g id="arrowUp" xlink:href="#dirArrow" transform="translate(30 24)" onmousedown="handlePan(0,-1)">
                  <use xlink:href="#rim" fill="#404040">
                        <set attributeName="fill" to="#808080" begin="arrowUp.mouseover" end="arrowUp.mouseout"/>
                  </use>
                  <path fill="none" stroke="white" stroke-width="1.5" d="M0,-3.0v7 M-2.5,-0.5L0,-3.0L2.5,-0.5"/>
                </g>
                <g id="arrowRight" xlink:href="#dirArrow" transform="rotate(90) translate(36 -43)" onmousedown="handlePan(1,0)">
                  <use xlink:href="#rim" fill="#404040">
                        <set attributeName="fill" to="#808080" begin="arrowRight.mouseover" end="arrowRight.mouseout"/>
                  </use>
                  <path fill="none" stroke="white" stroke-width="1.5" d="M0,-3.0v7 M-2.5,-0.5L0,-3.0L2.5,-0.5"/>
                </g>
                <g id="arrowDown" xlink:href="#dirArrow" transform="rotate(180) translate(-30 -48)" onmousedown="handlePan(0,1)">
                  <use xlink:href="#rim" fill="#404040">
                        <set attributeName="fill" to="#808080" begin="arrowDown.mouseover" end="arrowDown.mouseout"/>
                  </use>
                  <path fill="none" stroke="white" stroke-width="1.5" d="M0,-3.0v7 M-2.5,-0.5L0,-3.0L2.5,-0.5"/>
                </g>
                <g id="arrowLeft" xlink:href="#dirArrow" transform="rotate(270) translate(-36 17)" onmousedown="handlePan(-1,0)">
                  <use xlink:href="#rim" fill="#404040">
                        <set attributeName="fill" to="#808080" begin="arrowLeft.mouseover" end="arrowLeft.mouseout"/>
                  </use>
                  <path fill="none" stroke="white" stroke-width="1.5" d="M0,-3.0v7 M-2.5,-0.5L0,-3.0L2.5,-0.5"/>
                </g>
        </g>
        <svg viewBox="0 0 15 15" width="100%" height="30px" preserveAspectRatio="xMaxYMin meet">
         <g id="arrow_out" transform="scale(0.3 0.3)">
          <a xlink:href="classUIElement_a6451228b4c9bc058d69e4d4f2b03c719_icgraph_org.svg" target="_base">
           <rect id="button" ry="5" rx="5" y="6" x="6" height="38" width="38"
                fill="#f2f5e9" fill-opacity="0.5" stroke="#606060" stroke-width="1.0"/>
           <path id="arrow"
             d="M 11.500037,31.436501 C 11.940474,20.09759 22.043105,11.32322 32.158766,21.979434 L 37.068811,17.246167 C 37.068811,17.246167 37.088388,32 37.088388,32 L 22.160133,31.978069 C 22.160133,31.978069 26.997745,27.140456 26.997745,27.140456 C 18.528582,18.264221 13.291696,25.230495 11.500037,31.436501 z"
             style="fill:#404040;"/>
          </a>
         </g>
        </svg>
</svg>
