<?xml version="1.0" encoding="UTF-8" standalone="no"?>
<!DOCTYPE svg PUBLIC "-//W3C//DTD SVG 1.1//EN"
 "http://www.w3.org/Graphics/SVG/1.1/DTD/svg11.dtd">
<!-- Generated by graphviz version 2.40.1 (20161225.0304)
 -->
<!-- Title: UIManager::setCallbackFunctions Pages: 1 -->
<svg width="623pt" height="28pt"
 viewBox="0.00 0.00 623.00 28.00" xmlns="http://www.w3.org/2000/svg" xmlns:xlink="http://www.w3.org/1999/xlink">
<g id="graph0" class="graph" transform="scale(1 1) rotate(0) translate(4 24)">
<title>UIManager::setCallbackFunctions</title>
<!-- Node283 -->
<g id="node1" class="node">
<title>Node283</title>
<polygon fill="#bfbfbf" stroke="#000000" points="0,-.5 0,-19.5 178,-19.5 178,-.5 0,-.5"/>
<text text-anchor="middle" x="89" y="-7.5" font-family="Helvetica,sans-Serif" font-size="10.00" fill="#000000">UIManager::setCallbackFunctions</text>
</g>
<!-- Node284 -->
<g id="node2" class="node">
<title>Node284</title>
<g id="a_node2"><a xlink:href="classUIManager.html#aedd9d0577af515a852425dfe414b2968" target="_top" xlink:title="Parses the UiLayout.json files and creates UI Elements. ">
<polygon fill="none" stroke="#000000" points="214,-.5 214,-19.5 305,-19.5 305,-.5 214,-.5"/>
<text text-anchor="middle" x="259.5" y="-7.5" font-family="Helvetica,sans-Serif" font-size="10.00" fill="#000000">UIManager::init</text>
</a>
</g>
</g>
<!-- Node283&#45;&gt;Node284 -->
<g id="edge1" class="edge">
<title>Node283&#45;&gt;Node284</title>
<path fill="none" stroke="#191970" d="M188.2456,-10C197.0449,-10 205.6396,-10 213.6409,-10"/>
<polygon fill="#191970" stroke="#191970" points="188.2448,-6.5001 178.2448,-10 188.2448,-13.5001 188.2448,-6.5001"/>
</g>
<!-- Node285 -->
<g id="node3" class="node">
<title>Node285</title>
<g id="a_node3"><a xlink:href="classGame.html#a1c2ab25d5216b2f4b2fe41efd2c09114" target="_top" xlink:title="begins the game starts running the game ">
<polygon fill="none" stroke="#000000" points="341,-.5 341,-19.5 409,-19.5 409,-.5 341,-.5"/>
<text text-anchor="middle" x="375" y="-7.5" font-family="Helvetica,sans-Serif" font-size="10.00" fill="#000000">Game::run</text>
</a>
</g>
</g>
<!-- Node284&#45;&gt;Node285 -->
<g id="edge2" class="edge">
<title>Node284&#45;&gt;Node285</title>
<path fill="none" stroke="#191970" d="M315.2726,-10C323.9603,-10 332.7077,-10 340.7272,-10"/>
<polygon fill="#191970" stroke="#191970" points="315.1487,-6.5001 305.1487,-10 315.1486,-13.5001 315.1487,-6.5001"/>
</g>
<!-- Node286 -->
<g id="node4" class="node">
<title>Node286</title>
<g id="a_node4"><a xlink:href="main_8cxx.html#af582d708d899e67ead623eac34a22387" target="_top" xlink:title="protected_main">
<polygon fill="none" stroke="#000000" points="445,-.5 445,-19.5 538,-19.5 538,-.5 445,-.5"/>
<text text-anchor="middle" x="491.5" y="-7.5" font-family="Helvetica,sans-Serif" font-size="10.00" fill="#000000">protected_main</text>
</a>
</g>
</g>
<!-- Node285&#45;&gt;Node286 -->
<g id="edge3" class="edge">
<title>Node285&#45;&gt;Node286</title>
<path fill="none" stroke="#191970" d="M419.2653,-10C427.5757,-10 436.2897,-10 444.6749,-10"/>
<polygon fill="#191970" stroke="#191970" points="419.0098,-6.5001 409.0098,-10 419.0098,-13.5001 419.0098,-6.5001"/>
</g>
<!-- Node287 -->
<g id="node5" class="node">
<title>Node287</title>
<g id="a_node5"><a xlink:href="main_8cxx.html#a3c04138a5bfe5d72780bb7e82a18e627" target="_top" xlink:title="main">
<polygon fill="none" stroke="#000000" points="574,-.5 574,-19.5 615,-19.5 615,-.5 574,-.5"/>
<text text-anchor="middle" x="594.5" y="-7.5" font-family="Helvetica,sans-Serif" font-size="10.00" fill="#000000">main</text>
</a>
</g>
</g>
<!-- Node286&#45;&gt;Node287 -->
<g id="edge4" class="edge">
<title>Node286&#45;&gt;Node287</title>
<path fill="none" stroke="#191970" d="M548.2133,-10C557.4322,-10 566.4259,-10 573.9965,-10"/>
<polygon fill="#191970" stroke="#191970" points="548.1782,-6.5001 538.1782,-10 548.1781,-13.5001 548.1782,-6.5001"/>
</g>
</g>
</svg>
