<?xml version="1.0" encoding="UTF-8" standalone="no"?>
<!DOCTYPE svg PUBLIC "-//W3C//DTD SVG 1.1//EN"
 "http://www.w3.org/Graphics/SVG/1.1/DTD/svg11.dtd">
<!-- Generated by graphviz version 2.40.1 (20161225.0304)
 -->
<!-- Title: UIManager::setupButtonTileImage Pages: 1 -->
<svg width="790pt" height="39pt"
 viewBox="0.00 0.00 790.00 39.00" xmlns="http://www.w3.org/2000/svg" xmlns:xlink="http://www.w3.org/1999/xlink">
<g id="graph0" class="graph" transform="scale(1 1) rotate(0) translate(4 35)">
<title>UIManager::setupButtonTileImage</title>
<!-- Node301 -->
<g id="node1" class="node">
<title>Node301</title>
<polygon fill="#bfbfbf" stroke="#000000" points="0,-.5 0,-30.5 152,-30.5 152,-.5 0,-.5"/>
<text text-anchor="start" x="8" y="-18.5" font-family="Helvetica,sans-Serif" font-size="10.00" fill="#000000">UIManager::setupButtonTile</text>
<text text-anchor="middle" x="76" y="-7.5" font-family="Helvetica,sans-Serif" font-size="10.00" fill="#000000">Image</text>
</g>
<!-- Node302 -->
<g id="node2" class="node">
<title>Node302</title>
<g id="a_node2"><a xlink:href="classUIManager.html#aae7a89e9d50bb6192e4140e07bd5f94b" target="_top" xlink:title="UIManager::createBuildMenu">
<polygon fill="none" stroke="#000000" points="188,-6 188,-25 345,-25 345,-6 188,-6"/>
<text text-anchor="middle" x="266.5" y="-13" font-family="Helvetica,sans-Serif" font-size="10.00" fill="#000000">UIManager::createBuildMenu</text>
</a>
</g>
</g>
<!-- Node301&#45;&gt;Node302 -->
<g id="edge1" class="edge">
<title>Node301&#45;&gt;Node302</title>
<path fill="none" stroke="#191970" d="M162.3503,-15.5C170.797,-15.5 179.3379,-15.5 187.7042,-15.5"/>
<polygon fill="#191970" stroke="#191970" points="162.112,-12.0001 152.1119,-15.5 162.1119,-19.0001 162.112,-12.0001"/>
</g>
<!-- Node303 -->
<g id="node3" class="node">
<title>Node303</title>
<g id="a_node3"><a xlink:href="classUIManager.html#aedd9d0577af515a852425dfe414b2968" target="_top" xlink:title="Parses the UiLayout.json files and creates UI Elements. ">
<polygon fill="none" stroke="#000000" points="381,-6 381,-25 472,-25 472,-6 381,-6"/>
<text text-anchor="middle" x="426.5" y="-13" font-family="Helvetica,sans-Serif" font-size="10.00" fill="#000000">UIManager::init</text>
</a>
</g>
</g>
<!-- Node302&#45;&gt;Node303 -->
<g id="edge2" class="edge">
<title>Node302&#45;&gt;Node303</title>
<path fill="none" stroke="#191970" d="M355.348,-15.5C364.049,-15.5 372.6087,-15.5 380.6086,-15.5"/>
<polygon fill="#191970" stroke="#191970" points="355.0938,-12.0001 345.0938,-15.5 355.0938,-19.0001 355.0938,-12.0001"/>
</g>
<!-- Node304 -->
<g id="node4" class="node">
<title>Node304</title>
<g id="a_node4"><a xlink:href="classGame.html#a1c2ab25d5216b2f4b2fe41efd2c09114" target="_top" xlink:title="begins the game starts running the game ">
<polygon fill="none" stroke="#000000" points="508,-6 508,-25 576,-25 576,-6 508,-6"/>
<text text-anchor="middle" x="542" y="-13" font-family="Helvetica,sans-Serif" font-size="10.00" fill="#000000">Game::run</text>
</a>
</g>
</g>
<!-- Node303&#45;&gt;Node304 -->
<g id="edge3" class="edge">
<title>Node303&#45;&gt;Node304</title>
<path fill="none" stroke="#191970" d="M482.2726,-15.5C490.9603,-15.5 499.7077,-15.5 507.7272,-15.5"/>
<polygon fill="#191970" stroke="#191970" points="482.1487,-12.0001 472.1487,-15.5 482.1486,-19.0001 482.1487,-12.0001"/>
</g>
<!-- Node305 -->
<g id="node5" class="node">
<title>Node305</title>
<g id="a_node5"><a xlink:href="main_8cxx.html#af582d708d899e67ead623eac34a22387" target="_top" xlink:title="protected_main">
<polygon fill="none" stroke="#000000" points="612,-6 612,-25 705,-25 705,-6 612,-6"/>
<text text-anchor="middle" x="658.5" y="-13" font-family="Helvetica,sans-Serif" font-size="10.00" fill="#000000">protected_main</text>
</a>
</g>
</g>
<!-- Node304&#45;&gt;Node305 -->
<g id="edge4" class="edge">
<title>Node304&#45;&gt;Node305</title>
<path fill="none" stroke="#191970" d="M586.2653,-15.5C594.5757,-15.5 603.2897,-15.5 611.6749,-15.5"/>
<polygon fill="#191970" stroke="#191970" points="586.0098,-12.0001 576.0098,-15.5 586.0098,-19.0001 586.0098,-12.0001"/>
</g>
<!-- Node306 -->
<g id="node6" class="node">
<title>Node306</title>
<g id="a_node6"><a xlink:href="main_8cxx.html#a3c04138a5bfe5d72780bb7e82a18e627" target="_top" xlink:title="main">
<polygon fill="none" stroke="#000000" points="741,-6 741,-25 782,-25 782,-6 741,-6"/>
<text text-anchor="middle" x="761.5" y="-13" font-family="Helvetica,sans-Serif" font-size="10.00" fill="#000000">main</text>
</a>
</g>
</g>
<!-- Node305&#45;&gt;Node306 -->
<g id="edge5" class="edge">
<title>Node305&#45;&gt;Node306</title>
<path fill="none" stroke="#191970" d="M715.2133,-15.5C724.4322,-15.5 733.4259,-15.5 740.9965,-15.5"/>
<polygon fill="#191970" stroke="#191970" points="715.1782,-12.0001 705.1782,-15.5 715.1781,-19.0001 715.1782,-12.0001"/>
</g>
</g>
</svg>
