<?xml version="1.0" encoding="UTF-8" standalone="no"?>
<!DOCTYPE svg PUBLIC "-//W3C//DTD SVG 1.1//EN"
 "http://www.w3.org/Graphics/SVG/1.1/DTD/svg11.dtd">
<!-- Generated by graphviz version 2.40.1 (20161225.0304)
 -->
<!-- Title: Map::getTileID Pages: 1 -->
<svg width="595pt" height="46pt"
 viewBox="0.00 0.00 595.00 46.00" xmlns="http://www.w3.org/2000/svg" xmlns:xlink="http://www.w3.org/1999/xlink">
<g id="graph0" class="graph" transform="scale(1 1) rotate(0) translate(4 42)">
<title>Map::getTileID</title>
<!-- Node77 -->
<g id="node1" class="node">
<title>Node77</title>
<polygon fill="#bfbfbf" stroke="#000000" points="0,-.5 0,-19.5 87,-19.5 87,-.5 0,-.5"/>
<text text-anchor="middle" x="43.5" y="-7.5" font-family="Helvetica,sans-Serif" font-size="10.00" fill="#000000">Map::getTileID</text>
</g>
<!-- Node77&#45;&gt;Node77 -->
<g id="edge5" class="edge">
<title>Node77&#45;&gt;Node77</title>
<path fill="none" stroke="#191970" d="M14.3809,-28.6539C15.5981,-33.9368 25.3044,-38 43.5,-38 71.2266,-38 79.2413,-28.5653 67.5441,-19.7571"/>
<polygon fill="#191970" stroke="#191970" points="17.5412,-30.1775 19.4559,-19.7571 11.4609,-26.7091 17.5412,-30.1775"/>
</g>
<!-- Node78 -->
<g id="node2" class="node">
<title>Node78</title>
<g id="a_node2"><a xlink:href="classEventManager.html#a65ec91fd5016d4f9c4167fb8babed2df" target="_top" xlink:title="EventManager::checkEvents">
<polygon fill="none" stroke="#000000" points="123,-.5 123,-19.5 277,-19.5 277,-.5 123,-.5"/>
<text text-anchor="middle" x="200" y="-7.5" font-family="Helvetica,sans-Serif" font-size="10.00" fill="#000000">EventManager::checkEvents</text>
</a>
</g>
</g>
<!-- Node77&#45;&gt;Node78 -->
<g id="edge1" class="edge">
<title>Node77&#45;&gt;Node78</title>
<path fill="none" stroke="#191970" d="M97.2799,-10C105.5161,-10 114.1545,-10 122.7762,-10"/>
<polygon fill="#191970" stroke="#191970" points="97.094,-6.5001 87.094,-10 97.0939,-13.5001 97.094,-6.5001"/>
</g>
<!-- Node79 -->
<g id="node3" class="node">
<title>Node79</title>
<g id="a_node3"><a xlink:href="classGame.html#a1c2ab25d5216b2f4b2fe41efd2c09114" target="_top" xlink:title="begins the game starts running the game ">
<polygon fill="none" stroke="#000000" points="313,-.5 313,-19.5 381,-19.5 381,-.5 313,-.5"/>
<text text-anchor="middle" x="347" y="-7.5" font-family="Helvetica,sans-Serif" font-size="10.00" fill="#000000">Game::run</text>
</a>
</g>
</g>
<!-- Node78&#45;&gt;Node79 -->
<g id="edge2" class="edge">
<title>Node78&#45;&gt;Node79</title>
<path fill="none" stroke="#191970" d="M287.5248,-10C296.4338,-10 305.0572,-10 312.845,-10"/>
<polygon fill="#191970" stroke="#191970" points="287.3744,-6.5001 277.3744,-10 287.3743,-13.5001 287.3744,-6.5001"/>
</g>
<!-- Node80 -->
<g id="node4" class="node">
<title>Node80</title>
<g id="a_node4"><a xlink:href="main_8cxx.html#af582d708d899e67ead623eac34a22387" target="_top" xlink:title="protected_main">
<polygon fill="none" stroke="#000000" points="417,-.5 417,-19.5 510,-19.5 510,-.5 417,-.5"/>
<text text-anchor="middle" x="463.5" y="-7.5" font-family="Helvetica,sans-Serif" font-size="10.00" fill="#000000">protected_main</text>
</a>
</g>
</g>
<!-- Node79&#45;&gt;Node80 -->
<g id="edge3" class="edge">
<title>Node79&#45;&gt;Node80</title>
<path fill="none" stroke="#191970" d="M391.2653,-10C399.5757,-10 408.2897,-10 416.6749,-10"/>
<polygon fill="#191970" stroke="#191970" points="391.0098,-6.5001 381.0098,-10 391.0098,-13.5001 391.0098,-6.5001"/>
</g>
<!-- Node81 -->
<g id="node5" class="node">
<title>Node81</title>
<g id="a_node5"><a xlink:href="main_8cxx.html#a3c04138a5bfe5d72780bb7e82a18e627" target="_top" xlink:title="main">
<polygon fill="none" stroke="#000000" points="546,-.5 546,-19.5 587,-19.5 587,-.5 546,-.5"/>
<text text-anchor="middle" x="566.5" y="-7.5" font-family="Helvetica,sans-Serif" font-size="10.00" fill="#000000">main</text>
</a>
</g>
</g>
<!-- Node80&#45;&gt;Node81 -->
<g id="edge4" class="edge">
<title>Node80&#45;&gt;Node81</title>
<path fill="none" stroke="#191970" d="M520.2133,-10C529.4322,-10 538.4259,-10 545.9965,-10"/>
<polygon fill="#191970" stroke="#191970" points="520.1782,-6.5001 510.1782,-10 520.1781,-13.5001 520.1782,-6.5001"/>
</g>
</g>
</svg>
