<?xml version="1.0" encoding="UTF-8" standalone="no"?>
<!DOCTYPE svg PUBLIC "-//W3C//DTD SVG 1.1//EN"
 "http://www.w3.org/Graphics/SVG/1.1/DTD/svg11.dtd">
<!-- Generated by graphviz version 2.40.1 (20161225.0304)
 -->
<!-- Title: MapNode::getCoordinates Pages: 1 -->
<svg width="818pt" height="382pt"
 viewBox="0.00 0.00 818.00 382.00" xmlns="http://www.w3.org/2000/svg" xmlns:xlink="http://www.w3.org/1999/xlink">
<g id="graph0" class="graph" transform="scale(1 1) rotate(0) translate(4 378)">
<title>MapNode::getCoordinates</title>
<!-- Node62 -->
<g id="node1" class="node">
<title>Node62</title>
<polygon fill="#bfbfbf" stroke="#000000" points="0,-216.5 0,-235.5 143,-235.5 143,-216.5 0,-216.5"/>
<text text-anchor="middle" x="71.5" y="-223.5" font-family="Helvetica,sans-Serif" font-size="10.00" fill="#000000">MapNode::getCoordinates</text>
</g>
<!-- Node63 -->
<g id="node2" class="node">
<title>Node63</title>
<g id="a_node2"><a xlink:href="JsonSerialization_8hxx.html#a3fdb954f0db3c6c8ed9c863b19669f42" target="_top" xlink:title="to_json">
<polygon fill="none" stroke="#000000" points="262.5,-345.5 262.5,-364.5 314.5,-364.5 314.5,-345.5 262.5,-345.5"/>
<text text-anchor="middle" x="288.5" y="-352.5" font-family="Helvetica,sans-Serif" font-size="10.00" fill="#000000">to_json</text>
</a>
</g>
</g>
<!-- Node62&#45;&gt;Node63 -->
<g id="edge1" class="edge">
<title>Node62&#45;&gt;Node63</title>
<path fill="none" stroke="#191970" d="M83.5741,-244.1515C101.3038,-269.2176 136.8823,-313.8397 179,-336 205.125,-349.7457 239.1351,-353.8477 262.2735,-354.9233"/>
<polygon fill="#191970" stroke="#191970" points="86.2317,-241.8396 77.6765,-235.5898 80.4669,-245.8106 86.2317,-241.8396"/>
</g>
<!-- Node64 -->
<g id="node3" class="node">
<title>Node64</title>
<g id="a_node3"><a xlink:href="classMapNode.html#a06be1917d4b251010ae78d8a2b7bc88a" target="_top" xlink:title="demolish specific layer of a Node. ">
<polygon fill="none" stroke="#000000" points="218.5,-307.5 218.5,-326.5 358.5,-326.5 358.5,-307.5 218.5,-307.5"/>
<text text-anchor="middle" x="288.5" y="-314.5" font-family="Helvetica,sans-Serif" font-size="10.00" fill="#000000">MapNode::demolishLayer</text>
</a>
</g>
</g>
<!-- Node62&#45;&gt;Node64 -->
<g id="edge2" class="edge">
<title>Node62&#45;&gt;Node64</title>
<path fill="none" stroke="#191970" d="M90.4551,-241.9949C110.9462,-258.4141 145.2249,-283.4245 179,-297 191.3722,-301.9729 205.0299,-305.718 218.3812,-308.5359"/>
<polygon fill="#191970" stroke="#191970" points="92.5171,-239.1599 82.559,-235.5424 88.0877,-244.5803 92.5171,-239.1599"/>
</g>
<!-- Node69 -->
<g id="node8" class="node">
<title>Node69</title>
<g id="a_node8"><a xlink:href="classMap.html#a0241b997090783e5d13667114731a592" target="_top" xlink:title="Debug MapNodeData to Console Used as Tile&#45;Inspector until we implement a GUI variant. ">
<polygon fill="none" stroke="#000000" points="179,-236 179,-288 398,-288 398,-236 179,-236"/>
<text text-anchor="start" x="187" y="-276" font-family="Helvetica,sans-Serif" font-size="10.00" fill="#000000">Map&lt; ObserverSPtr&lt;</text>
<text text-anchor="start" x="187" y="-265" font-family="Helvetica,sans-Serif" font-size="10.00" fill="#000000"> Notification &gt;, Set</text>
<text text-anchor="start" x="187" y="-254" font-family="Helvetica,sans-Serif" font-size="10.00" fill="#000000">&lt; typename Notification</text>
<text text-anchor="middle" x="288.5" y="-243" font-family="Helvetica,sans-Serif" font-size="10.00" fill="#000000">::TransitionType &gt; &gt;::getNodeInformation</text>
</a>
</g>
</g>
<!-- Node62&#45;&gt;Node69 -->
<g id="edge7" class="edge">
<title>Node62&#45;&gt;Node69</title>
<path fill="none" stroke="#191970" d="M138.795,-237.1642C151.5183,-239.2749 165.1293,-241.533 178.7664,-243.7953"/>
<polygon fill="#191970" stroke="#191970" points="139.2361,-233.6896 128.798,-235.5057 138.0904,-240.5952 139.2361,-233.6896"/>
</g>
<!-- Node70 -->
<g id="node9" class="node">
<title>Node70</title>
<g id="a_node9"><a xlink:href="classMap.html#ade1eeabf4e539f9dbfe2a96c97fda4e3" target="_top" xlink:title="Map\&lt; ObserverSPtr\&lt;\l Notification \&gt;, Set\l\&lt; typename Notification\l::TransitionType \&gt; \&gt;::changeHeight">
<polygon fill="none" stroke="#000000" points="194.5,-165 194.5,-217 382.5,-217 382.5,-165 194.5,-165"/>
<text text-anchor="start" x="202.5" y="-205" font-family="Helvetica,sans-Serif" font-size="10.00" fill="#000000">Map&lt; ObserverSPtr&lt;</text>
<text text-anchor="start" x="202.5" y="-194" font-family="Helvetica,sans-Serif" font-size="10.00" fill="#000000"> Notification &gt;, Set</text>
<text text-anchor="start" x="202.5" y="-183" font-family="Helvetica,sans-Serif" font-size="10.00" fill="#000000">&lt; typename Notification</text>
<text text-anchor="middle" x="288.5" y="-172" font-family="Helvetica,sans-Serif" font-size="10.00" fill="#000000">::TransitionType &gt; &gt;::changeHeight</text>
</a>
</g>
</g>
<!-- Node62&#45;&gt;Node70 -->
<g id="edge8" class="edge">
<title>Node62&#45;&gt;Node70</title>
<path fill="none" stroke="#191970" d="M140.4158,-214.8846C157.5674,-212.1182 176.2485,-209.1051 194.3838,-206.18"/>
<polygon fill="#191970" stroke="#191970" points="139.8246,-211.4346 130.5096,-216.4823 140.9393,-218.3453 139.8246,-211.4346"/>
</g>
<!-- Node71 -->
<g id="node10" class="node">
<title>Node71</title>
<g id="a_node10"><a xlink:href="classMap.html#af1e496c421981fe707890b0ba60cc20f" target="_top" xlink:title="Map\&lt; ObserverSPtr\&lt;\l Notification \&gt;, Set\l\&lt; typename Notification\l::TransitionType \&gt; \&gt;::updateNode\lNeighbors">
<polygon fill="none" stroke="#000000" points="198.5,-82.5 198.5,-145.5 378.5,-145.5 378.5,-82.5 198.5,-82.5"/>
<text text-anchor="start" x="206.5" y="-133.5" font-family="Helvetica,sans-Serif" font-size="10.00" fill="#000000">Map&lt; ObserverSPtr&lt;</text>
<text text-anchor="start" x="206.5" y="-122.5" font-family="Helvetica,sans-Serif" font-size="10.00" fill="#000000"> Notification &gt;, Set</text>
<text text-anchor="start" x="206.5" y="-111.5" font-family="Helvetica,sans-Serif" font-size="10.00" fill="#000000">&lt; typename Notification</text>
<text text-anchor="start" x="206.5" y="-100.5" font-family="Helvetica,sans-Serif" font-size="10.00" fill="#000000">::TransitionType &gt; &gt;::updateNode</text>
<text text-anchor="middle" x="288.5" y="-89.5" font-family="Helvetica,sans-Serif" font-size="10.00" fill="#000000">Neighbors</text>
</a>
</g>
</g>
<!-- Node62&#45;&gt;Node71 -->
<g id="edge9" class="edge">
<title>Node62&#45;&gt;Node71</title>
<path fill="none" stroke="#191970" d="M92.3567,-210.1676C113.4093,-194.6914 147.2596,-171.1623 179,-155 185.4217,-151.7301 192.168,-148.5786 199.0254,-145.5756"/>
<polygon fill="#191970" stroke="#191970" points="90.097,-207.4863 84.1612,-216.2623 94.2742,-213.1034 90.097,-207.4863"/>
</g>
<!-- Node72 -->
<g id="node11" class="node">
<title>Node72</title>
<g id="a_node11"><a xlink:href="classMap.html#a769a53961d4a0dd34ee080d2da8c171e" target="_top" xlink:title="Map\&lt; ObserverSPtr\&lt;\l Notification \&gt;, Set\l\&lt; typename Notification\l::TransitionType \&gt; \&gt;::getElevated\lNeighborBitmask">
<polygon fill="none" stroke="#000000" points="199,-.5 199,-63.5 378,-63.5 378,-.5 199,-.5"/>
<text text-anchor="start" x="207" y="-51.5" font-family="Helvetica,sans-Serif" font-size="10.00" fill="#000000">Map&lt; ObserverSPtr&lt;</text>
<text text-anchor="start" x="207" y="-40.5" font-family="Helvetica,sans-Serif" font-size="10.00" fill="#000000"> Notification &gt;, Set</text>
<text text-anchor="start" x="207" y="-29.5" font-family="Helvetica,sans-Serif" font-size="10.00" fill="#000000">&lt; typename Notification</text>
<text text-anchor="start" x="207" y="-18.5" font-family="Helvetica,sans-Serif" font-size="10.00" fill="#000000">::TransitionType &gt; &gt;::getElevated</text>
<text text-anchor="middle" x="288.5" y="-7.5" font-family="Helvetica,sans-Serif" font-size="10.00" fill="#000000">NeighborBitmask</text>
</a>
</g>
</g>
<!-- Node62&#45;&gt;Node72 -->
<g id="edge10" class="edge">
<title>Node62&#45;&gt;Node72</title>
<path fill="none" stroke="#191970" d="M80.0829,-207.0932C95.4943,-175.1332 130.8021,-110.275 179,-73 185.1019,-68.281 191.8049,-64.0595 198.7962,-60.2919"/>
<polygon fill="#191970" stroke="#191970" points="76.8714,-205.698 75.7871,-216.2372 83.2071,-208.6744 76.8714,-205.698"/>
</g>
<!-- Node65 -->
<g id="node4" class="node">
<title>Node65</title>
<g id="a_node4"><a xlink:href="classMapNode.html#a26e55c94192a56990f8a59e7af139a73" target="_top" xlink:title="MapNode::setTileID">
<polygon fill="none" stroke="#000000" points="447.5,-326.5 447.5,-345.5 559.5,-345.5 559.5,-326.5 447.5,-326.5"/>
<text text-anchor="middle" x="503.5" y="-333.5" font-family="Helvetica,sans-Serif" font-size="10.00" fill="#000000">MapNode::setTileID</text>
</a>
</g>
</g>
<!-- Node64&#45;&gt;Node65 -->
<g id="edge3" class="edge">
<title>Node64&#45;&gt;Node65</title>
<path fill="none" stroke="#191970" d="M368.8783,-324.1032C395.0281,-326.4141 423.4687,-328.9275 447.4428,-331.0461"/>
<polygon fill="#191970" stroke="#191970" points="368.8709,-320.589 358.6015,-323.195 368.2546,-327.5618 368.8709,-320.589"/>
</g>
<!-- Node68 -->
<g id="node7" class="node">
<title>Node68</title>
<g id="a_node7"><a xlink:href="classMapNode.html#a002b868485074599fbf087fc4c96b2c9" target="_top" xlink:title="Demolish a node Removes all tiles on a node. This effects all layers where something to demolish is p...">
<polygon fill="none" stroke="#000000" points="434,-288.5 434,-307.5 573,-307.5 573,-288.5 434,-288.5"/>
<text text-anchor="middle" x="503.5" y="-295.5" font-family="Helvetica,sans-Serif" font-size="10.00" fill="#000000">MapNode::demolishNode</text>
</a>
</g>
</g>
<!-- Node64&#45;&gt;Node68 -->
<g id="edge6" class="edge">
<title>Node64&#45;&gt;Node68</title>
<path fill="none" stroke="#191970" d="M368.6494,-309.917C390.0747,-308.0236 413.0527,-305.993 433.861,-304.1541"/>
<polygon fill="#191970" stroke="#191970" points="368.2546,-306.4382 358.6015,-310.805 368.8709,-313.411 368.2546,-306.4382"/>
</g>
<!-- Node66 -->
<g id="node5" class="node">
<title>Node66</title>
<g id="a_node5"><a xlink:href="classMapNode.html#ae515fc96b543bf97237bfb1ca53fe571" target="_top" xlink:title="MapNode::MapNode">
<polygon fill="none" stroke="#000000" points="652.5,-354.5 652.5,-373.5 766.5,-373.5 766.5,-354.5 652.5,-354.5"/>
<text text-anchor="middle" x="709.5" y="-361.5" font-family="Helvetica,sans-Serif" font-size="10.00" fill="#000000">MapNode::MapNode</text>
</a>
</g>
</g>
<!-- Node65&#45;&gt;Node66 -->
<g id="edge4" class="edge">
<title>Node65&#45;&gt;Node66</title>
<path fill="none" stroke="#191970" d="M569.5395,-344.9762C596.2209,-348.6028 626.7172,-352.748 652.4178,-356.2413"/>
<polygon fill="#191970" stroke="#191970" points="569.8986,-341.493 559.5183,-343.6141 568.9558,-348.4292 569.8986,-341.493"/>
</g>
<!-- Node67 -->
<g id="node6" class="node">
<title>Node67</title>
<g id="a_node6"><a xlink:href="classMap.html#a404c38b33d61f8c63ce2c2efb864d6dd" target="_top" xlink:title="Set the Tile ID Of Node object Also invokes all necessary texture updates (auto&#45;tiling, slopes, ...) ">
<polygon fill="none" stroke="#000000" points="609,-283 609,-335 810,-335 810,-283 609,-283"/>
<text text-anchor="start" x="617" y="-323" font-family="Helvetica,sans-Serif" font-size="10.00" fill="#000000">Map&lt; ObserverSPtr&lt;</text>
<text text-anchor="start" x="617" y="-312" font-family="Helvetica,sans-Serif" font-size="10.00" fill="#000000"> Notification &gt;, Set</text>
<text text-anchor="start" x="617" y="-301" font-family="Helvetica,sans-Serif" font-size="10.00" fill="#000000">&lt; typename Notification</text>
<text text-anchor="middle" x="709.5" y="-290" font-family="Helvetica,sans-Serif" font-size="10.00" fill="#000000">::TransitionType &gt; &gt;::setTileIDOfNode</text>
</a>
</g>
</g>
<!-- Node65&#45;&gt;Node67 -->
<g id="edge5" class="edge">
<title>Node65&#45;&gt;Node67</title>
<path fill="none" stroke="#191970" d="M569.7581,-327.3157C582.2017,-325.6847 595.4687,-323.9459 608.6876,-322.2133"/>
<polygon fill="#191970" stroke="#191970" points="568.9786,-323.8878 559.5183,-328.6578 569.8884,-330.8285 568.9786,-323.8878"/>
</g>
</g>
</svg>
