<?xml version="1.0" encoding="UTF-8" standalone="no"?>
<!DOCTYPE svg PUBLIC "-//W3C//DTD SVG 1.1//EN"
 "http://www.w3.org/Graphics/SVG/1.1/DTD/svg11.dtd">
<!-- Generated by graphviz version 2.40.1 (20161225.0304)
 -->
<!-- Title: Game::initialize Pages: 1 -->
<svg width="284pt" height="230pt"
 viewBox="0.00 0.00 284.00 230.00" xmlns="http://www.w3.org/2000/svg" xmlns:xlink="http://www.w3.org/1999/xlink">
<g id="graph0" class="graph" transform="scale(1 1) rotate(0) translate(4 226)">
<title>Game::initialize</title>
<!-- Node5 -->
<g id="node1" class="node">
<title>Node5</title>
<polygon fill="#bfbfbf" stroke="#000000" points="0,-158.5 0,-177.5 94,-177.5 94,-158.5 0,-158.5"/>
<text text-anchor="middle" x="47" y="-165.5" font-family="Helvetica,sans-Serif" font-size="10.00" fill="#000000">Game::initialize</text>
</g>
<!-- Node6 -->
<g id="node2" class="node">
<title>Node6</title>
<g id="a_node2"><a xlink:href="namespacefs.html#a28e4c1324680c188092ecfe5fd8a91a3" target="_top" xlink:title="fs::getBasePath">
<polygon fill="none" stroke="#000000" points="157,-202.5 157,-221.5 249,-221.5 249,-202.5 157,-202.5"/>
<text text-anchor="middle" x="203" y="-209.5" font-family="Helvetica,sans-Serif" font-size="10.00" fill="#000000">fs::getBasePath</text>
</a>
</g>
</g>
<!-- Node5&#45;&gt;Node6 -->
<g id="edge1" class="edge">
<title>Node5&#45;&gt;Node6</title>
<path fill="none" stroke="#191970" d="M77.664,-177.539C93.2886,-182.3225 112.6127,-188.1206 130,-193 138.1563,-195.2889 146.8517,-197.6342 155.2929,-199.8613"/>
<polygon fill="#191970" stroke="#191970" points="154.4777,-203.2657 165.038,-202.4109 156.2495,-196.4937 154.4777,-203.2657"/>
</g>
<!-- Node7 -->
<g id="node3" class="node">
<title>Node7</title>
<g id="a_node3"><a xlink:href="classSingleton.html#af5cb1e5749949e2b68416cfb8d378044" target="_top" xlink:title="Get an instance of the singleton. ">
<polygon fill="none" stroke="#000000" points="146.5,-153 146.5,-183 259.5,-183 259.5,-153 146.5,-153"/>
<text text-anchor="start" x="154.5" y="-171" font-family="Helvetica,sans-Serif" font-size="10.00" fill="#000000">Singleton&lt; Settings</text>
<text text-anchor="middle" x="203" y="-160" font-family="Helvetica,sans-Serif" font-size="10.00" fill="#000000"> &gt;::instance</text>
</a>
</g>
</g>
<!-- Node5&#45;&gt;Node7 -->
<g id="edge2" class="edge">
<title>Node5&#45;&gt;Node7</title>
<path fill="none" stroke="#191970" d="M54.9505,-158.4398C75.7223,-147.3742 132.5583,-144.8996 169.4605,-151.0159"/>
<polygon fill="#191970" stroke="#191970" points="168.8034,-154.4537 179.2937,-152.9688 170.1671,-147.5878 168.8034,-154.4537"/>
</g>
<!-- Node5&#45;&gt;Node7 -->
<g id="edge3" class="edge">
<title>Node5&#45;&gt;Node7</title>
<path fill="none" stroke="#191970" d="M94.2285,-161.7404C107.4342,-161.2975 122.0413,-161.1546 136.1514,-161.3117"/>
<polygon fill="#191970" stroke="#191970" points="136.2544,-164.8138 146.3107,-161.4791 136.3698,-157.8147 136.2544,-164.8138"/>
</g>
<!-- Node5&#45;&gt;Node7 -->
<g id="edge5" class="edge">
<title>Node5&#45;&gt;Node7</title>
<path fill="none" stroke="#191970" d="M94.2285,-174.2596C107.4342,-174.7025 122.0413,-174.8454 136.1514,-174.6883"/>
<polygon fill="#191970" stroke="#191970" points="136.3698,-178.1853 146.3107,-174.5209 136.2544,-171.1862 136.3698,-178.1853"/>
</g>
<!-- Node5&#45;&gt;Node7 -->
<g id="edge8" class="edge">
<title>Node5&#45;&gt;Node7</title>
<path fill="none" stroke="#191970" d="M54.9505,-177.5602C75.7223,-188.6258 132.5583,-191.1004 169.4605,-184.9841"/>
<polygon fill="#191970" stroke="#191970" points="170.1671,-188.4122 179.2937,-183.0312 168.8034,-181.5463 170.1671,-188.4122"/>
</g>
<!-- Node8 -->
<g id="node4" class="node">
<title>Node8</title>
<g id="a_node4"><a xlink:href="classLayout.html#ac550e3bcce9f0729344b89a4964f6f77" target="_top" xlink:title="Sets the Window. ">
<polygon fill="none" stroke="#000000" points="148,-114.5 148,-133.5 258,-133.5 258,-114.5 148,-114.5"/>
<text text-anchor="middle" x="203" y="-121.5" font-family="Helvetica,sans-Serif" font-size="10.00" fill="#000000">Layout::setWindow</text>
</a>
</g>
</g>
<!-- Node5&#45;&gt;Node8 -->
<g id="edge4" class="edge">
<title>Node5&#45;&gt;Node8</title>
<path fill="none" stroke="#191970" d="M79.6891,-158.4328C94.9599,-153.9929 113.3955,-148.675 130,-144 139.0103,-141.4631 148.6585,-138.7895 157.8919,-136.2517"/>
<polygon fill="#191970" stroke="#191970" points="158.9793,-139.5828 167.6985,-133.564 157.129,-132.8318 158.9793,-139.5828"/>
</g>
<!-- Node9 -->
<g id="node5" class="node">
<title>Node9</title>
<g id="a_node5"><a xlink:href="classEventManager.html#a8df81e2a0e2bf47ce0b5e457029e9a77" target="_top" xlink:title="EventManager::setWindow">
<polygon fill="none" stroke="#000000" points="130,-76.5 130,-95.5 276,-95.5 276,-76.5 130,-76.5"/>
<text text-anchor="middle" x="203" y="-83.5" font-family="Helvetica,sans-Serif" font-size="10.00" fill="#000000">EventManager::setWindow</text>
</a>
</g>
</g>
<!-- Node5&#45;&gt;Node9 -->
<g id="edge6" class="edge">
<title>Node5&#45;&gt;Node9</title>
<path fill="none" stroke="#191970" d="M56.8568,-158.3993C71.5729,-144.5898 100.7063,-119.2207 130,-105 134.9333,-102.6051 140.2059,-100.4853 145.5748,-98.6147"/>
<polygon fill="#191970" stroke="#191970" points="146.8296,-101.8882 155.2904,-95.5112 144.6996,-95.2202 146.8296,-101.8882"/>
</g>
<!-- Node10 -->
<g id="node6" class="node">
<title>Node10</title>
<g id="a_node6"><a xlink:href="classMap.html#a4e68b9e89e55a88b5f64c835e9dac626" target="_top" xlink:title="Sets the Window. ">
<polygon fill="none" stroke="#000000" points="154.5,-38.5 154.5,-57.5 251.5,-57.5 251.5,-38.5 154.5,-38.5"/>
<text text-anchor="middle" x="203" y="-45.5" font-family="Helvetica,sans-Serif" font-size="10.00" fill="#000000">Map::setWindow</text>
</a>
</g>
</g>
<!-- Node5&#45;&gt;Node10 -->
<g id="edge7" class="edge">
<title>Node5&#45;&gt;Node10</title>
<path fill="none" stroke="#191970" d="M52.1908,-158.216C63.4848,-137.9099 92.3281,-91.0812 130,-67 134.6205,-64.0464 139.6827,-61.5507 144.9184,-59.4421"/>
<polygon fill="#191970" stroke="#191970" points="146.2199,-62.6941 154.4721,-56.0495 143.8773,-56.0977 146.2199,-62.6941"/>
</g>
<!-- Node11 -->
<g id="node7" class="node">
<title>Node11</title>
<g id="a_node7"><a xlink:href="classCamera.html#a9f6787c6114305e12aa8aa80b0bae690" target="_top" xlink:title="Sets the window. ">
<polygon fill="none" stroke="#000000" points="145.5,-.5 145.5,-19.5 260.5,-19.5 260.5,-.5 145.5,-.5"/>
<text text-anchor="middle" x="203" y="-7.5" font-family="Helvetica,sans-Serif" font-size="10.00" fill="#000000">Camera::setWindow</text>
</a>
</g>
</g>
<!-- Node5&#45;&gt;Node11 -->
<g id="edge9" class="edge">
<title>Node5&#45;&gt;Node11</title>
<path fill="none" stroke="#191970" d="M49.9611,-158.14C58.1627,-132.5769 83.6821,-63.7427 130,-29 132.4865,-27.1349 135.1394,-25.4524 137.9064,-23.9345"/>
<polygon fill="#191970" stroke="#191970" points="139.5088,-27.0487 147.0685,-19.6256 136.5297,-20.7143 139.5088,-27.0487"/>
</g>
</g>
</svg>
