<?xml version="1.0" encoding="UTF-8" standalone="no"?>
<!DOCTYPE svg PUBLIC "-//W3C//DTD SVG 1.1//EN"
 "http://www.w3.org/Graphics/SVG/1.1/DTD/svg11.dtd">
<!-- Generated by graphviz version 2.40.1 (20161225.0304)
 -->
<!-- Title: TileManager::getTileData Pages: 1 -->
<svg width="1008pt" height="338pt"
 viewBox="0.00 0.00 1008.00 338.00" xmlns="http://www.w3.org/2000/svg" xmlns:xlink="http://www.w3.org/1999/xlink">
<g id="graph0" class="graph" transform="scale(1 1) rotate(0) translate(4 334)">
<title>TileManager::getTileData</title>
<!-- Node64 -->
<g id="node1" class="node">
<title>Node64</title>
<polygon fill="#bfbfbf" stroke="#000000" points="0,-177.5 0,-196.5 140,-196.5 140,-177.5 0,-177.5"/>
<text text-anchor="middle" x="70" y="-184.5" font-family="Helvetica,sans-Serif" font-size="10.00" fill="#000000">TileManager::getTileData</text>
</g>
<!-- Node65 -->
<g id="node2" class="node">
<title>Node65</title>
<g id="a_node2"><a xlink:href="classEventManager.html#a65ec91fd5016d4f9c4167fb8babed2df" target="_top" xlink:title="EventManager::checkEvents">
<polygon fill="none" stroke="#000000" points="396.5,-272.5 396.5,-291.5 550.5,-291.5 550.5,-272.5 396.5,-272.5"/>
<text text-anchor="middle" x="473.5" y="-279.5" font-family="Helvetica,sans-Serif" font-size="10.00" fill="#000000">EventManager::checkEvents</text>
</a>
</g>
</g>
<!-- Node64&#45;&gt;Node65 -->
<g id="edge1" class="edge">
<title>Node64&#45;&gt;Node65</title>
<path fill="none" stroke="#191970" d="M90.7797,-202.737C111.2787,-217.3625 144.0908,-238.4306 176,-249 248.269,-272.9379 335.2515,-280.2852 396.4403,-282.191"/>
<polygon fill="#191970" stroke="#191970" points="92.6732,-199.786 82.531,-196.7222 88.5489,-205.442 92.6732,-199.786"/>
</g>
<!-- Node69 -->
<g id="node6" class="node">
<title>Node69</title>
<g id="a_node6"><a xlink:href="classMapNode.html#a26e55c94192a56990f8a59e7af139a73" target="_top" xlink:title="MapNode::setTileID">
<polygon fill="none" stroke="#000000" points="417.5,-234.5 417.5,-253.5 529.5,-253.5 529.5,-234.5 417.5,-234.5"/>
<text text-anchor="middle" x="473.5" y="-241.5" font-family="Helvetica,sans-Serif" font-size="10.00" fill="#000000">MapNode::setTileID</text>
</a>
</g>
</g>
<!-- Node64&#45;&gt;Node69 -->
<g id="edge5" class="edge">
<title>Node64&#45;&gt;Node69</title>
<path fill="none" stroke="#191970" d="M100.2983,-200.4329C121.1501,-209.0326 149.7224,-219.5638 176,-225 258.7373,-242.1164 356.9322,-245.1292 417.2246,-245.0655"/>
<polygon fill="#191970" stroke="#191970" points="101.5865,-197.1777 91.012,-196.5204 98.8685,-203.6286 101.5865,-197.1777"/>
</g>
<!-- Node72 -->
<g id="node9" class="node">
<title>Node72</title>
<g id="a_node9"><a xlink:href="classMapNode.html#aefd2e99e5bdde9925a5611ac2175492c" target="_top" xlink:title="tileID placeable on slope tile. check if tileID is placeable on slope. ">
<polygon fill="none" stroke="#000000" points="186,-120.5 186,-139.5 344,-139.5 344,-120.5 186,-120.5"/>
<text text-anchor="middle" x="265" y="-127.5" font-family="Helvetica,sans-Serif" font-size="10.00" fill="#000000">MapNode::isPlacableOnSlope</text>
</a>
</g>
</g>
<!-- Node64&#45;&gt;Node72 -->
<g id="edge8" class="edge">
<title>Node64&#45;&gt;Node72</title>
<path fill="none" stroke="#191970" d="M109.2734,-174.3789C129.2059,-168.0738 153.8321,-160.437 176,-154 193.0591,-149.0465 212.057,-143.8765 228.1053,-139.609"/>
<polygon fill="#191970" stroke="#191970" points="108.0788,-171.0859 99.6071,-177.4484 110.1974,-177.7577 108.0788,-171.0859"/>
</g>
<!-- Node73 -->
<g id="node10" class="node">
<title>Node73</title>
<g id="a_node10"><a xlink:href="classMapNode.html#a3d88c4eff75c599fb6fd37afd1c882b6" target="_top" xlink:title="MapNode::isPlacementAllowed">
<polygon fill="none" stroke="#000000" points="390,-120.5 390,-139.5 557,-139.5 557,-120.5 390,-120.5"/>
<text text-anchor="middle" x="473.5" y="-127.5" font-family="Helvetica,sans-Serif" font-size="10.00" fill="#000000">MapNode::isPlacementAllowed</text>
</a>
</g>
</g>
<!-- Node64&#45;&gt;Node73 -->
<g id="edge10" class="edge">
<title>Node64&#45;&gt;Node73</title>
<path fill="none" stroke="#191970" d="M150.1121,-176.8165C207.0441,-169.4488 285.2798,-159.059 354,-149 374.0581,-146.064 395.9745,-142.6416 415.498,-139.5168"/>
<polygon fill="#191970" stroke="#191970" points="149.5637,-173.3582 140.0944,-178.1102 150.4603,-180.3005 149.5637,-173.3582"/>
</g>
<!-- Node74 -->
<g id="node11" class="node">
<title>Node74</title>
<g id="a_node11"><a xlink:href="classMapNode.html#a46d22458f78fa9416a700dbe4612012b" target="_top" xlink:title="Overwrite m_mapData with the one loaded from a savegame. This function to be used only by loadGame...">
<polygon fill="none" stroke="#000000" points="189,-82.5 189,-101.5 341,-101.5 341,-82.5 189,-82.5"/>
<text text-anchor="middle" x="265" y="-89.5" font-family="Helvetica,sans-Serif" font-size="10.00" fill="#000000">MapNode::setMapNodeData</text>
</a>
</g>
</g>
<!-- Node64&#45;&gt;Node74 -->
<g id="edge11" class="edge">
<title>Node64&#45;&gt;Node74</title>
<path fill="none" stroke="#191970" d="M87.8872,-170.5847C107.8772,-153.1456 141.9301,-126.0588 176,-111 184.6706,-107.1676 194.1657,-104.088 203.6226,-101.6188"/>
<polygon fill="#191970" stroke="#191970" points="85.3664,-168.1426 80.222,-177.4047 90.0195,-173.3723 85.3664,-168.1426"/>
</g>
<!-- Node75 -->
<g id="node12" class="node">
<title>Node75</title>
<g id="a_node12"><a xlink:href="classMap.html#a3952b445c55efce61c1ccac6f362fe89" target="_top" xlink:title="Return vector of Points of an Object Tiles selection. ">
<polygon fill="none" stroke="#000000" points="181,-.5 181,-63.5 349,-63.5 349,-.5 181,-.5"/>
<text text-anchor="start" x="189" y="-51.5" font-family="Helvetica,sans-Serif" font-size="10.00" fill="#000000">Map&lt; ObserverSPtr&lt;</text>
<text text-anchor="start" x="189" y="-40.5" font-family="Helvetica,sans-Serif" font-size="10.00" fill="#000000"> Notification &gt;, Set</text>
<text text-anchor="start" x="189" y="-29.5" font-family="Helvetica,sans-Serif" font-size="10.00" fill="#000000">&lt; typename Notification</text>
<text text-anchor="start" x="189" y="-18.5" font-family="Helvetica,sans-Serif" font-size="10.00" fill="#000000">::TransitionType &gt; &gt;::getObject</text>
<text text-anchor="middle" x="265" y="-7.5" font-family="Helvetica,sans-Serif" font-size="10.00" fill="#000000">Coords</text>
</a>
</g>
</g>
<!-- Node64&#45;&gt;Node75 -->
<g id="edge12" class="edge">
<title>Node64&#45;&gt;Node75</title>
<path fill="none" stroke="#191970" d="M83.1543,-168.9221C101.635,-144.5436 137.3747,-100.9687 176,-73 180.5471,-69.7074 185.4008,-66.5824 190.4065,-63.6365"/>
<polygon fill="#191970" stroke="#191970" points="80.1151,-167.1431 76.9464,-177.253 85.7282,-171.3257 80.1151,-167.1431"/>
</g>
<!-- Node76 -->
<g id="node13" class="node">
<title>Node76</title>
<g id="a_node13"><a xlink:href="classTileManager.html#a105151a0c336807e918aff002ffd6101" target="_top" xlink:title="TileManager::getTileLayer">
<polygon fill="none" stroke="#000000" points="193.5,-196.5 193.5,-215.5 336.5,-215.5 336.5,-196.5 193.5,-196.5"/>
<text text-anchor="middle" x="265" y="-203.5" font-family="Helvetica,sans-Serif" font-size="10.00" fill="#000000">TileManager::getTileLayer</text>
</a>
</g>
</g>
<!-- Node64&#45;&gt;Node76 -->
<g id="edge13" class="edge">
<title>Node64&#45;&gt;Node76</title>
<path fill="none" stroke="#191970" d="M150.3569,-194.8296C164.5563,-196.2132 179.2566,-197.6455 193.2016,-199.0043"/>
<polygon fill="#191970" stroke="#191970" points="150.4163,-191.3189 140.124,-193.8326 149.7374,-198.286 150.4163,-191.3189"/>
</g>
<!-- Node77 -->
<g id="node14" class="node">
<title>Node77</title>
<g id="a_node14"><a xlink:href="classUIManager.html#aa78e356fc3b356d790c848319d1c387e" target="_top" xlink:title="UIManager::setCallbackFunctions">
<polygon fill="none" stroke="#000000" points="176,-310.5 176,-329.5 354,-329.5 354,-310.5 176,-310.5"/>
<text text-anchor="middle" x="265" y="-317.5" font-family="Helvetica,sans-Serif" font-size="10.00" fill="#000000">UIManager::setCallbackFunctions</text>
</a>
</g>
</g>
<!-- Node64&#45;&gt;Node77 -->
<g id="edge19" class="edge">
<title>Node64&#45;&gt;Node77</title>
<path fill="none" stroke="#191970" d="M82.4415,-204.8287C100.3308,-229.1144 135.6427,-272.2794 176,-296 186.6234,-302.2441 198.908,-306.9032 210.8933,-310.3659"/>
<polygon fill="#191970" stroke="#191970" points="85.147,-202.5963 76.4641,-196.5253 79.4659,-206.686 85.147,-202.5963"/>
</g>
<!-- Node66 -->
<g id="node3" class="node">
<title>Node66</title>
<g id="a_node3"><a xlink:href="classGame.html#a1c2ab25d5216b2f4b2fe41efd2c09114" target="_top" xlink:title="begins the game starts running the game ">
<polygon fill="none" stroke="#000000" points="659.5,-274.5 659.5,-293.5 727.5,-293.5 727.5,-274.5 659.5,-274.5"/>
<text text-anchor="middle" x="693.5" y="-281.5" font-family="Helvetica,sans-Serif" font-size="10.00" fill="#000000">Game::run</text>
</a>
</g>
</g>
<!-- Node65&#45;&gt;Node66 -->
<g id="edge2" class="edge">
<title>Node65&#45;&gt;Node66</title>
<path fill="none" stroke="#191970" d="M560.8845,-282.7944C595.4459,-283.1086 633.1205,-283.4511 659.4511,-283.6905"/>
<polygon fill="#191970" stroke="#191970" points="560.7859,-279.2935 550.7544,-282.7023 560.7222,-286.2932 560.7859,-279.2935"/>
</g>
<!-- Node67 -->
<g id="node4" class="node">
<title>Node67</title>
<g id="a_node4"><a xlink:href="main_8cxx.html#af582d708d899e67ead623eac34a22387" target="_top" xlink:title="protected_main">
<polygon fill="none" stroke="#000000" points="830,-274.5 830,-293.5 923,-293.5 923,-274.5 830,-274.5"/>
<text text-anchor="middle" x="876.5" y="-281.5" font-family="Helvetica,sans-Serif" font-size="10.00" fill="#000000">protected_main</text>
</a>
</g>
</g>
<!-- Node66&#45;&gt;Node67 -->
<g id="edge3" class="edge">
<title>Node66&#45;&gt;Node67</title>
<path fill="none" stroke="#191970" d="M738.1535,-284C765.9451,-284 801.6323,-284 829.7997,-284"/>
<polygon fill="#191970" stroke="#191970" points="737.9209,-280.5001 727.9209,-284 737.9209,-287.5001 737.9209,-280.5001"/>
</g>
<!-- Node68 -->
<g id="node5" class="node">
<title>Node68</title>
<g id="a_node5"><a xlink:href="main_8cxx.html#a3c04138a5bfe5d72780bb7e82a18e627" target="_top" xlink:title="main">
<polygon fill="none" stroke="#000000" points="959,-274.5 959,-293.5 1000,-293.5 1000,-274.5 959,-274.5"/>
<text text-anchor="middle" x="979.5" y="-281.5" font-family="Helvetica,sans-Serif" font-size="10.00" fill="#000000">main</text>
</a>
</g>
</g>
<!-- Node67&#45;&gt;Node68 -->
<g id="edge4" class="edge">
<title>Node67&#45;&gt;Node68</title>
<path fill="none" stroke="#191970" d="M933.2133,-284C942.4322,-284 951.4259,-284 958.9965,-284"/>
<polygon fill="#191970" stroke="#191970" points="933.1782,-280.5001 923.1782,-284 933.1781,-287.5001 933.1782,-280.5001"/>
</g>
<!-- Node70 -->
<g id="node7" class="node">
<title>Node70</title>
<g id="a_node7"><a xlink:href="classMapNode.html#ae515fc96b543bf97237bfb1ca53fe571" target="_top" xlink:title="MapNode::MapNode">
<polygon fill="none" stroke="#000000" points="636.5,-231.5 636.5,-250.5 750.5,-250.5 750.5,-231.5 636.5,-231.5"/>
<text text-anchor="middle" x="693.5" y="-238.5" font-family="Helvetica,sans-Serif" font-size="10.00" fill="#000000">MapNode::MapNode</text>
</a>
</g>
</g>
<!-- Node69&#45;&gt;Node70 -->
<g id="edge6" class="edge">
<title>Node69&#45;&gt;Node70</title>
<path fill="none" stroke="#191970" d="M539.7972,-243.0959C570.5797,-242.6762 606.8149,-242.1821 636.3693,-241.7791"/>
<polygon fill="#191970" stroke="#191970" points="539.5358,-239.5991 529.5845,-243.2352 539.6313,-246.5984 539.5358,-239.5991"/>
</g>
<!-- Node71 -->
<g id="node8" class="node">
<title>Node71</title>
<g id="a_node8"><a xlink:href="classMap.html#a404c38b33d61f8c63ce2c2efb864d6dd" target="_top" xlink:title="Set the Tile ID Of Node object Also invokes all necessary texture updates (auto&#45;tiling, slopes, ...) ">
<polygon fill="none" stroke="#000000" points="593,-150 593,-202 794,-202 794,-150 593,-150"/>
<text text-anchor="start" x="601" y="-190" font-family="Helvetica,sans-Serif" font-size="10.00" fill="#000000">Map&lt; ObserverSPtr&lt;</text>
<text text-anchor="start" x="601" y="-179" font-family="Helvetica,sans-Serif" font-size="10.00" fill="#000000"> Notification &gt;, Set</text>
<text text-anchor="start" x="601" y="-168" font-family="Helvetica,sans-Serif" font-size="10.00" fill="#000000">&lt; typename Notification</text>
<text text-anchor="middle" x="693.5" y="-157" font-family="Helvetica,sans-Serif" font-size="10.00" fill="#000000">::TransitionType &gt; &gt;::setTileIDOfNode</text>
</a>
</g>
</g>
<!-- Node69&#45;&gt;Node71 -->
<g id="edge7" class="edge">
<title>Node69&#45;&gt;Node71</title>
<path fill="none" stroke="#191970" d="M514.2674,-231.3992C540.838,-223.1864 576.4892,-212.167 608.9965,-202.1193"/>
<polygon fill="#191970" stroke="#191970" points="513.0745,-228.1044 504.554,-234.4015 515.1416,-234.7923 513.0745,-228.1044"/>
</g>
<!-- Node72&#45;&gt;Node73 -->
<g id="edge9" class="edge">
<title>Node72&#45;&gt;Node73</title>
<path fill="none" stroke="#191970" d="M354.399,-130C366.1868,-130 378.2333,-130 389.9187,-130"/>
<polygon fill="#191970" stroke="#191970" points="354.1222,-126.5001 344.1222,-130 354.1222,-133.5001 354.1222,-126.5001"/>
</g>
<!-- Node76&#45;&gt;Node65 -->
<g id="edge14" class="edge">
<title>Node76&#45;&gt;Node65</title>
<path fill="none" stroke="#191970" d="M292.3354,-220.4336C317.2287,-233.0976 355.2895,-251.2741 390,-263 400.8455,-266.6638 412.721,-269.8426 424.0256,-272.4965"/>
<polygon fill="#191970" stroke="#191970" points="293.6501,-217.1739 283.1569,-215.7098 290.4468,-223.398 293.6501,-217.1739"/>
</g>
<!-- Node76&#45;&gt;Node69 -->
<g id="edge16" class="edge">
<title>Node76&#45;&gt;Node69</title>
<path fill="none" stroke="#191970" d="M327.2589,-217.347C357.1739,-222.7991 392.6276,-229.2607 421.1342,-234.4561"/>
<polygon fill="#191970" stroke="#191970" points="327.8098,-213.8898 317.3442,-215.54 326.5546,-220.7763 327.8098,-213.8898"/>
</g>
<!-- Node76&#45;&gt;Node70 -->
<g id="edge15" class="edge">
<title>Node76&#45;&gt;Node70</title>
<path fill="none" stroke="#191970" d="M347.0851,-210.2046C405.6514,-213.4819 486.2452,-218.5556 557,-225 583.138,-227.3807 612.0158,-230.6696 636.4531,-233.6466"/>
<polygon fill="#191970" stroke="#191970" points="346.9593,-206.6923 336.781,-209.6338 346.5721,-213.6816 346.9593,-206.6923"/>
</g>
<!-- Node76&#45;&gt;Node71 -->
<g id="edge18" class="edge">
<title>Node76&#45;&gt;Node71</title>
<path fill="none" stroke="#191970" d="M346.9825,-196.1197C361.3071,-194.593 376.0773,-193.1457 390,-192 457.5735,-186.4396 533.7785,-182.43 592.9241,-179.8153"/>
<polygon fill="#191970" stroke="#191970" points="346.2127,-192.6826 336.6492,-197.2422 346.9687,-199.6417 346.2127,-192.6826"/>
</g>
<!-- Node76&#45;&gt;Node73 -->
<g id="edge17" class="edge">
<title>Node76&#45;&gt;Node73</title>
<path fill="none" stroke="#191970" d="M324.0712,-193.6273C334.3146,-190.4893 344.6648,-186.651 354,-182 372.1428,-172.961 371.9323,-163.1883 390,-154 401.9658,-147.9148 415.7039,-143.16 428.5357,-139.546"/>
<polygon fill="#191970" stroke="#191970" points="322.9665,-190.303 314.3195,-196.4251 324.897,-197.0316 322.9665,-190.303"/>
</g>
<!-- Node78 -->
<g id="node15" class="node">
<title>Node78</title>
<g id="a_node15"><a xlink:href="classUIManager.html#aedd9d0577af515a852425dfe414b2968" target="_top" xlink:title="Parses the UiLayout.json files and creates UI Elements. ">
<polygon fill="none" stroke="#000000" points="428,-310.5 428,-329.5 519,-329.5 519,-310.5 428,-310.5"/>
<text text-anchor="middle" x="473.5" y="-317.5" font-family="Helvetica,sans-Serif" font-size="10.00" fill="#000000">UIManager::init</text>
</a>
</g>
</g>
<!-- Node77&#45;&gt;Node78 -->
<g id="edge20" class="edge">
<title>Node77&#45;&gt;Node78</title>
<path fill="none" stroke="#191970" d="M364.2215,-320C386.487,-320 409.0592,-320 427.8626,-320"/>
<polygon fill="#191970" stroke="#191970" points="364.0276,-316.5001 354.0275,-320 364.0275,-323.5001 364.0276,-316.5001"/>
</g>
<!-- Node78&#45;&gt;Node66 -->
<g id="edge21" class="edge">
<title>Node78&#45;&gt;Node66</title>
<path fill="none" stroke="#191970" d="M529.2079,-310.8842C570.2477,-304.1686 624.7446,-295.2509 659.4793,-289.567"/>
<polygon fill="#191970" stroke="#191970" points="528.3877,-307.4717 519.0841,-312.5408 529.5181,-314.3799 528.3877,-307.4717"/>
</g>
</g>
</svg>
