<?xml version="1.0" encoding="UTF-8" standalone="no"?>
<!DOCTYPE svg PUBLIC "-//W3C//DTD SVG 1.1//EN"
 "http://www.w3.org/Graphics/SVG/1.1/DTD/svg11.dtd">
<!-- Generated by graphviz version 2.40.1 (20161225.0304)
 -->
<!-- Title: MapNode::isLayerOccupied Pages: 1 -->
<svg width="602pt" height="175pt"
 viewBox="0.00 0.00 602.00 175.00" xmlns="http://www.w3.org/2000/svg" xmlns:xlink="http://www.w3.org/1999/xlink">
<g id="graph0" class="graph" transform="scale(1 1) rotate(0) translate(4 171)">
<title>MapNode::isLayerOccupied</title>
<!-- Node137 -->
<g id="node1" class="node">
<title>Node137</title>
<polygon fill="#bfbfbf" stroke="#000000" points="0,-82.5 0,-101.5 149,-101.5 149,-82.5 0,-82.5"/>
<text text-anchor="middle" x="74.5" y="-89.5" font-family="Helvetica,sans-Serif" font-size="10.00" fill="#000000">MapNode::isLayerOccupied</text>
</g>
<!-- Node138 -->
<g id="node2" class="node">
<title>Node138</title>
<g id="a_node2"><a xlink:href="classMapNode.html#a26e55c94192a56990f8a59e7af139a73" target="_top" xlink:title="MapNode::setTileID">
<polygon fill="none" stroke="#000000" points="215,-120.5 215,-139.5 327,-139.5 327,-120.5 215,-120.5"/>
<text text-anchor="middle" x="271" y="-127.5" font-family="Helvetica,sans-Serif" font-size="10.00" fill="#000000">MapNode::setTileID</text>
</a>
</g>
</g>
<!-- Node137&#45;&gt;Node138 -->
<g id="edge1" class="edge">
<title>Node137&#45;&gt;Node138</title>
<path fill="none" stroke="#191970" d="M133.9123,-103.4894C161.9495,-108.9114 195.0157,-115.3058 221.6481,-120.4561"/>
<polygon fill="#191970" stroke="#191970" points="134.3143,-100.0024 123.8316,-101.54 132.9852,-106.875 134.3143,-100.0024"/>
</g>
<!-- Node141 -->
<g id="node5" class="node">
<title>Node141</title>
<g id="a_node5"><a xlink:href="classMapNode.html#a3d88c4eff75c599fb6fd37afd1c882b6" target="_top" xlink:title="MapNode::isPlacementAllowed">
<polygon fill="none" stroke="#000000" points="187.5,-82.5 187.5,-101.5 354.5,-101.5 354.5,-82.5 187.5,-82.5"/>
<text text-anchor="middle" x="271" y="-89.5" font-family="Helvetica,sans-Serif" font-size="10.00" fill="#000000">MapNode::isPlacementAllowed</text>
</a>
</g>
</g>
<!-- Node137&#45;&gt;Node141 -->
<g id="edge4" class="edge">
<title>Node137&#45;&gt;Node141</title>
<path fill="none" stroke="#191970" d="M159.1164,-92C168.452,-92 177.955,-92 187.2795,-92"/>
<polygon fill="#191970" stroke="#191970" points="159.0684,-88.5001 149.0684,-92 159.0684,-95.5001 159.0684,-88.5001"/>
</g>
<!-- Node142 -->
<g id="node6" class="node">
<title>Node142</title>
<g id="a_node6"><a xlink:href="classMap.html#a178bdc025a3a5c2068d9de5b642c52bd" target="_top" xlink:title="Map\&lt; ObserverSPtr\&lt;\l Notification \&gt;, Set\l\&lt; typename Notification\l::TransitionType \&gt; \&gt;::isAllowSet\lTileId">
<polygon fill="none" stroke="#000000" points="185,-.5 185,-63.5 357,-63.5 357,-.5 185,-.5"/>
<text text-anchor="start" x="193" y="-51.5" font-family="Helvetica,sans-Serif" font-size="10.00" fill="#000000">Map&lt; ObserverSPtr&lt;</text>
<text text-anchor="start" x="193" y="-40.5" font-family="Helvetica,sans-Serif" font-size="10.00" fill="#000000"> Notification &gt;, Set</text>
<text text-anchor="start" x="193" y="-29.5" font-family="Helvetica,sans-Serif" font-size="10.00" fill="#000000">&lt; typename Notification</text>
<text text-anchor="start" x="193" y="-18.5" font-family="Helvetica,sans-Serif" font-size="10.00" fill="#000000">::TransitionType &gt; &gt;::isAllowSet</text>
<text text-anchor="middle" x="271" y="-7.5" font-family="Helvetica,sans-Serif" font-size="10.00" fill="#000000">TileId</text>
</a>
</g>
</g>
<!-- Node137&#45;&gt;Node142 -->
<g id="edge5" class="edge">
<title>Node137&#45;&gt;Node142</title>
<path fill="none" stroke="#191970" d="M115.4092,-79.5086C135.5868,-73.3475 160.7282,-65.6708 184.877,-58.2971"/>
<polygon fill="#191970" stroke="#191970" points="114.178,-76.225 105.636,-82.4928 116.2222,-82.9199 114.178,-76.225"/>
</g>
<!-- Node139 -->
<g id="node3" class="node">
<title>Node139</title>
<g id="a_node3"><a xlink:href="classMapNode.html#ae515fc96b543bf97237bfb1ca53fe571" target="_top" xlink:title="MapNode::MapNode">
<polygon fill="none" stroke="#000000" points="436.5,-147.5 436.5,-166.5 550.5,-166.5 550.5,-147.5 436.5,-147.5"/>
<text text-anchor="middle" x="493.5" y="-154.5" font-family="Helvetica,sans-Serif" font-size="10.00" fill="#000000">MapNode::MapNode</text>
</a>
</g>
</g>
<!-- Node138&#45;&gt;Node139 -->
<g id="edge2" class="edge">
<title>Node138&#45;&gt;Node139</title>
<path fill="none" stroke="#191970" d="M337.1511,-138.0273C368.6448,-141.849 405.943,-146.3751 436.2098,-150.0479"/>
<polygon fill="#191970" stroke="#191970" points="337.495,-134.5435 327.1461,-136.8132 336.6517,-141.4925 337.495,-134.5435"/>
</g>
<!-- Node140 -->
<g id="node4" class="node">
<title>Node140</title>
<g id="a_node4"><a xlink:href="classMap.html#a404c38b33d61f8c63ce2c2efb864d6dd" target="_top" xlink:title="Set the Tile ID Of Node object Also invokes all necessary texture updates (auto&#45;tiling, slopes, ...) ">
<polygon fill="none" stroke="#000000" points="393,-76 393,-128 594,-128 594,-76 393,-76"/>
<text text-anchor="start" x="401" y="-116" font-family="Helvetica,sans-Serif" font-size="10.00" fill="#000000">Map&lt; ObserverSPtr&lt;</text>
<text text-anchor="start" x="401" y="-105" font-family="Helvetica,sans-Serif" font-size="10.00" fill="#000000"> Notification &gt;, Set</text>
<text text-anchor="start" x="401" y="-94" font-family="Helvetica,sans-Serif" font-size="10.00" fill="#000000">&lt; typename Notification</text>
<text text-anchor="middle" x="493.5" y="-83" font-family="Helvetica,sans-Serif" font-size="10.00" fill="#000000">::TransitionType &gt; &gt;::setTileIDOfNode</text>
</a>
</g>
</g>
<!-- Node138&#45;&gt;Node140 -->
<g id="edge3" class="edge">
<title>Node138&#45;&gt;Node140</title>
<path fill="none" stroke="#191970" d="M337.2064,-121.6684C354.6707,-119.4707 373.9168,-117.0487 392.7574,-114.6777"/>
<polygon fill="#191970" stroke="#191970" points="336.6309,-118.2131 327.1461,-122.9344 337.5049,-125.1584 336.6309,-118.2131"/>
</g>
</g>
</svg>
