<?xml version="1.0" encoding="UTF-8" standalone="no"?>
<!DOCTYPE svg PUBLIC "-//W3C//DTD SVG 1.1//EN"
 "http://www.w3.org/Graphics/SVG/1.1/DTD/svg11.dtd">
<!-- Generated by graphviz version 2.40.1 (20161225.0304)
 -->
<!-- Title: Sprite::render Pages: 1 -->
<!--zoomable 151 -->
<svg id="main" version="1.1" xmlns="http://www.w3.org/2000/svg" xmlns:xlink="http://www.w3.org/1999/xlink" xml:space="preserve" onload="init(evt)">
<style type="text/css"><![CDATA[
.edge:hover path { stroke: red; }
.edge:hover polygon { stroke: red; fill: red; }
]]></style>
<script type="text/javascript"><![CDATA[
var edges = document.getElementsByTagName('g');
if (edges && edges.length) {
  for (var i=0;i<edges.length;i++) {
    if (edges[i].id.substr(0,4)=='edge') {
      edges[i].setAttribute('class','edge');
    }
  }
}
]]></script>
        <defs>
                <circle id="rim" cx="0" cy="0" r="7"/>
                <circle id="rim2" cx="0" cy="0" r="3.5"/>
                <g id="zoomPlus">
                        <use xlink:href="#rim" fill="#404040">
                                <set attributeName="fill" to="#808080" begin="zoomplus.mouseover" end="zoomplus.mouseout"/>
                        </use>
                        <path d="M-4,0h8M0,-4v8" fill="none" stroke="white" stroke-width="1.5" pointer-events="none"/>
                </g>
                <g id="zoomMin">
                        <use xlink:href="#rim" fill="#404040">
                                <set attributeName="fill" to="#808080" begin="zoomminus.mouseover" end="zoomminus.mouseout"/>
                        </use>
                        <path d="M-4,0h8" fill="none" stroke="white" stroke-width="1.5" pointer-events="none"/>
                </g>
                <g id="dirArrow">
                        <path fill="none" stroke="white" stroke-width="1.5" d="M0,-3.0v7 M-2.5,-0.5L0,-3.0L2.5,-0.5"/>
                </g>
               <g id="resetDef">
                       <use xlink:href="#rim2" fill="#404040">
                               <set attributeName="fill" to="#808080" begin="reset.mouseover" end="reset.mouseout"/>
                       </use>
               </g>
        </defs>

<script type="text/javascript">
var viewWidth = 815;
var viewHeight = 151;
var sectionId = 'dynsection-7';
</script>
<script xlink:href="svgpan.js"/>
<svg id="graph" class="graph">
<g id="viewport">
<title>Sprite::render</title>
<!-- Node54 -->
<g id="node1" class="node">
<title>Node54</title>
<polygon fill="#bfbfbf" stroke="#000000" points="0,-.5 0,-19.5 83,-19.5 83,-.5 0,-.5"/>
<text text-anchor="middle" x="41.5" y="-7.5" font-family="Helvetica,sans-Serif" font-size="10.00" fill="#000000">Sprite::render</text>
</g>
<!-- Node55 -->
<g id="node2" class="node">
<title>Node55</title>
<g id="a_node2"><a xlink:href="classMapLayers.html#a1d810628821913c499b8348107b66891" target="_top" xlink:title="Check if given Layer is being drawn. ">
<polygon fill="none" stroke="#000000" points="119,-38.5 119,-57.5 260,-57.5 260,-38.5 119,-38.5"/>
<text text-anchor="middle" x="189.5" y="-45.5" font-family="Helvetica,sans-Serif" font-size="10.00" fill="#000000">MapLayers::isLayerActive</text>
</a>
</g>
</g>
<!-- Node54&#45;&gt;Node55 -->
<g id="edge1" class="edge">
<title>Node54&#45;&gt;Node55</title>
<path fill="none" stroke="#191970" d="M78.8466,-19.589C98.2009,-24.5583 122.0304,-30.6767 142.6126,-35.9613"/>
<polygon fill="#191970" stroke="#191970" points="141.8656,-39.383 152.4219,-38.4799 143.6065,-32.6029 141.8656,-39.383"/>
</g>
<!-- Node59 -->
<g id="node6" class="node">
<title>Node59</title>
<g id="a_node6"><a xlink:href="classSingleton.html#af5cb1e5749949e2b68416cfb8d378044" target="_top" xlink:title="Get an instance of the singleton. ">
<polygon fill="none" stroke="#000000" points="507.5,-11 507.5,-41 620.5,-41 620.5,-11 507.5,-11"/>
<text text-anchor="start" x="515.5" y="-29" font-family="Helvetica,sans-Serif" font-size="10.00" fill="#000000">Singleton&lt; Settings</text>
<text text-anchor="middle" x="564" y="-18" font-family="Helvetica,sans-Serif" font-size="10.00" fill="#000000"> &gt;::instance</text>
</a>
</g>
</g>
<!-- Node54&#45;&gt;Node59 -->
<g id="edge9" class="edge">
<title>Node54&#45;&gt;Node59</title>
<path fill="none" stroke="#191970" d="M83.2545,-7.937C158.3617,-4.6855 321.1784,.268 458,-10 470.6673,-10.9506 484.1149,-12.5317 497.0263,-14.3395"/>
<polygon fill="#191970" stroke="#191970" points="496.8403,-17.8493 507.2409,-15.8302 497.8512,-10.9227 496.8403,-17.8493"/>
</g>
<!-- Node56 -->
<g id="node3" class="node">
<title>Node56</title>
<g id="a_node3"><a xlink:href="classMapLayers.html#ab663dfc9e4c144f904ad85543b66ac8f" target="_top" xlink:title="Toggle Drawing Layer Toggle Drawing Layer (use bitwise XOR to toggle layer) ">
<polygon fill="none" stroke="#000000" points="296,-95.5 296,-114.5 458,-114.5 458,-95.5 296,-95.5"/>
<text text-anchor="middle" x="377" y="-102.5" font-family="Helvetica,sans-Serif" font-size="10.00" fill="#000000">MapLayers::setLayerEditMode</text>
</a>
</g>
</g>
<!-- Node55&#45;&gt;Node56 -->
<g id="edge2" class="edge">
<title>Node55&#45;&gt;Node56</title>
<path fill="none" stroke="#191970" d="M213.7773,-57.5429C235.1986,-65.7506 267.3773,-77.5656 296,-86 304.456,-88.4918 313.4838,-90.8753 322.3303,-93.0607"/>
<polygon fill="#191970" stroke="#191970" points="321.6593,-96.4991 332.2009,-95.4389 323.299,-89.6938 321.6593,-96.4991"/>
</g>
<!-- Node61 -->
<g id="node8" class="node">
<title>Node61</title>
<g id="a_node8"><a xlink:href="classMapLayers.html#a53d7fcd90e70eaf36239d7a75c0c5dda" target="_top" xlink:title="MapLayers::MapLayers">
<polygon fill="none" stroke="#000000" points="313,-57.5 313,-76.5 441,-76.5 441,-57.5 313,-57.5"/>
<text text-anchor="middle" x="377" y="-64.5" font-family="Helvetica,sans-Serif" font-size="10.00" fill="#000000">MapLayers::MapLayers</text>
</a>
</g>
</g>
<!-- Node55&#45;&gt;Node61 -->
<g id="edge7" class="edge">
<title>Node55&#45;&gt;Node61</title>
<path fill="none" stroke="#191970" d="M260.1185,-55.156C274.0688,-56.5696 288.7479,-58.0571 302.8122,-59.4823"/>
<polygon fill="#191970" stroke="#191970" points="302.6235,-62.981 312.9254,-60.5071 303.3292,-56.0167 302.6235,-62.981"/>
</g>
<!-- Node62 -->
<g id="node9" class="node">
<title>Node62</title>
<g id="a_node9"><a xlink:href="classMapLayers.html#aa7fa21110e27ec69f131692b0a510d66" target="_top" xlink:title="MapLayers::~MapLayers">
<polygon fill="none" stroke="#000000" points="309,-19.5 309,-38.5 445,-38.5 445,-19.5 309,-19.5"/>
<text text-anchor="middle" x="377" y="-26.5" font-family="Helvetica,sans-Serif" font-size="10.00" fill="#000000">MapLayers::~MapLayers</text>
</a>
</g>
</g>
<!-- Node55&#45;&gt;Node62 -->
<g id="edge8" class="edge">
<title>Node55&#45;&gt;Node62</title>
<path fill="none" stroke="#191970" d="M260.1185,-40.844C272.733,-39.5657 285.9435,-38.2271 298.7565,-36.9287"/>
<polygon fill="#191970" stroke="#191970" points="299.3319,-40.3884 308.9281,-35.898 298.6261,-33.424 299.3319,-40.3884"/>
</g>
<!-- Node57 -->
<g id="node4" class="node">
<title>Node57</title>
<g id="a_node4"><a xlink:href="classMapLayers.html#a0a64d01a42e8864b78e1bc54007cb7d9" target="_top" xlink:title="Toggle Drawing Layer Toggle Drawing Layer (use bitwise XOR to toggle layer) ">
<polygon fill="none" stroke="#000000" points="494,-112 494,-142 634,-142 634,-112 494,-112"/>
<text text-anchor="start" x="502" y="-130" font-family="Helvetica,sans-Serif" font-size="10.00" fill="#000000">MapLayers::deactivateAll</text>
<text text-anchor="middle" x="564" y="-119" font-family="Helvetica,sans-Serif" font-size="10.00" fill="#000000">Layers</text>
</a>
</g>
</g>
<!-- Node56&#45;&gt;Node57 -->
<g id="edge3" class="edge">
<title>Node56&#45;&gt;Node57</title>
<path fill="none" stroke="#191970" d="M457.9333,-114.5216C466.5179,-115.5315 475.2464,-116.5584 483.8223,-117.5673"/>
<polygon fill="#191970" stroke="#191970" points="483.4613,-121.0489 493.8018,-118.7414 484.2792,-114.0969 483.4613,-121.0489"/>
</g>
<!-- Node56&#45;&gt;Node59 -->
<g id="edge5" class="edge">
<title>Node56&#45;&gt;Node59</title>
<path fill="none" stroke="#191970" d="M428.7597,-95.4546C438.6456,-92.9089 448.7799,-89.7843 458,-86 475.3468,-78.8801 477.7549,-73.365 494,-64 504.4702,-57.9641 515.9502,-51.6205 526.5301,-45.8827"/>
<polygon fill="#191970" stroke="#191970" points="528.4076,-48.8468 535.5478,-41.0194 525.0848,-42.6856 528.4076,-48.8468"/>
</g>
<!-- Node60 -->
<g id="node7" class="node">
<title>Node60</title>
<g id="a_node7"><a xlink:href="classMapLayers.html#a5db6ba7e194ada6a4d0334d0428ff89b" target="_top" xlink:title="Enable drawing layers. ">
<polygon fill="none" stroke="#000000" points="494,-73.5 494,-92.5 634,-92.5 634,-73.5 494,-73.5"/>
<text text-anchor="middle" x="564" y="-80.5" font-family="Helvetica,sans-Serif" font-size="10.00" fill="#000000">MapLayers::enableLayers</text>
</a>
</g>
</g>
<!-- Node56&#45;&gt;Node60 -->
<g id="edge6" class="edge">
<title>Node56&#45;&gt;Node60</title>
<path fill="none" stroke="#191970" d="M457.9333,-95.4784C466.5179,-94.4685 475.2464,-93.4416 483.8223,-92.4327"/>
<polygon fill="#191970" stroke="#191970" points="484.2792,-95.9031 493.8018,-91.2586 483.4613,-88.9511 484.2792,-95.9031"/>
</g>
<!-- Node58 -->
<g id="node5" class="node">
<title>Node58</title>
<g id="a_node5"><a xlink:href="classMapLayers.html#a3b1b1f10dd431fa83e098a20e4c836b9" target="_top" xlink:title="Disable Drawing Layer Disable Drawing Layer ( Turned off by using bitwise AND with inversed pattern) ...">
<polygon fill="none" stroke="#000000" points="670,-117.5 670,-136.5 807,-136.5 807,-117.5 670,-117.5"/>
<text text-anchor="middle" x="738.5" y="-124.5" font-family="Helvetica,sans-Serif" font-size="10.00" fill="#000000">MapLayers::disableLayer</text>
</a>
</g>
</g>
<!-- Node57&#45;&gt;Node58 -->
<g id="edge4" class="edge">
<title>Node57&#45;&gt;Node58</title>
<path fill="none" stroke="#191970" d="M634.2215,-127C642.5704,-127 651.1356,-127 659.5953,-127"/>
<polygon fill="#191970" stroke="#191970" points="659.8402,-130.5001 669.8402,-127 659.8402,-123.5001 659.8402,-130.5001"/>
</g>
</g>
</svg>
        <g id="navigator" transform="translate(0 0)" fill="#404254">
                <rect fill="#f2f5e9" fill-opacity="0.5" stroke="#606060" stroke-width=".5" x="0" y="0" width="60" height="60"/>
                <use id="zoomplus" xlink:href="#zoomPlus" x="17" y="9" onmousedown="handleZoom(evt,'in')"/>
                <use id="zoomminus" xlink:href="#zoomMin" x="42" y="9" onmousedown="handleZoom(evt,'out')"/>
                <use id="reset" xlink:href="#resetDef" x="30" y="36" onmousedown="handleReset()"/>
                <g id="arrowUp" xlink:href="#dirArrow" transform="translate(30 24)" onmousedown="handlePan(0,-1)">
                  <use xlink:href="#rim" fill="#404040">
                        <set attributeName="fill" to="#808080" begin="arrowUp.mouseover" end="arrowUp.mouseout"/>
                  </use>
                  <path fill="none" stroke="white" stroke-width="1.5" d="M0,-3.0v7 M-2.5,-0.5L0,-3.0L2.5,-0.5"/>
                </g>
                <g id="arrowRight" xlink:href="#dirArrow" transform="rotate(90) translate(36 -43)" onmousedown="handlePan(1,0)">
                  <use xlink:href="#rim" fill="#404040">
                        <set attributeName="fill" to="#808080" begin="arrowRight.mouseover" end="arrowRight.mouseout"/>
                  </use>
                  <path fill="none" stroke="white" stroke-width="1.5" d="M0,-3.0v7 M-2.5,-0.5L0,-3.0L2.5,-0.5"/>
                </g>
                <g id="arrowDown" xlink:href="#dirArrow" transform="rotate(180) translate(-30 -48)" onmousedown="handlePan(0,1)">
                  <use xlink:href="#rim" fill="#404040">
                        <set attributeName="fill" to="#808080" begin="arrowDown.mouseover" end="arrowDown.mouseout"/>
                  </use>
                  <path fill="none" stroke="white" stroke-width="1.5" d="M0,-3.0v7 M-2.5,-0.5L0,-3.0L2.5,-0.5"/>
                </g>
                <g id="arrowLeft" xlink:href="#dirArrow" transform="rotate(270) translate(-36 17)" onmousedown="handlePan(-1,0)">
                  <use xlink:href="#rim" fill="#404040">
                        <set attributeName="fill" to="#808080" begin="arrowLeft.mouseover" end="arrowLeft.mouseout"/>
                  </use>
                  <path fill="none" stroke="white" stroke-width="1.5" d="M0,-3.0v7 M-2.5,-0.5L0,-3.0L2.5,-0.5"/>
                </g>
        </g>
        <svg viewBox="0 0 15 15" width="100%" height="30px" preserveAspectRatio="xMaxYMin meet">
         <g id="arrow_out" transform="scale(0.3 0.3)">
          <a xlink:href="classSprite_abdf111e2030274680af0f00f296d8605_cgraph_org.svg" target="_base">
           <rect id="button" ry="5" rx="5" y="6" x="6" height="38" width="38"
                fill="#f2f5e9" fill-opacity="0.5" stroke="#606060" stroke-width="1.0"/>
           <path id="arrow"
             d="M 11.500037,31.436501 C 11.940474,20.09759 22.043105,11.32322 32.158766,21.979434 L 37.068811,17.246167 C 37.068811,17.246167 37.088388,32 37.088388,32 L 22.160133,31.978069 C 22.160133,31.978069 26.997745,27.140456 26.997745,27.140456 C 18.528582,18.264221 13.291696,25.230495 11.500037,31.436501 z"
             style="fill:#404040;"/>
          </a>
         </g>
        </svg>
</svg>
