<?xml version="1.0" encoding="UTF-8" standalone="no"?>
<!DOCTYPE svg PUBLIC "-//W3C//DTD SVG 1.1//EN"
 "http://www.w3.org/Graphics/SVG/1.1/DTD/svg11.dtd">
<!-- Generated by graphviz version 2.40.1 (20161225.0304)
 -->
<!-- Title: MapLayers::disableLayer Pages: 1 -->
<svg width="1524pt" height="351pt"
 viewBox="0.00 0.00 1524.00 350.50" xmlns="http://www.w3.org/2000/svg" xmlns:xlink="http://www.w3.org/1999/xlink">
<g id="graph0" class="graph" transform="scale(1 1) rotate(0) translate(4 346.5)">
<title>MapLayers::disableLayer</title>
<!-- Node47 -->
<g id="node1" class="node">
<title>Node47</title>
<polygon fill="#bfbfbf" stroke="#000000" points="0,-76.5 0,-95.5 137,-95.5 137,-76.5 0,-76.5"/>
<text text-anchor="middle" x="68.5" y="-83.5" font-family="Helvetica,sans-Serif" font-size="10.00" fill="#000000">MapLayers::disableLayer</text>
</g>
<!-- Node48 -->
<g id="node2" class="node">
<title>Node48</title>
<g id="a_node2"><a xlink:href="classMapLayers.html#a0a64d01a42e8864b78e1bc54007cb7d9" target="_top" xlink:title="Toggle Drawing Layer Toggle Drawing Layer (use bitwise XOR to toggle layer) ">
<polygon fill="none" stroke="#000000" points="173,-71 173,-101 313,-101 313,-71 173,-71"/>
<text text-anchor="start" x="181" y="-89" font-family="Helvetica,sans-Serif" font-size="10.00" fill="#000000">MapLayers::deactivateAll</text>
<text text-anchor="middle" x="243" y="-78" font-family="Helvetica,sans-Serif" font-size="10.00" fill="#000000">Layers</text>
</a>
</g>
</g>
<!-- Node47&#45;&gt;Node48 -->
<g id="edge1" class="edge">
<title>Node47&#45;&gt;Node48</title>
<path fill="none" stroke="#191970" d="M147.4852,-86C155.9643,-86 164.5484,-86 172.9134,-86"/>
<polygon fill="#191970" stroke="#191970" points="147.2166,-82.5001 137.2165,-86 147.2165,-89.5001 147.2166,-82.5001"/>
</g>
<!-- Node49 -->
<g id="node3" class="node">
<title>Node49</title>
<g id="a_node3"><a xlink:href="classMapLayers.html#ab663dfc9e4c144f904ad85543b66ac8f" target="_top" xlink:title="Toggle Drawing Layer Toggle Drawing Layer (use bitwise XOR to toggle layer) ">
<polygon fill="none" stroke="#000000" points="349,-76.5 349,-95.5 511,-95.5 511,-76.5 349,-76.5"/>
<text text-anchor="middle" x="430" y="-83.5" font-family="Helvetica,sans-Serif" font-size="10.00" fill="#000000">MapLayers::setLayerEditMode</text>
</a>
</g>
</g>
<!-- Node48&#45;&gt;Node49 -->
<g id="edge2" class="edge">
<title>Node48&#45;&gt;Node49</title>
<path fill="none" stroke="#191970" d="M323.3393,-86C331.7557,-86 340.3173,-86 348.744,-86"/>
<polygon fill="#191970" stroke="#191970" points="323.164,-82.5001 313.1639,-86 323.1639,-89.5001 323.164,-82.5001"/>
</g>
<!-- Node50 -->
<g id="node4" class="node">
<title>Node50</title>
<g id="a_node4"><a xlink:href="classMapLayers.html#a1d810628821913c499b8348107b66891" target="_top" xlink:title="Check if given Layer is being drawn. ">
<polygon fill="none" stroke="#000000" points="565.5,-133.5 565.5,-152.5 706.5,-152.5 706.5,-133.5 565.5,-133.5"/>
<text text-anchor="middle" x="636" y="-140.5" font-family="Helvetica,sans-Serif" font-size="10.00" fill="#000000">MapLayers::isLayerActive</text>
</a>
</g>
</g>
<!-- Node49&#45;&gt;Node50 -->
<g id="edge3" class="edge">
<title>Node49&#45;&gt;Node50</title>
<path fill="none" stroke="#191970" d="M474.273,-98.2503C512.333,-108.7815 566.4595,-123.7582 601.4077,-133.4284"/>
<polygon fill="#191970" stroke="#191970" points="475.051,-94.8341 464.4798,-95.5405 473.1842,-101.5806 475.051,-94.8341"/>
</g>
<!-- Node61 -->
<g id="node15" class="node">
<title>Node61</title>
<g id="a_node15"><a xlink:href="classUIManager.html#aa78e356fc3b356d790c848319d1c387e" target="_top" xlink:title="UIManager::setCallbackFunctions">
<polygon fill="none" stroke="#000000" points="547,-57.5 547,-76.5 725,-76.5 725,-57.5 547,-57.5"/>
<text text-anchor="middle" x="636" y="-64.5" font-family="Helvetica,sans-Serif" font-size="10.00" fill="#000000">UIManager::setCallbackFunctions</text>
</a>
</g>
</g>
<!-- Node49&#45;&gt;Node61 -->
<g id="edge14" class="edge">
<title>Node49&#45;&gt;Node61</title>
<path fill="none" stroke="#191970" d="M521.0803,-77.5994C529.6198,-76.8118 538.2701,-76.0139 546.7921,-75.2279"/>
<polygon fill="#191970" stroke="#191970" points="520.7572,-74.1142 511.1209,-78.518 521.4002,-81.0847 520.7572,-74.1142"/>
</g>
<!-- Node51 -->
<g id="node5" class="node">
<title>Node51</title>
<g id="a_node5"><a xlink:href="classMapNode.html#ac307762dc7ad609974c6b13774c3c00d" target="_top" xlink:title="return topmost active layer. check layers in order of significance for the topmost active layer that ...">
<polygon fill="none" stroke="#000000" points="785,-301 785,-331 940,-331 940,-301 785,-301"/>
<text text-anchor="start" x="793" y="-319" font-family="Helvetica,sans-Serif" font-size="10.00" fill="#000000">MapNode::getTopMostActive</text>
<text text-anchor="middle" x="862.5" y="-308" font-family="Helvetica,sans-Serif" font-size="10.00" fill="#000000">Layer</text>
</a>
</g>
</g>
<!-- Node50&#45;&gt;Node51 -->
<g id="edge4" class="edge">
<title>Node50&#45;&gt;Node51</title>
<path fill="none" stroke="#191970" d="M646.2536,-161.4692C664.8218,-193.1271 707.1342,-257.5676 761,-291 768.3243,-295.5459 776.425,-299.2656 784.7619,-302.3091"/>
<polygon fill="#191970" stroke="#191970" points="649.2757,-159.7034 641.2668,-152.7674 643.2023,-163.1839 649.2757,-159.7034"/>
</g>
<!-- Node54 -->
<g id="node8" class="node">
<title>Node54</title>
<g id="a_node8"><a xlink:href="classMapNode.html#a002b868485074599fbf087fc4c96b2c9" target="_top" xlink:title="Demolish a node Removes all tiles on a node. This effects all layers where something to demolish is p...">
<polygon fill="none" stroke="#000000" points="793,-262.5 793,-281.5 932,-281.5 932,-262.5 793,-262.5"/>
<text text-anchor="middle" x="862.5" y="-269.5" font-family="Helvetica,sans-Serif" font-size="10.00" fill="#000000">MapNode::demolishNode</text>
</a>
</g>
</g>
<!-- Node50&#45;&gt;Node54 -->
<g id="edge7" class="edge">
<title>Node50&#45;&gt;Node54</title>
<path fill="none" stroke="#191970" d="M650.2119,-160.3848C671.5225,-185.186 714.2742,-230.2353 761,-253 770.9117,-257.829 781.919,-261.4343 792.9234,-264.1252"/>
<polygon fill="#191970" stroke="#191970" points="652.7144,-157.9228 643.5969,-152.5264 647.3592,-162.4308 652.7144,-157.9228"/>
</g>
<!-- Node55 -->
<g id="node9" class="node">
<title>Node55</title>
<g id="a_node9"><a xlink:href="classMap.html#a352929ea8cc2efc4f415c7ec795e1538" target="_top" xlink:title="Map\&lt; ObserverSPtr\&lt;\l Notification \&gt;, Set\l\&lt; typename Notification\l::TransitionType \&gt; \&gt;::isClickWithinTile">
<polygon fill="none" stroke="#000000" points="761,-191 761,-243 964,-243 964,-191 761,-191"/>
<text text-anchor="start" x="769" y="-231" font-family="Helvetica,sans-Serif" font-size="10.00" fill="#000000">Map&lt; ObserverSPtr&lt;</text>
<text text-anchor="start" x="769" y="-220" font-family="Helvetica,sans-Serif" font-size="10.00" fill="#000000"> Notification &gt;, Set</text>
<text text-anchor="start" x="769" y="-209" font-family="Helvetica,sans-Serif" font-size="10.00" fill="#000000">&lt; typename Notification</text>
<text text-anchor="middle" x="862.5" y="-198" font-family="Helvetica,sans-Serif" font-size="10.00" fill="#000000">::TransitionType &gt; &gt;::isClickWithinTile</text>
</a>
</g>
</g>
<!-- Node50&#45;&gt;Node55 -->
<g id="edge8" class="edge">
<title>Node50&#45;&gt;Node55</title>
<path fill="none" stroke="#191970" d="M674.6949,-155.642C704.3057,-165.3162 746.1536,-178.9884 782.8337,-190.9722"/>
<polygon fill="#191970" stroke="#191970" points="675.7397,-152.3014 665.1472,-152.5227 673.5658,-158.9553 675.7397,-152.3014"/>
</g>
<!-- Node56 -->
<g id="node10" class="node">
<title>Node56</title>
<g id="a_node10"><a xlink:href="classSprite.html#abdf111e2030274680af0f00f296d8605" target="_top" xlink:title="Sprite::render">
<polygon fill="none" stroke="#000000" points="821,-152.5 821,-171.5 904,-171.5 904,-152.5 821,-152.5"/>
<text text-anchor="middle" x="862.5" y="-159.5" font-family="Helvetica,sans-Serif" font-size="10.00" fill="#000000">Sprite::render</text>
</a>
</g>
</g>
<!-- Node50&#45;&gt;Node56 -->
<g id="edge9" class="edge">
<title>Node50&#45;&gt;Node56</title>
<path fill="none" stroke="#191970" d="M717.0067,-149.7953C752.1912,-152.7467 791.9053,-156.0782 820.9415,-158.5139"/>
<polygon fill="#191970" stroke="#191970" points="716.9919,-146.2818 706.7343,-148.9336 716.4067,-153.2573 716.9919,-146.2818"/>
</g>
<!-- Node58 -->
<g id="node12" class="node">
<title>Node58</title>
<g id="a_node12"><a xlink:href="classSprite.html#a87428873289f8ec84f4b75d9162c9d7c" target="_top" xlink:title="Sprite::getActiveClipRect">
<polygon fill="none" stroke="#000000" points="794,-114.5 794,-133.5 931,-133.5 931,-114.5 794,-114.5"/>
<text text-anchor="middle" x="862.5" y="-121.5" font-family="Helvetica,sans-Serif" font-size="10.00" fill="#000000">Sprite::getActiveClipRect</text>
</a>
</g>
</g>
<!-- Node50&#45;&gt;Node58 -->
<g id="edge11" class="edge">
<title>Node50&#45;&gt;Node58</title>
<path fill="none" stroke="#191970" d="M716.9863,-136.2064C742.1441,-134.0961 769.6194,-131.7913 793.8521,-129.7585"/>
<polygon fill="#191970" stroke="#191970" points="716.4067,-132.7427 706.7343,-137.0664 716.9919,-139.7182 716.4067,-132.7427"/>
</g>
<!-- Node59 -->
<g id="node13" class="node">
<title>Node59</title>
<g id="a_node13"><a xlink:href="classSprite.html#a7376c698bf914312fbcc7c2b8180cbed" target="_top" xlink:title="Sprite::isLayerUsed">
<polygon fill="none" stroke="#000000" points="807,-76.5 807,-95.5 918,-95.5 918,-76.5 807,-76.5"/>
<text text-anchor="middle" x="862.5" y="-83.5" font-family="Helvetica,sans-Serif" font-size="10.00" fill="#000000">Sprite::isLayerUsed</text>
</a>
</g>
</g>
<!-- Node50&#45;&gt;Node59 -->
<g id="edge12" class="edge">
<title>Node50&#45;&gt;Node59</title>
<path fill="none" stroke="#191970" d="M674.2184,-130.1867C698.8126,-122.2389 731.5674,-112.2054 761,-105 775.8014,-101.3765 791.9636,-98.0646 806.9511,-95.2568"/>
<polygon fill="#191970" stroke="#191970" points="672.9698,-126.9124 664.5475,-133.3401 675.1399,-133.5675 672.9698,-126.9124"/>
</g>
<!-- Node60 -->
<g id="node14" class="node">
<title>Node60</title>
<g id="a_node14"><a xlink:href="classSprite.html#aedfac1c3b8a22c5ae4d97bd9586a6a26" target="_top" xlink:title="Sprite::getActiveDestRect">
<polygon fill="none" stroke="#000000" points="792,-38.5 792,-57.5 933,-57.5 933,-38.5 792,-38.5"/>
<text text-anchor="middle" x="862.5" y="-45.5" font-family="Helvetica,sans-Serif" font-size="10.00" fill="#000000">Sprite::getActiveDestRect</text>
</a>
</g>
</g>
<!-- Node50&#45;&gt;Node60 -->
<g id="edge13" class="edge">
<title>Node50&#45;&gt;Node60</title>
<path fill="none" stroke="#191970" d="M659.6483,-127.9874C692.8197,-107.0278 750.3225,-71.0883 761,-67 771.1291,-63.1217 782.1395,-60.0154 793.0489,-57.5327"/>
<polygon fill="#191970" stroke="#191970" points="657.5748,-125.1577 650.9967,-133.463 661.3183,-131.0726 657.5748,-125.1577"/>
</g>
<!-- Node52 -->
<g id="node6" class="node">
<title>Node52</title>
<g id="a_node6"><a xlink:href="classMapNode.html#a0b089ef93b46bbfed8ccf71dc516c4ef" target="_top" xlink:title="MapNode::getActiveMapNodeData">
<polygon fill="none" stroke="#000000" points="1000,-306.5 1000,-325.5 1184,-325.5 1184,-306.5 1000,-306.5"/>
<text text-anchor="middle" x="1092" y="-313.5" font-family="Helvetica,sans-Serif" font-size="10.00" fill="#000000">MapNode::getActiveMapNodeData</text>
</a>
</g>
</g>
<!-- Node51&#45;&gt;Node52 -->
<g id="edge5" class="edge">
<title>Node51&#45;&gt;Node52</title>
<path fill="none" stroke="#191970" d="M950.6374,-316C966.7061,-316 983.5117,-316 999.6972,-316"/>
<polygon fill="#191970" stroke="#191970" points="950.1983,-312.5001 940.1982,-316 950.1982,-319.5001 950.1983,-312.5001"/>
</g>
<!-- Node53 -->
<g id="node7" class="node">
<title>Node53</title>
<g id="a_node7"><a xlink:href="classMap.html#a0241b997090783e5d13667114731a592" target="_top" xlink:title="Debug MapNodeData to Console Used as Tile&#45;Inspector until we implement a GUI variant. ">
<polygon fill="none" stroke="#000000" points="1220,-290 1220,-342 1439,-342 1439,-290 1220,-290"/>
<text text-anchor="start" x="1228" y="-330" font-family="Helvetica,sans-Serif" font-size="10.00" fill="#000000">Map&lt; ObserverSPtr&lt;</text>
<text text-anchor="start" x="1228" y="-319" font-family="Helvetica,sans-Serif" font-size="10.00" fill="#000000"> Notification &gt;, Set</text>
<text text-anchor="start" x="1228" y="-308" font-family="Helvetica,sans-Serif" font-size="10.00" fill="#000000">&lt; typename Notification</text>
<text text-anchor="middle" x="1329.5" y="-297" font-family="Helvetica,sans-Serif" font-size="10.00" fill="#000000">::TransitionType &gt; &gt;::getNodeInformation</text>
</a>
</g>
</g>
<!-- Node52&#45;&gt;Node53 -->
<g id="edge6" class="edge">
<title>Node52&#45;&gt;Node53</title>
<path fill="none" stroke="#191970" d="M1194.4198,-316C1202.8836,-316 1211.4603,-316 1219.9733,-316"/>
<polygon fill="#191970" stroke="#191970" points="1194.1637,-312.5001 1184.1636,-316 1194.1636,-319.5001 1194.1637,-312.5001"/>
</g>
<!-- Node57 -->
<g id="node11" class="node">
<title>Node57</title>
<g id="a_node11"><a xlink:href="classMap.html#a8ffaf087a7bf669a890301a1efad6976" target="_top" xlink:title="Map\&lt; ObserverSPtr\&lt;\l Notification \&gt;, Set\l\&lt; typename Notification\l::TransitionType \&gt; \&gt;::renderMap">
<polygon fill="none" stroke="#000000" points="1005.5,-136 1005.5,-188 1178.5,-188 1178.5,-136 1005.5,-136"/>
<text text-anchor="start" x="1013.5" y="-176" font-family="Helvetica,sans-Serif" font-size="10.00" fill="#000000">Map&lt; ObserverSPtr&lt;</text>
<text text-anchor="start" x="1013.5" y="-165" font-family="Helvetica,sans-Serif" font-size="10.00" fill="#000000"> Notification &gt;, Set</text>
<text text-anchor="start" x="1013.5" y="-154" font-family="Helvetica,sans-Serif" font-size="10.00" fill="#000000">&lt; typename Notification</text>
<text text-anchor="middle" x="1092" y="-143" font-family="Helvetica,sans-Serif" font-size="10.00" fill="#000000">::TransitionType &gt; &gt;::renderMap</text>
</a>
</g>
</g>
<!-- Node56&#45;&gt;Node57 -->
<g id="edge10" class="edge">
<title>Node56&#45;&gt;Node57</title>
<path fill="none" stroke="#191970" d="M914.3542,-162C941.1356,-162 974.5313,-162 1005.1158,-162"/>
<polygon fill="#191970" stroke="#191970" points="914.0608,-158.5001 904.0607,-162 914.0607,-165.5001 914.0608,-158.5001"/>
</g>
<!-- Node62 -->
<g id="node16" class="node">
<title>Node62</title>
<g id="a_node16"><a xlink:href="classUIManager.html#aedd9d0577af515a852425dfe414b2968" target="_top" xlink:title="Parses the UiLayout.json files and creates UI Elements. ">
<polygon fill="none" stroke="#000000" points="817,-.5 817,-19.5 908,-19.5 908,-.5 817,-.5"/>
<text text-anchor="middle" x="862.5" y="-7.5" font-family="Helvetica,sans-Serif" font-size="10.00" fill="#000000">UIManager::init</text>
</a>
</g>
</g>
<!-- Node61&#45;&gt;Node62 -->
<g id="edge15" class="edge">
<title>Node61&#45;&gt;Node62</title>
<path fill="none" stroke="#191970" d="M674.2184,-54.1867C698.8126,-46.2389 731.5674,-36.2054 761,-29 779.1099,-24.5665 799.257,-20.5995 816.7972,-17.4517"/>
<polygon fill="#191970" stroke="#191970" points="672.9698,-50.9124 664.5475,-57.3401 675.1399,-57.5675 672.9698,-50.9124"/>
</g>
<!-- Node63 -->
<g id="node17" class="node">
<title>Node63</title>
<g id="a_node17"><a xlink:href="classGame.html#a1c2ab25d5216b2f4b2fe41efd2c09114" target="_top" xlink:title="begins the game starts running the game ">
<polygon fill="none" stroke="#000000" points="1058,-.5 1058,-19.5 1126,-19.5 1126,-.5 1058,-.5"/>
<text text-anchor="middle" x="1092" y="-7.5" font-family="Helvetica,sans-Serif" font-size="10.00" fill="#000000">Game::run</text>
</a>
</g>
</g>
<!-- Node62&#45;&gt;Node63 -->
<g id="edge16" class="edge">
<title>Node62&#45;&gt;Node63</title>
<path fill="none" stroke="#191970" d="M918.2636,-10C961.7824,-10 1020.8474,-10 1057.6779,-10"/>
<polygon fill="#191970" stroke="#191970" points="918.1162,-6.5001 908.1162,-10 918.1162,-13.5001 918.1162,-6.5001"/>
</g>
<!-- Node64 -->
<g id="node18" class="node">
<title>Node64</title>
<g id="a_node18"><a xlink:href="main_8cxx.html#af582d708d899e67ead623eac34a22387" target="_top" xlink:title="protected_main">
<polygon fill="none" stroke="#000000" points="1283,-.5 1283,-19.5 1376,-19.5 1376,-.5 1283,-.5"/>
<text text-anchor="middle" x="1329.5" y="-7.5" font-family="Helvetica,sans-Serif" font-size="10.00" fill="#000000">protected_main</text>
</a>
</g>
</g>
<!-- Node63&#45;&gt;Node64 -->
<g id="edge17" class="edge">
<title>Node63&#45;&gt;Node64</title>
<path fill="none" stroke="#191970" d="M1136.1723,-10C1177.9211,-10 1240.3302,-10 1282.8677,-10"/>
<polygon fill="#191970" stroke="#191970" points="1136.028,-6.5001 1126.028,-10 1136.0279,-13.5001 1136.028,-6.5001"/>
</g>
<!-- Node65 -->
<g id="node19" class="node">
<title>Node65</title>
<g id="a_node19"><a xlink:href="main_8cxx.html#a3c04138a5bfe5d72780bb7e82a18e627" target="_top" xlink:title="main">
<polygon fill="none" stroke="#000000" points="1475,-.5 1475,-19.5 1516,-19.5 1516,-.5 1475,-.5"/>
<text text-anchor="middle" x="1495.5" y="-7.5" font-family="Helvetica,sans-Serif" font-size="10.00" fill="#000000">main</text>
</a>
</g>
</g>
<!-- Node64&#45;&gt;Node65 -->
<g id="edge18" class="edge">
<title>Node64&#45;&gt;Node65</title>
<path fill="none" stroke="#191970" d="M1386.3151,-10C1416.8722,-10 1452.7048,-10 1474.7554,-10"/>
<polygon fill="#191970" stroke="#191970" points="1386.182,-6.5001 1376.182,-10 1386.182,-13.5001 1386.182,-6.5001"/>
</g>
</g>
</svg>
