<?xml version="1.0" encoding="UTF-8" standalone="no"?>
<!DOCTYPE svg PUBLIC "-//W3C//DTD SVG 1.1//EN"
 "http://www.w3.org/Graphics/SVG/1.1/DTD/svg11.dtd">
<!-- Generated by graphviz version 2.40.1 (20161225.0304)
 -->
<!-- Title: Text::createTextTexture Pages: 1 -->
<svg width="287pt" height="154pt"
 viewBox="0.00 0.00 287.00 154.00" xmlns="http://www.w3.org/2000/svg" xmlns:xlink="http://www.w3.org/1999/xlink">
<g id="graph0" class="graph" transform="scale(1 1) rotate(0) translate(4 150)">
<title>Text::createTextTexture</title>
<!-- Node16 -->
<g id="node1" class="node">
<title>Node16</title>
<polygon fill="#bfbfbf" stroke="#000000" points="0,-60.5 0,-79.5 130,-79.5 130,-60.5 0,-60.5"/>
<text text-anchor="middle" x="65" y="-67.5" font-family="Helvetica,sans-Serif" font-size="10.00" fill="#000000">Text::createTextTexture</text>
</g>
<!-- Node17 -->
<g id="node2" class="node">
<title>Node17</title>
<g id="a_node2"><a xlink:href="namespacefs.html#a28e4c1324680c188092ecfe5fd8a91a3" target="_top" xlink:title="fs::getBasePath">
<polygon fill="none" stroke="#000000" points="176.5,-126.5 176.5,-145.5 268.5,-145.5 268.5,-126.5 176.5,-126.5"/>
<text text-anchor="middle" x="222.5" y="-133.5" font-family="Helvetica,sans-Serif" font-size="10.00" fill="#000000">fs::getBasePath</text>
</a>
</g>
</g>
<!-- Node16&#45;&gt;Node17 -->
<g id="edge1" class="edge">
<title>Node16&#45;&gt;Node17</title>
<path fill="none" stroke="#191970" d="M84.0831,-79.6566C104.1866,-89.6449 136.9034,-105.3794 166,-117 171.2258,-119.0871 176.7806,-121.1448 182.289,-123.0913"/>
<polygon fill="#191970" stroke="#191970" points="181.478,-126.5136 192.0727,-126.4576 183.7555,-119.8944 181.478,-126.5136"/>
</g>
<!-- Node18 -->
<g id="node3" class="node">
<title>Node18</title>
<g id="a_node3"><a xlink:href="classSingleton.html#af5cb1e5749949e2b68416cfb8d378044" target="_top" xlink:title="Get an instance of the singleton. ">
<polygon fill="none" stroke="#000000" points="166,-77 166,-107 279,-107 279,-77 166,-77"/>
<text text-anchor="start" x="174" y="-95" font-family="Helvetica,sans-Serif" font-size="10.00" fill="#000000">Singleton&lt; Settings</text>
<text text-anchor="middle" x="222.5" y="-84" font-family="Helvetica,sans-Serif" font-size="10.00" fill="#000000"> &gt;::instance</text>
</a>
</g>
</g>
<!-- Node16&#45;&gt;Node18 -->
<g id="edge2" class="edge">
<title>Node16&#45;&gt;Node18</title>
<path fill="none" stroke="#191970" d="M130.4259,-79.1389C138.7178,-80.2971 147.2128,-81.4837 155.5285,-82.6452"/>
<polygon fill="#191970" stroke="#191970" points="155.1691,-86.1289 165.5571,-84.0461 156.1375,-79.1962 155.1691,-86.1289"/>
</g>
<!-- Node19 -->
<g id="node4" class="node">
<title>Node19</title>
<g id="a_node4"><a xlink:href="structStrongType.html#acc66e6d6b9c95193a97a839560499933" target="_top" xlink:title="StrongType::get">
<polygon fill="none" stroke="#000000" points="176.5,-38.5 176.5,-57.5 268.5,-57.5 268.5,-38.5 176.5,-38.5"/>
<text text-anchor="middle" x="222.5" y="-45.5" font-family="Helvetica,sans-Serif" font-size="10.00" fill="#000000">StrongType::get</text>
</a>
</g>
</g>
<!-- Node16&#45;&gt;Node19 -->
<g id="edge3" class="edge">
<title>Node16&#45;&gt;Node19</title>
<path fill="none" stroke="#191970" d="M130.4259,-60.8611C142.323,-59.1993 154.6381,-57.4791 166.2419,-55.8583"/>
<polygon fill="#191970" stroke="#191970" points="166.8081,-59.3133 176.2277,-54.4634 165.8397,-52.3806 166.8081,-59.3133"/>
</g>
<!-- Node20 -->
<g id="node5" class="node">
<title>Node20</title>
<g id="a_node5"><a xlink:href="namespacefs.html#a000d1f9ae14d782b6193298e6d27023f" target="_top" xlink:title="fs::fileExists">
<polygon fill="none" stroke="#000000" points="184.5,-.5 184.5,-19.5 260.5,-19.5 260.5,-.5 184.5,-.5"/>
<text text-anchor="middle" x="222.5" y="-7.5" font-family="Helvetica,sans-Serif" font-size="10.00" fill="#000000">fs::fileExists</text>
</a>
</g>
</g>
<!-- Node16&#45;&gt;Node20 -->
<g id="edge4" class="edge">
<title>Node16&#45;&gt;Node20</title>
<path fill="none" stroke="#191970" d="M87.3106,-60.4848C107.6747,-51.9096 138.6737,-39.1303 166,-29 171.5947,-26.926 177.5352,-24.8224 183.382,-22.8078"/>
<polygon fill="#191970" stroke="#191970" points="184.7124,-26.0524 193.0556,-19.5223 182.4612,-19.4242 184.7124,-26.0524"/>
</g>
</g>
</svg>
