<?xml version="1.0" encoding="UTF-8" standalone="no"?>
<!DOCTYPE svg PUBLIC "-//W3C//DTD SVG 1.1//EN"
 "http://www.w3.org/Graphics/SVG/1.1/DTD/svg11.dtd">
<!-- Generated by graphviz version 2.40.1 (20161225.0304)
 -->
<!-- Title: Map::nodeIdx Pages: 1 -->
<!--zoomable 877 -->
<svg id="main" version="1.1" xmlns="http://www.w3.org/2000/svg" xmlns:xlink="http://www.w3.org/1999/xlink" xml:space="preserve" onload="init(evt)">
<style type="text/css"><![CDATA[
.edge:hover path { stroke: red; }
.edge:hover polygon { stroke: red; fill: red; }
]]></style>
<script type="text/javascript"><![CDATA[
var edges = document.getElementsByTagName('g');
if (edges && edges.length) {
  for (var i=0;i<edges.length;i++) {
    if (edges[i].id.substr(0,4)=='edge') {
      edges[i].setAttribute('class','edge');
    }
  }
}
]]></script>
        <defs>
                <circle id="rim" cx="0" cy="0" r="7"/>
                <circle id="rim2" cx="0" cy="0" r="3.5"/>
                <g id="zoomPlus">
                        <use xlink:href="#rim" fill="#404040">
                                <set attributeName="fill" to="#808080" begin="zoomplus.mouseover" end="zoomplus.mouseout"/>
                        </use>
                        <path d="M-4,0h8M0,-4v8" fill="none" stroke="white" stroke-width="1.5" pointer-events="none"/>
                </g>
                <g id="zoomMin">
                        <use xlink:href="#rim" fill="#404040">
                                <set attributeName="fill" to="#808080" begin="zoomminus.mouseover" end="zoomminus.mouseout"/>
                        </use>
                        <path d="M-4,0h8" fill="none" stroke="white" stroke-width="1.5" pointer-events="none"/>
                </g>
                <g id="dirArrow">
                        <path fill="none" stroke="white" stroke-width="1.5" d="M0,-3.0v7 M-2.5,-0.5L0,-3.0L2.5,-0.5"/>
                </g>
               <g id="resetDef">
                       <use xlink:href="#rim2" fill="#404040">
                               <set attributeName="fill" to="#808080" begin="reset.mouseover" end="reset.mouseout"/>
                       </use>
               </g>
        </defs>

<script type="text/javascript">
var viewWidth = 345;
var viewHeight = 877;
var sectionId = 'dynsection-22';
</script>
<script xlink:href="svgpan.js"/>
<svg id="graph" class="graph">
<g id="viewport">
<title>Map::nodeIdx</title>
<!-- Node119 -->
<g id="node1" class="node">
<title>Node119</title>
<polygon fill="#bfbfbf" stroke="#000000" points="0,-418.5 0,-437.5 82,-437.5 82,-418.5 0,-418.5"/>
<text text-anchor="middle" x="41" y="-425.5" font-family="Helvetica,sans-Serif" font-size="10.00" fill="#000000">Map::nodeIdx</text>
</g>
<!-- Node120 -->
<g id="node2" class="node">
<title>Node120</title>
<g id="a_node2"><a xlink:href="classMap.html#a0241b997090783e5d13667114731a592" target="_top" xlink:title="Debug MapNodeData to Console Used as Tile&#45;Inspector until we implement a GUI variant. ">
<polygon fill="none" stroke="#000000" points="118,-816 118,-868 337,-868 337,-816 118,-816"/>
<text text-anchor="start" x="126" y="-856" font-family="Helvetica,sans-Serif" font-size="10.00" fill="#000000">Map&lt; ObserverSPtr&lt;</text>
<text text-anchor="start" x="126" y="-845" font-family="Helvetica,sans-Serif" font-size="10.00" fill="#000000"> Notification &gt;, Set</text>
<text text-anchor="start" x="126" y="-834" font-family="Helvetica,sans-Serif" font-size="10.00" fill="#000000">&lt; typename Notification</text>
<text text-anchor="middle" x="227.5" y="-823" font-family="Helvetica,sans-Serif" font-size="10.00" fill="#000000">::TransitionType &gt; &gt;::getNodeInformation</text>
</a>
</g>
</g>
<!-- Node119&#45;&gt;Node120 -->
<g id="edge1" class="edge">
<title>Node119&#45;&gt;Node120</title>
<path fill="none" stroke="#191970" d="M42.4364,-448.0056C47.8714,-518.3187 69.3851,-752.7784 118,-807 120.9311,-810.2691 124.1671,-813.2349 127.634,-815.9252"/>
<polygon fill="#191970" stroke="#191970" points="45.9128,-447.5591 41.6763,-437.8482 38.9324,-448.0815 45.9128,-447.5591"/>
</g>
<!-- Node121 -->
<g id="node3" class="node">
<title>Node121</title>
<g id="a_node3"><a xlink:href="classMap.html#ad360682917f0061dbba995d645c56212" target="_top" xlink:title="Map\&lt; ObserverSPtr\&lt;\l Notification \&gt;, Set\l\&lt; typename Notification\l::TransitionType \&gt; \&gt;::getNeighborNodes">
<polygon fill="none" stroke="#000000" points="121.5,-745 121.5,-797 333.5,-797 333.5,-745 121.5,-745"/>
<text text-anchor="start" x="129.5" y="-785" font-family="Helvetica,sans-Serif" font-size="10.00" fill="#000000">Map&lt; ObserverSPtr&lt;</text>
<text text-anchor="start" x="129.5" y="-774" font-family="Helvetica,sans-Serif" font-size="10.00" fill="#000000"> Notification &gt;, Set</text>
<text text-anchor="start" x="129.5" y="-763" font-family="Helvetica,sans-Serif" font-size="10.00" fill="#000000">&lt; typename Notification</text>
<text text-anchor="middle" x="227.5" y="-752" font-family="Helvetica,sans-Serif" font-size="10.00" fill="#000000">::TransitionType &gt; &gt;::getNeighborNodes</text>
</a>
</g>
</g>
<!-- Node119&#45;&gt;Node121 -->
<g id="edge2" class="edge">
<title>Node119&#45;&gt;Node121</title>
<path fill="none" stroke="#191970" d="M43.4128,-447.7093C51.2604,-508.7643 77.8904,-693.2208 118,-736 121.0032,-739.2031 124.2989,-742.1141 127.8146,-744.7596"/>
<polygon fill="#191970" stroke="#191970" points="46.8511,-446.9984 42.131,-437.5131 39.9058,-447.8716 46.8511,-446.9984"/>
</g>
<!-- Node122 -->
<g id="node4" class="node">
<title>Node122</title>
<g id="a_node4"><a xlink:href="classMap.html#ade1eeabf4e539f9dbfe2a96c97fda4e3" target="_top" xlink:title="Map\&lt; ObserverSPtr\&lt;\l Notification \&gt;, Set\l\&lt; typename Notification\l::TransitionType \&gt; \&gt;::changeHeight">
<polygon fill="none" stroke="#000000" points="133.5,-674 133.5,-726 321.5,-726 321.5,-674 133.5,-674"/>
<text text-anchor="start" x="141.5" y="-714" font-family="Helvetica,sans-Serif" font-size="10.00" fill="#000000">Map&lt; ObserverSPtr&lt;</text>
<text text-anchor="start" x="141.5" y="-703" font-family="Helvetica,sans-Serif" font-size="10.00" fill="#000000"> Notification &gt;, Set</text>
<text text-anchor="start" x="141.5" y="-692" font-family="Helvetica,sans-Serif" font-size="10.00" fill="#000000">&lt; typename Notification</text>
<text text-anchor="middle" x="227.5" y="-681" font-family="Helvetica,sans-Serif" font-size="10.00" fill="#000000">::TransitionType &gt; &gt;::changeHeight</text>
</a>
</g>
</g>
<!-- Node119&#45;&gt;Node122 -->
<g id="edge3" class="edge">
<title>Node119&#45;&gt;Node122</title>
<path fill="none" stroke="#191970" d="M45.0151,-447.6058C55.7767,-498.4024 86.5869,-632.516 118,-664 122.5936,-668.604 127.7857,-672.6192 133.3503,-676.121"/>
<polygon fill="#191970" stroke="#191970" points="48.3943,-446.6652 42.9258,-437.5907 41.5418,-448.0948 48.3943,-446.6652"/>
</g>
<!-- Node123 -->
<g id="node5" class="node">
<title>Node123</title>
<g id="a_node5"><a xlink:href="classMap.html#a609379595b9b172ad3d0e6363817c00f" target="_top" xlink:title="Map\&lt; ObserverSPtr\&lt;\l Notification \&gt;, Set\l\&lt; typename Notification\l::TransitionType \&gt; \&gt;::isPlacement\lOnNodeAllowed">
<polygon fill="none" stroke="#000000" points="137,-591.5 137,-654.5 318,-654.5 318,-591.5 137,-591.5"/>
<text text-anchor="start" x="145" y="-642.5" font-family="Helvetica,sans-Serif" font-size="10.00" fill="#000000">Map&lt; ObserverSPtr&lt;</text>
<text text-anchor="start" x="145" y="-631.5" font-family="Helvetica,sans-Serif" font-size="10.00" fill="#000000"> Notification &gt;, Set</text>
<text text-anchor="start" x="145" y="-620.5" font-family="Helvetica,sans-Serif" font-size="10.00" fill="#000000">&lt; typename Notification</text>
<text text-anchor="start" x="145" y="-609.5" font-family="Helvetica,sans-Serif" font-size="10.00" fill="#000000">::TransitionType &gt; &gt;::isPlacement</text>
<text text-anchor="middle" x="227.5" y="-598.5" font-family="Helvetica,sans-Serif" font-size="10.00" fill="#000000">OnNodeAllowed</text>
</a>
</g>
</g>
<!-- Node119&#45;&gt;Node123 -->
<g id="edge4" class="edge">
<title>Node119&#45;&gt;Node123</title>
<path fill="none" stroke="#191970" d="M45.8435,-447.8715C54.735,-480.3232 76.6558,-544.7982 118,-582 123.7341,-587.1596 130.1786,-591.6909 136.9963,-595.6666"/>
<polygon fill="#191970" stroke="#191970" points="49.1353,-446.623 43.2313,-437.8257 42.3606,-448.3847 49.1353,-446.623"/>
</g>
<!-- Node124 -->
<g id="node6" class="node">
<title>Node124</title>
<g id="a_node6"><a xlink:href="classMap.html#a2dda1bb4e2785396a974c950a55aa679" target="_top" xlink:title="Get original corner point of given point within building borders. ">
<polygon fill="none" stroke="#000000" points="136.5,-509.5 136.5,-572.5 318.5,-572.5 318.5,-509.5 136.5,-509.5"/>
<text text-anchor="start" x="144.5" y="-560.5" font-family="Helvetica,sans-Serif" font-size="10.00" fill="#000000">Map&lt; ObserverSPtr&lt;</text>
<text text-anchor="start" x="144.5" y="-549.5" font-family="Helvetica,sans-Serif" font-size="10.00" fill="#000000"> Notification &gt;, Set</text>
<text text-anchor="start" x="144.5" y="-538.5" font-family="Helvetica,sans-Serif" font-size="10.00" fill="#000000">&lt; typename Notification</text>
<text text-anchor="start" x="144.5" y="-527.5" font-family="Helvetica,sans-Serif" font-size="10.00" fill="#000000">::TransitionType &gt; &gt;::getNodeOrig</text>
<text text-anchor="middle" x="227.5" y="-516.5" font-family="Helvetica,sans-Serif" font-size="10.00" fill="#000000">CornerPoint</text>
</a>
</g>
</g>
<!-- Node119&#45;&gt;Node124 -->
<g id="edge5" class="edge">
<title>Node119&#45;&gt;Node124</title>
<path fill="none" stroke="#191970" d="M55.7703,-445.277C70.2452,-461.3021 93.6287,-484.8876 118,-500 123.7793,-503.5837 129.9212,-506.9316 136.2318,-510.044"/>
<polygon fill="#191970" stroke="#191970" points="58.2972,-442.8507 49.0548,-437.6709 53.0497,-447.4838 58.2972,-442.8507"/>
</g>
<!-- Node125 -->
<g id="node7" class="node">
<title>Node125</title>
<g id="a_node7"><a xlink:href="classMap.html#a64e71e521c539cf28828be9978c34889" target="_top" xlink:title="Returns the node at given screencoordinates. ">
<polygon fill="none" stroke="#000000" points="130.5,-438 130.5,-490 324.5,-490 324.5,-438 130.5,-438"/>
<text text-anchor="start" x="138.5" y="-478" font-family="Helvetica,sans-Serif" font-size="10.00" fill="#000000">Map&lt; ObserverSPtr&lt;</text>
<text text-anchor="start" x="138.5" y="-467" font-family="Helvetica,sans-Serif" font-size="10.00" fill="#000000"> Notification &gt;, Set</text>
<text text-anchor="start" x="138.5" y="-456" font-family="Helvetica,sans-Serif" font-size="10.00" fill="#000000">&lt; typename Notification</text>
<text text-anchor="middle" x="227.5" y="-445" font-family="Helvetica,sans-Serif" font-size="10.00" fill="#000000">::TransitionType &gt; &gt;::findNodeInMap</text>
</a>
</g>
</g>
<!-- Node119&#45;&gt;Node125 -->
<g id="edge6" class="edge">
<title>Node119&#45;&gt;Node125</title>
<path fill="none" stroke="#191970" d="M92.4318,-437.9278C104.2165,-440.2026 117.125,-442.6944 130.1405,-445.2067"/>
<polygon fill="#191970" stroke="#191970" points="92.8725,-434.4484 82.3904,-435.9896 91.5458,-441.3215 92.8725,-434.4484"/>
</g>
<!-- Node126 -->
<g id="node8" class="node">
<title>Node126</title>
<g id="a_node8"><a xlink:href="classMap.html#aa8cc2ed983007621bce12dd9d1b8ec5b" target="_top" xlink:title="Demolish a node This function gathers all tiles that should be demolished and invokes the nodes demol...">
<polygon fill="none" stroke="#000000" points="132,-367 132,-419 323,-419 323,-367 132,-367"/>
<text text-anchor="start" x="140" y="-407" font-family="Helvetica,sans-Serif" font-size="10.00" fill="#000000">Map&lt; ObserverSPtr&lt;</text>
<text text-anchor="start" x="140" y="-396" font-family="Helvetica,sans-Serif" font-size="10.00" fill="#000000"> Notification &gt;, Set</text>
<text text-anchor="start" x="140" y="-385" font-family="Helvetica,sans-Serif" font-size="10.00" fill="#000000">&lt; typename Notification</text>
<text text-anchor="middle" x="227.5" y="-374" font-family="Helvetica,sans-Serif" font-size="10.00" fill="#000000">::TransitionType &gt; &gt;::demolishNode</text>
</a>
</g>
</g>
<!-- Node119&#45;&gt;Node126 -->
<g id="edge7" class="edge">
<title>Node119&#45;&gt;Node126</title>
<path fill="none" stroke="#191970" d="M92.3754,-418.3585C104.6334,-416.0581 118.1098,-413.529 131.6592,-410.9862"/>
<polygon fill="#191970" stroke="#191970" points="91.5732,-414.9479 82.3904,-420.2324 92.8644,-421.8278 91.5732,-414.9479"/>
</g>
<!-- Node127 -->
<g id="node9" class="node">
<title>Node127</title>
<g id="a_node9"><a xlink:href="classMap.html#a352929ea8cc2efc4f415c7ec795e1538" target="_top" xlink:title="Map\&lt; ObserverSPtr\&lt;\l Notification \&gt;, Set\l\&lt; typename Notification\l::TransitionType \&gt; \&gt;::isClickWithinTile">
<polygon fill="none" stroke="#000000" points="126,-296 126,-348 329,-348 329,-296 126,-296"/>
<text text-anchor="start" x="134" y="-336" font-family="Helvetica,sans-Serif" font-size="10.00" fill="#000000">Map&lt; ObserverSPtr&lt;</text>
<text text-anchor="start" x="134" y="-325" font-family="Helvetica,sans-Serif" font-size="10.00" fill="#000000"> Notification &gt;, Set</text>
<text text-anchor="start" x="134" y="-314" font-family="Helvetica,sans-Serif" font-size="10.00" fill="#000000">&lt; typename Notification</text>
<text text-anchor="middle" x="227.5" y="-303" font-family="Helvetica,sans-Serif" font-size="10.00" fill="#000000">::TransitionType &gt; &gt;::isClickWithinTile</text>
</a>
</g>
</g>
<!-- Node119&#45;&gt;Node127 -->
<g id="edge8" class="edge">
<title>Node119&#45;&gt;Node127</title>
<path fill="none" stroke="#191970" d="M55.7318,-411.0053C70.179,-395.2834 93.5433,-372.2549 118,-358 124.224,-354.3722 130.863,-351.0528 137.677,-348.0269"/>
<polygon fill="#191970" stroke="#191970" points="53.1028,-408.6945 49.031,-418.4757 58.3137,-413.3686 53.1028,-408.6945"/>
</g>
<!-- Node128 -->
<g id="node10" class="node">
<title>Node128</title>
<g id="a_node10"><a xlink:href="classMap.html#a43b4d0ba19a16c530692e901f6f7421f" target="_top" xlink:title="Sets a node to be highlit This sets a node to be highlit, the highlighting is done during rendering...">
<polygon fill="none" stroke="#000000" points="133,-225 133,-277 322,-277 322,-225 133,-225"/>
<text text-anchor="start" x="141" y="-265" font-family="Helvetica,sans-Serif" font-size="10.00" fill="#000000">Map&lt; ObserverSPtr&lt;</text>
<text text-anchor="start" x="141" y="-254" font-family="Helvetica,sans-Serif" font-size="10.00" fill="#000000"> Notification &gt;, Set</text>
<text text-anchor="start" x="141" y="-243" font-family="Helvetica,sans-Serif" font-size="10.00" fill="#000000">&lt; typename Notification</text>
<text text-anchor="middle" x="227.5" y="-232" font-family="Helvetica,sans-Serif" font-size="10.00" fill="#000000">::TransitionType &gt; &gt;::highlightNode</text>
</a>
</g>
</g>
<!-- Node119&#45;&gt;Node128 -->
<g id="edge9" class="edge">
<title>Node119&#45;&gt;Node128</title>
<path fill="none" stroke="#191970" d="M46.5701,-408.343C56.1669,-377.9742 78.6739,-319.7421 118,-287 122.6137,-283.1587 127.6498,-279.7234 132.9459,-276.6516"/>
<polygon fill="#191970" stroke="#191970" points="43.1424,-407.5876 43.6114,-418.1721 49.8453,-409.6054 43.1424,-407.5876"/>
</g>
<!-- Node129 -->
<g id="node11" class="node">
<title>Node129</title>
<g id="a_node11"><a xlink:href="classMap.html#a5301e6a354460af86af3b32cd43a55ac" target="_top" xlink:title="Map\&lt; ObserverSPtr\&lt;\l Notification \&gt;, Set\l\&lt; typename Notification\l::TransitionType \&gt; \&gt;::getTileID">
<polygon fill="none" stroke="#000000" points="145,-154 145,-206 310,-206 310,-154 145,-154"/>
<text text-anchor="start" x="153" y="-194" font-family="Helvetica,sans-Serif" font-size="10.00" fill="#000000">Map&lt; ObserverSPtr&lt;</text>
<text text-anchor="start" x="153" y="-183" font-family="Helvetica,sans-Serif" font-size="10.00" fill="#000000"> Notification &gt;, Set</text>
<text text-anchor="start" x="153" y="-172" font-family="Helvetica,sans-Serif" font-size="10.00" fill="#000000">&lt; typename Notification</text>
<text text-anchor="middle" x="227.5" y="-161" font-family="Helvetica,sans-Serif" font-size="10.00" fill="#000000">::TransitionType &gt; &gt;::getTileID</text>
</a>
</g>
</g>
<!-- Node119&#45;&gt;Node129 -->
<g id="edge10" class="edge">
<title>Node119&#45;&gt;Node129</title>
<path fill="none" stroke="#191970" d="M42.5314,-408.2428C46.806,-366.7243 62.4975,-269.8212 118,-216 125.6859,-208.5469 134.9417,-202.6367 144.7755,-197.95"/>
<polygon fill="#191970" stroke="#191970" points="39.0276,-408.1261 41.6049,-418.4027 45.9987,-408.7619 39.0276,-408.1261"/>
</g>
<!-- Node130 -->
<g id="node12" class="node">
<title>Node130</title>
<g id="a_node12"><a xlink:href="classMap.html#a4b2fa896a5346d86a4c5a4a84579839a" target="_top" xlink:title="Sets a node to be unhighlit This sets a node to be unhighlit, the highlighting is done during renderi...">
<polygon fill="none" stroke="#000000" points="126,-83 126,-135 329,-135 329,-83 126,-83"/>
<text text-anchor="start" x="134" y="-123" font-family="Helvetica,sans-Serif" font-size="10.00" fill="#000000">Map&lt; ObserverSPtr&lt;</text>
<text text-anchor="start" x="134" y="-112" font-family="Helvetica,sans-Serif" font-size="10.00" fill="#000000"> Notification &gt;, Set</text>
<text text-anchor="start" x="134" y="-101" font-family="Helvetica,sans-Serif" font-size="10.00" fill="#000000">&lt; typename Notification</text>
<text text-anchor="middle" x="227.5" y="-90" font-family="Helvetica,sans-Serif" font-size="10.00" fill="#000000">::TransitionType &gt; &gt;::unHighlightNode</text>
</a>
</g>
</g>
<!-- Node119&#45;&gt;Node130 -->
<g id="edge11" class="edge">
<title>Node119&#45;&gt;Node130</title>
<path fill="none" stroke="#191970" d="M43.8807,-408.4012C52.7054,-350.8499 81.0261,-183.9476 118,-145 121.4444,-141.3717 125.2604,-138.1087 129.3425,-135.1743"/>
<polygon fill="#191970" stroke="#191970" points="40.4057,-407.9737 42.3789,-418.3831 47.3278,-409.0152 40.4057,-407.9737"/>
</g>
<!-- Node131 -->
<g id="node13" class="node">
<title>Node131</title>
<g id="a_node13"><a xlink:href="classMap.html#af654ddecf0d25b836d7c9c27ee5c2150" target="_top" xlink:title="Map\&lt; ObserverSPtr\&lt;\l Notification \&gt;, Set\l\&lt; typename Notification\l::TransitionType \&gt; \&gt;::calculate\lVisibleMap">
<polygon fill="none" stroke="#000000" points="145,-.5 145,-63.5 310,-63.5 310,-.5 145,-.5"/>
<text text-anchor="start" x="153" y="-51.5" font-family="Helvetica,sans-Serif" font-size="10.00" fill="#000000">Map&lt; ObserverSPtr&lt;</text>
<text text-anchor="start" x="153" y="-40.5" font-family="Helvetica,sans-Serif" font-size="10.00" fill="#000000"> Notification &gt;, Set</text>
<text text-anchor="start" x="153" y="-29.5" font-family="Helvetica,sans-Serif" font-size="10.00" fill="#000000">&lt; typename Notification</text>
<text text-anchor="start" x="153" y="-18.5" font-family="Helvetica,sans-Serif" font-size="10.00" fill="#000000">::TransitionType &gt; &gt;::calculate</text>
<text text-anchor="middle" x="227.5" y="-7.5" font-family="Helvetica,sans-Serif" font-size="10.00" fill="#000000">VisibleMap</text>
</a>
</g>
</g>
<!-- Node119&#45;&gt;Node131 -->
<g id="edge12" class="edge">
<title>Node119&#45;&gt;Node131</title>
<path fill="none" stroke="#191970" d="M42.8545,-408.1135C49.4623,-341.1851 73.8519,-125.4298 118,-74 125.3604,-65.4256 134.676,-58.5949 144.753,-53.155"/>
<polygon fill="#191970" stroke="#191970" points="39.3604,-407.8849 41.8859,-418.1743 46.3282,-408.5558 39.3604,-407.8849"/>
</g>
</g>
</svg>
        <g id="navigator" transform="translate(0 0)" fill="#404254">
                <rect fill="#f2f5e9" fill-opacity="0.5" stroke="#606060" stroke-width=".5" x="0" y="0" width="60" height="60"/>
                <use id="zoomplus" xlink:href="#zoomPlus" x="17" y="9" onmousedown="handleZoom(evt,'in')"/>
                <use id="zoomminus" xlink:href="#zoomMin" x="42" y="9" onmousedown="handleZoom(evt,'out')"/>
                <use id="reset" xlink:href="#resetDef" x="30" y="36" onmousedown="handleReset()"/>
                <g id="arrowUp" xlink:href="#dirArrow" transform="translate(30 24)" onmousedown="handlePan(0,-1)">
                  <use xlink:href="#rim" fill="#404040">
                        <set attributeName="fill" to="#808080" begin="arrowUp.mouseover" end="arrowUp.mouseout"/>
                  </use>
                  <path fill="none" stroke="white" stroke-width="1.5" d="M0,-3.0v7 M-2.5,-0.5L0,-3.0L2.5,-0.5"/>
                </g>
                <g id="arrowRight" xlink:href="#dirArrow" transform="rotate(90) translate(36 -43)" onmousedown="handlePan(1,0)">
                  <use xlink:href="#rim" fill="#404040">
                        <set attributeName="fill" to="#808080" begin="arrowRight.mouseover" end="arrowRight.mouseout"/>
                  </use>
                  <path fill="none" stroke="white" stroke-width="1.5" d="M0,-3.0v7 M-2.5,-0.5L0,-3.0L2.5,-0.5"/>
                </g>
                <g id="arrowDown" xlink:href="#dirArrow" transform="rotate(180) translate(-30 -48)" onmousedown="handlePan(0,1)">
                  <use xlink:href="#rim" fill="#404040">
                        <set attributeName="fill" to="#808080" begin="arrowDown.mouseover" end="arrowDown.mouseout"/>
                  </use>
                  <path fill="none" stroke="white" stroke-width="1.5" d="M0,-3.0v7 M-2.5,-0.5L0,-3.0L2.5,-0.5"/>
                </g>
                <g id="arrowLeft" xlink:href="#dirArrow" transform="rotate(270) translate(-36 17)" onmousedown="handlePan(-1,0)">
                  <use xlink:href="#rim" fill="#404040">
                        <set attributeName="fill" to="#808080" begin="arrowLeft.mouseover" end="arrowLeft.mouseout"/>
                  </use>
                  <path fill="none" stroke="white" stroke-width="1.5" d="M0,-3.0v7 M-2.5,-0.5L0,-3.0L2.5,-0.5"/>
                </g>
        </g>
        <svg viewBox="0 0 15 15" width="100%" height="30px" preserveAspectRatio="xMaxYMin meet">
         <g id="arrow_out" transform="scale(0.3 0.3)">
          <a xlink:href="classMap_a1676db3d125b2c1764adfcb64d6332a2_icgraph_org.svg" target="_base">
           <rect id="button" ry="5" rx="5" y="6" x="6" height="38" width="38"
                fill="#f2f5e9" fill-opacity="0.5" stroke="#606060" stroke-width="1.0"/>
           <path id="arrow"
             d="M 11.500037,31.436501 C 11.940474,20.09759 22.043105,11.32322 32.158766,21.979434 L 37.068811,17.246167 C 37.068811,17.246167 37.088388,32 37.088388,32 L 22.160133,31.978069 C 22.160133,31.978069 26.997745,27.140456 26.997745,27.140456 C 18.528582,18.264221 13.291696,25.230495 11.500037,31.436501 z"
             style="fill:#404040;"/>
          </a>
         </g>
        </svg>
</svg>
