<?xml version="1.0" encoding="UTF-8" standalone="no"?>
<!DOCTYPE svg PUBLIC "-//W3C//DTD SVG 1.1//EN"
 "http://www.w3.org/Graphics/SVG/1.1/DTD/svg11.dtd">
<!-- Generated by graphviz version 2.40.1 (20161225.0304)
 -->
<!-- Title: TileManager::getAllTileData Pages: 1 -->
<svg width="1189pt" height="178pt"
 viewBox="0.00 0.00 1189.00 177.50" xmlns="http://www.w3.org/2000/svg" xmlns:xlink="http://www.w3.org/1999/xlink">
<g id="graph0" class="graph" transform="scale(1 1) rotate(0) translate(4 173.5)">
<title>TileManager::getAllTileData</title>
<!-- Node45 -->
<g id="node1" class="node">
<title>Node45</title>
<polygon fill="#bfbfbf" stroke="#000000" points="0,-74 0,-93 152,-93 152,-74 0,-74"/>
<text text-anchor="middle" x="76" y="-81" font-family="Helvetica,sans-Serif" font-size="10.00" fill="#000000">TileManager::getAllTileData</text>
</g>
<!-- Node46 -->
<g id="node2" class="node">
<title>Node46</title>
<g id="a_node2"><a xlink:href="classTileManager.html#a1575d9a9530e13fe0286b8fece9e47ea" target="_top" xlink:title="TileManager::init">
<polygon fill="none" stroke="#000000" points="375,-93 375,-112 473,-112 473,-93 375,-93"/>
<text text-anchor="middle" x="424" y="-100" font-family="Helvetica,sans-Serif" font-size="10.00" fill="#000000">TileManager::init</text>
</a>
</g>
</g>
<!-- Node45&#45;&gt;Node46 -->
<g id="edge1" class="edge">
<title>Node45&#45;&gt;Node46</title>
<path fill="none" stroke="#191970" d="M121.5521,-93.0123C141.8001,-96.7778 165.989,-100.6462 188,-102.5 247.9078,-107.5454 316.6737,-106.807 364.4614,-105.2575"/>
<polygon fill="#191970" stroke="#191970" points="364.7573,-108.7494 374.6301,-104.9053 364.5149,-101.7536 364.7573,-108.7494"/>
</g>
<!-- Node56 -->
<g id="node12" class="node">
<title>Node56</title>
<g id="a_node12"><a xlink:href="classTileManager.html#ac6f5d9eb4db57f9ad597223658574394" target="_top" xlink:title="TileManager::TileManager">
<polygon fill="none" stroke="#000000" points="192,-74 192,-93 335,-93 335,-74 192,-74"/>
<text text-anchor="middle" x="263.5" y="-81" font-family="Helvetica,sans-Serif" font-size="10.00" fill="#000000">TileManager::TileManager</text>
</a>
</g>
</g>
<!-- Node45&#45;&gt;Node56 -->
<g id="edge12" class="edge">
<title>Node45&#45;&gt;Node56</title>
<path fill="none" stroke="#191970" d="M152.2634,-83.5C161.9705,-83.5 171.9369,-83.5 181.7261,-83.5"/>
<polygon fill="#191970" stroke="#191970" points="181.8452,-87.0001 191.8452,-83.5 181.8451,-80.0001 181.8452,-87.0001"/>
</g>
<!-- Node57 -->
<g id="node13" class="node">
<title>Node57</title>
<g id="a_node13"><a xlink:href="classTileManager.html#aa1bf592b26c102ada6af58cc1f7957cf" target="_top" xlink:title="TileManager::~TileManager">
<polygon fill="none" stroke="#000000" points="188,-36 188,-55 339,-55 339,-36 188,-36"/>
<text text-anchor="middle" x="263.5" y="-43" font-family="Helvetica,sans-Serif" font-size="10.00" fill="#000000">TileManager::~TileManager</text>
</a>
</g>
</g>
<!-- Node45&#45;&gt;Node57 -->
<g id="edge14" class="edge">
<title>Node45&#45;&gt;Node57</title>
<path fill="none" stroke="#191970" d="M123.3142,-73.911C148.6141,-68.7835 179.9502,-62.4328 206.575,-57.0368"/>
<polygon fill="#191970" stroke="#191970" points="207.4205,-60.4367 216.5261,-55.0201 206.0301,-53.5762 207.4205,-60.4367"/>
</g>
<!-- Node47 -->
<g id="node3" class="node">
<title>Node47</title>
<g id="a_node3"><a xlink:href="namespacefs.html#ac2d9a48234828392a1f6a6dfce785830" target="_top" xlink:title="Read contents from a file as string. ">
<polygon fill="none" stroke="#000000" points="532,-150 532,-169 642,-169 642,-150 532,-150"/>
<text text-anchor="middle" x="587" y="-157" font-family="Helvetica,sans-Serif" font-size="10.00" fill="#000000">fs::readFileAsString</text>
</a>
</g>
</g>
<!-- Node46&#45;&gt;Node47 -->
<g id="edge2" class="edge">
<title>Node46&#45;&gt;Node47</title>
<path fill="none" stroke="#191970" d="M447.2836,-112.06C464.2718,-118.9073 487.9161,-128.1742 509,-135.5 520.3863,-139.4563 532.8193,-143.4337 544.3458,-146.9812"/>
<polygon fill="#191970" stroke="#191970" points="543.6068,-150.4147 554.1926,-149.9767 545.6442,-143.7177 543.6068,-150.4147"/>
</g>
<!-- Node48 -->
<g id="node4" class="node">
<title>Node48</title>
<g id="a_node4"><a xlink:href="classSingleton.html#af5cb1e5749949e2b68416cfb8d378044" target="_top" xlink:title="Get an instance of the singleton. ">
<polygon fill="none" stroke="#000000" points="730,-87.5 730,-117.5 843,-117.5 843,-87.5 730,-87.5"/>
<text text-anchor="start" x="738" y="-105.5" font-family="Helvetica,sans-Serif" font-size="10.00" fill="#000000">Singleton&lt; Settings</text>
<text text-anchor="middle" x="786.5" y="-94.5" font-family="Helvetica,sans-Serif" font-size="10.00" fill="#000000"> &gt;::instance</text>
</a>
</g>
</g>
<!-- Node46&#45;&gt;Node48 -->
<g id="edge3" class="edge">
<title>Node46&#45;&gt;Node48</title>
<path fill="none" stroke="#191970" d="M473.2656,-102.5C537.0132,-102.5 648.3356,-102.5 719.6644,-102.5"/>
<polygon fill="#191970" stroke="#191970" points="719.8878,-106.0001 729.8878,-102.5 719.8877,-99.0001 719.8878,-106.0001"/>
</g>
<!-- Node49 -->
<g id="node5" class="node">
<title>Node49</title>
<g id="a_node5"><a xlink:href="structStrongType.html#acc66e6d6b9c95193a97a839560499933" target="_top" xlink:title="StrongType::get">
<polygon fill="none" stroke="#000000" points="541,-74 541,-93 633,-93 633,-74 541,-74"/>
<text text-anchor="middle" x="587" y="-81" font-family="Helvetica,sans-Serif" font-size="10.00" fill="#000000">StrongType::get</text>
</a>
</g>
</g>
<!-- Node46&#45;&gt;Node49 -->
<g id="edge4" class="edge">
<title>Node46&#45;&gt;Node49</title>
<path fill="none" stroke="#191970" d="M473.3477,-96.7478C491.4526,-94.6374 512.0785,-92.2332 530.7443,-90.0574"/>
<polygon fill="#191970" stroke="#191970" points="531.3565,-93.5098 540.884,-88.8755 530.546,-86.5569 531.3565,-93.5098"/>
</g>
<!-- Node50 -->
<g id="node6" class="node">
<title>Node50</title>
<g id="a_node6"><a xlink:href="classTileManager.html#a9e03faf9425ee26a2f5fb1fa4c94d173" target="_top" xlink:title="TileManager::addJSONObject\lToTileData">
<polygon fill="none" stroke="#000000" points="509,-24.5 509,-54.5 665,-54.5 665,-24.5 509,-24.5"/>
<text text-anchor="start" x="517" y="-42.5" font-family="Helvetica,sans-Serif" font-size="10.00" fill="#000000">TileManager::addJSONObject</text>
<text text-anchor="middle" x="587" y="-31.5" font-family="Helvetica,sans-Serif" font-size="10.00" fill="#000000">ToTileData</text>
</a>
</g>
</g>
<!-- Node46&#45;&gt;Node50 -->
<g id="edge5" class="edge">
<title>Node46&#45;&gt;Node50</title>
<path fill="none" stroke="#191970" d="M443.6624,-92.9664C460.7257,-84.8732 486.2021,-73.2191 509,-64.5 514.9271,-62.2332 521.1579,-59.997 527.4065,-57.8496"/>
<polygon fill="#191970" stroke="#191970" points="528.8363,-61.0615 537.1992,-54.5567 526.6052,-54.4266 528.8363,-61.0615"/>
</g>
<!-- Node50&#45;&gt;Node48 -->
<g id="edge6" class="edge">
<title>Node50&#45;&gt;Node48</title>
<path fill="none" stroke="#191970" d="M634.5318,-54.51C662.9031,-63.4694 699.1232,-74.9073 729.086,-84.3693"/>
<polygon fill="#191970" stroke="#191970" points="728.3972,-87.8221 738.987,-87.4959 730.5052,-81.147 728.3972,-87.8221"/>
</g>
<!-- Node51 -->
<g id="node7" class="node">
<title>Node51</title>
<g id="a_node7"><a xlink:href="classResourcesManager.html#ab376a89547592db4cca25309eac2931c" target="_top" xlink:title="ResourcesManager::loadTexture">
<polygon fill="none" stroke="#000000" points="701,-30 701,-49 872,-49 872,-30 701,-30"/>
<text text-anchor="middle" x="786.5" y="-37" font-family="Helvetica,sans-Serif" font-size="10.00" fill="#000000">ResourcesManager::loadTexture</text>
</a>
</g>
</g>
<!-- Node50&#45;&gt;Node51 -->
<g id="edge7" class="edge">
<title>Node50&#45;&gt;Node51</title>
<path fill="none" stroke="#191970" d="M665.2751,-39.5C673.6703,-39.5 682.2787,-39.5 690.8466,-39.5"/>
<polygon fill="#191970" stroke="#191970" points="690.8709,-43.0001 700.8709,-39.5 690.8709,-36.0001 690.8709,-43.0001"/>
</g>
<!-- Node52 -->
<g id="node8" class="node">
<title>Node52</title>
<g id="a_node8"><a xlink:href="classResourcesManager.html#a54721d26f52c4887b735d2cdaf60b078" target="_top" xlink:title="ResourcesManager::create\lSurfaceFromFile">
<polygon fill="none" stroke="#000000" points="908,-49.5 908,-79.5 1053,-79.5 1053,-49.5 908,-49.5"/>
<text text-anchor="start" x="916" y="-67.5" font-family="Helvetica,sans-Serif" font-size="10.00" fill="#000000">ResourcesManager::create</text>
<text text-anchor="middle" x="980.5" y="-56.5" font-family="Helvetica,sans-Serif" font-size="10.00" fill="#000000">SurfaceFromFile</text>
</a>
</g>
</g>
<!-- Node51&#45;&gt;Node52 -->
<g id="edge8" class="edge">
<title>Node51&#45;&gt;Node52</title>
<path fill="none" stroke="#191970" d="M860.3965,-49.0227C872.5265,-50.5859 885.1683,-52.215 897.5017,-53.8043"/>
<polygon fill="#191970" stroke="#191970" points="897.4057,-57.3208 907.7711,-55.1277 898.3005,-50.3782 897.4057,-57.3208"/>
</g>
<!-- Node55 -->
<g id="node11" class="node">
<title>Node55</title>
<g id="a_node11"><a xlink:href="classResourcesManager.html#ad7712ca96233a151d8bc22cd2ba17d01" target="_top" xlink:title="ResourcesManager::create\lTextureFromSurface">
<polygon fill="none" stroke="#000000" points="908,-.5 908,-30.5 1053,-30.5 1053,-.5 908,-.5"/>
<text text-anchor="start" x="916" y="-18.5" font-family="Helvetica,sans-Serif" font-size="10.00" fill="#000000">ResourcesManager::create</text>
<text text-anchor="middle" x="980.5" y="-7.5" font-family="Helvetica,sans-Serif" font-size="10.00" fill="#000000">TextureFromSurface</text>
</a>
</g>
</g>
<!-- Node51&#45;&gt;Node55 -->
<g id="edge11" class="edge">
<title>Node51&#45;&gt;Node55</title>
<path fill="none" stroke="#191970" d="M863.4526,-29.9801C874.7438,-28.5832 886.414,-27.1395 897.8145,-25.7291"/>
<polygon fill="#191970" stroke="#191970" points="898.2528,-29.2017 907.7474,-24.5003 897.3933,-22.2546 898.2528,-29.2017"/>
</g>
<!-- Node53 -->
<g id="node9" class="node">
<title>Node53</title>
<g id="a_node9"><a xlink:href="namespacefs.html#a28e4c1324680c188092ecfe5fd8a91a3" target="_top" xlink:title="fs::getBasePath">
<polygon fill="none" stroke="#000000" points="1089,-74 1089,-93 1181,-93 1181,-74 1089,-74"/>
<text text-anchor="middle" x="1135" y="-81" font-family="Helvetica,sans-Serif" font-size="10.00" fill="#000000">fs::getBasePath</text>
</a>
</g>
</g>
<!-- Node52&#45;&gt;Node53 -->
<g id="edge9" class="edge">
<title>Node52&#45;&gt;Node53</title>
<path fill="none" stroke="#191970" d="M1053.2259,-73.4436C1061.7008,-74.4859 1070.2484,-75.537 1078.4591,-76.5467"/>
<polygon fill="#191970" stroke="#191970" points="1078.2957,-80.0529 1088.6482,-77.7998 1079.1502,-73.1053 1078.2957,-80.0529"/>
</g>
<!-- Node54 -->
<g id="node10" class="node">
<title>Node54</title>
<g id="a_node10"><a xlink:href="namespacefs.html#a000d1f9ae14d782b6193298e6d27023f" target="_top" xlink:title="fs::fileExists">
<polygon fill="none" stroke="#000000" points="1097,-36 1097,-55 1173,-55 1173,-36 1097,-36"/>
<text text-anchor="middle" x="1135" y="-43" font-family="Helvetica,sans-Serif" font-size="10.00" fill="#000000">fs::fileExists</text>
</a>
</g>
</g>
<!-- Node52&#45;&gt;Node54 -->
<g id="edge10" class="edge">
<title>Node52&#45;&gt;Node54</title>
<path fill="none" stroke="#191970" d="M1053.2259,-55.5564C1064.4963,-54.1704 1075.8956,-52.7685 1086.4597,-51.4694"/>
<polygon fill="#191970" stroke="#191970" points="1087.2118,-54.9033 1096.7098,-50.2088 1086.3573,-47.9557 1087.2118,-54.9033"/>
</g>
<!-- Node56&#45;&gt;Node46 -->
<g id="edge13" class="edge">
<title>Node56&#45;&gt;Node46</title>
<path fill="none" stroke="#191970" d="M335.3001,-91.9997C345.1072,-93.1607 355.0845,-94.3418 364.6374,-95.4727"/>
<polygon fill="#191970" stroke="#191970" points="364.4665,-98.9768 374.8086,-96.6767 365.2895,-92.0253 364.4665,-98.9768"/>
</g>
</g>
</svg>
