<?xml version="1.0" encoding="UTF-8" standalone="no"?>
<!DOCTYPE svg PUBLIC "-//W3C//DTD SVG 1.1//EN"
 "http://www.w3.org/Graphics/SVG/1.1/DTD/svg11.dtd">
<!-- Generated by graphviz version 2.40.1 (20161225.0304)
 -->
<!-- Title: MapLayers::toggleLayer Pages: 1 -->
<svg width="641pt" height="28pt"
 viewBox="0.00 0.00 641.00 28.00" xmlns="http://www.w3.org/2000/svg" xmlns:xlink="http://www.w3.org/1999/xlink">
<g id="graph0" class="graph" transform="scale(1 1) rotate(0) translate(4 24)">
<title>MapLayers::toggleLayer</title>
<!-- Node128 -->
<g id="node1" class="node">
<title>Node128</title>
<polygon fill="#bfbfbf" stroke="#000000" points="0,-.5 0,-19.5 133,-19.5 133,-.5 0,-.5"/>
<text text-anchor="middle" x="66.5" y="-7.5" font-family="Helvetica,sans-Serif" font-size="10.00" fill="#000000">MapLayers::toggleLayer</text>
</g>
<!-- Node129 -->
<g id="node2" class="node">
<title>Node129</title>
<g id="a_node2"><a xlink:href="classEventManager.html#a65ec91fd5016d4f9c4167fb8babed2df" target="_top" xlink:title="EventManager::checkEvents">
<polygon fill="none" stroke="#000000" points="169,-.5 169,-19.5 323,-19.5 323,-.5 169,-.5"/>
<text text-anchor="middle" x="246" y="-7.5" font-family="Helvetica,sans-Serif" font-size="10.00" fill="#000000">EventManager::checkEvents</text>
</a>
</g>
</g>
<!-- Node128&#45;&gt;Node129 -->
<g id="edge1" class="edge">
<title>Node128&#45;&gt;Node129</title>
<path fill="none" stroke="#191970" d="M143.3269,-10C151.8053,-10 160.4408,-10 168.9222,-10"/>
<polygon fill="#191970" stroke="#191970" points="143.0841,-6.5001 133.0841,-10 143.0841,-13.5001 143.0841,-6.5001"/>
</g>
<!-- Node130 -->
<g id="node3" class="node">
<title>Node130</title>
<g id="a_node3"><a xlink:href="classGame.html#a1c2ab25d5216b2f4b2fe41efd2c09114" target="_top" xlink:title="begins the game starts running the game ">
<polygon fill="none" stroke="#000000" points="359,-.5 359,-19.5 427,-19.5 427,-.5 359,-.5"/>
<text text-anchor="middle" x="393" y="-7.5" font-family="Helvetica,sans-Serif" font-size="10.00" fill="#000000">Game::run</text>
</a>
</g>
</g>
<!-- Node129&#45;&gt;Node130 -->
<g id="edge2" class="edge">
<title>Node129&#45;&gt;Node130</title>
<path fill="none" stroke="#191970" d="M333.5248,-10C342.4338,-10 351.0572,-10 358.845,-10"/>
<polygon fill="#191970" stroke="#191970" points="333.3744,-6.5001 323.3744,-10 333.3743,-13.5001 333.3744,-6.5001"/>
</g>
<!-- Node131 -->
<g id="node4" class="node">
<title>Node131</title>
<g id="a_node4"><a xlink:href="main_8cxx.html#af582d708d899e67ead623eac34a22387" target="_top" xlink:title="protected_main">
<polygon fill="none" stroke="#000000" points="463,-.5 463,-19.5 556,-19.5 556,-.5 463,-.5"/>
<text text-anchor="middle" x="509.5" y="-7.5" font-family="Helvetica,sans-Serif" font-size="10.00" fill="#000000">protected_main</text>
</a>
</g>
</g>
<!-- Node130&#45;&gt;Node131 -->
<g id="edge3" class="edge">
<title>Node130&#45;&gt;Node131</title>
<path fill="none" stroke="#191970" d="M437.2653,-10C445.5757,-10 454.2897,-10 462.6749,-10"/>
<polygon fill="#191970" stroke="#191970" points="437.0098,-6.5001 427.0098,-10 437.0098,-13.5001 437.0098,-6.5001"/>
</g>
<!-- Node132 -->
<g id="node5" class="node">
<title>Node132</title>
<g id="a_node5"><a xlink:href="main_8cxx.html#a3c04138a5bfe5d72780bb7e82a18e627" target="_top" xlink:title="main">
<polygon fill="none" stroke="#000000" points="592,-.5 592,-19.5 633,-19.5 633,-.5 592,-.5"/>
<text text-anchor="middle" x="612.5" y="-7.5" font-family="Helvetica,sans-Serif" font-size="10.00" fill="#000000">main</text>
</a>
</g>
</g>
<!-- Node131&#45;&gt;Node132 -->
<g id="edge4" class="edge">
<title>Node131&#45;&gt;Node132</title>
<path fill="none" stroke="#191970" d="M566.2133,-10C575.4322,-10 584.4259,-10 591.9965,-10"/>
<polygon fill="#191970" stroke="#191970" points="566.1782,-6.5001 556.1782,-10 566.1781,-13.5001 566.1782,-6.5001"/>
</g>
</g>
</svg>
