<?xml version="1.0" encoding="UTF-8" standalone="no"?>
<!DOCTYPE svg PUBLIC "-//W3C//DTD SVG 1.1//EN"
 "http://www.w3.org/Graphics/SVG/1.1/DTD/svg11.dtd">
<!-- Generated by graphviz version 2.40.1 (20161225.0304)
 -->
<!-- Title: Camera::centerScreenOnMapCenter Pages: 1 -->
<!--zoomable 262 -->
<svg id="main" version="1.1" xmlns="http://www.w3.org/2000/svg" xmlns:xlink="http://www.w3.org/1999/xlink" xml:space="preserve" onload="init(evt)">
<style type="text/css"><![CDATA[
.edge:hover path { stroke: red; }
.edge:hover polygon { stroke: red; fill: red; }
]]></style>
<script type="text/javascript"><![CDATA[
var edges = document.getElementsByTagName('g');
if (edges && edges.length) {
  for (var i=0;i<edges.length;i++) {
    if (edges[i].id.substr(0,4)=='edge') {
      edges[i].setAttribute('class','edge');
    }
  }
}
]]></script>
        <defs>
                <circle id="rim" cx="0" cy="0" r="7"/>
                <circle id="rim2" cx="0" cy="0" r="3.5"/>
                <g id="zoomPlus">
                        <use xlink:href="#rim" fill="#404040">
                                <set attributeName="fill" to="#808080" begin="zoomplus.mouseover" end="zoomplus.mouseout"/>
                        </use>
                        <path d="M-4,0h8M0,-4v8" fill="none" stroke="white" stroke-width="1.5" pointer-events="none"/>
                </g>
                <g id="zoomMin">
                        <use xlink:href="#rim" fill="#404040">
                                <set attributeName="fill" to="#808080" begin="zoomminus.mouseover" end="zoomminus.mouseout"/>
                        </use>
                        <path d="M-4,0h8" fill="none" stroke="white" stroke-width="1.5" pointer-events="none"/>
                </g>
                <g id="dirArrow">
                        <path fill="none" stroke="white" stroke-width="1.5" d="M0,-3.0v7 M-2.5,-0.5L0,-3.0L2.5,-0.5"/>
                </g>
               <g id="resetDef">
                       <use xlink:href="#rim2" fill="#404040">
                               <set attributeName="fill" to="#808080" begin="reset.mouseover" end="reset.mouseout"/>
                       </use>
               </g>
        </defs>

<script type="text/javascript">
var viewWidth = 734;
var viewHeight = 262;
var sectionId = 'dynsection-3';
</script>
<script xlink:href="svgpan.js"/>
<svg id="graph" class="graph">
<g id="viewport">
<title>Camera::centerScreenOnMapCenter</title>
<!-- Node24 -->
<g id="node1" class="node">
<title>Node24</title>
<polygon fill="#bfbfbf" stroke="#000000" points="0,-185 0,-215 158,-215 158,-185 0,-185"/>
<text text-anchor="start" x="8" y="-203" font-family="Helvetica,sans-Serif" font-size="10.00" fill="#000000">Camera::centerScreenOnMap</text>
<text text-anchor="middle" x="79" y="-192" font-family="Helvetica,sans-Serif" font-size="10.00" fill="#000000">Center</text>
</g>
<!-- Node25 -->
<g id="node2" class="node">
<title>Node25</title>
<g id="a_node2"><a xlink:href="classSingleton.html#af5cb1e5749949e2b68416cfb8d378044" target="_top" xlink:title="Get an instance of the singleton. ">
<polygon fill="none" stroke="#000000" points="606,-223 606,-253 719,-253 719,-223 606,-223"/>
<text text-anchor="start" x="614" y="-241" font-family="Helvetica,sans-Serif" font-size="10.00" fill="#000000">Singleton&lt; Settings</text>
<text text-anchor="middle" x="662.5" y="-230" font-family="Helvetica,sans-Serif" font-size="10.00" fill="#000000"> &gt;::instance</text>
</a>
</g>
</g>
<!-- Node24&#45;&gt;Node25 -->
<g id="edge1" class="edge">
<title>Node24&#45;&gt;Node25</title>
<path fill="none" stroke="#191970" d="M158.0445,-214.185C221.3482,-224.7921 312.5522,-238.3909 393,-244 468.3726,-249.2552 487.4787,-246.275 563,-244 573.6611,-243.6789 584.9561,-243.1646 595.9618,-242.5688"/>
<polygon fill="#191970" stroke="#191970" points="596.1753,-246.0624 605.9612,-242.0019 595.7791,-239.0736 596.1753,-246.0624"/>
</g>
<!-- Node26 -->
<g id="node3" class="node">
<title>Node26</title>
<g id="a_node3"><a xlink:href="classCamera.html#adfb240823ff20b97b69459490dbd8dc3" target="_top" xlink:title="Centers camera on given isometric coordinates. ">
<polygon fill="none" stroke="#000000" points="194,-133.5 194,-152.5 357,-152.5 357,-133.5 194,-133.5"/>
<text text-anchor="middle" x="275.5" y="-140.5" font-family="Helvetica,sans-Serif" font-size="10.00" fill="#000000">Camera::centerScreenOnPoint</text>
</a>
</g>
</g>
<!-- Node24&#45;&gt;Node26 -->
<g id="edge2" class="edge">
<title>Node24&#45;&gt;Node26</title>
<path fill="none" stroke="#191970" d="M130.8851,-184.9494C162.656,-175.7334 202.8197,-164.0828 232.7537,-155.3997"/>
<polygon fill="#191970" stroke="#191970" points="233.8571,-158.724 242.4861,-152.5765 231.9069,-152.0011 233.8571,-158.724"/>
</g>
<!-- Node26&#45;&gt;Node25 -->
<g id="edge15" class="edge">
<title>Node26&#45;&gt;Node25</title>
<path fill="none" stroke="#191970" d="M286.1722,-152.6348C305.7002,-169.598 349.2165,-204.3809 393,-219 459.4893,-241.2005 540.1941,-243.9557 595.8572,-242.4033"/>
<polygon fill="#191970" stroke="#191970" points="596.0724,-245.8982 605.9503,-242.067 595.8392,-238.902 596.0724,-245.8982"/>
</g>
<!-- Node27 -->
<g id="node4" class="node">
<title>Node27</title>
<g id="a_node4"><a xlink:href="isoMath_8cxx.html#a7fa61c3d8ef446fb1c48dc4838023649" target="_top" xlink:title="Check if given coordinates are within map boundaries Checks if coordinates are within map boundaries...">
<polygon fill="none" stroke="#000000" points="400,-190.5 400,-209.5 556,-209.5 556,-190.5 400,-190.5"/>
<text text-anchor="middle" x="478" y="-197.5" font-family="Helvetica,sans-Serif" font-size="10.00" fill="#000000">isPointWithinMapBoundaries</text>
</a>
</g>
</g>
<!-- Node26&#45;&gt;Node27 -->
<g id="edge3" class="edge">
<title>Node26&#45;&gt;Node27</title>
<path fill="none" stroke="#191970" d="M302.8231,-152.6335C326.4998,-160.7892 361.7678,-172.4788 393,-181 402.2029,-183.5109 412.0319,-185.9381 421.6196,-188.1703"/>
<polygon fill="#191970" stroke="#191970" points="420.9592,-191.6095 431.4872,-190.4214 422.5162,-184.7848 420.9592,-191.6095"/>
</g>
<!-- Node28 -->
<g id="node5" class="node">
<title>Node28</title>
<g id="a_node5"><a xlink:href="isoMath_8cxx.html#a229d5dd54cd4e1f43ed5911e4fd266d3" target="_top" xlink:title="converts coordinates from isometric to screen space The given isometric coordinates (which contain he...">
<polygon fill="none" stroke="#000000" points="393,-152.5 393,-171.5 563,-171.5 563,-152.5 393,-152.5"/>
<text text-anchor="middle" x="478" y="-159.5" font-family="Helvetica,sans-Serif" font-size="10.00" fill="#000000">convertIsoToScreenCoordinates</text>
</a>
</g>
</g>
<!-- Node26&#45;&gt;Node28 -->
<g id="edge5" class="edge">
<title>Node26&#45;&gt;Node28</title>
<path fill="none" stroke="#191970" d="M357.2808,-150.6733C365.7226,-151.4653 374.3521,-152.275 382.9224,-153.0791"/>
<polygon fill="#191970" stroke="#191970" points="382.658,-156.5696 392.9412,-154.0192 383.312,-149.6002 382.658,-156.5696"/>
</g>
<!-- Node32 -->
<g id="node9" class="node">
<title>Node32</title>
<g id="a_node9"><a xlink:href="classWindow.html#a4959f94d75af5e975fb117f5ea0ef077" target="_top" xlink:title="Window::getBounds">
<polygon fill="none" stroke="#000000" points="421.5,-114.5 421.5,-133.5 534.5,-133.5 534.5,-114.5 421.5,-114.5"/>
<text text-anchor="middle" x="478" y="-121.5" font-family="Helvetica,sans-Serif" font-size="10.00" fill="#000000">Window::getBounds</text>
</a>
</g>
</g>
<!-- Node26&#45;&gt;Node32 -->
<g id="edge10" class="edge">
<title>Node26&#45;&gt;Node32</title>
<path fill="none" stroke="#191970" d="M357.2808,-135.3267C375.2656,-133.6393 394.1021,-131.8719 411.4034,-130.2486"/>
<polygon fill="#191970" stroke="#191970" points="411.7655,-133.7301 421.3948,-129.3111 411.1115,-126.7607 411.7655,-133.7301"/>
</g>
<!-- Node33 -->
<g id="node10" class="node">
<title>Node33</title>
<g id="a_node10"><a xlink:href="classRectangle.html#a6d7591d194230afb71ac2efcb8fd782f" target="_top" xlink:title="Rectangle::width">
<polygon fill="none" stroke="#000000" points="429,-76.5 429,-95.5 527,-95.5 527,-76.5 429,-76.5"/>
<text text-anchor="middle" x="478" y="-83.5" font-family="Helvetica,sans-Serif" font-size="10.00" fill="#000000">Rectangle::width</text>
</a>
</g>
</g>
<!-- Node26&#45;&gt;Node33 -->
<g id="edge11" class="edge">
<title>Node26&#45;&gt;Node33</title>
<path fill="none" stroke="#191970" d="M302.8231,-133.3665C326.4998,-125.2108 361.7678,-113.5212 393,-105 402.2029,-102.4891 412.0319,-100.0619 421.6196,-97.8297"/>
<polygon fill="#191970" stroke="#191970" points="422.5162,-101.2152 431.4872,-95.5786 420.9592,-94.3905 422.5162,-101.2152"/>
</g>
<!-- Node35 -->
<g id="node12" class="node">
<title>Node35</title>
<g id="a_node12"><a xlink:href="classRectangle.html#a21cbebe8e941c0c92d7eba0f7badcb6a" target="_top" xlink:title="Rectangle::height">
<polygon fill="none" stroke="#000000" points="427.5,-38.5 427.5,-57.5 528.5,-57.5 528.5,-38.5 427.5,-38.5"/>
<text text-anchor="middle" x="478" y="-45.5" font-family="Helvetica,sans-Serif" font-size="10.00" fill="#000000">Rectangle::height</text>
</a>
</g>
</g>
<!-- Node26&#45;&gt;Node35 -->
<g id="edge13" class="edge">
<title>Node26&#45;&gt;Node35</title>
<path fill="none" stroke="#191970" d="M287.3755,-133.2413C307.7187,-117.0221 351.1029,-84.5669 393,-67 400.7177,-63.7641 409.071,-61.0393 417.4245,-58.7559"/>
<polygon fill="#191970" stroke="#191970" points="418.3627,-62.1288 427.1928,-56.2739 416.6388,-55.3444 418.3627,-62.1288"/>
</g>
<!-- Node36 -->
<g id="node13" class="node">
<title>Node36</title>
<g id="a_node13"><a xlink:href="classMap.html#ab69938ac0e56eb0da1d1701221f3d185" target="_top" xlink:title="Refresh all the map tile textures. ">
<polygon fill="none" stroke="#000000" points="439.5,-.5 439.5,-19.5 516.5,-19.5 516.5,-.5 439.5,-.5"/>
<text text-anchor="middle" x="478" y="-7.5" font-family="Helvetica,sans-Serif" font-size="10.00" fill="#000000">Map::refresh</text>
</a>
</g>
</g>
<!-- Node26&#45;&gt;Node36 -->
<g id="edge16" class="edge">
<title>Node26&#45;&gt;Node36</title>
<path fill="none" stroke="#191970" d="M282.4792,-133.2336C298.9646,-110.9407 342.7306,-56.1431 393,-29 404.0185,-23.0505 416.8031,-18.9619 429.058,-16.1529"/>
<polygon fill="#191970" stroke="#191970" points="430.0823,-19.5159 439.1773,-14.0815 428.6785,-12.6581 430.0823,-19.5159"/>
</g>
<!-- Node27&#45;&gt;Node25 -->
<g id="edge4" class="edge">
<title>Node27&#45;&gt;Node25</title>
<path fill="none" stroke="#191970" d="M524.5571,-209.589C546.1342,-214.0331 572.1732,-219.3961 595.7884,-224.2599"/>
<polygon fill="#191970" stroke="#191970" points="595.2402,-227.7204 605.7407,-226.3097 596.6524,-220.8643 595.2402,-227.7204"/>
</g>
<!-- Node28&#45;&gt;Node25 -->
<g id="edge6" class="edge">
<title>Node28&#45;&gt;Node25</title>
<path fill="none" stroke="#191970" d="M538.7766,-171.6029C547.156,-174.0601 555.463,-177.1403 563,-181 582.0542,-190.7576 580.7593,-201.7951 599,-213 602.1643,-214.9437 605.5056,-216.7863 608.9332,-218.5233"/>
<polygon fill="#191970" stroke="#191970" points="607.6082,-221.7681 618.1454,-222.8716 610.5962,-215.4379 607.6082,-221.7681"/>
</g>
<!-- Node29 -->
<g id="node6" class="node">
<title>Node29</title>
<g id="a_node6"><a xlink:href="classCamera.html#a8521826d32e55e2cc92fee0fcd10ea8b" target="_top" xlink:title="Camera::cameraOffset">
<polygon fill="none" stroke="#000000" points="599,-184.5 599,-203.5 726,-203.5 726,-184.5 599,-184.5"/>
<text text-anchor="middle" x="662.5" y="-191.5" font-family="Helvetica,sans-Serif" font-size="10.00" fill="#000000">Camera::cameraOffset</text>
</a>
</g>
</g>
<!-- Node28&#45;&gt;Node29 -->
<g id="edge7" class="edge">
<title>Node28&#45;&gt;Node29</title>
<path fill="none" stroke="#191970" d="M532.8566,-171.5144C553.2138,-175.0452 576.4955,-179.0832 597.66,-182.754"/>
<polygon fill="#191970" stroke="#191970" points="597.0852,-186.2065 607.5362,-184.467 598.2815,-179.3095 597.0852,-186.2065"/>
</g>
<!-- Node30 -->
<g id="node7" class="node">
<title>Node30</title>
<g id="a_node7"><a xlink:href="classCamera.html#a72f8d27fc42f8292cc319084409d718e" target="_top" xlink:title="Camera::zoomLevel">
<polygon fill="none" stroke="#000000" points="605.5,-146.5 605.5,-165.5 719.5,-165.5 719.5,-146.5 605.5,-146.5"/>
<text text-anchor="middle" x="662.5" y="-153.5" font-family="Helvetica,sans-Serif" font-size="10.00" fill="#000000">Camera::zoomLevel</text>
</a>
</g>
</g>
<!-- Node28&#45;&gt;Node30 -->
<g id="edge8" class="edge">
<title>Node28&#45;&gt;Node30</title>
<path fill="none" stroke="#191970" d="M563.2292,-159.2283C573.9221,-158.8806 584.7415,-158.5287 595.1084,-158.1916"/>
<polygon fill="#191970" stroke="#191970" points="595.4219,-161.6833 605.3029,-157.8601 595.1944,-154.687 595.4219,-161.6833"/>
</g>
<!-- Node31 -->
<g id="node8" class="node">
<title>Node31</title>
<g id="a_node8"><a xlink:href="classCamera.html#a96eee891e27570059e7ef82916dce1c1" target="_top" xlink:title="Camera::tileSize">
<polygon fill="none" stroke="#000000" points="614,-108.5 614,-127.5 711,-127.5 711,-108.5 614,-108.5"/>
<text text-anchor="middle" x="662.5" y="-115.5" font-family="Helvetica,sans-Serif" font-size="10.00" fill="#000000">Camera::tileSize</text>
</a>
</g>
</g>
<!-- Node28&#45;&gt;Node31 -->
<g id="edge9" class="edge">
<title>Node28&#45;&gt;Node31</title>
<path fill="none" stroke="#191970" d="M521.7292,-152.4558C535.0012,-149.4971 549.6117,-146.1777 563,-143 580.078,-138.9466 598.7521,-134.3092 615.2628,-130.1382"/>
<polygon fill="#191970" stroke="#191970" points="616.397,-133.4614 625.2299,-127.6108 614.6764,-126.6762 616.397,-133.4614"/>
</g>
<!-- Node34 -->
<g id="node11" class="node">
<title>Node34</title>
<g id="a_node11"><a xlink:href="classRectangle.html#ace89ac3a7085543f3f60449fb5cdc8af" target="_top" xlink:title="Rectangle::isEmpty">
<polygon fill="none" stroke="#000000" points="607.5,-54.5 607.5,-73.5 717.5,-73.5 717.5,-54.5 607.5,-54.5"/>
<text text-anchor="middle" x="662.5" y="-61.5" font-family="Helvetica,sans-Serif" font-size="10.00" fill="#000000">Rectangle::isEmpty</text>
</a>
</g>
</g>
<!-- Node33&#45;&gt;Node34 -->
<g id="edge12" class="edge">
<title>Node33&#45;&gt;Node34</title>
<path fill="none" stroke="#191970" d="M527.4426,-80.1044C548.9212,-77.5433 574.3779,-74.5078 597.3683,-71.7664"/>
<polygon fill="#191970" stroke="#191970" points="597.8767,-75.2306 607.3919,-70.5712 597.0478,-68.2799 597.8767,-75.2306"/>
</g>
<!-- Node35&#45;&gt;Node34 -->
<g id="edge14" class="edge">
<title>Node35&#45;&gt;Node34</title>
<path fill="none" stroke="#191970" d="M528.9038,-52.4144C549.9929,-54.2433 574.7168,-56.3874 597.1233,-58.3305"/>
<polygon fill="#191970" stroke="#191970" points="596.9687,-61.8301 607.2338,-59.2073 597.5736,-54.8563 596.9687,-61.8301"/>
</g>
</g>
</svg>
        <g id="navigator" transform="translate(0 0)" fill="#404254">
                <rect fill="#f2f5e9" fill-opacity="0.5" stroke="#606060" stroke-width=".5" x="0" y="0" width="60" height="60"/>
                <use id="zoomplus" xlink:href="#zoomPlus" x="17" y="9" onmousedown="handleZoom(evt,'in')"/>
                <use id="zoomminus" xlink:href="#zoomMin" x="42" y="9" onmousedown="handleZoom(evt,'out')"/>
                <use id="reset" xlink:href="#resetDef" x="30" y="36" onmousedown="handleReset()"/>
                <g id="arrowUp" xlink:href="#dirArrow" transform="translate(30 24)" onmousedown="handlePan(0,-1)">
                  <use xlink:href="#rim" fill="#404040">
                        <set attributeName="fill" to="#808080" begin="arrowUp.mouseover" end="arrowUp.mouseout"/>
                  </use>
                  <path fill="none" stroke="white" stroke-width="1.5" d="M0,-3.0v7 M-2.5,-0.5L0,-3.0L2.5,-0.5"/>
                </g>
                <g id="arrowRight" xlink:href="#dirArrow" transform="rotate(90) translate(36 -43)" onmousedown="handlePan(1,0)">
                  <use xlink:href="#rim" fill="#404040">
                        <set attributeName="fill" to="#808080" begin="arrowRight.mouseover" end="arrowRight.mouseout"/>
                  </use>
                  <path fill="none" stroke="white" stroke-width="1.5" d="M0,-3.0v7 M-2.5,-0.5L0,-3.0L2.5,-0.5"/>
                </g>
                <g id="arrowDown" xlink:href="#dirArrow" transform="rotate(180) translate(-30 -48)" onmousedown="handlePan(0,1)">
                  <use xlink:href="#rim" fill="#404040">
                        <set attributeName="fill" to="#808080" begin="arrowDown.mouseover" end="arrowDown.mouseout"/>
                  </use>
                  <path fill="none" stroke="white" stroke-width="1.5" d="M0,-3.0v7 M-2.5,-0.5L0,-3.0L2.5,-0.5"/>
                </g>
                <g id="arrowLeft" xlink:href="#dirArrow" transform="rotate(270) translate(-36 17)" onmousedown="handlePan(-1,0)">
                  <use xlink:href="#rim" fill="#404040">
                        <set attributeName="fill" to="#808080" begin="arrowLeft.mouseover" end="arrowLeft.mouseout"/>
                  </use>
                  <path fill="none" stroke="white" stroke-width="1.5" d="M0,-3.0v7 M-2.5,-0.5L0,-3.0L2.5,-0.5"/>
                </g>
        </g>
        <svg viewBox="0 0 15 15" width="100%" height="30px" preserveAspectRatio="xMaxYMin meet">
         <g id="arrow_out" transform="scale(0.3 0.3)">
          <a xlink:href="classCamera_af29da768f8948f3afbf0a9b43530eb1d_cgraph_org.svg" target="_base">
           <rect id="button" ry="5" rx="5" y="6" x="6" height="38" width="38"
                fill="#f2f5e9" fill-opacity="0.5" stroke="#606060" stroke-width="1.0"/>
           <path id="arrow"
             d="M 11.500037,31.436501 C 11.940474,20.09759 22.043105,11.32322 32.158766,21.979434 L 37.068811,17.246167 C 37.068811,17.246167 37.088388,32 37.088388,32 L 22.160133,31.978069 C 22.160133,31.978069 26.997745,27.140456 26.997745,27.140456 C 18.528582,18.264221 13.291696,25.230495 11.500037,31.436501 z"
             style="fill:#404040;"/>
          </a>
         </g>
        </svg>
</svg>
