<?xml version="1.0" encoding="UTF-8" standalone="no"?>
<!DOCTYPE svg PUBLIC "-//W3C//DTD SVG 1.1//EN"
 "http://www.w3.org/Graphics/SVG/1.1/DTD/svg11.dtd">
<!-- Generated by graphviz version 2.40.1 (20161225.0304)
 -->
<!-- Title: TileManager::addJSONObjectToTileData Pages: 1 -->
<svg width="680pt" height="107pt"
 viewBox="0.00 0.00 680.00 107.00" xmlns="http://www.w3.org/2000/svg" xmlns:xlink="http://www.w3.org/1999/xlink">
<g id="graph0" class="graph" transform="scale(1 1) rotate(0) translate(4 103)">
<title>TileManager::addJSONObjectToTileData</title>
<!-- Node18 -->
<g id="node1" class="node">
<title>Node18</title>
<polygon fill="#bfbfbf" stroke="#000000" points="0,-46.5 0,-76.5 156,-76.5 156,-46.5 0,-46.5"/>
<text text-anchor="start" x="8" y="-64.5" font-family="Helvetica,sans-Serif" font-size="10.00" fill="#000000">TileManager::addJSONObject</text>
<text text-anchor="middle" x="78" y="-53.5" font-family="Helvetica,sans-Serif" font-size="10.00" fill="#000000">ToTileData</text>
</g>
<!-- Node19 -->
<g id="node2" class="node">
<title>Node19</title>
<g id="a_node2"><a xlink:href="classSingleton.html#af5cb1e5749949e2b68416cfb8d378044" target="_top" xlink:title="Get an instance of the singleton. ">
<polygon fill="none" stroke="#000000" points="195,-68.5 195,-98.5 360,-98.5 360,-68.5 195,-68.5"/>
<text text-anchor="start" x="203" y="-86.5" font-family="Helvetica,sans-Serif" font-size="10.00" fill="#000000">Singleton&lt; ResourcesManager</text>
<text text-anchor="middle" x="277.5" y="-75.5" font-family="Helvetica,sans-Serif" font-size="10.00" fill="#000000"> &gt;::instance</text>
</a>
</g>
</g>
<!-- Node18&#45;&gt;Node19 -->
<g id="edge1" class="edge">
<title>Node18&#45;&gt;Node19</title>
<path fill="none" stroke="#191970" d="M156.2751,-70.1318C165.5743,-71.1573 175.135,-72.2116 184.6127,-73.2568"/>
<polygon fill="#191970" stroke="#191970" points="184.5246,-76.7682 194.848,-74.3855 185.292,-69.8104 184.5246,-76.7682"/>
</g>
<!-- Node20 -->
<g id="node3" class="node">
<title>Node20</title>
<g id="a_node3"><a xlink:href="classResourcesManager.html#ab376a89547592db4cca25309eac2931c" target="_top" xlink:title="ResourcesManager::loadTexture">
<polygon fill="none" stroke="#000000" points="192,-30 192,-49 363,-49 363,-30 192,-30"/>
<text text-anchor="middle" x="277.5" y="-37" font-family="Helvetica,sans-Serif" font-size="10.00" fill="#000000">ResourcesManager::loadTexture</text>
</a>
</g>
</g>
<!-- Node18&#45;&gt;Node20 -->
<g id="edge2" class="edge">
<title>Node18&#45;&gt;Node20</title>
<path fill="none" stroke="#191970" d="M156.2751,-52.8682C164.6703,-51.9424 173.2787,-50.9931 181.8466,-50.0482"/>
<polygon fill="#191970" stroke="#191970" points="182.3148,-53.5179 191.8709,-48.9428 181.5475,-46.5601 182.3148,-53.5179"/>
</g>
<!-- Node21 -->
<g id="node4" class="node">
<title>Node21</title>
<g id="a_node4"><a xlink:href="classResourcesManager.html#a54721d26f52c4887b735d2cdaf60b078" target="_top" xlink:title="ResourcesManager::create\lSurfaceFromFile">
<polygon fill="none" stroke="#000000" points="399,-49.5 399,-79.5 544,-79.5 544,-49.5 399,-49.5"/>
<text text-anchor="start" x="407" y="-67.5" font-family="Helvetica,sans-Serif" font-size="10.00" fill="#000000">ResourcesManager::create</text>
<text text-anchor="middle" x="471.5" y="-56.5" font-family="Helvetica,sans-Serif" font-size="10.00" fill="#000000">SurfaceFromFile</text>
</a>
</g>
</g>
<!-- Node20&#45;&gt;Node21 -->
<g id="edge3" class="edge">
<title>Node20&#45;&gt;Node21</title>
<path fill="none" stroke="#191970" d="M351.3965,-49.0227C363.5265,-50.5859 376.1683,-52.215 388.5017,-53.8043"/>
<polygon fill="#191970" stroke="#191970" points="388.4057,-57.3208 398.7711,-55.1277 389.3005,-50.3782 388.4057,-57.3208"/>
</g>
<!-- Node24 -->
<g id="node7" class="node">
<title>Node24</title>
<g id="a_node7"><a xlink:href="classResourcesManager.html#ad7712ca96233a151d8bc22cd2ba17d01" target="_top" xlink:title="ResourcesManager::create\lTextureFromSurface">
<polygon fill="none" stroke="#000000" points="399,-.5 399,-30.5 544,-30.5 544,-.5 399,-.5"/>
<text text-anchor="start" x="407" y="-18.5" font-family="Helvetica,sans-Serif" font-size="10.00" fill="#000000">ResourcesManager::create</text>
<text text-anchor="middle" x="471.5" y="-7.5" font-family="Helvetica,sans-Serif" font-size="10.00" fill="#000000">TextureFromSurface</text>
</a>
</g>
</g>
<!-- Node20&#45;&gt;Node24 -->
<g id="edge6" class="edge">
<title>Node20&#45;&gt;Node24</title>
<path fill="none" stroke="#191970" d="M354.4526,-29.9801C365.7438,-28.5832 377.414,-27.1395 388.8145,-25.7291"/>
<polygon fill="#191970" stroke="#191970" points="389.2528,-29.2017 398.7474,-24.5003 388.3933,-22.2546 389.2528,-29.2017"/>
</g>
<!-- Node22 -->
<g id="node5" class="node">
<title>Node22</title>
<g id="a_node5"><a xlink:href="namespacefs.html#a28e4c1324680c188092ecfe5fd8a91a3" target="_top" xlink:title="fs::getBasePath">
<polygon fill="none" stroke="#000000" points="580,-74 580,-93 672,-93 672,-74 580,-74"/>
<text text-anchor="middle" x="626" y="-81" font-family="Helvetica,sans-Serif" font-size="10.00" fill="#000000">fs::getBasePath</text>
</a>
</g>
</g>
<!-- Node21&#45;&gt;Node22 -->
<g id="edge4" class="edge">
<title>Node21&#45;&gt;Node22</title>
<path fill="none" stroke="#191970" d="M544.2259,-73.4436C552.7008,-74.4859 561.2484,-75.537 569.4591,-76.5467"/>
<polygon fill="#191970" stroke="#191970" points="569.2957,-80.0529 579.6482,-77.7998 570.1502,-73.1053 569.2957,-80.0529"/>
</g>
<!-- Node23 -->
<g id="node6" class="node">
<title>Node23</title>
<g id="a_node6"><a xlink:href="namespacefs.html#a000d1f9ae14d782b6193298e6d27023f" target="_top" xlink:title="fs::fileExists">
<polygon fill="none" stroke="#000000" points="588,-36 588,-55 664,-55 664,-36 588,-36"/>
<text text-anchor="middle" x="626" y="-43" font-family="Helvetica,sans-Serif" font-size="10.00" fill="#000000">fs::fileExists</text>
</a>
</g>
</g>
<!-- Node21&#45;&gt;Node23 -->
<g id="edge5" class="edge">
<title>Node21&#45;&gt;Node23</title>
<path fill="none" stroke="#191970" d="M544.2259,-55.5564C555.4963,-54.1704 566.8956,-52.7685 577.4597,-51.4694"/>
<polygon fill="#191970" stroke="#191970" points="578.2118,-54.9033 587.7098,-50.2088 577.3573,-47.9557 578.2118,-54.9033"/>
</g>
</g>
</svg>
