<?xml version="1.0" encoding="UTF-8" standalone="no"?>
<!DOCTYPE svg PUBLIC "-//W3C//DTD SVG 1.1//EN"
 "http://www.w3.org/Graphics/SVG/1.1/DTD/svg11.dtd">
<!-- Generated by graphviz version 2.40.1 (20161225.0304)
 -->
<!-- Title: iModel Pages: 1 -->
<svg width="466pt" height="383pt"
 viewBox="0.00 0.00 466.00 383.00" xmlns="http://www.w3.org/2000/svg" xmlns:xlink="http://www.w3.org/1999/xlink">
<g id="graph0" class="graph" transform="scale(1 1) rotate(0) translate(4 379)">
<title>iModel</title>
<!-- Node0 -->
<g id="node1" class="node">
<title>Node0</title>
<polygon fill="#bfbfbf" stroke="#000000" points="192.5,-317.5 192.5,-374.5 268.5,-374.5 268.5,-317.5 192.5,-317.5"/>
<text text-anchor="middle" x="230.5" y="-362.5" font-family="Helvetica,sans-Serif" font-size="10.00" fill="#000000">iModel</text>
<polyline fill="none" stroke="#000000" points="192.5,-355.5 268.5,-355.5 "/>
<text text-anchor="middle" x="230.5" y="-343.5" font-family="Helvetica,sans-Serif" font-size="10.00" fill="#000000"> </text>
<polyline fill="none" stroke="#000000" points="192.5,-336.5 268.5,-336.5 "/>
<text text-anchor="start" x="200.5" y="-324.5" font-family="Helvetica,sans-Serif" font-size="10.00" fill="#000000">+ ~iModel()</text>
</g>
<!-- Node1 -->
<g id="node2" class="node">
<title>Node1</title>
<g id="a_node2"><a xlink:href="structDataModel.html" target="_top" xlink:title="{DataModel\&lt; DataList \&gt;\n||+ DataModel()\l}">
<polygon fill="none" stroke="#000000" points="164.5,-222.5 164.5,-279.5 296.5,-279.5 296.5,-222.5 164.5,-222.5"/>
<text text-anchor="middle" x="230.5" y="-267.5" font-family="Helvetica,sans-Serif" font-size="10.00" fill="#000000">DataModel&lt; DataList &gt;</text>
<polyline fill="none" stroke="#000000" points="164.5,-260.5 296.5,-260.5 "/>
<text text-anchor="middle" x="230.5" y="-248.5" font-family="Helvetica,sans-Serif" font-size="10.00" fill="#000000"> </text>
<polyline fill="none" stroke="#000000" points="164.5,-241.5 296.5,-241.5 "/>
<text text-anchor="start" x="172.5" y="-229.5" font-family="Helvetica,sans-Serif" font-size="10.00" fill="#000000">+ DataModel()</text>
</a>
</g>
</g>
<!-- Node0&#45;&gt;Node1 -->
<g id="edge1" class="edge">
<title>Node0&#45;&gt;Node1</title>
<path fill="none" stroke="#191970" d="M230.5,-307.3724C230.5,-298.1627 230.5,-288.4917 230.5,-279.8114"/>
<polygon fill="none" stroke="#191970" points="227.0001,-307.4968 230.5,-317.4969 234.0001,-307.4969 227.0001,-307.4968"/>
</g>
<!-- Node2 -->
<g id="node3" class="node">
<title>Node2</title>
<g id="a_node3"><a xlink:href="structDataModel.html" target="_top" xlink:title="{DataModel\&lt; MouseStateNotification \&gt;\n||+ DataModel()\l}">
<polygon fill="none" stroke="#000000" points="0,-117.5 0,-174.5 205,-174.5 205,-117.5 0,-117.5"/>
<text text-anchor="middle" x="102.5" y="-162.5" font-family="Helvetica,sans-Serif" font-size="10.00" fill="#000000">DataModel&lt; MouseStateNotification &gt;</text>
<polyline fill="none" stroke="#000000" points="0,-155.5 205,-155.5 "/>
<text text-anchor="middle" x="102.5" y="-143.5" font-family="Helvetica,sans-Serif" font-size="10.00" fill="#000000"> </text>
<polyline fill="none" stroke="#000000" points="0,-136.5 205,-136.5 "/>
<text text-anchor="start" x="8" y="-124.5" font-family="Helvetica,sans-Serif" font-size="10.00" fill="#000000">+ DataModel()</text>
</a>
</g>
</g>
<!-- Node0&#45;&gt;Node2 -->
<g id="edge7" class="edge">
<title>Node0&#45;&gt;Node2</title>
<path fill="none" stroke="#191970" d="M186.0197,-310.8419C175.4072,-301.4103 164.5457,-290.8115 155.5,-280 130.1638,-249.7182 122.3762,-241.3245 109.5,-204 106.2916,-194.6996 104.5095,-184.1201 103.5336,-174.5661"/>
<polygon fill="none" stroke="#191970" points="183.8286,-313.5748 193.6737,-317.4896 188.4188,-308.2898 183.8286,-313.5748"/>
</g>
<!-- Node4 -->
<g id="node5" class="node">
<title>Node4</title>
<g id="a_node5"><a xlink:href="structDataModel.html" target="_top" xlink:title="{DataModel\&lt; ButtonNotifications \&gt;\n||+ DataModel()\l}">
<polygon fill="none" stroke="#000000" points="273,-117.5 273,-174.5 458,-174.5 458,-117.5 273,-117.5"/>
<text text-anchor="middle" x="365.5" y="-162.5" font-family="Helvetica,sans-Serif" font-size="10.00" fill="#000000">DataModel&lt; ButtonNotifications &gt;</text>
<polyline fill="none" stroke="#000000" points="273,-155.5 458,-155.5 "/>
<text text-anchor="middle" x="365.5" y="-143.5" font-family="Helvetica,sans-Serif" font-size="10.00" fill="#000000"> </text>
<polyline fill="none" stroke="#000000" points="273,-136.5 458,-136.5 "/>
<text text-anchor="start" x="281" y="-124.5" font-family="Helvetica,sans-Serif" font-size="10.00" fill="#000000">+ DataModel()</text>
</a>
</g>
</g>
<!-- Node0&#45;&gt;Node4 -->
<g id="edge6" class="edge">
<title>Node0&#45;&gt;Node4</title>
<path fill="none" stroke="#191970" d="M277.6516,-322.5394C319.1719,-298.9602 376.8979,-258.3364 402.5,-204 407.1836,-194.0598 403.7223,-183.7734 397.3654,-174.6734"/>
<polygon fill="none" stroke="#191970" points="275.8398,-319.5419 268.7927,-327.4532 279.2353,-325.6633 275.8398,-319.5419"/>
</g>
<!-- Node1&#45;&gt;Node2 -->
<g id="edge2" class="edge">
<title>Node1&#45;&gt;Node2</title>
<path fill="none" stroke="#ffa500" d="M154.9623,-229.1509C142.1528,-222.7163 129.9585,-214.4852 120.5,-204 113.2261,-195.9365 108.8916,-184.9726 106.3087,-174.7474"/>
<polygon fill="#ffa500" stroke="#ffa500" points="153.8247,-232.4818 164.368,-233.5254 156.7767,-226.1347 153.8247,-232.4818"/>
<text text-anchor="middle" x="190" y="-196" font-family="Helvetica,sans-Serif" font-size="10.00" fill="#000000"> &lt; MouseStateNotification &gt;</text>
</g>
<!-- Node1&#45;&gt;Node4 -->
<g id="edge4" class="edge">
<title>Node1&#45;&gt;Node4</title>
<path fill="none" stroke="#ffa500" d="M259.6652,-214.781C266.7077,-207.1219 274.5187,-199.4222 282.5,-193 290.628,-186.4598 299.7822,-180.2922 308.9652,-174.7099"/>
<polygon fill="#ffa500" stroke="#ffa500" points="256.9371,-212.5816 252.9009,-222.3776 262.165,-217.2367 256.9371,-212.5816"/>
<text text-anchor="middle" x="342.5" y="-196" font-family="Helvetica,sans-Serif" font-size="10.00" fill="#000000"> &lt; ButtonNotifications &gt;</text>
</g>
<!-- Node3 -->
<g id="node4" class="node">
<title>Node3</title>
<g id="a_node4"><a xlink:href="classMouseState.html" target="_top" xlink:title="{MouseState\n|&#45; m_Model\l|+ setPosition()\l+ setCursor()\l+ ~MouseState()\l}">
<polygon fill="none" stroke="#000000" points="52,-.5 52,-79.5 153,-79.5 153,-.5 52,-.5"/>
<text text-anchor="middle" x="102.5" y="-67.5" font-family="Helvetica,sans-Serif" font-size="10.00" fill="#000000">MouseState</text>
<polyline fill="none" stroke="#000000" points="52,-60.5 153,-60.5 "/>
<text text-anchor="start" x="60" y="-48.5" font-family="Helvetica,sans-Serif" font-size="10.00" fill="#000000">&#45; m_Model</text>
<polyline fill="none" stroke="#000000" points="52,-41.5 153,-41.5 "/>
<text text-anchor="start" x="60" y="-29.5" font-family="Helvetica,sans-Serif" font-size="10.00" fill="#000000">+ setPosition()</text>
<text text-anchor="start" x="60" y="-18.5" font-family="Helvetica,sans-Serif" font-size="10.00" fill="#000000">+ setCursor()</text>
<text text-anchor="start" x="60" y="-7.5" font-family="Helvetica,sans-Serif" font-size="10.00" fill="#000000">+ ~MouseState()</text>
</a>
</g>
</g>
<!-- Node2&#45;&gt;Node3 -->
<g id="edge3" class="edge">
<title>Node2&#45;&gt;Node3</title>
<path fill="none" stroke="#191970" d="M102.5,-107.1908C102.5,-98.2839 102.5,-88.7999 102.5,-79.8499"/>
<polygon fill="none" stroke="#191970" points="99.0001,-107.3148 102.5,-117.3149 106.0001,-107.3149 99.0001,-107.3148"/>
</g>
<!-- Node5 -->
<g id="node6" class="node">
<title>Node5</title>
<g id="a_node6"><a xlink:href="classButtonState.html" target="_top" xlink:title="{ButtonState\n|&#45; m_Status\l|+ setStatus()\l+ ~ButtonState()\l}">
<polygon fill="none" stroke="#000000" points="315,-6 315,-74 416,-74 416,-6 315,-6"/>
<text text-anchor="middle" x="365.5" y="-62" font-family="Helvetica,sans-Serif" font-size="10.00" fill="#000000">ButtonState</text>
<polyline fill="none" stroke="#000000" points="315,-55 416,-55 "/>
<text text-anchor="start" x="323" y="-43" font-family="Helvetica,sans-Serif" font-size="10.00" fill="#000000">&#45; m_Status</text>
<polyline fill="none" stroke="#000000" points="315,-36 416,-36 "/>
<text text-anchor="start" x="323" y="-24" font-family="Helvetica,sans-Serif" font-size="10.00" fill="#000000">+ setStatus()</text>
<text text-anchor="start" x="323" y="-13" font-family="Helvetica,sans-Serif" font-size="10.00" fill="#000000">+ ~ButtonState()</text>
</a>
</g>
</g>
<!-- Node4&#45;&gt;Node5 -->
<g id="edge5" class="edge">
<title>Node4&#45;&gt;Node5</title>
<path fill="none" stroke="#191970" d="M365.5,-107.302C365.5,-96.5183 365.5,-84.8808 365.5,-74.3648"/>
<polygon fill="none" stroke="#191970" points="362.0001,-107.3148 365.5,-117.3149 369.0001,-107.3149 362.0001,-107.3148"/>
</g>
</g>
</svg>
