<?xml version="1.0" encoding="UTF-8" standalone="no"?>
<!DOCTYPE svg PUBLIC "-//W3C//DTD SVG 1.1//EN"
 "http://www.w3.org/Graphics/SVG/1.1/DTD/svg11.dtd">
<!-- Generated by graphviz version 2.40.1 (20161225.0304)
 -->
<!-- Title: iLayout Pages: 1 -->
<!--zoomable 745 -->
<svg id="main" version="1.1" xmlns="http://www.w3.org/2000/svg" xmlns:xlink="http://www.w3.org/1999/xlink" xml:space="preserve" onload="init(evt)">
<style type="text/css"><![CDATA[
.edge:hover path { stroke: red; }
.edge:hover polygon { stroke: red; fill: red; }
]]></style>
<script type="text/javascript"><![CDATA[
var edges = document.getElementsByTagName('g');
if (edges && edges.length) {
  for (var i=0;i<edges.length;i++) {
    if (edges[i].id.substr(0,4)=='edge') {
      edges[i].setAttribute('class','edge');
    }
  }
}
]]></script>
        <defs>
                <circle id="rim" cx="0" cy="0" r="7"/>
                <circle id="rim2" cx="0" cy="0" r="3.5"/>
                <g id="zoomPlus">
                        <use xlink:href="#rim" fill="#404040">
                                <set attributeName="fill" to="#808080" begin="zoomplus.mouseover" end="zoomplus.mouseout"/>
                        </use>
                        <path d="M-4,0h8M0,-4v8" fill="none" stroke="white" stroke-width="1.5" pointer-events="none"/>
                </g>
                <g id="zoomMin">
                        <use xlink:href="#rim" fill="#404040">
                                <set attributeName="fill" to="#808080" begin="zoomminus.mouseover" end="zoomminus.mouseout"/>
                        </use>
                        <path d="M-4,0h8" fill="none" stroke="white" stroke-width="1.5" pointer-events="none"/>
                </g>
                <g id="dirArrow">
                        <path fill="none" stroke="white" stroke-width="1.5" d="M0,-3.0v7 M-2.5,-0.5L0,-3.0L2.5,-0.5"/>
                </g>
               <g id="resetDef">
                       <use xlink:href="#rim2" fill="#404040">
                               <set attributeName="fill" to="#808080" begin="reset.mouseover" end="reset.mouseout"/>
                       </use>
               </g>
        </defs>

<script type="text/javascript">
var viewWidth = 350;
var viewHeight = 745;
var sectionId = 'dynsection-1';
</script>
<script xlink:href="svgpan.js"/>
<svg id="graph" class="graph">
<g id="viewport">
<title>iLayout</title>
<!-- Node2 -->
<g id="node1" class="node">
<title>Node2</title>
<polygon fill="#bfbfbf" stroke="#000000" points="82,-.5 82,-178.5 215,-178.5 215,-.5 82,-.5"/>
<text text-anchor="middle" x="148.5" y="-166.5" font-family="Helvetica,sans-Serif" font-size="10.00" fill="#000000">iLayout</text>
<polyline fill="none" stroke="#000000" points="82,-159.5 215,-159.5 "/>
<text text-anchor="start" x="90" y="-147.5" font-family="Helvetica,sans-Serif" font-size="10.00" fill="#000000">&#45; m_Elements</text>
<polyline fill="none" stroke="#000000" points="82,-140.5 215,-140.5 "/>
<text text-anchor="start" x="90" y="-128.5" font-family="Helvetica,sans-Serif" font-size="10.00" fill="#000000">+ getPadding()</text>
<text text-anchor="start" x="90" y="-117.5" font-family="Helvetica,sans-Serif" font-size="10.00" fill="#000000">+ draw()</text>
<text text-anchor="start" x="90" y="-106.5" font-family="Helvetica,sans-Serif" font-size="10.00" fill="#000000">+ iLayout()</text>
<text text-anchor="start" x="90" y="-95.5" font-family="Helvetica,sans-Serif" font-size="10.00" fill="#000000">+ ~iLayout()</text>
<text text-anchor="start" x="90" y="-84.5" font-family="Helvetica,sans-Serif" font-size="10.00" fill="#000000">+ setup()</text>
<text text-anchor="start" x="90" y="-73.5" font-family="Helvetica,sans-Serif" font-size="10.00" fill="#000000"># addElement()</text>
<text text-anchor="start" x="90" y="-62.5" font-family="Helvetica,sans-Serif" font-size="10.00" fill="#000000"># setPadding()</text>
<text text-anchor="start" x="90" y="-51.5" font-family="Helvetica,sans-Serif" font-size="10.00" fill="#000000"># elements()</text>
<text text-anchor="start" x="90" y="-40.5" font-family="Helvetica,sans-Serif" font-size="10.00" fill="#000000"># elements()</text>
<text text-anchor="start" x="90" y="-29.5" font-family="Helvetica,sans-Serif" font-size="10.00" fill="#000000"># computeBoundaries()</text>
<text text-anchor="start" x="90" y="-18.5" font-family="Helvetica,sans-Serif" font-size="10.00" fill="#000000"># getBounds()</text>
<text text-anchor="start" x="90" y="-7.5" font-family="Helvetica,sans-Serif" font-size="10.00" fill="#000000">&#45; setBounds()</text>
</g>
<!-- Node3 -->
<g id="node2" class="node">
<title>Node3</title>
<g id="a_node2"><a xlink:href="classiView.html" target="_top" xlink:title="Represents a View object for drawing and positioning. ">
<polygon fill="none" stroke="#000000" points="0,-281.5 0,-382.5 87,-382.5 87,-281.5 0,-281.5"/>
<text text-anchor="middle" x="43.5" y="-370.5" font-family="Helvetica,sans-Serif" font-size="10.00" fill="#000000">iView</text>
<polyline fill="none" stroke="#000000" points="0,-363.5 87,-363.5 "/>
<text text-anchor="middle" x="43.5" y="-351.5" font-family="Helvetica,sans-Serif" font-size="10.00" fill="#000000"> </text>
<polyline fill="none" stroke="#000000" points="0,-344.5 87,-344.5 "/>
<text text-anchor="start" x="8" y="-332.5" font-family="Helvetica,sans-Serif" font-size="10.00" fill="#000000">+ draw()</text>
<text text-anchor="start" x="8" y="-321.5" font-family="Helvetica,sans-Serif" font-size="10.00" fill="#000000">+ getBounds()</text>
<text text-anchor="start" x="8" y="-310.5" font-family="Helvetica,sans-Serif" font-size="10.00" fill="#000000">+ setBounds()</text>
<text text-anchor="start" x="8" y="-299.5" font-family="Helvetica,sans-Serif" font-size="10.00" fill="#000000">+ setup()</text>
<text text-anchor="start" x="8" y="-288.5" font-family="Helvetica,sans-Serif" font-size="10.00" fill="#000000">+ ~iView()</text>
</a>
</g>
</g>
<!-- Node3&#45;&gt;Node2 -->
<g id="edge1" class="edge">
<title>Node3&#45;&gt;Node2</title>
<path fill="none" stroke="#191970" d="M69.4135,-272.1522C81.6068,-243.9914 96.3996,-209.8271 109.8777,-178.6991"/>
<polygon fill="none" stroke="#191970" points="66.1453,-270.8918 65.3836,-281.4592 72.569,-273.6732 66.1453,-270.8918"/>
</g>
<!-- Node4 -->
<g id="node3" class="node">
<title>Node4</title>
<g id="a_node3"><a xlink:href="classRectangle.html" target="_top" xlink:title="Represents an inclusive rectangle. ">
<polygon fill="none" stroke="#000000" points="105,-226.5 105,-437.5 192,-437.5 192,-226.5 105,-226.5"/>
<text text-anchor="middle" x="148.5" y="-425.5" font-family="Helvetica,sans-Serif" font-size="10.00" fill="#000000">Rectangle</text>
<polyline fill="none" stroke="#000000" points="105,-418.5 192,-418.5 "/>
<text text-anchor="start" x="113" y="-406.5" font-family="Helvetica,sans-Serif" font-size="10.00" fill="#000000">&#45; m_x1</text>
<text text-anchor="start" x="113" y="-395.5" font-family="Helvetica,sans-Serif" font-size="10.00" fill="#000000">&#45; m_y1</text>
<text text-anchor="start" x="113" y="-384.5" font-family="Helvetica,sans-Serif" font-size="10.00" fill="#000000">&#45; m_x2</text>
<text text-anchor="start" x="113" y="-373.5" font-family="Helvetica,sans-Serif" font-size="10.00" fill="#000000">&#45; m_y2</text>
<polyline fill="none" stroke="#000000" points="105,-366.5 192,-366.5 "/>
<text text-anchor="start" x="113" y="-354.5" font-family="Helvetica,sans-Serif" font-size="10.00" fill="#000000">+ Rectangle()</text>
<text text-anchor="start" x="113" y="-343.5" font-family="Helvetica,sans-Serif" font-size="10.00" fill="#000000">+ contains()</text>
<text text-anchor="start" x="113" y="-332.5" font-family="Helvetica,sans-Serif" font-size="10.00" fill="#000000">+ getBounds()</text>
<text text-anchor="start" x="113" y="-321.5" font-family="Helvetica,sans-Serif" font-size="10.00" fill="#000000">+ to_SDL()</text>
<text text-anchor="start" x="113" y="-310.5" font-family="Helvetica,sans-Serif" font-size="10.00" fill="#000000">+ width()</text>
<text text-anchor="start" x="113" y="-299.5" font-family="Helvetica,sans-Serif" font-size="10.00" fill="#000000">+ height()</text>
<text text-anchor="start" x="113" y="-288.5" font-family="Helvetica,sans-Serif" font-size="10.00" fill="#000000">+ p1()</text>
<text text-anchor="start" x="113" y="-277.5" font-family="Helvetica,sans-Serif" font-size="10.00" fill="#000000">+ p2()</text>
<text text-anchor="start" x="113" y="-266.5" font-family="Helvetica,sans-Serif" font-size="10.00" fill="#000000">+ x1()</text>
<text text-anchor="start" x="113" y="-255.5" font-family="Helvetica,sans-Serif" font-size="10.00" fill="#000000">+ x2()</text>
<text text-anchor="start" x="113" y="-244.5" font-family="Helvetica,sans-Serif" font-size="10.00" fill="#000000">and 7 more...</text>
<text text-anchor="start" x="113" y="-233.5" font-family="Helvetica,sans-Serif" font-size="10.00" fill="#000000">+ EMPTY()</text>
</a>
</g>
</g>
<!-- Node4&#45;&gt;Node2 -->
<g id="edge2" class="edge">
<title>Node4&#45;&gt;Node2</title>
<path fill="none" stroke="#404040" d="M148.5,-226.3414C148.5,-214.5003 148.5,-202.4575 148.5,-190.6749"/>
<polygon fill="none" stroke="#404040" points="148.5001,-190.5097 144.5,-184.5097 148.5,-178.5097 152.5,-184.5097 148.5001,-190.5097"/>
<text text-anchor="middle" x="177.5" y="-200" font-family="Helvetica,sans-Serif" font-size="10.00" fill="#000000"> &#45;m_Bounds</text>
</g>
<!-- Node5 -->
<g id="node4" class="node">
<title>Node5</title>
<g id="a_node4"><a xlink:href="classiShape.html" target="_top" xlink:title="{iShape\n||+ contains()\l+ getBounds()\l+ ~iShape()\l}">
<polygon fill="none" stroke="#000000" points="105,-475.5 105,-554.5 192,-554.5 192,-475.5 105,-475.5"/>
<text text-anchor="middle" x="148.5" y="-542.5" font-family="Helvetica,sans-Serif" font-size="10.00" fill="#000000">iShape</text>
<polyline fill="none" stroke="#000000" points="105,-535.5 192,-535.5 "/>
<text text-anchor="middle" x="148.5" y="-523.5" font-family="Helvetica,sans-Serif" font-size="10.00" fill="#000000"> </text>
<polyline fill="none" stroke="#000000" points="105,-516.5 192,-516.5 "/>
<text text-anchor="start" x="113" y="-504.5" font-family="Helvetica,sans-Serif" font-size="10.00" fill="#000000">+ contains()</text>
<text text-anchor="start" x="113" y="-493.5" font-family="Helvetica,sans-Serif" font-size="10.00" fill="#000000">+ getBounds()</text>
<text text-anchor="start" x="113" y="-482.5" font-family="Helvetica,sans-Serif" font-size="10.00" fill="#000000">+ ~iShape()</text>
</a>
</g>
</g>
<!-- Node5&#45;&gt;Node4 -->
<g id="edge3" class="edge">
<title>Node5&#45;&gt;Node4</title>
<path fill="none" stroke="#191970" d="M148.5,-465.0773C148.5,-456.4238 148.5,-447.1402 148.5,-437.6485"/>
<polygon fill="none" stroke="#191970" points="145.0001,-465.2917 148.5,-475.2917 152.0001,-465.2918 145.0001,-465.2917"/>
</g>
<!-- Node6 -->
<g id="node5" class="node">
<title>Node6</title>
<g id="a_node5"><a xlink:href="classPaddingConfiguration.html" target="_top" xlink:title="Represents a PositionHint as padding within a Box. ">
<polygon fill="none" stroke="#000000" points="210.5,-303.5 210.5,-360.5 330.5,-360.5 330.5,-303.5 210.5,-303.5"/>
<text text-anchor="middle" x="270.5" y="-348.5" font-family="Helvetica,sans-Serif" font-size="10.00" fill="#000000">PaddingConfiguration</text>
<polyline fill="none" stroke="#000000" points="210.5,-341.5 330.5,-341.5 "/>
<text text-anchor="middle" x="270.5" y="-329.5" font-family="Helvetica,sans-Serif" font-size="10.00" fill="#000000"> </text>
<polyline fill="none" stroke="#000000" points="210.5,-322.5 330.5,-322.5 "/>
<text text-anchor="middle" x="270.5" y="-310.5" font-family="Helvetica,sans-Serif" font-size="10.00" fill="#000000"> </text>
</a>
</g>
</g>
<!-- Node6&#45;&gt;Node2 -->
<g id="edge4" class="edge">
<title>Node6&#45;&gt;Node2</title>
<path fill="none" stroke="#404040" d="M258.8237,-303.412C247.3081,-275.8047 228.8193,-233.003 210.5,-197 209.2016,-194.4482 207.8709,-191.8717 206.5148,-189.2799"/>
<polygon fill="none" stroke="#404040" points="206.4496,-189.1572 200.1004,-185.7384 200.8142,-178.5627 207.1634,-181.9815 206.4496,-189.1572"/>
<text text-anchor="middle" x="278.5" y="-200" font-family="Helvetica,sans-Serif" font-size="10.00" fill="#000000"> &#45;m_PaddingConfiguration</text>
</g>
<!-- Node7 -->
<g id="node6" class="node">
<title>Node7</title>
<g id="a_node6"><a xlink:href="structPositionHint.html" target="_top" xlink:title="Represents a hint to the position of a (or multiple) Box. ">
<polygon fill="none" stroke="#000000" points="232.5,-486.5 232.5,-543.5 308.5,-543.5 308.5,-486.5 232.5,-486.5"/>
<text text-anchor="middle" x="270.5" y="-531.5" font-family="Helvetica,sans-Serif" font-size="10.00" fill="#000000">PositionHint</text>
<polyline fill="none" stroke="#000000" points="232.5,-524.5 308.5,-524.5 "/>
<text text-anchor="middle" x="270.5" y="-512.5" font-family="Helvetica,sans-Serif" font-size="10.00" fill="#000000"> </text>
<polyline fill="none" stroke="#000000" points="232.5,-505.5 308.5,-505.5 "/>
<text text-anchor="middle" x="270.5" y="-493.5" font-family="Helvetica,sans-Serif" font-size="10.00" fill="#000000"> </text>
</a>
</g>
</g>
<!-- Node7&#45;&gt;Node6 -->
<g id="edge5" class="edge">
<title>Node7&#45;&gt;Node6</title>
<path fill="none" stroke="#191970" d="M270.5,-476.2009C270.5,-441.6195 270.5,-391.8001 270.5,-360.6943"/>
<polygon fill="none" stroke="#191970" points="267.0001,-476.4062 270.5,-486.4063 274.0001,-476.4063 267.0001,-476.4062"/>
</g>
<!-- Node8 -->
<g id="node7" class="node">
<title>Node8</title>
<g id="a_node7"><a xlink:href="structScreenMeasurement.html" target="_top" xlink:title="Represents a measurement made on the screen. ">
<polygon fill="none" stroke="#000000" points="212.5,-635.5 212.5,-736.5 328.5,-736.5 328.5,-635.5 212.5,-635.5"/>
<text text-anchor="middle" x="270.5" y="-724.5" font-family="Helvetica,sans-Serif" font-size="10.00" fill="#000000">ScreenMeasurement</text>
<polyline fill="none" stroke="#000000" points="212.5,-717.5 328.5,-717.5 "/>
<text text-anchor="start" x="220.5" y="-705.5" font-family="Helvetica,sans-Serif" font-size="10.00" fill="#000000">+ px</text>
<text text-anchor="start" x="220.5" y="-694.5" font-family="Helvetica,sans-Serif" font-size="10.00" fill="#000000">+ ew</text>
<text text-anchor="start" x="220.5" y="-683.5" font-family="Helvetica,sans-Serif" font-size="10.00" fill="#000000">+ eh</text>
<text text-anchor="start" x="220.5" y="-672.5" font-family="Helvetica,sans-Serif" font-size="10.00" fill="#000000">+ lw</text>
<text text-anchor="start" x="220.5" y="-661.5" font-family="Helvetica,sans-Serif" font-size="10.00" fill="#000000">+ lh</text>
<polyline fill="none" stroke="#000000" points="212.5,-654.5 328.5,-654.5 "/>
<text text-anchor="start" x="220.5" y="-642.5" font-family="Helvetica,sans-Serif" font-size="10.00" fill="#000000">+ measure()</text>
</a>
</g>
</g>
<!-- Node8&#45;&gt;Node7 -->
<g id="edge6" class="edge">
<title>Node8&#45;&gt;Node7</title>
<path fill="none" stroke="#404040" d="M270.5,-635.1573C270.5,-609.7881 270.5,-579.5187 270.5,-555.7078"/>
<polygon fill="none" stroke="#404040" points="270.5001,-555.5614 266.5,-549.5614 270.5,-543.5614 274.5,-549.5613 270.5001,-555.5614"/>
<text text-anchor="middle" x="294" y="-609" font-family="Helvetica,sans-Serif" font-size="10.00" fill="#000000"> +bottom</text>
<text text-anchor="middle" x="294" y="-598" font-family="Helvetica,sans-Serif" font-size="10.00" fill="#000000">+top</text>
<text text-anchor="middle" x="294" y="-587" font-family="Helvetica,sans-Serif" font-size="10.00" fill="#000000">+right</text>
<text text-anchor="middle" x="294" y="-576" font-family="Helvetica,sans-Serif" font-size="10.00" fill="#000000">+left</text>
</g>
</g>
</svg>
        <g id="navigator" transform="translate(0 0)" fill="#404254">
                <rect fill="#f2f5e9" fill-opacity="0.5" stroke="#606060" stroke-width=".5" x="0" y="0" width="60" height="60"/>
                <use id="zoomplus" xlink:href="#zoomPlus" x="17" y="9" onmousedown="handleZoom(evt,'in')"/>
                <use id="zoomminus" xlink:href="#zoomMin" x="42" y="9" onmousedown="handleZoom(evt,'out')"/>
                <use id="reset" xlink:href="#resetDef" x="30" y="36" onmousedown="handleReset()"/>
                <g id="arrowUp" xlink:href="#dirArrow" transform="translate(30 24)" onmousedown="handlePan(0,-1)">
                  <use xlink:href="#rim" fill="#404040">
                        <set attributeName="fill" to="#808080" begin="arrowUp.mouseover" end="arrowUp.mouseout"/>
                  </use>
                  <path fill="none" stroke="white" stroke-width="1.5" d="M0,-3.0v7 M-2.5,-0.5L0,-3.0L2.5,-0.5"/>
                </g>
                <g id="arrowRight" xlink:href="#dirArrow" transform="rotate(90) translate(36 -43)" onmousedown="handlePan(1,0)">
                  <use xlink:href="#rim" fill="#404040">
                        <set attributeName="fill" to="#808080" begin="arrowRight.mouseover" end="arrowRight.mouseout"/>
                  </use>
                  <path fill="none" stroke="white" stroke-width="1.5" d="M0,-3.0v7 M-2.5,-0.5L0,-3.0L2.5,-0.5"/>
                </g>
                <g id="arrowDown" xlink:href="#dirArrow" transform="rotate(180) translate(-30 -48)" onmousedown="handlePan(0,1)">
                  <use xlink:href="#rim" fill="#404040">
                        <set attributeName="fill" to="#808080" begin="arrowDown.mouseover" end="arrowDown.mouseout"/>
                  </use>
                  <path fill="none" stroke="white" stroke-width="1.5" d="M0,-3.0v7 M-2.5,-0.5L0,-3.0L2.5,-0.5"/>
                </g>
                <g id="arrowLeft" xlink:href="#dirArrow" transform="rotate(270) translate(-36 17)" onmousedown="handlePan(-1,0)">
                  <use xlink:href="#rim" fill="#404040">
                        <set attributeName="fill" to="#808080" begin="arrowLeft.mouseover" end="arrowLeft.mouseout"/>
                  </use>
                  <path fill="none" stroke="white" stroke-width="1.5" d="M0,-3.0v7 M-2.5,-0.5L0,-3.0L2.5,-0.5"/>
                </g>
        </g>
        <svg viewBox="0 0 15 15" width="100%" height="30px" preserveAspectRatio="xMaxYMin meet">
         <g id="arrow_out" transform="scale(0.3 0.3)">
          <a xlink:href="classiLayout__coll__graph_org.svg" target="_base">
           <rect id="button" ry="5" rx="5" y="6" x="6" height="38" width="38"
                fill="#f2f5e9" fill-opacity="0.5" stroke="#606060" stroke-width="1.0"/>
           <path id="arrow"
             d="M 11.500037,31.436501 C 11.940474,20.09759 22.043105,11.32322 32.158766,21.979434 L 37.068811,17.246167 C 37.068811,17.246167 37.088388,32 37.088388,32 L 22.160133,31.978069 C 22.160133,31.978069 26.997745,27.140456 26.997745,27.140456 C 18.528582,18.264221 13.291696,25.230495 11.500037,31.436501 z"
             style="fill:#404040;"/>
          </a>
         </g>
        </svg>
</svg>
