<?xml version="1.0" encoding="UTF-8" standalone="no"?>
<!DOCTYPE svg PUBLIC "-//W3C//DTD SVG 1.1//EN"
 "http://www.w3.org/Graphics/SVG/1.1/DTD/svg11.dtd">
<!-- Generated by graphviz version 2.40.1 (20161225.0304)
 -->
<!-- Title: Map::findNodeInMap Pages: 1 -->
<svg width="830pt" height="47pt"
 viewBox="0.00 0.00 830.00 47.00" xmlns="http://www.w3.org/2000/svg" xmlns:xlink="http://www.w3.org/1999/xlink">
<g id="graph0" class="graph" transform="scale(1 1) rotate(0) translate(4 43)">
<title>Map::findNodeInMap</title>
<!-- Node35 -->
<g id="node1" class="node">
<title>Node35</title>
<polygon fill="#bfbfbf" stroke="#000000" points="0,-.5 0,-19.5 116,-19.5 116,-.5 0,-.5"/>
<text text-anchor="middle" x="58" y="-7.5" font-family="Helvetica,sans-Serif" font-size="10.00" fill="#000000">Map::findNodeInMap</text>
</g>
<!-- Node36 -->
<g id="node2" class="node">
<title>Node36</title>
<g id="a_node2"><a xlink:href="isoMath_8hxx.html#ad3c5f070c4a876bc6e8978635d02ce52" target="_top" xlink:title="converts screen space coordinates to isometric space coordinates. To convert screen coordinates in to...">
<polygon fill="none" stroke="#000000" points="152,-19.5 152,-38.5 322,-38.5 322,-19.5 152,-19.5"/>
<text text-anchor="middle" x="237" y="-26.5" font-family="Helvetica,sans-Serif" font-size="10.00" fill="#000000">convertScreenToIsoCoordinates</text>
</a>
</g>
</g>
<!-- Node35&#45;&gt;Node36 -->
<g id="edge1" class="edge">
<title>Node35&#45;&gt;Node36</title>
<path fill="none" stroke="#191970" d="M126.2057,-17.2397C134.6028,-18.131 143.2655,-19.0505 151.874,-19.9643"/>
<polygon fill="#191970" stroke="#191970" points="126.4298,-13.7439 116.1162,-16.1688 125.6908,-20.7048 126.4298,-13.7439"/>
</g>
<!-- Node37 -->
<g id="node3" class="node">
<title>Node37</title>
<g id="a_node3"><a xlink:href="classEventManager.html#a65ec91fd5016d4f9c4167fb8babed2df" target="_top" xlink:title="EventManager::checkEvents">
<polygon fill="none" stroke="#000000" points="358,-.5 358,-19.5 512,-19.5 512,-.5 358,-.5"/>
<text text-anchor="middle" x="435" y="-7.5" font-family="Helvetica,sans-Serif" font-size="10.00" fill="#000000">EventManager::checkEvents</text>
</a>
</g>
</g>
<!-- Node35&#45;&gt;Node37 -->
<g id="edge6" class="edge">
<title>Node35&#45;&gt;Node37</title>
<path fill="none" stroke="#191970" d="M126.2632,-10C191.5391,-10 289.8334,-10 357.9019,-10"/>
<polygon fill="#191970" stroke="#191970" points="126.0801,-6.5001 116.08,-10 126.08,-13.5001 126.0801,-6.5001"/>
</g>
<!-- Node36&#45;&gt;Node37 -->
<g id="edge2" class="edge">
<title>Node36&#45;&gt;Node37</title>
<path fill="none" stroke="#191970" d="M332.161,-19.8684C340.7436,-19.0448 349.3647,-18.2175 357.7658,-17.4114"/>
<polygon fill="#191970" stroke="#191970" points="331.7388,-16.3927 322.1189,-20.832 332.4075,-23.3607 331.7388,-16.3927"/>
</g>
<!-- Node38 -->
<g id="node4" class="node">
<title>Node38</title>
<g id="a_node4"><a xlink:href="classGame.html#a1c2ab25d5216b2f4b2fe41efd2c09114" target="_top" xlink:title="begins the game starts running the game ">
<polygon fill="none" stroke="#000000" points="548,-.5 548,-19.5 616,-19.5 616,-.5 548,-.5"/>
<text text-anchor="middle" x="582" y="-7.5" font-family="Helvetica,sans-Serif" font-size="10.00" fill="#000000">Game::run</text>
</a>
</g>
</g>
<!-- Node37&#45;&gt;Node38 -->
<g id="edge3" class="edge">
<title>Node37&#45;&gt;Node38</title>
<path fill="none" stroke="#191970" d="M522.5248,-10C531.4338,-10 540.0572,-10 547.845,-10"/>
<polygon fill="#191970" stroke="#191970" points="522.3744,-6.5001 512.3744,-10 522.3743,-13.5001 522.3744,-6.5001"/>
</g>
<!-- Node39 -->
<g id="node5" class="node">
<title>Node39</title>
<g id="a_node5"><a xlink:href="main_8cxx.html#af582d708d899e67ead623eac34a22387" target="_top" xlink:title="protected_main">
<polygon fill="none" stroke="#000000" points="652,-.5 652,-19.5 745,-19.5 745,-.5 652,-.5"/>
<text text-anchor="middle" x="698.5" y="-7.5" font-family="Helvetica,sans-Serif" font-size="10.00" fill="#000000">protected_main</text>
</a>
</g>
</g>
<!-- Node38&#45;&gt;Node39 -->
<g id="edge4" class="edge">
<title>Node38&#45;&gt;Node39</title>
<path fill="none" stroke="#191970" d="M626.2653,-10C634.5757,-10 643.2897,-10 651.6749,-10"/>
<polygon fill="#191970" stroke="#191970" points="626.0098,-6.5001 616.0098,-10 626.0098,-13.5001 626.0098,-6.5001"/>
</g>
<!-- Node40 -->
<g id="node6" class="node">
<title>Node40</title>
<g id="a_node6"><a xlink:href="main_8cxx.html#a3c04138a5bfe5d72780bb7e82a18e627" target="_top" xlink:title="main">
<polygon fill="none" stroke="#000000" points="781,-.5 781,-19.5 822,-19.5 822,-.5 781,-.5"/>
<text text-anchor="middle" x="801.5" y="-7.5" font-family="Helvetica,sans-Serif" font-size="10.00" fill="#000000">main</text>
</a>
</g>
</g>
<!-- Node39&#45;&gt;Node40 -->
<g id="edge5" class="edge">
<title>Node39&#45;&gt;Node40</title>
<path fill="none" stroke="#191970" d="M755.2133,-10C764.4322,-10 773.4259,-10 780.9965,-10"/>
<polygon fill="#191970" stroke="#191970" points="755.1782,-6.5001 745.1782,-10 755.1781,-13.5001 755.1782,-6.5001"/>
</g>
</g>
</svg>
