<?xml version="1.0" encoding="UTF-8" standalone="no"?>
<!DOCTYPE svg PUBLIC "-//W3C//DTD SVG 1.1//EN"
 "http://www.w3.org/Graphics/SVG/1.1/DTD/svg11.dtd">
<!-- Generated by graphviz version 2.40.1 (20161225.0304)
 -->
<!-- Title: Sprite::setTexture Pages: 1 -->
<svg width="601pt" height="154pt"
 viewBox="0.00 0.00 601.00 153.50" xmlns="http://www.w3.org/2000/svg" xmlns:xlink="http://www.w3.org/1999/xlink">
<g id="graph0" class="graph" transform="scale(1 1) rotate(0) translate(4 149.5)">
<title>Sprite::setTexture</title>
<!-- Node71 -->
<g id="node1" class="node">
<title>Node71</title>
<polygon fill="#bfbfbf" stroke="#000000" points="0,-77.5 0,-96.5 102,-96.5 102,-77.5 0,-77.5"/>
<text text-anchor="middle" x="51" y="-84.5" font-family="Helvetica,sans-Serif" font-size="10.00" fill="#000000">Sprite::setTexture</text>
</g>
<!-- Node72 -->
<g id="node2" class="node">
<title>Node72</title>
<g id="a_node2"><a xlink:href="classSprite.html#ababb7913a4d642b0d20a2c48c2a7e77a" target="_top" xlink:title="Sprite::refresh">
<polygon fill="none" stroke="#000000" points="138,-77.5 138,-96.5 224,-96.5 224,-77.5 138,-77.5"/>
<text text-anchor="middle" x="181" y="-84.5" font-family="Helvetica,sans-Serif" font-size="10.00" fill="#000000">Sprite::refresh</text>
</a>
</g>
</g>
<!-- Node71&#45;&gt;Node72 -->
<g id="edge1" class="edge">
<title>Node71&#45;&gt;Node72</title>
<path fill="none" stroke="#191970" d="M102.0063,-87C110.4012,-87 119.1229,-87 127.5749,-87"/>
<polygon fill="#191970" stroke="#191970" points="127.7105,-90.5001 137.7105,-87 127.7104,-83.5001 127.7105,-90.5001"/>
</g>
<!-- Node73 -->
<g id="node3" class="node">
<title>Node73</title>
<g id="a_node3"><a xlink:href="classSingleton.html#af5cb1e5749949e2b68416cfb8d378044" target="_top" xlink:title="Get an instance of the singleton. ">
<polygon fill="none" stroke="#000000" points="468,-115 468,-145 591,-145 591,-115 468,-115"/>
<text text-anchor="start" x="476" y="-133" font-family="Helvetica,sans-Serif" font-size="10.00" fill="#000000">Singleton&lt; Camera &gt;</text>
<text text-anchor="middle" x="529.5" y="-122" font-family="Helvetica,sans-Serif" font-size="10.00" fill="#000000">::instance</text>
</a>
</g>
</g>
<!-- Node72&#45;&gt;Node73 -->
<g id="edge2" class="edge">
<title>Node72&#45;&gt;Node73</title>
<path fill="none" stroke="#191970" d="M224.4012,-94.5604C235.952,-96.458 248.4336,-98.4057 260,-100 326.8141,-109.2097 403.2503,-117.507 457.6132,-123.0288"/>
<polygon fill="#191970" stroke="#191970" points="457.5396,-126.539 467.8406,-124.0613 458.2428,-119.5744 457.5396,-126.539"/>
</g>
<!-- Node74 -->
<g id="node4" class="node">
<title>Node74</title>
<g id="a_node4"><a xlink:href="classCamera.html#a72f8d27fc42f8292cc319084409d718e" target="_top" xlink:title="Camera::zoomLevel">
<polygon fill="none" stroke="#000000" points="472.5,-76.5 472.5,-95.5 586.5,-95.5 586.5,-76.5 472.5,-76.5"/>
<text text-anchor="middle" x="529.5" y="-83.5" font-family="Helvetica,sans-Serif" font-size="10.00" fill="#000000">Camera::zoomLevel</text>
</a>
</g>
</g>
<!-- Node72&#45;&gt;Node74 -->
<g id="edge3" class="edge">
<title>Node72&#45;&gt;Node74</title>
<path fill="none" stroke="#191970" d="M224.0825,-86.8764C283.7057,-86.7053 391.9609,-86.3947 462.2729,-86.1929"/>
<polygon fill="#191970" stroke="#191970" points="462.3713,-89.6927 472.3612,-86.164 462.3512,-82.6928 462.3713,-89.6927"/>
</g>
<!-- Node75 -->
<g id="node5" class="node">
<title>Node75</title>
<g id="a_node5"><a xlink:href="isoMath_8cxx.html#a229d5dd54cd4e1f43ed5911e4fd266d3" target="_top" xlink:title="converts coordinates from isometric to screen space The given isometric coordinates (which contain he...">
<polygon fill="none" stroke="#000000" points="260,-39.5 260,-58.5 430,-58.5 430,-39.5 260,-39.5"/>
<text text-anchor="middle" x="345" y="-46.5" font-family="Helvetica,sans-Serif" font-size="10.00" fill="#000000">convertIsoToScreenCoordinates</text>
</a>
</g>
</g>
<!-- Node72&#45;&gt;Node75 -->
<g id="edge4" class="edge">
<title>Node72&#45;&gt;Node75</title>
<path fill="none" stroke="#191970" d="M222.3841,-77.411C244.1232,-72.3739 270.9575,-66.1562 293.9747,-60.8229"/>
<polygon fill="#191970" stroke="#191970" points="294.9616,-64.1871 303.9135,-58.5201 293.3815,-57.3677 294.9616,-64.1871"/>
</g>
<!-- Node75&#45;&gt;Node73 -->
<g id="edge5" class="edge">
<title>Node75&#45;&gt;Node73</title>
<path fill="none" stroke="#191970" d="M364.9641,-58.6756C388.8216,-70.1364 430.0338,-89.6128 466,-105 470.7129,-107.0163 475.6465,-109.0651 480.5917,-111.0779"/>
<polygon fill="#191970" stroke="#191970" points="479.4769,-114.402 490.0606,-114.8862 482.0889,-107.9075 479.4769,-114.402"/>
</g>
<!-- Node75&#45;&gt;Node74 -->
<g id="edge7" class="edge">
<title>Node75&#45;&gt;Node74</title>
<path fill="none" stroke="#191970" d="M392.5133,-58.5284C416.7375,-63.3864 446.3921,-69.3334 471.9075,-74.4503"/>
<polygon fill="#191970" stroke="#191970" points="471.3344,-77.905 481.8274,-76.4396 472.7108,-71.0416 471.3344,-77.905"/>
</g>
<!-- Node76 -->
<g id="node6" class="node">
<title>Node76</title>
<g id="a_node6"><a xlink:href="classCamera.html#a8521826d32e55e2cc92fee0fcd10ea8b" target="_top" xlink:title="Camera::cameraOffset">
<polygon fill="none" stroke="#000000" points="466,-38.5 466,-57.5 593,-57.5 593,-38.5 466,-38.5"/>
<text text-anchor="middle" x="529.5" y="-45.5" font-family="Helvetica,sans-Serif" font-size="10.00" fill="#000000">Camera::cameraOffset</text>
</a>
</g>
</g>
<!-- Node75&#45;&gt;Node76 -->
<g id="edge6" class="edge">
<title>Node75&#45;&gt;Node76</title>
<path fill="none" stroke="#191970" d="M430.2292,-48.5381C438.7541,-48.4918 447.3595,-48.4452 455.7519,-48.3997"/>
<polygon fill="#191970" stroke="#191970" points="455.8825,-51.8992 465.8633,-48.3449 455.8444,-44.8993 455.8825,-51.8992"/>
</g>
<!-- Node77 -->
<g id="node7" class="node">
<title>Node77</title>
<g id="a_node7"><a xlink:href="classCamera.html#a96eee891e27570059e7ef82916dce1c1" target="_top" xlink:title="Camera::tileSize">
<polygon fill="none" stroke="#000000" points="481,-.5 481,-19.5 578,-19.5 578,-.5 481,-.5"/>
<text text-anchor="middle" x="529.5" y="-7.5" font-family="Helvetica,sans-Serif" font-size="10.00" fill="#000000">Camera::tileSize</text>
</a>
</g>
</g>
<!-- Node75&#45;&gt;Node77 -->
<g id="edge8" class="edge">
<title>Node75&#45;&gt;Node77</title>
<path fill="none" stroke="#191970" d="M390.1338,-39.4595C415.5803,-34.0806 447.5648,-27.3196 474.4728,-21.6318"/>
<polygon fill="#191970" stroke="#191970" points="475.4529,-25.002 484.5128,-19.5095 474.0051,-18.1534 475.4529,-25.002"/>
</g>
</g>
</svg>
