<?xml version="1.0" encoding="UTF-8" standalone="no"?>
<!DOCTYPE svg PUBLIC "-//W3C//DTD SVG 1.1//EN"
 "http://www.w3.org/Graphics/SVG/1.1/DTD/svg11.dtd">
<!-- Generated by graphviz version 2.40.1 (20161225.0304)
 -->
<!-- Title: Text::getFontSize Pages: 1 -->
<svg width="423pt" height="154pt"
 viewBox="0.00 0.00 423.00 154.00" xmlns="http://www.w3.org/2000/svg" xmlns:xlink="http://www.w3.org/1999/xlink">
<g id="graph0" class="graph" transform="scale(1 1) rotate(0) translate(4 150)">
<title>Text::getFontSize</title>
<!-- Node35 -->
<g id="node1" class="node">
<title>Node35</title>
<polygon fill="#bfbfbf" stroke="#000000" points="0,-60.5 0,-79.5 100,-79.5 100,-60.5 0,-60.5"/>
<text text-anchor="middle" x="50" y="-67.5" font-family="Helvetica,sans-Serif" font-size="10.00" fill="#000000">Text::getFontSize</text>
</g>
<!-- Node36 -->
<g id="node2" class="node">
<title>Node36</title>
<g id="a_node2"><a xlink:href="classText.html#a3bf5a064fd37d06b8d3dc5a700556897" target="_top" xlink:title="Draws a text string to the screen Draws a text string to the screen. This could either be a standalon...">
<polygon fill="none" stroke="#000000" points="136,-60.5 136,-79.5 266,-79.5 266,-60.5 136,-60.5"/>
<text text-anchor="middle" x="201" y="-67.5" font-family="Helvetica,sans-Serif" font-size="10.00" fill="#000000">Text::createTextTexture</text>
</a>
</g>
</g>
<!-- Node35&#45;&gt;Node36 -->
<g id="edge1" class="edge">
<title>Node35&#45;&gt;Node36</title>
<path fill="none" stroke="#191970" d="M100.2808,-70C108.4821,-70 117.1319,-70 125.7769,-70"/>
<polygon fill="#191970" stroke="#191970" points="125.896,-73.5001 135.8959,-70 125.8959,-66.5001 125.896,-73.5001"/>
</g>
<!-- Node37 -->
<g id="node3" class="node">
<title>Node37</title>
<g id="a_node3"><a xlink:href="namespacefs.html#a28e4c1324680c188092ecfe5fd8a91a3" target="_top" xlink:title="fs::getBasePath">
<polygon fill="none" stroke="#000000" points="312.5,-126.5 312.5,-145.5 404.5,-145.5 404.5,-126.5 312.5,-126.5"/>
<text text-anchor="middle" x="358.5" y="-133.5" font-family="Helvetica,sans-Serif" font-size="10.00" fill="#000000">fs::getBasePath</text>
</a>
</g>
</g>
<!-- Node36&#45;&gt;Node37 -->
<g id="edge2" class="edge">
<title>Node36&#45;&gt;Node37</title>
<path fill="none" stroke="#191970" d="M220.0831,-79.6566C240.1866,-89.6449 272.9034,-105.3794 302,-117 307.2258,-119.0871 312.7806,-121.1448 318.289,-123.0913"/>
<polygon fill="#191970" stroke="#191970" points="317.478,-126.5136 328.0727,-126.4576 319.7555,-119.8944 317.478,-126.5136"/>
</g>
<!-- Node38 -->
<g id="node4" class="node">
<title>Node38</title>
<g id="a_node4"><a xlink:href="classSingleton.html#af5cb1e5749949e2b68416cfb8d378044" target="_top" xlink:title="Get an instance of the singleton. ">
<polygon fill="none" stroke="#000000" points="302,-77 302,-107 415,-107 415,-77 302,-77"/>
<text text-anchor="start" x="310" y="-95" font-family="Helvetica,sans-Serif" font-size="10.00" fill="#000000">Singleton&lt; Settings</text>
<text text-anchor="middle" x="358.5" y="-84" font-family="Helvetica,sans-Serif" font-size="10.00" fill="#000000"> &gt;::instance</text>
</a>
</g>
</g>
<!-- Node36&#45;&gt;Node38 -->
<g id="edge3" class="edge">
<title>Node36&#45;&gt;Node38</title>
<path fill="none" stroke="#191970" d="M266.4259,-79.1389C274.7178,-80.2971 283.2128,-81.4837 291.5285,-82.6452"/>
<polygon fill="#191970" stroke="#191970" points="291.1691,-86.1289 301.5571,-84.0461 292.1375,-79.1962 291.1691,-86.1289"/>
</g>
<!-- Node39 -->
<g id="node5" class="node">
<title>Node39</title>
<g id="a_node5"><a xlink:href="structStrongType.html#acc66e6d6b9c95193a97a839560499933" target="_top" xlink:title="StrongType::get">
<polygon fill="none" stroke="#000000" points="312.5,-38.5 312.5,-57.5 404.5,-57.5 404.5,-38.5 312.5,-38.5"/>
<text text-anchor="middle" x="358.5" y="-45.5" font-family="Helvetica,sans-Serif" font-size="10.00" fill="#000000">StrongType::get</text>
</a>
</g>
</g>
<!-- Node36&#45;&gt;Node39 -->
<g id="edge4" class="edge">
<title>Node36&#45;&gt;Node39</title>
<path fill="none" stroke="#191970" d="M266.4259,-60.8611C278.323,-59.1993 290.6381,-57.4791 302.2419,-55.8583"/>
<polygon fill="#191970" stroke="#191970" points="302.8081,-59.3133 312.2277,-54.4634 301.8397,-52.3806 302.8081,-59.3133"/>
</g>
<!-- Node40 -->
<g id="node6" class="node">
<title>Node40</title>
<g id="a_node6"><a xlink:href="namespacefs.html#a000d1f9ae14d782b6193298e6d27023f" target="_top" xlink:title="fs::fileExists">
<polygon fill="none" stroke="#000000" points="320.5,-.5 320.5,-19.5 396.5,-19.5 396.5,-.5 320.5,-.5"/>
<text text-anchor="middle" x="358.5" y="-7.5" font-family="Helvetica,sans-Serif" font-size="10.00" fill="#000000">fs::fileExists</text>
</a>
</g>
</g>
<!-- Node36&#45;&gt;Node40 -->
<g id="edge5" class="edge">
<title>Node36&#45;&gt;Node40</title>
<path fill="none" stroke="#191970" d="M223.3106,-60.4848C243.6747,-51.9096 274.6737,-39.1303 302,-29 307.5947,-26.926 313.5352,-24.8224 319.382,-22.8078"/>
<polygon fill="#191970" stroke="#191970" points="320.7124,-26.0524 329.0556,-19.5223 318.4612,-19.4242 320.7124,-26.0524"/>
</g>
</g>
</svg>
