<?xml version="1.0" encoding="UTF-8" standalone="no"?>
<!DOCTYPE svg PUBLIC "-//W3C//DTD SVG 1.1//EN"
 "http://www.w3.org/Graphics/SVG/1.1/DTD/svg11.dtd">
<!-- Generated by graphviz version 2.40.1 (20161225.0304)
 -->
<!-- Title: MapNode::isLayerAutoTile Pages: 1 -->
<svg width="765pt" height="156pt"
 viewBox="0.00 0.00 765.00 156.00" xmlns="http://www.w3.org/2000/svg" xmlns:xlink="http://www.w3.org/1999/xlink">
<g id="graph0" class="graph" transform="scale(1 1) rotate(0) translate(4 152)">
<title>MapNode::isLayerAutoTile</title>
<!-- Node128 -->
<g id="node1" class="node">
<title>Node128</title>
<polygon fill="#bfbfbf" stroke="#000000" points="0,-52.5 0,-71.5 144,-71.5 144,-52.5 0,-52.5"/>
<text text-anchor="middle" x="72" y="-59.5" font-family="Helvetica,sans-Serif" font-size="10.00" fill="#000000">MapNode::isLayerAutoTile</text>
</g>
<!-- Node129 -->
<g id="node2" class="node">
<title>Node129</title>
<g id="a_node2"><a xlink:href="classMapNode.html#aabbb10c19ddd79e9c519eb4af5e995e0" target="_top" xlink:title="Update texture. ">
<polygon fill="none" stroke="#000000" points="193.5,-82.5 193.5,-101.5 331.5,-101.5 331.5,-82.5 193.5,-82.5"/>
<text text-anchor="middle" x="262.5" y="-89.5" font-family="Helvetica,sans-Serif" font-size="10.00" fill="#000000">MapNode::updateTexture</text>
</a>
</g>
</g>
<!-- Node128&#45;&gt;Node129 -->
<g id="edge1" class="edge">
<title>Node128&#45;&gt;Node129</title>
<path fill="none" stroke="#191970" d="M142.6083,-73.1194C162.1631,-76.1989 183.2059,-79.5127 202.1204,-82.4914"/>
<polygon fill="#191970" stroke="#191970" points="142.9599,-69.6317 132.5371,-71.5334 141.8709,-76.5465 142.9599,-69.6317"/>
</g>
<!-- Node135 -->
<g id="node8" class="node">
<title>Node135</title>
<g id="a_node8"><a xlink:href="classMap.html#af192be95053d30ea6c6d9327106bf6d8" target="_top" xlink:title="Get a bitmask that represents same&#45;tile neighbors Checks all neighboring tiles and returns the elevat...">
<polygon fill="none" stroke="#000000" points="180,-.5 180,-63.5 345,-63.5 345,-.5 180,-.5"/>
<text text-anchor="start" x="188" y="-51.5" font-family="Helvetica,sans-Serif" font-size="10.00" fill="#000000">Map&lt; ObserverSPtr&lt;</text>
<text text-anchor="start" x="188" y="-40.5" font-family="Helvetica,sans-Serif" font-size="10.00" fill="#000000"> Notification &gt;, Set</text>
<text text-anchor="start" x="188" y="-29.5" font-family="Helvetica,sans-Serif" font-size="10.00" fill="#000000">&lt; typename Notification</text>
<text text-anchor="start" x="188" y="-18.5" font-family="Helvetica,sans-Serif" font-size="10.00" fill="#000000">::TransitionType &gt; &gt;::calculate</text>
<text text-anchor="middle" x="262.5" y="-7.5" font-family="Helvetica,sans-Serif" font-size="10.00" fill="#000000">AutotileBitmask</text>
</a>
</g>
</g>
<!-- Node128&#45;&gt;Node135 -->
<g id="edge8" class="edge">
<title>Node128&#45;&gt;Node135</title>
<path fill="none" stroke="#191970" d="M142.5766,-50.8856C154.7117,-48.9745 167.4205,-46.9731 179.8389,-45.0175"/>
<polygon fill="#191970" stroke="#191970" points="141.8709,-47.4535 132.5371,-52.4666 142.9599,-54.3683 141.8709,-47.4535"/>
</g>
<!-- Node130 -->
<g id="node3" class="node">
<title>Node130</title>
<g id="a_node3"><a xlink:href="classMapNode.html#ae515fc96b543bf97237bfb1ca53fe571" target="_top" xlink:title="MapNode::MapNode">
<polygon fill="none" stroke="#000000" points="599.5,-128.5 599.5,-147.5 713.5,-147.5 713.5,-128.5 599.5,-128.5"/>
<text text-anchor="middle" x="656.5" y="-135.5" font-family="Helvetica,sans-Serif" font-size="10.00" fill="#000000">MapNode::MapNode</text>
</a>
</g>
</g>
<!-- Node129&#45;&gt;Node130 -->
<g id="edge2" class="edge">
<title>Node129&#45;&gt;Node130</title>
<path fill="none" stroke="#191970" d="M295.0789,-105.1899C318.5424,-114.0066 351.1876,-124.8925 381,-130 455.6353,-142.7865 543.2728,-142.8217 599.3174,-140.9843"/>
<polygon fill="#191970" stroke="#191970" points="296.2105,-101.8754 285.6203,-101.5609 293.7029,-108.4108 296.2105,-101.8754"/>
</g>
<!-- Node131 -->
<g id="node4" class="node">
<title>Node131</title>
<g id="a_node4"><a xlink:href="classMapNode.html#a92b521fa20e0a75d81523a52ba1d8250" target="_top" xlink:title="MapNode::setBitmask">
<polygon fill="none" stroke="#000000" points="388.5,-101.5 388.5,-120.5 512.5,-120.5 512.5,-101.5 388.5,-101.5"/>
<text text-anchor="middle" x="450.5" y="-108.5" font-family="Helvetica,sans-Serif" font-size="10.00" fill="#000000">MapNode::setBitmask</text>
</a>
</g>
</g>
<!-- Node129&#45;&gt;Node131 -->
<g id="edge3" class="edge">
<title>Node129&#45;&gt;Node131</title>
<path fill="none" stroke="#191970" d="M341.8086,-100.0152C357.3344,-101.5843 373.4084,-103.2088 388.2796,-104.7118"/>
<polygon fill="#191970" stroke="#191970" points="342.0046,-96.5173 331.7033,-98.994 341.3007,-103.4818 342.0046,-96.5173"/>
</g>
<!-- Node132 -->
<g id="node5" class="node">
<title>Node132</title>
<g id="a_node5"><a xlink:href="classMapNode.html#a26e55c94192a56990f8a59e7af139a73" target="_top" xlink:title="MapNode::setTileID">
<polygon fill="none" stroke="#000000" points="394.5,-63.5 394.5,-82.5 506.5,-82.5 506.5,-63.5 394.5,-63.5"/>
<text text-anchor="middle" x="450.5" y="-70.5" font-family="Helvetica,sans-Serif" font-size="10.00" fill="#000000">MapNode::setTileID</text>
</a>
</g>
</g>
<!-- Node129&#45;&gt;Node132 -->
<g id="edge4" class="edge">
<title>Node129&#45;&gt;Node132</title>
<path fill="none" stroke="#191970" d="M341.9741,-83.968C359.5877,-82.1879 377.8985,-80.3374 394.3519,-78.6745"/>
<polygon fill="#191970" stroke="#191970" points="341.3007,-80.5182 331.7033,-85.006 342.0046,-87.4827 341.3007,-80.5182"/>
</g>
<!-- Node134 -->
<g id="node7" class="node">
<title>Node134</title>
<g id="a_node7"><a xlink:href="classMapNode.html#a002b868485074599fbf087fc4c96b2c9" target="_top" xlink:title="Demolish a node Removes all tiles on a node. This effects all layers where something to demolish is p...">
<polygon fill="none" stroke="#000000" points="381,-25.5 381,-44.5 520,-44.5 520,-25.5 381,-25.5"/>
<text text-anchor="middle" x="450.5" y="-32.5" font-family="Helvetica,sans-Serif" font-size="10.00" fill="#000000">MapNode::demolishNode</text>
</a>
</g>
</g>
<!-- Node129&#45;&gt;Node134 -->
<g id="edge7" class="edge">
<title>Node129&#45;&gt;Node134</title>
<path fill="none" stroke="#191970" d="M323.0726,-79.9583C330.5445,-77.916 338.0074,-75.6 345,-73 361.9574,-66.6947 364.1738,-60.6474 381,-54 390.0743,-50.4151 400.071,-47.2509 409.5855,-44.5838"/>
<polygon fill="#191970" stroke="#191970" points="322.0908,-76.5969 313.2837,-82.4863 323.8412,-83.3745 322.0908,-76.5969"/>
</g>
<!-- Node132&#45;&gt;Node130 -->
<g id="edge5" class="edge">
<title>Node132&#45;&gt;Node130</title>
<path fill="none" stroke="#191970" d="M500.0356,-85.3994C506.8033,-87.4248 513.6147,-89.64 520,-92 536.597,-98.1341 539.4466,-102.7493 556,-109 576.047,-116.5698 598.9657,-123.3227 617.8496,-128.4034"/>
<polygon fill="#191970" stroke="#191970" points="500.784,-81.9728 490.2061,-82.5731 498.8495,-88.7003 500.784,-81.9728"/>
</g>
<!-- Node133 -->
<g id="node6" class="node">
<title>Node133</title>
<g id="a_node6"><a xlink:href="classMap.html#a404c38b33d61f8c63ce2c2efb864d6dd" target="_top" xlink:title="Set the Tile ID Of Node object Also invokes all necessary texture updates (auto&#45;tiling, slopes, ...) ">
<polygon fill="none" stroke="#000000" points="556,-47 556,-99 757,-99 757,-47 556,-47"/>
<text text-anchor="start" x="564" y="-87" font-family="Helvetica,sans-Serif" font-size="10.00" fill="#000000">Map&lt; ObserverSPtr&lt;</text>
<text text-anchor="start" x="564" y="-76" font-family="Helvetica,sans-Serif" font-size="10.00" fill="#000000"> Notification &gt;, Set</text>
<text text-anchor="start" x="564" y="-65" font-family="Helvetica,sans-Serif" font-size="10.00" fill="#000000">&lt; typename Notification</text>
<text text-anchor="middle" x="656.5" y="-54" font-family="Helvetica,sans-Serif" font-size="10.00" fill="#000000">::TransitionType &gt; &gt;::setTileIDOfNode</text>
</a>
</g>
</g>
<!-- Node132&#45;&gt;Node133 -->
<g id="edge6" class="edge">
<title>Node132&#45;&gt;Node133</title>
<path fill="none" stroke="#191970" d="M516.7581,-73C529.2017,-73 542.4687,-73 555.6876,-73"/>
<polygon fill="#191970" stroke="#191970" points="516.5183,-69.5001 506.5183,-73 516.5183,-76.5001 516.5183,-69.5001"/>
</g>
</g>
</svg>
