<?xml version="1.0" encoding="UTF-8" standalone="no"?>
<!DOCTYPE svg PUBLIC "-//W3C//DTD SVG 1.1//EN"
 "http://www.w3.org/Graphics/SVG/1.1/DTD/svg11.dtd">
<!-- Generated by graphviz version 2.40.1 (20161225.0304)
 -->
<!-- Title: TileManager::TileManager Pages: 1 -->
<svg width="993pt" height="178pt"
 viewBox="0.00 0.00 993.00 177.50" xmlns="http://www.w3.org/2000/svg" xmlns:xlink="http://www.w3.org/1999/xlink">
<g id="graph0" class="graph" transform="scale(1 1) rotate(0) translate(4 173.5)">
<title>TileManager::TileManager</title>
<!-- Node2 -->
<g id="node1" class="node">
<title>Node2</title>
<polygon fill="#bfbfbf" stroke="#000000" points="0,-93 0,-112 143,-112 143,-93 0,-93"/>
<text text-anchor="middle" x="71.5" y="-100" font-family="Helvetica,sans-Serif" font-size="10.00" fill="#000000">TileManager::TileManager</text>
</g>
<!-- Node3 -->
<g id="node2" class="node">
<title>Node3</title>
<g id="a_node2"><a xlink:href="classTileManager.html#a1575d9a9530e13fe0286b8fece9e47ea" target="_top" xlink:title="TileManager::init">
<polygon fill="none" stroke="#000000" points="179,-93 179,-112 277,-112 277,-93 179,-93"/>
<text text-anchor="middle" x="228" y="-100" font-family="Helvetica,sans-Serif" font-size="10.00" fill="#000000">TileManager::init</text>
</a>
</g>
</g>
<!-- Node2&#45;&gt;Node3 -->
<g id="edge1" class="edge">
<title>Node2&#45;&gt;Node3</title>
<path fill="none" stroke="#191970" d="M143.3375,-102.5C151.9065,-102.5 160.5787,-102.5 168.9395,-102.5"/>
<polygon fill="#191970" stroke="#191970" points="168.9554,-106.0001 178.9554,-102.5 168.9553,-99.0001 168.9554,-106.0001"/>
</g>
<!-- Node4 -->
<g id="node3" class="node">
<title>Node4</title>
<g id="a_node3"><a xlink:href="namespacefs.html#ac2d9a48234828392a1f6a6dfce785830" target="_top" xlink:title="Read contents from a file as string. ">
<polygon fill="none" stroke="#000000" points="336,-150 336,-169 446,-169 446,-150 336,-150"/>
<text text-anchor="middle" x="391" y="-157" font-family="Helvetica,sans-Serif" font-size="10.00" fill="#000000">fs::readFileAsString</text>
</a>
</g>
</g>
<!-- Node3&#45;&gt;Node4 -->
<g id="edge2" class="edge">
<title>Node3&#45;&gt;Node4</title>
<path fill="none" stroke="#191970" d="M251.2836,-112.06C268.2718,-118.9073 291.9161,-128.1742 313,-135.5 324.3863,-139.4563 336.8193,-143.4337 348.3458,-146.9812"/>
<polygon fill="#191970" stroke="#191970" points="347.6068,-150.4147 358.1926,-149.9767 349.6442,-143.7177 347.6068,-150.4147"/>
</g>
<!-- Node5 -->
<g id="node4" class="node">
<title>Node5</title>
<g id="a_node4"><a xlink:href="classSingleton.html#af5cb1e5749949e2b68416cfb8d378044" target="_top" xlink:title="Get an instance of the singleton. ">
<polygon fill="none" stroke="#000000" points="534,-87.5 534,-117.5 647,-117.5 647,-87.5 534,-87.5"/>
<text text-anchor="start" x="542" y="-105.5" font-family="Helvetica,sans-Serif" font-size="10.00" fill="#000000">Singleton&lt; Settings</text>
<text text-anchor="middle" x="590.5" y="-94.5" font-family="Helvetica,sans-Serif" font-size="10.00" fill="#000000"> &gt;::instance</text>
</a>
</g>
</g>
<!-- Node3&#45;&gt;Node5 -->
<g id="edge3" class="edge">
<title>Node3&#45;&gt;Node5</title>
<path fill="none" stroke="#191970" d="M277.2656,-102.5C341.0132,-102.5 452.3356,-102.5 523.6644,-102.5"/>
<polygon fill="#191970" stroke="#191970" points="523.8878,-106.0001 533.8878,-102.5 523.8877,-99.0001 523.8878,-106.0001"/>
</g>
<!-- Node6 -->
<g id="node5" class="node">
<title>Node6</title>
<g id="a_node5"><a xlink:href="structStrongType.html#acc66e6d6b9c95193a97a839560499933" target="_top" xlink:title="StrongType::get">
<polygon fill="none" stroke="#000000" points="345,-74 345,-93 437,-93 437,-74 345,-74"/>
<text text-anchor="middle" x="391" y="-81" font-family="Helvetica,sans-Serif" font-size="10.00" fill="#000000">StrongType::get</text>
</a>
</g>
</g>
<!-- Node3&#45;&gt;Node6 -->
<g id="edge4" class="edge">
<title>Node3&#45;&gt;Node6</title>
<path fill="none" stroke="#191970" d="M277.3477,-96.7478C295.4526,-94.6374 316.0785,-92.2332 334.7443,-90.0574"/>
<polygon fill="#191970" stroke="#191970" points="335.3565,-93.5098 344.884,-88.8755 334.546,-86.5569 335.3565,-93.5098"/>
</g>
<!-- Node7 -->
<g id="node6" class="node">
<title>Node7</title>
<g id="a_node6"><a xlink:href="classTileManager.html#a9e03faf9425ee26a2f5fb1fa4c94d173" target="_top" xlink:title="TileManager::addJSONObject\lToTileData">
<polygon fill="none" stroke="#000000" points="313,-24.5 313,-54.5 469,-54.5 469,-24.5 313,-24.5"/>
<text text-anchor="start" x="321" y="-42.5" font-family="Helvetica,sans-Serif" font-size="10.00" fill="#000000">TileManager::addJSONObject</text>
<text text-anchor="middle" x="391" y="-31.5" font-family="Helvetica,sans-Serif" font-size="10.00" fill="#000000">ToTileData</text>
</a>
</g>
</g>
<!-- Node3&#45;&gt;Node7 -->
<g id="edge5" class="edge">
<title>Node3&#45;&gt;Node7</title>
<path fill="none" stroke="#191970" d="M247.6624,-92.9664C264.7257,-84.8732 290.2021,-73.2191 313,-64.5 318.9271,-62.2332 325.1579,-59.997 331.4065,-57.8496"/>
<polygon fill="#191970" stroke="#191970" points="332.8363,-61.0615 341.1992,-54.5567 330.6052,-54.4266 332.8363,-61.0615"/>
</g>
<!-- Node7&#45;&gt;Node5 -->
<g id="edge6" class="edge">
<title>Node7&#45;&gt;Node5</title>
<path fill="none" stroke="#191970" d="M438.5318,-54.51C466.9031,-63.4694 503.1232,-74.9073 533.086,-84.3693"/>
<polygon fill="#191970" stroke="#191970" points="532.3972,-87.8221 542.987,-87.4959 534.5052,-81.147 532.3972,-87.8221"/>
</g>
<!-- Node8 -->
<g id="node7" class="node">
<title>Node8</title>
<g id="a_node7"><a xlink:href="classResourcesManager.html#ab376a89547592db4cca25309eac2931c" target="_top" xlink:title="ResourcesManager::loadTexture">
<polygon fill="none" stroke="#000000" points="505,-30 505,-49 676,-49 676,-30 505,-30"/>
<text text-anchor="middle" x="590.5" y="-37" font-family="Helvetica,sans-Serif" font-size="10.00" fill="#000000">ResourcesManager::loadTexture</text>
</a>
</g>
</g>
<!-- Node7&#45;&gt;Node8 -->
<g id="edge7" class="edge">
<title>Node7&#45;&gt;Node8</title>
<path fill="none" stroke="#191970" d="M469.2751,-39.5C477.6703,-39.5 486.2787,-39.5 494.8466,-39.5"/>
<polygon fill="#191970" stroke="#191970" points="494.8709,-43.0001 504.8709,-39.5 494.8709,-36.0001 494.8709,-43.0001"/>
</g>
<!-- Node9 -->
<g id="node8" class="node">
<title>Node9</title>
<g id="a_node8"><a xlink:href="classResourcesManager.html#a54721d26f52c4887b735d2cdaf60b078" target="_top" xlink:title="ResourcesManager::create\lSurfaceFromFile">
<polygon fill="none" stroke="#000000" points="712,-49.5 712,-79.5 857,-79.5 857,-49.5 712,-49.5"/>
<text text-anchor="start" x="720" y="-67.5" font-family="Helvetica,sans-Serif" font-size="10.00" fill="#000000">ResourcesManager::create</text>
<text text-anchor="middle" x="784.5" y="-56.5" font-family="Helvetica,sans-Serif" font-size="10.00" fill="#000000">SurfaceFromFile</text>
</a>
</g>
</g>
<!-- Node8&#45;&gt;Node9 -->
<g id="edge8" class="edge">
<title>Node8&#45;&gt;Node9</title>
<path fill="none" stroke="#191970" d="M664.3965,-49.0227C676.5265,-50.5859 689.1683,-52.215 701.5017,-53.8043"/>
<polygon fill="#191970" stroke="#191970" points="701.4057,-57.3208 711.7711,-55.1277 702.3005,-50.3782 701.4057,-57.3208"/>
</g>
<!-- Node12 -->
<g id="node11" class="node">
<title>Node12</title>
<g id="a_node11"><a xlink:href="classResourcesManager.html#ad7712ca96233a151d8bc22cd2ba17d01" target="_top" xlink:title="ResourcesManager::create\lTextureFromSurface">
<polygon fill="none" stroke="#000000" points="712,-.5 712,-30.5 857,-30.5 857,-.5 712,-.5"/>
<text text-anchor="start" x="720" y="-18.5" font-family="Helvetica,sans-Serif" font-size="10.00" fill="#000000">ResourcesManager::create</text>
<text text-anchor="middle" x="784.5" y="-7.5" font-family="Helvetica,sans-Serif" font-size="10.00" fill="#000000">TextureFromSurface</text>
</a>
</g>
</g>
<!-- Node8&#45;&gt;Node12 -->
<g id="edge11" class="edge">
<title>Node8&#45;&gt;Node12</title>
<path fill="none" stroke="#191970" d="M667.4526,-29.9801C678.7438,-28.5832 690.414,-27.1395 701.8145,-25.7291"/>
<polygon fill="#191970" stroke="#191970" points="702.2528,-29.2017 711.7474,-24.5003 701.3933,-22.2546 702.2528,-29.2017"/>
</g>
<!-- Node10 -->
<g id="node9" class="node">
<title>Node10</title>
<g id="a_node9"><a xlink:href="namespacefs.html#a28e4c1324680c188092ecfe5fd8a91a3" target="_top" xlink:title="fs::getBasePath">
<polygon fill="none" stroke="#000000" points="893,-74 893,-93 985,-93 985,-74 893,-74"/>
<text text-anchor="middle" x="939" y="-81" font-family="Helvetica,sans-Serif" font-size="10.00" fill="#000000">fs::getBasePath</text>
</a>
</g>
</g>
<!-- Node9&#45;&gt;Node10 -->
<g id="edge9" class="edge">
<title>Node9&#45;&gt;Node10</title>
<path fill="none" stroke="#191970" d="M857.2259,-73.4436C865.7008,-74.4859 874.2484,-75.537 882.4591,-76.5467"/>
<polygon fill="#191970" stroke="#191970" points="882.2957,-80.0529 892.6482,-77.7998 883.1502,-73.1053 882.2957,-80.0529"/>
</g>
<!-- Node11 -->
<g id="node10" class="node">
<title>Node11</title>
<g id="a_node10"><a xlink:href="namespacefs.html#a000d1f9ae14d782b6193298e6d27023f" target="_top" xlink:title="fs::fileExists">
<polygon fill="none" stroke="#000000" points="901,-36 901,-55 977,-55 977,-36 901,-36"/>
<text text-anchor="middle" x="939" y="-43" font-family="Helvetica,sans-Serif" font-size="10.00" fill="#000000">fs::fileExists</text>
</a>
</g>
</g>
<!-- Node9&#45;&gt;Node11 -->
<g id="edge10" class="edge">
<title>Node9&#45;&gt;Node11</title>
<path fill="none" stroke="#191970" d="M857.2259,-55.5564C868.4963,-54.1704 879.8956,-52.7685 890.4597,-51.4694"/>
<polygon fill="#191970" stroke="#191970" points="891.2118,-54.9033 900.7098,-50.2088 890.3573,-47.9557 891.2118,-54.9033"/>
</g>
</g>
</svg>
