<?xml version="1.0" encoding="UTF-8" standalone="no"?>
<!DOCTYPE svg PUBLIC "-//W3C//DTD SVG 1.1//EN"
 "http://www.w3.org/Graphics/SVG/1.1/DTD/svg11.dtd">
<!-- Generated by graphviz version 2.40.1 (20161225.0304)
 -->
<!-- Title: PixelBuffer::expandCenter Pages: 1 -->
<svg width="450pt" height="104pt"
 viewBox="0.00 0.00 450.00 104.00" xmlns="http://www.w3.org/2000/svg" xmlns:xlink="http://www.w3.org/1999/xlink">
<g id="graph0" class="graph" transform="scale(1 1) rotate(0) translate(4 100)">
<title>PixelBuffer::expandCenter</title>
<!-- Node43 -->
<g id="node1" class="node">
<title>Node43</title>
<polygon fill="#bfbfbf" stroke="#000000" points="0,-38.5 0,-57.5 144,-57.5 144,-38.5 0,-38.5"/>
<text text-anchor="middle" x="72" y="-45.5" font-family="Helvetica,sans-Serif" font-size="10.00" fill="#000000">PixelBuffer::expandCenter</text>
</g>
<!-- Node44 -->
<g id="node2" class="node">
<title>Node44</title>
<g id="a_node2"><a xlink:href="classRectangle.html#a6d7591d194230afb71ac2efcb8fd782f" target="_top" xlink:title="Rectangle::width">
<polygon fill="none" stroke="#000000" points="189,-76.5 189,-95.5 287,-95.5 287,-76.5 189,-76.5"/>
<text text-anchor="middle" x="238" y="-83.5" font-family="Helvetica,sans-Serif" font-size="10.00" fill="#000000">Rectangle::width</text>
</a>
</g>
</g>
<!-- Node43&#45;&gt;Node44 -->
<g id="edge1" class="edge">
<title>Node43&#45;&gt;Node44</title>
<path fill="none" stroke="#191970" d="M113.8888,-57.589C135.893,-62.6261 163.0545,-68.8438 186.3524,-74.1771"/>
<polygon fill="#191970" stroke="#191970" points="185.8835,-77.6602 196.4124,-76.4799 187.4456,-70.8367 185.8835,-77.6602"/>
</g>
<!-- Node46 -->
<g id="node4" class="node">
<title>Node46</title>
<g id="a_node4"><a xlink:href="classRectangle.html#a21cbebe8e941c0c92d7eba0f7badcb6a" target="_top" xlink:title="Rectangle::height">
<polygon fill="none" stroke="#000000" points="187.5,-38.5 187.5,-57.5 288.5,-57.5 288.5,-38.5 187.5,-38.5"/>
<text text-anchor="middle" x="238" y="-45.5" font-family="Helvetica,sans-Serif" font-size="10.00" fill="#000000">Rectangle::height</text>
</a>
</g>
</g>
<!-- Node43&#45;&gt;Node46 -->
<g id="edge3" class="edge">
<title>Node43&#45;&gt;Node46</title>
<path fill="none" stroke="#191970" d="M144.3271,-48C155.318,-48 166.5628,-48 177.2733,-48"/>
<polygon fill="#191970" stroke="#191970" points="177.3526,-51.5001 187.3526,-48 177.3525,-44.5001 177.3526,-51.5001"/>
</g>
<!-- Node47 -->
<g id="node5" class="node">
<title>Node47</title>
<g id="a_node5"><a xlink:href="classPixelBuffer.html#a30a3637fc0a05d028c6cdb07b38737b1" target="_top" xlink:title="PixelBuffer::isEmpty">
<polygon fill="none" stroke="#000000" points="180,-.5 180,-19.5 296,-19.5 296,-.5 180,-.5"/>
<text text-anchor="middle" x="238" y="-7.5" font-family="Helvetica,sans-Serif" font-size="10.00" fill="#000000">PixelBuffer::isEmpty</text>
</a>
</g>
</g>
<!-- Node43&#45;&gt;Node47 -->
<g id="edge5" class="edge">
<title>Node43&#45;&gt;Node47</title>
<path fill="none" stroke="#191970" d="M113.8888,-38.411C135.893,-33.3739 163.0545,-27.1562 186.3524,-21.8229"/>
<polygon fill="#191970" stroke="#191970" points="187.4456,-25.1633 196.4124,-19.5201 185.8835,-18.3398 187.4456,-25.1633"/>
</g>
<!-- Node45 -->
<g id="node3" class="node">
<title>Node45</title>
<g id="a_node3"><a xlink:href="classRectangle.html#ace89ac3a7085543f3f60449fb5cdc8af" target="_top" xlink:title="Rectangle::isEmpty">
<polygon fill="none" stroke="#000000" points="332,-38.5 332,-57.5 442,-57.5 442,-38.5 332,-38.5"/>
<text text-anchor="middle" x="387" y="-45.5" font-family="Helvetica,sans-Serif" font-size="10.00" fill="#000000">Rectangle::isEmpty</text>
</a>
</g>
</g>
<!-- Node44&#45;&gt;Node45 -->
<g id="edge2" class="edge">
<title>Node44&#45;&gt;Node45</title>
<path fill="none" stroke="#191970" d="M275.599,-76.411C295.084,-71.4417 319.0745,-65.3233 339.7958,-60.0387"/>
<polygon fill="#191970" stroke="#191970" points="340.8465,-63.3828 349.6714,-57.5201 339.1166,-56.5999 340.8465,-63.3828"/>
</g>
<!-- Node46&#45;&gt;Node45 -->
<g id="edge4" class="edge">
<title>Node46&#45;&gt;Node45</title>
<path fill="none" stroke="#191970" d="M288.8606,-48C299.4462,-48 310.742,-48 321.7632,-48"/>
<polygon fill="#191970" stroke="#191970" points="321.7793,-51.5001 331.7792,-48 321.7792,-44.5001 321.7793,-51.5001"/>
</g>
<!-- Node47&#45;&gt;Node45 -->
<g id="edge6" class="edge">
<title>Node47&#45;&gt;Node45</title>
<path fill="none" stroke="#191970" d="M275.599,-19.589C295.084,-24.5583 319.0745,-30.6767 339.7958,-35.9613"/>
<polygon fill="#191970" stroke="#191970" points="339.1166,-39.4001 349.6714,-38.4799 340.8465,-32.6172 339.1166,-39.4001"/>
</g>
</g>
</svg>
