<?xml version="1.0" encoding="UTF-8" standalone="no"?>
<!DOCTYPE svg PUBLIC "-//W3C//DTD SVG 1.1//EN"
 "http://www.w3.org/Graphics/SVG/1.1/DTD/svg11.dtd">
<!-- Generated by graphviz version 2.40.1 (20161225.0304)
 -->
<!-- Title: ComboBox::registerCallbackFunction Pages: 1 -->
<svg width="921pt" height="53pt"
 viewBox="0.00 0.00 921.00 52.50" xmlns="http://www.w3.org/2000/svg" xmlns:xlink="http://www.w3.org/1999/xlink">
<g id="graph0" class="graph" transform="scale(1 1) rotate(0) translate(4 48.5)">
<title>ComboBox::registerCallbackFunction</title>
<!-- Node90 -->
<g id="node1" class="node">
<title>Node90</title>
<polygon fill="#bfbfbf" stroke="#000000" points="0,-.5 0,-30.5 155,-30.5 155,-.5 0,-.5"/>
<text text-anchor="start" x="8" y="-18.5" font-family="Helvetica,sans-Serif" font-size="10.00" fill="#000000">ComboBox::registerCallback</text>
<text text-anchor="middle" x="77.5" y="-7.5" font-family="Helvetica,sans-Serif" font-size="10.00" fill="#000000">Function</text>
</g>
<!-- Node91 -->
<g id="node2" class="node">
<title>Node91</title>
<g id="a_node2"><a xlink:href="classComboBox.html#a6c15ed04bb4eee2130939e9e2045a5eb" target="_top" xlink:title="ComboBox::count">
<polygon fill="none" stroke="#000000" points="191,-25 191,-44 294,-44 294,-25 191,-25"/>
<text text-anchor="middle" x="242.5" y="-32" font-family="Helvetica,sans-Serif" font-size="10.00" fill="#000000">ComboBox::count</text>
</a>
</g>
</g>
<!-- Node90&#45;&gt;Node91 -->
<g id="edge1" class="edge">
<title>Node90&#45;&gt;Node91</title>
<path fill="none" stroke="#191970" d="M165.3339,-25.6142C173.9821,-26.6101 182.5519,-27.5969 190.6609,-28.5306"/>
<polygon fill="#191970" stroke="#191970" points="165.5032,-22.1107 155.1685,-24.4436 164.7024,-29.0647 165.5032,-22.1107"/>
</g>
<!-- Node92 -->
<g id="node3" class="node">
<title>Node92</title>
<g id="a_node3"><a xlink:href="classUIManager.html#a5c4cb8e02504ffa0d3faf45181feab9d" target="_top" xlink:title="Fill UI Widgets whose ID start with a $ with data Used for filling widgets with data, like BuildMenu Position combobox, Screen Resolution ComboBox and so on. ">
<polygon fill="none" stroke="#000000" points="330,-.5 330,-30.5 476,-30.5 476,-.5 330,-.5"/>
<text text-anchor="start" x="338" y="-18.5" font-family="Helvetica,sans-Serif" font-size="10.00" fill="#000000">UIManager::initializeDollar</text>
<text text-anchor="middle" x="403" y="-7.5" font-family="Helvetica,sans-Serif" font-size="10.00" fill="#000000">Variables</text>
</a>
</g>
</g>
<!-- Node90&#45;&gt;Node92 -->
<g id="edge7" class="edge">
<title>Node90&#45;&gt;Node92</title>
<path fill="none" stroke="#191970" d="M165.1829,-15.5C216.7384,-15.5 281.1634,-15.5 329.9499,-15.5"/>
<polygon fill="#191970" stroke="#191970" points="165.0519,-12.0001 155.0518,-15.5 165.0518,-19.0001 165.0519,-12.0001"/>
</g>
<!-- Node91&#45;&gt;Node92 -->
<g id="edge2" class="edge">
<title>Node91&#45;&gt;Node92</title>
<path fill="none" stroke="#191970" d="M304.2148,-27.1942C312.59,-26.2027 321.2501,-25.1776 329.8025,-24.1651"/>
<polygon fill="#191970" stroke="#191970" points="303.6858,-23.7323 294.1667,-28.3837 304.5088,-30.6837 303.6858,-23.7323"/>
</g>
<!-- Node93 -->
<g id="node4" class="node">
<title>Node93</title>
<g id="a_node4"><a xlink:href="classUIManager.html#aedd9d0577af515a852425dfe414b2968" target="_top" xlink:title="Parses the UiLayout.json files and creates UI Elements. ">
<polygon fill="none" stroke="#000000" points="512,-6 512,-25 603,-25 603,-6 512,-6"/>
<text text-anchor="middle" x="557.5" y="-13" font-family="Helvetica,sans-Serif" font-size="10.00" fill="#000000">UIManager::init</text>
</a>
</g>
</g>
<!-- Node92&#45;&gt;Node93 -->
<g id="edge3" class="edge">
<title>Node92&#45;&gt;Node93</title>
<path fill="none" stroke="#191970" d="M486.4491,-15.5C495.1801,-15.5 503.8047,-15.5 511.873,-15.5"/>
<polygon fill="#191970" stroke="#191970" points="486.178,-12.0001 476.1779,-15.5 486.1779,-19.0001 486.178,-12.0001"/>
</g>
<!-- Node94 -->
<g id="node5" class="node">
<title>Node94</title>
<g id="a_node5"><a xlink:href="classGame.html#a1c2ab25d5216b2f4b2fe41efd2c09114" target="_top" xlink:title="begins the game starts running the game ">
<polygon fill="none" stroke="#000000" points="639,-6 639,-25 707,-25 707,-6 639,-6"/>
<text text-anchor="middle" x="673" y="-13" font-family="Helvetica,sans-Serif" font-size="10.00" fill="#000000">Game::run</text>
</a>
</g>
</g>
<!-- Node93&#45;&gt;Node94 -->
<g id="edge4" class="edge">
<title>Node93&#45;&gt;Node94</title>
<path fill="none" stroke="#191970" d="M613.2726,-15.5C621.9603,-15.5 630.7077,-15.5 638.7272,-15.5"/>
<polygon fill="#191970" stroke="#191970" points="613.1487,-12.0001 603.1487,-15.5 613.1486,-19.0001 613.1487,-12.0001"/>
</g>
<!-- Node95 -->
<g id="node6" class="node">
<title>Node95</title>
<g id="a_node6"><a xlink:href="main_8cxx.html#af582d708d899e67ead623eac34a22387" target="_top" xlink:title="protected_main">
<polygon fill="none" stroke="#000000" points="743,-6 743,-25 836,-25 836,-6 743,-6"/>
<text text-anchor="middle" x="789.5" y="-13" font-family="Helvetica,sans-Serif" font-size="10.00" fill="#000000">protected_main</text>
</a>
</g>
</g>
<!-- Node94&#45;&gt;Node95 -->
<g id="edge5" class="edge">
<title>Node94&#45;&gt;Node95</title>
<path fill="none" stroke="#191970" d="M717.2653,-15.5C725.5757,-15.5 734.2897,-15.5 742.6749,-15.5"/>
<polygon fill="#191970" stroke="#191970" points="717.0098,-12.0001 707.0098,-15.5 717.0098,-19.0001 717.0098,-12.0001"/>
</g>
<!-- Node96 -->
<g id="node7" class="node">
<title>Node96</title>
<g id="a_node7"><a xlink:href="main_8cxx.html#a3c04138a5bfe5d72780bb7e82a18e627" target="_top" xlink:title="main">
<polygon fill="none" stroke="#000000" points="872,-6 872,-25 913,-25 913,-6 872,-6"/>
<text text-anchor="middle" x="892.5" y="-13" font-family="Helvetica,sans-Serif" font-size="10.00" fill="#000000">main</text>
</a>
</g>
</g>
<!-- Node95&#45;&gt;Node96 -->
<g id="edge6" class="edge">
<title>Node95&#45;&gt;Node96</title>
<path fill="none" stroke="#191970" d="M846.2133,-15.5C855.4322,-15.5 864.4259,-15.5 871.9965,-15.5"/>
<polygon fill="#191970" stroke="#191970" points="846.1782,-12.0001 836.1782,-15.5 846.1781,-19.0001 846.1782,-12.0001"/>
</g>
</g>
</svg>
