<?xml version="1.0" encoding="UTF-8" standalone="no"?>
<!DOCTYPE svg PUBLIC "-//W3C//DTD SVG 1.1//EN"
 "http://www.w3.org/Graphics/SVG/1.1/DTD/svg11.dtd">
<!-- Generated by graphviz version 2.40.1 (20161225.0304)
 -->
<!-- Title: Game::shutdown Pages: 1 -->
<svg width="308pt" height="154pt"
 viewBox="0.00 0.00 308.00 154.00" xmlns="http://www.w3.org/2000/svg" xmlns:xlink="http://www.w3.org/1999/xlink">
<g id="graph0" class="graph" transform="scale(1 1) rotate(0) translate(4 150)">
<title>Game::shutdown</title>
<!-- Node188 -->
<g id="node1" class="node">
<title>Node188</title>
<polygon fill="#bfbfbf" stroke="#000000" points="0,-82.5 0,-101.5 99,-101.5 99,-82.5 0,-82.5"/>
<text text-anchor="middle" x="49.5" y="-89.5" font-family="Helvetica,sans-Serif" font-size="10.00" fill="#000000">Game::shutdown</text>
</g>
<!-- Node189 -->
<g id="node2" class="node">
<title>Node189</title>
<g id="a_node2"><a xlink:href="classMessageQueue.html#adcb13704f695c1b895063bc942691aeb" target="_top" xlink:title="Push an event on the Queue. ">
<polygon fill="none" stroke="#000000" points="157.5,-126.5 157.5,-145.5 277.5,-145.5 277.5,-126.5 157.5,-126.5"/>
<text text-anchor="middle" x="217.5" y="-133.5" font-family="Helvetica,sans-Serif" font-size="10.00" fill="#000000">MessageQueue::push</text>
</a>
</g>
</g>
<!-- Node188&#45;&gt;Node189 -->
<g id="edge1" class="edge">
<title>Node188&#45;&gt;Node189</title>
<path fill="none" stroke="#191970" d="M80.648,-101.5801C96.8029,-106.4286 116.8941,-112.2723 135,-117 144.2881,-119.4253 154.2068,-121.8497 163.8298,-124.116"/>
<polygon fill="#191970" stroke="#191970" points="163.1793,-127.558 173.7121,-126.4137 164.7646,-120.7399 163.1793,-127.558"/>
</g>
<!-- Node190 -->
<g id="node3" class="node">
<title>Node190</title>
<g id="a_node3"><a xlink:href="classSingleton.html#af5cb1e5749949e2b68416cfb8d378044" target="_top" xlink:title="Get an instance of the singleton. ">
<polygon fill="none" stroke="#000000" points="135,-77 135,-107 300,-107 300,-77 135,-77"/>
<text text-anchor="start" x="143" y="-95" font-family="Helvetica,sans-Serif" font-size="10.00" fill="#000000">Singleton&lt; ResourcesManager</text>
<text text-anchor="middle" x="217.5" y="-84" font-family="Helvetica,sans-Serif" font-size="10.00" fill="#000000"> &gt;::instance</text>
</a>
</g>
</g>
<!-- Node188&#45;&gt;Node190 -->
<g id="edge2" class="edge">
<title>Node188&#45;&gt;Node190</title>
<path fill="none" stroke="#191970" d="M99.4507,-85.7692C107.4454,-85.5118 115.9354,-85.3502 124.5525,-85.2842"/>
<polygon fill="#191970" stroke="#191970" points="124.7161,-88.7837 134.7045,-85.2506 124.6929,-81.7838 124.7161,-88.7837"/>
</g>
<!-- Node188&#45;&gt;Node190 -->
<g id="edge4" class="edge">
<title>Node188&#45;&gt;Node190</title>
<path fill="none" stroke="#191970" d="M99.4507,-98.2308C107.4454,-98.4882 115.9354,-98.6498 124.5525,-98.7158"/>
<polygon fill="#191970" stroke="#191970" points="124.6929,-102.2162 134.7045,-98.7494 124.7161,-95.2163 124.6929,-102.2162"/>
</g>
<!-- Node191 -->
<g id="node4" class="node">
<title>Node191</title>
<g id="a_node4"><a xlink:href="classResourcesManager.html#a262f5add535cf8331528d631d9b6beff" target="_top" xlink:title="ResourcesManager::flush">
<polygon fill="none" stroke="#000000" points="149,-38.5 149,-57.5 286,-57.5 286,-38.5 149,-38.5"/>
<text text-anchor="middle" x="217.5" y="-45.5" font-family="Helvetica,sans-Serif" font-size="10.00" fill="#000000">ResourcesManager::flush</text>
</a>
</g>
</g>
<!-- Node188&#45;&gt;Node191 -->
<g id="edge3" class="edge">
<title>Node188&#45;&gt;Node191</title>
<path fill="none" stroke="#191970" d="M82.3121,-82.4928C98.1895,-77.9684 117.5483,-72.5632 135,-68 145.265,-65.316 156.281,-62.5599 166.8138,-59.9845"/>
<polygon fill="#191970" stroke="#191970" points="167.8318,-63.3391 176.724,-57.5789 166.1805,-56.5366 167.8318,-63.3391"/>
</g>
<!-- Node192 -->
<g id="node5" class="node">
<title>Node192</title>
<g id="a_node5"><a xlink:href="classUIManager.html#af5dcbcdff24c786ab0bdefa0e76ef23d" target="_top" xlink:title="Destroy the UIElements early. ">
<polygon fill="none" stroke="#000000" points="168.5,-.5 168.5,-19.5 266.5,-19.5 266.5,-.5 168.5,-.5"/>
<text text-anchor="middle" x="217.5" y="-7.5" font-family="Helvetica,sans-Serif" font-size="10.00" fill="#000000">UIManager::flush</text>
</a>
</g>
</g>
<!-- Node188&#45;&gt;Node192 -->
<g id="edge5" class="edge">
<title>Node188&#45;&gt;Node192</title>
<path fill="none" stroke="#191970" d="M59.6585,-82.303C74.8239,-68.3734 104.8422,-42.8563 135,-29 142.4061,-25.5972 150.4747,-22.7771 158.5713,-20.4469"/>
<polygon fill="#191970" stroke="#191970" points="159.6466,-23.7829 168.4186,-17.8413 157.8559,-17.0158 159.6466,-23.7829"/>
</g>
</g>
</svg>
