<?xml version="1.0" encoding="UTF-8" standalone="no"?>
<!DOCTYPE svg PUBLIC "-//W3C//DTD SVG 1.1//EN"
 "http://www.w3.org/Graphics/SVG/1.1/DTD/svg11.dtd">
<!-- Generated by graphviz version 2.40.1 (20161225.0304)
 -->
<!-- Title: MessageQueue::wakeCondition Pages: 1 -->
<svg width="388pt" height="88pt"
 viewBox="0.00 0.00 388.00 88.00" xmlns="http://www.w3.org/2000/svg" xmlns:xlink="http://www.w3.org/1999/xlink">
<g id="graph0" class="graph" transform="scale(1 1) rotate(0) translate(4 84)">
<title>MessageQueue::wakeCondition</title>
<!-- Node21 -->
<g id="node1" class="node">
<title>Node21</title>
<polygon fill="#bfbfbf" stroke="#000000" points="0,-30 0,-49 170,-49 170,-30 0,-30"/>
<text text-anchor="middle" x="85" y="-37" font-family="Helvetica,sans-Serif" font-size="10.00" fill="#000000">MessageQueue::wakeCondition</text>
</g>
<!-- Node22 -->
<g id="node2" class="node">
<title>Node22</title>
<g id="a_node2"><a xlink:href="classMessageQueue.html#ab96b913f05b4ea1b3c1ac1c8ac3cb78a" target="_top" xlink:title="MessageQueue\&lt; VariantType\l\&lt; UIEvents \&gt; \&gt;::peek">
<polygon fill="none" stroke="#000000" points="213.5,-49.5 213.5,-79.5 372.5,-79.5 372.5,-49.5 213.5,-49.5"/>
<text text-anchor="start" x="221.5" y="-67.5" font-family="Helvetica,sans-Serif" font-size="10.00" fill="#000000">MessageQueue&lt; VariantType</text>
<text text-anchor="middle" x="293" y="-56.5" font-family="Helvetica,sans-Serif" font-size="10.00" fill="#000000">&lt; UIEvents &gt; &gt;::peek</text>
</a>
</g>
</g>
<!-- Node21&#45;&gt;Node22 -->
<g id="edge1" class="edge">
<title>Node21&#45;&gt;Node22</title>
<path fill="none" stroke="#191970" d="M174.4966,-50.2568C187.3998,-51.8077 200.6068,-53.395 213.302,-54.9209"/>
<polygon fill="#191970" stroke="#191970" points="174.5755,-46.7412 164.2292,-49.0227 173.7401,-53.6912 174.5755,-46.7412"/>
</g>
<!-- Node23 -->
<g id="node3" class="node">
<title>Node23</title>
<g id="a_node3"><a xlink:href="classMessageQueue.html#adf0028623665dabb4c55f57ead0dd964" target="_top" xlink:title="MessageQueue\&lt; VariantType\l\&lt; UIEvents \&gt; \&gt;::getEnumerable">
<polygon fill="none" stroke="#000000" points="206,-.5 206,-30.5 380,-30.5 380,-.5 206,-.5"/>
<text text-anchor="start" x="214" y="-18.5" font-family="Helvetica,sans-Serif" font-size="10.00" fill="#000000">MessageQueue&lt; VariantType</text>
<text text-anchor="middle" x="293" y="-7.5" font-family="Helvetica,sans-Serif" font-size="10.00" fill="#000000">&lt; UIEvents &gt; &gt;::getEnumerable</text>
</a>
</g>
</g>
<!-- Node21&#45;&gt;Node23 -->
<g id="edge2" class="edge">
<title>Node21&#45;&gt;Node23</title>
<path fill="none" stroke="#191970" d="M177.6168,-28.8134C186.9934,-27.7315 196.4949,-26.6352 205.8116,-25.5602"/>
<polygon fill="#191970" stroke="#191970" points="177.0387,-25.3568 167.5059,-29.9801 177.8412,-32.3107 177.0387,-25.3568"/>
</g>
</g>
</svg>
