<?xml version="1.0" encoding="UTF-8" standalone="no"?>
<!DOCTYPE svg PUBLIC "-//W3C//DTD SVG 1.1//EN"
 "http://www.w3.org/Graphics/SVG/1.1/DTD/svg11.dtd">
<!-- Generated by graphviz version 2.40.1 (20161225.0304)
 -->
<!-- Title: MapLayers::setLayerEditMode Pages: 1 -->
<!--zoomable 351 -->
<svg id="main" version="1.1" xmlns="http://www.w3.org/2000/svg" xmlns:xlink="http://www.w3.org/1999/xlink" xml:space="preserve" onload="init(evt)">
<style type="text/css"><![CDATA[
.edge:hover path { stroke: red; }
.edge:hover polygon { stroke: red; fill: red; }
]]></style>
<script type="text/javascript"><![CDATA[
var edges = document.getElementsByTagName('g');
if (edges && edges.length) {
  for (var i=0;i<edges.length;i++) {
    if (edges[i].id.substr(0,4)=='edge') {
      edges[i].setAttribute('class','edge');
    }
  }
}
]]></script>
        <defs>
                <circle id="rim" cx="0" cy="0" r="7"/>
                <circle id="rim2" cx="0" cy="0" r="3.5"/>
                <g id="zoomPlus">
                        <use xlink:href="#rim" fill="#404040">
                                <set attributeName="fill" to="#808080" begin="zoomplus.mouseover" end="zoomplus.mouseout"/>
                        </use>
                        <path d="M-4,0h8M0,-4v8" fill="none" stroke="white" stroke-width="1.5" pointer-events="none"/>
                </g>
                <g id="zoomMin">
                        <use xlink:href="#rim" fill="#404040">
                                <set attributeName="fill" to="#808080" begin="zoomminus.mouseover" end="zoomminus.mouseout"/>
                        </use>
                        <path d="M-4,0h8" fill="none" stroke="white" stroke-width="1.5" pointer-events="none"/>
                </g>
                <g id="dirArrow">
                        <path fill="none" stroke="white" stroke-width="1.5" d="M0,-3.0v7 M-2.5,-0.5L0,-3.0L2.5,-0.5"/>
                </g>
               <g id="resetDef">
                       <use xlink:href="#rim2" fill="#404040">
                               <set attributeName="fill" to="#808080" begin="reset.mouseover" end="reset.mouseout"/>
                       </use>
               </g>
        </defs>

<script type="text/javascript">
var viewWidth = 1175;
var viewHeight = 351;
var sectionId = 'dynsection-10';
</script>
<script xlink:href="svgpan.js"/>
<svg id="graph" class="graph">
<g id="viewport">
<title>MapLayers::setLayerEditMode</title>
<!-- Node110 -->
<g id="node1" class="node">
<title>Node110</title>
<polygon fill="#bfbfbf" stroke="#000000" points="0,-76.5 0,-95.5 162,-95.5 162,-76.5 0,-76.5"/>
<text text-anchor="middle" x="81" y="-83.5" font-family="Helvetica,sans-Serif" font-size="10.00" fill="#000000">MapLayers::setLayerEditMode</text>
</g>
<!-- Node111 -->
<g id="node2" class="node">
<title>Node111</title>
<g id="a_node2"><a xlink:href="classMapLayers.html#a1d810628821913c499b8348107b66891" target="_top" xlink:title="Check if given Layer is being drawn. ">
<polygon fill="none" stroke="#000000" points="216.5,-133.5 216.5,-152.5 357.5,-152.5 357.5,-133.5 216.5,-133.5"/>
<text text-anchor="middle" x="287" y="-140.5" font-family="Helvetica,sans-Serif" font-size="10.00" fill="#000000">MapLayers::isLayerActive</text>
</a>
</g>
</g>
<!-- Node110&#45;&gt;Node111 -->
<g id="edge1" class="edge">
<title>Node110&#45;&gt;Node111</title>
<path fill="none" stroke="#191970" d="M125.273,-98.2503C163.333,-108.7815 217.4595,-123.7582 252.4077,-133.4284"/>
<polygon fill="#191970" stroke="#191970" points="126.051,-94.8341 115.4798,-95.5405 124.1842,-101.5806 126.051,-94.8341"/>
</g>
<!-- Node122 -->
<g id="node13" class="node">
<title>Node122</title>
<g id="a_node13"><a xlink:href="classUIManager.html#aa78e356fc3b356d790c848319d1c387e" target="_top" xlink:title="UIManager::setCallbackFunctions">
<polygon fill="none" stroke="#000000" points="198,-57.5 198,-76.5 376,-76.5 376,-57.5 198,-57.5"/>
<text text-anchor="middle" x="287" y="-64.5" font-family="Helvetica,sans-Serif" font-size="10.00" fill="#000000">UIManager::setCallbackFunctions</text>
</a>
</g>
</g>
<!-- Node110&#45;&gt;Node122 -->
<g id="edge12" class="edge">
<title>Node110&#45;&gt;Node122</title>
<path fill="none" stroke="#191970" d="M172.0803,-77.5994C180.6198,-76.8118 189.2701,-76.0139 197.7921,-75.2279"/>
<polygon fill="#191970" stroke="#191970" points="171.7572,-74.1142 162.1209,-78.518 172.4002,-81.0847 171.7572,-74.1142"/>
</g>
<!-- Node112 -->
<g id="node3" class="node">
<title>Node112</title>
<g id="a_node3"><a xlink:href="classMapNode.html#ac307762dc7ad609974c6b13774c3c00d" target="_top" xlink:title="return topmost active layer. check layers in order of significance for the topmost active layer that ...">
<polygon fill="none" stroke="#000000" points="436,-301 436,-331 591,-331 591,-301 436,-301"/>
<text text-anchor="start" x="444" y="-319" font-family="Helvetica,sans-Serif" font-size="10.00" fill="#000000">MapNode::getTopMostActive</text>
<text text-anchor="middle" x="513.5" y="-308" font-family="Helvetica,sans-Serif" font-size="10.00" fill="#000000">Layer</text>
</a>
</g>
</g>
<!-- Node111&#45;&gt;Node112 -->
<g id="edge2" class="edge">
<title>Node111&#45;&gt;Node112</title>
<path fill="none" stroke="#191970" d="M297.2536,-161.4692C315.8218,-193.1271 358.1342,-257.5676 412,-291 419.3243,-295.5459 427.425,-299.2656 435.7619,-302.3091"/>
<polygon fill="#191970" stroke="#191970" points="300.2757,-159.7034 292.2668,-152.7674 294.2023,-163.1839 300.2757,-159.7034"/>
</g>
<!-- Node115 -->
<g id="node6" class="node">
<title>Node115</title>
<g id="a_node6"><a xlink:href="classMapNode.html#a002b868485074599fbf087fc4c96b2c9" target="_top" xlink:title="Demolish a node Removes all tiles on a node. This effects all layers where something to demolish is p...">
<polygon fill="none" stroke="#000000" points="444,-262.5 444,-281.5 583,-281.5 583,-262.5 444,-262.5"/>
<text text-anchor="middle" x="513.5" y="-269.5" font-family="Helvetica,sans-Serif" font-size="10.00" fill="#000000">MapNode::demolishNode</text>
</a>
</g>
</g>
<!-- Node111&#45;&gt;Node115 -->
<g id="edge5" class="edge">
<title>Node111&#45;&gt;Node115</title>
<path fill="none" stroke="#191970" d="M301.2119,-160.3848C322.5225,-185.186 365.2742,-230.2353 412,-253 421.9117,-257.829 432.919,-261.4343 443.9234,-264.1252"/>
<polygon fill="#191970" stroke="#191970" points="303.7144,-157.9228 294.5969,-152.5264 298.3592,-162.4308 303.7144,-157.9228"/>
</g>
<!-- Node116 -->
<g id="node7" class="node">
<title>Node116</title>
<g id="a_node7"><a xlink:href="classMap.html#a352929ea8cc2efc4f415c7ec795e1538" target="_top" xlink:title="Map\&lt; ObserverSPtr\&lt;\l Notification \&gt;, Set\l\&lt; typename Notification\l::TransitionType \&gt; \&gt;::isClickWithinTile">
<polygon fill="none" stroke="#000000" points="412,-191 412,-243 615,-243 615,-191 412,-191"/>
<text text-anchor="start" x="420" y="-231" font-family="Helvetica,sans-Serif" font-size="10.00" fill="#000000">Map&lt; ObserverSPtr&lt;</text>
<text text-anchor="start" x="420" y="-220" font-family="Helvetica,sans-Serif" font-size="10.00" fill="#000000"> Notification &gt;, Set</text>
<text text-anchor="start" x="420" y="-209" font-family="Helvetica,sans-Serif" font-size="10.00" fill="#000000">&lt; typename Notification</text>
<text text-anchor="middle" x="513.5" y="-198" font-family="Helvetica,sans-Serif" font-size="10.00" fill="#000000">::TransitionType &gt; &gt;::isClickWithinTile</text>
</a>
</g>
</g>
<!-- Node111&#45;&gt;Node116 -->
<g id="edge6" class="edge">
<title>Node111&#45;&gt;Node116</title>
<path fill="none" stroke="#191970" d="M325.6949,-155.642C355.3057,-165.3162 397.1536,-178.9884 433.8337,-190.9722"/>
<polygon fill="#191970" stroke="#191970" points="326.7397,-152.3014 316.1472,-152.5227 324.5658,-158.9553 326.7397,-152.3014"/>
</g>
<!-- Node117 -->
<g id="node8" class="node">
<title>Node117</title>
<g id="a_node8"><a xlink:href="classSprite.html#abdf111e2030274680af0f00f296d8605" target="_top" xlink:title="Sprite::render">
<polygon fill="none" stroke="#000000" points="472,-152.5 472,-171.5 555,-171.5 555,-152.5 472,-152.5"/>
<text text-anchor="middle" x="513.5" y="-159.5" font-family="Helvetica,sans-Serif" font-size="10.00" fill="#000000">Sprite::render</text>
</a>
</g>
</g>
<!-- Node111&#45;&gt;Node117 -->
<g id="edge7" class="edge">
<title>Node111&#45;&gt;Node117</title>
<path fill="none" stroke="#191970" d="M368.0067,-149.7953C403.1912,-152.7467 442.9053,-156.0782 471.9415,-158.5139"/>
<polygon fill="#191970" stroke="#191970" points="367.9919,-146.2818 357.7343,-148.9336 367.4067,-153.2573 367.9919,-146.2818"/>
</g>
<!-- Node119 -->
<g id="node10" class="node">
<title>Node119</title>
<g id="a_node10"><a xlink:href="classSprite.html#a87428873289f8ec84f4b75d9162c9d7c" target="_top" xlink:title="Sprite::getActiveClipRect">
<polygon fill="none" stroke="#000000" points="445,-114.5 445,-133.5 582,-133.5 582,-114.5 445,-114.5"/>
<text text-anchor="middle" x="513.5" y="-121.5" font-family="Helvetica,sans-Serif" font-size="10.00" fill="#000000">Sprite::getActiveClipRect</text>
</a>
</g>
</g>
<!-- Node111&#45;&gt;Node119 -->
<g id="edge9" class="edge">
<title>Node111&#45;&gt;Node119</title>
<path fill="none" stroke="#191970" d="M367.9863,-136.2064C393.1441,-134.0961 420.6194,-131.7913 444.8521,-129.7585"/>
<polygon fill="#191970" stroke="#191970" points="367.4067,-132.7427 357.7343,-137.0664 367.9919,-139.7182 367.4067,-132.7427"/>
</g>
<!-- Node120 -->
<g id="node11" class="node">
<title>Node120</title>
<g id="a_node11"><a xlink:href="classSprite.html#a7376c698bf914312fbcc7c2b8180cbed" target="_top" xlink:title="Sprite::isLayerUsed">
<polygon fill="none" stroke="#000000" points="458,-76.5 458,-95.5 569,-95.5 569,-76.5 458,-76.5"/>
<text text-anchor="middle" x="513.5" y="-83.5" font-family="Helvetica,sans-Serif" font-size="10.00" fill="#000000">Sprite::isLayerUsed</text>
</a>
</g>
</g>
<!-- Node111&#45;&gt;Node120 -->
<g id="edge10" class="edge">
<title>Node111&#45;&gt;Node120</title>
<path fill="none" stroke="#191970" d="M325.2184,-130.1867C349.8126,-122.2389 382.5674,-112.2054 412,-105 426.8014,-101.3765 442.9636,-98.0646 457.9511,-95.2568"/>
<polygon fill="#191970" stroke="#191970" points="323.9698,-126.9124 315.5475,-133.3401 326.1399,-133.5675 323.9698,-126.9124"/>
</g>
<!-- Node121 -->
<g id="node12" class="node">
<title>Node121</title>
<g id="a_node12"><a xlink:href="classSprite.html#aedfac1c3b8a22c5ae4d97bd9586a6a26" target="_top" xlink:title="Sprite::getActiveDestRect">
<polygon fill="none" stroke="#000000" points="443,-38.5 443,-57.5 584,-57.5 584,-38.5 443,-38.5"/>
<text text-anchor="middle" x="513.5" y="-45.5" font-family="Helvetica,sans-Serif" font-size="10.00" fill="#000000">Sprite::getActiveDestRect</text>
</a>
</g>
</g>
<!-- Node111&#45;&gt;Node121 -->
<g id="edge11" class="edge">
<title>Node111&#45;&gt;Node121</title>
<path fill="none" stroke="#191970" d="M310.6483,-127.9874C343.8197,-107.0278 401.3225,-71.0883 412,-67 422.1291,-63.1217 433.1395,-60.0154 444.0489,-57.5327"/>
<polygon fill="#191970" stroke="#191970" points="308.5748,-125.1577 301.9967,-133.463 312.3183,-131.0726 308.5748,-125.1577"/>
</g>
<!-- Node113 -->
<g id="node4" class="node">
<title>Node113</title>
<g id="a_node4"><a xlink:href="classMapNode.html#a0b089ef93b46bbfed8ccf71dc516c4ef" target="_top" xlink:title="MapNode::getActiveMapNodeData">
<polygon fill="none" stroke="#000000" points="651,-306.5 651,-325.5 835,-325.5 835,-306.5 651,-306.5"/>
<text text-anchor="middle" x="743" y="-313.5" font-family="Helvetica,sans-Serif" font-size="10.00" fill="#000000">MapNode::getActiveMapNodeData</text>
</a>
</g>
</g>
<!-- Node112&#45;&gt;Node113 -->
<g id="edge3" class="edge">
<title>Node112&#45;&gt;Node113</title>
<path fill="none" stroke="#191970" d="M601.6374,-316C617.7061,-316 634.5117,-316 650.6972,-316"/>
<polygon fill="#191970" stroke="#191970" points="601.1983,-312.5001 591.1982,-316 601.1982,-319.5001 601.1983,-312.5001"/>
</g>
<!-- Node114 -->
<g id="node5" class="node">
<title>Node114</title>
<g id="a_node5"><a xlink:href="classMap.html#a0241b997090783e5d13667114731a592" target="_top" xlink:title="Debug MapNodeData to Console Used as Tile&#45;Inspector until we implement a GUI variant. ">
<polygon fill="none" stroke="#000000" points="871,-290 871,-342 1090,-342 1090,-290 871,-290"/>
<text text-anchor="start" x="879" y="-330" font-family="Helvetica,sans-Serif" font-size="10.00" fill="#000000">Map&lt; ObserverSPtr&lt;</text>
<text text-anchor="start" x="879" y="-319" font-family="Helvetica,sans-Serif" font-size="10.00" fill="#000000"> Notification &gt;, Set</text>
<text text-anchor="start" x="879" y="-308" font-family="Helvetica,sans-Serif" font-size="10.00" fill="#000000">&lt; typename Notification</text>
<text text-anchor="middle" x="980.5" y="-297" font-family="Helvetica,sans-Serif" font-size="10.00" fill="#000000">::TransitionType &gt; &gt;::getNodeInformation</text>
</a>
</g>
</g>
<!-- Node113&#45;&gt;Node114 -->
<g id="edge4" class="edge">
<title>Node113&#45;&gt;Node114</title>
<path fill="none" stroke="#191970" d="M845.4198,-316C853.8836,-316 862.4603,-316 870.9733,-316"/>
<polygon fill="#191970" stroke="#191970" points="845.1637,-312.5001 835.1636,-316 845.1636,-319.5001 845.1637,-312.5001"/>
</g>
<!-- Node118 -->
<g id="node9" class="node">
<title>Node118</title>
<g id="a_node9"><a xlink:href="classMap.html#a8ffaf087a7bf669a890301a1efad6976" target="_top" xlink:title="Map\&lt; ObserverSPtr\&lt;\l Notification \&gt;, Set\l\&lt; typename Notification\l::TransitionType \&gt; \&gt;::renderMap">
<polygon fill="none" stroke="#000000" points="656.5,-136 656.5,-188 829.5,-188 829.5,-136 656.5,-136"/>
<text text-anchor="start" x="664.5" y="-176" font-family="Helvetica,sans-Serif" font-size="10.00" fill="#000000">Map&lt; ObserverSPtr&lt;</text>
<text text-anchor="start" x="664.5" y="-165" font-family="Helvetica,sans-Serif" font-size="10.00" fill="#000000"> Notification &gt;, Set</text>
<text text-anchor="start" x="664.5" y="-154" font-family="Helvetica,sans-Serif" font-size="10.00" fill="#000000">&lt; typename Notification</text>
<text text-anchor="middle" x="743" y="-143" font-family="Helvetica,sans-Serif" font-size="10.00" fill="#000000">::TransitionType &gt; &gt;::renderMap</text>
</a>
</g>
</g>
<!-- Node117&#45;&gt;Node118 -->
<g id="edge8" class="edge">
<title>Node117&#45;&gt;Node118</title>
<path fill="none" stroke="#191970" d="M565.3542,-162C592.1356,-162 625.5313,-162 656.1158,-162"/>
<polygon fill="#191970" stroke="#191970" points="565.0608,-158.5001 555.0607,-162 565.0607,-165.5001 565.0608,-158.5001"/>
</g>
<!-- Node123 -->
<g id="node14" class="node">
<title>Node123</title>
<g id="a_node14"><a xlink:href="classUIManager.html#aedd9d0577af515a852425dfe414b2968" target="_top" xlink:title="Parses the UiLayout.json files and creates UI Elements. ">
<polygon fill="none" stroke="#000000" points="468,-.5 468,-19.5 559,-19.5 559,-.5 468,-.5"/>
<text text-anchor="middle" x="513.5" y="-7.5" font-family="Helvetica,sans-Serif" font-size="10.00" fill="#000000">UIManager::init</text>
</a>
</g>
</g>
<!-- Node122&#45;&gt;Node123 -->
<g id="edge13" class="edge">
<title>Node122&#45;&gt;Node123</title>
<path fill="none" stroke="#191970" d="M325.2184,-54.1867C349.8126,-46.2389 382.5674,-36.2054 412,-29 430.1099,-24.5665 450.257,-20.5995 467.7972,-17.4517"/>
<polygon fill="#191970" stroke="#191970" points="323.9698,-50.9124 315.5475,-57.3401 326.1399,-57.5675 323.9698,-50.9124"/>
</g>
<!-- Node124 -->
<g id="node15" class="node">
<title>Node124</title>
<g id="a_node15"><a xlink:href="classGame.html#a1c2ab25d5216b2f4b2fe41efd2c09114" target="_top" xlink:title="begins the game starts running the game ">
<polygon fill="none" stroke="#000000" points="709,-.5 709,-19.5 777,-19.5 777,-.5 709,-.5"/>
<text text-anchor="middle" x="743" y="-7.5" font-family="Helvetica,sans-Serif" font-size="10.00" fill="#000000">Game::run</text>
</a>
</g>
</g>
<!-- Node123&#45;&gt;Node124 -->
<g id="edge14" class="edge">
<title>Node123&#45;&gt;Node124</title>
<path fill="none" stroke="#191970" d="M569.2636,-10C612.7824,-10 671.8474,-10 708.6779,-10"/>
<polygon fill="#191970" stroke="#191970" points="569.1162,-6.5001 559.1162,-10 569.1162,-13.5001 569.1162,-6.5001"/>
</g>
<!-- Node125 -->
<g id="node16" class="node">
<title>Node125</title>
<g id="a_node16"><a xlink:href="main_8cxx.html#af582d708d899e67ead623eac34a22387" target="_top" xlink:title="protected_main">
<polygon fill="none" stroke="#000000" points="934,-.5 934,-19.5 1027,-19.5 1027,-.5 934,-.5"/>
<text text-anchor="middle" x="980.5" y="-7.5" font-family="Helvetica,sans-Serif" font-size="10.00" fill="#000000">protected_main</text>
</a>
</g>
</g>
<!-- Node124&#45;&gt;Node125 -->
<g id="edge15" class="edge">
<title>Node124&#45;&gt;Node125</title>
<path fill="none" stroke="#191970" d="M787.1723,-10C828.9211,-10 891.3302,-10 933.8677,-10"/>
<polygon fill="#191970" stroke="#191970" points="787.028,-6.5001 777.028,-10 787.0279,-13.5001 787.028,-6.5001"/>
</g>
<!-- Node126 -->
<g id="node17" class="node">
<title>Node126</title>
<g id="a_node17"><a xlink:href="main_8cxx.html#a3c04138a5bfe5d72780bb7e82a18e627" target="_top" xlink:title="main">
<polygon fill="none" stroke="#000000" points="1126,-.5 1126,-19.5 1167,-19.5 1167,-.5 1126,-.5"/>
<text text-anchor="middle" x="1146.5" y="-7.5" font-family="Helvetica,sans-Serif" font-size="10.00" fill="#000000">main</text>
</a>
</g>
</g>
<!-- Node125&#45;&gt;Node126 -->
<g id="edge16" class="edge">
<title>Node125&#45;&gt;Node126</title>
<path fill="none" stroke="#191970" d="M1037.3151,-10C1067.8722,-10 1103.7048,-10 1125.7554,-10"/>
<polygon fill="#191970" stroke="#191970" points="1037.182,-6.5001 1027.182,-10 1037.182,-13.5001 1037.182,-6.5001"/>
</g>
</g>
</svg>
        <g id="navigator" transform="translate(0 0)" fill="#404254">
                <rect fill="#f2f5e9" fill-opacity="0.5" stroke="#606060" stroke-width=".5" x="0" y="0" width="60" height="60"/>
                <use id="zoomplus" xlink:href="#zoomPlus" x="17" y="9" onmousedown="handleZoom(evt,'in')"/>
                <use id="zoomminus" xlink:href="#zoomMin" x="42" y="9" onmousedown="handleZoom(evt,'out')"/>
                <use id="reset" xlink:href="#resetDef" x="30" y="36" onmousedown="handleReset()"/>
                <g id="arrowUp" xlink:href="#dirArrow" transform="translate(30 24)" onmousedown="handlePan(0,-1)">
                  <use xlink:href="#rim" fill="#404040">
                        <set attributeName="fill" to="#808080" begin="arrowUp.mouseover" end="arrowUp.mouseout"/>
                  </use>
                  <path fill="none" stroke="white" stroke-width="1.5" d="M0,-3.0v7 M-2.5,-0.5L0,-3.0L2.5,-0.5"/>
                </g>
                <g id="arrowRight" xlink:href="#dirArrow" transform="rotate(90) translate(36 -43)" onmousedown="handlePan(1,0)">
                  <use xlink:href="#rim" fill="#404040">
                        <set attributeName="fill" to="#808080" begin="arrowRight.mouseover" end="arrowRight.mouseout"/>
                  </use>
                  <path fill="none" stroke="white" stroke-width="1.5" d="M0,-3.0v7 M-2.5,-0.5L0,-3.0L2.5,-0.5"/>
                </g>
                <g id="arrowDown" xlink:href="#dirArrow" transform="rotate(180) translate(-30 -48)" onmousedown="handlePan(0,1)">
                  <use xlink:href="#rim" fill="#404040">
                        <set attributeName="fill" to="#808080" begin="arrowDown.mouseover" end="arrowDown.mouseout"/>
                  </use>
                  <path fill="none" stroke="white" stroke-width="1.5" d="M0,-3.0v7 M-2.5,-0.5L0,-3.0L2.5,-0.5"/>
                </g>
                <g id="arrowLeft" xlink:href="#dirArrow" transform="rotate(270) translate(-36 17)" onmousedown="handlePan(-1,0)">
                  <use xlink:href="#rim" fill="#404040">
                        <set attributeName="fill" to="#808080" begin="arrowLeft.mouseover" end="arrowLeft.mouseout"/>
                  </use>
                  <path fill="none" stroke="white" stroke-width="1.5" d="M0,-3.0v7 M-2.5,-0.5L0,-3.0L2.5,-0.5"/>
                </g>
        </g>
        <svg viewBox="0 0 15 15" width="100%" height="30px" preserveAspectRatio="xMaxYMin meet">
         <g id="arrow_out" transform="scale(0.3 0.3)">
          <a xlink:href="classMapLayers_ab663dfc9e4c144f904ad85543b66ac8f_icgraph_org.svg" target="_base">
           <rect id="button" ry="5" rx="5" y="6" x="6" height="38" width="38"
                fill="#f2f5e9" fill-opacity="0.5" stroke="#606060" stroke-width="1.0"/>
           <path id="arrow"
             d="M 11.500037,31.436501 C 11.940474,20.09759 22.043105,11.32322 32.158766,21.979434 L 37.068811,17.246167 C 37.068811,17.246167 37.088388,32 37.088388,32 L 22.160133,31.978069 C 22.160133,31.978069 26.997745,27.140456 26.997745,27.140456 C 18.528582,18.264221 13.291696,25.230495 11.500037,31.436501 z"
             style="fill:#404040;"/>
          </a>
         </g>
        </svg>
</svg>
