<?xml version="1.0" encoding="UTF-8" standalone="no"?>
<!DOCTYPE svg PUBLIC "-//W3C//DTD SVG 1.1//EN"
 "http://www.w3.org/Graphics/SVG/1.1/DTD/svg11.dtd">
<!-- Generated by graphviz version 2.40.1 (20161225.0304)
 -->
<!-- Title: Sprite::Sprite Pages: 1 -->
<svg width="457pt" height="154pt"
 viewBox="0.00 0.00 457.00 153.50" xmlns="http://www.w3.org/2000/svg" xmlns:xlink="http://www.w3.org/1999/xlink">
<g id="graph0" class="graph" transform="scale(1 1) rotate(0) translate(4 149.5)">
<title>Sprite::Sprite</title>
<!-- Node0 -->
<g id="node1" class="node">
<title>Node0</title>
<polygon fill="#bfbfbf" stroke="#000000" points="0,-57.5 0,-76.5 80,-76.5 80,-57.5 0,-57.5"/>
<text text-anchor="middle" x="40" y="-64.5" font-family="Helvetica,sans-Serif" font-size="10.00" fill="#000000">Sprite::Sprite</text>
</g>
<!-- Node1 -->
<g id="node2" class="node">
<title>Node1</title>
<g id="a_node2"><a xlink:href="isoMath_8cxx.html#a229d5dd54cd4e1f43ed5911e4fd266d3" target="_top" xlink:title="converts coordinates from isometric to screen space The given isometric coordinates (which contain he...">
<polygon fill="none" stroke="#000000" points="116,-57.5 116,-76.5 286,-76.5 286,-57.5 116,-57.5"/>
<text text-anchor="middle" x="201" y="-64.5" font-family="Helvetica,sans-Serif" font-size="10.00" fill="#000000">convertIsoToScreenCoordinates</text>
</a>
</g>
</g>
<!-- Node0&#45;&gt;Node1 -->
<g id="edge1" class="edge">
<title>Node0&#45;&gt;Node1</title>
<path fill="none" stroke="#191970" d="M80.2118,-67C88.1293,-67 96.7474,-67 105.6152,-67"/>
<polygon fill="#191970" stroke="#191970" points="105.7093,-70.5001 115.7093,-67 105.7092,-63.5001 105.7093,-70.5001"/>
</g>
<!-- Node2 -->
<g id="node3" class="node">
<title>Node2</title>
<g id="a_node3"><a xlink:href="classSingleton.html#af5cb1e5749949e2b68416cfb8d378044" target="_top" xlink:title="Get an instance of the singleton. ">
<polygon fill="none" stroke="#000000" points="324,-115 324,-145 447,-145 447,-115 324,-115"/>
<text text-anchor="start" x="332" y="-133" font-family="Helvetica,sans-Serif" font-size="10.00" fill="#000000">Singleton&lt; Camera &gt;</text>
<text text-anchor="middle" x="385.5" y="-122" font-family="Helvetica,sans-Serif" font-size="10.00" fill="#000000">::instance</text>
</a>
</g>
</g>
<!-- Node1&#45;&gt;Node2 -->
<g id="edge2" class="edge">
<title>Node1&#45;&gt;Node2</title>
<path fill="none" stroke="#191970" d="M229.0216,-76.5683C256.1797,-85.8418 298.0816,-100.1498 331.6921,-111.6266"/>
<polygon fill="#191970" stroke="#191970" points="330.7864,-115.0157 341.3809,-114.935 333.0485,-108.3912 330.7864,-115.0157"/>
</g>
<!-- Node3 -->
<g id="node4" class="node">
<title>Node3</title>
<g id="a_node4"><a xlink:href="classCamera.html#a8521826d32e55e2cc92fee0fcd10ea8b" target="_top" xlink:title="Camera::cameraOffset">
<polygon fill="none" stroke="#000000" points="322,-76.5 322,-95.5 449,-95.5 449,-76.5 322,-76.5"/>
<text text-anchor="middle" x="385.5" y="-83.5" font-family="Helvetica,sans-Serif" font-size="10.00" fill="#000000">Camera::cameraOffset</text>
</a>
</g>
</g>
<!-- Node1&#45;&gt;Node3 -->
<g id="edge3" class="edge">
<title>Node1&#45;&gt;Node3</title>
<path fill="none" stroke="#191970" d="M286.2292,-75.777C294.7541,-76.6549 303.3595,-77.5411 311.7519,-78.4053"/>
<polygon fill="#191970" stroke="#191970" points="311.5573,-81.9037 321.8633,-79.4466 312.2745,-74.9406 311.5573,-81.9037"/>
</g>
<!-- Node4 -->
<g id="node5" class="node">
<title>Node4</title>
<g id="a_node5"><a xlink:href="classCamera.html#a72f8d27fc42f8292cc319084409d718e" target="_top" xlink:title="Camera::zoomLevel">
<polygon fill="none" stroke="#000000" points="328.5,-38.5 328.5,-57.5 442.5,-57.5 442.5,-38.5 328.5,-38.5"/>
<text text-anchor="middle" x="385.5" y="-45.5" font-family="Helvetica,sans-Serif" font-size="10.00" fill="#000000">Camera::zoomLevel</text>
</a>
</g>
</g>
<!-- Node1&#45;&gt;Node4 -->
<g id="edge4" class="edge">
<title>Node1&#45;&gt;Node4</title>
<path fill="none" stroke="#191970" d="M286.2292,-58.223C296.9221,-57.1218 307.7415,-56.0076 318.1084,-54.9401"/>
<polygon fill="#191970" stroke="#191970" points="318.714,-58.3963 328.3029,-53.8902 317.9969,-51.4331 318.714,-58.3963"/>
</g>
<!-- Node5 -->
<g id="node6" class="node">
<title>Node5</title>
<g id="a_node6"><a xlink:href="classCamera.html#a96eee891e27570059e7ef82916dce1c1" target="_top" xlink:title="Camera::tileSize">
<polygon fill="none" stroke="#000000" points="337,-.5 337,-19.5 434,-19.5 434,-.5 337,-.5"/>
<text text-anchor="middle" x="385.5" y="-7.5" font-family="Helvetica,sans-Serif" font-size="10.00" fill="#000000">Camera::tileSize</text>
</a>
</g>
</g>
<!-- Node1&#45;&gt;Node5 -->
<g id="edge5" class="edge">
<title>Node1&#45;&gt;Node5</title>
<path fill="none" stroke="#191970" d="M231.0489,-57.4388C255.511,-49.6852 290.9495,-38.5206 322,-29 328.9586,-26.8664 336.3549,-24.6273 343.5479,-22.465"/>
<polygon fill="#191970" stroke="#191970" points="344.596,-25.8047 353.1703,-19.5812 342.5864,-19.0994 344.596,-25.8047"/>
</g>
</g>
</svg>
