<?xml version="1.0" encoding="UTF-8" standalone="no"?>
<!DOCTYPE svg PUBLIC "-//W3C//DTD SVG 1.1//EN"
 "http://www.w3.org/Graphics/SVG/1.1/DTD/svg11.dtd">
<!-- Generated by graphviz version 2.40.1 (20161225.0304)
 -->
<!-- Title: iView Pages: 1 -->
<svg width="402pt" height="347pt"
 viewBox="0.00 0.00 401.50 347.00" xmlns="http://www.w3.org/2000/svg" xmlns:xlink="http://www.w3.org/1999/xlink">
<g id="graph0" class="graph" transform="scale(1 1) rotate(0) translate(4 343)">
<title>iView</title>
<!-- Node0 -->
<g id="node1" class="node">
<title>Node0</title>
<polygon fill="#bfbfbf" stroke="#000000" points="149.5,-237.5 149.5,-338.5 236.5,-338.5 236.5,-237.5 149.5,-237.5"/>
<text text-anchor="middle" x="193" y="-326.5" font-family="Helvetica,sans-Serif" font-size="10.00" fill="#000000">iView</text>
<polyline fill="none" stroke="#000000" points="149.5,-319.5 236.5,-319.5 "/>
<text text-anchor="middle" x="193" y="-307.5" font-family="Helvetica,sans-Serif" font-size="10.00" fill="#000000"> </text>
<polyline fill="none" stroke="#000000" points="149.5,-300.5 236.5,-300.5 "/>
<text text-anchor="start" x="157.5" y="-288.5" font-family="Helvetica,sans-Serif" font-size="10.00" fill="#000000">+ draw()</text>
<text text-anchor="start" x="157.5" y="-277.5" font-family="Helvetica,sans-Serif" font-size="10.00" fill="#000000">+ getBounds()</text>
<text text-anchor="start" x="157.5" y="-266.5" font-family="Helvetica,sans-Serif" font-size="10.00" fill="#000000">+ setBounds()</text>
<text text-anchor="start" x="157.5" y="-255.5" font-family="Helvetica,sans-Serif" font-size="10.00" fill="#000000">+ setup()</text>
<text text-anchor="start" x="157.5" y="-244.5" font-family="Helvetica,sans-Serif" font-size="10.00" fill="#000000">+ ~iView()</text>
</g>
<!-- Node1 -->
<g id="node2" class="node">
<title>Node1</title>
<g id="a_node2"><a xlink:href="classiActivity.html" target="_top" xlink:title="{iActivity\n|&#45; m_Window\l&#45; m_States\l|+ iActivity()\l+ ~iActivity()\l# activitySwitch()\l# createState()\l# getWindow()\l}">
<polygon fill="none" stroke="#000000" points="0,-44.5 0,-156.5 104,-156.5 104,-44.5 0,-44.5"/>
<text text-anchor="middle" x="52" y="-144.5" font-family="Helvetica,sans-Serif" font-size="10.00" fill="#000000">iActivity</text>
<polyline fill="none" stroke="#000000" points="0,-137.5 104,-137.5 "/>
<text text-anchor="start" x="8" y="-125.5" font-family="Helvetica,sans-Serif" font-size="10.00" fill="#000000">&#45; m_Window</text>
<text text-anchor="start" x="8" y="-114.5" font-family="Helvetica,sans-Serif" font-size="10.00" fill="#000000">&#45; m_States</text>
<polyline fill="none" stroke="#000000" points="0,-107.5 104,-107.5 "/>
<text text-anchor="start" x="8" y="-95.5" font-family="Helvetica,sans-Serif" font-size="10.00" fill="#000000">+ iActivity()</text>
<text text-anchor="start" x="8" y="-84.5" font-family="Helvetica,sans-Serif" font-size="10.00" fill="#000000">+ ~iActivity()</text>
<text text-anchor="start" x="8" y="-73.5" font-family="Helvetica,sans-Serif" font-size="10.00" fill="#000000"># activitySwitch()</text>
<text text-anchor="start" x="8" y="-62.5" font-family="Helvetica,sans-Serif" font-size="10.00" fill="#000000"># createState()</text>
<text text-anchor="start" x="8" y="-51.5" font-family="Helvetica,sans-Serif" font-size="10.00" fill="#000000"># getWindow()</text>
</a>
</g>
</g>
<!-- Node0&#45;&gt;Node1 -->
<g id="edge1" class="edge">
<title>Node0&#45;&gt;Node1</title>
<path fill="none" stroke="#191970" d="M142.3127,-236.2238C132.1764,-224.9634 121.9148,-212.8613 113,-201 102.5766,-187.1315 92.3501,-171.393 83.3388,-156.5551"/>
<polygon fill="none" stroke="#191970" points="139.9659,-238.8444 149.292,-243.8717 145.1365,-234.1258 139.9659,-238.8444"/>
</g>
<!-- Node2 -->
<g id="node3" class="node">
<title>Node2</title>
<g id="a_node3"><a xlink:href="classiLayout.html" target="_top" xlink:title="{iLayout\n|&#45; m_Elements\l&#45; m_PaddingConfiguration\l&#45; m_Bounds\l|+ getPadding()\l+ draw()\l+ iLayout()\l+ ~iLayout()\l+ setup()\l# addElement()\l# setPadding()\l# elements()\l# elements()\l# computeBoundaries()\l# getBounds()\l&#45; setBounds()\l}">
<polygon fill="none" stroke="#000000" points="122,-.5 122,-200.5 264,-200.5 264,-.5 122,-.5"/>
<text text-anchor="middle" x="193" y="-188.5" font-family="Helvetica,sans-Serif" font-size="10.00" fill="#000000">iLayout</text>
<polyline fill="none" stroke="#000000" points="122,-181.5 264,-181.5 "/>
<text text-anchor="start" x="130" y="-169.5" font-family="Helvetica,sans-Serif" font-size="10.00" fill="#000000">&#45; m_Elements</text>
<text text-anchor="start" x="130" y="-158.5" font-family="Helvetica,sans-Serif" font-size="10.00" fill="#000000">&#45; m_PaddingConfiguration</text>
<text text-anchor="start" x="130" y="-147.5" font-family="Helvetica,sans-Serif" font-size="10.00" fill="#000000">&#45; m_Bounds</text>
<polyline fill="none" stroke="#000000" points="122,-140.5 264,-140.5 "/>
<text text-anchor="start" x="130" y="-128.5" font-family="Helvetica,sans-Serif" font-size="10.00" fill="#000000">+ getPadding()</text>
<text text-anchor="start" x="130" y="-117.5" font-family="Helvetica,sans-Serif" font-size="10.00" fill="#000000">+ draw()</text>
<text text-anchor="start" x="130" y="-106.5" font-family="Helvetica,sans-Serif" font-size="10.00" fill="#000000">+ iLayout()</text>
<text text-anchor="start" x="130" y="-95.5" font-family="Helvetica,sans-Serif" font-size="10.00" fill="#000000">+ ~iLayout()</text>
<text text-anchor="start" x="130" y="-84.5" font-family="Helvetica,sans-Serif" font-size="10.00" fill="#000000">+ setup()</text>
<text text-anchor="start" x="130" y="-73.5" font-family="Helvetica,sans-Serif" font-size="10.00" fill="#000000"># addElement()</text>
<text text-anchor="start" x="130" y="-62.5" font-family="Helvetica,sans-Serif" font-size="10.00" fill="#000000"># setPadding()</text>
<text text-anchor="start" x="130" y="-51.5" font-family="Helvetica,sans-Serif" font-size="10.00" fill="#000000"># elements()</text>
<text text-anchor="start" x="130" y="-40.5" font-family="Helvetica,sans-Serif" font-size="10.00" fill="#000000"># elements()</text>
<text text-anchor="start" x="130" y="-29.5" font-family="Helvetica,sans-Serif" font-size="10.00" fill="#000000"># computeBoundaries()</text>
<text text-anchor="start" x="130" y="-18.5" font-family="Helvetica,sans-Serif" font-size="10.00" fill="#000000"># getBounds()</text>
<text text-anchor="start" x="130" y="-7.5" font-family="Helvetica,sans-Serif" font-size="10.00" fill="#000000">&#45; setBounds()</text>
</a>
</g>
</g>
<!-- Node0&#45;&gt;Node2 -->
<g id="edge2" class="edge">
<title>Node0&#45;&gt;Node2</title>
<path fill="none" stroke="#191970" d="M193,-227.1358C193,-218.6503 193,-209.7532 193,-200.7759"/>
<polygon fill="none" stroke="#191970" points="189.5001,-227.2598 193,-237.2598 196.5001,-227.2598 189.5001,-227.2598"/>
</g>
<!-- Node3 -->
<g id="node4" class="node">
<title>Node3</title>
<g id="a_node4"><a xlink:href="classiViewElement.html" target="_top" xlink:title="{iViewElement\n|&#45; m_Bounds\l|+ ~iViewElement()\l+ getBounds()\l&#45; setBounds()\l}">
<polygon fill="none" stroke="#000000" points="282.5,-61 282.5,-140 393.5,-140 393.5,-61 282.5,-61"/>
<text text-anchor="middle" x="338" y="-128" font-family="Helvetica,sans-Serif" font-size="10.00" fill="#000000">iViewElement</text>
<polyline fill="none" stroke="#000000" points="282.5,-121 393.5,-121 "/>
<text text-anchor="start" x="290.5" y="-109" font-family="Helvetica,sans-Serif" font-size="10.00" fill="#000000">&#45; m_Bounds</text>
<polyline fill="none" stroke="#000000" points="282.5,-102 393.5,-102 "/>
<text text-anchor="start" x="290.5" y="-90" font-family="Helvetica,sans-Serif" font-size="10.00" fill="#000000">+ ~iViewElement()</text>
<text text-anchor="start" x="290.5" y="-79" font-family="Helvetica,sans-Serif" font-size="10.00" fill="#000000">+ getBounds()</text>
<text text-anchor="start" x="290.5" y="-68" font-family="Helvetica,sans-Serif" font-size="10.00" fill="#000000">&#45; setBounds()</text>
</a>
</g>
</g>
<!-- Node0&#45;&gt;Node3 -->
<g id="edge3" class="edge">
<title>Node0&#45;&gt;Node3</title>
<path fill="none" stroke="#191970" d="M243.7693,-235.6458C253.8138,-224.5082 264.0187,-212.6009 273,-201 287.8829,-181.7761 302.7389,-159.1319 314.4839,-140.2091"/>
<polygon fill="none" stroke="#191970" points="241.0129,-233.474 236.8581,-243.2203 246.1839,-238.1922 241.0129,-233.474"/>
</g>
</g>
</svg>
