<?xml version="1.0" encoding="UTF-8" standalone="no"?>
<!DOCTYPE svg PUBLIC "-//W3C//DTD SVG 1.1//EN"
 "http://www.w3.org/Graphics/SVG/1.1/DTD/svg11.dtd">
<!-- Generated by graphviz version 2.40.1 (20161225.0304)
 -->
<!-- Title: PixelBuffer::colorMagicPixels Pages: 1 -->
<svg width="467pt" height="180pt"
 viewBox="0.00 0.00 467.00 180.00" xmlns="http://www.w3.org/2000/svg" xmlns:xlink="http://www.w3.org/1999/xlink">
<g id="graph0" class="graph" transform="scale(1 1) rotate(0) translate(4 176)">
<title>PixelBuffer::colorMagicPixels</title>
<!-- Node14 -->
<g id="node1" class="node">
<title>Node14</title>
<polygon fill="#bfbfbf" stroke="#000000" points="0,-76.5 0,-95.5 158,-95.5 158,-76.5 0,-76.5"/>
<text text-anchor="middle" x="79" y="-83.5" font-family="Helvetica,sans-Serif" font-size="10.00" fill="#000000">PixelBuffer::colorMagicPixels</text>
</g>
<!-- Node15 -->
<g id="node2" class="node">
<title>Node15</title>
<g id="a_node2"><a xlink:href="structRGBAColor.html#ab27257376e621ff4a8862a90ddd1ffab" target="_top" xlink:title="RGBAColor::hue">
<polygon fill="none" stroke="#000000" points="209.5,-152.5 209.5,-171.5 303.5,-171.5 303.5,-152.5 209.5,-152.5"/>
<text text-anchor="middle" x="256.5" y="-159.5" font-family="Helvetica,sans-Serif" font-size="10.00" fill="#000000">RGBAColor::hue</text>
</a>
</g>
</g>
<!-- Node14&#45;&gt;Node15 -->
<g id="edge1" class="edge">
<title>Node14&#45;&gt;Node15</title>
<path fill="none" stroke="#191970" d="M96.1267,-95.6073C118.246,-107.752 158.1665,-128.7855 194,-143 199.6053,-145.2235 205.5784,-147.3431 211.5247,-149.3059"/>
<polygon fill="#191970" stroke="#191970" points="210.8467,-152.7627 221.437,-152.4519 212.9643,-146.0906 210.8467,-152.7627"/>
</g>
<!-- Node19 -->
<g id="node6" class="node">
<title>Node19</title>
<g id="a_node6"><a xlink:href="structRGBAColor.html#a8de2a717601cc3fba0e65c6e4e7e1524" target="_top" xlink:title="RGBAColor::saturation">
<polygon fill="none" stroke="#000000" points="194,-114.5 194,-133.5 319,-133.5 319,-114.5 194,-114.5"/>
<text text-anchor="middle" x="256.5" y="-121.5" font-family="Helvetica,sans-Serif" font-size="10.00" fill="#000000">RGBAColor::saturation</text>
</a>
</g>
</g>
<!-- Node14&#45;&gt;Node19 -->
<g id="edge5" class="edge">
<title>Node14&#45;&gt;Node19</title>
<path fill="none" stroke="#191970" d="M123.7907,-95.589C147.5303,-100.6713 176.8839,-106.9554 201.9437,-112.3203"/>
<polygon fill="#191970" stroke="#191970" points="201.5202,-115.8089 212.0313,-114.4799 202.9856,-108.964 201.5202,-115.8089"/>
</g>
<!-- Node20 -->
<g id="node7" class="node">
<title>Node20</title>
<g id="a_node7"><a xlink:href="structRGBAColor.html#ab835dd9b5967615be31d7087a0499607" target="_top" xlink:title="RGBAColor::lightness">
<polygon fill="none" stroke="#000000" points="196.5,-76.5 196.5,-95.5 316.5,-95.5 316.5,-76.5 196.5,-76.5"/>
<text text-anchor="middle" x="256.5" y="-83.5" font-family="Helvetica,sans-Serif" font-size="10.00" fill="#000000">RGBAColor::lightness</text>
</a>
</g>
</g>
<!-- Node14&#45;&gt;Node20 -->
<g id="edge9" class="edge">
<title>Node14&#45;&gt;Node20</title>
<path fill="none" stroke="#191970" d="M158.1464,-86C167.4829,-86 176.9629,-86 186.1664,-86"/>
<polygon fill="#191970" stroke="#191970" points="186.4178,-89.5001 196.4177,-86 186.4177,-82.5001 186.4178,-89.5001"/>
</g>
<!-- Node21 -->
<g id="node8" class="node">
<title>Node21</title>
<g id="a_node8"><a xlink:href="classPixelBuffer.html#a119bf3b136a9e3c04c55f42ec4ba4e42" target="_top" xlink:title="PixelBuffer::overlay">
<polygon fill="none" stroke="#000000" points="200,-38.5 200,-57.5 313,-57.5 313,-38.5 200,-38.5"/>
<text text-anchor="middle" x="256.5" y="-45.5" font-family="Helvetica,sans-Serif" font-size="10.00" fill="#000000">PixelBuffer::overlay</text>
</a>
</g>
</g>
<!-- Node14&#45;&gt;Node21 -->
<g id="edge13" class="edge">
<title>Node14&#45;&gt;Node21</title>
<path fill="none" stroke="#191970" d="M123.7907,-76.411C147.5303,-71.3287 176.8839,-65.0446 201.9437,-59.6797"/>
<polygon fill="#191970" stroke="#191970" points="202.9856,-63.036 212.0313,-57.5201 201.5202,-56.1911 202.9856,-63.036"/>
</g>
<!-- Node22 -->
<g id="node9" class="node">
<title>Node22</title>
<g id="a_node9"><a xlink:href="structRGBAColor.html#a3cd700ece11761d8cfeb8a8e69813cd2" target="_top" xlink:title="RGBAColor::fromHSLA">
<polygon fill="none" stroke="#000000" points="194,-.5 194,-19.5 319,-19.5 319,-.5 194,-.5"/>
<text text-anchor="middle" x="256.5" y="-7.5" font-family="Helvetica,sans-Serif" font-size="10.00" fill="#000000">RGBAColor::fromHSLA</text>
</a>
</g>
</g>
<!-- Node14&#45;&gt;Node22 -->
<g id="edge14" class="edge">
<title>Node14&#45;&gt;Node22</title>
<path fill="none" stroke="#191970" d="M96.1267,-76.3927C118.246,-64.248 158.1665,-43.2145 194,-29 199.6053,-26.7765 205.5784,-24.6569 211.5247,-22.6941"/>
<polygon fill="#191970" stroke="#191970" points="212.9643,-25.9094 221.437,-19.5481 210.8467,-19.2373 212.9643,-25.9094"/>
</g>
<!-- Node16 -->
<g id="node3" class="node">
<title>Node16</title>
<g id="a_node3"><a xlink:href="structRGBAColor.html#a8a63c03d13e9427879b4f8f3ce623d69" target="_top" xlink:title="RGBAColor::red">
<polygon fill="none" stroke="#000000" points="361,-152.5 361,-171.5 453,-171.5 453,-152.5 361,-152.5"/>
<text text-anchor="middle" x="407" y="-159.5" font-family="Helvetica,sans-Serif" font-size="10.00" fill="#000000">RGBAColor::red</text>
</a>
</g>
</g>
<!-- Node15&#45;&gt;Node16 -->
<g id="edge2" class="edge">
<title>Node15&#45;&gt;Node16</title>
<path fill="none" stroke="#191970" d="M303.7062,-162C318.6977,-162 335.4221,-162 350.9726,-162"/>
<polygon fill="#191970" stroke="#191970" points="350.9921,-165.5001 360.992,-162 350.992,-158.5001 350.9921,-165.5001"/>
</g>
<!-- Node17 -->
<g id="node4" class="node">
<title>Node17</title>
<g id="a_node4"><a xlink:href="structRGBAColor.html#a8523bfbb8c7b8fbbdb8f2ba328079adb" target="_top" xlink:title="RGBAColor::green">
<polygon fill="none" stroke="#000000" points="355,-114.5 355,-133.5 459,-133.5 459,-114.5 355,-114.5"/>
<text text-anchor="middle" x="407" y="-121.5" font-family="Helvetica,sans-Serif" font-size="10.00" fill="#000000">RGBAColor::green</text>
</a>
</g>
</g>
<!-- Node15&#45;&gt;Node17 -->
<g id="edge3" class="edge">
<title>Node15&#45;&gt;Node17</title>
<path fill="none" stroke="#191970" d="M294.4775,-152.411C314.1587,-147.4417 338.3907,-141.3233 359.3206,-136.0387"/>
<polygon fill="#191970" stroke="#191970" points="360.4567,-139.3617 369.2956,-133.5201 358.743,-132.5747 360.4567,-139.3617"/>
</g>
<!-- Node18 -->
<g id="node5" class="node">
<title>Node18</title>
<g id="a_node5"><a xlink:href="structRGBAColor.html#a959baeeec5e43348b7bd901bbc31f8f8" target="_top" xlink:title="RGBAColor::blue">
<polygon fill="none" stroke="#000000" points="358.5,-76.5 358.5,-95.5 455.5,-95.5 455.5,-76.5 358.5,-76.5"/>
<text text-anchor="middle" x="407" y="-83.5" font-family="Helvetica,sans-Serif" font-size="10.00" fill="#000000">RGBAColor::blue</text>
</a>
</g>
</g>
<!-- Node15&#45;&gt;Node18 -->
<g id="edge4" class="edge">
<title>Node15&#45;&gt;Node18</title>
<path fill="none" stroke="#191970" d="M298.8166,-152.4101C305.8335,-149.9131 312.8265,-146.8171 319,-143 338.7875,-130.7653 335.5576,-117.7761 355,-105 357.9406,-103.0676 361.1037,-101.2994 364.3653,-99.6878"/>
<polygon fill="#191970" stroke="#191970" points="365.9844,-102.7989 373.7158,-95.5549 363.1544,-96.3965 365.9844,-102.7989"/>
</g>
<!-- Node19&#45;&gt;Node16 -->
<g id="edge6" class="edge">
<title>Node19&#45;&gt;Node16</title>
<path fill="none" stroke="#191970" d="M294.4775,-133.589C314.1587,-138.5583 338.3907,-144.6767 359.3206,-149.9613"/>
<polygon fill="#191970" stroke="#191970" points="358.743,-153.4253 369.2956,-152.4799 360.4567,-146.6383 358.743,-153.4253"/>
</g>
<!-- Node19&#45;&gt;Node17 -->
<g id="edge7" class="edge">
<title>Node19&#45;&gt;Node17</title>
<path fill="none" stroke="#191970" d="M319.0181,-124C327.5157,-124 336.2363,-124 344.7295,-124"/>
<polygon fill="#191970" stroke="#191970" points="344.9463,-127.5001 354.9463,-124 344.9462,-120.5001 344.9463,-127.5001"/>
</g>
<!-- Node19&#45;&gt;Node18 -->
<g id="edge8" class="edge">
<title>Node19&#45;&gt;Node18</title>
<path fill="none" stroke="#191970" d="M294.4775,-114.411C314.1587,-109.4417 338.3907,-103.3233 359.3206,-98.0387"/>
<polygon fill="#191970" stroke="#191970" points="360.4567,-101.3617 369.2956,-95.5201 358.743,-94.5747 360.4567,-101.3617"/>
</g>
<!-- Node20&#45;&gt;Node16 -->
<g id="edge10" class="edge">
<title>Node20&#45;&gt;Node16</title>
<path fill="none" stroke="#191970" d="M298.8166,-95.5899C305.8335,-98.0869 312.8265,-101.1829 319,-105 338.7875,-117.2347 335.5576,-130.2239 355,-143 357.9406,-144.9324 361.1037,-146.7006 364.3653,-148.3122"/>
<polygon fill="#191970" stroke="#191970" points="363.1544,-151.6035 373.7158,-152.4451 365.9844,-145.2011 363.1544,-151.6035"/>
</g>
<!-- Node20&#45;&gt;Node17 -->
<g id="edge11" class="edge">
<title>Node20&#45;&gt;Node17</title>
<path fill="none" stroke="#191970" d="M294.4775,-95.589C314.1587,-100.5583 338.3907,-106.6767 359.3206,-111.9613"/>
<polygon fill="#191970" stroke="#191970" points="358.743,-115.4253 369.2956,-114.4799 360.4567,-108.6383 358.743,-115.4253"/>
</g>
<!-- Node20&#45;&gt;Node18 -->
<g id="edge12" class="edge">
<title>Node20&#45;&gt;Node18</title>
<path fill="none" stroke="#191970" d="M316.8469,-86C327.1509,-86 337.8433,-86 348.1089,-86"/>
<polygon fill="#191970" stroke="#191970" points="348.202,-89.5001 358.2019,-86 348.2019,-82.5001 348.202,-89.5001"/>
</g>
</g>
</svg>
