<?xml version="1.0" encoding="UTF-8" standalone="no"?>
<!DOCTYPE svg PUBLIC "-//W3C//DTD SVG 1.1//EN"
 "http://www.w3.org/Graphics/SVG/1.1/DTD/svg11.dtd">
<!-- Generated by graphviz version 2.40.1 (20161225.0304)
 -->
<!-- Title: SDLRenderer::SDLRenderer Pages: 1 -->
<svg width="304pt" height="116pt"
 viewBox="0.00 0.00 304.00 116.00" xmlns="http://www.w3.org/2000/svg" xmlns:xlink="http://www.w3.org/1999/xlink">
<g id="graph0" class="graph" transform="scale(1 1) rotate(0) translate(4 112)">
<title>SDLRenderer::SDLRenderer</title>
<!-- Node0 -->
<g id="node1" class="node">
<title>Node0</title>
<polygon fill="#bfbfbf" stroke="#000000" points="0,-44.5 0,-63.5 147,-63.5 147,-44.5 0,-44.5"/>
<text text-anchor="middle" x="73.5" y="-51.5" font-family="Helvetica,sans-Serif" font-size="10.00" fill="#000000">SDLRenderer::SDLRenderer</text>
</g>
<!-- Node1 -->
<g id="node2" class="node">
<title>Node1</title>
<g id="a_node2"><a xlink:href="namespacefs.html#a28e4c1324680c188092ecfe5fd8a91a3" target="_top" xlink:title="fs::getBasePath">
<polygon fill="none" stroke="#000000" points="193.5,-88.5 193.5,-107.5 285.5,-107.5 285.5,-88.5 193.5,-88.5"/>
<text text-anchor="middle" x="239.5" y="-95.5" font-family="Helvetica,sans-Serif" font-size="10.00" fill="#000000">fs::getBasePath</text>
</a>
</g>
</g>
<!-- Node0&#45;&gt;Node1 -->
<g id="edge1" class="edge">
<title>Node0&#45;&gt;Node1</title>
<path fill="none" stroke="#191970" d="M109.5195,-63.5473C134.2091,-70.0916 167.1684,-78.8278 193.7193,-85.8654"/>
<polygon fill="#191970" stroke="#191970" points="192.9878,-89.2923 203.5508,-88.4713 194.7813,-82.5259 192.9878,-89.2923"/>
</g>
<!-- Node2 -->
<g id="node3" class="node">
<title>Node2</title>
<g id="a_node3"><a xlink:href="classSingleton.html#af5cb1e5749949e2b68416cfb8d378044" target="_top" xlink:title="Get an instance of the singleton. ">
<polygon fill="none" stroke="#000000" points="183,-39 183,-69 296,-69 296,-39 183,-39"/>
<text text-anchor="start" x="191" y="-57" font-family="Helvetica,sans-Serif" font-size="10.00" fill="#000000">Singleton&lt; Settings</text>
<text text-anchor="middle" x="239.5" y="-46" font-family="Helvetica,sans-Serif" font-size="10.00" fill="#000000"> &gt;::instance</text>
</a>
</g>
</g>
<!-- Node0&#45;&gt;Node2 -->
<g id="edge2" class="edge">
<title>Node0&#45;&gt;Node2</title>
<path fill="none" stroke="#191970" d="M147.2767,-54C155.7721,-54 164.398,-54 172.7924,-54"/>
<polygon fill="#191970" stroke="#191970" points="172.8927,-57.5001 182.8927,-54 172.8926,-50.5001 172.8927,-57.5001"/>
</g>
<!-- Node3 -->
<g id="node4" class="node">
<title>Node3</title>
<g id="a_node4"><a xlink:href="structStrongType.html#acc66e6d6b9c95193a97a839560499933" target="_top" xlink:title="StrongType::get">
<polygon fill="none" stroke="#000000" points="193.5,-.5 193.5,-19.5 285.5,-19.5 285.5,-.5 193.5,-.5"/>
<text text-anchor="middle" x="239.5" y="-7.5" font-family="Helvetica,sans-Serif" font-size="10.00" fill="#000000">StrongType::get</text>
</a>
</g>
</g>
<!-- Node0&#45;&gt;Node3 -->
<g id="edge3" class="edge">
<title>Node0&#45;&gt;Node3</title>
<path fill="none" stroke="#191970" d="M109.5195,-44.4527C134.2091,-37.9084 167.1684,-29.1722 193.7193,-22.1346"/>
<polygon fill="#191970" stroke="#191970" points="194.7813,-25.4741 203.5508,-19.5287 192.9878,-18.7077 194.7813,-25.4741"/>
</g>
</g>
</svg>
