<?xml version="1.0" encoding="UTF-8" standalone="no"?>
<!DOCTYPE svg PUBLIC "-//W3C//DTD SVG 1.1//EN"
 "http://www.w3.org/Graphics/SVG/1.1/DTD/svg11.dtd">
<!-- Generated by graphviz version 2.40.1 (20161225.0304)
 -->
<!-- Title: ButtonState Pages: 1 -->
<svg width="603pt" height="1261pt"
 viewBox="0.00 0.00 603.00 1261.00" xmlns="http://www.w3.org/2000/svg" xmlns:xlink="http://www.w3.org/1999/xlink">
<g id="graph0" class="graph" transform="scale(1 1) rotate(0) translate(4 1257)">
<title>ButtonState</title>
<!-- Node11 -->
<g id="node1" class="node">
<title>Node11</title>
<polygon fill="#bfbfbf" stroke="#000000" points="155.5,-.5 155.5,-68.5 256.5,-68.5 256.5,-.5 155.5,-.5"/>
<text text-anchor="middle" x="206" y="-56.5" font-family="Helvetica,sans-Serif" font-size="10.00" fill="#000000">ButtonState</text>
<polyline fill="none" stroke="#000000" points="155.5,-49.5 256.5,-49.5 "/>
<text text-anchor="start" x="163.5" y="-37.5" font-family="Helvetica,sans-Serif" font-size="10.00" fill="#000000">&#45; m_Status</text>
<polyline fill="none" stroke="#000000" points="155.5,-30.5 256.5,-30.5 "/>
<text text-anchor="start" x="163.5" y="-18.5" font-family="Helvetica,sans-Serif" font-size="10.00" fill="#000000">+ setStatus()</text>
<text text-anchor="start" x="163.5" y="-7.5" font-family="Helvetica,sans-Serif" font-size="10.00" fill="#000000">+ ~ButtonState()</text>
</g>
<!-- Node12 -->
<g id="node2" class="node">
<title>Node12</title>
<g id="a_node2"><a xlink:href="structDataModel.html" target="_top" xlink:title="{DataModel\&lt; ButtonNotifications \&gt;\n||+ DataModel()\l}">
<polygon fill="none" stroke="#000000" points="113.5,-106.5 113.5,-163.5 298.5,-163.5 298.5,-106.5 113.5,-106.5"/>
<text text-anchor="middle" x="206" y="-151.5" font-family="Helvetica,sans-Serif" font-size="10.00" fill="#000000">DataModel&lt; ButtonNotifications &gt;</text>
<polyline fill="none" stroke="#000000" points="113.5,-144.5 298.5,-144.5 "/>
<text text-anchor="middle" x="206" y="-132.5" font-family="Helvetica,sans-Serif" font-size="10.00" fill="#000000"> </text>
<polyline fill="none" stroke="#000000" points="113.5,-125.5 298.5,-125.5 "/>
<text text-anchor="start" x="121.5" y="-113.5" font-family="Helvetica,sans-Serif" font-size="10.00" fill="#000000">+ DataModel()</text>
</a>
</g>
</g>
<!-- Node12&#45;&gt;Node11 -->
<g id="edge1" class="edge">
<title>Node12&#45;&gt;Node11</title>
<path fill="none" stroke="#191970" d="M206,-96.1903C206,-87.1667 206,-77.6233 206,-68.8097"/>
<polygon fill="none" stroke="#191970" points="202.5001,-96.4695 206,-106.4696 209.5001,-96.4696 202.5001,-96.4695"/>
</g>
<!-- Node13 -->
<g id="node3" class="node">
<title>Node13</title>
<g id="a_node3"><a xlink:href="classiModel.html" target="_top" xlink:title="{iModel\n||+ ~iModel()\l}">
<polygon fill="none" stroke="#000000" points="215,-345 215,-402 291,-402 291,-345 215,-345"/>
<text text-anchor="middle" x="253" y="-390" font-family="Helvetica,sans-Serif" font-size="10.00" fill="#000000">iModel</text>
<polyline fill="none" stroke="#000000" points="215,-383 291,-383 "/>
<text text-anchor="middle" x="253" y="-371" font-family="Helvetica,sans-Serif" font-size="10.00" fill="#000000"> </text>
<polyline fill="none" stroke="#000000" points="215,-364 291,-364 "/>
<text text-anchor="start" x="223" y="-352" font-family="Helvetica,sans-Serif" font-size="10.00" fill="#000000">+ ~iModel()</text>
</a>
</g>
</g>
<!-- Node13&#45;&gt;Node12 -->
<g id="edge2" class="edge">
<title>Node13&#45;&gt;Node12</title>
<path fill="none" stroke="#191970" d="M241.515,-335.0902C235.9485,-315.4537 229.5096,-291.0965 225,-269 217.6468,-232.9705 212.1833,-190.914 209.0471,-163.6644"/>
<polygon fill="none" stroke="#191970" points="238.2057,-336.247 244.3315,-344.8914 244.9334,-334.3137 238.2057,-336.247"/>
</g>
<!-- Node22 -->
<g id="node12" class="node">
<title>Node22</title>
<g id="a_node12"><a xlink:href="structDataModel.html" target="_top" xlink:title="{DataModel\&lt; DataList \&gt;\n||+ DataModel()\l}">
<polygon fill="none" stroke="#000000" points="234,-211.5 234,-268.5 366,-268.5 366,-211.5 234,-211.5"/>
<text text-anchor="middle" x="300" y="-256.5" font-family="Helvetica,sans-Serif" font-size="10.00" fill="#000000">DataModel&lt; DataList &gt;</text>
<polyline fill="none" stroke="#000000" points="234,-249.5 366,-249.5 "/>
<text text-anchor="middle" x="300" y="-237.5" font-family="Helvetica,sans-Serif" font-size="10.00" fill="#000000"> </text>
<polyline fill="none" stroke="#000000" points="234,-230.5 366,-230.5 "/>
<text text-anchor="start" x="242" y="-218.5" font-family="Helvetica,sans-Serif" font-size="10.00" fill="#000000">+ DataModel()</text>
</a>
</g>
</g>
<!-- Node13&#45;&gt;Node22 -->
<g id="edge13" class="edge">
<title>Node13&#45;&gt;Node22</title>
<path fill="none" stroke="#191970" d="M266.4915,-335.1785C273.9619,-313.9592 283.0918,-288.0263 289.934,-268.5917"/>
<polygon fill="none" stroke="#191970" points="263.1022,-334.2661 263.0827,-344.8609 269.7049,-336.5907 263.1022,-334.2661"/>
</g>
<!-- Node14 -->
<g id="node4" class="node">
<title>Node14</title>
<g id="a_node4"><a xlink:href="classSubject.html" target="_top" xlink:title="{Subject\&lt; VariantType\l\&lt; ButtonNotifications\l \&gt;, UIMQDispatcher\&lt; VariantType\l\&lt; ButtonNotifications \&gt; \&gt; \&gt;\n|&#45; m_Observers\l|+ addObserver()\l# Subject()\l# notifyObservers()\l# ~Subject()\l# mustNotify()\l}">
<polygon fill="none" stroke="#000000" points="15.5,-306.5 15.5,-440.5 196.5,-440.5 196.5,-306.5 15.5,-306.5"/>
<text text-anchor="start" x="23.5" y="-428.5" font-family="Helvetica,sans-Serif" font-size="10.00" fill="#000000">Subject&lt; VariantType</text>
<text text-anchor="start" x="23.5" y="-417.5" font-family="Helvetica,sans-Serif" font-size="10.00" fill="#000000">&lt; ButtonNotifications</text>
<text text-anchor="start" x="23.5" y="-406.5" font-family="Helvetica,sans-Serif" font-size="10.00" fill="#000000"> &gt;, UIMQDispatcher&lt; VariantType</text>
<text text-anchor="middle" x="106" y="-395.5" font-family="Helvetica,sans-Serif" font-size="10.00" fill="#000000">&lt; ButtonNotifications &gt; &gt; &gt;</text>
<polyline fill="none" stroke="#000000" points="15.5,-388.5 196.5,-388.5 "/>
<text text-anchor="start" x="23.5" y="-376.5" font-family="Helvetica,sans-Serif" font-size="10.00" fill="#000000">&#45; m_Observers</text>
<polyline fill="none" stroke="#000000" points="15.5,-369.5 196.5,-369.5 "/>
<text text-anchor="start" x="23.5" y="-357.5" font-family="Helvetica,sans-Serif" font-size="10.00" fill="#000000">+ addObserver()</text>
<text text-anchor="start" x="23.5" y="-346.5" font-family="Helvetica,sans-Serif" font-size="10.00" fill="#000000"># Subject()</text>
<text text-anchor="start" x="23.5" y="-335.5" font-family="Helvetica,sans-Serif" font-size="10.00" fill="#000000"># notifyObservers()</text>
<text text-anchor="start" x="23.5" y="-324.5" font-family="Helvetica,sans-Serif" font-size="10.00" fill="#000000"># ~Subject()</text>
<text text-anchor="start" x="23.5" y="-313.5" font-family="Helvetica,sans-Serif" font-size="10.00" fill="#000000"># mustNotify()</text>
</a>
</g>
</g>
<!-- Node14&#45;&gt;Node12 -->
<g id="edge3" class="edge">
<title>Node14&#45;&gt;Node12</title>
<path fill="none" stroke="#191970" d="M138.0082,-297.1604C157.1126,-251.5965 180.2605,-196.3887 194.0238,-163.5632"/>
<polygon fill="none" stroke="#191970" points="134.7607,-295.8542 134.1217,-306.4298 141.2163,-298.561 134.7607,-295.8542"/>
</g>
<!-- Node15 -->
<g id="node5" class="node">
<title>Node15</title>
<g id="a_node5"><a xlink:href="structUIMQDispatcher.html" target="_top" xlink:title="{UIMQDispatcher\&lt; VariantType\l\&lt; ButtonNotifications \&gt; \&gt;\n||+ dispatch()\l}">
<polygon fill="none" stroke="#000000" points="0,-527 0,-595 164,-595 164,-527 0,-527"/>
<text text-anchor="start" x="8" y="-583" font-family="Helvetica,sans-Serif" font-size="10.00" fill="#000000">UIMQDispatcher&lt; VariantType</text>
<text text-anchor="middle" x="82" y="-572" font-family="Helvetica,sans-Serif" font-size="10.00" fill="#000000">&lt; ButtonNotifications &gt; &gt;</text>
<polyline fill="none" stroke="#000000" points="0,-565 164,-565 "/>
<text text-anchor="middle" x="82" y="-553" font-family="Helvetica,sans-Serif" font-size="10.00" fill="#000000"> </text>
<polyline fill="none" stroke="#000000" points="0,-546 164,-546 "/>
<text text-anchor="start" x="8" y="-534" font-family="Helvetica,sans-Serif" font-size="10.00" fill="#000000">+ dispatch()</text>
</a>
</g>
</g>
<!-- Node15&#45;&gt;Node14 -->
<g id="edge4" class="edge">
<title>Node15&#45;&gt;Node14</title>
<path fill="none" stroke="#8b1a1a" d="M87.6819,-516.6104C90.5811,-493.9598 94.1688,-465.9314 97.3985,-440.6994"/>
<polygon fill="none" stroke="#8b1a1a" points="84.2,-516.2461 86.402,-526.6096 91.1434,-517.1349 84.2,-516.2461"/>
</g>
<!-- Node16 -->
<g id="node6" class="node">
<title>Node16</title>
<g id="a_node6"><a xlink:href="classUILoopMQ.html" target="_top" xlink:title="UI Actor&#39;s message queue. ">
<polygon fill="none" stroke="#000000" points="212,-764.5 212,-821.5 278,-821.5 278,-764.5 212,-764.5"/>
<text text-anchor="middle" x="245" y="-809.5" font-family="Helvetica,sans-Serif" font-size="10.00" fill="#000000">UILoopMQ</text>
<polyline fill="none" stroke="#000000" points="212,-802.5 278,-802.5 "/>
<text text-anchor="middle" x="245" y="-790.5" font-family="Helvetica,sans-Serif" font-size="10.00" fill="#000000"> </text>
<polyline fill="none" stroke="#000000" points="212,-783.5 278,-783.5 "/>
<text text-anchor="middle" x="245" y="-771.5" font-family="Helvetica,sans-Serif" font-size="10.00" fill="#000000"> </text>
</a>
</g>
</g>
<!-- Node16&#45;&gt;Node15 -->
<g id="edge5" class="edge">
<title>Node16&#45;&gt;Node15</title>
<path fill="none" stroke="#404040" d="M211.8209,-778.0484C185.0364,-764.7958 147.5663,-743.4603 121,-717 92.8611,-688.9735 84.8581,-679.2019 74,-641 70.9778,-630.367 70.591,-618.6566 71.4984,-607.5531"/>
<polygon fill="none" stroke="#404040" points="71.5327,-607.2742 68.2971,-600.8298 73.0013,-595.3644 76.2369,-601.8089 71.5327,-607.2742"/>
<text text-anchor="middle" x="137.5" y="-685.5" font-family="Helvetica,sans-Serif" font-size="10.00" fill="#000000"> +loop</text>
</g>
<!-- Node19 -->
<g id="node9" class="node">
<title>Node19</title>
<g id="a_node9"><a xlink:href="structUIMQDispatcher.html" target="_top" xlink:title="An asynchronous dispatch to Observers based on a UIMessageQueue processed on another thread...">
<polygon fill="none" stroke="#000000" points="163.5,-659.5 163.5,-716.5 326.5,-716.5 326.5,-659.5 163.5,-659.5"/>
<text text-anchor="middle" x="245" y="-704.5" font-family="Helvetica,sans-Serif" font-size="10.00" fill="#000000">UIMQDispatcher&lt; DataArgs &gt;</text>
<polyline fill="none" stroke="#000000" points="163.5,-697.5 326.5,-697.5 "/>
<text text-anchor="middle" x="245" y="-685.5" font-family="Helvetica,sans-Serif" font-size="10.00" fill="#000000"> </text>
<polyline fill="none" stroke="#000000" points="163.5,-678.5 326.5,-678.5 "/>
<text text-anchor="start" x="171.5" y="-666.5" font-family="Helvetica,sans-Serif" font-size="10.00" fill="#000000">+ dispatch()</text>
</a>
</g>
</g>
<!-- Node16&#45;&gt;Node19 -->
<g id="edge9" class="edge">
<title>Node16&#45;&gt;Node19</title>
<path fill="none" stroke="#404040" d="M245,-764.3083C245,-753.4281 245,-740.817 245,-729.0192"/>
<polygon fill="none" stroke="#404040" points="245.0001,-728.657 241,-722.6571 245,-716.657 249,-722.657 245.0001,-728.657"/>
<text text-anchor="middle" x="261.5" y="-738" font-family="Helvetica,sans-Serif" font-size="10.00" fill="#000000"> +loop</text>
</g>
<!-- Node24 -->
<g id="node14" class="node">
<title>Node24</title>
<g id="a_node14"><a xlink:href="structUIMQDispatcher.html" target="_top" xlink:title="{UIMQDispatcher\&lt; VariantType\l\&lt; DataList \&gt; \&gt;\n||+ dispatch()\l}">
<polygon fill="none" stroke="#000000" points="431,-527 431,-595 595,-595 595,-527 431,-527"/>
<text text-anchor="start" x="439" y="-583" font-family="Helvetica,sans-Serif" font-size="10.00" fill="#000000">UIMQDispatcher&lt; VariantType</text>
<text text-anchor="middle" x="513" y="-572" font-family="Helvetica,sans-Serif" font-size="10.00" fill="#000000">&lt; DataList &gt; &gt;</text>
<polyline fill="none" stroke="#000000" points="431,-565 595,-565 "/>
<text text-anchor="middle" x="513" y="-553" font-family="Helvetica,sans-Serif" font-size="10.00" fill="#000000"> </text>
<polyline fill="none" stroke="#000000" points="431,-546 595,-546 "/>
<text text-anchor="start" x="439" y="-534" font-family="Helvetica,sans-Serif" font-size="10.00" fill="#000000">+ dispatch()</text>
</a>
</g>
</g>
<!-- Node16&#45;&gt;Node24 -->
<g id="edge16" class="edge">
<title>Node16&#45;&gt;Node24</title>
<path fill="none" stroke="#404040" d="M278.0935,-788.0124C341.1403,-777.7847 474.7254,-752.3846 503,-717 527.3679,-686.5045 527.51,-641.0304 522.9567,-607.0364"/>
<polygon fill="none" stroke="#404040" points="522.9417,-606.939 518.0695,-601.6228 521.1029,-595.0807 525.975,-600.3969 522.9417,-606.939"/>
<text text-anchor="middle" x="540.5" y="-685.5" font-family="Helvetica,sans-Serif" font-size="10.00" fill="#000000"> +loop</text>
</g>
<!-- Node17 -->
<g id="node7" class="node">
<title>Node17</title>
<g id="a_node7"><a xlink:href="classMessageQueue.html" target="_top" xlink:title="{MessageQueue\&lt; VariantType\l\&lt; UIEvents \&gt; \&gt;\n|&#45; m_OnEvent\l&#45; m_Semaphore\l&#45; m_Queue\l|+ push()\l+ peek()\l+ getEnumerable()\l+ MessageQueue()\l+ MessageQueue()\l+ MessageQueue()\l+ operator=()\l+ operator=()\l&#45; wakeCondition()\l}">
<polygon fill="none" stroke="#000000" points="165.5,-859.5 165.5,-1037.5 324.5,-1037.5 324.5,-859.5 165.5,-859.5"/>
<text text-anchor="start" x="173.5" y="-1025.5" font-family="Helvetica,sans-Serif" font-size="10.00" fill="#000000">MessageQueue&lt; VariantType</text>
<text text-anchor="middle" x="245" y="-1014.5" font-family="Helvetica,sans-Serif" font-size="10.00" fill="#000000">&lt; UIEvents &gt; &gt;</text>
<polyline fill="none" stroke="#000000" points="165.5,-1007.5 324.5,-1007.5 "/>
<text text-anchor="start" x="173.5" y="-995.5" font-family="Helvetica,sans-Serif" font-size="10.00" fill="#000000">&#45; m_OnEvent</text>
<text text-anchor="start" x="173.5" y="-984.5" font-family="Helvetica,sans-Serif" font-size="10.00" fill="#000000">&#45; m_Semaphore</text>
<text text-anchor="start" x="173.5" y="-973.5" font-family="Helvetica,sans-Serif" font-size="10.00" fill="#000000">&#45; m_Queue</text>
<polyline fill="none" stroke="#000000" points="165.5,-966.5 324.5,-966.5 "/>
<text text-anchor="start" x="173.5" y="-954.5" font-family="Helvetica,sans-Serif" font-size="10.00" fill="#000000">+ push()</text>
<text text-anchor="start" x="173.5" y="-943.5" font-family="Helvetica,sans-Serif" font-size="10.00" fill="#000000">+ peek()</text>
<text text-anchor="start" x="173.5" y="-932.5" font-family="Helvetica,sans-Serif" font-size="10.00" fill="#000000">+ getEnumerable()</text>
<text text-anchor="start" x="173.5" y="-921.5" font-family="Helvetica,sans-Serif" font-size="10.00" fill="#000000">+ MessageQueue()</text>
<text text-anchor="start" x="173.5" y="-910.5" font-family="Helvetica,sans-Serif" font-size="10.00" fill="#000000">+ MessageQueue()</text>
<text text-anchor="start" x="173.5" y="-899.5" font-family="Helvetica,sans-Serif" font-size="10.00" fill="#000000">+ MessageQueue()</text>
<text text-anchor="start" x="173.5" y="-888.5" font-family="Helvetica,sans-Serif" font-size="10.00" fill="#000000">+ operator=()</text>
<text text-anchor="start" x="173.5" y="-877.5" font-family="Helvetica,sans-Serif" font-size="10.00" fill="#000000">+ operator=()</text>
<text text-anchor="start" x="173.5" y="-866.5" font-family="Helvetica,sans-Serif" font-size="10.00" fill="#000000">&#45; wakeCondition()</text>
</a>
</g>
</g>
<!-- Node17&#45;&gt;Node16 -->
<g id="edge6" class="edge">
<title>Node17&#45;&gt;Node16</title>
<path fill="none" stroke="#191970" d="M245,-849.3332C245,-839.4109 245,-829.9934 245,-821.7987"/>
<polygon fill="none" stroke="#191970" points="241.5001,-849.397 245,-859.397 248.5001,-849.3971 241.5001,-849.397"/>
</g>
<!-- Node18 -->
<g id="node8" class="node">
<title>Node18</title>
<g id="a_node8"><a xlink:href="classMessageQueue.html" target="_top" xlink:title="{MessageQueue\&lt; Event \&gt;\n|&#45; m_OnEvent\l&#45; m_Semaphore\l&#45; m_Queue\l|+ push()\l+ peek()\l+ getEnumerable()\l+ MessageQueue()\l+ operator=()\l+ MessageQueue()\l+ MessageQueue()\l+ operator=()\l&#45; wakeCondition()\l}">
<polygon fill="none" stroke="#000000" points="174.5,-1085.5 174.5,-1252.5 315.5,-1252.5 315.5,-1085.5 174.5,-1085.5"/>
<text text-anchor="middle" x="245" y="-1240.5" font-family="Helvetica,sans-Serif" font-size="10.00" fill="#000000">MessageQueue&lt; Event &gt;</text>
<polyline fill="none" stroke="#000000" points="174.5,-1233.5 315.5,-1233.5 "/>
<text text-anchor="start" x="182.5" y="-1221.5" font-family="Helvetica,sans-Serif" font-size="10.00" fill="#000000">&#45; m_OnEvent</text>
<text text-anchor="start" x="182.5" y="-1210.5" font-family="Helvetica,sans-Serif" font-size="10.00" fill="#000000">&#45; m_Semaphore</text>
<text text-anchor="start" x="182.5" y="-1199.5" font-family="Helvetica,sans-Serif" font-size="10.00" fill="#000000">&#45; m_Queue</text>
<polyline fill="none" stroke="#000000" points="174.5,-1192.5 315.5,-1192.5 "/>
<text text-anchor="start" x="182.5" y="-1180.5" font-family="Helvetica,sans-Serif" font-size="10.00" fill="#000000">+ push()</text>
<text text-anchor="start" x="182.5" y="-1169.5" font-family="Helvetica,sans-Serif" font-size="10.00" fill="#000000">+ peek()</text>
<text text-anchor="start" x="182.5" y="-1158.5" font-family="Helvetica,sans-Serif" font-size="10.00" fill="#000000">+ getEnumerable()</text>
<text text-anchor="start" x="182.5" y="-1147.5" font-family="Helvetica,sans-Serif" font-size="10.00" fill="#000000">+ MessageQueue()</text>
<text text-anchor="start" x="182.5" y="-1136.5" font-family="Helvetica,sans-Serif" font-size="10.00" fill="#000000">+ operator=()</text>
<text text-anchor="start" x="182.5" y="-1125.5" font-family="Helvetica,sans-Serif" font-size="10.00" fill="#000000">+ MessageQueue()</text>
<text text-anchor="start" x="182.5" y="-1114.5" font-family="Helvetica,sans-Serif" font-size="10.00" fill="#000000">+ MessageQueue()</text>
<text text-anchor="start" x="182.5" y="-1103.5" font-family="Helvetica,sans-Serif" font-size="10.00" fill="#000000">+ operator=()</text>
<text text-anchor="start" x="182.5" y="-1092.5" font-family="Helvetica,sans-Serif" font-size="10.00" fill="#000000">&#45; wakeCondition()</text>
</a>
</g>
</g>
<!-- Node18&#45;&gt;Node17 -->
<g id="edge7" class="edge">
<title>Node18&#45;&gt;Node17</title>
<path fill="none" stroke="#ffa500" d="M245,-1074.996C245,-1062.6056 245,-1049.9353 245,-1037.6296"/>
<polygon fill="#ffa500" stroke="#ffa500" points="241.5001,-1075.324 245,-1085.324 248.5001,-1075.324 241.5001,-1075.324"/>
<text text-anchor="middle" x="319.5" y="-1059" font-family="Helvetica,sans-Serif" font-size="10.00" fill="#000000"> &lt; VariantType&lt; UIEvents &gt; &gt;</text>
</g>
<!-- Node19&#45;&gt;Node15 -->
<g id="edge8" class="edge">
<title>Node19&#45;&gt;Node15</title>
<path fill="none" stroke="#ffa500" d="M153.4313,-671.3281C122.0577,-663.6256 92.4417,-653.4081 83,-641 73.2431,-628.1777 72.1231,-610.5498 73.816,-595.1041"/>
<polygon fill="#ffa500" stroke="#ffa500" points="152.667,-674.7438 163.2039,-673.6374 154.2769,-667.9314 152.667,-674.7438"/>
<text text-anchor="middle" x="182.5" y="-633" font-family="Helvetica,sans-Serif" font-size="10.00" fill="#000000"> &lt; VariantType&lt; ButtonNotifications &gt; &gt;</text>
</g>
<!-- Node19&#45;&gt;Node24 -->
<g id="edge17" class="edge">
<title>Node19&#45;&gt;Node24</title>
<path fill="none" stroke="#ffa500" d="M312.4929,-655.1657C330.9733,-646.5927 351.1181,-637.6259 370,-630 392.6769,-620.8414 399.6893,-622.0178 422,-612 433.0694,-607.0297 444.5779,-601.1677 455.5374,-595.2212"/>
<polygon fill="#ffa500" stroke="#ffa500" points="310.8611,-652.0649 303.2827,-659.4689 313.8242,-658.4068 310.8611,-652.0649"/>
<text text-anchor="middle" x="443" y="-633" font-family="Helvetica,sans-Serif" font-size="10.00" fill="#000000"> &lt; VariantType&lt; DataList &gt; &gt;</text>
</g>
<!-- Node20 -->
<g id="node10" class="node">
<title>Node20</title>
<g id="a_node10"><a xlink:href="classSubject.html" target="_top" xlink:title="Allows to notify Observers about events. ">
<polygon fill="none" stroke="#000000" points="237,-510.5 237,-611.5 413,-611.5 413,-510.5 237,-510.5"/>
<text text-anchor="middle" x="325" y="-599.5" font-family="Helvetica,sans-Serif" font-size="10.00" fill="#000000">Subject&lt; Data, DispatchPolicy &gt;</text>
<polyline fill="none" stroke="#000000" points="237,-592.5 413,-592.5 "/>
<text text-anchor="start" x="245" y="-580.5" font-family="Helvetica,sans-Serif" font-size="10.00" fill="#000000">&#45; m_Observers</text>
<polyline fill="none" stroke="#000000" points="237,-573.5 413,-573.5 "/>
<text text-anchor="start" x="245" y="-561.5" font-family="Helvetica,sans-Serif" font-size="10.00" fill="#000000">+ addObserver()</text>
<text text-anchor="start" x="245" y="-550.5" font-family="Helvetica,sans-Serif" font-size="10.00" fill="#000000"># Subject()</text>
<text text-anchor="start" x="245" y="-539.5" font-family="Helvetica,sans-Serif" font-size="10.00" fill="#000000"># notifyObservers()</text>
<text text-anchor="start" x="245" y="-528.5" font-family="Helvetica,sans-Serif" font-size="10.00" fill="#000000"># ~Subject()</text>
<text text-anchor="start" x="245" y="-517.5" font-family="Helvetica,sans-Serif" font-size="10.00" fill="#000000"># mustNotify()</text>
</a>
</g>
</g>
<!-- Node20&#45;&gt;Node14 -->
<g id="edge10" class="edge">
<title>Node20&#45;&gt;Node14</title>
<path fill="none" stroke="#ffa500" d="M227.2224,-528.046C187.6879,-513.9575 149.7167,-499.1304 143,-492 129.6998,-477.8806 121.1783,-459.0428 115.7192,-440.5493"/>
<polygon fill="#ffa500" stroke="#ffa500" points="226.1508,-531.3794 236.7455,-531.4158 228.4859,-524.7803 226.1508,-531.3794"/>
<text text-anchor="start" x="143" y="-484" font-family="Helvetica,sans-Serif" font-size="10.00" fill="#000000"> &lt; VariantType&lt; ButtonNotifications</text>
<text text-anchor="start" x="143" y="-473" font-family="Helvetica,sans-Serif" font-size="10.00" fill="#000000"> &gt;, UIMQDispatcher&lt; VariantType</text>
<text text-anchor="middle" x="231.5" y="-462" font-family="Helvetica,sans-Serif" font-size="10.00" fill="#000000">&lt; ButtonNotifications &gt; &gt; &gt;</text>
</g>
<!-- Node23 -->
<g id="node13" class="node">
<title>Node23</title>
<g id="a_node13"><a xlink:href="classSubject.html" target="_top" xlink:title="{Subject\&lt; VariantType\l\&lt; DataList \&gt;, UIMQDispatcher\l\&lt; VariantType\&lt; DataList \&gt; \&gt; \&gt;\n|&#45; m_Observers\l|+ addObserver()\l# Subject()\l# notifyObservers()\l# ~Subject()\l# mustNotify()\l}">
<polygon fill="none" stroke="#000000" points="309,-312 309,-435 479,-435 479,-312 309,-312"/>
<text text-anchor="start" x="317" y="-423" font-family="Helvetica,sans-Serif" font-size="10.00" fill="#000000">Subject&lt; VariantType</text>
<text text-anchor="start" x="317" y="-412" font-family="Helvetica,sans-Serif" font-size="10.00" fill="#000000">&lt; DataList &gt;, UIMQDispatcher</text>
<text text-anchor="middle" x="394" y="-401" font-family="Helvetica,sans-Serif" font-size="10.00" fill="#000000">&lt; VariantType&lt; DataList &gt; &gt; &gt;</text>
<polyline fill="none" stroke="#000000" points="309,-394 479,-394 "/>
<text text-anchor="start" x="317" y="-382" font-family="Helvetica,sans-Serif" font-size="10.00" fill="#000000">&#45; m_Observers</text>
<polyline fill="none" stroke="#000000" points="309,-375 479,-375 "/>
<text text-anchor="start" x="317" y="-363" font-family="Helvetica,sans-Serif" font-size="10.00" fill="#000000">+ addObserver()</text>
<text text-anchor="start" x="317" y="-352" font-family="Helvetica,sans-Serif" font-size="10.00" fill="#000000"># Subject()</text>
<text text-anchor="start" x="317" y="-341" font-family="Helvetica,sans-Serif" font-size="10.00" fill="#000000"># notifyObservers()</text>
<text text-anchor="start" x="317" y="-330" font-family="Helvetica,sans-Serif" font-size="10.00" fill="#000000"># ~Subject()</text>
<text text-anchor="start" x="317" y="-319" font-family="Helvetica,sans-Serif" font-size="10.00" fill="#000000"># mustNotify()</text>
</a>
</g>
</g>
<!-- Node20&#45;&gt;Node23 -->
<g id="edge18" class="edge">
<title>Node20&#45;&gt;Node23</title>
<path fill="none" stroke="#ffa500" d="M322.8913,-499.9185C323.9695,-486.1535 326.3624,-471.8284 331,-459 333.9462,-450.8503 337.9341,-442.8111 342.4819,-435.1166"/>
<polygon fill="#ffa500" stroke="#ffa500" points="319.3745,-500.1208 322.3076,-510.3015 326.3635,-500.5137 319.3745,-500.1208"/>
<text text-anchor="start" x="331" y="-484" font-family="Helvetica,sans-Serif" font-size="10.00" fill="#000000"> &lt; VariantType&lt; DataList</text>
<text text-anchor="start" x="331" y="-473" font-family="Helvetica,sans-Serif" font-size="10.00" fill="#000000"> &gt;, UIMQDispatcher&lt; VariantType</text>
<text text-anchor="middle" x="413.5" y="-462" font-family="Helvetica,sans-Serif" font-size="10.00" fill="#000000">&lt; DataList &gt; &gt; &gt;</text>
</g>
<!-- Node21 -->
<g id="node11" class="node">
<title>Node21</title>
<polygon fill="none" stroke="#bfbfbf" points="404.5,-659.5 404.5,-716.5 493.5,-716.5 493.5,-659.5 404.5,-659.5"/>
<text text-anchor="middle" x="449" y="-704.5" font-family="Helvetica,sans-Serif" font-size="10.00" fill="#000000">DispatchPolicy</text>
<polyline fill="none" stroke="#bfbfbf" points="404.5,-697.5 493.5,-697.5 "/>
<text text-anchor="middle" x="449" y="-685.5" font-family="Helvetica,sans-Serif" font-size="10.00" fill="#000000"> </text>
<polyline fill="none" stroke="#bfbfbf" points="404.5,-678.5 493.5,-678.5 "/>
<text text-anchor="middle" x="449" y="-666.5" font-family="Helvetica,sans-Serif" font-size="10.00" fill="#000000"> </text>
</g>
<!-- Node21&#45;&gt;Node20 -->
<g id="edge11" class="edge">
<title>Node21&#45;&gt;Node20</title>
<path fill="none" stroke="#8b1a1a" d="M456.2649,-648.9176C455.8815,-642.2719 454.3705,-635.6885 451,-630 449.5618,-627.5727 433.3938,-618.2384 413.0902,-607.184"/>
<polygon fill="none" stroke="#8b1a1a" points="452.7577,-649.2204 456.0444,-659.2926 459.7562,-649.3692 452.7577,-649.2204"/>
</g>
<!-- Node22&#45;&gt;Node12 -->
<g id="edge12" class="edge">
<title>Node22&#45;&gt;Node12</title>
<path fill="none" stroke="#ffa500" d="M267.5793,-203.7854C255.8332,-190.6647 242.7386,-176.0378 231.6549,-163.657"/>
<polygon fill="#ffa500" stroke="#ffa500" points="265.0363,-206.1922 274.3141,-211.3083 270.2517,-201.5232 265.0363,-206.1922"/>
<text text-anchor="middle" x="316" y="-185" font-family="Helvetica,sans-Serif" font-size="10.00" fill="#000000"> &lt; ButtonNotifications &gt;</text>
</g>
<!-- Node23&#45;&gt;Node22 -->
<g id="edge14" class="edge">
<title>Node23&#45;&gt;Node22</title>
<path fill="none" stroke="#191970" d="M344.6126,-303.3594C336.0015,-291.1299 327.4976,-279.0525 320.261,-268.7749"/>
<polygon fill="none" stroke="#191970" points="341.958,-305.6687 350.577,-311.8301 347.6815,-301.6386 341.958,-305.6687"/>
</g>
<!-- Node24&#45;&gt;Node23 -->
<g id="edge15" class="edge">
<title>Node24&#45;&gt;Node23</title>
<path fill="none" stroke="#8b1a1a" d="M512.3519,-516.7417C510.4266,-497.9211 505.9204,-476.3601 496,-459 491.1849,-450.5739 485.2043,-442.6113 478.5702,-435.1868"/>
<polygon fill="none" stroke="#8b1a1a" points="508.8764,-517.1876 513.1739,-526.8717 515.8535,-516.6213 508.8764,-517.1876"/>
</g>
</g>
</svg>
