<?xml version="1.0" encoding="UTF-8" standalone="no"?>
<!DOCTYPE svg PUBLIC "-//W3C//DTD SVG 1.1//EN"
 "http://www.w3.org/Graphics/SVG/1.1/DTD/svg11.dtd">
<!-- Generated by graphviz version 2.40.1 (20161225.0304)
 -->
<!-- Title: PixelBuffer::toSurface Pages: 1 -->
<svg width="423pt" height="104pt"
 viewBox="0.00 0.00 423.00 104.00" xmlns="http://www.w3.org/2000/svg" xmlns:xlink="http://www.w3.org/1999/xlink">
<g id="graph0" class="graph" transform="scale(1 1) rotate(0) translate(4 100)">
<title>PixelBuffer::toSurface</title>
<!-- Node69 -->
<g id="node1" class="node">
<title>Node69</title>
<polygon fill="#bfbfbf" stroke="#000000" points="0,-38.5 0,-57.5 122,-57.5 122,-38.5 0,-38.5"/>
<text text-anchor="middle" x="61" y="-45.5" font-family="Helvetica,sans-Serif" font-size="10.00" fill="#000000">PixelBuffer::toSurface</text>
</g>
<!-- Node70 -->
<g id="node2" class="node">
<title>Node70</title>
<g id="a_node2"><a xlink:href="classPixelBuffer.html#a14b14bfb06b1478467592f66a7bb5ca5" target="_top" xlink:title="Read&#45;only access to the bounds of the PixelBuffer. ">
<polygon fill="none" stroke="#000000" points="158,-76.5 158,-95.5 269,-95.5 269,-76.5 158,-76.5"/>
<text text-anchor="middle" x="213.5" y="-83.5" font-family="Helvetica,sans-Serif" font-size="10.00" fill="#000000">PixelBuffer::bounds</text>
</a>
</g>
</g>
<!-- Node69&#45;&gt;Node70 -->
<g id="edge1" class="edge">
<title>Node69&#45;&gt;Node70</title>
<path fill="none" stroke="#191970" d="M99.4822,-57.589C119.5156,-62.5809 144.2023,-68.7324 165.476,-74.0334"/>
<polygon fill="#191970" stroke="#191970" points="164.745,-77.4582 175.2945,-76.4799 166.4375,-70.6659 164.745,-77.4582"/>
</g>
<!-- Node71 -->
<g id="node3" class="node">
<title>Node71</title>
<g id="a_node3"><a xlink:href="classRectangle.html#a6d7591d194230afb71ac2efcb8fd782f" target="_top" xlink:title="Rectangle::width">
<polygon fill="none" stroke="#000000" points="164.5,-38.5 164.5,-57.5 262.5,-57.5 262.5,-38.5 164.5,-38.5"/>
<text text-anchor="middle" x="213.5" y="-45.5" font-family="Helvetica,sans-Serif" font-size="10.00" fill="#000000">Rectangle::width</text>
</a>
</g>
</g>
<!-- Node69&#45;&gt;Node71 -->
<g id="edge2" class="edge">
<title>Node69&#45;&gt;Node71</title>
<path fill="none" stroke="#191970" d="M122.1489,-48C132.5898,-48 143.4243,-48 153.8262,-48"/>
<polygon fill="#191970" stroke="#191970" points="154.0535,-51.5001 164.0535,-48 154.0534,-44.5001 154.0535,-51.5001"/>
</g>
<!-- Node73 -->
<g id="node5" class="node">
<title>Node73</title>
<g id="a_node5"><a xlink:href="classRectangle.html#a21cbebe8e941c0c92d7eba0f7badcb6a" target="_top" xlink:title="Rectangle::height">
<polygon fill="none" stroke="#000000" points="163,-.5 163,-19.5 264,-19.5 264,-.5 163,-.5"/>
<text text-anchor="middle" x="213.5" y="-7.5" font-family="Helvetica,sans-Serif" font-size="10.00" fill="#000000">Rectangle::height</text>
</a>
</g>
</g>
<!-- Node69&#45;&gt;Node73 -->
<g id="edge4" class="edge">
<title>Node69&#45;&gt;Node73</title>
<path fill="none" stroke="#191970" d="M99.4822,-38.411C119.5156,-33.4191 144.2023,-27.2676 165.476,-21.9666"/>
<polygon fill="#191970" stroke="#191970" points="166.4375,-25.3341 175.2945,-19.5201 164.745,-18.5418 166.4375,-25.3341"/>
</g>
<!-- Node72 -->
<g id="node4" class="node">
<title>Node72</title>
<g id="a_node4"><a xlink:href="classRectangle.html#ace89ac3a7085543f3f60449fb5cdc8af" target="_top" xlink:title="Rectangle::isEmpty">
<polygon fill="none" stroke="#000000" points="305,-19.5 305,-38.5 415,-38.5 415,-19.5 305,-19.5"/>
<text text-anchor="middle" x="360" y="-26.5" font-family="Helvetica,sans-Serif" font-size="10.00" fill="#000000">Rectangle::isEmpty</text>
</a>
</g>
</g>
<!-- Node71&#45;&gt;Node72 -->
<g id="edge3" class="edge">
<title>Node71&#45;&gt;Node72</title>
<path fill="none" stroke="#191970" d="M262.6899,-41.6204C272.9578,-40.2888 283.9351,-38.8651 294.6821,-37.4713"/>
<polygon fill="#191970" stroke="#191970" points="295.4178,-40.9053 304.8845,-36.1481 294.5174,-33.9634 295.4178,-40.9053"/>
</g>
<!-- Node73&#45;&gt;Node72 -->
<g id="edge5" class="edge">
<title>Node73&#45;&gt;Node72</title>
<path fill="none" stroke="#191970" d="M264.3274,-16.592C274.1205,-17.862 284.5054,-19.2089 294.6835,-20.5289"/>
<polygon fill="#191970" stroke="#191970" points="294.3959,-24.0209 304.7631,-21.8362 295.2963,-17.079 294.3959,-24.0209"/>
</g>
</g>
</svg>
