<?xml version="1.0" encoding="UTF-8" standalone="no"?>
<!DOCTYPE svg PUBLIC "-//W3C//DTD SVG 1.1//EN"
 "http://www.w3.org/Graphics/SVG/1.1/DTD/svg11.dtd">
<!-- Generated by graphviz version 2.40.1 (20161225.0304)
 -->
<!-- Title: TransitiveModel&lt; Model &gt; Pages: 1 -->
<svg width="334pt" height="482pt"
 viewBox="0.00 0.00 333.50 482.00" xmlns="http://www.w3.org/2000/svg" xmlns:xlink="http://www.w3.org/1999/xlink">
<g id="graph0" class="graph" transform="scale(1 1) rotate(0) translate(4 478)">
<title>TransitiveModel&lt; Model &gt;</title>
<!-- Node0 -->
<g id="node1" class="node">
<title>Node0</title>
<polygon fill="#bfbfbf" stroke="#000000" points="0,-.5 0,-79.5 145,-79.5 145,-.5 0,-.5"/>
<text text-anchor="middle" x="72.5" y="-67.5" font-family="Helvetica,sans-Serif" font-size="10.00" fill="#000000">TransitiveModel&lt; Model &gt;</text>
<polyline fill="none" stroke="#000000" points="0,-60.5 145,-60.5 "/>
<text text-anchor="start" x="8" y="-48.5" font-family="Helvetica,sans-Serif" font-size="10.00" fill="#000000">&#45; m_Filters</text>
<polyline fill="none" stroke="#000000" points="0,-41.5 145,-41.5 "/>
<text text-anchor="start" x="8" y="-29.5" font-family="Helvetica,sans-Serif" font-size="10.00" fill="#000000">+ subscribe()</text>
<text text-anchor="start" x="8" y="-18.5" font-family="Helvetica,sans-Serif" font-size="10.00" fill="#000000"># TransitiveModel()</text>
<text text-anchor="start" x="8" y="-7.5" font-family="Helvetica,sans-Serif" font-size="10.00" fill="#000000">&#45; mustNotify()</text>
</g>
<!-- Node1 -->
<g id="node2" class="node">
<title>Node1</title>
<polygon fill="none" stroke="#bfbfbf" points="37.5,-145 37.5,-202 83.5,-202 83.5,-145 37.5,-145"/>
<text text-anchor="middle" x="60.5" y="-190" font-family="Helvetica,sans-Serif" font-size="10.00" fill="#000000">Model</text>
<polyline fill="none" stroke="#bfbfbf" points="37.5,-183 83.5,-183 "/>
<text text-anchor="middle" x="60.5" y="-171" font-family="Helvetica,sans-Serif" font-size="10.00" fill="#000000"> </text>
<polyline fill="none" stroke="#bfbfbf" points="37.5,-164 83.5,-164 "/>
<text text-anchor="middle" x="60.5" y="-152" font-family="Helvetica,sans-Serif" font-size="10.00" fill="#000000"> </text>
</g>
<!-- Node1&#45;&gt;Node0 -->
<g id="edge1" class="edge">
<title>Node1&#45;&gt;Node0</title>
<path fill="none" stroke="#006400" d="M63.9995,-134.5678C65.5494,-117.3253 67.3704,-97.0667 68.9285,-79.7324"/>
<polygon fill="none" stroke="#006400" points="60.4837,-134.5877 63.0743,-144.8609 67.4556,-135.2144 60.4837,-134.5877"/>
</g>
<!-- Node2 -->
<g id="node3" class="node">
<title>Node2</title>
<g id="a_node3"><a xlink:href="classSubject.html" target="_top" xlink:title="{Subject\&lt; Transition\l\&lt; Model \&gt; \&gt;\n|&#45; m_Observers\l|+ addObserver()\l# Subject()\l# notifyObservers()\l# ~Subject()\l# mustNotify()\l}">
<polygon fill="none" stroke="#000000" points="102,-117.5 102,-229.5 215,-229.5 215,-117.5 102,-117.5"/>
<text text-anchor="start" x="110" y="-217.5" font-family="Helvetica,sans-Serif" font-size="10.00" fill="#000000">Subject&lt; Transition</text>
<text text-anchor="middle" x="158.5" y="-206.5" font-family="Helvetica,sans-Serif" font-size="10.00" fill="#000000">&lt; Model &gt; &gt;</text>
<polyline fill="none" stroke="#000000" points="102,-199.5 215,-199.5 "/>
<text text-anchor="start" x="110" y="-187.5" font-family="Helvetica,sans-Serif" font-size="10.00" fill="#000000">&#45; m_Observers</text>
<polyline fill="none" stroke="#000000" points="102,-180.5 215,-180.5 "/>
<text text-anchor="start" x="110" y="-168.5" font-family="Helvetica,sans-Serif" font-size="10.00" fill="#000000">+ addObserver()</text>
<text text-anchor="start" x="110" y="-157.5" font-family="Helvetica,sans-Serif" font-size="10.00" fill="#000000"># Subject()</text>
<text text-anchor="start" x="110" y="-146.5" font-family="Helvetica,sans-Serif" font-size="10.00" fill="#000000"># notifyObservers()</text>
<text text-anchor="start" x="110" y="-135.5" font-family="Helvetica,sans-Serif" font-size="10.00" fill="#000000"># ~Subject()</text>
<text text-anchor="start" x="110" y="-124.5" font-family="Helvetica,sans-Serif" font-size="10.00" fill="#000000"># mustNotify()</text>
</a>
</g>
</g>
<!-- Node2&#45;&gt;Node0 -->
<g id="edge2" class="edge">
<title>Node2&#45;&gt;Node0</title>
<path fill="none" stroke="#191970" d="M116.6864,-108.5916C110.2977,-98.6743 103.874,-88.7027 97.9801,-79.5534"/>
<polygon fill="none" stroke="#191970" points="113.9196,-110.7597 122.2775,-117.2709 119.8043,-106.9688 113.9196,-110.7597"/>
</g>
<!-- Node3 -->
<g id="node4" class="node">
<title>Node3</title>
<polygon fill="none" stroke="#bfbfbf" points="89,-416.5 89,-473.5 178,-473.5 178,-416.5 89,-416.5"/>
<text text-anchor="middle" x="133.5" y="-461.5" font-family="Helvetica,sans-Serif" font-size="10.00" fill="#000000">DispatchPolicy</text>
<polyline fill="none" stroke="#bfbfbf" points="89,-454.5 178,-454.5 "/>
<text text-anchor="middle" x="133.5" y="-442.5" font-family="Helvetica,sans-Serif" font-size="10.00" fill="#000000"> </text>
<polyline fill="none" stroke="#bfbfbf" points="89,-435.5 178,-435.5 "/>
<text text-anchor="middle" x="133.5" y="-423.5" font-family="Helvetica,sans-Serif" font-size="10.00" fill="#000000"> </text>
</g>
<!-- Node3&#45;&gt;Node2 -->
<g id="edge3" class="edge">
<title>Node3&#45;&gt;Node2</title>
<path fill="none" stroke="#8b1a1a" d="M133.6803,-406.3602C134.1798,-372.2404 135.7572,-321.191 140.5,-277 142.1543,-261.5858 144.6945,-244.9973 147.3499,-229.7136"/>
<polygon fill="none" stroke="#8b1a1a" points="130.1804,-406.337 133.5576,-416.3792 137.1799,-406.4228 130.1804,-406.337"/>
</g>
<!-- Node4 -->
<g id="node5" class="node">
<title>Node4</title>
<g id="a_node5"><a xlink:href="classSubject.html" target="_top" xlink:title="Allows to notify Observers about events. ">
<polygon fill="none" stroke="#000000" points="149.5,-277.5 149.5,-378.5 325.5,-378.5 325.5,-277.5 149.5,-277.5"/>
<text text-anchor="middle" x="237.5" y="-366.5" font-family="Helvetica,sans-Serif" font-size="10.00" fill="#000000">Subject&lt; Data, DispatchPolicy &gt;</text>
<polyline fill="none" stroke="#000000" points="149.5,-359.5 325.5,-359.5 "/>
<text text-anchor="start" x="157.5" y="-347.5" font-family="Helvetica,sans-Serif" font-size="10.00" fill="#000000">&#45; m_Observers</text>
<polyline fill="none" stroke="#000000" points="149.5,-340.5 325.5,-340.5 "/>
<text text-anchor="start" x="157.5" y="-328.5" font-family="Helvetica,sans-Serif" font-size="10.00" fill="#000000">+ addObserver()</text>
<text text-anchor="start" x="157.5" y="-317.5" font-family="Helvetica,sans-Serif" font-size="10.00" fill="#000000"># Subject()</text>
<text text-anchor="start" x="157.5" y="-306.5" font-family="Helvetica,sans-Serif" font-size="10.00" fill="#000000"># notifyObservers()</text>
<text text-anchor="start" x="157.5" y="-295.5" font-family="Helvetica,sans-Serif" font-size="10.00" fill="#000000"># ~Subject()</text>
<text text-anchor="start" x="157.5" y="-284.5" font-family="Helvetica,sans-Serif" font-size="10.00" fill="#000000"># mustNotify()</text>
</a>
</g>
</g>
<!-- Node3&#45;&gt;Node4 -->
<g id="edge5" class="edge">
<title>Node3&#45;&gt;Node4</title>
<path fill="none" stroke="#8b1a1a" d="M165.8096,-408.6517C174.2417,-399.1656 183.4842,-388.7677 192.4465,-378.6852"/>
<polygon fill="none" stroke="#8b1a1a" points="162.969,-406.5792 158.9413,-416.3786 168.2009,-411.2297 162.969,-406.5792"/>
</g>
<!-- Node4&#45;&gt;Node2 -->
<g id="edge4" class="edge">
<title>Node4&#45;&gt;Node2</title>
<path fill="none" stroke="#ffa500" d="M206.9622,-268.2774C200.4503,-255.5421 193.5953,-242.1358 187.157,-229.5443"/>
<polygon fill="#ffa500" stroke="#ffa500" points="203.9635,-270.1008 211.6324,-277.4109 210.196,-266.9139 203.9635,-270.1008"/>
<text text-anchor="middle" x="262" y="-251" font-family="Helvetica,sans-Serif" font-size="10.00" fill="#000000"> &lt; Transition&lt; Model &gt; &gt;</text>
</g>
</g>
</svg>
