<?xml version="1.0" encoding="UTF-8" standalone="no"?>
<!DOCTYPE svg PUBLIC "-//W3C//DTD SVG 1.1//EN"
 "http://www.w3.org/Graphics/SVG/1.1/DTD/svg11.dtd">
<!-- Generated by graphviz version 2.40.1 (20161225.0304)
 -->
<!-- Title: Window::getBounds Pages: 1 -->
<svg width="1373pt" height="407pt"
 viewBox="0.00 0.00 1373.00 407.00" xmlns="http://www.w3.org/2000/svg" xmlns:xlink="http://www.w3.org/1999/xlink">
<g id="graph0" class="graph" transform="scale(1 1) rotate(0) translate(4 403)">
<title>Window::getBounds</title>
<!-- Node19 -->
<g id="node1" class="node">
<title>Node19</title>
<polygon fill="#bfbfbf" stroke="#000000" points="0,-221.5 0,-240.5 113,-240.5 113,-221.5 0,-221.5"/>
<text text-anchor="middle" x="56.5" y="-228.5" font-family="Helvetica,sans-Serif" font-size="10.00" fill="#000000">Window::getBounds</text>
</g>
<!-- Node20 -->
<g id="node2" class="node">
<title>Node20</title>
<g id="a_node2"><a xlink:href="classCamera.html#adfb240823ff20b97b69459490dbd8dc3" target="_top" xlink:title="Centers camera on given isometric coordinates. ">
<polygon fill="none" stroke="#000000" points="150,-164.5 150,-183.5 313,-183.5 313,-164.5 150,-164.5"/>
<text text-anchor="middle" x="231.5" y="-171.5" font-family="Helvetica,sans-Serif" font-size="10.00" fill="#000000">Camera::centerScreenOnPoint</text>
</a>
</g>
</g>
<!-- Node19&#45;&gt;Node20 -->
<g id="edge1" class="edge">
<title>Node19&#45;&gt;Node20</title>
<path fill="none" stroke="#191970" d="M95.3555,-218.3442C127.6144,-207.837 172.8033,-193.1184 202.1134,-183.5716"/>
<polygon fill="#191970" stroke="#191970" points="94.2154,-215.0345 85.7911,-221.4595 96.3834,-221.6903 94.2154,-215.0345"/>
</g>
<!-- Node23 -->
<g id="node5" class="node">
<title>Node23</title>
<g id="a_node5"><a xlink:href="classEventManager.html#a65ec91fd5016d4f9c4167fb8babed2df" target="_top" xlink:title="EventManager::checkEvents">
<polygon fill="none" stroke="#000000" points="762,-164.5 762,-183.5 916,-183.5 916,-164.5 762,-164.5"/>
<text text-anchor="middle" x="839" y="-171.5" font-family="Helvetica,sans-Serif" font-size="10.00" fill="#000000">EventManager::checkEvents</text>
</a>
</g>
</g>
<!-- Node19&#45;&gt;Node23 -->
<g id="edge15" class="edge">
<title>Node19&#45;&gt;Node23</title>
<path fill="none" stroke="#191970" d="M123.5695,-237.3173C245.2169,-247.0125 509.6769,-259.9674 726,-214 758.7738,-207.0358 795.0184,-193.0103 817.4054,-183.5598"/>
<polygon fill="#191970" stroke="#191970" points="123.5533,-233.8044 113.3017,-236.4794 122.9839,-240.7812 123.5533,-233.8044"/>
</g>
<!-- Node29 -->
<g id="node11" class="node">
<title>Node29</title>
<g id="a_node11"><a xlink:href="classMap.html#af654ddecf0d25b836d7c9c27ee5c2150" target="_top" xlink:title="Map\&lt; ObserverSPtr\&lt;\l Notification \&gt;, Set\l\&lt; typename Notification\l::TransitionType \&gt; \&gt;::calculate\lVisibleMap">
<polygon fill="none" stroke="#000000" points="149,-259.5 149,-322.5 314,-322.5 314,-259.5 149,-259.5"/>
<text text-anchor="start" x="157" y="-310.5" font-family="Helvetica,sans-Serif" font-size="10.00" fill="#000000">Map&lt; ObserverSPtr&lt;</text>
<text text-anchor="start" x="157" y="-299.5" font-family="Helvetica,sans-Serif" font-size="10.00" fill="#000000"> Notification &gt;, Set</text>
<text text-anchor="start" x="157" y="-288.5" font-family="Helvetica,sans-Serif" font-size="10.00" fill="#000000">&lt; typename Notification</text>
<text text-anchor="start" x="157" y="-277.5" font-family="Helvetica,sans-Serif" font-size="10.00" fill="#000000">::TransitionType &gt; &gt;::calculate</text>
<text text-anchor="middle" x="231.5" y="-266.5" font-family="Helvetica,sans-Serif" font-size="10.00" fill="#000000">VisibleMap</text>
</a>
</g>
</g>
<!-- Node19&#45;&gt;Node29 -->
<g id="edge16" class="edge">
<title>Node19&#45;&gt;Node29</title>
<path fill="none" stroke="#191970" d="M93.7843,-243.7832C109.8966,-249.3074 129.4431,-256.009 148.6864,-262.6068"/>
<polygon fill="#191970" stroke="#191970" points="94.8239,-240.4397 84.2293,-240.5072 92.5536,-247.0613 94.8239,-240.4397"/>
</g>
<!-- Node30 -->
<g id="node12" class="node">
<title>Node30</title>
<g id="a_node12"><a xlink:href="classLayout.html#afa734c5af10f59f3dadb066054fe81ab" target="_top" xlink:title="Arrange the layout elements. ">
<polygon fill="none" stroke="#000000" points="360.5,-341.5 360.5,-360.5 499.5,-360.5 499.5,-341.5 360.5,-341.5"/>
<text text-anchor="middle" x="430" y="-348.5" font-family="Helvetica,sans-Serif" font-size="10.00" fill="#000000">Layout::arrangeElements</text>
</a>
</g>
</g>
<!-- Node19&#45;&gt;Node30 -->
<g id="edge17" class="edge">
<title>Node19&#45;&gt;Node30</title>
<path fill="none" stroke="#191970" d="M67.1845,-249.5577C82.0793,-273.4325 111.5243,-313.9708 149,-332 215.4238,-363.9558 301.0589,-364.8647 360.246,-360.2105"/>
<polygon fill="#191970" stroke="#191970" points="70.0315,-247.5009 61.8736,-240.7408 64.0353,-251.1128 70.0315,-247.5009"/>
</g>
<!-- Node34 -->
<g id="node16" class="node">
<title>Node34</title>
<g id="a_node16"><a xlink:href="classLayout.html#a99004e4afcea6a945e3890b19cce6236" target="_top" xlink:title="Arrange Elements that are aligned to a parent This is a seperate function, so it can recurse if a par...">
<polygon fill="none" stroke="#000000" points="149.5,-379.5 149.5,-398.5 313.5,-398.5 313.5,-379.5 149.5,-379.5"/>
<text text-anchor="middle" x="231.5" y="-386.5" font-family="Helvetica,sans-Serif" font-size="10.00" fill="#000000">Layout::arrangeChildElements</text>
</a>
</g>
</g>
<!-- Node19&#45;&gt;Node34 -->
<g id="edge23" class="edge">
<title>Node19&#45;&gt;Node34</title>
<path fill="none" stroke="#191970" d="M64.6321,-250.2942C77.9389,-279.5228 107.1403,-334.8082 149,-365 157.7107,-371.2827 168.0475,-375.9298 178.4067,-379.3644"/>
<polygon fill="#191970" stroke="#191970" points="67.6855,-248.5432 60.4547,-240.7994 61.2782,-251.3622 67.6855,-248.5432"/>
</g>
<!-- Node35 -->
<g id="node17" class="node">
<title>Node35</title>
<g id="a_node17"><a xlink:href="classGame.html#a560299f0291c281f7b44e7ef0dd7b264" target="_top" xlink:title="initializes and displays the main menu initializes and displays the main menu ">
<polygon fill="none" stroke="#000000" points="952,-47.5 952,-66.5 1055,-66.5 1055,-47.5 952,-47.5"/>
<text text-anchor="middle" x="1003.5" y="-54.5" font-family="Helvetica,sans-Serif" font-size="10.00" fill="#000000">Game::mainMenu</text>
</a>
</g>
</g>
<!-- Node19&#45;&gt;Node35 -->
<g id="edge25" class="edge">
<title>Node19&#45;&gt;Node35</title>
<path fill="none" stroke="#191970" d="M73.2061,-214.4012C90.826,-197.62 120.0042,-171.8263 149,-155 264.5848,-87.9261 296.3633,-48 430,-48 430,-48 430,-48 636,-48 748.6444,-48 880.6523,-52.2781 951.7782,-54.9352"/>
<polygon fill="#191970" stroke="#191970" points="70.7147,-211.9416 65.9659,-221.4127 75.5844,-216.9702 70.7147,-211.9416"/>
</g>
<!-- Node36 -->
<g id="node18" class="node">
<title>Node36</title>
<g id="a_node18"><a xlink:href="classWindow.html#a4a637096ca9a98886dfd8adda5ff33f6" target="_top" xlink:title="Window::handleEvent">
<polygon fill="none" stroke="#000000" points="170.5,-.5 170.5,-19.5 292.5,-19.5 292.5,-.5 170.5,-.5"/>
<text text-anchor="middle" x="231.5" y="-7.5" font-family="Helvetica,sans-Serif" font-size="10.00" fill="#000000">Window::handleEvent</text>
</a>
</g>
</g>
<!-- Node19&#45;&gt;Node36 -->
<g id="edge27" class="edge">
<title>Node19&#45;&gt;Node36</title>
<path fill="none" stroke="#191970" d="M60.19,-211.048C68.5961,-171.2973 92.9478,-81.9308 149,-34 156.369,-27.6987 165.3146,-23.05 174.5611,-19.621"/>
<polygon fill="#191970" stroke="#191970" points="56.7136,-210.5841 58.19,-221.0756 63.5784,-211.9533 56.7136,-210.5841"/>
</g>
<!-- Node21 -->
<g id="node3" class="node">
<title>Node21</title>
<g id="a_node3"><a xlink:href="classCamera.html#a0a8ee04ccb4f4cc9af52a964cf225f66" target="_top" xlink:title="Increases the zoom level of the camera. ">
<polygon fill="none" stroke="#000000" points="351.5,-202.5 351.5,-221.5 508.5,-221.5 508.5,-202.5 351.5,-202.5"/>
<text text-anchor="middle" x="430" y="-209.5" font-family="Helvetica,sans-Serif" font-size="10.00" fill="#000000">Camera::increaseZoomLevel</text>
</a>
</g>
</g>
<!-- Node20&#45;&gt;Node21 -->
<g id="edge2" class="edge">
<title>Node20&#45;&gt;Node21</title>
<path fill="none" stroke="#191970" d="M291.517,-185.4894C319.8396,-190.9114 353.2423,-197.3058 380.1458,-202.4561"/>
<polygon fill="#191970" stroke="#191970" points="291.8135,-181.9827 281.3337,-183.54 290.4973,-188.8578 291.8135,-181.9827"/>
</g>
<!-- Node22 -->
<g id="node4" class="node">
<title>Node22</title>
<g id="a_node4"><a xlink:href="classCamera.html#a1f8ecd427814c5a4970223c2d13b9310" target="_top" xlink:title="Sets the pinch distance for Android. ">
<polygon fill="none" stroke="#000000" points="563.5,-164.5 563.5,-183.5 708.5,-183.5 708.5,-164.5 563.5,-164.5"/>
<text text-anchor="middle" x="636" y="-171.5" font-family="Helvetica,sans-Serif" font-size="10.00" fill="#000000">Camera::setPinchDistance</text>
</a>
</g>
</g>
<!-- Node20&#45;&gt;Node22 -->
<g id="edge12" class="edge">
<title>Node20&#45;&gt;Node22</title>
<path fill="none" stroke="#191970" d="M323.4288,-174C396.1441,-174 496.2734,-174 563.4245,-174"/>
<polygon fill="#191970" stroke="#191970" points="323.3566,-170.5001 313.3566,-174 323.3566,-177.5001 323.3566,-170.5001"/>
</g>
<!-- Node27 -->
<g id="node9" class="node">
<title>Node27</title>
<g id="a_node9"><a xlink:href="classCamera.html#aeea39f352d5873495dea6f376cf3207e" target="_top" xlink:title="Decreases the zoom level of the camera. ">
<polygon fill="none" stroke="#000000" points="350,-126.5 350,-145.5 510,-145.5 510,-126.5 350,-126.5"/>
<text text-anchor="middle" x="430" y="-133.5" font-family="Helvetica,sans-Serif" font-size="10.00" fill="#000000">Camera::decreaseZoomLevel</text>
</a>
</g>
</g>
<!-- Node20&#45;&gt;Node27 -->
<g id="edge9" class="edge">
<title>Node20&#45;&gt;Node27</title>
<path fill="none" stroke="#191970" d="M291.517,-162.5106C319.8396,-157.0886 353.2423,-150.6942 380.1458,-145.5439"/>
<polygon fill="#191970" stroke="#191970" points="290.4973,-159.1422 281.3337,-164.46 291.8135,-166.0173 290.4973,-159.1422"/>
</g>
<!-- Node28 -->
<g id="node10" class="node">
<title>Node28</title>
<g id="a_node10"><a xlink:href="classCamera.html#af29da768f8948f3afbf0a9b43530eb1d" target="_top" xlink:title="Centers camera on the middle of the map. ">
<polygon fill="none" stroke="#000000" points="557,-77 557,-107 715,-107 715,-77 557,-77"/>
<text text-anchor="start" x="565" y="-95" font-family="Helvetica,sans-Serif" font-size="10.00" fill="#000000">Camera::centerScreenOnMap</text>
<text text-anchor="middle" x="636" y="-84" font-family="Helvetica,sans-Serif" font-size="10.00" fill="#000000">Center</text>
</a>
</g>
</g>
<!-- Node20&#45;&gt;Node28 -->
<g id="edge13" class="edge">
<title>Node20&#45;&gt;Node28</title>
<path fill="none" stroke="#191970" d="M255.6981,-159.1311C278.9565,-145.6368 315.5575,-126.4495 350,-117 418.2536,-98.2742 498.7844,-92.6304 556.9721,-91.3173"/>
<polygon fill="#191970" stroke="#191970" points="253.7101,-156.2405 246.885,-164.3442 257.2739,-162.2654 253.7101,-156.2405"/>
</g>
<!-- Node21&#45;&gt;Node22 -->
<g id="edge3" class="edge">
<title>Node21&#45;&gt;Node22</title>
<path fill="none" stroke="#191970" d="M491.8982,-200.5819C521.3731,-195.1448 556.2197,-188.7168 584.2621,-183.5439"/>
<polygon fill="#191970" stroke="#191970" points="490.9157,-197.204 481.7166,-202.46 492.1856,-204.0878 490.9157,-197.204"/>
</g>
<!-- Node21&#45;&gt;Node23 -->
<g id="edge8" class="edge">
<title>Node21&#45;&gt;Node23</title>
<path fill="none" stroke="#191970" d="M518.7382,-208.681C577.6463,-205.8935 656.6105,-201.0392 726,-193 746.7493,-190.5961 769.4875,-186.9678 789.0924,-183.5239"/>
<polygon fill="#191970" stroke="#191970" points="518.5492,-205.1859 508.7216,-209.1442 518.8726,-212.1784 518.5492,-205.1859"/>
</g>
<!-- Node22&#45;&gt;Node23 -->
<g id="edge4" class="edge">
<title>Node22&#45;&gt;Node23</title>
<path fill="none" stroke="#191970" d="M718.969,-174C733.1972,-174 747.9282,-174 761.9921,-174"/>
<polygon fill="#191970" stroke="#191970" points="718.7143,-170.5001 708.7143,-174 718.7142,-177.5001 718.7143,-170.5001"/>
</g>
<!-- Node24 -->
<g id="node6" class="node">
<title>Node24</title>
<g id="a_node6"><a xlink:href="classGame.html#a1c2ab25d5216b2f4b2fe41efd2c09114" target="_top" xlink:title="begins the game starts running the game ">
<polygon fill="none" stroke="#000000" points="1091,-146.5 1091,-165.5 1159,-165.5 1159,-146.5 1091,-146.5"/>
<text text-anchor="middle" x="1125" y="-153.5" font-family="Helvetica,sans-Serif" font-size="10.00" fill="#000000">Game::run</text>
</a>
</g>
</g>
<!-- Node23&#45;&gt;Node24 -->
<g id="edge5" class="edge">
<title>Node23&#45;&gt;Node24</title>
<path fill="none" stroke="#191970" d="M926.1973,-168.5121C981.586,-165.0261 1050.2222,-160.7063 1090.6483,-158.162"/>
<polygon fill="#191970" stroke="#191970" points="925.7794,-165.0313 916.019,-169.1527 926.2191,-172.0175 925.7794,-165.0313"/>
</g>
<!-- Node25 -->
<g id="node7" class="node">
<title>Node25</title>
<g id="a_node7"><a xlink:href="main_8cxx.html#af582d708d899e67ead623eac34a22387" target="_top" xlink:title="protected_main">
<polygon fill="none" stroke="#000000" points="1195,-107.5 1195,-126.5 1288,-126.5 1288,-107.5 1195,-107.5"/>
<text text-anchor="middle" x="1241.5" y="-114.5" font-family="Helvetica,sans-Serif" font-size="10.00" fill="#000000">protected_main</text>
</a>
</g>
</g>
<!-- Node24&#45;&gt;Node25 -->
<g id="edge6" class="edge">
<title>Node24&#45;&gt;Node25</title>
<path fill="none" stroke="#191970" d="M1163.2168,-143.2064C1179.3962,-137.7901 1197.9236,-131.5878 1212.8913,-126.5771"/>
<polygon fill="#191970" stroke="#191970" points="1161.8708,-139.966 1153.4991,-146.4595 1164.093,-146.6039 1161.8708,-139.966"/>
</g>
<!-- Node26 -->
<g id="node8" class="node">
<title>Node26</title>
<g id="a_node8"><a xlink:href="main_8cxx.html#a3c04138a5bfe5d72780bb7e82a18e627" target="_top" xlink:title="main">
<polygon fill="none" stroke="#000000" points="1324,-107.5 1324,-126.5 1365,-126.5 1365,-107.5 1324,-107.5"/>
<text text-anchor="middle" x="1344.5" y="-114.5" font-family="Helvetica,sans-Serif" font-size="10.00" fill="#000000">main</text>
</a>
</g>
</g>
<!-- Node25&#45;&gt;Node26 -->
<g id="edge7" class="edge">
<title>Node25&#45;&gt;Node26</title>
<path fill="none" stroke="#191970" d="M1298.2133,-117C1307.4322,-117 1316.4259,-117 1323.9965,-117"/>
<polygon fill="#191970" stroke="#191970" points="1298.1782,-113.5001 1288.1782,-117 1298.1781,-120.5001 1298.1782,-113.5001"/>
</g>
<!-- Node27&#45;&gt;Node22 -->
<g id="edge10" class="edge">
<title>Node27&#45;&gt;Node22</title>
<path fill="none" stroke="#191970" d="M491.8982,-147.4181C521.3731,-152.8552 556.2197,-159.2832 584.2621,-164.4561"/>
<polygon fill="#191970" stroke="#191970" points="492.1856,-143.9122 481.7166,-145.54 490.9157,-150.796 492.1856,-143.9122"/>
</g>
<!-- Node27&#45;&gt;Node23 -->
<g id="edge11" class="edge">
<title>Node27&#45;&gt;Node23</title>
<path fill="none" stroke="#191970" d="M520.2821,-139.3924C579.0213,-142.1913 657.2149,-147.0308 726,-155 746.7493,-157.4039 769.4875,-161.0322 789.0924,-164.4761"/>
<polygon fill="#191970" stroke="#191970" points="520.4407,-135.896 510.2887,-138.9269 520.1149,-142.8885 520.4407,-135.896"/>
</g>
<!-- Node28&#45;&gt;Node24 -->
<g id="edge14" class="edge">
<title>Node28&#45;&gt;Node24</title>
<path fill="none" stroke="#191970" d="M725.1732,-103.6709C834.9059,-118.0327 1015.8783,-141.7182 1090.8414,-151.5293"/>
<polygon fill="#191970" stroke="#191970" points="725.4795,-100.1812 715.1098,-102.3538 724.571,-107.1221 725.4795,-100.1812"/>
</g>
<!-- Node31 -->
<g id="node13" class="node">
<title>Node31</title>
<g id="a_node13"><a xlink:href="classUIManager.html#aedd9d0577af515a852425dfe414b2968" target="_top" xlink:title="Parses the UiLayout.json files and creates UI Elements. ">
<polygon fill="none" stroke="#000000" points="958,-297.5 958,-316.5 1049,-316.5 1049,-297.5 958,-297.5"/>
<text text-anchor="middle" x="1003.5" y="-304.5" font-family="Helvetica,sans-Serif" font-size="10.00" fill="#000000">UIManager::init</text>
</a>
</g>
</g>
<!-- Node30&#45;&gt;Node31 -->
<g id="edge18" class="edge">
<title>Node30&#45;&gt;Node31</title>
<path fill="none" stroke="#191970" d="M490.8709,-339.764C508.594,-336.8364 528.0235,-333.9576 546,-332 696.2483,-315.6382 875.4821,-309.7924 957.913,-307.8657"/>
<polygon fill="#191970" stroke="#191970" points="489.9354,-336.3723 480.6569,-341.4869 491.0998,-343.2748 489.9354,-336.3723"/>
</g>
<!-- Node32 -->
<g id="node14" class="node">
<title>Node32</title>
<g id="a_node14"><a xlink:href="classUIManager.html#a3ccb2fc669262f18ebdcdf3d5c43a3e8" target="_top" xlink:title="CallbackFunction that sets the Build Menu Position Used as callback function for the ComboBox that ho...">
<polygon fill="none" stroke="#000000" points="546,-341.5 546,-360.5 726,-360.5 726,-341.5 546,-341.5"/>
<text text-anchor="middle" x="636" y="-348.5" font-family="Helvetica,sans-Serif" font-size="10.00" fill="#000000">UIManager::setBuildMenuPosition</text>
</a>
</g>
</g>
<!-- Node30&#45;&gt;Node32 -->
<g id="edge20" class="edge">
<title>Node30&#45;&gt;Node32</title>
<path fill="none" stroke="#191970" d="M509.9598,-351C521.7294,-351 533.9221,-351 545.8795,-351"/>
<polygon fill="#191970" stroke="#191970" points="509.7422,-347.5001 499.7422,-351 509.7422,-354.5001 509.7422,-347.5001"/>
</g>
<!-- Node31&#45;&gt;Node24 -->
<g id="edge19" class="edge">
<title>Node31&#45;&gt;Node24</title>
<path fill="none" stroke="#191970" d="M1017.9891,-288.993C1043.8513,-256.8515 1097.1268,-190.6408 1117.1566,-165.7477"/>
<polygon fill="#191970" stroke="#191970" points="1015.0141,-287.1073 1011.472,-297.0925 1020.4678,-291.4956 1015.0141,-287.1073"/>
</g>
<!-- Node33 -->
<g id="node15" class="node">
<title>Node33</title>
<g id="a_node15"><a xlink:href="classUIManager.html#a5c4cb8e02504ffa0d3faf45181feab9d" target="_top" xlink:title="Fill UI Widgets whose ID start with a $ with data Used for filling widgets with data, like BuildMenu Position combobox, Screen Resolution ComboBox and so on. ">
<polygon fill="none" stroke="#000000" points="766,-336 766,-366 912,-366 912,-336 766,-336"/>
<text text-anchor="start" x="774" y="-354" font-family="Helvetica,sans-Serif" font-size="10.00" fill="#000000">UIManager::initializeDollar</text>
<text text-anchor="middle" x="839" y="-343" font-family="Helvetica,sans-Serif" font-size="10.00" fill="#000000">Variables</text>
</a>
</g>
</g>
<!-- Node32&#45;&gt;Node33 -->
<g id="edge21" class="edge">
<title>Node32&#45;&gt;Node33</title>
<path fill="none" stroke="#191970" d="M736.4944,-351C746.3723,-351 756.2629,-351 765.7919,-351"/>
<polygon fill="#191970" stroke="#191970" points="736.221,-347.5001 726.2209,-351 736.2209,-354.5001 736.221,-347.5001"/>
</g>
<!-- Node33&#45;&gt;Node31 -->
<g id="edge22" class="edge">
<title>Node33&#45;&gt;Node31</title>
<path fill="none" stroke="#191970" d="M904.8724,-333.3806C926.3149,-327.6453 949.305,-321.4959 967.6903,-316.5783"/>
<polygon fill="#191970" stroke="#191970" points="903.9075,-330.0156 895.1515,-335.9808 905.7163,-336.7779 903.9075,-330.0156"/>
</g>
<!-- Node34&#45;&gt;Node30 -->
<g id="edge24" class="edge">
<title>Node34&#45;&gt;Node30</title>
<path fill="none" stroke="#191970" d="M291.517,-377.5106C319.8396,-372.0886 353.2423,-365.6942 380.1458,-360.5439"/>
<polygon fill="#191970" stroke="#191970" points="290.4973,-374.1422 281.3337,-379.46 291.8135,-381.0173 290.4973,-374.1422"/>
</g>
<!-- Node35&#45;&gt;Node25 -->
<g id="edge26" class="edge">
<title>Node35&#45;&gt;Node25</title>
<path fill="none" stroke="#191970" d="M1050.9941,-68.9733C1095.8245,-80.2751 1162.1743,-97.0019 1203.5713,-107.4382"/>
<polygon fill="#191970" stroke="#191970" points="1051.764,-65.558 1041.2118,-66.5072 1050.0528,-72.3456 1051.764,-65.558"/>
</g>
</g>
</svg>
