<?xml version="1.0" encoding="UTF-8" standalone="no"?>
<!DOCTYPE svg PUBLIC "-//W3C//DTD SVG 1.1//EN"
 "http://www.w3.org/Graphics/SVG/1.1/DTD/svg11.dtd">
<!-- Generated by graphviz version 2.40.1 (20161225.0304)
 -->
<!-- Title: Sprite::getActiveDestRect Pages: 1 -->
<svg width="873pt" height="159pt"
 viewBox="0.00 0.00 873.00 158.50" xmlns="http://www.w3.org/2000/svg" xmlns:xlink="http://www.w3.org/1999/xlink">
<g id="graph0" class="graph" transform="scale(1 1) rotate(0) translate(4 154.5)">
<title>Sprite::getActiveDestRect</title>
<!-- Node21 -->
<g id="node1" class="node">
<title>Node21</title>
<polygon fill="#bfbfbf" stroke="#000000" points="0,-38.5 0,-57.5 141,-57.5 141,-38.5 0,-38.5"/>
<text text-anchor="middle" x="70.5" y="-45.5" font-family="Helvetica,sans-Serif" font-size="10.00" fill="#000000">Sprite::getActiveDestRect</text>
</g>
<!-- Node22 -->
<g id="node2" class="node">
<title>Node22</title>
<g id="a_node2"><a xlink:href="classMapLayers.html#a1d810628821913c499b8348107b66891" target="_top" xlink:title="Check if given Layer is being drawn. ">
<polygon fill="none" stroke="#000000" points="177,-38.5 177,-57.5 318,-57.5 318,-38.5 177,-38.5"/>
<text text-anchor="middle" x="247.5" y="-45.5" font-family="Helvetica,sans-Serif" font-size="10.00" fill="#000000">MapLayers::isLayerActive</text>
</a>
</g>
</g>
<!-- Node21&#45;&gt;Node22 -->
<g id="edge1" class="edge">
<title>Node21&#45;&gt;Node22</title>
<path fill="none" stroke="#191970" d="M141.2182,-48C149.57,-48 158.1422,-48 166.6204,-48"/>
<polygon fill="#191970" stroke="#191970" points="166.8942,-51.5001 176.8942,-48 166.8942,-44.5001 166.8942,-51.5001"/>
</g>
<!-- Node23 -->
<g id="node3" class="node">
<title>Node23</title>
<g id="a_node3"><a xlink:href="classMapLayers.html#ab663dfc9e4c144f904ad85543b66ac8f" target="_top" xlink:title="Toggle Drawing Layer Toggle Drawing Layer (use bitwise XOR to toggle layer) ">
<polygon fill="none" stroke="#000000" points="354,-76.5 354,-95.5 516,-95.5 516,-76.5 354,-76.5"/>
<text text-anchor="middle" x="435" y="-83.5" font-family="Helvetica,sans-Serif" font-size="10.00" fill="#000000">MapLayers::setLayerEditMode</text>
</a>
</g>
</g>
<!-- Node22&#45;&gt;Node23 -->
<g id="edge2" class="edge">
<title>Node22&#45;&gt;Node23</title>
<path fill="none" stroke="#191970" d="M294.8142,-57.589C320.1141,-62.7165 351.4502,-69.0672 378.075,-74.4632"/>
<polygon fill="#191970" stroke="#191970" points="377.5301,-77.9238 388.0261,-76.4799 378.9205,-71.0633 377.5301,-77.9238"/>
</g>
<!-- Node28 -->
<g id="node8" class="node">
<title>Node28</title>
<g id="a_node8"><a xlink:href="classMapLayers.html#a53d7fcd90e70eaf36239d7a75c0c5dda" target="_top" xlink:title="MapLayers::MapLayers">
<polygon fill="none" stroke="#000000" points="371,-38.5 371,-57.5 499,-57.5 499,-38.5 371,-38.5"/>
<text text-anchor="middle" x="435" y="-45.5" font-family="Helvetica,sans-Serif" font-size="10.00" fill="#000000">MapLayers::MapLayers</text>
</a>
</g>
</g>
<!-- Node22&#45;&gt;Node28 -->
<g id="edge7" class="edge">
<title>Node22&#45;&gt;Node28</title>
<path fill="none" stroke="#191970" d="M318.1185,-48C332.0688,-48 346.7479,-48 360.8122,-48"/>
<polygon fill="#191970" stroke="#191970" points="360.9254,-51.5001 370.9254,-48 360.9254,-44.5001 360.9254,-51.5001"/>
</g>
<!-- Node29 -->
<g id="node9" class="node">
<title>Node29</title>
<g id="a_node9"><a xlink:href="classMapLayers.html#aa7fa21110e27ec69f131692b0a510d66" target="_top" xlink:title="MapLayers::~MapLayers">
<polygon fill="none" stroke="#000000" points="367,-.5 367,-19.5 503,-19.5 503,-.5 367,-.5"/>
<text text-anchor="middle" x="435" y="-7.5" font-family="Helvetica,sans-Serif" font-size="10.00" fill="#000000">MapLayers::~MapLayers</text>
</a>
</g>
</g>
<!-- Node22&#45;&gt;Node29 -->
<g id="edge8" class="edge">
<title>Node22&#45;&gt;Node29</title>
<path fill="none" stroke="#191970" d="M294.8142,-38.411C320.1141,-33.2835 351.4502,-26.9328 378.075,-21.5368"/>
<polygon fill="#191970" stroke="#191970" points="378.9205,-24.9367 388.0261,-19.5201 377.5301,-18.0762 378.9205,-24.9367"/>
</g>
<!-- Node24 -->
<g id="node4" class="node">
<title>Node24</title>
<g id="a_node4"><a xlink:href="classMapLayers.html#a0a64d01a42e8864b78e1bc54007cb7d9" target="_top" xlink:title="Toggle Drawing Layer Toggle Drawing Layer (use bitwise XOR to toggle layer) ">
<polygon fill="none" stroke="#000000" points="552,-120 552,-150 692,-150 692,-120 552,-120"/>
<text text-anchor="start" x="560" y="-138" font-family="Helvetica,sans-Serif" font-size="10.00" fill="#000000">MapLayers::deactivateAll</text>
<text text-anchor="middle" x="622" y="-127" font-family="Helvetica,sans-Serif" font-size="10.00" fill="#000000">Layers</text>
</a>
</g>
</g>
<!-- Node23&#45;&gt;Node24 -->
<g id="edge3" class="edge">
<title>Node23&#45;&gt;Node24</title>
<path fill="none" stroke="#191970" d="M471.4994,-95.564C495.1742,-101.7676 526.7334,-110.0371 554.8364,-117.401"/>
<polygon fill="#191970" stroke="#191970" points="554.0534,-120.8139 564.614,-119.963 555.8278,-114.0425 554.0534,-120.8139"/>
</g>
<!-- Node26 -->
<g id="node6" class="node">
<title>Node26</title>
<g id="a_node6"><a xlink:href="classSingleton.html#af5cb1e5749949e2b68416cfb8d378044" target="_top" xlink:title="Get an instance of the singleton. ">
<polygon fill="none" stroke="#000000" points="565.5,-71 565.5,-101 678.5,-101 678.5,-71 565.5,-71"/>
<text text-anchor="start" x="573.5" y="-89" font-family="Helvetica,sans-Serif" font-size="10.00" fill="#000000">Singleton&lt; Settings</text>
<text text-anchor="middle" x="622" y="-78" font-family="Helvetica,sans-Serif" font-size="10.00" fill="#000000"> &gt;::instance</text>
</a>
</g>
</g>
<!-- Node23&#45;&gt;Node26 -->
<g id="edge5" class="edge">
<title>Node23&#45;&gt;Node26</title>
<path fill="none" stroke="#191970" d="M516.2051,-86C529.1419,-86 542.3983,-86 554.9603,-86"/>
<polygon fill="#191970" stroke="#191970" points="555.3269,-89.5001 565.3268,-86 555.3268,-82.5001 555.3269,-89.5001"/>
</g>
<!-- Node27 -->
<g id="node7" class="node">
<title>Node27</title>
<g id="a_node7"><a xlink:href="classMapLayers.html#a5db6ba7e194ada6a4d0334d0428ff89b" target="_top" xlink:title="Enable drawing layers. ">
<polygon fill="none" stroke="#000000" points="552,-32.5 552,-51.5 692,-51.5 692,-32.5 552,-32.5"/>
<text text-anchor="middle" x="622" y="-39.5" font-family="Helvetica,sans-Serif" font-size="10.00" fill="#000000">MapLayers::enableLayers</text>
</a>
</g>
</g>
<!-- Node23&#45;&gt;Node27 -->
<g id="edge6" class="edge">
<title>Node23&#45;&gt;Node27</title>
<path fill="none" stroke="#191970" d="M475.7936,-76.4413C488.6584,-73.4241 502.9237,-70.0756 516,-67 534.1552,-62.7297 554.057,-58.0386 571.664,-53.8849"/>
<polygon fill="#191970" stroke="#191970" points="572.8061,-57.2116 581.735,-51.5086 571.1985,-50.3987 572.8061,-57.2116"/>
</g>
<!-- Node25 -->
<g id="node5" class="node">
<title>Node25</title>
<g id="a_node5"><a xlink:href="classMapLayers.html#a3b1b1f10dd431fa83e098a20e4c836b9" target="_top" xlink:title="Disable Drawing Layer Disable Drawing Layer ( Turned off by using bitwise AND with inversed pattern) ...">
<polygon fill="none" stroke="#000000" points="728,-125.5 728,-144.5 865,-144.5 865,-125.5 728,-125.5"/>
<text text-anchor="middle" x="796.5" y="-132.5" font-family="Helvetica,sans-Serif" font-size="10.00" fill="#000000">MapLayers::disableLayer</text>
</a>
</g>
</g>
<!-- Node24&#45;&gt;Node25 -->
<g id="edge4" class="edge">
<title>Node24&#45;&gt;Node25</title>
<path fill="none" stroke="#191970" d="M692.2215,-135C700.5704,-135 709.1356,-135 717.5953,-135"/>
<polygon fill="#191970" stroke="#191970" points="717.8402,-138.5001 727.8402,-135 717.8402,-131.5001 717.8402,-138.5001"/>
</g>
</g>
</svg>
