<?xml version="1.0" encoding="UTF-8" standalone="no"?>
<!DOCTYPE svg PUBLIC "-//W3C//DTD SVG 1.1//EN"
 "http://www.w3.org/Graphics/SVG/1.1/DTD/svg11.dtd">
<!-- Generated by graphviz version 2.40.1 (20161225.0304)
 -->
<!-- Title: MapNode::setNodeTransparency Pages: 1 -->
<!--zoomable 142 -->
<svg id="main" version="1.1" xmlns="http://www.w3.org/2000/svg" xmlns:xlink="http://www.w3.org/1999/xlink" xml:space="preserve" onload="init(evt)">
<style type="text/css"><![CDATA[
.edge:hover path { stroke: red; }
.edge:hover polygon { stroke: red; fill: red; }
]]></style>
<script type="text/javascript"><![CDATA[
var edges = document.getElementsByTagName('g');
if (edges && edges.length) {
  for (var i=0;i<edges.length;i++) {
    if (edges[i].id.substr(0,4)=='edge') {
      edges[i].setAttribute('class','edge');
    }
  }
}
]]></script>
        <defs>
                <circle id="rim" cx="0" cy="0" r="7"/>
                <circle id="rim2" cx="0" cy="0" r="3.5"/>
                <g id="zoomPlus">
                        <use xlink:href="#rim" fill="#404040">
                                <set attributeName="fill" to="#808080" begin="zoomplus.mouseover" end="zoomplus.mouseout"/>
                        </use>
                        <path d="M-4,0h8M0,-4v8" fill="none" stroke="white" stroke-width="1.5" pointer-events="none"/>
                </g>
                <g id="zoomMin">
                        <use xlink:href="#rim" fill="#404040">
                                <set attributeName="fill" to="#808080" begin="zoomminus.mouseover" end="zoomminus.mouseout"/>
                        </use>
                        <path d="M-4,0h8" fill="none" stroke="white" stroke-width="1.5" pointer-events="none"/>
                </g>
                <g id="dirArrow">
                        <path fill="none" stroke="white" stroke-width="1.5" d="M0,-3.0v7 M-2.5,-0.5L0,-3.0L2.5,-0.5"/>
                </g>
               <g id="resetDef">
                       <use xlink:href="#rim2" fill="#404040">
                               <set attributeName="fill" to="#808080" begin="reset.mouseover" end="reset.mouseout"/>
                       </use>
               </g>
        </defs>

<script type="text/javascript">
var viewWidth = 814;
var viewHeight = 142;
var sectionId = 'dynsection-26';
</script>
<script xlink:href="svgpan.js"/>
<svg id="graph" class="graph">
<g id="viewport">
<title>MapNode::setNodeTransparency</title>
<!-- Node181 -->
<g id="node1" class="node">
<title>Node181</title>
<polygon fill="#bfbfbf" stroke="#000000" points="0,-57.5 0,-76.5 173,-76.5 173,-57.5 0,-57.5"/>
<text text-anchor="middle" x="86.5" y="-64.5" font-family="Helvetica,sans-Serif" font-size="10.00" fill="#000000">MapNode::setNodeTransparency</text>
</g>
<!-- Node182 -->
<g id="node2" class="node">
<title>Node182</title>
<g id="a_node2"><a xlink:href="classEventManager.html#a65ec91fd5016d4f9c4167fb8babed2df" target="_top" xlink:title="EventManager::checkEvents">
<polygon fill="none" stroke="#000000" points="209,-114.5 209,-133.5 363,-133.5 363,-114.5 209,-114.5"/>
<text text-anchor="middle" x="286" y="-121.5" font-family="Helvetica,sans-Serif" font-size="10.00" fill="#000000">EventManager::checkEvents</text>
</a>
</g>
</g>
<!-- Node181&#45;&gt;Node182 -->
<g id="edge1" class="edge">
<title>Node181&#45;&gt;Node182</title>
<path fill="none" stroke="#191970" d="M125.3594,-79.6959C149.3588,-87.3768 180.8438,-97.1664 209,-105 220.806,-108.2847 233.7098,-111.5819 245.521,-114.4859"/>
<polygon fill="#191970" stroke="#191970" points="126.1551,-76.2753 115.5637,-76.5451 124.0116,-82.9391 126.1551,-76.2753"/>
</g>
<!-- Node186 -->
<g id="node6" class="node">
<title>Node186</title>
<g id="a_node6"><a xlink:href="classMapNode.html#a26e55c94192a56990f8a59e7af139a73" target="_top" xlink:title="MapNode::setTileID">
<polygon fill="none" stroke="#000000" points="230,-76.5 230,-95.5 342,-95.5 342,-76.5 230,-76.5"/>
<text text-anchor="middle" x="286" y="-83.5" font-family="Helvetica,sans-Serif" font-size="10.00" fill="#000000">MapNode::setTileID</text>
</a>
</g>
</g>
<!-- Node181&#45;&gt;Node186 -->
<g id="edge5" class="edge">
<title>Node181&#45;&gt;Node186</title>
<path fill="none" stroke="#191970" d="M183.0994,-76.1999C199.1523,-77.7288 215.3141,-79.268 229.9195,-80.659"/>
<polygon fill="#191970" stroke="#191970" points="183.42,-72.7147 173.1332,-75.2508 182.7563,-79.6832 183.42,-72.7147"/>
</g>
<!-- Node189 -->
<g id="node9" class="node">
<title>Node189</title>
<g id="a_node9"><a xlink:href="classMapNode.html#a46d22458f78fa9416a700dbe4612012b" target="_top" xlink:title="Overwrite m_mapData with the one loaded from a savegame. This function to be used only by loadGame...">
<polygon fill="none" stroke="#000000" points="210,-38.5 210,-57.5 362,-57.5 362,-38.5 210,-38.5"/>
<text text-anchor="middle" x="286" y="-45.5" font-family="Helvetica,sans-Serif" font-size="10.00" fill="#000000">MapNode::setMapNodeData</text>
</a>
</g>
</g>
<!-- Node181&#45;&gt;Node189 -->
<g id="edge8" class="edge">
<title>Node181&#45;&gt;Node189</title>
<path fill="none" stroke="#191970" d="M183.1839,-57.792C192.1117,-56.9417 201.0723,-56.0883 209.7793,-55.2591"/>
<polygon fill="#191970" stroke="#191970" points="182.7563,-54.3168 173.1332,-58.7492 183.42,-61.2853 182.7563,-54.3168"/>
</g>
<!-- Node190 -->
<g id="node10" class="node">
<title>Node190</title>
<g id="a_node10"><a xlink:href="classMapNode.html#a002b868485074599fbf087fc4c96b2c9" target="_top" xlink:title="Demolish a node Removes all tiles on a node. This effects all layers where something to demolish is p...">
<polygon fill="none" stroke="#000000" points="216.5,-.5 216.5,-19.5 355.5,-19.5 355.5,-.5 216.5,-.5"/>
<text text-anchor="middle" x="286" y="-7.5" font-family="Helvetica,sans-Serif" font-size="10.00" fill="#000000">MapNode::demolishNode</text>
</a>
</g>
</g>
<!-- Node181&#45;&gt;Node190 -->
<g id="edge9" class="edge">
<title>Node181&#45;&gt;Node190</title>
<path fill="none" stroke="#191970" d="M125.3594,-54.3041C149.3588,-46.6232 180.8438,-36.8336 209,-29 220.806,-25.7153 233.7098,-22.4181 245.521,-19.5141"/>
<polygon fill="#191970" stroke="#191970" points="124.0116,-51.0609 115.5637,-57.4549 126.1551,-57.7247 124.0116,-51.0609"/>
</g>
<!-- Node183 -->
<g id="node3" class="node">
<title>Node183</title>
<g id="a_node3"><a xlink:href="classGame.html#a1c2ab25d5216b2f4b2fe41efd2c09114" target="_top" xlink:title="begins the game starts running the game ">
<polygon fill="none" stroke="#000000" points="465.5,-114.5 465.5,-133.5 533.5,-133.5 533.5,-114.5 465.5,-114.5"/>
<text text-anchor="middle" x="499.5" y="-121.5" font-family="Helvetica,sans-Serif" font-size="10.00" fill="#000000">Game::run</text>
</a>
</g>
</g>
<!-- Node182&#45;&gt;Node183 -->
<g id="edge2" class="edge">
<title>Node182&#45;&gt;Node183</title>
<path fill="none" stroke="#191970" d="M373.4837,-124C405.8449,-124 440.6494,-124 465.4638,-124"/>
<polygon fill="#191970" stroke="#191970" points="373.0784,-120.5001 363.0784,-124 373.0784,-127.5001 373.0784,-120.5001"/>
</g>
<!-- Node184 -->
<g id="node4" class="node">
<title>Node184</title>
<g id="a_node4"><a xlink:href="main_8cxx.html#af582d708d899e67ead623eac34a22387" target="_top" xlink:title="protected_main">
<polygon fill="none" stroke="#000000" points="636,-114.5 636,-133.5 729,-133.5 729,-114.5 636,-114.5"/>
<text text-anchor="middle" x="682.5" y="-121.5" font-family="Helvetica,sans-Serif" font-size="10.00" fill="#000000">protected_main</text>
</a>
</g>
</g>
<!-- Node183&#45;&gt;Node184 -->
<g id="edge3" class="edge">
<title>Node183&#45;&gt;Node184</title>
<path fill="none" stroke="#191970" d="M544.1535,-124C571.9451,-124 607.6323,-124 635.7997,-124"/>
<polygon fill="#191970" stroke="#191970" points="543.9209,-120.5001 533.9209,-124 543.9209,-127.5001 543.9209,-120.5001"/>
</g>
<!-- Node185 -->
<g id="node5" class="node">
<title>Node185</title>
<g id="a_node5"><a xlink:href="main_8cxx.html#a3c04138a5bfe5d72780bb7e82a18e627" target="_top" xlink:title="main">
<polygon fill="none" stroke="#000000" points="765,-114.5 765,-133.5 806,-133.5 806,-114.5 765,-114.5"/>
<text text-anchor="middle" x="785.5" y="-121.5" font-family="Helvetica,sans-Serif" font-size="10.00" fill="#000000">main</text>
</a>
</g>
</g>
<!-- Node184&#45;&gt;Node185 -->
<g id="edge4" class="edge">
<title>Node184&#45;&gt;Node185</title>
<path fill="none" stroke="#191970" d="M739.2133,-124C748.4322,-124 757.4259,-124 764.9965,-124"/>
<polygon fill="#191970" stroke="#191970" points="739.1782,-120.5001 729.1782,-124 739.1781,-127.5001 739.1782,-120.5001"/>
</g>
<!-- Node187 -->
<g id="node7" class="node">
<title>Node187</title>
<g id="a_node7"><a xlink:href="classMapNode.html#ae515fc96b543bf97237bfb1ca53fe571" target="_top" xlink:title="MapNode::MapNode">
<polygon fill="none" stroke="#000000" points="442.5,-76.5 442.5,-95.5 556.5,-95.5 556.5,-76.5 442.5,-76.5"/>
<text text-anchor="middle" x="499.5" y="-83.5" font-family="Helvetica,sans-Serif" font-size="10.00" fill="#000000">MapNode::MapNode</text>
</a>
</g>
</g>
<!-- Node186&#45;&gt;Node187 -->
<g id="edge6" class="edge">
<title>Node186&#45;&gt;Node187</title>
<path fill="none" stroke="#191970" d="M352.0961,-86C380.9704,-86 414.5097,-86 442.2947,-86"/>
<polygon fill="#191970" stroke="#191970" points="352.0946,-82.5001 342.0946,-86 352.0946,-89.5001 352.0946,-82.5001"/>
</g>
<!-- Node188 -->
<g id="node8" class="node">
<title>Node188</title>
<g id="a_node8"><a xlink:href="classMap.html#a404c38b33d61f8c63ce2c2efb864d6dd" target="_top" xlink:title="Set the Tile ID Of Node object Also invokes all necessary texture updates (auto&#45;tiling, slopes, ...) ">
<polygon fill="none" stroke="#000000" points="399,-5 399,-57 600,-57 600,-5 399,-5"/>
<text text-anchor="start" x="407" y="-45" font-family="Helvetica,sans-Serif" font-size="10.00" fill="#000000">Map&lt; ObserverSPtr&lt;</text>
<text text-anchor="start" x="407" y="-34" font-family="Helvetica,sans-Serif" font-size="10.00" fill="#000000"> Notification &gt;, Set</text>
<text text-anchor="start" x="407" y="-23" font-family="Helvetica,sans-Serif" font-size="10.00" fill="#000000">&lt; typename Notification</text>
<text text-anchor="middle" x="499.5" y="-12" font-family="Helvetica,sans-Serif" font-size="10.00" fill="#000000">::TransitionType &gt; &gt;::setTileIDOfNode</text>
</a>
</g>
</g>
<!-- Node186&#45;&gt;Node188 -->
<g id="edge7" class="edge">
<title>Node186&#45;&gt;Node188</title>
<path fill="none" stroke="#191970" d="M335.0899,-74.0111C344.3671,-71.7102 353.9863,-69.3006 363,-67 375.4672,-63.818 388.5616,-60.4271 401.5018,-57.0468"/>
<polygon fill="#191970" stroke="#191970" points="334.0703,-70.6577 325.2021,-76.4548 335.7498,-77.4532 334.0703,-70.6577"/>
</g>
</g>
</svg>
        <g id="navigator" transform="translate(0 0)" fill="#404254">
                <rect fill="#f2f5e9" fill-opacity="0.5" stroke="#606060" stroke-width=".5" x="0" y="0" width="60" height="60"/>
                <use id="zoomplus" xlink:href="#zoomPlus" x="17" y="9" onmousedown="handleZoom(evt,'in')"/>
                <use id="zoomminus" xlink:href="#zoomMin" x="42" y="9" onmousedown="handleZoom(evt,'out')"/>
                <use id="reset" xlink:href="#resetDef" x="30" y="36" onmousedown="handleReset()"/>
                <g id="arrowUp" xlink:href="#dirArrow" transform="translate(30 24)" onmousedown="handlePan(0,-1)">
                  <use xlink:href="#rim" fill="#404040">
                        <set attributeName="fill" to="#808080" begin="arrowUp.mouseover" end="arrowUp.mouseout"/>
                  </use>
                  <path fill="none" stroke="white" stroke-width="1.5" d="M0,-3.0v7 M-2.5,-0.5L0,-3.0L2.5,-0.5"/>
                </g>
                <g id="arrowRight" xlink:href="#dirArrow" transform="rotate(90) translate(36 -43)" onmousedown="handlePan(1,0)">
                  <use xlink:href="#rim" fill="#404040">
                        <set attributeName="fill" to="#808080" begin="arrowRight.mouseover" end="arrowRight.mouseout"/>
                  </use>
                  <path fill="none" stroke="white" stroke-width="1.5" d="M0,-3.0v7 M-2.5,-0.5L0,-3.0L2.5,-0.5"/>
                </g>
                <g id="arrowDown" xlink:href="#dirArrow" transform="rotate(180) translate(-30 -48)" onmousedown="handlePan(0,1)">
                  <use xlink:href="#rim" fill="#404040">
                        <set attributeName="fill" to="#808080" begin="arrowDown.mouseover" end="arrowDown.mouseout"/>
                  </use>
                  <path fill="none" stroke="white" stroke-width="1.5" d="M0,-3.0v7 M-2.5,-0.5L0,-3.0L2.5,-0.5"/>
                </g>
                <g id="arrowLeft" xlink:href="#dirArrow" transform="rotate(270) translate(-36 17)" onmousedown="handlePan(-1,0)">
                  <use xlink:href="#rim" fill="#404040">
                        <set attributeName="fill" to="#808080" begin="arrowLeft.mouseover" end="arrowLeft.mouseout"/>
                  </use>
                  <path fill="none" stroke="white" stroke-width="1.5" d="M0,-3.0v7 M-2.5,-0.5L0,-3.0L2.5,-0.5"/>
                </g>
        </g>
        <svg viewBox="0 0 15 15" width="100%" height="30px" preserveAspectRatio="xMaxYMin meet">
         <g id="arrow_out" transform="scale(0.3 0.3)">
          <a xlink:href="classMapNode_abda77a5705086a50cbc5755d10883e8a_icgraph_org.svg" target="_base">
           <rect id="button" ry="5" rx="5" y="6" x="6" height="38" width="38"
                fill="#f2f5e9" fill-opacity="0.5" stroke="#606060" stroke-width="1.0"/>
           <path id="arrow"
             d="M 11.500037,31.436501 C 11.940474,20.09759 22.043105,11.32322 32.158766,21.979434 L 37.068811,17.246167 C 37.068811,17.246167 37.088388,32 37.088388,32 L 22.160133,31.978069 C 22.160133,31.978069 26.997745,27.140456 26.997745,27.140456 C 18.528582,18.264221 13.291696,25.230495 11.500037,31.436501 z"
             style="fill:#404040;"/>
          </a>
         </g>
        </svg>
</svg>
