<?xml version="1.0" encoding="UTF-8" standalone="no"?>
<!DOCTYPE svg PUBLIC "-//W3C//DTD SVG 1.1//EN"
 "http://www.w3.org/Graphics/SVG/1.1/DTD/svg11.dtd">
<!-- Generated by graphviz version 2.40.1 (20161225.0304)
 -->
<!-- Title: Engine::newGame Pages: 1 -->
<svg width="908pt" height="142pt"
 viewBox="0.00 0.00 908.00 142.00" xmlns="http://www.w3.org/2000/svg" xmlns:xlink="http://www.w3.org/1999/xlink">
<g id="graph0" class="graph" transform="scale(1 1) rotate(0) translate(4 138)">
<title>Engine::newGame</title>
<!-- Node39 -->
<g id="node1" class="node">
<title>Node39</title>
<polygon fill="#bfbfbf" stroke="#000000" points="0,-57.5 0,-76.5 105,-76.5 105,-57.5 0,-57.5"/>
<text text-anchor="middle" x="52.5" y="-64.5" font-family="Helvetica,sans-Serif" font-size="10.00" fill="#000000">Engine::newGame</text>
</g>
<!-- Node40 -->
<g id="node2" class="node">
<title>Node40</title>
<g id="a_node2"><a xlink:href="classEngine.html#ab5a909990be40701ebb4b57c3e716ed4" target="_top" xlink:title="Engine::saveGame">
<polygon fill="none" stroke="#000000" points="141,-114.5 141,-133.5 249,-133.5 249,-114.5 141,-114.5"/>
<text text-anchor="middle" x="195" y="-121.5" font-family="Helvetica,sans-Serif" font-size="10.00" fill="#000000">Engine::saveGame</text>
</a>
</g>
</g>
<!-- Node39&#45;&gt;Node40 -->
<g id="edge1" class="edge">
<title>Node39&#45;&gt;Node40</title>
<path fill="none" stroke="#191970" d="M85.8522,-80.3409C111.9875,-90.795 147.7185,-105.0874 171.0709,-114.4284"/>
<polygon fill="#191970" stroke="#191970" points="86.936,-77.0048 76.3513,-76.5405 84.3362,-83.5042 86.936,-77.0048"/>
</g>
<!-- Node41 -->
<g id="node3" class="node">
<title>Node41</title>
<g id="a_node3"><a xlink:href="classUIManager.html#aa78e356fc3b356d790c848319d1c387e" target="_top" xlink:title="UIManager::setCallbackFunctions">
<polygon fill="none" stroke="#000000" points="285,-76.5 285,-95.5 463,-95.5 463,-76.5 285,-76.5"/>
<text text-anchor="middle" x="374" y="-83.5" font-family="Helvetica,sans-Serif" font-size="10.00" fill="#000000">UIManager::setCallbackFunctions</text>
</a>
</g>
</g>
<!-- Node39&#45;&gt;Node41 -->
<g id="edge7" class="edge">
<title>Node39&#45;&gt;Node41</title>
<path fill="none" stroke="#191970" d="M115.2308,-70.7073C163.5135,-73.5607 230.8789,-77.5418 284.7721,-80.7268"/>
<polygon fill="#191970" stroke="#191970" points="115.4183,-67.2123 105.2292,-70.1162 115.0052,-74.2001 115.4183,-67.2123"/>
</g>
<!-- Node43 -->
<g id="node5" class="node">
<title>Node43</title>
<g id="a_node5"><a xlink:href="classGame.html#a1c2ab25d5216b2f4b2fe41efd2c09114" target="_top" xlink:title="begins the game starts running the game ">
<polygon fill="none" stroke="#000000" points="626,-38.5 626,-57.5 694,-57.5 694,-38.5 626,-38.5"/>
<text text-anchor="middle" x="660" y="-45.5" font-family="Helvetica,sans-Serif" font-size="10.00" fill="#000000">Game::run</text>
</a>
</g>
</g>
<!-- Node39&#45;&gt;Node43 -->
<g id="edge10" class="edge">
<title>Node39&#45;&gt;Node43</title>
<path fill="none" stroke="#191970" d="M115.4509,-65.0312C242.8775,-61.0458 527.5851,-52.1414 625.8644,-49.0676"/>
<polygon fill="#191970" stroke="#191970" points="114.9703,-61.5444 105.0846,-65.3554 115.1892,-68.541 114.9703,-61.5444"/>
</g>
<!-- Node46 -->
<g id="node8" class="node">
<title>Node46</title>
<g id="a_node8"><a xlink:href="classGame.html#a560299f0291c281f7b44e7ef0dd7b264" target="_top" xlink:title="initializes and displays the main menu initializes and displays the main menu ">
<polygon fill="none" stroke="#000000" points="322.5,-.5 322.5,-19.5 425.5,-19.5 425.5,-.5 322.5,-.5"/>
<text text-anchor="middle" x="374" y="-7.5" font-family="Helvetica,sans-Serif" font-size="10.00" fill="#000000">Game::mainMenu</text>
</a>
</g>
</g>
<!-- Node39&#45;&gt;Node46 -->
<g id="edge8" class="edge">
<title>Node39&#45;&gt;Node46</title>
<path fill="none" stroke="#191970" d="M82.8067,-53.5132C99.6271,-46.589 121.1124,-38.6519 141,-34 202.3748,-19.6439 274.8445,-13.874 322.4745,-11.5557"/>
<polygon fill="#191970" stroke="#191970" points="81.3448,-50.3312 73.4894,-57.4406 84.0638,-56.7815 81.3448,-50.3312"/>
</g>
<!-- Node40&#45;&gt;Node41 -->
<g id="edge2" class="edge">
<title>Node40&#45;&gt;Node41</title>
<path fill="none" stroke="#191970" d="M250.0236,-112.319C275.4082,-106.9301 305.1607,-100.6139 329.1556,-95.5201"/>
<polygon fill="#191970" stroke="#191970" points="249.2244,-108.9106 240.1693,-114.411 250.6781,-115.758 249.2244,-108.9106"/>
</g>
<!-- Node42 -->
<g id="node4" class="node">
<title>Node42</title>
<g id="a_node4"><a xlink:href="classUIManager.html#aedd9d0577af515a852425dfe414b2968" target="_top" xlink:title="Parses the UiLayout.json files and creates UI Elements. ">
<polygon fill="none" stroke="#000000" points="499,-76.5 499,-95.5 590,-95.5 590,-76.5 499,-76.5"/>
<text text-anchor="middle" x="544.5" y="-83.5" font-family="Helvetica,sans-Serif" font-size="10.00" fill="#000000">UIManager::init</text>
</a>
</g>
</g>
<!-- Node41&#45;&gt;Node42 -->
<g id="edge3" class="edge">
<title>Node41&#45;&gt;Node42</title>
<path fill="none" stroke="#191970" d="M473.2456,-86C482.0449,-86 490.6396,-86 498.6409,-86"/>
<polygon fill="#191970" stroke="#191970" points="473.2448,-82.5001 463.2448,-86 473.2448,-89.5001 473.2448,-82.5001"/>
</g>
<!-- Node42&#45;&gt;Node43 -->
<g id="edge4" class="edge">
<title>Node42&#45;&gt;Node43</title>
<path fill="none" stroke="#191970" d="M583.4841,-73.1741C598.9817,-68.0753 616.5024,-62.3109 630.8638,-57.5859"/>
<polygon fill="#191970" stroke="#191970" points="582.0508,-69.961 573.6455,-76.411 584.2385,-76.6104 582.0508,-69.961"/>
</g>
<!-- Node44 -->
<g id="node6" class="node">
<title>Node44</title>
<g id="a_node6"><a xlink:href="main_8cxx.html#af582d708d899e67ead623eac34a22387" target="_top" xlink:title="protected_main">
<polygon fill="none" stroke="#000000" points="730,-19.5 730,-38.5 823,-38.5 823,-19.5 730,-19.5"/>
<text text-anchor="middle" x="776.5" y="-26.5" font-family="Helvetica,sans-Serif" font-size="10.00" fill="#000000">protected_main</text>
</a>
</g>
</g>
<!-- Node43&#45;&gt;Node44 -->
<g id="edge5" class="edge">
<title>Node43&#45;&gt;Node44</title>
<path fill="none" stroke="#191970" d="M703.9884,-40.8259C712.382,-39.457 721.1965,-38.0195 729.6749,-36.6367"/>
<polygon fill="#191970" stroke="#191970" points="703.316,-37.3893 694.0098,-42.4533 704.4428,-44.298 703.316,-37.3893"/>
</g>
<!-- Node45 -->
<g id="node7" class="node">
<title>Node45</title>
<g id="a_node7"><a xlink:href="main_8cxx.html#a3c04138a5bfe5d72780bb7e82a18e627" target="_top" xlink:title="main">
<polygon fill="none" stroke="#000000" points="859,-19.5 859,-38.5 900,-38.5 900,-19.5 859,-19.5"/>
<text text-anchor="middle" x="879.5" y="-26.5" font-family="Helvetica,sans-Serif" font-size="10.00" fill="#000000">main</text>
</a>
</g>
</g>
<!-- Node44&#45;&gt;Node45 -->
<g id="edge6" class="edge">
<title>Node44&#45;&gt;Node45</title>
<path fill="none" stroke="#191970" d="M833.2133,-29C842.4322,-29 851.4259,-29 858.9965,-29"/>
<polygon fill="#191970" stroke="#191970" points="833.1782,-25.5001 823.1782,-29 833.1781,-32.5001 833.1782,-25.5001"/>
</g>
<!-- Node46&#45;&gt;Node44 -->
<g id="edge9" class="edge">
<title>Node46&#45;&gt;Node44</title>
<path fill="none" stroke="#191970" d="M435.8597,-12.9201C516.9068,-16.7459 657.232,-23.37 729.8918,-26.7999"/>
<polygon fill="#191970" stroke="#191970" points="435.9498,-9.4205 425.7958,-12.445 435.6196,-16.4127 435.9498,-9.4205"/>
</g>
</g>
</svg>
