<?xml version="1.0" encoding="UTF-8" standalone="no"?>
<!DOCTYPE svg PUBLIC "-//W3C//DTD SVG 1.1//EN"
 "http://www.w3.org/Graphics/SVG/1.1/DTD/svg11.dtd">
<!-- Generated by graphviz version 2.40.1 (20161225.0304)
 -->
<!-- Title: Rectangle::x1 Pages: 1 -->
<svg width="397pt" height="66pt"
 viewBox="0.00 0.00 397.00 66.00" xmlns="http://www.w3.org/2000/svg" xmlns:xlink="http://www.w3.org/1999/xlink">
<g id="graph0" class="graph" transform="scale(1 1) rotate(0) translate(4 62)">
<title>Rectangle::x1</title>
<!-- Node139 -->
<g id="node1" class="node">
<title>Node139</title>
<polygon fill="#bfbfbf" stroke="#000000" points="0,-19.5 0,-38.5 83,-38.5 83,-19.5 0,-19.5"/>
<text text-anchor="middle" x="41.5" y="-26.5" font-family="Helvetica,sans-Serif" font-size="10.00" fill="#000000">Rectangle::x1</text>
</g>
<!-- Node140 -->
<g id="node2" class="node">
<title>Node140</title>
<g id="a_node2"><a xlink:href="classPixelBuffer.html#a5402df89a5dc5b23594a697285f21e34" target="_top" xlink:title="Scale the pixel buffer using nearest&#45;neighbor in both dimensions. ">
<polygon fill="none" stroke="#000000" points="119,-38.5 119,-57.5 220,-57.5 220,-38.5 119,-38.5"/>
<text text-anchor="middle" x="169.5" y="-45.5" font-family="Helvetica,sans-Serif" font-size="10.00" fill="#000000">PixelBuffer::scale</text>
</a>
</g>
</g>
<!-- Node139&#45;&gt;Node140 -->
<g id="edge1" class="edge">
<title>Node139&#45;&gt;Node140</title>
<path fill="none" stroke="#191970" d="M93.1638,-36.6688C101.6038,-37.9217 110.3413,-39.2186 118.7588,-40.4681"/>
<polygon fill="#191970" stroke="#191970" points="93.4635,-33.1751 83.0579,-35.1688 92.4356,-40.0992 93.4635,-33.1751"/>
</g>
<!-- Node142 -->
<g id="node4" class="node">
<title>Node142</title>
<g id="a_node4"><a xlink:href="classPixelBuffer.html#abbad3bec56ca536a543c42024045c99d" target="_top" xlink:title="Crop the pixel buffer around a region. ">
<polygon fill="none" stroke="#000000" points="121,-.5 121,-19.5 218,-19.5 218,-.5 121,-.5"/>
<text text-anchor="middle" x="169.5" y="-7.5" font-family="Helvetica,sans-Serif" font-size="10.00" fill="#000000">PixelBuffer::crop</text>
</a>
</g>
</g>
<!-- Node139&#45;&gt;Node142 -->
<g id="edge3" class="edge">
<title>Node139&#45;&gt;Node142</title>
<path fill="none" stroke="#191970" d="M93.1067,-21.3396C102.1731,-19.9938 111.5845,-18.5968 120.5751,-17.2623"/>
<polygon fill="#191970" stroke="#191970" points="92.4356,-17.9008 83.0579,-22.8312 93.4635,-24.8249 92.4356,-17.9008"/>
</g>
<!-- Node141 -->
<g id="node3" class="node">
<title>Node141</title>
<g id="a_node3"><a xlink:href="classCursorView.html#a31952d744480fd52f49aa3d552a90f9f" target="_top" xlink:title="CursorView::CursorView">
<polygon fill="none" stroke="#000000" points="256,-19.5 256,-38.5 389,-38.5 389,-19.5 256,-19.5"/>
<text text-anchor="middle" x="322.5" y="-26.5" font-family="Helvetica,sans-Serif" font-size="10.00" fill="#000000">CursorView::CursorView</text>
</a>
</g>
</g>
<!-- Node140&#45;&gt;Node141 -->
<g id="edge2" class="edge">
<title>Node140&#45;&gt;Node141</title>
<path fill="none" stroke="#191970" d="M230.1784,-40.4648C238.6389,-39.4141 247.3693,-38.33 255.9309,-37.2668"/>
<polygon fill="#191970" stroke="#191970" points="229.5144,-37.0203 220.0219,-41.726 230.3771,-43.9669 229.5144,-37.0203"/>
</g>
<!-- Node142&#45;&gt;Node141 -->
<g id="edge4" class="edge">
<title>Node142&#45;&gt;Node141</title>
<path fill="none" stroke="#191970" d="M228.3649,-17.31C237.4088,-18.4331 246.8004,-19.5994 255.9961,-20.7413"/>
<polygon fill="#191970" stroke="#191970" points="228.686,-13.8231 218.3308,-16.064 227.8232,-20.7697 228.686,-13.8231"/>
</g>
</g>
</svg>
