<?xml version="1.0" encoding="UTF-8" standalone="no"?>
<!DOCTYPE svg PUBLIC "-//W3C//DTD SVG 1.1//EN"
 "http://www.w3.org/Graphics/SVG/1.1/DTD/svg11.dtd">
<!-- Generated by graphviz version 2.40.1 (20161225.0304)
 -->
<!-- Title: UIElement::setTextureID Pages: 1 -->
<svg width="961pt" height="115pt"
 viewBox="0.00 0.00 961.00 115.00" xmlns="http://www.w3.org/2000/svg" xmlns:xlink="http://www.w3.org/1999/xlink">
<g id="graph0" class="graph" transform="scale(1 1) rotate(0) translate(4 111)">
<title>UIElement::setTextureID</title>
<!-- Node276 -->
<g id="node1" class="node">
<title>Node276</title>
<polygon fill="#bfbfbf" stroke="#000000" points="0,-43.5 0,-62.5 135,-62.5 135,-43.5 0,-43.5"/>
<text text-anchor="middle" x="67.5" y="-50.5" font-family="Helvetica,sans-Serif" font-size="10.00" fill="#000000">UIElement::setTextureID</text>
</g>
<!-- Node277 -->
<g id="node2" class="node">
<title>Node277</title>
<g id="a_node2"><a xlink:href="classUIElement.html#a9c4439b91bcb765d0616616fbfe2a44a" target="_top" xlink:title="Get the uiElements tooltip text Get the tooltip text for this ui element. Tooltip is shown when hover...">
<polygon fill="none" stroke="#000000" points="172,-87.5 172,-106.5 322,-106.5 322,-87.5 172,-87.5"/>
<text text-anchor="middle" x="247" y="-94.5" font-family="Helvetica,sans-Serif" font-size="10.00" fill="#000000">UIElement::setUIElementID</text>
</a>
</g>
</g>
<!-- Node276&#45;&gt;Node277 -->
<g id="edge1" class="edge">
<title>Node276&#45;&gt;Node277</title>
<path fill="none" stroke="#191970" d="M116.3281,-64.969C145.1802,-72.0414 181.2116,-80.8736 208.1272,-87.4713"/>
<polygon fill="#191970" stroke="#191970" points="116.9946,-61.5288 106.4488,-62.5473 115.328,-68.3276 116.9946,-61.5288"/>
</g>
<!-- Node283 -->
<g id="node8" class="node">
<title>Node283</title>
<g id="a_node8"><a xlink:href="classUIManager.html#a007e9b56a4835b98db2b203df96ea79d" target="_top" xlink:title="Draws the tile (defined by the string, tiledata pair) onto the button. ">
<polygon fill="none" stroke="#000000" points="171,-38 171,-68 323,-68 323,-38 171,-38"/>
<text text-anchor="start" x="179" y="-56" font-family="Helvetica,sans-Serif" font-size="10.00" fill="#000000">UIManager::setupButtonTile</text>
<text text-anchor="middle" x="247" y="-45" font-family="Helvetica,sans-Serif" font-size="10.00" fill="#000000">Image</text>
</a>
</g>
</g>
<!-- Node276&#45;&gt;Node283 -->
<g id="edge7" class="edge">
<title>Node276&#45;&gt;Node283</title>
<path fill="none" stroke="#191970" d="M145.3008,-53C153.7342,-53 162.3109,-53 170.7259,-53"/>
<polygon fill="#191970" stroke="#191970" points="145.1055,-49.5001 135.1055,-53 145.1054,-56.5001 145.1055,-49.5001"/>
</g>
<!-- Node284 -->
<g id="node9" class="node">
<title>Node284</title>
<g id="a_node9"><a xlink:href="classGame.html#a560299f0291c281f7b44e7ef0dd7b264" target="_top" xlink:title="initializes and displays the main menu initializes and displays the main menu ">
<polygon fill="none" stroke="#000000" points="386,-.5 386,-19.5 489,-19.5 489,-.5 386,-.5"/>
<text text-anchor="middle" x="437.5" y="-7.5" font-family="Helvetica,sans-Serif" font-size="10.00" fill="#000000">Game::mainMenu</text>
</a>
</g>
</g>
<!-- Node276&#45;&gt;Node284 -->
<g id="edge9" class="edge">
<title>Node276&#45;&gt;Node284</title>
<path fill="none" stroke="#191970" d="M112.3873,-40.9755C130.4738,-36.555 151.6089,-31.9211 171,-29 245.1904,-17.824 332.0197,-13.1857 385.8984,-11.2852"/>
<polygon fill="#191970" stroke="#191970" points="111.5384,-37.5799 102.6834,-43.3971 113.2333,-44.3716 111.5384,-37.5799"/>
</g>
<!-- Node278 -->
<g id="node3" class="node">
<title>Node278</title>
<g id="a_node3"><a xlink:href="classUIManager.html#aae7a89e9d50bb6192e4140e07bd5f94b" target="_top" xlink:title="UIManager::createBuildMenu">
<polygon fill="none" stroke="#000000" points="359,-43.5 359,-62.5 516,-62.5 516,-43.5 359,-43.5"/>
<text text-anchor="middle" x="437.5" y="-50.5" font-family="Helvetica,sans-Serif" font-size="10.00" fill="#000000">UIManager::createBuildMenu</text>
</a>
</g>
</g>
<!-- Node277&#45;&gt;Node278 -->
<g id="edge2" class="edge">
<title>Node277&#45;&gt;Node278</title>
<path fill="none" stroke="#191970" d="M298.4196,-85.1236C329.1064,-78.0358 367.5553,-69.1552 396.245,-62.5287"/>
<polygon fill="#191970" stroke="#191970" points="297.2915,-81.7919 288.3357,-87.4527 298.8668,-88.6123 297.2915,-81.7919"/>
</g>
<!-- Node279 -->
<g id="node4" class="node">
<title>Node279</title>
<g id="a_node4"><a xlink:href="classUIManager.html#aedd9d0577af515a852425dfe414b2968" target="_top" xlink:title="Parses the UiLayout.json files and creates UI Elements. ">
<polygon fill="none" stroke="#000000" points="552,-42.5 552,-61.5 643,-61.5 643,-42.5 552,-42.5"/>
<text text-anchor="middle" x="597.5" y="-49.5" font-family="Helvetica,sans-Serif" font-size="10.00" fill="#000000">UIManager::init</text>
</a>
</g>
</g>
<!-- Node278&#45;&gt;Node279 -->
<g id="edge3" class="edge">
<title>Node278&#45;&gt;Node279</title>
<path fill="none" stroke="#191970" d="M526.348,-52.4447C535.049,-52.3903 543.6087,-52.3368 551.6086,-52.2868"/>
<polygon fill="#191970" stroke="#191970" points="526.0717,-48.9463 516.0938,-52.5088 526.1155,-55.9461 526.0717,-48.9463"/>
</g>
<!-- Node280 -->
<g id="node5" class="node">
<title>Node280</title>
<g id="a_node5"><a xlink:href="classGame.html#a1c2ab25d5216b2f4b2fe41efd2c09114" target="_top" xlink:title="begins the game starts running the game ">
<polygon fill="none" stroke="#000000" points="679,-42.5 679,-61.5 747,-61.5 747,-42.5 679,-42.5"/>
<text text-anchor="middle" x="713" y="-49.5" font-family="Helvetica,sans-Serif" font-size="10.00" fill="#000000">Game::run</text>
</a>
</g>
</g>
<!-- Node279&#45;&gt;Node280 -->
<g id="edge4" class="edge">
<title>Node279&#45;&gt;Node280</title>
<path fill="none" stroke="#191970" d="M653.2726,-52C661.9603,-52 670.7077,-52 678.7272,-52"/>
<polygon fill="#191970" stroke="#191970" points="653.1487,-48.5001 643.1487,-52 653.1486,-55.5001 653.1487,-48.5001"/>
</g>
<!-- Node281 -->
<g id="node6" class="node">
<title>Node281</title>
<g id="a_node6"><a xlink:href="main_8cxx.html#af582d708d899e67ead623eac34a22387" target="_top" xlink:title="protected_main">
<polygon fill="none" stroke="#000000" points="783,-22.5 783,-41.5 876,-41.5 876,-22.5 783,-22.5"/>
<text text-anchor="middle" x="829.5" y="-29.5" font-family="Helvetica,sans-Serif" font-size="10.00" fill="#000000">protected_main</text>
</a>
</g>
</g>
<!-- Node280&#45;&gt;Node281 -->
<g id="edge5" class="edge">
<title>Node280&#45;&gt;Node281</title>
<path fill="none" stroke="#191970" d="M756.9884,-44.4483C765.382,-43.0074 774.1965,-41.4942 782.6749,-40.0386"/>
<polygon fill="#191970" stroke="#191970" points="756.2734,-41.0198 747.0098,-46.1614 757.4578,-47.9189 756.2734,-41.0198"/>
</g>
<!-- Node282 -->
<g id="node7" class="node">
<title>Node282</title>
<g id="a_node7"><a xlink:href="main_8cxx.html#a3c04138a5bfe5d72780bb7e82a18e627" target="_top" xlink:title="main">
<polygon fill="none" stroke="#000000" points="912,-22.5 912,-41.5 953,-41.5 953,-22.5 912,-22.5"/>
<text text-anchor="middle" x="932.5" y="-29.5" font-family="Helvetica,sans-Serif" font-size="10.00" fill="#000000">main</text>
</a>
</g>
</g>
<!-- Node281&#45;&gt;Node282 -->
<g id="edge6" class="edge">
<title>Node281&#45;&gt;Node282</title>
<path fill="none" stroke="#191970" d="M886.2133,-32C895.4322,-32 904.4259,-32 911.9965,-32"/>
<polygon fill="#191970" stroke="#191970" points="886.1782,-28.5001 876.1782,-32 886.1781,-35.5001 886.1782,-28.5001"/>
</g>
<!-- Node283&#45;&gt;Node278 -->
<g id="edge8" class="edge">
<title>Node283&#45;&gt;Node278</title>
<path fill="none" stroke="#191970" d="M333.3503,-53C341.797,-53 350.3379,-53 358.7042,-53"/>
<polygon fill="#191970" stroke="#191970" points="333.112,-49.5001 323.1119,-53 333.1119,-56.5001 333.112,-49.5001"/>
</g>
<!-- Node284&#45;&gt;Node281 -->
<g id="edge10" class="edge">
<title>Node284&#45;&gt;Node281</title>
<path fill="none" stroke="#191970" d="M499.4096,-13.4745C578.1477,-17.8935 712.3419,-25.4248 782.9344,-29.3866"/>
<polygon fill="#191970" stroke="#191970" points="499.3307,-9.9647 489.1503,-12.8987 498.9384,-16.9537 499.3307,-9.9647"/>
</g>
</g>
</svg>
