<?xml version="1.0" encoding="UTF-8" standalone="no"?>
<!DOCTYPE svg PUBLIC "-//W3C//DTD SVG 1.1//EN"
 "http://www.w3.org/Graphics/SVG/1.1/DTD/svg11.dtd">
<!-- Generated by graphviz version 2.40.1 (20161225.0304)
 -->
<!-- Title: MouseState Pages: 1 -->
<svg width="696pt" height="747pt"
 viewBox="0.00 0.00 696.00 747.00" xmlns="http://www.w3.org/2000/svg" xmlns:xlink="http://www.w3.org/1999/xlink">
<g id="graph0" class="graph" transform="scale(1 1) rotate(0) translate(4 743)">
<title>MouseState</title>
<!-- Node0 -->
<g id="node1" class="node">
<title>Node0</title>
<polygon fill="#bfbfbf" stroke="#000000" points="272.5,-.5 272.5,-79.5 373.5,-79.5 373.5,-.5 272.5,-.5"/>
<text text-anchor="middle" x="323" y="-67.5" font-family="Helvetica,sans-Serif" font-size="10.00" fill="#000000">MouseState</text>
<polyline fill="none" stroke="#000000" points="272.5,-60.5 373.5,-60.5 "/>
<text text-anchor="start" x="280.5" y="-48.5" font-family="Helvetica,sans-Serif" font-size="10.00" fill="#000000">&#45; m_Model</text>
<polyline fill="none" stroke="#000000" points="272.5,-41.5 373.5,-41.5 "/>
<text text-anchor="start" x="280.5" y="-29.5" font-family="Helvetica,sans-Serif" font-size="10.00" fill="#000000">+ setPosition()</text>
<text text-anchor="start" x="280.5" y="-18.5" font-family="Helvetica,sans-Serif" font-size="10.00" fill="#000000">+ setCursor()</text>
<text text-anchor="start" x="280.5" y="-7.5" font-family="Helvetica,sans-Serif" font-size="10.00" fill="#000000">+ ~MouseState()</text>
</g>
<!-- Node1 -->
<g id="node2" class="node">
<title>Node1</title>
<g id="a_node2"><a xlink:href="structDataModel.html" target="_top" xlink:title="{DataModel\&lt; MouseStateNotification \&gt;\n||+ DataModel()\l}">
<polygon fill="none" stroke="#000000" points="220.5,-117.5 220.5,-174.5 425.5,-174.5 425.5,-117.5 220.5,-117.5"/>
<text text-anchor="middle" x="323" y="-162.5" font-family="Helvetica,sans-Serif" font-size="10.00" fill="#000000">DataModel&lt; MouseStateNotification &gt;</text>
<polyline fill="none" stroke="#000000" points="220.5,-155.5 425.5,-155.5 "/>
<text text-anchor="middle" x="323" y="-143.5" font-family="Helvetica,sans-Serif" font-size="10.00" fill="#000000"> </text>
<polyline fill="none" stroke="#000000" points="220.5,-136.5 425.5,-136.5 "/>
<text text-anchor="start" x="228.5" y="-124.5" font-family="Helvetica,sans-Serif" font-size="10.00" fill="#000000">+ DataModel()</text>
</a>
</g>
</g>
<!-- Node1&#45;&gt;Node0 -->
<g id="edge1" class="edge">
<title>Node1&#45;&gt;Node0</title>
<path fill="none" stroke="#191970" d="M323,-107.1908C323,-98.2839 323,-88.7999 323,-79.8499"/>
<polygon fill="none" stroke="#191970" points="319.5001,-107.3148 323,-117.3149 326.5001,-107.3149 319.5001,-107.3148"/>
</g>
<!-- Node2 -->
<g id="node3" class="node">
<title>Node2</title>
<g id="a_node3"><a xlink:href="classiModel.html" target="_top" xlink:title="{iModel\n||+ ~iModel()\l}">
<polygon fill="none" stroke="#000000" points="263,-356 263,-413 339,-413 339,-356 263,-356"/>
<text text-anchor="middle" x="301" y="-401" font-family="Helvetica,sans-Serif" font-size="10.00" fill="#000000">iModel</text>
<polyline fill="none" stroke="#000000" points="263,-394 339,-394 "/>
<text text-anchor="middle" x="301" y="-382" font-family="Helvetica,sans-Serif" font-size="10.00" fill="#000000"> </text>
<polyline fill="none" stroke="#000000" points="263,-375 339,-375 "/>
<text text-anchor="start" x="271" y="-363" font-family="Helvetica,sans-Serif" font-size="10.00" fill="#000000">+ ~iModel()</text>
</a>
</g>
</g>
<!-- Node2&#45;&gt;Node1 -->
<g id="edge2" class="edge">
<title>Node2&#45;&gt;Node1</title>
<path fill="none" stroke="#191970" d="M304.5743,-345.7514C308.9874,-297.9088 316.3919,-217.6376 320.3369,-174.8707"/>
<polygon fill="none" stroke="#191970" points="301.0871,-345.4521 303.6537,-355.7313 308.0575,-346.0951 301.0871,-345.4521"/>
</g>
<!-- Node8 -->
<g id="node9" class="node">
<title>Node8</title>
<g id="a_node9"><a xlink:href="structDataModel.html" target="_top" xlink:title="{DataModel\&lt; DataList \&gt;\n||+ DataModel()\l}">
<polygon fill="none" stroke="#000000" points="103,-222.5 103,-279.5 235,-279.5 235,-222.5 103,-222.5"/>
<text text-anchor="middle" x="169" y="-267.5" font-family="Helvetica,sans-Serif" font-size="10.00" fill="#000000">DataModel&lt; DataList &gt;</text>
<polyline fill="none" stroke="#000000" points="103,-260.5 235,-260.5 "/>
<text text-anchor="middle" x="169" y="-248.5" font-family="Helvetica,sans-Serif" font-size="10.00" fill="#000000"> </text>
<polyline fill="none" stroke="#000000" points="103,-241.5 235,-241.5 "/>
<text text-anchor="start" x="111" y="-229.5" font-family="Helvetica,sans-Serif" font-size="10.00" fill="#000000">+ DataModel()</text>
</a>
</g>
</g>
<!-- Node2&#45;&gt;Node8 -->
<g id="edge9" class="edge">
<title>Node2&#45;&gt;Node8</title>
<path fill="none" stroke="#191970" d="M278.089,-347.3179C270.9618,-337.0068 262.6793,-326.1427 254,-317 241.1369,-303.4501 225.3531,-290.4152 210.8932,-279.5606"/>
<polygon fill="none" stroke="#191970" points="275.3053,-349.4507 283.7874,-355.7992 281.1156,-345.5468 275.3053,-349.4507"/>
</g>
<!-- Node3 -->
<g id="node4" class="node">
<title>Node3</title>
<g id="a_node4"><a xlink:href="classSubject.html" target="_top" xlink:title="{Subject\&lt; VariantType\l\&lt; MouseStateNotification\l \&gt;, UIMQDispatcher\&lt; VariantType\l\&lt; MouseStateNotification \&gt; \&gt; \&gt;\n|&#45; m_Observers\l|+ addObserver()\l# Subject()\l# notifyObservers()\l# ~Subject()\l# mustNotify()\l}">
<polygon fill="none" stroke="#000000" points="357.5,-317.5 357.5,-451.5 538.5,-451.5 538.5,-317.5 357.5,-317.5"/>
<text text-anchor="start" x="365.5" y="-439.5" font-family="Helvetica,sans-Serif" font-size="10.00" fill="#000000">Subject&lt; VariantType</text>
<text text-anchor="start" x="365.5" y="-428.5" font-family="Helvetica,sans-Serif" font-size="10.00" fill="#000000">&lt; MouseStateNotification</text>
<text text-anchor="start" x="365.5" y="-417.5" font-family="Helvetica,sans-Serif" font-size="10.00" fill="#000000"> &gt;, UIMQDispatcher&lt; VariantType</text>
<text text-anchor="middle" x="448" y="-406.5" font-family="Helvetica,sans-Serif" font-size="10.00" fill="#000000">&lt; MouseStateNotification &gt; &gt; &gt;</text>
<polyline fill="none" stroke="#000000" points="357.5,-399.5 538.5,-399.5 "/>
<text text-anchor="start" x="365.5" y="-387.5" font-family="Helvetica,sans-Serif" font-size="10.00" fill="#000000">&#45; m_Observers</text>
<polyline fill="none" stroke="#000000" points="357.5,-380.5 538.5,-380.5 "/>
<text text-anchor="start" x="365.5" y="-368.5" font-family="Helvetica,sans-Serif" font-size="10.00" fill="#000000">+ addObserver()</text>
<text text-anchor="start" x="365.5" y="-357.5" font-family="Helvetica,sans-Serif" font-size="10.00" fill="#000000"># Subject()</text>
<text text-anchor="start" x="365.5" y="-346.5" font-family="Helvetica,sans-Serif" font-size="10.00" fill="#000000"># notifyObservers()</text>
<text text-anchor="start" x="365.5" y="-335.5" font-family="Helvetica,sans-Serif" font-size="10.00" fill="#000000"># ~Subject()</text>
<text text-anchor="start" x="365.5" y="-324.5" font-family="Helvetica,sans-Serif" font-size="10.00" fill="#000000"># mustNotify()</text>
</a>
</g>
</g>
<!-- Node3&#45;&gt;Node1 -->
<g id="edge3" class="edge">
<title>Node3&#45;&gt;Node1</title>
<path fill="none" stroke="#191970" d="M408.1392,-308.4456C384.2301,-262.8271 355.2103,-207.4572 337.9702,-174.5632"/>
<polygon fill="none" stroke="#191970" points="405.1056,-310.1973 412.8479,-317.4298 411.3057,-306.9478 405.1056,-310.1973"/>
</g>
<!-- Node4 -->
<g id="node5" class="node">
<title>Node4</title>
<g id="a_node5"><a xlink:href="structUIMQDispatcher.html" target="_top" xlink:title="{UIMQDispatcher\&lt; VariantType\l\&lt; MouseStateNotification \&gt; \&gt;\n|+ loop\l|+ dispatch()\l}">
<polygon fill="none" stroke="#000000" points="182,-538 182,-606 346,-606 346,-538 182,-538"/>
<text text-anchor="start" x="190" y="-594" font-family="Helvetica,sans-Serif" font-size="10.00" fill="#000000">UIMQDispatcher&lt; VariantType</text>
<text text-anchor="middle" x="264" y="-583" font-family="Helvetica,sans-Serif" font-size="10.00" fill="#000000">&lt; MouseStateNotification &gt; &gt;</text>
<polyline fill="none" stroke="#000000" points="182,-576 346,-576 "/>
<text text-anchor="start" x="190" y="-564" font-family="Helvetica,sans-Serif" font-size="10.00" fill="#000000">+ loop</text>
<polyline fill="none" stroke="#000000" points="182,-557 346,-557 "/>
<text text-anchor="start" x="190" y="-545" font-family="Helvetica,sans-Serif" font-size="10.00" fill="#000000">+ dispatch()</text>
</a>
</g>
</g>
<!-- Node4&#45;&gt;Node3 -->
<g id="edge4" class="edge">
<title>Node4&#45;&gt;Node3</title>
<path fill="none" stroke="#8b1a1a" d="M254.986,-527.8915C253.526,-508.1058 255.8056,-485.7326 269,-470 292.1404,-442.4081 314.9576,-466.3175 348,-452 351.0751,-450.6675 354.1564,-449.238 357.2312,-447.7286"/>
<polygon fill="none" stroke="#8b1a1a" points="251.5179,-528.378 256.0524,-537.9534 258.4789,-527.6402 251.5179,-528.378"/>
</g>
<!-- Node5 -->
<g id="node6" class="node">
<title>Node5</title>
<g id="a_node6"><a xlink:href="structUIMQDispatcher.html" target="_top" xlink:title="An asynchronous dispatch to Observers based on a UIMessageQueue processed on another thread...">
<polygon fill="none" stroke="#000000" points="92.5,-681.5 92.5,-738.5 255.5,-738.5 255.5,-681.5 92.5,-681.5"/>
<text text-anchor="middle" x="174" y="-726.5" font-family="Helvetica,sans-Serif" font-size="10.00" fill="#000000">UIMQDispatcher&lt; DataArgs &gt;</text>
<polyline fill="none" stroke="#000000" points="92.5,-719.5 255.5,-719.5 "/>
<text text-anchor="start" x="100.5" y="-707.5" font-family="Helvetica,sans-Serif" font-size="10.00" fill="#000000">+ loop</text>
<polyline fill="none" stroke="#000000" points="92.5,-700.5 255.5,-700.5 "/>
<text text-anchor="start" x="100.5" y="-688.5" font-family="Helvetica,sans-Serif" font-size="10.00" fill="#000000">+ dispatch()</text>
</a>
</g>
</g>
<!-- Node5&#45;&gt;Node4 -->
<g id="edge5" class="edge">
<title>Node5&#45;&gt;Node4</title>
<path fill="none" stroke="#ffa500" d="M226.4283,-674.4205C229.9447,-670.8242 233.1962,-667.0089 236,-663 247.7474,-646.2038 254.6838,-624.3286 258.7137,-606.2353"/>
<polygon fill="#ffa500" stroke="#ffa500" points="223.7951,-672.0917 218.8971,-681.4865 228.5847,-677.1967 223.7951,-672.0917"/>
<text text-anchor="start" x="248" y="-655" font-family="Helvetica,sans-Serif" font-size="10.00" fill="#000000"> &lt; VariantType&lt; MouseState</text>
<text text-anchor="middle" x="318" y="-644" font-family="Helvetica,sans-Serif" font-size="10.00" fill="#000000">Notification &gt; &gt;</text>
</g>
<!-- Node10 -->
<g id="node11" class="node">
<title>Node10</title>
<g id="a_node11"><a xlink:href="structUIMQDispatcher.html" target="_top" xlink:title="{UIMQDispatcher\&lt; VariantType\l\&lt; DataList \&gt; \&gt;\n|+ loop\l|+ dispatch()\l}">
<polygon fill="none" stroke="#000000" points="0,-538 0,-606 164,-606 164,-538 0,-538"/>
<text text-anchor="start" x="8" y="-594" font-family="Helvetica,sans-Serif" font-size="10.00" fill="#000000">UIMQDispatcher&lt; VariantType</text>
<text text-anchor="middle" x="82" y="-583" font-family="Helvetica,sans-Serif" font-size="10.00" fill="#000000">&lt; DataList &gt; &gt;</text>
<polyline fill="none" stroke="#000000" points="0,-576 164,-576 "/>
<text text-anchor="start" x="8" y="-564" font-family="Helvetica,sans-Serif" font-size="10.00" fill="#000000">+ loop</text>
<polyline fill="none" stroke="#000000" points="0,-557 164,-557 "/>
<text text-anchor="start" x="8" y="-545" font-family="Helvetica,sans-Serif" font-size="10.00" fill="#000000">+ dispatch()</text>
</a>
</g>
</g>
<!-- Node5&#45;&gt;Node10 -->
<g id="edge12" class="edge">
<title>Node5&#45;&gt;Node10</title>
<path fill="none" stroke="#ffa500" d="M95.2621,-674.5136C91.7665,-671.0061 88.6308,-667.1768 86,-663 75.5492,-646.4078 74.2841,-624.539 75.7581,-606.3981"/>
<polygon fill="#ffa500" stroke="#ffa500" points="93.0879,-677.2632 102.8962,-681.2692 97.7269,-672.021 93.0879,-677.2632"/>
<text text-anchor="middle" x="159" y="-649.5" font-family="Helvetica,sans-Serif" font-size="10.00" fill="#000000"> &lt; VariantType&lt; DataList &gt; &gt;</text>
</g>
<!-- Node6 -->
<g id="node7" class="node">
<title>Node6</title>
<g id="a_node7"><a xlink:href="classSubject.html" target="_top" xlink:title="Allows to notify Observers about events. ">
<polygon fill="none" stroke="#000000" points="380,-521.5 380,-622.5 556,-622.5 556,-521.5 380,-521.5"/>
<text text-anchor="middle" x="468" y="-610.5" font-family="Helvetica,sans-Serif" font-size="10.00" fill="#000000">Subject&lt; Data, DispatchPolicy &gt;</text>
<polyline fill="none" stroke="#000000" points="380,-603.5 556,-603.5 "/>
<text text-anchor="start" x="388" y="-591.5" font-family="Helvetica,sans-Serif" font-size="10.00" fill="#000000">&#45; m_Observers</text>
<polyline fill="none" stroke="#000000" points="380,-584.5 556,-584.5 "/>
<text text-anchor="start" x="388" y="-572.5" font-family="Helvetica,sans-Serif" font-size="10.00" fill="#000000">+ addObserver()</text>
<text text-anchor="start" x="388" y="-561.5" font-family="Helvetica,sans-Serif" font-size="10.00" fill="#000000"># Subject()</text>
<text text-anchor="start" x="388" y="-550.5" font-family="Helvetica,sans-Serif" font-size="10.00" fill="#000000"># notifyObservers()</text>
<text text-anchor="start" x="388" y="-539.5" font-family="Helvetica,sans-Serif" font-size="10.00" fill="#000000"># ~Subject()</text>
<text text-anchor="start" x="388" y="-528.5" font-family="Helvetica,sans-Serif" font-size="10.00" fill="#000000"># mustNotify()</text>
</a>
</g>
</g>
<!-- Node6&#45;&gt;Node3 -->
<g id="edge6" class="edge">
<title>Node6&#45;&gt;Node3</title>
<path fill="none" stroke="#ffa500" d="M461.5202,-511.2517C459.4963,-492.2781 457.252,-471.2372 455.1828,-451.839"/>
<polygon fill="#ffa500" stroke="#ffa500" points="458.0467,-511.6875 462.5877,-521.2598 465.0072,-510.9449 458.0467,-511.6875"/>
<text text-anchor="start" x="461" y="-495" font-family="Helvetica,sans-Serif" font-size="10.00" fill="#000000"> &lt; VariantType&lt; MouseState</text>
<text text-anchor="start" x="461" y="-484" font-family="Helvetica,sans-Serif" font-size="10.00" fill="#000000">Notification &gt;, UIMQDispatcher</text>
<text text-anchor="middle" x="574.5" y="-473" font-family="Helvetica,sans-Serif" font-size="10.00" fill="#000000">&lt; VariantType&lt; MouseStateNotification &gt; &gt; &gt;</text>
</g>
<!-- Node9 -->
<g id="node10" class="node">
<title>Node9</title>
<g id="a_node10"><a xlink:href="classSubject.html" target="_top" xlink:title="{Subject\&lt; VariantType\l\&lt; DataList \&gt;, UIMQDispatcher\l\&lt; VariantType\&lt; DataList \&gt; \&gt; \&gt;\n|&#45; m_Observers\l|+ addObserver()\l# Subject()\l# notifyObservers()\l# ~Subject()\l# mustNotify()\l}">
<polygon fill="none" stroke="#000000" points="75,-323 75,-446 245,-446 245,-323 75,-323"/>
<text text-anchor="start" x="83" y="-434" font-family="Helvetica,sans-Serif" font-size="10.00" fill="#000000">Subject&lt; VariantType</text>
<text text-anchor="start" x="83" y="-423" font-family="Helvetica,sans-Serif" font-size="10.00" fill="#000000">&lt; DataList &gt;, UIMQDispatcher</text>
<text text-anchor="middle" x="160" y="-412" font-family="Helvetica,sans-Serif" font-size="10.00" fill="#000000">&lt; VariantType&lt; DataList &gt; &gt; &gt;</text>
<polyline fill="none" stroke="#000000" points="75,-405 245,-405 "/>
<text text-anchor="start" x="83" y="-393" font-family="Helvetica,sans-Serif" font-size="10.00" fill="#000000">&#45; m_Observers</text>
<polyline fill="none" stroke="#000000" points="75,-386 245,-386 "/>
<text text-anchor="start" x="83" y="-374" font-family="Helvetica,sans-Serif" font-size="10.00" fill="#000000">+ addObserver()</text>
<text text-anchor="start" x="83" y="-363" font-family="Helvetica,sans-Serif" font-size="10.00" fill="#000000"># Subject()</text>
<text text-anchor="start" x="83" y="-352" font-family="Helvetica,sans-Serif" font-size="10.00" fill="#000000"># notifyObservers()</text>
<text text-anchor="start" x="83" y="-341" font-family="Helvetica,sans-Serif" font-size="10.00" fill="#000000"># ~Subject()</text>
<text text-anchor="start" x="83" y="-330" font-family="Helvetica,sans-Serif" font-size="10.00" fill="#000000"># mustNotify()</text>
</a>
</g>
</g>
<!-- Node6&#45;&gt;Node9 -->
<g id="edge13" class="edge">
<title>Node6&#45;&gt;Node9</title>
<path fill="none" stroke="#ffa500" d="M370.3913,-526.8106C365.2159,-524.7715 360.0636,-522.8203 355,-521 326.388,-510.7142 315.6149,-517.7 289,-503 262.2466,-488.2235 236.6177,-466.7859 215.3534,-446.1945"/>
<polygon fill="#ffa500" stroke="#ffa500" points="369.1341,-530.0774 379.7176,-530.5667 371.7492,-523.5842 369.1341,-530.0774"/>
<text text-anchor="start" x="289" y="-495" font-family="Helvetica,sans-Serif" font-size="10.00" fill="#000000"> &lt; VariantType&lt; DataList</text>
<text text-anchor="start" x="289" y="-484" font-family="Helvetica,sans-Serif" font-size="10.00" fill="#000000"> &gt;, UIMQDispatcher&lt; VariantType</text>
<text text-anchor="middle" x="371.5" y="-473" font-family="Helvetica,sans-Serif" font-size="10.00" fill="#000000">&lt; DataList &gt; &gt; &gt;</text>
</g>
<!-- Node7 -->
<g id="node8" class="node">
<title>Node7</title>
<polygon fill="none" stroke="#bfbfbf" points="423.5,-681.5 423.5,-738.5 512.5,-738.5 512.5,-681.5 423.5,-681.5"/>
<text text-anchor="middle" x="468" y="-726.5" font-family="Helvetica,sans-Serif" font-size="10.00" fill="#000000">DispatchPolicy</text>
<polyline fill="none" stroke="#bfbfbf" points="423.5,-719.5 512.5,-719.5 "/>
<text text-anchor="middle" x="468" y="-707.5" font-family="Helvetica,sans-Serif" font-size="10.00" fill="#000000"> </text>
<polyline fill="none" stroke="#bfbfbf" points="423.5,-700.5 512.5,-700.5 "/>
<text text-anchor="middle" x="468" y="-688.5" font-family="Helvetica,sans-Serif" font-size="10.00" fill="#000000"> </text>
</g>
<!-- Node7&#45;&gt;Node6 -->
<g id="edge7" class="edge">
<title>Node7&#45;&gt;Node6</title>
<path fill="none" stroke="#8b1a1a" d="M468,-671.375C468,-656.2555 468,-638.7051 468,-622.5979"/>
<polygon fill="none" stroke="#8b1a1a" points="464.5001,-671.4063 468,-681.4063 471.5001,-671.4063 464.5001,-671.4063"/>
</g>
<!-- Node8&#45;&gt;Node1 -->
<g id="edge8" class="edge">
<title>Node8&#45;&gt;Node1</title>
<path fill="none" stroke="#ffa500" d="M163.1277,-212.3193C163.8123,-205.3659 165.81,-198.5693 170,-193 177.2253,-183.3963 197.0358,-174.9166 220.1019,-167.8978"/>
<polygon fill="#ffa500" stroke="#ffa500" points="159.6254,-212.4387 162.962,-222.4944 166.6245,-212.5528 159.6254,-212.4387"/>
<text text-anchor="middle" x="239.5" y="-196" font-family="Helvetica,sans-Serif" font-size="10.00" fill="#000000"> &lt; MouseStateNotification &gt;</text>
</g>
<!-- Node9&#45;&gt;Node8 -->
<g id="edge10" class="edge">
<title>Node9&#45;&gt;Node8</title>
<path fill="none" stroke="#191970" d="M164.8474,-312.5968C165.6311,-300.9727 166.4006,-289.5583 167.0601,-279.7749"/>
<polygon fill="none" stroke="#191970" points="161.3382,-312.6173 164.1575,-322.8301 168.3223,-313.0882 161.3382,-312.6173"/>
</g>
<!-- Node10&#45;&gt;Node9 -->
<g id="edge11" class="edge">
<title>Node10&#45;&gt;Node9</title>
<path fill="none" stroke="#8b1a1a" d="M100.193,-528.2669C110.3298,-503.8995 123.1185,-473.1575 134.2657,-446.3613"/>
<polygon fill="none" stroke="#8b1a1a" points="96.9158,-527.0323 96.3064,-537.6096 103.3789,-529.721 96.9158,-527.0323"/>
</g>
</g>
</svg>
