<?xml version="1.0" encoding="UTF-8" standalone="no"?>
<!DOCTYPE svg PUBLIC "-//W3C//DTD SVG 1.1//EN"
 "http://www.w3.org/Graphics/SVG/1.1/DTD/svg11.dtd">
<!-- Generated by graphviz version 2.40.1 (20161225.0304)
 -->
<!-- Title: UIElement::setMenuGroupID Pages: 1 -->
<svg width="793pt" height="28pt"
 viewBox="0.00 0.00 793.00 28.00" xmlns="http://www.w3.org/2000/svg" xmlns:xlink="http://www.w3.org/1999/xlink">
<g id="graph0" class="graph" transform="scale(1 1) rotate(0) translate(4 24)">
<title>UIElement::setMenuGroupID</title>
<!-- Node259 -->
<g id="node1" class="node">
<title>Node259</title>
<polygon fill="#bfbfbf" stroke="#000000" points="0,-.5 0,-19.5 155,-19.5 155,-.5 0,-.5"/>
<text text-anchor="middle" x="77.5" y="-7.5" font-family="Helvetica,sans-Serif" font-size="10.00" fill="#000000">UIElement::setMenuGroupID</text>
</g>
<!-- Node260 -->
<g id="node2" class="node">
<title>Node260</title>
<g id="a_node2"><a xlink:href="classUIManager.html#aae7a89e9d50bb6192e4140e07bd5f94b" target="_top" xlink:title="UIManager::createBuildMenu">
<polygon fill="none" stroke="#000000" points="191,-.5 191,-19.5 348,-19.5 348,-.5 191,-.5"/>
<text text-anchor="middle" x="269.5" y="-7.5" font-family="Helvetica,sans-Serif" font-size="10.00" fill="#000000">UIManager::createBuildMenu</text>
</a>
</g>
</g>
<!-- Node259&#45;&gt;Node260 -->
<g id="edge1" class="edge">
<title>Node259&#45;&gt;Node260</title>
<path fill="none" stroke="#191970" d="M165.3173,-10C173.7922,-10 182.3527,-10 190.7321,-10"/>
<polygon fill="#191970" stroke="#191970" points="165.0404,-6.5001 155.0403,-10 165.0403,-13.5001 165.0404,-6.5001"/>
</g>
<!-- Node261 -->
<g id="node3" class="node">
<title>Node261</title>
<g id="a_node3"><a xlink:href="classUIManager.html#aedd9d0577af515a852425dfe414b2968" target="_top" xlink:title="Parses the UiLayout.json files and creates UI Elements. ">
<polygon fill="none" stroke="#000000" points="384,-.5 384,-19.5 475,-19.5 475,-.5 384,-.5"/>
<text text-anchor="middle" x="429.5" y="-7.5" font-family="Helvetica,sans-Serif" font-size="10.00" fill="#000000">UIManager::init</text>
</a>
</g>
</g>
<!-- Node260&#45;&gt;Node261 -->
<g id="edge2" class="edge">
<title>Node260&#45;&gt;Node261</title>
<path fill="none" stroke="#191970" d="M358.348,-10C367.049,-10 375.6087,-10 383.6086,-10"/>
<polygon fill="#191970" stroke="#191970" points="358.0938,-6.5001 348.0938,-10 358.0938,-13.5001 358.0938,-6.5001"/>
</g>
<!-- Node262 -->
<g id="node4" class="node">
<title>Node262</title>
<g id="a_node4"><a xlink:href="classGame.html#a1c2ab25d5216b2f4b2fe41efd2c09114" target="_top" xlink:title="begins the game starts running the game ">
<polygon fill="none" stroke="#000000" points="511,-.5 511,-19.5 579,-19.5 579,-.5 511,-.5"/>
<text text-anchor="middle" x="545" y="-7.5" font-family="Helvetica,sans-Serif" font-size="10.00" fill="#000000">Game::run</text>
</a>
</g>
</g>
<!-- Node261&#45;&gt;Node262 -->
<g id="edge3" class="edge">
<title>Node261&#45;&gt;Node262</title>
<path fill="none" stroke="#191970" d="M485.2726,-10C493.9603,-10 502.7077,-10 510.7272,-10"/>
<polygon fill="#191970" stroke="#191970" points="485.1487,-6.5001 475.1487,-10 485.1486,-13.5001 485.1487,-6.5001"/>
</g>
<!-- Node263 -->
<g id="node5" class="node">
<title>Node263</title>
<g id="a_node5"><a xlink:href="main_8cxx.html#af582d708d899e67ead623eac34a22387" target="_top" xlink:title="protected_main">
<polygon fill="none" stroke="#000000" points="615,-.5 615,-19.5 708,-19.5 708,-.5 615,-.5"/>
<text text-anchor="middle" x="661.5" y="-7.5" font-family="Helvetica,sans-Serif" font-size="10.00" fill="#000000">protected_main</text>
</a>
</g>
</g>
<!-- Node262&#45;&gt;Node263 -->
<g id="edge4" class="edge">
<title>Node262&#45;&gt;Node263</title>
<path fill="none" stroke="#191970" d="M589.2653,-10C597.5757,-10 606.2897,-10 614.6749,-10"/>
<polygon fill="#191970" stroke="#191970" points="589.0098,-6.5001 579.0098,-10 589.0098,-13.5001 589.0098,-6.5001"/>
</g>
<!-- Node264 -->
<g id="node6" class="node">
<title>Node264</title>
<g id="a_node6"><a xlink:href="main_8cxx.html#a3c04138a5bfe5d72780bb7e82a18e627" target="_top" xlink:title="main">
<polygon fill="none" stroke="#000000" points="744,-.5 744,-19.5 785,-19.5 785,-.5 744,-.5"/>
<text text-anchor="middle" x="764.5" y="-7.5" font-family="Helvetica,sans-Serif" font-size="10.00" fill="#000000">main</text>
</a>
</g>
</g>
<!-- Node263&#45;&gt;Node264 -->
<g id="edge5" class="edge">
<title>Node263&#45;&gt;Node264</title>
<path fill="none" stroke="#191970" d="M718.2133,-10C727.4322,-10 736.4259,-10 743.9965,-10"/>
<polygon fill="#191970" stroke="#191970" points="718.1782,-6.5001 708.1782,-10 718.1781,-13.5001 718.1782,-6.5001"/>
</g>
</g>
</svg>
