<?xml version="1.0" encoding="UTF-8" standalone="no"?>
<!DOCTYPE svg PUBLIC "-//W3C//DTD SVG 1.1//EN"
 "http://www.w3.org/Graphics/SVG/1.1/DTD/svg11.dtd">
<!-- Generated by graphviz version 2.40.1 (20161225.0304)
 -->
<!-- Title: SDLRenderer::drawText Pages: 1 -->
<!--zoomable 123 -->
<svg id="main" version="1.1" xmlns="http://www.w3.org/2000/svg" xmlns:xlink="http://www.w3.org/1999/xlink" xml:space="preserve" onload="init(evt)">
<style type="text/css"><![CDATA[
.edge:hover path { stroke: red; }
.edge:hover polygon { stroke: red; fill: red; }
]]></style>
<script type="text/javascript"><![CDATA[
var edges = document.getElementsByTagName('g');
if (edges && edges.length) {
  for (var i=0;i<edges.length;i++) {
    if (edges[i].id.substr(0,4)=='edge') {
      edges[i].setAttribute('class','edge');
    }
  }
}
]]></script>
        <defs>
                <circle id="rim" cx="0" cy="0" r="7"/>
                <circle id="rim2" cx="0" cy="0" r="3.5"/>
                <g id="zoomPlus">
                        <use xlink:href="#rim" fill="#404040">
                                <set attributeName="fill" to="#808080" begin="zoomplus.mouseover" end="zoomplus.mouseout"/>
                        </use>
                        <path d="M-4,0h8M0,-4v8" fill="none" stroke="white" stroke-width="1.5" pointer-events="none"/>
                </g>
                <g id="zoomMin">
                        <use xlink:href="#rim" fill="#404040">
                                <set attributeName="fill" to="#808080" begin="zoomminus.mouseover" end="zoomminus.mouseout"/>
                        </use>
                        <path d="M-4,0h8" fill="none" stroke="white" stroke-width="1.5" pointer-events="none"/>
                </g>
                <g id="dirArrow">
                        <path fill="none" stroke="white" stroke-width="1.5" d="M0,-3.0v7 M-2.5,-0.5L0,-3.0L2.5,-0.5"/>
                </g>
               <g id="resetDef">
                       <use xlink:href="#rim2" fill="#404040">
                               <set attributeName="fill" to="#808080" begin="reset.mouseover" end="reset.mouseout"/>
                       </use>
               </g>
        </defs>

<script type="text/javascript">
var viewWidth = 566;
var viewHeight = 123;
var sectionId = 'dynsection-5';
</script>
<script xlink:href="svgpan.js"/>
<svg id="graph" class="graph">
<g id="viewport">
<title>SDLRenderer::drawText</title>
<!-- Node26 -->
<g id="node1" class="node">
<title>Node26</title>
<polygon fill="#bfbfbf" stroke="#000000" points="0,-38.5 0,-57.5 129,-57.5 129,-38.5 0,-38.5"/>
<text text-anchor="middle" x="64.5" y="-45.5" font-family="Helvetica,sans-Serif" font-size="10.00" fill="#000000">SDLRenderer::drawText</text>
</g>
<!-- Node27 -->
<g id="node2" class="node">
<title>Node27</title>
<g id="a_node2"><a xlink:href="structRGBAColor.html#aba740eb0cce3571dbb4af983ab7d055d" target="_top" xlink:title="RGBAColor::to_SDL">
<polygon fill="none" stroke="#000000" points="165,-95.5 165,-114.5 275,-114.5 275,-95.5 165,-95.5"/>
<text text-anchor="middle" x="220" y="-102.5" font-family="Helvetica,sans-Serif" font-size="10.00" fill="#000000">RGBAColor::to_SDL</text>
</a>
</g>
</g>
<!-- Node26&#45;&gt;Node27 -->
<g id="edge1" class="edge">
<title>Node26&#45;&gt;Node27</title>
<path fill="none" stroke="#191970" d="M90.5272,-57.5405C116.2042,-66.9527 155.6552,-81.4138 184.262,-91.8999"/>
<polygon fill="#191970" stroke="#191970" points="183.2942,-95.2728 193.8879,-95.4284 185.7034,-88.7004 183.2942,-95.2728"/>
</g>
<!-- Node28 -->
<g id="node3" class="node">
<title>Node28</title>
<g id="a_node3"><a xlink:href="classRectangle.html#a8e643108a9d90f031b397c7f561e9b66" target="_top" xlink:title="Rectangle::to_SDL">
<polygon fill="none" stroke="#000000" points="168,-19.5 168,-38.5 272,-38.5 272,-19.5 168,-19.5"/>
<text text-anchor="middle" x="220" y="-26.5" font-family="Helvetica,sans-Serif" font-size="10.00" fill="#000000">Rectangle::to_SDL</text>
</a>
</g>
</g>
<!-- Node26&#45;&gt;Node28 -->
<g id="edge2" class="edge">
<title>Node26&#45;&gt;Node28</title>
<path fill="none" stroke="#191970" d="M129.0951,-40.1074C138.5321,-38.9543 148.2354,-37.7687 157.627,-36.6211"/>
<polygon fill="#191970" stroke="#191970" points="158.1664,-40.0814 167.6681,-35.3943 157.3173,-33.133 158.1664,-40.0814"/>
</g>
<!-- Node29 -->
<g id="node4" class="node">
<title>Node29</title>
<g id="a_node4"><a xlink:href="classRectangle.html#a6d7591d194230afb71ac2efcb8fd782f" target="_top" xlink:title="Rectangle::width">
<polygon fill="none" stroke="#000000" points="312.5,-38.5 312.5,-57.5 410.5,-57.5 410.5,-38.5 312.5,-38.5"/>
<text text-anchor="middle" x="361.5" y="-45.5" font-family="Helvetica,sans-Serif" font-size="10.00" fill="#000000">Rectangle::width</text>
</a>
</g>
</g>
<!-- Node26&#45;&gt;Node29 -->
<g id="edge7" class="edge">
<title>Node26&#45;&gt;Node29</title>
<path fill="none" stroke="#191970" d="M129.3109,-48C180.8878,-48 252.4629,-48 302.4644,-48"/>
<polygon fill="#191970" stroke="#191970" points="302.478,-51.5001 312.478,-48 302.4779,-44.5001 302.478,-51.5001"/>
</g>
<!-- Node31 -->
<g id="node6" class="node">
<title>Node31</title>
<g id="a_node6"><a xlink:href="classRectangle.html#a21cbebe8e941c0c92d7eba0f7badcb6a" target="_top" xlink:title="Rectangle::height">
<polygon fill="none" stroke="#000000" points="311,-.5 311,-19.5 412,-19.5 412,-.5 311,-.5"/>
<text text-anchor="middle" x="361.5" y="-7.5" font-family="Helvetica,sans-Serif" font-size="10.00" fill="#000000">Rectangle::height</text>
</a>
</g>
</g>
<!-- Node26&#45;&gt;Node31 -->
<g id="edge8" class="edge">
<title>Node26&#45;&gt;Node31</title>
<path fill="none" stroke="#191970" d="M83.5428,-38.4152C103.3236,-29.0367 135.4571,-15.3987 165,-10 209.9767,-1.7809 261.7174,-2.1677 300.8125,-4.4022"/>
<polygon fill="#191970" stroke="#191970" points="300.7768,-7.9067 310.9765,-5.0407 301.2157,-.9205 300.7768,-7.9067"/>
</g>
<!-- Node28&#45;&gt;Node29 -->
<g id="edge3" class="edge">
<title>Node28&#45;&gt;Node29</title>
<path fill="none" stroke="#191970" d="M272.2874,-36.0209C281.9867,-37.3233 292.1839,-38.6925 302.0776,-40.021"/>
<polygon fill="#191970" stroke="#191970" points="301.8676,-43.5242 312.2445,-41.3862 302.7992,-36.5864 301.8676,-43.5242"/>
</g>
<!-- Node28&#45;&gt;Node31 -->
<g id="edge5" class="edge">
<title>Node28&#45;&gt;Node31</title>
<path fill="none" stroke="#191970" d="M272.2874,-21.9791C281.5377,-20.737 291.2409,-19.4341 300.7018,-18.1637"/>
<polygon fill="#191970" stroke="#191970" points="301.3946,-21.6022 310.8399,-16.8024 300.463,-14.6644 301.3946,-21.6022"/>
</g>
<!-- Node30 -->
<g id="node5" class="node">
<title>Node30</title>
<g id="a_node5"><a xlink:href="classRectangle.html#ace89ac3a7085543f3f60449fb5cdc8af" target="_top" xlink:title="Rectangle::isEmpty">
<polygon fill="none" stroke="#000000" points="448,-19.5 448,-38.5 558,-38.5 558,-19.5 448,-19.5"/>
<text text-anchor="middle" x="503" y="-26.5" font-family="Helvetica,sans-Serif" font-size="10.00" fill="#000000">Rectangle::isEmpty</text>
</a>
</g>
</g>
<!-- Node29&#45;&gt;Node30 -->
<g id="edge4" class="edge">
<title>Node29&#45;&gt;Node30</title>
<path fill="none" stroke="#191970" d="M410.5927,-41.408C419.292,-40.2399 428.4748,-39.0069 437.541,-37.7895"/>
<polygon fill="#191970" stroke="#191970" points="438.2503,-41.2258 447.6956,-36.426 437.3187,-34.2881 438.2503,-41.2258"/>
</g>
<!-- Node31&#45;&gt;Node30 -->
<g id="edge6" class="edge">
<title>Node31&#45;&gt;Node30</title>
<path fill="none" stroke="#191970" d="M412.1851,-16.8058C420.5067,-17.9232 429.232,-19.0948 437.846,-20.2514"/>
<polygon fill="#191970" stroke="#191970" points="437.4993,-23.7362 447.8761,-21.5982 438.4309,-16.7984 437.4993,-23.7362"/>
</g>
</g>
</svg>
        <g id="navigator" transform="translate(0 0)" fill="#404254">
                <rect fill="#f2f5e9" fill-opacity="0.5" stroke="#606060" stroke-width=".5" x="0" y="0" width="60" height="60"/>
                <use id="zoomplus" xlink:href="#zoomPlus" x="17" y="9" onmousedown="handleZoom(evt,'in')"/>
                <use id="zoomminus" xlink:href="#zoomMin" x="42" y="9" onmousedown="handleZoom(evt,'out')"/>
                <use id="reset" xlink:href="#resetDef" x="30" y="36" onmousedown="handleReset()"/>
                <g id="arrowUp" xlink:href="#dirArrow" transform="translate(30 24)" onmousedown="handlePan(0,-1)">
                  <use xlink:href="#rim" fill="#404040">
                        <set attributeName="fill" to="#808080" begin="arrowUp.mouseover" end="arrowUp.mouseout"/>
                  </use>
                  <path fill="none" stroke="white" stroke-width="1.5" d="M0,-3.0v7 M-2.5,-0.5L0,-3.0L2.5,-0.5"/>
                </g>
                <g id="arrowRight" xlink:href="#dirArrow" transform="rotate(90) translate(36 -43)" onmousedown="handlePan(1,0)">
                  <use xlink:href="#rim" fill="#404040">
                        <set attributeName="fill" to="#808080" begin="arrowRight.mouseover" end="arrowRight.mouseout"/>
                  </use>
                  <path fill="none" stroke="white" stroke-width="1.5" d="M0,-3.0v7 M-2.5,-0.5L0,-3.0L2.5,-0.5"/>
                </g>
                <g id="arrowDown" xlink:href="#dirArrow" transform="rotate(180) translate(-30 -48)" onmousedown="handlePan(0,1)">
                  <use xlink:href="#rim" fill="#404040">
                        <set attributeName="fill" to="#808080" begin="arrowDown.mouseover" end="arrowDown.mouseout"/>
                  </use>
                  <path fill="none" stroke="white" stroke-width="1.5" d="M0,-3.0v7 M-2.5,-0.5L0,-3.0L2.5,-0.5"/>
                </g>
                <g id="arrowLeft" xlink:href="#dirArrow" transform="rotate(270) translate(-36 17)" onmousedown="handlePan(-1,0)">
                  <use xlink:href="#rim" fill="#404040">
                        <set attributeName="fill" to="#808080" begin="arrowLeft.mouseover" end="arrowLeft.mouseout"/>
                  </use>
                  <path fill="none" stroke="white" stroke-width="1.5" d="M0,-3.0v7 M-2.5,-0.5L0,-3.0L2.5,-0.5"/>
                </g>
        </g>
        <svg viewBox="0 0 15 15" width="100%" height="30px" preserveAspectRatio="xMaxYMin meet">
         <g id="arrow_out" transform="scale(0.3 0.3)">
          <a xlink:href="classSDLRenderer_a6541b0f4cc60e8fe20cc6fb0bec97f1b_cgraph_org.svg" target="_base">
           <rect id="button" ry="5" rx="5" y="6" x="6" height="38" width="38"
                fill="#f2f5e9" fill-opacity="0.5" stroke="#606060" stroke-width="1.0"/>
           <path id="arrow"
             d="M 11.500037,31.436501 C 11.940474,20.09759 22.043105,11.32322 32.158766,21.979434 L 37.068811,17.246167 C 37.068811,17.246167 37.088388,32 37.088388,32 L 22.160133,31.978069 C 22.160133,31.978069 26.997745,27.140456 26.997745,27.140456 C 18.528582,18.264221 13.291696,25.230495 11.500037,31.436501 z"
             style="fill:#404040;"/>
          </a>
         </g>
        </svg>
</svg>
