<?xml version="1.0" encoding="UTF-8" standalone="no"?>
<!DOCTYPE svg PUBLIC "-//W3C//DTD SVG 1.1//EN"
 "http://www.w3.org/Graphics/SVG/1.1/DTD/svg11.dtd">
<!-- Generated by graphviz version 2.40.1 (20161225.0304)
 -->
<!-- Title: TileManager::init Pages: 1 -->
<svg width="814pt" height="178pt"
 viewBox="0.00 0.00 814.00 177.50" xmlns="http://www.w3.org/2000/svg" xmlns:xlink="http://www.w3.org/1999/xlink">
<g id="graph0" class="graph" transform="scale(1 1) rotate(0) translate(4 173.5)">
<title>TileManager::init</title>
<!-- Node91 -->
<g id="node1" class="node">
<title>Node91</title>
<polygon fill="#bfbfbf" stroke="#000000" points="0,-93 0,-112 98,-112 98,-93 0,-93"/>
<text text-anchor="middle" x="49" y="-100" font-family="Helvetica,sans-Serif" font-size="10.00" fill="#000000">TileManager::init</text>
</g>
<!-- Node92 -->
<g id="node2" class="node">
<title>Node92</title>
<g id="a_node2"><a xlink:href="namespacefs.html#ac2d9a48234828392a1f6a6dfce785830" target="_top" xlink:title="Read contents from a file as string. ">
<polygon fill="none" stroke="#000000" points="157,-150 157,-169 267,-169 267,-150 157,-150"/>
<text text-anchor="middle" x="212" y="-157" font-family="Helvetica,sans-Serif" font-size="10.00" fill="#000000">fs::readFileAsString</text>
</a>
</g>
</g>
<!-- Node91&#45;&gt;Node92 -->
<g id="edge1" class="edge">
<title>Node91&#45;&gt;Node92</title>
<path fill="none" stroke="#191970" d="M72.2836,-112.06C89.2718,-118.9073 112.9161,-128.1742 134,-135.5 145.3863,-139.4563 157.8193,-143.4337 169.3458,-146.9812"/>
<polygon fill="#191970" stroke="#191970" points="168.6068,-150.4147 179.1926,-149.9767 170.6442,-143.7177 168.6068,-150.4147"/>
</g>
<!-- Node93 -->
<g id="node3" class="node">
<title>Node93</title>
<g id="a_node3"><a xlink:href="classSingleton.html#af5cb1e5749949e2b68416cfb8d378044" target="_top" xlink:title="Get an instance of the singleton. ">
<polygon fill="none" stroke="#000000" points="355,-87.5 355,-117.5 468,-117.5 468,-87.5 355,-87.5"/>
<text text-anchor="start" x="363" y="-105.5" font-family="Helvetica,sans-Serif" font-size="10.00" fill="#000000">Singleton&lt; Settings</text>
<text text-anchor="middle" x="411.5" y="-94.5" font-family="Helvetica,sans-Serif" font-size="10.00" fill="#000000"> &gt;::instance</text>
</a>
</g>
</g>
<!-- Node91&#45;&gt;Node93 -->
<g id="edge2" class="edge">
<title>Node91&#45;&gt;Node93</title>
<path fill="none" stroke="#191970" d="M98.2656,-102.5C162.0132,-102.5 273.3356,-102.5 344.6644,-102.5"/>
<polygon fill="#191970" stroke="#191970" points="344.8878,-106.0001 354.8878,-102.5 344.8877,-99.0001 344.8878,-106.0001"/>
</g>
<!-- Node94 -->
<g id="node4" class="node">
<title>Node94</title>
<g id="a_node4"><a xlink:href="structStrongType.html#acc66e6d6b9c95193a97a839560499933" target="_top" xlink:title="StrongType::get">
<polygon fill="none" stroke="#000000" points="166,-74 166,-93 258,-93 258,-74 166,-74"/>
<text text-anchor="middle" x="212" y="-81" font-family="Helvetica,sans-Serif" font-size="10.00" fill="#000000">StrongType::get</text>
</a>
</g>
</g>
<!-- Node91&#45;&gt;Node94 -->
<g id="edge3" class="edge">
<title>Node91&#45;&gt;Node94</title>
<path fill="none" stroke="#191970" d="M98.3477,-96.7478C116.4526,-94.6374 137.0785,-92.2332 155.7443,-90.0574"/>
<polygon fill="#191970" stroke="#191970" points="156.3565,-93.5098 165.884,-88.8755 155.546,-86.5569 156.3565,-93.5098"/>
</g>
<!-- Node95 -->
<g id="node5" class="node">
<title>Node95</title>
<g id="a_node5"><a xlink:href="classTileManager.html#a9e03faf9425ee26a2f5fb1fa4c94d173" target="_top" xlink:title="TileManager::addJSONObject\lToTileData">
<polygon fill="none" stroke="#000000" points="134,-24.5 134,-54.5 290,-54.5 290,-24.5 134,-24.5"/>
<text text-anchor="start" x="142" y="-42.5" font-family="Helvetica,sans-Serif" font-size="10.00" fill="#000000">TileManager::addJSONObject</text>
<text text-anchor="middle" x="212" y="-31.5" font-family="Helvetica,sans-Serif" font-size="10.00" fill="#000000">ToTileData</text>
</a>
</g>
</g>
<!-- Node91&#45;&gt;Node95 -->
<g id="edge4" class="edge">
<title>Node91&#45;&gt;Node95</title>
<path fill="none" stroke="#191970" d="M68.6624,-92.9664C85.7257,-84.8732 111.2021,-73.2191 134,-64.5 139.9271,-62.2332 146.1579,-59.997 152.4065,-57.8496"/>
<polygon fill="#191970" stroke="#191970" points="153.8363,-61.0615 162.1992,-54.5567 151.6052,-54.4266 153.8363,-61.0615"/>
</g>
<!-- Node95&#45;&gt;Node93 -->
<g id="edge5" class="edge">
<title>Node95&#45;&gt;Node93</title>
<path fill="none" stroke="#191970" d="M259.5318,-54.51C287.9031,-63.4694 324.1232,-74.9073 354.086,-84.3693"/>
<polygon fill="#191970" stroke="#191970" points="353.3972,-87.8221 363.987,-87.4959 355.5052,-81.147 353.3972,-87.8221"/>
</g>
<!-- Node96 -->
<g id="node6" class="node">
<title>Node96</title>
<g id="a_node6"><a xlink:href="classResourcesManager.html#ab376a89547592db4cca25309eac2931c" target="_top" xlink:title="ResourcesManager::loadTexture">
<polygon fill="none" stroke="#000000" points="326,-30 326,-49 497,-49 497,-30 326,-30"/>
<text text-anchor="middle" x="411.5" y="-37" font-family="Helvetica,sans-Serif" font-size="10.00" fill="#000000">ResourcesManager::loadTexture</text>
</a>
</g>
</g>
<!-- Node95&#45;&gt;Node96 -->
<g id="edge6" class="edge">
<title>Node95&#45;&gt;Node96</title>
<path fill="none" stroke="#191970" d="M290.2751,-39.5C298.6703,-39.5 307.2787,-39.5 315.8466,-39.5"/>
<polygon fill="#191970" stroke="#191970" points="315.8709,-43.0001 325.8709,-39.5 315.8709,-36.0001 315.8709,-43.0001"/>
</g>
<!-- Node97 -->
<g id="node7" class="node">
<title>Node97</title>
<g id="a_node7"><a xlink:href="classResourcesManager.html#a54721d26f52c4887b735d2cdaf60b078" target="_top" xlink:title="ResourcesManager::create\lSurfaceFromFile">
<polygon fill="none" stroke="#000000" points="533,-49.5 533,-79.5 678,-79.5 678,-49.5 533,-49.5"/>
<text text-anchor="start" x="541" y="-67.5" font-family="Helvetica,sans-Serif" font-size="10.00" fill="#000000">ResourcesManager::create</text>
<text text-anchor="middle" x="605.5" y="-56.5" font-family="Helvetica,sans-Serif" font-size="10.00" fill="#000000">SurfaceFromFile</text>
</a>
</g>
</g>
<!-- Node96&#45;&gt;Node97 -->
<g id="edge7" class="edge">
<title>Node96&#45;&gt;Node97</title>
<path fill="none" stroke="#191970" d="M485.3965,-49.0227C497.5265,-50.5859 510.1683,-52.215 522.5017,-53.8043"/>
<polygon fill="#191970" stroke="#191970" points="522.4057,-57.3208 532.7711,-55.1277 523.3005,-50.3782 522.4057,-57.3208"/>
</g>
<!-- Node100 -->
<g id="node10" class="node">
<title>Node100</title>
<g id="a_node10"><a xlink:href="classResourcesManager.html#ad7712ca96233a151d8bc22cd2ba17d01" target="_top" xlink:title="ResourcesManager::create\lTextureFromSurface">
<polygon fill="none" stroke="#000000" points="533,-.5 533,-30.5 678,-30.5 678,-.5 533,-.5"/>
<text text-anchor="start" x="541" y="-18.5" font-family="Helvetica,sans-Serif" font-size="10.00" fill="#000000">ResourcesManager::create</text>
<text text-anchor="middle" x="605.5" y="-7.5" font-family="Helvetica,sans-Serif" font-size="10.00" fill="#000000">TextureFromSurface</text>
</a>
</g>
</g>
<!-- Node96&#45;&gt;Node100 -->
<g id="edge10" class="edge">
<title>Node96&#45;&gt;Node100</title>
<path fill="none" stroke="#191970" d="M488.4526,-29.9801C499.7438,-28.5832 511.414,-27.1395 522.8145,-25.7291"/>
<polygon fill="#191970" stroke="#191970" points="523.2528,-29.2017 532.7474,-24.5003 522.3933,-22.2546 523.2528,-29.2017"/>
</g>
<!-- Node98 -->
<g id="node8" class="node">
<title>Node98</title>
<g id="a_node8"><a xlink:href="namespacefs.html#a28e4c1324680c188092ecfe5fd8a91a3" target="_top" xlink:title="fs::getBasePath">
<polygon fill="none" stroke="#000000" points="714,-74 714,-93 806,-93 806,-74 714,-74"/>
<text text-anchor="middle" x="760" y="-81" font-family="Helvetica,sans-Serif" font-size="10.00" fill="#000000">fs::getBasePath</text>
</a>
</g>
</g>
<!-- Node97&#45;&gt;Node98 -->
<g id="edge8" class="edge">
<title>Node97&#45;&gt;Node98</title>
<path fill="none" stroke="#191970" d="M678.2259,-73.4436C686.7008,-74.4859 695.2484,-75.537 703.4591,-76.5467"/>
<polygon fill="#191970" stroke="#191970" points="703.2957,-80.0529 713.6482,-77.7998 704.1502,-73.1053 703.2957,-80.0529"/>
</g>
<!-- Node99 -->
<g id="node9" class="node">
<title>Node99</title>
<g id="a_node9"><a xlink:href="namespacefs.html#a000d1f9ae14d782b6193298e6d27023f" target="_top" xlink:title="fs::fileExists">
<polygon fill="none" stroke="#000000" points="722,-36 722,-55 798,-55 798,-36 722,-36"/>
<text text-anchor="middle" x="760" y="-43" font-family="Helvetica,sans-Serif" font-size="10.00" fill="#000000">fs::fileExists</text>
</a>
</g>
</g>
<!-- Node97&#45;&gt;Node99 -->
<g id="edge9" class="edge">
<title>Node97&#45;&gt;Node99</title>
<path fill="none" stroke="#191970" d="M678.2259,-55.5564C689.4963,-54.1704 700.8956,-52.7685 711.4597,-51.4694"/>
<polygon fill="#191970" stroke="#191970" points="712.2118,-54.9033 721.7098,-50.2088 711.3573,-47.9557 712.2118,-54.9033"/>
</g>
</g>
</svg>
