<?xml version="1.0" encoding="UTF-8" standalone="no"?>
<!DOCTYPE svg PUBLIC "-//W3C//DTD SVG 1.1//EN"
 "http://www.w3.org/Graphics/SVG/1.1/DTD/svg11.dtd">
<!-- Generated by graphviz version 2.40.1 (20161225.0304)
 -->
<!-- Title: UIManager::toggleGroupVisibility Pages: 1 -->
<!--zoomable 66 -->
<svg id="main" version="1.1" xmlns="http://www.w3.org/2000/svg" xmlns:xlink="http://www.w3.org/1999/xlink" xml:space="preserve" onload="init(evt)">
<style type="text/css"><![CDATA[
.edge:hover path { stroke: red; }
.edge:hover polygon { stroke: red; fill: red; }
]]></style>
<script type="text/javascript"><![CDATA[
var edges = document.getElementsByTagName('g');
if (edges && edges.length) {
  for (var i=0;i<edges.length;i++) {
    if (edges[i].id.substr(0,4)=='edge') {
      edges[i].setAttribute('class','edge');
    }
  }
}
]]></script>
        <defs>
                <circle id="rim" cx="0" cy="0" r="7"/>
                <circle id="rim2" cx="0" cy="0" r="3.5"/>
                <g id="zoomPlus">
                        <use xlink:href="#rim" fill="#404040">
                                <set attributeName="fill" to="#808080" begin="zoomplus.mouseover" end="zoomplus.mouseout"/>
                        </use>
                        <path d="M-4,0h8M0,-4v8" fill="none" stroke="white" stroke-width="1.5" pointer-events="none"/>
                </g>
                <g id="zoomMin">
                        <use xlink:href="#rim" fill="#404040">
                                <set attributeName="fill" to="#808080" begin="zoomminus.mouseover" end="zoomminus.mouseout"/>
                        </use>
                        <path d="M-4,0h8" fill="none" stroke="white" stroke-width="1.5" pointer-events="none"/>
                </g>
                <g id="dirArrow">
                        <path fill="none" stroke="white" stroke-width="1.5" d="M0,-3.0v7 M-2.5,-0.5L0,-3.0L2.5,-0.5"/>
                </g>
               <g id="resetDef">
                       <use xlink:href="#rim2" fill="#404040">
                               <set attributeName="fill" to="#808080" begin="reset.mouseover" end="reset.mouseout"/>
                       </use>
               </g>
        </defs>

<script type="text/javascript">
var viewWidth = 900;
var viewHeight = 66;
var sectionId = 'dynsection-33';
</script>
<script xlink:href="svgpan.js"/>
<svg id="graph" class="graph">
<g id="viewport">
<title>UIManager::toggleGroupVisibility</title>
<!-- Node329 -->
<g id="node1" class="node">
<title>Node329</title>
<polygon fill="#bfbfbf" stroke="#000000" points="0,-19.5 0,-38.5 178,-38.5 178,-19.5 0,-19.5"/>
<text text-anchor="middle" x="89" y="-26.5" font-family="Helvetica,sans-Serif" font-size="10.00" fill="#000000">UIManager::toggleGroupVisibility</text>
</g>
<!-- Node330 -->
<g id="node2" class="node">
<title>Node330</title>
<g id="a_node2"><a xlink:href="classEventManager.html#a65ec91fd5016d4f9c4167fb8babed2df" target="_top" xlink:title="EventManager::checkEvents">
<polygon fill="none" stroke="#000000" points="428,-38.5 428,-57.5 582,-57.5 582,-38.5 428,-38.5"/>
<text text-anchor="middle" x="505" y="-45.5" font-family="Helvetica,sans-Serif" font-size="10.00" fill="#000000">EventManager::checkEvents</text>
</a>
</g>
</g>
<!-- Node329&#45;&gt;Node330 -->
<g id="edge1" class="edge">
<title>Node329&#45;&gt;Node330</title>
<path fill="none" stroke="#191970" d="M188.4265,-33.5411C261.8204,-36.8932 360.2752,-41.39 427.7912,-44.4736"/>
<polygon fill="#191970" stroke="#191970" points="188.3917,-30.036 178.2424,-33.076 188.0723,-37.0287 188.3917,-30.036"/>
</g>
<!-- Node334 -->
<g id="node6" class="node">
<title>Node334</title>
<g id="a_node6"><a xlink:href="classUIManager.html#aa78e356fc3b356d790c848319d1c387e" target="_top" xlink:title="UIManager::setCallbackFunctions">
<polygon fill="none" stroke="#000000" points="214,-.5 214,-19.5 392,-19.5 392,-.5 214,-.5"/>
<text text-anchor="middle" x="303" y="-7.5" font-family="Helvetica,sans-Serif" font-size="10.00" fill="#000000">UIManager::setCallbackFunctions</text>
</a>
</g>
</g>
<!-- Node329&#45;&gt;Node334 -->
<g id="edge5" class="edge">
<title>Node329&#45;&gt;Node334</title>
<path fill="none" stroke="#191970" d="M188.2299,-20.1899C196.8066,-19.4284 205.4503,-18.661 213.9388,-17.9073"/>
<polygon fill="#191970" stroke="#191970" points="187.8569,-16.7091 178.2057,-21.0799 188.476,-23.6817 187.8569,-16.7091"/>
</g>
<!-- Node331 -->
<g id="node3" class="node">
<title>Node331</title>
<g id="a_node3"><a xlink:href="classGame.html#a1c2ab25d5216b2f4b2fe41efd2c09114" target="_top" xlink:title="begins the game starts running the game ">
<polygon fill="none" stroke="#000000" points="618,-19.5 618,-38.5 686,-38.5 686,-19.5 618,-19.5"/>
<text text-anchor="middle" x="652" y="-26.5" font-family="Helvetica,sans-Serif" font-size="10.00" fill="#000000">Game::run</text>
</a>
</g>
</g>
<!-- Node330&#45;&gt;Node331 -->
<g id="edge2" class="edge">
<title>Node330&#45;&gt;Node331</title>
<path fill="none" stroke="#191970" d="M589.0861,-37.1317C599.1799,-35.8271 609.0017,-34.5576 617.7683,-33.4245"/>
<polygon fill="#191970" stroke="#191970" points="588.3995,-33.6913 578.9307,-38.4443 589.2968,-40.6335 588.3995,-33.6913"/>
</g>
<!-- Node332 -->
<g id="node4" class="node">
<title>Node332</title>
<g id="a_node4"><a xlink:href="main_8cxx.html#af582d708d899e67ead623eac34a22387" target="_top" xlink:title="protected_main">
<polygon fill="none" stroke="#000000" points="722,-19.5 722,-38.5 815,-38.5 815,-19.5 722,-19.5"/>
<text text-anchor="middle" x="768.5" y="-26.5" font-family="Helvetica,sans-Serif" font-size="10.00" fill="#000000">protected_main</text>
</a>
</g>
</g>
<!-- Node331&#45;&gt;Node332 -->
<g id="edge3" class="edge">
<title>Node331&#45;&gt;Node332</title>
<path fill="none" stroke="#191970" d="M696.2653,-29C704.5757,-29 713.2897,-29 721.6749,-29"/>
<polygon fill="#191970" stroke="#191970" points="696.0098,-25.5001 686.0098,-29 696.0098,-32.5001 696.0098,-25.5001"/>
</g>
<!-- Node333 -->
<g id="node5" class="node">
<title>Node333</title>
<g id="a_node5"><a xlink:href="main_8cxx.html#a3c04138a5bfe5d72780bb7e82a18e627" target="_top" xlink:title="main">
<polygon fill="none" stroke="#000000" points="851,-19.5 851,-38.5 892,-38.5 892,-19.5 851,-19.5"/>
<text text-anchor="middle" x="871.5" y="-26.5" font-family="Helvetica,sans-Serif" font-size="10.00" fill="#000000">main</text>
</a>
</g>
</g>
<!-- Node332&#45;&gt;Node333 -->
<g id="edge4" class="edge">
<title>Node332&#45;&gt;Node333</title>
<path fill="none" stroke="#191970" d="M825.2133,-29C834.4322,-29 843.4259,-29 850.9965,-29"/>
<polygon fill="#191970" stroke="#191970" points="825.1782,-25.5001 815.1782,-29 825.1781,-32.5001 825.1782,-25.5001"/>
</g>
<!-- Node335 -->
<g id="node7" class="node">
<title>Node335</title>
<g id="a_node7"><a xlink:href="classUIManager.html#aedd9d0577af515a852425dfe414b2968" target="_top" xlink:title="Parses the UiLayout.json files and creates UI Elements. ">
<polygon fill="none" stroke="#000000" points="459.5,-.5 459.5,-19.5 550.5,-19.5 550.5,-.5 459.5,-.5"/>
<text text-anchor="middle" x="505" y="-7.5" font-family="Helvetica,sans-Serif" font-size="10.00" fill="#000000">UIManager::init</text>
</a>
</g>
</g>
<!-- Node334&#45;&gt;Node335 -->
<g id="edge6" class="edge">
<title>Node334&#45;&gt;Node335</title>
<path fill="none" stroke="#191970" d="M402.3078,-10C422.3186,-10 442.4179,-10 459.4626,-10"/>
<polygon fill="#191970" stroke="#191970" points="402.1882,-6.5001 392.1881,-10 402.1881,-13.5001 402.1882,-6.5001"/>
</g>
<!-- Node335&#45;&gt;Node331 -->
<g id="edge7" class="edge">
<title>Node335&#45;&gt;Node331</title>
<path fill="none" stroke="#191970" d="M560.7955,-17.2117C579.8726,-19.6774 600.6417,-22.3618 617.535,-24.5453"/>
<polygon fill="#191970" stroke="#191970" points="561.0721,-13.7184 550.7059,-15.9076 560.1747,-20.6606 561.0721,-13.7184"/>
</g>
</g>
</svg>
        <g id="navigator" transform="translate(0 0)" fill="#404254">
                <rect fill="#f2f5e9" fill-opacity="0.5" stroke="#606060" stroke-width=".5" x="0" y="0" width="60" height="60"/>
                <use id="zoomplus" xlink:href="#zoomPlus" x="17" y="9" onmousedown="handleZoom(evt,'in')"/>
                <use id="zoomminus" xlink:href="#zoomMin" x="42" y="9" onmousedown="handleZoom(evt,'out')"/>
                <use id="reset" xlink:href="#resetDef" x="30" y="36" onmousedown="handleReset()"/>
                <g id="arrowUp" xlink:href="#dirArrow" transform="translate(30 24)" onmousedown="handlePan(0,-1)">
                  <use xlink:href="#rim" fill="#404040">
                        <set attributeName="fill" to="#808080" begin="arrowUp.mouseover" end="arrowUp.mouseout"/>
                  </use>
                  <path fill="none" stroke="white" stroke-width="1.5" d="M0,-3.0v7 M-2.5,-0.5L0,-3.0L2.5,-0.5"/>
                </g>
                <g id="arrowRight" xlink:href="#dirArrow" transform="rotate(90) translate(36 -43)" onmousedown="handlePan(1,0)">
                  <use xlink:href="#rim" fill="#404040">
                        <set attributeName="fill" to="#808080" begin="arrowRight.mouseover" end="arrowRight.mouseout"/>
                  </use>
                  <path fill="none" stroke="white" stroke-width="1.5" d="M0,-3.0v7 M-2.5,-0.5L0,-3.0L2.5,-0.5"/>
                </g>
                <g id="arrowDown" xlink:href="#dirArrow" transform="rotate(180) translate(-30 -48)" onmousedown="handlePan(0,1)">
                  <use xlink:href="#rim" fill="#404040">
                        <set attributeName="fill" to="#808080" begin="arrowDown.mouseover" end="arrowDown.mouseout"/>
                  </use>
                  <path fill="none" stroke="white" stroke-width="1.5" d="M0,-3.0v7 M-2.5,-0.5L0,-3.0L2.5,-0.5"/>
                </g>
                <g id="arrowLeft" xlink:href="#dirArrow" transform="rotate(270) translate(-36 17)" onmousedown="handlePan(-1,0)">
                  <use xlink:href="#rim" fill="#404040">
                        <set attributeName="fill" to="#808080" begin="arrowLeft.mouseover" end="arrowLeft.mouseout"/>
                  </use>
                  <path fill="none" stroke="white" stroke-width="1.5" d="M0,-3.0v7 M-2.5,-0.5L0,-3.0L2.5,-0.5"/>
                </g>
        </g>
        <svg viewBox="0 0 15 15" width="100%" height="30px" preserveAspectRatio="xMaxYMin meet">
         <g id="arrow_out" transform="scale(0.3 0.3)">
          <a xlink:href="classUIManager_a23bbbe53c18c31ff1c68c105dfa0dbd3_icgraph_org.svg" target="_base">
           <rect id="button" ry="5" rx="5" y="6" x="6" height="38" width="38"
                fill="#f2f5e9" fill-opacity="0.5" stroke="#606060" stroke-width="1.0"/>
           <path id="arrow"
             d="M 11.500037,31.436501 C 11.940474,20.09759 22.043105,11.32322 32.158766,21.979434 L 37.068811,17.246167 C 37.068811,17.246167 37.088388,32 37.088388,32 L 22.160133,31.978069 C 22.160133,31.978069 26.997745,27.140456 26.997745,27.140456 C 18.528582,18.264221 13.291696,25.230495 11.500037,31.436501 z"
             style="fill:#404040;"/>
          </a>
         </g>
        </svg>
</svg>
