<?xml version="1.0" encoding="UTF-8" standalone="no"?>
<!DOCTYPE svg PUBLIC "-//W3C//DTD SVG 1.1//EN"
 "http://www.w3.org/Graphics/SVG/1.1/DTD/svg11.dtd">
<!-- Generated by graphviz version 2.40.1 (20161225.0304)
 -->
<!-- Title: UIManager::initializeDollarVariables Pages: 1 -->
<svg width="1232pt" height="804pt"
 viewBox="0.00 0.00 1232.00 804.00" xmlns="http://www.w3.org/2000/svg" xmlns:xlink="http://www.w3.org/1999/xlink">
<g id="graph0" class="graph" transform="scale(1 1) rotate(0) translate(4 800)">
<title>UIManager::initializeDollarVariables</title>
<!-- Node183 -->
<g id="node1" class="node">
<title>Node183</title>
<polygon fill="#bfbfbf" stroke="#000000" points="0,-581 0,-611 146,-611 146,-581 0,-581"/>
<text text-anchor="start" x="8" y="-599" font-family="Helvetica,sans-Serif" font-size="10.00" fill="#000000">UIManager::initializeDollar</text>
<text text-anchor="middle" x="73" y="-588" font-family="Helvetica,sans-Serif" font-size="10.00" fill="#000000">Variables</text>
</g>
<!-- Node184 -->
<g id="node2" class="node">
<title>Node184</title>
<g id="a_node2"><a xlink:href="classUIManager.html#a1f663947ee80bfcb9567f82aa5d05607" target="_top" xlink:title="Get all Ui Element objects Returns a container that holds ALL UiElements, even those in buttongroups...">
<polygon fill="none" stroke="#000000" points="192,-776.5 192,-795.5 352,-795.5 352,-776.5 192,-776.5"/>
<text text-anchor="middle" x="272" y="-783.5" font-family="Helvetica,sans-Serif" font-size="10.00" fill="#000000">UIManager::getAllUiElements</text>
</a>
</g>
</g>
<!-- Node183&#45;&gt;Node184 -->
<g id="edge1" class="edge">
<title>Node183&#45;&gt;Node184</title>
<path fill="none" stroke="#191970" d="M78.0557,-611.2133C90.1464,-645.0918 124.1136,-726.9129 182,-767 184.757,-768.9093 187.6673,-770.6332 190.6872,-772.1892"/>
<polygon fill="#191970" stroke="#191970" points="189.4747,-775.481 200.0321,-776.3715 192.3343,-769.0917 189.4747,-775.481"/>
</g>
<!-- Node185 -->
<g id="node3" class="node">
<title>Node185</title>
<g id="a_node3"><a xlink:href="namespaceutils_1_1strings.html#afa781708d9b82cab99d894cf7728ddf1" target="_top" xlink:title="checks if a string starts with a certain substring ">
<polygon fill="none" stroke="#000000" points="205.5,-738.5 205.5,-757.5 338.5,-757.5 338.5,-738.5 205.5,-738.5"/>
<text text-anchor="middle" x="272" y="-745.5" font-family="Helvetica,sans-Serif" font-size="10.00" fill="#000000">utils::strings::startsWith</text>
</a>
</g>
</g>
<!-- Node183&#45;&gt;Node185 -->
<g id="edge2" class="edge">
<title>Node183&#45;&gt;Node185</title>
<path fill="none" stroke="#191970" d="M80.8472,-611.199C96.1968,-639.3015 133.0186,-699.2279 182,-729 186.2133,-731.5609 190.7194,-733.7805 195.3864,-735.7038"/>
<polygon fill="#191970" stroke="#191970" points="194.5557,-739.1258 205.1498,-739.25 196.9455,-732.5463 194.5557,-739.1258"/>
</g>
<!-- Node186 -->
<g id="node4" class="node">
<title>Node186</title>
<g id="a_node4"><a xlink:href="classComboBox.html#a5cf164ba9b28158f7d3f326200b22b9b" target="_top" xlink:title="Clears the element&#39;s text field clears the text field of the comboBox. ">
<polygon fill="none" stroke="#000000" points="222,-700.5 222,-719.5 322,-719.5 322,-700.5 222,-700.5"/>
<text text-anchor="middle" x="272" y="-707.5" font-family="Helvetica,sans-Serif" font-size="10.00" fill="#000000">ComboBox::clear</text>
</a>
</g>
</g>
<!-- Node183&#45;&gt;Node186 -->
<g id="edge3" class="edge">
<title>Node183&#45;&gt;Node186</title>
<path fill="none" stroke="#191970" d="M85.7372,-611.1726C104.5185,-632.4942 141.787,-670.9528 182,-691 191.3143,-695.6434 201.719,-699.154 212.0554,-701.8076"/>
<polygon fill="#191970" stroke="#191970" points="211.3738,-705.2424 221.9067,-704.0982 212.9592,-698.4243 211.3738,-705.2424"/>
</g>
<!-- Node187 -->
<g id="node5" class="node">
<title>Node187</title>
<g id="a_node5"><a xlink:href="classComboBox.html#a0c422945ffd5c8d65bc4d61bd092bece" target="_top" xlink:title="ComboBox::addElement">
<polygon fill="none" stroke="#000000" points="205,-662.5 205,-681.5 339,-681.5 339,-662.5 205,-662.5"/>
<text text-anchor="middle" x="272" y="-669.5" font-family="Helvetica,sans-Serif" font-size="10.00" fill="#000000">ComboBox::addElement</text>
</a>
</g>
</g>
<!-- Node183&#45;&gt;Node187 -->
<g id="edge4" class="edge">
<title>Node183&#45;&gt;Node187</title>
<path fill="none" stroke="#191970" d="M101.0658,-611.159C122.7214,-622.4171 153.6682,-637.5659 182,-648 194.0935,-652.4538 207.3796,-656.4605 219.9437,-659.8669"/>
<polygon fill="#191970" stroke="#191970" points="219.2671,-663.3079 229.8285,-662.467 221.0479,-656.5382 219.2671,-663.3079"/>
</g>
<!-- Node189 -->
<g id="node7" class="node">
<title>Node189</title>
<g id="a_node7"><a xlink:href="classSingleton.html#af5cb1e5749949e2b68416cfb8d378044" target="_top" xlink:title="Get an instance of the singleton. ">
<polygon fill="none" stroke="#000000" points="837,-378 837,-408 950,-408 950,-378 837,-378"/>
<text text-anchor="start" x="845" y="-396" font-family="Helvetica,sans-Serif" font-size="10.00" fill="#000000">Singleton&lt; Settings</text>
<text text-anchor="middle" x="893.5" y="-385" font-family="Helvetica,sans-Serif" font-size="10.00" fill="#000000"> &gt;::instance</text>
</a>
</g>
</g>
<!-- Node183&#45;&gt;Node189 -->
<g id="edge6" class="edge">
<title>Node183&#45;&gt;Node189</title>
<path fill="none" stroke="#191970" d="M128.1029,-611.0166C253.3968,-641.7856 564.8208,-698.8856 772,-571 831.1636,-534.48 868.4542,-457.1906 884.4529,-417.561"/>
<polygon fill="#191970" stroke="#191970" points="887.7626,-418.7075 888.1473,-408.1197 881.2439,-416.1567 887.7626,-418.7075"/>
</g>
<!-- Node190 -->
<g id="node8" class="node">
<title>Node190</title>
<g id="a_node8"><a xlink:href="classComboBox.html#ad0dba514b01ed2bb3c41c738c80a7d6a" target="_top" xlink:title="Set ID of selected element sets the ID of the selected element in the comboBox. ">
<polygon fill="none" stroke="#000000" points="624,-542.5 624,-561.5 756,-561.5 756,-542.5 624,-542.5"/>
<text text-anchor="middle" x="690" y="-549.5" font-family="Helvetica,sans-Serif" font-size="10.00" fill="#000000">ComboBox::setActiveID</text>
</a>
</g>
</g>
<!-- Node183&#45;&gt;Node190 -->
<g id="edge7" class="edge">
<title>Node183&#45;&gt;Node190</title>
<path fill="none" stroke="#191970" d="M146.0365,-597.1067C243.5397,-597.6977 421.4382,-595.6769 572,-577 595.6812,-574.0624 621.6606,-568.7865 643.1999,-563.8361"/>
<polygon fill="#191970" stroke="#191970" points="644.1369,-567.2114 653.0727,-561.5191 642.5375,-560.3965 644.1369,-567.2114"/>
</g>
<!-- Node191 -->
<g id="node9" class="node">
<title>Node191</title>
<g id="a_node9"><a xlink:href="classComboBox.html#a6c15ed04bb4eee2130939e9e2045a5eb" target="_top" xlink:title="ComboBox::count">
<polygon fill="none" stroke="#000000" points="220.5,-510.5 220.5,-529.5 323.5,-529.5 323.5,-510.5 220.5,-510.5"/>
<text text-anchor="middle" x="272" y="-517.5" font-family="Helvetica,sans-Serif" font-size="10.00" fill="#000000">ComboBox::count</text>
</a>
</g>
</g>
<!-- Node183&#45;&gt;Node191 -->
<g id="edge8" class="edge">
<title>Node183&#45;&gt;Node191</title>
<path fill="none" stroke="#191970" d="M101.0658,-580.841C122.7214,-569.5829 153.6682,-554.4341 182,-544 194.0935,-539.5462 207.3796,-535.5395 219.9437,-532.1331"/>
<polygon fill="#191970" stroke="#191970" points="221.0479,-535.4618 229.8285,-529.533 219.2671,-528.6921 221.0479,-535.4618"/>
</g>
<!-- Node192 -->
<g id="node10" class="node">
<title>Node192</title>
<g id="a_node10"><a xlink:href="classComboBox.html#abcaec38988ca3a571907d33ddb84c5a6" target="_top" xlink:title="ComboBox::registerCallback\lFunction">
<polygon fill="none" stroke="#000000" points="407.5,-537 407.5,-567 562.5,-567 562.5,-537 407.5,-537"/>
<text text-anchor="start" x="415.5" y="-555" font-family="Helvetica,sans-Serif" font-size="10.00" fill="#000000">ComboBox::registerCallback</text>
<text text-anchor="middle" x="485" y="-544" font-family="Helvetica,sans-Serif" font-size="10.00" fill="#000000">Function</text>
</a>
</g>
</g>
<!-- Node183&#45;&gt;Node192 -->
<g id="edge10" class="edge">
<title>Node183&#45;&gt;Node192</title>
<path fill="none" stroke="#191970" d="M146.2546,-586.2945C158.1946,-584.7979 170.4363,-583.3148 182,-582 254.3658,-573.772 336.6038,-565.7108 397.1262,-560.0202"/>
<polygon fill="#191970" stroke="#191970" points="397.7762,-563.4747 407.406,-559.0568 397.123,-556.5053 397.7762,-563.4747"/>
</g>
<!-- Node193 -->
<g id="node11" class="node">
<title>Node193</title>
<g id="a_node11"><a xlink:href="namespaceSignal.html#a6e0df6c5db8c544e147a57b4d89171ca" target="_top" xlink:title="This function creates a std::function by binding object to the member function pointer method...">
<polygon fill="none" stroke="#000000" points="236.5,-472.5 236.5,-491.5 307.5,-491.5 307.5,-472.5 236.5,-472.5"/>
<text text-anchor="middle" x="272" y="-479.5" font-family="Helvetica,sans-Serif" font-size="10.00" fill="#000000">Signal::slot</text>
</a>
</g>
</g>
<!-- Node183&#45;&gt;Node193 -->
<g id="edge11" class="edge">
<title>Node183&#45;&gt;Node193</title>
<path fill="none" stroke="#191970" d="M85.7372,-580.8274C104.5185,-559.5058 141.787,-521.0472 182,-501 195.7023,-494.169 211.7646,-489.7897 226.4973,-486.9838"/>
<polygon fill="#191970" stroke="#191970" points="227.1731,-490.4191 236.4391,-485.2818 225.9919,-483.5195 227.1731,-490.4191"/>
</g>
<!-- Node194 -->
<g id="node12" class="node">
<title>Node194</title>
<g id="a_node12"><a xlink:href="classUIManager.html#a3ccb2fc669262f18ebdcdf3d5c43a3e8" target="_top" xlink:title="CallbackFunction that sets the Build Menu Position Used as callback function for the ComboBox that ho...">
<polygon fill="none" stroke="#000000" points="182,-434.5 182,-453.5 362,-453.5 362,-434.5 182,-434.5"/>
<text text-anchor="middle" x="272" y="-441.5" font-family="Helvetica,sans-Serif" font-size="10.00" fill="#000000">UIManager::setBuildMenuPosition</text>
</a>
</g>
</g>
<!-- Node183&#45;&gt;Node194 -->
<g id="edge12" class="edge">
<title>Node183&#45;&gt;Node194</title>
<path fill="none" stroke="#191970" d="M80.8472,-580.801C96.1968,-552.6985 133.0186,-492.7721 182,-463 185.6077,-460.8071 189.4302,-458.8645 193.3845,-457.1439"/>
<polygon fill="#191970" stroke="#191970" points="194.7342,-460.3748 202.8116,-453.5187 192.2217,-453.8413 194.7342,-460.3748"/>
</g>
<!-- Node212 -->
<g id="node30" class="node">
<title>Node212</title>
<g id="a_node30"><a xlink:href="classUIManager.html#ac927e1cd3dea979202ea9dbf1195b583" target="_top" xlink:title="UIManager::changeResolution">
<polygon fill="none" stroke="#000000" points="191.5,-396.5 191.5,-415.5 352.5,-415.5 352.5,-396.5 191.5,-396.5"/>
<text text-anchor="middle" x="272" y="-403.5" font-family="Helvetica,sans-Serif" font-size="10.00" fill="#000000">UIManager::changeResolution</text>
</a>
</g>
</g>
<!-- Node183&#45;&gt;Node212 -->
<g id="edge41" class="edge">
<title>Node183&#45;&gt;Node212</title>
<path fill="none" stroke="#191970" d="M78.0557,-580.7867C90.1464,-546.9082 124.1136,-465.0871 182,-425 184.757,-423.0907 187.6673,-421.3668 190.6872,-419.8108"/>
<polygon fill="#191970" stroke="#191970" points="192.3343,-422.9083 200.0321,-415.6285 189.4747,-416.519 192.3343,-422.9083"/>
</g>
<!-- Node188 -->
<g id="node6" class="node">
<title>Node188</title>
<g id="a_node6"><a xlink:href="classComboBox.html#aa344838cace46be94ba0cad37700b9ec" target="_top" xlink:title="ComboBox::centerTextLabel">
<polygon fill="none" stroke="#000000" points="408.5,-662.5 408.5,-681.5 561.5,-681.5 561.5,-662.5 408.5,-662.5"/>
<text text-anchor="middle" x="485" y="-669.5" font-family="Helvetica,sans-Serif" font-size="10.00" fill="#000000">ComboBox::centerTextLabel</text>
</a>
</g>
</g>
<!-- Node187&#45;&gt;Node188 -->
<g id="edge5" class="edge">
<title>Node187&#45;&gt;Node188</title>
<path fill="none" stroke="#191970" d="M339.1022,-672C357.7937,-672 378.3699,-672 398.0271,-672"/>
<polygon fill="#191970" stroke="#191970" points="398.208,-675.5001 408.2079,-672 398.2079,-668.5001 398.208,-675.5001"/>
</g>
<!-- Node191&#45;&gt;Node192 -->
<g id="edge9" class="edge">
<title>Node191&#45;&gt;Node192</title>
<path fill="none" stroke="#191970" d="M323.5614,-527.7463C345.7347,-531.0775 372.2833,-535.066 397.3857,-538.8373"/>
<polygon fill="#191970" stroke="#191970" points="396.8832,-542.301 407.2922,-540.3256 397.9232,-535.3787 396.8832,-542.301"/>
</g>
<!-- Node194&#45;&gt;Node189 -->
<g id="edge13" class="edge">
<title>Node194&#45;&gt;Node189</title>
<path fill="none" stroke="#191970" d="M362.1815,-443.3953C462.8949,-445.7881 630.374,-448.3139 772,-424 790.2827,-420.8613 809.5702,-415.5121 827.2602,-410.0419"/>
<polygon fill="#191970" stroke="#191970" points="828.4204,-413.3461 836.9071,-407.0037 826.3175,-406.6694 828.4204,-413.3461"/>
</g>
<!-- Node194&#45;&gt;Node189 -->
<g id="edge19" class="edge">
<title>Node194&#45;&gt;Node189</title>
<path fill="none" stroke="#191970" d="M326.514,-453.5129C418.9444,-462.6788 611.9754,-469.4725 772,-442 804.4616,-436.4271 840.0906,-423.8858 864.3216,-412.5708"/>
<polygon fill="#191970" stroke="#191970" points="865.8985,-415.6957 873.3345,-408.1488 862.8151,-409.4114 865.8985,-415.6957"/>
</g>
<!-- Node195 -->
<g id="node13" class="node">
<title>Node195</title>
<g id="a_node13"><a xlink:href="classComboBox.html#afddbdfd25efa15206eb724b641665cfc" target="_top" xlink:title="Get ID of selected element returns the ID of the selected element in the comboBox. ">
<polygon fill="none" stroke="#000000" points="418.5,-498.5 418.5,-517.5 551.5,-517.5 551.5,-498.5 418.5,-498.5"/>
<text text-anchor="middle" x="485" y="-505.5" font-family="Helvetica,sans-Serif" font-size="10.00" fill="#000000">ComboBox::getActiveID</text>
</a>
</g>
</g>
<!-- Node194&#45;&gt;Node195 -->
<g id="edge14" class="edge">
<title>Node194&#45;&gt;Node195</title>
<path fill="none" stroke="#191970" d="M330.8876,-453.5956C341.4208,-456.1079 352.1661,-459.2077 362,-463 379.2827,-469.6649 380.929,-476.8102 398,-484 408.7216,-488.5156 420.5425,-492.4308 431.9231,-495.7139"/>
<polygon fill="#191970" stroke="#191970" points="431.2012,-499.1455 441.7722,-498.4356 433.0658,-492.3984 431.2012,-499.1455"/>
</g>
<!-- Node196 -->
<g id="node14" class="node">
<title>Node196</title>
<g id="a_node14"><a xlink:href="classUIManager.html#af885d42286536573cd418ed008abfc07" target="_top" xlink:title="UIManager::setBuildMenuLayout">
<polygon fill="none" stroke="#000000" points="398,-404.5 398,-423.5 572,-423.5 572,-404.5 398,-404.5"/>
<text text-anchor="middle" x="485" y="-411.5" font-family="Helvetica,sans-Serif" font-size="10.00" fill="#000000">UIManager::setBuildMenuLayout</text>
</a>
</g>
</g>
<!-- Node194&#45;&gt;Node196 -->
<g id="edge16" class="edge">
<title>Node194&#45;&gt;Node196</title>
<path fill="none" stroke="#191970" d="M339.6872,-434.4666C361.2371,-431.4314 385.2432,-428.0503 407.4354,-424.9246"/>
<polygon fill="#191970" stroke="#191970" points="408.0748,-428.3692 417.4889,-423.5086 407.0985,-421.4376 408.0748,-428.3692"/>
</g>
<!-- Node199 -->
<g id="node17" class="node">
<title>Node199</title>
<g id="a_node17"><a xlink:href="classLayout.html#afa734c5af10f59f3dadb066054fe81ab" target="_top" xlink:title="Arrange the layout elements. ">
<polygon fill="none" stroke="#000000" points="415.5,-209.5 415.5,-228.5 554.5,-228.5 554.5,-209.5 415.5,-209.5"/>
<text text-anchor="middle" x="485" y="-216.5" font-family="Helvetica,sans-Serif" font-size="10.00" fill="#000000">Layout::arrangeElements</text>
</a>
</g>
</g>
<!-- Node194&#45;&gt;Node199 -->
<g id="edge20" class="edge">
<title>Node194&#45;&gt;Node199</title>
<path fill="none" stroke="#191970" d="M344.5404,-434.3591C350.7426,-431.88 356.6723,-428.8058 362,-425 429.2061,-376.9917 466.0935,-279.771 479.3108,-238.372"/>
<polygon fill="#191970" stroke="#191970" points="482.6955,-239.2729 482.2918,-228.6858 476.0051,-237.2139 482.6955,-239.2729"/>
</g>
<!-- Node195&#45;&gt;Node190 -->
<g id="edge15" class="edge">
<title>Node195&#45;&gt;Node190</title>
<path fill="none" stroke="#191970" d="M529.4819,-517.5473C560.6437,-524.2357 602.4729,-533.2137 635.6185,-540.3279"/>
<polygon fill="#191970" stroke="#191970" points="635.093,-543.7947 645.6049,-542.4713 636.5621,-536.9506 635.093,-543.7947"/>
</g>
<!-- Node197 -->
<g id="node15" class="node">
<title>Node197</title>
<g id="a_node15"><a xlink:href="namespaceutils_1_1strings.html#a1460a4e19b93604e32bb76f8407c4221" target="_top" xlink:title="checks if a string ends with a certain substring ">
<polygon fill="none" stroke="#000000" points="626,-404.5 626,-423.5 754,-423.5 754,-404.5 626,-404.5"/>
<text text-anchor="middle" x="690" y="-411.5" font-family="Helvetica,sans-Serif" font-size="10.00" fill="#000000">utils::strings::endsWith</text>
</a>
</g>
</g>
<!-- Node196&#45;&gt;Node197 -->
<g id="edge17" class="edge">
<title>Node196&#45;&gt;Node197</title>
<path fill="none" stroke="#191970" d="M572.2357,-414C586.7049,-414 601.5891,-414 615.7001,-414"/>
<polygon fill="#191970" stroke="#191970" points="615.8215,-417.5001 625.8215,-414 615.8215,-410.5001 615.8215,-417.5001"/>
</g>
<!-- Node198 -->
<g id="node16" class="node">
<title>Node198</title>
<g id="a_node16"><a xlink:href="namespaceutils_1_1strings.html#ab8a6e07e519cb0ee76d762fe635901c1" target="_top" xlink:title="Erase First Occurrence of given substring from main string. ">
<polygon fill="none" stroke="#000000" points="621,-355 621,-385 759,-385 759,-355 621,-355"/>
<text text-anchor="start" x="629" y="-373" font-family="Helvetica,sans-Serif" font-size="10.00" fill="#000000">utils::strings::removeSub</text>
<text text-anchor="middle" x="690" y="-362" font-family="Helvetica,sans-Serif" font-size="10.00" fill="#000000">String</text>
</a>
</g>
</g>
<!-- Node196&#45;&gt;Node198 -->
<g id="edge18" class="edge">
<title>Node196&#45;&gt;Node198</title>
<path fill="none" stroke="#191970" d="M529.4819,-404.4527C553.1844,-399.3653 583.0587,-392.9533 610.5889,-387.0443"/>
<polygon fill="#191970" stroke="#191970" points="611.5669,-390.4142 620.6098,-384.8935 610.0979,-383.5701 611.5669,-390.4142"/>
</g>
<!-- Node199&#45;&gt;Node189 -->
<g id="edge28" class="edge">
<title>Node199&#45;&gt;Node189</title>
<path fill="none" stroke="#191970" d="M495.6385,-228.7152C515.9318,-246.7197 562.2386,-285.3143 608,-306 676.2705,-336.8606 700.5331,-322.5119 772,-345 798.2182,-353.2499 826.8414,-364.4457 849.7171,-373.9494"/>
<polygon fill="#191970" stroke="#191970" points="848.57,-377.2636 859.1454,-377.9053 851.2783,-370.8088 848.57,-377.2636"/>
</g>
<!-- Node200 -->
<g id="node18" class="node">
<title>Node200</title>
<g id="a_node18"><a xlink:href="classWindow.html#a4959f94d75af5e975fb117f5ea0ef077" target="_top" xlink:title="Window::getBounds">
<polygon fill="none" stroke="#000000" points="837,-228.5 837,-247.5 950,-247.5 950,-228.5 837,-228.5"/>
<text text-anchor="middle" x="893.5" y="-235.5" font-family="Helvetica,sans-Serif" font-size="10.00" fill="#000000">Window::getBounds</text>
</a>
</g>
</g>
<!-- Node199&#45;&gt;Node200 -->
<g id="edge21" class="edge">
<title>Node199&#45;&gt;Node200</title>
<path fill="none" stroke="#191970" d="M554.7595,-222.2446C630.8244,-225.7825 751.687,-231.404 826.6044,-234.8886"/>
<polygon fill="#191970" stroke="#191970" points="826.7094,-238.3972 836.8612,-235.3656 827.0347,-231.4047 826.7094,-238.3972"/>
</g>
<!-- Node201 -->
<g id="node19" class="node">
<title>Node201</title>
<g id="a_node19"><a xlink:href="classRectangle.html#a6d7591d194230afb71ac2efcb8fd782f" target="_top" xlink:title="Rectangle::width">
<polygon fill="none" stroke="#000000" points="844.5,-190.5 844.5,-209.5 942.5,-209.5 942.5,-190.5 844.5,-190.5"/>
<text text-anchor="middle" x="893.5" y="-197.5" font-family="Helvetica,sans-Serif" font-size="10.00" fill="#000000">Rectangle::width</text>
</a>
</g>
</g>
<!-- Node199&#45;&gt;Node201 -->
<g id="edge22" class="edge">
<title>Node199&#45;&gt;Node201</title>
<path fill="none" stroke="#191970" d="M554.7595,-215.7554C633.4361,-212.096 760.0393,-206.2075 834.1551,-202.7602"/>
<polygon fill="#191970" stroke="#191970" points="834.4278,-206.2514 844.2543,-202.2905 834.1025,-199.259 834.4278,-206.2514"/>
</g>
<!-- Node203 -->
<g id="node21" class="node">
<title>Node203</title>
<g id="a_node21"><a xlink:href="classRectangle.html#a21cbebe8e941c0c92d7eba0f7badcb6a" target="_top" xlink:title="Rectangle::height">
<polygon fill="none" stroke="#000000" points="843,-152.5 843,-171.5 944,-171.5 944,-152.5 843,-152.5"/>
<text text-anchor="middle" x="893.5" y="-159.5" font-family="Helvetica,sans-Serif" font-size="10.00" fill="#000000">Rectangle::height</text>
</a>
</g>
</g>
<!-- Node199&#45;&gt;Node203 -->
<g id="edge24" class="edge">
<title>Node199&#45;&gt;Node203</title>
<path fill="none" stroke="#191970" d="M553.3737,-209.4595C631.467,-198.5627 758.0599,-180.8986 832.7963,-170.4703"/>
<polygon fill="#191970" stroke="#191970" points="833.567,-173.8967 842.9873,-169.0483 832.5996,-166.9639 833.567,-173.8967"/>
</g>
<!-- Node204 -->
<g id="node22" class="node">
<title>Node204</title>
<g id="a_node22"><a xlink:href="classLayout.html#a79480df6d9dd2d32b23468c05c6ac944" target="_top" xlink:title="Calculates height and width of layout groups. ">
<polygon fill="none" stroke="#000000" points="609,-267 609,-297 771,-297 771,-267 609,-267"/>
<text text-anchor="start" x="617" y="-285" font-family="Helvetica,sans-Serif" font-size="10.00" fill="#000000">Layout::calculateLayoutGroup</text>
<text text-anchor="middle" x="690" y="-274" font-family="Helvetica,sans-Serif" font-size="10.00" fill="#000000">Dimensions</text>
</a>
</g>
</g>
<!-- Node199&#45;&gt;Node204 -->
<g id="edge26" class="edge">
<title>Node199&#45;&gt;Node204</title>
<path fill="none" stroke="#191970" d="M516.1351,-228.5683C546.5698,-237.9214 593.6689,-252.3958 631.1731,-263.9215"/>
<polygon fill="#191970" stroke="#191970" points="630.3918,-267.3429 640.9788,-266.935 632.4482,-260.6517 630.3918,-267.3429"/>
</g>
<!-- Node205 -->
<g id="node23" class="node">
<title>Node205</title>
<g id="a_node23"><a xlink:href="classUIManager.html#a0d32c5b63c4110ff8e43ab06c1c7d761" target="_top" xlink:title="Get the Layoutgroup container Returns the container, that holds LayoutGroups. ">
<polygon fill="none" stroke="#000000" points="808,-.5 808,-19.5 979,-19.5 979,-.5 808,-.5"/>
<text text-anchor="middle" x="893.5" y="-7.5" font-family="Helvetica,sans-Serif" font-size="10.00" fill="#000000">UIManager::getAllLayoutGroups</text>
</a>
</g>
</g>
<!-- Node199&#45;&gt;Node205 -->
<g id="edge29" class="edge">
<title>Node199&#45;&gt;Node205</title>
<path fill="none" stroke="#191970" d="M492.9789,-209.4283C511.2786,-188.0109 558.5185,-135.699 608,-105 678.6001,-61.1987 771.6761,-35.1541 832.0489,-21.7093"/>
<polygon fill="#191970" stroke="#191970" points="833.1616,-25.0491 842.1878,-19.5014 831.6721,-18.2094 833.1616,-25.0491"/>
</g>
<!-- Node206 -->
<g id="node24" class="node">
<title>Node206</title>
<g id="a_node24"><a xlink:href="classLayout.html#a99004e4afcea6a945e3890b19cce6236" target="_top" xlink:title="Arrange Elements that are aligned to a parent This is a seperate function, so it can recurse if a par...">
<polygon fill="none" stroke="#000000" points="608,-114.5 608,-133.5 772,-133.5 772,-114.5 608,-114.5"/>
<text text-anchor="middle" x="690" y="-121.5" font-family="Helvetica,sans-Serif" font-size="10.00" fill="#000000">Layout::arrangeChildElements</text>
</a>
</g>
</g>
<!-- Node199&#45;&gt;Node206 -->
<g id="edge30" class="edge">
<title>Node199&#45;&gt;Node206</title>
<path fill="none" stroke="#191970" d="M499.1805,-209.3008C521.4864,-194.3997 566.5133,-165.7422 608,-148 618.2331,-143.6237 629.5118,-139.7511 640.344,-136.4628"/>
<polygon fill="#191970" stroke="#191970" points="641.5042,-139.7703 650.1237,-133.6095 639.5436,-133.0504 641.5042,-139.7703"/>
</g>
<!-- Node202 -->
<g id="node20" class="node">
<title>Node202</title>
<g id="a_node20"><a xlink:href="classRectangle.html#ace89ac3a7085543f3f60449fb5cdc8af" target="_top" xlink:title="Rectangle::isEmpty">
<polygon fill="none" stroke="#000000" points="1064.5,-171.5 1064.5,-190.5 1174.5,-190.5 1174.5,-171.5 1064.5,-171.5"/>
<text text-anchor="middle" x="1119.5" y="-178.5" font-family="Helvetica,sans-Serif" font-size="10.00" fill="#000000">Rectangle::isEmpty</text>
</a>
</g>
</g>
<!-- Node201&#45;&gt;Node202 -->
<g id="edge23" class="edge">
<title>Node201&#45;&gt;Node202</title>
<path fill="none" stroke="#191970" d="M942.5386,-195.8773C975.1501,-193.1356 1018.3591,-189.503 1053.9165,-186.5137"/>
<polygon fill="#191970" stroke="#191970" points="1054.5335,-189.9742 1064.2051,-185.6487 1053.9471,-182.9988 1054.5335,-189.9742"/>
</g>
<!-- Node203&#45;&gt;Node202 -->
<g id="edge25" class="edge">
<title>Node203&#45;&gt;Node202</title>
<path fill="none" stroke="#191970" d="M944.2188,-166.264C976.6738,-168.9925 1019.0969,-172.559 1054.078,-175.4999"/>
<polygon fill="#191970" stroke="#191970" points="1053.9448,-179.001 1064.2029,-176.3511 1054.5313,-172.0256 1053.9448,-179.001"/>
</g>
<!-- Node204&#45;&gt;Node189 -->
<g id="edge27" class="edge">
<title>Node204&#45;&gt;Node189</title>
<path fill="none" stroke="#191970" d="M737.2151,-297.1044C748.8189,-301.4034 761.0491,-306.4461 772,-312 805.8301,-329.1575 841.62,-353.9291 865.5223,-371.5532"/>
<polygon fill="#191970" stroke="#191970" points="863.655,-374.5266 873.7648,-377.6955 867.8378,-368.9137 863.655,-374.5266"/>
</g>
<!-- Node206&#45;&gt;Node189 -->
<g id="edge34" class="edge">
<title>Node206&#45;&gt;Node189</title>
<path fill="none" stroke="#191970" d="M697.2427,-133.5739C726.0749,-171.6862 833.1903,-313.2786 875.8268,-369.6384"/>
<polygon fill="#191970" stroke="#191970" points="873.2698,-372.0597 882.0943,-377.9231 878.8523,-367.8365 873.2698,-372.0597"/>
</g>
<!-- Node206&#45;&gt;Node200 -->
<g id="edge31" class="edge">
<title>Node206&#45;&gt;Node200</title>
<path fill="none" stroke="#191970" d="M698.7517,-133.5277C717.0544,-152.8406 761.5442,-196.6594 808,-219 813.9846,-221.878 820.4156,-224.327 826.9665,-226.4096"/>
<polygon fill="#191970" stroke="#191970" points="826.0329,-229.783 836.612,-229.2061 827.9821,-223.0599 826.0329,-229.783"/>
</g>
<!-- Node206&#45;&gt;Node201 -->
<g id="edge32" class="edge">
<title>Node206&#45;&gt;Node201</title>
<path fill="none" stroke="#191970" d="M706.6687,-133.5844C729.0586,-146.0964 770.3903,-167.9354 808,-181 816.349,-183.9002 825.3144,-186.4629 834.1859,-188.6919"/>
<polygon fill="#191970" stroke="#191970" points="833.5847,-192.1467 844.1244,-191.0669 835.2117,-185.3384 833.5847,-192.1467"/>
</g>
<!-- Node206&#45;&gt;Node203 -->
<g id="edge33" class="edge">
<title>Node206&#45;&gt;Node203</title>
<path fill="none" stroke="#191970" d="M741.089,-133.54C768.893,-138.7319 803.4728,-145.189 832.6628,-150.6397"/>
<polygon fill="#191970" stroke="#191970" points="832.2703,-154.1269 842.7429,-152.522 833.5553,-147.2458 832.2703,-154.1269"/>
</g>
<!-- Node206&#45;&gt;Node205 -->
<g id="edge37" class="edge">
<title>Node206&#45;&gt;Node205</title>
<path fill="none" stroke="#191970" d="M703.3624,-114.4947C719.843,-102.6365 748.5533,-81.5362 772,-62 788.6753,-48.1059 788.7508,-39.0289 808,-29 812.5197,-26.6452 817.3214,-24.5814 822.2539,-22.7726"/>
<polygon fill="#191970" stroke="#191970" points="823.4631,-26.0593 831.8607,-19.5993 821.2675,-19.4125 823.4631,-26.0593"/>
</g>
<!-- Node207 -->
<g id="node25" class="node">
<title>Node207</title>
<g id="a_node25"><a xlink:href="classUIManager.html#aa5b6dbe1a9d5c50b588c55e9c9673f58" target="_top" xlink:title="Get the Ui Element By ID Finds and returns an UiElement by its elementID parameter. ">
<polygon fill="none" stroke="#000000" points="811,-114.5 811,-133.5 976,-133.5 976,-114.5 811,-114.5"/>
<text text-anchor="middle" x="893.5" y="-121.5" font-family="Helvetica,sans-Serif" font-size="10.00" fill="#000000">UIManager::getUiElementByID</text>
</a>
</g>
</g>
<!-- Node206&#45;&gt;Node207 -->
<g id="edge35" class="edge">
<title>Node206&#45;&gt;Node207</title>
<path fill="none" stroke="#191970" d="M772.1847,-124C781.5007,-124 791.0441,-124 800.4865,-124"/>
<polygon fill="#191970" stroke="#191970" points="800.6772,-127.5001 810.6772,-124 800.6771,-120.5001 800.6772,-127.5001"/>
</g>
<!-- Node208 -->
<g id="node26" class="node">
<title>Node208</title>
<g id="a_node26"><a xlink:href="classUIElement.html#a6451228b4c9bc058d69e4d4f2b03c719" target="_top" xlink:title="UIElement::getUiElementData">
<polygon fill="none" stroke="#000000" points="811.5,-76.5 811.5,-95.5 975.5,-95.5 975.5,-76.5 811.5,-76.5"/>
<text text-anchor="middle" x="893.5" y="-83.5" font-family="Helvetica,sans-Serif" font-size="10.00" fill="#000000">UIElement::getUiElementData</text>
</a>
</g>
</g>
<!-- Node206&#45;&gt;Node208 -->
<g id="edge36" class="edge">
<title>Node206&#45;&gt;Node208</title>
<path fill="none" stroke="#191970" d="M741.089,-114.46C768.7877,-109.2878 803.211,-102.8599 832.3309,-97.4222"/>
<polygon fill="#191970" stroke="#191970" points="833.2024,-100.8201 842.39,-95.5439 831.9174,-93.939 833.2024,-100.8201"/>
</g>
<!-- Node209 -->
<g id="node27" class="node">
<title>Node209</title>
<g id="a_node27"><a xlink:href="classUIElement.html#ad1c0d7431b71bdd9a3704a6d5c8a4643" target="_top" xlink:title="Get the position and the size of this ui element Gets the position and the size of this ui element...">
<polygon fill="none" stroke="#000000" points="813,-38.5 813,-57.5 974,-57.5 974,-38.5 813,-38.5"/>
<text text-anchor="middle" x="893.5" y="-45.5" font-family="Helvetica,sans-Serif" font-size="10.00" fill="#000000">UIElement::getUiElementRect</text>
</a>
</g>
</g>
<!-- Node206&#45;&gt;Node209 -->
<g id="edge38" class="edge">
<title>Node206&#45;&gt;Node209</title>
<path fill="none" stroke="#191970" d="M706.6687,-114.4156C729.0586,-101.9036 770.3903,-80.0646 808,-67 815.5568,-64.375 823.6185,-62.0265 831.6585,-59.9517"/>
<polygon fill="#191970" stroke="#191970" points="832.5416,-63.3389 841.4193,-57.5564 830.8733,-56.5406 832.5416,-63.3389"/>
</g>
<!-- Node210 -->
<g id="node28" class="node">
<title>Node210</title>
<g id="a_node28"><a xlink:href="classUIElement.html#aa7f624963eaeb31043d74219ee24386c" target="_top" xlink:title="Checks if the mouse cursor is over the current UI Element Check if the coordinates match the ones sto...">
<polygon fill="none" stroke="#000000" points="1051,-19.5 1051,-38.5 1188,-38.5 1188,-19.5 1051,-19.5"/>
<text text-anchor="middle" x="1119.5" y="-26.5" font-family="Helvetica,sans-Serif" font-size="10.00" fill="#000000">UIElement::isMouseOver</text>
</a>
</g>
</g>
<!-- Node209&#45;&gt;Node210 -->
<g id="edge39" class="edge">
<title>Node209&#45;&gt;Node210</title>
<path fill="none" stroke="#191970" d="M974.134,-41.221C995.802,-39.3994 1019.204,-37.432 1040.7673,-35.6191"/>
<polygon fill="#191970" stroke="#191970" points="1041.1881,-39.0962 1050.8597,-34.7706 1040.6016,-32.1208 1041.1881,-39.0962"/>
</g>
<!-- Node211 -->
<g id="node29" class="node">
<title>Node211</title>
<g id="a_node29"><a xlink:href="classUIElement.html#a570841bf8b7970ca935b1a00e571036a" target="_top" xlink:title="Handling for the hovering event Check, if the mouse cursor is hovering over the element. virtual function to provide custom handling if necessary (e.g. Combobox) Per default, it&#39;s the same implementation as isMouseOver. ">
<polygon fill="none" stroke="#000000" points="1015,-57.5 1015,-76.5 1224,-76.5 1224,-57.5 1015,-57.5"/>
<text text-anchor="middle" x="1119.5" y="-64.5" font-family="Helvetica,sans-Serif" font-size="10.00" fill="#000000">UIElement::isMouseOverHoverableArea</text>
</a>
</g>
</g>
<!-- Node209&#45;&gt;Node211 -->
<g id="edge40" class="edge">
<title>Node209&#45;&gt;Node211</title>
<path fill="none" stroke="#191970" d="M974.134,-54.779C984.0217,-55.6102 994.2705,-56.4719 1004.5409,-57.3353"/>
<polygon fill="#191970" stroke="#191970" points="1004.5478,-60.8481 1014.8059,-58.1983 1005.1343,-53.8727 1004.5478,-60.8481"/>
</g>
</g>
</svg>
