<?xml version="1.0" encoding="UTF-8" standalone="no"?>
<!DOCTYPE svg PUBLIC "-//W3C//DTD SVG 1.1//EN"
 "http://www.w3.org/Graphics/SVG/1.1/DTD/svg11.dtd">
<!-- Generated by graphviz version 2.40.1 (20161225.0304)
 -->
<!-- Title: PixelBuffer::crop Pages: 1 -->
<svg width="400pt" height="351pt"
 viewBox="0.00 0.00 400.00 351.00" xmlns="http://www.w3.org/2000/svg" xmlns:xlink="http://www.w3.org/1999/xlink">
<g id="graph0" class="graph" transform="scale(1 1) rotate(0) translate(4 347)">
<title>PixelBuffer::crop</title>
<!-- Node24 -->
<g id="node1" class="node">
<title>Node24</title>
<polygon fill="#bfbfbf" stroke="#000000" points="0,-171.5 0,-190.5 97,-190.5 97,-171.5 0,-171.5"/>
<text text-anchor="middle" x="48.5" y="-178.5" font-family="Helvetica,sans-Serif" font-size="10.00" fill="#000000">PixelBuffer::crop</text>
</g>
<!-- Node25 -->
<g id="node2" class="node">
<title>Node25</title>
<g id="a_node2"><a xlink:href="classRectangle.html#a6d7591d194230afb71ac2efcb8fd782f" target="_top" xlink:title="Rectangle::width">
<polygon fill="none" stroke="#000000" points="140.5,-323.5 140.5,-342.5 238.5,-342.5 238.5,-323.5 140.5,-323.5"/>
<text text-anchor="middle" x="189.5" y="-330.5" font-family="Helvetica,sans-Serif" font-size="10.00" fill="#000000">Rectangle::width</text>
</a>
</g>
</g>
<!-- Node24&#45;&gt;Node25 -->
<g id="edge1" class="edge">
<title>Node24&#45;&gt;Node25</title>
<path fill="none" stroke="#191970" d="M52.5251,-190.7389C62.6687,-214.1892 91.4659,-274.4051 133,-309 137.6689,-312.8889 143.0607,-316.2359 148.6217,-319.0897"/>
<polygon fill="#191970" stroke="#191970" points="147.4962,-322.4249 158.0427,-323.4352 150.4281,-316.0685 147.4962,-322.4249"/>
</g>
<!-- Node26 -->
<g id="node3" class="node">
<title>Node26</title>
<g id="a_node3"><a xlink:href="classRectangle.html#ace89ac3a7085543f3f60449fb5cdc8af" target="_top" xlink:title="Rectangle::isEmpty">
<polygon fill="none" stroke="#000000" points="282,-266.5 282,-285.5 392,-285.5 392,-266.5 282,-266.5"/>
<text text-anchor="middle" x="337" y="-273.5" font-family="Helvetica,sans-Serif" font-size="10.00" fill="#000000">Rectangle::isEmpty</text>
</a>
</g>
</g>
<!-- Node24&#45;&gt;Node26 -->
<g id="edge11" class="edge">
<title>Node24&#45;&gt;Node26</title>
<path fill="none" stroke="#191970" d="M53.4068,-190.6635C64.3843,-211.0606 93.1274,-258.1024 133,-276 181.4587,-297.7517 243.1547,-294.0171 285.9462,-287.1928"/>
<polygon fill="#191970" stroke="#191970" points="286.5871,-290.6341 295.8567,-285.5034 285.4108,-283.7336 286.5871,-290.6341"/>
</g>
<!-- Node27 -->
<g id="node4" class="node">
<title>Node27</title>
<g id="a_node4"><a xlink:href="classRectangle.html#a4489166815bd21aabea7a321392f1c5a" target="_top" xlink:title="Intersects with another rectangle. ">
<polygon fill="none" stroke="#000000" points="133,-19.5 133,-38.5 246,-38.5 246,-19.5 133,-19.5"/>
<text text-anchor="middle" x="189.5" y="-26.5" font-family="Helvetica,sans-Serif" font-size="10.00" fill="#000000">Rectangle::intersect</text>
</a>
</g>
</g>
<!-- Node24&#45;&gt;Node27 -->
<g id="edge3" class="edge">
<title>Node24&#45;&gt;Node27</title>
<path fill="none" stroke="#191970" d="M51.9687,-171.3857C61.2254,-147.0673 88.8553,-82.5874 133,-48 135.4069,-46.1141 138.0109,-44.4105 140.7344,-42.8722"/>
<polygon fill="#191970" stroke="#191970" points="142.2754,-46.0148 149.7447,-38.5008 139.2198,-39.7168 142.2754,-46.0148"/>
</g>
<!-- Node30 -->
<g id="node7" class="node">
<title>Node30</title>
<g id="a_node7"><a xlink:href="classRectangle.html#ab5d4a97869ade9b36bde39f91cc70275" target="_top" xlink:title="Rectangle::x1">
<polygon fill="none" stroke="#000000" points="148,-209.5 148,-228.5 231,-228.5 231,-209.5 148,-209.5"/>
<text text-anchor="middle" x="189.5" y="-216.5" font-family="Helvetica,sans-Serif" font-size="10.00" fill="#000000">Rectangle::x1</text>
</a>
</g>
</g>
<!-- Node24&#45;&gt;Node30 -->
<g id="edge7" class="edge">
<title>Node24&#45;&gt;Node30</title>
<path fill="none" stroke="#191970" d="M84.0803,-190.589C102.282,-195.4944 124.6384,-201.5196 144.0723,-206.7571"/>
<polygon fill="#191970" stroke="#191970" points="143.3648,-210.1912 153.9311,-209.4141 145.1864,-203.4324 143.3648,-210.1912"/>
</g>
<!-- Node31 -->
<g id="node8" class="node">
<title>Node31</title>
<g id="a_node8"><a xlink:href="classRectangle.html#ac3d78756a3de32e544f49d7b9013a6e9" target="_top" xlink:title="Rectangle::x2">
<polygon fill="none" stroke="#000000" points="148,-171.5 148,-190.5 231,-190.5 231,-171.5 148,-171.5"/>
<text text-anchor="middle" x="189.5" y="-178.5" font-family="Helvetica,sans-Serif" font-size="10.00" fill="#000000">Rectangle::x2</text>
</a>
</g>
</g>
<!-- Node24&#45;&gt;Node31 -->
<g id="edge8" class="edge">
<title>Node24&#45;&gt;Node31</title>
<path fill="none" stroke="#191970" d="M97.0242,-181C110.0985,-181 124.2932,-181 137.5465,-181"/>
<polygon fill="#191970" stroke="#191970" points="137.9342,-184.5001 147.9342,-181 137.9342,-177.5001 137.9342,-184.5001"/>
</g>
<!-- Node32 -->
<g id="node9" class="node">
<title>Node32</title>
<g id="a_node9"><a xlink:href="classRectangle.html#a74a0197166d7dfa4518183939c336247" target="_top" xlink:title="Rectangle::y1">
<polygon fill="none" stroke="#000000" points="148,-133.5 148,-152.5 231,-152.5 231,-133.5 148,-133.5"/>
<text text-anchor="middle" x="189.5" y="-140.5" font-family="Helvetica,sans-Serif" font-size="10.00" fill="#000000">Rectangle::y1</text>
</a>
</g>
</g>
<!-- Node24&#45;&gt;Node32 -->
<g id="edge9" class="edge">
<title>Node24&#45;&gt;Node32</title>
<path fill="none" stroke="#191970" d="M84.0803,-171.411C102.282,-166.5056 124.6384,-160.4804 144.0723,-155.2429"/>
<polygon fill="#191970" stroke="#191970" points="145.1864,-158.5676 153.9311,-152.5859 143.3648,-151.8088 145.1864,-158.5676"/>
</g>
<!-- Node33 -->
<g id="node10" class="node">
<title>Node33</title>
<g id="a_node10"><a xlink:href="classRectangle.html#a8661a64a6a4d5c223f16fef00376aad0" target="_top" xlink:title="Rectangle::y2">
<polygon fill="none" stroke="#000000" points="148,-95.5 148,-114.5 231,-114.5 231,-95.5 148,-95.5"/>
<text text-anchor="middle" x="189.5" y="-102.5" font-family="Helvetica,sans-Serif" font-size="10.00" fill="#000000">Rectangle::y2</text>
</a>
</g>
</g>
<!-- Node24&#45;&gt;Node33 -->
<g id="edge10" class="edge">
<title>Node24&#45;&gt;Node33</title>
<path fill="none" stroke="#191970" d="M60.4583,-171.4002C76.2788,-159.0705 105.3953,-137.6398 133,-124 137.2969,-121.8769 141.8882,-119.9001 146.5268,-118.0862"/>
<polygon fill="#191970" stroke="#191970" points="147.8532,-121.3278 156.0354,-114.597 145.4417,-114.7562 147.8532,-121.3278"/>
</g>
<!-- Node34 -->
<g id="node11" class="node">
<title>Node34</title>
<g id="a_node11"><a xlink:href="classPixelBuffer.html#a77c8da8275f99facfb058488e82700f0" target="_top" xlink:title="Read&#45;only access to pixel data. ">
<polygon fill="none" stroke="#000000" points="137,-57.5 137,-76.5 242,-76.5 242,-57.5 137,-57.5"/>
<text text-anchor="middle" x="189.5" y="-64.5" font-family="Helvetica,sans-Serif" font-size="10.00" fill="#000000">PixelBuffer::pixels</text>
</a>
</g>
</g>
<!-- Node24&#45;&gt;Node34 -->
<g id="edge12" class="edge">
<title>Node24&#45;&gt;Node34</title>
<path fill="none" stroke="#191970" d="M54.4907,-171.432C66.8601,-152.4324 97.0934,-109.7366 133,-86 136.0728,-83.9687 139.3834,-82.1349 142.8062,-80.483"/>
<polygon fill="#191970" stroke="#191970" points="144.2298,-83.6809 152.0425,-76.5245 141.4723,-77.2469 144.2298,-83.6809"/>
</g>
<!-- Node35 -->
<g id="node12" class="node">
<title>Node35</title>
<g id="a_node12"><a xlink:href="classRectangle.html#a21cbebe8e941c0c92d7eba0f7badcb6a" target="_top" xlink:title="Rectangle::height">
<polygon fill="none" stroke="#000000" points="139,-247.5 139,-266.5 240,-266.5 240,-247.5 139,-247.5"/>
<text text-anchor="middle" x="189.5" y="-254.5" font-family="Helvetica,sans-Serif" font-size="10.00" fill="#000000">Rectangle::height</text>
</a>
</g>
</g>
<!-- Node24&#45;&gt;Node35 -->
<g id="edge13" class="edge">
<title>Node24&#45;&gt;Node35</title>
<path fill="none" stroke="#191970" d="M60.4583,-190.5998C76.2788,-202.9295 105.3953,-224.3602 133,-238 137.2969,-240.1231 141.8882,-242.0999 146.5268,-243.9138"/>
<polygon fill="#191970" stroke="#191970" points="145.4417,-247.2438 156.0354,-247.403 147.8532,-240.6722 145.4417,-247.2438"/>
</g>
<!-- Node25&#45;&gt;Node26 -->
<g id="edge2" class="edge">
<title>Node25&#45;&gt;Node26</title>
<path fill="none" stroke="#191970" d="M214.1882,-323.4595C238.4378,-314.0884 275.639,-299.7124 302.7445,-289.2377"/>
<polygon fill="#191970" stroke="#191970" points="304.1652,-292.441 312.2313,-285.5716 301.6419,-285.9116 304.1652,-292.441"/>
</g>
<!-- Node27&#45;&gt;Node26 -->
<g id="edge4" class="edge">
<title>Node27&#45;&gt;Node26</title>
<path fill="none" stroke="#191970" d="M231.6503,-38.5112C236.8995,-40.9802 241.8654,-44.0882 246,-48 307.8013,-106.4721 328.5529,-212.3898 334.6956,-256.205"/>
<polygon fill="#191970" stroke="#191970" points="331.2298,-256.6954 335.9851,-266.1631 338.1718,-255.7964 331.2298,-256.6954"/>
</g>
<!-- Node28 -->
<g id="node5" class="node">
<title>Node28</title>
<g id="a_node5"><a xlink:href="classRectangle.html#aeae19d58b6473a6c4285fe9afe51e688" target="_top" xlink:title="Rectangle::EMPTY">
<polygon fill="none" stroke="#000000" points="285.5,-.5 285.5,-19.5 388.5,-19.5 388.5,-.5 285.5,-.5"/>
<text text-anchor="middle" x="337" y="-7.5" font-family="Helvetica,sans-Serif" font-size="10.00" fill="#000000">Rectangle::EMPTY</text>
</a>
</g>
</g>
<!-- Node27&#45;&gt;Node28 -->
<g id="edge5" class="edge">
<title>Node27&#45;&gt;Node28</title>
<path fill="none" stroke="#191970" d="M246.1055,-21.7084C255.6324,-20.4813 265.5633,-19.202 275.2135,-17.9589"/>
<polygon fill="#191970" stroke="#191970" points="275.6688,-21.4293 285.1396,-16.6803 274.7744,-14.4867 275.6688,-21.4293"/>
</g>
<!-- Node29 -->
<g id="node6" class="node">
<title>Node29</title>
<g id="a_node6"><a xlink:href="isoMath_8hxx.html#ac2ecf6122bf61be6914c02ea6b1dd8ad" target="_top" xlink:title="Clamp value. ">
<polygon fill="none" stroke="#000000" points="313.5,-38.5 313.5,-57.5 360.5,-57.5 360.5,-38.5 313.5,-38.5"/>
<text text-anchor="middle" x="337" y="-45.5" font-family="Helvetica,sans-Serif" font-size="10.00" fill="#000000">clamp</text>
</a>
</g>
</g>
<!-- Node27&#45;&gt;Node29 -->
<g id="edge6" class="edge">
<title>Node27&#45;&gt;Node29</title>
<path fill="none" stroke="#191970" d="M246.1055,-36.2916C265.4817,-38.7875 286.5293,-41.4987 303.4867,-43.683"/>
<polygon fill="#191970" stroke="#191970" points="303.0999,-47.162 313.4651,-44.9684 303.9942,-40.2194 303.0999,-47.162"/>
</g>
<!-- Node35&#45;&gt;Node26 -->
<g id="edge14" class="edge">
<title>Node35&#45;&gt;Node26</title>
<path fill="none" stroke="#191970" d="M240.2611,-263.5387C250.4284,-264.8484 261.2434,-266.2415 271.82,-267.6039"/>
<polygon fill="#191970" stroke="#191970" points="271.4933,-271.0907 281.8585,-268.897 272.3876,-264.148 271.4933,-271.0907"/>
</g>
</g>
</svg>
