<?xml version="1.0" encoding="UTF-8" standalone="no"?>
<!DOCTYPE svg PUBLIC "-//W3C//DTD SVG 1.1//EN"
 "http://www.w3.org/Graphics/SVG/1.1/DTD/svg11.dtd">
<!-- Generated by graphviz version 2.40.1 (20161225.0304)
 -->
<!-- Title: PaddingConfiguration Pages: 1 -->
<svg width="128pt" height="343pt"
 viewBox="0.00 0.00 128.00 343.00" xmlns="http://www.w3.org/2000/svg" xmlns:xlink="http://www.w3.org/1999/xlink">
<g id="graph0" class="graph" transform="scale(1 1) rotate(0) translate(4 339)">
<title>PaddingConfiguration</title>
<!-- Node2 -->
<g id="node1" class="node">
<title>Node2</title>
<polygon fill="#bfbfbf" stroke="#000000" points="0,-.5 0,-57.5 120,-57.5 120,-.5 0,-.5"/>
<text text-anchor="middle" x="60" y="-45.5" font-family="Helvetica,sans-Serif" font-size="10.00" fill="#000000">PaddingConfiguration</text>
<polyline fill="none" stroke="#000000" points="0,-38.5 120,-38.5 "/>
<text text-anchor="middle" x="60" y="-26.5" font-family="Helvetica,sans-Serif" font-size="10.00" fill="#000000"> </text>
<polyline fill="none" stroke="#000000" points="0,-19.5 120,-19.5 "/>
<text text-anchor="middle" x="60" y="-7.5" font-family="Helvetica,sans-Serif" font-size="10.00" fill="#000000"> </text>
</g>
<!-- Node3 -->
<g id="node2" class="node">
<title>Node3</title>
<g id="a_node2"><a xlink:href="structPositionHint.html" target="_top" xlink:title="Represents a hint to the position of a (or multiple) Box. ">
<polygon fill="none" stroke="#000000" points="22,-95.5 22,-152.5 98,-152.5 98,-95.5 22,-95.5"/>
<text text-anchor="middle" x="60" y="-140.5" font-family="Helvetica,sans-Serif" font-size="10.00" fill="#000000">PositionHint</text>
<polyline fill="none" stroke="#000000" points="22,-133.5 98,-133.5 "/>
<text text-anchor="middle" x="60" y="-121.5" font-family="Helvetica,sans-Serif" font-size="10.00" fill="#000000"> </text>
<polyline fill="none" stroke="#000000" points="22,-114.5 98,-114.5 "/>
<text text-anchor="middle" x="60" y="-102.5" font-family="Helvetica,sans-Serif" font-size="10.00" fill="#000000"> </text>
</a>
</g>
</g>
<!-- Node3&#45;&gt;Node2 -->
<g id="edge1" class="edge">
<title>Node3&#45;&gt;Node2</title>
<path fill="none" stroke="#191970" d="M60,-85.3724C60,-76.1627 60,-66.4917 60,-57.8114"/>
<polygon fill="none" stroke="#191970" points="56.5001,-85.4968 60,-95.4969 63.5001,-85.4969 56.5001,-85.4968"/>
</g>
<!-- Node4 -->
<g id="node3" class="node">
<title>Node4</title>
<g id="a_node3"><a xlink:href="structScreenMeasurement.html" target="_top" xlink:title="Represents a measurement made on the screen. ">
<polygon fill="none" stroke="#000000" points="2,-233.5 2,-334.5 118,-334.5 118,-233.5 2,-233.5"/>
<text text-anchor="middle" x="60" y="-322.5" font-family="Helvetica,sans-Serif" font-size="10.00" fill="#000000">ScreenMeasurement</text>
<polyline fill="none" stroke="#000000" points="2,-315.5 118,-315.5 "/>
<text text-anchor="start" x="10" y="-303.5" font-family="Helvetica,sans-Serif" font-size="10.00" fill="#000000">+ px</text>
<text text-anchor="start" x="10" y="-292.5" font-family="Helvetica,sans-Serif" font-size="10.00" fill="#000000">+ ew</text>
<text text-anchor="start" x="10" y="-281.5" font-family="Helvetica,sans-Serif" font-size="10.00" fill="#000000">+ eh</text>
<text text-anchor="start" x="10" y="-270.5" font-family="Helvetica,sans-Serif" font-size="10.00" fill="#000000">+ lw</text>
<text text-anchor="start" x="10" y="-259.5" font-family="Helvetica,sans-Serif" font-size="10.00" fill="#000000">+ lh</text>
<polyline fill="none" stroke="#000000" points="2,-252.5 118,-252.5 "/>
<text text-anchor="start" x="10" y="-240.5" font-family="Helvetica,sans-Serif" font-size="10.00" fill="#000000">+ measure()</text>
</a>
</g>
</g>
<!-- Node4&#45;&gt;Node3 -->
<g id="edge2" class="edge">
<title>Node4&#45;&gt;Node3</title>
<path fill="none" stroke="#404040" d="M60,-233.375C60,-211.388 60,-185.9634 60,-165.1634"/>
<polygon fill="none" stroke="#404040" points="60.0001,-164.8821 56,-158.8822 60,-152.8821 64,-158.8821 60.0001,-164.8821"/>
<text text-anchor="middle" x="83.5" y="-207" font-family="Helvetica,sans-Serif" font-size="10.00" fill="#000000"> +bottom</text>
<text text-anchor="middle" x="83.5" y="-196" font-family="Helvetica,sans-Serif" font-size="10.00" fill="#000000">+top</text>
<text text-anchor="middle" x="83.5" y="-185" font-family="Helvetica,sans-Serif" font-size="10.00" fill="#000000">+right</text>
<text text-anchor="middle" x="83.5" y="-174" font-family="Helvetica,sans-Serif" font-size="10.00" fill="#000000">+left</text>
</g>
</g>
</svg>
