<?xml version="1.0" encoding="UTF-8" standalone="no"?>
<!DOCTYPE svg PUBLIC "-//W3C//DTD SVG 1.1//EN"
 "http://www.w3.org/Graphics/SVG/1.1/DTD/svg11.dtd">
<!-- Generated by graphviz version 2.40.1 (20161225.0304)
 -->
<!-- Title: Camera::cameraOffset Pages: 1 -->
<svg width="1477pt" height="471pt"
 viewBox="0.00 0.00 1477.00 471.02" xmlns="http://www.w3.org/2000/svg" xmlns:xlink="http://www.w3.org/1999/xlink">
<g id="graph0" class="graph" transform="scale(1 1) rotate(0) translate(4 467.0212)">
<title>Camera::cameraOffset</title>
<!-- Node5 -->
<g id="node1" class="node">
<title>Node5</title>
<polygon fill="#bfbfbf" stroke="#000000" points="0,-254.5 0,-273.5 127,-273.5 127,-254.5 0,-254.5"/>
<text text-anchor="middle" x="63.5" y="-261.5" font-family="Helvetica,sans-Serif" font-size="10.00" fill="#000000">Camera::cameraOffset</text>
</g>
<!-- Node6 -->
<g id="node2" class="node">
<title>Node6</title>
<g id="a_node2"><a xlink:href="isoMath_8hxx.html#a0a076d973bc64ffa7859b894793c8000" target="_top" xlink:title="Calculates screen space coordinates to isometric space coordinates. A formula is used to calculate th...">
<polygon fill="none" stroke="#000000" points="181,-360.5 181,-379.5 315,-379.5 315,-360.5 181,-360.5"/>
<text text-anchor="middle" x="248" y="-367.5" font-family="Helvetica,sans-Serif" font-size="10.00" fill="#000000">calculateIsoCoordinates</text>
</a>
</g>
</g>
<!-- Node5&#45;&gt;Node6 -->
<g id="edge1" class="edge">
<title>Node5&#45;&gt;Node6</title>
<path fill="none" stroke="#191970" d="M89.2058,-278.7686C127.5901,-300.8214 198.8293,-341.7501 231.2063,-360.3516"/>
<polygon fill="#191970" stroke="#191970" points="90.613,-275.5406 80.1985,-273.5937 87.1258,-281.6102 90.613,-275.5406"/>
</g>
<!-- Node14 -->
<g id="node10" class="node">
<title>Node14</title>
<g id="a_node10"><a xlink:href="isoMath_8hxx.html#a391008ab09b55454e07562478b3f4103" target="_top" xlink:title="converts coordinates from isometric to screen space The given isometric coordinates (which contain he...">
<polygon fill="none" stroke="#000000" points="163,-186.5 163,-205.5 333,-205.5 333,-186.5 163,-186.5"/>
<text text-anchor="middle" x="248" y="-193.5" font-family="Helvetica,sans-Serif" font-size="10.00" fill="#000000">convertIsoToScreenCoordinates</text>
</a>
</g>
</g>
<!-- Node5&#45;&gt;Node14 -->
<g id="edge9" class="edge">
<title>Node5&#45;&gt;Node14</title>
<path fill="none" stroke="#191970" d="M99.175,-250.8515C135.2112,-237.5698 190.0105,-217.3728 222.0895,-205.5497"/>
<polygon fill="#191970" stroke="#191970" points="97.7156,-247.6591 89.543,-254.4015 100.1364,-254.2272 97.7156,-247.6591"/>
</g>
<!-- Node7 -->
<g id="node3" class="node">
<title>Node7</title>
<g id="a_node3"><a xlink:href="isoMath_8hxx.html#ad3c5f070c4a876bc6e8978635d02ce52" target="_top" xlink:title="converts screen space coordinates to isometric space coordinates. To convert screen coordinates in to...">
<polygon fill="none" stroke="#000000" points="795,-377.5 795,-396.5 965,-396.5 965,-377.5 795,-377.5"/>
<text text-anchor="middle" x="880" y="-384.5" font-family="Helvetica,sans-Serif" font-size="10.00" fill="#000000">convertScreenToIsoCoordinates</text>
</a>
</g>
</g>
<!-- Node6&#45;&gt;Node7 -->
<g id="edge2" class="edge">
<title>Node6&#45;&gt;Node7</title>
<path fill="none" stroke="#191970" d="M266.3626,-386.0163C288.7922,-404.414 328.7424,-433.5353 369,-445 550.1871,-496.599 779.8396,-423.7387 854.9783,-396.5295"/>
<polygon fill="#191970" stroke="#191970" points="268.5692,-383.2989 258.66,-379.5495 264.0682,-388.66 268.5692,-383.2989"/>
</g>
<!-- Node12 -->
<g id="node8" class="node">
<title>Node12</title>
<g id="a_node8"><a xlink:href="classMap.html#a64e71e521c539cf28828be9978c34889" target="_top" xlink:title="Returns the node at given screencoordinates. ">
<polygon fill="none" stroke="#000000" points="369,-383 369,-435 563,-435 563,-383 369,-383"/>
<text text-anchor="start" x="377" y="-423" font-family="Helvetica,sans-Serif" font-size="10.00" fill="#000000">Map&lt; ObserverSPtr&lt;</text>
<text text-anchor="start" x="377" y="-412" font-family="Helvetica,sans-Serif" font-size="10.00" fill="#000000"> Notification &gt;, Set</text>
<text text-anchor="start" x="377" y="-401" font-family="Helvetica,sans-Serif" font-size="10.00" fill="#000000">&lt; typename Notification</text>
<text text-anchor="middle" x="466" y="-390" font-family="Helvetica,sans-Serif" font-size="10.00" fill="#000000">::TransitionType &gt; &gt;::findNodeInMap</text>
</a>
</g>
</g>
<!-- Node6&#45;&gt;Node12 -->
<g id="edge7" class="edge">
<title>Node6&#45;&gt;Node12</title>
<path fill="none" stroke="#191970" d="M311.3967,-381.3416C329.4127,-384.5647 349.4564,-388.1504 368.981,-391.6434"/>
<polygon fill="#191970" stroke="#191970" points="311.7889,-377.8563 301.3288,-379.5405 310.5561,-384.7469 311.7889,-377.8563"/>
</g>
<!-- Node13 -->
<g id="node9" class="node">
<title>Node13</title>
<g id="a_node9"><a xlink:href="classMap.html#af654ddecf0d25b836d7c9c27ee5c2150" target="_top" xlink:title="Map\&lt; ObserverSPtr\&lt;\l Notification \&gt;, Set\l\&lt; typename Notification\l::TransitionType \&gt; \&gt;::calculate\lVisibleMap">
<polygon fill="none" stroke="#000000" points="383.5,-300.5 383.5,-363.5 548.5,-363.5 548.5,-300.5 383.5,-300.5"/>
<text text-anchor="start" x="391.5" y="-351.5" font-family="Helvetica,sans-Serif" font-size="10.00" fill="#000000">Map&lt; ObserverSPtr&lt;</text>
<text text-anchor="start" x="391.5" y="-340.5" font-family="Helvetica,sans-Serif" font-size="10.00" fill="#000000"> Notification &gt;, Set</text>
<text text-anchor="start" x="391.5" y="-329.5" font-family="Helvetica,sans-Serif" font-size="10.00" fill="#000000">&lt; typename Notification</text>
<text text-anchor="start" x="391.5" y="-318.5" font-family="Helvetica,sans-Serif" font-size="10.00" fill="#000000">::TransitionType &gt; &gt;::calculate</text>
<text text-anchor="middle" x="466" y="-307.5" font-family="Helvetica,sans-Serif" font-size="10.00" fill="#000000">VisibleMap</text>
</a>
</g>
</g>
<!-- Node6&#45;&gt;Node13 -->
<g id="edge8" class="edge">
<title>Node6&#45;&gt;Node13</title>
<path fill="none" stroke="#191970" d="M312.6679,-358.7276C334.7849,-354.8723 359.8373,-350.5054 383.1859,-346.4355"/>
<polygon fill="#191970" stroke="#191970" points="311.9796,-355.2947 302.7292,-360.46 313.1817,-362.1907 311.9796,-355.2947"/>
</g>
<!-- Node8 -->
<g id="node4" class="node">
<title>Node8</title>
<g id="a_node4"><a xlink:href="classEventManager.html#a65ec91fd5016d4f9c4167fb8babed2df" target="_top" xlink:title="EventManager::checkEvents">
<polygon fill="none" stroke="#000000" points="1003,-205.5 1003,-224.5 1157,-224.5 1157,-205.5 1003,-205.5"/>
<text text-anchor="middle" x="1080" y="-212.5" font-family="Helvetica,sans-Serif" font-size="10.00" fill="#000000">EventManager::checkEvents</text>
</a>
</g>
</g>
<!-- Node7&#45;&gt;Node8 -->
<g id="edge3" class="edge">
<title>Node7&#45;&gt;Node8</title>
<path fill="none" stroke="#191970" d="M898.9917,-370.6671C940.0518,-335.3555 1036.0241,-252.8193 1068.7983,-224.6335"/>
<polygon fill="#191970" stroke="#191970" points="896.6256,-368.0856 891.3259,-377.2597 901.1899,-373.3929 896.6256,-368.0856"/>
</g>
<!-- Node9 -->
<g id="node5" class="node">
<title>Node9</title>
<g id="a_node5"><a xlink:href="classGame.html#a1c2ab25d5216b2f4b2fe41efd2c09114" target="_top" xlink:title="begins the game starts running the game ">
<polygon fill="none" stroke="#000000" points="1195,-167.5 1195,-186.5 1263,-186.5 1263,-167.5 1195,-167.5"/>
<text text-anchor="middle" x="1229" y="-174.5" font-family="Helvetica,sans-Serif" font-size="10.00" fill="#000000">Game::run</text>
</a>
</g>
</g>
<!-- Node8&#45;&gt;Node9 -->
<g id="edge4" class="edge">
<title>Node8&#45;&gt;Node9</title>
<path fill="none" stroke="#191970" d="M1127.4019,-202.9109C1149.367,-197.3091 1174.9706,-190.7793 1194.9798,-185.6763"/>
<polygon fill="#191970" stroke="#191970" points="1126.4239,-199.5482 1117.599,-205.411 1128.1538,-206.3311 1126.4239,-199.5482"/>
</g>
<!-- Node10 -->
<g id="node6" class="node">
<title>Node10</title>
<g id="a_node6"><a xlink:href="main_8cxx.html#af582d708d899e67ead623eac34a22387" target="_top" xlink:title="protected_main">
<polygon fill="none" stroke="#000000" points="1299,-167.5 1299,-186.5 1392,-186.5 1392,-167.5 1299,-167.5"/>
<text text-anchor="middle" x="1345.5" y="-174.5" font-family="Helvetica,sans-Serif" font-size="10.00" fill="#000000">protected_main</text>
</a>
</g>
</g>
<!-- Node9&#45;&gt;Node10 -->
<g id="edge5" class="edge">
<title>Node9&#45;&gt;Node10</title>
<path fill="none" stroke="#191970" d="M1273.2653,-177C1281.5757,-177 1290.2897,-177 1298.6749,-177"/>
<polygon fill="#191970" stroke="#191970" points="1273.0098,-173.5001 1263.0098,-177 1273.0098,-180.5001 1273.0098,-173.5001"/>
</g>
<!-- Node11 -->
<g id="node7" class="node">
<title>Node11</title>
<g id="a_node7"><a xlink:href="main_8cxx.html#a3c04138a5bfe5d72780bb7e82a18e627" target="_top" xlink:title="main">
<polygon fill="none" stroke="#000000" points="1428,-167.5 1428,-186.5 1469,-186.5 1469,-167.5 1428,-167.5"/>
<text text-anchor="middle" x="1448.5" y="-174.5" font-family="Helvetica,sans-Serif" font-size="10.00" fill="#000000">main</text>
</a>
</g>
</g>
<!-- Node10&#45;&gt;Node11 -->
<g id="edge6" class="edge">
<title>Node10&#45;&gt;Node11</title>
<path fill="none" stroke="#191970" d="M1402.2133,-177C1411.4322,-177 1420.4259,-177 1427.9965,-177"/>
<polygon fill="#191970" stroke="#191970" points="1402.1782,-173.5001 1392.1782,-177 1402.1781,-180.5001 1402.1782,-173.5001"/>
</g>
<!-- Node14&#45;&gt;Node8 -->
<g id="edge21" class="edge">
<title>Node14&#45;&gt;Node8</title>
<path fill="none" stroke="#191970" d="M302.4762,-207.6443C371.2018,-221.6862 493.2048,-244.4657 599,-253 761.2761,-266.0905 803.679,-259.9184 965,-238 989.7147,-234.642 1017.1091,-229.2313 1038.9594,-224.5012"/>
<polygon fill="#191970" stroke="#191970" points="302.8231,-204.1424 292.3228,-205.5539 301.4116,-210.9986 302.8231,-204.1424"/>
</g>
<!-- Node15 -->
<g id="node11" class="node">
<title>Node15</title>
<g id="a_node11"><a xlink:href="classCamera.html#adfb240823ff20b97b69459490dbd8dc3" target="_top" xlink:title="Centers camera on given isometric coordinates. ">
<polygon fill="none" stroke="#000000" points="384.5,-186.5 384.5,-205.5 547.5,-205.5 547.5,-186.5 384.5,-186.5"/>
<text text-anchor="middle" x="466" y="-193.5" font-family="Helvetica,sans-Serif" font-size="10.00" fill="#000000">Camera::centerScreenOnPoint</text>
</a>
</g>
</g>
<!-- Node14&#45;&gt;Node15 -->
<g id="edge10" class="edge">
<title>Node14&#45;&gt;Node15</title>
<path fill="none" stroke="#191970" d="M343.566,-196C357.1851,-196 371.0883,-196 384.4076,-196"/>
<polygon fill="#191970" stroke="#191970" points="343.2211,-192.5001 333.2211,-196 343.2211,-199.5001 343.2211,-192.5001"/>
</g>
<!-- Node20 -->
<g id="node16" class="node">
<title>Node20</title>
<g id="a_node16"><a xlink:href="classSprite.html#abcd3ca18d49d4eef5cfd5955b9975518" target="_top" xlink:title="Sprite::Sprite">
<polygon fill="none" stroke="#000000" points="426,-148.5 426,-167.5 506,-167.5 506,-148.5 426,-148.5"/>
<text text-anchor="middle" x="466" y="-155.5" font-family="Helvetica,sans-Serif" font-size="10.00" fill="#000000">Sprite::Sprite</text>
</a>
</g>
</g>
<!-- Node14&#45;&gt;Node20 -->
<g id="edge22" class="edge">
<title>Node14&#45;&gt;Node20</title>
<path fill="none" stroke="#191970" d="M312.829,-184.6995C349.4521,-178.3157 394.0824,-170.5361 425.6973,-165.0252"/>
<polygon fill="#191970" stroke="#191970" points="311.9796,-181.2947 302.7292,-186.46 313.1817,-188.1907 311.9796,-181.2947"/>
</g>
<!-- Node21 -->
<g id="node17" class="node">
<title>Node21</title>
<g id="a_node17"><a xlink:href="classSprite.html#ababb7913a4d642b0d20a2c48c2a7e77a" target="_top" xlink:title="Sprite::refresh">
<polygon fill="none" stroke="#000000" points="423,-55.5 423,-74.5 509,-74.5 509,-55.5 423,-55.5"/>
<text text-anchor="middle" x="466" y="-62.5" font-family="Helvetica,sans-Serif" font-size="10.00" fill="#000000">Sprite::refresh</text>
</a>
</g>
</g>
<!-- Node14&#45;&gt;Node21 -->
<g id="edge23" class="edge">
<title>Node14&#45;&gt;Node21</title>
<path fill="none" stroke="#191970" d="M272.8827,-181.0475C318.0387,-153.9125 412.2852,-97.2782 449.9464,-74.6469"/>
<polygon fill="#191970" stroke="#191970" points="270.7988,-178.2165 264.0301,-186.3673 274.4043,-184.2165 270.7988,-178.2165"/>
</g>
<!-- Node16 -->
<g id="node12" class="node">
<title>Node16</title>
<g id="a_node12"><a xlink:href="classCamera.html#a0a8ee04ccb4f4cc9af52a964cf225f66" target="_top" xlink:title="Increases the zoom level of the camera. ">
<polygon fill="none" stroke="#000000" points="600.5,-224.5 600.5,-243.5 757.5,-243.5 757.5,-224.5 600.5,-224.5"/>
<text text-anchor="middle" x="679" y="-231.5" font-family="Helvetica,sans-Serif" font-size="10.00" fill="#000000">Camera::increaseZoomLevel</text>
</a>
</g>
</g>
<!-- Node15&#45;&gt;Node16 -->
<g id="edge11" class="edge">
<title>Node15&#45;&gt;Node16</title>
<path fill="none" stroke="#191970" d="M529.6026,-207.347C560.1632,-212.7991 596.3821,-219.2607 625.504,-224.4561"/>
<polygon fill="#191970" stroke="#191970" points="529.9333,-203.8507 519.474,-205.54 528.7038,-210.7419 529.9333,-203.8507"/>
</g>
<!-- Node17 -->
<g id="node13" class="node">
<title>Node17</title>
<g id="a_node13"><a xlink:href="classCamera.html#a1f8ecd427814c5a4970223c2d13b9310" target="_top" xlink:title="Sets the pinch distance for Android. ">
<polygon fill="none" stroke="#000000" points="807.5,-186.5 807.5,-205.5 952.5,-205.5 952.5,-186.5 807.5,-186.5"/>
<text text-anchor="middle" x="880" y="-193.5" font-family="Helvetica,sans-Serif" font-size="10.00" fill="#000000">Camera::setPinchDistance</text>
</a>
</g>
</g>
<!-- Node15&#45;&gt;Node17 -->
<g id="edge18" class="edge">
<title>Node15&#45;&gt;Node17</title>
<path fill="none" stroke="#191970" d="M558.1968,-196C633.3644,-196 738.0707,-196 807.3796,-196"/>
<polygon fill="#191970" stroke="#191970" points="557.7931,-192.5001 547.7931,-196 557.793,-199.5001 557.7931,-192.5001"/>
</g>
<!-- Node18 -->
<g id="node14" class="node">
<title>Node18</title>
<g id="a_node14"><a xlink:href="classCamera.html#aeea39f352d5873495dea6f376cf3207e" target="_top" xlink:title="Decreases the zoom level of the camera. ">
<polygon fill="none" stroke="#000000" points="599,-148.5 599,-167.5 759,-167.5 759,-148.5 599,-148.5"/>
<text text-anchor="middle" x="679" y="-155.5" font-family="Helvetica,sans-Serif" font-size="10.00" fill="#000000">Camera::decreaseZoomLevel</text>
</a>
</g>
</g>
<!-- Node15&#45;&gt;Node18 -->
<g id="edge15" class="edge">
<title>Node15&#45;&gt;Node18</title>
<path fill="none" stroke="#191970" d="M529.6026,-184.653C560.1632,-179.2009 596.3821,-172.7393 625.504,-167.5439"/>
<polygon fill="#191970" stroke="#191970" points="528.7038,-181.2581 519.474,-186.46 529.9333,-188.1493 528.7038,-181.2581"/>
</g>
<!-- Node19 -->
<g id="node15" class="node">
<title>Node19</title>
<g id="a_node15"><a xlink:href="classCamera.html#af29da768f8948f3afbf0a9b43530eb1d" target="_top" xlink:title="Centers camera on the middle of the map. ">
<polygon fill="none" stroke="#000000" points="1001,-140 1001,-170 1159,-170 1159,-140 1001,-140"/>
<text text-anchor="start" x="1009" y="-158" font-family="Helvetica,sans-Serif" font-size="10.00" fill="#000000">Camera::centerScreenOnMap</text>
<text text-anchor="middle" x="1080" y="-147" font-family="Helvetica,sans-Serif" font-size="10.00" fill="#000000">Center</text>
</a>
</g>
</g>
<!-- Node15&#45;&gt;Node19 -->
<g id="edge19" class="edge">
<title>Node15&#45;&gt;Node19</title>
<path fill="none" stroke="#191970" d="M549.8006,-183.1252C554.3705,-181.3388 558.8042,-179.3081 563,-177 583.3838,-165.7868 577.6287,-148.1925 599,-139 745.0245,-76.1902 939.6615,-115.5731 1030.0086,-139.9462"/>
<polygon fill="#191970" stroke="#191970" points="548.5469,-179.8557 540.2617,-186.4592 550.8565,-186.4637 548.5469,-179.8557"/>
</g>
<!-- Node16&#45;&gt;Node8 -->
<g id="edge14" class="edge">
<title>Node16&#45;&gt;Node8</title>
<path fill="none" stroke="#191970" d="M767.9305,-229.7863C838.3272,-226.4508 935.6438,-221.8398 1002.7972,-218.658"/>
<polygon fill="#191970" stroke="#191970" points="767.5694,-226.2994 757.7462,-230.2689 767.9007,-233.2916 767.5694,-226.2994"/>
</g>
<!-- Node16&#45;&gt;Node17 -->
<g id="edge12" class="edge">
<title>Node16&#45;&gt;Node17</title>
<path fill="none" stroke="#191970" d="M739.3959,-222.5819C768.1554,-217.1448 802.1561,-210.7168 829.5179,-205.5439"/>
<polygon fill="#191970" stroke="#191970" points="738.6371,-219.1632 729.4613,-224.46 739.9375,-226.0414 738.6371,-219.1632"/>
</g>
<!-- Node17&#45;&gt;Node8 -->
<g id="edge13" class="edge">
<title>Node17&#45;&gt;Node8</title>
<path fill="none" stroke="#191970" d="M962.8205,-203.868C976.0902,-205.1286 989.7759,-206.4287 1002.905,-207.676"/>
<polygon fill="#191970" stroke="#191970" points="963.0566,-200.3747 952.7704,-202.9132 962.3945,-207.3433 963.0566,-200.3747"/>
</g>
<!-- Node18&#45;&gt;Node8 -->
<g id="edge17" class="edge">
<title>Node18&#45;&gt;Node8</title>
<path fill="none" stroke="#191970" d="M769.2253,-158.1799C825.8982,-159.7216 900.2654,-164.3664 965,-177 997.6075,-183.3637 1033.771,-196.3472 1056.6801,-205.3551"/>
<polygon fill="#191970" stroke="#191970" points="769.2972,-154.6807 759.2145,-157.9347 769.1257,-161.6786 769.2972,-154.6807"/>
</g>
<!-- Node18&#45;&gt;Node17 -->
<g id="edge16" class="edge">
<title>Node18&#45;&gt;Node17</title>
<path fill="none" stroke="#191970" d="M739.3959,-169.4181C768.1554,-174.8552 802.1561,-181.2832 829.5179,-186.4561"/>
<polygon fill="#191970" stroke="#191970" points="739.9375,-165.9586 729.4613,-167.54 738.6371,-172.8368 739.9375,-165.9586"/>
</g>
<!-- Node19&#45;&gt;Node9 -->
<g id="edge20" class="edge">
<title>Node19&#45;&gt;Node9</title>
<path fill="none" stroke="#191970" d="M1169.2027,-168.1709C1178.2454,-169.506 1186.9871,-170.7968 1194.866,-171.9601"/>
<polygon fill="#191970" stroke="#191970" points="1169.7028,-164.7068 1159.2988,-166.7085 1168.6803,-171.6318 1169.7028,-164.7068"/>
</g>
<!-- Node22 -->
<g id="node18" class="node">
<title>Node22</title>
<g id="a_node18"><a xlink:href="classMap.html#ab69938ac0e56eb0da1d1701221f3d185" target="_top" xlink:title="Refresh all the map tile textures. ">
<polygon fill="none" stroke="#000000" points="601.5,-39 601.5,-91 756.5,-91 756.5,-39 601.5,-39"/>
<text text-anchor="start" x="609.5" y="-79" font-family="Helvetica,sans-Serif" font-size="10.00" fill="#000000">Map&lt; ObserverSPtr&lt;</text>
<text text-anchor="start" x="609.5" y="-68" font-family="Helvetica,sans-Serif" font-size="10.00" fill="#000000"> Notification &gt;, Set</text>
<text text-anchor="start" x="609.5" y="-57" font-family="Helvetica,sans-Serif" font-size="10.00" fill="#000000">&lt; typename Notification</text>
<text text-anchor="middle" x="679" y="-46" font-family="Helvetica,sans-Serif" font-size="10.00" fill="#000000">::TransitionType &gt; &gt;::refresh</text>
</a>
</g>
</g>
<!-- Node21&#45;&gt;Node22 -->
<g id="edge24" class="edge">
<title>Node21&#45;&gt;Node22</title>
<path fill="none" stroke="#191970" d="M519.4042,-65C544.2316,-65 574.2321,-65 601.4902,-65"/>
<polygon fill="#191970" stroke="#191970" points="519.1038,-61.5001 509.1037,-65 519.1037,-68.5001 519.1038,-61.5001"/>
</g>
<!-- Node23 -->
<g id="node19" class="node">
<title>Node23</title>
<g id="a_node19"><a xlink:href="classSprite.html#afe62071332bb38f2e262b63c3ee37736" target="_top" xlink:title="Sprite::setTexture">
<polygon fill="none" stroke="#000000" points="628,-.5 628,-19.5 730,-19.5 730,-.5 628,-.5"/>
<text text-anchor="middle" x="679" y="-7.5" font-family="Helvetica,sans-Serif" font-size="10.00" fill="#000000">Sprite::setTexture</text>
</a>
</g>
</g>
<!-- Node21&#45;&gt;Node23 -->
<g id="edge25" class="edge">
<title>Node21&#45;&gt;Node23</title>
<path fill="none" stroke="#191970" d="M509.9709,-52.7287C535.84,-45.6017 569.2192,-36.565 599,-29 611.5906,-25.8017 625.3387,-22.4764 637.8305,-19.5185"/>
<polygon fill="#191970" stroke="#191970" points="508.7988,-49.4214 500.092,-55.4581 510.663,-56.1686 508.7988,-49.4214"/>
</g>
</g>
</svg>
