<?xml version="1.0" encoding="UTF-8" standalone="no"?>
<!DOCTYPE svg PUBLIC "-//W3C//DTD SVG 1.1//EN"
 "http://www.w3.org/Graphics/SVG/1.1/DTD/svg11.dtd">
<!-- Generated by graphviz version 2.40.1 (20161225.0304)
 -->
<!-- Title: Game::quit Pages: 1 -->
<svg width="531pt" height="78pt"
 viewBox="0.00 0.00 531.00 77.50" xmlns="http://www.w3.org/2000/svg" xmlns:xlink="http://www.w3.org/1999/xlink">
<g id="graph0" class="graph" transform="scale(1 1) rotate(0) translate(4 73.5)">
<title>Game::quit</title>
<!-- Node49 -->
<g id="node1" class="node">
<title>Node49</title>
<polygon fill="#bfbfbf" stroke="#000000" points="0,-44.5 0,-63.5 71,-63.5 71,-44.5 0,-44.5"/>
<text text-anchor="middle" x="35.5" y="-51.5" font-family="Helvetica,sans-Serif" font-size="10.00" fill="#000000">Game::quit</text>
</g>
<!-- Node50 -->
<g id="node2" class="node">
<title>Node50</title>
<g id="a_node2"><a xlink:href="classSingleton.html#af5cb1e5749949e2b68416cfb8d378044" target="_top" xlink:title="Get an instance of the singleton. ">
<polygon fill="none" stroke="#000000" points="107,-39 107,-69 220,-69 220,-39 107,-39"/>
<text text-anchor="start" x="115" y="-57" font-family="Helvetica,sans-Serif" font-size="10.00" fill="#000000">Singleton&lt; Settings</text>
<text text-anchor="middle" x="163.5" y="-46" font-family="Helvetica,sans-Serif" font-size="10.00" fill="#000000"> &gt;::instance</text>
</a>
</g>
</g>
<!-- Node49&#45;&gt;Node50 -->
<g id="edge1" class="edge">
<title>Node49&#45;&gt;Node50</title>
<path fill="none" stroke="#191970" d="M71.1551,-47.8766C79.217,-47.4959 88.0309,-47.2886 96.9114,-47.2549"/>
<polygon fill="#191970" stroke="#191970" points="96.917,-50.7549 106.9294,-47.2906 96.942,-43.7549 96.917,-50.7549"/>
</g>
<!-- Node49&#45;&gt;Node50 -->
<g id="edge2" class="edge">
<title>Node49&#45;&gt;Node50</title>
<path fill="none" stroke="#191970" d="M71.1551,-60.1234C79.217,-60.5041 88.0309,-60.7114 96.9114,-60.7451"/>
<polygon fill="#191970" stroke="#191970" points="96.942,-64.2451 106.9294,-60.7094 96.917,-57.2451 96.942,-64.2451"/>
</g>
<!-- Node51 -->
<g id="node3" class="node">
<title>Node51</title>
<g id="a_node3"><a xlink:href="classEngine.html#a0ba57971ffb5173ecc425461f65a4cd8" target="_top" xlink:title="Quits the game Sets m_running to false and quitting the game. ">
<polygon fill="none" stroke="#000000" points="111.5,-.5 111.5,-19.5 215.5,-19.5 215.5,-.5 111.5,-.5"/>
<text text-anchor="middle" x="163.5" y="-7.5" font-family="Helvetica,sans-Serif" font-size="10.00" fill="#000000">Engine::quitGame</text>
</a>
</g>
</g>
<!-- Node49&#45;&gt;Node51 -->
<g id="edge3" class="edge">
<title>Node49&#45;&gt;Node51</title>
<path fill="none" stroke="#191970" d="M63.2741,-44.4527C81.7248,-38.1102 106.1649,-29.7089 126.2915,-22.7904"/>
<polygon fill="#191970" stroke="#191970" points="127.461,-26.0895 135.7801,-19.5287 125.1854,-19.4697 127.461,-26.0895"/>
</g>
<!-- Node52 -->
<g id="node4" class="node">
<title>Node52</title>
<g id="a_node4"><a xlink:href="classEngine.html#a83b7dbeee899b36a13d5b07c7ad87ebc" target="_top" xlink:title="Loads a saved game Loads a saved Game. ">
<polygon fill="none" stroke="#000000" points="256,-.5 256,-19.5 362,-19.5 362,-.5 256,-.5"/>
<text text-anchor="middle" x="309" y="-7.5" font-family="Helvetica,sans-Serif" font-size="10.00" fill="#000000">Engine::loadGame</text>
</a>
</g>
</g>
<!-- Node51&#45;&gt;Node52 -->
<g id="edge4" class="edge">
<title>Node51&#45;&gt;Node52</title>
<path fill="none" stroke="#191970" d="M215.6179,-10C225.301,-10 235.5158,-10 245.4947,-10"/>
<polygon fill="#191970" stroke="#191970" points="245.7763,-13.5001 255.7762,-10 245.7762,-6.5001 245.7763,-13.5001"/>
</g>
<!-- Node53 -->
<g id="node5" class="node">
<title>Node53</title>
<g id="a_node5"><a xlink:href="classMap.html#afefe996cc1f62b61ec60d0ae415953bf" target="_top" xlink:title="Map::loadMapFromFile">
<polygon fill="none" stroke="#000000" points="398,-.5 398,-19.5 523,-19.5 523,-.5 398,-.5"/>
<text text-anchor="middle" x="460.5" y="-7.5" font-family="Helvetica,sans-Serif" font-size="10.00" fill="#000000">Map::loadMapFromFile</text>
</a>
</g>
</g>
<!-- Node52&#45;&gt;Node53 -->
<g id="edge5" class="edge">
<title>Node52&#45;&gt;Node53</title>
<path fill="none" stroke="#191970" d="M362.4132,-10C370.6794,-10 379.3353,-10 387.9364,-10"/>
<polygon fill="#191970" stroke="#191970" points="387.9814,-13.5001 397.9814,-10 387.9814,-6.5001 387.9814,-13.5001"/>
</g>
</g>
</svg>
