<?xml version="1.0" encoding="UTF-8" standalone="no"?>
<!DOCTYPE svg PUBLIC "-//W3C//DTD SVG 1.1//EN"
 "http://www.w3.org/Graphics/SVG/1.1/DTD/svg11.dtd">
<!-- Generated by graphviz version 2.40.1 (20161225.0304)
 -->
<!-- Title: Settings::writeFile Pages: 1 -->
<svg width="763pt" height="28pt"
 viewBox="0.00 0.00 763.00 28.00" xmlns="http://www.w3.org/2000/svg" xmlns:xlink="http://www.w3.org/1999/xlink">
<g id="graph0" class="graph" transform="scale(1 1) rotate(0) translate(4 24)">
<title>Settings::writeFile</title>
<!-- Node20 -->
<g id="node1" class="node">
<title>Node20</title>
<polygon fill="#bfbfbf" stroke="#000000" points="0,-.5 0,-19.5 104,-19.5 104,-.5 0,-.5"/>
<text text-anchor="middle" x="52" y="-7.5" font-family="Helvetica,sans-Serif" font-size="10.00" fill="#000000">Settings::writeFile</text>
</g>
<!-- Node21 -->
<g id="node2" class="node">
<title>Node21</title>
<g id="a_node2"><a xlink:href="classUIManager.html#aa78e356fc3b356d790c848319d1c387e" target="_top" xlink:title="UIManager::setCallbackFunctions">
<polygon fill="none" stroke="#000000" points="140,-.5 140,-19.5 318,-19.5 318,-.5 140,-.5"/>
<text text-anchor="middle" x="229" y="-7.5" font-family="Helvetica,sans-Serif" font-size="10.00" fill="#000000">UIManager::setCallbackFunctions</text>
</a>
</g>
</g>
<!-- Node20&#45;&gt;Node21 -->
<g id="edge1" class="edge">
<title>Node20&#45;&gt;Node21</title>
<path fill="none" stroke="#191970" d="M114.3639,-10C122.5875,-10 131.1418,-10 139.706,-10"/>
<polygon fill="#191970" stroke="#191970" points="114.1485,-6.5001 104.1485,-10 114.1485,-13.5001 114.1485,-6.5001"/>
</g>
<!-- Node22 -->
<g id="node3" class="node">
<title>Node22</title>
<g id="a_node3"><a xlink:href="classUIManager.html#aedd9d0577af515a852425dfe414b2968" target="_top" xlink:title="Parses the UiLayout.json files and creates UI Elements. ">
<polygon fill="none" stroke="#000000" points="354,-.5 354,-19.5 445,-19.5 445,-.5 354,-.5"/>
<text text-anchor="middle" x="399.5" y="-7.5" font-family="Helvetica,sans-Serif" font-size="10.00" fill="#000000">UIManager::init</text>
</a>
</g>
</g>
<!-- Node21&#45;&gt;Node22 -->
<g id="edge2" class="edge">
<title>Node21&#45;&gt;Node22</title>
<path fill="none" stroke="#191970" d="M328.2456,-10C337.0449,-10 345.6396,-10 353.6409,-10"/>
<polygon fill="#191970" stroke="#191970" points="328.2448,-6.5001 318.2448,-10 328.2448,-13.5001 328.2448,-6.5001"/>
</g>
<!-- Node23 -->
<g id="node4" class="node">
<title>Node23</title>
<g id="a_node4"><a xlink:href="classGame.html#a1c2ab25d5216b2f4b2fe41efd2c09114" target="_top" xlink:title="begins the game starts running the game ">
<polygon fill="none" stroke="#000000" points="481,-.5 481,-19.5 549,-19.5 549,-.5 481,-.5"/>
<text text-anchor="middle" x="515" y="-7.5" font-family="Helvetica,sans-Serif" font-size="10.00" fill="#000000">Game::run</text>
</a>
</g>
</g>
<!-- Node22&#45;&gt;Node23 -->
<g id="edge3" class="edge">
<title>Node22&#45;&gt;Node23</title>
<path fill="none" stroke="#191970" d="M455.2726,-10C463.9603,-10 472.7077,-10 480.7272,-10"/>
<polygon fill="#191970" stroke="#191970" points="455.1487,-6.5001 445.1487,-10 455.1486,-13.5001 455.1487,-6.5001"/>
</g>
<!-- Node24 -->
<g id="node5" class="node">
<title>Node24</title>
<g id="a_node5"><a xlink:href="main_8cxx.html#af582d708d899e67ead623eac34a22387" target="_top" xlink:title="protected_main">
<polygon fill="none" stroke="#000000" points="585,-.5 585,-19.5 678,-19.5 678,-.5 585,-.5"/>
<text text-anchor="middle" x="631.5" y="-7.5" font-family="Helvetica,sans-Serif" font-size="10.00" fill="#000000">protected_main</text>
</a>
</g>
</g>
<!-- Node23&#45;&gt;Node24 -->
<g id="edge4" class="edge">
<title>Node23&#45;&gt;Node24</title>
<path fill="none" stroke="#191970" d="M559.2653,-10C567.5757,-10 576.2897,-10 584.6749,-10"/>
<polygon fill="#191970" stroke="#191970" points="559.0098,-6.5001 549.0098,-10 559.0098,-13.5001 559.0098,-6.5001"/>
</g>
<!-- Node25 -->
<g id="node6" class="node">
<title>Node25</title>
<g id="a_node6"><a xlink:href="main_8cxx.html#a3c04138a5bfe5d72780bb7e82a18e627" target="_top" xlink:title="main">
<polygon fill="none" stroke="#000000" points="714,-.5 714,-19.5 755,-19.5 755,-.5 714,-.5"/>
<text text-anchor="middle" x="734.5" y="-7.5" font-family="Helvetica,sans-Serif" font-size="10.00" fill="#000000">main</text>
</a>
</g>
</g>
<!-- Node24&#45;&gt;Node25 -->
<g id="edge5" class="edge">
<title>Node24&#45;&gt;Node25</title>
<path fill="none" stroke="#191970" d="M688.2133,-10C697.4322,-10 706.4259,-10 713.9965,-10"/>
<polygon fill="#191970" stroke="#191970" points="688.1782,-6.5001 678.1782,-10 688.1781,-13.5001 688.1782,-6.5001"/>
</g>
</g>
</svg>
