<?xml version="1.0" encoding="UTF-8" standalone="no"?>
<!DOCTYPE svg PUBLIC "-//W3C//DTD SVG 1.1//EN"
 "http://www.w3.org/Graphics/SVG/1.1/DTD/svg11.dtd">
<!-- Generated by graphviz version 2.40.1 (20161225.0304)
 -->
<!-- Title: ResourcesManager::getUITexture Pages: 1 -->
<svg width="1173pt" height="115pt"
 viewBox="0.00 0.00 1173.00 115.00" xmlns="http://www.w3.org/2000/svg" xmlns:xlink="http://www.w3.org/1999/xlink">
<g id="graph0" class="graph" transform="scale(1 1) rotate(0) translate(4 111)">
<title>ResourcesManager::getUITexture</title>
<!-- Node47 -->
<g id="node1" class="node">
<title>Node47</title>
<polygon fill="#bfbfbf" stroke="#000000" points="0,-43.5 0,-62.5 176,-62.5 176,-43.5 0,-43.5"/>
<text text-anchor="middle" x="88" y="-50.5" font-family="Helvetica,sans-Serif" font-size="10.00" fill="#000000">ResourcesManager::getUITexture</text>
</g>
<!-- Node48 -->
<g id="node2" class="node">
<title>Node48</title>
<g id="a_node2"><a xlink:href="classUIElement.html#a452ffed1ff191ababc8c15d4c455f6c2" target="_top" xlink:title="Set the uiElements sprite ID Set the sprite ID this ui element. The texture will be retrieved from th...">
<polygon fill="none" stroke="#000000" points="212,-43.5 212,-62.5 347,-62.5 347,-43.5 212,-43.5"/>
<text text-anchor="middle" x="279.5" y="-50.5" font-family="Helvetica,sans-Serif" font-size="10.00" fill="#000000">UIElement::setTextureID</text>
</a>
</g>
</g>
<!-- Node47&#45;&gt;Node48 -->
<g id="edge1" class="edge">
<title>Node47&#45;&gt;Node48</title>
<path fill="none" stroke="#191970" d="M186.3086,-53C194.9375,-53 203.5387,-53 211.8316,-53"/>
<polygon fill="#191970" stroke="#191970" points="186.1831,-49.5001 176.183,-53 186.183,-56.5001 186.1831,-49.5001"/>
</g>
<!-- Node49 -->
<g id="node3" class="node">
<title>Node49</title>
<g id="a_node3"><a xlink:href="classUIElement.html#a9c4439b91bcb765d0616616fbfe2a44a" target="_top" xlink:title="Get the uiElements tooltip text Get the tooltip text for this ui element. Tooltip is shown when hover...">
<polygon fill="none" stroke="#000000" points="384,-87.5 384,-106.5 534,-106.5 534,-87.5 384,-87.5"/>
<text text-anchor="middle" x="459" y="-94.5" font-family="Helvetica,sans-Serif" font-size="10.00" fill="#000000">UIElement::setUIElementID</text>
</a>
</g>
</g>
<!-- Node48&#45;&gt;Node49 -->
<g id="edge2" class="edge">
<title>Node48&#45;&gt;Node49</title>
<path fill="none" stroke="#191970" d="M328.3281,-64.969C357.1802,-72.0414 393.2116,-80.8736 420.1272,-87.4713"/>
<polygon fill="#191970" stroke="#191970" points="328.9946,-61.5288 318.4488,-62.5473 327.328,-68.3276 328.9946,-61.5288"/>
</g>
<!-- Node55 -->
<g id="node9" class="node">
<title>Node55</title>
<g id="a_node9"><a xlink:href="classUIManager.html#a007e9b56a4835b98db2b203df96ea79d" target="_top" xlink:title="Draws the tile (defined by the string, tiledata pair) onto the button. ">
<polygon fill="none" stroke="#000000" points="383,-38 383,-68 535,-68 535,-38 383,-38"/>
<text text-anchor="start" x="391" y="-56" font-family="Helvetica,sans-Serif" font-size="10.00" fill="#000000">UIManager::setupButtonTile</text>
<text text-anchor="middle" x="459" y="-45" font-family="Helvetica,sans-Serif" font-size="10.00" fill="#000000">Image</text>
</a>
</g>
</g>
<!-- Node48&#45;&gt;Node55 -->
<g id="edge8" class="edge">
<title>Node48&#45;&gt;Node55</title>
<path fill="none" stroke="#191970" d="M357.3008,-53C365.7342,-53 374.3109,-53 382.7259,-53"/>
<polygon fill="#191970" stroke="#191970" points="357.1055,-49.5001 347.1055,-53 357.1054,-56.5001 357.1055,-49.5001"/>
</g>
<!-- Node56 -->
<g id="node10" class="node">
<title>Node56</title>
<g id="a_node10"><a xlink:href="classGame.html#a560299f0291c281f7b44e7ef0dd7b264" target="_top" xlink:title="initializes and displays the main menu initializes and displays the main menu ">
<polygon fill="none" stroke="#000000" points="598,-.5 598,-19.5 701,-19.5 701,-.5 598,-.5"/>
<text text-anchor="middle" x="649.5" y="-7.5" font-family="Helvetica,sans-Serif" font-size="10.00" fill="#000000">Game::mainMenu</text>
</a>
</g>
</g>
<!-- Node48&#45;&gt;Node56 -->
<g id="edge10" class="edge">
<title>Node48&#45;&gt;Node56</title>
<path fill="none" stroke="#191970" d="M324.3873,-40.9755C342.4738,-36.555 363.6089,-31.9211 383,-29 457.1904,-17.824 544.0197,-13.1857 597.8984,-11.2852"/>
<polygon fill="#191970" stroke="#191970" points="323.5384,-37.5799 314.6834,-43.3971 325.2333,-44.3716 323.5384,-37.5799"/>
</g>
<!-- Node50 -->
<g id="node4" class="node">
<title>Node50</title>
<g id="a_node4"><a xlink:href="classUIManager.html#aae7a89e9d50bb6192e4140e07bd5f94b" target="_top" xlink:title="UIManager::createBuildMenu">
<polygon fill="none" stroke="#000000" points="571,-43.5 571,-62.5 728,-62.5 728,-43.5 571,-43.5"/>
<text text-anchor="middle" x="649.5" y="-50.5" font-family="Helvetica,sans-Serif" font-size="10.00" fill="#000000">UIManager::createBuildMenu</text>
</a>
</g>
</g>
<!-- Node49&#45;&gt;Node50 -->
<g id="edge3" class="edge">
<title>Node49&#45;&gt;Node50</title>
<path fill="none" stroke="#191970" d="M510.4196,-85.1236C541.1064,-78.0358 579.5553,-69.1552 608.245,-62.5287"/>
<polygon fill="#191970" stroke="#191970" points="509.2915,-81.7919 500.3357,-87.4527 510.8668,-88.6123 509.2915,-81.7919"/>
</g>
<!-- Node51 -->
<g id="node5" class="node">
<title>Node51</title>
<g id="a_node5"><a xlink:href="classUIManager.html#aedd9d0577af515a852425dfe414b2968" target="_top" xlink:title="Parses the UiLayout.json files and creates UI Elements. ">
<polygon fill="none" stroke="#000000" points="764,-42.5 764,-61.5 855,-61.5 855,-42.5 764,-42.5"/>
<text text-anchor="middle" x="809.5" y="-49.5" font-family="Helvetica,sans-Serif" font-size="10.00" fill="#000000">UIManager::init</text>
</a>
</g>
</g>
<!-- Node50&#45;&gt;Node51 -->
<g id="edge4" class="edge">
<title>Node50&#45;&gt;Node51</title>
<path fill="none" stroke="#191970" d="M738.348,-52.4447C747.049,-52.3903 755.6087,-52.3368 763.6086,-52.2868"/>
<polygon fill="#191970" stroke="#191970" points="738.0717,-48.9463 728.0938,-52.5088 738.1155,-55.9461 738.0717,-48.9463"/>
</g>
<!-- Node52 -->
<g id="node6" class="node">
<title>Node52</title>
<g id="a_node6"><a xlink:href="classGame.html#a1c2ab25d5216b2f4b2fe41efd2c09114" target="_top" xlink:title="begins the game starts running the game ">
<polygon fill="none" stroke="#000000" points="891,-42.5 891,-61.5 959,-61.5 959,-42.5 891,-42.5"/>
<text text-anchor="middle" x="925" y="-49.5" font-family="Helvetica,sans-Serif" font-size="10.00" fill="#000000">Game::run</text>
</a>
</g>
</g>
<!-- Node51&#45;&gt;Node52 -->
<g id="edge5" class="edge">
<title>Node51&#45;&gt;Node52</title>
<path fill="none" stroke="#191970" d="M865.2726,-52C873.9603,-52 882.7077,-52 890.7272,-52"/>
<polygon fill="#191970" stroke="#191970" points="865.1487,-48.5001 855.1487,-52 865.1486,-55.5001 865.1487,-48.5001"/>
</g>
<!-- Node53 -->
<g id="node7" class="node">
<title>Node53</title>
<g id="a_node7"><a xlink:href="main_8cxx.html#af582d708d899e67ead623eac34a22387" target="_top" xlink:title="protected_main">
<polygon fill="none" stroke="#000000" points="995,-22.5 995,-41.5 1088,-41.5 1088,-22.5 995,-22.5"/>
<text text-anchor="middle" x="1041.5" y="-29.5" font-family="Helvetica,sans-Serif" font-size="10.00" fill="#000000">protected_main</text>
</a>
</g>
</g>
<!-- Node52&#45;&gt;Node53 -->
<g id="edge6" class="edge">
<title>Node52&#45;&gt;Node53</title>
<path fill="none" stroke="#191970" d="M968.9884,-44.4483C977.382,-43.0074 986.1965,-41.4942 994.6749,-40.0386"/>
<polygon fill="#191970" stroke="#191970" points="968.2734,-41.0198 959.0098,-46.1614 969.4578,-47.9189 968.2734,-41.0198"/>
</g>
<!-- Node54 -->
<g id="node8" class="node">
<title>Node54</title>
<g id="a_node8"><a xlink:href="main_8cxx.html#a3c04138a5bfe5d72780bb7e82a18e627" target="_top" xlink:title="main">
<polygon fill="none" stroke="#000000" points="1124,-22.5 1124,-41.5 1165,-41.5 1165,-22.5 1124,-22.5"/>
<text text-anchor="middle" x="1144.5" y="-29.5" font-family="Helvetica,sans-Serif" font-size="10.00" fill="#000000">main</text>
</a>
</g>
</g>
<!-- Node53&#45;&gt;Node54 -->
<g id="edge7" class="edge">
<title>Node53&#45;&gt;Node54</title>
<path fill="none" stroke="#191970" d="M1098.2133,-32C1107.4322,-32 1116.4259,-32 1123.9965,-32"/>
<polygon fill="#191970" stroke="#191970" points="1098.1782,-28.5001 1088.1782,-32 1098.1781,-35.5001 1098.1782,-28.5001"/>
</g>
<!-- Node55&#45;&gt;Node50 -->
<g id="edge9" class="edge">
<title>Node55&#45;&gt;Node50</title>
<path fill="none" stroke="#191970" d="M545.3503,-53C553.797,-53 562.3379,-53 570.7042,-53"/>
<polygon fill="#191970" stroke="#191970" points="545.112,-49.5001 535.1119,-53 545.1119,-56.5001 545.112,-49.5001"/>
</g>
<!-- Node56&#45;&gt;Node53 -->
<g id="edge11" class="edge">
<title>Node56&#45;&gt;Node53</title>
<path fill="none" stroke="#191970" d="M711.4096,-13.4745C790.1477,-17.8935 924.3419,-25.4248 994.9344,-29.3866"/>
<polygon fill="#191970" stroke="#191970" points="711.3307,-9.9647 701.1503,-12.8987 710.9384,-16.9537 711.3307,-9.9647"/>
</g>
</g>
</svg>
