<?xml version="1.0" encoding="UTF-8" standalone="no"?>
<!DOCTYPE svg PUBLIC "-//W3C//DTD SVG 1.1//EN"
 "http://www.w3.org/Graphics/SVG/1.1/DTD/svg11.dtd">
<!-- Generated by graphviz version 2.40.1 (20161225.0304)
 -->
<!-- Title: MapNode::setTileID Pages: 1 -->
<!--zoomable 291 -->
<svg id="main" version="1.1" xmlns="http://www.w3.org/2000/svg" xmlns:xlink="http://www.w3.org/1999/xlink" xml:space="preserve" onload="init(evt)">
<style type="text/css"><![CDATA[
.edge:hover path { stroke: red; }
.edge:hover polygon { stroke: red; fill: red; }
]]></style>
<script type="text/javascript"><![CDATA[
var edges = document.getElementsByTagName('g');
if (edges && edges.length) {
  for (var i=0;i<edges.length;i++) {
    if (edges[i].id.substr(0,4)=='edge') {
      edges[i].setAttribute('class','edge');
    }
  }
}
]]></script>
        <defs>
                <circle id="rim" cx="0" cy="0" r="7"/>
                <circle id="rim2" cx="0" cy="0" r="3.5"/>
                <g id="zoomPlus">
                        <use xlink:href="#rim" fill="#404040">
                                <set attributeName="fill" to="#808080" begin="zoomplus.mouseover" end="zoomplus.mouseout"/>
                        </use>
                        <path d="M-4,0h8M0,-4v8" fill="none" stroke="white" stroke-width="1.5" pointer-events="none"/>
                </g>
                <g id="zoomMin">
                        <use xlink:href="#rim" fill="#404040">
                                <set attributeName="fill" to="#808080" begin="zoomminus.mouseover" end="zoomminus.mouseout"/>
                        </use>
                        <path d="M-4,0h8" fill="none" stroke="white" stroke-width="1.5" pointer-events="none"/>
                </g>
                <g id="dirArrow">
                        <path fill="none" stroke="white" stroke-width="1.5" d="M0,-3.0v7 M-2.5,-0.5L0,-3.0L2.5,-0.5"/>
                </g>
               <g id="resetDef">
                       <use xlink:href="#rim2" fill="#404040">
                               <set attributeName="fill" to="#808080" begin="reset.mouseover" end="reset.mouseout"/>
                       </use>
               </g>
        </defs>

<script type="text/javascript">
var viewWidth = 695;
var viewHeight = 291;
var sectionId = 'dynsection-28';
</script>
<script xlink:href="svgpan.js"/>
<svg id="graph" class="graph">
<g id="viewport">
<title>MapNode::setTileID</title>
<!-- Node194 -->
<g id="node1" class="node">
<title>Node194</title>
<polygon fill="#bfbfbf" stroke="#000000" points="0,-154.5 0,-173.5 112,-173.5 112,-154.5 0,-154.5"/>
<text text-anchor="middle" x="56" y="-161.5" font-family="Helvetica,sans-Serif" font-size="10.00" fill="#000000">MapNode::setTileID</text>
</g>
<!-- Node195 -->
<g id="node2" class="node">
<title>Node195</title>
<g id="a_node2"><a xlink:href="classSingleton.html#af5cb1e5749949e2b68416cfb8d378044" target="_top" xlink:title="Get an instance of the singleton. ">
<polygon fill="none" stroke="#000000" points="367,-252 367,-282 501,-282 501,-252 367,-252"/>
<text text-anchor="start" x="375" y="-270" font-family="Helvetica,sans-Serif" font-size="10.00" fill="#000000">Singleton&lt; TileManager</text>
<text text-anchor="middle" x="434" y="-259" font-family="Helvetica,sans-Serif" font-size="10.00" fill="#000000"> &gt;::instance</text>
</a>
</g>
</g>
<!-- Node194&#45;&gt;Node195 -->
<g id="edge1" class="edge">
<title>Node194&#45;&gt;Node195</title>
<path fill="none" stroke="#191970" d="M69.7385,-173.5941C86.2681,-189.1216 115.8389,-217.694 148,-231 214.763,-258.6219 297.5521,-263.628 356.8492,-264.4001"/>
<polygon fill="#191970" stroke="#191970" points="356.8642,-267.9003 366.8969,-264.4951 356.9305,-260.9006 356.8642,-267.9003"/>
</g>
<!-- Node194&#45;&gt;Node195 -->
<g id="edge7" class="edge">
<title>Node194&#45;&gt;Node195</title>
<path fill="none" stroke="#191970" d="M60.466,-173.7271C72.6785,-193.0332 108.3729,-232.6051 148,-249 214.763,-276.6219 297.5521,-281.628 356.8492,-279.1381"/>
<polygon fill="#191970" stroke="#191970" points="357.085,-282.6308 366.8969,-278.6336 356.7339,-275.6396 357.085,-282.6308"/>
</g>
<!-- Node196 -->
<g id="node3" class="node">
<title>Node196</title>
<g id="a_node3"><a xlink:href="classTileManager.html#a8ee071ff8b24926288437d310f9bc714" target="_top" xlink:title="TileManager::getTileData">
<polygon fill="none" stroke="#000000" points="364,-213.5 364,-232.5 504,-232.5 504,-213.5 364,-213.5"/>
<text text-anchor="middle" x="434" y="-220.5" font-family="Helvetica,sans-Serif" font-size="10.00" fill="#000000">TileManager::getTileData</text>
</a>
</g>
</g>
<!-- Node194&#45;&gt;Node196 -->
<g id="edge2" class="edge">
<title>Node194&#45;&gt;Node196</title>
<path fill="none" stroke="#191970" d="M112.1942,-171.3724C165.9066,-178.5813 249.1131,-190.1713 321,-202 338.6111,-204.8978 357.7104,-208.3343 375.1081,-211.5793"/>
<polygon fill="#191970" stroke="#191970" points="374.6566,-215.0556 385.1309,-213.4622 375.9491,-208.1759 374.6566,-215.0556"/>
</g>
<!-- Node197 -->
<g id="node4" class="node">
<title>Node197</title>
<g id="a_node4"><a xlink:href="classTileManager.html#a105151a0c336807e918aff002ffd6101" target="_top" xlink:title="TileManager::getTileLayer">
<polygon fill="none" stroke="#000000" points="163,-211.5 163,-230.5 306,-230.5 306,-211.5 163,-211.5"/>
<text text-anchor="middle" x="234.5" y="-218.5" font-family="Helvetica,sans-Serif" font-size="10.00" fill="#000000">TileManager::getTileLayer</text>
</a>
</g>
</g>
<!-- Node194&#45;&gt;Node197 -->
<g id="edge3" class="edge">
<title>Node194&#45;&gt;Node197</title>
<path fill="none" stroke="#191970" d="M81.2113,-173.6105C99.6035,-180.4823 125.1967,-189.7577 148,-197 160.9017,-201.0976 175.0064,-205.1775 188.0125,-208.78"/>
<polygon fill="#191970" stroke="#191970" points="187.1367,-212.169 197.706,-211.4342 188.9854,-205.4175 187.1367,-212.169"/>
</g>
<!-- Node198 -->
<g id="node5" class="node">
<title>Node198</title>
<g id="a_node5"><a xlink:href="classMapNode.html#abda77a5705086a50cbc5755d10883e8a" target="_top" xlink:title="Sets a node to be Transparent This sets a node to be Transparent. &#160;transparencyFactor (0&#45;1...">
<polygon fill="none" stroke="#000000" points="148,-97.5 148,-116.5 321,-116.5 321,-97.5 148,-97.5"/>
<text text-anchor="middle" x="234.5" y="-104.5" font-family="Helvetica,sans-Serif" font-size="10.00" fill="#000000">MapNode::setNodeTransparency</text>
</a>
</g>
</g>
<!-- Node194&#45;&gt;Node198 -->
<g id="edge6" class="edge">
<title>Node194&#45;&gt;Node198</title>
<path fill="none" stroke="#191970" d="M76.443,-154.3388C94.8376,-145.9412 122.772,-133.9135 148,-126 156.3141,-123.392 165.1862,-121.0076 173.9618,-118.8756"/>
<polygon fill="#191970" stroke="#191970" points="174.8531,-122.2617 183.7939,-116.5772 173.2597,-115.4454 174.8531,-122.2617"/>
</g>
<!-- Node199 -->
<g id="node6" class="node">
<title>Node199</title>
<g id="a_node6"><a xlink:href="classMapNode.html#a06be1917d4b251010ae78d8a2b7bc88a" target="_top" xlink:title="demolish specific layer of a Node. ">
<polygon fill="none" stroke="#000000" points="164.5,-59.5 164.5,-78.5 304.5,-78.5 304.5,-59.5 164.5,-59.5"/>
<text text-anchor="middle" x="234.5" y="-66.5" font-family="Helvetica,sans-Serif" font-size="10.00" fill="#000000">MapNode::demolishLayer</text>
</a>
</g>
</g>
<!-- Node194&#45;&gt;Node199 -->
<g id="edge8" class="edge">
<title>Node194&#45;&gt;Node199</title>
<path fill="none" stroke="#191970" d="M64.6137,-154.3725C79.7824,-138.0494 112.9856,-105.058 148,-88 153.0106,-85.559 158.3366,-83.4283 163.7882,-81.569"/>
<polygon fill="#191970" stroke="#191970" points="165.1751,-84.8038 173.6957,-78.507 163.1081,-78.1159 165.1751,-84.8038"/>
</g>
<!-- Node201 -->
<g id="node8" class="node">
<title>Node201</title>
<g id="a_node8"><a xlink:href="classMapNode.html#ae38d4ab8e73fc9c44e404f3c9a196953" target="_top" xlink:title="MapNode::isLayerOccupied">
<polygon fill="none" stroke="#000000" points="160,-21.5 160,-40.5 309,-40.5 309,-21.5 160,-21.5"/>
<text text-anchor="middle" x="234.5" y="-28.5" font-family="Helvetica,sans-Serif" font-size="10.00" fill="#000000">MapNode::isLayerOccupied</text>
</a>
</g>
</g>
<!-- Node194&#45;&gt;Node201 -->
<g id="edge10" class="edge">
<title>Node194&#45;&gt;Node201</title>
<path fill="none" stroke="#191970" d="M60.895,-154.1991C72.6047,-131.8336 104.5266,-76.894 148,-50 151.4323,-47.8767 155.0703,-45.989 158.8355,-44.311"/>
<polygon fill="#191970" stroke="#191970" points="160.3796,-47.4651 168.4126,-40.557 157.825,-40.9479 160.3796,-47.4651"/>
</g>
<!-- Node202 -->
<g id="node9" class="node">
<title>Node202</title>
<g id="a_node9"><a xlink:href="classMapNode.html#aabbb10c19ddd79e9c519eb4af5e995e0" target="_top" xlink:title="Update texture. ">
<polygon fill="none" stroke="#000000" points="165.5,-135.5 165.5,-154.5 303.5,-154.5 303.5,-135.5 165.5,-135.5"/>
<text text-anchor="middle" x="234.5" y="-142.5" font-family="Helvetica,sans-Serif" font-size="10.00" fill="#000000">MapNode::updateTexture</text>
</a>
</g>
</g>
<!-- Node194&#45;&gt;Node202 -->
<g id="edge11" class="edge">
<title>Node194&#45;&gt;Node202</title>
<path fill="none" stroke="#191970" d="M112.4785,-157.9883C125.9576,-156.5535 140.5948,-154.9955 154.8976,-153.4731"/>
<polygon fill="#191970" stroke="#191970" points="155.6584,-156.912 165.2318,-152.3731 154.9174,-149.9513 155.6584,-156.912"/>
</g>
<!-- Node197&#45;&gt;Node195 -->
<g id="edge4" class="edge">
<title>Node197&#45;&gt;Node195</title>
<path fill="none" stroke="#191970" d="M275.8365,-230.5312C299.8284,-236.0632 330.7814,-243.2002 358.9349,-249.6918"/>
<polygon fill="#191970" stroke="#191970" points="358.2296,-253.1209 368.7604,-251.9573 359.8025,-246.2999 358.2296,-253.1209"/>
</g>
<!-- Node197&#45;&gt;Node196 -->
<g id="edge5" class="edge">
<title>Node197&#45;&gt;Node196</title>
<path fill="none" stroke="#191970" d="M306.2422,-221.7192C321.637,-221.8736 338.0004,-222.0376 353.6955,-222.1949"/>
<polygon fill="#191970" stroke="#191970" points="353.8615,-225.6967 363.8961,-222.2972 353.9317,-218.697 353.8615,-225.6967"/>
</g>
<!-- Node200 -->
<g id="node7" class="node">
<title>Node200</title>
<g id="a_node7"><a xlink:href="classMapNode.html#a67296a58e167356efbabeaac3226b5d3" target="_top" xlink:title="get iso coordinates of this node gets the iso coordinates of this node ">
<polygon fill="none" stroke="#000000" points="362.5,-.5 362.5,-19.5 505.5,-19.5 505.5,-.5 362.5,-.5"/>
<text text-anchor="middle" x="434" y="-7.5" font-family="Helvetica,sans-Serif" font-size="10.00" fill="#000000">MapNode::getCoordinates</text>
</a>
</g>
</g>
<!-- Node199&#45;&gt;Node200 -->
<g id="edge9" class="edge">
<title>Node199&#45;&gt;Node200</title>
<path fill="none" stroke="#191970" d="M290.175,-59.4604C300.5918,-56.9243 311.2604,-53.8017 321,-50 338.2553,-43.2646 339.8327,-35.9565 357,-29 363.1732,-26.4985 369.7628,-24.264 376.3911,-22.2848"/>
<polygon fill="#191970" stroke="#191970" points="377.4023,-25.6363 386.086,-19.5664 375.5124,-18.8963 377.4023,-25.6363"/>
</g>
<!-- Node202&#45;&gt;Node195 -->
<g id="edge12" class="edge">
<title>Node202&#45;&gt;Node195</title>
<path fill="none" stroke="#191970" d="M265.0656,-154.5873C282.2596,-163.9617 303.6833,-178.1063 321,-193 339.1333,-208.596 336.9411,-219.9735 357,-233 367.222,-239.6382 379.3543,-244.6478 390.9297,-248.7203"/>
<polygon fill="#191970" stroke="#191970" points="389.8738,-252.0578 400.468,-251.9359 392.1101,-245.4246 389.8738,-252.0578"/>
</g>
<!-- Node202&#45;&gt;Node195 -->
<g id="edge18" class="edge">
<title>Node202&#45;&gt;Node195</title>
<path fill="none" stroke="#191970" d="M243.107,-154.8875C259.254,-167.6793 294.8204,-188.4836 321,-211 339.1333,-226.596 336.9411,-237.9735 357,-251 357.2873,-251.1866 357.5762,-251.3719 357.8664,-251.5559"/>
<polygon fill="#191970" stroke="#191970" points="356.2175,-254.6444 366.6429,-256.5314 359.6697,-248.5549 356.2175,-254.6444"/>
</g>
<!-- Node203 -->
<g id="node10" class="node">
<title>Node203</title>
<g id="a_node10"><a xlink:href="classTileManager.html#a519b2d5c91877025a2faa0dff3ba099c" target="_top" xlink:title="TileManager::calculateSlope\lOrientation">
<polygon fill="none" stroke="#000000" points="357,-126 357,-156 511,-156 511,-126 357,-126"/>
<text text-anchor="start" x="365" y="-144" font-family="Helvetica,sans-Serif" font-size="10.00" fill="#000000">TileManager::calculateSlope</text>
<text text-anchor="middle" x="434" y="-133" font-family="Helvetica,sans-Serif" font-size="10.00" fill="#000000">Orientation</text>
</a>
</g>
</g>
<!-- Node202&#45;&gt;Node203 -->
<g id="edge13" class="edge">
<title>Node202&#45;&gt;Node203</title>
<path fill="none" stroke="#191970" d="M303.7155,-143.6122C317.4805,-143.3362 332.1041,-143.043 346.3904,-142.7566"/>
<polygon fill="#191970" stroke="#191970" points="346.7886,-146.2494 356.7164,-142.5495 346.6482,-139.2508 346.7886,-146.2494"/>
</g>
<!-- Node204 -->
<g id="node11" class="node">
<title>Node204</title>
<g id="a_node11"><a xlink:href="classTileManager.html#a05d41a7f0858cff242f027a08e06ea43" target="_top" xlink:title="TileManager::calculateTile\lOrientation">
<polygon fill="none" stroke="#000000" points="361.5,-77 361.5,-107 506.5,-107 506.5,-77 361.5,-77"/>
<text text-anchor="start" x="369.5" y="-95" font-family="Helvetica,sans-Serif" font-size="10.00" fill="#000000">TileManager::calculateTile</text>
<text text-anchor="middle" x="434" y="-84" font-family="Helvetica,sans-Serif" font-size="10.00" fill="#000000">Orientation</text>
</a>
</g>
</g>
<!-- Node202&#45;&gt;Node204 -->
<g id="edge14" class="edge">
<title>Node202&#45;&gt;Node204</title>
<path fill="none" stroke="#191970" d="M280.893,-135.4903C293.9163,-132.6364 308.0534,-129.3644 321,-126 339.4031,-121.2176 359.3151,-115.4339 377.2229,-110.0036"/>
<polygon fill="#191970" stroke="#191970" points="378.4035,-113.3026 386.9432,-107.0316 376.3568,-106.6085 378.4035,-113.3026"/>
</g>
<!-- Node205 -->
<g id="node12" class="node">
<title>Node205</title>
<g id="a_node12"><a xlink:href="classMapNode.html#afb1cbc0f9e987b7befced46220dd9277" target="_top" xlink:title="check if specific layer can be autotiled. ">
<polygon fill="none" stroke="#000000" points="362,-38.5 362,-57.5 506,-57.5 506,-38.5 362,-38.5"/>
<text text-anchor="middle" x="434" y="-45.5" font-family="Helvetica,sans-Serif" font-size="10.00" fill="#000000">MapNode::isLayerAutoTile</text>
</a>
</g>
</g>
<!-- Node202&#45;&gt;Node205 -->
<g id="edge15" class="edge">
<title>Node202&#45;&gt;Node205</title>
<path fill="none" stroke="#191970" d="M303.2896,-135.3587C309.5784,-132.8905 315.6029,-129.8186 321,-126 345.7673,-108.4764 332.5693,-85.9898 357,-68 360.2236,-65.6263 363.7042,-63.5337 367.3424,-61.6891"/>
<polygon fill="#191970" stroke="#191970" points="368.9082,-64.8241 376.6539,-57.5954 366.0909,-58.416 368.9082,-64.8241"/>
</g>
<!-- Node207 -->
<g id="node14" class="node">
<title>Node207</title>
<g id="a_node14"><a xlink:href="classMapNode.html#ab34930f43b60310cd475f514e969a401" target="_top" xlink:title="get TileID of specific layer inside NodeData. ">
<polygon fill="none" stroke="#000000" points="377.5,-175.5 377.5,-194.5 490.5,-194.5 490.5,-175.5 377.5,-175.5"/>
<text text-anchor="middle" x="434" y="-182.5" font-family="Helvetica,sans-Serif" font-size="10.00" fill="#000000">MapNode::getTileID</text>
</a>
</g>
</g>
<!-- Node202&#45;&gt;Node207 -->
<g id="edge17" class="edge">
<title>Node202&#45;&gt;Node207</title>
<path fill="none" stroke="#191970" d="M282.0318,-154.5302C310.4031,-160.2187 346.6232,-167.4808 376.586,-173.4884"/>
<polygon fill="#191970" stroke="#191970" points="375.9941,-176.9393 386.487,-175.4736 377.3703,-170.0759 375.9941,-176.9393"/>
</g>
<!-- Node206 -->
<g id="node13" class="node">
<title>Node206</title>
<g id="a_node13"><a xlink:href="classMapNode.html#a64cb9a4523c9e78f256fde42f1dee43d" target="_top" xlink:title="check if specific Tile Data is autotile category. ">
<polygon fill="none" stroke="#000000" points="547,-38.5 547,-57.5 687,-57.5 687,-38.5 547,-38.5"/>
<text text-anchor="middle" x="617" y="-45.5" font-family="Helvetica,sans-Serif" font-size="10.00" fill="#000000">MapNode::isDataAutoTile</text>
</a>
</g>
</g>
<!-- Node205&#45;&gt;Node206 -->
<g id="edge16" class="edge">
<title>Node205&#45;&gt;Node206</title>
<path fill="none" stroke="#191970" d="M506.0638,-48C516.1158,-48 526.4959,-48 536.688,-48"/>
<polygon fill="#191970" stroke="#191970" points="536.7984,-51.5001 546.7984,-48 536.7983,-44.5001 536.7984,-51.5001"/>
</g>
</g>
</svg>
        <g id="navigator" transform="translate(0 0)" fill="#404254">
                <rect fill="#f2f5e9" fill-opacity="0.5" stroke="#606060" stroke-width=".5" x="0" y="0" width="60" height="60"/>
                <use id="zoomplus" xlink:href="#zoomPlus" x="17" y="9" onmousedown="handleZoom(evt,'in')"/>
                <use id="zoomminus" xlink:href="#zoomMin" x="42" y="9" onmousedown="handleZoom(evt,'out')"/>
                <use id="reset" xlink:href="#resetDef" x="30" y="36" onmousedown="handleReset()"/>
                <g id="arrowUp" xlink:href="#dirArrow" transform="translate(30 24)" onmousedown="handlePan(0,-1)">
                  <use xlink:href="#rim" fill="#404040">
                        <set attributeName="fill" to="#808080" begin="arrowUp.mouseover" end="arrowUp.mouseout"/>
                  </use>
                  <path fill="none" stroke="white" stroke-width="1.5" d="M0,-3.0v7 M-2.5,-0.5L0,-3.0L2.5,-0.5"/>
                </g>
                <g id="arrowRight" xlink:href="#dirArrow" transform="rotate(90) translate(36 -43)" onmousedown="handlePan(1,0)">
                  <use xlink:href="#rim" fill="#404040">
                        <set attributeName="fill" to="#808080" begin="arrowRight.mouseover" end="arrowRight.mouseout"/>
                  </use>
                  <path fill="none" stroke="white" stroke-width="1.5" d="M0,-3.0v7 M-2.5,-0.5L0,-3.0L2.5,-0.5"/>
                </g>
                <g id="arrowDown" xlink:href="#dirArrow" transform="rotate(180) translate(-30 -48)" onmousedown="handlePan(0,1)">
                  <use xlink:href="#rim" fill="#404040">
                        <set attributeName="fill" to="#808080" begin="arrowDown.mouseover" end="arrowDown.mouseout"/>
                  </use>
                  <path fill="none" stroke="white" stroke-width="1.5" d="M0,-3.0v7 M-2.5,-0.5L0,-3.0L2.5,-0.5"/>
                </g>
                <g id="arrowLeft" xlink:href="#dirArrow" transform="rotate(270) translate(-36 17)" onmousedown="handlePan(-1,0)">
                  <use xlink:href="#rim" fill="#404040">
                        <set attributeName="fill" to="#808080" begin="arrowLeft.mouseover" end="arrowLeft.mouseout"/>
                  </use>
                  <path fill="none" stroke="white" stroke-width="1.5" d="M0,-3.0v7 M-2.5,-0.5L0,-3.0L2.5,-0.5"/>
                </g>
        </g>
        <svg viewBox="0 0 15 15" width="100%" height="30px" preserveAspectRatio="xMaxYMin meet">
         <g id="arrow_out" transform="scale(0.3 0.3)">
          <a xlink:href="classMapNode_a26e55c94192a56990f8a59e7af139a73_cgraph_org.svg" target="_base">
           <rect id="button" ry="5" rx="5" y="6" x="6" height="38" width="38"
                fill="#f2f5e9" fill-opacity="0.5" stroke="#606060" stroke-width="1.0"/>
           <path id="arrow"
             d="M 11.500037,31.436501 C 11.940474,20.09759 22.043105,11.32322 32.158766,21.979434 L 37.068811,17.246167 C 37.068811,17.246167 37.088388,32 37.088388,32 L 22.160133,31.978069 C 22.160133,31.978069 26.997745,27.140456 26.997745,27.140456 C 18.528582,18.264221 13.291696,25.230495 11.500037,31.436501 z"
             style="fill:#404040;"/>
          </a>
         </g>
        </svg>
</svg>
