<?xml version="1.0" encoding="UTF-8" standalone="no"?>
<!DOCTYPE svg PUBLIC "-//W3C//DTD SVG 1.1//EN"
 "http://www.w3.org/Graphics/SVG/1.1/DTD/svg11.dtd">
<!-- Generated by graphviz version 2.40.1 (20161225.0304)
 -->
<!-- Title: UIElement::setLayoutGroupName Pages: 1 -->
<svg width="1020pt" height="47pt"
 viewBox="0.00 0.00 1020.00 47.00" xmlns="http://www.w3.org/2000/svg" xmlns:xlink="http://www.w3.org/1999/xlink">
<g id="graph0" class="graph" transform="scale(1 1) rotate(0) translate(4 43)">
<title>UIElement::setLayoutGroupName</title>
<!-- Node251 -->
<g id="node1" class="node">
<title>Node251</title>
<polygon fill="#bfbfbf" stroke="#000000" points="0,-19.5 0,-38.5 180,-38.5 180,-19.5 0,-19.5"/>
<text text-anchor="middle" x="90" y="-26.5" font-family="Helvetica,sans-Serif" font-size="10.00" fill="#000000">UIElement::setLayoutGroupName</text>
</g>
<!-- Node252 -->
<g id="node2" class="node">
<title>Node252</title>
<g id="a_node2"><a xlink:href="classUIManager.html#a5c87a391279c342c25d859eb7f3b144d" target="_top" xlink:title="UIManager::addToLayoutGroup">
<polygon fill="none" stroke="#000000" points="216,-19.5 216,-38.5 382,-38.5 382,-19.5 216,-19.5"/>
<text text-anchor="middle" x="299" y="-26.5" font-family="Helvetica,sans-Serif" font-size="10.00" fill="#000000">UIManager::addToLayoutGroup</text>
</a>
</g>
</g>
<!-- Node251&#45;&gt;Node252 -->
<g id="edge1" class="edge">
<title>Node251&#45;&gt;Node252</title>
<path fill="none" stroke="#191970" d="M190.171,-29C198.7332,-29 207.3343,-29 215.7437,-29"/>
<polygon fill="#191970" stroke="#191970" points="190.1513,-25.5001 180.1513,-29 190.1512,-32.5001 190.1513,-25.5001"/>
</g>
<!-- Node253 -->
<g id="node3" class="node">
<title>Node253</title>
<g id="a_node3"><a xlink:href="classUIManager.html#aedd9d0577af515a852425dfe414b2968" target="_top" xlink:title="Parses the UiLayout.json files and creates UI Elements. ">
<polygon fill="none" stroke="#000000" points="611,-19.5 611,-38.5 702,-38.5 702,-19.5 611,-19.5"/>
<text text-anchor="middle" x="656.5" y="-26.5" font-family="Helvetica,sans-Serif" font-size="10.00" fill="#000000">UIManager::init</text>
</a>
</g>
</g>
<!-- Node252&#45;&gt;Node253 -->
<g id="edge2" class="edge">
<title>Node252&#45;&gt;Node253</title>
<path fill="none" stroke="#191970" d="M392.5575,-29C462.8049,-29 555.965,-29 610.7505,-29"/>
<polygon fill="#191970" stroke="#191970" points="392.3667,-25.5001 382.3667,-29 392.3666,-32.5001 392.3667,-25.5001"/>
</g>
<!-- Node257 -->
<g id="node7" class="node">
<title>Node257</title>
<g id="a_node7"><a xlink:href="classUIManager.html#aae7a89e9d50bb6192e4140e07bd5f94b" target="_top" xlink:title="UIManager::createBuildMenu">
<polygon fill="none" stroke="#000000" points="418,-.5 418,-19.5 575,-19.5 575,-.5 418,-.5"/>
<text text-anchor="middle" x="496.5" y="-7.5" font-family="Helvetica,sans-Serif" font-size="10.00" fill="#000000">UIManager::createBuildMenu</text>
</a>
</g>
</g>
<!-- Node252&#45;&gt;Node257 -->
<g id="edge6" class="edge">
<title>Node252&#45;&gt;Node257</title>
<path fill="none" stroke="#191970" d="M392.2043,-20.0335C400.7741,-19.2091 409.3998,-18.3793 417.8221,-17.569"/>
<polygon fill="#191970" stroke="#191970" points="391.8042,-16.5557 382.1854,-20.9974 392.4746,-23.5236 391.8042,-16.5557"/>
</g>
<!-- Node254 -->
<g id="node4" class="node">
<title>Node254</title>
<g id="a_node4"><a xlink:href="classGame.html#a1c2ab25d5216b2f4b2fe41efd2c09114" target="_top" xlink:title="begins the game starts running the game ">
<polygon fill="none" stroke="#000000" points="738,-19.5 738,-38.5 806,-38.5 806,-19.5 738,-19.5"/>
<text text-anchor="middle" x="772" y="-26.5" font-family="Helvetica,sans-Serif" font-size="10.00" fill="#000000">Game::run</text>
</a>
</g>
</g>
<!-- Node253&#45;&gt;Node254 -->
<g id="edge3" class="edge">
<title>Node253&#45;&gt;Node254</title>
<path fill="none" stroke="#191970" d="M712.2726,-29C720.9603,-29 729.7077,-29 737.7272,-29"/>
<polygon fill="#191970" stroke="#191970" points="712.1487,-25.5001 702.1487,-29 712.1486,-32.5001 712.1487,-25.5001"/>
</g>
<!-- Node255 -->
<g id="node5" class="node">
<title>Node255</title>
<g id="a_node5"><a xlink:href="main_8cxx.html#af582d708d899e67ead623eac34a22387" target="_top" xlink:title="protected_main">
<polygon fill="none" stroke="#000000" points="842,-19.5 842,-38.5 935,-38.5 935,-19.5 842,-19.5"/>
<text text-anchor="middle" x="888.5" y="-26.5" font-family="Helvetica,sans-Serif" font-size="10.00" fill="#000000">protected_main</text>
</a>
</g>
</g>
<!-- Node254&#45;&gt;Node255 -->
<g id="edge4" class="edge">
<title>Node254&#45;&gt;Node255</title>
<path fill="none" stroke="#191970" d="M816.2653,-29C824.5757,-29 833.2897,-29 841.6749,-29"/>
<polygon fill="#191970" stroke="#191970" points="816.0098,-25.5001 806.0098,-29 816.0098,-32.5001 816.0098,-25.5001"/>
</g>
<!-- Node256 -->
<g id="node6" class="node">
<title>Node256</title>
<g id="a_node6"><a xlink:href="main_8cxx.html#a3c04138a5bfe5d72780bb7e82a18e627" target="_top" xlink:title="main">
<polygon fill="none" stroke="#000000" points="971,-19.5 971,-38.5 1012,-38.5 1012,-19.5 971,-19.5"/>
<text text-anchor="middle" x="991.5" y="-26.5" font-family="Helvetica,sans-Serif" font-size="10.00" fill="#000000">main</text>
</a>
</g>
</g>
<!-- Node255&#45;&gt;Node256 -->
<g id="edge5" class="edge">
<title>Node255&#45;&gt;Node256</title>
<path fill="none" stroke="#191970" d="M945.2133,-29C954.4322,-29 963.4259,-29 970.9965,-29"/>
<polygon fill="#191970" stroke="#191970" points="945.1782,-25.5001 935.1782,-29 945.1781,-32.5001 945.1782,-25.5001"/>
</g>
<!-- Node257&#45;&gt;Node253 -->
<g id="edge7" class="edge">
<title>Node257&#45;&gt;Node253</title>
<path fill="none" stroke="#191970" d="M585.0642,-20.517C593.8629,-21.5618 602.5218,-22.5901 610.6086,-23.5504"/>
<polygon fill="#191970" stroke="#191970" points="585.4368,-17.0367 575.0938,-19.333 584.6113,-23.9879 585.4368,-17.0367"/>
</g>
</g>
</svg>
