<?xml version="1.0" encoding="UTF-8" standalone="no"?>
<!DOCTYPE svg PUBLIC "-//W3C//DTD SVG 1.1//EN"
 "http://www.w3.org/Graphics/SVG/1.1/DTD/svg11.dtd">
<!-- Generated by graphviz version 2.40.1 (20161225.0304)
 -->
<!-- Title: Sprite::refresh Pages: 1 -->
<svg width="463pt" height="154pt"
 viewBox="0.00 0.00 463.00 153.50" xmlns="http://www.w3.org/2000/svg" xmlns:xlink="http://www.w3.org/1999/xlink">
<g id="graph0" class="graph" transform="scale(1 1) rotate(0) translate(4 149.5)">
<title>Sprite::refresh</title>
<!-- Node45 -->
<g id="node1" class="node">
<title>Node45</title>
<polygon fill="#bfbfbf" stroke="#000000" points="0,-77.5 0,-96.5 86,-96.5 86,-77.5 0,-77.5"/>
<text text-anchor="middle" x="43" y="-84.5" font-family="Helvetica,sans-Serif" font-size="10.00" fill="#000000">Sprite::refresh</text>
</g>
<!-- Node46 -->
<g id="node2" class="node">
<title>Node46</title>
<g id="a_node2"><a xlink:href="classSingleton.html#af5cb1e5749949e2b68416cfb8d378044" target="_top" xlink:title="Get an instance of the singleton. ">
<polygon fill="none" stroke="#000000" points="330,-115 330,-145 453,-145 453,-115 330,-115"/>
<text text-anchor="start" x="338" y="-133" font-family="Helvetica,sans-Serif" font-size="10.00" fill="#000000">Singleton&lt; Camera &gt;</text>
<text text-anchor="middle" x="391.5" y="-122" font-family="Helvetica,sans-Serif" font-size="10.00" fill="#000000">::instance</text>
</a>
</g>
</g>
<!-- Node45&#45;&gt;Node46 -->
<g id="edge1" class="edge">
<title>Node45&#45;&gt;Node46</title>
<path fill="none" stroke="#191970" d="M86.4012,-94.5604C97.952,-96.458 110.4336,-98.4057 122,-100 188.8141,-109.2097 265.2503,-117.507 319.6132,-123.0288"/>
<polygon fill="#191970" stroke="#191970" points="319.5396,-126.539 329.8406,-124.0613 320.2428,-119.5744 319.5396,-126.539"/>
</g>
<!-- Node47 -->
<g id="node3" class="node">
<title>Node47</title>
<g id="a_node3"><a xlink:href="classCamera.html#a72f8d27fc42f8292cc319084409d718e" target="_top" xlink:title="Camera::zoomLevel">
<polygon fill="none" stroke="#000000" points="334.5,-76.5 334.5,-95.5 448.5,-95.5 448.5,-76.5 334.5,-76.5"/>
<text text-anchor="middle" x="391.5" y="-83.5" font-family="Helvetica,sans-Serif" font-size="10.00" fill="#000000">Camera::zoomLevel</text>
</a>
</g>
</g>
<!-- Node45&#45;&gt;Node47 -->
<g id="edge2" class="edge">
<title>Node45&#45;&gt;Node47</title>
<path fill="none" stroke="#191970" d="M86.0825,-86.8764C145.7057,-86.7053 253.9609,-86.3947 324.2729,-86.1929"/>
<polygon fill="#191970" stroke="#191970" points="324.3713,-89.6927 334.3612,-86.164 324.3512,-82.6928 324.3713,-89.6927"/>
</g>
<!-- Node48 -->
<g id="node4" class="node">
<title>Node48</title>
<g id="a_node4"><a xlink:href="isoMath_8cxx.html#a229d5dd54cd4e1f43ed5911e4fd266d3" target="_top" xlink:title="converts coordinates from isometric to screen space The given isometric coordinates (which contain he...">
<polygon fill="none" stroke="#000000" points="122,-39.5 122,-58.5 292,-58.5 292,-39.5 122,-39.5"/>
<text text-anchor="middle" x="207" y="-46.5" font-family="Helvetica,sans-Serif" font-size="10.00" fill="#000000">convertIsoToScreenCoordinates</text>
</a>
</g>
</g>
<!-- Node45&#45;&gt;Node48 -->
<g id="edge3" class="edge">
<title>Node45&#45;&gt;Node48</title>
<path fill="none" stroke="#191970" d="M84.3841,-77.411C106.1232,-72.3739 132.9575,-66.1562 155.9747,-60.8229"/>
<polygon fill="#191970" stroke="#191970" points="156.9616,-64.1871 165.9135,-58.5201 155.3815,-57.3677 156.9616,-64.1871"/>
</g>
<!-- Node48&#45;&gt;Node46 -->
<g id="edge4" class="edge">
<title>Node48&#45;&gt;Node46</title>
<path fill="none" stroke="#191970" d="M226.9641,-58.6756C250.8216,-70.1364 292.0338,-89.6128 328,-105 332.7129,-107.0163 337.6465,-109.0651 342.5917,-111.0779"/>
<polygon fill="#191970" stroke="#191970" points="341.4769,-114.402 352.0606,-114.8862 344.0889,-107.9075 341.4769,-114.402"/>
</g>
<!-- Node48&#45;&gt;Node47 -->
<g id="edge6" class="edge">
<title>Node48&#45;&gt;Node47</title>
<path fill="none" stroke="#191970" d="M254.5133,-58.5284C278.7375,-63.3864 308.3921,-69.3334 333.9075,-74.4503"/>
<polygon fill="#191970" stroke="#191970" points="333.3344,-77.905 343.8274,-76.4396 334.7108,-71.0416 333.3344,-77.905"/>
</g>
<!-- Node49 -->
<g id="node5" class="node">
<title>Node49</title>
<g id="a_node5"><a xlink:href="classCamera.html#a8521826d32e55e2cc92fee0fcd10ea8b" target="_top" xlink:title="Camera::cameraOffset">
<polygon fill="none" stroke="#000000" points="328,-38.5 328,-57.5 455,-57.5 455,-38.5 328,-38.5"/>
<text text-anchor="middle" x="391.5" y="-45.5" font-family="Helvetica,sans-Serif" font-size="10.00" fill="#000000">Camera::cameraOffset</text>
</a>
</g>
</g>
<!-- Node48&#45;&gt;Node49 -->
<g id="edge5" class="edge">
<title>Node48&#45;&gt;Node49</title>
<path fill="none" stroke="#191970" d="M292.2292,-48.5381C300.7541,-48.4918 309.3595,-48.4452 317.7519,-48.3997"/>
<polygon fill="#191970" stroke="#191970" points="317.8825,-51.8992 327.8633,-48.3449 317.8444,-44.8993 317.8825,-51.8992"/>
</g>
<!-- Node50 -->
<g id="node6" class="node">
<title>Node50</title>
<g id="a_node6"><a xlink:href="classCamera.html#a96eee891e27570059e7ef82916dce1c1" target="_top" xlink:title="Camera::tileSize">
<polygon fill="none" stroke="#000000" points="343,-.5 343,-19.5 440,-19.5 440,-.5 343,-.5"/>
<text text-anchor="middle" x="391.5" y="-7.5" font-family="Helvetica,sans-Serif" font-size="10.00" fill="#000000">Camera::tileSize</text>
</a>
</g>
</g>
<!-- Node48&#45;&gt;Node50 -->
<g id="edge7" class="edge">
<title>Node48&#45;&gt;Node50</title>
<path fill="none" stroke="#191970" d="M252.1338,-39.4595C277.5803,-34.0806 309.5648,-27.3196 336.4728,-21.6318"/>
<polygon fill="#191970" stroke="#191970" points="337.4529,-25.002 346.5128,-19.5095 336.0051,-18.1534 337.4529,-25.002"/>
</g>
</g>
</svg>
