<?xml version="1.0" encoding="UTF-8" standalone="no"?>
<!DOCTYPE svg PUBLIC "-//W3C//DTD SVG 1.1//EN"
 "http://www.w3.org/Graphics/SVG/1.1/DTD/svg11.dtd">
<!-- Generated by graphviz version 2.40.1 (20161225.0304)
 -->
<!-- Title: UIManager::closeOpenMenus Pages: 1 -->
<svg width="1031pt" height="66pt"
 viewBox="0.00 0.00 1031.00 66.00" xmlns="http://www.w3.org/2000/svg" xmlns:xlink="http://www.w3.org/1999/xlink">
<g id="graph0" class="graph" transform="scale(1 1) rotate(0) translate(4 62)">
<title>UIManager::closeOpenMenus</title>
<!-- Node20 -->
<g id="node1" class="node">
<title>Node20</title>
<polygon fill="#bfbfbf" stroke="#000000" points="0,-19.5 0,-38.5 158,-38.5 158,-19.5 0,-19.5"/>
<text text-anchor="middle" x="79" y="-26.5" font-family="Helvetica,sans-Serif" font-size="10.00" fill="#000000">UIManager::closeOpenMenus</text>
</g>
<!-- Node21 -->
<g id="node2" class="node">
<title>Node21</title>
<g id="a_node2"><a xlink:href="classEventManager.html#a65ec91fd5016d4f9c4167fb8babed2df" target="_top" xlink:title="EventManager::checkEvents">
<polygon fill="none" stroke="#000000" points="420,-38.5 420,-57.5 574,-57.5 574,-38.5 420,-38.5"/>
<text text-anchor="middle" x="497" y="-45.5" font-family="Helvetica,sans-Serif" font-size="10.00" fill="#000000">EventManager::checkEvents</text>
</a>
</g>
</g>
<!-- Node20&#45;&gt;Node21 -->
<g id="edge1" class="edge">
<title>Node20&#45;&gt;Node21</title>
<path fill="none" stroke="#191970" d="M168.4592,-33.0663C243.2713,-36.4669 348.8699,-41.2668 419.9752,-44.4989"/>
<polygon fill="#191970" stroke="#191970" points="168.2627,-29.5539 158.114,-32.5961 167.9447,-36.5467 168.2627,-29.5539"/>
</g>
<!-- Node25 -->
<g id="node6" class="node">
<title>Node25</title>
<g id="a_node6"><a xlink:href="classUIManager.html#a23bbbe53c18c31ff1c68c105dfa0dbd3" target="_top" xlink:title="Callback function for toggling the visibility of an UiGroup Callback function for Ui Widgets with the...">
<polygon fill="none" stroke="#000000" points="194,-.5 194,-19.5 372,-19.5 372,-.5 194,-.5"/>
<text text-anchor="middle" x="283" y="-7.5" font-family="Helvetica,sans-Serif" font-size="10.00" fill="#000000">UIManager::toggleGroupVisibility</text>
</a>
</g>
</g>
<!-- Node20&#45;&gt;Node25 -->
<g id="edge5" class="edge">
<title>Node20&#45;&gt;Node25</title>
<path fill="none" stroke="#191970" d="M168.3538,-20.6778C176.7681,-19.8941 185.299,-19.0996 193.7128,-18.316"/>
<polygon fill="#191970" stroke="#191970" points="167.796,-17.2145 158.1637,-21.6269 168.4452,-24.1844 167.796,-17.2145"/>
</g>
<!-- Node22 -->
<g id="node3" class="node">
<title>Node22</title>
<g id="a_node3"><a xlink:href="classGame.html#a1c2ab25d5216b2f4b2fe41efd2c09114" target="_top" xlink:title="begins the game starts running the game ">
<polygon fill="none" stroke="#000000" points="749,-19.5 749,-38.5 817,-38.5 817,-19.5 749,-19.5"/>
<text text-anchor="middle" x="783" y="-26.5" font-family="Helvetica,sans-Serif" font-size="10.00" fill="#000000">Game::run</text>
</a>
</g>
</g>
<!-- Node21&#45;&gt;Node22 -->
<g id="edge2" class="edge">
<title>Node21&#45;&gt;Node22</title>
<path fill="none" stroke="#191970" d="M584.1973,-42.2072C639.586,-38.5275 708.2222,-33.9678 748.6483,-31.2821"/>
<polygon fill="#191970" stroke="#191970" points="583.7649,-38.7281 574.019,-42.8834 584.229,-45.7127 583.7649,-38.7281"/>
</g>
<!-- Node23 -->
<g id="node4" class="node">
<title>Node23</title>
<g id="a_node4"><a xlink:href="main_8cxx.html#af582d708d899e67ead623eac34a22387" target="_top" xlink:title="protected_main">
<polygon fill="none" stroke="#000000" points="853,-19.5 853,-38.5 946,-38.5 946,-19.5 853,-19.5"/>
<text text-anchor="middle" x="899.5" y="-26.5" font-family="Helvetica,sans-Serif" font-size="10.00" fill="#000000">protected_main</text>
</a>
</g>
</g>
<!-- Node22&#45;&gt;Node23 -->
<g id="edge3" class="edge">
<title>Node22&#45;&gt;Node23</title>
<path fill="none" stroke="#191970" d="M827.2653,-29C835.5757,-29 844.2897,-29 852.6749,-29"/>
<polygon fill="#191970" stroke="#191970" points="827.0098,-25.5001 817.0098,-29 827.0098,-32.5001 827.0098,-25.5001"/>
</g>
<!-- Node24 -->
<g id="node5" class="node">
<title>Node24</title>
<g id="a_node5"><a xlink:href="main_8cxx.html#a3c04138a5bfe5d72780bb7e82a18e627" target="_top" xlink:title="main">
<polygon fill="none" stroke="#000000" points="982,-19.5 982,-38.5 1023,-38.5 1023,-19.5 982,-19.5"/>
<text text-anchor="middle" x="1002.5" y="-26.5" font-family="Helvetica,sans-Serif" font-size="10.00" fill="#000000">main</text>
</a>
</g>
</g>
<!-- Node23&#45;&gt;Node24 -->
<g id="edge4" class="edge">
<title>Node23&#45;&gt;Node24</title>
<path fill="none" stroke="#191970" d="M956.2133,-29C965.4322,-29 974.4259,-29 981.9965,-29"/>
<polygon fill="#191970" stroke="#191970" points="956.1782,-25.5001 946.1782,-29 956.1781,-32.5001 956.1782,-25.5001"/>
</g>
<!-- Node25&#45;&gt;Node21 -->
<g id="edge6" class="edge">
<title>Node25&#45;&gt;Node21</title>
<path fill="none" stroke="#191970" d="M346.9013,-21.347C377.6053,-26.7991 413.9942,-33.2607 443.2529,-38.4561"/>
<polygon fill="#191970" stroke="#191970" points="347.1829,-17.8423 336.725,-19.54 345.959,-24.7345 347.1829,-17.8423"/>
</g>
<!-- Node26 -->
<g id="node7" class="node">
<title>Node26</title>
<g id="a_node7"><a xlink:href="classUIManager.html#aa78e356fc3b356d790c848319d1c387e" target="_top" xlink:title="UIManager::setCallbackFunctions">
<polygon fill="none" stroke="#000000" points="408,-.5 408,-19.5 586,-19.5 586,-.5 408,-.5"/>
<text text-anchor="middle" x="497" y="-7.5" font-family="Helvetica,sans-Serif" font-size="10.00" fill="#000000">UIManager::setCallbackFunctions</text>
</a>
</g>
</g>
<!-- Node25&#45;&gt;Node26 -->
<g id="edge7" class="edge">
<title>Node25&#45;&gt;Node26</title>
<path fill="none" stroke="#191970" d="M382.2299,-10C390.8066,-10 399.4503,-10 407.9388,-10"/>
<polygon fill="#191970" stroke="#191970" points="382.2057,-6.5001 372.2057,-10 382.2056,-13.5001 382.2057,-6.5001"/>
</g>
<!-- Node27 -->
<g id="node8" class="node">
<title>Node27</title>
<g id="a_node8"><a xlink:href="classUIManager.html#aedd9d0577af515a852425dfe414b2968" target="_top" xlink:title="Parses the UiLayout.json files and creates UI Elements. ">
<polygon fill="none" stroke="#000000" points="622,-.5 622,-19.5 713,-19.5 713,-.5 622,-.5"/>
<text text-anchor="middle" x="667.5" y="-7.5" font-family="Helvetica,sans-Serif" font-size="10.00" fill="#000000">UIManager::init</text>
</a>
</g>
</g>
<!-- Node26&#45;&gt;Node27 -->
<g id="edge8" class="edge">
<title>Node26&#45;&gt;Node27</title>
<path fill="none" stroke="#191970" d="M596.2456,-10C605.0449,-10 613.6396,-10 621.6409,-10"/>
<polygon fill="#191970" stroke="#191970" points="596.2448,-6.5001 586.2448,-10 596.2448,-13.5001 596.2448,-6.5001"/>
</g>
<!-- Node27&#45;&gt;Node22 -->
<g id="edge9" class="edge">
<title>Node27&#45;&gt;Node22</title>
<path fill="none" stroke="#191970" d="M723.2726,-19.1747C731.9603,-20.6039 740.7077,-22.0428 748.7272,-23.3621"/>
<polygon fill="#191970" stroke="#191970" points="723.5842,-15.679 713.1487,-17.5093 722.4479,-22.5862 723.5842,-15.679"/>
</g>
</g>
</svg>
