<?xml version="1.0" encoding="UTF-8" standalone="no"?>
<!DOCTYPE svg PUBLIC "-//W3C//DTD SVG 1.1//EN"
 "http://www.w3.org/Graphics/SVG/1.1/DTD/svg11.dtd">
<!-- Generated by graphviz version 2.40.1 (20161225.0304)
 -->
<!-- Title: UIManager::startTooltip Pages: 1 -->
<svg width="638pt" height="28pt"
 viewBox="0.00 0.00 638.00 28.00" xmlns="http://www.w3.org/2000/svg" xmlns:xlink="http://www.w3.org/1999/xlink">
<g id="graph0" class="graph" transform="scale(1 1) rotate(0) translate(4 24)">
<title>UIManager::startTooltip</title>
<!-- Node308 -->
<g id="node1" class="node">
<title>Node308</title>
<polygon fill="#bfbfbf" stroke="#000000" points="0,-.5 0,-19.5 130,-19.5 130,-.5 0,-.5"/>
<text text-anchor="middle" x="65" y="-7.5" font-family="Helvetica,sans-Serif" font-size="10.00" fill="#000000">UIManager::startTooltip</text>
</g>
<!-- Node309 -->
<g id="node2" class="node">
<title>Node309</title>
<g id="a_node2"><a xlink:href="classEventManager.html#a65ec91fd5016d4f9c4167fb8babed2df" target="_top" xlink:title="EventManager::checkEvents">
<polygon fill="none" stroke="#000000" points="166,-.5 166,-19.5 320,-19.5 320,-.5 166,-.5"/>
<text text-anchor="middle" x="243" y="-7.5" font-family="Helvetica,sans-Serif" font-size="10.00" fill="#000000">EventManager::checkEvents</text>
</a>
</g>
</g>
<!-- Node308&#45;&gt;Node309 -->
<g id="edge1" class="edge">
<title>Node308&#45;&gt;Node309</title>
<path fill="none" stroke="#191970" d="M140.2206,-10C148.6716,-10 157.2924,-10 165.7684,-10"/>
<polygon fill="#191970" stroke="#191970" points="140.0177,-6.5001 130.0177,-10 140.0176,-13.5001 140.0177,-6.5001"/>
</g>
<!-- Node310 -->
<g id="node3" class="node">
<title>Node310</title>
<g id="a_node3"><a xlink:href="classGame.html#a1c2ab25d5216b2f4b2fe41efd2c09114" target="_top" xlink:title="begins the game starts running the game ">
<polygon fill="none" stroke="#000000" points="356,-.5 356,-19.5 424,-19.5 424,-.5 356,-.5"/>
<text text-anchor="middle" x="390" y="-7.5" font-family="Helvetica,sans-Serif" font-size="10.00" fill="#000000">Game::run</text>
</a>
</g>
</g>
<!-- Node309&#45;&gt;Node310 -->
<g id="edge2" class="edge">
<title>Node309&#45;&gt;Node310</title>
<path fill="none" stroke="#191970" d="M330.5248,-10C339.4338,-10 348.0572,-10 355.845,-10"/>
<polygon fill="#191970" stroke="#191970" points="330.3744,-6.5001 320.3744,-10 330.3743,-13.5001 330.3744,-6.5001"/>
</g>
<!-- Node311 -->
<g id="node4" class="node">
<title>Node311</title>
<g id="a_node4"><a xlink:href="main_8cxx.html#af582d708d899e67ead623eac34a22387" target="_top" xlink:title="protected_main">
<polygon fill="none" stroke="#000000" points="460,-.5 460,-19.5 553,-19.5 553,-.5 460,-.5"/>
<text text-anchor="middle" x="506.5" y="-7.5" font-family="Helvetica,sans-Serif" font-size="10.00" fill="#000000">protected_main</text>
</a>
</g>
</g>
<!-- Node310&#45;&gt;Node311 -->
<g id="edge3" class="edge">
<title>Node310&#45;&gt;Node311</title>
<path fill="none" stroke="#191970" d="M434.2653,-10C442.5757,-10 451.2897,-10 459.6749,-10"/>
<polygon fill="#191970" stroke="#191970" points="434.0098,-6.5001 424.0098,-10 434.0098,-13.5001 434.0098,-6.5001"/>
</g>
<!-- Node312 -->
<g id="node5" class="node">
<title>Node312</title>
<g id="a_node5"><a xlink:href="main_8cxx.html#a3c04138a5bfe5d72780bb7e82a18e627" target="_top" xlink:title="main">
<polygon fill="none" stroke="#000000" points="589,-.5 589,-19.5 630,-19.5 630,-.5 589,-.5"/>
<text text-anchor="middle" x="609.5" y="-7.5" font-family="Helvetica,sans-Serif" font-size="10.00" fill="#000000">main</text>
</a>
</g>
</g>
<!-- Node311&#45;&gt;Node312 -->
<g id="edge4" class="edge">
<title>Node311&#45;&gt;Node312</title>
<path fill="none" stroke="#191970" d="M563.2133,-10C572.4322,-10 581.4259,-10 588.9965,-10"/>
<polygon fill="#191970" stroke="#191970" points="563.1782,-6.5001 553.1782,-10 563.1781,-13.5001 563.1782,-6.5001"/>
</g>
</g>
</svg>
