<?xml version="1.0" encoding="UTF-8" standalone="no"?>
<!DOCTYPE svg PUBLIC "-//W3C//DTD SVG 1.1//EN"
 "http://www.w3.org/Graphics/SVG/1.1/DTD/svg11.dtd">
<!-- Generated by graphviz version 2.40.1 (20161225.0304)
 -->
<!-- Title: UIManager::setBuildMenuPosition Pages: 1 -->
<svg width="807pt" height="39pt"
 viewBox="0.00 0.00 807.00 39.00" xmlns="http://www.w3.org/2000/svg" xmlns:xlink="http://www.w3.org/1999/xlink">
<g id="graph0" class="graph" transform="scale(1 1) rotate(0) translate(4 35)">
<title>UIManager::setBuildMenuPosition</title>
<!-- Node257 -->
<g id="node1" class="node">
<title>Node257</title>
<polygon fill="#bfbfbf" stroke="#000000" points="0,-6 0,-25 180,-25 180,-6 0,-6"/>
<text text-anchor="middle" x="90" y="-13" font-family="Helvetica,sans-Serif" font-size="10.00" fill="#000000">UIManager::setBuildMenuPosition</text>
</g>
<!-- Node258 -->
<g id="node2" class="node">
<title>Node258</title>
<g id="a_node2"><a xlink:href="classUIManager.html#a5c4cb8e02504ffa0d3faf45181feab9d" target="_top" xlink:title="Fill UI Widgets whose ID start with a $ with data Used for filling widgets with data, like BuildMenu Position combobox, Screen Resolution ComboBox and so on. ">
<polygon fill="none" stroke="#000000" points="216,-.5 216,-30.5 362,-30.5 362,-.5 216,-.5"/>
<text text-anchor="start" x="224" y="-18.5" font-family="Helvetica,sans-Serif" font-size="10.00" fill="#000000">UIManager::initializeDollar</text>
<text text-anchor="middle" x="289" y="-7.5" font-family="Helvetica,sans-Serif" font-size="10.00" fill="#000000">Variables</text>
</a>
</g>
</g>
<!-- Node257&#45;&gt;Node258 -->
<g id="edge1" class="edge">
<title>Node257&#45;&gt;Node258</title>
<path fill="none" stroke="#191970" d="M190.2766,-15.5C198.8841,-15.5 207.4838,-15.5 215.8181,-15.5"/>
<polygon fill="#191970" stroke="#191970" points="190.1841,-12.0001 180.184,-15.5 190.184,-19.0001 190.1841,-12.0001"/>
</g>
<!-- Node259 -->
<g id="node3" class="node">
<title>Node259</title>
<g id="a_node3"><a xlink:href="classUIManager.html#aedd9d0577af515a852425dfe414b2968" target="_top" xlink:title="Parses the UiLayout.json files and creates UI Elements. ">
<polygon fill="none" stroke="#000000" points="398,-6 398,-25 489,-25 489,-6 398,-6"/>
<text text-anchor="middle" x="443.5" y="-13" font-family="Helvetica,sans-Serif" font-size="10.00" fill="#000000">UIManager::init</text>
</a>
</g>
</g>
<!-- Node258&#45;&gt;Node259 -->
<g id="edge2" class="edge">
<title>Node258&#45;&gt;Node259</title>
<path fill="none" stroke="#191970" d="M372.4491,-15.5C381.1801,-15.5 389.8047,-15.5 397.873,-15.5"/>
<polygon fill="#191970" stroke="#191970" points="372.178,-12.0001 362.1779,-15.5 372.1779,-19.0001 372.178,-12.0001"/>
</g>
<!-- Node260 -->
<g id="node4" class="node">
<title>Node260</title>
<g id="a_node4"><a xlink:href="classGame.html#a1c2ab25d5216b2f4b2fe41efd2c09114" target="_top" xlink:title="begins the game starts running the game ">
<polygon fill="none" stroke="#000000" points="525,-6 525,-25 593,-25 593,-6 525,-6"/>
<text text-anchor="middle" x="559" y="-13" font-family="Helvetica,sans-Serif" font-size="10.00" fill="#000000">Game::run</text>
</a>
</g>
</g>
<!-- Node259&#45;&gt;Node260 -->
<g id="edge3" class="edge">
<title>Node259&#45;&gt;Node260</title>
<path fill="none" stroke="#191970" d="M499.2726,-15.5C507.9603,-15.5 516.7077,-15.5 524.7272,-15.5"/>
<polygon fill="#191970" stroke="#191970" points="499.1487,-12.0001 489.1487,-15.5 499.1486,-19.0001 499.1487,-12.0001"/>
</g>
<!-- Node261 -->
<g id="node5" class="node">
<title>Node261</title>
<g id="a_node5"><a xlink:href="main_8cxx.html#af582d708d899e67ead623eac34a22387" target="_top" xlink:title="protected_main">
<polygon fill="none" stroke="#000000" points="629,-6 629,-25 722,-25 722,-6 629,-6"/>
<text text-anchor="middle" x="675.5" y="-13" font-family="Helvetica,sans-Serif" font-size="10.00" fill="#000000">protected_main</text>
</a>
</g>
</g>
<!-- Node260&#45;&gt;Node261 -->
<g id="edge4" class="edge">
<title>Node260&#45;&gt;Node261</title>
<path fill="none" stroke="#191970" d="M603.2653,-15.5C611.5757,-15.5 620.2897,-15.5 628.6749,-15.5"/>
<polygon fill="#191970" stroke="#191970" points="603.0098,-12.0001 593.0098,-15.5 603.0098,-19.0001 603.0098,-12.0001"/>
</g>
<!-- Node262 -->
<g id="node6" class="node">
<title>Node262</title>
<g id="a_node6"><a xlink:href="main_8cxx.html#a3c04138a5bfe5d72780bb7e82a18e627" target="_top" xlink:title="main">
<polygon fill="none" stroke="#000000" points="758,-6 758,-25 799,-25 799,-6 758,-6"/>
<text text-anchor="middle" x="778.5" y="-13" font-family="Helvetica,sans-Serif" font-size="10.00" fill="#000000">main</text>
</a>
</g>
</g>
<!-- Node261&#45;&gt;Node262 -->
<g id="edge5" class="edge">
<title>Node261&#45;&gt;Node262</title>
<path fill="none" stroke="#191970" d="M732.2133,-15.5C741.4322,-15.5 750.4259,-15.5 757.9965,-15.5"/>
<polygon fill="#191970" stroke="#191970" points="732.1782,-12.0001 722.1782,-15.5 732.1781,-19.0001 732.1782,-12.0001"/>
</g>
</g>
</svg>
