<?xml version="1.0" encoding="UTF-8" standalone="no"?>
<!DOCTYPE svg PUBLIC "-//W3C//DTD SVG 1.1//EN"
 "http://www.w3.org/Graphics/SVG/1.1/DTD/svg11.dtd">
<!-- Generated by graphviz version 2.40.1 (20161225.0304)
 -->
<!-- Title: UIElement::getUiElementRect Pages: 1 -->
<svg width="1403pt" height="149pt"
 viewBox="0.00 0.00 1403.00 149.42" xmlns="http://www.w3.org/2000/svg" xmlns:xlink="http://www.w3.org/1999/xlink">
<g id="graph0" class="graph" transform="scale(1 1) rotate(0) translate(4 145.416)">
<title>UIElement::getUiElementRect</title>
<!-- Node137 -->
<g id="node1" class="node">
<title>Node137</title>
<polygon fill="#bfbfbf" stroke="#000000" points="0,-57.5 0,-76.5 161,-76.5 161,-57.5 0,-57.5"/>
<text text-anchor="middle" x="80.5" y="-64.5" font-family="Helvetica,sans-Serif" font-size="10.00" fill="#000000">UIElement::getUiElementRect</text>
</g>
<!-- Node138 -->
<g id="node2" class="node">
<title>Node138</title>
<g id="a_node2"><a xlink:href="classLayout.html#a99004e4afcea6a945e3890b19cce6236" target="_top" xlink:title="Arrange Elements that are aligned to a parent This is a seperate function, so it can recurse if a par...">
<polygon fill="none" stroke="#000000" points="197,-114.5 197,-133.5 361,-133.5 361,-114.5 197,-114.5"/>
<text text-anchor="middle" x="279" y="-121.5" font-family="Helvetica,sans-Serif" font-size="10.00" fill="#000000">Layout::arrangeChildElements</text>
</a>
</g>
</g>
<!-- Node137&#45;&gt;Node138 -->
<g id="edge1" class="edge">
<title>Node137&#45;&gt;Node138</title>
<path fill="none" stroke="#191970" d="M117.2201,-79.8914C140.0302,-87.6709 170.0416,-97.4957 197,-105 209.1071,-108.3702 222.3338,-111.6203 234.5614,-114.4506"/>
<polygon fill="#191970" stroke="#191970" points="118.1946,-76.5255 107.5999,-76.5862 115.9201,-83.1457 118.1946,-76.5255"/>
</g>
<!-- Node146 -->
<g id="node10" class="node">
<title>Node146</title>
<g id="a_node10"><a xlink:href="classTextField.html#abe03b4b6ebf469645940cfa018bcdca2" target="_top" xlink:title="TextField::addText">
<polygon fill="none" stroke="#000000" points="227,-76.5 227,-95.5 331,-95.5 331,-76.5 227,-76.5"/>
<text text-anchor="middle" x="279" y="-83.5" font-family="Helvetica,sans-Serif" font-size="10.00" fill="#000000">TextField::addText</text>
</a>
</g>
</g>
<!-- Node137&#45;&gt;Node146 -->
<g id="edge10" class="edge">
<title>Node137&#45;&gt;Node146</title>
<path fill="none" stroke="#191970" d="M171.4152,-75.7022C190.3956,-77.519 209.7853,-79.3749 226.7816,-81.0018"/>
<polygon fill="#191970" stroke="#191970" points="171.5256,-72.1969 161.2375,-74.728 170.8585,-79.165 171.5256,-72.1969"/>
</g>
<!-- Node147 -->
<g id="node11" class="node">
<title>Node147</title>
<g id="a_node11"><a xlink:href="classUIManager.html#a007e9b56a4835b98db2b203df96ea79d" target="_top" xlink:title="Draws the tile (defined by the string, tiledata pair) onto the button. ">
<polygon fill="none" stroke="#000000" points="397,-36 397,-66 549,-66 549,-36 397,-36"/>
<text text-anchor="start" x="405" y="-54" font-family="Helvetica,sans-Serif" font-size="10.00" fill="#000000">UIManager::setupButtonTile</text>
<text text-anchor="middle" x="473" y="-43" font-family="Helvetica,sans-Serif" font-size="10.00" fill="#000000">Image</text>
</a>
</g>
</g>
<!-- Node137&#45;&gt;Node147 -->
<g id="edge11" class="edge">
<title>Node137&#45;&gt;Node147</title>
<path fill="none" stroke="#191970" d="M171.68,-63.2831C240.0379,-60.4965 332.5147,-56.7268 396.9185,-54.1014"/>
<polygon fill="#191970" stroke="#191970" points="171.1995,-59.7997 161.3503,-63.7042 171.4846,-66.7939 171.1995,-59.7997"/>
</g>
<!-- Node149 -->
<g id="node13" class="node">
<title>Node149</title>
<g id="a_node13"><a xlink:href="classGame.html#a560299f0291c281f7b44e7ef0dd7b264" target="_top" xlink:title="initializes and displays the main menu initializes and displays the main menu ">
<polygon fill="none" stroke="#000000" points="623.5,-.5 623.5,-19.5 726.5,-19.5 726.5,-.5 623.5,-.5"/>
<text text-anchor="middle" x="675" y="-7.5" font-family="Helvetica,sans-Serif" font-size="10.00" fill="#000000">Game::mainMenu</text>
</a>
</g>
</g>
<!-- Node137&#45;&gt;Node149 -->
<g id="edge14" class="edge">
<title>Node137&#45;&gt;Node149</title>
<path fill="none" stroke="#191970" d="M158.9674,-56.0909C171.6782,-54.3618 184.7013,-52.6132 197,-51 285.8199,-39.35 307.7894,-34.1337 397,-26 475.8359,-18.8122 567.561,-14.2733 623.4305,-11.9355"/>
<polygon fill="#191970" stroke="#191970" points="158.295,-52.6501 148.8602,-57.4703 159.2417,-59.5858 158.295,-52.6501"/>
</g>
<!-- Node139 -->
<g id="node3" class="node">
<title>Node139</title>
<g id="a_node3"><a xlink:href="classLayout.html#afa734c5af10f59f3dadb066054fe81ab" target="_top" xlink:title="Arrange the layout elements. ">
<polygon fill="none" stroke="#000000" points="403.5,-114.5 403.5,-133.5 542.5,-133.5 542.5,-114.5 403.5,-114.5"/>
<text text-anchor="middle" x="473" y="-121.5" font-family="Helvetica,sans-Serif" font-size="10.00" fill="#000000">Layout::arrangeElements</text>
</a>
</g>
</g>
<!-- Node138&#45;&gt;Node139 -->
<g id="edge2" class="edge">
<title>Node138&#45;&gt;Node139</title>
<path fill="none" stroke="#191970" d="M371.5349,-124C382.279,-124 393.0964,-124 403.4582,-124"/>
<polygon fill="#191970" stroke="#191970" points="371.2735,-120.5001 361.2735,-124 371.2734,-127.5001 371.2735,-120.5001"/>
</g>
<!-- Node140 -->
<g id="node4" class="node">
<title>Node140</title>
<g id="a_node4"><a xlink:href="classUIManager.html#aedd9d0577af515a852425dfe414b2968" target="_top" xlink:title="Parses the UiLayout.json files and creates UI Elements. ">
<polygon fill="none" stroke="#000000" points="994,-72.5 994,-91.5 1085,-91.5 1085,-72.5 994,-72.5"/>
<text text-anchor="middle" x="1039.5" y="-79.5" font-family="Helvetica,sans-Serif" font-size="10.00" fill="#000000">UIManager::init</text>
</a>
</g>
</g>
<!-- Node139&#45;&gt;Node140 -->
<g id="edge3" class="edge">
<title>Node139&#45;&gt;Node140</title>
<path fill="none" stroke="#191970" d="M552.7258,-133.1442C649.7812,-142.0072 818.0598,-150.0344 958,-119 982.1212,-113.6507 1007.7186,-100.6732 1023.6535,-91.6067"/>
<polygon fill="#191970" stroke="#191970" points="552.9772,-129.6525 542.6937,-132.2017 552.3225,-136.6218 552.9772,-129.6525"/>
</g>
<!-- Node144 -->
<g id="node8" class="node">
<title>Node144</title>
<g id="a_node8"><a xlink:href="classUIManager.html#a3ccb2fc669262f18ebdcdf3d5c43a3e8" target="_top" xlink:title="CallbackFunction that sets the Build Menu Position Used as callback function for the ComboBox that ho...">
<polygon fill="none" stroke="#000000" points="585,-87.5 585,-106.5 765,-106.5 765,-87.5 585,-87.5"/>
<text text-anchor="middle" x="675" y="-94.5" font-family="Helvetica,sans-Serif" font-size="10.00" fill="#000000">UIManager::setBuildMenuPosition</text>
</a>
</g>
</g>
<!-- Node139&#45;&gt;Node144 -->
<g id="edge7" class="edge">
<title>Node139&#45;&gt;Node144</title>
<path fill="none" stroke="#191970" d="M552.8376,-113.3286C569.6107,-111.0867 587.199,-108.7358 603.638,-106.5385"/>
<polygon fill="#191970" stroke="#191970" points="551.9651,-109.914 542.5169,-114.7081 552.8925,-116.8523 551.9651,-109.914"/>
</g>
<!-- Node141 -->
<g id="node5" class="node">
<title>Node141</title>
<g id="a_node5"><a xlink:href="classGame.html#a1c2ab25d5216b2f4b2fe41efd2c09114" target="_top" xlink:title="begins the game starts running the game ">
<polygon fill="none" stroke="#000000" points="1121,-61.5 1121,-80.5 1189,-80.5 1189,-61.5 1121,-61.5"/>
<text text-anchor="middle" x="1155" y="-68.5" font-family="Helvetica,sans-Serif" font-size="10.00" fill="#000000">Game::run</text>
</a>
</g>
</g>
<!-- Node140&#45;&gt;Node141 -->
<g id="edge4" class="edge">
<title>Node140&#45;&gt;Node141</title>
<path fill="none" stroke="#191970" d="M1095.2726,-76.6883C1103.9603,-75.8609 1112.7077,-75.0278 1120.7272,-74.2641"/>
<polygon fill="#191970" stroke="#191970" points="1094.7718,-73.2201 1085.1487,-77.6525 1095.4355,-80.1886 1094.7718,-73.2201"/>
</g>
<!-- Node142 -->
<g id="node6" class="node">
<title>Node142</title>
<g id="a_node6"><a xlink:href="main_8cxx.html#af582d708d899e67ead623eac34a22387" target="_top" xlink:title="protected_main">
<polygon fill="none" stroke="#000000" points="1225,-20.5 1225,-39.5 1318,-39.5 1318,-20.5 1225,-20.5"/>
<text text-anchor="middle" x="1271.5" y="-27.5" font-family="Helvetica,sans-Serif" font-size="10.00" fill="#000000">protected_main</text>
</a>
</g>
</g>
<!-- Node141&#45;&gt;Node142 -->
<g id="edge5" class="edge">
<title>Node141&#45;&gt;Node142</title>
<path fill="none" stroke="#191970" d="M1191.6555,-58.0998C1208.6733,-52.1107 1228.5556,-45.1135 1244.2227,-39.5997"/>
<polygon fill="#191970" stroke="#191970" points="1190.2912,-54.8694 1182.0203,-61.4907 1192.6151,-61.4724 1190.2912,-54.8694"/>
</g>
<!-- Node143 -->
<g id="node7" class="node">
<title>Node143</title>
<g id="a_node7"><a xlink:href="main_8cxx.html#a3c04138a5bfe5d72780bb7e82a18e627" target="_top" xlink:title="main">
<polygon fill="none" stroke="#000000" points="1354,-20.5 1354,-39.5 1395,-39.5 1395,-20.5 1354,-20.5"/>
<text text-anchor="middle" x="1374.5" y="-27.5" font-family="Helvetica,sans-Serif" font-size="10.00" fill="#000000">main</text>
</a>
</g>
</g>
<!-- Node142&#45;&gt;Node143 -->
<g id="edge6" class="edge">
<title>Node142&#45;&gt;Node143</title>
<path fill="none" stroke="#191970" d="M1328.2133,-30C1337.4322,-30 1346.4259,-30 1353.9965,-30"/>
<polygon fill="#191970" stroke="#191970" points="1328.1782,-26.5001 1318.1782,-30 1328.1781,-33.5001 1328.1782,-26.5001"/>
</g>
<!-- Node145 -->
<g id="node9" class="node">
<title>Node145</title>
<g id="a_node9"><a xlink:href="classUIManager.html#a5c4cb8e02504ffa0d3faf45181feab9d" target="_top" xlink:title="Fill UI Widgets whose ID start with a $ with data Used for filling widgets with data, like BuildMenu Position combobox, Screen Resolution ComboBox and so on. ">
<polygon fill="none" stroke="#000000" points="806.5,-79 806.5,-109 952.5,-109 952.5,-79 806.5,-79"/>
<text text-anchor="start" x="814.5" y="-97" font-family="Helvetica,sans-Serif" font-size="10.00" fill="#000000">UIManager::initializeDollar</text>
<text text-anchor="middle" x="879.5" y="-86" font-family="Helvetica,sans-Serif" font-size="10.00" fill="#000000">Variables</text>
</a>
</g>
</g>
<!-- Node144&#45;&gt;Node145 -->
<g id="edge8" class="edge">
<title>Node144&#45;&gt;Node145</title>
<path fill="none" stroke="#191970" d="M775.6025,-95.5242C785.9361,-95.3726 796.2922,-95.2207 806.2484,-95.0746"/>
<polygon fill="#191970" stroke="#191970" points="775.2395,-92.029 765.292,-95.6754 775.3423,-99.0283 775.2395,-92.029"/>
</g>
<!-- Node145&#45;&gt;Node140 -->
<g id="edge9" class="edge">
<title>Node145&#45;&gt;Node140</title>
<path fill="none" stroke="#191970" d="M963.1138,-87.729C973.7193,-86.9336 984.2399,-86.1445 993.9281,-85.4179"/>
<polygon fill="#191970" stroke="#191970" points="962.6542,-84.2535 952.944,-88.4917 963.1778,-91.2339 962.6542,-84.2535"/>
</g>
<!-- Node148 -->
<g id="node12" class="node">
<title>Node148</title>
<g id="a_node12"><a xlink:href="classUIManager.html#aae7a89e9d50bb6192e4140e07bd5f94b" target="_top" xlink:title="UIManager::createBuildMenu">
<polygon fill="none" stroke="#000000" points="801,-40.5 801,-59.5 958,-59.5 958,-40.5 801,-40.5"/>
<text text-anchor="middle" x="879.5" y="-47.5" font-family="Helvetica,sans-Serif" font-size="10.00" fill="#000000">UIManager::createBuildMenu</text>
</a>
</g>
</g>
<!-- Node147&#45;&gt;Node148 -->
<g id="edge12" class="edge">
<title>Node147&#45;&gt;Node148</title>
<path fill="none" stroke="#191970" d="M559.7913,-50.7865C631.2939,-50.6106 731.8183,-50.3633 800.959,-50.1932"/>
<polygon fill="#191970" stroke="#191970" points="559.4509,-47.2872 549.4595,-50.8119 559.4682,-54.2872 559.4509,-47.2872"/>
</g>
<!-- Node148&#45;&gt;Node140 -->
<g id="edge13" class="edge">
<title>Node148&#45;&gt;Node140</title>
<path fill="none" stroke="#191970" d="M936.9387,-61.4877C955.6082,-65.2216 976.063,-69.3126 993.76,-72.852"/>
<polygon fill="#191970" stroke="#191970" points="937.5643,-58.0436 927.0721,-59.5144 936.1915,-64.9077 937.5643,-58.0436"/>
</g>
<!-- Node149&#45;&gt;Node142 -->
<g id="edge15" class="edge">
<title>Node149&#45;&gt;Node142</title>
<path fill="none" stroke="#191970" d="M736.7347,-12.0699C856.4848,-16.085 1117.9034,-24.8501 1224.6677,-28.4298"/>
<polygon fill="#191970" stroke="#191970" points="736.7442,-8.5683 726.6325,-11.7312 736.5095,-15.5644 736.7442,-8.5683"/>
</g>
</g>
</svg>
