<?xml version="1.0" encoding="UTF-8" standalone="no"?>
<!DOCTYPE svg PUBLIC "-//W3C//DTD SVG 1.1//EN"
 "http://www.w3.org/Graphics/SVG/1.1/DTD/svg11.dtd">
<!-- Generated by graphviz version 2.40.1 (20161225.0304)
 -->
<!-- Title: Camera::decreaseZoomLevel Pages: 1 -->
<svg width="736pt" height="262pt"
 viewBox="0.00 0.00 736.00 262.21" xmlns="http://www.w3.org/2000/svg" xmlns:xlink="http://www.w3.org/1999/xlink">
<g id="graph0" class="graph" transform="scale(1 1) rotate(0) translate(4 258.2096)">
<title>Camera::decreaseZoomLevel</title>
<!-- Node62 -->
<g id="node1" class="node">
<title>Node62</title>
<polygon fill="#bfbfbf" stroke="#000000" points="0,-114.5 0,-133.5 160,-133.5 160,-114.5 0,-114.5"/>
<text text-anchor="middle" x="80" y="-121.5" font-family="Helvetica,sans-Serif" font-size="10.00" fill="#000000">Camera::decreaseZoomLevel</text>
</g>
<!-- Node63 -->
<g id="node2" class="node">
<title>Node63</title>
<g id="a_node2"><a xlink:href="classCamera.html#adfb240823ff20b97b69459490dbd8dc3" target="_top" xlink:title="Centers camera on given isometric coordinates. ">
<polygon fill="none" stroke="#000000" points="196,-114.5 196,-133.5 359,-133.5 359,-114.5 196,-114.5"/>
<text text-anchor="middle" x="277.5" y="-121.5" font-family="Helvetica,sans-Serif" font-size="10.00" fill="#000000">Camera::centerScreenOnPoint</text>
</a>
</g>
</g>
<!-- Node62&#45;&gt;Node63 -->
<g id="edge1" class="edge">
<title>Node62&#45;&gt;Node63</title>
<path fill="none" stroke="#191970" d="M160.0461,-124C168.5,-124 177.1437,-124 185.7171,-124"/>
<polygon fill="#191970" stroke="#191970" points="185.7335,-127.5001 195.7335,-124 185.7335,-120.5001 185.7335,-127.5001"/>
</g>
<!-- Node65 -->
<g id="node4" class="node">
<title>Node65</title>
<g id="a_node4"><a xlink:href="classSingleton.html#af5cb1e5749949e2b68416cfb8d378044" target="_top" xlink:title="Get an instance of the singleton. ">
<polygon fill="none" stroke="#000000" points="608,-223 608,-253 721,-253 721,-223 608,-223"/>
<text text-anchor="start" x="616" y="-241" font-family="Helvetica,sans-Serif" font-size="10.00" fill="#000000">Singleton&lt; Settings</text>
<text text-anchor="middle" x="664.5" y="-230" font-family="Helvetica,sans-Serif" font-size="10.00" fill="#000000"> &gt;::instance</text>
</a>
</g>
</g>
<!-- Node62&#45;&gt;Node65 -->
<g id="edge16" class="edge">
<title>Node62&#45;&gt;Node65</title>
<path fill="none" stroke="#191970" d="M97.7647,-133.604C144.6421,-158.3329 276.2456,-223.8063 395,-246 463.3312,-258.7702 543.0765,-254.0321 597.9982,-247.8016"/>
<polygon fill="#191970" stroke="#191970" points="598.4359,-251.2743 607.956,-246.6247 597.6143,-244.3227 598.4359,-251.2743"/>
</g>
<!-- Node74 -->
<g id="node13" class="node">
<title>Node74</title>
<g id="a_node13"><a xlink:href="classMap.html#ab69938ac0e56eb0da1d1701221f3d185" target="_top" xlink:title="Refresh all the map tile textures. ">
<polygon fill="none" stroke="#000000" points="441.5,-.5 441.5,-19.5 518.5,-19.5 518.5,-.5 441.5,-.5"/>
<text text-anchor="middle" x="480" y="-7.5" font-family="Helvetica,sans-Serif" font-size="10.00" fill="#000000">Map::refresh</text>
</a>
</g>
</g>
<!-- Node62&#45;&gt;Node74 -->
<g id="edge17" class="edge">
<title>Node62&#45;&gt;Node74</title>
<path fill="none" stroke="#191970" d="M109.3277,-114.3714C164.7697,-96.3445 288.9144,-56.814 395,-29 406.77,-25.9141 419.5389,-22.8909 431.516,-20.1959"/>
<polygon fill="#191970" stroke="#191970" points="432.3459,-23.597 441.3511,-18.0151 430.8305,-16.763 432.3459,-23.597"/>
</g>
<!-- Node64 -->
<g id="node3" class="node">
<title>Node64</title>
<g id="a_node3"><a xlink:href="isoMath_8cxx.html#a7fa61c3d8ef446fb1c48dc4838023649" target="_top" xlink:title="Check if given coordinates are within map boundaries Checks if coordinates are within map boundaries...">
<polygon fill="none" stroke="#000000" points="402,-190.5 402,-209.5 558,-209.5 558,-190.5 402,-190.5"/>
<text text-anchor="middle" x="480" y="-197.5" font-family="Helvetica,sans-Serif" font-size="10.00" fill="#000000">isPointWithinMapBoundaries</text>
</a>
</g>
</g>
<!-- Node63&#45;&gt;Node64 -->
<g id="edge2" class="edge">
<title>Node63&#45;&gt;Node64</title>
<path fill="none" stroke="#191970" d="M294.0947,-133.5815C316.386,-146.0903 357.5384,-167.9257 395,-181 402.4283,-183.5925 410.3483,-185.9161 418.2534,-187.9729"/>
<polygon fill="#191970" stroke="#191970" points="417.6726,-191.4346 428.2202,-190.4357 419.3518,-184.639 417.6726,-191.4346"/>
</g>
<!-- Node63&#45;&gt;Node65 -->
<g id="edge14" class="edge">
<title>Node63&#45;&gt;Node65</title>
<path fill="none" stroke="#191970" d="M285.6845,-133.7948C303.2552,-154.015 346.9157,-200.0646 395,-219 460.4281,-244.7653 541.6496,-246.8693 597.7279,-244.1888"/>
<polygon fill="#191970" stroke="#191970" points="598.1012,-247.6738 607.8969,-243.6373 597.722,-240.6841 598.1012,-247.6738"/>
</g>
<!-- Node66 -->
<g id="node5" class="node">
<title>Node66</title>
<g id="a_node5"><a xlink:href="isoMath_8cxx.html#a229d5dd54cd4e1f43ed5911e4fd266d3" target="_top" xlink:title="converts coordinates from isometric to screen space The given isometric coordinates (which contain he...">
<polygon fill="none" stroke="#000000" points="395,-152.5 395,-171.5 565,-171.5 565,-152.5 395,-152.5"/>
<text text-anchor="middle" x="480" y="-159.5" font-family="Helvetica,sans-Serif" font-size="10.00" fill="#000000">convertIsoToScreenCoordinates</text>
</a>
</g>
</g>
<!-- Node63&#45;&gt;Node66 -->
<g id="edge4" class="edge">
<title>Node63&#45;&gt;Node66</title>
<path fill="none" stroke="#191970" d="M328.3379,-133.54C355.9005,-138.7122 390.1547,-145.1401 419.1314,-150.5778"/>
<polygon fill="#191970" stroke="#191970" points="418.6672,-154.0516 429.1412,-152.4561 419.9583,-147.1717 418.6672,-154.0516"/>
</g>
<!-- Node70 -->
<g id="node9" class="node">
<title>Node70</title>
<g id="a_node9"><a xlink:href="classWindow.html#a4959f94d75af5e975fb117f5ea0ef077" target="_top" xlink:title="Window::getBounds">
<polygon fill="none" stroke="#000000" points="423.5,-114.5 423.5,-133.5 536.5,-133.5 536.5,-114.5 423.5,-114.5"/>
<text text-anchor="middle" x="480" y="-121.5" font-family="Helvetica,sans-Serif" font-size="10.00" fill="#000000">Window::getBounds</text>
</a>
</g>
</g>
<!-- Node63&#45;&gt;Node70 -->
<g id="edge9" class="edge">
<title>Node63&#45;&gt;Node70</title>
<path fill="none" stroke="#191970" d="M359.2808,-124C377.0975,-124 395.7501,-124 412.9179,-124"/>
<polygon fill="#191970" stroke="#191970" points="413.3948,-127.5001 423.3948,-124 413.3947,-120.5001 413.3948,-127.5001"/>
</g>
<!-- Node71 -->
<g id="node10" class="node">
<title>Node71</title>
<g id="a_node10"><a xlink:href="classRectangle.html#a6d7591d194230afb71ac2efcb8fd782f" target="_top" xlink:title="Rectangle::width">
<polygon fill="none" stroke="#000000" points="431,-76.5 431,-95.5 529,-95.5 529,-76.5 431,-76.5"/>
<text text-anchor="middle" x="480" y="-83.5" font-family="Helvetica,sans-Serif" font-size="10.00" fill="#000000">Rectangle::width</text>
</a>
</g>
</g>
<!-- Node63&#45;&gt;Node71 -->
<g id="edge10" class="edge">
<title>Node63&#45;&gt;Node71</title>
<path fill="none" stroke="#191970" d="M328.3379,-114.46C356.4245,-109.1895 391.4595,-102.615 420.7783,-97.1132"/>
<polygon fill="#191970" stroke="#191970" points="421.7067,-100.5002 430.8896,-95.2158 420.4156,-93.6203 421.7067,-100.5002"/>
</g>
<!-- Node73 -->
<g id="node12" class="node">
<title>Node73</title>
<g id="a_node12"><a xlink:href="classRectangle.html#a21cbebe8e941c0c92d7eba0f7badcb6a" target="_top" xlink:title="Rectangle::height">
<polygon fill="none" stroke="#000000" points="429.5,-38.5 429.5,-57.5 530.5,-57.5 530.5,-38.5 429.5,-38.5"/>
<text text-anchor="middle" x="480" y="-45.5" font-family="Helvetica,sans-Serif" font-size="10.00" fill="#000000">Rectangle::height</text>
</a>
</g>
</g>
<!-- Node63&#45;&gt;Node73 -->
<g id="edge12" class="edge">
<title>Node63&#45;&gt;Node73</title>
<path fill="none" stroke="#191970" d="M294.0947,-114.4185C316.386,-101.9097 357.5384,-80.0743 395,-67 402.7138,-64.3078 410.9579,-61.9057 419.1648,-59.7911"/>
<polygon fill="#191970" stroke="#191970" points="420.238,-63.1318 429.1189,-57.3542 418.5734,-56.3326 420.238,-63.1318"/>
</g>
<!-- Node63&#45;&gt;Node74 -->
<g id="edge15" class="edge">
<title>Node63&#45;&gt;Node74</title>
<path fill="none" stroke="#191970" d="M290.7732,-114.4811C307.1455,-102.6091 335.6729,-81.4948 359,-62 375.6548,-48.0813 375.757,-39.0409 395,-29 406.1017,-23.2072 418.9156,-19.1739 431.1722,-16.368"/>
<polygon fill="#191970" stroke="#191970" points="432.1969,-19.7307 441.2869,-14.2881 430.7869,-12.8741 432.1969,-19.7307"/>
</g>
<!-- Node64&#45;&gt;Node65 -->
<g id="edge3" class="edge">
<title>Node64&#45;&gt;Node65</title>
<path fill="none" stroke="#191970" d="M526.5571,-209.589C548.1342,-214.0331 574.1732,-219.3961 597.7884,-224.2599"/>
<polygon fill="#191970" stroke="#191970" points="597.2402,-227.7204 607.7407,-226.3097 598.6524,-220.8643 597.2402,-227.7204"/>
</g>
<!-- Node66&#45;&gt;Node65 -->
<g id="edge5" class="edge">
<title>Node66&#45;&gt;Node65</title>
<path fill="none" stroke="#191970" d="M540.7766,-171.6029C549.156,-174.0601 557.463,-177.1403 565,-181 584.0542,-190.7576 582.7593,-201.7951 601,-213 604.1643,-214.9437 607.5056,-216.7863 610.9332,-218.5233"/>
<polygon fill="#191970" stroke="#191970" points="609.6082,-221.7681 620.1454,-222.8716 612.5962,-215.4379 609.6082,-221.7681"/>
</g>
<!-- Node67 -->
<g id="node6" class="node">
<title>Node67</title>
<g id="a_node6"><a xlink:href="classCamera.html#a8521826d32e55e2cc92fee0fcd10ea8b" target="_top" xlink:title="Camera::cameraOffset">
<polygon fill="none" stroke="#000000" points="601,-184.5 601,-203.5 728,-203.5 728,-184.5 601,-184.5"/>
<text text-anchor="middle" x="664.5" y="-191.5" font-family="Helvetica,sans-Serif" font-size="10.00" fill="#000000">Camera::cameraOffset</text>
</a>
</g>
</g>
<!-- Node66&#45;&gt;Node67 -->
<g id="edge6" class="edge">
<title>Node66&#45;&gt;Node67</title>
<path fill="none" stroke="#191970" d="M534.8566,-171.5144C555.2138,-175.0452 578.4955,-179.0832 599.66,-182.754"/>
<polygon fill="#191970" stroke="#191970" points="599.0852,-186.2065 609.5362,-184.467 600.2815,-179.3095 599.0852,-186.2065"/>
</g>
<!-- Node68 -->
<g id="node7" class="node">
<title>Node68</title>
<g id="a_node7"><a xlink:href="classCamera.html#a72f8d27fc42f8292cc319084409d718e" target="_top" xlink:title="Camera::zoomLevel">
<polygon fill="none" stroke="#000000" points="607.5,-146.5 607.5,-165.5 721.5,-165.5 721.5,-146.5 607.5,-146.5"/>
<text text-anchor="middle" x="664.5" y="-153.5" font-family="Helvetica,sans-Serif" font-size="10.00" fill="#000000">Camera::zoomLevel</text>
</a>
</g>
</g>
<!-- Node66&#45;&gt;Node68 -->
<g id="edge7" class="edge">
<title>Node66&#45;&gt;Node68</title>
<path fill="none" stroke="#191970" d="M565.2292,-159.2283C575.9221,-158.8806 586.7415,-158.5287 597.1084,-158.1916"/>
<polygon fill="#191970" stroke="#191970" points="597.4219,-161.6833 607.3029,-157.8601 597.1944,-154.687 597.4219,-161.6833"/>
</g>
<!-- Node69 -->
<g id="node8" class="node">
<title>Node69</title>
<g id="a_node8"><a xlink:href="classCamera.html#a96eee891e27570059e7ef82916dce1c1" target="_top" xlink:title="Camera::tileSize">
<polygon fill="none" stroke="#000000" points="616,-108.5 616,-127.5 713,-127.5 713,-108.5 616,-108.5"/>
<text text-anchor="middle" x="664.5" y="-115.5" font-family="Helvetica,sans-Serif" font-size="10.00" fill="#000000">Camera::tileSize</text>
</a>
</g>
</g>
<!-- Node66&#45;&gt;Node69 -->
<g id="edge8" class="edge">
<title>Node66&#45;&gt;Node69</title>
<path fill="none" stroke="#191970" d="M523.7292,-152.4558C537.0012,-149.4971 551.6117,-146.1777 565,-143 582.078,-138.9466 600.7521,-134.3092 617.2628,-130.1382"/>
<polygon fill="#191970" stroke="#191970" points="618.397,-133.4614 627.2299,-127.6108 616.6764,-126.6762 618.397,-133.4614"/>
</g>
<!-- Node72 -->
<g id="node11" class="node">
<title>Node72</title>
<g id="a_node11"><a xlink:href="classRectangle.html#ace89ac3a7085543f3f60449fb5cdc8af" target="_top" xlink:title="Rectangle::isEmpty">
<polygon fill="none" stroke="#000000" points="609.5,-54.5 609.5,-73.5 719.5,-73.5 719.5,-54.5 609.5,-54.5"/>
<text text-anchor="middle" x="664.5" y="-61.5" font-family="Helvetica,sans-Serif" font-size="10.00" fill="#000000">Rectangle::isEmpty</text>
</a>
</g>
</g>
<!-- Node71&#45;&gt;Node72 -->
<g id="edge11" class="edge">
<title>Node71&#45;&gt;Node72</title>
<path fill="none" stroke="#191970" d="M529.4426,-80.1044C550.9212,-77.5433 576.3779,-74.5078 599.3683,-71.7664"/>
<polygon fill="#191970" stroke="#191970" points="599.8767,-75.2306 609.3919,-70.5712 599.0478,-68.2799 599.8767,-75.2306"/>
</g>
<!-- Node73&#45;&gt;Node72 -->
<g id="edge13" class="edge">
<title>Node73&#45;&gt;Node72</title>
<path fill="none" stroke="#191970" d="M530.9038,-52.4144C551.9929,-54.2433 576.7168,-56.3874 599.1233,-58.3305"/>
<polygon fill="#191970" stroke="#191970" points="598.9687,-61.8301 609.2338,-59.2073 599.5736,-54.8563 598.9687,-61.8301"/>
</g>
</g>
</svg>
