<?xml version="1.0" encoding="UTF-8" standalone="no"?>
<!DOCTYPE svg PUBLIC "-//W3C//DTD SVG 1.1//EN"
 "http://www.w3.org/Graphics/SVG/1.1/DTD/svg11.dtd">
<!-- Generated by graphviz version 2.40.1 (20161225.0304)
 -->
<!-- Title: Rectangle::intersect Pages: 1 -->
<svg width="267pt" height="104pt"
 viewBox="0.00 0.00 267.00 104.00" xmlns="http://www.w3.org/2000/svg" xmlns:xlink="http://www.w3.org/1999/xlink">
<g id="graph0" class="graph" transform="scale(1 1) rotate(0) translate(4 100)">
<title>Rectangle::intersect</title>
<!-- Node44 -->
<g id="node1" class="node">
<title>Node44</title>
<polygon fill="#bfbfbf" stroke="#000000" points="0,-38.5 0,-57.5 113,-57.5 113,-38.5 0,-38.5"/>
<text text-anchor="middle" x="56.5" y="-45.5" font-family="Helvetica,sans-Serif" font-size="10.00" fill="#000000">Rectangle::intersect</text>
</g>
<!-- Node45 -->
<g id="node2" class="node">
<title>Node45</title>
<g id="a_node2"><a xlink:href="classRectangle.html#ace89ac3a7085543f3f60449fb5cdc8af" target="_top" xlink:title="Rectangle::isEmpty">
<polygon fill="none" stroke="#000000" points="149,-76.5 149,-95.5 259,-95.5 259,-76.5 149,-76.5"/>
<text text-anchor="middle" x="204" y="-83.5" font-family="Helvetica,sans-Serif" font-size="10.00" fill="#000000">Rectangle::isEmpty</text>
</a>
</g>
</g>
<!-- Node44&#45;&gt;Node45 -->
<g id="edge1" class="edge">
<title>Node44&#45;&gt;Node45</title>
<path fill="none" stroke="#191970" d="M93.7205,-57.589C113.0093,-62.5583 136.7584,-68.6767 157.271,-73.9613"/>
<polygon fill="#191970" stroke="#191970" points="156.4902,-77.3744 167.0472,-76.4799 158.2366,-70.5957 156.4902,-77.3744"/>
</g>
<!-- Node46 -->
<g id="node3" class="node">
<title>Node46</title>
<g id="a_node3"><a xlink:href="classRectangle.html#aeae19d58b6473a6c4285fe9afe51e688" target="_top" xlink:title="Rectangle::EMPTY">
<polygon fill="none" stroke="#000000" points="152.5,-38.5 152.5,-57.5 255.5,-57.5 255.5,-38.5 152.5,-38.5"/>
<text text-anchor="middle" x="204" y="-45.5" font-family="Helvetica,sans-Serif" font-size="10.00" fill="#000000">Rectangle::EMPTY</text>
</a>
</g>
</g>
<!-- Node44&#45;&gt;Node46 -->
<g id="edge2" class="edge">
<title>Node44&#45;&gt;Node46</title>
<path fill="none" stroke="#191970" d="M113.1055,-48C122.5321,-48 132.3543,-48 141.9086,-48"/>
<polygon fill="#191970" stroke="#191970" points="142.1397,-51.5001 152.1396,-48 142.1396,-44.5001 142.1397,-51.5001"/>
</g>
<!-- Node47 -->
<g id="node4" class="node">
<title>Node47</title>
<g id="a_node4"><a xlink:href="isoMath_8hxx.html#ac2ecf6122bf61be6914c02ea6b1dd8ad" target="_top" xlink:title="Clamp value. ">
<polygon fill="none" stroke="#000000" points="180.5,-.5 180.5,-19.5 227.5,-19.5 227.5,-.5 180.5,-.5"/>
<text text-anchor="middle" x="204" y="-7.5" font-family="Helvetica,sans-Serif" font-size="10.00" fill="#000000">clamp</text>
</a>
</g>
</g>
<!-- Node44&#45;&gt;Node47 -->
<g id="edge3" class="edge">
<title>Node44&#45;&gt;Node47</title>
<path fill="none" stroke="#191970" d="M93.7205,-38.411C117.2552,-32.3478 147.4296,-24.5741 170.2641,-18.6913"/>
<polygon fill="#191970" stroke="#191970" points="171.3783,-22.0186 180.1889,-16.1344 169.6319,-15.2399 171.3783,-22.0186"/>
</g>
</g>
</svg>
