<?xml version="1.0" encoding="UTF-8" standalone="no"?>
<!DOCTYPE svg PUBLIC "-//W3C//DTD SVG 1.1//EN"
 "http://www.w3.org/Graphics/SVG/1.1/DTD/svg11.dtd">
<!-- Generated by graphviz version 2.40.1 (20161225.0304)
 -->
<!-- Title: operator&lt;&lt; Pages: 1 -->
<svg width="222pt" height="104pt"
 viewBox="0.00 0.00 222.00 104.00" xmlns="http://www.w3.org/2000/svg" xmlns:xlink="http://www.w3.org/1999/xlink">
<g id="graph0" class="graph" transform="scale(1 1) rotate(0) translate(4 100)">
<title>operator&lt;&lt;</title>
<!-- Node6 -->
<g id="node1" class="node">
<title>Node6</title>
<polygon fill="#bfbfbf" stroke="#000000" points="0,-38.5 0,-57.5 74,-57.5 74,-38.5 0,-38.5"/>
<text text-anchor="middle" x="37" y="-45.5" font-family="Helvetica,sans-Serif" font-size="10.00" fill="#000000">operator&lt;&lt;</text>
</g>
<!-- Node7 -->
<g id="node2" class="node">
<title>Node7</title>
<g id="a_node2"><a xlink:href="structRGBAColor.html#a8a63c03d13e9427879b4f8f3ce623d69" target="_top" xlink:title="RGBAColor::red">
<polygon fill="none" stroke="#000000" points="116,-76.5 116,-95.5 208,-95.5 208,-76.5 116,-76.5"/>
<text text-anchor="middle" x="162" y="-83.5" font-family="Helvetica,sans-Serif" font-size="10.00" fill="#000000">RGBAColor::red</text>
</a>
</g>
</g>
<!-- Node6&#45;&gt;Node7 -->
<g id="edge1" class="edge">
<title>Node6&#45;&gt;Node7</title>
<path fill="none" stroke="#191970" d="M68.5428,-57.589C84.383,-62.4044 103.7725,-68.2988 120.7763,-73.468"/>
<polygon fill="#191970" stroke="#191970" points="119.8816,-76.8541 130.4673,-76.4141 121.9177,-70.1567 119.8816,-76.8541"/>
</g>
<!-- Node8 -->
<g id="node3" class="node">
<title>Node8</title>
<g id="a_node3"><a xlink:href="structRGBAColor.html#a8523bfbb8c7b8fbbdb8f2ba328079adb" target="_top" xlink:title="RGBAColor::green">
<polygon fill="none" stroke="#000000" points="110,-38.5 110,-57.5 214,-57.5 214,-38.5 110,-38.5"/>
<text text-anchor="middle" x="162" y="-45.5" font-family="Helvetica,sans-Serif" font-size="10.00" fill="#000000">RGBAColor::green</text>
</a>
</g>
</g>
<!-- Node6&#45;&gt;Node8 -->
<g id="edge2" class="edge">
<title>Node6&#45;&gt;Node8</title>
<path fill="none" stroke="#191970" d="M74.1657,-48C82.2349,-48 90.9822,-48 99.7238,-48"/>
<polygon fill="#191970" stroke="#191970" points="99.942,-51.5001 109.9419,-48 99.9419,-44.5001 99.942,-51.5001"/>
</g>
<!-- Node9 -->
<g id="node4" class="node">
<title>Node9</title>
<g id="a_node4"><a xlink:href="structRGBAColor.html#a959baeeec5e43348b7bd901bbc31f8f8" target="_top" xlink:title="RGBAColor::blue">
<polygon fill="none" stroke="#000000" points="113.5,-.5 113.5,-19.5 210.5,-19.5 210.5,-.5 113.5,-.5"/>
<text text-anchor="middle" x="162" y="-7.5" font-family="Helvetica,sans-Serif" font-size="10.00" fill="#000000">RGBAColor::blue</text>
</a>
</g>
</g>
<!-- Node6&#45;&gt;Node9 -->
<g id="edge3" class="edge">
<title>Node6&#45;&gt;Node9</title>
<path fill="none" stroke="#191970" d="M68.5428,-38.411C84.383,-33.5956 103.7725,-27.7012 120.7763,-22.532"/>
<polygon fill="#191970" stroke="#191970" points="121.9177,-25.8433 130.4673,-19.5859 119.8816,-19.1459 121.9177,-25.8433"/>
</g>
</g>
</svg>
