<?xml version="1.0" encoding="UTF-8" standalone="no"?>
<!DOCTYPE svg PUBLIC "-//W3C//DTD SVG 1.1//EN"
 "http://www.w3.org/Graphics/SVG/1.1/DTD/svg11.dtd">
<!-- Generated by graphviz version 2.40.1 (20161225.0304)
 -->
<!-- Title: src/engine/ui/widgets/Combobox.cxx Pages: 1 -->
<!--zoomable 543 -->
<svg id="main" version="1.1" xmlns="http://www.w3.org/2000/svg" xmlns:xlink="http://www.w3.org/1999/xlink" xml:space="preserve" onload="init(evt)">
<style type="text/css"><![CDATA[
.edge:hover path { stroke: red; }
.edge:hover polygon { stroke: red; fill: red; }
]]></style>
<script type="text/javascript"><![CDATA[
var edges = document.getElementsByTagName('g');
if (edges && edges.length) {
  for (var i=0;i<edges.length;i++) {
    if (edges[i].id.substr(0,4)=='edge') {
      edges[i].setAttribute('class','edge');
    }
  }
}
]]></script>
        <defs>
                <circle id="rim" cx="0" cy="0" r="7"/>
                <circle id="rim2" cx="0" cy="0" r="3.5"/>
                <g id="zoomPlus">
                        <use xlink:href="#rim" fill="#404040">
                                <set attributeName="fill" to="#808080" begin="zoomplus.mouseover" end="zoomplus.mouseout"/>
                        </use>
                        <path d="M-4,0h8M0,-4v8" fill="none" stroke="white" stroke-width="1.5" pointer-events="none"/>
                </g>
                <g id="zoomMin">
                        <use xlink:href="#rim" fill="#404040">
                                <set attributeName="fill" to="#808080" begin="zoomminus.mouseover" end="zoomminus.mouseout"/>
                        </use>
                        <path d="M-4,0h8" fill="none" stroke="white" stroke-width="1.5" pointer-events="none"/>
                </g>
                <g id="dirArrow">
                        <path fill="none" stroke="white" stroke-width="1.5" d="M0,-3.0v7 M-2.5,-0.5L0,-3.0L2.5,-0.5"/>
                </g>
               <g id="resetDef">
                       <use xlink:href="#rim2" fill="#404040">
                               <set attributeName="fill" to="#808080" begin="reset.mouseover" end="reset.mouseout"/>
                       </use>
               </g>
        </defs>

<script type="text/javascript">
var viewWidth = 1923;
var viewHeight = 543;
var sectionId = 'dynsection-0';
</script>
<script xlink:href="svgpan.js"/>
<svg id="graph" class="graph">
<g id="viewport">
<title>src/engine/ui/widgets/Combobox.cxx</title>
<!-- Node0 -->
<g id="node1" class="node">
<title>Node0</title>
<polygon fill="#bfbfbf" stroke="#000000" points="996.5,-504.5 996.5,-534.5 1116.5,-534.5 1116.5,-504.5 996.5,-504.5"/>
<text text-anchor="start" x="1004.5" y="-522.5" font-family="Helvetica,sans-Serif" font-size="10.00" fill="#000000">src/engine/ui/widgets</text>
<text text-anchor="middle" x="1056.5" y="-511.5" font-family="Helvetica,sans-Serif" font-size="10.00" fill="#000000">/Combobox.cxx</text>
</g>
<!-- Node1 -->
<g id="node2" class="node">
<title>Node1</title>
<g id="a_node2"><a xlink:href="Combobox_8hxx.html" target="_top" xlink:title="Combobox.hxx">
<polygon fill="none" stroke="#000000" points="975.5,-448.5 975.5,-467.5 1065.5,-467.5 1065.5,-448.5 975.5,-448.5"/>
<text text-anchor="middle" x="1020.5" y="-455.5" font-family="Helvetica,sans-Serif" font-size="10.00" fill="#000000">Combobox.hxx</text>
</a>
</g>
</g>
<!-- Node0&#45;&gt;Node1 -->
<g id="edge1" class="edge">
<title>Node0&#45;&gt;Node1</title>
<path fill="none" stroke="#191970" d="M1047.6011,-504.2977C1042.7081,-495.9388 1036.5974,-485.4997 1031.4176,-476.6509"/>
<polygon fill="#191970" stroke="#191970" points="1034.3365,-474.7089 1026.2641,-467.8469 1028.2953,-478.2452 1034.3365,-474.7089"/>
</g>
<!-- Node26 -->
<g id="node27" class="node">
<title>Node26</title>
<g id="a_node27"><a xlink:href="LOG_8hxx.html" target="_top" xlink:title="LOG.hxx">
<polygon fill="none" stroke="#000000" points="1279.5,-224.5 1279.5,-243.5 1337.5,-243.5 1337.5,-224.5 1279.5,-224.5"/>
<text text-anchor="middle" x="1308.5" y="-231.5" font-family="Helvetica,sans-Serif" font-size="10.00" fill="#000000">LOG.hxx</text>
</a>
</g>
</g>
<!-- Node0&#45;&gt;Node26 -->
<g id="edge42" class="edge">
<title>Node0&#45;&gt;Node26</title>
<path fill="none" stroke="#191970" d="M1068.5265,-504.1536C1084.1637,-482.6168 1109.5,-441.6099 1109.5,-402 1109.5,-402 1109.5,-402 1109.5,-346 1109.5,-273.4458 1211.2023,-247.3885 1269.1951,-238.428"/>
<polygon fill="#191970" stroke="#191970" points="1269.7397,-241.8857 1279.1369,-236.9925 1268.7393,-234.9576 1269.7397,-241.8857"/>
</g>
<!-- Node2 -->
<g id="node3" class="node">
<title>Node2</title>
<polygon fill="none" stroke="#bfbfbf" points="878.5,-168.5 878.5,-187.5 936.5,-187.5 936.5,-168.5 878.5,-168.5"/>
<text text-anchor="middle" x="907.5" y="-175.5" font-family="Helvetica,sans-Serif" font-size="10.00" fill="#000000">memory</text>
</g>
<!-- Node1&#45;&gt;Node2 -->
<g id="edge2" class="edge">
<title>Node1&#45;&gt;Node2</title>
<path fill="none" stroke="#191970" d="M1024.3364,-448.2883C1031.5687,-429.0769 1046.5,-384.7253 1046.5,-346 1046.5,-346 1046.5,-346 1046.5,-290 1046.5,-238.2131 987.2749,-206.3128 946.1428,-190.4026"/>
<polygon fill="#191970" stroke="#191970" points="947.2321,-187.0738 936.639,-186.8824 944.8007,-193.638 947.2321,-187.0738"/>
</g>
<!-- Node3 -->
<g id="node4" class="node">
<title>Node3</title>
<g id="a_node4"><a xlink:href="UIElement_8hxx.html" target="_top" xlink:title="../basics/UIElement.hxx">
<polygon fill="none" stroke="#000000" points="747,-280.5 747,-299.5 878,-299.5 878,-280.5 747,-280.5"/>
<text text-anchor="middle" x="812.5" y="-287.5" font-family="Helvetica,sans-Serif" font-size="10.00" fill="#000000">../basics/UIElement.hxx</text>
</a>
</g>
</g>
<!-- Node1&#45;&gt;Node3 -->
<g id="edge3" class="edge">
<title>Node1&#45;&gt;Node3</title>
<path fill="none" stroke="#191970" d="M975.3987,-448.8673C949.7109,-441.9718 918.0564,-430.4539 894.5,-412 858.6745,-383.9345 832.9707,-335.7698 820.6713,-309.1265"/>
<polygon fill="#191970" stroke="#191970" points="823.7596,-307.4583 816.4895,-299.7514 817.3667,-310.3098 823.7596,-307.4583"/>
</g>
<!-- Node24 -->
<g id="node25" class="node">
<title>Node24</title>
<g id="a_node25"><a xlink:href="TextField_8hxx.html" target="_top" xlink:title="TextField.hxx">
<polygon fill="none" stroke="#000000" points="903.5,-392.5 903.5,-411.5 983.5,-411.5 983.5,-392.5 903.5,-392.5"/>
<text text-anchor="middle" x="943.5" y="-399.5" font-family="Helvetica,sans-Serif" font-size="10.00" fill="#000000">TextField.hxx</text>
</a>
</g>
</g>
<!-- Node1&#45;&gt;Node24 -->
<g id="edge37" class="edge">
<title>Node1&#45;&gt;Node24</title>
<path fill="none" stroke="#191970" d="M1007.0876,-448.2455C995.4943,-439.814 978.5252,-427.4729 965.0322,-417.6598"/>
<polygon fill="#191970" stroke="#191970" points="966.9047,-414.6938 956.7587,-411.6427 962.7874,-420.355 966.9047,-414.6938"/>
</g>
<!-- Node4 -->
<g id="node5" class="node">
<title>Node4</title>
<polygon fill="none" stroke="#bfbfbf" points="790.5,-56.5 790.5,-75.5 834.5,-75.5 834.5,-56.5 790.5,-56.5"/>
<text text-anchor="middle" x="812.5" y="-63.5" font-family="Helvetica,sans-Serif" font-size="10.00" fill="#000000">string</text>
</g>
<!-- Node3&#45;&gt;Node4 -->
<g id="edge4" class="edge">
<title>Node3&#45;&gt;Node4</title>
<path fill="none" stroke="#191970" d="M812.5,-280.375C812.5,-246.4851 812.5,-132.2317 812.5,-85.8332"/>
<polygon fill="#191970" stroke="#191970" points="816.0001,-85.5891 812.5,-75.5891 809.0001,-85.5892 816.0001,-85.5891"/>
</g>
<!-- Node5 -->
<g id="node6" class="node">
<title>Node5</title>
<g id="a_node6"><a xlink:href="mapEdit_8hxx.html" target="_top" xlink:title="../../basics/mapEdit.hxx">
<polygon fill="none" stroke="#000000" points="840.5,-224.5 840.5,-243.5 970.5,-243.5 970.5,-224.5 840.5,-224.5"/>
<text text-anchor="middle" x="905.5" y="-231.5" font-family="Helvetica,sans-Serif" font-size="10.00" fill="#000000">../../basics/mapEdit.hxx</text>
</a>
</g>
</g>
<!-- Node3&#45;&gt;Node5 -->
<g id="edge5" class="edge">
<title>Node3&#45;&gt;Node5</title>
<path fill="none" stroke="#191970" d="M828.6994,-280.2455C843.1018,-271.5731 864.3732,-258.7645 880.8799,-248.825"/>
<polygon fill="#191970" stroke="#191970" points="882.725,-251.7996 889.4863,-243.6427 879.114,-245.8028 882.725,-251.7996"/>
</g>
<!-- Node6 -->
<g id="node7" class="node">
<title>Node6</title>
<g id="a_node7"><a xlink:href="ResourcesManager_8hxx.html" target="_top" xlink:title="../../ResourcesManager.hxx">
<polygon fill="none" stroke="#000000" points="236.5,-224.5 236.5,-243.5 382.5,-243.5 382.5,-224.5 236.5,-224.5"/>
<text text-anchor="middle" x="309.5" y="-231.5" font-family="Helvetica,sans-Serif" font-size="10.00" fill="#000000">../../ResourcesManager.hxx</text>
</a>
</g>
</g>
<!-- Node3&#45;&gt;Node6 -->
<g id="edge7" class="edge">
<title>Node3&#45;&gt;Node6</title>
<path fill="none" stroke="#191970" d="M746.9241,-282.8371C664.9469,-273.8624 520.3313,-257.9631 396.5,-244 395.2253,-243.8563 393.9401,-243.7111 392.6465,-243.5649"/>
<polygon fill="#191970" stroke="#191970" points="392.9295,-240.0746 382.5987,-242.4253 392.1406,-247.03 392.9295,-240.0746"/>
</g>
<!-- Node9 -->
<g id="node10" class="node">
<title>Node9</title>
<polygon fill="none" stroke="#bfbfbf" points="566.5,-112.5 566.5,-131.5 610.5,-131.5 610.5,-112.5 566.5,-112.5"/>
<text text-anchor="middle" x="588.5" y="-119.5" font-family="Helvetica,sans-Serif" font-size="10.00" fill="#000000">SDL.h</text>
</g>
<!-- Node3&#45;&gt;Node9 -->
<g id="edge36" class="edge">
<title>Node3&#45;&gt;Node9</title>
<path fill="none" stroke="#191970" d="M746.6698,-282.3835C647.2947,-269.3436 466.5938,-239.0874 429.5,-188 379.0959,-118.581 394.3139,-178.6151 556.3234,-132.2129"/>
<polygon fill="#191970" stroke="#191970" points="557.5759,-135.4927 566.1806,-129.3113 555.5992,-128.7776 557.5759,-135.4927"/>
</g>
<!-- Node19 -->
<g id="node20" class="node">
<title>Node19</title>
<g id="a_node20"><a xlink:href="WindowManager_8hxx.html" target="_top" xlink:title="../../WindowManager.hxx">
<polygon fill="none" stroke="#000000" points="438.5,-168.5 438.5,-187.5 574.5,-187.5 574.5,-168.5 438.5,-168.5"/>
<text text-anchor="middle" x="506.5" y="-175.5" font-family="Helvetica,sans-Serif" font-size="10.00" fill="#000000">../../WindowManager.hxx</text>
</a>
</g>
</g>
<!-- Node3&#45;&gt;Node19 -->
<g id="edge24" class="edge">
<title>Node3&#45;&gt;Node19</title>
<path fill="none" stroke="#191970" d="M775.1888,-280.439C743.3106,-271.9291 696.41,-258.5966 656.5,-244 613.5288,-228.2838 565.3509,-206.2673 535.4662,-192.0685"/>
<polygon fill="#191970" stroke="#191970" points="536.5981,-188.7302 526.0666,-187.5733 533.5781,-195.0452 536.5981,-188.7302"/>
</g>
<!-- Node20 -->
<g id="node21" class="node">
<title>Node20</title>
<g id="a_node21"><a xlink:href="signal_8hxx.html" target="_top" xlink:title="../../basics/signal.hxx">
<polygon fill="none" stroke="#000000" points="665,-224.5 665,-243.5 784,-243.5 784,-224.5 665,-224.5"/>
<text text-anchor="middle" x="724.5" y="-231.5" font-family="Helvetica,sans-Serif" font-size="10.00" fill="#000000">../../basics/signal.hxx</text>
</a>
</g>
</g>
<!-- Node3&#45;&gt;Node20 -->
<g id="edge30" class="edge">
<title>Node3&#45;&gt;Node20</title>
<path fill="none" stroke="#191970" d="M797.1716,-280.2455C783.6697,-271.6534 763.7878,-259.0014 748.2314,-249.1018"/>
<polygon fill="#191970" stroke="#191970" points="749.9685,-246.0587 739.6528,-243.6427 746.2103,-251.9643 749.9685,-246.0587"/>
</g>
<!-- Node5&#45;&gt;Node4 -->
<g id="edge6" class="edge">
<title>Node5&#45;&gt;Node4</title>
<path fill="none" stroke="#191970" d="M896.8001,-224.2502C889.0384,-215.2523 877.6704,-201.3095 869.5,-188 848.2984,-153.4628 829.6741,-109.7594 819.8581,-85.1394"/>
<polygon fill="#191970" stroke="#191970" points="823.0087,-83.5864 816.0992,-75.5546 816.4919,-86.1422 823.0087,-83.5864"/>
</g>
<!-- Node7 -->
<g id="node8" class="node">
<title>Node7</title>
<polygon fill="none" stroke="#bfbfbf" points="1112.5,-112.5 1112.5,-131.5 1172.5,-131.5 1172.5,-112.5 1112.5,-112.5"/>
<text text-anchor="middle" x="1142.5" y="-119.5" font-family="Helvetica,sans-Serif" font-size="10.00" fill="#000000">iostream</text>
</g>
<!-- Node6&#45;&gt;Node7 -->
<g id="edge8" class="edge">
<title>Node6&#45;&gt;Node7</title>
<path fill="none" stroke="#191970" d="M382.5049,-227.9038C438.5705,-221.7602 517.3405,-209.9313 583.5,-188 601.9902,-181.8707 603.7846,-173.4028 622.5,-168 712.4711,-142.0269 996.035,-128.0116 1102.0129,-123.5735"/>
<polygon fill="#191970" stroke="#191970" points="1102.441,-127.0589 1112.2884,-123.15 1102.1527,-120.0648 1102.441,-127.0589"/>
</g>
<!-- Node8 -->
<g id="node9" class="node">
<title>Node8</title>
<polygon fill="none" stroke="#bfbfbf" points="0,-112.5 0,-131.5 93,-131.5 93,-112.5 0,-112.5"/>
<text text-anchor="middle" x="46.5" y="-119.5" font-family="Helvetica,sans-Serif" font-size="10.00" fill="#000000">unordered_map</text>
</g>
<!-- Node6&#45;&gt;Node8 -->
<g id="edge9" class="edge">
<title>Node6&#45;&gt;Node8</title>
<path fill="none" stroke="#191970" d="M287.0768,-224.4509C240.3001,-204.5308 132.1963,-158.4942 78.2769,-135.5323"/>
<polygon fill="#191970" stroke="#191970" points="79.4383,-132.2229 68.8665,-131.5249 76.6956,-138.6632 79.4383,-132.2229"/>
</g>
<!-- Node6&#45;&gt;Node9 -->
<g id="edge10" class="edge">
<title>Node6&#45;&gt;Node9</title>
<path fill="none" stroke="#191970" d="M319.2601,-224.2848C334.4329,-209.7556 365.2013,-182.5247 396.5,-168 460.1519,-138.4613 484.6368,-150.1434 556.2796,-132.0769"/>
<polygon fill="#191970" stroke="#191970" points="557.4443,-135.3896 566.2225,-129.4571 555.6607,-128.6206 557.4443,-135.3896"/>
</g>
<!-- Node10 -->
<g id="node11" class="node">
<title>Node10</title>
<g id="a_node11"><a xlink:href="TileManager_8hxx.html" target="_top" xlink:title="TileManager.hxx">
<polygon fill="none" stroke="#000000" points="247,-168.5 247,-187.5 344,-187.5 344,-168.5 247,-168.5"/>
<text text-anchor="middle" x="295.5" y="-175.5" font-family="Helvetica,sans-Serif" font-size="10.00" fill="#000000">TileManager.hxx</text>
</a>
</g>
</g>
<!-- Node6&#45;&gt;Node10 -->
<g id="edge11" class="edge">
<title>Node6&#45;&gt;Node10</title>
<path fill="none" stroke="#191970" d="M307.0614,-224.2455C305.2145,-216.8579 302.6172,-206.4689 300.3522,-197.4087"/>
<polygon fill="#191970" stroke="#191970" points="303.7316,-196.4952 297.9107,-187.6427 296.9406,-198.193 303.7316,-196.4952"/>
</g>
<!-- Node10&#45;&gt;Node4 -->
<g id="edge14" class="edge">
<title>Node10&#45;&gt;Node4</title>
<path fill="none" stroke="#191970" d="M323.2437,-168.4399C347.9992,-159.6771 385.0836,-145.9759 416.5,-132 434.298,-124.0824 436.8961,-117.7752 455.5,-112 515.7975,-93.2818 703.3213,-75.4542 779.6647,-68.7728"/>
<polygon fill="#191970" stroke="#191970" points="780.4329,-72.2194 790.0934,-67.8691 779.8285,-65.2456 780.4329,-72.2194"/>
</g>
<!-- Node10&#45;&gt;Node8 -->
<g id="edge13" class="edge">
<title>Node10&#45;&gt;Node8</title>
<path fill="none" stroke="#191970" d="M252.9783,-168.4369C210.3639,-158.8529 144.6824,-144.0812 98.879,-133.78"/>
<polygon fill="#191970" stroke="#191970" points="99.3706,-130.3032 88.8463,-131.5237 97.8346,-137.1326 99.3706,-130.3032"/>
</g>
<!-- Node10&#45;&gt;Node9 -->
<g id="edge12" class="edge">
<title>Node10&#45;&gt;Node9</title>
<path fill="none" stroke="#191970" d="M344.163,-170.2829C404.3755,-160.6002 504.4242,-144.0417 556.5046,-131.9399"/>
<polygon fill="#191970" stroke="#191970" points="557.3577,-135.3346 566.255,-129.5823 555.7125,-128.5306 557.3577,-135.3346"/>
</g>
<!-- Node11 -->
<g id="node12" class="node">
<title>Node11</title>
<g id="a_node12"><a xlink:href="tileData_8hxx.html" target="_top" xlink:title="tileData.hxx">
<polygon fill="none" stroke="#000000" points="331,-112.5 331,-131.5 408,-131.5 408,-112.5 331,-112.5"/>
<text text-anchor="middle" x="369.5" y="-119.5" font-family="Helvetica,sans-Serif" font-size="10.00" fill="#000000">tileData.hxx</text>
</a>
</g>
</g>
<!-- Node10&#45;&gt;Node11 -->
<g id="edge15" class="edge">
<title>Node10&#45;&gt;Node11</title>
<path fill="none" stroke="#191970" d="M308.3898,-168.2455C319.4254,-159.8943 335.5292,-147.7076 348.4353,-137.9408"/>
<polygon fill="#191970" stroke="#191970" points="350.8959,-140.4681 356.7579,-131.6427 346.6717,-134.8862 350.8959,-140.4681"/>
</g>
<!-- Node16 -->
<g id="node17" class="node">
<title>Node16</title>
<polygon fill="none" stroke="#bfbfbf" points="111.5,-112.5 111.5,-131.5 169.5,-131.5 169.5,-112.5 111.5,-112.5"/>
<text text-anchor="middle" x="140.5" y="-119.5" font-family="Helvetica,sans-Serif" font-size="10.00" fill="#000000">json.hxx</text>
</g>
<!-- Node10&#45;&gt;Node16 -->
<g id="edge21" class="edge">
<title>Node10&#45;&gt;Node16</title>
<path fill="none" stroke="#191970" d="M268.8546,-168.3733C243.3036,-159.1419 204.5488,-145.1402 176.3091,-134.9375"/>
<polygon fill="#191970" stroke="#191970" points="177.3921,-131.6074 166.7978,-131.5011 175.0135,-138.1909 177.3921,-131.6074"/>
</g>
<!-- Node17 -->
<g id="node18" class="node">
<title>Node17</title>
<g id="a_node18"><a xlink:href="Singleton_8hxx.html" target="_top" xlink:title="Singleton.hxx">
<polygon fill="none" stroke="#000000" points="465,-112.5 465,-131.5 548,-131.5 548,-112.5 465,-112.5"/>
<text text-anchor="middle" x="506.5" y="-119.5" font-family="Helvetica,sans-Serif" font-size="10.00" fill="#000000">Singleton.hxx</text>
</a>
</g>
</g>
<!-- Node10&#45;&gt;Node17 -->
<g id="edge22" class="edge">
<title>Node10&#45;&gt;Node17</title>
<path fill="none" stroke="#191970" d="M331.7722,-168.3733C367.4658,-158.9001 422.0879,-144.4032 460.7451,-134.1435"/>
<polygon fill="#191970" stroke="#191970" points="461.9336,-137.4493 470.7011,-131.5011 460.1379,-130.6835 461.9336,-137.4493"/>
</g>
<!-- Node18 -->
<g id="node19" class="node">
<title>Node18</title>
<polygon fill="none" stroke="#bfbfbf" points="188,-112.5 188,-131.5 313,-131.5 313,-112.5 188,-112.5"/>
<text text-anchor="middle" x="250.5" y="-119.5" font-family="Helvetica,sans-Serif" font-size="10.00" fill="#000000">../common/enums.hxx</text>
</g>
<!-- Node10&#45;&gt;Node18 -->
<g id="edge23" class="edge">
<title>Node10&#45;&gt;Node18</title>
<path fill="none" stroke="#191970" d="M287.6616,-168.2455C281.338,-160.3761 272.2776,-149.101 264.6864,-139.6542"/>
<polygon fill="#191970" stroke="#191970" points="267.2408,-137.2454 258.2486,-131.6427 261.7842,-141.6302 267.2408,-137.2454"/>
</g>
<!-- Node11&#45;&gt;Node4 -->
<g id="edge16" class="edge">
<title>Node11&#45;&gt;Node4</title>
<path fill="none" stroke="#191970" d="M408.2343,-114.372C413.0301,-113.522 417.8721,-112.7087 422.5,-112 554.6452,-91.765 713.1632,-75.5407 780.1258,-69.0546"/>
<polygon fill="#191970" stroke="#191970" points="780.8187,-72.5042 790.4377,-68.0629 780.1485,-65.5363 780.8187,-72.5042"/>
</g>
<!-- Node12 -->
<g id="node13" class="node">
<title>Node12</title>
<polygon fill="none" stroke="#bfbfbf" points="615,-56.5 615,-75.5 662,-75.5 662,-56.5 615,-56.5"/>
<text text-anchor="middle" x="638.5" y="-63.5" font-family="Helvetica,sans-Serif" font-size="10.00" fill="#000000">vector</text>
</g>
<!-- Node11&#45;&gt;Node12 -->
<g id="edge17" class="edge">
<title>Node11&#45;&gt;Node12</title>
<path fill="none" stroke="#191970" d="M408.0411,-113.9766C460.8004,-102.9932 554.6635,-83.453 604.775,-73.0208"/>
<polygon fill="#191970" stroke="#191970" points="605.6969,-76.404 614.7737,-70.9393 604.2702,-69.5509 605.6969,-76.404"/>
</g>
<!-- Node13 -->
<g id="node14" class="node">
<title>Node13</title>
<g id="a_node14"><a xlink:href="enums_8hxx.html" target="_top" xlink:title="enums.hxx">
<polygon fill="none" stroke="#000000" points="334,-56.5 334,-75.5 405,-75.5 405,-56.5 334,-56.5"/>
<text text-anchor="middle" x="369.5" y="-63.5" font-family="Helvetica,sans-Serif" font-size="10.00" fill="#000000">enums.hxx</text>
</a>
</g>
</g>
<!-- Node11&#45;&gt;Node13 -->
<g id="edge18" class="edge">
<title>Node11&#45;&gt;Node13</title>
<path fill="none" stroke="#191970" d="M369.5,-112.2455C369.5,-104.9382 369.5,-94.6944 369.5,-85.7046"/>
<polygon fill="#191970" stroke="#191970" points="373.0001,-85.6426 369.5,-75.6427 366.0001,-85.6427 373.0001,-85.6426"/>
</g>
<!-- Node14 -->
<g id="node15" class="node">
<title>Node14</title>
<polygon fill="none" stroke="#bfbfbf" points="293.5,-.5 293.5,-19.5 349.5,-19.5 349.5,-.5 293.5,-.5"/>
<text text-anchor="middle" x="321.5" y="-7.5" font-family="Helvetica,sans-Serif" font-size="10.00" fill="#000000">stddef.h</text>
</g>
<!-- Node13&#45;&gt;Node14 -->
<g id="edge19" class="edge">
<title>Node13&#45;&gt;Node14</title>
<path fill="none" stroke="#191970" d="M361.139,-56.2455C354.325,-48.2958 344.5319,-36.8706 336.3848,-27.3656"/>
<polygon fill="#191970" stroke="#191970" points="338.9305,-24.9575 329.7651,-19.6427 333.6157,-29.513 338.9305,-24.9575"/>
</g>
<!-- Node15 -->
<g id="node16" class="node">
<title>Node15</title>
<polygon fill="none" stroke="#bfbfbf" points="367.5,-.5 367.5,-19.5 467.5,-19.5 467.5,-.5 367.5,-.5"/>
<text text-anchor="middle" x="417.5" y="-7.5" font-family="Helvetica,sans-Serif" font-size="10.00" fill="#000000">betterEnums.hxx</text>
</g>
<!-- Node13&#45;&gt;Node15 -->
<g id="edge20" class="edge">
<title>Node13&#45;&gt;Node15</title>
<path fill="none" stroke="#191970" d="M377.861,-56.2455C384.675,-48.2958 394.4681,-36.8706 402.6152,-27.3656"/>
<polygon fill="#191970" stroke="#191970" points="405.3843,-29.513 409.2349,-19.6427 400.0695,-24.9575 405.3843,-29.513"/>
</g>
<!-- Node19&#45;&gt;Node4 -->
<g id="edge25" class="edge">
<title>Node19&#45;&gt;Node4</title>
<path fill="none" stroke="#191970" d="M534.6462,-168.4396C561.4244,-159.2852 602.8088,-144.9852 638.5,-132 688.3788,-113.853 745.8965,-91.817 780.7079,-78.3566"/>
<polygon fill="#191970" stroke="#191970" points="782.2624,-81.5079 790.3239,-74.6331 779.7347,-74.9802 782.2624,-81.5079"/>
</g>
<!-- Node19&#45;&gt;Node7 -->
<g id="edge26" class="edge">
<title>Node19&#45;&gt;Node7</title>
<path fill="none" stroke="#191970" d="M574.9346,-169.4545C579.5232,-168.9431 584.0773,-168.4531 588.5,-168 780.5929,-148.3194 1010.8224,-131.3036 1102.241,-124.8088"/>
<polygon fill="#191970" stroke="#191970" points="1102.708,-128.2845 1112.436,-124.0872 1102.2138,-121.302 1102.708,-128.2845"/>
</g>
<!-- Node19&#45;&gt;Node9 -->
<g id="edge28" class="edge">
<title>Node19&#45;&gt;Node9</title>
<path fill="none" stroke="#191970" d="M520.7833,-168.2455C533.247,-159.7337 551.5451,-147.2375 565.9792,-137.3801"/>
<polygon fill="#191970" stroke="#191970" points="568.0962,-140.1726 574.3804,-131.6427 564.1485,-134.392 568.0962,-140.1726"/>
</g>
<!-- Node19&#45;&gt;Node12 -->
<g id="edge27" class="edge">
<title>Node19&#45;&gt;Node12</title>
<path fill="none" stroke="#191970" d="M555.3262,-168.4285C577.691,-161.7174 602.8613,-150.5085 619.5,-132 630.8221,-119.4057 635.4294,-100.4705 637.2877,-86.1072"/>
<polygon fill="#191970" stroke="#191970" points="640.8075,-86.0618 638.2645,-75.7767 633.8386,-85.4028 640.8075,-86.0618"/>
</g>
<!-- Node19&#45;&gt;Node17 -->
<g id="edge29" class="edge">
<title>Node19&#45;&gt;Node17</title>
<path fill="none" stroke="#191970" d="M506.5,-168.2455C506.5,-160.9382 506.5,-150.6944 506.5,-141.7046"/>
<polygon fill="#191970" stroke="#191970" points="510.0001,-141.6426 506.5,-131.6427 503.0001,-141.6427 510.0001,-141.6426"/>
</g>
<!-- Node20&#45;&gt;Node2 -->
<g id="edge31" class="edge">
<title>Node20&#45;&gt;Node2</title>
<path fill="none" stroke="#191970" d="M755.9588,-224.3733C787.0763,-214.851 834.7811,-200.2528 868.3371,-189.9843"/>
<polygon fill="#191970" stroke="#191970" points="869.7246,-193.22 878.2628,-186.9469 867.6763,-186.5263 869.7246,-193.22"/>
</g>
<!-- Node20&#45;&gt;Node12 -->
<g id="edge34" class="edge">
<title>Node20&#45;&gt;Node12</title>
<path fill="none" stroke="#191970" d="M734.8114,-224.1948C747.0214,-211.3352 764.6202,-188.0504 755.5,-168 737.277,-127.9375 694.6841,-97.477 666.2337,-80.6731"/>
<polygon fill="#191970" stroke="#191970" points="667.9606,-77.6288 657.5424,-75.7023 664.4853,-83.7052 667.9606,-77.6288"/>
</g>
<!-- Node21 -->
<g id="node22" class="node">
<title>Node21</title>
<polygon fill="none" stroke="#bfbfbf" points="631,-168.5 631,-187.5 696,-187.5 696,-168.5 631,-168.5"/>
<text text-anchor="middle" x="663.5" y="-175.5" font-family="Helvetica,sans-Serif" font-size="10.00" fill="#000000">functional</text>
</g>
<!-- Node20&#45;&gt;Node21 -->
<g id="edge32" class="edge">
<title>Node20&#45;&gt;Node21</title>
<path fill="none" stroke="#191970" d="M713.8746,-224.2455C704.9527,-216.0549 692.012,-204.1749 681.4808,-194.5069"/>
<polygon fill="#191970" stroke="#191970" points="683.7371,-191.8271 674.0036,-187.6427 679.0032,-196.9837 683.7371,-191.8271"/>
</g>
<!-- Node22 -->
<g id="node23" class="node">
<title>Node22</title>
<polygon fill="none" stroke="#bfbfbf" points="714.5,-168.5 714.5,-187.5 746.5,-187.5 746.5,-168.5 714.5,-168.5"/>
<text text-anchor="middle" x="730.5" y="-175.5" font-family="Helvetica,sans-Serif" font-size="10.00" fill="#000000">list</text>
</g>
<!-- Node20&#45;&gt;Node22 -->
<g id="edge33" class="edge">
<title>Node20&#45;&gt;Node22</title>
<path fill="none" stroke="#191970" d="M725.5451,-224.2455C726.328,-216.9382 727.4256,-206.6944 728.3888,-197.7046"/>
<polygon fill="#191970" stroke="#191970" points="731.8815,-197.9587 729.4669,-187.6427 724.9214,-197.2129 731.8815,-197.9587"/>
</g>
<!-- Node23 -->
<g id="node24" class="node">
<title>Node23</title>
<polygon fill="none" stroke="#bfbfbf" points="954.5,-168.5 954.5,-187.5 1018.5,-187.5 1018.5,-168.5 954.5,-168.5"/>
<text text-anchor="middle" x="986.5" y="-175.5" font-family="Helvetica,sans-Serif" font-size="10.00" fill="#000000">algorithm</text>
</g>
<!-- Node20&#45;&gt;Node23 -->
<g id="edge35" class="edge">
<title>Node20&#45;&gt;Node23</title>
<path fill="none" stroke="#191970" d="M772.8874,-224.4212C815.5405,-215.8665 879.6138,-202.7471 944.3271,-188.2134"/>
<polygon fill="#191970" stroke="#191970" points="945.3109,-191.5795 954.2954,-185.9644 943.7703,-184.7511 945.3109,-191.5795"/>
</g>
<!-- Node24&#45;&gt;Node3 -->
<g id="edge38" class="edge">
<title>Node24&#45;&gt;Node3</title>
<path fill="none" stroke="#191970" d="M932.331,-392.4509C909.9017,-373.2747 859.1643,-329.8962 831.4468,-306.1988"/>
<polygon fill="#191970" stroke="#191970" points="833.5159,-303.363 823.6407,-299.5249 828.9671,-308.6835 833.5159,-303.363"/>
</g>
<!-- Node25 -->
<g id="node26" class="node">
<title>Node25</title>
<g id="a_node26"><a xlink:href="Text_8hxx.html" target="_top" xlink:title="Text.hxx">
<polygon fill="none" stroke="#000000" points="914.5,-336.5 914.5,-355.5 972.5,-355.5 972.5,-336.5 914.5,-336.5"/>
<text text-anchor="middle" x="943.5" y="-343.5" font-family="Helvetica,sans-Serif" font-size="10.00" fill="#000000">Text.hxx</text>
</a>
</g>
</g>
<!-- Node24&#45;&gt;Node25 -->
<g id="edge39" class="edge">
<title>Node24&#45;&gt;Node25</title>
<path fill="none" stroke="#191970" d="M943.5,-392.2455C943.5,-384.9382 943.5,-374.6944 943.5,-365.7046"/>
<polygon fill="#191970" stroke="#191970" points="947.0001,-365.6426 943.5,-355.6427 940.0001,-365.6427 947.0001,-365.6426"/>
</g>
<!-- Node25&#45;&gt;Node3 -->
<g id="edge41" class="edge">
<title>Node25&#45;&gt;Node3</title>
<path fill="none" stroke="#191970" d="M920.9803,-336.3733C899.7628,-327.3032 867.7724,-313.6279 844.0231,-303.4755"/>
<polygon fill="#191970" stroke="#191970" points="845.2967,-300.2136 834.7258,-299.5011 842.5452,-306.6502 845.2967,-300.2136"/>
</g>
<!-- Node25&#45;&gt;Node4 -->
<g id="edge40" class="edge">
<title>Node25&#45;&gt;Node4</title>
<path fill="none" stroke="#191970" d="M954.8144,-336.3073C985.5288,-308.8038 1065.6723,-228.3599 1027.5,-168 986.9719,-103.915 894.0487,-79.2922 844.688,-70.4872"/>
<polygon fill="#191970" stroke="#191970" points="845.0041,-66.9915 834.5639,-68.7951 843.8501,-73.8958 845.0041,-66.9915"/>
</g>
<!-- Node26&#45;&gt;Node4 -->
<g id="edge43" class="edge">
<title>Node26&#45;&gt;Node4</title>
<path fill="none" stroke="#191970" d="M1337.5817,-233.0785C1397.7943,-230.1551 1527.1548,-218.0289 1485.5,-168 1443.7618,-117.871 973.4027,-78.3382 844.8175,-68.4126"/>
<polygon fill="#191970" stroke="#191970" points="845.0383,-64.9193 834.8004,-67.6461 844.5042,-71.8989 845.0383,-64.9193"/>
</g>
<!-- Node26&#45;&gt;Node7 -->
<g id="edge47" class="edge">
<title>Node26&#45;&gt;Node7</title>
<path fill="none" stroke="#191970" d="M1279.2187,-230.2C1235.9204,-223.9124 1158.1292,-209.829 1141.5,-188 1131.5391,-174.9244 1133.0544,-155.7814 1136.3127,-141.4751"/>
<polygon fill="#191970" stroke="#191970" points="1139.7354,-142.2265 1138.9829,-131.6584 1132.9808,-140.3892 1139.7354,-142.2265"/>
</g>
<!-- Node26&#45;&gt;Node9 -->
<g id="edge52" class="edge">
<title>Node26&#45;&gt;Node9</title>
<path fill="none" stroke="#191970" d="M1279.2159,-225.8293C1228.394,-211.9408 1120.3918,-183.7112 1027.5,-168 876.573,-142.4731 693.9056,-128.7764 620.914,-123.9896"/>
<polygon fill="#191970" stroke="#191970" points="620.7636,-120.4727 610.5592,-123.3224 620.3135,-127.4582 620.7636,-120.4727"/>
</g>
<!-- Node26&#45;&gt;Node23 -->
<g id="edge53" class="edge">
<title>Node26&#45;&gt;Node23</title>
<path fill="none" stroke="#191970" d="M1279.409,-229.6307C1228.996,-221.9521 1122.1893,-205.2123 1032.5,-188 1031.2359,-187.7574 1029.9532,-187.5068 1028.659,-187.2501"/>
<polygon fill="#191970" stroke="#191970" points="1029.1287,-183.7737 1018.6295,-185.1944 1027.7231,-190.6311 1029.1287,-183.7737"/>
</g>
<!-- Node27 -->
<g id="node28" class="node">
<title>Node27</title>
<g id="a_node28"><a xlink:href="Exception_8hxx.html" target="_top" xlink:title="Exception.hxx">
<polygon fill="none" stroke="#000000" points="1624.5,-168.5 1624.5,-187.5 1710.5,-187.5 1710.5,-168.5 1624.5,-168.5"/>
<text text-anchor="middle" x="1667.5" y="-175.5" font-family="Helvetica,sans-Serif" font-size="10.00" fill="#000000">Exception.hxx</text>
</a>
</g>
</g>
<!-- Node26&#45;&gt;Node27 -->
<g id="edge44" class="edge">
<title>Node26&#45;&gt;Node27</title>
<path fill="none" stroke="#191970" d="M1337.7716,-230.024C1390.7933,-222.7337 1506.4858,-206.4227 1614.3205,-188.1484"/>
<polygon fill="#191970" stroke="#191970" points="1615.1249,-191.5619 1624.3947,-186.4314 1613.9488,-184.6614 1615.1249,-191.5619"/>
</g>
<!-- Node30 -->
<g id="node31" class="node">
<title>Node30</title>
<polygon fill="none" stroke="#bfbfbf" points="1150.5,-168.5 1150.5,-187.5 1200.5,-187.5 1200.5,-168.5 1150.5,-168.5"/>
<text text-anchor="middle" x="1175.5" y="-175.5" font-family="Helvetica,sans-Serif" font-size="10.00" fill="#000000">chrono</text>
</g>
<!-- Node26&#45;&gt;Node30 -->
<g id="edge48" class="edge">
<title>Node26&#45;&gt;Node30</title>
<path fill="none" stroke="#191970" d="M1285.6365,-224.3733C1264.095,-215.3032 1231.6162,-201.6279 1207.5044,-191.4755"/>
<polygon fill="#191970" stroke="#191970" points="1208.6397,-188.156 1198.0652,-187.5011 1205.9233,-194.6075 1208.6397,-188.156"/>
</g>
<!-- Node31 -->
<g id="node32" class="node">
<title>Node31</title>
<polygon fill="none" stroke="#bfbfbf" points="1218.5,-168.5 1218.5,-187.5 1262.5,-187.5 1262.5,-168.5 1218.5,-168.5"/>
<text text-anchor="middle" x="1240.5" y="-175.5" font-family="Helvetica,sans-Serif" font-size="10.00" fill="#000000">ctime</text>
</g>
<!-- Node26&#45;&gt;Node31 -->
<g id="edge49" class="edge">
<title>Node26&#45;&gt;Node31</title>
<path fill="none" stroke="#191970" d="M1296.6553,-224.2455C1286.612,-215.9746 1272.0005,-203.9416 1260.1996,-194.2232"/>
<polygon fill="#191970" stroke="#191970" points="1262.1533,-191.298 1252.209,-187.6427 1257.7033,-196.7015 1262.1533,-191.298"/>
</g>
<!-- Node32 -->
<g id="node33" class="node">
<title>Node32</title>
<polygon fill="none" stroke="#bfbfbf" points="1281,-168.5 1281,-187.5 1336,-187.5 1336,-168.5 1281,-168.5"/>
<text text-anchor="middle" x="1308.5" y="-175.5" font-family="Helvetica,sans-Serif" font-size="10.00" fill="#000000">fstream</text>
</g>
<!-- Node26&#45;&gt;Node32 -->
<g id="edge50" class="edge">
<title>Node26&#45;&gt;Node32</title>
<path fill="none" stroke="#191970" d="M1308.5,-224.2455C1308.5,-216.9382 1308.5,-206.6944 1308.5,-197.7046"/>
<polygon fill="#191970" stroke="#191970" points="1312.0001,-197.6426 1308.5,-187.6427 1305.0001,-197.6427 1312.0001,-197.6426"/>
</g>
<!-- Node33 -->
<g id="node34" class="node">
<title>Node33</title>
<polygon fill="none" stroke="#bfbfbf" points="1354.5,-168.5 1354.5,-187.5 1410.5,-187.5 1410.5,-168.5 1354.5,-168.5"/>
<text text-anchor="middle" x="1382.5" y="-175.5" font-family="Helvetica,sans-Serif" font-size="10.00" fill="#000000">sstream</text>
</g>
<!-- Node26&#45;&gt;Node33 -->
<g id="edge51" class="edge">
<title>Node26&#45;&gt;Node33</title>
<path fill="none" stroke="#191970" d="M1321.3898,-224.2455C1332.4254,-215.8943 1348.5292,-203.7076 1361.4353,-193.9408"/>
<polygon fill="#191970" stroke="#191970" points="1363.8959,-196.4681 1369.7579,-187.6427 1359.6717,-190.8862 1363.8959,-196.4681"/>
</g>
<!-- Node34 -->
<g id="node35" class="node">
<title>Node34</title>
<polygon fill="none" stroke="#bfbfbf" points="1428.5,-168.5 1428.5,-187.5 1476.5,-187.5 1476.5,-168.5 1428.5,-168.5"/>
<text text-anchor="middle" x="1452.5" y="-175.5" font-family="Helvetica,sans-Serif" font-size="10.00" fill="#000000">mutex</text>
</g>
<!-- Node26&#45;&gt;Node34 -->
<g id="edge54" class="edge">
<title>Node26&#45;&gt;Node34</title>
<path fill="none" stroke="#191970" d="M1333.2545,-224.3733C1356.7849,-215.2226 1392.3687,-201.3844 1418.5426,-191.2057"/>
<polygon fill="#191970" stroke="#191970" points="1420.0171,-194.3877 1428.0685,-187.5011 1417.4799,-187.8636 1420.0171,-194.3877"/>
</g>
<!-- Node35 -->
<g id="node36" class="node">
<title>Node35</title>
<g id="a_node36"><a xlink:href="Meta_8hxx.html" target="_top" xlink:title="Meta.hxx">
<polygon fill="none" stroke="#000000" points="1728.5,-168.5 1728.5,-187.5 1790.5,-187.5 1790.5,-168.5 1728.5,-168.5"/>
<text text-anchor="middle" x="1759.5" y="-175.5" font-family="Helvetica,sans-Serif" font-size="10.00" fill="#000000">Meta.hxx</text>
</a>
</g>
</g>
<!-- Node26&#45;&gt;Node35 -->
<g id="edge55" class="edge">
<title>Node26&#45;&gt;Node35</title>
<path fill="none" stroke="#191970" d="M1337.5935,-232.0853C1403.5852,-227.4571 1569.7783,-214.198 1717.9586,-188.0805"/>
<polygon fill="#191970" stroke="#191970" points="1718.9149,-191.4651 1728.1429,-186.2598 1717.6829,-184.5744 1718.9149,-191.4651"/>
</g>
<!-- Node39 -->
<g id="node40" class="node">
<title>Node39</title>
<g id="a_node40"><a xlink:href="LOG_8inl_8hxx.html" target="_top" xlink:title="LOG.inl.hxx">
<polygon fill="none" stroke="#000000" points="1533,-168.5 1533,-187.5 1606,-187.5 1606,-168.5 1533,-168.5"/>
<text text-anchor="middle" x="1569.5" y="-175.5" font-family="Helvetica,sans-Serif" font-size="10.00" fill="#000000">LOG.inl.hxx</text>
</a>
</g>
</g>
<!-- Node26&#45;&gt;Node39 -->
<g id="edge60" class="edge">
<title>Node26&#45;&gt;Node39</title>
<path fill="none" stroke="#191970" d="M1337.6803,-227.7391C1382.6686,-218.0864 1469.3725,-199.4833 1523.0516,-187.9659"/>
<polygon fill="#191970" stroke="#191970" points="1523.9555,-191.3517 1532.9987,-185.8317 1522.487,-184.5075 1523.9555,-191.3517"/>
</g>
<!-- Node28 -->
<g id="node29" class="node">
<title>Node28</title>
<polygon fill="none" stroke="#bfbfbf" points="1552,-112.5 1552,-131.5 1617,-131.5 1617,-112.5 1552,-112.5"/>
<text text-anchor="middle" x="1584.5" y="-119.5" font-family="Helvetica,sans-Serif" font-size="10.00" fill="#000000">stdexcept</text>
</g>
<!-- Node27&#45;&gt;Node28 -->
<g id="edge45" class="edge">
<title>Node27&#45;&gt;Node28</title>
<path fill="none" stroke="#191970" d="M1653.0425,-168.2455C1640.4268,-159.7337 1621.9056,-147.2375 1607.2955,-137.3801"/>
<polygon fill="#191970" stroke="#191970" points="1609.0391,-134.3343 1598.7918,-131.6427 1605.1239,-140.1371 1609.0391,-134.3343"/>
</g>
<!-- Node29 -->
<g id="node30" class="node">
<title>Node29</title>
<polygon fill="none" stroke="#bfbfbf" points="1635,-112.5 1635,-131.5 1700,-131.5 1700,-112.5 1635,-112.5"/>
<text text-anchor="middle" x="1667.5" y="-119.5" font-family="Helvetica,sans-Serif" font-size="10.00" fill="#000000">exception</text>
</g>
<!-- Node27&#45;&gt;Node29 -->
<g id="edge46" class="edge">
<title>Node27&#45;&gt;Node29</title>
<path fill="none" stroke="#191970" d="M1667.5,-168.2455C1667.5,-160.9382 1667.5,-150.6944 1667.5,-141.7046"/>
<polygon fill="#191970" stroke="#191970" points="1671.0001,-141.6426 1667.5,-131.6427 1664.0001,-141.6427 1671.0001,-141.6426"/>
</g>
<!-- Node35&#45;&gt;Node7 -->
<g id="edge56" class="edge">
<title>Node35&#45;&gt;Node7</title>
<path fill="none" stroke="#191970" d="M1728.1594,-169.6441C1725.2449,-169.0247 1722.3257,-168.4626 1719.5,-168 1519.9235,-135.3281 1277.5571,-125.5971 1183.008,-122.929"/>
<polygon fill="#191970" stroke="#191970" points="1182.8371,-119.4232 1172.7459,-122.6511 1182.6475,-126.4206 1182.8371,-119.4232"/>
</g>
<!-- Node36 -->
<g id="node37" class="node">
<title>Node36</title>
<polygon fill="none" stroke="#bfbfbf" points="1846,-112.5 1846,-131.5 1915,-131.5 1915,-112.5 1846,-112.5"/>
<text text-anchor="middle" x="1880.5" y="-119.5" font-family="Helvetica,sans-Serif" font-size="10.00" fill="#000000">type_traits</text>
</g>
<!-- Node35&#45;&gt;Node36 -->
<g id="edge57" class="edge">
<title>Node35&#45;&gt;Node36</title>
<path fill="none" stroke="#191970" d="M1780.3006,-168.3733C1799.7243,-159.3838 1828.9224,-145.8706 1850.7964,-135.7471"/>
<polygon fill="#191970" stroke="#191970" points="1852.3656,-138.8776 1859.9708,-131.5011 1849.4255,-132.5249 1852.3656,-138.8776"/>
</g>
<!-- Node37 -->
<g id="node38" class="node">
<title>Node37</title>
<polygon fill="none" stroke="#bfbfbf" points="1718,-112.5 1718,-131.5 1769,-131.5 1769,-112.5 1718,-112.5"/>
<text text-anchor="middle" x="1743.5" y="-119.5" font-family="Helvetica,sans-Serif" font-size="10.00" fill="#000000">variant</text>
</g>
<!-- Node35&#45;&gt;Node37 -->
<g id="edge58" class="edge">
<title>Node35&#45;&gt;Node37</title>
<path fill="none" stroke="#191970" d="M1756.713,-168.2455C1754.6023,-160.8579 1751.634,-150.4689 1749.0453,-141.4087"/>
<polygon fill="#191970" stroke="#191970" points="1752.3677,-140.2964 1746.255,-131.6427 1745.637,-142.2195 1752.3677,-140.2964"/>
</g>
<!-- Node38 -->
<g id="node39" class="node">
<title>Node38</title>
<polygon fill="none" stroke="#bfbfbf" points="1787,-112.5 1787,-131.5 1828,-131.5 1828,-112.5 1787,-112.5"/>
<text text-anchor="middle" x="1807.5" y="-119.5" font-family="Helvetica,sans-Serif" font-size="10.00" fill="#000000">tuple</text>
</g>
<!-- Node35&#45;&gt;Node38 -->
<g id="edge59" class="edge">
<title>Node35&#45;&gt;Node38</title>
<path fill="none" stroke="#191970" d="M1767.861,-168.2455C1774.675,-160.2958 1784.4681,-148.8706 1792.6152,-139.3656"/>
<polygon fill="#191970" stroke="#191970" points="1795.3843,-141.513 1799.2349,-131.6427 1790.0695,-136.9575 1795.3843,-141.513"/>
</g>
</g>
</svg>
        <g id="navigator" transform="translate(0 0)" fill="#404254">
                <rect fill="#f2f5e9" fill-opacity="0.5" stroke="#606060" stroke-width=".5" x="0" y="0" width="60" height="60"/>
                <use id="zoomplus" xlink:href="#zoomPlus" x="17" y="9" onmousedown="handleZoom(evt,'in')"/>
                <use id="zoomminus" xlink:href="#zoomMin" x="42" y="9" onmousedown="handleZoom(evt,'out')"/>
                <use id="reset" xlink:href="#resetDef" x="30" y="36" onmousedown="handleReset()"/>
                <g id="arrowUp" xlink:href="#dirArrow" transform="translate(30 24)" onmousedown="handlePan(0,-1)">
                  <use xlink:href="#rim" fill="#404040">
                        <set attributeName="fill" to="#808080" begin="arrowUp.mouseover" end="arrowUp.mouseout"/>
                  </use>
                  <path fill="none" stroke="white" stroke-width="1.5" d="M0,-3.0v7 M-2.5,-0.5L0,-3.0L2.5,-0.5"/>
                </g>
                <g id="arrowRight" xlink:href="#dirArrow" transform="rotate(90) translate(36 -43)" onmousedown="handlePan(1,0)">
                  <use xlink:href="#rim" fill="#404040">
                        <set attributeName="fill" to="#808080" begin="arrowRight.mouseover" end="arrowRight.mouseout"/>
                  </use>
                  <path fill="none" stroke="white" stroke-width="1.5" d="M0,-3.0v7 M-2.5,-0.5L0,-3.0L2.5,-0.5"/>
                </g>
                <g id="arrowDown" xlink:href="#dirArrow" transform="rotate(180) translate(-30 -48)" onmousedown="handlePan(0,1)">
                  <use xlink:href="#rim" fill="#404040">
                        <set attributeName="fill" to="#808080" begin="arrowDown.mouseover" end="arrowDown.mouseout"/>
                  </use>
                  <path fill="none" stroke="white" stroke-width="1.5" d="M0,-3.0v7 M-2.5,-0.5L0,-3.0L2.5,-0.5"/>
                </g>
                <g id="arrowLeft" xlink:href="#dirArrow" transform="rotate(270) translate(-36 17)" onmousedown="handlePan(-1,0)">
                  <use xlink:href="#rim" fill="#404040">
                        <set attributeName="fill" to="#808080" begin="arrowLeft.mouseover" end="arrowLeft.mouseout"/>
                  </use>
                  <path fill="none" stroke="white" stroke-width="1.5" d="M0,-3.0v7 M-2.5,-0.5L0,-3.0L2.5,-0.5"/>
                </g>
        </g>
        <svg viewBox="0 0 15 15" width="100%" height="30px" preserveAspectRatio="xMaxYMin meet">
         <g id="arrow_out" transform="scale(0.3 0.3)">
          <a xlink:href="Combobox_8cxx__incl_org.svg" target="_base">
           <rect id="button" ry="5" rx="5" y="6" x="6" height="38" width="38"
                fill="#f2f5e9" fill-opacity="0.5" stroke="#606060" stroke-width="1.0"/>
           <path id="arrow"
             d="M 11.500037,31.436501 C 11.940474,20.09759 22.043105,11.32322 32.158766,21.979434 L 37.068811,17.246167 C 37.068811,17.246167 37.088388,32 37.088388,32 L 22.160133,31.978069 C 22.160133,31.978069 26.997745,27.140456 26.997745,27.140456 C 18.528582,18.264221 13.291696,25.230495 11.500037,31.436501 z"
             style="fill:#404040;"/>
          </a>
         </g>
        </svg>
</svg>
