<?xml version="1.0" encoding="UTF-8" standalone="no"?>
<!DOCTYPE svg PUBLIC "-//W3C//DTD SVG 1.1//EN"
 "http://www.w3.org/Graphics/SVG/1.1/DTD/svg11.dtd">
<!-- Generated by graphviz version 2.40.1 (20161225.0304)
 -->
<!-- Title: src/model/DataModel.hxx Pages: 1 -->
<!--zoomable 420 -->
<svg id="main" version="1.1" xmlns="http://www.w3.org/2000/svg" xmlns:xlink="http://www.w3.org/1999/xlink" xml:space="preserve" onload="init(evt)">
<style type="text/css"><![CDATA[
.edge:hover path { stroke: red; }
.edge:hover polygon { stroke: red; fill: red; }
]]></style>
<script type="text/javascript"><![CDATA[
var edges = document.getElementsByTagName('g');
if (edges && edges.length) {
  for (var i=0;i<edges.length;i++) {
    if (edges[i].id.substr(0,4)=='edge') {
      edges[i].setAttribute('class','edge');
    }
  }
}
]]></script>
        <defs>
                <circle id="rim" cx="0" cy="0" r="7"/>
                <circle id="rim2" cx="0" cy="0" r="3.5"/>
                <g id="zoomPlus">
                        <use xlink:href="#rim" fill="#404040">
                                <set attributeName="fill" to="#808080" begin="zoomplus.mouseover" end="zoomplus.mouseout"/>
                        </use>
                        <path d="M-4,0h8M0,-4v8" fill="none" stroke="white" stroke-width="1.5" pointer-events="none"/>
                </g>
                <g id="zoomMin">
                        <use xlink:href="#rim" fill="#404040">
                                <set attributeName="fill" to="#808080" begin="zoomminus.mouseover" end="zoomminus.mouseout"/>
                        </use>
                        <path d="M-4,0h8" fill="none" stroke="white" stroke-width="1.5" pointer-events="none"/>
                </g>
                <g id="dirArrow">
                        <path fill="none" stroke="white" stroke-width="1.5" d="M0,-3.0v7 M-2.5,-0.5L0,-3.0L2.5,-0.5"/>
                </g>
               <g id="resetDef">
                       <use xlink:href="#rim2" fill="#404040">
                               <set attributeName="fill" to="#808080" begin="reset.mouseover" end="reset.mouseout"/>
                       </use>
               </g>
        </defs>

<script type="text/javascript">
var viewWidth = 838;
var viewHeight = 420;
var sectionId = 'dynsection-0';
</script>
<script xlink:href="svgpan.js"/>
<svg id="graph" class="graph">
<g id="viewport">
<title>src/model/DataModel.hxx</title>
<!-- Node0 -->
<g id="node1" class="node">
<title>Node0</title>
<polygon fill="#bfbfbf" stroke="#000000" points="81.5,-392.5 81.5,-411.5 222.5,-411.5 222.5,-392.5 81.5,-392.5"/>
<text text-anchor="middle" x="152" y="-399.5" font-family="Helvetica,sans-Serif" font-size="10.00" fill="#000000">src/model/DataModel.hxx</text>
</g>
<!-- Node1 -->
<g id="node2" class="node">
<title>Node1</title>
<g id="a_node2"><a xlink:href="iModel_8hxx.html" target="_top" xlink:title="iModel.hxx">
<polygon fill="none" stroke="#000000" points="0,-280.5 0,-299.5 70,-299.5 70,-280.5 0,-280.5"/>
<text text-anchor="middle" x="35" y="-287.5" font-family="Helvetica,sans-Serif" font-size="10.00" fill="#000000">iModel.hxx</text>
</a>
</g>
</g>
<!-- Node0&#45;&gt;Node1 -->
<g id="edge1" class="edge">
<title>Node0&#45;&gt;Node1</title>
<path fill="none" stroke="#191970" d="M134.6237,-392.4745C120.1368,-384.0345 99.4456,-370.7824 84,-356 69.0891,-341.7294 55.387,-322.5184 46.2868,-308.5037"/>
<polygon fill="#191970" stroke="#191970" points="49.0619,-306.343 40.7636,-299.7559 43.1429,-310.0802 49.0619,-306.343"/>
</g>
<!-- Node3 -->
<g id="node4" class="node">
<title>Node3</title>
<g id="a_node4"><a xlink:href="Observer_8hxx.html" target="_top" xlink:title="../util/Observer.hxx">
<polygon fill="none" stroke="#000000" points="167.5,-112.5 167.5,-131.5 276.5,-131.5 276.5,-112.5 167.5,-112.5"/>
<text text-anchor="middle" x="222" y="-119.5" font-family="Helvetica,sans-Serif" font-size="10.00" fill="#000000">../util/Observer.hxx</text>
</a>
</g>
</g>
<!-- Node0&#45;&gt;Node3 -->
<g id="edge3" class="edge">
<title>Node0&#45;&gt;Node3</title>
<path fill="none" stroke="#191970" d="M143.377,-392.4205C135.7728,-383.5373 124.863,-369.667 118,-356 104.2454,-328.609 98,-320.6506 98,-290 98,-290 98,-290 98,-234 98,-185.6674 150.5232,-152.8067 187.2026,-135.7513"/>
<polygon fill="#191970" stroke="#191970" points="188.8996,-138.8269 196.6075,-131.5579 186.0489,-132.4336 188.8996,-138.8269"/>
</g>
<!-- Node10 -->
<g id="node11" class="node">
<title>Node10</title>
<g id="a_node11"><a xlink:href="MessageQueue_8hxx.html" target="_top" xlink:title="../engine/MessageQueue.hxx">
<polygon fill="none" stroke="#000000" points="354.5,-280.5 354.5,-299.5 511.5,-299.5 511.5,-280.5 354.5,-280.5"/>
<text text-anchor="middle" x="433" y="-287.5" font-family="Helvetica,sans-Serif" font-size="10.00" fill="#000000">../engine/MessageQueue.hxx</text>
</a>
</g>
</g>
<!-- Node0&#45;&gt;Node10 -->
<g id="edge11" class="edge">
<title>Node0&#45;&gt;Node10</title>
<path fill="none" stroke="#191970" d="M187.0667,-392.4197C216.7463,-383.9463 260.2037,-370.6759 297,-356 336.0331,-340.432 379.4433,-318.5185 406.4848,-304.2877"/>
<polygon fill="#191970" stroke="#191970" points="408.1367,-307.3735 415.333,-299.5976 404.8583,-301.1886 408.1367,-307.3735"/>
</g>
<!-- Node22 -->
<g id="node23" class="node">
<title>Node22</title>
<g id="a_node23"><a xlink:href="UIMQDispatcher_8hxx.html" target="_top" xlink:title="../engine/UIMQDispatcher.hxx">
<polygon fill="none" stroke="#000000" points="126.5,-336.5 126.5,-355.5 287.5,-355.5 287.5,-336.5 126.5,-336.5"/>
<text text-anchor="middle" x="207" y="-343.5" font-family="Helvetica,sans-Serif" font-size="10.00" fill="#000000">../engine/UIMQDispatcher.hxx</text>
</a>
</g>
</g>
<!-- Node0&#45;&gt;Node22 -->
<g id="edge28" class="edge">
<title>Node0&#45;&gt;Node22</title>
<path fill="none" stroke="#191970" d="M161.5803,-392.2455C169.5458,-384.1352 181.0641,-372.4075 190.5079,-362.7919"/>
<polygon fill="#191970" stroke="#191970" points="193.0195,-365.2297 197.5295,-355.6427 188.0253,-360.3247 193.0195,-365.2297"/>
</g>
<!-- Node2 -->
<g id="node3" class="node">
<title>Node2</title>
<polygon fill="none" stroke="#bfbfbf" points="125,-56.5 125,-75.5 183,-75.5 183,-56.5 125,-56.5"/>
<text text-anchor="middle" x="154" y="-63.5" font-family="Helvetica,sans-Serif" font-size="10.00" fill="#000000">memory</text>
</g>
<!-- Node1&#45;&gt;Node2 -->
<g id="edge2" class="edge">
<title>Node1&#45;&gt;Node2</title>
<path fill="none" stroke="#191970" d="M38.1202,-280.1856C45.0198,-259.0335 62.6635,-207.8399 84,-168 100.7068,-136.8048 124.905,-103.5125 140.0307,-83.7448"/>
<polygon fill="#191970" stroke="#191970" points="142.9279,-85.7199 146.2825,-75.6702 137.393,-81.4345 142.9279,-85.7199"/>
</g>
<!-- Node3&#45;&gt;Node2 -->
<g id="edge5" class="edge">
<title>Node3&#45;&gt;Node2</title>
<path fill="none" stroke="#191970" d="M210.1553,-112.2455C200.112,-103.9746 185.5005,-91.9416 173.6996,-82.2232"/>
<polygon fill="#191970" stroke="#191970" points="175.6533,-79.298 165.709,-75.6427 171.2033,-84.7015 175.6533,-79.298"/>
</g>
<!-- Node4 -->
<g id="node5" class="node">
<title>Node4</title>
<polygon fill="none" stroke="#bfbfbf" points="245.5,-56.5 245.5,-75.5 292.5,-75.5 292.5,-56.5 245.5,-56.5"/>
<text text-anchor="middle" x="269" y="-63.5" font-family="Helvetica,sans-Serif" font-size="10.00" fill="#000000">vector</text>
</g>
<!-- Node3&#45;&gt;Node4 -->
<g id="edge4" class="edge">
<title>Node3&#45;&gt;Node4</title>
<path fill="none" stroke="#191970" d="M230.1868,-112.2455C236.8589,-104.2958 246.4479,-92.8706 254.4253,-83.3656"/>
<polygon fill="#191970" stroke="#191970" points="257.1592,-85.5525 260.907,-75.6427 251.7974,-81.0524 257.1592,-85.5525"/>
</g>
<!-- Node5 -->
<g id="node6" class="node">
<title>Node5</title>
<g id="a_node6"><a xlink:href="Meta_8hxx.html" target="_top" xlink:title="Meta.hxx">
<polygon fill="none" stroke="#000000" points="359,-56.5 359,-75.5 421,-75.5 421,-56.5 359,-56.5"/>
<text text-anchor="middle" x="390" y="-63.5" font-family="Helvetica,sans-Serif" font-size="10.00" fill="#000000">Meta.hxx</text>
</a>
</g>
</g>
<!-- Node3&#45;&gt;Node5 -->
<g id="edge6" class="edge">
<title>Node3&#45;&gt;Node5</title>
<path fill="none" stroke="#191970" d="M250.8802,-112.3733C278.8161,-103.0613 321.3142,-88.8953 351.9869,-78.671"/>
<polygon fill="#191970" stroke="#191970" points="353.1166,-81.9839 361.4966,-75.5011 350.903,-75.3431 353.1166,-81.9839"/>
</g>
<!-- Node6 -->
<g id="node7" class="node">
<title>Node6</title>
<polygon fill="none" stroke="#bfbfbf" points="238,-.5 238,-19.5 298,-19.5 298,-.5 238,-.5"/>
<text text-anchor="middle" x="268" y="-7.5" font-family="Helvetica,sans-Serif" font-size="10.00" fill="#000000">iostream</text>
</g>
<!-- Node5&#45;&gt;Node6 -->
<g id="edge7" class="edge">
<title>Node5&#45;&gt;Node6</title>
<path fill="none" stroke="#191970" d="M369.0275,-56.3733C349.4433,-47.3838 320.0039,-33.8706 297.949,-23.7471"/>
<polygon fill="#191970" stroke="#191970" points="299.2473,-20.4919 288.6989,-19.5011 296.3271,-26.8538 299.2473,-20.4919"/>
</g>
<!-- Node7 -->
<g id="node8" class="node">
<title>Node7</title>
<polygon fill="none" stroke="#bfbfbf" points="316.5,-.5 316.5,-19.5 385.5,-19.5 385.5,-.5 316.5,-.5"/>
<text text-anchor="middle" x="351" y="-7.5" font-family="Helvetica,sans-Serif" font-size="10.00" fill="#000000">type_traits</text>
</g>
<!-- Node5&#45;&gt;Node7 -->
<g id="edge8" class="edge">
<title>Node5&#45;&gt;Node7</title>
<path fill="none" stroke="#191970" d="M383.2067,-56.2455C377.7822,-48.4564 370.0339,-37.3308 363.4967,-27.9439"/>
<polygon fill="#191970" stroke="#191970" points="366.3025,-25.8485 357.7154,-19.6427 360.5583,-29.849 366.3025,-25.8485"/>
</g>
<!-- Node8 -->
<g id="node9" class="node">
<title>Node8</title>
<polygon fill="none" stroke="#bfbfbf" points="403.5,-.5 403.5,-19.5 454.5,-19.5 454.5,-.5 403.5,-.5"/>
<text text-anchor="middle" x="429" y="-7.5" font-family="Helvetica,sans-Serif" font-size="10.00" fill="#000000">variant</text>
</g>
<!-- Node5&#45;&gt;Node8 -->
<g id="edge9" class="edge">
<title>Node5&#45;&gt;Node8</title>
<path fill="none" stroke="#191970" d="M396.7933,-56.2455C402.2178,-48.4564 409.9661,-37.3308 416.5033,-27.9439"/>
<polygon fill="#191970" stroke="#191970" points="419.4417,-29.849 422.2846,-19.6427 413.6975,-25.8485 419.4417,-29.849"/>
</g>
<!-- Node9 -->
<g id="node10" class="node">
<title>Node9</title>
<polygon fill="none" stroke="#bfbfbf" points="472.5,-.5 472.5,-19.5 513.5,-19.5 513.5,-.5 472.5,-.5"/>
<text text-anchor="middle" x="493" y="-7.5" font-family="Helvetica,sans-Serif" font-size="10.00" fill="#000000">tuple</text>
</g>
<!-- Node5&#45;&gt;Node9 -->
<g id="edge10" class="edge">
<title>Node5&#45;&gt;Node9</title>
<path fill="none" stroke="#191970" d="M407.9412,-56.2455C424.04,-47.4928 447.8879,-34.527 466.2391,-24.5496"/>
<polygon fill="#191970" stroke="#191970" points="468.1507,-27.4942 475.2644,-19.6427 464.8071,-21.3444 468.1507,-27.4942"/>
</g>
<!-- Node10&#45;&gt;Node4 -->
<g id="edge15" class="edge">
<title>Node10&#45;&gt;Node4</title>
<path fill="none" stroke="#191970" d="M425.9531,-280.375C400.7729,-245.9825 314.997,-128.8251 282.0425,-83.8141"/>
<polygon fill="#191970" stroke="#191970" points="284.7521,-81.5902 276.0206,-75.5891 279.104,-85.7254 284.7521,-81.5902"/>
</g>
<!-- Node11 -->
<g id="node12" class="node">
<title>Node11</title>
<polygon fill="none" stroke="#bfbfbf" points="420.5,-224.5 420.5,-243.5 527.5,-243.5 527.5,-224.5 420.5,-224.5"/>
<text text-anchor="middle" x="474" y="-231.5" font-family="Helvetica,sans-Serif" font-size="10.00" fill="#000000">condition_variable</text>
</g>
<!-- Node10&#45;&gt;Node11 -->
<g id="edge12" class="edge">
<title>Node10&#45;&gt;Node11</title>
<path fill="none" stroke="#191970" d="M440.1417,-280.2455C445.8444,-272.4564 453.99,-261.3308 460.8625,-251.9439"/>
<polygon fill="#191970" stroke="#191970" points="463.8568,-253.7789 466.9402,-243.6427 458.2087,-249.6437 463.8568,-253.7789"/>
</g>
<!-- Node12 -->
<g id="node13" class="node">
<title>Node12</title>
<polygon fill="none" stroke="#bfbfbf" points="716,-224.5 716,-243.5 764,-243.5 764,-224.5 716,-224.5"/>
<text text-anchor="middle" x="740" y="-231.5" font-family="Helvetica,sans-Serif" font-size="10.00" fill="#000000">mutex</text>
</g>
<!-- Node10&#45;&gt;Node12 -->
<g id="edge13" class="edge">
<title>Node10&#45;&gt;Node12</title>
<path fill="none" stroke="#191970" d="M498.2628,-280.4851C552.9304,-272.1219 632.8896,-258.9722 702,-244 703.2751,-243.7238 704.5718,-243.433 705.8796,-243.1314"/>
<polygon fill="#191970" stroke="#191970" points="707.0712,-246.4433 715.9542,-240.669 705.4091,-239.6434 707.0712,-246.4433"/>
</g>
<!-- Node13 -->
<g id="node14" class="node">
<title>Node13</title>
<polygon fill="none" stroke="#bfbfbf" points="782.5,-224.5 782.5,-243.5 829.5,-243.5 829.5,-224.5 782.5,-224.5"/>
<text text-anchor="middle" x="806" y="-231.5" font-family="Helvetica,sans-Serif" font-size="10.00" fill="#000000">deque</text>
</g>
<!-- Node10&#45;&gt;Node13 -->
<g id="edge14" class="edge">
<title>Node10&#45;&gt;Node13</title>
<path fill="none" stroke="#191970" d="M511.6043,-282.9634C578.6157,-276.1409 677.5536,-264.1227 772.5536,-243.7925"/>
<polygon fill="#191970" stroke="#191970" points="773.2977,-247.2126 782.3261,-241.6684 771.8109,-240.3723 773.2977,-247.2126"/>
</g>
<!-- Node14 -->
<g id="node15" class="node">
<title>Node14</title>
<polygon fill="none" stroke="#bfbfbf" points="706.5,-112.5 706.5,-131.5 771.5,-131.5 771.5,-112.5 706.5,-112.5"/>
<text text-anchor="middle" x="739" y="-119.5" font-family="Helvetica,sans-Serif" font-size="10.00" fill="#000000">functional</text>
</g>
<!-- Node10&#45;&gt;Node14 -->
<g id="edge16" class="edge">
<title>Node10&#45;&gt;Node14</title>
<path fill="none" stroke="#191970" d="M493.8518,-280.4877C544.3478,-271.8084 611.5394,-258.2033 635,-244 678.0453,-217.9398 712.1625,-167.8388 728.4924,-140.6522"/>
<polygon fill="#191970" stroke="#191970" points="731.6652,-142.1598 733.6876,-131.7598 725.621,-138.6287 731.6652,-142.1598"/>
</g>
<!-- Node15 -->
<g id="node16" class="node">
<title>Node15</title>
<polygon fill="none" stroke="#bfbfbf" points="164,-224.5 164,-243.5 218,-243.5 218,-224.5 164,-224.5"/>
<text text-anchor="middle" x="191" y="-231.5" font-family="Helvetica,sans-Serif" font-size="10.00" fill="#000000">ciso646</text>
</g>
<!-- Node10&#45;&gt;Node15 -->
<g id="edge17" class="edge">
<title>Node10&#45;&gt;Node15</title>
<path fill="none" stroke="#191970" d="M387.6763,-280.4185C346.0487,-271.4788 282.7075,-257.5241 228,-244 227.8991,-243.975 227.798,-243.95 227.6968,-243.9249"/>
<polygon fill="#191970" stroke="#191970" points="228.5985,-240.543 218.0429,-241.4536 226.8625,-247.3243 228.5985,-240.543"/>
</g>
<!-- Node16 -->
<g id="node17" class="node">
<title>Node16</title>
<g id="a_node17"><a xlink:href="Events_8hxx.html" target="_top" xlink:title="../Events.hxx">
<polygon fill="none" stroke="#000000" points="546,-224.5 546,-243.5 626,-243.5 626,-224.5 546,-224.5"/>
<text text-anchor="middle" x="586" y="-231.5" font-family="Helvetica,sans-Serif" font-size="10.00" fill="#000000">../Events.hxx</text>
</a>
</g>
</g>
<!-- Node10&#45;&gt;Node16 -->
<g id="edge18" class="edge">
<title>Node10&#45;&gt;Node16</title>
<path fill="none" stroke="#191970" d="M459.3016,-280.3733C484.4128,-271.1822 522.4438,-257.2624 550.2872,-247.0713"/>
<polygon fill="#191970" stroke="#191970" points="551.8538,-250.2251 560.0416,-243.5011 549.4478,-243.6516 551.8538,-250.2251"/>
</g>
<!-- Node21 -->
<g id="node22" class="node">
<title>Node21</title>
<g id="a_node22"><a xlink:href="MessageQueue_8inl_8hxx.html" target="_top" xlink:title="MessageQueue.inl.hxx">
<polygon fill="none" stroke="#000000" points="236.5,-224.5 236.5,-243.5 363.5,-243.5 363.5,-224.5 236.5,-224.5"/>
<text text-anchor="middle" x="300" y="-231.5" font-family="Helvetica,sans-Serif" font-size="10.00" fill="#000000">MessageQueue.inl.hxx</text>
</a>
</g>
</g>
<!-- Node10&#45;&gt;Node21 -->
<g id="edge27" class="edge">
<title>Node10&#45;&gt;Node21</title>
<path fill="none" stroke="#191970" d="M410.1365,-280.3733C388.595,-271.3032 356.1162,-257.6279 332.0044,-247.4755"/>
<polygon fill="#191970" stroke="#191970" points="333.1397,-244.156 322.5652,-243.5011 330.4233,-250.6075 333.1397,-244.156"/>
</g>
<!-- Node16&#45;&gt;Node5 -->
<g id="edge21" class="edge">
<title>Node16&#45;&gt;Node5</title>
<path fill="none" stroke="#191970" d="M547.9363,-224.476C505.4409,-213.546 441.4782,-196.0903 433,-188 404.283,-160.5967 394.7223,-112.8769 391.555,-85.9579"/>
<polygon fill="#191970" stroke="#191970" points="395.0191,-85.4214 390.5518,-75.8145 388.0531,-86.1105 395.0191,-85.4214"/>
</g>
<!-- Node17 -->
<g id="node18" class="node">
<title>Node17</title>
<polygon fill="none" stroke="#bfbfbf" points="442,-168.5 442,-187.5 486,-187.5 486,-168.5 442,-168.5"/>
<text text-anchor="middle" x="464" y="-175.5" font-family="Helvetica,sans-Serif" font-size="10.00" fill="#000000">string</text>
</g>
<!-- Node16&#45;&gt;Node17 -->
<g id="edge19" class="edge">
<title>Node16&#45;&gt;Node17</title>
<path fill="none" stroke="#191970" d="M565.0275,-224.3733C545.4433,-215.3838 516.0039,-201.8706 493.949,-191.7471"/>
<polygon fill="#191970" stroke="#191970" points="495.2473,-188.4919 484.6989,-187.5011 492.3271,-194.8538 495.2473,-188.4919"/>
</g>
<!-- Node18 -->
<g id="node19" class="node">
<title>Node18</title>
<polygon fill="none" stroke="#bfbfbf" points="514,-56.5 514,-75.5 614,-75.5 614,-56.5 514,-56.5"/>
<text text-anchor="middle" x="564" y="-63.5" font-family="Helvetica,sans-Serif" font-size="10.00" fill="#000000">betterEnums.hxx</text>
</g>
<!-- Node16&#45;&gt;Node18 -->
<g id="edge20" class="edge">
<title>Node16&#45;&gt;Node18</title>
<path fill="none" stroke="#191970" d="M569.0243,-224.34C556.8145,-216.3452 541.2701,-203.7606 534,-188 519.8503,-157.3256 523.1301,-144.3067 533,-112 536.1409,-101.7192 542.4366,-91.6582 548.5388,-83.5799"/>
<polygon fill="#191970" stroke="#191970" points="551.363,-85.6535 554.9259,-75.6757 545.9184,-81.2539 551.363,-85.6535"/>
</g>
<!-- Node19 -->
<g id="node20" class="node">
<title>Node19</title>
<g id="a_node20"><a xlink:href="UIEvents_8hxx.html" target="_top" xlink:title="events/UIEvents.hxx">
<polygon fill="none" stroke="#000000" points="542.5,-168.5 542.5,-187.5 659.5,-187.5 659.5,-168.5 542.5,-168.5"/>
<text text-anchor="middle" x="601" y="-175.5" font-family="Helvetica,sans-Serif" font-size="10.00" fill="#000000">events/UIEvents.hxx</text>
</a>
</g>
</g>
<!-- Node16&#45;&gt;Node19 -->
<g id="edge22" class="edge">
<title>Node16&#45;&gt;Node19</title>
<path fill="none" stroke="#191970" d="M588.6128,-224.2455C590.5916,-216.8579 593.3744,-206.4689 595.8012,-197.4087"/>
<polygon fill="#191970" stroke="#191970" points="599.2105,-198.2078 598.4171,-187.6427 592.4489,-196.3966 599.2105,-198.2078"/>
</g>
<!-- Node19&#45;&gt;Node3 -->
<g id="edge26" class="edge">
<title>Node19&#45;&gt;Node3</title>
<path fill="none" stroke="#191970" d="M542.1971,-169.3114C473.0351,-159.0923 358.5869,-142.1817 286.8893,-131.5879"/>
<polygon fill="#191970" stroke="#191970" points="287.0359,-128.0716 276.6317,-130.0722 286.0127,-134.9964 287.0359,-128.0716"/>
</g>
<!-- Node19&#45;&gt;Node14 -->
<g id="edge23" class="edge">
<title>Node19&#45;&gt;Node14</title>
<path fill="none" stroke="#191970" d="M624.723,-168.3733C647.1737,-159.2629 681.0739,-145.5062 706.1255,-135.3404"/>
<polygon fill="#191970" stroke="#191970" points="707.6365,-138.5045 715.5865,-131.5011 705.0043,-132.0182 707.6365,-138.5045"/>
</g>
<!-- Node20 -->
<g id="node21" class="node">
<title>Node20</title>
<g id="a_node21"><a xlink:href="ActivityType_8hxx.html" target="_top" xlink:title="../activity/ActivityType.hxx">
<polygon fill="none" stroke="#000000" points="542,-112.5 542,-131.5 688,-131.5 688,-112.5 542,-112.5"/>
<text text-anchor="middle" x="615" y="-119.5" font-family="Helvetica,sans-Serif" font-size="10.00" fill="#000000">../activity/ActivityType.hxx</text>
</a>
</g>
</g>
<!-- Node19&#45;&gt;Node20 -->
<g id="edge24" class="edge">
<title>Node19&#45;&gt;Node20</title>
<path fill="none" stroke="#191970" d="M603.4386,-168.2455C605.2855,-160.8579 607.8828,-150.4689 610.1478,-141.4087"/>
<polygon fill="#191970" stroke="#191970" points="613.5594,-142.193 612.5893,-131.6427 606.7684,-140.4952 613.5594,-142.193"/>
</g>
<!-- Node20&#45;&gt;Node18 -->
<g id="edge25" class="edge">
<title>Node20&#45;&gt;Node18</title>
<path fill="none" stroke="#191970" d="M606.1165,-112.2455C598.8034,-104.2155 588.2609,-92.6394 579.5533,-83.0781"/>
<polygon fill="#191970" stroke="#191970" points="582.1028,-80.6795 572.7817,-75.6427 576.9273,-85.3928 582.1028,-80.6795"/>
</g>
<!-- Node22&#45;&gt;Node3 -->
<g id="edge29" class="edge">
<title>Node22&#45;&gt;Node3</title>
<path fill="none" stroke="#191970" d="M197.9162,-336.4712C179.803,-316.2763 142.0041,-267.4561 155,-224 164.9414,-190.7577 189.5818,-158.305 206.0468,-139.2353"/>
<polygon fill="#191970" stroke="#191970" points="208.7241,-141.4915 212.7452,-131.6894 203.489,-136.8445 208.7241,-141.4915"/>
</g>
<!-- Node22&#45;&gt;Node10 -->
<g id="edge30" class="edge">
<title>Node22&#45;&gt;Node10</title>
<path fill="none" stroke="#191970" d="M245.594,-336.4369C284.0284,-326.9133 343.136,-312.2672 384.671,-301.9753"/>
<polygon fill="#191970" stroke="#191970" points="385.7006,-305.3261 394.5652,-299.5237 384.0169,-298.5316 385.7006,-305.3261"/>
</g>
</g>
</svg>
        <g id="navigator" transform="translate(0 0)" fill="#404254">
                <rect fill="#f2f5e9" fill-opacity="0.5" stroke="#606060" stroke-width=".5" x="0" y="0" width="60" height="60"/>
                <use id="zoomplus" xlink:href="#zoomPlus" x="17" y="9" onmousedown="handleZoom(evt,'in')"/>
                <use id="zoomminus" xlink:href="#zoomMin" x="42" y="9" onmousedown="handleZoom(evt,'out')"/>
                <use id="reset" xlink:href="#resetDef" x="30" y="36" onmousedown="handleReset()"/>
                <g id="arrowUp" xlink:href="#dirArrow" transform="translate(30 24)" onmousedown="handlePan(0,-1)">
                  <use xlink:href="#rim" fill="#404040">
                        <set attributeName="fill" to="#808080" begin="arrowUp.mouseover" end="arrowUp.mouseout"/>
                  </use>
                  <path fill="none" stroke="white" stroke-width="1.5" d="M0,-3.0v7 M-2.5,-0.5L0,-3.0L2.5,-0.5"/>
                </g>
                <g id="arrowRight" xlink:href="#dirArrow" transform="rotate(90) translate(36 -43)" onmousedown="handlePan(1,0)">
                  <use xlink:href="#rim" fill="#404040">
                        <set attributeName="fill" to="#808080" begin="arrowRight.mouseover" end="arrowRight.mouseout"/>
                  </use>
                  <path fill="none" stroke="white" stroke-width="1.5" d="M0,-3.0v7 M-2.5,-0.5L0,-3.0L2.5,-0.5"/>
                </g>
                <g id="arrowDown" xlink:href="#dirArrow" transform="rotate(180) translate(-30 -48)" onmousedown="handlePan(0,1)">
                  <use xlink:href="#rim" fill="#404040">
                        <set attributeName="fill" to="#808080" begin="arrowDown.mouseover" end="arrowDown.mouseout"/>
                  </use>
                  <path fill="none" stroke="white" stroke-width="1.5" d="M0,-3.0v7 M-2.5,-0.5L0,-3.0L2.5,-0.5"/>
                </g>
                <g id="arrowLeft" xlink:href="#dirArrow" transform="rotate(270) translate(-36 17)" onmousedown="handlePan(-1,0)">
                  <use xlink:href="#rim" fill="#404040">
                        <set attributeName="fill" to="#808080" begin="arrowLeft.mouseover" end="arrowLeft.mouseout"/>
                  </use>
                  <path fill="none" stroke="white" stroke-width="1.5" d="M0,-3.0v7 M-2.5,-0.5L0,-3.0L2.5,-0.5"/>
                </g>
        </g>
        <svg viewBox="0 0 15 15" width="100%" height="30px" preserveAspectRatio="xMaxYMin meet">
         <g id="arrow_out" transform="scale(0.3 0.3)">
          <a xlink:href="DataModel_8hxx__incl_org.svg" target="_base">
           <rect id="button" ry="5" rx="5" y="6" x="6" height="38" width="38"
                fill="#f2f5e9" fill-opacity="0.5" stroke="#606060" stroke-width="1.0"/>
           <path id="arrow"
             d="M 11.500037,31.436501 C 11.940474,20.09759 22.043105,11.32322 32.158766,21.979434 L 37.068811,17.246167 C 37.068811,17.246167 37.088388,32 37.088388,32 L 22.160133,31.978069 C 22.160133,31.978069 26.997745,27.140456 26.997745,27.140456 C 18.528582,18.264221 13.291696,25.230495 11.500037,31.436501 z"
             style="fill:#404040;"/>
          </a>
         </g>
        </svg>
</svg>
