<?xml version="1.0" encoding="UTF-8" standalone="no"?>
<!DOCTYPE svg PUBLIC "-//W3C//DTD SVG 1.1//EN"
 "http://www.w3.org/Graphics/SVG/1.1/DTD/svg11.dtd">
<!-- Generated by graphviz version 2.40.1 (20161225.0304)
 -->
<!-- Title: src/engine/ui/widgets Pages: 1 -->
<svg width="152pt" height="223pt"
 viewBox="0.00 0.00 152.00 223.00" xmlns="http://www.w3.org/2000/svg" xmlns:xlink="http://www.w3.org/1999/xlink">
<g id="graph0" class="graph" transform="scale(1 1) rotate(0) translate(4 219)">
<title>src/engine/ui/widgets</title>
<g id="clust1" class="cluster">
<title>clusterdir_dafb870456d4817504c840071e25f057</title>
<g id="a_clust1"><a xlink:href="dir_dafb870456d4817504c840071e25f057.html" target="_top" xlink:title="ui">
<polygon fill="#ddddee" stroke="#000000" points="8,-136 8,-207 80,-207 80,-136 8,-136"/>
<text text-anchor="middle" x="44" y="-195" font-family="Helvetica,sans-Serif" font-size="10.00" fill="#000000">ui</text>
</a>
</g>
</g>
<!-- dir_da596e0a640cb07f660e5a92758700d0 -->
<g id="node1" class="node">
<title>dir_da596e0a640cb07f660e5a92758700d0</title>
<g id="a_node1"><a xlink:href="dir_da596e0a640cb07f660e5a92758700d0.html" target="_top" xlink:title="widgets">
<polygon fill="#eeeeff" stroke="#000000" points="71.5,-180 16.5,-180 16.5,-144 71.5,-144 71.5,-180"/>
<text text-anchor="middle" x="44" y="-159.5" font-family="Helvetica,sans-Serif" font-size="10.00" fill="#000000">widgets</text>
</a>
</g>
</g>
<!-- dir_b7878ad5ecbf2506f4125b9d34c97e45 -->
<g id="node2" class="node">
<title>dir_b7878ad5ecbf2506f4125b9d34c97e45</title>
<g id="a_node2"><a xlink:href="dir_b7878ad5ecbf2506f4125b9d34c97e45.html" target="_top" xlink:title="util">
<polygon fill="none" stroke="#ff0000" points="108,-108 54,-108 54,-72 108,-72 108,-108"/>
<text text-anchor="middle" x="81" y="-87.5" font-family="Helvetica,sans-Serif" font-size="10.00" fill="#000000">util</text>
</a>
</g>
</g>
<!-- dir_da596e0a640cb07f660e5a92758700d0&#45;&gt;dir_b7878ad5ecbf2506f4125b9d34c97e45 -->
<g id="edge5" class="edge">
<title>dir_da596e0a640cb07f660e5a92758700d0&#45;&gt;dir_b7878ad5ecbf2506f4125b9d34c97e45</title>
<path fill="none" stroke="#000000" d="M53.3367,-143.8314C57.4243,-135.8771 62.3104,-126.369 66.8309,-117.5723"/>
<polygon fill="#000000" stroke="#000000" points="70.0799,-118.9074 71.5376,-108.4133 63.8539,-115.7078 70.0799,-118.9074"/>
<g id="a_edge5&#45;headlabel"><a xlink:href="dir_000012_000019.html" target="_top" xlink:title="5">
<text text-anchor="middle" x="70.9623" y="-120.9022" font-family="Helvetica,sans-Serif" font-size="10.00" fill="#000000">5</text>
</a>
</g>
</g>
<!-- dir_5430acbacf25f3c993fa948280e8f66e -->
<g id="node3" class="node">
<title>dir_5430acbacf25f3c993fa948280e8f66e</title>
<g id="a_node3"><a xlink:href="dir_5430acbacf25f3c993fa948280e8f66e.html" target="_top" xlink:title="basics">
<polygon fill="none" stroke="#000000" points="144,-180 90,-180 90,-144 144,-144 144,-180"/>
<text text-anchor="middle" x="117" y="-159.5" font-family="Helvetica,sans-Serif" font-size="10.00" fill="#000000">basics</text>
</a>
</g>
</g>
<!-- dir_da596e0a640cb07f660e5a92758700d0&#45;&gt;dir_5430acbacf25f3c993fa948280e8f66e -->
<g id="edge6" class="edge">
<title>dir_da596e0a640cb07f660e5a92758700d0&#45;&gt;dir_5430acbacf25f3c993fa948280e8f66e</title>
<path fill="none" stroke="#000000" d="M71.6602,-162C74.2946,-162 76.9291,-162 79.5636,-162"/>
<polygon fill="#000000" stroke="#000000" points="79.7253,-165.5001 89.7253,-162 79.7252,-158.5001 79.7253,-165.5001"/>
<g id="a_edge6&#45;headlabel"><a xlink:href="dir_000012_000010.html" target="_top" xlink:title="10">
<text text-anchor="middle" x="76.1306" y="-165.8393" font-family="Helvetica,sans-Serif" font-size="10.00" fill="#000000">10</text>
</a>
</g>
</g>
<!-- dir_8c0f887d135e3a09c81f308091ce630b -->
<g id="node4" class="node">
<title>dir_8c0f887d135e3a09c81f308091ce630b</title>
<g id="a_node4"><a xlink:href="dir_8c0f887d135e3a09c81f308091ce630b.html" target="_top" xlink:title="basics">
<polygon fill="none" stroke="#000000" points="108,-36 54,-36 54,0 108,0 108,-36"/>
<text text-anchor="middle" x="81" y="-15.5" font-family="Helvetica,sans-Serif" font-size="10.00" fill="#000000">basics</text>
</a>
</g>
</g>
<!-- dir_da596e0a640cb07f660e5a92758700d0&#45;&gt;dir_8c0f887d135e3a09c81f308091ce630b -->
<g id="edge7" class="edge">
<title>dir_da596e0a640cb07f660e5a92758700d0&#45;&gt;dir_8c0f887d135e3a09c81f308091ce630b</title>
<path fill="none" stroke="#000000" d="M41.2438,-143.9474C39.0945,-125.4374 37.576,-96.0375 45,-72 48.0106,-62.2521 53.3953,-52.6443 59.0979,-44.297"/>
<polygon fill="#000000" stroke="#000000" points="62.0093,-46.2447 65.0695,-36.1014 56.3518,-42.1223 62.0093,-46.2447"/>
<g id="a_edge7&#45;headlabel"><a xlink:href="dir_000012_000005.html" target="_top" xlink:title="2">
<text text-anchor="middle" x="62.1872" y="-48.3219" font-family="Helvetica,sans-Serif" font-size="10.00" fill="#000000">2</text>
</a>
</g>
</g>
<!-- dir_b7878ad5ecbf2506f4125b9d34c97e45&#45;&gt;dir_8c0f887d135e3a09c81f308091ce630b -->
<g id="edge1" class="edge">
<title>dir_b7878ad5ecbf2506f4125b9d34c97e45&#45;&gt;dir_8c0f887d135e3a09c81f308091ce630b</title>
<path fill="none" stroke="#000000" d="M75.0476,-71.8314C74.2972,-64.131 74.0763,-54.9743 74.3849,-46.4166"/>
<polygon fill="#000000" stroke="#000000" points="77.8792,-46.6161 75.024,-36.4133 70.8935,-46.1697 77.8792,-46.6161"/>
<g id="a_edge1&#45;headlabel"><a xlink:href="dir_000019_000005.html" target="_top" xlink:title="3">
<text text-anchor="middle" x="80.4836" y="-47.8844" font-family="Helvetica,sans-Serif" font-size="10.00" fill="#000000">3</text>
</a>
</g>
</g>
<!-- dir_5430acbacf25f3c993fa948280e8f66e&#45;&gt;dir_da596e0a640cb07f660e5a92758700d0 -->
<g id="edge3" class="edge">
<title>dir_5430acbacf25f3c993fa948280e8f66e&#45;&gt;dir_da596e0a640cb07f660e5a92758700d0</title>
<path fill="none" stroke="#000000" d="M89.7253,-162C87.0908,-162 84.4563,-162 81.8218,-162"/>
<polygon fill="#000000" stroke="#000000" points="81.6602,-158.5001 71.6602,-162 81.6601,-165.5001 81.6602,-158.5001"/>
<g id="a_edge3&#45;headlabel"><a xlink:href="dir_000010_000012.html" target="_top" xlink:title="1">
<text text-anchor="middle" x="85.2548" y="-153.1607" font-family="Helvetica,sans-Serif" font-size="10.00" fill="#000000">1</text>
</a>
</g>
</g>
<!-- dir_5430acbacf25f3c993fa948280e8f66e&#45;&gt;dir_b7878ad5ecbf2506f4125b9d34c97e45 -->
<g id="edge2" class="edge">
<title>dir_5430acbacf25f3c993fa948280e8f66e&#45;&gt;dir_b7878ad5ecbf2506f4125b9d34c97e45</title>
<path fill="none" stroke="#000000" d="M107.9157,-143.8314C103.9385,-135.8771 99.1845,-126.369 94.7861,-117.5723"/>
<polygon fill="#000000" stroke="#000000" points="97.8093,-115.7923 90.2066,-108.4133 91.5483,-118.9228 97.8093,-115.7923"/>
<g id="a_edge2&#45;headlabel"><a xlink:href="dir_000010_000019.html" target="_top" xlink:title="3">
<text text-anchor="middle" x="101.9563" y="-115.2377" font-family="Helvetica,sans-Serif" font-size="10.00" fill="#000000">3</text>
</a>
</g>
</g>
<!-- dir_5430acbacf25f3c993fa948280e8f66e&#45;&gt;dir_8c0f887d135e3a09c81f308091ce630b -->
<g id="edge4" class="edge">
<title>dir_5430acbacf25f3c993fa948280e8f66e&#45;&gt;dir_8c0f887d135e3a09c81f308091ce630b</title>
<path fill="none" stroke="#000000" d="M120.0117,-143.9637C122.4105,-125.4666 124.2899,-96.0768 117,-72 114.0436,-62.2355 108.6748,-52.6229 102.97,-44.2762"/>
<polygon fill="#000000" stroke="#000000" points="105.7129,-42.0973 96.9905,-36.0831 100.0586,-46.2239 105.7129,-42.0973"/>
<g id="a_edge4&#45;headlabel"><a xlink:href="dir_000010_000005.html" target="_top" xlink:title="5">
<text text-anchor="middle" x="110.1253" y="-40.827" font-family="Helvetica,sans-Serif" font-size="10.00" fill="#000000">5</text>
</a>
</g>
</g>
<!-- dir_8c0f887d135e3a09c81f308091ce630b&#45;&gt;dir_b7878ad5ecbf2506f4125b9d34c97e45 -->
<g id="edge8" class="edge">
<title>dir_8c0f887d135e3a09c81f308091ce630b&#45;&gt;dir_b7878ad5ecbf2506f4125b9d34c97e45</title>
<path fill="none" stroke="#000000" d="M86.976,-36.4133C87.7071,-44.0593 87.9203,-53.1084 87.6155,-61.5726"/>
<polygon fill="#000000" stroke="#000000" points="84.1048,-61.6264 86.9524,-71.8314 91.0902,-62.078 84.1048,-61.6264"/>
<g id="a_edge8&#45;headlabel"><a xlink:href="dir_000005_000019.html" target="_top" xlink:title="13">
<text text-anchor="middle" x="81.5032" y="-55.3562" font-family="Helvetica,sans-Serif" font-size="10.00" fill="#000000">13</text>
</a>
</g>
</g>
</g>
</svg>
