<?xml version="1.0" encoding="UTF-8" standalone="no"?>
<!DOCTYPE svg PUBLIC "-//W3C//DTD SVG 1.1//EN"
 "http://www.w3.org/Graphics/SVG/1.1/DTD/svg11.dtd">
<!-- Generated by graphviz version 2.40.1 (20161225.0304)
 -->
<!-- Title: src/engine/basics Pages: 1 -->
<svg width="228pt" height="169pt"
 viewBox="0.00 0.00 227.50 169.13" xmlns="http://www.w3.org/2000/svg" xmlns:xlink="http://www.w3.org/1999/xlink">
<g id="graph0" class="graph" transform="scale(1 1) rotate(0) translate(4 165.1333)">
<title>src/engine/basics</title>
<g id="clust1" class="cluster">
<title>clusterdir_2052808828190f934b76e979ee65af8a</title>
<g id="a_clust1"><a xlink:href="dir_2052808828190f934b76e979ee65af8a.html" target="_top" xlink:title="engine">
<polygon fill="#ddddee" stroke="#000000" points="8,-64 8,-135 78,-135 78,-64 8,-64"/>
<text text-anchor="middle" x="43" y="-123" font-family="Helvetica,sans-Serif" font-size="10.00" fill="#000000">engine</text>
</a>
</g>
</g>
<!-- dir_8c0f887d135e3a09c81f308091ce630b -->
<g id="node1" class="node">
<title>dir_8c0f887d135e3a09c81f308091ce630b</title>
<g id="a_node1"><a xlink:href="dir_8c0f887d135e3a09c81f308091ce630b.html" target="_top" xlink:title="basics">
<polygon fill="#eeeeff" stroke="#000000" points="70,-108 16,-108 16,-72 70,-72 70,-108"/>
<text text-anchor="middle" x="43" y="-87.5" font-family="Helvetica,sans-Serif" font-size="10.00" fill="#000000">basics</text>
</a>
</g>
</g>
<!-- dir_b7878ad5ecbf2506f4125b9d34c97e45 -->
<g id="node2" class="node">
<title>dir_b7878ad5ecbf2506f4125b9d34c97e45</title>
<g id="a_node2"><a xlink:href="dir_b7878ad5ecbf2506f4125b9d34c97e45.html" target="_top" xlink:title="util">
<polygon fill="none" stroke="#ff0000" points="142,-36 88,-36 88,0 142,0 142,-36"/>
<text text-anchor="middle" x="115" y="-15.5" font-family="Helvetica,sans-Serif" font-size="10.00" fill="#000000">util</text>
</a>
</g>
</g>
<!-- dir_8c0f887d135e3a09c81f308091ce630b&#45;&gt;dir_b7878ad5ecbf2506f4125b9d34c97e45 -->
<g id="edge5" class="edge">
<title>dir_8c0f887d135e3a09c81f308091ce630b&#45;&gt;dir_b7878ad5ecbf2506f4125b9d34c97e45</title>
<path fill="none" stroke="#000000" d="M61.1686,-71.8314C69.7152,-63.2848 80.0557,-52.9443 89.3802,-43.6198"/>
<polygon fill="#000000" stroke="#000000" points="91.9905,-45.9592 96.5867,-36.4133 87.0408,-41.0095 91.9905,-45.9592"/>
<g id="a_edge5&#45;headlabel"><a xlink:href="dir_000005_000019.html" target="_top" xlink:title="13">
<text text-anchor="middle" x="91.4564" y="-48.0087" font-family="Helvetica,sans-Serif" font-size="10.00" fill="#000000">13</text>
</a>
</g>
</g>
<!-- dir_b39b5091e8d1d2be4b7fc59d57749634 -->
<g id="node3" class="node">
<title>dir_b39b5091e8d1d2be4b7fc59d57749634</title>
<g id="a_node3"><a xlink:href="dir_b39b5091e8d1d2be4b7fc59d57749634.html" target="_top" xlink:title="view">
<polygon fill="none" stroke="#000000" points="142,-108 88,-108 88,-72 142,-72 142,-108"/>
<text text-anchor="middle" x="115" y="-87.5" font-family="Helvetica,sans-Serif" font-size="10.00" fill="#000000">view</text>
</a>
</g>
</g>
<!-- dir_8c0f887d135e3a09c81f308091ce630b&#45;&gt;dir_b39b5091e8d1d2be4b7fc59d57749634 -->
<g id="edge6" class="edge">
<title>dir_8c0f887d135e3a09c81f308091ce630b&#45;&gt;dir_b39b5091e8d1d2be4b7fc59d57749634</title>
<path fill="none" stroke="#000000" d="M70.2813,-90C72.7377,-90 75.1942,-90 77.6507,-90"/>
<polygon fill="#000000" stroke="#000000" points="77.7495,-93.5001 87.7495,-90 77.7495,-86.5001 77.7495,-93.5001"/>
<g id="a_edge6&#45;headlabel"><a xlink:href="dir_000005_000023.html" target="_top" xlink:title="1">
<text text-anchor="middle" x="74.1549" y="-93.8393" font-family="Helvetica,sans-Serif" font-size="10.00" fill="#000000">1</text>
</a>
</g>
</g>
<!-- dir_3ccf6d3192f3ffcbe7eee38747026054 -->
<g id="node4" class="node">
<title>dir_3ccf6d3192f3ffcbe7eee38747026054</title>
<g id="a_node4"><a xlink:href="dir_3ccf6d3192f3ffcbe7eee38747026054.html" target="_top" xlink:title="common">
<polygon fill="none" stroke="#000000" points="219.5,-108 160.5,-108 160.5,-72 219.5,-72 219.5,-108"/>
<text text-anchor="middle" x="190" y="-87.5" font-family="Helvetica,sans-Serif" font-size="10.00" fill="#000000">common</text>
</a>
</g>
</g>
<!-- dir_8c0f887d135e3a09c81f308091ce630b&#45;&gt;dir_3ccf6d3192f3ffcbe7eee38747026054 -->
<g id="edge7" class="edge">
<title>dir_8c0f887d135e3a09c81f308091ce630b&#45;&gt;dir_3ccf6d3192f3ffcbe7eee38747026054</title>
<path fill="none" stroke="#000000" d="M50.2517,-108.1158C57.3757,-123.1943 69.8338,-143.6514 88,-153 109.34,-163.982 120.4932,-163.6517 142,-153 157.2176,-145.4631 168.9237,-130.5361 176.9647,-117.1034"/>
<polygon fill="#000000" stroke="#000000" points="180.1416,-118.5921 181.9441,-108.1517 174.0243,-115.1892 180.1416,-118.5921"/>
<g id="a_edge7&#45;headlabel"><a xlink:href="dir_000005_000006.html" target="_top" xlink:title="4">
<text text-anchor="middle" x="180.8755" y="-120.6135" font-family="Helvetica,sans-Serif" font-size="10.00" fill="#000000">4</text>
</a>
</g>
</g>
<!-- dir_b39b5091e8d1d2be4b7fc59d57749634&#45;&gt;dir_8c0f887d135e3a09c81f308091ce630b -->
<g id="edge2" class="edge">
<title>dir_b39b5091e8d1d2be4b7fc59d57749634&#45;&gt;dir_8c0f887d135e3a09c81f308091ce630b</title>
<path fill="none" stroke="#000000" d="M87.7495,-90C85.293,-90 82.8366,-90 80.3801,-90"/>
<polygon fill="#000000" stroke="#000000" points="80.2813,-86.5001 70.2813,-90 80.2812,-93.5001 80.2813,-86.5001"/>
<g id="a_edge2&#45;headlabel"><a xlink:href="dir_000023_000005.html" target="_top" xlink:title="1">
<text text-anchor="middle" x="83.8759" y="-81.1607" font-family="Helvetica,sans-Serif" font-size="10.00" fill="#000000">1</text>
</a>
</g>
</g>
<!-- dir_b39b5091e8d1d2be4b7fc59d57749634&#45;&gt;dir_b7878ad5ecbf2506f4125b9d34c97e45 -->
<g id="edge1" class="edge">
<title>dir_b39b5091e8d1d2be4b7fc59d57749634&#45;&gt;dir_b7878ad5ecbf2506f4125b9d34c97e45</title>
<path fill="none" stroke="#000000" d="M115,-71.8314C115,-64.131 115,-54.9743 115,-46.4166"/>
<polygon fill="#000000" stroke="#000000" points="118.5001,-46.4132 115,-36.4133 111.5001,-46.4133 118.5001,-46.4132"/>
<g id="a_edge1&#45;headlabel"><a xlink:href="dir_000023_000019.html" target="_top" xlink:title="12">
<text text-anchor="middle" x="121.3393" y="-47.5079" font-family="Helvetica,sans-Serif" font-size="10.00" fill="#000000">12</text>
</a>
</g>
</g>
<!-- dir_3ccf6d3192f3ffcbe7eee38747026054&#45;&gt;dir_8c0f887d135e3a09c81f308091ce630b -->
<g id="edge4" class="edge">
<title>dir_3ccf6d3192f3ffcbe7eee38747026054&#45;&gt;dir_8c0f887d135e3a09c81f308091ce630b</title>
<path fill="none" stroke="#000000" d="M181.9441,-108.1517C174.1395,-123.2532 160.7293,-143.7238 142,-153 120.4932,-163.6517 109.34,-163.982 88,-153 73.24,-145.4042 62.2482,-130.4752 54.824,-117.056"/>
<polygon fill="#000000" stroke="#000000" points="57.9212,-115.4253 50.2517,-108.1158 51.689,-118.6127 57.9212,-115.4253"/>
<g id="a_edge4&#45;headlabel"><a xlink:href="dir_000006_000005.html" target="_top" xlink:title="2">
<text text-anchor="middle" x="62.0858" y="-114.8328" font-family="Helvetica,sans-Serif" font-size="10.00" fill="#000000">2</text>
</a>
</g>
</g>
<!-- dir_3ccf6d3192f3ffcbe7eee38747026054&#45;&gt;dir_b7878ad5ecbf2506f4125b9d34c97e45 -->
<g id="edge3" class="edge">
<title>dir_3ccf6d3192f3ffcbe7eee38747026054&#45;&gt;dir_b7878ad5ecbf2506f4125b9d34c97e45</title>
<path fill="none" stroke="#000000" d="M171.0743,-71.8314C162.0143,-63.1337 151.0191,-52.5783 141.1735,-43.1265"/>
<polygon fill="#000000" stroke="#000000" points="143.5574,-40.5633 133.9196,-36.1628 138.7096,-45.613 143.5574,-40.5633"/>
<g id="a_edge3&#45;headlabel"><a xlink:href="dir_000006_000019.html" target="_top" xlink:title="1">
<text text-anchor="middle" x="148.1167" y="-38.5045" font-family="Helvetica,sans-Serif" font-size="10.00" fill="#000000">1</text>
</a>
</g>
</g>
</g>
</svg>
