<?xml version="1.0" encoding="UTF-8" standalone="no"?>
<!DOCTYPE svg PUBLIC "-//W3C//DTD SVG 1.1//EN"
 "http://www.w3.org/Graphics/SVG/1.1/DTD/svg11.dtd">
<!-- Generated by graphviz version 2.40.1 (20161225.0304)
 -->
<!-- Title: src/events Pages: 1 -->
<svg width="150pt" height="223pt"
 viewBox="0.00 0.00 150.00 223.00" xmlns="http://www.w3.org/2000/svg" xmlns:xlink="http://www.w3.org/1999/xlink">
<g id="graph0" class="graph" transform="scale(1 1) rotate(0) translate(4 219)">
<title>src/events</title>
<g id="clust1" class="cluster">
<title>clusterdir_68267d1309a1af8e8297ef4c3efbcdba</title>
<g id="a_clust1"><a xlink:href="dir_68267d1309a1af8e8297ef4c3efbcdba.html" target="_top" xlink:title="src">
<polygon fill="#ddddee" stroke="#000000" points="8,-136 8,-207 78,-207 78,-136 8,-136"/>
<text text-anchor="middle" x="43" y="-195" font-family="Helvetica,sans-Serif" font-size="10.00" fill="#000000">src</text>
</a>
</g>
</g>
<!-- dir_14e1e259e8275dc0c459acef3bbf05ae -->
<g id="node1" class="node">
<title>dir_14e1e259e8275dc0c459acef3bbf05ae</title>
<g id="a_node1"><a xlink:href="dir_14e1e259e8275dc0c459acef3bbf05ae.html" target="_top" xlink:title="events">
<polygon fill="#eeeeff" stroke="#000000" points="70,-180 16,-180 16,-144 70,-144 70,-180"/>
<text text-anchor="middle" x="43" y="-159.5" font-family="Helvetica,sans-Serif" font-size="10.00" fill="#000000">events</text>
</a>
</g>
</g>
<!-- dir_2052808828190f934b76e979ee65af8a -->
<g id="node2" class="node">
<title>dir_2052808828190f934b76e979ee65af8a</title>
<g id="a_node2"><a xlink:href="dir_2052808828190f934b76e979ee65af8a.html" target="_top" xlink:title="engine">
<polygon fill="none" stroke="#ff0000" points="125,-108 71,-108 71,-72 125,-72 125,-108"/>
<text text-anchor="middle" x="98" y="-87.5" font-family="Helvetica,sans-Serif" font-size="10.00" fill="#000000">engine</text>
</a>
</g>
</g>
<!-- dir_14e1e259e8275dc0c459acef3bbf05ae&#45;&gt;dir_2052808828190f934b76e979ee65af8a -->
<g id="edge4" class="edge">
<title>dir_14e1e259e8275dc0c459acef3bbf05ae&#45;&gt;dir_2052808828190f934b76e979ee65af8a</title>
<path fill="none" stroke="#000000" d="M56.8788,-143.8314C63.2136,-135.5386 70.8384,-125.557 77.7926,-116.4533"/>
<polygon fill="#000000" stroke="#000000" points="80.6452,-118.4847 83.9343,-108.4133 75.0825,-114.2353 80.6452,-118.4847"/>
<g id="a_edge4&#45;headlabel"><a xlink:href="dir_000013_000003.html" target="_top" xlink:title="2">
<text text-anchor="middle" x="80.7195" y="-120.5647" font-family="Helvetica,sans-Serif" font-size="10.00" fill="#000000">2</text>
</a>
</g>
</g>
<!-- dir_b7878ad5ecbf2506f4125b9d34c97e45 -->
<g id="node3" class="node">
<title>dir_b7878ad5ecbf2506f4125b9d34c97e45</title>
<g id="a_node3"><a xlink:href="dir_b7878ad5ecbf2506f4125b9d34c97e45.html" target="_top" xlink:title="util">
<polygon fill="none" stroke="#ff0000" points="125,-36 71,-36 71,0 125,0 125,-36"/>
<text text-anchor="middle" x="98" y="-15.5" font-family="Helvetica,sans-Serif" font-size="10.00" fill="#000000">util</text>
</a>
</g>
</g>
<!-- dir_14e1e259e8275dc0c459acef3bbf05ae&#45;&gt;dir_b7878ad5ecbf2506f4125b9d34c97e45 -->
<g id="edge5" class="edge">
<title>dir_14e1e259e8275dc0c459acef3bbf05ae&#45;&gt;dir_b7878ad5ecbf2506f4125b9d34c97e45</title>
<path fill="none" stroke="#000000" d="M40.5226,-143.9478C38.7267,-125.1796 38.099,-95.3382 48,-72 52.5081,-61.3738 60.0614,-51.5224 67.9492,-43.2224"/>
<polygon fill="#000000" stroke="#000000" points="70.5496,-45.5735 75.2093,-36.0583 65.6329,-40.5908 70.5496,-45.5735"/>
<g id="a_edge5&#45;headlabel"><a xlink:href="dir_000013_000019.html" target="_top" xlink:title="2">
<text text-anchor="middle" x="69.9852" y="-47.6192" font-family="Helvetica,sans-Serif" font-size="10.00" fill="#000000">2</text>
</a>
</g>
</g>
<!-- dir_1cc4868d1fa7c84d5e169dbd1ca1796f -->
<g id="node4" class="node">
<title>dir_1cc4868d1fa7c84d5e169dbd1ca1796f</title>
<g id="a_node4"><a xlink:href="dir_1cc4868d1fa7c84d5e169dbd1ca1796f.html" target="_top" xlink:title="activity">
<polygon fill="none" stroke="#000000" points="142,-180 88,-180 88,-144 142,-144 142,-180"/>
<text text-anchor="middle" x="115" y="-159.5" font-family="Helvetica,sans-Serif" font-size="10.00" fill="#000000">activity</text>
</a>
</g>
</g>
<!-- dir_14e1e259e8275dc0c459acef3bbf05ae&#45;&gt;dir_1cc4868d1fa7c84d5e169dbd1ca1796f -->
<g id="edge6" class="edge">
<title>dir_14e1e259e8275dc0c459acef3bbf05ae&#45;&gt;dir_1cc4868d1fa7c84d5e169dbd1ca1796f</title>
<path fill="none" stroke="#000000" d="M70.2813,-162C72.7377,-162 75.1942,-162 77.6507,-162"/>
<polygon fill="#000000" stroke="#000000" points="77.7495,-165.5001 87.7495,-162 77.7495,-158.5001 77.7495,-165.5001"/>
<g id="a_edge6&#45;headlabel"><a xlink:href="dir_000013_000001.html" target="_top" xlink:title="1">
<text text-anchor="middle" x="74.1549" y="-165.8393" font-family="Helvetica,sans-Serif" font-size="10.00" fill="#000000">1</text>
</a>
</g>
</g>
<!-- dir_2052808828190f934b76e979ee65af8a&#45;&gt;dir_b7878ad5ecbf2506f4125b9d34c97e45 -->
<g id="edge1" class="edge">
<title>dir_2052808828190f934b76e979ee65af8a&#45;&gt;dir_b7878ad5ecbf2506f4125b9d34c97e45</title>
<path fill="none" stroke="#000000" d="M92.0476,-71.8314C91.2972,-64.131 91.0763,-54.9743 91.3849,-46.4166"/>
<polygon fill="#000000" stroke="#000000" points="94.8792,-46.6161 92.024,-36.4133 87.8935,-46.1697 94.8792,-46.6161"/>
<g id="a_edge1&#45;headlabel"><a xlink:href="dir_000003_000019.html" target="_top" xlink:title="52">
<text text-anchor="middle" x="97.4836" y="-47.8844" font-family="Helvetica,sans-Serif" font-size="10.00" fill="#000000">52</text>
</a>
</g>
</g>
<!-- dir_b7878ad5ecbf2506f4125b9d34c97e45&#45;&gt;dir_14e1e259e8275dc0c459acef3bbf05ae -->
<g id="edge3" class="edge">
<title>dir_b7878ad5ecbf2506f4125b9d34c97e45&#45;&gt;dir_14e1e259e8275dc0c459acef3bbf05ae</title>
<path fill="none" stroke="#000000" d="M83.1147,-36.4815C75.7538,-46.4704 67.328,-59.3284 62,-72 53.6694,-91.8124 48.8467,-115.6679 46.1459,-133.8395"/>
<polygon fill="#000000" stroke="#000000" points="42.6698,-133.4279 44.7905,-143.8083 49.6059,-134.3711 42.6698,-133.4279"/>
<g id="a_edge3&#45;headlabel"><a xlink:href="dir_000019_000013.html" target="_top" xlink:title="1">
<text text-anchor="middle" x="40.3406" y="-126.9836" font-family="Helvetica,sans-Serif" font-size="10.00" fill="#000000">1</text>
</a>
</g>
</g>
<!-- dir_b7878ad5ecbf2506f4125b9d34c97e45&#45;&gt;dir_2052808828190f934b76e979ee65af8a -->
<g id="edge2" class="edge">
<title>dir_b7878ad5ecbf2506f4125b9d34c97e45&#45;&gt;dir_2052808828190f934b76e979ee65af8a</title>
<path fill="none" stroke="#000000" d="M103.976,-36.4133C104.7071,-44.0593 104.9203,-53.1084 104.6155,-61.5726"/>
<polygon fill="#000000" stroke="#000000" points="101.1048,-61.6264 103.9524,-71.8314 108.0902,-62.078 101.1048,-61.6264"/>
<g id="a_edge2&#45;headlabel"><a xlink:href="dir_000019_000003.html" target="_top" xlink:title="3">
<text text-anchor="middle" x="98.5032" y="-55.3562" font-family="Helvetica,sans-Serif" font-size="10.00" fill="#000000">3</text>
</a>
</g>
</g>
<!-- dir_1cc4868d1fa7c84d5e169dbd1ca1796f&#45;&gt;dir_2052808828190f934b76e979ee65af8a -->
<g id="edge7" class="edge">
<title>dir_1cc4868d1fa7c84d5e169dbd1ca1796f&#45;&gt;dir_2052808828190f934b76e979ee65af8a</title>
<path fill="none" stroke="#000000" d="M110.7102,-143.8314C108.892,-136.131 106.7301,-126.9743 104.7095,-118.4166"/>
<polygon fill="#000000" stroke="#000000" points="108.0519,-117.3414 102.3476,-108.4133 101.2392,-118.95 108.0519,-117.3414"/>
<g id="a_edge7&#45;headlabel"><a xlink:href="dir_000001_000003.html" target="_top" xlink:title="1">
<text text-anchor="middle" x="111.6412" y="-117.6874" font-family="Helvetica,sans-Serif" font-size="10.00" fill="#000000">1</text>
</a>
</g>
</g>
<!-- dir_1cc4868d1fa7c84d5e169dbd1ca1796f&#45;&gt;dir_b7878ad5ecbf2506f4125b9d34c97e45 -->
<g id="edge8" class="edge">
<title>dir_1cc4868d1fa7c84d5e169dbd1ca1796f&#45;&gt;dir_b7878ad5ecbf2506f4125b9d34c97e45</title>
<path fill="none" stroke="#000000" d="M124.1354,-143.8403C132.1313,-125.4973 141.4043,-96.4547 134,-72 131.0436,-62.2355 125.6748,-52.6229 119.97,-44.2762"/>
<polygon fill="#000000" stroke="#000000" points="122.7129,-42.0973 113.9905,-36.0831 117.0586,-46.2239 122.7129,-42.0973"/>
<g id="a_edge8&#45;headlabel"><a xlink:href="dir_000001_000019.html" target="_top" xlink:title="2">
<text text-anchor="middle" x="127.1253" y="-40.827" font-family="Helvetica,sans-Serif" font-size="10.00" fill="#000000">2</text>
</a>
</g>
</g>
</g>
</svg>
