<?xml version="1.0" encoding="UTF-8" standalone="no"?>
<!DOCTYPE svg PUBLIC "-//W3C//DTD SVG 1.1//EN"
 "http://www.w3.org/Graphics/SVG/1.1/DTD/svg11.dtd">
<!-- Generated by graphviz version 2.40.1 (20161225.0304)
 -->
<!-- Title: src/activity Pages: 1 -->
<svg width="274pt" height="367pt"
 viewBox="0.00 0.00 273.92 367.00" xmlns="http://www.w3.org/2000/svg" xmlns:xlink="http://www.w3.org/1999/xlink">
<g id="graph0" class="graph" transform="scale(1 1) rotate(0) translate(4 363)">
<title>src/activity</title>
<g id="clust1" class="cluster">
<title>clusterdir_68267d1309a1af8e8297ef4c3efbcdba</title>
<g id="a_clust1"><a xlink:href="dir_68267d1309a1af8e8297ef4c3efbcdba.html" target="_top" xlink:title="src">
<polygon fill="#ddddee" stroke="#000000" points="91.9197,-280 91.9197,-351 161.9197,-351 161.9197,-280 91.9197,-280"/>
<text text-anchor="middle" x="126.9197" y="-339" font-family="Helvetica,sans-Serif" font-size="10.00" fill="#000000">src</text>
</a>
</g>
</g>
<!-- dir_1cc4868d1fa7c84d5e169dbd1ca1796f -->
<g id="node1" class="node">
<title>dir_1cc4868d1fa7c84d5e169dbd1ca1796f</title>
<g id="a_node1"><a xlink:href="dir_1cc4868d1fa7c84d5e169dbd1ca1796f.html" target="_top" xlink:title="activity">
<polygon fill="#eeeeff" stroke="#000000" points="153.9197,-324 99.9197,-324 99.9197,-288 153.9197,-288 153.9197,-324"/>
<text text-anchor="middle" x="126.9197" y="-303.5" font-family="Helvetica,sans-Serif" font-size="10.00" fill="#000000">activity</text>
</a>
</g>
</g>
<!-- dir_2052808828190f934b76e979ee65af8a -->
<g id="node2" class="node">
<title>dir_2052808828190f934b76e979ee65af8a</title>
<g id="a_node2"><a xlink:href="dir_2052808828190f934b76e979ee65af8a.html" target="_top" xlink:title="engine">
<polygon fill="none" stroke="#ff0000" points="79.9197,-252 25.9197,-252 25.9197,-216 79.9197,-216 79.9197,-252"/>
<text text-anchor="middle" x="52.9197" y="-231.5" font-family="Helvetica,sans-Serif" font-size="10.00" fill="#000000">engine</text>
</a>
</g>
</g>
<!-- dir_1cc4868d1fa7c84d5e169dbd1ca1796f&#45;&gt;dir_2052808828190f934b76e979ee65af8a -->
<g id="edge12" class="edge">
<title>dir_1cc4868d1fa7c84d5e169dbd1ca1796f&#45;&gt;dir_2052808828190f934b76e979ee65af8a</title>
<path fill="none" stroke="#000000" d="M108.2464,-287.8314C99.3948,-279.219 88.6711,-268.7851 79.0302,-259.4048"/>
<polygon fill="#000000" stroke="#000000" points="81.1951,-256.6279 71.5871,-252.1628 76.3136,-261.645 81.1951,-256.6279"/>
<g id="a_edge12&#45;headlabel"><a xlink:href="dir_000001_000003.html" target="_top" xlink:title="1">
<text text-anchor="middle" x="85.7514" y="-254.5996" font-family="Helvetica,sans-Serif" font-size="10.00" fill="#000000">1</text>
</a>
</g>
</g>
<!-- dir_b7878ad5ecbf2506f4125b9d34c97e45 -->
<g id="node3" class="node">
<title>dir_b7878ad5ecbf2506f4125b9d34c97e45</title>
<g id="a_node3"><a xlink:href="dir_b7878ad5ecbf2506f4125b9d34c97e45.html" target="_top" xlink:title="util">
<polygon fill="none" stroke="#ff0000" points="91.9197,-36 37.9197,-36 37.9197,0 91.9197,0 91.9197,-36"/>
<text text-anchor="middle" x="64.9197" y="-15.5" font-family="Helvetica,sans-Serif" font-size="10.00" fill="#000000">util</text>
</a>
</g>
</g>
<!-- dir_1cc4868d1fa7c84d5e169dbd1ca1796f&#45;&gt;dir_b7878ad5ecbf2506f4125b9d34c97e45 -->
<g id="edge13" class="edge">
<title>dir_1cc4868d1fa7c84d5e169dbd1ca1796f&#45;&gt;dir_b7878ad5ecbf2506f4125b9d34c97e45</title>
<path fill="none" stroke="#000000" d="M99.7091,-301.1019C73.3891,-294.761 34.9206,-280.8897 16.9197,-252 -24.2181,-185.9776 20.6998,-91.0768 47.6495,-45.0637"/>
<polygon fill="#000000" stroke="#000000" points="50.7798,-46.6496 52.9296,-36.2752 44.7794,-43.0446 50.7798,-46.6496"/>
<g id="a_edge13&#45;headlabel"><a xlink:href="dir_000001_000019.html" target="_top" xlink:title="2">
<text text-anchor="middle" x="51.3624" y="-48.6931" font-family="Helvetica,sans-Serif" font-size="10.00" fill="#000000">2</text>
</a>
</g>
</g>
<!-- dir_b39b5091e8d1d2be4b7fc59d57749634 -->
<g id="node4" class="node">
<title>dir_b39b5091e8d1d2be4b7fc59d57749634</title>
<g id="a_node4"><a xlink:href="dir_b39b5091e8d1d2be4b7fc59d57749634.html" target="_top" xlink:title="view">
<polygon fill="none" stroke="#000000" points="189.9197,-180 135.9197,-180 135.9197,-144 189.9197,-144 189.9197,-180"/>
<text text-anchor="middle" x="162.9197" y="-159.5" font-family="Helvetica,sans-Serif" font-size="10.00" fill="#000000">view</text>
</a>
</g>
</g>
<!-- dir_1cc4868d1fa7c84d5e169dbd1ca1796f&#45;&gt;dir_b39b5091e8d1d2be4b7fc59d57749634 -->
<g id="edge14" class="edge">
<title>dir_1cc4868d1fa7c84d5e169dbd1ca1796f&#45;&gt;dir_b39b5091e8d1d2be4b7fc59d57749634</title>
<path fill="none" stroke="#000000" d="M131.4791,-287.7623C137.6465,-263.0928 148.7048,-218.8598 155.9265,-189.9731"/>
<polygon fill="#000000" stroke="#000000" points="159.3674,-190.6399 158.3973,-180.0896 152.5764,-188.9421 159.3674,-190.6399"/>
<g id="a_edge14&#45;headlabel"><a xlink:href="dir_000001_000023.html" target="_top" xlink:title="2">
<text text-anchor="middle" x="161.2501" y="-192.3158" font-family="Helvetica,sans-Serif" font-size="10.00" fill="#000000">2</text>
</a>
</g>
</g>
<!-- dir_5dd65160827af56e6353642206b80129 -->
<g id="node5" class="node">
<title>dir_5dd65160827af56e6353642206b80129</title>
<g id="a_node5"><a xlink:href="dir_5dd65160827af56e6353642206b80129.html" target="_top" xlink:title="model">
<polygon fill="none" stroke="#000000" points="119.9197,-108 65.9197,-108 65.9197,-72 119.9197,-72 119.9197,-108"/>
<text text-anchor="middle" x="92.9197" y="-87.5" font-family="Helvetica,sans-Serif" font-size="10.00" fill="#000000">model</text>
</a>
</g>
</g>
<!-- dir_1cc4868d1fa7c84d5e169dbd1ca1796f&#45;&gt;dir_5dd65160827af56e6353642206b80129 -->
<g id="edge15" class="edge">
<title>dir_1cc4868d1fa7c84d5e169dbd1ca1796f&#45;&gt;dir_5dd65160827af56e6353642206b80129</title>
<path fill="none" stroke="#000000" d="M124.0794,-287.9555C118.1544,-250.3144 104.4399,-163.1867 97.3467,-118.1246"/>
<polygon fill="#000000" stroke="#000000" points="100.7883,-117.4792 95.7759,-108.1451 93.8735,-118.5677 100.7883,-117.4792"/>
<g id="a_edge15&#45;headlabel"><a xlink:href="dir_000001_000015.html" target="_top" xlink:title="1">
<text text-anchor="middle" x="104.1519" y="-118.0886" font-family="Helvetica,sans-Serif" font-size="10.00" fill="#000000">1</text>
</a>
</g>
</g>
<!-- dir_f2b3bec0b800804983017014eef9ca7d -->
<g id="node6" class="node">
<title>dir_f2b3bec0b800804983017014eef9ca7d</title>
<g id="a_node6"><a xlink:href="dir_f2b3bec0b800804983017014eef9ca7d.html" target="_top" xlink:title="layout">
<polygon fill="none" stroke="#000000" points="265.9197,-252 211.9197,-252 211.9197,-216 265.9197,-216 265.9197,-252"/>
<text text-anchor="middle" x="238.9197" y="-231.5" font-family="Helvetica,sans-Serif" font-size="10.00" fill="#000000">layout</text>
</a>
</g>
</g>
<!-- dir_1cc4868d1fa7c84d5e169dbd1ca1796f&#45;&gt;dir_f2b3bec0b800804983017014eef9ca7d -->
<g id="edge16" class="edge">
<title>dir_1cc4868d1fa7c84d5e169dbd1ca1796f&#45;&gt;dir_f2b3bec0b800804983017014eef9ca7d</title>
<path fill="none" stroke="#000000" d="M154.0318,-288.5708C168.7803,-279.0896 187.2101,-267.2419 203.1254,-257.0107"/>
<polygon fill="#000000" stroke="#000000" points="205.15,-259.87 211.6691,-251.5182 201.3647,-253.9817 205.15,-259.87"/>
<g id="a_edge16&#45;headlabel"><a xlink:href="dir_000001_000014.html" target="_top" xlink:title="1">
<text text-anchor="middle" x="203.6616" y="-261.7021" font-family="Helvetica,sans-Serif" font-size="10.00" fill="#000000">1</text>
</a>
</g>
</g>
<!-- dir_2052808828190f934b76e979ee65af8a&#45;&gt;dir_b7878ad5ecbf2506f4125b9d34c97e45 -->
<g id="edge1" class="edge">
<title>dir_2052808828190f934b76e979ee65af8a&#45;&gt;dir_b7878ad5ecbf2506f4125b9d34c97e45</title>
<path fill="none" stroke="#000000" d="M47.0985,-215.9809C43.3535,-186.0303 43.4312,-124.1356 47.9197,-72 48.6399,-63.6346 49.8198,-54.592 51.4279,-46.3427"/>
<polygon fill="#000000" stroke="#000000" points="54.8776,-46.9569 53.6915,-36.4287 48.0533,-45.3987 54.8776,-46.9569"/>
<g id="a_edge1&#45;headlabel"><a xlink:href="dir_000003_000019.html" target="_top" xlink:title="52">
<text text-anchor="middle" x="56.8456" y="-48.5933" font-family="Helvetica,sans-Serif" font-size="10.00" fill="#000000">52</text>
</a>
</g>
</g>
<!-- dir_2052808828190f934b76e979ee65af8a&#45;&gt;dir_b39b5091e8d1d2be4b7fc59d57749634 -->
<g id="edge2" class="edge">
<title>dir_2052808828190f934b76e979ee65af8a&#45;&gt;dir_b39b5091e8d1d2be4b7fc59d57749634</title>
<path fill="none" stroke="#000000" d="M74.725,-215.8314C89.6429,-205.4016 109.6135,-192.3005 126.8355,-181.6343"/>
<polygon fill="#000000" stroke="#000000" points="128.8442,-184.5085 135.5496,-176.3056 125.1924,-178.5366 128.8442,-184.5085"/>
<g id="a_edge2&#45;headlabel"><a xlink:href="dir_000003_000023.html" target="_top" xlink:title="3">
<text text-anchor="middle" x="127.2588" y="-186.3061" font-family="Helvetica,sans-Serif" font-size="10.00" fill="#000000">3</text>
</a>
</g>
</g>
<!-- dir_b7878ad5ecbf2506f4125b9d34c97e45&#45;&gt;dir_2052808828190f934b76e979ee65af8a -->
<g id="edge3" class="edge">
<title>dir_b7878ad5ecbf2506f4125b9d34c97e45&#45;&gt;dir_2052808828190f934b76e979ee65af8a</title>
<path fill="none" stroke="#000000" d="M69.5453,-36.4287C68.898,-46.8353 66.944,-60.1026 65.9197,-72 61.887,-118.8406 61.4147,-173.5586 59.0696,-205.9105"/>
<polygon fill="#000000" stroke="#000000" points="55.5735,-205.7155 58.1947,-215.9809 62.5472,-206.3214 55.5735,-205.7155"/>
<g id="a_edge3&#45;headlabel"><a xlink:href="dir_000019_000003.html" target="_top" xlink:title="3">
<text text-anchor="middle" x="53.0559" y="-199.3886" font-family="Helvetica,sans-Serif" font-size="10.00" fill="#000000">3</text>
</a>
</g>
</g>
<!-- dir_b39b5091e8d1d2be4b7fc59d57749634&#45;&gt;dir_1cc4868d1fa7c84d5e169dbd1ca1796f -->
<g id="edge7" class="edge">
<title>dir_b39b5091e8d1d2be4b7fc59d57749634&#45;&gt;dir_1cc4868d1fa7c84d5e169dbd1ca1796f</title>
<path fill="none" stroke="#000000" d="M164.9698,-180.0216C166.4649,-198.507 167.1398,-227.8875 159.9197,-252 157.0961,-261.43 152.2069,-270.8735 147.0438,-279.1661"/>
<polygon fill="#000000" stroke="#000000" points="144.0235,-277.388 141.4186,-287.6576 149.8592,-281.2539 144.0235,-277.388"/>
<g id="a_edge7&#45;headlabel"><a xlink:href="dir_000023_000001.html" target="_top" xlink:title="1">
<text text-anchor="middle" x="143.6416" y="-270.3232" font-family="Helvetica,sans-Serif" font-size="10.00" fill="#000000">1</text>
</a>
</g>
</g>
<!-- dir_b39b5091e8d1d2be4b7fc59d57749634&#45;&gt;dir_2052808828190f934b76e979ee65af8a -->
<g id="edge4" class="edge">
<title>dir_b39b5091e8d1d2be4b7fc59d57749634&#45;&gt;dir_2052808828190f934b76e979ee65af8a</title>
<path fill="none" stroke="#000000" d="M141.3075,-180.0336C126.3434,-190.5032 106.2311,-203.6988 88.9145,-214.4211"/>
<polygon fill="#000000" stroke="#000000" points="86.8626,-211.5732 80.1559,-219.7751 90.5136,-217.5457 86.8626,-211.5732"/>
<g id="a_edge4&#45;headlabel"><a xlink:href="dir_000023_000003.html" target="_top" xlink:title="1">
<text text-anchor="middle" x="88.4487" y="-204.7759" font-family="Helvetica,sans-Serif" font-size="10.00" fill="#000000">1</text>
</a>
</g>
</g>
<!-- dir_b39b5091e8d1d2be4b7fc59d57749634&#45;&gt;dir_b7878ad5ecbf2506f4125b9d34c97e45 -->
<g id="edge5" class="edge">
<title>dir_b39b5091e8d1d2be4b7fc59d57749634&#45;&gt;dir_b7878ad5ecbf2506f4125b9d34c97e45</title>
<path fill="none" stroke="#000000" d="M158.9428,-143.7976C154.1258,-124.6371 144.6405,-94.2281 128.9197,-72 121.1037,-60.9486 110.507,-50.7928 100.1863,-42.3431"/>
<polygon fill="#000000" stroke="#000000" points="102.0565,-39.3621 92.0268,-35.9479 97.7383,-44.8715 102.0565,-39.3621"/>
<g id="a_edge5&#45;headlabel"><a xlink:href="dir_000023_000019.html" target="_top" xlink:title="12">
<text text-anchor="middle" x="106.6371" y="-36.8448" font-family="Helvetica,sans-Serif" font-size="10.00" fill="#000000">12</text>
</a>
</g>
</g>
<!-- dir_b39b5091e8d1d2be4b7fc59d57749634&#45;&gt;dir_5dd65160827af56e6353642206b80129 -->
<g id="edge6" class="edge">
<title>dir_b39b5091e8d1d2be4b7fc59d57749634&#45;&gt;dir_5dd65160827af56e6353642206b80129</title>
<path fill="none" stroke="#000000" d="M145.2558,-143.8314C136.9466,-135.2848 126.8934,-124.9443 117.8279,-115.6198"/>
<polygon fill="#000000" stroke="#000000" points="120.3018,-113.1435 110.8215,-108.4133 115.2828,-118.023 120.3018,-113.1435"/>
<g id="a_edge6&#45;headlabel"><a xlink:href="dir_000023_000015.html" target="_top" xlink:title="2">
<text text-anchor="middle" x="124.8433" y="-111.2416" font-family="Helvetica,sans-Serif" font-size="10.00" fill="#000000">2</text>
</a>
</g>
</g>
<!-- dir_5dd65160827af56e6353642206b80129&#45;&gt;dir_2052808828190f934b76e979ee65af8a -->
<g id="edge8" class="edge">
<title>dir_5dd65160827af56e6353642206b80129&#45;&gt;dir_2052808828190f934b76e979ee65af8a</title>
<path fill="none" stroke="#000000" d="M87.8948,-108.0896C81.064,-132.6805 68.7794,-176.905 60.7383,-205.8531"/>
<polygon fill="#000000" stroke="#000000" points="57.2899,-205.1903 57.9858,-215.7623 64.0346,-207.0639 57.2899,-205.1903"/>
<g id="a_edge8&#45;headlabel"><a xlink:href="dir_000015_000003.html" target="_top" xlink:title="2">
<text text-anchor="middle" x="55.5163" y="-198.467" font-family="Helvetica,sans-Serif" font-size="10.00" fill="#000000">2</text>
</a>
</g>
</g>
<!-- dir_5dd65160827af56e6353642206b80129&#45;&gt;dir_b7878ad5ecbf2506f4125b9d34c97e45 -->
<g id="edge9" class="edge">
<title>dir_5dd65160827af56e6353642206b80129&#45;&gt;dir_b7878ad5ecbf2506f4125b9d34c97e45</title>
<path fill="none" stroke="#000000" d="M85.8541,-71.8314C82.7937,-63.9617 79.1418,-54.5712 75.7516,-45.8533"/>
<polygon fill="#000000" stroke="#000000" points="78.967,-44.4647 72.0804,-36.4133 72.4429,-47.0019 78.967,-44.4647"/>
<g id="a_edge9&#45;headlabel"><a xlink:href="dir_000015_000019.html" target="_top" xlink:title="4">
<text text-anchor="middle" x="82.916" y="-44.2859" font-family="Helvetica,sans-Serif" font-size="10.00" fill="#000000">4</text>
</a>
</g>
</g>
<!-- dir_f2b3bec0b800804983017014eef9ca7d&#45;&gt;dir_b7878ad5ecbf2506f4125b9d34c97e45 -->
<g id="edge10" class="edge">
<title>dir_f2b3bec0b800804983017014eef9ca7d&#45;&gt;dir_b7878ad5ecbf2506f4125b9d34c97e45</title>
<path fill="none" stroke="#000000" d="M233.2894,-215.9599C222.3508,-183.4596 195.4109,-114.5094 151.9197,-72 137.117,-57.5315 117.7818,-45.0533 101.0995,-35.7481"/>
<polygon fill="#000000" stroke="#000000" points="102.6118,-32.587 92.1501,-30.9125 99.2841,-38.7455 102.6118,-32.587"/>
<g id="a_edge10&#45;headlabel"><a xlink:href="dir_000014_000019.html" target="_top" xlink:title="4">
<text text-anchor="middle" x="107.1239" y="-29.2978" font-family="Helvetica,sans-Serif" font-size="10.00" fill="#000000">4</text>
</a>
</g>
</g>
<!-- dir_f2b3bec0b800804983017014eef9ca7d&#45;&gt;dir_b39b5091e8d1d2be4b7fc59d57749634 -->
<g id="edge11" class="edge">
<title>dir_f2b3bec0b800804983017014eef9ca7d&#45;&gt;dir_b39b5091e8d1d2be4b7fc59d57749634</title>
<path fill="none" stroke="#000000" d="M219.7417,-215.8314C210.5609,-207.1337 199.4191,-196.5783 189.4422,-187.1265"/>
<polygon fill="#000000" stroke="#000000" points="191.7583,-184.4995 182.0916,-180.1628 186.944,-189.5811 191.7583,-184.4995"/>
<g id="a_edge11&#45;headlabel"><a xlink:href="dir_000014_000023.html" target="_top" xlink:title="2">
<text text-anchor="middle" x="196.3204" y="-182.4104" font-family="Helvetica,sans-Serif" font-size="10.00" fill="#000000">2</text>
</a>
</g>
</g>
</g>
</svg>
