<?xml version="1.0" encoding="UTF-8" standalone="no"?>
<!DOCTYPE svg PUBLIC "-//W3C//DTD SVG 1.1//EN"
 "http://www.w3.org/Graphics/SVG/1.1/DTD/svg11.dtd">
<!-- Generated by graphviz version 2.40.1 (20161225.0304)
 -->
<!-- Title: src/engine/GameObjects Pages: 1 -->
<svg width="235pt" height="260pt"
 viewBox="0.00 0.00 235.19 260.00" xmlns="http://www.w3.org/2000/svg" xmlns:xlink="http://www.w3.org/1999/xlink">
<g id="graph0" class="graph" transform="scale(1 1) rotate(0) translate(4 256)">
<title>src/engine/GameObjects</title>
<g id="clust1" class="cluster">
<title>clusterdir_2052808828190f934b76e979ee65af8a</title>
<g id="a_clust1"><a xlink:href="dir_2052808828190f934b76e979ee65af8a.html" target="_top" xlink:title="engine">
<polygon fill="#ddddee" stroke="#000000" points="8,-136 8,-207 108,-207 108,-136 8,-136"/>
<text text-anchor="middle" x="58" y="-195" font-family="Helvetica,sans-Serif" font-size="10.00" fill="#000000">engine</text>
</a>
</g>
</g>
<!-- dir_e1c1a612157aa4e0d7fb3dd5a06054d7 -->
<g id="node1" class="node">
<title>dir_e1c1a612157aa4e0d7fb3dd5a06054d7</title>
<g id="a_node1"><a xlink:href="dir_e1c1a612157aa4e0d7fb3dd5a06054d7.html" target="_top" xlink:title="GameObjects">
<polygon fill="#eeeeff" stroke="#000000" points="99.5,-180 16.5,-180 16.5,-144 99.5,-144 99.5,-180"/>
<text text-anchor="middle" x="58" y="-159.5" font-family="Helvetica,sans-Serif" font-size="10.00" fill="#000000">GameObjects</text>
</a>
</g>
</g>
<!-- dir_b7878ad5ecbf2506f4125b9d34c97e45 -->
<g id="node2" class="node">
<title>dir_b7878ad5ecbf2506f4125b9d34c97e45</title>
<g id="a_node2"><a xlink:href="dir_b7878ad5ecbf2506f4125b9d34c97e45.html" target="_top" xlink:title="util">
<polygon fill="none" stroke="#ff0000" points="210,-252 156,-252 156,-216 210,-216 210,-252"/>
<text text-anchor="middle" x="183" y="-231.5" font-family="Helvetica,sans-Serif" font-size="10.00" fill="#000000">util</text>
</a>
</g>
</g>
<!-- dir_e1c1a612157aa4e0d7fb3dd5a06054d7&#45;&gt;dir_b7878ad5ecbf2506f4125b9d34c97e45 -->
<g id="edge10" class="edge">
<title>dir_e1c1a612157aa4e0d7fb3dd5a06054d7&#45;&gt;dir_b7878ad5ecbf2506f4125b9d34c97e45</title>
<path fill="none" stroke="#000000" d="M77.3995,-180.0339C87.7159,-188.9698 100.9407,-199.4366 114,-207 124.0566,-212.8244 135.6086,-217.9005 146.348,-222.031"/>
<polygon fill="#000000" stroke="#000000" points="145.3226,-225.3831 155.9161,-225.553 147.7407,-218.814 145.3226,-225.3831"/>
<g id="a_edge10&#45;headlabel"><a xlink:href="dir_000007_000019.html" target="_top" xlink:title="1">
<text text-anchor="middle" x="140.9685" y="-224.306" font-family="Helvetica,sans-Serif" font-size="10.00" fill="#000000">1</text>
</a>
</g>
</g>
<!-- dir_3e7675e027e995ce76f0b1e50f5f7211 -->
<g id="node3" class="node">
<title>dir_3e7675e027e995ce76f0b1e50f5f7211</title>
<g id="a_node3"><a xlink:href="dir_3e7675e027e995ce76f0b1e50f5f7211.html" target="_top" xlink:title="map">
<polygon fill="none" stroke="#000000" points="162,-36 108,-36 108,0 162,0 162,-36"/>
<text text-anchor="middle" x="135" y="-15.5" font-family="Helvetica,sans-Serif" font-size="10.00" fill="#000000">map</text>
</a>
</g>
</g>
<!-- dir_e1c1a612157aa4e0d7fb3dd5a06054d7&#45;&gt;dir_3e7675e027e995ce76f0b1e50f5f7211 -->
<g id="edge11" class="edge">
<title>dir_e1c1a612157aa4e0d7fb3dd5a06054d7&#45;&gt;dir_3e7675e027e995ce76f0b1e50f5f7211</title>
<path fill="none" stroke="#000000" d="M58.3491,-143.954C59.4325,-124.9242 63.2411,-94.6233 76,-72 82.1816,-61.0391 91.3804,-51.0714 100.6855,-42.7673"/>
<polygon fill="#000000" stroke="#000000" points="103.082,-45.3246 108.4629,-36.1979 98.565,-39.977 103.082,-45.3246"/>
<g id="a_edge11&#45;headlabel"><a xlink:href="dir_000007_000008.html" target="_top" xlink:title="1">
<text text-anchor="middle" x="102.1681" y="-47.3131" font-family="Helvetica,sans-Serif" font-size="10.00" fill="#000000">1</text>
</a>
</g>
</g>
<!-- dir_3ccf6d3192f3ffcbe7eee38747026054 -->
<g id="node4" class="node">
<title>dir_3ccf6d3192f3ffcbe7eee38747026054</title>
<g id="a_node4"><a xlink:href="dir_3ccf6d3192f3ffcbe7eee38747026054.html" target="_top" xlink:title="common">
<polygon fill="none" stroke="#000000" points="164.5,-108 105.5,-108 105.5,-72 164.5,-72 164.5,-108"/>
<text text-anchor="middle" x="135" y="-87.5" font-family="Helvetica,sans-Serif" font-size="10.00" fill="#000000">common</text>
</a>
</g>
</g>
<!-- dir_e1c1a612157aa4e0d7fb3dd5a06054d7&#45;&gt;dir_3ccf6d3192f3ffcbe7eee38747026054 -->
<g id="edge12" class="edge">
<title>dir_e1c1a612157aa4e0d7fb3dd5a06054d7&#45;&gt;dir_3ccf6d3192f3ffcbe7eee38747026054</title>
<path fill="none" stroke="#000000" d="M71.478,-143.8314C80.0149,-135.0485 91.2666,-124.3712 101.972,-114.8489"/>
<polygon fill="#000000" stroke="#000000" points="104.3965,-117.3783 109.624,-108.1628 99.7907,-112.107 104.3965,-117.3783"/>
<g id="a_edge12&#45;headlabel"><a xlink:href="dir_000007_000006.html" target="_top" xlink:title="1">
<text text-anchor="middle" x="103.5578" y="-119.3815" font-family="Helvetica,sans-Serif" font-size="10.00" fill="#000000">1</text>
</a>
</g>
</g>
<!-- dir_8c0f887d135e3a09c81f308091ce630b -->
<g id="node5" class="node">
<title>dir_8c0f887d135e3a09c81f308091ce630b</title>
<g id="a_node5"><a xlink:href="dir_8c0f887d135e3a09c81f308091ce630b.html" target="_top" xlink:title="basics">
<polygon fill="none" stroke="#000000" points="210,-180 156,-180 156,-144 210,-144 210,-180"/>
<text text-anchor="middle" x="183" y="-159.5" font-family="Helvetica,sans-Serif" font-size="10.00" fill="#000000">basics</text>
</a>
</g>
</g>
<!-- dir_e1c1a612157aa4e0d7fb3dd5a06054d7&#45;&gt;dir_8c0f887d135e3a09c81f308091ce630b -->
<g id="edge13" class="edge">
<title>dir_e1c1a612157aa4e0d7fb3dd5a06054d7&#45;&gt;dir_8c0f887d135e3a09c81f308091ce630b</title>
<path fill="none" stroke="#000000" d="M99.5039,-162C114.9326,-162 130.3614,-162 145.7901,-162"/>
<polygon fill="#000000" stroke="#000000" points="145.929,-165.5001 155.929,-162 145.929,-158.5001 145.929,-165.5001"/>
<g id="a_edge13&#45;headlabel"><a xlink:href="dir_000007_000005.html" target="_top" xlink:title="3">
<text text-anchor="middle" x="142.3344" y="-165.8393" font-family="Helvetica,sans-Serif" font-size="10.00" fill="#000000">3</text>
</a>
</g>
</g>
<!-- dir_b7878ad5ecbf2506f4125b9d34c97e45&#45;&gt;dir_8c0f887d135e3a09c81f308091ce630b -->
<g id="edge1" class="edge">
<title>dir_b7878ad5ecbf2506f4125b9d34c97e45&#45;&gt;dir_8c0f887d135e3a09c81f308091ce630b</title>
<path fill="none" stroke="#000000" d="M177.0476,-215.8314C176.2972,-208.131 176.0763,-198.9743 176.3849,-190.4166"/>
<polygon fill="#000000" stroke="#000000" points="179.8792,-190.6161 177.024,-180.4133 172.8935,-190.1697 179.8792,-190.6161"/>
<g id="a_edge1&#45;headlabel"><a xlink:href="dir_000019_000005.html" target="_top" xlink:title="3">
<text text-anchor="middle" x="182.4836" y="-191.8844" font-family="Helvetica,sans-Serif" font-size="10.00" fill="#000000">3</text>
</a>
</g>
</g>
<!-- dir_3e7675e027e995ce76f0b1e50f5f7211&#45;&gt;dir_e1c1a612157aa4e0d7fb3dd5a06054d7 -->
<g id="edge4" class="edge">
<title>dir_3e7675e027e995ce76f0b1e50f5f7211&#45;&gt;dir_e1c1a612157aa4e0d7fb3dd5a06054d7</title>
<path fill="none" stroke="#000000" d="M120.1947,-36.2971C112.4015,-46.4426 103.0316,-59.5025 96,-72 84.7022,-92.0798 74.6945,-116.1914 67.789,-134.4019"/>
<polygon fill="#000000" stroke="#000000" points="64.4812,-133.2556 64.2833,-143.8486 71.0439,-135.6911 64.4812,-133.2556"/>
<g id="a_edge4&#45;headlabel"><a xlink:href="dir_000008_000007.html" target="_top" xlink:title="1">
<text text-anchor="middle" x="63.0699" y="-126.3978" font-family="Helvetica,sans-Serif" font-size="10.00" fill="#000000">1</text>
</a>
</g>
</g>
<!-- dir_3e7675e027e995ce76f0b1e50f5f7211&#45;&gt;dir_b7878ad5ecbf2506f4125b9d34c97e45 -->
<g id="edge2" class="edge">
<title>dir_3e7675e027e995ce76f0b1e50f5f7211&#45;&gt;dir_b7878ad5ecbf2506f4125b9d34c97e45</title>
<path fill="none" stroke="#000000" d="M157.5066,-36.022C168.6438,-45.789 181.6649,-58.5863 191,-72 208.7351,-97.4837 212.6431,-105.6102 219,-136 225.4609,-166.887 233.1121,-178.7759 219,-207 218.4104,-208.1792 217.7421,-209.3202 217.0081,-210.423"/>
<polygon fill="#000000" stroke="#000000" points="214.2293,-208.2847 210.3079,-218.1272 219.5112,-212.8784 214.2293,-208.2847"/>
<g id="a_edge2&#45;headlabel"><a xlink:href="dir_000008_000019.html" target="_top" xlink:title="3">
<text text-anchor="middle" x="214.4457" y="-201.2092" font-family="Helvetica,sans-Serif" font-size="10.00" fill="#000000">3</text>
</a>
</g>
</g>
<!-- dir_3e7675e027e995ce76f0b1e50f5f7211&#45;&gt;dir_3ccf6d3192f3ffcbe7eee38747026054 -->
<g id="edge3" class="edge">
<title>dir_3e7675e027e995ce76f0b1e50f5f7211&#45;&gt;dir_3ccf6d3192f3ffcbe7eee38747026054</title>
<path fill="none" stroke="#000000" d="M140.976,-36.4133C141.7071,-44.0593 141.9203,-53.1084 141.6155,-61.5726"/>
<polygon fill="#000000" stroke="#000000" points="138.1048,-61.6264 140.9524,-71.8314 145.0902,-62.078 138.1048,-61.6264"/>
<g id="a_edge3&#45;headlabel"><a xlink:href="dir_000008_000006.html" target="_top" xlink:title="3">
<text text-anchor="middle" x="135.5032" y="-55.3562" font-family="Helvetica,sans-Serif" font-size="10.00" fill="#000000">3</text>
</a>
</g>
</g>
<!-- dir_3e7675e027e995ce76f0b1e50f5f7211&#45;&gt;dir_8c0f887d135e3a09c81f308091ce630b -->
<g id="edge5" class="edge">
<title>dir_3e7675e027e995ce76f0b1e50f5f7211&#45;&gt;dir_8c0f887d135e3a09c81f308091ce630b</title>
<path fill="none" stroke="#000000" d="M151.7569,-36.0543C159.904,-45.9263 168.9959,-58.8087 174,-72 181.4609,-91.6676 183.5779,-115.3953 183.9008,-133.5488"/>
<polygon fill="#000000" stroke="#000000" points="180.4009,-133.7843 183.9062,-143.7824 187.4009,-133.7805 180.4009,-133.7843"/>
<g id="a_edge5&#45;headlabel"><a xlink:href="dir_000008_000005.html" target="_top" xlink:title="1">
<text text-anchor="middle" x="177.5598" y="-127.6911" font-family="Helvetica,sans-Serif" font-size="10.00" fill="#000000">1</text>
</a>
</g>
</g>
<!-- dir_3ccf6d3192f3ffcbe7eee38747026054&#45;&gt;dir_e1c1a612157aa4e0d7fb3dd5a06054d7 -->
<g id="edge8" class="edge">
<title>dir_3ccf6d3192f3ffcbe7eee38747026054&#45;&gt;dir_e1c1a612157aa4e0d7fb3dd5a06054d7</title>
<path fill="none" stroke="#000000" d="M121.284,-108.4133C112.7627,-117.1637 101.5975,-127.7519 90.9756,-137.1978"/>
<polygon fill="#000000" stroke="#000000" points="88.6107,-134.6162 83.3827,-143.8314 93.2163,-139.8878 88.6107,-134.6162"/>
<g id="a_edge8&#45;headlabel"><a xlink:href="dir_000006_000007.html" target="_top" xlink:title="1">
<text text-anchor="middle" x="89.4497" y="-127.613" font-family="Helvetica,sans-Serif" font-size="10.00" fill="#000000">1</text>
</a>
</g>
</g>
<!-- dir_3ccf6d3192f3ffcbe7eee38747026054&#45;&gt;dir_b7878ad5ecbf2506f4125b9d34c97e45 -->
<g id="edge6" class="edge">
<title>dir_3ccf6d3192f3ffcbe7eee38747026054&#45;&gt;dir_b7878ad5ecbf2506f4125b9d34c97e45</title>
<path fill="none" stroke="#000000" d="M132.5602,-108.386C130.2598,-132.6436 129.4078,-175.8971 147,-207 147.5577,-207.986 148.1677,-208.947 148.8223,-209.8825"/>
<polygon fill="#000000" stroke="#000000" points="146.4426,-212.4727 155.7098,-217.6079 151.6676,-207.8144 146.4426,-212.4727"/>
<g id="a_edge6&#45;headlabel"><a xlink:href="dir_000006_000019.html" target="_top" xlink:title="1">
<text text-anchor="middle" x="141.9312" y="-209.1791" font-family="Helvetica,sans-Serif" font-size="10.00" fill="#000000">1</text>
</a>
</g>
</g>
<!-- dir_3ccf6d3192f3ffcbe7eee38747026054&#45;&gt;dir_3e7675e027e995ce76f0b1e50f5f7211 -->
<g id="edge7" class="edge">
<title>dir_3ccf6d3192f3ffcbe7eee38747026054&#45;&gt;dir_3e7675e027e995ce76f0b1e50f5f7211</title>
<path fill="none" stroke="#000000" d="M129.0476,-71.8314C128.2972,-64.131 128.0763,-54.9743 128.3849,-46.4166"/>
<polygon fill="#000000" stroke="#000000" points="131.8792,-46.6161 129.024,-36.4133 124.8935,-46.1697 131.8792,-46.6161"/>
<g id="a_edge7&#45;headlabel"><a xlink:href="dir_000006_000008.html" target="_top" xlink:title="1">
<text text-anchor="middle" x="134.4836" y="-47.8844" font-family="Helvetica,sans-Serif" font-size="10.00" fill="#000000">1</text>
</a>
</g>
</g>
<!-- dir_3ccf6d3192f3ffcbe7eee38747026054&#45;&gt;dir_8c0f887d135e3a09c81f308091ce630b -->
<g id="edge9" class="edge">
<title>dir_3ccf6d3192f3ffcbe7eee38747026054&#45;&gt;dir_8c0f887d135e3a09c81f308091ce630b</title>
<path fill="none" stroke="#000000" d="M153.2515,-108.4133C159.4038,-116.484 166.0212,-126.1182 171.5449,-134.9775"/>
<polygon fill="#000000" stroke="#000000" points="168.7034,-137.0455 176.84,-143.8314 174.7111,-133.4526 168.7034,-137.0455"/>
<g id="a_edge9&#45;headlabel"><a xlink:href="dir_000006_000005.html" target="_top" xlink:title="2">
<text text-anchor="middle" x="164.4217" y="-132.9178" font-family="Helvetica,sans-Serif" font-size="10.00" fill="#000000">2</text>
</a>
</g>
</g>
<!-- dir_8c0f887d135e3a09c81f308091ce630b&#45;&gt;dir_b7878ad5ecbf2506f4125b9d34c97e45 -->
<g id="edge14" class="edge">
<title>dir_8c0f887d135e3a09c81f308091ce630b&#45;&gt;dir_b7878ad5ecbf2506f4125b9d34c97e45</title>
<path fill="none" stroke="#000000" d="M188.976,-180.4133C189.7071,-188.0593 189.9203,-197.1084 189.6155,-205.5726"/>
<polygon fill="#000000" stroke="#000000" points="186.1048,-205.6264 188.9524,-215.8314 193.0902,-206.078 186.1048,-205.6264"/>
<g id="a_edge14&#45;headlabel"><a xlink:href="dir_000005_000019.html" target="_top" xlink:title="13">
<text text-anchor="middle" x="183.5032" y="-199.3562" font-family="Helvetica,sans-Serif" font-size="10.00" fill="#000000">13</text>
</a>
</g>
</g>
<!-- dir_8c0f887d135e3a09c81f308091ce630b&#45;&gt;dir_3ccf6d3192f3ffcbe7eee38747026054 -->
<g id="edge15" class="edge">
<title>dir_8c0f887d135e3a09c81f308091ce630b&#45;&gt;dir_3ccf6d3192f3ffcbe7eee38747026054</title>
<path fill="none" stroke="#000000" d="M164.9352,-143.8314C158.7279,-135.7079 152.0294,-125.9637 146.4484,-117.0118"/>
<polygon fill="#000000" stroke="#000000" points="149.4398,-115.1945 141.2995,-108.4133 143.4342,-118.7908 149.4398,-115.1945"/>
<g id="a_edge15&#45;headlabel"><a xlink:href="dir_000005_000006.html" target="_top" xlink:title="4">
<text text-anchor="middle" x="153.7224" y="-114.3198" font-family="Helvetica,sans-Serif" font-size="10.00" fill="#000000">4</text>
</a>
</g>
</g>
</g>
</svg>
