<?xml version="1.0" encoding="UTF-8" standalone="no"?>
<!DOCTYPE svg PUBLIC "-//W3C//DTD SVG 1.1//EN"
 "http://www.w3.org/Graphics/SVG/1.1/DTD/svg11.dtd">
<!-- Generated by graphviz version 2.40.1 (20161225.0304)
 -->
<!-- Title: src Pages: 1 -->
<svg width="330pt" height="580pt"
 viewBox="0.00 0.00 330.00 580.00" xmlns="http://www.w3.org/2000/svg" xmlns:xlink="http://www.w3.org/1999/xlink">
<g id="graph0" class="graph" transform="scale(1 1) rotate(0) translate(4 576)">
<title>src</title>
<g id="clust1" class="cluster">
<title>clusterdir_68267d1309a1af8e8297ef4c3efbcdba</title>
<g id="a_clust1"><a xlink:href="dir_68267d1309a1af8e8297ef4c3efbcdba.html" target="_top">
<polygon fill="#eeeeff" stroke="#000000" points="8,-8 8,-564 314,-564 314,-8 8,-8"/>
</a>
</g>
</g>
<!-- dir_68267d1309a1af8e8297ef4c3efbcdba -->
<g id="node1" class="node">
<title>dir_68267d1309a1af8e8297ef4c3efbcdba</title>
<text text-anchor="middle" x="219" y="-535.5" font-family="Helvetica,sans-Serif" font-size="10.00" fill="#000000">src</text>
</g>
<!-- dir_6e232b759d489f630412e22c99aac6d0 -->
<g id="node9" class="node">
<title>dir_6e232b759d489f630412e22c99aac6d0</title>
<g id="a_node9"><a xlink:href="dir_6e232b759d489f630412e22c99aac6d0.html" target="_top" xlink:title="Scripting">
<polygon fill="#ffffff" stroke="#000000" points="250.5,-484 191.5,-484 191.5,-448 250.5,-448 250.5,-484"/>
<text text-anchor="middle" x="221" y="-463.5" font-family="Helvetica,sans-Serif" font-size="10.00" fill="#000000">Scripting</text>
</a>
</g>
</g>
<!-- dir_68267d1309a1af8e8297ef4c3efbcdba&#45;&gt;dir_6e232b759d489f630412e22c99aac6d0 -->
<g id="edge4" class="edge">
<title>dir_68267d1309a1af8e8297ef4c3efbcdba&#45;&gt;dir_6e232b759d489f630412e22c99aac6d0</title>
<path fill="none" stroke="#000000" d="M219.5047,-519.8314C219.7186,-512.131 219.9729,-502.9743 220.2106,-494.4166"/>
<polygon fill="#000000" stroke="#000000" points="223.7094,-494.5066 220.4885,-484.4133 216.7121,-494.3122 223.7094,-494.5066"/>
<g id="a_edge4&#45;headlabel"><a xlink:href="dir_000000_000017.html" target="_top" xlink:title="1">
<text text-anchor="middle" x="226.4479" y="-495.6787" font-family="Helvetica,sans-Serif" font-size="10.00" fill="#000000">1</text>
</a>
</g>
</g>
<!-- dir_1826a32a9d780ddbaf96ec88be56c4cd -->
<g id="node10" class="node">
<title>dir_1826a32a9d780ddbaf96ec88be56c4cd</title>
<g id="a_node10"><a xlink:href="dir_1826a32a9d780ddbaf96ec88be56c4cd.html" target="_top" xlink:title="services">
<polygon fill="#ffffff" stroke="#000000" points="173.5,-484 116.5,-484 116.5,-448 173.5,-448 173.5,-484"/>
<text text-anchor="middle" x="145" y="-463.5" font-family="Helvetica,sans-Serif" font-size="10.00" fill="#000000">services</text>
</a>
</g>
</g>
<!-- dir_68267d1309a1af8e8297ef4c3efbcdba&#45;&gt;dir_1826a32a9d780ddbaf96ec88be56c4cd -->
<g id="edge5" class="edge">
<title>dir_68267d1309a1af8e8297ef4c3efbcdba&#45;&gt;dir_1826a32a9d780ddbaf96ec88be56c4cd</title>
<path fill="none" stroke="#000000" d="M200.3267,-519.8314C191.4751,-511.219 180.7514,-500.7851 171.1105,-491.4048"/>
<polygon fill="#000000" stroke="#000000" points="173.2754,-488.6279 163.6674,-484.1628 168.3939,-493.645 173.2754,-488.6279"/>
<g id="a_edge5&#45;headlabel"><a xlink:href="dir_000000_000018.html" target="_top" xlink:title="3">
<text text-anchor="middle" x="177.8317" y="-486.5996" font-family="Helvetica,sans-Serif" font-size="10.00" fill="#000000">3</text>
</a>
</g>
</g>
<!-- dir_1cc4868d1fa7c84d5e169dbd1ca1796f -->
<g id="node2" class="node">
<title>dir_1cc4868d1fa7c84d5e169dbd1ca1796f</title>
<g id="a_node2"><a xlink:href="dir_1cc4868d1fa7c84d5e169dbd1ca1796f.html" target="_top" xlink:title="activity">
<polygon fill="#ffffff" stroke="#000000" points="176,-124 122,-124 122,-88 176,-88 176,-124"/>
<text text-anchor="middle" x="149" y="-103.5" font-family="Helvetica,sans-Serif" font-size="10.00" fill="#000000">activity</text>
</a>
</g>
</g>
<!-- dir_2052808828190f934b76e979ee65af8a -->
<g id="node4" class="node">
<title>dir_2052808828190f934b76e979ee65af8a</title>
<g id="a_node4"><a xlink:href="dir_2052808828190f934b76e979ee65af8a.html" target="_top" xlink:title="engine">
<polygon fill="#ffffff" stroke="#ff0000" points="244,-340 190,-340 190,-304 244,-304 244,-340"/>
<text text-anchor="middle" x="217" y="-319.5" font-family="Helvetica,sans-Serif" font-size="10.00" fill="#000000">engine</text>
</a>
</g>
</g>
<!-- dir_1cc4868d1fa7c84d5e169dbd1ca1796f&#45;&gt;dir_2052808828190f934b76e979ee65af8a -->
<g id="edge25" class="edge">
<title>dir_1cc4868d1fa7c84d5e169dbd1ca1796f&#45;&gt;dir_2052808828190f934b76e979ee65af8a</title>
<path fill="none" stroke="#000000" d="M176.212,-111.4497C201.5676,-118.1285 237.9488,-132.1773 255,-160 280.9399,-202.3266 254.9321,-260.8251 235.0294,-294.712"/>
<polygon fill="#000000" stroke="#000000" points="231.8388,-293.2221 229.626,-303.5833 237.8171,-296.8635 231.8388,-293.2221"/>
<g id="a_edge25&#45;headlabel"><a xlink:href="dir_000001_000003.html" target="_top" xlink:title="1">
<text text-anchor="middle" x="231.2838" y="-286.1752" font-family="Helvetica,sans-Serif" font-size="10.00" fill="#000000">1</text>
</a>
</g>
</g>
<!-- dir_f2b3bec0b800804983017014eef9ca7d -->
<g id="node6" class="node">
<title>dir_f2b3bec0b800804983017014eef9ca7d</title>
<g id="a_node6"><a xlink:href="dir_f2b3bec0b800804983017014eef9ca7d.html" target="_top" xlink:title="layout">
<polygon fill="#ffffff" stroke="#000000" points="130,-52 76,-52 76,-16 130,-16 130,-52"/>
<text text-anchor="middle" x="103" y="-31.5" font-family="Helvetica,sans-Serif" font-size="10.00" fill="#000000">layout</text>
</a>
</g>
</g>
<!-- dir_1cc4868d1fa7c84d5e169dbd1ca1796f&#45;&gt;dir_f2b3bec0b800804983017014eef9ca7d -->
<g id="edge29" class="edge">
<title>dir_1cc4868d1fa7c84d5e169dbd1ca1796f&#45;&gt;dir_f2b3bec0b800804983017014eef9ca7d</title>
<path fill="none" stroke="#000000" d="M137.3923,-87.8314C132.2022,-79.7079 125.9768,-69.9637 120.2575,-61.0118"/>
<polygon fill="#000000" stroke="#000000" points="123.0974,-58.9559 114.764,-52.4133 117.1985,-62.7246 123.0974,-58.9559"/>
<g id="a_edge29&#45;headlabel"><a xlink:href="dir_000001_000014.html" target="_top" xlink:title="1">
<text text-anchor="middle" x="127.4253" y="-57.9564" font-family="Helvetica,sans-Serif" font-size="10.00" fill="#000000">1</text>
</a>
</g>
</g>
<!-- dir_5dd65160827af56e6353642206b80129 -->
<g id="node7" class="node">
<title>dir_5dd65160827af56e6353642206b80129</title>
<g id="a_node7"><a xlink:href="dir_5dd65160827af56e6353642206b80129.html" target="_top" xlink:title="model">
<polygon fill="#ffffff" stroke="#000000" points="264,-52 210,-52 210,-16 264,-16 264,-52"/>
<text text-anchor="middle" x="237" y="-31.5" font-family="Helvetica,sans-Serif" font-size="10.00" fill="#000000">model</text>
</a>
</g>
</g>
<!-- dir_1cc4868d1fa7c84d5e169dbd1ca1796f&#45;&gt;dir_5dd65160827af56e6353642206b80129 -->
<g id="edge28" class="edge">
<title>dir_1cc4868d1fa7c84d5e169dbd1ca1796f&#45;&gt;dir_5dd65160827af56e6353642206b80129</title>
<path fill="none" stroke="#000000" d="M171.2061,-87.8314C182.045,-78.9632 195.2444,-68.1637 206.9678,-58.5718"/>
<polygon fill="#000000" stroke="#000000" points="209.2777,-61.2041 214.801,-52.1628 204.845,-55.7864 209.2777,-61.2041"/>
<g id="a_edge28&#45;headlabel"><a xlink:href="dir_000001_000015.html" target="_top" xlink:title="1">
<text text-anchor="middle" x="208.2936" y="-63.1778" font-family="Helvetica,sans-Serif" font-size="10.00" fill="#000000">1</text>
</a>
</g>
</g>
<!-- dir_b7878ad5ecbf2506f4125b9d34c97e45 -->
<g id="node11" class="node">
<title>dir_b7878ad5ecbf2506f4125b9d34c97e45</title>
<g id="a_node11"><a xlink:href="dir_b7878ad5ecbf2506f4125b9d34c97e45.html" target="_top" xlink:title="util">
<polygon fill="#ffffff" stroke="#ff0000" points="176,-412 122,-412 122,-376 176,-376 176,-412"/>
<text text-anchor="middle" x="149" y="-391.5" font-family="Helvetica,sans-Serif" font-size="10.00" fill="#000000">util</text>
</a>
</g>
</g>
<!-- dir_1cc4868d1fa7c84d5e169dbd1ca1796f&#45;&gt;dir_b7878ad5ecbf2506f4125b9d34c97e45 -->
<g id="edge26" class="edge">
<title>dir_1cc4868d1fa7c84d5e169dbd1ca1796f&#45;&gt;dir_b7878ad5ecbf2506f4125b9d34c97e45</title>
<path fill="none" stroke="#000000" d="M121.8479,-112.0237C97.4724,-119.0271 63.1228,-133.2215 47,-160 38.7471,-173.7073 44.3388,-180.2229 47,-196 58.2681,-262.8046 61.5678,-282.2559 97,-340 103.3703,-350.3816 112.0323,-360.3895 120.4592,-368.9094"/>
<polygon fill="#000000" stroke="#000000" points="118.1299,-371.5263 127.7406,-375.9856 123.0085,-366.5063 118.1299,-371.5263"/>
<g id="a_edge26&#45;headlabel"><a xlink:href="dir_000001_000019.html" target="_top" xlink:title="2">
<text text-anchor="middle" x="113.5734" y="-368.5573" font-family="Helvetica,sans-Serif" font-size="10.00" fill="#000000">2</text>
</a>
</g>
</g>
<!-- dir_b39b5091e8d1d2be4b7fc59d57749634 -->
<g id="node12" class="node">
<title>dir_b39b5091e8d1d2be4b7fc59d57749634</title>
<g id="a_node12"><a xlink:href="dir_b39b5091e8d1d2be4b7fc59d57749634.html" target="_top" xlink:title="view">
<polygon fill="#ffffff" stroke="#000000" points="176,-268 122,-268 122,-232 176,-232 176,-268"/>
<text text-anchor="middle" x="149" y="-247.5" font-family="Helvetica,sans-Serif" font-size="10.00" fill="#000000">view</text>
</a>
</g>
</g>
<!-- dir_1cc4868d1fa7c84d5e169dbd1ca1796f&#45;&gt;dir_b39b5091e8d1d2be4b7fc59d57749634 -->
<g id="edge27" class="edge">
<title>dir_1cc4868d1fa7c84d5e169dbd1ca1796f&#45;&gt;dir_b39b5091e8d1d2be4b7fc59d57749634</title>
<path fill="none" stroke="#000000" d="M153.6583,-124.0896C156.1269,-148.5727 156.4104,-192.5174 154.5089,-221.4713"/>
<polygon fill="#000000" stroke="#000000" points="150.9942,-221.5118 153.6732,-231.7623 157.9712,-222.0785 150.9942,-221.5118"/>
<g id="a_edge27&#45;headlabel"><a xlink:href="dir_000001_000023.html" target="_top" xlink:title="2">
<text text-anchor="middle" x="148.4551" y="-215.1992" font-family="Helvetica,sans-Serif" font-size="10.00" fill="#000000">2</text>
</a>
</g>
</g>
<!-- dir_659facb5ea1bf65b3deecf95a0be0132 -->
<g id="node3" class="node">
<title>dir_659facb5ea1bf65b3deecf95a0be0132</title>
<g id="a_node3"><a xlink:href="dir_659facb5ea1bf65b3deecf95a0be0132.html" target="_top" xlink:title="doc">
<polygon fill="#ffffff" stroke="#000000" points="167,-556 113,-556 113,-520 167,-520 167,-556"/>
<text text-anchor="middle" x="140" y="-535.5" font-family="Helvetica,sans-Serif" font-size="10.00" fill="#000000">doc</text>
</a>
</g>
</g>
<!-- dir_7bc5e25958a2fb25a8561f3aa0def6c5 -->
<g id="node8" class="node">
<title>dir_7bc5e25958a2fb25a8561f3aa0def6c5</title>
<g id="a_node8"><a xlink:href="dir_7bc5e25958a2fb25a8561f3aa0def6c5.html" target="_top" xlink:title="renderer">
<polygon fill="#ffffff" stroke="#000000" points="246,-196 188,-196 188,-160 246,-160 246,-196"/>
<text text-anchor="middle" x="217" y="-175.5" font-family="Helvetica,sans-Serif" font-size="10.00" fill="#000000">renderer</text>
</a>
</g>
</g>
<!-- dir_2052808828190f934b76e979ee65af8a&#45;&gt;dir_7bc5e25958a2fb25a8561f3aa0def6c5 -->
<g id="edge3" class="edge">
<title>dir_2052808828190f934b76e979ee65af8a&#45;&gt;dir_7bc5e25958a2fb25a8561f3aa0def6c5</title>
<path fill="none" stroke="#000000" d="M212.3268,-303.7623C209.867,-279.201 209.5923,-235.2474 211.5026,-206.3541"/>
<polygon fill="#000000" stroke="#000000" points="215.0152,-206.3416 212.3417,-196.0896 208.0385,-205.7712 215.0152,-206.3416"/>
<g id="a_edge3&#45;headlabel"><a xlink:href="dir_000003_000016.html" target="_top" xlink:title="1">
<text text-anchor="middle" x="217.5522" y="-207.6556" font-family="Helvetica,sans-Serif" font-size="10.00" fill="#000000">1</text>
</a>
</g>
</g>
<!-- dir_2052808828190f934b76e979ee65af8a&#45;&gt;dir_b7878ad5ecbf2506f4125b9d34c97e45 -->
<g id="edge1" class="edge">
<title>dir_2052808828190f934b76e979ee65af8a&#45;&gt;dir_b7878ad5ecbf2506f4125b9d34c97e45</title>
<path fill="none" stroke="#000000" d="M205.5857,-340.4133C198.3024,-348.9938 188.6978,-359.3414 179.4257,-368.6463"/>
<polygon fill="#000000" stroke="#000000" points="176.7926,-366.3266 172.1117,-375.8314 181.6981,-371.3202 176.7926,-366.3266"/>
<g id="a_edge1&#45;headlabel"><a xlink:href="dir_000003_000019.html" target="_top" xlink:title="52">
<text text-anchor="middle" x="177.3671" y="-359.2822" font-family="Helvetica,sans-Serif" font-size="10.00" fill="#000000">52</text>
</a>
</g>
</g>
<!-- dir_2052808828190f934b76e979ee65af8a&#45;&gt;dir_b39b5091e8d1d2be4b7fc59d57749634 -->
<g id="edge2" class="edge">
<title>dir_2052808828190f934b76e979ee65af8a&#45;&gt;dir_b39b5091e8d1d2be4b7fc59d57749634</title>
<path fill="none" stroke="#000000" d="M193.8883,-303.8314C185.16,-295.454 175.4306,-285.3531 167.1994,-276.1749"/>
<polygon fill="#000000" stroke="#000000" points="169.631,-273.6386 160.4143,-268.4133 164.3608,-278.2457 169.631,-273.6386"/>
<g id="a_edge2&#45;headlabel"><a xlink:href="dir_000003_000023.html" target="_top" xlink:title="3">
<text text-anchor="middle" x="174.1344" y="-271.9762" font-family="Helvetica,sans-Serif" font-size="10.00" fill="#000000">3</text>
</a>
</g>
</g>
<!-- dir_14e1e259e8275dc0c459acef3bbf05ae -->
<g id="node5" class="node">
<title>dir_14e1e259e8275dc0c459acef3bbf05ae</title>
<g id="a_node5"><a xlink:href="dir_14e1e259e8275dc0c459acef3bbf05ae.html" target="_top" xlink:title="events">
<polygon fill="#ffffff" stroke="#000000" points="110,-196 56,-196 56,-160 110,-160 110,-196"/>
<text text-anchor="middle" x="83" y="-175.5" font-family="Helvetica,sans-Serif" font-size="10.00" fill="#000000">events</text>
</a>
</g>
</g>
<!-- dir_14e1e259e8275dc0c459acef3bbf05ae&#45;&gt;dir_1cc4868d1fa7c84d5e169dbd1ca1796f -->
<g id="edge20" class="edge">
<title>dir_14e1e259e8275dc0c459acef3bbf05ae&#45;&gt;dir_1cc4868d1fa7c84d5e169dbd1ca1796f</title>
<path fill="none" stroke="#000000" d="M99.6546,-159.8314C107.4114,-151.3694 116.7802,-141.1489 125.261,-131.8971"/>
<polygon fill="#000000" stroke="#000000" points="127.9439,-134.1499 132.1212,-124.4133 122.7838,-129.4198 127.9439,-134.1499"/>
<g id="a_edge20&#45;headlabel"><a xlink:href="dir_000013_000001.html" target="_top" xlink:title="1">
<text text-anchor="middle" x="127.608" y="-136.2182" font-family="Helvetica,sans-Serif" font-size="10.00" fill="#000000">1</text>
</a>
</g>
</g>
<!-- dir_14e1e259e8275dc0c459acef3bbf05ae&#45;&gt;dir_2052808828190f934b76e979ee65af8a -->
<g id="edge18" class="edge">
<title>dir_14e1e259e8275dc0c459acef3bbf05ae&#45;&gt;dir_2052808828190f934b76e979ee65af8a</title>
<path fill="none" stroke="#000000" d="M84.9872,-196.198C87.9905,-215.9203 95.3516,-247.3346 113,-268 130.6086,-288.6187 158.0707,-302.4048 180.3539,-310.884"/>
<polygon fill="#000000" stroke="#000000" points="179.2631,-314.2112 189.8576,-314.3047 181.6338,-307.6248 179.2631,-314.2112"/>
<g id="a_edge18&#45;headlabel"><a xlink:href="dir_000013_000003.html" target="_top" xlink:title="2">
<text text-anchor="middle" x="174.9194" y="-313.1654" font-family="Helvetica,sans-Serif" font-size="10.00" fill="#000000">2</text>
</a>
</g>
</g>
<!-- dir_14e1e259e8275dc0c459acef3bbf05ae&#45;&gt;dir_b7878ad5ecbf2506f4125b9d34c97e45 -->
<g id="edge19" class="edge">
<title>dir_14e1e259e8275dc0c459acef3bbf05ae&#45;&gt;dir_b7878ad5ecbf2506f4125b9d34c97e45</title>
<path fill="none" stroke="#000000" d="M89.0298,-196.2494C90.9072,-214.6621 91.6679,-243.7578 98,-268 107.3516,-303.8022 126.9002,-341.7317 139.2395,-366.5076"/>
<polygon fill="#000000" stroke="#000000" points="136.178,-368.2136 143.7315,-375.643 142.4597,-365.1248 136.178,-368.2136"/>
<g id="a_edge19&#45;headlabel"><a xlink:href="dir_000013_000019.html" target="_top" xlink:title="2">
<text text-anchor="middle" x="132.044" y="-363.7407" font-family="Helvetica,sans-Serif" font-size="10.00" fill="#000000">2</text>
</a>
</g>
</g>
<!-- dir_f2b3bec0b800804983017014eef9ca7d&#45;&gt;dir_b7878ad5ecbf2506f4125b9d34c97e45 -->
<g id="edge23" class="edge">
<title>dir_f2b3bec0b800804983017014eef9ca7d&#45;&gt;dir_b7878ad5ecbf2506f4125b9d34c97e45</title>
<path fill="none" stroke="#000000" d="M83.0537,-52.3839C57.6484,-77.9065 17,-126.7504 17,-178 17,-250 17,-250 17,-250 17,-306.9858 73.8675,-351.202 112.9509,-374.8612"/>
<polygon fill="#000000" stroke="#000000" points="111.5728,-378.1106 121.9693,-380.1511 115.1145,-372.0726 111.5728,-378.1106"/>
<g id="a_edge23&#45;headlabel"><a xlink:href="dir_000014_000019.html" target="_top" xlink:title="4">
<text text-anchor="middle" x="107.0357" y="-376.241" font-family="Helvetica,sans-Serif" font-size="10.00" fill="#000000">4</text>
</a>
</g>
</g>
<!-- dir_f2b3bec0b800804983017014eef9ca7d&#45;&gt;dir_b39b5091e8d1d2be4b7fc59d57749634 -->
<g id="edge24" class="edge">
<title>dir_f2b3bec0b800804983017014eef9ca7d&#45;&gt;dir_b39b5091e8d1d2be4b7fc59d57749634</title>
<path fill="none" stroke="#000000" d="M104.1133,-52.0648C105.4479,-70.334 108.1389,-99.3203 113,-124 119.7624,-158.3323 131.3941,-196.8932 139.603,-222.2082"/>
<polygon fill="#000000" stroke="#000000" points="136.3317,-223.4647 142.7793,-231.8718 142.9816,-221.2789 136.3317,-223.4647"/>
<g id="a_edge24&#45;headlabel"><a xlink:href="dir_000014_000023.html" target="_top" xlink:title="2">
<text text-anchor="middle" x="132.512" y="-218.4364" font-family="Helvetica,sans-Serif" font-size="10.00" fill="#000000">2</text>
</a>
</g>
</g>
<!-- dir_5dd65160827af56e6353642206b80129&#45;&gt;dir_2052808828190f934b76e979ee65af8a -->
<g id="edge21" class="edge">
<title>dir_5dd65160827af56e6353642206b80129&#45;&gt;dir_2052808828190f934b76e979ee65af8a</title>
<path fill="none" stroke="#000000" d="M244.1799,-52.0719C259.0614,-92.3884 289.5178,-192.1004 260,-268 256.0906,-278.0523 249.6153,-287.7108 242.8616,-296.0099"/>
<polygon fill="#000000" stroke="#000000" points="239.999,-293.969 236.0996,-303.8202 245.2912,-298.5509 239.999,-293.969"/>
<g id="a_edge21&#45;headlabel"><a xlink:href="dir_000015_000003.html" target="_top" xlink:title="2">
<text text-anchor="middle" x="240.2053" y="-286.893" font-family="Helvetica,sans-Serif" font-size="10.00" fill="#000000">2</text>
</a>
</g>
</g>
<!-- dir_5dd65160827af56e6353642206b80129&#45;&gt;dir_b7878ad5ecbf2506f4125b9d34c97e45 -->
<g id="edge22" class="edge">
<title>dir_5dd65160827af56e6353642206b80129&#45;&gt;dir_b7878ad5ecbf2506f4125b9d34c97e45</title>
<path fill="none" stroke="#000000" d="M252.0914,-52.2525C272.1248,-78.3932 305,-128.7879 305,-178 305,-250 305,-250 305,-250 305,-296.1966 286.3927,-308.0774 253,-340 233.8711,-358.2868 207.3306,-371.9318 185.8491,-380.9308"/>
<polygon fill="#000000" stroke="#000000" points="184.3522,-377.7603 176.3801,-384.7386 186.9639,-384.2549 184.3522,-377.7603"/>
<g id="a_edge22&#45;headlabel"><a xlink:href="dir_000015_000019.html" target="_top" xlink:title="4">
<text text-anchor="middle" x="186.628" y="-371.285" font-family="Helvetica,sans-Serif" font-size="10.00" fill="#000000">4</text>
</a>
</g>
</g>
<!-- dir_7bc5e25958a2fb25a8561f3aa0def6c5&#45;&gt;dir_2052808828190f934b76e979ee65af8a -->
<g id="edge30" class="edge">
<title>dir_7bc5e25958a2fb25a8561f3aa0def6c5&#45;&gt;dir_2052808828190f934b76e979ee65af8a</title>
<path fill="none" stroke="#000000" d="M221.6583,-196.0896C224.1269,-220.5727 224.4104,-264.5174 222.5089,-293.4713"/>
<polygon fill="#000000" stroke="#000000" points="218.9942,-293.5118 221.6732,-303.7623 225.9712,-294.0785 218.9942,-293.5118"/>
<g id="a_edge30&#45;headlabel"><a xlink:href="dir_000016_000003.html" target="_top" xlink:title="1">
<text text-anchor="middle" x="216.4551" y="-287.1992" font-family="Helvetica,sans-Serif" font-size="10.00" fill="#000000">1</text>
</a>
</g>
</g>
<!-- dir_7bc5e25958a2fb25a8561f3aa0def6c5&#45;&gt;dir_b7878ad5ecbf2506f4125b9d34c97e45 -->
<g id="edge31" class="edge">
<title>dir_7bc5e25958a2fb25a8561f3aa0def6c5&#45;&gt;dir_b7878ad5ecbf2506f4125b9d34c97e45</title>
<path fill="none" stroke="#000000" d="M211.2877,-196.1451C199.3849,-233.9537 171.863,-321.3762 157.7267,-366.2797"/>
<polygon fill="#000000" stroke="#000000" points="154.3451,-365.366 154.6807,-375.9555 161.0221,-367.468 154.3451,-365.366"/>
<g id="a_edge31&#45;headlabel"><a xlink:href="dir_000016_000019.html" target="_top" xlink:title="8">
<text text-anchor="middle" x="152.7162" y="-358.5847" font-family="Helvetica,sans-Serif" font-size="10.00" fill="#000000">8</text>
</a>
</g>
</g>
<!-- dir_6e232b759d489f630412e22c99aac6d0&#45;&gt;dir_b7878ad5ecbf2506f4125b9d34c97e45 -->
<g id="edge8" class="edge">
<title>dir_6e232b759d489f630412e22c99aac6d0&#45;&gt;dir_b7878ad5ecbf2506f4125b9d34c97e45</title>
<path fill="none" stroke="#000000" d="M202.8314,-447.8314C194.2848,-439.2848 183.9443,-428.9443 174.6198,-419.6198"/>
<polygon fill="#000000" stroke="#000000" points="176.9592,-417.0095 167.4133,-412.4133 172.0095,-421.9592 176.9592,-417.0095"/>
<g id="a_edge8&#45;headlabel"><a xlink:href="dir_000017_000019.html" target="_top" xlink:title="1">
<text text-anchor="middle" x="181.5087" y="-415.0436" font-family="Helvetica,sans-Serif" font-size="10.00" fill="#000000">1</text>
</a>
</g>
</g>
<!-- dir_1826a32a9d780ddbaf96ec88be56c4cd&#45;&gt;dir_2052808828190f934b76e979ee65af8a -->
<g id="edge9" class="edge">
<title>dir_1826a32a9d780ddbaf96ec88be56c4cd&#45;&gt;dir_2052808828190f934b76e979ee65af8a</title>
<path fill="none" stroke="#000000" d="M160.5109,-447.9182C168.5995,-437.8359 178.1968,-424.7675 185,-412 195.5446,-392.211 203.8775,-368.2185 209.3934,-349.9836"/>
<polygon fill="#000000" stroke="#000000" points="212.7926,-350.829 212.2375,-340.2487 206.0735,-348.8659 212.7926,-350.829"/>
<g id="a_edge9&#45;headlabel"><a xlink:href="dir_000018_000003.html" target="_top" xlink:title="6">
<text text-anchor="middle" x="214.51" y="-352.5756" font-family="Helvetica,sans-Serif" font-size="10.00" fill="#000000">6</text>
</a>
</g>
</g>
<!-- dir_1826a32a9d780ddbaf96ec88be56c4cd&#45;&gt;dir_14e1e259e8275dc0c459acef3bbf05ae -->
<g id="edge11" class="edge">
<title>dir_1826a32a9d780ddbaf96ec88be56c4cd&#45;&gt;dir_14e1e259e8275dc0c459acef3bbf05ae</title>
<path fill="none" stroke="#000000" d="M132.2821,-447.7302C125.7207,-437.5928 118.055,-424.5318 113,-412 82.544,-336.4965 75.9908,-313.359 79,-232 79.3044,-223.7697 79.8689,-214.8483 80.4799,-206.6727"/>
<polygon fill="#000000" stroke="#000000" points="83.987,-206.7219 81.2918,-196.4756 77.009,-206.1662 83.987,-206.7219"/>
<g id="a_edge11&#45;headlabel"><a xlink:href="dir_000018_000013.html" target="_top" xlink:title="1">
<text text-anchor="middle" x="86.5321" y="-208.0305" font-family="Helvetica,sans-Serif" font-size="10.00" fill="#000000">1</text>
</a>
</g>
</g>
<!-- dir_1826a32a9d780ddbaf96ec88be56c4cd&#45;&gt;dir_b7878ad5ecbf2506f4125b9d34c97e45 -->
<g id="edge10" class="edge">
<title>dir_1826a32a9d780ddbaf96ec88be56c4cd&#45;&gt;dir_b7878ad5ecbf2506f4125b9d34c97e45</title>
<path fill="none" stroke="#000000" d="M146.0094,-447.8314C146.4372,-440.131 146.9459,-430.9743 147.4213,-422.4166"/>
<polygon fill="#000000" stroke="#000000" points="150.9169,-422.592 147.977,-412.4133 143.9276,-422.2037 150.9169,-422.592"/>
<g id="a_edge10&#45;headlabel"><a xlink:href="dir_000018_000019.html" target="_top" xlink:title="10">
<text text-anchor="middle" x="153.5525" y="-423.8386" font-family="Helvetica,sans-Serif" font-size="10.00" fill="#000000">10</text>
</a>
</g>
</g>
<!-- dir_b7878ad5ecbf2506f4125b9d34c97e45&#45;&gt;dir_2052808828190f934b76e979ee65af8a -->
<g id="edge6" class="edge">
<title>dir_b7878ad5ecbf2506f4125b9d34c97e45&#45;&gt;dir_2052808828190f934b76e979ee65af8a</title>
<path fill="none" stroke="#000000" d="M160.2069,-375.8314C167.5015,-367.219 177.1788,-356.7851 186.5234,-347.4048"/>
<polygon fill="#000000" stroke="#000000" points="189.2141,-349.6679 193.8944,-340.1628 184.3082,-344.6746 189.2141,-349.6679"/>
<g id="a_edge6&#45;headlabel"><a xlink:href="dir_000019_000003.html" target="_top" xlink:title="3">
<text text-anchor="middle" x="188.6399" y="-351.7124" font-family="Helvetica,sans-Serif" font-size="10.00" fill="#000000">3</text>
</a>
</g>
</g>
<!-- dir_b7878ad5ecbf2506f4125b9d34c97e45&#45;&gt;dir_14e1e259e8275dc0c459acef3bbf05ae -->
<g id="edge7" class="edge">
<title>dir_b7878ad5ecbf2506f4125b9d34c97e45&#45;&gt;dir_14e1e259e8275dc0c459acef3bbf05ae</title>
<path fill="none" stroke="#000000" d="M131.2866,-375.643C114.2697,-351.8389 90.593,-308.5548 80,-268 74.7315,-247.8298 73.3199,-224.2995 74.4442,-206.3583"/>
<polygon fill="#000000" stroke="#000000" points="77.9429,-206.5405 75.4243,-196.2494 70.9756,-205.8649 77.9429,-206.5405"/>
<g id="a_edge7&#45;headlabel"><a xlink:href="dir_000019_000013.html" target="_top" xlink:title="1">
<text text-anchor="middle" x="80.4221" y="-207.8923" font-family="Helvetica,sans-Serif" font-size="10.00" fill="#000000">1</text>
</a>
</g>
</g>
<!-- dir_b39b5091e8d1d2be4b7fc59d57749634&#45;&gt;dir_1cc4868d1fa7c84d5e169dbd1ca1796f -->
<g id="edge16" class="edge">
<title>dir_b39b5091e8d1d2be4b7fc59d57749634&#45;&gt;dir_1cc4868d1fa7c84d5e169dbd1ca1796f</title>
<path fill="none" stroke="#000000" d="M144.3268,-231.7623C141.867,-207.201 141.5923,-163.2474 143.5026,-134.3541"/>
<polygon fill="#000000" stroke="#000000" points="147.0152,-134.3416 144.3417,-124.0896 140.0385,-133.7712 147.0152,-134.3416"/>
<g id="a_edge16&#45;headlabel"><a xlink:href="dir_000023_000001.html" target="_top" xlink:title="1">
<text text-anchor="middle" x="149.5522" y="-135.6556" font-family="Helvetica,sans-Serif" font-size="10.00" fill="#000000">1</text>
</a>
</g>
</g>
<!-- dir_b39b5091e8d1d2be4b7fc59d57749634&#45;&gt;dir_2052808828190f934b76e979ee65af8a -->
<g id="edge12" class="edge">
<title>dir_b39b5091e8d1d2be4b7fc59d57749634&#45;&gt;dir_2052808828190f934b76e979ee65af8a</title>
<path fill="none" stroke="#000000" d="M172.1056,-268.1628C180.9006,-276.6038 190.7127,-286.7956 198.9846,-296.0303"/>
<polygon fill="#000000" stroke="#000000" points="196.5806,-298.5987 205.7931,-303.8314 201.8545,-293.9958 196.5806,-298.5987"/>
<g id="a_edge12&#45;headlabel"><a xlink:href="dir_000023_000003.html" target="_top" xlink:title="1">
<text text-anchor="middle" x="192.0779" y="-295.2575" font-family="Helvetica,sans-Serif" font-size="10.00" fill="#000000">1</text>
</a>
</g>
</g>
<!-- dir_b39b5091e8d1d2be4b7fc59d57749634&#45;&gt;dir_14e1e259e8275dc0c459acef3bbf05ae -->
<g id="edge14" class="edge">
<title>dir_b39b5091e8d1d2be4b7fc59d57749634&#45;&gt;dir_14e1e259e8275dc0c459acef3bbf05ae</title>
<path fill="none" stroke="#000000" d="M132.3454,-231.8314C124.5886,-223.3694 115.2198,-213.1489 106.739,-203.8971"/>
<polygon fill="#000000" stroke="#000000" points="109.2162,-201.4198 99.8788,-196.4133 104.0561,-206.1499 109.2162,-201.4198"/>
<g id="a_edge14&#45;headlabel"><a xlink:href="dir_000023_000013.html" target="_top" xlink:title="1">
<text text-anchor="middle" x="113.7381" y="-199.651" font-family="Helvetica,sans-Serif" font-size="10.00" fill="#000000">1</text>
</a>
</g>
</g>
<!-- dir_b39b5091e8d1d2be4b7fc59d57749634&#45;&gt;dir_5dd65160827af56e6353642206b80129 -->
<g id="edge15" class="edge">
<title>dir_b39b5091e8d1d2be4b7fc59d57749634&#45;&gt;dir_5dd65160827af56e6353642206b80129</title>
<path fill="none" stroke="#000000" d="M154.4039,-231.8618C160.0132,-213.5356 169.3092,-184.5058 179,-160 192.7418,-125.2501 211.1349,-86.3324 223.4914,-61.0675"/>
<polygon fill="#000000" stroke="#000000" points="226.6341,-62.608 227.9093,-52.0902 220.3534,-59.5171 226.6341,-62.608"/>
<g id="a_edge15&#45;headlabel"><a xlink:href="dir_000023_000015.html" target="_top" xlink:title="2">
<text text-anchor="middle" x="227.5945" y="-64.5869" font-family="Helvetica,sans-Serif" font-size="10.00" fill="#000000">2</text>
</a>
</g>
</g>
<!-- dir_b39b5091e8d1d2be4b7fc59d57749634&#45;&gt;dir_7bc5e25958a2fb25a8561f3aa0def6c5 -->
<g id="edge17" class="edge">
<title>dir_b39b5091e8d1d2be4b7fc59d57749634&#45;&gt;dir_7bc5e25958a2fb25a8561f3aa0def6c5</title>
<path fill="none" stroke="#000000" d="M166.1593,-231.8314C174.1511,-223.3694 183.8038,-213.1489 192.5416,-203.8971"/>
<polygon fill="#000000" stroke="#000000" points="195.288,-206.0866 199.6097,-196.4133 190.1989,-201.2802 195.288,-206.0866"/>
<g id="a_edge17&#45;headlabel"><a xlink:href="dir_000023_000016.html" target="_top" xlink:title="2">
<text text-anchor="middle" x="194.884" y="-208.1494" font-family="Helvetica,sans-Serif" font-size="10.00" fill="#000000">2</text>
</a>
</g>
</g>
<!-- dir_b39b5091e8d1d2be4b7fc59d57749634&#45;&gt;dir_b7878ad5ecbf2506f4125b9d34c97e45 -->
<g id="edge13" class="edge">
<title>dir_b39b5091e8d1d2be4b7fc59d57749634&#45;&gt;dir_b7878ad5ecbf2506f4125b9d34c97e45</title>
<path fill="none" stroke="#000000" d="M149,-268.0896C149,-292.5727 149,-336.5174 149,-365.4713"/>
<polygon fill="#000000" stroke="#000000" points="145.5001,-365.7623 149,-375.7623 152.5001,-365.7623 145.5001,-365.7623"/>
<g id="a_edge13&#45;headlabel"><a xlink:href="dir_000023_000019.html" target="_top" xlink:title="12">
<text text-anchor="middle" x="142.6607" y="-359.6677" font-family="Helvetica,sans-Serif" font-size="10.00" fill="#000000">12</text>
</a>
</g>
</g>
<!-- dir_85ebecfd8b3c6e060c2257c3b57eaa6c -->
<g id="node13" class="node">
<title>dir_85ebecfd8b3c6e060c2257c3b57eaa6c</title>
<g id="a_node13"><a xlink:href="dir_85ebecfd8b3c6e060c2257c3b57eaa6c.html" target="_top" xlink:title="Windows">
<polygon fill="#ffffff" stroke="#000000" points="79.5,-556 18.5,-556 18.5,-520 79.5,-520 79.5,-556"/>
<text text-anchor="middle" x="49" y="-535.5" font-family="Helvetica,sans-Serif" font-size="10.00" fill="#000000">Windows</text>
</a>
</g>
</g>
</g>
</svg>
