<?xml version="1.0" encoding="UTF-8" standalone="no"?>
<!DOCTYPE svg PUBLIC "-//W3C//DTD SVG 1.1//EN"
 "http://www.w3.org/Graphics/SVG/1.1/DTD/svg11.dtd">
<!-- Generated by graphviz version 2.40.1 (20161225.0304)
 -->
<!-- Title: src/engine/ui/basics Pages: 1 -->
<svg width="152pt" height="223pt"
 viewBox="0.00 0.00 151.50 223.00" xmlns="http://www.w3.org/2000/svg" xmlns:xlink="http://www.w3.org/1999/xlink">
<g id="graph0" class="graph" transform="scale(1 1) rotate(0) translate(4 219)">
<title>src/engine/ui/basics</title>
<g id="clust1" class="cluster">
<title>clusterdir_dafb870456d4817504c840071e25f057</title>
<g id="a_clust1"><a xlink:href="dir_dafb870456d4817504c840071e25f057.html" target="_top" xlink:title="ui">
<polygon fill="#ddddee" stroke="#000000" points="8,-136 8,-207 78,-207 78,-136 8,-136"/>
<text text-anchor="middle" x="43" y="-195" font-family="Helvetica,sans-Serif" font-size="10.00" fill="#000000">ui</text>
</a>
</g>
</g>
<!-- dir_5430acbacf25f3c993fa948280e8f66e -->
<g id="node1" class="node">
<title>dir_5430acbacf25f3c993fa948280e8f66e</title>
<g id="a_node1"><a xlink:href="dir_5430acbacf25f3c993fa948280e8f66e.html" target="_top" xlink:title="basics">
<polygon fill="#eeeeff" stroke="#000000" points="70,-180 16,-180 16,-144 70,-144 70,-180"/>
<text text-anchor="middle" x="43" y="-159.5" font-family="Helvetica,sans-Serif" font-size="10.00" fill="#000000">basics</text>
</a>
</g>
</g>
<!-- dir_b7878ad5ecbf2506f4125b9d34c97e45 -->
<g id="node2" class="node">
<title>dir_b7878ad5ecbf2506f4125b9d34c97e45</title>
<g id="a_node2"><a xlink:href="dir_b7878ad5ecbf2506f4125b9d34c97e45.html" target="_top" xlink:title="util">
<polygon fill="none" stroke="#ff0000" points="107,-108 53,-108 53,-72 107,-72 107,-108"/>
<text text-anchor="middle" x="80" y="-87.5" font-family="Helvetica,sans-Serif" font-size="10.00" fill="#000000">util</text>
</a>
</g>
</g>
<!-- dir_5430acbacf25f3c993fa948280e8f66e&#45;&gt;dir_b7878ad5ecbf2506f4125b9d34c97e45 -->
<g id="edge2" class="edge">
<title>dir_5430acbacf25f3c993fa948280e8f66e&#45;&gt;dir_b7878ad5ecbf2506f4125b9d34c97e45</title>
<path fill="none" stroke="#000000" d="M52.3367,-143.8314C56.4243,-135.8771 61.3104,-126.369 65.8309,-117.5723"/>
<polygon fill="#000000" stroke="#000000" points="69.0799,-118.9074 70.5376,-108.4133 62.8539,-115.7078 69.0799,-118.9074"/>
<g id="a_edge2&#45;headlabel"><a xlink:href="dir_000010_000019.html" target="_top" xlink:title="3">
<text text-anchor="middle" x="69.9623" y="-120.9022" font-family="Helvetica,sans-Serif" font-size="10.00" fill="#000000">3</text>
</a>
</g>
</g>
<!-- dir_da596e0a640cb07f660e5a92758700d0 -->
<g id="node3" class="node">
<title>dir_da596e0a640cb07f660e5a92758700d0</title>
<g id="a_node3"><a xlink:href="dir_da596e0a640cb07f660e5a92758700d0.html" target="_top" xlink:title="widgets">
<polygon fill="none" stroke="#000000" points="143.5,-180 88.5,-180 88.5,-144 143.5,-144 143.5,-180"/>
<text text-anchor="middle" x="116" y="-159.5" font-family="Helvetica,sans-Serif" font-size="10.00" fill="#000000">widgets</text>
</a>
</g>
</g>
<!-- dir_5430acbacf25f3c993fa948280e8f66e&#45;&gt;dir_da596e0a640cb07f660e5a92758700d0 -->
<g id="edge3" class="edge">
<title>dir_5430acbacf25f3c993fa948280e8f66e&#45;&gt;dir_da596e0a640cb07f660e5a92758700d0</title>
<path fill="none" stroke="#000000" d="M70.0898,-162C72.8527,-162 75.6157,-162 78.3786,-162"/>
<polygon fill="#000000" stroke="#000000" points="78.3822,-165.5001 88.3822,-162 78.3821,-158.5001 78.3822,-165.5001"/>
<g id="a_edge3&#45;headlabel"><a xlink:href="dir_000010_000012.html" target="_top" xlink:title="1">
<text text-anchor="middle" x="74.7876" y="-165.8393" font-family="Helvetica,sans-Serif" font-size="10.00" fill="#000000">1</text>
</a>
</g>
</g>
<!-- dir_8c0f887d135e3a09c81f308091ce630b -->
<g id="node4" class="node">
<title>dir_8c0f887d135e3a09c81f308091ce630b</title>
<g id="a_node4"><a xlink:href="dir_8c0f887d135e3a09c81f308091ce630b.html" target="_top" xlink:title="basics">
<polygon fill="none" stroke="#000000" points="107,-36 53,-36 53,0 107,0 107,-36"/>
<text text-anchor="middle" x="80" y="-15.5" font-family="Helvetica,sans-Serif" font-size="10.00" fill="#000000">basics</text>
</a>
</g>
</g>
<!-- dir_5430acbacf25f3c993fa948280e8f66e&#45;&gt;dir_8c0f887d135e3a09c81f308091ce630b -->
<g id="edge4" class="edge">
<title>dir_5430acbacf25f3c993fa948280e8f66e&#45;&gt;dir_8c0f887d135e3a09c81f308091ce630b</title>
<path fill="none" stroke="#000000" d="M40.2438,-143.9474C38.0945,-125.4374 36.576,-96.0375 44,-72 47.0106,-62.2521 52.3953,-52.6443 58.0979,-44.297"/>
<polygon fill="#000000" stroke="#000000" points="61.0093,-46.2447 64.0695,-36.1014 55.3518,-42.1223 61.0093,-46.2447"/>
<g id="a_edge4&#45;headlabel"><a xlink:href="dir_000010_000005.html" target="_top" xlink:title="5">
<text text-anchor="middle" x="61.1872" y="-48.3219" font-family="Helvetica,sans-Serif" font-size="10.00" fill="#000000">5</text>
</a>
</g>
</g>
<!-- dir_b7878ad5ecbf2506f4125b9d34c97e45&#45;&gt;dir_8c0f887d135e3a09c81f308091ce630b -->
<g id="edge1" class="edge">
<title>dir_b7878ad5ecbf2506f4125b9d34c97e45&#45;&gt;dir_8c0f887d135e3a09c81f308091ce630b</title>
<path fill="none" stroke="#000000" d="M74.0476,-71.8314C73.2972,-64.131 73.0763,-54.9743 73.3849,-46.4166"/>
<polygon fill="#000000" stroke="#000000" points="76.8792,-46.6161 74.024,-36.4133 69.8935,-46.1697 76.8792,-46.6161"/>
<g id="a_edge1&#45;headlabel"><a xlink:href="dir_000019_000005.html" target="_top" xlink:title="3">
<text text-anchor="middle" x="79.4836" y="-47.8844" font-family="Helvetica,sans-Serif" font-size="10.00" fill="#000000">3</text>
</a>
</g>
</g>
<!-- dir_da596e0a640cb07f660e5a92758700d0&#45;&gt;dir_5430acbacf25f3c993fa948280e8f66e -->
<g id="edge6" class="edge">
<title>dir_da596e0a640cb07f660e5a92758700d0&#45;&gt;dir_5430acbacf25f3c993fa948280e8f66e</title>
<path fill="none" stroke="#000000" d="M88.3822,-162C85.6193,-162 82.8564,-162 80.0935,-162"/>
<polygon fill="#000000" stroke="#000000" points="80.0899,-158.5001 70.0898,-162 80.0898,-165.5001 80.0899,-158.5001"/>
<g id="a_edge6&#45;headlabel"><a xlink:href="dir_000012_000010.html" target="_top" xlink:title="10">
<text text-anchor="middle" x="83.6845" y="-153.1607" font-family="Helvetica,sans-Serif" font-size="10.00" fill="#000000">10</text>
</a>
</g>
</g>
<!-- dir_da596e0a640cb07f660e5a92758700d0&#45;&gt;dir_b7878ad5ecbf2506f4125b9d34c97e45 -->
<g id="edge5" class="edge">
<title>dir_da596e0a640cb07f660e5a92758700d0&#45;&gt;dir_b7878ad5ecbf2506f4125b9d34c97e45</title>
<path fill="none" stroke="#000000" d="M106.9157,-143.8314C102.9385,-135.8771 98.1845,-126.369 93.7861,-117.5723"/>
<polygon fill="#000000" stroke="#000000" points="96.8093,-115.7923 89.2066,-108.4133 90.5483,-118.9228 96.8093,-115.7923"/>
<g id="a_edge5&#45;headlabel"><a xlink:href="dir_000012_000019.html" target="_top" xlink:title="5">
<text text-anchor="middle" x="100.9563" y="-115.2377" font-family="Helvetica,sans-Serif" font-size="10.00" fill="#000000">5</text>
</a>
</g>
</g>
<!-- dir_da596e0a640cb07f660e5a92758700d0&#45;&gt;dir_8c0f887d135e3a09c81f308091ce630b -->
<g id="edge7" class="edge">
<title>dir_da596e0a640cb07f660e5a92758700d0&#45;&gt;dir_8c0f887d135e3a09c81f308091ce630b</title>
<path fill="none" stroke="#000000" d="M119.0117,-143.9637C121.4105,-125.4666 123.2899,-96.0768 116,-72 113.0436,-62.2355 107.6748,-52.6229 101.97,-44.2762"/>
<polygon fill="#000000" stroke="#000000" points="104.7129,-42.0973 95.9905,-36.0831 99.0586,-46.2239 104.7129,-42.0973"/>
<g id="a_edge7&#45;headlabel"><a xlink:href="dir_000012_000005.html" target="_top" xlink:title="2">
<text text-anchor="middle" x="109.1253" y="-40.827" font-family="Helvetica,sans-Serif" font-size="10.00" fill="#000000">2</text>
</a>
</g>
</g>
<!-- dir_8c0f887d135e3a09c81f308091ce630b&#45;&gt;dir_b7878ad5ecbf2506f4125b9d34c97e45 -->
<g id="edge8" class="edge">
<title>dir_8c0f887d135e3a09c81f308091ce630b&#45;&gt;dir_b7878ad5ecbf2506f4125b9d34c97e45</title>
<path fill="none" stroke="#000000" d="M85.976,-36.4133C86.7071,-44.0593 86.9203,-53.1084 86.6155,-61.5726"/>
<polygon fill="#000000" stroke="#000000" points="83.1048,-61.6264 85.9524,-71.8314 90.0902,-62.078 83.1048,-61.6264"/>
<g id="a_edge8&#45;headlabel"><a xlink:href="dir_000005_000019.html" target="_top" xlink:title="13">
<text text-anchor="middle" x="80.5032" y="-55.3562" font-family="Helvetica,sans-Serif" font-size="10.00" fill="#000000">13</text>
</a>
</g>
</g>
</g>
</svg>
