<?xml version="1.0" encoding="UTF-8" standalone="no"?>
<!DOCTYPE svg PUBLIC "-//W3C//DTD SVG 1.1//EN"
 "http://www.w3.org/Graphics/SVG/1.1/DTD/svg11.dtd">
<!-- Generated by graphviz version 2.40.1 (20161225.0304)
 -->
<!-- Title: src/engine/ui Pages: 1 -->
<svg width="217pt" height="375pt"
 viewBox="0.00 0.00 217.00 375.00" xmlns="http://www.w3.org/2000/svg" xmlns:xlink="http://www.w3.org/1999/xlink">
<g id="graph0" class="graph" transform="scale(1 1) rotate(0) translate(4 371)">
<title>src/engine/ui</title>
<g id="clust1" class="cluster">
<title>clusterdir_2052808828190f934b76e979ee65af8a</title>
<g id="a_clust1"><a xlink:href="dir_2052808828190f934b76e979ee65af8a.html" target="_top" xlink:title="engine">
<polygon fill="#ddddee" stroke="#000000" points="18,-128 18,-359 201,-359 201,-128 18,-128"/>
<text text-anchor="middle" x="109.5" y="-347" font-family="Helvetica,sans-Serif" font-size="10.00" fill="#000000">engine</text>
</a>
</g>
</g>
<g id="clust2" class="cluster">
<title>clusterdir_dafb870456d4817504c840071e25f057</title>
<g id="a_clust2"><a xlink:href="dir_dafb870456d4817504c840071e25f057.html" target="_top">
<polygon fill="#eeeeff" stroke="#000000" points="26,-136 26,-332 193,-332 193,-136 26,-136"/>
</a>
</g>
</g>
<!-- dir_dafb870456d4817504c840071e25f057 -->
<g id="node1" class="node">
<title>dir_dafb870456d4817504c840071e25f057</title>
<text text-anchor="middle" x="158" y="-303.5" font-family="Helvetica,sans-Serif" font-size="10.00" fill="#000000">ui</text>
</g>
<!-- dir_5430acbacf25f3c993fa948280e8f66e -->
<g id="node2" class="node">
<title>dir_5430acbacf25f3c993fa948280e8f66e</title>
<g id="a_node2"><a xlink:href="dir_5430acbacf25f3c993fa948280e8f66e.html" target="_top" xlink:title="basics">
<polygon fill="#ffffff" stroke="#000000" points="100,-252 46,-252 46,-216 100,-216 100,-252"/>
<text text-anchor="middle" x="73" y="-231.5" font-family="Helvetica,sans-Serif" font-size="10.00" fill="#000000">basics</text>
</a>
</g>
</g>
<!-- dir_da596e0a640cb07f660e5a92758700d0 -->
<g id="node4" class="node">
<title>dir_da596e0a640cb07f660e5a92758700d0</title>
<g id="a_node4"><a xlink:href="dir_da596e0a640cb07f660e5a92758700d0.html" target="_top" xlink:title="widgets">
<polygon fill="#ffffff" stroke="#000000" points="100.5,-180 45.5,-180 45.5,-144 100.5,-144 100.5,-180"/>
<text text-anchor="middle" x="73" y="-159.5" font-family="Helvetica,sans-Serif" font-size="10.00" fill="#000000">widgets</text>
</a>
</g>
</g>
<!-- dir_5430acbacf25f3c993fa948280e8f66e&#45;&gt;dir_da596e0a640cb07f660e5a92758700d0 -->
<g id="edge3" class="edge">
<title>dir_5430acbacf25f3c993fa948280e8f66e&#45;&gt;dir_da596e0a640cb07f660e5a92758700d0</title>
<path fill="none" stroke="#000000" d="M67.0476,-215.8314C66.2972,-208.131 66.0763,-198.9743 66.3849,-190.4166"/>
<polygon fill="#000000" stroke="#000000" points="69.8792,-190.6161 67.024,-180.4133 62.8935,-190.1697 69.8792,-190.6161"/>
<g id="a_edge3&#45;headlabel"><a xlink:href="dir_000010_000012.html" target="_top" xlink:title="1">
<text text-anchor="middle" x="72.4836" y="-191.8844" font-family="Helvetica,sans-Serif" font-size="10.00" fill="#000000">1</text>
</a>
</g>
</g>
<!-- dir_b7878ad5ecbf2506f4125b9d34c97e45 -->
<g id="node5" class="node">
<title>dir_b7878ad5ecbf2506f4125b9d34c97e45</title>
<g id="a_node5"><a xlink:href="dir_b7878ad5ecbf2506f4125b9d34c97e45.html" target="_top" xlink:title="util">
<polygon fill="none" stroke="#ff0000" points="54,-108 0,-108 0,-72 54,-72 54,-108"/>
<text text-anchor="middle" x="27" y="-87.5" font-family="Helvetica,sans-Serif" font-size="10.00" fill="#000000">util</text>
</a>
</g>
</g>
<!-- dir_5430acbacf25f3c993fa948280e8f66e&#45;&gt;dir_b7878ad5ecbf2506f4125b9d34c97e45 -->
<g id="edge2" class="edge">
<title>dir_5430acbacf25f3c993fa948280e8f66e&#45;&gt;dir_b7878ad5ecbf2506f4125b9d34c97e45</title>
<path fill="none" stroke="#000000" d="M57.6025,-215.7193C50.1014,-205.7854 41.7049,-192.9159 37,-180 29.792,-160.2124 27.3893,-136.4903 26.7367,-118.3693"/>
<polygon fill="#000000" stroke="#000000" points="30.2317,-118.0852 26.5302,-108.158 23.2332,-118.2267 30.2317,-118.0852"/>
<g id="a_edge2&#45;headlabel"><a xlink:href="dir_000010_000019.html" target="_top" xlink:title="3">
<text text-anchor="middle" x="33.143" y="-119.1217" font-family="Helvetica,sans-Serif" font-size="10.00" fill="#000000">3</text>
</a>
</g>
</g>
<!-- dir_8c0f887d135e3a09c81f308091ce630b -->
<g id="node6" class="node">
<title>dir_8c0f887d135e3a09c81f308091ce630b</title>
<g id="a_node6"><a xlink:href="dir_8c0f887d135e3a09c81f308091ce630b.html" target="_top" xlink:title="basics">
<polygon fill="none" stroke="#000000" points="81,-36 27,-36 27,0 81,0 81,-36"/>
<text text-anchor="middle" x="54" y="-15.5" font-family="Helvetica,sans-Serif" font-size="10.00" fill="#000000">basics</text>
</a>
</g>
</g>
<!-- dir_5430acbacf25f3c993fa948280e8f66e&#45;&gt;dir_8c0f887d135e3a09c81f308091ce630b -->
<g id="edge4" class="edge">
<title>dir_5430acbacf25f3c993fa948280e8f66e&#45;&gt;dir_8c0f887d135e3a09c81f308091ce630b</title>
<path fill="none" stroke="#000000" d="M89.4281,-215.989C97.3025,-206.1289 105.898,-193.2441 110,-180 116.8377,-157.9236 115.3913,-150.4735 110,-128 102.6952,-97.55 85.484,-66.0223 72.0556,-44.5682"/>
<polygon fill="#000000" stroke="#000000" points="74.9184,-42.5488 66.572,-36.0228 69.0271,-46.3293 74.9184,-42.5488"/>
<g id="a_edge4&#45;headlabel"><a xlink:href="dir_000010_000005.html" target="_top" xlink:title="5">
<text text-anchor="middle" x="79.2493" y="-41.5408" font-family="Helvetica,sans-Serif" font-size="10.00" fill="#000000">5</text>
</a>
</g>
</g>
<!-- dir_12bf07b2862220ce91530ffb27a5906b -->
<g id="node3" class="node">
<title>dir_12bf07b2862220ce91530ffb27a5906b</title>
<g id="a_node3"><a xlink:href="dir_12bf07b2862220ce91530ffb27a5906b.html" target="_top" xlink:title="menuGroups">
<polygon fill="#ffffff" stroke="#000000" points="112.5,-324 33.5,-324 33.5,-288 112.5,-288 112.5,-324"/>
<text text-anchor="middle" x="73" y="-303.5" font-family="Helvetica,sans-Serif" font-size="10.00" fill="#000000">menuGroups</text>
</a>
</g>
</g>
<!-- dir_12bf07b2862220ce91530ffb27a5906b&#45;&gt;dir_5430acbacf25f3c993fa948280e8f66e -->
<g id="edge8" class="edge">
<title>dir_12bf07b2862220ce91530ffb27a5906b&#45;&gt;dir_5430acbacf25f3c993fa948280e8f66e</title>
<path fill="none" stroke="#000000" d="M73,-287.8314C73,-280.131 73,-270.9743 73,-262.4166"/>
<polygon fill="#000000" stroke="#000000" points="76.5001,-262.4132 73,-252.4133 69.5001,-262.4133 76.5001,-262.4132"/>
<g id="a_edge8&#45;headlabel"><a xlink:href="dir_000011_000010.html" target="_top" xlink:title="2">
<text text-anchor="middle" x="79.3393" y="-263.5079" font-family="Helvetica,sans-Serif" font-size="10.00" fill="#000000">2</text>
</a>
</g>
</g>
<!-- dir_da596e0a640cb07f660e5a92758700d0&#45;&gt;dir_5430acbacf25f3c993fa948280e8f66e -->
<g id="edge6" class="edge">
<title>dir_da596e0a640cb07f660e5a92758700d0&#45;&gt;dir_5430acbacf25f3c993fa948280e8f66e</title>
<path fill="none" stroke="#000000" d="M78.976,-180.4133C79.7071,-188.0593 79.9203,-197.1084 79.6155,-205.5726"/>
<polygon fill="#000000" stroke="#000000" points="76.1048,-205.6264 78.9524,-215.8314 83.0902,-206.078 76.1048,-205.6264"/>
<g id="a_edge6&#45;headlabel"><a xlink:href="dir_000012_000010.html" target="_top" xlink:title="10">
<text text-anchor="middle" x="73.5032" y="-199.3562" font-family="Helvetica,sans-Serif" font-size="10.00" fill="#000000">10</text>
</a>
</g>
</g>
<!-- dir_da596e0a640cb07f660e5a92758700d0&#45;&gt;dir_b7878ad5ecbf2506f4125b9d34c97e45 -->
<g id="edge5" class="edge">
<title>dir_da596e0a640cb07f660e5a92758700d0&#45;&gt;dir_b7878ad5ecbf2506f4125b9d34c97e45</title>
<path fill="none" stroke="#000000" d="M61.3923,-143.8314C56.2022,-135.7079 49.9768,-125.9637 44.2575,-117.0118"/>
<polygon fill="#000000" stroke="#000000" points="47.0974,-114.9559 38.764,-108.4133 41.1985,-118.7246 47.0974,-114.9559"/>
<g id="a_edge5&#45;headlabel"><a xlink:href="dir_000012_000019.html" target="_top" xlink:title="5">
<text text-anchor="middle" x="51.4253" y="-113.9564" font-family="Helvetica,sans-Serif" font-size="10.00" fill="#000000">5</text>
</a>
</g>
</g>
<!-- dir_da596e0a640cb07f660e5a92758700d0&#45;&gt;dir_8c0f887d135e3a09c81f308091ce630b -->
<g id="edge7" class="edge">
<title>dir_da596e0a640cb07f660e5a92758700d0&#45;&gt;dir_8c0f887d135e3a09c81f308091ce630b</title>
<path fill="none" stroke="#000000" d="M71.2609,-143.6921C69.4616,-125.4811 66.4362,-96.7593 63,-72 61.8425,-63.6597 60.4083,-54.6248 59.0275,-46.3749"/>
<polygon fill="#000000" stroke="#000000" points="62.467,-45.7235 57.3319,-36.4563 55.5671,-46.9031 62.467,-45.7235"/>
<g id="a_edge7&#45;headlabel"><a xlink:href="dir_000012_000005.html" target="_top" xlink:title="2">
<text text-anchor="middle" x="65.8713" y="-46.2883" font-family="Helvetica,sans-Serif" font-size="10.00" fill="#000000">2</text>
</a>
</g>
</g>
<!-- dir_b7878ad5ecbf2506f4125b9d34c97e45&#45;&gt;dir_8c0f887d135e3a09c81f308091ce630b -->
<g id="edge1" class="edge">
<title>dir_b7878ad5ecbf2506f4125b9d34c97e45&#45;&gt;dir_8c0f887d135e3a09c81f308091ce630b</title>
<path fill="none" stroke="#000000" d="M27.8608,-71.8314C30.0685,-63.8771 33.4239,-54.369 37.0776,-45.5723"/>
<polygon fill="#000000" stroke="#000000" points="40.2841,-46.9752 41.119,-36.4133 33.8798,-44.1492 40.2841,-46.9752"/>
<g id="a_edge1&#45;headlabel"><a xlink:href="dir_000019_000005.html" target="_top" xlink:title="3">
<text text-anchor="middle" x="41.4306" y="-48.91" font-family="Helvetica,sans-Serif" font-size="10.00" fill="#000000">3</text>
</a>
</g>
</g>
<!-- dir_8c0f887d135e3a09c81f308091ce630b&#45;&gt;dir_b7878ad5ecbf2506f4125b9d34c97e45 -->
<g id="edge9" class="edge">
<title>dir_8c0f887d135e3a09c81f308091ce630b&#45;&gt;dir_b7878ad5ecbf2506f4125b9d34c97e45</title>
<path fill="none" stroke="#000000" d="M53.071,-36.4133C50.8637,-44.3141 47.5414,-53.7132 43.9269,-62.417"/>
<polygon fill="#000000" stroke="#000000" points="40.6073,-61.27 39.7656,-71.8314 47.0097,-64.1 40.6073,-61.27"/>
<g id="a_edge9&#45;headlabel"><a xlink:href="dir_000005_000019.html" target="_top" xlink:title="13">
<text text-anchor="middle" x="39.4635" y="-54.3344" font-family="Helvetica,sans-Serif" font-size="10.00" fill="#000000">13</text>
</a>
</g>
</g>
</g>
</svg>
