<?xml version="1.0" encoding="UTF-8" standalone="no"?>
<!DOCTYPE svg PUBLIC "-//W3C//DTD SVG 1.1//EN"
 "http://www.w3.org/Graphics/SVG/1.1/DTD/svg11.dtd">
<!-- Generated by graphviz version 2.40.1 (20161225.0304)
 -->
<!-- Title: src/util Pages: 1 -->
<svg width="382pt" height="159pt"
 viewBox="0.00 0.00 382.00 159.00" xmlns="http://www.w3.org/2000/svg" xmlns:xlink="http://www.w3.org/1999/xlink">
<g id="graph0" class="graph" transform="scale(1 1) rotate(0) translate(4 155)">
<title>src/util</title>
<g id="clust1" class="cluster">
<title>clusterdir_68267d1309a1af8e8297ef4c3efbcdba</title>
<g id="a_clust1"><a xlink:href="dir_68267d1309a1af8e8297ef4c3efbcdba.html" target="_top" xlink:title="src">
<polygon fill="#ddddee" stroke="#000000" points="8,-56 8,-143 312,-143 312,-56 8,-56"/>
<text text-anchor="middle" x="160" y="-131" font-family="Helvetica,sans-Serif" font-size="10.00" fill="#000000">src</text>
</a>
</g>
</g>
<g id="clust2" class="cluster">
<title>clusterdir_b7878ad5ecbf2506f4125b9d34c97e45</title>
<g id="a_clust2"><a xlink:href="dir_b7878ad5ecbf2506f4125b9d34c97e45.html" target="_top">
<polygon fill="#eeeeff" stroke="#000000" points="16,-64 16,-116 304,-116 304,-64 16,-64"/>
</a>
</g>
</g>
<!-- dir_b7878ad5ecbf2506f4125b9d34c97e45 -->
<g id="node1" class="node">
<title>dir_b7878ad5ecbf2506f4125b9d34c97e45</title>
<text text-anchor="middle" x="269" y="-87.5" font-family="Helvetica,sans-Serif" font-size="10.00" fill="#000000">util</text>
</g>
<!-- dir_14e1e259e8275dc0c459acef3bbf05ae -->
<g id="node6" class="node">
<title>dir_14e1e259e8275dc0c459acef3bbf05ae</title>
<g id="a_node6"><a xlink:href="dir_14e1e259e8275dc0c459acef3bbf05ae.html" target="_top" xlink:title="events">
<polygon fill="none" stroke="#000000" points="374,-108 320,-108 320,-72 374,-72 374,-108"/>
<text text-anchor="middle" x="347" y="-87.5" font-family="Helvetica,sans-Serif" font-size="10.00" fill="#000000">events</text>
</a>
</g>
</g>
<!-- dir_b7878ad5ecbf2506f4125b9d34c97e45&#45;&gt;dir_14e1e259e8275dc0c459acef3bbf05ae -->
<g id="edge1" class="edge">
<title>dir_b7878ad5ecbf2506f4125b9d34c97e45&#45;&gt;dir_14e1e259e8275dc0c459acef3bbf05ae</title>
<path fill="none" stroke="#000000" d="M296.1172,-90C300.7135,-90 305.3099,-90 309.9062,-90"/>
<polygon fill="#000000" stroke="#000000" points="309.9685,-93.5001 319.9685,-90 309.9685,-86.5001 309.9685,-93.5001"/>
<g id="a_edge1&#45;headlabel"><a xlink:href="dir_000019_000013.html" target="_top" xlink:title="1">
<text text-anchor="middle" x="306.3739" y="-93.8393" font-family="Helvetica,sans-Serif" font-size="10.00" fill="#000000">1</text>
</a>
</g>
</g>
<!-- dir_3ba48f6c9c3e8bda2e2fbc5c671a7d87 -->
<g id="node2" class="node">
<title>dir_3ba48f6c9c3e8bda2e2fbc5c671a7d87</title>
<g id="a_node2"><a xlink:href="dir_3ba48f6c9c3e8bda2e2fbc5c671a7d87.html" target="_top" xlink:title="android">
<polygon fill="#ffffff" stroke="#000000" points="224,-108 170,-108 170,-72 224,-72 224,-108"/>
<text text-anchor="middle" x="197" y="-87.5" font-family="Helvetica,sans-Serif" font-size="10.00" fill="#000000">android</text>
</a>
</g>
</g>
<!-- dir_2052808828190f934b76e979ee65af8a -->
<g id="node5" class="node">
<title>dir_2052808828190f934b76e979ee65af8a</title>
<g id="a_node5"><a xlink:href="dir_2052808828190f934b76e979ee65af8a.html" target="_top" xlink:title="engine">
<polygon fill="none" stroke="#ff0000" points="187,-36 133,-36 133,0 187,0 187,-36"/>
<text text-anchor="middle" x="160" y="-15.5" font-family="Helvetica,sans-Serif" font-size="10.00" fill="#000000">engine</text>
</a>
</g>
</g>
<!-- dir_3ba48f6c9c3e8bda2e2fbc5c671a7d87&#45;&gt;dir_2052808828190f934b76e979ee65af8a -->
<g id="edge2" class="edge">
<title>dir_3ba48f6c9c3e8bda2e2fbc5c671a7d87&#45;&gt;dir_2052808828190f934b76e979ee65af8a</title>
<path fill="none" stroke="#000000" d="M187.6633,-71.8314C183.5757,-63.8771 178.6896,-54.369 174.1691,-45.5723"/>
<polygon fill="#000000" stroke="#000000" points="177.1461,-43.7078 169.4624,-36.4133 170.9201,-46.9074 177.1461,-43.7078"/>
<g id="a_edge2&#45;headlabel"><a xlink:href="dir_000020_000003.html" target="_top" xlink:title="1">
<text text-anchor="middle" x="181.3144" y="-43.1073" font-family="Helvetica,sans-Serif" font-size="10.00" fill="#000000">1</text>
</a>
</g>
</g>
<!-- dir_e797cb700a546f824b83f46f41f30ca0 -->
<g id="node3" class="node">
<title>dir_e797cb700a546f824b83f46f41f30ca0</title>
<g id="a_node3"><a xlink:href="dir_e797cb700a546f824b83f46f41f30ca0.html" target="_top" xlink:title="desktop">
<polygon fill="#ffffff" stroke="#000000" points="152,-108 96,-108 96,-72 152,-72 152,-108"/>
<text text-anchor="middle" x="124" y="-87.5" font-family="Helvetica,sans-Serif" font-size="10.00" fill="#000000">desktop</text>
</a>
</g>
</g>
<!-- dir_e797cb700a546f824b83f46f41f30ca0&#45;&gt;dir_2052808828190f934b76e979ee65af8a -->
<g id="edge3" class="edge">
<title>dir_e797cb700a546f824b83f46f41f30ca0&#45;&gt;dir_2052808828190f934b76e979ee65af8a</title>
<path fill="none" stroke="#000000" d="M133.0843,-71.8314C137.0615,-63.8771 141.8155,-54.369 146.2139,-45.5723"/>
<polygon fill="#000000" stroke="#000000" points="149.4517,-46.9228 150.7934,-36.4133 143.1907,-43.7923 149.4517,-46.9228"/>
<g id="a_edge3&#45;headlabel"><a xlink:href="dir_000021_000003.html" target="_top" xlink:title="1">
<text text-anchor="middle" x="150.3837" y="-48.9077" font-family="Helvetica,sans-Serif" font-size="10.00" fill="#000000">1</text>
</a>
</g>
</g>
<!-- dir_74577616e9740fdcb630a3667f4491fe -->
<g id="node4" class="node">
<title>dir_74577616e9740fdcb630a3667f4491fe</title>
<g id="a_node4"><a xlink:href="dir_74577616e9740fdcb630a3667f4491fe.html" target="_top" xlink:title="macOS">
<polygon fill="#ffffff" stroke="#000000" points="78,-108 24,-108 24,-72 78,-72 78,-108"/>
<text text-anchor="middle" x="51" y="-87.5" font-family="Helvetica,sans-Serif" font-size="10.00" fill="#000000">macOS</text>
</a>
</g>
</g>
<!-- dir_74577616e9740fdcb630a3667f4491fe&#45;&gt;dir_2052808828190f934b76e979ee65af8a -->
<g id="edge6" class="edge">
<title>dir_74577616e9740fdcb630a3667f4491fe&#45;&gt;dir_2052808828190f934b76e979ee65af8a</title>
<path fill="none" stroke="#000000" d="M68.4592,-71.6624C74.0937,-66.2658 80.5556,-60.5851 87,-56 98.4109,-47.8813 111.7852,-40.409 123.9466,-34.2782"/>
<polygon fill="#000000" stroke="#000000" points="125.5176,-37.4061 132.9575,-29.863 122.4375,-31.1201 125.5176,-37.4061"/>
<g id="a_edge6&#45;headlabel"><a xlink:href="dir_000022_000003.html" target="_top" xlink:title="1">
<text text-anchor="middle" x="123.5389" y="-39.0373" font-family="Helvetica,sans-Serif" font-size="10.00" fill="#000000">1</text>
</a>
</g>
</g>
<!-- dir_14e1e259e8275dc0c459acef3bbf05ae&#45;&gt;dir_b7878ad5ecbf2506f4125b9d34c97e45 -->
<g id="edge5" class="edge">
<title>dir_14e1e259e8275dc0c459acef3bbf05ae&#45;&gt;dir_b7878ad5ecbf2506f4125b9d34c97e45</title>
<path fill="none" stroke="#000000" d="M319.9685,-90C315.3722,-90 310.7758,-90 306.1795,-90"/>
<polygon fill="#000000" stroke="#000000" points="306.1172,-86.5001 296.1172,-90 306.1172,-93.5001 306.1172,-86.5001"/>
<g id="a_edge5&#45;headlabel"><a xlink:href="dir_000013_000019.html" target="_top" xlink:title="2">
<text text-anchor="middle" x="309.7118" y="-81.1607" font-family="Helvetica,sans-Serif" font-size="10.00" fill="#000000">2</text>
</a>
</g>
</g>
<!-- dir_14e1e259e8275dc0c459acef3bbf05ae&#45;&gt;dir_2052808828190f934b76e979ee65af8a -->
<g id="edge4" class="edge">
<title>dir_14e1e259e8275dc0c459acef3bbf05ae&#45;&gt;dir_2052808828190f934b76e979ee65af8a</title>
<path fill="none" stroke="#000000" d="M329.6735,-71.8154C323.3325,-66.0404 315.7911,-60.0975 308,-56 272.7726,-37.4731 227.9998,-27.61 196.9713,-22.6192"/>
<polygon fill="#000000" stroke="#000000" points="197.4209,-19.1475 187.0091,-21.108 196.371,-26.0683 197.4209,-19.1475"/>
<g id="a_edge4&#45;headlabel"><a xlink:href="dir_000013_000003.html" target="_top" xlink:title="2">
<text text-anchor="middle" x="201.4007" y="-14.3793" font-family="Helvetica,sans-Serif" font-size="10.00" fill="#000000">2</text>
</a>
</g>
</g>
</g>
</svg>
