<?xml version="1.0" encoding="UTF-8" standalone="no"?>
<!DOCTYPE svg PUBLIC "-//W3C//DTD SVG 1.1//EN"
 "http://www.w3.org/Graphics/SVG/1.1/DTD/svg11.dtd">
<!-- Generated by graphviz version 2.40.1 (20161225.0304)
 -->
<!-- Title: src/engine/Engine.hxx Pages: 1 -->
<svg width="1263pt" height="420pt"
 viewBox="0.00 0.00 1263.38 420.00" xmlns="http://www.w3.org/2000/svg" xmlns:xlink="http://www.w3.org/1999/xlink">
<g id="graph0" class="graph" transform="scale(1 1) rotate(0) translate(4 416)">
<title>src/engine/Engine.hxx</title>
<!-- Node0 -->
<g id="node1" class="node">
<title>Node0</title>
<polygon fill="#bfbfbf" stroke="#000000" points="910,-392.5 910,-411.5 1034,-411.5 1034,-392.5 910,-392.5"/>
<text text-anchor="middle" x="972" y="-399.5" font-family="Helvetica,sans-Serif" font-size="10.00" fill="#000000">src/engine/Engine.hxx</text>
</g>
<!-- Node1 -->
<g id="node2" class="node">
<title>Node1</title>
<polygon fill="none" stroke="#bfbfbf" points="950,-112.5 950,-131.5 994,-131.5 994,-112.5 950,-112.5"/>
<text text-anchor="middle" x="972" y="-119.5" font-family="Helvetica,sans-Serif" font-size="10.00" fill="#000000">SDL.h</text>
</g>
<!-- Node0&#45;&gt;Node1 -->
<g id="edge1" class="edge">
<title>Node0&#45;&gt;Node1</title>
<path fill="none" stroke="#191970" d="M972,-392.4116C972,-373.0538 972,-327.9167 972,-290 972,-290 972,-290 972,-234 972,-201.7116 972,-164.1872 972,-141.8048"/>
<polygon fill="#191970" stroke="#191970" points="975.5001,-141.5883 972,-131.5884 968.5001,-141.5884 975.5001,-141.5883"/>
</g>
<!-- Node2 -->
<g id="node3" class="node">
<title>Node2</title>
<g id="a_node3"><a xlink:href="WindowManager_8hxx.html" target="_top" xlink:title="WindowManager.hxx">
<polygon fill="none" stroke="#000000" points="1088,-168.5 1088,-187.5 1206,-187.5 1206,-168.5 1088,-168.5"/>
<text text-anchor="middle" x="1147" y="-175.5" font-family="Helvetica,sans-Serif" font-size="10.00" fill="#000000">WindowManager.hxx</text>
</a>
</g>
</g>
<!-- Node0&#45;&gt;Node2 -->
<g id="edge2" class="edge">
<title>Node0&#45;&gt;Node2</title>
<path fill="none" stroke="#191970" d="M979.5195,-392.375C1006.4448,-357.9107 1098.3003,-240.3356 1133.3022,-195.5331"/>
<polygon fill="#191970" stroke="#191970" points="1136.1101,-197.6242 1139.5085,-187.5891 1130.5939,-193.3146 1136.1101,-197.6242"/>
</g>
<!-- Node6 -->
<g id="node7" class="node">
<title>Node6</title>
<g id="a_node7"><a xlink:href="Singleton_8hxx.html" target="_top" xlink:title="../util/Singleton.hxx">
<polygon fill="none" stroke="#000000" points="1012.5,-112.5 1012.5,-131.5 1123.5,-131.5 1123.5,-112.5 1012.5,-112.5"/>
<text text-anchor="middle" x="1068" y="-119.5" font-family="Helvetica,sans-Serif" font-size="10.00" fill="#000000">../util/Singleton.hxx</text>
</a>
</g>
</g>
<!-- Node0&#45;&gt;Node6 -->
<g id="edge42" class="edge">
<title>Node0&#45;&gt;Node6</title>
<path fill="none" stroke="#191970" d="M986.2495,-392.4404C1010.215,-375.092 1056,-335.9375 1056,-290 1056,-290 1056,-290 1056,-234 1056,-201.3778 1061.0954,-163.7135 1064.6456,-141.4301"/>
<polygon fill="#191970" stroke="#191970" points="1068.1007,-141.9887 1066.2807,-131.5514 1061.1947,-140.8456 1068.1007,-141.9887"/>
</g>
<!-- Node7 -->
<g id="node8" class="node">
<title>Node7</title>
<g id="a_node8"><a xlink:href="point_8hxx.html" target="_top" xlink:title="basics/point.hxx">
<polygon fill="none" stroke="#000000" points="104,-112.5 104,-131.5 200,-131.5 200,-112.5 104,-112.5"/>
<text text-anchor="middle" x="152" y="-119.5" font-family="Helvetica,sans-Serif" font-size="10.00" fill="#000000">basics/point.hxx</text>
</a>
</g>
</g>
<!-- Node0&#45;&gt;Node7 -->
<g id="edge8" class="edge">
<title>Node0&#45;&gt;Node7</title>
<path fill="none" stroke="#191970" d="M909.9943,-401.0973C701.3894,-397.2494 38,-378.0877 38,-290 38,-290 38,-290 38,-234 38,-187.4628 86.9383,-153.828 120.6864,-136.1659"/>
<polygon fill="#191970" stroke="#191970" points="122.3862,-139.2289 129.749,-131.6105 119.2424,-132.9746 122.3862,-139.2289"/>
</g>
<!-- Node8 -->
<g id="node9" class="node">
<title>Node8</title>
<g id="a_node9"><a xlink:href="Map_8hxx.html" target="_top" xlink:title="Map.hxx">
<polygon fill="none" stroke="#000000" points="308,-336.5 308,-355.5 366,-355.5 366,-336.5 308,-336.5"/>
<text text-anchor="middle" x="337" y="-343.5" font-family="Helvetica,sans-Serif" font-size="10.00" fill="#000000">Map.hxx</text>
</a>
</g>
</g>
<!-- Node0&#45;&gt;Node8 -->
<g id="edge9" class="edge">
<title>Node0&#45;&gt;Node8</title>
<path fill="none" stroke="#191970" d="M909.9573,-396.5285C780.0896,-385.0756 482.8286,-358.8605 376.0734,-349.4458"/>
<polygon fill="#191970" stroke="#191970" points="376.3244,-345.9545 366.0556,-348.5624 375.7094,-352.9274 376.3244,-345.9545"/>
</g>
<!-- Node2&#45;&gt;Node1 -->
<g id="edge6" class="edge">
<title>Node2&#45;&gt;Node1</title>
<path fill="none" stroke="#191970" d="M1116.9297,-168.4216C1089.7273,-159.7507 1048.3196,-146.5369 1003.6016,-132.1875"/>
<polygon fill="#191970" stroke="#191970" points="1004.6042,-128.8335 994.013,-129.1095 1002.4646,-135.4985 1004.6042,-128.8335"/>
</g>
<!-- Node3 -->
<g id="node4" class="node">
<title>Node3</title>
<polygon fill="none" stroke="#bfbfbf" points="715,-56.5 715,-75.5 759,-75.5 759,-56.5 715,-56.5"/>
<text text-anchor="middle" x="737" y="-63.5" font-family="Helvetica,sans-Serif" font-size="10.00" fill="#000000">string</text>
</g>
<!-- Node2&#45;&gt;Node3 -->
<g id="edge3" class="edge">
<title>Node2&#45;&gt;Node3</title>
<path fill="none" stroke="#191970" d="M1186.0946,-168.4466C1223.9145,-157.4365 1272.3396,-137.5305 1249,-112 1216.6162,-76.5763 877.1453,-68.205 769.5325,-66.4346"/>
<polygon fill="#191970" stroke="#191970" points="769.3408,-62.9312 759.2873,-66.2747 769.2315,-69.9304 769.3408,-62.9312"/>
</g>
<!-- Node4 -->
<g id="node5" class="node">
<title>Node4</title>
<polygon fill="none" stroke="#bfbfbf" points="1180,-112.5 1180,-131.5 1240,-131.5 1240,-112.5 1180,-112.5"/>
<text text-anchor="middle" x="1210" y="-119.5" font-family="Helvetica,sans-Serif" font-size="10.00" fill="#000000">iostream</text>
</g>
<!-- Node2&#45;&gt;Node4 -->
<g id="edge4" class="edge">
<title>Node2&#45;&gt;Node4</title>
<path fill="none" stroke="#191970" d="M1157.9738,-168.2455C1167.1882,-160.0549 1180.5532,-148.1749 1191.4297,-138.5069"/>
<polygon fill="#191970" stroke="#191970" points="1194.0032,-140.9023 1199.152,-131.6427 1189.3526,-135.6704 1194.0032,-140.9023"/>
</g>
<!-- Node5 -->
<g id="node6" class="node">
<title>Node5</title>
<polygon fill="none" stroke="#bfbfbf" points="288.5,-56.5 288.5,-75.5 335.5,-75.5 335.5,-56.5 288.5,-56.5"/>
<text text-anchor="middle" x="312" y="-63.5" font-family="Helvetica,sans-Serif" font-size="10.00" fill="#000000">vector</text>
</g>
<!-- Node2&#45;&gt;Node5 -->
<g id="edge5" class="edge">
<title>Node2&#45;&gt;Node5</title>
<path fill="none" stroke="#191970" d="M1148.076,-168.084C1149.0639,-153.2924 1148.402,-125.7235 1132,-112 1065.4602,-56.3263 437.8416,-88.5832 352,-76 349.8133,-75.6795 347.5722,-75.2908 345.3217,-74.8551"/>
<polygon fill="#191970" stroke="#191970" points="346.0513,-71.432 335.5337,-72.709 344.552,-78.2695 346.0513,-71.432"/>
</g>
<!-- Node2&#45;&gt;Node6 -->
<g id="edge7" class="edge">
<title>Node2&#45;&gt;Node6</title>
<path fill="none" stroke="#191970" d="M1133.2393,-168.2455C1121.3448,-159.814 1103.935,-147.4729 1090.0915,-137.6598"/>
<polygon fill="#191970" stroke="#191970" points="1091.7854,-134.5704 1081.6031,-131.6427 1087.7372,-140.2811 1091.7854,-134.5704"/>
</g>
<!-- Node8&#45;&gt;Node5 -->
<g id="edge10" class="edge">
<title>Node8&#45;&gt;Node5</title>
<path fill="none" stroke="#191970" d="M307.9759,-342.6853C226.2319,-332.55 0,-298.6591 0,-234 0,-234 0,-234 0,-178 0,-131.5625 38.9883,-131.7853 81,-112 146.3814,-81.2088 231.5842,-71.0082 278.0794,-67.6433"/>
<polygon fill="#191970" stroke="#191970" points="278.4644,-71.1256 288.2123,-66.9749 278.0036,-64.1408 278.4644,-71.1256"/>
</g>
<!-- Node9 -->
<g id="node10" class="node">
<title>Node9</title>
<polygon fill="none" stroke="#bfbfbf" points="365,-280.5 365,-299.5 419,-299.5 419,-280.5 365,-280.5"/>
<text text-anchor="middle" x="392" y="-287.5" font-family="Helvetica,sans-Serif" font-size="10.00" fill="#000000">random</text>
</g>
<!-- Node8&#45;&gt;Node9 -->
<g id="edge11" class="edge">
<title>Node8&#45;&gt;Node9</title>
<path fill="none" stroke="#191970" d="M346.5803,-336.2455C354.5458,-328.1352 366.0641,-316.4075 375.5079,-306.7919"/>
<polygon fill="#191970" stroke="#191970" points="378.0195,-309.2297 382.5295,-299.6427 373.0253,-304.3247 378.0195,-309.2297"/>
</g>
<!-- Node10 -->
<g id="node11" class="node">
<title>Node10</title>
<g id="a_node11"><a xlink:href="MapNode_8hxx.html" target="_top" xlink:title="GameObjects/MapNode.hxx">
<polygon fill="none" stroke="#000000" points="267,-224.5 267,-243.5 419,-243.5 419,-224.5 267,-224.5"/>
<text text-anchor="middle" x="343" y="-231.5" font-family="Helvetica,sans-Serif" font-size="10.00" fill="#000000">GameObjects/MapNode.hxx</text>
</a>
</g>
</g>
<!-- Node8&#45;&gt;Node10 -->
<g id="edge12" class="edge">
<title>Node8&#45;&gt;Node10</title>
<path fill="none" stroke="#191970" d="M337.5116,-336.4509C338.4901,-318.184 340.6453,-277.9553 341.9448,-253.6976"/>
<polygon fill="#191970" stroke="#191970" points="345.4497,-253.6978 342.4897,-243.5249 338.4597,-253.3233 345.4497,-253.6978"/>
</g>
<!-- Node22 -->
<g id="node23" class="node">
<title>Node22</title>
<g id="a_node23"><a xlink:href="TerrainGenerator_8hxx.html" target="_top" xlink:title="map/TerrainGenerator.hxx">
<polygon fill="none" stroke="#000000" points="161.5,-280.5 161.5,-299.5 304.5,-299.5 304.5,-280.5 161.5,-280.5"/>
<text text-anchor="middle" x="233" y="-287.5" font-family="Helvetica,sans-Serif" font-size="10.00" fill="#000000">map/TerrainGenerator.hxx</text>
</a>
</g>
</g>
<!-- Node8&#45;&gt;Node22 -->
<g id="edge38" class="edge">
<title>Node8&#45;&gt;Node22</title>
<path fill="none" stroke="#191970" d="M318.8846,-336.2455C302.555,-327.4527 278.329,-314.4079 259.7661,-304.4125"/>
<polygon fill="#191970" stroke="#191970" points="261.3719,-301.3021 250.9078,-299.6427 258.0532,-307.4654 261.3719,-301.3021"/>
</g>
<!-- Node10&#45;&gt;Node1 -->
<g id="edge13" class="edge">
<title>Node10&#45;&gt;Node1</title>
<path fill="none" stroke="#191970" d="M419.3066,-230.9889C541.1822,-225.5301 774.0763,-212.2557 853,-188 889.6818,-176.7265 927.7243,-153.1868 950.632,-137.4862"/>
<polygon fill="#191970" stroke="#191970" points="952.7253,-140.2932 958.9159,-131.6951 948.7146,-134.5561 952.7253,-140.2932"/>
</g>
<!-- Node10&#45;&gt;Node3 -->
<g id="edge15" class="edge">
<title>Node10&#45;&gt;Node3</title>
<path fill="none" stroke="#191970" d="M364.4326,-224.43C384.249,-215.4423 414.4107,-201.4071 440,-188 469.982,-172.2914 540.7865,-125.0919 572,-112 616.6106,-93.2889 671.1505,-79.7834 704.9879,-72.423"/>
<polygon fill="#191970" stroke="#191970" points="705.7381,-75.8418 714.7906,-70.337 704.2811,-68.9951 705.7381,-75.8418"/>
</g>
<!-- Node10&#45;&gt;Node5 -->
<g id="edge17" class="edge">
<title>Node10&#45;&gt;Node5</title>
<path fill="none" stroke="#191970" d="M339.5434,-224.248C336.3886,-215.0169 331.8031,-200.7173 329,-188 321.1319,-152.3032 316.1919,-109.886 313.7776,-85.6369"/>
<polygon fill="#191970" stroke="#191970" points="317.2523,-85.2044 312.8189,-75.5818 310.2839,-85.8689 317.2523,-85.2044"/>
</g>
<!-- Node10&#45;&gt;Node7 -->
<g id="edge26" class="edge">
<title>Node10&#45;&gt;Node7</title>
<path fill="none" stroke="#191970" d="M281.3237,-224.4877C222.7993,-214.8334 142.403,-199.6857 133,-188 121.9626,-174.2832 129.9785,-154.4329 138.7403,-140.0877"/>
<polygon fill="#191970" stroke="#191970" points="141.7798,-141.8381 144.413,-131.5757 135.9548,-137.9561 141.7798,-141.8381"/>
</g>
<!-- Node11 -->
<g id="node12" class="node">
<title>Node11</title>
<polygon fill="none" stroke="#bfbfbf" points="142,-168.5 142,-187.5 200,-187.5 200,-168.5 142,-168.5"/>
<text text-anchor="middle" x="171" y="-175.5" font-family="Helvetica,sans-Serif" font-size="10.00" fill="#000000">memory</text>
</g>
<!-- Node10&#45;&gt;Node11 -->
<g id="edge14" class="edge">
<title>Node10&#45;&gt;Node11</title>
<path fill="none" stroke="#191970" d="M313.4321,-224.3733C284.8312,-215.0613 241.3212,-200.8953 209.9181,-190.671"/>
<polygon fill="#191970" stroke="#191970" points="210.7743,-187.269 200.182,-187.5011 208.6072,-193.9251 210.7743,-187.269"/>
</g>
<!-- Node12 -->
<g id="node13" class="node">
<title>Node12</title>
<polygon fill="none" stroke="#bfbfbf" points="218,-168.5 218,-187.5 282,-187.5 282,-168.5 218,-168.5"/>
<text text-anchor="middle" x="250" y="-175.5" font-family="Helvetica,sans-Serif" font-size="10.00" fill="#000000">algorithm</text>
</g>
<!-- Node10&#45;&gt;Node12 -->
<g id="edge16" class="edge">
<title>Node10&#45;&gt;Node12</title>
<path fill="none" stroke="#191970" d="M326.8006,-224.2455C312.3982,-215.5731 291.1268,-202.7645 274.6201,-192.825"/>
<polygon fill="#191970" stroke="#191970" points="276.386,-189.8028 266.0137,-187.6427 272.775,-195.7996 276.386,-189.8028"/>
</g>
<!-- Node13 -->
<g id="node14" class="node">
<title>Node13</title>
<g id="a_node14"><a xlink:href="Sprite_8hxx.html" target="_top" xlink:title="../Sprite.hxx">
<polygon fill="none" stroke="#000000" points="338.5,-168.5 338.5,-187.5 413.5,-187.5 413.5,-168.5 338.5,-168.5"/>
<text text-anchor="middle" x="376" y="-175.5" font-family="Helvetica,sans-Serif" font-size="10.00" fill="#000000">../Sprite.hxx</text>
</a>
</g>
</g>
<!-- Node10&#45;&gt;Node13 -->
<g id="edge18" class="edge">
<title>Node10&#45;&gt;Node13</title>
<path fill="none" stroke="#191970" d="M348.7482,-224.2455C353.2435,-216.617 359.6248,-205.7881 365.0825,-196.5267"/>
<polygon fill="#191970" stroke="#191970" points="368.2561,-198.035 370.3177,-187.6427 362.2253,-194.4811 368.2561,-198.035"/>
</g>
<!-- Node14 -->
<g id="node15" class="node">
<title>Node14</title>
<g id="a_node15"><a xlink:href="enums_8hxx.html" target="_top" xlink:title="common/enums.hxx">
<polygon fill="none" stroke="#000000" points="361,-56.5 361,-75.5 477,-75.5 477,-56.5 361,-56.5"/>
<text text-anchor="middle" x="419" y="-63.5" font-family="Helvetica,sans-Serif" font-size="10.00" fill="#000000">common/enums.hxx</text>
</a>
</g>
</g>
<!-- Node10&#45;&gt;Node14 -->
<g id="edge25" class="edge">
<title>Node10&#45;&gt;Node14</title>
<path fill="none" stroke="#191970" d="M374.5032,-224.3744C391.8159,-217.2912 411.796,-205.7494 422,-188 440.3968,-155.9996 432.3646,-111.0517 425.3553,-85.5995"/>
<polygon fill="#191970" stroke="#191970" points="428.6109,-84.2691 422.3996,-75.686 421.9027,-86.2692 428.6109,-84.2691"/>
</g>
<!-- Node17 -->
<g id="node18" class="node">
<title>Node17</title>
<g id="a_node18"><a xlink:href="TileManager_8hxx.html" target="_top" xlink:title="../TileManager.hxx">
<polygon fill="none" stroke="#000000" points="738,-168.5 738,-187.5 844,-187.5 844,-168.5 738,-168.5"/>
<text text-anchor="middle" x="791" y="-175.5" font-family="Helvetica,sans-Serif" font-size="10.00" fill="#000000">../TileManager.hxx</text>
</a>
</g>
</g>
<!-- Node10&#45;&gt;Node17 -->
<g id="edge27" class="edge">
<title>Node10&#45;&gt;Node17</title>
<path fill="none" stroke="#191970" d="M419.2508,-224.4686C506.2008,-213.5999 646.7641,-196.0295 727.8424,-185.8947"/>
<polygon fill="#191970" stroke="#191970" points="728.4216,-189.3496 737.9102,-184.6362 727.5533,-182.4037 728.4216,-189.3496"/>
</g>
<!-- Node13&#45;&gt;Node1 -->
<g id="edge19" class="edge">
<title>Node13&#45;&gt;Node1</title>
<path fill="none" stroke="#191970" d="M413.7771,-175.4434C500.4239,-169.4177 720.0857,-153.2202 903,-132 915.0594,-130.601 928.2606,-128.7632 939.8578,-127.0453"/>
<polygon fill="#191970" stroke="#191970" points="940.6133,-130.471 949.9787,-125.5173 939.5682,-123.5494 940.6133,-130.471"/>
</g>
<!-- Node13&#45;&gt;Node5 -->
<g id="edge20" class="edge">
<title>Node13&#45;&gt;Node5</title>
<path fill="none" stroke="#191970" d="M370.5434,-168.4509C359.9162,-149.8533 336.2811,-108.4919 322.5122,-84.3964"/>
<polygon fill="#191970" stroke="#191970" points="325.4431,-82.4708 317.4428,-75.5249 319.3654,-85.9438 325.4431,-82.4708"/>
</g>
<!-- Node13&#45;&gt;Node7 -->
<g id="edge21" class="edge">
<title>Node13&#45;&gt;Node7</title>
<path fill="none" stroke="#191970" d="M338.2548,-168.5637C300.2431,-159.0608 241.463,-144.3657 200.1237,-134.0309"/>
<polygon fill="#191970" stroke="#191970" points="200.8256,-130.5988 190.2753,-131.5688 199.1278,-137.3898 200.8256,-130.5988"/>
</g>
<!-- Node13&#45;&gt;Node14 -->
<g id="edge22" class="edge">
<title>Node13&#45;&gt;Node14</title>
<path fill="none" stroke="#191970" d="M379.6662,-168.4509C386.7428,-150.0186 402.4045,-109.2254 411.6888,-85.043"/>
<polygon fill="#191970" stroke="#191970" points="415.0263,-86.115 415.3431,-75.5249 408.4914,-83.606 415.0263,-86.115"/>
</g>
<!-- Node15 -->
<g id="node16" class="node">
<title>Node15</title>
<polygon fill="none" stroke="#bfbfbf" points="343,-.5 343,-19.5 399,-19.5 399,-.5 343,-.5"/>
<text text-anchor="middle" x="371" y="-7.5" font-family="Helvetica,sans-Serif" font-size="10.00" fill="#000000">stddef.h</text>
</g>
<!-- Node14&#45;&gt;Node15 -->
<g id="edge23" class="edge">
<title>Node14&#45;&gt;Node15</title>
<path fill="none" stroke="#191970" d="M410.639,-56.2455C403.825,-48.2958 394.0319,-36.8706 385.8848,-27.3656"/>
<polygon fill="#191970" stroke="#191970" points="388.4305,-24.9575 379.2651,-19.6427 383.1157,-29.513 388.4305,-24.9575"/>
</g>
<!-- Node16 -->
<g id="node17" class="node">
<title>Node16</title>
<polygon fill="none" stroke="#bfbfbf" points="417,-.5 417,-19.5 517,-19.5 517,-.5 417,-.5"/>
<text text-anchor="middle" x="467" y="-7.5" font-family="Helvetica,sans-Serif" font-size="10.00" fill="#000000">betterEnums.hxx</text>
</g>
<!-- Node14&#45;&gt;Node16 -->
<g id="edge24" class="edge">
<title>Node14&#45;&gt;Node16</title>
<path fill="none" stroke="#191970" d="M427.361,-56.2455C434.175,-48.2958 443.9681,-36.8706 452.1152,-27.3656"/>
<polygon fill="#191970" stroke="#191970" points="454.8843,-29.513 458.7349,-19.6427 449.5695,-24.9575 454.8843,-29.513"/>
</g>
<!-- Node17&#45;&gt;Node1 -->
<g id="edge28" class="edge">
<title>Node17&#45;&gt;Node1</title>
<path fill="none" stroke="#191970" d="M822.115,-168.3733C855.0908,-158.1708 906.9,-142.1414 940.1518,-131.8536"/>
<polygon fill="#191970" stroke="#191970" points="941.3155,-135.1573 949.8342,-128.8579 939.2464,-128.4701 941.3155,-135.1573"/>
</g>
<!-- Node17&#45;&gt;Node3 -->
<g id="edge30" class="edge">
<title>Node17&#45;&gt;Node3</title>
<path fill="none" stroke="#191970" d="M838.675,-168.4837C878.0619,-158.4019 924.3142,-140.0238 903,-112 886.8604,-90.7798 812.6786,-76.8046 769.1342,-70.276"/>
<polygon fill="#191970" stroke="#191970" points="769.4363,-66.7833 759.0377,-68.8131 768.4324,-73.711 769.4363,-66.7833"/>
</g>
<!-- Node17&#45;&gt;Node6 -->
<g id="edge36" class="edge">
<title>Node17&#45;&gt;Node6</title>
<path fill="none" stroke="#191970" d="M838.3033,-168.4369C886.108,-158.7724 960.0068,-143.8326 1011.0108,-133.5213"/>
<polygon fill="#191970" stroke="#191970" points="1011.7837,-136.9359 1020.8918,-131.5237 1010.3966,-130.0747 1011.7837,-136.9359"/>
</g>
<!-- Node18 -->
<g id="node19" class="node">
<title>Node18</title>
<polygon fill="none" stroke="#bfbfbf" points="724.5,-112.5 724.5,-131.5 817.5,-131.5 817.5,-112.5 724.5,-112.5"/>
<text text-anchor="middle" x="771" y="-119.5" font-family="Helvetica,sans-Serif" font-size="10.00" fill="#000000">unordered_map</text>
</g>
<!-- Node17&#45;&gt;Node18 -->
<g id="edge29" class="edge">
<title>Node17&#45;&gt;Node18</title>
<path fill="none" stroke="#191970" d="M787.5163,-168.2455C784.8492,-160.7776 781.0867,-150.2427 777.8263,-141.1137"/>
<polygon fill="#191970" stroke="#191970" points="781.1033,-139.8829 774.4438,-131.6427 774.5111,-142.2373 781.1033,-139.8829"/>
</g>
<!-- Node19 -->
<g id="node20" class="node">
<title>Node19</title>
<g id="a_node20"><a xlink:href="tileData_8hxx.html" target="_top" xlink:title="tileData.hxx">
<polygon fill="none" stroke="#000000" points="447.5,-112.5 447.5,-131.5 524.5,-131.5 524.5,-112.5 447.5,-112.5"/>
<text text-anchor="middle" x="486" y="-119.5" font-family="Helvetica,sans-Serif" font-size="10.00" fill="#000000">tileData.hxx</text>
</a>
</g>
</g>
<!-- Node17&#45;&gt;Node19 -->
<g id="edge31" class="edge">
<title>Node17&#45;&gt;Node19</title>
<path fill="none" stroke="#191970" d="M738.9152,-168.4369C681.7342,-157.9381 590.6469,-141.2139 534.804,-130.9607"/>
<polygon fill="#191970" stroke="#191970" points="535.2709,-127.488 524.8032,-129.1245 534.0067,-134.3729 535.2709,-127.488"/>
</g>
<!-- Node20 -->
<g id="node21" class="node">
<title>Node20</title>
<polygon fill="none" stroke="#bfbfbf" points="836,-112.5 836,-131.5 894,-131.5 894,-112.5 836,-112.5"/>
<text text-anchor="middle" x="865" y="-119.5" font-family="Helvetica,sans-Serif" font-size="10.00" fill="#000000">json.hxx</text>
</g>
<!-- Node17&#45;&gt;Node20 -->
<g id="edge35" class="edge">
<title>Node17&#45;&gt;Node20</title>
<path fill="none" stroke="#191970" d="M803.8898,-168.2455C814.9254,-159.8943 831.0292,-147.7076 843.9353,-137.9408"/>
<polygon fill="#191970" stroke="#191970" points="846.3959,-140.4681 852.2579,-131.6427 842.1717,-134.8862 846.3959,-140.4681"/>
</g>
<!-- Node21 -->
<g id="node22" class="node">
<title>Node21</title>
<polygon fill="none" stroke="#bfbfbf" points="581.5,-112.5 581.5,-131.5 706.5,-131.5 706.5,-112.5 581.5,-112.5"/>
<text text-anchor="middle" x="644" y="-119.5" font-family="Helvetica,sans-Serif" font-size="10.00" fill="#000000">../common/enums.hxx</text>
</g>
<!-- Node17&#45;&gt;Node21 -->
<g id="edge37" class="edge">
<title>Node17&#45;&gt;Node21</title>
<path fill="none" stroke="#191970" d="M765.7298,-168.3733C741.6034,-159.1822 705.0638,-145.2624 678.3123,-135.0713"/>
<polygon fill="#191970" stroke="#191970" points="679.5313,-131.7904 668.9404,-131.5011 677.0393,-138.3318 679.5313,-131.7904"/>
</g>
<!-- Node19&#45;&gt;Node3 -->
<g id="edge32" class="edge">
<title>Node19&#45;&gt;Node3</title>
<path fill="none" stroke="#191970" d="M524.6687,-113.3727C574.041,-102.3574 658.5803,-83.496 704.6878,-73.2091"/>
<polygon fill="#191970" stroke="#191970" points="705.7301,-76.5627 714.728,-70.9691 704.2058,-69.7307 705.7301,-76.5627"/>
</g>
<!-- Node19&#45;&gt;Node5 -->
<g id="edge33" class="edge">
<title>Node19&#45;&gt;Node5</title>
<path fill="none" stroke="#191970" d="M456.0883,-112.3733C425.3136,-102.4687 377.4758,-87.0727 345.4617,-76.7693"/>
<polygon fill="#191970" stroke="#191970" points="346.2567,-73.3484 335.6652,-73.6164 344.1121,-80.0118 346.2567,-73.3484"/>
</g>
<!-- Node19&#45;&gt;Node14 -->
<g id="edge34" class="edge">
<title>Node19&#45;&gt;Node14</title>
<path fill="none" stroke="#191970" d="M474.3295,-112.2455C464.4339,-103.9746 450.0373,-91.9416 438.4099,-82.2232"/>
<polygon fill="#191970" stroke="#191970" points="440.4542,-79.3703 430.5368,-75.6427 435.965,-84.7413 440.4542,-79.3703"/>
</g>
<!-- Node22&#45;&gt;Node5 -->
<g id="edge41" class="edge">
<title>Node22&#45;&gt;Node5</title>
<path fill="none" stroke="#191970" d="M215.2091,-280.4322C167.4938,-253.5804 43.6753,-175.3451 95,-112 117.6718,-84.0184 223.0425,-72.3699 278.1727,-68.1244"/>
<polygon fill="#191970" stroke="#191970" points="278.7708,-71.5902 288.4894,-67.3714 278.2612,-64.6087 278.7708,-71.5902"/>
</g>
<!-- Node22&#45;&gt;Node10 -->
<g id="edge39" class="edge">
<title>Node22&#45;&gt;Node10</title>
<path fill="none" stroke="#191970" d="M252.1605,-280.2455C269.5111,-271.4125 295.2901,-258.2887 314.9583,-248.2758"/>
<polygon fill="#191970" stroke="#191970" points="316.7353,-251.2986 324.059,-243.6427 313.5595,-245.0605 316.7353,-251.2986"/>
</g>
<!-- Node23 -->
<g id="node24" class="node">
<title>Node23</title>
<polygon fill="none" stroke="#bfbfbf" points="211,-224.5 211,-243.5 249,-243.5 249,-224.5 211,-224.5"/>
<text text-anchor="middle" x="230" y="-231.5" font-family="Helvetica,sans-Serif" font-size="10.00" fill="#000000">map</text>
</g>
<!-- Node22&#45;&gt;Node23 -->
<g id="edge40" class="edge">
<title>Node22&#45;&gt;Node23</title>
<path fill="none" stroke="#191970" d="M232.4774,-280.2455C232.086,-272.9382 231.5372,-262.6944 231.0556,-253.7046"/>
<polygon fill="#191970" stroke="#191970" points="234.5466,-253.4411 230.5166,-243.6427 227.5566,-253.8156 234.5466,-253.4411"/>
</g>
</g>
</svg>
