<?xml version="1.0" encoding="UTF-8" standalone="no"?>
<!DOCTYPE svg PUBLIC "-//W3C//DTD SVG 1.1//EN"
 "http://www.w3.org/Graphics/SVG/1.1/DTD/svg11.dtd">
<!-- Generated by graphviz version 2.40.1 (20161225.0304)
 -->
<!-- Title: src/engine/Engine.cxx Pages: 1 -->
<svg width="2175pt" height="476pt"
 viewBox="0.00 0.00 2174.50 476.00" xmlns="http://www.w3.org/2000/svg" xmlns:xlink="http://www.w3.org/1999/xlink">
<g id="graph0" class="graph" transform="scale(1 1) rotate(0) translate(4 472)">
<title>src/engine/Engine.cxx</title>
<!-- Node0 -->
<g id="node1" class="node">
<title>Node0</title>
<polygon fill="#bfbfbf" stroke="#000000" points="1055.5,-448.5 1055.5,-467.5 1178.5,-467.5 1178.5,-448.5 1055.5,-448.5"/>
<text text-anchor="middle" x="1117" y="-455.5" font-family="Helvetica,sans-Serif" font-size="10.00" fill="#000000">src/engine/Engine.cxx</text>
</g>
<!-- Node1 -->
<g id="node2" class="node">
<title>Node1</title>
<g id="a_node2"><a xlink:href="Engine_8hxx.html" target="_top" xlink:title="Engine.hxx">
<polygon fill="none" stroke="#000000" points="764.5,-392.5 764.5,-411.5 835.5,-411.5 835.5,-392.5 764.5,-392.5"/>
<text text-anchor="middle" x="800" y="-399.5" font-family="Helvetica,sans-Serif" font-size="10.00" fill="#000000">Engine.hxx</text>
</a>
</g>
</g>
<!-- Node0&#45;&gt;Node1 -->
<g id="edge1" class="edge">
<title>Node0&#45;&gt;Node1</title>
<path fill="none" stroke="#191970" d="M1062.8659,-448.4369C1001.6438,-437.6216 903.0246,-420.1999 845.5773,-410.0515"/>
<polygon fill="#191970" stroke="#191970" points="846.1484,-406.5983 835.692,-408.3052 844.9306,-413.4915 846.1484,-406.5983"/>
</g>
<!-- Node25 -->
<g id="node26" class="node">
<title>Node25</title>
<g id="a_node26"><a xlink:href="Camera_8hxx.html" target="_top" xlink:title="basics/Camera.hxx">
<polygon fill="none" stroke="#000000" points="745,-168.5 745,-187.5 855,-187.5 855,-168.5 745,-168.5"/>
<text text-anchor="middle" x="800" y="-175.5" font-family="Helvetica,sans-Serif" font-size="10.00" fill="#000000">basics/Camera.hxx</text>
</a>
</g>
</g>
<!-- Node0&#45;&gt;Node25 -->
<g id="edge44" class="edge">
<title>Node0&#45;&gt;Node25</title>
<path fill="none" stroke="#191970" d="M1106.0881,-448.3618C1059.6008,-407.3004 877.7594,-246.6834 818.6637,-194.4852"/>
<polygon fill="#191970" stroke="#191970" points="820.678,-191.5946 810.866,-187.5977 816.0439,-196.8411 820.678,-191.5946"/>
</g>
<!-- Node26 -->
<g id="node27" class="node">
<title>Node26</title>
<g id="a_node27"><a xlink:href="mapEdit_8hxx.html" target="_top" xlink:title="basics/mapEdit.hxx">
<polygon fill="none" stroke="#000000" points="1269,-336.5 1269,-355.5 1381,-355.5 1381,-336.5 1269,-336.5"/>
<text text-anchor="middle" x="1325" y="-343.5" font-family="Helvetica,sans-Serif" font-size="10.00" fill="#000000">basics/mapEdit.hxx</text>
</a>
</g>
</g>
<!-- Node0&#45;&gt;Node26 -->
<g id="edge48" class="edge">
<title>Node0&#45;&gt;Node26</title>
<path fill="none" stroke="#191970" d="M1140.2615,-448.3908C1160.9933,-439.5957 1191.9897,-425.8748 1218,-412 1247.9935,-396.0005 1281.0969,-375.0393 1302.424,-361.076"/>
<polygon fill="#191970" stroke="#191970" points="1304.3767,-363.9809 1310.7999,-355.5551 1300.5243,-358.1363 1304.3767,-363.9809"/>
</g>
<!-- Node27 -->
<g id="node28" class="node">
<title>Node27</title>
<g id="a_node28"><a xlink:href="Settings_8hxx.html" target="_top" xlink:title="basics/Settings.hxx">
<polygon fill="none" stroke="#000000" points="1166.5,-224.5 1166.5,-243.5 1277.5,-243.5 1277.5,-224.5 1166.5,-224.5"/>
<text text-anchor="middle" x="1222" y="-231.5" font-family="Helvetica,sans-Serif" font-size="10.00" fill="#000000">basics/Settings.hxx</text>
</a>
</g>
</g>
<!-- Node0&#45;&gt;Node27 -->
<g id="edge50" class="edge">
<title>Node0&#45;&gt;Node27</title>
<path fill="none" stroke="#191970" d="M1121.5117,-448.375C1137.5323,-414.1979 1191.8643,-298.2894 1213.2492,-252.6683"/>
<polygon fill="#191970" stroke="#191970" points="1216.4298,-254.1293 1217.5051,-243.5891 1210.0916,-251.1582 1216.4298,-254.1293"/>
</g>
<!-- Node33 -->
<g id="node34" class="node">
<title>Node33</title>
<g id="a_node34"><a xlink:href="ResourcesManager_8hxx.html" target="_top" xlink:title="ResourcesManager.hxx">
<polygon fill="none" stroke="#000000" points="561,-224.5 561,-243.5 689,-243.5 689,-224.5 561,-224.5"/>
<text text-anchor="middle" x="625" y="-231.5" font-family="Helvetica,sans-Serif" font-size="10.00" fill="#000000">ResourcesManager.hxx</text>
</a>
</g>
</g>
<!-- Node0&#45;&gt;Node33 -->
<g id="edge60" class="edge">
<title>Node0&#45;&gt;Node33</title>
<path fill="none" stroke="#191970" d="M1055.4956,-455.2328C966.2873,-450.3748 806.0728,-438.227 755,-412 688.4128,-377.806 647.6839,-291.9424 632.1734,-253.3346"/>
<polygon fill="#191970" stroke="#191970" points="635.3469,-251.8376 628.4669,-243.7806 628.8208,-254.3695 635.3469,-251.8376"/>
</g>
<!-- Node34 -->
<g id="node35" class="node">
<title>Node34</title>
<g id="a_node35"><a xlink:href="LOG_8hxx.html" target="_top" xlink:title="../util/LOG.hxx">
<polygon fill="none" stroke="#000000" points="1598,-224.5 1598,-243.5 1684,-243.5 1684,-224.5 1598,-224.5"/>
<text text-anchor="middle" x="1641" y="-231.5" font-family="Helvetica,sans-Serif" font-size="10.00" fill="#000000">../util/LOG.hxx</text>
</a>
</g>
</g>
<!-- Node0&#45;&gt;Node34 -->
<g id="edge65" class="edge">
<title>Node0&#45;&gt;Node34</title>
<path fill="none" stroke="#191970" d="M1145.2207,-448.4366C1171.8263,-439.3387 1212.7636,-425.1292 1248,-412 1311.5719,-388.3129 1327.8908,-383.2931 1390,-356 1472.6163,-319.6953 1567.8786,-271.6398 1613.6549,-248.1489"/>
<polygon fill="#191970" stroke="#191970" points="1615.3581,-251.2088 1622.6496,-243.5222 1612.1561,-244.984 1615.3581,-251.2088"/>
</g>
<!-- Node2 -->
<g id="node3" class="node">
<title>Node2</title>
<polygon fill="none" stroke="#bfbfbf" points="798,-112.5 798,-131.5 842,-131.5 842,-112.5 798,-112.5"/>
<text text-anchor="middle" x="820" y="-119.5" font-family="Helvetica,sans-Serif" font-size="10.00" fill="#000000">SDL.h</text>
</g>
<!-- Node1&#45;&gt;Node2 -->
<g id="edge2" class="edge">
<title>Node1&#45;&gt;Node2</title>
<path fill="none" stroke="#191970" d="M785.9202,-392.4001C762.2399,-374.9894 717,-335.7414 717,-290 717,-290 717,-290 717,-234 717,-203.4754 716.9243,-191.83 736,-168 749.4136,-151.2433 770.6594,-139.6891 788.4273,-132.3515"/>
<polygon fill="#191970" stroke="#191970" points="789.8029,-135.5723 797.8688,-128.7027 787.2794,-129.043 789.8029,-135.5723"/>
</g>
<!-- Node3 -->
<g id="node4" class="node">
<title>Node3</title>
<g id="a_node4"><a xlink:href="WindowManager_8hxx.html" target="_top" xlink:title="WindowManager.hxx">
<polygon fill="none" stroke="#000000" points="987,-168.5 987,-187.5 1105,-187.5 1105,-168.5 987,-168.5"/>
<text text-anchor="middle" x="1046" y="-175.5" font-family="Helvetica,sans-Serif" font-size="10.00" fill="#000000">WindowManager.hxx</text>
</a>
</g>
</g>
<!-- Node1&#45;&gt;Node3 -->
<g id="edge3" class="edge">
<title>Node1&#45;&gt;Node3</title>
<path fill="none" stroke="#191970" d="M828.1204,-392.3911C848.5101,-384.574 876.0652,-372.1918 897,-356 958.4827,-308.4468 1011.8961,-231.5141 1034.5017,-196.461"/>
<polygon fill="#191970" stroke="#191970" points="1037.6318,-198.0611 1040.0418,-187.744 1031.724,-194.3064 1037.6318,-198.0611"/>
</g>
<!-- Node7 -->
<g id="node8" class="node">
<title>Node7</title>
<g id="a_node8"><a xlink:href="Singleton_8hxx.html" target="_top" xlink:title="../util/Singleton.hxx">
<polygon fill="none" stroke="#000000" points="860.5,-112.5 860.5,-131.5 971.5,-131.5 971.5,-112.5 860.5,-112.5"/>
<text text-anchor="middle" x="916" y="-119.5" font-family="Helvetica,sans-Serif" font-size="10.00" fill="#000000">../util/Singleton.hxx</text>
</a>
</g>
</g>
<!-- Node1&#45;&gt;Node7 -->
<g id="edge43" class="edge">
<title>Node1&#45;&gt;Node7</title>
<path fill="none" stroke="#191970" d="M814.0798,-392.4001C837.7601,-374.9894 883,-335.7414 883,-290 883,-290 883,-290 883,-234 883,-200.051 897.1235,-162.5869 906.8911,-140.7366"/>
<polygon fill="#191970" stroke="#191970" points="910.0937,-142.1501 911.1307,-131.6061 903.7448,-139.202 910.0937,-142.1501"/>
</g>
<!-- Node8 -->
<g id="node9" class="node">
<title>Node8</title>
<g id="a_node9"><a xlink:href="point_8hxx.html" target="_top" xlink:title="basics/point.hxx">
<polygon fill="none" stroke="#000000" points="142,-112.5 142,-131.5 238,-131.5 238,-112.5 142,-112.5"/>
<text text-anchor="middle" x="190" y="-119.5" font-family="Helvetica,sans-Serif" font-size="10.00" fill="#000000">basics/point.hxx</text>
</a>
</g>
</g>
<!-- Node1&#45;&gt;Node8 -->
<g id="edge9" class="edge">
<title>Node1&#45;&gt;Node8</title>
<path fill="none" stroke="#191970" d="M764.3326,-400.8225C609.0868,-395.2339 0,-368.3172 0,-290 0,-290 0,-290 0,-234 0,-172.0511 75.8851,-143.6705 131.7399,-131.1715"/>
<polygon fill="#191970" stroke="#191970" points="132.5071,-134.5868 141.5634,-129.0881 131.0548,-127.7391 132.5071,-134.5868"/>
</g>
<!-- Node9 -->
<g id="node10" class="node">
<title>Node9</title>
<g id="a_node10"><a xlink:href="Map_8hxx.html" target="_top" xlink:title="Map.hxx">
<polygon fill="none" stroke="#000000" points="266,-336.5 266,-355.5 324,-355.5 324,-336.5 266,-336.5"/>
<text text-anchor="middle" x="295" y="-343.5" font-family="Helvetica,sans-Serif" font-size="10.00" fill="#000000">Map.hxx</text>
</a>
</g>
</g>
<!-- Node1&#45;&gt;Node9 -->
<g id="edge10" class="edge">
<title>Node1&#45;&gt;Node9</title>
<path fill="none" stroke="#191970" d="M764.4894,-398.0622C672.9534,-387.9117 429.4861,-360.9133 334.1047,-350.3364"/>
<polygon fill="#191970" stroke="#191970" points="334.3429,-346.8414 324.018,-349.2178 333.5713,-353.7988 334.3429,-346.8414"/>
</g>
<!-- Node3&#45;&gt;Node2 -->
<g id="edge7" class="edge">
<title>Node3&#45;&gt;Node2</title>
<path fill="none" stroke="#191970" d="M1000.8164,-168.4219C963.2956,-160.2257 908.3453,-147.6646 852.0642,-132.148"/>
<polygon fill="#191970" stroke="#191970" points="852.8586,-128.7361 842.2862,-129.4256 850.981,-135.4796 852.8586,-128.7361"/>
</g>
<!-- Node4 -->
<g id="node5" class="node">
<title>Node4</title>
<polygon fill="none" stroke="#bfbfbf" points="1111,-56.5 1111,-75.5 1155,-75.5 1155,-56.5 1111,-56.5"/>
<text text-anchor="middle" x="1133" y="-63.5" font-family="Helvetica,sans-Serif" font-size="10.00" fill="#000000">string</text>
</g>
<!-- Node3&#45;&gt;Node4 -->
<g id="edge4" class="edge">
<title>Node3&#45;&gt;Node4</title>
<path fill="none" stroke="#191970" d="M1053.4176,-168.4509C1068.0565,-149.6054 1100.8528,-107.3849 1119.4514,-83.4419"/>
<polygon fill="#191970" stroke="#191970" points="1122.2307,-85.5693 1125.6012,-75.5249 1116.7026,-81.2751 1122.2307,-85.5693"/>
</g>
<!-- Node5 -->
<g id="node6" class="node">
<title>Node5</title>
<polygon fill="none" stroke="#bfbfbf" points="1205,-112.5 1205,-131.5 1265,-131.5 1265,-112.5 1205,-112.5"/>
<text text-anchor="middle" x="1235" y="-119.5" font-family="Helvetica,sans-Serif" font-size="10.00" fill="#000000">iostream</text>
</g>
<!-- Node3&#45;&gt;Node5 -->
<g id="edge5" class="edge">
<title>Node3&#45;&gt;Node5</title>
<path fill="none" stroke="#191970" d="M1078.4903,-168.3733C1110.7666,-158.8099 1160.3219,-144.1268 1195.0004,-133.8517"/>
<polygon fill="#191970" stroke="#191970" points="1196.2105,-137.1437 1204.8042,-130.9469 1194.2218,-130.4321 1196.2105,-137.1437"/>
</g>
<!-- Node6 -->
<g id="node7" class="node">
<title>Node6</title>
<polygon fill="none" stroke="#bfbfbf" points="311.5,-56.5 311.5,-75.5 358.5,-75.5 358.5,-56.5 311.5,-56.5"/>
<text text-anchor="middle" x="335" y="-63.5" font-family="Helvetica,sans-Serif" font-size="10.00" fill="#000000">vector</text>
</g>
<!-- Node3&#45;&gt;Node6 -->
<g id="edge6" class="edge">
<title>Node3&#45;&gt;Node6</title>
<path fill="none" stroke="#191970" d="M1039.711,-168.2132C1029.3525,-153.0614 1007.1231,-124.3834 980,-112 924.1825,-86.5158 493.2773,-71.0097 368.6557,-67.0254"/>
<polygon fill="#191970" stroke="#191970" points="368.6621,-63.524 358.5566,-66.7065 368.4411,-70.5205 368.6621,-63.524"/>
</g>
<!-- Node3&#45;&gt;Node7 -->
<g id="edge8" class="edge">
<title>Node3&#45;&gt;Node7</title>
<path fill="none" stroke="#191970" d="M1023.6522,-168.3733C1002.5967,-159.3032 970.8505,-145.6279 947.2825,-135.4755"/>
<polygon fill="#191970" stroke="#191970" points="948.625,-132.243 938.0562,-131.5011 945.8556,-138.6719 948.625,-132.243"/>
</g>
<!-- Node9&#45;&gt;Node6 -->
<g id="edge11" class="edge">
<title>Node9&#45;&gt;Node6</title>
<path fill="none" stroke="#191970" d="M265.8187,-343.1004C218.2937,-337.714 127.5031,-324.4297 108,-300 55.8688,-234.7002 52.9769,-175.7435 107,-112 161.9775,-47.1304 212.6726,-93.2998 301.4374,-75.7141"/>
<polygon fill="#191970" stroke="#191970" points="302.2885,-79.1105 311.2941,-73.5294 300.7736,-72.2764 302.2885,-79.1105"/>
</g>
<!-- Node10 -->
<g id="node11" class="node">
<title>Node10</title>
<polygon fill="none" stroke="#bfbfbf" points="323,-280.5 323,-299.5 377,-299.5 377,-280.5 323,-280.5"/>
<text text-anchor="middle" x="350" y="-287.5" font-family="Helvetica,sans-Serif" font-size="10.00" fill="#000000">random</text>
</g>
<!-- Node9&#45;&gt;Node10 -->
<g id="edge12" class="edge">
<title>Node9&#45;&gt;Node10</title>
<path fill="none" stroke="#191970" d="M304.5803,-336.2455C312.5458,-328.1352 324.0641,-316.4075 333.5079,-306.7919"/>
<polygon fill="#191970" stroke="#191970" points="336.0195,-309.2297 340.5295,-299.6427 331.0253,-304.3247 336.0195,-309.2297"/>
</g>
<!-- Node11 -->
<g id="node12" class="node">
<title>Node11</title>
<g id="a_node12"><a xlink:href="MapNode_8hxx.html" target="_top" xlink:title="GameObjects/MapNode.hxx">
<polygon fill="none" stroke="#000000" points="222,-224.5 222,-243.5 374,-243.5 374,-224.5 222,-224.5"/>
<text text-anchor="middle" x="298" y="-231.5" font-family="Helvetica,sans-Serif" font-size="10.00" fill="#000000">GameObjects/MapNode.hxx</text>
</a>
</g>
</g>
<!-- Node9&#45;&gt;Node11 -->
<g id="edge13" class="edge">
<title>Node9&#45;&gt;Node11</title>
<path fill="none" stroke="#191970" d="M295.2558,-336.4509C295.7451,-318.184 296.8226,-277.9553 297.4724,-253.6976"/>
<polygon fill="#191970" stroke="#191970" points="300.9758,-253.6151 297.7449,-243.5249 293.9783,-253.4276 300.9758,-253.6151"/>
</g>
<!-- Node23 -->
<g id="node24" class="node">
<title>Node23</title>
<g id="a_node24"><a xlink:href="TerrainGenerator_8hxx.html" target="_top" xlink:title="map/TerrainGenerator.hxx">
<polygon fill="none" stroke="#000000" points="117.5,-280.5 117.5,-299.5 260.5,-299.5 260.5,-280.5 117.5,-280.5"/>
<text text-anchor="middle" x="189" y="-287.5" font-family="Helvetica,sans-Serif" font-size="10.00" fill="#000000">map/TerrainGenerator.hxx</text>
</a>
</g>
</g>
<!-- Node9&#45;&gt;Node23 -->
<g id="edge39" class="edge">
<title>Node9&#45;&gt;Node23</title>
<path fill="none" stroke="#191970" d="M276.5362,-336.2455C259.8926,-327.4527 235.2007,-314.4079 216.2808,-304.4125"/>
<polygon fill="#191970" stroke="#191970" points="217.7291,-301.2193 207.2522,-299.6427 214.4592,-307.4086 217.7291,-301.2193"/>
</g>
<!-- Node11&#45;&gt;Node2 -->
<g id="edge14" class="edge">
<title>Node11&#45;&gt;Node2</title>
<path fill="none" stroke="#191970" d="M342.2776,-224.4913C383.6711,-215.4895 447.1565,-201.3951 502,-188 535.9304,-179.7128 543.8656,-175.4023 578,-168 670.5438,-147.9312 695.9374,-154.1716 788,-132 788.099,-131.9762 788.1982,-131.9522 788.2975,-131.928"/>
<polygon fill="#191970" stroke="#191970" points="788.9878,-135.3672 797.7262,-129.3764 787.1591,-128.6103 788.9878,-135.3672"/>
</g>
<!-- Node11&#45;&gt;Node4 -->
<g id="edge16" class="edge">
<title>Node11&#45;&gt;Node4</title>
<path fill="none" stroke="#191970" d="M374.0214,-230.9737C574.0036,-222.8495 1100.3817,-200.3428 1114,-188 1142.3381,-162.316 1140.4049,-113.1733 1136.6306,-85.7463"/>
<polygon fill="#191970" stroke="#191970" points="1140.0701,-85.0893 1135.04,-75.7647 1133.1573,-86.1909 1140.0701,-85.0893"/>
</g>
<!-- Node11&#45;&gt;Node6 -->
<g id="edge18" class="edge">
<title>Node11&#45;&gt;Node6</title>
<path fill="none" stroke="#191970" d="M262.737,-224.4872C202.5183,-206.5512 90.3014,-164.7521 133,-112 179.3346,-54.7557 223.8278,-91.8106 301.168,-75.807"/>
<polygon fill="#191970" stroke="#191970" points="302.3303,-79.1299 311.2744,-73.4508 300.7409,-72.3127 302.3303,-79.1299"/>
</g>
<!-- Node11&#45;&gt;Node8 -->
<g id="edge27" class="edge">
<title>Node11&#45;&gt;Node8</title>
<path fill="none" stroke="#191970" d="M265.4005,-224.4083C246.4178,-217.2484 223.4513,-205.6159 209,-188 198.2589,-174.9067 193.5879,-156.0263 191.5577,-141.8105"/>
<polygon fill="#191970" stroke="#191970" points="195.0077,-141.1645 190.4302,-131.6095 188.0501,-141.9335 195.0077,-141.1645"/>
</g>
<!-- Node12 -->
<g id="node13" class="node">
<title>Node12</title>
<polygon fill="none" stroke="#bfbfbf" points="311,-168.5 311,-187.5 369,-187.5 369,-168.5 311,-168.5"/>
<text text-anchor="middle" x="340" y="-175.5" font-family="Helvetica,sans-Serif" font-size="10.00" fill="#000000">memory</text>
</g>
<!-- Node11&#45;&gt;Node12 -->
<g id="edge15" class="edge">
<title>Node11&#45;&gt;Node12</title>
<path fill="none" stroke="#191970" d="M305.3158,-224.2455C311.2179,-216.3761 319.6742,-205.101 326.7594,-195.6542"/>
<polygon fill="#191970" stroke="#191970" points="329.568,-197.7427 332.768,-187.6427 323.9679,-193.5427 329.568,-197.7427"/>
</g>
<!-- Node13 -->
<g id="node14" class="node">
<title>Node13</title>
<polygon fill="none" stroke="#bfbfbf" points="587,-168.5 587,-187.5 651,-187.5 651,-168.5 587,-168.5"/>
<text text-anchor="middle" x="619" y="-175.5" font-family="Helvetica,sans-Serif" font-size="10.00" fill="#000000">algorithm</text>
</g>
<!-- Node11&#45;&gt;Node13 -->
<g id="edge17" class="edge">
<title>Node11&#45;&gt;Node13</title>
<path fill="none" stroke="#191970" d="M360.1347,-224.4847C415.9721,-215.7251 500.1508,-202.0028 573,-188 574.2641,-187.757 575.5467,-187.5061 576.8408,-187.2491"/>
<polygon fill="#191970" stroke="#191970" points="577.7772,-190.63 586.87,-185.192 576.3707,-183.7728 577.7772,-190.63"/>
</g>
<!-- Node14 -->
<g id="node15" class="node">
<title>Node14</title>
<g id="a_node15"><a xlink:href="Sprite_8hxx.html" target="_top" xlink:title="../Sprite.hxx">
<polygon fill="none" stroke="#000000" points="218.5,-168.5 218.5,-187.5 293.5,-187.5 293.5,-168.5 218.5,-168.5"/>
<text text-anchor="middle" x="256" y="-175.5" font-family="Helvetica,sans-Serif" font-size="10.00" fill="#000000">../Sprite.hxx</text>
</a>
</g>
</g>
<!-- Node11&#45;&gt;Node14 -->
<g id="edge19" class="edge">
<title>Node11&#45;&gt;Node14</title>
<path fill="none" stroke="#191970" d="M290.6842,-224.2455C284.7821,-216.3761 276.3258,-205.101 269.2406,-195.6542"/>
<polygon fill="#191970" stroke="#191970" points="272.0321,-193.5427 263.232,-187.6427 266.432,-197.7427 272.0321,-193.5427"/>
</g>
<!-- Node15 -->
<g id="node16" class="node">
<title>Node15</title>
<g id="a_node16"><a xlink:href="enums_8hxx.html" target="_top" xlink:title="common/enums.hxx">
<polygon fill="none" stroke="#000000" points="177,-56.5 177,-75.5 293,-75.5 293,-56.5 177,-56.5"/>
<text text-anchor="middle" x="235" y="-63.5" font-family="Helvetica,sans-Serif" font-size="10.00" fill="#000000">common/enums.hxx</text>
</a>
</g>
</g>
<!-- Node11&#45;&gt;Node15 -->
<g id="edge26" class="edge">
<title>Node11&#45;&gt;Node15</title>
<path fill="none" stroke="#191970" d="M247.1283,-224.4918C207.0638,-216.0623 155.4793,-202.8159 140,-188 121.0131,-169.8269 125.2793,-157.9317 121,-132 119.5527,-123.2297 116.0278,-119.3681 121,-112 131.7277,-96.1032 148.9702,-85.6986 166.8323,-78.8894"/>
<polygon fill="#191970" stroke="#191970" points="168.4657,-82.0287 176.7819,-75.4642 166.1872,-75.4099 168.4657,-82.0287"/>
</g>
<!-- Node18 -->
<g id="node19" class="node">
<title>Node18</title>
<g id="a_node19"><a xlink:href="TileManager_8hxx.html" target="_top" xlink:title="../TileManager.hxx">
<polygon fill="none" stroke="#000000" points="387,-168.5 387,-187.5 493,-187.5 493,-168.5 387,-168.5"/>
<text text-anchor="middle" x="440" y="-175.5" font-family="Helvetica,sans-Serif" font-size="10.00" fill="#000000">../TileManager.hxx</text>
</a>
</g>
</g>
<!-- Node11&#45;&gt;Node18 -->
<g id="edge28" class="edge">
<title>Node11&#45;&gt;Node18</title>
<path fill="none" stroke="#191970" d="M322.4107,-224.3733C345.6142,-215.2226 380.7038,-201.3844 406.5142,-191.2057"/>
<polygon fill="#191970" stroke="#191970" points="407.8892,-194.4258 415.9079,-187.5011 405.3211,-187.9139 407.8892,-194.4258"/>
</g>
<!-- Node14&#45;&gt;Node2 -->
<g id="edge20" class="edge">
<title>Node14&#45;&gt;Node2</title>
<path fill="none" stroke="#191970" d="M293.5773,-169.3819C296.4192,-168.868 299.2501,-168.3988 302,-168 516.35,-136.9185 575.2413,-172.5675 788,-132 788.1001,-131.9809 788.2002,-131.9616 788.3005,-131.9422"/>
<polygon fill="#191970" stroke="#191970" points="788.8849,-135.4016 797.7865,-129.6559 787.2448,-128.5965 788.8849,-135.4016"/>
</g>
<!-- Node14&#45;&gt;Node6 -->
<g id="edge21" class="edge">
<title>Node14&#45;&gt;Node6</title>
<path fill="none" stroke="#191970" d="M262.7355,-168.4509C275.9701,-149.688 305.548,-107.7548 322.4743,-83.758"/>
<polygon fill="#191970" stroke="#191970" points="325.3776,-85.714 328.2816,-75.5249 319.6574,-81.6792 325.3776,-85.714"/>
</g>
<!-- Node14&#45;&gt;Node8 -->
<g id="edge22" class="edge">
<title>Node14&#45;&gt;Node8</title>
<path fill="none" stroke="#191970" d="M244.5037,-168.2455C234.7558,-159.9746 220.5741,-147.9416 209.1202,-138.2232"/>
<polygon fill="#191970" stroke="#191970" points="211.2541,-135.4437 201.3646,-131.6427 206.7253,-140.7813 211.2541,-135.4437"/>
</g>
<!-- Node14&#45;&gt;Node15 -->
<g id="edge23" class="edge">
<title>Node14&#45;&gt;Node15</title>
<path fill="none" stroke="#191970" d="M255.0236,-168.099C253.66,-155.1358 250.906,-131.7393 247,-112 245.2622,-103.2179 242.8427,-93.6197 240.6312,-85.4735"/>
<polygon fill="#191970" stroke="#191970" points="243.9868,-84.4767 237.9186,-75.7918 237.2463,-86.3653 243.9868,-84.4767"/>
</g>
<!-- Node16 -->
<g id="node17" class="node">
<title>Node16</title>
<polygon fill="none" stroke="#bfbfbf" points="159,-.5 159,-19.5 215,-19.5 215,-.5 159,-.5"/>
<text text-anchor="middle" x="187" y="-7.5" font-family="Helvetica,sans-Serif" font-size="10.00" fill="#000000">stddef.h</text>
</g>
<!-- Node15&#45;&gt;Node16 -->
<g id="edge24" class="edge">
<title>Node15&#45;&gt;Node16</title>
<path fill="none" stroke="#191970" d="M226.639,-56.2455C219.825,-48.2958 210.0319,-36.8706 201.8848,-27.3656"/>
<polygon fill="#191970" stroke="#191970" points="204.4305,-24.9575 195.2651,-19.6427 199.1157,-29.513 204.4305,-24.9575"/>
</g>
<!-- Node17 -->
<g id="node18" class="node">
<title>Node17</title>
<polygon fill="none" stroke="#bfbfbf" points="233,-.5 233,-19.5 333,-19.5 333,-.5 233,-.5"/>
<text text-anchor="middle" x="283" y="-7.5" font-family="Helvetica,sans-Serif" font-size="10.00" fill="#000000">betterEnums.hxx</text>
</g>
<!-- Node15&#45;&gt;Node17 -->
<g id="edge25" class="edge">
<title>Node15&#45;&gt;Node17</title>
<path fill="none" stroke="#191970" d="M243.361,-56.2455C250.175,-48.2958 259.9681,-36.8706 268.1152,-27.3656"/>
<polygon fill="#191970" stroke="#191970" points="270.8843,-29.513 274.7349,-19.6427 265.5695,-24.9575 270.8843,-29.513"/>
</g>
<!-- Node18&#45;&gt;Node2 -->
<g id="edge29" class="edge">
<title>Node18&#45;&gt;Node2</title>
<path fill="none" stroke="#191970" d="M493.0902,-172.1123C576.1538,-162.7092 733.0268,-144.1289 788,-132 788.0995,-131.9781 788.1991,-131.9559 788.2988,-131.9337"/>
<polygon fill="#191970" stroke="#191970" points="788.9474,-135.3812 797.752,-129.4879 787.194,-128.6043 788.9474,-135.3812"/>
</g>
<!-- Node18&#45;&gt;Node4 -->
<g id="edge31" class="edge">
<title>Node18&#45;&gt;Node4</title>
<path fill="none" stroke="#191970" d="M493.1332,-169.3252C533.5976,-161.8464 590.2812,-149.4762 638,-132 656.2915,-125.301 658.3182,-117.5179 677,-112 756.7449,-88.4466 1010.223,-72.6912 1100.6018,-67.7002"/>
<polygon fill="#191970" stroke="#191970" points="1100.9976,-71.184 1110.7924,-67.1451 1100.6168,-64.1943 1100.9976,-71.184"/>
</g>
<!-- Node18&#45;&gt;Node7 -->
<g id="edge37" class="edge">
<title>Node18&#45;&gt;Node7</title>
<path fill="none" stroke="#191970" d="M493.2886,-172.744C569.8247,-165.0384 715.5489,-149.7852 850.2609,-132.0513"/>
<polygon fill="#191970" stroke="#191970" points="850.8983,-135.4976 860.3524,-130.7154 849.9795,-128.5581 850.8983,-135.4976"/>
</g>
<!-- Node19 -->
<g id="node20" class="node">
<title>Node19</title>
<polygon fill="none" stroke="#bfbfbf" points="686.5,-112.5 686.5,-131.5 779.5,-131.5 779.5,-112.5 686.5,-112.5"/>
<text text-anchor="middle" x="733" y="-119.5" font-family="Helvetica,sans-Serif" font-size="10.00" fill="#000000">unordered_map</text>
</g>
<!-- Node18&#45;&gt;Node19 -->
<g id="edge30" class="edge">
<title>Node18&#45;&gt;Node19</title>
<path fill="none" stroke="#191970" d="M490.0356,-168.4369C541.6283,-158.5762 621.9544,-143.2237 675.9747,-132.899"/>
<polygon fill="#191970" stroke="#191970" points="676.9117,-136.2834 686.0768,-130.9682 675.5976,-129.4078 676.9117,-136.2834"/>
</g>
<!-- Node20 -->
<g id="node21" class="node">
<title>Node20</title>
<g id="a_node21"><a xlink:href="tileData_8hxx.html" target="_top" xlink:title="tileData.hxx">
<polygon fill="none" stroke="#000000" points="332.5,-112.5 332.5,-131.5 409.5,-131.5 409.5,-112.5 332.5,-112.5"/>
<text text-anchor="middle" x="371" y="-119.5" font-family="Helvetica,sans-Serif" font-size="10.00" fill="#000000">tileData.hxx</text>
</a>
</g>
</g>
<!-- Node18&#45;&gt;Node20 -->
<g id="edge32" class="edge">
<title>Node18&#45;&gt;Node20</title>
<path fill="none" stroke="#191970" d="M427.9811,-168.2455C417.7902,-159.9746 402.9638,-147.9416 390.9893,-138.2232"/>
<polygon fill="#191970" stroke="#191970" points="392.8514,-135.2268 382.8812,-131.6427 388.4402,-140.662 392.8514,-135.2268"/>
</g>
<!-- Node21 -->
<g id="node22" class="node">
<title>Node21</title>
<polygon fill="none" stroke="#bfbfbf" points="428,-112.5 428,-131.5 486,-131.5 486,-112.5 428,-112.5"/>
<text text-anchor="middle" x="457" y="-119.5" font-family="Helvetica,sans-Serif" font-size="10.00" fill="#000000">json.hxx</text>
</g>
<!-- Node18&#45;&gt;Node21 -->
<g id="edge36" class="edge">
<title>Node18&#45;&gt;Node21</title>
<path fill="none" stroke="#191970" d="M442.9612,-168.2455C445.2038,-160.8579 448.3577,-150.4689 451.1081,-141.4087"/>
<polygon fill="#191970" stroke="#191970" points="454.517,-142.2282 454.0728,-131.6427 447.8188,-140.1948 454.517,-142.2282"/>
</g>
<!-- Node22 -->
<g id="node23" class="node">
<title>Node22</title>
<polygon fill="none" stroke="#bfbfbf" points="504.5,-112.5 504.5,-131.5 629.5,-131.5 629.5,-112.5 504.5,-112.5"/>
<text text-anchor="middle" x="567" y="-119.5" font-family="Helvetica,sans-Serif" font-size="10.00" fill="#000000">../common/enums.hxx</text>
</g>
<!-- Node18&#45;&gt;Node22 -->
<g id="edge38" class="edge">
<title>Node18&#45;&gt;Node22</title>
<path fill="none" stroke="#191970" d="M461.8321,-168.3733C482.3103,-159.3435 513.1399,-145.7494 536.1319,-135.6111"/>
<polygon fill="#191970" stroke="#191970" points="537.715,-138.7383 545.4528,-131.5011 534.8907,-132.3333 537.715,-138.7383"/>
</g>
<!-- Node20&#45;&gt;Node4 -->
<g id="edge33" class="edge">
<title>Node20&#45;&gt;Node4</title>
<path fill="none" stroke="#191970" d="M409.6915,-113.4505C412.8316,-112.9059 415.9634,-112.412 419,-112 680.5691,-76.5077 999.8775,-68.2427 1100.8254,-66.4587"/>
<polygon fill="#191970" stroke="#191970" points="1101.0372,-69.9558 1110.9771,-66.2885 1100.9198,-62.9568 1101.0372,-69.9558"/>
</g>
<!-- Node20&#45;&gt;Node6 -->
<g id="edge34" class="edge">
<title>Node20&#45;&gt;Node6</title>
<path fill="none" stroke="#191970" d="M364.7293,-112.2455C359.7736,-104.5367 352.717,-93.5598 346.7224,-84.2348"/>
<polygon fill="#191970" stroke="#191970" points="349.5506,-82.1618 341.1989,-75.6427 343.6624,-85.9471 349.5506,-82.1618"/>
</g>
<!-- Node20&#45;&gt;Node15 -->
<g id="edge35" class="edge">
<title>Node20&#45;&gt;Node15</title>
<path fill="none" stroke="#191970" d="M347.6208,-112.3733C325.4955,-103.2629 292.0866,-89.5062 267.3981,-79.3404"/>
<polygon fill="#191970" stroke="#191970" points="268.6536,-76.0723 258.0742,-75.5011 265.9883,-82.5451 268.6536,-76.0723"/>
</g>
<!-- Node23&#45;&gt;Node6 -->
<g id="edge42" class="edge">
<title>Node23&#45;&gt;Node6</title>
<path fill="none" stroke="#191970" d="M179.3305,-280.4351C151.6271,-251.891 76.7183,-165.9565 121,-112 171.0518,-51.0127 218.668,-92.4733 301.3019,-75.7587"/>
<polygon fill="#191970" stroke="#191970" points="302.3088,-79.1192 311.2843,-73.4898 300.7573,-72.2933 302.3088,-79.1192"/>
</g>
<!-- Node23&#45;&gt;Node11 -->
<g id="edge40" class="edge">
<title>Node23&#45;&gt;Node11</title>
<path fill="none" stroke="#191970" d="M207.9864,-280.2455C225.1792,-271.4125 250.7238,-258.2887 270.2132,-248.2758"/>
<polygon fill="#191970" stroke="#191970" points="271.9359,-251.3257 279.2312,-243.6427 268.737,-245.0993 271.9359,-251.3257"/>
</g>
<!-- Node24 -->
<g id="node25" class="node">
<title>Node24</title>
<polygon fill="none" stroke="#bfbfbf" points="166,-224.5 166,-243.5 204,-243.5 204,-224.5 166,-224.5"/>
<text text-anchor="middle" x="185" y="-231.5" font-family="Helvetica,sans-Serif" font-size="10.00" fill="#000000">map</text>
</g>
<!-- Node23&#45;&gt;Node24 -->
<g id="edge41" class="edge">
<title>Node23&#45;&gt;Node24</title>
<path fill="none" stroke="#191970" d="M188.3033,-280.2455C187.7813,-272.9382 187.0496,-262.6944 186.4075,-253.7046"/>
<polygon fill="#191970" stroke="#191970" points="189.8924,-253.3679 185.6888,-243.6427 182.9102,-253.8667 189.8924,-253.3679"/>
</g>
<!-- Node25&#45;&gt;Node2 -->
<g id="edge47" class="edge">
<title>Node25&#45;&gt;Node2</title>
<path fill="none" stroke="#191970" d="M803.4837,-168.2455C806.1508,-160.7776 809.9133,-150.2427 813.1737,-141.1137"/>
<polygon fill="#191970" stroke="#191970" points="816.4889,-142.2373 816.5562,-131.6427 809.8967,-139.8829 816.4889,-142.2373"/>
</g>
<!-- Node25&#45;&gt;Node7 -->
<g id="edge46" class="edge">
<title>Node25&#45;&gt;Node7</title>
<path fill="none" stroke="#191970" d="M819.9411,-168.3733C838.4786,-159.4241 866.3028,-145.9917 887.2413,-135.8835"/>
<polygon fill="#191970" stroke="#191970" points="888.8352,-139.0006 896.3191,-131.5011 885.7919,-132.6967 888.8352,-139.0006"/>
</g>
<!-- Node25&#45;&gt;Node8 -->
<g id="edge45" class="edge">
<title>Node25&#45;&gt;Node8</title>
<path fill="none" stroke="#191970" d="M744.7907,-172.9316C629.921,-162.3862 366.1261,-138.169 248.485,-127.3691"/>
<polygon fill="#191970" stroke="#191970" points="248.519,-123.8576 238.2409,-126.4287 247.879,-130.8283 248.519,-123.8576"/>
</g>
<!-- Node26&#45;&gt;Node4 -->
<g id="edge49" class="edge">
<title>Node26&#45;&gt;Node4</title>
<path fill="none" stroke="#191970" d="M1329.7217,-336.3774C1338.623,-317.3222 1357,-273.2317 1357,-234 1357,-234 1357,-234 1357,-178 1357,-93.3312 1227.3856,-72.6671 1165.3472,-67.6258"/>
<polygon fill="#191970" stroke="#191970" points="1165.5235,-64.1295 1155.2969,-66.8983 1165.0181,-71.1112 1165.5235,-64.1295"/>
</g>
<!-- Node27&#45;&gt;Node4 -->
<g id="edge51" class="edge">
<title>Node27&#45;&gt;Node4</title>
<path fill="none" stroke="#191970" d="M1252.7191,-224.4362C1269.9074,-217.3313 1289.8632,-205.7464 1300,-188 1314.5371,-162.55 1280.4672,-117.7382 1274,-112 1243.3714,-84.824 1196.3871,-73.6606 1165.1855,-69.1026"/>
<polygon fill="#191970" stroke="#191970" points="1165.6267,-65.6306 1155.2556,-67.7965 1164.7138,-72.5708 1165.6267,-65.6306"/>
</g>
<!-- Node27&#45;&gt;Node6 -->
<g id="edge52" class="edge">
<title>Node27&#45;&gt;Node6</title>
<path fill="none" stroke="#191970" d="M1209.9444,-224.2594C1178.826,-199.7899 1092.3253,-135.9871 1008,-112 885.931,-77.2764 488.1739,-68.377 369.0272,-66.4639"/>
<polygon fill="#191970" stroke="#191970" points="368.7527,-62.9593 358.6999,-66.3046 368.6447,-69.9585 368.7527,-62.9593"/>
</g>
<!-- Node27&#45;&gt;Node7 -->
<g id="edge53" class="edge">
<title>Node27&#45;&gt;Node7</title>
<path fill="none" stroke="#191970" d="M1166.3061,-227.5661C1104.6281,-219.7353 1009.7043,-205.3814 978,-188 957.2228,-176.6092 939.4201,-155.754 928.2912,-140.5269"/>
<polygon fill="#191970" stroke="#191970" points="930.8597,-138.0929 922.2574,-131.9081 925.1253,-142.1074 930.8597,-138.0929"/>
</g>
<!-- Node28 -->
<g id="node29" class="node">
<title>Node28</title>
<g id="a_node29"><a xlink:href="Meta_8hxx.html" target="_top" xlink:title="../../util/Meta.hxx">
<polygon fill="none" stroke="#000000" points="1423,-168.5 1423,-187.5 1521,-187.5 1521,-168.5 1423,-168.5"/>
<text text-anchor="middle" x="1472" y="-175.5" font-family="Helvetica,sans-Serif" font-size="10.00" fill="#000000">../../util/Meta.hxx</text>
</a>
</g>
</g>
<!-- Node27&#45;&gt;Node28 -->
<g id="edge54" class="edge">
<title>Node27&#45;&gt;Node28</title>
<path fill="none" stroke="#191970" d="M1264.6925,-224.4369C1307.5679,-214.8328 1373.7005,-200.0191 1419.7002,-189.7152"/>
<polygon fill="#191970" stroke="#191970" points="1420.4905,-193.1249 1429.4836,-187.5237 1418.9604,-186.2942 1420.4905,-193.1249"/>
</g>
<!-- Node32 -->
<g id="node33" class="node">
<title>Node32</title>
<polygon fill="none" stroke="#bfbfbf" points="1237.5,-168.5 1237.5,-187.5 1290.5,-187.5 1290.5,-168.5 1237.5,-168.5"/>
<text text-anchor="middle" x="1264" y="-175.5" font-family="Helvetica,sans-Serif" font-size="10.00" fill="#000000">cstddef</text>
</g>
<!-- Node27&#45;&gt;Node32 -->
<g id="edge59" class="edge">
<title>Node27&#45;&gt;Node32</title>
<path fill="none" stroke="#191970" d="M1229.3158,-224.2455C1235.2179,-216.3761 1243.6742,-205.101 1250.7594,-195.6542"/>
<polygon fill="#191970" stroke="#191970" points="1253.568,-197.7427 1256.768,-187.6427 1247.9679,-193.5427 1253.568,-197.7427"/>
</g>
<!-- Node28&#45;&gt;Node5 -->
<g id="edge55" class="edge">
<title>Node28&#45;&gt;Node5</title>
<path fill="none" stroke="#191970" d="M1431.5275,-168.4369C1387.8326,-158.1123 1318.6581,-141.7673 1275.1062,-131.4766"/>
<polygon fill="#191970" stroke="#191970" points="1275.6889,-128.0179 1265.152,-129.1245 1274.0791,-134.8304 1275.6889,-128.0179"/>
</g>
<!-- Node29 -->
<g id="node30" class="node">
<title>Node29</title>
<polygon fill="none" stroke="#bfbfbf" points="1385.5,-112.5 1385.5,-131.5 1454.5,-131.5 1454.5,-112.5 1385.5,-112.5"/>
<text text-anchor="middle" x="1420" y="-119.5" font-family="Helvetica,sans-Serif" font-size="10.00" fill="#000000">type_traits</text>
</g>
<!-- Node28&#45;&gt;Node29 -->
<g id="edge56" class="edge">
<title>Node28&#45;&gt;Node29</title>
<path fill="none" stroke="#191970" d="M1462.9423,-168.2455C1455.4858,-160.2155 1444.7366,-148.6394 1435.8583,-139.0781"/>
<polygon fill="#191970" stroke="#191970" points="1438.3232,-136.589 1428.9539,-131.6427 1433.1937,-141.3522 1438.3232,-136.589"/>
</g>
<!-- Node30 -->
<g id="node31" class="node">
<title>Node30</title>
<polygon fill="none" stroke="#bfbfbf" points="1472.5,-112.5 1472.5,-131.5 1523.5,-131.5 1523.5,-112.5 1472.5,-112.5"/>
<text text-anchor="middle" x="1498" y="-119.5" font-family="Helvetica,sans-Serif" font-size="10.00" fill="#000000">variant</text>
</g>
<!-- Node28&#45;&gt;Node30 -->
<g id="edge57" class="edge">
<title>Node28&#45;&gt;Node30</title>
<path fill="none" stroke="#191970" d="M1476.5289,-168.2455C1480.0334,-160.6973 1484.9927,-150.0158 1489.2623,-140.8197"/>
<polygon fill="#191970" stroke="#191970" points="1492.4864,-142.1867 1493.523,-131.6427 1486.1373,-139.2389 1492.4864,-142.1867"/>
</g>
<!-- Node31 -->
<g id="node32" class="node">
<title>Node31</title>
<polygon fill="none" stroke="#bfbfbf" points="1541.5,-112.5 1541.5,-131.5 1582.5,-131.5 1582.5,-112.5 1541.5,-112.5"/>
<text text-anchor="middle" x="1562" y="-119.5" font-family="Helvetica,sans-Serif" font-size="10.00" fill="#000000">tuple</text>
</g>
<!-- Node28&#45;&gt;Node31 -->
<g id="edge58" class="edge">
<title>Node28&#45;&gt;Node31</title>
<path fill="none" stroke="#191970" d="M1487.6768,-168.2455C1501.4856,-159.6534 1521.8193,-147.0014 1537.7292,-137.1018"/>
<polygon fill="#191970" stroke="#191970" points="1539.8613,-139.8974 1546.5028,-131.6427 1536.1632,-133.954 1539.8613,-139.8974"/>
</g>
<!-- Node33&#45;&gt;Node2 -->
<g id="edge63" class="edge">
<title>Node33&#45;&gt;Node2</title>
<path fill="none" stroke="#191970" d="M634.2938,-224.3323C648.1618,-210.3511 675.5875,-184.3733 703,-168 717.8147,-159.1512 758.9663,-143.6837 788.2673,-133.15"/>
<polygon fill="#191970" stroke="#191970" points="789.4542,-136.4427 797.6947,-129.7835 787.1,-129.8504 789.4542,-136.4427"/>
</g>
<!-- Node33&#45;&gt;Node5 -->
<g id="edge61" class="edge">
<title>Node33&#45;&gt;Node5</title>
<path fill="none" stroke="#191970" d="M689.3847,-232.7176C809.9556,-229.5972 1065.0133,-219.3946 1147,-188 1175.2007,-177.2013 1202.1376,-154.5623 1218.6128,-138.8298"/>
<polygon fill="#191970" stroke="#191970" points="1221.1432,-141.2503 1225.8199,-131.7436 1216.2354,-136.2589 1221.1432,-141.2503"/>
</g>
<!-- Node33&#45;&gt;Node18 -->
<g id="edge64" class="edge">
<title>Node33&#45;&gt;Node18</title>
<path fill="none" stroke="#191970" d="M593.1974,-224.3733C562.1683,-214.9807 514.8246,-200.6496 480.9853,-190.4064"/>
<polygon fill="#191970" stroke="#191970" points="481.9728,-187.0485 471.3876,-187.5011 479.9447,-193.7483 481.9728,-187.0485"/>
</g>
<!-- Node33&#45;&gt;Node19 -->
<g id="edge62" class="edge">
<title>Node33&#45;&gt;Node19</title>
<path fill="none" stroke="#191970" d="M609.4395,-224.2841C590.6457,-211.3261 563.2762,-187.7282 578,-168 589.9827,-151.9446 636.7937,-139.4921 675.8673,-131.6164"/>
<polygon fill="#191970" stroke="#191970" points="676.9816,-134.965 686.1266,-129.6153 675.6415,-128.0945 676.9816,-134.965"/>
</g>
<!-- Node34&#45;&gt;Node2 -->
<g id="edge75" class="edge">
<title>Node34&#45;&gt;Node2</title>
<path fill="none" stroke="#191970" d="M1597.7241,-232.8353C1470.0435,-229.109 1096.4521,-216.0448 978,-188 929.9707,-176.6285 877.7817,-152.2457 847.0311,-136.5119"/>
<polygon fill="#191970" stroke="#191970" points="848.3206,-133.2378 837.8329,-131.7349 845.0944,-139.45 848.3206,-133.2378"/>
</g>
<!-- Node34&#45;&gt;Node4 -->
<g id="edge66" class="edge">
<title>Node34&#45;&gt;Node4</title>
<path fill="none" stroke="#191970" d="M1684.1381,-231.0063C1768.2898,-224.7262 1947.7611,-209.0021 1966,-188 1971.8284,-181.2886 1971.8014,-174.7347 1966,-168 1912.6577,-106.076 1312.8663,-74.3429 1165.5349,-67.4494"/>
<polygon fill="#191970" stroke="#191970" points="1165.4906,-63.9437 1155.3397,-66.9785 1165.1676,-70.9363 1165.4906,-63.9437"/>
</g>
<!-- Node34&#45;&gt;Node5 -->
<g id="edge70" class="edge">
<title>Node34&#45;&gt;Node5</title>
<path fill="none" stroke="#191970" d="M1597.8562,-227.2849C1551.8397,-219.6533 1477.0523,-205.8986 1414,-188 1361.4304,-173.0771 1302.2718,-149.9756 1266.8526,-135.4358"/>
<polygon fill="#191970" stroke="#191970" points="1268.0958,-132.1625 1257.5173,-131.5757 1265.421,-138.6313 1268.0958,-132.1625"/>
</g>
<!-- Node34&#45;&gt;Node13 -->
<g id="edge76" class="edge">
<title>Node34&#45;&gt;Node13</title>
<path fill="none" stroke="#191970" d="M1597.6394,-232.3271C1467.2298,-227.1818 1067.1794,-210.5629 736,-188 711.2423,-186.3133 683.5768,-183.9698 661.3658,-181.9754"/>
<polygon fill="#191970" stroke="#191970" points="661.5322,-178.4762 651.2567,-181.0581 660.8995,-185.4475 661.5322,-178.4762"/>
</g>
<!-- Node34&#45;&gt;Node28 -->
<g id="edge78" class="edge">
<title>Node34&#45;&gt;Node28</title>
<path fill="none" stroke="#191970" d="M1611.9479,-224.3733C1583.8457,-215.0613 1541.0946,-200.8953 1510.2393,-190.671"/>
<polygon fill="#191970" stroke="#191970" points="1511.2664,-187.3243 1500.673,-187.5011 1509.0645,-193.969 1511.2664,-187.3243"/>
</g>
<!-- Node35 -->
<g id="node36" class="node">
<title>Node35</title>
<g id="a_node36"><a xlink:href="Exception_8hxx.html" target="_top" xlink:title="Exception.hxx">
<polygon fill="none" stroke="#000000" points="2013,-168.5 2013,-187.5 2099,-187.5 2099,-168.5 2013,-168.5"/>
<text text-anchor="middle" x="2056" y="-175.5" font-family="Helvetica,sans-Serif" font-size="10.00" fill="#000000">Exception.hxx</text>
</a>
</g>
</g>
<!-- Node34&#45;&gt;Node35 -->
<g id="edge67" class="edge">
<title>Node34&#45;&gt;Node35</title>
<path fill="none" stroke="#191970" d="M1684.0725,-229.1125C1751.4026,-221.3267 1885.6256,-205.2197 1999,-188 2000.2572,-187.8091 2001.5293,-187.6126 2002.8119,-187.4115"/>
<polygon fill="#191970" stroke="#191970" points="2003.4624,-190.8519 2012.7742,-185.7981 2002.3432,-183.9419 2003.4624,-190.8519"/>
</g>
<!-- Node38 -->
<g id="node39" class="node">
<title>Node38</title>
<polygon fill="none" stroke="#bfbfbf" points="1845,-168.5 1845,-187.5 1895,-187.5 1895,-168.5 1845,-168.5"/>
<text text-anchor="middle" x="1870" y="-175.5" font-family="Helvetica,sans-Serif" font-size="10.00" fill="#000000">chrono</text>
</g>
<!-- Node34&#45;&gt;Node38 -->
<g id="edge71" class="edge">
<title>Node34&#45;&gt;Node38</title>
<path fill="none" stroke="#191970" d="M1684.1547,-224.528C1721.6133,-216.1477 1777.5199,-203.2622 1834.8339,-188.213"/>
<polygon fill="#191970" stroke="#191970" points="1836.0189,-191.5201 1844.7918,-185.5799 1834.2293,-184.7527 1836.0189,-191.5201"/>
</g>
<!-- Node39 -->
<g id="node40" class="node">
<title>Node39</title>
<polygon fill="none" stroke="#bfbfbf" points="1913,-168.5 1913,-187.5 1957,-187.5 1957,-168.5 1913,-168.5"/>
<text text-anchor="middle" x="1935" y="-175.5" font-family="Helvetica,sans-Serif" font-size="10.00" fill="#000000">ctime</text>
</g>
<!-- Node34&#45;&gt;Node39 -->
<g id="edge72" class="edge">
<title>Node34&#45;&gt;Node39</title>
<path fill="none" stroke="#191970" d="M1684.2027,-228.3229C1734.6325,-221.2822 1820.641,-207.9919 1902.9932,-187.9914"/>
<polygon fill="#191970" stroke="#191970" points="1903.8843,-191.3766 1912.7555,-185.5841 1902.2083,-184.5801 1903.8843,-191.3766"/>
</g>
<!-- Node40 -->
<g id="node41" class="node">
<title>Node40</title>
<polygon fill="none" stroke="#bfbfbf" points="1539.5,-168.5 1539.5,-187.5 1594.5,-187.5 1594.5,-168.5 1539.5,-168.5"/>
<text text-anchor="middle" x="1567" y="-175.5" font-family="Helvetica,sans-Serif" font-size="10.00" fill="#000000">fstream</text>
</g>
<!-- Node34&#45;&gt;Node40 -->
<g id="edge73" class="edge">
<title>Node34&#45;&gt;Node40</title>
<path fill="none" stroke="#191970" d="M1628.1102,-224.2455C1617.0746,-215.8943 1600.9708,-203.7076 1588.0647,-193.9408"/>
<polygon fill="#191970" stroke="#191970" points="1589.8283,-190.8862 1579.7421,-187.6427 1585.6041,-196.4681 1589.8283,-190.8862"/>
</g>
<!-- Node41 -->
<g id="node42" class="node">
<title>Node41</title>
<polygon fill="none" stroke="#bfbfbf" points="1613,-168.5 1613,-187.5 1669,-187.5 1669,-168.5 1613,-168.5"/>
<text text-anchor="middle" x="1641" y="-175.5" font-family="Helvetica,sans-Serif" font-size="10.00" fill="#000000">sstream</text>
</g>
<!-- Node34&#45;&gt;Node41 -->
<g id="edge74" class="edge">
<title>Node34&#45;&gt;Node41</title>
<path fill="none" stroke="#191970" d="M1641,-224.2455C1641,-216.9382 1641,-206.6944 1641,-197.7046"/>
<polygon fill="#191970" stroke="#191970" points="1644.5001,-197.6426 1641,-187.6427 1637.5001,-197.6427 1644.5001,-197.6426"/>
</g>
<!-- Node42 -->
<g id="node43" class="node">
<title>Node42</title>
<polygon fill="none" stroke="#bfbfbf" points="1687,-168.5 1687,-187.5 1735,-187.5 1735,-168.5 1687,-168.5"/>
<text text-anchor="middle" x="1711" y="-175.5" font-family="Helvetica,sans-Serif" font-size="10.00" fill="#000000">mutex</text>
</g>
<!-- Node34&#45;&gt;Node42 -->
<g id="edge77" class="edge">
<title>Node34&#45;&gt;Node42</title>
<path fill="none" stroke="#191970" d="M1653.1931,-224.2455C1663.6321,-215.8943 1678.8655,-203.7076 1691.074,-193.9408"/>
<polygon fill="#191970" stroke="#191970" points="1693.3244,-196.6227 1698.9467,-187.6427 1688.9515,-191.1566 1693.3244,-196.6227"/>
</g>
<!-- Node43 -->
<g id="node44" class="node">
<title>Node43</title>
<g id="a_node44"><a xlink:href="LOG_8inl_8hxx.html" target="_top" xlink:title="LOG.inl.hxx">
<polygon fill="none" stroke="#000000" points="1753.5,-168.5 1753.5,-187.5 1826.5,-187.5 1826.5,-168.5 1753.5,-168.5"/>
<text text-anchor="middle" x="1790" y="-175.5" font-family="Helvetica,sans-Serif" font-size="10.00" fill="#000000">LOG.inl.hxx</text>
</a>
</g>
</g>
<!-- Node34&#45;&gt;Node43 -->
<g id="edge79" class="edge">
<title>Node34&#45;&gt;Node43</title>
<path fill="none" stroke="#191970" d="M1666.614,-224.3733C1691.0687,-215.1822 1728.1054,-201.2624 1755.2209,-191.0713"/>
<polygon fill="#191970" stroke="#191970" points="1756.5909,-194.2956 1764.7202,-187.5011 1754.1281,-187.7431 1756.5909,-194.2956"/>
</g>
<!-- Node36 -->
<g id="node37" class="node">
<title>Node36</title>
<polygon fill="none" stroke="#bfbfbf" points="2101.5,-112.5 2101.5,-131.5 2166.5,-131.5 2166.5,-112.5 2101.5,-112.5"/>
<text text-anchor="middle" x="2134" y="-119.5" font-family="Helvetica,sans-Serif" font-size="10.00" fill="#000000">stdexcept</text>
</g>
<!-- Node35&#45;&gt;Node36 -->
<g id="edge68" class="edge">
<title>Node35&#45;&gt;Node36</title>
<path fill="none" stroke="#191970" d="M2069.5866,-168.2455C2081.3305,-159.814 2098.5199,-147.4729 2112.1882,-137.6598"/>
<polygon fill="#191970" stroke="#191970" points="2114.4871,-140.3179 2120.5691,-131.6427 2110.4046,-134.6316 2114.4871,-140.3179"/>
</g>
<!-- Node37 -->
<g id="node38" class="node">
<title>Node37</title>
<polygon fill="none" stroke="#bfbfbf" points="2018.5,-112.5 2018.5,-131.5 2083.5,-131.5 2083.5,-112.5 2018.5,-112.5"/>
<text text-anchor="middle" x="2051" y="-119.5" font-family="Helvetica,sans-Serif" font-size="10.00" fill="#000000">exception</text>
</g>
<!-- Node35&#45;&gt;Node37 -->
<g id="edge69" class="edge">
<title>Node35&#45;&gt;Node37</title>
<path fill="none" stroke="#191970" d="M2055.1291,-168.2455C2054.4766,-160.9382 2053.562,-150.6944 2052.7593,-141.7046"/>
<polygon fill="#191970" stroke="#191970" points="2056.2365,-141.2918 2051.861,-131.6427 2049.2642,-141.9143 2056.2365,-141.2918"/>
</g>
</g>
</svg>
