<?xml version="1.0" encoding="UTF-8" standalone="no"?>
<!DOCTYPE svg PUBLIC "-//W3C//DTD SVG 1.1//EN"
 "http://www.w3.org/Graphics/SVG/1.1/DTD/svg11.dtd">
<!-- Generated by graphviz version 2.40.1 (20161225.0304)
 -->
<!-- Title: src/util/Filesystem.hxx Pages: 1 -->
<!--zoomable 364 -->
<svg id="main" version="1.1" xmlns="http://www.w3.org/2000/svg" xmlns:xlink="http://www.w3.org/1999/xlink" xml:space="preserve" onload="init(evt)">
<style type="text/css"><![CDATA[
.edge:hover path { stroke: red; }
.edge:hover polygon { stroke: red; fill: red; }
]]></style>
<script type="text/javascript"><![CDATA[
var edges = document.getElementsByTagName('g');
if (edges && edges.length) {
  for (var i=0;i<edges.length;i++) {
    if (edges[i].id.substr(0,4)=='edge') {
      edges[i].setAttribute('class','edge');
    }
  }
}
]]></script>
        <defs>
                <circle id="rim" cx="0" cy="0" r="7"/>
                <circle id="rim2" cx="0" cy="0" r="3.5"/>
                <g id="zoomPlus">
                        <use xlink:href="#rim" fill="#404040">
                                <set attributeName="fill" to="#808080" begin="zoomplus.mouseover" end="zoomplus.mouseout"/>
                        </use>
                        <path d="M-4,0h8M0,-4v8" fill="none" stroke="white" stroke-width="1.5" pointer-events="none"/>
                </g>
                <g id="zoomMin">
                        <use xlink:href="#rim" fill="#404040">
                                <set attributeName="fill" to="#808080" begin="zoomminus.mouseover" end="zoomminus.mouseout"/>
                        </use>
                        <path d="M-4,0h8" fill="none" stroke="white" stroke-width="1.5" pointer-events="none"/>
                </g>
                <g id="dirArrow">
                        <path fill="none" stroke="white" stroke-width="1.5" d="M0,-3.0v7 M-2.5,-0.5L0,-3.0L2.5,-0.5"/>
                </g>
               <g id="resetDef">
                       <use xlink:href="#rim2" fill="#404040">
                               <set attributeName="fill" to="#808080" begin="reset.mouseover" end="reset.mouseout"/>
                       </use>
               </g>
        </defs>

<script type="text/javascript">
var viewWidth = 1224;
var viewHeight = 364;
var sectionId = 'dynsection-0';
</script>
<script xlink:href="svgpan.js"/>
<svg id="graph" class="graph">
<g id="viewport">
<title>src/util/Filesystem.hxx</title>
<!-- Node0 -->
<g id="node1" class="node">
<title>Node0</title>
<polygon fill="#bfbfbf" stroke="#000000" points="45,-336.5 45,-355.5 171,-355.5 171,-336.5 45,-336.5"/>
<text text-anchor="middle" x="108" y="-343.5" font-family="Helvetica,sans-Serif" font-size="10.00" fill="#000000">src/util/Filesystem.hxx</text>
</g>
<!-- Node1 -->
<g id="node2" class="node">
<title>Node1</title>
<polygon fill="none" stroke="#bfbfbf" points="0,-280.5 0,-299.5 54,-299.5 54,-280.5 0,-280.5"/>
<text text-anchor="middle" x="27" y="-287.5" font-family="Helvetica,sans-Serif" font-size="10.00" fill="#000000">ciso646</text>
</g>
<!-- Node0&#45;&gt;Node1 -->
<g id="edge1" class="edge">
<title>Node0&#45;&gt;Node1</title>
<path fill="none" stroke="#191970" d="M93.8909,-336.2455C81.5791,-327.7337 63.5042,-315.2375 49.2462,-305.3801"/>
<polygon fill="#191970" stroke="#191970" points="51.1634,-302.4506 40.9474,-299.6427 47.1826,-308.2085 51.1634,-302.4506"/>
</g>
<!-- Node2 -->
<g id="node3" class="node">
<title>Node2</title>
<polygon fill="none" stroke="#bfbfbf" points="45,-56.5 45,-75.5 89,-75.5 89,-56.5 45,-56.5"/>
<text text-anchor="middle" x="67" y="-63.5" font-family="Helvetica,sans-Serif" font-size="10.00" fill="#000000">string</text>
</g>
<!-- Node0&#45;&gt;Node2 -->
<g id="edge2" class="edge">
<title>Node0&#45;&gt;Node2</title>
<path fill="none" stroke="#191970" d="M104.1636,-336.2883C96.9313,-317.0769 82,-272.7253 82,-234 82,-234 82,-234 82,-178 82,-145.2739 75.6307,-107.641 71.193,-85.3923"/>
<polygon fill="#191970" stroke="#191970" points="74.6058,-84.6123 69.1491,-75.5307 67.7515,-86.0329 74.6058,-84.6123"/>
</g>
<!-- Node3 -->
<g id="node4" class="node">
<title>Node3</title>
<polygon fill="none" stroke="#bfbfbf" points="110.5,-224.5 110.5,-243.5 157.5,-243.5 157.5,-224.5 110.5,-224.5"/>
<text text-anchor="middle" x="134" y="-231.5" font-family="Helvetica,sans-Serif" font-size="10.00" fill="#000000">vector</text>
</g>
<!-- Node0&#45;&gt;Node3 -->
<g id="edge3" class="edge">
<title>Node0&#45;&gt;Node3</title>
<path fill="none" stroke="#191970" d="M110.2167,-336.4509C114.4765,-318.1013 123.8807,-277.5908 129.5035,-253.3693"/>
<polygon fill="#191970" stroke="#191970" points="132.9368,-254.0573 131.7889,-243.5249 126.1182,-252.4744 132.9368,-254.0573"/>
</g>
<!-- Node4 -->
<g id="node5" class="node">
<title>Node4</title>
<g id="a_node5"><a xlink:href="PixelBuffer_8hxx.html" target="_top" xlink:title="../util/PixelBuffer.hxx">
<polygon fill="none" stroke="#000000" points="220,-280.5 220,-299.5 338,-299.5 338,-280.5 220,-280.5"/>
<text text-anchor="middle" x="279" y="-287.5" font-family="Helvetica,sans-Serif" font-size="10.00" fill="#000000">../util/PixelBuffer.hxx</text>
</a>
</g>
</g>
<!-- Node0&#45;&gt;Node4 -->
<g id="edge4" class="edge">
<title>Node0&#45;&gt;Node4</title>
<path fill="none" stroke="#191970" d="M137.3959,-336.3733C165.8307,-327.0613 209.0877,-312.8953 240.3081,-302.671"/>
<polygon fill="#191970" stroke="#191970" points="241.5736,-305.9396 249.9876,-299.5011 239.395,-299.2872 241.5736,-305.9396"/>
</g>
<!-- Node4&#45;&gt;Node3 -->
<g id="edge5" class="edge">
<title>Node4&#45;&gt;Node3</title>
<path fill="none" stroke="#191970" d="M254.0736,-280.3733C230.0926,-271.1116 193.6785,-257.0482 167.239,-246.8371"/>
<polygon fill="#191970" stroke="#191970" points="168.2304,-243.4681 157.641,-243.1303 165.7085,-249.9981 168.2304,-243.4681"/>
</g>
<!-- Node5 -->
<g id="node6" class="node">
<title>Node5</title>
<g id="a_node6"><a xlink:href="Rectangle_8hxx.html" target="_top" xlink:title="../util/Rectangle.hxx">
<polygon fill="none" stroke="#000000" points="743.5,-224.5 743.5,-243.5 856.5,-243.5 856.5,-224.5 743.5,-224.5"/>
<text text-anchor="middle" x="800" y="-231.5" font-family="Helvetica,sans-Serif" font-size="10.00" fill="#000000">../util/Rectangle.hxx</text>
</a>
</g>
</g>
<!-- Node4&#45;&gt;Node5 -->
<g id="edge6" class="edge">
<title>Node4&#45;&gt;Node5</title>
<path fill="none" stroke="#191970" d="M338.0051,-283.6578C435.6239,-273.1652 630.1368,-252.2578 732.8612,-241.2165"/>
<polygon fill="#191970" stroke="#191970" points="733.5439,-244.6633 743.1125,-240.1146 732.7957,-237.7034 733.5439,-244.6633"/>
</g>
<!-- Node25 -->
<g id="node26" class="node">
<title>Node25</title>
<g id="a_node26"><a xlink:href="Range_8hxx.html" target="_top" xlink:title="../util/Range.hxx">
<polygon fill="none" stroke="#000000" points="1012,-224.5 1012,-243.5 1108,-243.5 1108,-224.5 1012,-224.5"/>
<text text-anchor="middle" x="1060" y="-231.5" font-family="Helvetica,sans-Serif" font-size="10.00" fill="#000000">../util/Range.hxx</text>
</a>
</g>
</g>
<!-- Node4&#45;&gt;Node25 -->
<g id="edge31" class="edge">
<title>Node4&#45;&gt;Node25</title>
<path fill="none" stroke="#191970" d="M338.0221,-285.7679C483.4285,-275.3419 857.5414,-248.5169 1001.9367,-238.1633"/>
<polygon fill="#191970" stroke="#191970" points="1002.2059,-241.6531 1011.9299,-237.4468 1001.7052,-234.671 1002.2059,-241.6531"/>
</g>
<!-- Node28 -->
<g id="node29" class="node">
<title>Node28</title>
<g id="a_node29"><a xlink:href="Color_8hxx.html" target="_top" xlink:title="../util/Color.hxx">
<polygon fill="none" stroke="#000000" points="176,-224.5 176,-243.5 266,-243.5 266,-224.5 176,-224.5"/>
<text text-anchor="middle" x="221" y="-231.5" font-family="Helvetica,sans-Serif" font-size="10.00" fill="#000000">../util/Color.hxx</text>
</a>
</g>
</g>
<!-- Node4&#45;&gt;Node28 -->
<g id="edge35" class="edge">
<title>Node4&#45;&gt;Node28</title>
<path fill="none" stroke="#191970" d="M268.8972,-280.2455C260.4972,-272.1352 248.3506,-260.4075 238.3916,-250.7919"/>
<polygon fill="#191970" stroke="#191970" points="240.6122,-248.0707 230.9871,-243.6427 235.75,-253.1066 240.6122,-248.0707"/>
</g>
<!-- Node30 -->
<g id="node31" class="node">
<title>Node30</title>
<g id="a_node31"><a xlink:href="PixelBuffer_8inl_8hxx.html" target="_top" xlink:title="PixelBuffer.inl.hxx">
<polygon fill="none" stroke="#000000" points="284.5,-224.5 284.5,-243.5 389.5,-243.5 389.5,-224.5 284.5,-224.5"/>
<text text-anchor="middle" x="337" y="-231.5" font-family="Helvetica,sans-Serif" font-size="10.00" fill="#000000">PixelBuffer.inl.hxx</text>
</a>
</g>
</g>
<!-- Node4&#45;&gt;Node30 -->
<g id="edge38" class="edge">
<title>Node4&#45;&gt;Node30</title>
<path fill="none" stroke="#191970" d="M289.1028,-280.2455C297.5028,-272.1352 309.6494,-260.4075 319.6084,-250.7919"/>
<polygon fill="#191970" stroke="#191970" points="322.25,-253.1066 327.0129,-243.6427 317.3878,-248.0707 322.25,-253.1066"/>
</g>
<!-- Node6 -->
<g id="node7" class="node">
<title>Node6</title>
<polygon fill="none" stroke="#bfbfbf" points="976.5,-.5 976.5,-19.5 1017.5,-19.5 1017.5,-.5 976.5,-.5"/>
<text text-anchor="middle" x="997" y="-7.5" font-family="Helvetica,sans-Serif" font-size="10.00" fill="#000000">tuple</text>
</g>
<!-- Node5&#45;&gt;Node6 -->
<g id="edge7" class="edge">
<title>Node5&#45;&gt;Node6</title>
<path fill="none" stroke="#191970" d="M819.146,-224.4741C835.1697,-216.0338 858.2034,-202.7815 876,-188 927.3343,-145.3628 942.9319,-133.9624 976,-76 984.2749,-61.4956 989.7518,-43.3051 993.0313,-29.6962"/>
<polygon fill="#191970" stroke="#191970" points="996.4506,-30.4433 995.2018,-19.9223 989.6171,-28.9258 996.4506,-30.4433"/>
</g>
<!-- Node7 -->
<g id="node8" class="node">
<title>Node7</title>
<polygon fill="none" stroke="#bfbfbf" points="699,-.5 699,-19.5 759,-19.5 759,-.5 699,-.5"/>
<text text-anchor="middle" x="729" y="-7.5" font-family="Helvetica,sans-Serif" font-size="10.00" fill="#000000">iostream</text>
</g>
<!-- Node5&#45;&gt;Node7 -->
<g id="edge8" class="edge">
<title>Node5&#45;&gt;Node7</title>
<path fill="none" stroke="#191970" d="M819.8241,-224.3695C833.3215,-216.6136 850.1157,-204.3161 858,-188 883.5252,-135.1773 891.8066,-103.9467 858,-56 847.4766,-41.075 803.1364,-27.4991 769.3509,-19.0269"/>
<polygon fill="#191970" stroke="#191970" points="769.7981,-15.5335 759.2537,-16.5656 768.1403,-22.3344 769.7981,-15.5335"/>
</g>
<!-- Node8 -->
<g id="node9" class="node">
<title>Node8</title>
<g id="a_node9"><a xlink:href="iShape_8hxx.html" target="_top" xlink:title="../util/iShape.hxx">
<polygon fill="none" stroke="#000000" points="751,-168.5 751,-187.5 849,-187.5 849,-168.5 751,-168.5"/>
<text text-anchor="middle" x="800" y="-175.5" font-family="Helvetica,sans-Serif" font-size="10.00" fill="#000000">../util/iShape.hxx</text>
</a>
</g>
</g>
<!-- Node5&#45;&gt;Node8 -->
<g id="edge9" class="edge">
<title>Node5&#45;&gt;Node8</title>
<path fill="none" stroke="#191970" d="M800,-224.2455C800,-216.9382 800,-206.6944 800,-197.7046"/>
<polygon fill="#191970" stroke="#191970" points="803.5001,-197.6426 800,-187.6427 796.5001,-197.6427 803.5001,-197.6426"/>
</g>
<!-- Node9 -->
<g id="node10" class="node">
<title>Node9</title>
<g id="a_node10"><a xlink:href="Rectangle_8inl_8hxx.html" target="_top" xlink:title="Rectangle.inl.hxx">
<polygon fill="none" stroke="#000000" points="631.5,-168.5 631.5,-187.5 732.5,-187.5 732.5,-168.5 631.5,-168.5"/>
<text text-anchor="middle" x="682" y="-175.5" font-family="Helvetica,sans-Serif" font-size="10.00" fill="#000000">Rectangle.inl.hxx</text>
</a>
</g>
</g>
<!-- Node5&#45;&gt;Node9 -->
<g id="edge10" class="edge">
<title>Node5&#45;&gt;Node9</title>
<path fill="none" stroke="#191970" d="M779.7151,-224.3733C760.8579,-215.4241 732.554,-201.9917 711.2545,-191.8835"/>
<polygon fill="#191970" stroke="#191970" points="712.5551,-188.6266 702.0202,-187.5011 709.5539,-194.9506 712.5551,-188.6266"/>
</g>
<!-- Node10 -->
<g id="node11" class="node">
<title>Node10</title>
<polygon fill="none" stroke="#bfbfbf" points="785,-56.5 785,-75.5 849,-75.5 849,-56.5 785,-56.5"/>
<text text-anchor="middle" x="817" y="-63.5" font-family="Helvetica,sans-Serif" font-size="10.00" fill="#000000">algorithm</text>
</g>
<!-- Node9&#45;&gt;Node10 -->
<g id="edge11" class="edge">
<title>Node9&#45;&gt;Node10</title>
<path fill="none" stroke="#191970" d="M693.51,-168.4509C716.6242,-149.2747 768.9108,-105.8962 797.4746,-82.1988"/>
<polygon fill="#191970" stroke="#191970" points="800.0576,-84.6036 805.5191,-75.5249 795.5881,-79.2162 800.0576,-84.6036"/>
</g>
<!-- Node11 -->
<g id="node12" class="node">
<title>Node11</title>
<g id="a_node12"><a xlink:href="LOG_8hxx.html" target="_top" xlink:title="LOG.hxx">
<polygon fill="none" stroke="#000000" points="516,-112.5 516,-131.5 574,-131.5 574,-112.5 516,-112.5"/>
<text text-anchor="middle" x="545" y="-119.5" font-family="Helvetica,sans-Serif" font-size="10.00" fill="#000000">LOG.hxx</text>
</a>
</g>
</g>
<!-- Node9&#45;&gt;Node11 -->
<g id="edge12" class="edge">
<title>Node9&#45;&gt;Node11</title>
<path fill="none" stroke="#191970" d="M658.4489,-168.3733C636.1609,-159.2629 602.5063,-145.5062 577.6363,-135.3404"/>
<polygon fill="#191970" stroke="#191970" points="578.8247,-132.0451 568.2438,-131.5011 576.1761,-138.5247 578.8247,-132.0451"/>
</g>
<!-- Node11&#45;&gt;Node2 -->
<g id="edge13" class="edge">
<title>Node11&#45;&gt;Node2</title>
<path fill="none" stroke="#191970" d="M515.9141,-121.1122C445.6525,-118.5233 261.1363,-109.0733 99.3325,-75.8924"/>
<polygon fill="#191970" stroke="#191970" points="99.7047,-72.3947 89.2004,-73.7769 98.2739,-79.2469 99.7047,-72.3947"/>
</g>
<!-- Node11&#45;&gt;Node7 -->
<g id="edge17" class="edge">
<title>Node11&#45;&gt;Node7</title>
<path fill="none" stroke="#191970" d="M574.1756,-115.5782C600.7857,-108.7619 640.3569,-96.1488 670,-76 688.9472,-63.1213 705.8331,-42.8636 716.6342,-28.1865"/>
<polygon fill="#191970" stroke="#191970" points="719.5945,-30.063 722.5371,-19.885 713.8897,-26.0065 719.5945,-30.063"/>
</g>
<!-- Node11&#45;&gt;Node10 -->
<g id="edge23" class="edge">
<title>Node11&#45;&gt;Node10</title>
<path fill="none" stroke="#191970" d="M574.256,-116.5887C616.381,-108.7072 696.7883,-93.3292 774.807,-76.198"/>
<polygon fill="#191970" stroke="#191970" points="775.7914,-79.5651 784.8013,-73.9908 774.2818,-72.7298 775.7914,-79.5651"/>
</g>
<!-- Node12 -->
<g id="node13" class="node">
<title>Node12</title>
<g id="a_node13"><a xlink:href="Exception_8hxx.html" target="_top" xlink:title="Exception.hxx">
<polygon fill="none" stroke="#000000" points="107,-56.5 107,-75.5 193,-75.5 193,-56.5 107,-56.5"/>
<text text-anchor="middle" x="150" y="-63.5" font-family="Helvetica,sans-Serif" font-size="10.00" fill="#000000">Exception.hxx</text>
</a>
</g>
</g>
<!-- Node11&#45;&gt;Node12 -->
<g id="edge14" class="edge">
<title>Node11&#45;&gt;Node12</title>
<path fill="none" stroke="#191970" d="M515.9547,-117.8822C449.8695,-108.5131 287.4692,-85.4893 202.9901,-73.5125"/>
<polygon fill="#191970" stroke="#191970" points="203.4781,-70.0468 193.0858,-72.1084 202.4955,-76.9775 203.4781,-70.0468"/>
</g>
<!-- Node15 -->
<g id="node16" class="node">
<title>Node15</title>
<polygon fill="none" stroke="#bfbfbf" points="717,-56.5 717,-75.5 767,-75.5 767,-56.5 717,-56.5"/>
<text text-anchor="middle" x="742" y="-63.5" font-family="Helvetica,sans-Serif" font-size="10.00" fill="#000000">chrono</text>
</g>
<!-- Node11&#45;&gt;Node15 -->
<g id="edge18" class="edge">
<title>Node11&#45;&gt;Node15</title>
<path fill="none" stroke="#191970" d="M574.068,-113.737C609.3851,-103.6976 668.932,-86.7706 706.8078,-76.0039"/>
<polygon fill="#191970" stroke="#191970" points="708.216,-79.2423 716.8779,-73.1413 706.3019,-72.5091 708.216,-79.2423"/>
</g>
<!-- Node16 -->
<g id="node17" class="node">
<title>Node16</title>
<polygon fill="none" stroke="#bfbfbf" points="249,-56.5 249,-75.5 293,-75.5 293,-56.5 249,-56.5"/>
<text text-anchor="middle" x="271" y="-63.5" font-family="Helvetica,sans-Serif" font-size="10.00" fill="#000000">ctime</text>
</g>
<!-- Node11&#45;&gt;Node16 -->
<g id="edge19" class="edge">
<title>Node11&#45;&gt;Node16</title>
<path fill="none" stroke="#191970" d="M515.7082,-117.5494C469.9594,-110.348 378.9181,-95.0105 303,-76 302.9012,-75.9753 302.8022,-75.9504 302.7031,-75.9254"/>
<polygon fill="#191970" stroke="#191970" points="303.8576,-72.6133 293.2866,-73.3241 301.9936,-79.3606 303.8576,-72.6133"/>
</g>
<!-- Node17 -->
<g id="node18" class="node">
<title>Node17</title>
<polygon fill="none" stroke="#bfbfbf" points="311.5,-56.5 311.5,-75.5 366.5,-75.5 366.5,-56.5 311.5,-56.5"/>
<text text-anchor="middle" x="339" y="-63.5" font-family="Helvetica,sans-Serif" font-size="10.00" fill="#000000">fstream</text>
</g>
<!-- Node11&#45;&gt;Node17 -->
<g id="edge20" class="edge">
<title>Node11&#45;&gt;Node17</title>
<path fill="none" stroke="#191970" d="M515.9221,-114.0953C479.3196,-104.1451 416.3935,-87.039 376.2881,-76.1366"/>
<polygon fill="#191970" stroke="#191970" points="377.1813,-72.7524 366.6134,-73.5065 375.345,-79.5073 377.1813,-72.7524"/>
</g>
<!-- Node18 -->
<g id="node19" class="node">
<title>Node18</title>
<polygon fill="none" stroke="#bfbfbf" points="385,-56.5 385,-75.5 441,-75.5 441,-56.5 385,-56.5"/>
<text text-anchor="middle" x="413" y="-63.5" font-family="Helvetica,sans-Serif" font-size="10.00" fill="#000000">sstream</text>
</g>
<!-- Node11&#45;&gt;Node18 -->
<g id="edge21" class="edge">
<title>Node11&#45;&gt;Node18</title>
<path fill="none" stroke="#191970" d="M522.3084,-112.3733C500.9289,-103.3032 468.6943,-89.6279 444.7638,-79.4755"/>
<polygon fill="#191970" stroke="#191970" points="445.9683,-76.1846 435.3955,-75.5011 443.2344,-82.6287 445.9683,-76.1846"/>
</g>
<!-- Node19 -->
<g id="node20" class="node">
<title>Node19</title>
<polygon fill="none" stroke="#bfbfbf" points="459,-56.5 459,-75.5 503,-75.5 503,-56.5 459,-56.5"/>
<text text-anchor="middle" x="481" y="-63.5" font-family="Helvetica,sans-Serif" font-size="10.00" fill="#000000">SDL.h</text>
</g>
<!-- Node11&#45;&gt;Node19 -->
<g id="edge22" class="edge">
<title>Node11&#45;&gt;Node19</title>
<path fill="none" stroke="#191970" d="M533.8521,-112.2455C524.4913,-104.0549 510.9142,-92.1749 499.8651,-82.5069"/>
<polygon fill="#191970" stroke="#191970" points="501.8508,-79.5937 492.0202,-75.6427 497.2412,-84.8618 501.8508,-79.5937"/>
</g>
<!-- Node20 -->
<g id="node21" class="node">
<title>Node20</title>
<polygon fill="none" stroke="#bfbfbf" points="521,-56.5 521,-75.5 569,-75.5 569,-56.5 521,-56.5"/>
<text text-anchor="middle" x="545" y="-63.5" font-family="Helvetica,sans-Serif" font-size="10.00" fill="#000000">mutex</text>
</g>
<!-- Node11&#45;&gt;Node20 -->
<g id="edge24" class="edge">
<title>Node11&#45;&gt;Node20</title>
<path fill="none" stroke="#191970" d="M545,-112.2455C545,-104.9382 545,-94.6944 545,-85.7046"/>
<polygon fill="#191970" stroke="#191970" points="548.5001,-85.6426 545,-75.6427 541.5001,-85.6427 548.5001,-85.6426"/>
</g>
<!-- Node21 -->
<g id="node22" class="node">
<title>Node21</title>
<g id="a_node22"><a xlink:href="Meta_8hxx.html" target="_top" xlink:title="Meta.hxx">
<polygon fill="none" stroke="#000000" points="905,-56.5 905,-75.5 967,-75.5 967,-56.5 905,-56.5"/>
<text text-anchor="middle" x="936" y="-63.5" font-family="Helvetica,sans-Serif" font-size="10.00" fill="#000000">Meta.hxx</text>
</a>
</g>
</g>
<!-- Node11&#45;&gt;Node21 -->
<g id="edge25" class="edge">
<title>Node11&#45;&gt;Node21</title>
<path fill="none" stroke="#191970" d="M574.0691,-117.8366C642.7519,-107.9997 815.2481,-83.2944 894.726,-71.9114"/>
<polygon fill="#191970" stroke="#191970" points="895.4481,-75.3437 904.8509,-70.4613 894.4556,-68.4145 895.4481,-75.3437"/>
</g>
<!-- Node24 -->
<g id="node25" class="node">
<title>Node24</title>
<g id="a_node25"><a xlink:href="LOG_8inl_8hxx.html" target="_top" xlink:title="LOG.inl.hxx">
<polygon fill="none" stroke="#000000" points="587.5,-56.5 587.5,-75.5 660.5,-75.5 660.5,-56.5 587.5,-56.5"/>
<text text-anchor="middle" x="624" y="-63.5" font-family="Helvetica,sans-Serif" font-size="10.00" fill="#000000">LOG.inl.hxx</text>
</a>
</g>
</g>
<!-- Node11&#45;&gt;Node24 -->
<g id="edge30" class="edge">
<title>Node11&#45;&gt;Node24</title>
<path fill="none" stroke="#191970" d="M558.7607,-112.2455C570.6552,-103.814 588.065,-91.4729 601.9085,-81.6598"/>
<polygon fill="#191970" stroke="#191970" points="604.2628,-84.2811 610.3969,-75.6427 600.2146,-78.5704 604.2628,-84.2811"/>
</g>
<!-- Node13 -->
<g id="node14" class="node">
<title>Node13</title>
<polygon fill="none" stroke="#bfbfbf" points="75.5,-.5 75.5,-19.5 140.5,-19.5 140.5,-.5 75.5,-.5"/>
<text text-anchor="middle" x="108" y="-7.5" font-family="Helvetica,sans-Serif" font-size="10.00" fill="#000000">stdexcept</text>
</g>
<!-- Node12&#45;&gt;Node13 -->
<g id="edge15" class="edge">
<title>Node12&#45;&gt;Node13</title>
<path fill="none" stroke="#191970" d="M142.6842,-56.2455C136.7821,-48.3761 128.3258,-37.101 121.2406,-27.6542"/>
<polygon fill="#191970" stroke="#191970" points="124.0321,-25.5427 115.232,-19.6427 118.432,-29.7427 124.0321,-25.5427"/>
</g>
<!-- Node14 -->
<g id="node15" class="node">
<title>Node14</title>
<polygon fill="none" stroke="#bfbfbf" points="158.5,-.5 158.5,-19.5 223.5,-19.5 223.5,-.5 158.5,-.5"/>
<text text-anchor="middle" x="191" y="-7.5" font-family="Helvetica,sans-Serif" font-size="10.00" fill="#000000">exception</text>
</g>
<!-- Node12&#45;&gt;Node14 -->
<g id="edge16" class="edge">
<title>Node12&#45;&gt;Node14</title>
<path fill="none" stroke="#191970" d="M157.1417,-56.2455C162.8444,-48.4564 170.99,-37.3308 177.8625,-27.9439"/>
<polygon fill="#191970" stroke="#191970" points="180.8568,-29.7789 183.9402,-19.6427 175.2087,-25.6437 180.8568,-29.7789"/>
</g>
<!-- Node21&#45;&gt;Node6 -->
<g id="edge29" class="edge">
<title>Node21&#45;&gt;Node6</title>
<path fill="none" stroke="#191970" d="M946.6254,-56.2455C955.5473,-48.0549 968.488,-36.1749 979.0192,-26.5069"/>
<polygon fill="#191970" stroke="#191970" points="981.4968,-28.9837 986.4964,-19.6427 976.7629,-23.8271 981.4968,-28.9837"/>
</g>
<!-- Node21&#45;&gt;Node7 -->
<g id="edge26" class="edge">
<title>Node21&#45;&gt;Node7</title>
<path fill="none" stroke="#191970" d="M904.5612,-57.4948C868.2498,-47.6715 808.4464,-31.4928 768.8903,-20.7916"/>
<polygon fill="#191970" stroke="#191970" points="769.6165,-17.3623 759.0494,-18.1293 767.7884,-24.1194 769.6165,-17.3623"/>
</g>
<!-- Node22 -->
<g id="node23" class="node">
<title>Node22</title>
<polygon fill="none" stroke="#bfbfbf" points="820.5,-.5 820.5,-19.5 889.5,-19.5 889.5,-.5 820.5,-.5"/>
<text text-anchor="middle" x="855" y="-7.5" font-family="Helvetica,sans-Serif" font-size="10.00" fill="#000000">type_traits</text>
</g>
<!-- Node21&#45;&gt;Node22 -->
<g id="edge27" class="edge">
<title>Node21&#45;&gt;Node22</title>
<path fill="none" stroke="#191970" d="M921.8909,-56.2455C909.5791,-47.7337 891.5042,-35.2375 877.2462,-25.3801"/>
<polygon fill="#191970" stroke="#191970" points="879.1634,-22.4506 868.9474,-19.6427 875.1826,-28.2085 879.1634,-22.4506"/>
</g>
<!-- Node23 -->
<g id="node24" class="node">
<title>Node23</title>
<polygon fill="none" stroke="#bfbfbf" points="907.5,-.5 907.5,-19.5 958.5,-19.5 958.5,-.5 907.5,-.5"/>
<text text-anchor="middle" x="933" y="-7.5" font-family="Helvetica,sans-Serif" font-size="10.00" fill="#000000">variant</text>
</g>
<!-- Node21&#45;&gt;Node23 -->
<g id="edge28" class="edge">
<title>Node21&#45;&gt;Node23</title>
<path fill="none" stroke="#191970" d="M935.4774,-56.2455C935.086,-48.9382 934.5372,-38.6944 934.0556,-29.7046"/>
<polygon fill="#191970" stroke="#191970" points="937.5466,-29.4411 933.5166,-19.6427 930.5566,-29.8156 937.5466,-29.4411"/>
</g>
<!-- Node25&#45;&gt;Node21 -->
<g id="edge33" class="edge">
<title>Node25&#45;&gt;Node21</title>
<path fill="none" stroke="#191970" d="M1052.9779,-224.4862C1033.037,-197.4695 975.8132,-119.9405 949.5146,-84.3102"/>
<polygon fill="#191970" stroke="#191970" points="952.0085,-81.7951 943.2539,-75.8279 946.3765,-85.9521 952.0085,-81.7951"/>
</g>
<!-- Node26 -->
<g id="node27" class="node">
<title>Node26</title>
<polygon fill="none" stroke="#bfbfbf" points="1061.5,-168.5 1061.5,-187.5 1114.5,-187.5 1114.5,-168.5 1061.5,-168.5"/>
<text text-anchor="middle" x="1088" y="-175.5" font-family="Helvetica,sans-Serif" font-size="10.00" fill="#000000">iterator</text>
</g>
<!-- Node25&#45;&gt;Node26 -->
<g id="edge32" class="edge">
<title>Node25&#45;&gt;Node26</title>
<path fill="none" stroke="#191970" d="M1064.8772,-224.2455C1068.6513,-216.6973 1073.9921,-206.0158 1078.5901,-196.8197"/>
<polygon fill="#191970" stroke="#191970" points="1081.837,-198.1522 1083.1787,-187.6427 1075.576,-195.0217 1081.837,-198.1522"/>
</g>
<!-- Node27 -->
<g id="node28" class="node">
<title>Node27</title>
<g id="a_node28"><a xlink:href="Range_8inl_8hxx.html" target="_top" xlink:title="Range.inl.hxx">
<polygon fill="none" stroke="#000000" points="1132.5,-168.5 1132.5,-187.5 1215.5,-187.5 1215.5,-168.5 1132.5,-168.5"/>
<text text-anchor="middle" x="1174" y="-175.5" font-family="Helvetica,sans-Serif" font-size="10.00" fill="#000000">Range.inl.hxx</text>
</a>
</g>
</g>
<!-- Node25&#45;&gt;Node27 -->
<g id="edge34" class="edge">
<title>Node25&#45;&gt;Node27</title>
<path fill="none" stroke="#191970" d="M1079.5973,-224.3733C1097.7331,-215.4644 1124.9135,-202.1127 1145.4587,-192.0203"/>
<polygon fill="#191970" stroke="#191970" points="1147.2261,-195.0517 1154.6584,-187.5011 1144.1397,-188.7688 1147.2261,-195.0517"/>
</g>
<!-- Node28&#45;&gt;Node7 -->
<g id="edge37" class="edge">
<title>Node28&#45;&gt;Node7</title>
<path fill="none" stroke="#191970" d="M218.3363,-224.1355C210.855,-193.9848 193.1202,-102.2953 240,-56 271.7025,-24.6927 577.5911,-13.8441 688.8226,-10.9162"/>
<polygon fill="#191970" stroke="#191970" points="689.0562,-14.4115 698.9636,-10.6571 688.8774,-7.4137 689.0562,-14.4115"/>
</g>
<!-- Node29 -->
<g id="node30" class="node">
<title>Node29</title>
<polygon fill="none" stroke="#bfbfbf" points="143,-168.5 143,-187.5 193,-187.5 193,-168.5 143,-168.5"/>
<text text-anchor="middle" x="168" y="-175.5" font-family="Helvetica,sans-Serif" font-size="10.00" fill="#000000">cstdint</text>
</g>
<!-- Node28&#45;&gt;Node29 -->
<g id="edge36" class="edge">
<title>Node28&#45;&gt;Node29</title>
<path fill="none" stroke="#191970" d="M211.7681,-224.2455C204.1683,-216.2155 193.2123,-204.6394 184.1632,-195.0781"/>
<polygon fill="#191970" stroke="#191970" points="186.542,-192.4998 177.1261,-187.6427 181.4579,-197.3115 186.542,-192.4998"/>
</g>
</g>
</svg>
        <g id="navigator" transform="translate(0 0)" fill="#404254">
                <rect fill="#f2f5e9" fill-opacity="0.5" stroke="#606060" stroke-width=".5" x="0" y="0" width="60" height="60"/>
                <use id="zoomplus" xlink:href="#zoomPlus" x="17" y="9" onmousedown="handleZoom(evt,'in')"/>
                <use id="zoomminus" xlink:href="#zoomMin" x="42" y="9" onmousedown="handleZoom(evt,'out')"/>
                <use id="reset" xlink:href="#resetDef" x="30" y="36" onmousedown="handleReset()"/>
                <g id="arrowUp" xlink:href="#dirArrow" transform="translate(30 24)" onmousedown="handlePan(0,-1)">
                  <use xlink:href="#rim" fill="#404040">
                        <set attributeName="fill" to="#808080" begin="arrowUp.mouseover" end="arrowUp.mouseout"/>
                  </use>
                  <path fill="none" stroke="white" stroke-width="1.5" d="M0,-3.0v7 M-2.5,-0.5L0,-3.0L2.5,-0.5"/>
                </g>
                <g id="arrowRight" xlink:href="#dirArrow" transform="rotate(90) translate(36 -43)" onmousedown="handlePan(1,0)">
                  <use xlink:href="#rim" fill="#404040">
                        <set attributeName="fill" to="#808080" begin="arrowRight.mouseover" end="arrowRight.mouseout"/>
                  </use>
                  <path fill="none" stroke="white" stroke-width="1.5" d="M0,-3.0v7 M-2.5,-0.5L0,-3.0L2.5,-0.5"/>
                </g>
                <g id="arrowDown" xlink:href="#dirArrow" transform="rotate(180) translate(-30 -48)" onmousedown="handlePan(0,1)">
                  <use xlink:href="#rim" fill="#404040">
                        <set attributeName="fill" to="#808080" begin="arrowDown.mouseover" end="arrowDown.mouseout"/>
                  </use>
                  <path fill="none" stroke="white" stroke-width="1.5" d="M0,-3.0v7 M-2.5,-0.5L0,-3.0L2.5,-0.5"/>
                </g>
                <g id="arrowLeft" xlink:href="#dirArrow" transform="rotate(270) translate(-36 17)" onmousedown="handlePan(-1,0)">
                  <use xlink:href="#rim" fill="#404040">
                        <set attributeName="fill" to="#808080" begin="arrowLeft.mouseover" end="arrowLeft.mouseout"/>
                  </use>
                  <path fill="none" stroke="white" stroke-width="1.5" d="M0,-3.0v7 M-2.5,-0.5L0,-3.0L2.5,-0.5"/>
                </g>
        </g>
        <svg viewBox="0 0 15 15" width="100%" height="30px" preserveAspectRatio="xMaxYMin meet">
         <g id="arrow_out" transform="scale(0.3 0.3)">
          <a xlink:href="Filesystem_8hxx__incl_org.svg" target="_base">
           <rect id="button" ry="5" rx="5" y="6" x="6" height="38" width="38"
                fill="#f2f5e9" fill-opacity="0.5" stroke="#606060" stroke-width="1.0"/>
           <path id="arrow"
             d="M 11.500037,31.436501 C 11.940474,20.09759 22.043105,11.32322 32.158766,21.979434 L 37.068811,17.246167 C 37.068811,17.246167 37.088388,32 37.088388,32 L 22.160133,31.978069 C 22.160133,31.978069 26.997745,27.140456 26.997745,27.140456 C 18.528582,18.264221 13.291696,25.230495 11.500037,31.436501 z"
             style="fill:#404040;"/>
          </a>
         </g>
        </svg>
</svg>
