<?xml version="1.0" encoding="UTF-8" standalone="no"?>
<!DOCTYPE svg PUBLIC "-//W3C//DTD SVG 1.1//EN"
 "http://www.w3.org/Graphics/SVG/1.1/DTD/svg11.dtd">
<!-- Generated by graphviz version 2.40.1 (20161225.0304)
 -->
<!-- Title: src/util/Filesystem.hxx Pages: 1 -->
<!--zoomable 95 -->
<svg id="main" version="1.1" xmlns="http://www.w3.org/2000/svg" xmlns:xlink="http://www.w3.org/1999/xlink" xml:space="preserve" onload="init(evt)">
<style type="text/css"><![CDATA[
.edge:hover path { stroke: red; }
.edge:hover polygon { stroke: red; fill: red; }
]]></style>
<script type="text/javascript"><![CDATA[
var edges = document.getElementsByTagName('g');
if (edges && edges.length) {
  for (var i=0;i<edges.length;i++) {
    if (edges[i].id.substr(0,4)=='edge') {
      edges[i].setAttribute('class','edge');
    }
  }
}
]]></script>
        <defs>
                <circle id="rim" cx="0" cy="0" r="7"/>
                <circle id="rim2" cx="0" cy="0" r="3.5"/>
                <g id="zoomPlus">
                        <use xlink:href="#rim" fill="#404040">
                                <set attributeName="fill" to="#808080" begin="zoomplus.mouseover" end="zoomplus.mouseout"/>
                        </use>
                        <path d="M-4,0h8M0,-4v8" fill="none" stroke="white" stroke-width="1.5" pointer-events="none"/>
                </g>
                <g id="zoomMin">
                        <use xlink:href="#rim" fill="#404040">
                                <set attributeName="fill" to="#808080" begin="zoomminus.mouseover" end="zoomminus.mouseout"/>
                        </use>
                        <path d="M-4,0h8" fill="none" stroke="white" stroke-width="1.5" pointer-events="none"/>
                </g>
                <g id="dirArrow">
                        <path fill="none" stroke="white" stroke-width="1.5" d="M0,-3.0v7 M-2.5,-0.5L0,-3.0L2.5,-0.5"/>
                </g>
               <g id="resetDef">
                       <use xlink:href="#rim2" fill="#404040">
                               <set attributeName="fill" to="#808080" begin="reset.mouseover" end="reset.mouseout"/>
                       </use>
               </g>
        </defs>

<script type="text/javascript">
var viewWidth = 3291;
var viewHeight = 95;
var sectionId = 'dynsection-1';
</script>
<script xlink:href="svgpan.js"/>
<svg id="graph" class="graph">
<g id="viewport">
<title>src/util/Filesystem.hxx</title>
<!-- Node31 -->
<g id="node1" class="node">
<title>Node31</title>
<polygon fill="#bfbfbf" stroke="#000000" points="1584,-67.5 1584,-86.5 1710,-86.5 1710,-67.5 1584,-67.5"/>
<text text-anchor="middle" x="1647" y="-74.5" font-family="Helvetica,sans-Serif" font-size="10.00" fill="#000000">src/util/Filesystem.hxx</text>
</g>
<!-- Node32 -->
<g id="node2" class="node">
<title>Node32</title>
<g id="a_node2"><a xlink:href="Settings_8cxx.html" target="_top" xlink:title="src/engine/basics/Settings.cxx">
<polygon fill="none" stroke="#000000" points="0,-6 0,-25 164,-25 164,-6 0,-6"/>
<text text-anchor="middle" x="82" y="-13" font-family="Helvetica,sans-Serif" font-size="10.00" fill="#000000">src/engine/basics/Settings.cxx</text>
</a>
</g>
</g>
<!-- Node31&#45;&gt;Node32 -->
<g id="edge1" class="edge">
<title>Node31&#45;&gt;Node32</title>
<path fill="none" stroke="#191970" d="M1573.9549,-76.0514C1316.127,-72.4949 449.3729,-58.7169 173,-31 159.1268,-29.6087 144.1732,-27.3729 130.4756,-25.0273"/>
<polygon fill="#191970" stroke="#191970" points="1573.9125,-79.551 1583.9595,-76.1884 1574.0084,-72.5517 1573.9125,-79.551"/>
</g>
<!-- Node33 -->
<g id="node3" class="node">
<title>Node33</title>
<g id="a_node3"><a xlink:href="TerrainGenerator_8cxx.html" target="_top" xlink:title="src/engine/map/TerrainGenerator.cxx">
<polygon fill="none" stroke="#000000" points="182,-6 182,-25 378,-25 378,-6 182,-6"/>
<text text-anchor="middle" x="280" y="-13" font-family="Helvetica,sans-Serif" font-size="10.00" fill="#000000">src/engine/map/TerrainGenerator.cxx</text>
</a>
</g>
</g>
<!-- Node31&#45;&gt;Node33 -->
<g id="edge2" class="edge">
<title>Node31&#45;&gt;Node33</title>
<path fill="none" stroke="#191970" d="M1573.8366,-75.3631C1341.1449,-69.9939 619.8035,-52.0502 387,-31 370.9231,-29.5463 353.5725,-27.3201 337.6183,-25.0044"/>
<polygon fill="#191970" stroke="#191970" points="1573.8093,-78.8633 1583.8872,-75.5942 1573.9703,-71.8651 1573.8093,-78.8633"/>
</g>
<!-- Node34 -->
<g id="node4" class="node">
<title>Node34</title>
<g id="a_node4"><a xlink:href="Map_8cxx.html" target="_top" xlink:title="src/engine/Map.cxx">
<polygon fill="none" stroke="#000000" points="396,-6 396,-25 506,-25 506,-6 396,-6"/>
<text text-anchor="middle" x="451" y="-13" font-family="Helvetica,sans-Serif" font-size="10.00" fill="#000000">src/engine/Map.cxx</text>
</a>
</g>
</g>
<!-- Node31&#45;&gt;Node34 -->
<g id="edge3" class="edge">
<title>Node31&#45;&gt;Node34</title>
<path fill="none" stroke="#191970" d="M1573.8709,-75.9104C1357.1509,-72.3831 720.6478,-59.7943 515,-31 505.15,-29.6208 494.6033,-27.3889 484.971,-25.0431"/>
<polygon fill="#191970" stroke="#191970" points="1573.8151,-79.4098 1583.8702,-76.0715 1573.928,-72.4107 1573.8151,-79.4098"/>
</g>
<!-- Node35 -->
<g id="node5" class="node">
<title>Node35</title>
<g id="a_node5"><a xlink:href="ResourcesManager_8cxx.html" target="_top" xlink:title="src/engine/ResourcesManager.cxx">
<polygon fill="none" stroke="#000000" points="524.5,-6 524.5,-25 705.5,-25 705.5,-6 524.5,-6"/>
<text text-anchor="middle" x="615" y="-13" font-family="Helvetica,sans-Serif" font-size="10.00" fill="#000000">src/engine/ResourcesManager.cxx</text>
</a>
</g>
</g>
<!-- Node31&#45;&gt;Node35 -->
<g id="edge4" class="edge">
<title>Node31&#45;&gt;Node35</title>
<path fill="none" stroke="#191970" d="M1573.6967,-76.0264C1416.0251,-73.353 1033.0791,-63.751 714,-31 699.3765,-29.499 683.6205,-27.3002 669.073,-25.0277"/>
<polygon fill="#191970" stroke="#191970" points="1573.6969,-79.5268 1583.7534,-76.1927 1573.8126,-72.5278 1573.6969,-79.5268"/>
</g>
<!-- Node36 -->
<g id="node6" class="node">
<title>Node36</title>
<g id="a_node6"><a xlink:href="TileManager_8cxx.html" target="_top" xlink:title="src/engine/TileManager.cxx">
<polygon fill="none" stroke="#000000" points="723.5,-6 723.5,-25 872.5,-25 872.5,-6 723.5,-6"/>
<text text-anchor="middle" x="798" y="-13" font-family="Helvetica,sans-Serif" font-size="10.00" fill="#000000">src/engine/TileManager.cxx</text>
</a>
</g>
</g>
<!-- Node31&#45;&gt;Node36 -->
<g id="edge5" class="edge">
<title>Node31&#45;&gt;Node36</title>
<path fill="none" stroke="#191970" d="M1573.6109,-75.6329C1436.8822,-72.4122 1134.0747,-62.1064 881,-31 868.7786,-29.4978 855.6412,-27.3126 843.5047,-25.0544"/>
<polygon fill="#191970" stroke="#191970" points="1573.8774,-79.1399 1583.9552,-75.8705 1574.0382,-72.1417 1573.8774,-79.1399"/>
</g>
<!-- Node37 -->
<g id="node7" class="node">
<title>Node37</title>
<g id="a_node7"><a xlink:href="Text_8cxx.html" target="_top" xlink:title="src/engine/ui/widgets\l/Text.cxx">
<polygon fill="none" stroke="#000000" points="890,-.5 890,-30.5 1010,-30.5 1010,-.5 890,-.5"/>
<text text-anchor="start" x="898" y="-18.5" font-family="Helvetica,sans-Serif" font-size="10.00" fill="#000000">src/engine/ui/widgets</text>
<text text-anchor="middle" x="950" y="-7.5" font-family="Helvetica,sans-Serif" font-size="10.00" fill="#000000">/Text.cxx</text>
</a>
</g>
</g>
<!-- Node31&#45;&gt;Node37 -->
<g id="edge6" class="edge">
<title>Node31&#45;&gt;Node37</title>
<path fill="none" stroke="#191970" d="M1573.4999,-75.1361C1455.8435,-71.3637 1218.1843,-60.5017 1019,-31 1016.0852,-30.5683 1013.1104,-30.0813 1010.1126,-29.5531"/>
<polygon fill="#191970" stroke="#191970" points="1573.7162,-78.6445 1583.8206,-75.4586 1573.9349,-71.6479 1573.7162,-78.6445"/>
</g>
<!-- Node38 -->
<g id="node8" class="node">
<title>Node38</title>
<g id="a_node8"><a xlink:href="UIManager_8cxx.html" target="_top" xlink:title="src/engine/UIManager.cxx">
<polygon fill="none" stroke="#000000" points="1028,-6 1028,-25 1170,-25 1170,-6 1028,-6"/>
<text text-anchor="middle" x="1099" y="-13" font-family="Helvetica,sans-Serif" font-size="10.00" fill="#000000">src/engine/UIManager.cxx</text>
</a>
</g>
</g>
<!-- Node31&#45;&gt;Node38 -->
<g id="edge7" class="edge">
<title>Node31&#45;&gt;Node38</title>
<path fill="none" stroke="#191970" d="M1573.8675,-71.9375C1481.5484,-65.0592 1317.997,-51.2512 1179,-31 1167.6605,-29.3479 1155.4878,-27.1895 1144.1443,-25.0106"/>
<polygon fill="#191970" stroke="#191970" points="1573.7138,-75.4356 1583.9445,-72.6818 1574.2295,-68.4546 1573.7138,-75.4356"/>
</g>
<!-- Node39 -->
<g id="node9" class="node">
<title>Node39</title>
<g id="a_node9"><a xlink:href="WindowManager_8cxx.html" target="_top" xlink:title="src/engine/WindowManager.cxx">
<polygon fill="none" stroke="#000000" points="1188,-6 1188,-25 1358,-25 1358,-6 1188,-6"/>
<text text-anchor="middle" x="1273" y="-13" font-family="Helvetica,sans-Serif" font-size="10.00" fill="#000000">src/engine/WindowManager.cxx</text>
</a>
</g>
</g>
<!-- Node31&#45;&gt;Node39 -->
<g id="edge8" class="edge">
<title>Node31&#45;&gt;Node39</title>
<path fill="none" stroke="#191970" d="M1579.1605,-65.8665C1522.4539,-56.5573 1439.4517,-42.9248 1367,-31 1355.2494,-29.066 1342.673,-26.9938 1330.6648,-25.0141"/>
<polygon fill="#191970" stroke="#191970" points="1578.6475,-69.329 1589.0824,-67.4952 1579.7815,-62.4215 1578.6475,-69.329"/>
</g>
<!-- Node40 -->
<g id="node10" class="node">
<title>Node40</title>
<g id="a_node10"><a xlink:href="Game_8cxx.html" target="_top" xlink:title="src/Game.cxx">
<polygon fill="none" stroke="#000000" points="1376.5,-6 1376.5,-25 1459.5,-25 1459.5,-6 1376.5,-6"/>
<text text-anchor="middle" x="1418" y="-13" font-family="Helvetica,sans-Serif" font-size="10.00" fill="#000000">src/Game.cxx</text>
</a>
</g>
</g>
<!-- Node31&#45;&gt;Node40 -->
<g id="edge9" class="edge">
<title>Node31&#45;&gt;Node40</title>
<path fill="none" stroke="#191970" d="M1598.2582,-64.9927C1562.402,-56.0168 1512.5348,-43.235 1469,-31 1462.4074,-29.1472 1455.3647,-27.0704 1448.6831,-25.054"/>
<polygon fill="#191970" stroke="#191970" points="1597.433,-68.3941 1607.983,-67.4199 1599.1282,-61.6024 1597.433,-68.3941"/>
</g>
<!-- Node41 -->
<g id="node11" class="node">
<title>Node41</title>
<g id="a_node11"><a xlink:href="SDLRenderer_8cxx.html" target="_top" xlink:title="src/renderer/SDLRenderer.cxx">
<polygon fill="none" stroke="#000000" points="1478,-6 1478,-25 1638,-25 1638,-6 1478,-6"/>
<text text-anchor="middle" x="1558" y="-13" font-family="Helvetica,sans-Serif" font-size="10.00" fill="#000000">src/renderer/SDLRenderer.cxx</text>
</a>
</g>
</g>
<!-- Node31&#45;&gt;Node41 -->
<g id="edge10" class="edge">
<title>Node31&#45;&gt;Node41</title>
<path fill="none" stroke="#191970" d="M1624.5236,-61.4685C1607.9322,-50.0037 1585.8794,-34.765 1571.8086,-25.0419"/>
<polygon fill="#191970" stroke="#191970" points="1622.8771,-64.5851 1633.0938,-67.3906 1626.8565,-58.8263 1622.8771,-64.5851"/>
</g>
<!-- Node42 -->
<g id="node12" class="node">
<title>Node42</title>
<g id="a_node12"><a xlink:href="ScriptEngine_8cxx.html" target="_top" xlink:title="src/Scripting/ScriptEngine.cxx">
<polygon fill="none" stroke="#000000" points="1656.5,-6 1656.5,-25 1817.5,-25 1817.5,-6 1656.5,-6"/>
<text text-anchor="middle" x="1737" y="-13" font-family="Helvetica,sans-Serif" font-size="10.00" fill="#000000">src/Scripting/ScriptEngine.cxx</text>
</a>
</g>
</g>
<!-- Node31&#45;&gt;Node42 -->
<g id="edge11" class="edge">
<title>Node31&#45;&gt;Node42</title>
<path fill="none" stroke="#191970" d="M1669.729,-61.4685C1686.5068,-50.0037 1708.8074,-34.765 1723.0362,-25.0419"/>
<polygon fill="#191970" stroke="#191970" points="1667.3443,-58.8589 1661.0625,-67.3906 1671.2936,-64.6384 1667.3443,-58.8589"/>
</g>
<!-- Node43 -->
<g id="node13" class="node">
<title>Node43</title>
<g id="a_node13"><a xlink:href="AudioMixer_8cxx.html" target="_top" xlink:title="src/services/AudioMixer.cxx">
<polygon fill="none" stroke="#000000" points="1836,-6 1836,-25 1988,-25 1988,-6 1836,-6"/>
<text text-anchor="middle" x="1912" y="-13" font-family="Helvetica,sans-Serif" font-size="10.00" fill="#000000">src/services/AudioMixer.cxx</text>
</a>
</g>
</g>
<!-- Node31&#45;&gt;Node43 -->
<g id="edge12" class="edge">
<title>Node31&#45;&gt;Node43</title>
<path fill="none" stroke="#191970" d="M1698.1284,-65.1343C1748.4197,-53.463 1824.2329,-35.8686 1870.7881,-25.0643"/>
<polygon fill="#191970" stroke="#191970" points="1697.0653,-61.788 1688.1155,-67.4581 1698.6479,-68.6067 1697.0653,-61.788"/>
</g>
<!-- Node44 -->
<g id="node14" class="node">
<title>Node44</title>
<g id="a_node14"><a xlink:href="ResourceManager_8cxx.html" target="_top" xlink:title="src/services/ResourceManager.cxx">
<polygon fill="none" stroke="#000000" points="2006.5,-6 2006.5,-25 2189.5,-25 2189.5,-6 2006.5,-6"/>
<text text-anchor="middle" x="2098" y="-13" font-family="Helvetica,sans-Serif" font-size="10.00" fill="#000000">src/services/ResourceManager.cxx</text>
</a>
</g>
</g>
<!-- Node31&#45;&gt;Node44 -->
<g id="edge13" class="edge">
<title>Node31&#45;&gt;Node44</title>
<path fill="none" stroke="#191970" d="M1720.4475,-67.8154C1791.3113,-58.8431 1901.5805,-44.5906 1997,-31 2010.0843,-29.1364 2024.1068,-27.0448 2037.4133,-25.0157"/>
<polygon fill="#191970" stroke="#191970" points="1719.7666,-64.3735 1710.2845,-69.1001 1720.6446,-71.3182 1719.7666,-64.3735"/>
</g>
<!-- Node45 -->
<g id="node15" class="node">
<title>Node45</title>
<g id="a_node15"><a xlink:href="android_2Filesystem_8cxx.html" target="_top" xlink:title="src/util/android/Filesystem.cxx">
<polygon fill="none" stroke="#000000" points="2207.5,-6 2207.5,-25 2372.5,-25 2372.5,-6 2207.5,-6"/>
<text text-anchor="middle" x="2290" y="-13" font-family="Helvetica,sans-Serif" font-size="10.00" fill="#000000">src/util/android/Filesystem.cxx</text>
</a>
</g>
</g>
<!-- Node31&#45;&gt;Node45 -->
<g id="edge14" class="edge">
<title>Node31&#45;&gt;Node45</title>
<path fill="none" stroke="#191970" d="M1720.3589,-72.8904C1826.3067,-66.5009 2028.1904,-52.6238 2199,-31 2211.8784,-29.3697 2225.7175,-27.2193 2238.62,-25.0411"/>
<polygon fill="#191970" stroke="#191970" points="1719.8719,-69.4132 1710.0986,-73.5038 1720.2897,-76.4007 1719.8719,-69.4132"/>
</g>
<!-- Node46 -->
<g id="node16" class="node">
<title>Node46</title>
<g id="a_node16"><a xlink:href="desktop_2Filesystem_8cxx.html" target="_top" xlink:title="src/util/desktop/Filesystem.cxx">
<polygon fill="none" stroke="#000000" points="2390.5,-6 2390.5,-25 2557.5,-25 2557.5,-6 2390.5,-6"/>
<text text-anchor="middle" x="2474" y="-13" font-family="Helvetica,sans-Serif" font-size="10.00" fill="#000000">src/util/desktop/Filesystem.cxx</text>
</a>
</g>
</g>
<!-- Node31&#45;&gt;Node46 -->
<g id="edge15" class="edge">
<title>Node31&#45;&gt;Node46</title>
<path fill="none" stroke="#191970" d="M1720.1474,-74.9515C1852.5493,-70.6812 2140.6121,-58.811 2382,-31 2395.3554,-29.4613 2409.7215,-27.291 2423.0391,-25.0604"/>
<polygon fill="#191970" stroke="#191970" points="1720.0037,-71.4542 1710.1199,-75.2699 1720.226,-78.4506 1720.0037,-71.4542"/>
</g>
<!-- Node47 -->
<g id="node17" class="node">
<title>Node47</title>
<g id="a_node17"><a xlink:href="Filesystem_8cxx.html" target="_top" xlink:title="src/util/Filesystem.cxx">
<polygon fill="none" stroke="#000000" points="2575.5,-6 2575.5,-25 2700.5,-25 2700.5,-6 2575.5,-6"/>
<text text-anchor="middle" x="2638" y="-13" font-family="Helvetica,sans-Serif" font-size="10.00" fill="#000000">src/util/Filesystem.cxx</text>
</a>
</g>
</g>
<!-- Node31&#45;&gt;Node47 -->
<g id="edge16" class="edge">
<title>Node31&#45;&gt;Node47</title>
<path fill="none" stroke="#191970" d="M1720.3347,-74.8973C1908.2809,-69.2573 2403.8518,-52.7359 2567,-31 2577.7553,-29.5671 2589.2971,-27.3477 2599.883,-25.0319"/>
<polygon fill="#191970" stroke="#191970" points="1720.1682,-71.4006 1710.2771,-75.1975 1720.3771,-78.3975 1720.1682,-71.4006"/>
</g>
<!-- Node48 -->
<g id="node18" class="node">
<title>Node48</title>
<g id="a_node18"><a xlink:href="LOG_8cxx.html" target="_top" xlink:title="src/util/LOG.cxx">
<polygon fill="none" stroke="#000000" points="2718.5,-6 2718.5,-25 2811.5,-25 2811.5,-6 2718.5,-6"/>
<text text-anchor="middle" x="2765" y="-13" font-family="Helvetica,sans-Serif" font-size="10.00" fill="#000000">src/util/LOG.cxx</text>
</a>
</g>
</g>
<!-- Node31&#45;&gt;Node48 -->
<g id="edge17" class="edge">
<title>Node31&#45;&gt;Node48</title>
<path fill="none" stroke="#191970" d="M1720.3056,-76.0339C1928.2,-72.9437 2518.8651,-61.6434 2710,-31 2718.522,-29.6337 2727.6039,-27.4059 2735.8809,-25.06"/>
<polygon fill="#191970" stroke="#191970" points="1720.0553,-72.5371 1710.1077,-76.1835 1720.158,-79.5364 1720.0553,-72.5371"/>
</g>
<!-- Node49 -->
<g id="node19" class="node">
<title>Node49</title>
<g id="a_node19"><a xlink:href="macOS_2Filesystem_8cxx.html" target="_top" xlink:title="src/util/macOS/Filesystem.cxx">
<polygon fill="none" stroke="#000000" points="2829.5,-6 2829.5,-25 2992.5,-25 2992.5,-6 2829.5,-6"/>
<text text-anchor="middle" x="2911" y="-13" font-family="Helvetica,sans-Serif" font-size="10.00" fill="#000000">src/util/macOS/Filesystem.cxx</text>
</a>
</g>
</g>
<!-- Node31&#45;&gt;Node49 -->
<g id="edge18" class="edge">
<title>Node31&#45;&gt;Node49</title>
<path fill="none" stroke="#191970" d="M1720.4216,-75.3878C1942.6754,-70.3075 2606.088,-53.6177 2821,-31 2834.5604,-29.5729 2849.1668,-27.3554 2862.586,-25.0396"/>
<polygon fill="#191970" stroke="#191970" points="1720.0928,-71.8943 1710.1751,-75.621 1720.2521,-78.8925 1720.0928,-71.8943"/>
</g>
<!-- Node50 -->
<g id="node20" class="node">
<title>Node50</title>
<g id="a_node20"><a xlink:href="CursorView_8cxx.html" target="_top" xlink:title="src/view/CursorView.cxx">
<polygon fill="none" stroke="#000000" points="3010.5,-6 3010.5,-25 3145.5,-25 3145.5,-6 3010.5,-6"/>
<text text-anchor="middle" x="3078" y="-13" font-family="Helvetica,sans-Serif" font-size="10.00" fill="#000000">src/view/CursorView.cxx</text>
</a>
</g>
</g>
<!-- Node31&#45;&gt;Node50 -->
<g id="edge19" class="edge">
<title>Node31&#45;&gt;Node50</title>
<path fill="none" stroke="#191970" d="M1720.2537,-76.129C1964.6125,-72.9701 2750.5281,-60.7004 3002,-31 3013.6346,-29.6259 3026.1388,-27.3956 3037.5779,-25.0497"/>
<polygon fill="#191970" stroke="#191970" points="1720.0168,-72.6317 1710.0625,-76.2595 1720.1065,-79.6311 1720.0168,-72.6317"/>
</g>
<!-- Node51 -->
<g id="node21" class="node">
<title>Node51</title>
<g id="a_node21"><a xlink:href="Window_8cxx.html" target="_top" xlink:title="src/view/Window.cxx">
<polygon fill="none" stroke="#000000" points="3163.5,-6 3163.5,-25 3282.5,-25 3282.5,-6 3163.5,-6"/>
<text text-anchor="middle" x="3223" y="-13" font-family="Helvetica,sans-Serif" font-size="10.00" fill="#000000">src/view/Window.cxx</text>
</a>
</g>
</g>
<!-- Node31&#45;&gt;Node51 -->
<g id="edge20" class="edge">
<title>Node31&#45;&gt;Node51</title>
<path fill="none" stroke="#191970" d="M1720.4466,-76.6422C1982.747,-75.0707 2872.6587,-67.1384 3155,-31 3165.5691,-29.6472 3176.9071,-27.3929 3187.2365,-25.0167"/>
<polygon fill="#191970" stroke="#191970" points="1720.2521,-73.1432 1710.2728,-76.7018 1720.2932,-80.1431 1720.2521,-73.1432"/>
</g>
</g>
</svg>
        <g id="navigator" transform="translate(0 0)" fill="#404254">
                <rect fill="#f2f5e9" fill-opacity="0.5" stroke="#606060" stroke-width=".5" x="0" y="0" width="60" height="60"/>
                <use id="zoomplus" xlink:href="#zoomPlus" x="17" y="9" onmousedown="handleZoom(evt,'in')"/>
                <use id="zoomminus" xlink:href="#zoomMin" x="42" y="9" onmousedown="handleZoom(evt,'out')"/>
                <use id="reset" xlink:href="#resetDef" x="30" y="36" onmousedown="handleReset()"/>
                <g id="arrowUp" xlink:href="#dirArrow" transform="translate(30 24)" onmousedown="handlePan(0,-1)">
                  <use xlink:href="#rim" fill="#404040">
                        <set attributeName="fill" to="#808080" begin="arrowUp.mouseover" end="arrowUp.mouseout"/>
                  </use>
                  <path fill="none" stroke="white" stroke-width="1.5" d="M0,-3.0v7 M-2.5,-0.5L0,-3.0L2.5,-0.5"/>
                </g>
                <g id="arrowRight" xlink:href="#dirArrow" transform="rotate(90) translate(36 -43)" onmousedown="handlePan(1,0)">
                  <use xlink:href="#rim" fill="#404040">
                        <set attributeName="fill" to="#808080" begin="arrowRight.mouseover" end="arrowRight.mouseout"/>
                  </use>
                  <path fill="none" stroke="white" stroke-width="1.5" d="M0,-3.0v7 M-2.5,-0.5L0,-3.0L2.5,-0.5"/>
                </g>
                <g id="arrowDown" xlink:href="#dirArrow" transform="rotate(180) translate(-30 -48)" onmousedown="handlePan(0,1)">
                  <use xlink:href="#rim" fill="#404040">
                        <set attributeName="fill" to="#808080" begin="arrowDown.mouseover" end="arrowDown.mouseout"/>
                  </use>
                  <path fill="none" stroke="white" stroke-width="1.5" d="M0,-3.0v7 M-2.5,-0.5L0,-3.0L2.5,-0.5"/>
                </g>
                <g id="arrowLeft" xlink:href="#dirArrow" transform="rotate(270) translate(-36 17)" onmousedown="handlePan(-1,0)">
                  <use xlink:href="#rim" fill="#404040">
                        <set attributeName="fill" to="#808080" begin="arrowLeft.mouseover" end="arrowLeft.mouseout"/>
                  </use>
                  <path fill="none" stroke="white" stroke-width="1.5" d="M0,-3.0v7 M-2.5,-0.5L0,-3.0L2.5,-0.5"/>
                </g>
        </g>
        <svg viewBox="0 0 15 15" width="100%" height="30px" preserveAspectRatio="xMaxYMin meet">
         <g id="arrow_out" transform="scale(0.3 0.3)">
          <a xlink:href="Filesystem_8hxx__dep__incl_org.svg" target="_base">
           <rect id="button" ry="5" rx="5" y="6" x="6" height="38" width="38"
                fill="#f2f5e9" fill-opacity="0.5" stroke="#606060" stroke-width="1.0"/>
           <path id="arrow"
             d="M 11.500037,31.436501 C 11.940474,20.09759 22.043105,11.32322 32.158766,21.979434 L 37.068811,17.246167 C 37.068811,17.246167 37.088388,32 37.088388,32 L 22.160133,31.978069 C 22.160133,31.978069 26.997745,27.140456 26.997745,27.140456 C 18.528582,18.264221 13.291696,25.230495 11.500037,31.436501 z"
             style="fill:#404040;"/>
          </a>
         </g>
        </svg>
</svg>
