<?xml version="1.0" encoding="UTF-8" standalone="no"?>
<!DOCTYPE svg PUBLIC "-//W3C//DTD SVG 1.1//EN"
 "http://www.w3.org/Graphics/SVG/1.1/DTD/svg11.dtd">
<!-- Generated by graphviz version 2.40.1 (20161225.0304)
 -->
<!-- Title: src/util/Filesystem.cxx Pages: 1 -->
<!--zoomable 420 -->
<svg id="main" version="1.1" xmlns="http://www.w3.org/2000/svg" xmlns:xlink="http://www.w3.org/1999/xlink" xml:space="preserve" onload="init(evt)">
<style type="text/css"><![CDATA[
.edge:hover path { stroke: red; }
.edge:hover polygon { stroke: red; fill: red; }
]]></style>
<script type="text/javascript"><![CDATA[
var edges = document.getElementsByTagName('g');
if (edges && edges.length) {
  for (var i=0;i<edges.length;i++) {
    if (edges[i].id.substr(0,4)=='edge') {
      edges[i].setAttribute('class','edge');
    }
  }
}
]]></script>
        <defs>
                <circle id="rim" cx="0" cy="0" r="7"/>
                <circle id="rim2" cx="0" cy="0" r="3.5"/>
                <g id="zoomPlus">
                        <use xlink:href="#rim" fill="#404040">
                                <set attributeName="fill" to="#808080" begin="zoomplus.mouseover" end="zoomplus.mouseout"/>
                        </use>
                        <path d="M-4,0h8M0,-4v8" fill="none" stroke="white" stroke-width="1.5" pointer-events="none"/>
                </g>
                <g id="zoomMin">
                        <use xlink:href="#rim" fill="#404040">
                                <set attributeName="fill" to="#808080" begin="zoomminus.mouseover" end="zoomminus.mouseout"/>
                        </use>
                        <path d="M-4,0h8" fill="none" stroke="white" stroke-width="1.5" pointer-events="none"/>
                </g>
                <g id="dirArrow">
                        <path fill="none" stroke="white" stroke-width="1.5" d="M0,-3.0v7 M-2.5,-0.5L0,-3.0L2.5,-0.5"/>
                </g>
               <g id="resetDef">
                       <use xlink:href="#rim2" fill="#404040">
                               <set attributeName="fill" to="#808080" begin="reset.mouseover" end="reset.mouseout"/>
                       </use>
               </g>
        </defs>

<script type="text/javascript">
var viewWidth = 1175;
var viewHeight = 420;
var sectionId = 'dynsection-0';
</script>
<script xlink:href="svgpan.js"/>
<svg id="graph" class="graph">
<g id="viewport">
<title>src/util/Filesystem.cxx</title>
<!-- Node0 -->
<g id="node1" class="node">
<title>Node0</title>
<polygon fill="#bfbfbf" stroke="#000000" points="993.5,-392.5 993.5,-411.5 1118.5,-411.5 1118.5,-392.5 993.5,-392.5"/>
<text text-anchor="middle" x="1056" y="-399.5" font-family="Helvetica,sans-Serif" font-size="10.00" fill="#000000">src/util/Filesystem.cxx</text>
</g>
<!-- Node1 -->
<g id="node2" class="node">
<title>Node1</title>
<g id="a_node2"><a xlink:href="Filesystem_8hxx.html" target="_top" xlink:title="Filesystem.hxx">
<polygon fill="none" stroke="#000000" points="521,-336.5 521,-355.5 611,-355.5 611,-336.5 521,-336.5"/>
<text text-anchor="middle" x="566" y="-343.5" font-family="Helvetica,sans-Serif" font-size="10.00" fill="#000000">Filesystem.hxx</text>
</a>
</g>
</g>
<!-- Node0&#45;&gt;Node1 -->
<g id="edge1" class="edge">
<title>Node0&#45;&gt;Node1</title>
<path fill="none" stroke="#191970" d="M993.4435,-394.8507C896.9286,-383.8204 713.2687,-362.8307 621.3272,-352.3231"/>
<polygon fill="#191970" stroke="#191970" points="621.4488,-348.8143 611.116,-351.1561 620.6539,-355.769 621.4488,-348.8143"/>
</g>
<!-- Node13 -->
<g id="node14" class="node">
<title>Node13</title>
<g id="a_node14"><a xlink:href="Exception_8hxx.html" target="_top" xlink:title="Exception.hxx">
<polygon fill="none" stroke="#000000" points="1005,-56.5 1005,-75.5 1091,-75.5 1091,-56.5 1005,-56.5"/>
<text text-anchor="middle" x="1048" y="-63.5" font-family="Helvetica,sans-Serif" font-size="10.00" fill="#000000">Exception.hxx</text>
</a>
</g>
</g>
<!-- Node0&#45;&gt;Node13 -->
<g id="edge40" class="edge">
<title>Node0&#45;&gt;Node13</title>
<path fill="none" stroke="#191970" d="M1052.3112,-392.2751C1045.357,-373.0407 1031,-328.6505 1031,-290 1031,-290 1031,-290 1031,-178 1031,-145.192 1038.2185,-107.584 1043.248,-85.3624"/>
<polygon fill="#191970" stroke="#191970" points="1046.6816,-86.0502 1045.5643,-75.5144 1039.8676,-84.4474 1046.6816,-86.0502"/>
</g>
<!-- Node32 -->
<g id="node33" class="node">
<title>Node32</title>
<polygon fill="none" stroke="#bfbfbf" points="1059,-336.5 1059,-355.5 1105,-355.5 1105,-336.5 1059,-336.5"/>
<text text-anchor="middle" x="1082" y="-343.5" font-family="Helvetica,sans-Serif" font-size="10.00" fill="#000000">cstdio</text>
</g>
<!-- Node0&#45;&gt;Node32 -->
<g id="edge41" class="edge">
<title>Node0&#45;&gt;Node32</title>
<path fill="none" stroke="#191970" d="M1060.5289,-392.2455C1064.0334,-384.6973 1068.9927,-374.0158 1073.2623,-364.8197"/>
<polygon fill="#191970" stroke="#191970" points="1076.4864,-366.1867 1077.523,-355.6427 1070.1373,-363.2389 1076.4864,-366.1867"/>
</g>
<!-- Node33 -->
<g id="node34" class="node">
<title>Node33</title>
<polygon fill="none" stroke="#bfbfbf" points="1123,-336.5 1123,-355.5 1167,-355.5 1167,-336.5 1123,-336.5"/>
<text text-anchor="middle" x="1145" y="-343.5" font-family="Helvetica,sans-Serif" font-size="10.00" fill="#000000">png.h</text>
</g>
<!-- Node0&#45;&gt;Node33 -->
<g id="edge42" class="edge">
<title>Node0&#45;&gt;Node33</title>
<path fill="none" stroke="#191970" d="M1071.5026,-392.2455C1085.158,-383.6534 1105.2657,-371.0014 1120.9989,-361.1018"/>
<polygon fill="#191970" stroke="#191970" points="1123.0751,-363.9307 1129.675,-355.6427 1119.3471,-358.006 1123.0751,-363.9307"/>
</g>
<!-- Node2 -->
<g id="node3" class="node">
<title>Node2</title>
<polygon fill="none" stroke="#bfbfbf" points="643,-280.5 643,-299.5 697,-299.5 697,-280.5 643,-280.5"/>
<text text-anchor="middle" x="670" y="-287.5" font-family="Helvetica,sans-Serif" font-size="10.00" fill="#000000">ciso646</text>
</g>
<!-- Node1&#45;&gt;Node2 -->
<g id="edge2" class="edge">
<title>Node1&#45;&gt;Node2</title>
<path fill="none" stroke="#191970" d="M584.1154,-336.2455C600.445,-327.4527 624.671,-314.4079 643.2339,-304.4125"/>
<polygon fill="#191970" stroke="#191970" points="644.9468,-307.4654 652.0922,-299.6427 641.6281,-301.3021 644.9468,-307.4654"/>
</g>
<!-- Node3 -->
<g id="node4" class="node">
<title>Node3</title>
<polygon fill="none" stroke="#bfbfbf" points="0,-56.5 0,-75.5 44,-75.5 44,-56.5 0,-56.5"/>
<text text-anchor="middle" x="22" y="-63.5" font-family="Helvetica,sans-Serif" font-size="10.00" fill="#000000">string</text>
</g>
<!-- Node1&#45;&gt;Node3 -->
<g id="edge3" class="edge">
<title>Node1&#45;&gt;Node3</title>
<path fill="none" stroke="#191970" d="M520.5941,-341.3522C390.8895,-327.4695 28,-284.1474 28,-234 28,-234 28,-234 28,-178 28,-145.6653 25.4755,-108.1547 23.7016,-85.7876"/>
<polygon fill="#191970" stroke="#191970" points="27.1698,-85.2576 22.8597,-75.5791 20.1935,-85.833 27.1698,-85.2576"/>
</g>
<!-- Node4 -->
<g id="node5" class="node">
<title>Node4</title>
<polygon fill="none" stroke="#bfbfbf" points="354.5,-224.5 354.5,-243.5 401.5,-243.5 401.5,-224.5 354.5,-224.5"/>
<text text-anchor="middle" x="378" y="-231.5" font-family="Helvetica,sans-Serif" font-size="10.00" fill="#000000">vector</text>
</g>
<!-- Node1&#45;&gt;Node4 -->
<g id="edge4" class="edge">
<title>Node1&#45;&gt;Node4</title>
<path fill="none" stroke="#191970" d="M549.9712,-336.4509C517.0889,-316.8615 441.8113,-272.0152 402.6658,-248.6945"/>
<polygon fill="#191970" stroke="#191970" points="404.3706,-245.6361 393.9882,-243.5249 400.7879,-251.6498 404.3706,-245.6361"/>
</g>
<!-- Node5 -->
<g id="node6" class="node">
<title>Node5</title>
<g id="a_node6"><a xlink:href="PixelBuffer_8hxx.html" target="_top" xlink:title="../util/PixelBuffer.hxx">
<polygon fill="none" stroke="#000000" points="507,-280.5 507,-299.5 625,-299.5 625,-280.5 507,-280.5"/>
<text text-anchor="middle" x="566" y="-287.5" font-family="Helvetica,sans-Serif" font-size="10.00" fill="#000000">../util/PixelBuffer.hxx</text>
</a>
</g>
</g>
<!-- Node1&#45;&gt;Node5 -->
<g id="edge5" class="edge">
<title>Node1&#45;&gt;Node5</title>
<path fill="none" stroke="#191970" d="M566,-336.2455C566,-328.9382 566,-318.6944 566,-309.7046"/>
<polygon fill="#191970" stroke="#191970" points="569.5001,-309.6426 566,-299.6427 562.5001,-309.6427 569.5001,-309.6426"/>
</g>
<!-- Node5&#45;&gt;Node4 -->
<g id="edge6" class="edge">
<title>Node5&#45;&gt;Node4</title>
<path fill="none" stroke="#191970" d="M533.0854,-280.4617C503.5186,-271.8567 458.6703,-258.7134 411.525,-244.4355"/>
<polygon fill="#191970" stroke="#191970" points="412.338,-241.0246 401.7525,-241.4694 410.3049,-247.7229 412.338,-241.0246"/>
</g>
<!-- Node6 -->
<g id="node7" class="node">
<title>Node6</title>
<g id="a_node7"><a xlink:href="Rectangle_8hxx.html" target="_top" xlink:title="../util/Rectangle.hxx">
<polygon fill="none" stroke="#000000" points="542.5,-224.5 542.5,-243.5 655.5,-243.5 655.5,-224.5 542.5,-224.5"/>
<text text-anchor="middle" x="599" y="-231.5" font-family="Helvetica,sans-Serif" font-size="10.00" fill="#000000">../util/Rectangle.hxx</text>
</a>
</g>
</g>
<!-- Node5&#45;&gt;Node6 -->
<g id="edge7" class="edge">
<title>Node5&#45;&gt;Node6</title>
<path fill="none" stroke="#191970" d="M571.7482,-280.2455C576.2435,-272.617 582.6248,-261.7881 588.0825,-252.5267"/>
<polygon fill="#191970" stroke="#191970" points="591.2561,-254.035 593.3177,-243.6427 585.2253,-250.4811 591.2561,-254.035"/>
</g>
<!-- Node26 -->
<g id="node27" class="node">
<title>Node26</title>
<g id="a_node27"><a xlink:href="Range_8hxx.html" target="_top" xlink:title="../util/Range.hxx">
<polygon fill="none" stroke="#000000" points="689,-224.5 689,-243.5 785,-243.5 785,-224.5 689,-224.5"/>
<text text-anchor="middle" x="737" y="-231.5" font-family="Helvetica,sans-Serif" font-size="10.00" fill="#000000">../util/Range.hxx</text>
</a>
</g>
</g>
<!-- Node5&#45;&gt;Node26 -->
<g id="edge32" class="edge">
<title>Node5&#45;&gt;Node26</title>
<path fill="none" stroke="#191970" d="M595.3959,-280.3733C623.8307,-271.0613 667.0877,-256.8953 698.3081,-246.671"/>
<polygon fill="#191970" stroke="#191970" points="699.5736,-249.9396 707.9876,-243.5011 697.395,-243.2872 699.5736,-249.9396"/>
</g>
<!-- Node29 -->
<g id="node30" class="node">
<title>Node29</title>
<g id="a_node30"><a xlink:href="Color_8hxx.html" target="_top" xlink:title="../util/Color.hxx">
<polygon fill="none" stroke="#000000" points="879,-224.5 879,-243.5 969,-243.5 969,-224.5 879,-224.5"/>
<text text-anchor="middle" x="924" y="-231.5" font-family="Helvetica,sans-Serif" font-size="10.00" fill="#000000">../util/Color.hxx</text>
</a>
</g>
</g>
<!-- Node5&#45;&gt;Node29 -->
<g id="edge36" class="edge">
<title>Node5&#45;&gt;Node29</title>
<path fill="none" stroke="#191970" d="M625.1164,-280.7527C692.7925,-270.1665 802.7815,-252.9616 868.7805,-242.6377"/>
<polygon fill="#191970" stroke="#191970" points="869.643,-246.0454 878.982,-241.0419 868.5612,-239.1295 869.643,-246.0454"/>
</g>
<!-- Node31 -->
<g id="node32" class="node">
<title>Node31</title>
<g id="a_node32"><a xlink:href="PixelBuffer_8inl_8hxx.html" target="_top" xlink:title="PixelBuffer.inl.hxx">
<polygon fill="none" stroke="#000000" points="419.5,-224.5 419.5,-243.5 524.5,-243.5 524.5,-224.5 419.5,-224.5"/>
<text text-anchor="middle" x="472" y="-231.5" font-family="Helvetica,sans-Serif" font-size="10.00" fill="#000000">PixelBuffer.inl.hxx</text>
</a>
</g>
</g>
<!-- Node5&#45;&gt;Node31 -->
<g id="edge39" class="edge">
<title>Node5&#45;&gt;Node31</title>
<path fill="none" stroke="#191970" d="M549.6264,-280.2455C535.0692,-271.5731 513.569,-258.7645 496.8848,-248.825"/>
<polygon fill="#191970" stroke="#191970" points="498.5683,-245.7539 488.1859,-243.6427 494.9856,-251.7676 498.5683,-245.7539"/>
</g>
<!-- Node7 -->
<g id="node8" class="node">
<title>Node7</title>
<polygon fill="none" stroke="#bfbfbf" points="303.5,-.5 303.5,-19.5 344.5,-19.5 344.5,-.5 303.5,-.5"/>
<text text-anchor="middle" x="324" y="-7.5" font-family="Helvetica,sans-Serif" font-size="10.00" fill="#000000">tuple</text>
</g>
<!-- Node6&#45;&gt;Node7 -->
<g id="edge8" class="edge">
<title>Node6&#45;&gt;Node7</title>
<path fill="none" stroke="#191970" d="M542.3851,-225.2658C421.0914,-205.2374 142.9314,-151.8204 91,-76 85.977,-68.6664 85.356,-62.8672 91,-56 116.21,-25.3264 235.3555,-14.7704 292.8343,-11.4229"/>
<polygon fill="#191970" stroke="#191970" points="293.3426,-14.9005 303.1376,-10.862 292.9621,-7.9108 293.3426,-14.9005"/>
</g>
<!-- Node8 -->
<g id="node9" class="node">
<title>Node8</title>
<polygon fill="none" stroke="#bfbfbf" points="771,-.5 771,-19.5 831,-19.5 831,-.5 771,-.5"/>
<text text-anchor="middle" x="801" y="-7.5" font-family="Helvetica,sans-Serif" font-size="10.00" fill="#000000">iostream</text>
</g>
<!-- Node6&#45;&gt;Node8 -->
<g id="edge9" class="edge">
<title>Node6&#45;&gt;Node8</title>
<path fill="none" stroke="#191970" d="M614.0058,-224.373C647.5552,-202.1404 729.3427,-143.8967 776,-76 785.7466,-61.8166 792.3236,-43.3297 796.2752,-29.5309"/>
<polygon fill="#191970" stroke="#191970" points="799.7175,-30.204 798.8918,-19.6414 792.9503,-28.4135 799.7175,-30.204"/>
</g>
<!-- Node9 -->
<g id="node10" class="node">
<title>Node9</title>
<g id="a_node10"><a xlink:href="iShape_8hxx.html" target="_top" xlink:title="../util/iShape.hxx">
<polygon fill="none" stroke="#000000" points="534,-168.5 534,-187.5 632,-187.5 632,-168.5 534,-168.5"/>
<text text-anchor="middle" x="583" y="-175.5" font-family="Helvetica,sans-Serif" font-size="10.00" fill="#000000">../util/iShape.hxx</text>
</a>
</g>
</g>
<!-- Node6&#45;&gt;Node9 -->
<g id="edge10" class="edge">
<title>Node6&#45;&gt;Node9</title>
<path fill="none" stroke="#191970" d="M596.213,-224.2455C594.1023,-216.8579 591.134,-206.4689 588.5453,-197.4087"/>
<polygon fill="#191970" stroke="#191970" points="591.8677,-196.2964 585.755,-187.6427 585.137,-198.2195 591.8677,-196.2964"/>
</g>
<!-- Node10 -->
<g id="node11" class="node">
<title>Node10</title>
<g id="a_node11"><a xlink:href="Rectangle_8inl_8hxx.html" target="_top" xlink:title="Rectangle.inl.hxx">
<polygon fill="none" stroke="#000000" points="389.5,-168.5 389.5,-187.5 490.5,-187.5 490.5,-168.5 389.5,-168.5"/>
<text text-anchor="middle" x="440" y="-175.5" font-family="Helvetica,sans-Serif" font-size="10.00" fill="#000000">Rectangle.inl.hxx</text>
</a>
</g>
</g>
<!-- Node6&#45;&gt;Node10 -->
<g id="edge11" class="edge">
<title>Node6&#45;&gt;Node10</title>
<path fill="none" stroke="#191970" d="M571.6669,-224.3733C545.4566,-215.1419 505.7016,-201.1402 476.7332,-190.9375"/>
<polygon fill="#191970" stroke="#191970" points="477.5712,-187.5219 466.9764,-187.5011 475.2458,-194.1244 477.5712,-187.5219"/>
</g>
<!-- Node11 -->
<g id="node12" class="node">
<title>Node11</title>
<polygon fill="none" stroke="#bfbfbf" points="100,-56.5 100,-75.5 164,-75.5 164,-56.5 100,-56.5"/>
<text text-anchor="middle" x="132" y="-63.5" font-family="Helvetica,sans-Serif" font-size="10.00" fill="#000000">algorithm</text>
</g>
<!-- Node10&#45;&gt;Node11 -->
<g id="edge12" class="edge">
<title>Node10&#45;&gt;Node11</title>
<path fill="none" stroke="#191970" d="M413.7401,-168.4509C358.5052,-148.3655 230.253,-101.7284 167.6551,-78.9655"/>
<polygon fill="#191970" stroke="#191970" points="168.7875,-75.6531 158.1934,-75.5249 166.3953,-82.2317 168.7875,-75.6531"/>
</g>
<!-- Node12 -->
<g id="node13" class="node">
<title>Node12</title>
<g id="a_node13"><a xlink:href="LOG_8hxx.html" target="_top" xlink:title="LOG.hxx">
<polygon fill="none" stroke="#000000" points="411,-112.5 411,-131.5 469,-131.5 469,-112.5 411,-112.5"/>
<text text-anchor="middle" x="440" y="-119.5" font-family="Helvetica,sans-Serif" font-size="10.00" fill="#000000">LOG.hxx</text>
</a>
</g>
</g>
<!-- Node10&#45;&gt;Node12 -->
<g id="edge13" class="edge">
<title>Node10&#45;&gt;Node12</title>
<path fill="none" stroke="#191970" d="M440,-168.2455C440,-160.9382 440,-150.6944 440,-141.7046"/>
<polygon fill="#191970" stroke="#191970" points="443.5001,-141.6426 440,-131.6427 436.5001,-141.6427 443.5001,-141.6426"/>
</g>
<!-- Node12&#45;&gt;Node3 -->
<g id="edge14" class="edge">
<title>Node12&#45;&gt;Node3</title>
<path fill="none" stroke="#191970" d="M410.5671,-118.2506C350.4743,-110.5668 209.351,-92.3751 91,-76 78.9743,-74.3361 65.7804,-72.4411 54.1796,-70.7513"/>
<polygon fill="#191970" stroke="#191970" points="54.4541,-67.2543 44.0528,-69.2698 53.4408,-74.1806 54.4541,-67.2543"/>
</g>
<!-- Node12&#45;&gt;Node8 -->
<g id="edge18" class="edge">
<title>Node12&#45;&gt;Node8</title>
<path fill="none" stroke="#191970" d="M469.3441,-120.4727C537.3545,-116.4907 703.5669,-104.0893 751,-76 769.6695,-64.9442 783.7053,-43.9819 792.0815,-28.6382"/>
<polygon fill="#191970" stroke="#191970" points="795.3055,-30.0217 796.7603,-19.5272 789.0786,-26.8239 795.3055,-30.0217"/>
</g>
<!-- Node12&#45;&gt;Node11 -->
<g id="edge24" class="edge">
<title>Node12&#45;&gt;Node11</title>
<path fill="none" stroke="#191970" d="M410.6393,-117.6168C363.0743,-110.3704 266.0267,-94.9831 174.1964,-76.1431"/>
<polygon fill="#191970" stroke="#191970" points="174.6835,-72.6699 164.1816,-74.0702 173.2646,-79.5246 174.6835,-72.6699"/>
</g>
<!-- Node12&#45;&gt;Node13 -->
<g id="edge15" class="edge">
<title>Node12&#45;&gt;Node13</title>
<path fill="none" stroke="#191970" d="M469.3251,-119.299C565.1899,-110.4694 870.2579,-82.371 994.5386,-70.9241"/>
<polygon fill="#191970" stroke="#191970" points="994.946,-74.4015 1004.5829,-69.9989 994.304,-67.431 994.946,-74.4015"/>
</g>
<!-- Node16 -->
<g id="node17" class="node">
<title>Node16</title>
<polygon fill="none" stroke="#bfbfbf" points="402,-56.5 402,-75.5 452,-75.5 452,-56.5 402,-56.5"/>
<text text-anchor="middle" x="427" y="-63.5" font-family="Helvetica,sans-Serif" font-size="10.00" fill="#000000">chrono</text>
</g>
<!-- Node12&#45;&gt;Node16 -->
<g id="edge19" class="edge">
<title>Node12&#45;&gt;Node16</title>
<path fill="none" stroke="#191970" d="M437.7356,-112.2455C436.0206,-104.8579 433.6088,-94.4689 431.5056,-85.4087"/>
<polygon fill="#191970" stroke="#191970" points="434.9092,-84.5922 429.2385,-75.6427 428.0905,-86.1751 434.9092,-84.5922"/>
</g>
<!-- Node17 -->
<g id="node18" class="node">
<title>Node17</title>
<polygon fill="none" stroke="#bfbfbf" points="470,-56.5 470,-75.5 514,-75.5 514,-56.5 470,-56.5"/>
<text text-anchor="middle" x="492" y="-63.5" font-family="Helvetica,sans-Serif" font-size="10.00" fill="#000000">ctime</text>
</g>
<!-- Node12&#45;&gt;Node17 -->
<g id="edge20" class="edge">
<title>Node12&#45;&gt;Node17</title>
<path fill="none" stroke="#191970" d="M449.0577,-112.2455C456.5142,-104.2155 467.2634,-92.6394 476.1417,-83.0781"/>
<polygon fill="#191970" stroke="#191970" points="478.8063,-85.3522 483.0461,-75.6427 473.6768,-80.589 478.8063,-85.3522"/>
</g>
<!-- Node18 -->
<g id="node19" class="node">
<title>Node18</title>
<polygon fill="none" stroke="#bfbfbf" points="532.5,-56.5 532.5,-75.5 587.5,-75.5 587.5,-56.5 532.5,-56.5"/>
<text text-anchor="middle" x="560" y="-63.5" font-family="Helvetica,sans-Serif" font-size="10.00" fill="#000000">fstream</text>
</g>
<!-- Node12&#45;&gt;Node18 -->
<g id="edge21" class="edge">
<title>Node12&#45;&gt;Node18</title>
<path fill="none" stroke="#191970" d="M460.6287,-112.3733C479.8919,-103.3838 508.8486,-89.8706 530.5419,-79.7471"/>
<polygon fill="#191970" stroke="#191970" points="532.0587,-82.9017 539.6405,-75.5011 529.0985,-76.5584 532.0587,-82.9017"/>
</g>
<!-- Node19 -->
<g id="node20" class="node">
<title>Node19</title>
<polygon fill="none" stroke="#bfbfbf" points="606,-56.5 606,-75.5 662,-75.5 662,-56.5 606,-56.5"/>
<text text-anchor="middle" x="634" y="-63.5" font-family="Helvetica,sans-Serif" font-size="10.00" fill="#000000">sstream</text>
</g>
<!-- Node12&#45;&gt;Node19 -->
<g id="edge22" class="edge">
<title>Node12&#45;&gt;Node19</title>
<path fill="none" stroke="#191970" d="M469.0438,-113.6162C502.7636,-103.8827 558.5014,-87.7934 595.7298,-77.0471"/>
<polygon fill="#191970" stroke="#191970" points="597.0686,-80.3036 605.7056,-74.1675 595.1272,-73.5782 597.0686,-80.3036"/>
</g>
<!-- Node20 -->
<g id="node21" class="node">
<title>Node20</title>
<polygon fill="none" stroke="#bfbfbf" points="182,-56.5 182,-75.5 226,-75.5 226,-56.5 182,-56.5"/>
<text text-anchor="middle" x="204" y="-63.5" font-family="Helvetica,sans-Serif" font-size="10.00" fill="#000000">SDL.h</text>
</g>
<!-- Node12&#45;&gt;Node20 -->
<g id="edge23" class="edge">
<title>Node12&#45;&gt;Node20</title>
<path fill="none" stroke="#191970" d="M410.9379,-116.3499C372.8919,-108.765 303.9627,-94.3791 236.2551,-76.1692"/>
<polygon fill="#191970" stroke="#191970" points="236.8462,-72.7029 226.2781,-73.4551 235.0087,-79.4574 236.8462,-72.7029"/>
</g>
<!-- Node21 -->
<g id="node22" class="node">
<title>Node21</title>
<polygon fill="none" stroke="#bfbfbf" points="244,-56.5 244,-75.5 292,-75.5 292,-56.5 244,-56.5"/>
<text text-anchor="middle" x="268" y="-63.5" font-family="Helvetica,sans-Serif" font-size="10.00" fill="#000000">mutex</text>
</g>
<!-- Node12&#45;&gt;Node21 -->
<g id="edge25" class="edge">
<title>Node12&#45;&gt;Node21</title>
<path fill="none" stroke="#191970" d="M410.8225,-112.5004C380.6394,-102.6733 333.5539,-87.3431 301.7772,-76.9972"/>
<polygon fill="#191970" stroke="#191970" points="302.6312,-73.5945 292.0389,-73.8266 300.464,-80.2506 302.6312,-73.5945"/>
</g>
<!-- Node22 -->
<g id="node23" class="node">
<title>Node22</title>
<g id="a_node23"><a xlink:href="Meta_8hxx.html" target="_top" xlink:title="Meta.hxx">
<polygon fill="none" stroke="#000000" points="680,-56.5 680,-75.5 742,-75.5 742,-56.5 680,-56.5"/>
<text text-anchor="middle" x="711" y="-63.5" font-family="Helvetica,sans-Serif" font-size="10.00" fill="#000000">Meta.hxx</text>
</a>
</g>
</g>
<!-- Node12&#45;&gt;Node22 -->
<g id="edge26" class="edge">
<title>Node12&#45;&gt;Node22</title>
<path fill="none" stroke="#191970" d="M469.2679,-116.6421C511.4075,-108.8261 591.833,-93.5298 669.6272,-76.2345"/>
<polygon fill="#191970" stroke="#191970" points="670.597,-79.6041 679.5913,-74.0048 669.0683,-72.773 670.597,-79.6041"/>
</g>
<!-- Node25 -->
<g id="node26" class="node">
<title>Node25</title>
<g id="a_node26"><a xlink:href="LOG_8inl_8hxx.html" target="_top" xlink:title="LOG.inl.hxx">
<polygon fill="none" stroke="#000000" points="310.5,-56.5 310.5,-75.5 383.5,-75.5 383.5,-56.5 310.5,-56.5"/>
<text text-anchor="middle" x="347" y="-63.5" font-family="Helvetica,sans-Serif" font-size="10.00" fill="#000000">LOG.inl.hxx</text>
</a>
</g>
</g>
<!-- Node12&#45;&gt;Node25 -->
<g id="edge31" class="edge">
<title>Node12&#45;&gt;Node25</title>
<path fill="none" stroke="#191970" d="M423.8006,-112.2455C409.3982,-103.5731 388.1268,-90.7645 371.6201,-80.825"/>
<polygon fill="#191970" stroke="#191970" points="373.386,-77.8028 363.0137,-75.6427 369.775,-83.7996 373.386,-77.8028"/>
</g>
<!-- Node14 -->
<g id="node15" class="node">
<title>Node14</title>
<polygon fill="none" stroke="#bfbfbf" points="973.5,-.5 973.5,-19.5 1038.5,-19.5 1038.5,-.5 973.5,-.5"/>
<text text-anchor="middle" x="1006" y="-7.5" font-family="Helvetica,sans-Serif" font-size="10.00" fill="#000000">stdexcept</text>
</g>
<!-- Node13&#45;&gt;Node14 -->
<g id="edge16" class="edge">
<title>Node13&#45;&gt;Node14</title>
<path fill="none" stroke="#191970" d="M1040.6842,-56.2455C1034.7821,-48.3761 1026.3258,-37.101 1019.2406,-27.6542"/>
<polygon fill="#191970" stroke="#191970" points="1022.0321,-25.5427 1013.232,-19.6427 1016.432,-29.7427 1022.0321,-25.5427"/>
</g>
<!-- Node15 -->
<g id="node16" class="node">
<title>Node15</title>
<polygon fill="none" stroke="#bfbfbf" points="1056.5,-.5 1056.5,-19.5 1121.5,-19.5 1121.5,-.5 1056.5,-.5"/>
<text text-anchor="middle" x="1089" y="-7.5" font-family="Helvetica,sans-Serif" font-size="10.00" fill="#000000">exception</text>
</g>
<!-- Node13&#45;&gt;Node15 -->
<g id="edge17" class="edge">
<title>Node13&#45;&gt;Node15</title>
<path fill="none" stroke="#191970" d="M1055.1417,-56.2455C1060.8444,-48.4564 1068.99,-37.3308 1075.8625,-27.9439"/>
<polygon fill="#191970" stroke="#191970" points="1078.8568,-29.7789 1081.9402,-19.6427 1073.2087,-25.6437 1078.8568,-29.7789"/>
</g>
<!-- Node22&#45;&gt;Node7 -->
<g id="edge30" class="edge">
<title>Node22&#45;&gt;Node7</title>
<path fill="none" stroke="#191970" d="M679.6315,-57.8014C676.7228,-57.149 673.8126,-56.5362 671,-56 555.2752,-33.9373 415.8313,-18.9104 354.9544,-12.9154"/>
<polygon fill="#191970" stroke="#191970" points="355.1527,-9.4182 344.8608,-11.9336 354.475,-16.3853 355.1527,-9.4182"/>
</g>
<!-- Node22&#45;&gt;Node8 -->
<g id="edge27" class="edge">
<title>Node22&#45;&gt;Node8</title>
<path fill="none" stroke="#191970" d="M726.6768,-56.2455C740.4856,-47.6534 760.8193,-35.0014 776.7292,-25.1018"/>
<polygon fill="#191970" stroke="#191970" points="778.8613,-27.8974 785.5028,-19.6427 775.1632,-21.954 778.8613,-27.8974"/>
</g>
<!-- Node23 -->
<g id="node24" class="node">
<title>Node23</title>
<polygon fill="none" stroke="#bfbfbf" points="679.5,-.5 679.5,-19.5 748.5,-19.5 748.5,-.5 679.5,-.5"/>
<text text-anchor="middle" x="714" y="-7.5" font-family="Helvetica,sans-Serif" font-size="10.00" fill="#000000">type_traits</text>
</g>
<!-- Node22&#45;&gt;Node23 -->
<g id="edge28" class="edge">
<title>Node22&#45;&gt;Node23</title>
<path fill="none" stroke="#191970" d="M711.5226,-56.2455C711.914,-48.9382 712.4628,-38.6944 712.9444,-29.7046"/>
<polygon fill="#191970" stroke="#191970" points="716.4434,-29.8156 713.4834,-19.6427 709.4534,-29.4411 716.4434,-29.8156"/>
</g>
<!-- Node24 -->
<g id="node25" class="node">
<title>Node24</title>
<polygon fill="none" stroke="#bfbfbf" points="610.5,-.5 610.5,-19.5 661.5,-19.5 661.5,-.5 610.5,-.5"/>
<text text-anchor="middle" x="636" y="-7.5" font-family="Helvetica,sans-Serif" font-size="10.00" fill="#000000">variant</text>
</g>
<!-- Node22&#45;&gt;Node24 -->
<g id="edge29" class="edge">
<title>Node22&#45;&gt;Node24</title>
<path fill="none" stroke="#191970" d="M697.936,-56.2455C686.6438,-47.814 670.1155,-35.4729 656.9729,-25.6598"/>
<polygon fill="#191970" stroke="#191970" points="659.0211,-22.8211 648.9143,-19.6427 654.8331,-28.4301 659.0211,-22.8211"/>
</g>
<!-- Node26&#45;&gt;Node22 -->
<g id="edge34" class="edge">
<title>Node26&#45;&gt;Node22</title>
<path fill="none" stroke="#191970" d="M731.6444,-224.4819C726.8426,-215.4162 720.0922,-201.2283 717,-188 708.7493,-152.7039 708.8416,-110.1523 709.814,-85.7697"/>
<polygon fill="#191970" stroke="#191970" points="713.316,-85.8135 710.3126,-75.6533 706.3245,-85.4688 713.316,-85.8135"/>
</g>
<!-- Node27 -->
<g id="node28" class="node">
<title>Node27</title>
<polygon fill="none" stroke="#bfbfbf" points="827.5,-168.5 827.5,-187.5 880.5,-187.5 880.5,-168.5 827.5,-168.5"/>
<text text-anchor="middle" x="854" y="-175.5" font-family="Helvetica,sans-Serif" font-size="10.00" fill="#000000">iterator</text>
</g>
<!-- Node26&#45;&gt;Node27 -->
<g id="edge33" class="edge">
<title>Node26&#45;&gt;Node27</title>
<path fill="none" stroke="#191970" d="M757.113,-224.3733C775.8103,-215.4241 803.8744,-201.9917 824.9934,-191.8835"/>
<polygon fill="#191970" stroke="#191970" points="826.6405,-194.9755 834.1494,-187.5011 823.6183,-188.6614 826.6405,-194.9755"/>
</g>
<!-- Node28 -->
<g id="node29" class="node">
<title>Node28</title>
<g id="a_node29"><a xlink:href="Range_8inl_8hxx.html" target="_top" xlink:title="Range.inl.hxx">
<polygon fill="none" stroke="#000000" points="726.5,-168.5 726.5,-187.5 809.5,-187.5 809.5,-168.5 726.5,-168.5"/>
<text text-anchor="middle" x="768" y="-175.5" font-family="Helvetica,sans-Serif" font-size="10.00" fill="#000000">Range.inl.hxx</text>
</a>
</g>
</g>
<!-- Node26&#45;&gt;Node28 -->
<g id="edge35" class="edge">
<title>Node26&#45;&gt;Node28</title>
<path fill="none" stroke="#191970" d="M742.3998,-224.2455C746.6227,-216.617 752.6173,-205.7881 757.7441,-196.5267"/>
<polygon fill="#191970" stroke="#191970" points="760.881,-198.0867 762.6621,-187.6427 754.7568,-194.6965 760.881,-198.0867"/>
</g>
<!-- Node29&#45;&gt;Node8 -->
<g id="edge38" class="edge">
<title>Node29&#45;&gt;Node8</title>
<path fill="none" stroke="#191970" d="M934.8621,-224.4052C947.77,-211.773 966.5497,-188.7339 958,-168 931.0239,-102.5804 862.3931,-49.955 825.442,-25.2596"/>
<polygon fill="#191970" stroke="#191970" points="827.0598,-22.1356 816.7748,-19.5921 823.2288,-27.9943 827.0598,-22.1356"/>
</g>
<!-- Node30 -->
<g id="node31" class="node">
<title>Node30</title>
<polygon fill="none" stroke="#bfbfbf" points="899,-168.5 899,-187.5 949,-187.5 949,-168.5 899,-168.5"/>
<text text-anchor="middle" x="924" y="-175.5" font-family="Helvetica,sans-Serif" font-size="10.00" fill="#000000">cstdint</text>
</g>
<!-- Node29&#45;&gt;Node30 -->
<g id="edge37" class="edge">
<title>Node29&#45;&gt;Node30</title>
<path fill="none" stroke="#191970" d="M924,-224.2455C924,-216.9382 924,-206.6944 924,-197.7046"/>
<polygon fill="#191970" stroke="#191970" points="927.5001,-197.6426 924,-187.6427 920.5001,-197.6427 927.5001,-197.6426"/>
</g>
</g>
</svg>
        <g id="navigator" transform="translate(0 0)" fill="#404254">
                <rect fill="#f2f5e9" fill-opacity="0.5" stroke="#606060" stroke-width=".5" x="0" y="0" width="60" height="60"/>
                <use id="zoomplus" xlink:href="#zoomPlus" x="17" y="9" onmousedown="handleZoom(evt,'in')"/>
                <use id="zoomminus" xlink:href="#zoomMin" x="42" y="9" onmousedown="handleZoom(evt,'out')"/>
                <use id="reset" xlink:href="#resetDef" x="30" y="36" onmousedown="handleReset()"/>
                <g id="arrowUp" xlink:href="#dirArrow" transform="translate(30 24)" onmousedown="handlePan(0,-1)">
                  <use xlink:href="#rim" fill="#404040">
                        <set attributeName="fill" to="#808080" begin="arrowUp.mouseover" end="arrowUp.mouseout"/>
                  </use>
                  <path fill="none" stroke="white" stroke-width="1.5" d="M0,-3.0v7 M-2.5,-0.5L0,-3.0L2.5,-0.5"/>
                </g>
                <g id="arrowRight" xlink:href="#dirArrow" transform="rotate(90) translate(36 -43)" onmousedown="handlePan(1,0)">
                  <use xlink:href="#rim" fill="#404040">
                        <set attributeName="fill" to="#808080" begin="arrowRight.mouseover" end="arrowRight.mouseout"/>
                  </use>
                  <path fill="none" stroke="white" stroke-width="1.5" d="M0,-3.0v7 M-2.5,-0.5L0,-3.0L2.5,-0.5"/>
                </g>
                <g id="arrowDown" xlink:href="#dirArrow" transform="rotate(180) translate(-30 -48)" onmousedown="handlePan(0,1)">
                  <use xlink:href="#rim" fill="#404040">
                        <set attributeName="fill" to="#808080" begin="arrowDown.mouseover" end="arrowDown.mouseout"/>
                  </use>
                  <path fill="none" stroke="white" stroke-width="1.5" d="M0,-3.0v7 M-2.5,-0.5L0,-3.0L2.5,-0.5"/>
                </g>
                <g id="arrowLeft" xlink:href="#dirArrow" transform="rotate(270) translate(-36 17)" onmousedown="handlePan(-1,0)">
                  <use xlink:href="#rim" fill="#404040">
                        <set attributeName="fill" to="#808080" begin="arrowLeft.mouseover" end="arrowLeft.mouseout"/>
                  </use>
                  <path fill="none" stroke="white" stroke-width="1.5" d="M0,-3.0v7 M-2.5,-0.5L0,-3.0L2.5,-0.5"/>
                </g>
        </g>
        <svg viewBox="0 0 15 15" width="100%" height="30px" preserveAspectRatio="xMaxYMin meet">
         <g id="arrow_out" transform="scale(0.3 0.3)">
          <a xlink:href="Filesystem_8cxx__incl_org.svg" target="_base">
           <rect id="button" ry="5" rx="5" y="6" x="6" height="38" width="38"
                fill="#f2f5e9" fill-opacity="0.5" stroke="#606060" stroke-width="1.0"/>
           <path id="arrow"
             d="M 11.500037,31.436501 C 11.940474,20.09759 22.043105,11.32322 32.158766,21.979434 L 37.068811,17.246167 C 37.068811,17.246167 37.088388,32 37.088388,32 L 22.160133,31.978069 C 22.160133,31.978069 26.997745,27.140456 26.997745,27.140456 C 18.528582,18.264221 13.291696,25.230495 11.500037,31.436501 z"
             style="fill:#404040;"/>
          </a>
         </g>
        </svg>
</svg>
