<?xml version="1.0" encoding="UTF-8" standalone="no"?>
<!DOCTYPE svg PUBLIC "-//W3C//DTD SVG 1.1//EN"
 "http://www.w3.org/Graphics/SVG/1.1/DTD/svg11.dtd">
<!-- Generated by graphviz version 2.40.1 (20161225.0304)
 -->
<!-- Title: src/GameService.cxx Pages: 1 -->
<svg width="559pt" height="364pt"
 viewBox="0.00 0.00 559.26 364.00" xmlns="http://www.w3.org/2000/svg" xmlns:xlink="http://www.w3.org/1999/xlink">
<g id="graph0" class="graph" transform="scale(1 1) rotate(0) translate(4 360)">
<title>src/GameService.cxx</title>
<!-- Node0 -->
<g id="node1" class="node">
<title>Node0</title>
<polygon fill="#bfbfbf" stroke="#000000" points="227.5,-336.5 227.5,-355.5 346.5,-355.5 346.5,-336.5 227.5,-336.5"/>
<text text-anchor="middle" x="287" y="-343.5" font-family="Helvetica,sans-Serif" font-size="10.00" fill="#000000">src/GameService.cxx</text>
</g>
<!-- Node1 -->
<g id="node2" class="node">
<title>Node1</title>
<g id="a_node2"><a xlink:href="GameService_8hxx.html" target="_top" xlink:title="GameService.hxx">
<polygon fill="none" stroke="#000000" points="235.5,-280.5 235.5,-299.5 338.5,-299.5 338.5,-280.5 235.5,-280.5"/>
<text text-anchor="middle" x="287" y="-287.5" font-family="Helvetica,sans-Serif" font-size="10.00" fill="#000000">GameService.hxx</text>
</a>
</g>
</g>
<!-- Node0&#45;&gt;Node1 -->
<g id="edge1" class="edge">
<title>Node0&#45;&gt;Node1</title>
<path fill="none" stroke="#191970" d="M287,-336.2455C287,-328.9382 287,-318.6944 287,-309.7046"/>
<polygon fill="#191970" stroke="#191970" points="290.5001,-309.6426 287,-299.6427 283.5001,-309.6427 290.5001,-309.6426"/>
</g>
<!-- Node2 -->
<g id="node3" class="node">
<title>Node2</title>
<g id="a_node3"><a xlink:href="Events_8hxx.html" target="_top" xlink:title="Events.hxx">
<polygon fill="none" stroke="#000000" points="195.5,-224.5 195.5,-243.5 266.5,-243.5 266.5,-224.5 195.5,-224.5"/>
<text text-anchor="middle" x="231" y="-231.5" font-family="Helvetica,sans-Serif" font-size="10.00" fill="#000000">Events.hxx</text>
</a>
</g>
</g>
<!-- Node1&#45;&gt;Node2 -->
<g id="edge2" class="edge">
<title>Node1&#45;&gt;Node2</title>
<path fill="none" stroke="#191970" d="M277.2455,-280.2455C269.1352,-272.1352 257.4075,-260.4075 247.7919,-250.7919"/>
<polygon fill="#191970" stroke="#191970" points="250.1887,-248.2389 240.6427,-243.6427 245.2389,-253.1887 250.1887,-248.2389"/>
</g>
<!-- Node16 -->
<g id="node17" class="node">
<title>Node16</title>
<g id="a_node17"><a xlink:href="GameService_8inl_8hxx.html" target="_top" xlink:title="GameService.inl.hxx">
<polygon fill="none" stroke="#000000" points="285,-224.5 285,-243.5 403,-243.5 403,-224.5 285,-224.5"/>
<text text-anchor="middle" x="344" y="-231.5" font-family="Helvetica,sans-Serif" font-size="10.00" fill="#000000">GameService.inl.hxx</text>
</a>
</g>
</g>
<!-- Node1&#45;&gt;Node16 -->
<g id="edge18" class="edge">
<title>Node1&#45;&gt;Node16</title>
<path fill="none" stroke="#191970" d="M296.9286,-280.2455C305.1838,-272.1352 317.1209,-260.4075 326.9082,-250.7919"/>
<polygon fill="#191970" stroke="#191970" points="329.5046,-253.1476 334.1851,-243.6427 324.5989,-248.1542 329.5046,-253.1476"/>
</g>
<!-- Node3 -->
<g id="node4" class="node">
<title>Node3</title>
<polygon fill="none" stroke="#bfbfbf" points="80,-168.5 80,-187.5 124,-187.5 124,-168.5 80,-168.5"/>
<text text-anchor="middle" x="102" y="-175.5" font-family="Helvetica,sans-Serif" font-size="10.00" fill="#000000">string</text>
</g>
<!-- Node2&#45;&gt;Node3 -->
<g id="edge3" class="edge">
<title>Node2&#45;&gt;Node3</title>
<path fill="none" stroke="#191970" d="M208.8241,-224.3733C188.0234,-215.3435 156.7083,-201.7494 133.3542,-191.6111"/>
<polygon fill="#191970" stroke="#191970" points="134.4532,-188.2727 123.8865,-187.5011 131.6657,-194.6938 134.4532,-188.2727"/>
</g>
<!-- Node4 -->
<g id="node5" class="node">
<title>Node4</title>
<polygon fill="none" stroke="#bfbfbf" points="434,-56.5 434,-75.5 534,-75.5 534,-56.5 434,-56.5"/>
<text text-anchor="middle" x="484" y="-63.5" font-family="Helvetica,sans-Serif" font-size="10.00" fill="#000000">betterEnums.hxx</text>
</g>
<!-- Node2&#45;&gt;Node4 -->
<g id="edge4" class="edge">
<title>Node2&#45;&gt;Node4</title>
<path fill="none" stroke="#191970" d="M266.7317,-224.9997C345.8284,-204.7252 530.0833,-155.4268 547,-132 561.019,-112.5861 536.5125,-93.0859 514.0918,-80.371"/>
<polygon fill="#191970" stroke="#191970" points="515.5161,-77.1634 505.0495,-75.52 512.2068,-83.3317 515.5161,-77.1634"/>
</g>
<!-- Node5 -->
<g id="node6" class="node">
<title>Node5</title>
<g id="a_node6"><a xlink:href="Meta_8hxx.html" target="_top" xlink:title="util/Meta.hxx">
<polygon fill="none" stroke="#000000" points="112,-56.5 112,-75.5 192,-75.5 192,-56.5 112,-56.5"/>
<text text-anchor="middle" x="152" y="-63.5" font-family="Helvetica,sans-Serif" font-size="10.00" fill="#000000">util/Meta.hxx</text>
</a>
</g>
</g>
<!-- Node2&#45;&gt;Node5 -->
<g id="edge5" class="edge">
<title>Node2&#45;&gt;Node5</title>
<path fill="none" stroke="#191970" d="M224.1664,-224.3077C211.9999,-206.6772 186.4169,-167.8618 171,-132 164.5248,-116.9378 159.5241,-99.0156 156.282,-85.6509"/>
<polygon fill="#191970" stroke="#191970" points="159.6357,-84.6174 153.9785,-75.6593 152.8146,-86.19 159.6357,-84.6174"/>
</g>
<!-- Node10 -->
<g id="node11" class="node">
<title>Node10</title>
<g id="a_node11"><a xlink:href="UIEvents_8hxx.html" target="_top" xlink:title="events/UIEvents.hxx">
<polygon fill="none" stroke="#000000" points="251.5,-168.5 251.5,-187.5 368.5,-187.5 368.5,-168.5 251.5,-168.5"/>
<text text-anchor="middle" x="310" y="-175.5" font-family="Helvetica,sans-Serif" font-size="10.00" fill="#000000">events/UIEvents.hxx</text>
</a>
</g>
</g>
<!-- Node2&#45;&gt;Node10 -->
<g id="edge10" class="edge">
<title>Node2&#45;&gt;Node10</title>
<path fill="none" stroke="#191970" d="M244.7607,-224.2455C256.6552,-215.814 274.065,-203.4729 287.9085,-193.6598"/>
<polygon fill="#191970" stroke="#191970" points="290.2628,-196.2811 296.3969,-187.6427 286.2146,-190.5704 290.2628,-196.2811"/>
</g>
<!-- Node6 -->
<g id="node7" class="node">
<title>Node6</title>
<polygon fill="none" stroke="#bfbfbf" points="0,-.5 0,-19.5 60,-19.5 60,-.5 0,-.5"/>
<text text-anchor="middle" x="30" y="-7.5" font-family="Helvetica,sans-Serif" font-size="10.00" fill="#000000">iostream</text>
</g>
<!-- Node5&#45;&gt;Node6 -->
<g id="edge6" class="edge">
<title>Node5&#45;&gt;Node6</title>
<path fill="none" stroke="#191970" d="M131.0275,-56.3733C111.4433,-47.3838 82.0039,-33.8706 59.949,-23.7471"/>
<polygon fill="#191970" stroke="#191970" points="61.2473,-20.4919 50.6989,-19.5011 58.3271,-26.8538 61.2473,-20.4919"/>
</g>
<!-- Node7 -->
<g id="node8" class="node">
<title>Node7</title>
<polygon fill="none" stroke="#bfbfbf" points="78.5,-.5 78.5,-19.5 147.5,-19.5 147.5,-.5 78.5,-.5"/>
<text text-anchor="middle" x="113" y="-7.5" font-family="Helvetica,sans-Serif" font-size="10.00" fill="#000000">type_traits</text>
</g>
<!-- Node5&#45;&gt;Node7 -->
<g id="edge7" class="edge">
<title>Node5&#45;&gt;Node7</title>
<path fill="none" stroke="#191970" d="M145.2067,-56.2455C139.7822,-48.4564 132.0339,-37.3308 125.4967,-27.9439"/>
<polygon fill="#191970" stroke="#191970" points="128.3025,-25.8485 119.7154,-19.6427 122.5583,-29.849 128.3025,-25.8485"/>
</g>
<!-- Node8 -->
<g id="node9" class="node">
<title>Node8</title>
<polygon fill="none" stroke="#bfbfbf" points="165.5,-.5 165.5,-19.5 216.5,-19.5 216.5,-.5 165.5,-.5"/>
<text text-anchor="middle" x="191" y="-7.5" font-family="Helvetica,sans-Serif" font-size="10.00" fill="#000000">variant</text>
</g>
<!-- Node5&#45;&gt;Node8 -->
<g id="edge8" class="edge">
<title>Node5&#45;&gt;Node8</title>
<path fill="none" stroke="#191970" d="M158.7933,-56.2455C164.2178,-48.4564 171.9661,-37.3308 178.5033,-27.9439"/>
<polygon fill="#191970" stroke="#191970" points="181.4417,-29.849 184.2846,-19.6427 175.6975,-25.8485 181.4417,-29.849"/>
</g>
<!-- Node9 -->
<g id="node10" class="node">
<title>Node9</title>
<polygon fill="none" stroke="#bfbfbf" points="234.5,-.5 234.5,-19.5 275.5,-19.5 275.5,-.5 234.5,-.5"/>
<text text-anchor="middle" x="255" y="-7.5" font-family="Helvetica,sans-Serif" font-size="10.00" fill="#000000">tuple</text>
</g>
<!-- Node5&#45;&gt;Node9 -->
<g id="edge9" class="edge">
<title>Node5&#45;&gt;Node9</title>
<path fill="none" stroke="#191970" d="M169.9412,-56.2455C186.04,-47.4928 209.8879,-34.527 228.2391,-24.5496"/>
<polygon fill="#191970" stroke="#191970" points="230.1507,-27.4942 237.2644,-19.6427 226.8071,-21.3444 230.1507,-27.4942"/>
</g>
<!-- Node11 -->
<g id="node12" class="node">
<title>Node11</title>
<polygon fill="none" stroke="#bfbfbf" points="472.5,-112.5 472.5,-131.5 537.5,-131.5 537.5,-112.5 472.5,-112.5"/>
<text text-anchor="middle" x="505" y="-119.5" font-family="Helvetica,sans-Serif" font-size="10.00" fill="#000000">functional</text>
</g>
<!-- Node10&#45;&gt;Node11 -->
<g id="edge11" class="edge">
<title>Node10&#45;&gt;Node11</title>
<path fill="none" stroke="#191970" d="M343.5217,-168.3733C376.4679,-158.9118 426.8639,-144.4391 462.5819,-134.1816"/>
<polygon fill="#191970" stroke="#191970" points="463.5949,-137.5322 472.2403,-131.4079 461.6627,-130.8042 463.5949,-137.5322"/>
</g>
<!-- Node12 -->
<g id="node13" class="node">
<title>Node12</title>
<g id="a_node13"><a xlink:href="ActivityType_8hxx.html" target="_top" xlink:title="../activity/ActivityType.hxx">
<polygon fill="none" stroke="#000000" points="308,-112.5 308,-131.5 454,-131.5 454,-112.5 308,-112.5"/>
<text text-anchor="middle" x="381" y="-119.5" font-family="Helvetica,sans-Serif" font-size="10.00" fill="#000000">../activity/ActivityType.hxx</text>
</a>
</g>
</g>
<!-- Node10&#45;&gt;Node12 -->
<g id="edge12" class="edge">
<title>Node10&#45;&gt;Node12</title>
<path fill="none" stroke="#191970" d="M322.3673,-168.2455C332.9554,-159.8943 348.4064,-147.7076 360.7893,-137.9408"/>
<polygon fill="#191970" stroke="#191970" points="363.0903,-140.5837 368.7745,-131.6427 358.7553,-135.0875 363.0903,-140.5837"/>
</g>
<!-- Node13 -->
<g id="node14" class="node">
<title>Node13</title>
<g id="a_node14"><a xlink:href="Observer_8hxx.html" target="_top" xlink:title="../util/Observer.hxx">
<polygon fill="none" stroke="#000000" points="180.5,-112.5 180.5,-131.5 289.5,-131.5 289.5,-112.5 180.5,-112.5"/>
<text text-anchor="middle" x="235" y="-119.5" font-family="Helvetica,sans-Serif" font-size="10.00" fill="#000000">../util/Observer.hxx</text>
</a>
</g>
</g>
<!-- Node10&#45;&gt;Node13 -->
<g id="edge14" class="edge">
<title>Node10&#45;&gt;Node13</title>
<path fill="none" stroke="#191970" d="M296.936,-168.2455C285.6438,-159.814 269.1155,-147.4729 255.9729,-137.6598"/>
<polygon fill="#191970" stroke="#191970" points="258.0211,-134.8211 247.9143,-131.6427 253.8331,-140.4301 258.0211,-134.8211"/>
</g>
<!-- Node12&#45;&gt;Node4 -->
<g id="edge13" class="edge">
<title>Node12&#45;&gt;Node4</title>
<path fill="none" stroke="#191970" d="M398.9412,-112.2455C415.04,-103.4928 438.8879,-90.527 457.2391,-80.5496"/>
<polygon fill="#191970" stroke="#191970" points="459.1507,-83.4942 466.2644,-75.6427 455.8071,-77.3444 459.1507,-83.4942"/>
</g>
<!-- Node13&#45;&gt;Node5 -->
<g id="edge17" class="edge">
<title>Node13&#45;&gt;Node5</title>
<path fill="none" stroke="#191970" d="M220.5425,-112.2455C207.9268,-103.7337 189.4056,-91.2375 174.7955,-81.3801"/>
<polygon fill="#191970" stroke="#191970" points="176.5391,-78.3343 166.2918,-75.6427 172.6239,-84.1371 176.5391,-78.3343"/>
</g>
<!-- Node14 -->
<g id="node15" class="node">
<title>Node14</title>
<polygon fill="none" stroke="#bfbfbf" points="210.5,-56.5 210.5,-75.5 257.5,-75.5 257.5,-56.5 210.5,-56.5"/>
<text text-anchor="middle" x="234" y="-63.5" font-family="Helvetica,sans-Serif" font-size="10.00" fill="#000000">vector</text>
</g>
<!-- Node13&#45;&gt;Node14 -->
<g id="edge15" class="edge">
<title>Node13&#45;&gt;Node14</title>
<path fill="none" stroke="#191970" d="M234.8258,-112.2455C234.6953,-104.9382 234.5124,-94.6944 234.3519,-85.7046"/>
<polygon fill="#191970" stroke="#191970" points="237.8503,-85.5786 234.1722,-75.6427 230.8514,-85.7036 237.8503,-85.5786"/>
</g>
<!-- Node15 -->
<g id="node16" class="node">
<title>Node15</title>
<polygon fill="none" stroke="#bfbfbf" points="276,-56.5 276,-75.5 334,-75.5 334,-56.5 276,-56.5"/>
<text text-anchor="middle" x="305" y="-63.5" font-family="Helvetica,sans-Serif" font-size="10.00" fill="#000000">memory</text>
</g>
<!-- Node13&#45;&gt;Node15 -->
<g id="edge16" class="edge">
<title>Node13&#45;&gt;Node15</title>
<path fill="none" stroke="#191970" d="M247.1931,-112.2455C257.6321,-103.8943 272.8655,-91.7076 285.074,-81.9408"/>
<polygon fill="#191970" stroke="#191970" points="287.3244,-84.6227 292.9467,-75.6427 282.9515,-79.1566 287.3244,-84.6227"/>
</g>
</g>
</svg>
