<?xml version="1.0" encoding="UTF-8" standalone="no"?>
<!DOCTYPE svg PUBLIC "-//W3C//DTD SVG 1.1//EN"
 "http://www.w3.org/Graphics/SVG/1.1/DTD/svg11.dtd">
<!-- Generated by graphviz version 2.40.1 (20161225.0304)
 -->
<!-- Title: src/services/GameClock.cxx Pages: 1 -->
<!--zoomable 420 -->
<svg id="main" version="1.1" xmlns="http://www.w3.org/2000/svg" xmlns:xlink="http://www.w3.org/1999/xlink" xml:space="preserve" onload="init(evt)">
<style type="text/css"><![CDATA[
.edge:hover path { stroke: red; }
.edge:hover polygon { stroke: red; fill: red; }
]]></style>
<script type="text/javascript"><![CDATA[
var edges = document.getElementsByTagName('g');
if (edges && edges.length) {
  for (var i=0;i<edges.length;i++) {
    if (edges[i].id.substr(0,4)=='edge') {
      edges[i].setAttribute('class','edge');
    }
  }
}
]]></script>
        <defs>
                <circle id="rim" cx="0" cy="0" r="7"/>
                <circle id="rim2" cx="0" cy="0" r="3.5"/>
                <g id="zoomPlus">
                        <use xlink:href="#rim" fill="#404040">
                                <set attributeName="fill" to="#808080" begin="zoomplus.mouseover" end="zoomplus.mouseout"/>
                        </use>
                        <path d="M-4,0h8M0,-4v8" fill="none" stroke="white" stroke-width="1.5" pointer-events="none"/>
                </g>
                <g id="zoomMin">
                        <use xlink:href="#rim" fill="#404040">
                                <set attributeName="fill" to="#808080" begin="zoomminus.mouseover" end="zoomminus.mouseout"/>
                        </use>
                        <path d="M-4,0h8" fill="none" stroke="white" stroke-width="1.5" pointer-events="none"/>
                </g>
                <g id="dirArrow">
                        <path fill="none" stroke="white" stroke-width="1.5" d="M0,-3.0v7 M-2.5,-0.5L0,-3.0L2.5,-0.5"/>
                </g>
               <g id="resetDef">
                       <use xlink:href="#rim2" fill="#404040">
                               <set attributeName="fill" to="#808080" begin="reset.mouseover" end="reset.mouseout"/>
                       </use>
               </g>
        </defs>

<script type="text/javascript">
var viewWidth = 1282;
var viewHeight = 420;
var sectionId = 'dynsection-0';
</script>
<script xlink:href="svgpan.js"/>
<svg id="graph" class="graph">
<g id="viewport">
<title>src/services/GameClock.cxx</title>
<!-- Node0 -->
<g id="node1" class="node">
<title>Node0</title>
<polygon fill="#bfbfbf" stroke="#000000" points="438.5,-392.5 438.5,-411.5 592.5,-411.5 592.5,-392.5 438.5,-392.5"/>
<text text-anchor="middle" x="515.5" y="-399.5" font-family="Helvetica,sans-Serif" font-size="10.00" fill="#000000">src/services/GameClock.cxx</text>
</g>
<!-- Node1 -->
<g id="node2" class="node">
<title>Node1</title>
<g id="a_node2"><a xlink:href="GameClock_8hxx.html" target="_top" xlink:title="GameClock.hxx">
<polygon fill="none" stroke="#000000" points="221.5,-336.5 221.5,-355.5 315.5,-355.5 315.5,-336.5 221.5,-336.5"/>
<text text-anchor="middle" x="268.5" y="-343.5" font-family="Helvetica,sans-Serif" font-size="10.00" fill="#000000">GameClock.hxx</text>
</a>
</g>
</g>
<!-- Node0&#45;&gt;Node1 -->
<g id="edge1" class="edge">
<title>Node0&#45;&gt;Node1</title>
<path fill="none" stroke="#191970" d="M473.3198,-392.4369C431.0477,-382.8529 365.8938,-368.0812 320.4583,-357.78"/>
<polygon fill="#191970" stroke="#191970" points="321.0326,-354.3215 310.5062,-355.5237 319.4848,-361.1482 321.0326,-354.3215"/>
</g>
<!-- Node23 -->
<g id="node24" class="node">
<title>Node23</title>
<g id="a_node24"><a xlink:href="LOG_8hxx.html" target="_top" xlink:title="../util/LOG.hxx">
<polygon fill="none" stroke="#000000" points="719.5,-336.5 719.5,-355.5 805.5,-355.5 805.5,-336.5 719.5,-336.5"/>
<text text-anchor="middle" x="762.5" y="-343.5" font-family="Helvetica,sans-Serif" font-size="10.00" fill="#000000">../util/LOG.hxx</text>
</a>
</g>
</g>
<!-- Node0&#45;&gt;Node23 -->
<g id="edge27" class="edge">
<title>Node0&#45;&gt;Node23</title>
<path fill="none" stroke="#191970" d="M557.6802,-392.4369C599.9523,-382.8529 665.1062,-368.0812 710.5417,-357.78"/>
<polygon fill="#191970" stroke="#191970" points="711.5152,-361.1482 720.4938,-355.5237 709.9674,-354.3215 711.5152,-361.1482"/>
</g>
<!-- Node2 -->
<g id="node3" class="node">
<title>Node2</title>
<polygon fill="none" stroke="#bfbfbf" points="127,-280.5 127,-299.5 174,-299.5 174,-280.5 127,-280.5"/>
<text text-anchor="middle" x="150.5" y="-287.5" font-family="Helvetica,sans-Serif" font-size="10.00" fill="#000000">queue</text>
</g>
<!-- Node1&#45;&gt;Node2 -->
<g id="edge2" class="edge">
<title>Node1&#45;&gt;Node2</title>
<path fill="none" stroke="#191970" d="M248.2151,-336.3733C229.3579,-327.4241 201.054,-313.9917 179.7545,-303.8835"/>
<polygon fill="#191970" stroke="#191970" points="181.0551,-300.6266 170.5202,-299.5011 178.0539,-306.9506 181.0551,-300.6266"/>
</g>
<!-- Node3 -->
<g id="node4" class="node">
<title>Node3</title>
<polygon fill="none" stroke="#bfbfbf" points="192.5,-280.5 192.5,-299.5 240.5,-299.5 240.5,-280.5 192.5,-280.5"/>
<text text-anchor="middle" x="216.5" y="-287.5" font-family="Helvetica,sans-Serif" font-size="10.00" fill="#000000">thread</text>
</g>
<!-- Node1&#45;&gt;Node3 -->
<g id="edge3" class="edge">
<title>Node1&#45;&gt;Node3</title>
<path fill="none" stroke="#191970" d="M259.4423,-336.2455C251.9858,-328.2155 241.2366,-316.6394 232.3583,-307.0781"/>
<polygon fill="#191970" stroke="#191970" points="234.8232,-304.589 225.4539,-299.6427 229.6937,-309.3522 234.8232,-304.589"/>
</g>
<!-- Node4 -->
<g id="node5" class="node">
<title>Node4</title>
<polygon fill="none" stroke="#bfbfbf" points="426.5,-280.5 426.5,-299.5 476.5,-299.5 476.5,-280.5 426.5,-280.5"/>
<text text-anchor="middle" x="451.5" y="-287.5" font-family="Helvetica,sans-Serif" font-size="10.00" fill="#000000">chrono</text>
</g>
<!-- Node1&#45;&gt;Node4 -->
<g id="edge4" class="edge">
<title>Node1&#45;&gt;Node4</title>
<path fill="none" stroke="#191970" d="M299.9588,-336.3733C332.3729,-326.4542 382.7853,-311.0275 416.4557,-300.7239"/>
<polygon fill="#191970" stroke="#191970" points="417.791,-303.9756 426.3292,-297.7026 415.7427,-297.282 417.791,-303.9756"/>
</g>
<!-- Node5 -->
<g id="node6" class="node">
<title>Node5</title>
<polygon fill="none" stroke="#bfbfbf" points="494.5,-280.5 494.5,-299.5 542.5,-299.5 542.5,-280.5 494.5,-280.5"/>
<text text-anchor="middle" x="518.5" y="-287.5" font-family="Helvetica,sans-Serif" font-size="10.00" fill="#000000">mutex</text>
</g>
<!-- Node1&#45;&gt;Node5 -->
<g id="edge5" class="edge">
<title>Node1&#45;&gt;Node5</title>
<path fill="none" stroke="#191970" d="M315.756,-337.19C357.7415,-329.0916 420.9546,-316.2384 484.6121,-300.0728"/>
<polygon fill="#191970" stroke="#191970" points="485.5999,-303.4328 494.4163,-297.5573 483.8602,-296.6524 485.5999,-303.4328"/>
</g>
<!-- Node6 -->
<g id="node7" class="node">
<title>Node6</title>
<polygon fill="none" stroke="#bfbfbf" points="241,-112.5 241,-131.5 306,-131.5 306,-112.5 241,-112.5"/>
<text text-anchor="middle" x="273.5" y="-119.5" font-family="Helvetica,sans-Serif" font-size="10.00" fill="#000000">functional</text>
</g>
<!-- Node1&#45;&gt;Node6 -->
<g id="edge6" class="edge">
<title>Node1&#45;&gt;Node6</title>
<path fill="none" stroke="#191970" d="M268.7148,-336.375C269.4713,-302.4851 272.0216,-188.2317 273.0573,-141.8332"/>
<polygon fill="#191970" stroke="#191970" points="276.5618,-141.6648 273.286,-131.5891 269.5636,-141.5085 276.5618,-141.6648"/>
</g>
<!-- Node7 -->
<g id="node8" class="node">
<title>Node7</title>
<g id="a_node8"><a xlink:href="GameService_8hxx.html" target="_top" xlink:title="../GameService.hxx">
<polygon fill="none" stroke="#000000" points="296.5,-280.5 296.5,-299.5 408.5,-299.5 408.5,-280.5 296.5,-280.5"/>
<text text-anchor="middle" x="352.5" y="-287.5" font-family="Helvetica,sans-Serif" font-size="10.00" fill="#000000">../GameService.hxx</text>
</a>
</g>
</g>
<!-- Node1&#45;&gt;Node7 -->
<g id="edge7" class="edge">
<title>Node1&#45;&gt;Node7</title>
<path fill="none" stroke="#191970" d="M283.1317,-336.2455C295.8994,-327.7337 314.6438,-315.2375 329.4299,-305.3801"/>
<polygon fill="#191970" stroke="#191970" points="331.6569,-308.1019 338.036,-299.6427 327.774,-302.2775 331.6569,-308.1019"/>
</g>
<!-- Node22 -->
<g id="node23" class="node">
<title>Node22</title>
<g id="a_node23"><a xlink:href="GameClock_8inl_8hxx.html" target="_top" xlink:title="GameClock.inl.hxx">
<polygon fill="none" stroke="#000000" points="0,-280.5 0,-299.5 109,-299.5 109,-280.5 0,-280.5"/>
<text text-anchor="middle" x="54.5" y="-287.5" font-family="Helvetica,sans-Serif" font-size="10.00" fill="#000000">GameClock.inl.hxx</text>
</a>
</g>
</g>
<!-- Node1&#45;&gt;Node22 -->
<g id="edge25" class="edge">
<title>Node1&#45;&gt;Node22</title>
<path fill="none" stroke="#191970" d="M226.7257,-336.4369C188.6996,-326.9737 133.0581,-312.4528 95.3316,-302.1717"/>
<polygon fill="#191970" stroke="#191970" points="96.2418,-298.7921 85.6723,-299.5237 94.3911,-305.543 96.2418,-298.7921"/>
</g>
<!-- Node8 -->
<g id="node9" class="node">
<title>Node8</title>
<g id="a_node9"><a xlink:href="Events_8hxx.html" target="_top" xlink:title="Events.hxx">
<polygon fill="none" stroke="#000000" points="433,-224.5 433,-243.5 504,-243.5 504,-224.5 433,-224.5"/>
<text text-anchor="middle" x="468.5" y="-231.5" font-family="Helvetica,sans-Serif" font-size="10.00" fill="#000000">Events.hxx</text>
</a>
</g>
</g>
<!-- Node7&#45;&gt;Node8 -->
<g id="edge8" class="edge">
<title>Node7&#45;&gt;Node8</title>
<path fill="none" stroke="#191970" d="M372.4411,-280.3733C390.9786,-271.4241 418.8028,-257.9917 439.7413,-247.8835"/>
<polygon fill="#191970" stroke="#191970" points="441.3352,-251.0006 448.8191,-243.5011 438.2919,-244.6967 441.3352,-251.0006"/>
</g>
<!-- Node21 -->
<g id="node22" class="node">
<title>Node21</title>
<g id="a_node22"><a xlink:href="GameService_8inl_8hxx.html" target="_top" xlink:title="GameService.inl.hxx">
<polygon fill="none" stroke="#000000" points="296.5,-224.5 296.5,-243.5 414.5,-243.5 414.5,-224.5 296.5,-224.5"/>
<text text-anchor="middle" x="355.5" y="-231.5" font-family="Helvetica,sans-Serif" font-size="10.00" fill="#000000">GameService.inl.hxx</text>
</a>
</g>
</g>
<!-- Node7&#45;&gt;Node21 -->
<g id="edge24" class="edge">
<title>Node7&#45;&gt;Node21</title>
<path fill="none" stroke="#191970" d="M353.0226,-280.2455C353.414,-272.9382 353.9628,-262.6944 354.4444,-253.7046"/>
<polygon fill="#191970" stroke="#191970" points="357.9434,-253.8156 354.9834,-243.6427 350.9534,-253.4411 357.9434,-253.8156"/>
</g>
<!-- Node9 -->
<g id="node10" class="node">
<title>Node9</title>
<polygon fill="none" stroke="#bfbfbf" points="701.5,-168.5 701.5,-187.5 745.5,-187.5 745.5,-168.5 701.5,-168.5"/>
<text text-anchor="middle" x="723.5" y="-175.5" font-family="Helvetica,sans-Serif" font-size="10.00" fill="#000000">string</text>
</g>
<!-- Node8&#45;&gt;Node9 -->
<g id="edge9" class="edge">
<title>Node8&#45;&gt;Node9</title>
<path fill="none" stroke="#191970" d="M504.3146,-227.2073C547.8123,-218.7895 623.3313,-203.6346 687.5,-188 688.7762,-187.6891 690.0758,-187.3647 691.387,-187.0311"/>
<polygon fill="#191970" stroke="#191970" points="692.7037,-190.3031 701.4736,-184.3585 690.9107,-183.5366 692.7037,-190.3031"/>
</g>
<!-- Node10 -->
<g id="node11" class="node">
<title>Node10</title>
<polygon fill="none" stroke="#bfbfbf" points="364.5,-56.5 364.5,-75.5 464.5,-75.5 464.5,-56.5 364.5,-56.5"/>
<text text-anchor="middle" x="414.5" y="-63.5" font-family="Helvetica,sans-Serif" font-size="10.00" fill="#000000">betterEnums.hxx</text>
</g>
<!-- Node8&#45;&gt;Node10 -->
<g id="edge10" class="edge">
<title>Node8&#45;&gt;Node10</title>
<path fill="none" stroke="#191970" d="M438.174,-224.4886C419.4905,-217.212 396.3497,-205.4254 381.5,-188 364.4529,-167.996 366.7793,-157.9317 362.5,-132 361.0527,-123.2297 358.8489,-120.1044 362.5,-112 368.0697,-99.6369 378.7863,-89.2563 389.0506,-81.5033"/>
<polygon fill="#191970" stroke="#191970" points="391.2618,-84.2277 397.4433,-75.623 387.2451,-78.4948 391.2618,-84.2277"/>
</g>
<!-- Node11 -->
<g id="node12" class="node">
<title>Node11</title>
<g id="a_node12"><a xlink:href="Meta_8hxx.html" target="_top" xlink:title="util/Meta.hxx">
<polygon fill="none" stroke="#000000" points="735.5,-56.5 735.5,-75.5 815.5,-75.5 815.5,-56.5 735.5,-56.5"/>
<text text-anchor="middle" x="775.5" y="-63.5" font-family="Helvetica,sans-Serif" font-size="10.00" fill="#000000">util/Meta.hxx</text>
</a>
</g>
</g>
<!-- Node8&#45;&gt;Node11 -->
<g id="edge11" class="edge">
<title>Node8&#45;&gt;Node11</title>
<path fill="none" stroke="#191970" d="M485.8853,-224.4862C537.0562,-196.4839 687.39,-114.2166 748.8524,-80.5824"/>
<polygon fill="#191970" stroke="#191970" points="750.8327,-83.4886 757.9249,-75.6177 747.4723,-77.3479 750.8327,-83.4886"/>
</g>
<!-- Node16 -->
<g id="node17" class="node">
<title>Node16</title>
<g id="a_node17"><a xlink:href="UIEvents_8hxx.html" target="_top" xlink:title="events/UIEvents.hxx">
<polygon fill="none" stroke="#000000" points="391,-168.5 391,-187.5 508,-187.5 508,-168.5 391,-168.5"/>
<text text-anchor="middle" x="449.5" y="-175.5" font-family="Helvetica,sans-Serif" font-size="10.00" fill="#000000">events/UIEvents.hxx</text>
</a>
</g>
</g>
<!-- Node8&#45;&gt;Node16 -->
<g id="edge16" class="edge">
<title>Node8&#45;&gt;Node16</title>
<path fill="none" stroke="#191970" d="M465.1905,-224.2455C462.6567,-216.7776 459.0823,-206.2427 455.985,-197.1137"/>
<polygon fill="#191970" stroke="#191970" points="459.2991,-195.9879 452.7716,-187.6427 452.6702,-198.237 459.2991,-195.9879"/>
</g>
<!-- Node12 -->
<g id="node13" class="node">
<title>Node12</title>
<polygon fill="none" stroke="#bfbfbf" points="1016.5,-.5 1016.5,-19.5 1076.5,-19.5 1076.5,-.5 1016.5,-.5"/>
<text text-anchor="middle" x="1046.5" y="-7.5" font-family="Helvetica,sans-Serif" font-size="10.00" fill="#000000">iostream</text>
</g>
<!-- Node11&#45;&gt;Node12 -->
<g id="edge12" class="edge">
<title>Node11&#45;&gt;Node12</title>
<path fill="none" stroke="#191970" d="M815.7788,-57.6767C867.0934,-47.073 955.2493,-28.8562 1006.4528,-18.2754"/>
<polygon fill="#191970" stroke="#191970" points="1007.4004,-21.6536 1016.4852,-16.2023 1005.9838,-14.7985 1007.4004,-21.6536"/>
</g>
<!-- Node13 -->
<g id="node14" class="node">
<title>Node13</title>
<polygon fill="none" stroke="#bfbfbf" points="741,-.5 741,-19.5 810,-19.5 810,-.5 741,-.5"/>
<text text-anchor="middle" x="775.5" y="-7.5" font-family="Helvetica,sans-Serif" font-size="10.00" fill="#000000">type_traits</text>
</g>
<!-- Node11&#45;&gt;Node13 -->
<g id="edge13" class="edge">
<title>Node11&#45;&gt;Node13</title>
<path fill="none" stroke="#191970" d="M775.5,-56.2455C775.5,-48.9382 775.5,-38.6944 775.5,-29.7046"/>
<polygon fill="#191970" stroke="#191970" points="779.0001,-29.6426 775.5,-19.6427 772.0001,-29.6427 779.0001,-29.6426"/>
</g>
<!-- Node14 -->
<g id="node15" class="node">
<title>Node14</title>
<polygon fill="none" stroke="#bfbfbf" points="828,-.5 828,-19.5 879,-19.5 879,-.5 828,-.5"/>
<text text-anchor="middle" x="853.5" y="-7.5" font-family="Helvetica,sans-Serif" font-size="10.00" fill="#000000">variant</text>
</g>
<!-- Node11&#45;&gt;Node14 -->
<g id="edge14" class="edge">
<title>Node11&#45;&gt;Node14</title>
<path fill="none" stroke="#191970" d="M789.0866,-56.2455C800.8305,-47.814 818.0199,-35.4729 831.6882,-25.6598"/>
<polygon fill="#191970" stroke="#191970" points="833.9871,-28.3179 840.0691,-19.6427 829.9046,-22.6316 833.9871,-28.3179"/>
</g>
<!-- Node15 -->
<g id="node16" class="node">
<title>Node15</title>
<polygon fill="none" stroke="#bfbfbf" points="682,-.5 682,-19.5 723,-19.5 723,-.5 682,-.5"/>
<text text-anchor="middle" x="702.5" y="-7.5" font-family="Helvetica,sans-Serif" font-size="10.00" fill="#000000">tuple</text>
</g>
<!-- Node11&#45;&gt;Node15 -->
<g id="edge15" class="edge">
<title>Node11&#45;&gt;Node15</title>
<path fill="none" stroke="#191970" d="M762.7844,-56.2455C751.898,-47.8943 736.0117,-35.7076 723.28,-25.9408"/>
<polygon fill="#191970" stroke="#191970" points="725.1346,-22.9523 715.0699,-19.6427 720.8739,-28.5063 725.1346,-22.9523"/>
</g>
<!-- Node16&#45;&gt;Node6 -->
<g id="edge17" class="edge">
<title>Node16&#45;&gt;Node6</title>
<path fill="none" stroke="#191970" d="M419.2445,-168.3733C389.8517,-159.021 345.0708,-144.7725 312.9066,-134.5385"/>
<polygon fill="#191970" stroke="#191970" points="313.9512,-131.198 303.3607,-131.5011 311.8287,-137.8685 313.9512,-131.198"/>
</g>
<!-- Node17 -->
<g id="node18" class="node">
<title>Node17</title>
<g id="a_node18"><a xlink:href="ActivityType_8hxx.html" target="_top" xlink:title="../activity/ActivityType.hxx">
<polygon fill="none" stroke="#000000" points="371.5,-112.5 371.5,-131.5 517.5,-131.5 517.5,-112.5 371.5,-112.5"/>
<text text-anchor="middle" x="444.5" y="-119.5" font-family="Helvetica,sans-Serif" font-size="10.00" fill="#000000">../activity/ActivityType.hxx</text>
</a>
</g>
</g>
<!-- Node16&#45;&gt;Node17 -->
<g id="edge18" class="edge">
<title>Node16&#45;&gt;Node17</title>
<path fill="none" stroke="#191970" d="M448.6291,-168.2455C447.9766,-160.9382 447.062,-150.6944 446.2593,-141.7046"/>
<polygon fill="#191970" stroke="#191970" points="449.7365,-141.2918 445.361,-131.6427 442.7642,-141.9143 449.7365,-141.2918"/>
</g>
<!-- Node18 -->
<g id="node19" class="node">
<title>Node18</title>
<g id="a_node19"><a xlink:href="Observer_8hxx.html" target="_top" xlink:title="../util/Observer.hxx">
<polygon fill="none" stroke="#000000" points="536,-112.5 536,-131.5 645,-131.5 645,-112.5 536,-112.5"/>
<text text-anchor="middle" x="590.5" y="-119.5" font-family="Helvetica,sans-Serif" font-size="10.00" fill="#000000">../util/Observer.hxx</text>
</a>
</g>
</g>
<!-- Node16&#45;&gt;Node18 -->
<g id="edge20" class="edge">
<title>Node16&#45;&gt;Node18</title>
<path fill="none" stroke="#191970" d="M473.7388,-168.3733C496.7789,-159.2226 531.6214,-145.3844 557.2501,-135.2057"/>
<polygon fill="#191970" stroke="#191970" points="558.5756,-138.4452 566.5775,-131.5011 555.9918,-131.9395 558.5756,-138.4452"/>
</g>
<!-- Node17&#45;&gt;Node10 -->
<g id="edge19" class="edge">
<title>Node17&#45;&gt;Node10</title>
<path fill="none" stroke="#191970" d="M439.2744,-112.2455C435.1877,-104.617 429.3865,-93.7881 424.425,-84.5267"/>
<polygon fill="#191970" stroke="#191970" points="427.4732,-82.8047 419.6657,-75.6427 421.3028,-86.1103 427.4732,-82.8047"/>
</g>
<!-- Node18&#45;&gt;Node11 -->
<g id="edge23" class="edge">
<title>Node18&#45;&gt;Node11</title>
<path fill="none" stroke="#191970" d="M622.3026,-112.3733C653.3317,-102.9807 700.6754,-88.6496 734.5147,-78.4064"/>
<polygon fill="#191970" stroke="#191970" points="735.5553,-81.7483 744.1124,-75.5011 733.5272,-75.0485 735.5553,-81.7483"/>
</g>
<!-- Node19 -->
<g id="node20" class="node">
<title>Node19</title>
<polygon fill="none" stroke="#bfbfbf" points="525,-56.5 525,-75.5 572,-75.5 572,-56.5 525,-56.5"/>
<text text-anchor="middle" x="548.5" y="-63.5" font-family="Helvetica,sans-Serif" font-size="10.00" fill="#000000">vector</text>
</g>
<!-- Node18&#45;&gt;Node19 -->
<g id="edge21" class="edge">
<title>Node18&#45;&gt;Node19</title>
<path fill="none" stroke="#191970" d="M583.1842,-112.2455C577.2821,-104.3761 568.8258,-93.101 561.7406,-83.6542"/>
<polygon fill="#191970" stroke="#191970" points="564.5321,-81.5427 555.732,-75.6427 558.932,-85.7427 564.5321,-81.5427"/>
</g>
<!-- Node20 -->
<g id="node21" class="node">
<title>Node20</title>
<polygon fill="none" stroke="#bfbfbf" points="590.5,-56.5 590.5,-75.5 648.5,-75.5 648.5,-56.5 590.5,-56.5"/>
<text text-anchor="middle" x="619.5" y="-63.5" font-family="Helvetica,sans-Serif" font-size="10.00" fill="#000000">memory</text>
</g>
<!-- Node18&#45;&gt;Node20 -->
<g id="edge22" class="edge">
<title>Node18&#45;&gt;Node20</title>
<path fill="none" stroke="#191970" d="M595.5514,-112.2455C599.5019,-104.617 605.1097,-93.7881 609.9058,-84.5267"/>
<polygon fill="#191970" stroke="#191970" points="613.0159,-86.1321 614.5065,-75.6427 606.7999,-82.9131 613.0159,-86.1321"/>
</g>
<!-- Node22&#45;&gt;Node1 -->
<g id="edge26" class="edge">
<title>Node22&#45;&gt;Node1</title>
<path fill="none" stroke="#191970" d="M96.0252,-299.5011C133.9239,-308.9296 189.4687,-323.4228 227.2704,-333.7199"/>
<polygon fill="#191970" stroke="#191970" points="226.3847,-337.1061 236.9541,-336.3733 228.2345,-330.355 226.3847,-337.1061"/>
</g>
<!-- Node23&#45;&gt;Node4 -->
<g id="edge33" class="edge">
<title>Node23&#45;&gt;Node4</title>
<path fill="none" stroke="#191970" d="M719.4765,-340.5069C666.7183,-333.4075 574.4405,-319.8148 486.5273,-300.0225"/>
<polygon fill="#191970" stroke="#191970" points="487.1893,-296.5836 476.6611,-297.7704 485.6315,-303.4081 487.1893,-296.5836"/>
</g>
<!-- Node23&#45;&gt;Node5 -->
<g id="edge39" class="edge">
<title>Node23&#45;&gt;Node5</title>
<path fill="none" stroke="#191970" d="M719.3847,-336.8664C677.6302,-327.9046 612.5815,-313.6356 556.5,-300 555.2323,-299.6918 553.9419,-299.3738 552.6392,-299.0492"/>
<polygon fill="#191970" stroke="#191970" points="553.143,-295.5657 542.5881,-296.485 551.4125,-302.3484 553.143,-295.5657"/>
</g>
<!-- Node23&#45;&gt;Node9 -->
<g id="edge28" class="edge">
<title>Node23&#45;&gt;Node9</title>
<path fill="none" stroke="#191970" d="M719.2177,-340.5237C673.2965,-333.7202 605.2226,-320.4495 589.5,-300 553.6341,-253.3512 641.699,-209.7457 691.7532,-189.6361"/>
<polygon fill="#191970" stroke="#191970" points="693.1738,-192.8387 701.2093,-185.9335 690.6215,-186.3205 693.1738,-192.8387"/>
</g>
<!-- Node23&#45;&gt;Node11 -->
<g id="edge40" class="edge">
<title>Node23&#45;&gt;Node11</title>
<path fill="none" stroke="#191970" d="M805.7139,-344.1198C873.6678,-340.2932 1001.2093,-329.319 1034.5,-300 1057.5018,-279.7424 1054.5,-264.6506 1054.5,-234 1054.5,-234 1054.5,-234 1054.5,-178 1054.5,-129.2601 906.0083,-92.026 825.6861,-75.4506"/>
<polygon fill="#191970" stroke="#191970" points="826.2675,-71.9973 815.771,-73.4379 824.8748,-78.8574 826.2675,-71.9973"/>
</g>
<!-- Node23&#45;&gt;Node12 -->
<g id="edge32" class="edge">
<title>Node23&#45;&gt;Node12</title>
<path fill="none" stroke="#191970" d="M805.5909,-343.8871C877.219,-339.6266 1016.8411,-327.9152 1056.5,-300 1083.8233,-280.7676 1092.5,-267.4132 1092.5,-234 1092.5,-234 1092.5,-234 1092.5,-122 1092.5,-86.66 1072.6609,-49.4332 1059.0403,-28.0395"/>
<polygon fill="#191970" stroke="#191970" points="1061.9212,-26.0507 1053.4864,-19.6394 1056.0821,-29.9114 1061.9212,-26.0507"/>
</g>
<!-- Node24 -->
<g id="node25" class="node">
<title>Node24</title>
<g id="a_node25"><a xlink:href="Exception_8hxx.html" target="_top" xlink:title="Exception.hxx">
<polygon fill="none" stroke="#000000" points="1120.5,-280.5 1120.5,-299.5 1206.5,-299.5 1206.5,-280.5 1120.5,-280.5"/>
<text text-anchor="middle" x="1163.5" y="-287.5" font-family="Helvetica,sans-Serif" font-size="10.00" fill="#000000">Exception.hxx</text>
</a>
</g>
</g>
<!-- Node23&#45;&gt;Node24 -->
<g id="edge29" class="edge">
<title>Node23&#45;&gt;Node24</title>
<path fill="none" stroke="#191970" d="M805.754,-340.7901C871.0324,-332.7975 998.5708,-316.6766 1106.5,-300 1107.7567,-299.8058 1109.0284,-299.6064 1110.3106,-299.4028"/>
<polygon fill="#191970" stroke="#191970" points="1110.9663,-302.8421 1120.2706,-297.7746 1109.8369,-295.9338 1110.9663,-302.8421"/>
</g>
<!-- Node27 -->
<g id="node28" class="node">
<title>Node27</title>
<polygon fill="none" stroke="#bfbfbf" points="598.5,-280.5 598.5,-299.5 642.5,-299.5 642.5,-280.5 598.5,-280.5"/>
<text text-anchor="middle" x="620.5" y="-287.5" font-family="Helvetica,sans-Serif" font-size="10.00" fill="#000000">ctime</text>
</g>
<!-- Node23&#45;&gt;Node27 -->
<g id="edge34" class="edge">
<title>Node23&#45;&gt;Node27</title>
<path fill="none" stroke="#191970" d="M738.0893,-336.3733C714.3232,-327.0007 678.0879,-312.7107 652.1253,-302.472"/>
<polygon fill="#191970" stroke="#191970" points="653.3121,-299.1777 642.7253,-298.7649 650.744,-305.6896 653.3121,-299.1777"/>
</g>
<!-- Node28 -->
<g id="node29" class="node">
<title>Node28</title>
<polygon fill="none" stroke="#bfbfbf" points="661,-280.5 661,-299.5 716,-299.5 716,-280.5 661,-280.5"/>
<text text-anchor="middle" x="688.5" y="-287.5" font-family="Helvetica,sans-Serif" font-size="10.00" fill="#000000">fstream</text>
</g>
<!-- Node23&#45;&gt;Node28 -->
<g id="edge35" class="edge">
<title>Node23&#45;&gt;Node28</title>
<path fill="none" stroke="#191970" d="M749.6102,-336.2455C738.5746,-327.8943 722.4708,-315.7076 709.5647,-305.9408"/>
<polygon fill="#191970" stroke="#191970" points="711.3283,-302.8862 701.2421,-299.6427 707.1041,-308.4681 711.3283,-302.8862"/>
</g>
<!-- Node29 -->
<g id="node30" class="node">
<title>Node29</title>
<polygon fill="none" stroke="#bfbfbf" points="734.5,-280.5 734.5,-299.5 790.5,-299.5 790.5,-280.5 734.5,-280.5"/>
<text text-anchor="middle" x="762.5" y="-287.5" font-family="Helvetica,sans-Serif" font-size="10.00" fill="#000000">sstream</text>
</g>
<!-- Node23&#45;&gt;Node29 -->
<g id="edge36" class="edge">
<title>Node23&#45;&gt;Node29</title>
<path fill="none" stroke="#191970" d="M762.5,-336.2455C762.5,-328.9382 762.5,-318.6944 762.5,-309.7046"/>
<polygon fill="#191970" stroke="#191970" points="766.0001,-309.6426 762.5,-299.6427 759.0001,-309.6427 766.0001,-309.6426"/>
</g>
<!-- Node30 -->
<g id="node31" class="node">
<title>Node30</title>
<polygon fill="none" stroke="#bfbfbf" points="808.5,-280.5 808.5,-299.5 852.5,-299.5 852.5,-280.5 808.5,-280.5"/>
<text text-anchor="middle" x="830.5" y="-287.5" font-family="Helvetica,sans-Serif" font-size="10.00" fill="#000000">SDL.h</text>
</g>
<!-- Node23&#45;&gt;Node30 -->
<g id="edge37" class="edge">
<title>Node23&#45;&gt;Node30</title>
<path fill="none" stroke="#191970" d="M774.3447,-336.2455C784.388,-327.9746 798.9995,-315.9416 810.8004,-306.2232"/>
<polygon fill="#191970" stroke="#191970" points="813.2967,-308.7015 818.791,-299.6427 808.8467,-303.298 813.2967,-308.7015"/>
</g>
<!-- Node31 -->
<g id="node32" class="node">
<title>Node31</title>
<polygon fill="none" stroke="#bfbfbf" points="870.5,-280.5 870.5,-299.5 934.5,-299.5 934.5,-280.5 870.5,-280.5"/>
<text text-anchor="middle" x="902.5" y="-287.5" font-family="Helvetica,sans-Serif" font-size="10.00" fill="#000000">algorithm</text>
</g>
<!-- Node23&#45;&gt;Node31 -->
<g id="edge38" class="edge">
<title>Node23&#45;&gt;Node31</title>
<path fill="none" stroke="#191970" d="M786.5669,-336.3733C809.3428,-327.2629 843.7344,-313.5062 869.149,-303.3404"/>
<polygon fill="#191970" stroke="#191970" points="870.7623,-306.4648 878.7472,-299.5011 868.1625,-299.9654 870.7623,-306.4648"/>
</g>
<!-- Node32 -->
<g id="node33" class="node">
<title>Node32</title>
<g id="a_node33"><a xlink:href="LOG_8inl_8hxx.html" target="_top" xlink:title="LOG.inl.hxx">
<polygon fill="none" stroke="#000000" points="953,-280.5 953,-299.5 1026,-299.5 1026,-280.5 953,-280.5"/>
<text text-anchor="middle" x="989.5" y="-287.5" font-family="Helvetica,sans-Serif" font-size="10.00" fill="#000000">LOG.inl.hxx</text>
</a>
</g>
</g>
<!-- Node23&#45;&gt;Node32 -->
<g id="edge41" class="edge">
<title>Node23&#45;&gt;Node32</title>
<path fill="none" stroke="#191970" d="M801.2648,-336.4369C840.4541,-326.769 901.0422,-311.8222 942.8412,-301.5105"/>
<polygon fill="#191970" stroke="#191970" points="943.9042,-304.8533 952.7748,-299.06 942.2275,-298.0571 943.9042,-304.8533"/>
</g>
<!-- Node25 -->
<g id="node26" class="node">
<title>Node25</title>
<polygon fill="none" stroke="#bfbfbf" points="1126,-224.5 1126,-243.5 1191,-243.5 1191,-224.5 1126,-224.5"/>
<text text-anchor="middle" x="1158.5" y="-231.5" font-family="Helvetica,sans-Serif" font-size="10.00" fill="#000000">stdexcept</text>
</g>
<!-- Node24&#45;&gt;Node25 -->
<g id="edge30" class="edge">
<title>Node24&#45;&gt;Node25</title>
<path fill="none" stroke="#191970" d="M1162.6291,-280.2455C1161.9766,-272.9382 1161.062,-262.6944 1160.2593,-253.7046"/>
<polygon fill="#191970" stroke="#191970" points="1163.7365,-253.2918 1159.361,-243.6427 1156.7642,-253.9143 1163.7365,-253.2918"/>
</g>
<!-- Node26 -->
<g id="node27" class="node">
<title>Node26</title>
<polygon fill="none" stroke="#bfbfbf" points="1209,-224.5 1209,-243.5 1274,-243.5 1274,-224.5 1209,-224.5"/>
<text text-anchor="middle" x="1241.5" y="-231.5" font-family="Helvetica,sans-Serif" font-size="10.00" fill="#000000">exception</text>
</g>
<!-- Node24&#45;&gt;Node26 -->
<g id="edge31" class="edge">
<title>Node24&#45;&gt;Node26</title>
<path fill="none" stroke="#191970" d="M1177.0866,-280.2455C1188.8305,-271.814 1206.0199,-259.4729 1219.6882,-249.6598"/>
<polygon fill="#191970" stroke="#191970" points="1221.9871,-252.3179 1228.0691,-243.6427 1217.9046,-246.6316 1221.9871,-252.3179"/>
</g>
</g>
</svg>
        <g id="navigator" transform="translate(0 0)" fill="#404254">
                <rect fill="#f2f5e9" fill-opacity="0.5" stroke="#606060" stroke-width=".5" x="0" y="0" width="60" height="60"/>
                <use id="zoomplus" xlink:href="#zoomPlus" x="17" y="9" onmousedown="handleZoom(evt,'in')"/>
                <use id="zoomminus" xlink:href="#zoomMin" x="42" y="9" onmousedown="handleZoom(evt,'out')"/>
                <use id="reset" xlink:href="#resetDef" x="30" y="36" onmousedown="handleReset()"/>
                <g id="arrowUp" xlink:href="#dirArrow" transform="translate(30 24)" onmousedown="handlePan(0,-1)">
                  <use xlink:href="#rim" fill="#404040">
                        <set attributeName="fill" to="#808080" begin="arrowUp.mouseover" end="arrowUp.mouseout"/>
                  </use>
                  <path fill="none" stroke="white" stroke-width="1.5" d="M0,-3.0v7 M-2.5,-0.5L0,-3.0L2.5,-0.5"/>
                </g>
                <g id="arrowRight" xlink:href="#dirArrow" transform="rotate(90) translate(36 -43)" onmousedown="handlePan(1,0)">
                  <use xlink:href="#rim" fill="#404040">
                        <set attributeName="fill" to="#808080" begin="arrowRight.mouseover" end="arrowRight.mouseout"/>
                  </use>
                  <path fill="none" stroke="white" stroke-width="1.5" d="M0,-3.0v7 M-2.5,-0.5L0,-3.0L2.5,-0.5"/>
                </g>
                <g id="arrowDown" xlink:href="#dirArrow" transform="rotate(180) translate(-30 -48)" onmousedown="handlePan(0,1)">
                  <use xlink:href="#rim" fill="#404040">
                        <set attributeName="fill" to="#808080" begin="arrowDown.mouseover" end="arrowDown.mouseout"/>
                  </use>
                  <path fill="none" stroke="white" stroke-width="1.5" d="M0,-3.0v7 M-2.5,-0.5L0,-3.0L2.5,-0.5"/>
                </g>
                <g id="arrowLeft" xlink:href="#dirArrow" transform="rotate(270) translate(-36 17)" onmousedown="handlePan(-1,0)">
                  <use xlink:href="#rim" fill="#404040">
                        <set attributeName="fill" to="#808080" begin="arrowLeft.mouseover" end="arrowLeft.mouseout"/>
                  </use>
                  <path fill="none" stroke="white" stroke-width="1.5" d="M0,-3.0v7 M-2.5,-0.5L0,-3.0L2.5,-0.5"/>
                </g>
        </g>
        <svg viewBox="0 0 15 15" width="100%" height="30px" preserveAspectRatio="xMaxYMin meet">
         <g id="arrow_out" transform="scale(0.3 0.3)">
          <a xlink:href="GameClock_8cxx__incl_org.svg" target="_base">
           <rect id="button" ry="5" rx="5" y="6" x="6" height="38" width="38"
                fill="#f2f5e9" fill-opacity="0.5" stroke="#606060" stroke-width="1.0"/>
           <path id="arrow"
             d="M 11.500037,31.436501 C 11.940474,20.09759 22.043105,11.32322 32.158766,21.979434 L 37.068811,17.246167 C 37.068811,17.246167 37.088388,32 37.088388,32 L 22.160133,31.978069 C 22.160133,31.978069 26.997745,27.140456 26.997745,27.140456 C 18.528582,18.264221 13.291696,25.230495 11.500037,31.436501 z"
             style="fill:#404040;"/>
          </a>
         </g>
        </svg>
</svg>
