<?xml version="1.0" encoding="UTF-8" standalone="no"?>
<!DOCTYPE svg PUBLIC "-//W3C//DTD SVG 1.1//EN"
 "http://www.w3.org/Graphics/SVG/1.1/DTD/svg11.dtd">
<!-- Generated by graphviz version 2.40.1 (20161225.0304)
 -->
<!-- Title: src/GameService.inl.hxx Pages: 1 -->
<svg width="1673pt" height="308pt"
 viewBox="0.00 0.00 1673.00 308.00" xmlns="http://www.w3.org/2000/svg" xmlns:xlink="http://www.w3.org/1999/xlink">
<g id="graph0" class="graph" transform="scale(1 1) rotate(0) translate(4 304)">
<title>src/GameService.inl.hxx</title>
<!-- Node1 -->
<g id="node1" class="node">
<title>Node1</title>
<polygon fill="#bfbfbf" stroke="#000000" points="771,-280.5 771,-299.5 906,-299.5 906,-280.5 771,-280.5"/>
<text text-anchor="middle" x="838.5" y="-287.5" font-family="Helvetica,sans-Serif" font-size="10.00" fill="#000000">src/GameService.inl.hxx</text>
</g>
<!-- Node2 -->
<g id="node2" class="node">
<title>Node2</title>
<g id="a_node2"><a xlink:href="GameService_8hxx.html" target="_top" xlink:title="src/GameService.hxx">
<polygon fill="none" stroke="#000000" points="778.5,-224.5 778.5,-243.5 898.5,-243.5 898.5,-224.5 778.5,-224.5"/>
<text text-anchor="middle" x="838.5" y="-231.5" font-family="Helvetica,sans-Serif" font-size="10.00" fill="#000000">src/GameService.hxx</text>
</a>
</g>
</g>
<!-- Node1&#45;&gt;Node2 -->
<g id="edge1" class="edge">
<title>Node1&#45;&gt;Node2</title>
<path fill="none" stroke="#191970" d="M838.5,-270.1575C838.5,-261.155 838.5,-250.9199 838.5,-243.6427"/>
<polygon fill="#191970" stroke="#191970" points="835.0001,-270.2455 838.5,-280.2455 842.0001,-270.2456 835.0001,-270.2455"/>
</g>
<!-- Node3 -->
<g id="node3" class="node">
<title>Node3</title>
<g id="a_node3"><a xlink:href="iActivity_8hxx.html" target="_top" xlink:title="src/activity/iActivity.hxx">
<polygon fill="none" stroke="#000000" points="397.5,-168.5 397.5,-187.5 531.5,-187.5 531.5,-168.5 397.5,-168.5"/>
<text text-anchor="middle" x="464.5" y="-175.5" font-family="Helvetica,sans-Serif" font-size="10.00" fill="#000000">src/activity/iActivity.hxx</text>
</a>
</g>
</g>
<!-- Node2&#45;&gt;Node3 -->
<g id="edge2" class="edge">
<title>Node2&#45;&gt;Node3</title>
<path fill="none" stroke="#191970" d="M768.4948,-223.5179C699.4822,-213.1845 594.9361,-197.5305 528.1956,-187.5373"/>
<polygon fill="#191970" stroke="#191970" points="768.0024,-226.9831 778.4104,-225.0026 769.039,-220.0603 768.0024,-226.9831"/>
</g>
<!-- Node5 -->
<g id="node5" class="node">
<title>Node5</title>
<g id="a_node5"><a xlink:href="Window_8hxx.html" target="_top" xlink:title="src/view/Window.hxx">
<polygon fill="none" stroke="#000000" points="427,-112.5 427,-131.5 546,-131.5 546,-112.5 427,-112.5"/>
<text text-anchor="middle" x="486.5" y="-119.5" font-family="Helvetica,sans-Serif" font-size="10.00" fill="#000000">src/view/Window.hxx</text>
</a>
</g>
</g>
<!-- Node2&#45;&gt;Node5 -->
<g id="edge13" class="edge">
<title>Node2&#45;&gt;Node5</title>
<path fill="none" stroke="#191970" d="M768.0821,-229.2458C715.605,-223.8324 643.0352,-212.3308 583.5,-188 548.9953,-173.8987 514.2544,-146.2317 497.2469,-131.5996"/>
<polygon fill="#191970" stroke="#191970" points="768.0056,-232.755 778.2998,-230.2493 768.6898,-225.7886 768.0056,-232.755"/>
</g>
<!-- Node9 -->
<g id="node9" class="node">
<title>Node9</title>
<g id="a_node9"><a xlink:href="Game_8hxx.html" target="_top" xlink:title="src/Game.hxx">
<polygon fill="none" stroke="#000000" points="785.5,-56.5 785.5,-75.5 869.5,-75.5 869.5,-56.5 785.5,-56.5"/>
<text text-anchor="middle" x="827.5" y="-63.5" font-family="Helvetica,sans-Serif" font-size="10.00" fill="#000000">src/Game.hxx</text>
</a>
</g>
</g>
<!-- Node2&#45;&gt;Node9 -->
<g id="edge14" class="edge">
<title>Node2&#45;&gt;Node9</title>
<path fill="none" stroke="#191970" d="M768.2745,-224.2656C725.8238,-216.781 677.4713,-204.8461 664.5,-188 649.1394,-168.0509 668.486,-127.5127 684.5,-112 699.0639,-97.892 748.6964,-83.9508 785.4211,-75.1791"/>
<polygon fill="#191970" stroke="#191970" points="767.9036,-227.7527 778.3491,-225.9801 769.078,-220.8519 767.9036,-227.7527"/>
</g>
<!-- Node12 -->
<g id="node12" class="node">
<title>Node12</title>
<g id="a_node12"><a xlink:href="Window_8cxx.html" target="_top" xlink:title="src/view/Window.cxx">
<polygon fill="none" stroke="#000000" points="648,-56.5 648,-75.5 767,-75.5 767,-56.5 648,-56.5"/>
<text text-anchor="middle" x="707.5" y="-63.5" font-family="Helvetica,sans-Serif" font-size="10.00" fill="#000000">src/view/Window.cxx</text>
</a>
</g>
</g>
<!-- Node2&#45;&gt;Node12 -->
<g id="edge33" class="edge">
<title>Node2&#45;&gt;Node12</title>
<path fill="none" stroke="#191970" d="M768.3447,-225.4482C722.547,-218.2582 668.7063,-206.1951 654.5,-188 644.0249,-174.5837 651.9891,-138.799 665.5,-112 672.8025,-97.5154 685.9669,-84.2121 695.6167,-75.6787"/>
<polygon fill="#191970" stroke="#191970" points="767.8658,-228.9155 778.2772,-226.9527 768.9142,-221.9944 767.8658,-228.9155"/>
</g>
<!-- Node13 -->
<g id="node13" class="node">
<title>Node13</title>
<g id="a_node13"><a xlink:href="Randomizer_8hxx.html" target="_top" xlink:title="src/services/Randomizer.hxx">
<polygon fill="none" stroke="#000000" points="673.5,-168.5 673.5,-187.5 829.5,-187.5 829.5,-168.5 673.5,-168.5"/>
<text text-anchor="middle" x="751.5" y="-175.5" font-family="Helvetica,sans-Serif" font-size="10.00" fill="#000000">src/services/Randomizer.hxx</text>
</a>
</g>
</g>
<!-- Node2&#45;&gt;Node13 -->
<g id="edge15" class="edge">
<title>Node2&#45;&gt;Node13</title>
<path fill="none" stroke="#191970" d="M814.8375,-218.769C799.4209,-208.8456 779.774,-196.1994 766.4806,-187.6427"/>
<polygon fill="#191970" stroke="#191970" points="813.0427,-221.7761 823.3458,-224.2455 816.8315,-215.89 813.0427,-221.7761"/>
</g>
<!-- Node16 -->
<g id="node16" class="node">
<title>Node16</title>
<g id="a_node16"><a xlink:href="GameClock_8hxx.html" target="_top" xlink:title="src/services/GameClock.hxx">
<polygon fill="none" stroke="#000000" points="848,-168.5 848,-187.5 1003,-187.5 1003,-168.5 848,-168.5"/>
<text text-anchor="middle" x="925.5" y="-175.5" font-family="Helvetica,sans-Serif" font-size="10.00" fill="#000000">src/services/GameClock.hxx</text>
</a>
</g>
</g>
<!-- Node2&#45;&gt;Node16 -->
<g id="edge19" class="edge">
<title>Node2&#45;&gt;Node16</title>
<path fill="none" stroke="#191970" d="M862.1625,-218.769C877.5791,-208.8456 897.226,-196.1994 910.5194,-187.6427"/>
<polygon fill="#191970" stroke="#191970" points="860.1685,-215.89 853.6542,-224.2455 863.9573,-221.7761 860.1685,-215.89"/>
</g>
<!-- Node19 -->
<g id="node19" class="node">
<title>Node19</title>
<g id="a_node19"><a xlink:href="ResourceManager_8hxx.html" target="_top" xlink:title="src/services/ResourceManager.hxx">
<polygon fill="none" stroke="#000000" points="1471.5,-168.5 1471.5,-187.5 1655.5,-187.5 1655.5,-168.5 1471.5,-168.5"/>
<text text-anchor="middle" x="1563.5" y="-175.5" font-family="Helvetica,sans-Serif" font-size="10.00" fill="#000000">src/services/ResourceManager.hxx</text>
</a>
</g>
</g>
<!-- Node2&#45;&gt;Node19 -->
<g id="edge25" class="edge">
<title>Node2&#45;&gt;Node19</title>
<path fill="none" stroke="#191970" d="M908.91,-229.3878C1024.5354,-221.6838 1261.847,-205.3264 1462.5,-188 1465.3966,-187.7499 1468.3394,-187.4905 1471.3104,-187.224"/>
<polygon fill="#191970" stroke="#191970" points="908.5236,-225.9057 898.7778,-230.0615 908.988,-232.8902 908.5236,-225.9057"/>
</g>
<!-- Node21 -->
<g id="node21" class="node">
<title>Node21</title>
<g id="a_node21"><a xlink:href="GameService_8cxx.html" target="_top" xlink:title="src/GameService.cxx">
<polygon fill="none" stroke="#000000" points="1192,-168.5 1192,-187.5 1311,-187.5 1311,-168.5 1192,-168.5"/>
<text text-anchor="middle" x="1251.5" y="-175.5" font-family="Helvetica,sans-Serif" font-size="10.00" fill="#000000">src/GameService.cxx</text>
</a>
</g>
</g>
<!-- Node2&#45;&gt;Node21 -->
<g id="edge29" class="edge">
<title>Node2&#45;&gt;Node21</title>
<path fill="none" stroke="#191970" d="M908.7686,-224.8334C978.3133,-215.7071 1087.7947,-201.1943 1182.5,-188 1185.4971,-187.5824 1188.5669,-187.1511 1191.6666,-186.7126"/>
<polygon fill="#191970" stroke="#191970" points="908.2643,-221.3695 898.8042,-226.1401 909.1744,-228.3101 908.2643,-221.3695"/>
</g>
<!-- Node22 -->
<g id="node22" class="node">
<title>Node22</title>
<g id="a_node22"><a xlink:href="iLayout_8cxx.html" target="_top" xlink:title="src/layout/iLayout.cxx">
<polygon fill="none" stroke="#000000" points="1329.5,-168.5 1329.5,-187.5 1453.5,-187.5 1453.5,-168.5 1329.5,-168.5"/>
<text text-anchor="middle" x="1391.5" y="-175.5" font-family="Helvetica,sans-Serif" font-size="10.00" fill="#000000">src/layout/iLayout.cxx</text>
</a>
</g>
</g>
<!-- Node2&#45;&gt;Node22 -->
<g id="edge30" class="edge">
<title>Node2&#45;&gt;Node22</title>
<path fill="none" stroke="#191970" d="M908.944,-228.2718C1002.9267,-220.4021 1174.4571,-205.2448 1320.5,-188 1323.3433,-187.6643 1326.2488,-187.3081 1329.1824,-186.938"/>
<polygon fill="#191970" stroke="#191970" points="908.3812,-224.8065 898.7069,-229.1258 908.9633,-231.7823 908.3812,-224.8065"/>
</g>
<!-- Node23 -->
<g id="node23" class="node">
<title>Node23</title>
<g id="a_node23"><a xlink:href="AudioMixer_8hxx.html" target="_top" xlink:title="src/services/AudioMixer.hxx">
<polygon fill="none" stroke="#000000" points="1021.5,-168.5 1021.5,-187.5 1173.5,-187.5 1173.5,-168.5 1021.5,-168.5"/>
<text text-anchor="middle" x="1097.5" y="-175.5" font-family="Helvetica,sans-Serif" font-size="10.00" fill="#000000">src/services/AudioMixer.hxx</text>
</a>
</g>
</g>
<!-- Node2&#45;&gt;Node23 -->
<g id="edge31" class="edge">
<title>Node2&#45;&gt;Node23</title>
<path fill="none" stroke="#191970" d="M892.5788,-222.3073C940.304,-211.9883 1009.0072,-197.1336 1053.453,-187.5237"/>
<polygon fill="#191970" stroke="#191970" points="891.7639,-218.9025 882.7294,-224.4369 893.2432,-225.7444 891.7639,-218.9025"/>
</g>
<!-- Node4 -->
<g id="node4" class="node">
<title>Node4</title>
<g id="a_node4"><a xlink:href="iActivity_8cxx.html" target="_top" xlink:title="src/activity/iActivity.cxx">
<polygon fill="none" stroke="#000000" points="0,-56.5 0,-75.5 133,-75.5 133,-56.5 0,-56.5"/>
<text text-anchor="middle" x="66.5" y="-63.5" font-family="Helvetica,sans-Serif" font-size="10.00" fill="#000000">src/activity/iActivity.cxx</text>
</a>
</g>
</g>
<!-- Node3&#45;&gt;Node4 -->
<g id="edge3" class="edge">
<title>Node3&#45;&gt;Node4</title>
<path fill="none" stroke="#191970" d="M420.8004,-165.7026C340.7912,-143.1875 172.3801,-95.7954 100.3474,-75.5249"/>
<polygon fill="#191970" stroke="#191970" points="419.9925,-169.1112 430.5667,-168.4509 421.8887,-162.3729 419.9925,-169.1112"/>
</g>
<!-- Node3&#45;&gt;Node5 -->
<g id="edge4" class="edge">
<title>Node3&#45;&gt;Node5</title>
<path fill="none" stroke="#191970" d="M472.0628,-158.7493C475.6546,-149.6064 479.7901,-139.0798 482.7118,-131.6427"/>
<polygon fill="#191970" stroke="#191970" points="468.7311,-157.6582 468.3321,-168.2455 475.2463,-160.2178 468.7311,-157.6582"/>
</g>
<!-- Node5&#45;&gt;Node4 -->
<g id="edge5" class="edge">
<title>Node5&#45;&gt;Node4</title>
<path fill="none" stroke="#191970" d="M416.4621,-112.6616C337.7008,-102.1601 210.72,-85.2293 133.3073,-74.9076"/>
<polygon fill="#191970" stroke="#191970" points="416.3954,-116.1836 426.7703,-114.036 417.3206,-109.245 416.3954,-116.1836"/>
</g>
<!-- Node6 -->
<g id="node6" class="node">
<title>Node6</title>
<g id="a_node6"><a xlink:href="Camera_8cxx.html" target="_top" xlink:title="src/engine/basics/Camera.cxx">
<polygon fill="none" stroke="#000000" points="151.5,-56.5 151.5,-75.5 313.5,-75.5 313.5,-56.5 151.5,-56.5"/>
<text text-anchor="middle" x="232.5" y="-63.5" font-family="Helvetica,sans-Serif" font-size="10.00" fill="#000000">src/engine/basics/Camera.cxx</text>
</a>
</g>
</g>
<!-- Node5&#45;&gt;Node6 -->
<g id="edge6" class="edge">
<title>Node5&#45;&gt;Node6</title>
<path fill="none" stroke="#191970" d="M433.1712,-110.2425C386.3795,-99.9262 319.1933,-85.1135 275.6966,-75.5237"/>
<polygon fill="#191970" stroke="#191970" points="432.6054,-113.7017 443.1244,-112.4369 434.1126,-106.8659 432.6054,-113.7017"/>
</g>
<!-- Node7 -->
<g id="node7" class="node">
<title>Node7</title>
<g id="a_node7"><a xlink:href="Map_8cxx.html" target="_top" xlink:title="src/engine/Map.cxx">
<polygon fill="none" stroke="#000000" points="331.5,-56.5 331.5,-75.5 441.5,-75.5 441.5,-56.5 331.5,-56.5"/>
<text text-anchor="middle" x="386.5" y="-63.5" font-family="Helvetica,sans-Serif" font-size="10.00" fill="#000000">src/engine/Map.cxx</text>
</a>
</g>
</g>
<!-- Node5&#45;&gt;Node7 -->
<g id="edge7" class="edge">
<title>Node5&#45;&gt;Node7</title>
<path fill="none" stroke="#191970" d="M460.2902,-107.3225C442.4283,-97.3198 419.2845,-84.3593 403.7191,-75.6427"/>
<polygon fill="#191970" stroke="#191970" points="458.6461,-110.4132 469.0813,-112.2455 462.0664,-104.3057 458.6461,-110.4132"/>
</g>
<!-- Node8 -->
<g id="node8" class="node">
<title>Node8</title>
<g id="a_node8"><a xlink:href="WindowManager_8cxx.html" target="_top" xlink:title="src/engine/WindowManager.cxx">
<polygon fill="none" stroke="#000000" points="459.5,-56.5 459.5,-75.5 629.5,-75.5 629.5,-56.5 459.5,-56.5"/>
<text text-anchor="middle" x="544.5" y="-63.5" font-family="Helvetica,sans-Serif" font-size="10.00" fill="#000000">src/engine/WindowManager.cxx</text>
</a>
</g>
</g>
<!-- Node5&#45;&gt;Node8 -->
<g id="edge8" class="edge">
<title>Node5&#45;&gt;Node8</title>
<path fill="none" stroke="#191970" d="M504.0293,-105.0751C514.0083,-95.4402 526.1476,-83.7196 534.5129,-75.6427"/>
<polygon fill="#191970" stroke="#191970" points="501.3658,-102.7817 496.6028,-112.2455 506.228,-107.8175 501.3658,-102.7817"/>
</g>
<!-- Node5&#45;&gt;Node9 -->
<g id="edge9" class="edge">
<title>Node5&#45;&gt;Node9</title>
<path fill="none" stroke="#191970" d="M555.9577,-111.707C614.7801,-102.8167 701.2934,-89.3333 776.5,-76 779.4318,-75.4802 782.4552,-74.9283 785.4979,-74.3611"/>
<polygon fill="#191970" stroke="#191970" points="555.4009,-108.2513 546.0344,-113.2029 556.4444,-115.1731 555.4009,-108.2513"/>
</g>
<!-- Node5&#45;&gt;Node12 -->
<g id="edge12" class="edge">
<title>Node5&#45;&gt;Node12</title>
<path fill="none" stroke="#191970" d="M534.1863,-109.9166C574.836,-99.6162 632.4667,-85.013 669.9155,-75.5237"/>
<polygon fill="#191970" stroke="#191970" points="533.0741,-106.5877 524.2401,-112.4369 534.7935,-113.3733 533.0741,-106.5877"/>
</g>
<!-- Node10 -->
<g id="node10" class="node">
<title>Node10</title>
<g id="a_node10"><a xlink:href="Game_8cxx.html" target="_top" xlink:title="src/Game.cxx">
<polygon fill="none" stroke="#000000" points="736,-.5 736,-19.5 819,-19.5 819,-.5 736,-.5"/>
<text text-anchor="middle" x="777.5" y="-7.5" font-family="Helvetica,sans-Serif" font-size="10.00" fill="#000000">src/Game.cxx</text>
</a>
</g>
</g>
<!-- Node9&#45;&gt;Node10 -->
<g id="edge10" class="edge">
<title>Node9&#45;&gt;Node10</title>
<path fill="none" stroke="#191970" d="M811.8753,-48.5004C803.3727,-38.9775 793.1782,-27.5596 786.1095,-19.6427"/>
<polygon fill="#191970" stroke="#191970" points="809.5197,-51.1172 818.7907,-56.2455 814.7413,-46.4551 809.5197,-51.1172"/>
</g>
<!-- Node11 -->
<g id="node11" class="node">
<title>Node11</title>
<g id="a_node11"><a xlink:href="main_8cxx.html" target="_top" xlink:title="src/main.cxx">
<polygon fill="none" stroke="#000000" points="837,-.5 837,-19.5 916,-19.5 916,-.5 837,-.5"/>
<text text-anchor="middle" x="876.5" y="-7.5" font-family="Helvetica,sans-Serif" font-size="10.00" fill="#000000">src/main.cxx</text>
</a>
</g>
</g>
<!-- Node9&#45;&gt;Node11 -->
<g id="edge11" class="edge">
<title>Node9&#45;&gt;Node11</title>
<path fill="none" stroke="#191970" d="M842.8122,-48.5004C851.1447,-38.9775 861.1353,-27.5596 868.0627,-19.6427"/>
<polygon fill="#191970" stroke="#191970" points="839.9862,-46.415 836.0351,-56.2455 845.2543,-51.0245 839.9862,-46.415"/>
</g>
<!-- Node13&#45;&gt;Node9 -->
<g id="edge16" class="edge">
<title>Node13&#45;&gt;Node9</title>
<path fill="none" stroke="#191970" d="M723.6321,-163.3557C702.8121,-150.4372 680.0823,-130.7924 693.5,-112 704.4338,-96.6865 750.1622,-83.2465 785.1892,-74.9105"/>
<polygon fill="#191970" stroke="#191970" points="721.9311,-166.4155 732.3271,-168.4582 725.474,-160.3783 721.9311,-166.4155"/>
</g>
<!-- Node14 -->
<g id="node14" class="node">
<title>Node14</title>
<g id="a_node14"><a xlink:href="AudioMixer_8cxx.html" target="_top" xlink:title="src/services/AudioMixer.cxx">
<polygon fill="none" stroke="#000000" points="1273.5,-112.5 1273.5,-131.5 1425.5,-131.5 1425.5,-112.5 1273.5,-112.5"/>
<text text-anchor="middle" x="1349.5" y="-119.5" font-family="Helvetica,sans-Serif" font-size="10.00" fill="#000000">src/services/AudioMixer.cxx</text>
</a>
</g>
</g>
<!-- Node13&#45;&gt;Node14 -->
<g id="edge17" class="edge">
<title>Node13&#45;&gt;Node14</title>
<path fill="none" stroke="#191970" d="M839.7411,-168.0048C1029.8138,-149.351 1079.1202,-150.751 1264.5,-132 1267.3088,-131.7159 1270.1689,-131.4189 1273.0572,-131.1124"/>
<polygon fill="#191970" stroke="#191970" points="839.3054,-164.5307 829.6976,-168.9962 839.9931,-171.4969 839.3054,-164.5307"/>
</g>
<!-- Node15 -->
<g id="node15" class="node">
<title>Node15</title>
<g id="a_node15"><a xlink:href="Randomizer_8cxx.html" target="_top" xlink:title="src/services/Randomizer.cxx">
<polygon fill="none" stroke="#000000" points="702,-112.5 702,-131.5 857,-131.5 857,-112.5 702,-112.5"/>
<text text-anchor="middle" x="779.5" y="-119.5" font-family="Helvetica,sans-Serif" font-size="10.00" fill="#000000">src/services/Randomizer.cxx</text>
</a>
</g>
</g>
<!-- Node13&#45;&gt;Node15 -->
<g id="edge18" class="edge">
<title>Node13&#45;&gt;Node15</title>
<path fill="none" stroke="#191970" d="M760.9781,-159.0437C765.5835,-149.8331 770.9201,-139.1598 774.6787,-131.6427"/>
<polygon fill="#191970" stroke="#191970" points="757.7189,-157.736 756.3772,-168.2455 763.9799,-160.8665 757.7189,-157.736"/>
</g>
<!-- Node16&#45;&gt;Node9 -->
<g id="edge20" class="edge">
<title>Node16&#45;&gt;Node9</title>
<path fill="none" stroke="#191970" d="M910.4864,-160.8416C889.5721,-136.9396 852.3789,-94.433 835.8343,-75.5249"/>
<polygon fill="#191970" stroke="#191970" points="907.9255,-163.2299 917.1446,-168.4509 913.1935,-158.6204 907.9255,-163.2299"/>
</g>
<!-- Node16&#45;&gt;Node14 -->
<g id="edge23" class="edge">
<title>Node16&#45;&gt;Node14</title>
<path fill="none" stroke="#191970" d="M1008.2124,-167.0757C1086.4877,-156.7375 1202.8048,-141.3748 1277.3922,-131.5237"/>
<polygon fill="#191970" stroke="#191970" points="1007.362,-163.6576 997.9064,-168.4369 1008.2787,-170.5973 1007.362,-163.6576"/>
</g>
<!-- Node17 -->
<g id="node17" class="node">
<title>Node17</title>
<g id="a_node17"><a xlink:href="GameClock_8inl_8hxx.html" target="_top" xlink:title="src/services/GameClock.inl.hxx">
<polygon fill="none" stroke="#000000" points="913.5,-112.5 913.5,-131.5 1083.5,-131.5 1083.5,-112.5 913.5,-112.5"/>
<text text-anchor="middle" x="998.5" y="-119.5" font-family="Helvetica,sans-Serif" font-size="10.00" fill="#000000">src/services/GameClock.inl.hxx</text>
</a>
</g>
</g>
<!-- Node16&#45;&gt;Node17 -->
<g id="edge21" class="edge">
<title>Node16&#45;&gt;Node17</title>
<path fill="none" stroke="#191970" d="M940.6181,-161.645C952.3428,-151.9058 968.3389,-139.8795 980.6849,-131.6427"/>
<polygon fill="#191970" stroke="#191970" points="938.2451,-159.0695 932.9488,-168.2455 942.8114,-164.3751 938.2451,-159.0695"/>
</g>
<!-- Node18 -->
<g id="node18" class="node">
<title>Node18</title>
<g id="a_node18"><a xlink:href="GameClock_8cxx.html" target="_top" xlink:title="src/services/GameClock.cxx">
<polygon fill="none" stroke="#000000" points="1101.5,-112.5 1101.5,-131.5 1255.5,-131.5 1255.5,-112.5 1101.5,-112.5"/>
<text text-anchor="middle" x="1178.5" y="-119.5" font-family="Helvetica,sans-Serif" font-size="10.00" fill="#000000">src/services/GameClock.cxx</text>
</a>
</g>
</g>
<!-- Node16&#45;&gt;Node18 -->
<g id="edge24" class="edge">
<title>Node16&#45;&gt;Node18</title>
<path fill="none" stroke="#191970" d="M978.6188,-166.2425C1025.2263,-155.9262 1092.148,-141.1135 1135.4734,-131.5237"/>
<polygon fill="#191970" stroke="#191970" points="977.712,-162.8584 968.7048,-168.4369 979.2249,-169.693 977.712,-162.8584"/>
</g>
<!-- Node17&#45;&gt;Node16 -->
<g id="edge22" class="edge">
<title>Node17&#45;&gt;Node16</title>
<path fill="none" stroke="#191970" d="M983.5405,-138.2232C971.8544,-147.9416 955.8613,-159.9746 943.4825,-168.2455"/>
<polygon fill="#191970" stroke="#191970" points="985.8856,-140.8226 991.1752,-131.6427 981.3155,-135.5203 985.8856,-140.8226"/>
</g>
<!-- Node19&#45;&gt;Node9 -->
<g id="edge26" class="edge">
<title>Node19&#45;&gt;Node9</title>
<path fill="none" stroke="#191970" d="M1535.6476,-163.7766C1517.8651,-154.6925 1494.3229,-142.6606 1473.5,-132 1456.1607,-123.1229 1453.2491,-117.2849 1434.5,-112 1327.9479,-81.9658 989.2764,-70.2824 869.7589,-67.0289"/>
<polygon fill="#191970" stroke="#191970" points="1534.3828,-167.0606 1544.8804,-168.4926 1537.567,-160.8268 1534.3828,-167.0606"/>
</g>
<!-- Node19&#45;&gt;Node14 -->
<g id="edge27" class="edge">
<title>Node19&#45;&gt;Node14</title>
<path fill="none" stroke="#191970" d="M1516.8234,-165.7856C1477.4586,-155.4845 1421.9149,-140.9497 1385.8079,-131.5011"/>
<polygon fill="#191970" stroke="#191970" points="1516.1518,-169.2276 1526.7121,-168.3733 1517.9239,-162.4556 1516.1518,-169.2276"/>
</g>
<!-- Node20 -->
<g id="node20" class="node">
<title>Node20</title>
<g id="a_node20"><a xlink:href="ResourceManager_8cxx.html" target="_top" xlink:title="src/services/ResourceManager.cxx">
<polygon fill="none" stroke="#000000" points="1482,-112.5 1482,-131.5 1665,-131.5 1665,-112.5 1482,-112.5"/>
<text text-anchor="middle" x="1573.5" y="-119.5" font-family="Helvetica,sans-Serif" font-size="10.00" fill="#000000">src/services/ResourceManager.cxx</text>
</a>
</g>
</g>
<!-- Node19&#45;&gt;Node20 -->
<g id="edge28" class="edge">
<title>Node19&#45;&gt;Node20</title>
<path fill="none" stroke="#191970" d="M1567.0433,-158.1575C1568.6509,-149.155 1570.4786,-138.9199 1571.7781,-131.6427"/>
<polygon fill="#191970" stroke="#191970" points="1563.5544,-157.786 1565.2419,-168.2455 1570.4454,-159.0166 1563.5544,-157.786"/>
</g>
<!-- Node23&#45;&gt;Node14 -->
<g id="edge32" class="edge">
<title>Node23&#45;&gt;Node14</title>
<path fill="none" stroke="#191970" d="M1150.4089,-166.2425C1196.8322,-155.9262 1263.4893,-141.1135 1306.6435,-131.5237"/>
<polygon fill="#191970" stroke="#191970" points="1149.5366,-162.8508 1140.534,-168.4369 1151.0552,-169.6842 1149.5366,-162.8508"/>
</g>
</g>
</svg>
