<?xml version="1.0" encoding="UTF-8" standalone="no"?>
<!DOCTYPE svg PUBLIC "-//W3C//DTD SVG 1.1//EN"
 "http://www.w3.org/Graphics/SVG/1.1/DTD/svg11.dtd">
<!-- Generated by graphviz version 2.40.1 (20161225.0304)
 -->
<!-- Title: src/services/GameClock.inl.hxx Pages: 1 -->
<!--zoomable 420 -->
<svg id="main" version="1.1" xmlns="http://www.w3.org/2000/svg" xmlns:xlink="http://www.w3.org/1999/xlink" xml:space="preserve" onload="init(evt)">
<style type="text/css"><![CDATA[
.edge:hover path { stroke: red; }
.edge:hover polygon { stroke: red; fill: red; }
]]></style>
<script type="text/javascript"><![CDATA[
var edges = document.getElementsByTagName('g');
if (edges && edges.length) {
  for (var i=0;i<edges.length;i++) {
    if (edges[i].id.substr(0,4)=='edge') {
      edges[i].setAttribute('class','edge');
    }
  }
}
]]></script>
        <defs>
                <circle id="rim" cx="0" cy="0" r="7"/>
                <circle id="rim2" cx="0" cy="0" r="3.5"/>
                <g id="zoomPlus">
                        <use xlink:href="#rim" fill="#404040">
                                <set attributeName="fill" to="#808080" begin="zoomplus.mouseover" end="zoomplus.mouseout"/>
                        </use>
                        <path d="M-4,0h8M0,-4v8" fill="none" stroke="white" stroke-width="1.5" pointer-events="none"/>
                </g>
                <g id="zoomMin">
                        <use xlink:href="#rim" fill="#404040">
                                <set attributeName="fill" to="#808080" begin="zoomminus.mouseover" end="zoomminus.mouseout"/>
                        </use>
                        <path d="M-4,0h8" fill="none" stroke="white" stroke-width="1.5" pointer-events="none"/>
                </g>
                <g id="dirArrow">
                        <path fill="none" stroke="white" stroke-width="1.5" d="M0,-3.0v7 M-2.5,-0.5L0,-3.0L2.5,-0.5"/>
                </g>
               <g id="resetDef">
                       <use xlink:href="#rim2" fill="#404040">
                               <set attributeName="fill" to="#808080" begin="reset.mouseover" end="reset.mouseout"/>
                       </use>
               </g>
        </defs>

<script type="text/javascript">
var viewWidth = 801;
var viewHeight = 420;
var sectionId = 'dynsection-0';
</script>
<script xlink:href="svgpan.js"/>
<svg id="graph" class="graph">
<g id="viewport">
<title>src/services/GameClock.inl.hxx</title>
<!-- Node0 -->
<g id="node1" class="node">
<title>Node0</title>
<polygon fill="#bfbfbf" stroke="#000000" points="104.5,-392.5 104.5,-411.5 274.5,-411.5 274.5,-392.5 104.5,-392.5"/>
<text text-anchor="middle" x="189.5" y="-399.5" font-family="Helvetica,sans-Serif" font-size="10.00" fill="#000000">src/services/GameClock.inl.hxx</text>
</g>
<!-- Node1 -->
<g id="node2" class="node">
<title>Node1</title>
<g id="a_node2"><a xlink:href="GameClock_8hxx.html" target="_top" xlink:title="GameClock.hxx">
<polygon fill="none" stroke="#000000" points="142.5,-336.5 142.5,-355.5 236.5,-355.5 236.5,-336.5 142.5,-336.5"/>
<text text-anchor="middle" x="189.5" y="-343.5" font-family="Helvetica,sans-Serif" font-size="10.00" fill="#000000">GameClock.hxx</text>
</a>
</g>
</g>
<!-- Node0&#45;&gt;Node1 -->
<g id="edge1" class="edge">
<title>Node0&#45;&gt;Node1</title>
<path fill="none" stroke="#191970" d="M184.2332,-392.2455C182.8221,-384.9382 182.4179,-374.6944 183.0205,-365.7046"/>
<polygon fill="#191970" stroke="#191970" points="186.5111,-365.9945 184.2549,-355.6427 179.5632,-365.1421 186.5111,-365.9945"/>
</g>
<!-- Node1&#45;&gt;Node0 -->
<g id="edge25" class="edge">
<title>Node1&#45;&gt;Node0</title>
<path fill="none" stroke="#191970" d="M194.7451,-355.6427C196.1665,-362.9199 196.581,-373.155 195.9887,-382.1575"/>
<polygon fill="#191970" stroke="#191970" points="192.4947,-381.8972 194.7668,-392.2455 199.4439,-382.739 192.4947,-381.8972"/>
</g>
<!-- Node2 -->
<g id="node3" class="node">
<title>Node2</title>
<polygon fill="none" stroke="#bfbfbf" points="0,-280.5 0,-299.5 47,-299.5 47,-280.5 0,-280.5"/>
<text text-anchor="middle" x="23.5" y="-287.5" font-family="Helvetica,sans-Serif" font-size="10.00" fill="#000000">queue</text>
</g>
<!-- Node1&#45;&gt;Node2 -->
<g id="edge2" class="edge">
<title>Node1&#45;&gt;Node2</title>
<path fill="none" stroke="#191970" d="M160.9636,-336.3733C132.064,-326.624 87.3922,-311.554 56.8705,-301.2575"/>
<polygon fill="#191970" stroke="#191970" points="57.6996,-297.8435 47.1054,-297.9633 55.462,-304.4762 57.6996,-297.8435"/>
</g>
<!-- Node3 -->
<g id="node4" class="node">
<title>Node3</title>
<polygon fill="none" stroke="#bfbfbf" points="65.5,-280.5 65.5,-299.5 113.5,-299.5 113.5,-280.5 65.5,-280.5"/>
<text text-anchor="middle" x="89.5" y="-287.5" font-family="Helvetica,sans-Serif" font-size="10.00" fill="#000000">thread</text>
</g>
<!-- Node1&#45;&gt;Node3 -->
<g id="edge3" class="edge">
<title>Node1&#45;&gt;Node3</title>
<path fill="none" stroke="#191970" d="M172.0813,-336.2455C156.4515,-327.4928 133.2981,-314.527 115.4815,-304.5496"/>
<polygon fill="#191970" stroke="#191970" points="117.1543,-301.475 106.7191,-299.6427 113.734,-307.5825 117.1543,-301.475"/>
</g>
<!-- Node4 -->
<g id="node5" class="node">
<title>Node4</title>
<polygon fill="none" stroke="#bfbfbf" points="131.5,-280.5 131.5,-299.5 181.5,-299.5 181.5,-280.5 131.5,-280.5"/>
<text text-anchor="middle" x="156.5" y="-287.5" font-family="Helvetica,sans-Serif" font-size="10.00" fill="#000000">chrono</text>
</g>
<!-- Node1&#45;&gt;Node4 -->
<g id="edge4" class="edge">
<title>Node1&#45;&gt;Node4</title>
<path fill="none" stroke="#191970" d="M183.7518,-336.2455C179.2565,-328.617 172.8752,-317.7881 167.4175,-308.5267"/>
<polygon fill="#191970" stroke="#191970" points="170.2747,-306.4811 162.1823,-299.6427 164.2439,-310.035 170.2747,-306.4811"/>
</g>
<!-- Node5 -->
<g id="node6" class="node">
<title>Node5</title>
<polygon fill="none" stroke="#bfbfbf" points="199.5,-280.5 199.5,-299.5 247.5,-299.5 247.5,-280.5 199.5,-280.5"/>
<text text-anchor="middle" x="223.5" y="-287.5" font-family="Helvetica,sans-Serif" font-size="10.00" fill="#000000">mutex</text>
</g>
<!-- Node1&#45;&gt;Node5 -->
<g id="edge5" class="edge">
<title>Node1&#45;&gt;Node5</title>
<path fill="none" stroke="#191970" d="M195.4223,-336.2455C200.1027,-328.5367 206.7673,-317.5598 212.4289,-308.2348"/>
<polygon fill="#191970" stroke="#191970" points="215.4475,-310.007 217.6455,-299.6427 209.4639,-306.3741 215.4475,-310.007"/>
</g>
<!-- Node6 -->
<g id="node7" class="node">
<title>Node6</title>
<polygon fill="none" stroke="#bfbfbf" points="243,-112.5 243,-131.5 308,-131.5 308,-112.5 243,-112.5"/>
<text text-anchor="middle" x="275.5" y="-119.5" font-family="Helvetica,sans-Serif" font-size="10.00" fill="#000000">functional</text>
</g>
<!-- Node1&#45;&gt;Node6 -->
<g id="edge6" class="edge">
<title>Node1&#45;&gt;Node6</title>
<path fill="none" stroke="#191970" d="M212.7255,-336.349C227.8366,-328.7838 246.5269,-316.7232 256.5,-300 286.5332,-249.6394 282.6177,-176.8263 278.4808,-142.01"/>
<polygon fill="#191970" stroke="#191970" points="281.9039,-141.199 277.118,-131.7467 274.9648,-142.1204 281.9039,-141.199"/>
</g>
<!-- Node7 -->
<g id="node8" class="node">
<title>Node7</title>
<g id="a_node8"><a xlink:href="GameService_8hxx.html" target="_top" xlink:title="../GameService.hxx">
<polygon fill="none" stroke="#000000" points="306.5,-280.5 306.5,-299.5 418.5,-299.5 418.5,-280.5 306.5,-280.5"/>
<text text-anchor="middle" x="362.5" y="-287.5" font-family="Helvetica,sans-Serif" font-size="10.00" fill="#000000">../GameService.hxx</text>
</a>
</g>
</g>
<!-- Node1&#45;&gt;Node7 -->
<g id="edge7" class="edge">
<title>Node1&#45;&gt;Node7</title>
<path fill="none" stroke="#191970" d="M219.2398,-336.3733C248.007,-327.0613 291.77,-312.8953 323.3556,-302.671"/>
<polygon fill="#191970" stroke="#191970" points="324.7122,-305.9107 333.1483,-299.5011 322.5564,-299.251 324.7122,-305.9107"/>
</g>
<!-- Node8 -->
<g id="node9" class="node">
<title>Node8</title>
<g id="a_node9"><a xlink:href="Events_8hxx.html" target="_top" xlink:title="Events.hxx">
<polygon fill="none" stroke="#000000" points="440,-224.5 440,-243.5 511,-243.5 511,-224.5 440,-224.5"/>
<text text-anchor="middle" x="475.5" y="-231.5" font-family="Helvetica,sans-Serif" font-size="10.00" fill="#000000">Events.hxx</text>
</a>
</g>
</g>
<!-- Node7&#45;&gt;Node8 -->
<g id="edge8" class="edge">
<title>Node7&#45;&gt;Node8</title>
<path fill="none" stroke="#191970" d="M381.9254,-280.3733C399.9021,-271.4644 426.8441,-258.1127 447.209,-248.0203"/>
<polygon fill="#191970" stroke="#191970" points="448.9222,-251.0776 456.3281,-243.5011 445.8139,-244.8055 448.9222,-251.0776"/>
</g>
<!-- Node21 -->
<g id="node22" class="node">
<title>Node21</title>
<g id="a_node22"><a xlink:href="GameService_8inl_8hxx.html" target="_top" xlink:title="GameService.inl.hxx">
<polygon fill="none" stroke="#000000" points="303.5,-224.5 303.5,-243.5 421.5,-243.5 421.5,-224.5 303.5,-224.5"/>
<text text-anchor="middle" x="362.5" y="-231.5" font-family="Helvetica,sans-Serif" font-size="10.00" fill="#000000">GameService.inl.hxx</text>
</a>
</g>
</g>
<!-- Node7&#45;&gt;Node21 -->
<g id="edge24" class="edge">
<title>Node7&#45;&gt;Node21</title>
<path fill="none" stroke="#191970" d="M362.5,-280.2455C362.5,-272.9382 362.5,-262.6944 362.5,-253.7046"/>
<polygon fill="#191970" stroke="#191970" points="366.0001,-253.6426 362.5,-243.6427 359.0001,-253.6427 366.0001,-253.6426"/>
</g>
<!-- Node9 -->
<g id="node10" class="node">
<title>Node9</title>
<polygon fill="none" stroke="#bfbfbf" points="364.5,-168.5 364.5,-187.5 408.5,-187.5 408.5,-168.5 364.5,-168.5"/>
<text text-anchor="middle" x="386.5" y="-175.5" font-family="Helvetica,sans-Serif" font-size="10.00" fill="#000000">string</text>
</g>
<!-- Node8&#45;&gt;Node9 -->
<g id="edge9" class="edge">
<title>Node8&#45;&gt;Node9</title>
<path fill="none" stroke="#191970" d="M459.9974,-224.2455C446.342,-215.6534 426.2343,-203.0014 410.5011,-193.1018"/>
<polygon fill="#191970" stroke="#191970" points="412.1529,-190.006 401.825,-187.6427 408.4249,-195.9307 412.1529,-190.006"/>
</g>
<!-- Node10 -->
<g id="node11" class="node">
<title>Node10</title>
<polygon fill="none" stroke="#bfbfbf" points="329.5,-56.5 329.5,-75.5 429.5,-75.5 429.5,-56.5 329.5,-56.5"/>
<text text-anchor="middle" x="379.5" y="-63.5" font-family="Helvetica,sans-Serif" font-size="10.00" fill="#000000">betterEnums.hxx</text>
</g>
<!-- Node8&#45;&gt;Node10 -->
<g id="edge10" class="edge">
<title>Node8&#45;&gt;Node10</title>
<path fill="none" stroke="#191970" d="M439.994,-225.1576C408.309,-216.4634 365.4237,-202.4319 355.5,-188 333.7009,-156.2978 353.8885,-109.6037 368.1658,-84.1592"/>
<polygon fill="#191970" stroke="#191970" points="371.1925,-85.9168 373.2484,-75.5234 365.1598,-82.3662 371.1925,-85.9168"/>
</g>
<!-- Node11 -->
<g id="node12" class="node">
<title>Node11</title>
<g id="a_node12"><a xlink:href="Meta_8hxx.html" target="_top" xlink:title="util/Meta.hxx">
<polygon fill="none" stroke="#000000" points="629.5,-56.5 629.5,-75.5 709.5,-75.5 709.5,-56.5 629.5,-56.5"/>
<text text-anchor="middle" x="669.5" y="-63.5" font-family="Helvetica,sans-Serif" font-size="10.00" fill="#000000">util/Meta.hxx</text>
</a>
</g>
</g>
<!-- Node8&#45;&gt;Node11 -->
<g id="edge11" class="edge">
<title>Node8&#45;&gt;Node11</title>
<path fill="none" stroke="#191970" d="M503.8456,-224.4104C541.8802,-210.1346 609.0834,-179.7373 647.5,-132 658.2552,-118.6354 663.8481,-99.7847 666.6963,-85.6492"/>
<polygon fill="#191970" stroke="#191970" points="670.1929,-85.9671 668.4383,-75.5186 663.2942,-84.7808 670.1929,-85.9671"/>
</g>
<!-- Node16 -->
<g id="node17" class="node">
<title>Node16</title>
<g id="a_node17"><a xlink:href="UIEvents_8hxx.html" target="_top" xlink:title="events/UIEvents.hxx">
<polygon fill="none" stroke="#000000" points="427,-168.5 427,-187.5 544,-187.5 544,-168.5 427,-168.5"/>
<text text-anchor="middle" x="485.5" y="-175.5" font-family="Helvetica,sans-Serif" font-size="10.00" fill="#000000">events/UIEvents.hxx</text>
</a>
</g>
</g>
<!-- Node8&#45;&gt;Node16 -->
<g id="edge16" class="edge">
<title>Node8&#45;&gt;Node16</title>
<path fill="none" stroke="#191970" d="M477.2419,-224.2455C478.5467,-216.9382 480.376,-206.6944 481.9813,-197.7046"/>
<polygon fill="#191970" stroke="#191970" points="485.4656,-198.1022 483.7781,-187.6427 478.5746,-196.8717 485.4656,-198.1022"/>
</g>
<!-- Node12 -->
<g id="node13" class="node">
<title>Node12</title>
<polygon fill="none" stroke="#bfbfbf" points="517.5,-.5 517.5,-19.5 577.5,-19.5 577.5,-.5 517.5,-.5"/>
<text text-anchor="middle" x="547.5" y="-7.5" font-family="Helvetica,sans-Serif" font-size="10.00" fill="#000000">iostream</text>
</g>
<!-- Node11&#45;&gt;Node12 -->
<g id="edge12" class="edge">
<title>Node11&#45;&gt;Node12</title>
<path fill="none" stroke="#191970" d="M648.5275,-56.3733C628.9433,-47.3838 599.5039,-33.8706 577.449,-23.7471"/>
<polygon fill="#191970" stroke="#191970" points="578.7473,-20.4919 568.1989,-19.5011 575.8271,-26.8538 578.7473,-20.4919"/>
</g>
<!-- Node13 -->
<g id="node14" class="node">
<title>Node13</title>
<polygon fill="none" stroke="#bfbfbf" points="596,-.5 596,-19.5 665,-19.5 665,-.5 596,-.5"/>
<text text-anchor="middle" x="630.5" y="-7.5" font-family="Helvetica,sans-Serif" font-size="10.00" fill="#000000">type_traits</text>
</g>
<!-- Node11&#45;&gt;Node13 -->
<g id="edge13" class="edge">
<title>Node11&#45;&gt;Node13</title>
<path fill="none" stroke="#191970" d="M662.7067,-56.2455C657.2822,-48.4564 649.5339,-37.3308 642.9967,-27.9439"/>
<polygon fill="#191970" stroke="#191970" points="645.8025,-25.8485 637.2154,-19.6427 640.0583,-29.849 645.8025,-25.8485"/>
</g>
<!-- Node14 -->
<g id="node15" class="node">
<title>Node14</title>
<polygon fill="none" stroke="#bfbfbf" points="683,-.5 683,-19.5 734,-19.5 734,-.5 683,-.5"/>
<text text-anchor="middle" x="708.5" y="-7.5" font-family="Helvetica,sans-Serif" font-size="10.00" fill="#000000">variant</text>
</g>
<!-- Node11&#45;&gt;Node14 -->
<g id="edge14" class="edge">
<title>Node11&#45;&gt;Node14</title>
<path fill="none" stroke="#191970" d="M676.2933,-56.2455C681.7178,-48.4564 689.4661,-37.3308 696.0033,-27.9439"/>
<polygon fill="#191970" stroke="#191970" points="698.9417,-29.849 701.7846,-19.6427 693.1975,-25.8485 698.9417,-29.849"/>
</g>
<!-- Node15 -->
<g id="node16" class="node">
<title>Node15</title>
<polygon fill="none" stroke="#bfbfbf" points="752,-.5 752,-19.5 793,-19.5 793,-.5 752,-.5"/>
<text text-anchor="middle" x="772.5" y="-7.5" font-family="Helvetica,sans-Serif" font-size="10.00" fill="#000000">tuple</text>
</g>
<!-- Node11&#45;&gt;Node15 -->
<g id="edge15" class="edge">
<title>Node11&#45;&gt;Node15</title>
<path fill="none" stroke="#191970" d="M687.4412,-56.2455C703.54,-47.4928 727.3879,-34.527 745.7391,-24.5496"/>
<polygon fill="#191970" stroke="#191970" points="747.6507,-27.4942 754.7644,-19.6427 744.3071,-21.3444 747.6507,-27.4942"/>
</g>
<!-- Node16&#45;&gt;Node6 -->
<g id="edge17" class="edge">
<title>Node16&#45;&gt;Node6</title>
<path fill="none" stroke="#191970" d="M449.3997,-168.3733C412.9064,-158.6417 356.5328,-143.6087 317.9264,-133.3137"/>
<polygon fill="#191970" stroke="#191970" points="318.5933,-129.8693 308.0291,-130.6744 316.7896,-136.6329 318.5933,-129.8693"/>
</g>
<!-- Node17 -->
<g id="node18" class="node">
<title>Node17</title>
<g id="a_node18"><a xlink:href="ActivityType_8hxx.html" target="_top" xlink:title="../activity/ActivityType.hxx">
<polygon fill="none" stroke="#000000" points="364.5,-112.5 364.5,-131.5 510.5,-131.5 510.5,-112.5 364.5,-112.5"/>
<text text-anchor="middle" x="437.5" y="-119.5" font-family="Helvetica,sans-Serif" font-size="10.00" fill="#000000">../activity/ActivityType.hxx</text>
</a>
</g>
</g>
<!-- Node16&#45;&gt;Node17 -->
<g id="edge18" class="edge">
<title>Node16&#45;&gt;Node17</title>
<path fill="none" stroke="#191970" d="M477.139,-168.2455C470.325,-160.2958 460.5319,-148.8706 452.3848,-139.3656"/>
<polygon fill="#191970" stroke="#191970" points="454.9305,-136.9575 445.7651,-131.6427 449.6157,-141.513 454.9305,-136.9575"/>
</g>
<!-- Node18 -->
<g id="node19" class="node">
<title>Node18</title>
<g id="a_node19"><a xlink:href="Observer_8hxx.html" target="_top" xlink:title="../util/Observer.hxx">
<polygon fill="none" stroke="#000000" points="529,-112.5 529,-131.5 638,-131.5 638,-112.5 529,-112.5"/>
<text text-anchor="middle" x="583.5" y="-119.5" font-family="Helvetica,sans-Serif" font-size="10.00" fill="#000000">../util/Observer.hxx</text>
</a>
</g>
</g>
<!-- Node16&#45;&gt;Node18 -->
<g id="edge20" class="edge">
<title>Node16&#45;&gt;Node18</title>
<path fill="none" stroke="#191970" d="M502.5703,-168.2455C517.747,-159.5731 540.1621,-146.7645 557.5563,-136.825"/>
<polygon fill="#191970" stroke="#191970" points="559.6794,-139.643 566.6253,-131.6427 556.2064,-133.5653 559.6794,-139.643"/>
</g>
<!-- Node17&#45;&gt;Node10 -->
<g id="edge19" class="edge">
<title>Node17&#45;&gt;Node10</title>
<path fill="none" stroke="#191970" d="M427.3972,-112.2455C418.9972,-104.1352 406.8506,-92.4075 396.8916,-82.7919"/>
<polygon fill="#191970" stroke="#191970" points="399.1122,-80.0707 389.4871,-75.6427 394.25,-85.1066 399.1122,-80.0707"/>
</g>
<!-- Node18&#45;&gt;Node11 -->
<g id="edge23" class="edge">
<title>Node18&#45;&gt;Node11</title>
<path fill="none" stroke="#191970" d="M598.4801,-112.2455C611.6751,-103.6534 631.1051,-91.0014 646.3079,-81.1018"/>
<polygon fill="#191970" stroke="#191970" points="648.2215,-84.0325 654.6916,-75.6427 644.4017,-78.1665 648.2215,-84.0325"/>
</g>
<!-- Node19 -->
<g id="node20" class="node">
<title>Node19</title>
<polygon fill="none" stroke="#bfbfbf" points="488,-56.5 488,-75.5 535,-75.5 535,-56.5 488,-56.5"/>
<text text-anchor="middle" x="511.5" y="-63.5" font-family="Helvetica,sans-Serif" font-size="10.00" fill="#000000">vector</text>
</g>
<!-- Node18&#45;&gt;Node19 -->
<g id="edge21" class="edge">
<title>Node18&#45;&gt;Node19</title>
<path fill="none" stroke="#191970" d="M570.9586,-112.2455C560.2213,-103.8943 544.5527,-91.7076 531.9953,-81.9408"/>
<polygon fill="#191970" stroke="#191970" points="533.9401,-79.0194 523.8977,-75.6427 529.6425,-84.5449 533.9401,-79.0194"/>
</g>
<!-- Node20 -->
<g id="node21" class="node">
<title>Node20</title>
<polygon fill="none" stroke="#bfbfbf" points="553.5,-56.5 553.5,-75.5 611.5,-75.5 611.5,-56.5 553.5,-56.5"/>
<text text-anchor="middle" x="582.5" y="-63.5" font-family="Helvetica,sans-Serif" font-size="10.00" fill="#000000">memory</text>
</g>
<!-- Node18&#45;&gt;Node20 -->
<g id="edge22" class="edge">
<title>Node18&#45;&gt;Node20</title>
<path fill="none" stroke="#191970" d="M583.3258,-112.2455C583.1953,-104.9382 583.0124,-94.6944 582.8519,-85.7046"/>
<polygon fill="#191970" stroke="#191970" points="586.3503,-85.5786 582.6722,-75.6427 579.3514,-85.7036 586.3503,-85.5786"/>
</g>
</g>
</svg>
        <g id="navigator" transform="translate(0 0)" fill="#404254">
                <rect fill="#f2f5e9" fill-opacity="0.5" stroke="#606060" stroke-width=".5" x="0" y="0" width="60" height="60"/>
                <use id="zoomplus" xlink:href="#zoomPlus" x="17" y="9" onmousedown="handleZoom(evt,'in')"/>
                <use id="zoomminus" xlink:href="#zoomMin" x="42" y="9" onmousedown="handleZoom(evt,'out')"/>
                <use id="reset" xlink:href="#resetDef" x="30" y="36" onmousedown="handleReset()"/>
                <g id="arrowUp" xlink:href="#dirArrow" transform="translate(30 24)" onmousedown="handlePan(0,-1)">
                  <use xlink:href="#rim" fill="#404040">
                        <set attributeName="fill" to="#808080" begin="arrowUp.mouseover" end="arrowUp.mouseout"/>
                  </use>
                  <path fill="none" stroke="white" stroke-width="1.5" d="M0,-3.0v7 M-2.5,-0.5L0,-3.0L2.5,-0.5"/>
                </g>
                <g id="arrowRight" xlink:href="#dirArrow" transform="rotate(90) translate(36 -43)" onmousedown="handlePan(1,0)">
                  <use xlink:href="#rim" fill="#404040">
                        <set attributeName="fill" to="#808080" begin="arrowRight.mouseover" end="arrowRight.mouseout"/>
                  </use>
                  <path fill="none" stroke="white" stroke-width="1.5" d="M0,-3.0v7 M-2.5,-0.5L0,-3.0L2.5,-0.5"/>
                </g>
                <g id="arrowDown" xlink:href="#dirArrow" transform="rotate(180) translate(-30 -48)" onmousedown="handlePan(0,1)">
                  <use xlink:href="#rim" fill="#404040">
                        <set attributeName="fill" to="#808080" begin="arrowDown.mouseover" end="arrowDown.mouseout"/>
                  </use>
                  <path fill="none" stroke="white" stroke-width="1.5" d="M0,-3.0v7 M-2.5,-0.5L0,-3.0L2.5,-0.5"/>
                </g>
                <g id="arrowLeft" xlink:href="#dirArrow" transform="rotate(270) translate(-36 17)" onmousedown="handlePan(-1,0)">
                  <use xlink:href="#rim" fill="#404040">
                        <set attributeName="fill" to="#808080" begin="arrowLeft.mouseover" end="arrowLeft.mouseout"/>
                  </use>
                  <path fill="none" stroke="white" stroke-width="1.5" d="M0,-3.0v7 M-2.5,-0.5L0,-3.0L2.5,-0.5"/>
                </g>
        </g>
        <svg viewBox="0 0 15 15" width="100%" height="30px" preserveAspectRatio="xMaxYMin meet">
         <g id="arrow_out" transform="scale(0.3 0.3)">
          <a xlink:href="GameClock_8inl_8hxx__incl_org.svg" target="_base">
           <rect id="button" ry="5" rx="5" y="6" x="6" height="38" width="38"
                fill="#f2f5e9" fill-opacity="0.5" stroke="#606060" stroke-width="1.0"/>
           <path id="arrow"
             d="M 11.500037,31.436501 C 11.940474,20.09759 22.043105,11.32322 32.158766,21.979434 L 37.068811,17.246167 C 37.068811,17.246167 37.088388,32 37.088388,32 L 22.160133,31.978069 C 22.160133,31.978069 26.997745,27.140456 26.997745,27.140456 C 18.528582,18.264221 13.291696,25.230495 11.500037,31.436501 z"
             style="fill:#404040;"/>
          </a>
         </g>
        </svg>
</svg>
