<?xml version="1.0" encoding="UTF-8" standalone="no"?>
<!DOCTYPE svg PUBLIC "-//W3C//DTD SVG 1.1//EN"
 "http://www.w3.org/Graphics/SVG/1.1/DTD/svg11.dtd">
<!-- Generated by graphviz version 2.40.1 (20161225.0304)
 -->
<!-- Title: src/services/GameClock.hxx Pages: 1 -->
<svg width="750pt" height="364pt"
 viewBox="0.00 0.00 749.50 364.00" xmlns="http://www.w3.org/2000/svg" xmlns:xlink="http://www.w3.org/1999/xlink">
<g id="graph0" class="graph" transform="scale(1 1) rotate(0) translate(4 360)">
<title>src/services/GameClock.hxx</title>
<!-- Node0 -->
<g id="node1" class="node">
<title>Node0</title>
<polygon fill="#bfbfbf" stroke="#000000" points="393.5,-336.5 393.5,-355.5 548.5,-355.5 548.5,-336.5 393.5,-336.5"/>
<text text-anchor="middle" x="471" y="-343.5" font-family="Helvetica,sans-Serif" font-size="10.00" fill="#000000">src/services/GameClock.hxx</text>
</g>
<!-- Node1 -->
<g id="node2" class="node">
<title>Node1</title>
<polygon fill="none" stroke="#bfbfbf" points="198.5,-280.5 198.5,-299.5 245.5,-299.5 245.5,-280.5 198.5,-280.5"/>
<text text-anchor="middle" x="222" y="-287.5" font-family="Helvetica,sans-Serif" font-size="10.00" fill="#000000">queue</text>
</g>
<!-- Node0&#45;&gt;Node1 -->
<g id="edge1" class="edge">
<title>Node0&#45;&gt;Node1</title>
<path fill="none" stroke="#191970" d="M420.0916,-336.4188C378.3731,-328.2825 317.6206,-315.7868 255.6749,-300.0109"/>
<polygon fill="#191970" stroke="#191970" points="256.2822,-296.5532 245.7255,-297.451 254.5379,-303.3325 256.2822,-296.5532"/>
</g>
<!-- Node2 -->
<g id="node3" class="node">
<title>Node2</title>
<polygon fill="none" stroke="#bfbfbf" points="264,-280.5 264,-299.5 312,-299.5 312,-280.5 264,-280.5"/>
<text text-anchor="middle" x="288" y="-287.5" font-family="Helvetica,sans-Serif" font-size="10.00" fill="#000000">thread</text>
</g>
<!-- Node0&#45;&gt;Node2 -->
<g id="edge2" class="edge">
<title>Node0&#45;&gt;Node2</title>
<path fill="none" stroke="#191970" d="M439.5412,-336.3733C406.7566,-326.3408 355.5601,-310.6741 321.8965,-300.3727"/>
<polygon fill="#191970" stroke="#191970" points="322.6384,-296.9396 312.0519,-297.3601 320.59,-303.6332 322.6384,-296.9396"/>
</g>
<!-- Node3 -->
<g id="node4" class="node">
<title>Node3</title>
<polygon fill="none" stroke="#bfbfbf" points="330,-280.5 330,-299.5 380,-299.5 380,-280.5 330,-280.5"/>
<text text-anchor="middle" x="355" y="-287.5" font-family="Helvetica,sans-Serif" font-size="10.00" fill="#000000">chrono</text>
</g>
<!-- Node0&#45;&gt;Node3 -->
<g id="edge3" class="edge">
<title>Node0&#45;&gt;Node3</title>
<path fill="none" stroke="#191970" d="M451.0589,-336.3733C432.5214,-327.4241 404.6972,-313.9917 383.7587,-303.8835"/>
<polygon fill="#191970" stroke="#191970" points="385.2081,-300.6967 374.6809,-299.5011 382.1648,-307.0006 385.2081,-300.6967"/>
</g>
<!-- Node4 -->
<g id="node5" class="node">
<title>Node4</title>
<polygon fill="none" stroke="#bfbfbf" points="398,-280.5 398,-299.5 446,-299.5 446,-280.5 398,-280.5"/>
<text text-anchor="middle" x="422" y="-287.5" font-family="Helvetica,sans-Serif" font-size="10.00" fill="#000000">mutex</text>
</g>
<!-- Node0&#45;&gt;Node4 -->
<g id="edge4" class="edge">
<title>Node0&#45;&gt;Node4</title>
<path fill="none" stroke="#191970" d="M462.4649,-336.2455C455.5088,-328.2958 445.5117,-316.8706 437.1949,-307.3656"/>
<polygon fill="#191970" stroke="#191970" points="439.6564,-304.8637 430.4373,-299.6427 434.3884,-309.4732 439.6564,-304.8637"/>
</g>
<!-- Node5 -->
<g id="node6" class="node">
<title>Node5</title>
<polygon fill="none" stroke="#bfbfbf" points="472.5,-112.5 472.5,-131.5 537.5,-131.5 537.5,-112.5 472.5,-112.5"/>
<text text-anchor="middle" x="505" y="-119.5" font-family="Helvetica,sans-Serif" font-size="10.00" fill="#000000">functional</text>
</g>
<!-- Node0&#45;&gt;Node5 -->
<g id="edge5" class="edge">
<title>Node0&#45;&gt;Node5</title>
<path fill="none" stroke="#191970" d="M529.5167,-336.4429C550.6253,-329.8619 572.3454,-318.7523 585,-300 621.6698,-245.6609 557.2082,-171.779 523.5404,-138.9372"/>
<polygon fill="#191970" stroke="#191970" points="525.7616,-136.2195 516.1048,-131.861 520.936,-141.2903 525.7616,-136.2195"/>
</g>
<!-- Node6 -->
<g id="node7" class="node">
<title>Node6</title>
<g id="a_node7"><a xlink:href="GameService_8hxx.html" target="_top" xlink:title="../GameService.hxx">
<polygon fill="none" stroke="#000000" points="464,-280.5 464,-299.5 576,-299.5 576,-280.5 464,-280.5"/>
<text text-anchor="middle" x="520" y="-287.5" font-family="Helvetica,sans-Serif" font-size="10.00" fill="#000000">../GameService.hxx</text>
</a>
</g>
</g>
<!-- Node0&#45;&gt;Node6 -->
<g id="edge6" class="edge">
<title>Node0&#45;&gt;Node6</title>
<path fill="none" stroke="#191970" d="M479.5351,-336.2455C486.4912,-328.2958 496.4883,-316.8706 504.8051,-307.3656"/>
<polygon fill="#191970" stroke="#191970" points="507.6116,-309.4732 511.5627,-299.6427 502.3436,-304.8637 507.6116,-309.4732"/>
</g>
<!-- Node21 -->
<g id="node22" class="node">
<title>Node21</title>
<g id="a_node22"><a xlink:href="GameClock_8inl_8hxx.html" target="_top" xlink:title="GameClock.inl.hxx">
<polygon fill="none" stroke="#000000" points="632.5,-280.5 632.5,-299.5 741.5,-299.5 741.5,-280.5 632.5,-280.5"/>
<text text-anchor="middle" x="687" y="-287.5" font-family="Helvetica,sans-Serif" font-size="10.00" fill="#000000">GameClock.inl.hxx</text>
</a>
</g>
</g>
<!-- Node0&#45;&gt;Node21 -->
<g id="edge24" class="edge">
<title>Node0&#45;&gt;Node21</title>
<path fill="none" stroke="#191970" d="M502.8897,-336.3733C537.7973,-326.8396 594.0601,-312.2179 635.2695,-301.9475"/>
<polygon fill="#191970" stroke="#191970" points="636.2719,-305.3051 645.1355,-299.5011 634.5871,-298.5108 636.2719,-305.3051"/>
</g>
<!-- Node7 -->
<g id="node8" class="node">
<title>Node7</title>
<g id="a_node8"><a xlink:href="Events_8hxx.html" target="_top" xlink:title="Events.hxx">
<polygon fill="none" stroke="#000000" points="356.5,-224.5 356.5,-243.5 427.5,-243.5 427.5,-224.5 356.5,-224.5"/>
<text text-anchor="middle" x="392" y="-231.5" font-family="Helvetica,sans-Serif" font-size="10.00" fill="#000000">Events.hxx</text>
</a>
</g>
</g>
<!-- Node6&#45;&gt;Node7 -->
<g id="edge7" class="edge">
<title>Node6&#45;&gt;Node7</title>
<path fill="none" stroke="#191970" d="M497.996,-280.3733C477.3565,-271.3435 446.2842,-257.7494 423.1111,-247.6111"/>
<polygon fill="#191970" stroke="#191970" points="424.2813,-244.3028 413.7169,-243.5011 421.4755,-250.7159 424.2813,-244.3028"/>
</g>
<!-- Node20 -->
<g id="node21" class="node">
<title>Node20</title>
<g id="a_node21"><a xlink:href="GameService_8inl_8hxx.html" target="_top" xlink:title="GameService.inl.hxx">
<polygon fill="none" stroke="#000000" points="458,-224.5 458,-243.5 576,-243.5 576,-224.5 458,-224.5"/>
<text text-anchor="middle" x="517" y="-231.5" font-family="Helvetica,sans-Serif" font-size="10.00" fill="#000000">GameService.inl.hxx</text>
</a>
</g>
</g>
<!-- Node6&#45;&gt;Node20 -->
<g id="edge23" class="edge">
<title>Node6&#45;&gt;Node20</title>
<path fill="none" stroke="#191970" d="M519.4774,-280.2455C519.086,-272.9382 518.5372,-262.6944 518.0556,-253.7046"/>
<polygon fill="#191970" stroke="#191970" points="521.5466,-253.4411 517.5166,-243.6427 514.5566,-253.8156 521.5466,-253.4411"/>
</g>
<!-- Node8 -->
<g id="node9" class="node">
<title>Node8</title>
<polygon fill="none" stroke="#bfbfbf" points="271,-168.5 271,-187.5 315,-187.5 315,-168.5 271,-168.5"/>
<text text-anchor="middle" x="293" y="-175.5" font-family="Helvetica,sans-Serif" font-size="10.00" fill="#000000">string</text>
</g>
<!-- Node7&#45;&gt;Node8 -->
<g id="edge8" class="edge">
<title>Node7&#45;&gt;Node8</title>
<path fill="none" stroke="#191970" d="M374.7555,-224.2455C359.4239,-215.5731 336.7801,-202.7645 319.2084,-192.825"/>
<polygon fill="#191970" stroke="#191970" points="320.4741,-189.5198 310.0469,-187.6427 317.0276,-195.6126 320.4741,-189.5198"/>
</g>
<!-- Node9 -->
<g id="node10" class="node">
<title>Node9</title>
<polygon fill="none" stroke="#bfbfbf" points="434,-56.5 434,-75.5 534,-75.5 534,-56.5 434,-56.5"/>
<text text-anchor="middle" x="484" y="-63.5" font-family="Helvetica,sans-Serif" font-size="10.00" fill="#000000">betterEnums.hxx</text>
</g>
<!-- Node7&#45;&gt;Node9 -->
<g id="edge9" class="edge">
<title>Node7&#45;&gt;Node9</title>
<path fill="none" stroke="#191970" d="M421.3349,-224.4955C458.3558,-210.73 520.4039,-181.3401 547,-132 558.1146,-111.3806 535.3679,-92.5604 514.1705,-80.3408"/>
<polygon fill="#191970" stroke="#191970" points="515.7431,-77.2122 505.284,-75.522 512.4063,-83.3657 515.7431,-77.2122"/>
</g>
<!-- Node10 -->
<g id="node11" class="node">
<title>Node10</title>
<g id="a_node11"><a xlink:href="Meta_8hxx.html" target="_top" xlink:title="util/Meta.hxx">
<polygon fill="none" stroke="#000000" points="112,-56.5 112,-75.5 192,-75.5 192,-56.5 112,-56.5"/>
<text text-anchor="middle" x="152" y="-63.5" font-family="Helvetica,sans-Serif" font-size="10.00" fill="#000000">util/Meta.hxx</text>
</a>
</g>
</g>
<!-- Node7&#45;&gt;Node10 -->
<g id="edge10" class="edge">
<title>Node7&#45;&gt;Node10</title>
<path fill="none" stroke="#191970" d="M356.4659,-228.2142C306.5759,-218.1002 216.76,-192.2292 171,-132 160.8686,-118.665 156.135,-100.0956 153.926,-86.0495"/>
<polygon fill="#191970" stroke="#191970" points="157.3742,-85.4195 152.6408,-75.9409 150.4301,-86.3025 157.3742,-85.4195"/>
</g>
<!-- Node15 -->
<g id="node16" class="node">
<title>Node15</title>
<g id="a_node16"><a xlink:href="UIEvents_8hxx.html" target="_top" xlink:title="events/UIEvents.hxx">
<polygon fill="none" stroke="#000000" points="333.5,-168.5 333.5,-187.5 450.5,-187.5 450.5,-168.5 333.5,-168.5"/>
<text text-anchor="middle" x="392" y="-175.5" font-family="Helvetica,sans-Serif" font-size="10.00" fill="#000000">events/UIEvents.hxx</text>
</a>
</g>
</g>
<!-- Node7&#45;&gt;Node15 -->
<g id="edge15" class="edge">
<title>Node7&#45;&gt;Node15</title>
<path fill="none" stroke="#191970" d="M392,-224.2455C392,-216.9382 392,-206.6944 392,-197.7046"/>
<polygon fill="#191970" stroke="#191970" points="395.5001,-197.6426 392,-187.6427 388.5001,-197.6427 395.5001,-197.6426"/>
</g>
<!-- Node11 -->
<g id="node12" class="node">
<title>Node11</title>
<polygon fill="none" stroke="#bfbfbf" points="0,-.5 0,-19.5 60,-19.5 60,-.5 0,-.5"/>
<text text-anchor="middle" x="30" y="-7.5" font-family="Helvetica,sans-Serif" font-size="10.00" fill="#000000">iostream</text>
</g>
<!-- Node10&#45;&gt;Node11 -->
<g id="edge11" class="edge">
<title>Node10&#45;&gt;Node11</title>
<path fill="none" stroke="#191970" d="M131.0275,-56.3733C111.4433,-47.3838 82.0039,-33.8706 59.949,-23.7471"/>
<polygon fill="#191970" stroke="#191970" points="61.2473,-20.4919 50.6989,-19.5011 58.3271,-26.8538 61.2473,-20.4919"/>
</g>
<!-- Node12 -->
<g id="node13" class="node">
<title>Node12</title>
<polygon fill="none" stroke="#bfbfbf" points="78.5,-.5 78.5,-19.5 147.5,-19.5 147.5,-.5 78.5,-.5"/>
<text text-anchor="middle" x="113" y="-7.5" font-family="Helvetica,sans-Serif" font-size="10.00" fill="#000000">type_traits</text>
</g>
<!-- Node10&#45;&gt;Node12 -->
<g id="edge12" class="edge">
<title>Node10&#45;&gt;Node12</title>
<path fill="none" stroke="#191970" d="M145.2067,-56.2455C139.7822,-48.4564 132.0339,-37.3308 125.4967,-27.9439"/>
<polygon fill="#191970" stroke="#191970" points="128.3025,-25.8485 119.7154,-19.6427 122.5583,-29.849 128.3025,-25.8485"/>
</g>
<!-- Node13 -->
<g id="node14" class="node">
<title>Node13</title>
<polygon fill="none" stroke="#bfbfbf" points="165.5,-.5 165.5,-19.5 216.5,-19.5 216.5,-.5 165.5,-.5"/>
<text text-anchor="middle" x="191" y="-7.5" font-family="Helvetica,sans-Serif" font-size="10.00" fill="#000000">variant</text>
</g>
<!-- Node10&#45;&gt;Node13 -->
<g id="edge13" class="edge">
<title>Node10&#45;&gt;Node13</title>
<path fill="none" stroke="#191970" d="M158.7933,-56.2455C164.2178,-48.4564 171.9661,-37.3308 178.5033,-27.9439"/>
<polygon fill="#191970" stroke="#191970" points="181.4417,-29.849 184.2846,-19.6427 175.6975,-25.8485 181.4417,-29.849"/>
</g>
<!-- Node14 -->
<g id="node15" class="node">
<title>Node14</title>
<polygon fill="none" stroke="#bfbfbf" points="234.5,-.5 234.5,-19.5 275.5,-19.5 275.5,-.5 234.5,-.5"/>
<text text-anchor="middle" x="255" y="-7.5" font-family="Helvetica,sans-Serif" font-size="10.00" fill="#000000">tuple</text>
</g>
<!-- Node10&#45;&gt;Node14 -->
<g id="edge14" class="edge">
<title>Node10&#45;&gt;Node14</title>
<path fill="none" stroke="#191970" d="M169.9412,-56.2455C186.04,-47.4928 209.8879,-34.527 228.2391,-24.5496"/>
<polygon fill="#191970" stroke="#191970" points="230.1507,-27.4942 237.2644,-19.6427 226.8071,-21.3444 230.1507,-27.4942"/>
</g>
<!-- Node15&#45;&gt;Node5 -->
<g id="edge16" class="edge">
<title>Node15&#45;&gt;Node5</title>
<path fill="none" stroke="#191970" d="M411.4254,-168.3733C429.4021,-159.4644 456.3441,-146.1127 476.709,-136.0203"/>
<polygon fill="#191970" stroke="#191970" points="478.4222,-139.0776 485.8281,-131.5011 475.3139,-132.8055 478.4222,-139.0776"/>
</g>
<!-- Node16 -->
<g id="node17" class="node">
<title>Node16</title>
<g id="a_node17"><a xlink:href="ActivityType_8hxx.html" target="_top" xlink:title="../activity/ActivityType.hxx">
<polygon fill="none" stroke="#000000" points="308,-112.5 308,-131.5 454,-131.5 454,-112.5 308,-112.5"/>
<text text-anchor="middle" x="381" y="-119.5" font-family="Helvetica,sans-Serif" font-size="10.00" fill="#000000">../activity/ActivityType.hxx</text>
</a>
</g>
</g>
<!-- Node15&#45;&gt;Node16 -->
<g id="edge17" class="edge">
<title>Node15&#45;&gt;Node16</title>
<path fill="none" stroke="#191970" d="M390.0839,-168.2455C388.6486,-160.9382 386.6364,-150.6944 384.8705,-141.7046"/>
<polygon fill="#191970" stroke="#191970" points="388.256,-140.7805 382.8941,-131.6427 381.3873,-142.1298 388.256,-140.7805"/>
</g>
<!-- Node17 -->
<g id="node18" class="node">
<title>Node17</title>
<g id="a_node18"><a xlink:href="Observer_8hxx.html" target="_top" xlink:title="../util/Observer.hxx">
<polygon fill="none" stroke="#000000" points="180.5,-112.5 180.5,-131.5 289.5,-131.5 289.5,-112.5 180.5,-112.5"/>
<text text-anchor="middle" x="235" y="-119.5" font-family="Helvetica,sans-Serif" font-size="10.00" fill="#000000">../util/Observer.hxx</text>
</a>
</g>
</g>
<!-- Node15&#45;&gt;Node17 -->
<g id="edge19" class="edge">
<title>Node15&#45;&gt;Node17</title>
<path fill="none" stroke="#191970" d="M365.0107,-168.3733C339.1301,-159.1419 299.8752,-145.1402 271.2711,-134.9375"/>
<polygon fill="#191970" stroke="#191970" points="272.2317,-131.5642 261.6371,-131.5011 269.88,-138.1573 272.2317,-131.5642"/>
</g>
<!-- Node16&#45;&gt;Node9 -->
<g id="edge18" class="edge">
<title>Node16&#45;&gt;Node9</title>
<path fill="none" stroke="#191970" d="M398.9412,-112.2455C415.04,-103.4928 438.8879,-90.527 457.2391,-80.5496"/>
<polygon fill="#191970" stroke="#191970" points="459.1507,-83.4942 466.2644,-75.6427 455.8071,-77.3444 459.1507,-83.4942"/>
</g>
<!-- Node17&#45;&gt;Node10 -->
<g id="edge22" class="edge">
<title>Node17&#45;&gt;Node10</title>
<path fill="none" stroke="#191970" d="M220.5425,-112.2455C207.9268,-103.7337 189.4056,-91.2375 174.7955,-81.3801"/>
<polygon fill="#191970" stroke="#191970" points="176.5391,-78.3343 166.2918,-75.6427 172.6239,-84.1371 176.5391,-78.3343"/>
</g>
<!-- Node18 -->
<g id="node19" class="node">
<title>Node18</title>
<polygon fill="none" stroke="#bfbfbf" points="210.5,-56.5 210.5,-75.5 257.5,-75.5 257.5,-56.5 210.5,-56.5"/>
<text text-anchor="middle" x="234" y="-63.5" font-family="Helvetica,sans-Serif" font-size="10.00" fill="#000000">vector</text>
</g>
<!-- Node17&#45;&gt;Node18 -->
<g id="edge20" class="edge">
<title>Node17&#45;&gt;Node18</title>
<path fill="none" stroke="#191970" d="M234.8258,-112.2455C234.6953,-104.9382 234.5124,-94.6944 234.3519,-85.7046"/>
<polygon fill="#191970" stroke="#191970" points="237.8503,-85.5786 234.1722,-75.6427 230.8514,-85.7036 237.8503,-85.5786"/>
</g>
<!-- Node19 -->
<g id="node20" class="node">
<title>Node19</title>
<polygon fill="none" stroke="#bfbfbf" points="276,-56.5 276,-75.5 334,-75.5 334,-56.5 276,-56.5"/>
<text text-anchor="middle" x="305" y="-63.5" font-family="Helvetica,sans-Serif" font-size="10.00" fill="#000000">memory</text>
</g>
<!-- Node17&#45;&gt;Node19 -->
<g id="edge21" class="edge">
<title>Node17&#45;&gt;Node19</title>
<path fill="none" stroke="#191970" d="M247.1931,-112.2455C257.6321,-103.8943 272.8655,-91.7076 285.074,-81.9408"/>
<polygon fill="#191970" stroke="#191970" points="287.3244,-84.6227 292.9467,-75.6427 282.9515,-79.1566 287.3244,-84.6227"/>
</g>
<!-- Node21&#45;&gt;Node0 -->
<g id="edge25" class="edge">
<title>Node21&#45;&gt;Node0</title>
<path fill="none" stroke="#191970" d="M655.4876,-299.5237C620.6886,-309.0331 564.3459,-323.6781 523.0132,-333.982"/>
<polygon fill="#191970" stroke="#191970" points="521.9791,-330.6323 513.1158,-336.4369 523.6643,-337.4265 521.9791,-330.6323"/>
</g>
</g>
</svg>
