<?xml version="1.0" encoding="UTF-8" standalone="no"?>
<!DOCTYPE svg PUBLIC "-//W3C//DTD SVG 1.1//EN"
 "http://www.w3.org/Graphics/SVG/1.1/DTD/svg11.dtd">
<!-- Generated by graphviz version 2.40.1 (20161225.0304)
 -->
<!-- Title: src/activity/iActivity.hxx Pages: 1 -->
<svg width="877pt" height="196pt"
 viewBox="0.00 0.00 877.00 196.00" xmlns="http://www.w3.org/2000/svg" xmlns:xlink="http://www.w3.org/1999/xlink">
<g id="graph0" class="graph" transform="scale(1 1) rotate(0) translate(4 192)">
<title>src/activity/iActivity.hxx</title>
<!-- Node42 -->
<g id="node1" class="node">
<title>Node42</title>
<polygon fill="#bfbfbf" stroke="#000000" points="159.5,-168.5 159.5,-187.5 293.5,-187.5 293.5,-168.5 159.5,-168.5"/>
<text text-anchor="middle" x="226.5" y="-175.5" font-family="Helvetica,sans-Serif" font-size="10.00" fill="#000000">src/activity/iActivity.hxx</text>
</g>
<!-- Node43 -->
<g id="node2" class="node">
<title>Node43</title>
<g id="a_node2"><a xlink:href="iActivity_8cxx.html" target="_top" xlink:title="src/activity/iActivity.cxx">
<polygon fill="none" stroke="#000000" points="0,-56.5 0,-75.5 133,-75.5 133,-56.5 0,-56.5"/>
<text text-anchor="middle" x="66.5" y="-63.5" font-family="Helvetica,sans-Serif" font-size="10.00" fill="#000000">src/activity/iActivity.cxx</text>
</a>
</g>
</g>
<!-- Node42&#45;&gt;Node43 -->
<g id="edge1" class="edge">
<title>Node42&#45;&gt;Node43</title>
<path fill="none" stroke="#191970" d="M204.6161,-162.6813C171.0474,-139.1832 107.8263,-94.9284 80.107,-75.5249"/>
<polygon fill="#191970" stroke="#191970" points="202.659,-165.5836 212.8585,-168.4509 206.6733,-159.849 202.659,-165.5836"/>
</g>
<!-- Node44 -->
<g id="node3" class="node">
<title>Node44</title>
<g id="a_node3"><a xlink:href="Window_8hxx.html" target="_top" xlink:title="src/view/Window.hxx">
<polygon fill="none" stroke="#000000" points="327,-112.5 327,-131.5 446,-131.5 446,-112.5 327,-112.5"/>
<text text-anchor="middle" x="386.5" y="-119.5" font-family="Helvetica,sans-Serif" font-size="10.00" fill="#000000">src/view/Window.hxx</text>
</a>
</g>
</g>
<!-- Node42&#45;&gt;Node44 -->
<g id="edge2" class="edge">
<title>Node42&#45;&gt;Node44</title>
<path fill="none" stroke="#191970" d="M263.4799,-165.057C292.7618,-154.8084 332.9885,-140.729 359.3539,-131.5011"/>
<polygon fill="#191970" stroke="#191970" points="262.2873,-161.7662 254.005,-168.3733 264.5998,-168.3732 262.2873,-161.7662"/>
</g>
<!-- Node44&#45;&gt;Node43 -->
<g id="edge3" class="edge">
<title>Node44&#45;&gt;Node43</title>
<path fill="none" stroke="#191970" d="M321.8926,-110.6937C262.8547,-100.3621 176.5241,-85.2542 120.921,-75.5237"/>
<polygon fill="#191970" stroke="#191970" points="321.4,-114.1606 331.8536,-112.4369 322.6067,-107.2654 321.4,-114.1606"/>
</g>
<!-- Node45 -->
<g id="node4" class="node">
<title>Node45</title>
<g id="a_node4"><a xlink:href="Camera_8cxx.html" target="_top" xlink:title="src/engine/basics/Camera.cxx">
<polygon fill="none" stroke="#000000" points="151.5,-56.5 151.5,-75.5 313.5,-75.5 313.5,-56.5 151.5,-56.5"/>
<text text-anchor="middle" x="232.5" y="-63.5" font-family="Helvetica,sans-Serif" font-size="10.00" fill="#000000">src/engine/basics/Camera.cxx</text>
</a>
</g>
</g>
<!-- Node44&#45;&gt;Node45 -->
<g id="edge4" class="edge">
<title>Node44&#45;&gt;Node45</title>
<path fill="none" stroke="#191970" d="M350.5386,-108.9231C322.3866,-98.686 283.8945,-84.6889 258.6281,-75.5011"/>
<polygon fill="#191970" stroke="#191970" points="349.4324,-112.245 360.0265,-112.3733 351.8246,-105.6665 349.4324,-112.245"/>
</g>
<!-- Node46 -->
<g id="node5" class="node">
<title>Node46</title>
<g id="a_node5"><a xlink:href="Map_8cxx.html" target="_top" xlink:title="src/engine/Map.cxx">
<polygon fill="none" stroke="#000000" points="331.5,-56.5 331.5,-75.5 441.5,-75.5 441.5,-56.5 331.5,-56.5"/>
<text text-anchor="middle" x="386.5" y="-63.5" font-family="Helvetica,sans-Serif" font-size="10.00" fill="#000000">src/engine/Map.cxx</text>
</a>
</g>
</g>
<!-- Node44&#45;&gt;Node46 -->
<g id="edge5" class="edge">
<title>Node44&#45;&gt;Node46</title>
<path fill="none" stroke="#191970" d="M386.5,-102.1575C386.5,-93.155 386.5,-82.9199 386.5,-75.6427"/>
<polygon fill="#191970" stroke="#191970" points="383.0001,-102.2455 386.5,-112.2455 390.0001,-102.2456 383.0001,-102.2455"/>
</g>
<!-- Node47 -->
<g id="node6" class="node">
<title>Node47</title>
<g id="a_node6"><a xlink:href="WindowManager_8cxx.html" target="_top" xlink:title="src/engine/WindowManager.cxx">
<polygon fill="none" stroke="#000000" points="459.5,-56.5 459.5,-75.5 629.5,-75.5 629.5,-56.5 459.5,-56.5"/>
<text text-anchor="middle" x="544.5" y="-63.5" font-family="Helvetica,sans-Serif" font-size="10.00" fill="#000000">src/engine/WindowManager.cxx</text>
</a>
</g>
</g>
<!-- Node44&#45;&gt;Node47 -->
<g id="edge6" class="edge">
<title>Node44&#45;&gt;Node47</title>
<path fill="none" stroke="#191970" d="M423.3955,-108.9231C452.2787,-98.686 491.7706,-84.6889 517.6933,-75.5011"/>
<polygon fill="#191970" stroke="#191970" points="421.9174,-105.7336 413.6612,-112.3733 424.2559,-112.3314 421.9174,-105.7336"/>
</g>
<!-- Node48 -->
<g id="node7" class="node">
<title>Node48</title>
<g id="a_node7"><a xlink:href="Game_8hxx.html" target="_top" xlink:title="src/Game.hxx">
<polygon fill="none" stroke="#000000" points="647.5,-56.5 647.5,-75.5 731.5,-75.5 731.5,-56.5 647.5,-56.5"/>
<text text-anchor="middle" x="689.5" y="-63.5" font-family="Helvetica,sans-Serif" font-size="10.00" fill="#000000">src/Game.hxx</text>
</a>
</g>
</g>
<!-- Node44&#45;&gt;Node48 -->
<g id="edge7" class="edge">
<title>Node44&#45;&gt;Node48</title>
<path fill="none" stroke="#191970" d="M450.0092,-110.644C500.9906,-101.471 574.3885,-88.1364 638.5,-76 641.4256,-75.4462 644.4443,-74.869 647.4837,-74.2836"/>
<polygon fill="#191970" stroke="#191970" points="449.3442,-107.2074 440.1212,-112.4215 450.5827,-114.0969 449.3442,-107.2074"/>
</g>
<!-- Node51 -->
<g id="node10" class="node">
<title>Node51</title>
<g id="a_node10"><a xlink:href="Window_8cxx.html" target="_top" xlink:title="src/view/Window.cxx">
<polygon fill="none" stroke="#000000" points="750,-56.5 750,-75.5 869,-75.5 869,-56.5 750,-56.5"/>
<text text-anchor="middle" x="809.5" y="-63.5" font-family="Helvetica,sans-Serif" font-size="10.00" fill="#000000">src/view/Window.cxx</text>
</a>
</g>
</g>
<!-- Node44&#45;&gt;Node51 -->
<g id="edge10" class="edge">
<title>Node44&#45;&gt;Node51</title>
<path fill="none" stroke="#191970" d="M456.2598,-113.2426C527.6859,-104.2039 641.8939,-89.5512 740.5,-76 743.4979,-75.588 746.5683,-75.1611 749.6685,-74.7262"/>
<polygon fill="#191970" stroke="#191970" points="455.5209,-109.8081 446.0389,-114.5347 456.3989,-116.7528 455.5209,-109.8081"/>
</g>
<!-- Node49 -->
<g id="node8" class="node">
<title>Node49</title>
<g id="a_node8"><a xlink:href="Game_8cxx.html" target="_top" xlink:title="src/Game.cxx">
<polygon fill="none" stroke="#000000" points="598,-.5 598,-19.5 681,-19.5 681,-.5 598,-.5"/>
<text text-anchor="middle" x="639.5" y="-7.5" font-family="Helvetica,sans-Serif" font-size="10.00" fill="#000000">src/Game.cxx</text>
</a>
</g>
</g>
<!-- Node48&#45;&gt;Node49 -->
<g id="edge8" class="edge">
<title>Node48&#45;&gt;Node49</title>
<path fill="none" stroke="#191970" d="M673.8753,-48.5004C665.3727,-38.9775 655.1782,-27.5596 648.1095,-19.6427"/>
<polygon fill="#191970" stroke="#191970" points="671.5197,-51.1172 680.7907,-56.2455 676.7413,-46.4551 671.5197,-51.1172"/>
</g>
<!-- Node50 -->
<g id="node9" class="node">
<title>Node50</title>
<g id="a_node9"><a xlink:href="main_8cxx.html" target="_top" xlink:title="src/main.cxx">
<polygon fill="none" stroke="#000000" points="699,-.5 699,-19.5 778,-19.5 778,-.5 699,-.5"/>
<text text-anchor="middle" x="738.5" y="-7.5" font-family="Helvetica,sans-Serif" font-size="10.00" fill="#000000">src/main.cxx</text>
</a>
</g>
</g>
<!-- Node48&#45;&gt;Node50 -->
<g id="edge9" class="edge">
<title>Node48&#45;&gt;Node50</title>
<path fill="none" stroke="#191970" d="M704.8122,-48.5004C713.1447,-38.9775 723.1353,-27.5596 730.0627,-19.6427"/>
<polygon fill="#191970" stroke="#191970" points="701.9862,-46.415 698.0351,-56.2455 707.2543,-51.0245 701.9862,-46.415"/>
</g>
</g>
</svg>
