<?xml version="1.0" encoding="UTF-8" standalone="no"?>
<!DOCTYPE svg PUBLIC "-//W3C//DTD SVG 1.1//EN"
 "http://www.w3.org/Graphics/SVG/1.1/DTD/svg11.dtd">
<!-- Generated by graphviz version 2.40.1 (20161225.0304)
 -->
<!-- Title: src/activity/iActivity.hxx Pages: 1 -->
<!--zoomable 420 -->
<svg id="main" version="1.1" xmlns="http://www.w3.org/2000/svg" xmlns:xlink="http://www.w3.org/1999/xlink" xml:space="preserve" onload="init(evt)">
<style type="text/css"><![CDATA[
.edge:hover path { stroke: red; }
.edge:hover polygon { stroke: red; fill: red; }
]]></style>
<script type="text/javascript"><![CDATA[
var edges = document.getElementsByTagName('g');
if (edges && edges.length) {
  for (var i=0;i<edges.length;i++) {
    if (edges[i].id.substr(0,4)=='edge') {
      edges[i].setAttribute('class','edge');
    }
  }
}
]]></script>
        <defs>
                <circle id="rim" cx="0" cy="0" r="7"/>
                <circle id="rim2" cx="0" cy="0" r="3.5"/>
                <g id="zoomPlus">
                        <use xlink:href="#rim" fill="#404040">
                                <set attributeName="fill" to="#808080" begin="zoomplus.mouseover" end="zoomplus.mouseout"/>
                        </use>
                        <path d="M-4,0h8M0,-4v8" fill="none" stroke="white" stroke-width="1.5" pointer-events="none"/>
                </g>
                <g id="zoomMin">
                        <use xlink:href="#rim" fill="#404040">
                                <set attributeName="fill" to="#808080" begin="zoomminus.mouseover" end="zoomminus.mouseout"/>
                        </use>
                        <path d="M-4,0h8" fill="none" stroke="white" stroke-width="1.5" pointer-events="none"/>
                </g>
                <g id="dirArrow">
                        <path fill="none" stroke="white" stroke-width="1.5" d="M0,-3.0v7 M-2.5,-0.5L0,-3.0L2.5,-0.5"/>
                </g>
               <g id="resetDef">
                       <use xlink:href="#rim2" fill="#404040">
                               <set attributeName="fill" to="#808080" begin="reset.mouseover" end="reset.mouseout"/>
                       </use>
               </g>
        </defs>

<script type="text/javascript">
var viewWidth = 2172;
var viewHeight = 420;
var sectionId = 'dynsection-0';
</script>
<script xlink:href="svgpan.js"/>
<svg id="graph" class="graph">
<g id="viewport">
<title>src/activity/iActivity.hxx</title>
<!-- Node0 -->
<g id="node1" class="node">
<title>Node0</title>
<polygon fill="#bfbfbf" stroke="#000000" points="1517.5,-392.5 1517.5,-411.5 1651.5,-411.5 1651.5,-392.5 1517.5,-392.5"/>
<text text-anchor="middle" x="1584.5" y="-399.5" font-family="Helvetica,sans-Serif" font-size="10.00" fill="#000000">src/activity/iActivity.hxx</text>
</g>
<!-- Node1 -->
<g id="node2" class="node">
<title>Node1</title>
<polygon fill="none" stroke="#bfbfbf" points="1063.5,-112.5 1063.5,-131.5 1121.5,-131.5 1121.5,-112.5 1063.5,-112.5"/>
<text text-anchor="middle" x="1092.5" y="-119.5" font-family="Helvetica,sans-Serif" font-size="10.00" fill="#000000">memory</text>
</g>
<!-- Node0&#45;&gt;Node1 -->
<g id="edge1" class="edge">
<title>Node0&#45;&gt;Node1</title>
<path fill="none" stroke="#191970" d="M1517.3751,-394.7738C1374.7596,-378.5127 1054.5,-336.7879 1054.5,-290 1054.5,-290 1054.5,-290 1054.5,-234 1054.5,-199.6118 1070.7634,-162.2832 1082.011,-140.5791"/>
<polygon fill="#191970" stroke="#191970" points="1085.2317,-141.9804 1086.893,-131.5166 1079.069,-138.6605 1085.2317,-141.9804"/>
</g>
<!-- Node2 -->
<g id="node3" class="node">
<title>Node2</title>
<polygon fill="none" stroke="#bfbfbf" points="1955.5,-112.5 1955.5,-131.5 2055.5,-131.5 2055.5,-112.5 1955.5,-112.5"/>
<text text-anchor="middle" x="2005.5" y="-119.5" font-family="Helvetica,sans-Serif" font-size="10.00" fill="#000000">betterEnums.hxx</text>
</g>
<!-- Node0&#45;&gt;Node2 -->
<g id="edge2" class="edge">
<title>Node0&#45;&gt;Node2</title>
<path fill="none" stroke="#191970" d="M1651.7341,-399.5001C1779.2258,-392.9185 2043.5,-369.6673 2043.5,-290 2043.5,-290 2043.5,-290 2043.5,-234 2043.5,-199.6118 2027.2366,-162.2832 2015.989,-140.5791"/>
<polygon fill="#191970" stroke="#191970" points="2018.931,-138.6605 2011.107,-131.5166 2012.7683,-141.9804 2018.931,-138.6605"/>
</g>
<!-- Node3 -->
<g id="node4" class="node">
<title>Node3</title>
<g id="a_node4"><a xlink:href="iLayout_8hxx.html" target="_top" xlink:title="../layout/iLayout.hxx">
<polygon fill="none" stroke="#000000" points="1354.5,-336.5 1354.5,-355.5 1470.5,-355.5 1470.5,-336.5 1354.5,-336.5"/>
<text text-anchor="middle" x="1412.5" y="-343.5" font-family="Helvetica,sans-Serif" font-size="10.00" fill="#000000">../layout/iLayout.hxx</text>
</a>
</g>
</g>
<!-- Node0&#45;&gt;Node3 -->
<g id="edge3" class="edge">
<title>Node0&#45;&gt;Node3</title>
<path fill="none" stroke="#191970" d="M1554.9321,-392.3733C1526.3312,-383.0613 1482.8212,-368.8953 1451.4181,-358.671"/>
<polygon fill="#191970" stroke="#191970" points="1452.2743,-355.269 1441.682,-355.5011 1450.1072,-361.9251 1452.2743,-355.269"/>
</g>
<!-- Node14 -->
<g id="node15" class="node">
<title>Node14</title>
<g id="a_node15"><a xlink:href="iViewElement_8hxx.html" target="_top" xlink:title="../view/iViewElement.hxx">
<polygon fill="none" stroke="#000000" points="1105.5,-280.5 1105.5,-299.5 1245.5,-299.5 1245.5,-280.5 1105.5,-280.5"/>
<text text-anchor="middle" x="1175.5" y="-287.5" font-family="Helvetica,sans-Serif" font-size="10.00" fill="#000000">../view/iViewElement.hxx</text>
</a>
</g>
</g>
<!-- Node0&#45;&gt;Node14 -->
<g id="edge43" class="edge">
<title>Node0&#45;&gt;Node14</title>
<path fill="none" stroke="#191970" d="M1517.8041,-392.4677C1469.443,-384.7593 1402.7549,-372.4784 1345.5,-356 1295.3782,-341.5746 1239.3664,-318.3841 1205.8008,-303.683"/>
<polygon fill="#191970" stroke="#191970" points="1207.1057,-300.4332 1196.5442,-299.5942 1204.2773,-306.8363 1207.1057,-300.4332"/>
</g>
<!-- Node33 -->
<g id="node34" class="node">
<title>Node33</title>
<g id="a_node34"><a xlink:href="GameService_8hxx.html" target="_top" xlink:title="../GameService.hxx">
<polygon fill="none" stroke="#000000" points="1594.5,-336.5 1594.5,-355.5 1706.5,-355.5 1706.5,-336.5 1594.5,-336.5"/>
<text text-anchor="middle" x="1650.5" y="-343.5" font-family="Helvetica,sans-Serif" font-size="10.00" fill="#000000">../GameService.hxx</text>
</a>
</g>
</g>
<!-- Node0&#45;&gt;Node33 -->
<g id="edge44" class="edge">
<title>Node0&#45;&gt;Node33</title>
<path fill="none" stroke="#191970" d="M1595.9963,-392.2455C1605.7442,-383.9746 1619.9259,-371.9416 1631.3798,-362.2232"/>
<polygon fill="#191970" stroke="#191970" points="1633.7747,-364.7813 1639.1354,-355.6427 1629.2459,-359.4437 1633.7747,-364.7813"/>
</g>
<!-- Node37 -->
<g id="node38" class="node">
<title>Node37</title>
<g id="a_node38"><a xlink:href="ActivityType_8hxx.html" target="_top" xlink:title="../activity/ActivityType.hxx">
<polygon fill="none" stroke="#000000" points="1831.5,-168.5 1831.5,-187.5 1977.5,-187.5 1977.5,-168.5 1831.5,-168.5"/>
<text text-anchor="middle" x="1904.5" y="-175.5" font-family="Helvetica,sans-Serif" font-size="10.00" fill="#000000">../activity/ActivityType.hxx</text>
</a>
</g>
</g>
<!-- Node0&#45;&gt;Node37 -->
<g id="edge60" class="edge">
<title>Node0&#45;&gt;Node37</title>
<path fill="none" stroke="#191970" d="M1617.5385,-392.4574C1644.4807,-384.1913 1683.221,-371.1903 1715.5,-356 1759.1559,-335.4558 1769.3106,-328.1441 1808.5,-300 1839.7466,-277.5601 1851.3137,-274.6968 1874.5,-244 1885.2605,-229.754 1893.3067,-211.0327 1898.343,-197.1689"/>
<polygon fill="#191970" stroke="#191970" points="1901.6678,-198.2633 1901.6027,-187.6686 1895.0467,-195.9914 1901.6678,-198.2633"/>
</g>
<!-- Node40 -->
<g id="node41" class="node">
<title>Node40</title>
<g id="a_node41"><a xlink:href="iModel_8hxx.html" target="_top" xlink:title="../model/iModel.hxx">
<polygon fill="none" stroke="#000000" points="913,-336.5 913,-355.5 1026,-355.5 1026,-336.5 913,-336.5"/>
<text text-anchor="middle" x="969.5" y="-343.5" font-family="Helvetica,sans-Serif" font-size="10.00" fill="#000000">../model/iModel.hxx</text>
</a>
</g>
</g>
<!-- Node0&#45;&gt;Node40 -->
<g id="edge58" class="edge">
<title>Node0&#45;&gt;Node40</title>
<path fill="none" stroke="#191970" d="M1517.3833,-397.5302C1414.5566,-390.4101 1211.9188,-375.3041 1040.5,-356 1039.0311,-355.8346 1037.5457,-355.663 1036.0484,-355.4862"/>
<polygon fill="#191970" stroke="#191970" points="1036.3985,-352.0029 1026.0453,-354.2528 1035.5419,-358.9503 1036.3985,-352.0029"/>
</g>
<!-- Node41 -->
<g id="node42" class="node">
<title>Node41</title>
<g id="a_node42"><a xlink:href="iActivity_8inl_8hxx.html" target="_top" xlink:title="iActivity.inl.hxx">
<polygon fill="none" stroke="#000000" points="2071.5,-336.5 2071.5,-355.5 2163.5,-355.5 2163.5,-336.5 2071.5,-336.5"/>
<text text-anchor="middle" x="2117.5" y="-343.5" font-family="Helvetica,sans-Serif" font-size="10.00" fill="#000000">iActivity.inl.hxx</text>
</a>
</g>
</g>
<!-- Node0&#45;&gt;Node41 -->
<g id="edge61" class="edge">
<title>Node0&#45;&gt;Node41</title>
<path fill="none" stroke="#191970" d="M1651.6362,-396.9211C1743.4739,-389.6431 1913.331,-375.0019 2057.5,-356 2058.7662,-355.8331 2060.0467,-355.6597 2061.3372,-355.4807"/>
<polygon fill="#191970" stroke="#191970" points="2061.9709,-358.9253 2071.3597,-354.016 2060.9586,-351.9989 2061.9709,-358.9253"/>
</g>
<!-- Node4 -->
<g id="node5" class="node">
<title>Node4</title>
<polygon fill="none" stroke="#bfbfbf" points="1511,-112.5 1511,-131.5 1558,-131.5 1558,-112.5 1511,-112.5"/>
<text text-anchor="middle" x="1534.5" y="-119.5" font-family="Helvetica,sans-Serif" font-size="10.00" fill="#000000">vector</text>
</g>
<!-- Node3&#45;&gt;Node4 -->
<g id="edge4" class="edge">
<title>Node3&#45;&gt;Node4</title>
<path fill="none" stroke="#191970" d="M1445.6281,-336.421C1464.9629,-329.2657 1488.4388,-317.6336 1503.5,-300 1523.6113,-276.4537 1531.1405,-183.3507 1533.5328,-141.9864"/>
<polygon fill="#191970" stroke="#191970" points="1537.0388,-141.9649 1534.0775,-131.7924 1530.0488,-141.5913 1537.0388,-141.9649"/>
</g>
<!-- Node5 -->
<g id="node6" class="node">
<title>Node5</title>
<g id="a_node6"><a xlink:href="Range_8hxx.html" target="_top" xlink:title="../util/Range.hxx">
<polygon fill="none" stroke="#000000" points="1398.5,-280.5 1398.5,-299.5 1494.5,-299.5 1494.5,-280.5 1398.5,-280.5"/>
<text text-anchor="middle" x="1446.5" y="-287.5" font-family="Helvetica,sans-Serif" font-size="10.00" fill="#000000">../util/Range.hxx</text>
</a>
</g>
</g>
<!-- Node3&#45;&gt;Node5 -->
<g id="edge5" class="edge">
<title>Node3&#45;&gt;Node5</title>
<path fill="none" stroke="#191970" d="M1418.4223,-336.2455C1423.1027,-328.5367 1429.7673,-317.5598 1435.4289,-308.2348"/>
<polygon fill="#191970" stroke="#191970" points="1438.4475,-310.007 1440.6455,-299.6427 1432.4639,-306.3741 1438.4475,-310.007"/>
</g>
<!-- Node13 -->
<g id="node14" class="node">
<title>Node13</title>
<g id="a_node14"><a xlink:href="iView_8hxx.html" target="_top" xlink:title="../view/iView.hxx">
<polygon fill="none" stroke="#000000" points="1121,-224.5 1121,-243.5 1220,-243.5 1220,-224.5 1121,-224.5"/>
<text text-anchor="middle" x="1170.5" y="-231.5" font-family="Helvetica,sans-Serif" font-size="10.00" fill="#000000">../view/iView.hxx</text>
</a>
</g>
</g>
<!-- Node3&#45;&gt;Node13 -->
<g id="edge13" class="edge">
<title>Node3&#45;&gt;Node13</title>
<path fill="none" stroke="#191970" d="M1391.8672,-336.4509C1349.0042,-316.6135 1250.1782,-270.8758 1200.3597,-247.8194"/>
<polygon fill="#191970" stroke="#191970" points="1201.6258,-244.5487 1191.0806,-243.5249 1198.6857,-250.9014 1201.6258,-244.5487"/>
</g>
<!-- Node3&#45;&gt;Node14 -->
<g id="edge15" class="edge">
<title>Node3&#45;&gt;Node14</title>
<path fill="none" stroke="#191970" d="M1372.0275,-336.4369C1331.552,-326.8731 1269.2133,-312.1432 1225.6297,-301.845"/>
<polygon fill="#191970" stroke="#191970" points="1226.3424,-298.4171 1215.8055,-299.5237 1224.7327,-305.2295 1226.3424,-298.4171"/>
</g>
<!-- Node15 -->
<g id="node16" class="node">
<title>Node15</title>
<g id="a_node16"><a xlink:href="BoxSizing_8hxx.html" target="_top" xlink:title="BoxSizing.hxx">
<polygon fill="none" stroke="#000000" points="1238.5,-224.5 1238.5,-243.5 1324.5,-243.5 1324.5,-224.5 1238.5,-224.5"/>
<text text-anchor="middle" x="1281.5" y="-231.5" font-family="Helvetica,sans-Serif" font-size="10.00" fill="#000000">BoxSizing.hxx</text>
</a>
</g>
</g>
<!-- Node3&#45;&gt;Node15 -->
<g id="edge42" class="edge">
<title>Node3&#45;&gt;Node15</title>
<path fill="none" stroke="#191970" d="M1401.331,-336.4509C1378.9017,-317.2747 1328.1643,-273.8962 1300.4468,-250.1988"/>
<polygon fill="#191970" stroke="#191970" points="1302.5159,-247.363 1292.6407,-243.5249 1297.9671,-252.6835 1302.5159,-247.363"/>
</g>
<!-- Node6 -->
<g id="node7" class="node">
<title>Node6</title>
<polygon fill="none" stroke="#bfbfbf" points="1343,-224.5 1343,-243.5 1396,-243.5 1396,-224.5 1343,-224.5"/>
<text text-anchor="middle" x="1369.5" y="-231.5" font-family="Helvetica,sans-Serif" font-size="10.00" fill="#000000">iterator</text>
</g>
<!-- Node5&#45;&gt;Node6 -->
<g id="edge6" class="edge">
<title>Node5&#45;&gt;Node6</title>
<path fill="none" stroke="#191970" d="M1433.0876,-280.2455C1421.4943,-271.814 1404.5252,-259.4729 1391.0322,-249.6598"/>
<polygon fill="#191970" stroke="#191970" points="1392.9047,-246.6938 1382.7587,-243.6427 1388.7874,-252.355 1392.9047,-246.6938"/>
</g>
<!-- Node7 -->
<g id="node8" class="node">
<title>Node7</title>
<g id="a_node8"><a xlink:href="Meta_8hxx.html" target="_top" xlink:title="../util/Meta.hxx">
<polygon fill="none" stroke="#000000" points="1290,-56.5 1290,-75.5 1379,-75.5 1379,-56.5 1290,-56.5"/>
<text text-anchor="middle" x="1334.5" y="-63.5" font-family="Helvetica,sans-Serif" font-size="10.00" fill="#000000">../util/Meta.hxx</text>
</a>
</g>
</g>
<!-- Node5&#45;&gt;Node7 -->
<g id="edge7" class="edge">
<title>Node5&#45;&gt;Node7</title>
<path fill="none" stroke="#191970" d="M1466.6043,-280.4088C1487.8535,-268.7993 1516.963,-247.8189 1506.5,-224 1476.6957,-156.151 1401.7818,-104.6497 1361.3584,-80.7357"/>
<polygon fill="#191970" stroke="#191970" points="1362.9859,-77.6338 1352.5775,-75.6548 1359.4801,-83.6926 1362.9859,-77.6338"/>
</g>
<!-- Node12 -->
<g id="node13" class="node">
<title>Node12</title>
<g id="a_node13"><a xlink:href="Range_8inl_8hxx.html" target="_top" xlink:title="Range.inl.hxx">
<polygon fill="none" stroke="#000000" points="1414,-224.5 1414,-243.5 1497,-243.5 1497,-224.5 1414,-224.5"/>
<text text-anchor="middle" x="1455.5" y="-231.5" font-family="Helvetica,sans-Serif" font-size="10.00" fill="#000000">Range.inl.hxx</text>
</a>
</g>
</g>
<!-- Node5&#45;&gt;Node12 -->
<g id="edge12" class="edge">
<title>Node5&#45;&gt;Node12</title>
<path fill="none" stroke="#191970" d="M1448.0677,-280.2455C1449.2421,-272.9382 1450.8884,-262.6944 1452.3332,-253.7046"/>
<polygon fill="#191970" stroke="#191970" points="1455.8191,-254.0714 1453.9503,-243.6427 1448.9078,-252.9606 1455.8191,-254.0714"/>
</g>
<!-- Node8 -->
<g id="node9" class="node">
<title>Node8</title>
<polygon fill="none" stroke="#bfbfbf" points="794.5,-.5 794.5,-19.5 854.5,-19.5 854.5,-.5 794.5,-.5"/>
<text text-anchor="middle" x="824.5" y="-7.5" font-family="Helvetica,sans-Serif" font-size="10.00" fill="#000000">iostream</text>
</g>
<!-- Node7&#45;&gt;Node8 -->
<g id="edge8" class="edge">
<title>Node7&#45;&gt;Node8</title>
<path fill="none" stroke="#191970" d="M1289.6879,-61.0795C1191.5059,-50.2987 958.703,-24.736 864.802,-14.4253"/>
<polygon fill="#191970" stroke="#191970" points="864.9022,-10.9154 854.5799,-13.3029 864.1381,-17.8735 864.9022,-10.9154"/>
</g>
<!-- Node9 -->
<g id="node10" class="node">
<title>Node9</title>
<polygon fill="none" stroke="#bfbfbf" points="1261,-.5 1261,-19.5 1330,-19.5 1330,-.5 1261,-.5"/>
<text text-anchor="middle" x="1295.5" y="-7.5" font-family="Helvetica,sans-Serif" font-size="10.00" fill="#000000">type_traits</text>
</g>
<!-- Node7&#45;&gt;Node9 -->
<g id="edge9" class="edge">
<title>Node7&#45;&gt;Node9</title>
<path fill="none" stroke="#191970" d="M1327.7067,-56.2455C1322.2822,-48.4564 1314.5339,-37.3308 1307.9967,-27.9439"/>
<polygon fill="#191970" stroke="#191970" points="1310.8025,-25.8485 1302.2154,-19.6427 1305.0583,-29.849 1310.8025,-25.8485"/>
</g>
<!-- Node10 -->
<g id="node11" class="node">
<title>Node10</title>
<polygon fill="none" stroke="#bfbfbf" points="1348,-.5 1348,-19.5 1399,-19.5 1399,-.5 1348,-.5"/>
<text text-anchor="middle" x="1373.5" y="-7.5" font-family="Helvetica,sans-Serif" font-size="10.00" fill="#000000">variant</text>
</g>
<!-- Node7&#45;&gt;Node10 -->
<g id="edge10" class="edge">
<title>Node7&#45;&gt;Node10</title>
<path fill="none" stroke="#191970" d="M1341.2933,-56.2455C1346.7178,-48.4564 1354.4661,-37.3308 1361.0033,-27.9439"/>
<polygon fill="#191970" stroke="#191970" points="1363.9417,-29.849 1366.7846,-19.6427 1358.1975,-25.8485 1363.9417,-29.849"/>
</g>
<!-- Node11 -->
<g id="node12" class="node">
<title>Node11</title>
<polygon fill="none" stroke="#bfbfbf" points="1080,-.5 1080,-19.5 1121,-19.5 1121,-.5 1080,-.5"/>
<text text-anchor="middle" x="1100.5" y="-7.5" font-family="Helvetica,sans-Serif" font-size="10.00" fill="#000000">tuple</text>
</g>
<!-- Node7&#45;&gt;Node11 -->
<g id="edge11" class="edge">
<title>Node7&#45;&gt;Node11</title>
<path fill="none" stroke="#191970" d="M1294.5398,-56.4369C1248.2106,-45.3496 1172.8698,-27.3193 1131.0023,-17.2997"/>
<polygon fill="#191970" stroke="#191970" points="1131.6573,-13.8577 1121.1172,-14.934 1130.028,-20.6654 1131.6573,-13.8577"/>
</g>
<!-- Node13&#45;&gt;Node1 -->
<g id="edge14" class="edge">
<title>Node13&#45;&gt;Node1</title>
<path fill="none" stroke="#191970" d="M1163.8498,-224.4509C1150.7827,-205.688 1121.5792,-163.7548 1104.8672,-139.758"/>
<polygon fill="#191970" stroke="#191970" points="1107.7205,-137.7307 1099.1334,-131.5249 1101.9763,-141.7312 1107.7205,-137.7307"/>
</g>
<!-- Node14&#45;&gt;Node1 -->
<g id="edge16" class="edge">
<title>Node14&#45;&gt;Node1</title>
<path fill="none" stroke="#191970" d="M1154.4737,-280.4431C1139.9908,-272.7228 1121.6017,-260.4377 1111.5,-244 1092.0344,-212.3253 1090.2235,-167.5721 1091.08,-141.9999"/>
<polygon fill="#191970" stroke="#191970" points="1094.5906,-141.8823 1091.6074,-131.7162 1087.5997,-141.5237 1094.5906,-141.8823"/>
</g>
<!-- Node14&#45;&gt;Node13 -->
<g id="edge17" class="edge">
<title>Node14&#45;&gt;Node13</title>
<path fill="none" stroke="#191970" d="M1174.6291,-280.2455C1173.9766,-272.9382 1173.062,-262.6944 1172.2593,-253.7046"/>
<polygon fill="#191970" stroke="#191970" points="1175.7365,-253.2918 1171.361,-243.6427 1168.7642,-253.9143 1175.7365,-253.2918"/>
</g>
<!-- Node14&#45;&gt;Node15 -->
<g id="edge18" class="edge">
<title>Node14&#45;&gt;Node15</title>
<path fill="none" stroke="#191970" d="M1193.9638,-280.2455C1210.6074,-271.4527 1235.2993,-258.4079 1254.2192,-248.4125"/>
<polygon fill="#191970" stroke="#191970" points="1256.0408,-251.4086 1263.2478,-243.6427 1252.7709,-245.2193 1256.0408,-251.4086"/>
</g>
<!-- Node17 -->
<g id="node18" class="node">
<title>Node17</title>
<g id="a_node18"><a xlink:href="Rectangle_8hxx.html" target="_top" xlink:title="Rectangle.hxx">
<polygon fill="none" stroke="#000000" points="819.5,-224.5 819.5,-243.5 905.5,-243.5 905.5,-224.5 819.5,-224.5"/>
<text text-anchor="middle" x="862.5" y="-231.5" font-family="Helvetica,sans-Serif" font-size="10.00" fill="#000000">Rectangle.hxx</text>
</a>
</g>
</g>
<!-- Node14&#45;&gt;Node17 -->
<g id="edge21" class="edge">
<title>Node14&#45;&gt;Node17</title>
<path fill="none" stroke="#191970" d="M1122.049,-280.4369C1064.3995,-270.1226 973.1665,-253.7998 915.6386,-243.5072"/>
<polygon fill="#191970" stroke="#191970" points="916.1157,-240.0371 905.6555,-241.7211 914.8828,-246.9277 916.1157,-240.0371"/>
</g>
<!-- Node15&#45;&gt;Node7 -->
<g id="edge19" class="edge">
<title>Node15&#45;&gt;Node7</title>
<path fill="none" stroke="#191970" d="M1290.8954,-224.2897C1298.7885,-215.5345 1309.6844,-201.9295 1315.5,-188 1329.6878,-154.0175 1333.3899,-110.7037 1334.2904,-85.8859"/>
<polygon fill="#191970" stroke="#191970" points="1337.7963,-85.6781 1334.5379,-75.5968 1330.7983,-85.5097 1337.7963,-85.6781"/>
</g>
<!-- Node16 -->
<g id="node17" class="node">
<title>Node16</title>
<g id="a_node17"><a xlink:href="BoxSizing_8inl_8hxx.html" target="_top" xlink:title="BoxSizing.inl.hxx">
<polygon fill="none" stroke="#000000" points="1205,-168.5 1205,-187.5 1306,-187.5 1306,-168.5 1205,-168.5"/>
<text text-anchor="middle" x="1255.5" y="-175.5" font-family="Helvetica,sans-Serif" font-size="10.00" fill="#000000">BoxSizing.inl.hxx</text>
</a>
</g>
</g>
<!-- Node15&#45;&gt;Node16 -->
<g id="edge20" class="edge">
<title>Node15&#45;&gt;Node16</title>
<path fill="none" stroke="#191970" d="M1276.9711,-224.2455C1273.4666,-216.6973 1268.5073,-206.0158 1264.2377,-196.8197"/>
<polygon fill="#191970" stroke="#191970" points="1267.3627,-195.2389 1259.977,-187.6427 1261.0136,-198.1867 1267.3627,-195.2389"/>
</g>
<!-- Node17&#45;&gt;Node8 -->
<g id="edge23" class="edge">
<title>Node17&#45;&gt;Node8</title>
<path fill="none" stroke="#191970" d="M859.0305,-224.2508C855.8666,-215.0218 851.2749,-200.7235 848.5,-188 836.137,-131.3137 829.0671,-62.9992 826.1269,-29.9039"/>
<polygon fill="#191970" stroke="#191970" points="829.5973,-29.4083 825.2572,-19.7432 822.6228,-30.0053 829.5973,-29.4083"/>
</g>
<!-- Node17&#45;&gt;Node11 -->
<g id="edge22" class="edge">
<title>Node17&#45;&gt;Node11</title>
<path fill="none" stroke="#191970" d="M863.3157,-224.187C864.8727,-210.4865 869.2883,-185.3591 881.5,-168 931.342,-97.1491 1023.3213,-46.2648 1070.6474,-23.4338"/>
<polygon fill="#191970" stroke="#191970" points="1072.2242,-26.5598 1079.7646,-19.1171 1069.2287,-20.2331 1072.2242,-26.5598"/>
</g>
<!-- Node18 -->
<g id="node19" class="node">
<title>Node18</title>
<g id="a_node19"><a xlink:href="iShape_8hxx.html" target="_top" xlink:title="../util/iShape.hxx">
<polygon fill="none" stroke="#000000" points="890.5,-168.5 890.5,-187.5 988.5,-187.5 988.5,-168.5 890.5,-168.5"/>
<text text-anchor="middle" x="939.5" y="-175.5" font-family="Helvetica,sans-Serif" font-size="10.00" fill="#000000">../util/iShape.hxx</text>
</a>
</g>
</g>
<!-- Node17&#45;&gt;Node18 -->
<g id="edge24" class="edge">
<title>Node17&#45;&gt;Node18</title>
<path fill="none" stroke="#191970" d="M875.9124,-224.2455C887.5057,-215.814 904.4748,-203.4729 917.9678,-193.6598"/>
<polygon fill="#191970" stroke="#191970" points="920.2126,-196.355 926.2413,-187.6427 916.0953,-190.6938 920.2126,-196.355"/>
</g>
<!-- Node19 -->
<g id="node20" class="node">
<title>Node19</title>
<g id="a_node20"><a xlink:href="Rectangle_8inl_8hxx.html" target="_top" xlink:title="Rectangle.inl.hxx">
<polygon fill="none" stroke="#000000" points="652,-168.5 652,-187.5 753,-187.5 753,-168.5 652,-168.5"/>
<text text-anchor="middle" x="702.5" y="-175.5" font-family="Helvetica,sans-Serif" font-size="10.00" fill="#000000">Rectangle.inl.hxx</text>
</a>
</g>
</g>
<!-- Node17&#45;&gt;Node19 -->
<g id="edge25" class="edge">
<title>Node17&#45;&gt;Node19</title>
<path fill="none" stroke="#191970" d="M834.995,-224.3733C808.6198,-215.1419 768.6149,-201.1402 739.4642,-190.9375"/>
<polygon fill="#191970" stroke="#191970" points="740.2409,-187.5012 729.6461,-187.5011 737.9284,-194.1082 740.2409,-187.5012"/>
</g>
<!-- Node20 -->
<g id="node21" class="node">
<title>Node20</title>
<polygon fill="none" stroke="#bfbfbf" points="670.5,-56.5 670.5,-75.5 734.5,-75.5 734.5,-56.5 670.5,-56.5"/>
<text text-anchor="middle" x="702.5" y="-63.5" font-family="Helvetica,sans-Serif" font-size="10.00" fill="#000000">algorithm</text>
</g>
<!-- Node19&#45;&gt;Node20 -->
<g id="edge26" class="edge">
<title>Node19&#45;&gt;Node20</title>
<path fill="none" stroke="#191970" d="M702.5,-168.4509C702.5,-150.184 702.5,-109.9553 702.5,-85.6976"/>
<polygon fill="#191970" stroke="#191970" points="706.0001,-85.5249 702.5,-75.5249 699.0001,-85.5249 706.0001,-85.5249"/>
</g>
<!-- Node21 -->
<g id="node22" class="node">
<title>Node21</title>
<g id="a_node22"><a xlink:href="LOG_8hxx.html" target="_top" xlink:title="LOG.hxx">
<polygon fill="none" stroke="#000000" points="443.5,-112.5 443.5,-131.5 501.5,-131.5 501.5,-112.5 443.5,-112.5"/>
<text text-anchor="middle" x="472.5" y="-119.5" font-family="Helvetica,sans-Serif" font-size="10.00" fill="#000000">LOG.hxx</text>
</a>
</g>
</g>
<!-- Node19&#45;&gt;Node21 -->
<g id="edge27" class="edge">
<title>Node19&#45;&gt;Node21</title>
<path fill="none" stroke="#191970" d="M663.2229,-168.4369C620.908,-158.1341 553.9703,-141.8362 511.6894,-131.5418"/>
<polygon fill="#191970" stroke="#191970" points="512.3056,-128.0896 501.7614,-129.1245 510.6496,-134.8909 512.3056,-128.0896"/>
</g>
<!-- Node21&#45;&gt;Node7 -->
<g id="edge40" class="edge">
<title>Node21&#45;&gt;Node7</title>
<path fill="none" stroke="#191970" d="M501.6742,-120.1047C626.2081,-112.0143 1114.4198,-80.2976 1279.5616,-69.5691"/>
<polygon fill="#191970" stroke="#191970" points="1280.2127,-73.0343 1289.9647,-68.8932 1279.7588,-66.049 1280.2127,-73.0343"/>
</g>
<!-- Node21&#45;&gt;Node8 -->
<g id="edge32" class="edge">
<title>Node21&#45;&gt;Node8</title>
<path fill="none" stroke="#191970" d="M443.295,-119.7998C369.7926,-113.9677 181.6947,-97.1038 163.5,-76 157.6958,-69.2677 157.4367,-62.4999 163.5,-56 184.7457,-33.2244 643.262,-16.0583 783.8711,-11.3146"/>
<polygon fill="#191970" stroke="#191970" points="784.3225,-14.8015 794.1999,-10.9692 784.0885,-7.8054 784.3225,-14.8015"/>
</g>
<!-- Node21&#45;&gt;Node20 -->
<g id="edge38" class="edge">
<title>Node21&#45;&gt;Node20</title>
<path fill="none" stroke="#191970" d="M501.6297,-114.9076C541.749,-105.1394 614.263,-87.4838 660.314,-76.2714"/>
<polygon fill="#191970" stroke="#191970" points="661.3948,-79.6105 670.283,-73.8441 659.7388,-72.8092 661.3948,-79.6105"/>
</g>
<!-- Node22 -->
<g id="node23" class="node">
<title>Node22</title>
<polygon fill="none" stroke="#bfbfbf" points="752.5,-56.5 752.5,-75.5 796.5,-75.5 796.5,-56.5 752.5,-56.5"/>
<text text-anchor="middle" x="774.5" y="-63.5" font-family="Helvetica,sans-Serif" font-size="10.00" fill="#000000">string</text>
</g>
<!-- Node21&#45;&gt;Node22 -->
<g id="edge28" class="edge">
<title>Node21&#45;&gt;Node22</title>
<path fill="none" stroke="#191970" d="M501.6575,-118.4522C549.9056,-112.2812 649.4768,-98.278 742.4188,-75.9946"/>
<polygon fill="#191970" stroke="#191970" points="743.3713,-79.3651 752.2588,-73.5977 741.7145,-72.5639 743.3713,-79.3651"/>
</g>
<!-- Node23 -->
<g id="node24" class="node">
<title>Node23</title>
<g id="a_node24"><a xlink:href="Exception_8hxx.html" target="_top" xlink:title="Exception.hxx">
<polygon fill="none" stroke="#000000" points="30.5,-56.5 30.5,-75.5 116.5,-75.5 116.5,-56.5 30.5,-56.5"/>
<text text-anchor="middle" x="73.5" y="-63.5" font-family="Helvetica,sans-Serif" font-size="10.00" fill="#000000">Exception.hxx</text>
</a>
</g>
</g>
<!-- Node21&#45;&gt;Node23 -->
<g id="edge29" class="edge">
<title>Node21&#45;&gt;Node23</title>
<path fill="none" stroke="#191970" d="M443.1643,-118.4555C383.9514,-111.2126 245.9469,-93.8836 130.5,-76 129.2434,-75.8053 127.9718,-75.6055 126.6896,-75.4014"/>
<polygon fill="#191970" stroke="#191970" points="127.164,-71.9326 116.7299,-73.7711 126.0332,-78.8407 127.164,-71.9326"/>
</g>
<!-- Node26 -->
<g id="node27" class="node">
<title>Node26</title>
<polygon fill="none" stroke="#bfbfbf" points="172.5,-56.5 172.5,-75.5 222.5,-75.5 222.5,-56.5 172.5,-56.5"/>
<text text-anchor="middle" x="197.5" y="-63.5" font-family="Helvetica,sans-Serif" font-size="10.00" fill="#000000">chrono</text>
</g>
<!-- Node21&#45;&gt;Node26 -->
<g id="edge33" class="edge">
<title>Node21&#45;&gt;Node26</title>
<path fill="none" stroke="#191970" d="M443.3684,-117.3825C399.6388,-110.2479 314.2741,-95.5352 232.6143,-76.0959"/>
<polygon fill="#191970" stroke="#191970" points="233.2189,-72.6415 222.6773,-73.702 231.5794,-79.4468 233.2189,-72.6415"/>
</g>
<!-- Node27 -->
<g id="node28" class="node">
<title>Node27</title>
<polygon fill="none" stroke="#bfbfbf" points="240.5,-56.5 240.5,-75.5 284.5,-75.5 284.5,-56.5 240.5,-56.5"/>
<text text-anchor="middle" x="262.5" y="-63.5" font-family="Helvetica,sans-Serif" font-size="10.00" fill="#000000">ctime</text>
</g>
<!-- Node21&#45;&gt;Node27 -->
<g id="edge34" class="edge">
<title>Node21&#45;&gt;Node27</title>
<path fill="none" stroke="#191970" d="M443.2088,-115.0494C409.514,-106.9282 352.3342,-92.7639 294.4681,-76.1661"/>
<polygon fill="#191970" stroke="#191970" points="295.3801,-72.7864 284.8014,-73.372 293.4363,-79.5112 295.3801,-72.7864"/>
</g>
<!-- Node28 -->
<g id="node29" class="node">
<title>Node28</title>
<polygon fill="none" stroke="#bfbfbf" points="303,-56.5 303,-75.5 358,-75.5 358,-56.5 303,-56.5"/>
<text text-anchor="middle" x="330.5" y="-63.5" font-family="Helvetica,sans-Serif" font-size="10.00" fill="#000000">fstream</text>
</g>
<!-- Node21&#45;&gt;Node28 -->
<g id="edge35" class="edge">
<title>Node21&#45;&gt;Node28</title>
<path fill="none" stroke="#191970" d="M448.0893,-112.3733C424.8858,-103.2226 389.7962,-89.3844 363.9858,-79.2057"/>
<polygon fill="#191970" stroke="#191970" points="365.1789,-75.9139 354.5921,-75.5011 362.6108,-82.4258 365.1789,-75.9139"/>
</g>
<!-- Node29 -->
<g id="node30" class="node">
<title>Node29</title>
<polygon fill="none" stroke="#bfbfbf" points="376.5,-56.5 376.5,-75.5 432.5,-75.5 432.5,-56.5 376.5,-56.5"/>
<text text-anchor="middle" x="404.5" y="-63.5" font-family="Helvetica,sans-Serif" font-size="10.00" fill="#000000">sstream</text>
</g>
<!-- Node21&#45;&gt;Node29 -->
<g id="edge36" class="edge">
<title>Node21&#45;&gt;Node29</title>
<path fill="none" stroke="#191970" d="M460.6553,-112.2455C450.612,-103.9746 436.0005,-91.9416 424.1996,-82.2232"/>
<polygon fill="#191970" stroke="#191970" points="426.1533,-79.298 416.209,-75.6427 421.7033,-84.7015 426.1533,-79.298"/>
</g>
<!-- Node30 -->
<g id="node31" class="node">
<title>Node30</title>
<polygon fill="none" stroke="#bfbfbf" points="450.5,-56.5 450.5,-75.5 494.5,-75.5 494.5,-56.5 450.5,-56.5"/>
<text text-anchor="middle" x="472.5" y="-63.5" font-family="Helvetica,sans-Serif" font-size="10.00" fill="#000000">SDL.h</text>
</g>
<!-- Node21&#45;&gt;Node30 -->
<g id="edge37" class="edge">
<title>Node21&#45;&gt;Node30</title>
<path fill="none" stroke="#191970" d="M472.5,-112.2455C472.5,-104.9382 472.5,-94.6944 472.5,-85.7046"/>
<polygon fill="#191970" stroke="#191970" points="476.0001,-85.6426 472.5,-75.6427 469.0001,-85.6427 476.0001,-85.6426"/>
</g>
<!-- Node31 -->
<g id="node32" class="node">
<title>Node31</title>
<polygon fill="none" stroke="#bfbfbf" points="512.5,-56.5 512.5,-75.5 560.5,-75.5 560.5,-56.5 512.5,-56.5"/>
<text text-anchor="middle" x="536.5" y="-63.5" font-family="Helvetica,sans-Serif" font-size="10.00" fill="#000000">mutex</text>
</g>
<!-- Node21&#45;&gt;Node31 -->
<g id="edge39" class="edge">
<title>Node21&#45;&gt;Node31</title>
<path fill="none" stroke="#191970" d="M483.6479,-112.2455C493.0087,-104.0549 506.5858,-92.1749 517.6349,-82.5069"/>
<polygon fill="#191970" stroke="#191970" points="520.2588,-84.8618 525.4798,-75.6427 515.6492,-79.5937 520.2588,-84.8618"/>
</g>
<!-- Node32 -->
<g id="node33" class="node">
<title>Node32</title>
<g id="a_node33"><a xlink:href="LOG_8inl_8hxx.html" target="_top" xlink:title="LOG.inl.hxx">
<polygon fill="none" stroke="#000000" points="579,-56.5 579,-75.5 652,-75.5 652,-56.5 579,-56.5"/>
<text text-anchor="middle" x="615.5" y="-63.5" font-family="Helvetica,sans-Serif" font-size="10.00" fill="#000000">LOG.inl.hxx</text>
</a>
</g>
</g>
<!-- Node21&#45;&gt;Node32 -->
<g id="edge41" class="edge">
<title>Node21&#45;&gt;Node32</title>
<path fill="none" stroke="#191970" d="M497.0826,-112.3733C520.4496,-103.2226 555.7862,-89.3844 581.7784,-79.2057"/>
<polygon fill="#191970" stroke="#191970" points="583.203,-82.4066 591.2382,-75.5011 580.6505,-75.8886 583.203,-82.4066"/>
</g>
<!-- Node24 -->
<g id="node25" class="node">
<title>Node24</title>
<polygon fill="none" stroke="#bfbfbf" points="0,-.5 0,-19.5 65,-19.5 65,-.5 0,-.5"/>
<text text-anchor="middle" x="32.5" y="-7.5" font-family="Helvetica,sans-Serif" font-size="10.00" fill="#000000">stdexcept</text>
</g>
<!-- Node23&#45;&gt;Node24 -->
<g id="edge30" class="edge">
<title>Node23&#45;&gt;Node24</title>
<path fill="none" stroke="#191970" d="M66.3583,-56.2455C60.6556,-48.4564 52.51,-37.3308 45.6375,-27.9439"/>
<polygon fill="#191970" stroke="#191970" points="48.2913,-25.6437 39.5598,-19.6427 42.6432,-29.7789 48.2913,-25.6437"/>
</g>
<!-- Node25 -->
<g id="node26" class="node">
<title>Node25</title>
<polygon fill="none" stroke="#bfbfbf" points="83,-.5 83,-19.5 148,-19.5 148,-.5 83,-.5"/>
<text text-anchor="middle" x="115.5" y="-7.5" font-family="Helvetica,sans-Serif" font-size="10.00" fill="#000000">exception</text>
</g>
<!-- Node23&#45;&gt;Node25 -->
<g id="edge31" class="edge">
<title>Node23&#45;&gt;Node25</title>
<path fill="none" stroke="#191970" d="M80.8158,-56.2455C86.7179,-48.3761 95.1742,-37.101 102.2594,-27.6542"/>
<polygon fill="#191970" stroke="#191970" points="105.068,-29.7427 108.268,-19.6427 99.4679,-25.5427 105.068,-29.7427"/>
</g>
<!-- Node34 -->
<g id="node35" class="node">
<title>Node34</title>
<g id="a_node35"><a xlink:href="Events_8hxx.html" target="_top" xlink:title="Events.hxx">
<polygon fill="none" stroke="#000000" points="1728,-280.5 1728,-299.5 1799,-299.5 1799,-280.5 1728,-280.5"/>
<text text-anchor="middle" x="1763.5" y="-287.5" font-family="Helvetica,sans-Serif" font-size="10.00" fill="#000000">Events.hxx</text>
</a>
</g>
</g>
<!-- Node33&#45;&gt;Node34 -->
<g id="edge45" class="edge">
<title>Node33&#45;&gt;Node34</title>
<path fill="none" stroke="#191970" d="M1669.9254,-336.3733C1687.9021,-327.4644 1714.8441,-314.1127 1735.209,-304.0203"/>
<polygon fill="#191970" stroke="#191970" points="1736.9222,-307.0776 1744.3281,-299.5011 1733.8139,-300.8055 1736.9222,-307.0776"/>
</g>
<!-- Node39 -->
<g id="node40" class="node">
<title>Node39</title>
<g id="a_node40"><a xlink:href="GameService_8inl_8hxx.html" target="_top" xlink:title="GameService.inl.hxx">
<polygon fill="none" stroke="#000000" points="1591.5,-280.5 1591.5,-299.5 1709.5,-299.5 1709.5,-280.5 1591.5,-280.5"/>
<text text-anchor="middle" x="1650.5" y="-287.5" font-family="Helvetica,sans-Serif" font-size="10.00" fill="#000000">GameService.inl.hxx</text>
</a>
</g>
</g>
<!-- Node33&#45;&gt;Node39 -->
<g id="edge57" class="edge">
<title>Node33&#45;&gt;Node39</title>
<path fill="none" stroke="#191970" d="M1650.5,-336.2455C1650.5,-328.9382 1650.5,-318.6944 1650.5,-309.7046"/>
<polygon fill="#191970" stroke="#191970" points="1654.0001,-309.6426 1650.5,-299.6427 1647.0001,-309.6427 1654.0001,-309.6426"/>
</g>
<!-- Node34&#45;&gt;Node2 -->
<g id="edge47" class="edge">
<title>Node34&#45;&gt;Node2</title>
<path fill="none" stroke="#191970" d="M1799.0787,-283.6803C1848.6622,-272.967 1937.9099,-246.4286 1986.5,-188 1997.3286,-174.9789 2001.99,-156.0906 2003.9943,-141.8535"/>
<polygon fill="#191970" stroke="#191970" points="2007.504,-141.952 2005.0991,-131.6337 2000.5445,-141.1996 2007.504,-141.952"/>
</g>
<!-- Node34&#45;&gt;Node7 -->
<g id="edge48" class="edge">
<title>Node34&#45;&gt;Node7</title>
<path fill="none" stroke="#191970" d="M1757.8874,-280.3479C1752.7005,-271.1875 1744.9892,-256.9356 1739.5,-244 1715.3432,-187.0733 1743.2767,-151.263 1695.5,-112 1672.2757,-92.9143 1484.0673,-76.783 1389.0151,-69.7616"/>
<polygon fill="#191970" stroke="#191970" points="1389.2368,-66.2685 1379.0083,-69.0306 1388.7268,-73.2499 1389.2368,-66.2685"/>
</g>
<!-- Node34&#45;&gt;Node22 -->
<g id="edge46" class="edge">
<title>Node34&#45;&gt;Node22</title>
<path fill="none" stroke="#191970" d="M1756.196,-280.3314C1736.8268,-254.8346 1684.1571,-186.4636 1662.5,-168 1625.2027,-136.2025 1614.3906,-126.2635 1567.5,-112 1493.8844,-89.6071 945.8941,-71.2962 806.6193,-66.9699"/>
<polygon fill="#191970" stroke="#191970" points="806.685,-63.4703 796.5819,-66.6604 806.4692,-70.467 806.685,-63.4703"/>
</g>
<!-- Node35 -->
<g id="node36" class="node">
<title>Node35</title>
<g id="a_node36"><a xlink:href="UIEvents_8hxx.html" target="_top" xlink:title="events/UIEvents.hxx">
<polygon fill="none" stroke="#000000" points="1748,-224.5 1748,-243.5 1865,-243.5 1865,-224.5 1748,-224.5"/>
<text text-anchor="middle" x="1806.5" y="-231.5" font-family="Helvetica,sans-Serif" font-size="10.00" fill="#000000">events/UIEvents.hxx</text>
</a>
</g>
</g>
<!-- Node34&#45;&gt;Node35 -->
<g id="edge49" class="edge">
<title>Node34&#45;&gt;Node35</title>
<path fill="none" stroke="#191970" d="M1770.99,-280.2455C1777.0326,-272.3761 1785.6903,-261.101 1792.9441,-251.6542"/>
<polygon fill="#191970" stroke="#191970" points="1795.7815,-253.7058 1799.0958,-243.6427 1790.2295,-249.4426 1795.7815,-253.7058"/>
</g>
<!-- Node36 -->
<g id="node37" class="node">
<title>Node36</title>
<polygon fill="none" stroke="#bfbfbf" points="1748,-168.5 1748,-187.5 1813,-187.5 1813,-168.5 1748,-168.5"/>
<text text-anchor="middle" x="1780.5" y="-175.5" font-family="Helvetica,sans-Serif" font-size="10.00" fill="#000000">functional</text>
</g>
<!-- Node35&#45;&gt;Node36 -->
<g id="edge50" class="edge">
<title>Node35&#45;&gt;Node36</title>
<path fill="none" stroke="#191970" d="M1801.9711,-224.2455C1798.4666,-216.6973 1793.5073,-206.0158 1789.2377,-196.8197"/>
<polygon fill="#191970" stroke="#191970" points="1792.3627,-195.2389 1784.977,-187.6427 1786.0136,-198.1867 1792.3627,-195.2389"/>
</g>
<!-- Node35&#45;&gt;Node37 -->
<g id="edge51" class="edge">
<title>Node35&#45;&gt;Node37</title>
<path fill="none" stroke="#191970" d="M1823.5703,-224.2455C1838.747,-215.5731 1861.1621,-202.7645 1878.5563,-192.825"/>
<polygon fill="#191970" stroke="#191970" points="1880.6794,-195.643 1887.6253,-187.6427 1877.2064,-189.5653 1880.6794,-195.643"/>
</g>
<!-- Node38 -->
<g id="node39" class="node">
<title>Node38</title>
<g id="a_node39"><a xlink:href="Observer_8hxx.html" target="_top" xlink:title="../util/Observer.hxx">
<polygon fill="none" stroke="#000000" points="1544,-168.5 1544,-187.5 1653,-187.5 1653,-168.5 1544,-168.5"/>
<text text-anchor="middle" x="1598.5" y="-175.5" font-family="Helvetica,sans-Serif" font-size="10.00" fill="#000000">../util/Observer.hxx</text>
</a>
</g>
</g>
<!-- Node35&#45;&gt;Node38 -->
<g id="edge53" class="edge">
<title>Node35&#45;&gt;Node38</title>
<path fill="none" stroke="#191970" d="M1770.7435,-224.3733C1735.5574,-214.9001 1681.7119,-200.4032 1643.6044,-190.1435"/>
<polygon fill="#191970" stroke="#191970" points="1644.356,-186.7213 1633.7899,-187.5011 1642.5361,-193.4806 1644.356,-186.7213"/>
</g>
<!-- Node37&#45;&gt;Node2 -->
<g id="edge52" class="edge">
<title>Node37&#45;&gt;Node2</title>
<path fill="none" stroke="#191970" d="M1922.0929,-168.2455C1937.879,-159.4928 1961.2639,-146.527 1979.2587,-136.5496"/>
<polygon fill="#191970" stroke="#191970" points="1981.0603,-139.5528 1988.1087,-131.6427 1977.6659,-133.4308 1981.0603,-139.5528"/>
</g>
<!-- Node38&#45;&gt;Node1 -->
<g id="edge55" class="edge">
<title>Node38&#45;&gt;Node1</title>
<path fill="none" stroke="#191970" d="M1543.8684,-171.9538C1441.1177,-160.5822 1221.3837,-136.2638 1131.7714,-126.3462"/>
<polygon fill="#191970" stroke="#191970" points="1132.0787,-122.859 1121.7544,-125.2376 1131.3087,-129.8165 1132.0787,-122.859"/>
</g>
<!-- Node38&#45;&gt;Node4 -->
<g id="edge54" class="edge">
<title>Node38&#45;&gt;Node4</title>
<path fill="none" stroke="#191970" d="M1587.3521,-168.2455C1577.9913,-160.0549 1564.4142,-148.1749 1553.3651,-138.5069"/>
<polygon fill="#191970" stroke="#191970" points="1555.3508,-135.5937 1545.5202,-131.6427 1550.7412,-140.8618 1555.3508,-135.5937"/>
</g>
<!-- Node38&#45;&gt;Node7 -->
<g id="edge56" class="edge">
<title>Node38&#45;&gt;Node7</title>
<path fill="none" stroke="#191970" d="M1596.7775,-168.2C1593.6641,-153.5599 1585.6547,-126.1862 1567.5,-112 1540.3193,-90.7608 1449.1345,-77.6347 1389.2223,-71.0894"/>
<polygon fill="#191970" stroke="#191970" points="1389.4708,-67.5962 1379.1568,-70.0192 1388.7307,-74.557 1389.4708,-67.5962"/>
</g>
<!-- Node40&#45;&gt;Node1 -->
<g id="edge59" class="edge">
<title>Node40&#45;&gt;Node1</title>
<path fill="none" stroke="#191970" d="M971.6596,-336.3591C978.2767,-308.315 1000.3009,-225.1451 1040.5,-168 1048.6268,-156.4473 1060.2098,-145.8322 1070.3817,-137.7172"/>
<polygon fill="#191970" stroke="#191970" points="1072.6671,-140.3758 1078.4875,-131.5229 1068.4167,-134.8139 1072.6671,-140.3758"/>
</g>
</g>
</svg>
        <g id="navigator" transform="translate(0 0)" fill="#404254">
                <rect fill="#f2f5e9" fill-opacity="0.5" stroke="#606060" stroke-width=".5" x="0" y="0" width="60" height="60"/>
                <use id="zoomplus" xlink:href="#zoomPlus" x="17" y="9" onmousedown="handleZoom(evt,'in')"/>
                <use id="zoomminus" xlink:href="#zoomMin" x="42" y="9" onmousedown="handleZoom(evt,'out')"/>
                <use id="reset" xlink:href="#resetDef" x="30" y="36" onmousedown="handleReset()"/>
                <g id="arrowUp" xlink:href="#dirArrow" transform="translate(30 24)" onmousedown="handlePan(0,-1)">
                  <use xlink:href="#rim" fill="#404040">
                        <set attributeName="fill" to="#808080" begin="arrowUp.mouseover" end="arrowUp.mouseout"/>
                  </use>
                  <path fill="none" stroke="white" stroke-width="1.5" d="M0,-3.0v7 M-2.5,-0.5L0,-3.0L2.5,-0.5"/>
                </g>
                <g id="arrowRight" xlink:href="#dirArrow" transform="rotate(90) translate(36 -43)" onmousedown="handlePan(1,0)">
                  <use xlink:href="#rim" fill="#404040">
                        <set attributeName="fill" to="#808080" begin="arrowRight.mouseover" end="arrowRight.mouseout"/>
                  </use>
                  <path fill="none" stroke="white" stroke-width="1.5" d="M0,-3.0v7 M-2.5,-0.5L0,-3.0L2.5,-0.5"/>
                </g>
                <g id="arrowDown" xlink:href="#dirArrow" transform="rotate(180) translate(-30 -48)" onmousedown="handlePan(0,1)">
                  <use xlink:href="#rim" fill="#404040">
                        <set attributeName="fill" to="#808080" begin="arrowDown.mouseover" end="arrowDown.mouseout"/>
                  </use>
                  <path fill="none" stroke="white" stroke-width="1.5" d="M0,-3.0v7 M-2.5,-0.5L0,-3.0L2.5,-0.5"/>
                </g>
                <g id="arrowLeft" xlink:href="#dirArrow" transform="rotate(270) translate(-36 17)" onmousedown="handlePan(-1,0)">
                  <use xlink:href="#rim" fill="#404040">
                        <set attributeName="fill" to="#808080" begin="arrowLeft.mouseover" end="arrowLeft.mouseout"/>
                  </use>
                  <path fill="none" stroke="white" stroke-width="1.5" d="M0,-3.0v7 M-2.5,-0.5L0,-3.0L2.5,-0.5"/>
                </g>
        </g>
        <svg viewBox="0 0 15 15" width="100%" height="30px" preserveAspectRatio="xMaxYMin meet">
         <g id="arrow_out" transform="scale(0.3 0.3)">
          <a xlink:href="iActivity_8hxx__incl_org.svg" target="_base">
           <rect id="button" ry="5" rx="5" y="6" x="6" height="38" width="38"
                fill="#f2f5e9" fill-opacity="0.5" stroke="#606060" stroke-width="1.0"/>
           <path id="arrow"
             d="M 11.500037,31.436501 C 11.940474,20.09759 22.043105,11.32322 32.158766,21.979434 L 37.068811,17.246167 C 37.068811,17.246167 37.088388,32 37.088388,32 L 22.160133,31.978069 C 22.160133,31.978069 26.997745,27.140456 26.997745,27.140456 C 18.528582,18.264221 13.291696,25.230495 11.500037,31.436501 z"
             style="fill:#404040;"/>
          </a>
         </g>
        </svg>
</svg>
