<?xml version="1.0" encoding="UTF-8" standalone="no"?>
<!DOCTYPE svg PUBLIC "-//W3C//DTD SVG 1.1//EN"
 "http://www.w3.org/Graphics/SVG/1.1/DTD/svg11.dtd">
<!-- Generated by graphviz version 2.40.1 (20161225.0304)
 -->
<!-- Title: src/layout/iLayout.hxx Pages: 1 -->
<!--zoomable 252 -->
<svg id="main" version="1.1" xmlns="http://www.w3.org/2000/svg" xmlns:xlink="http://www.w3.org/1999/xlink" xml:space="preserve" onload="init(evt)">
<style type="text/css"><![CDATA[
.edge:hover path { stroke: red; }
.edge:hover polygon { stroke: red; fill: red; }
]]></style>
<script type="text/javascript"><![CDATA[
var edges = document.getElementsByTagName('g');
if (edges && edges.length) {
  for (var i=0;i<edges.length;i++) {
    if (edges[i].id.substr(0,4)=='edge') {
      edges[i].setAttribute('class','edge');
    }
  }
}
]]></script>
        <defs>
                <circle id="rim" cx="0" cy="0" r="7"/>
                <circle id="rim2" cx="0" cy="0" r="3.5"/>
                <g id="zoomPlus">
                        <use xlink:href="#rim" fill="#404040">
                                <set attributeName="fill" to="#808080" begin="zoomplus.mouseover" end="zoomplus.mouseout"/>
                        </use>
                        <path d="M-4,0h8M0,-4v8" fill="none" stroke="white" stroke-width="1.5" pointer-events="none"/>
                </g>
                <g id="zoomMin">
                        <use xlink:href="#rim" fill="#404040">
                                <set attributeName="fill" to="#808080" begin="zoomminus.mouseover" end="zoomminus.mouseout"/>
                        </use>
                        <path d="M-4,0h8" fill="none" stroke="white" stroke-width="1.5" pointer-events="none"/>
                </g>
                <g id="dirArrow">
                        <path fill="none" stroke="white" stroke-width="1.5" d="M0,-3.0v7 M-2.5,-0.5L0,-3.0L2.5,-0.5"/>
                </g>
               <g id="resetDef">
                       <use xlink:href="#rim2" fill="#404040">
                               <set attributeName="fill" to="#808080" begin="reset.mouseover" end="reset.mouseout"/>
                       </use>
               </g>
        </defs>

<script type="text/javascript">
var viewWidth = 877;
var viewHeight = 252;
var sectionId = 'dynsection-1';
</script>
<script xlink:href="svgpan.js"/>
<svg id="graph" class="graph">
<g id="viewport">
<title>src/layout/iLayout.hxx</title>
<!-- Node31 -->
<g id="node1" class="node">
<title>Node31</title>
<polygon fill="#bfbfbf" stroke="#000000" points="237,-224.5 237,-243.5 362,-243.5 362,-224.5 237,-224.5"/>
<text text-anchor="middle" x="299.5" y="-231.5" font-family="Helvetica,sans-Serif" font-size="10.00" fill="#000000">src/layout/iLayout.hxx</text>
</g>
<!-- Node32 -->
<g id="node2" class="node">
<title>Node32</title>
<g id="a_node2"><a xlink:href="iActivity_8hxx.html" target="_top" xlink:title="src/activity/iActivity.hxx">
<polygon fill="none" stroke="#000000" points="159.5,-168.5 159.5,-187.5 293.5,-187.5 293.5,-168.5 159.5,-168.5"/>
<text text-anchor="middle" x="226.5" y="-175.5" font-family="Helvetica,sans-Serif" font-size="10.00" fill="#000000">src/activity/iActivity.hxx</text>
</a>
</g>
</g>
<!-- Node31&#45;&gt;Node32 -->
<g id="edge1" class="edge">
<title>Node31&#45;&gt;Node32</title>
<path fill="none" stroke="#191970" d="M278.549,-217.928C265.7893,-208.1397 249.9115,-195.9595 239.0699,-187.6427"/>
<polygon fill="#191970" stroke="#191970" points="276.7197,-220.9359 286.7844,-224.2455 280.9804,-215.3819 276.7197,-220.9359"/>
</g>
<!-- Node42 -->
<g id="node12" class="node">
<title>Node42</title>
<g id="a_node12"><a xlink:href="iLayout_8cxx.html" target="_top" xlink:title="src/layout/iLayout.cxx">
<polygon fill="none" stroke="#000000" points="311.5,-168.5 311.5,-187.5 435.5,-187.5 435.5,-168.5 311.5,-168.5"/>
<text text-anchor="middle" x="373.5" y="-175.5" font-family="Helvetica,sans-Serif" font-size="10.00" fill="#000000">src/layout/iLayout.cxx</text>
</a>
</g>
</g>
<!-- Node31&#45;&gt;Node42 -->
<g id="edge12" class="edge">
<title>Node31&#45;&gt;Node42</title>
<path fill="none" stroke="#191970" d="M320.3657,-218.2097C333.3625,-208.3743 349.6622,-196.0394 360.7579,-187.6427"/>
<polygon fill="#191970" stroke="#191970" points="318.2518,-215.4201 312.3898,-224.2455 322.476,-221.002 318.2518,-215.4201"/>
</g>
<!-- Node33 -->
<g id="node3" class="node">
<title>Node33</title>
<g id="a_node3"><a xlink:href="iActivity_8cxx.html" target="_top" xlink:title="src/activity/iActivity.cxx">
<polygon fill="none" stroke="#000000" points="0,-56.5 0,-75.5 133,-75.5 133,-56.5 0,-56.5"/>
<text text-anchor="middle" x="66.5" y="-63.5" font-family="Helvetica,sans-Serif" font-size="10.00" fill="#000000">src/activity/iActivity.cxx</text>
</a>
</g>
</g>
<!-- Node32&#45;&gt;Node33 -->
<g id="edge2" class="edge">
<title>Node32&#45;&gt;Node33</title>
<path fill="none" stroke="#191970" d="M204.6161,-162.6813C171.0474,-139.1832 107.8263,-94.9284 80.107,-75.5249"/>
<polygon fill="#191970" stroke="#191970" points="202.659,-165.5836 212.8585,-168.4509 206.6733,-159.849 202.659,-165.5836"/>
</g>
<!-- Node34 -->
<g id="node4" class="node">
<title>Node34</title>
<g id="a_node4"><a xlink:href="Window_8hxx.html" target="_top" xlink:title="src/view/Window.hxx">
<polygon fill="none" stroke="#000000" points="327,-112.5 327,-131.5 446,-131.5 446,-112.5 327,-112.5"/>
<text text-anchor="middle" x="386.5" y="-119.5" font-family="Helvetica,sans-Serif" font-size="10.00" fill="#000000">src/view/Window.hxx</text>
</a>
</g>
</g>
<!-- Node32&#45;&gt;Node34 -->
<g id="edge3" class="edge">
<title>Node32&#45;&gt;Node34</title>
<path fill="none" stroke="#191970" d="M263.4799,-165.057C292.7618,-154.8084 332.9885,-140.729 359.3539,-131.5011"/>
<polygon fill="#191970" stroke="#191970" points="262.2873,-161.7662 254.005,-168.3733 264.5998,-168.3732 262.2873,-161.7662"/>
</g>
<!-- Node34&#45;&gt;Node33 -->
<g id="edge4" class="edge">
<title>Node34&#45;&gt;Node33</title>
<path fill="none" stroke="#191970" d="M321.8926,-110.6937C262.8547,-100.3621 176.5241,-85.2542 120.921,-75.5237"/>
<polygon fill="#191970" stroke="#191970" points="321.4,-114.1606 331.8536,-112.4369 322.6067,-107.2654 321.4,-114.1606"/>
</g>
<!-- Node35 -->
<g id="node5" class="node">
<title>Node35</title>
<g id="a_node5"><a xlink:href="Camera_8cxx.html" target="_top" xlink:title="src/engine/basics/Camera.cxx">
<polygon fill="none" stroke="#000000" points="151.5,-56.5 151.5,-75.5 313.5,-75.5 313.5,-56.5 151.5,-56.5"/>
<text text-anchor="middle" x="232.5" y="-63.5" font-family="Helvetica,sans-Serif" font-size="10.00" fill="#000000">src/engine/basics/Camera.cxx</text>
</a>
</g>
</g>
<!-- Node34&#45;&gt;Node35 -->
<g id="edge5" class="edge">
<title>Node34&#45;&gt;Node35</title>
<path fill="none" stroke="#191970" d="M350.5386,-108.9231C322.3866,-98.686 283.8945,-84.6889 258.6281,-75.5011"/>
<polygon fill="#191970" stroke="#191970" points="349.4324,-112.245 360.0265,-112.3733 351.8246,-105.6665 349.4324,-112.245"/>
</g>
<!-- Node36 -->
<g id="node6" class="node">
<title>Node36</title>
<g id="a_node6"><a xlink:href="Map_8cxx.html" target="_top" xlink:title="src/engine/Map.cxx">
<polygon fill="none" stroke="#000000" points="331.5,-56.5 331.5,-75.5 441.5,-75.5 441.5,-56.5 331.5,-56.5"/>
<text text-anchor="middle" x="386.5" y="-63.5" font-family="Helvetica,sans-Serif" font-size="10.00" fill="#000000">src/engine/Map.cxx</text>
</a>
</g>
</g>
<!-- Node34&#45;&gt;Node36 -->
<g id="edge6" class="edge">
<title>Node34&#45;&gt;Node36</title>
<path fill="none" stroke="#191970" d="M386.5,-102.1575C386.5,-93.155 386.5,-82.9199 386.5,-75.6427"/>
<polygon fill="#191970" stroke="#191970" points="383.0001,-102.2455 386.5,-112.2455 390.0001,-102.2456 383.0001,-102.2455"/>
</g>
<!-- Node37 -->
<g id="node7" class="node">
<title>Node37</title>
<g id="a_node7"><a xlink:href="WindowManager_8cxx.html" target="_top" xlink:title="src/engine/WindowManager.cxx">
<polygon fill="none" stroke="#000000" points="459.5,-56.5 459.5,-75.5 629.5,-75.5 629.5,-56.5 459.5,-56.5"/>
<text text-anchor="middle" x="544.5" y="-63.5" font-family="Helvetica,sans-Serif" font-size="10.00" fill="#000000">src/engine/WindowManager.cxx</text>
</a>
</g>
</g>
<!-- Node34&#45;&gt;Node37 -->
<g id="edge7" class="edge">
<title>Node34&#45;&gt;Node37</title>
<path fill="none" stroke="#191970" d="M423.3955,-108.9231C452.2787,-98.686 491.7706,-84.6889 517.6933,-75.5011"/>
<polygon fill="#191970" stroke="#191970" points="421.9174,-105.7336 413.6612,-112.3733 424.2559,-112.3314 421.9174,-105.7336"/>
</g>
<!-- Node38 -->
<g id="node8" class="node">
<title>Node38</title>
<g id="a_node8"><a xlink:href="Game_8hxx.html" target="_top" xlink:title="src/Game.hxx">
<polygon fill="none" stroke="#000000" points="647.5,-56.5 647.5,-75.5 731.5,-75.5 731.5,-56.5 647.5,-56.5"/>
<text text-anchor="middle" x="689.5" y="-63.5" font-family="Helvetica,sans-Serif" font-size="10.00" fill="#000000">src/Game.hxx</text>
</a>
</g>
</g>
<!-- Node34&#45;&gt;Node38 -->
<g id="edge8" class="edge">
<title>Node34&#45;&gt;Node38</title>
<path fill="none" stroke="#191970" d="M450.0092,-110.644C500.9906,-101.471 574.3885,-88.1364 638.5,-76 641.4256,-75.4462 644.4443,-74.869 647.4837,-74.2836"/>
<polygon fill="#191970" stroke="#191970" points="449.3442,-107.2074 440.1212,-112.4215 450.5827,-114.0969 449.3442,-107.2074"/>
</g>
<!-- Node41 -->
<g id="node11" class="node">
<title>Node41</title>
<g id="a_node11"><a xlink:href="Window_8cxx.html" target="_top" xlink:title="src/view/Window.cxx">
<polygon fill="none" stroke="#000000" points="750,-56.5 750,-75.5 869,-75.5 869,-56.5 750,-56.5"/>
<text text-anchor="middle" x="809.5" y="-63.5" font-family="Helvetica,sans-Serif" font-size="10.00" fill="#000000">src/view/Window.cxx</text>
</a>
</g>
</g>
<!-- Node34&#45;&gt;Node41 -->
<g id="edge11" class="edge">
<title>Node34&#45;&gt;Node41</title>
<path fill="none" stroke="#191970" d="M456.2598,-113.2426C527.6859,-104.2039 641.8939,-89.5512 740.5,-76 743.4979,-75.588 746.5683,-75.1611 749.6685,-74.7262"/>
<polygon fill="#191970" stroke="#191970" points="455.5209,-109.8081 446.0389,-114.5347 456.3989,-116.7528 455.5209,-109.8081"/>
</g>
<!-- Node39 -->
<g id="node9" class="node">
<title>Node39</title>
<g id="a_node9"><a xlink:href="Game_8cxx.html" target="_top" xlink:title="src/Game.cxx">
<polygon fill="none" stroke="#000000" points="598,-.5 598,-19.5 681,-19.5 681,-.5 598,-.5"/>
<text text-anchor="middle" x="639.5" y="-7.5" font-family="Helvetica,sans-Serif" font-size="10.00" fill="#000000">src/Game.cxx</text>
</a>
</g>
</g>
<!-- Node38&#45;&gt;Node39 -->
<g id="edge9" class="edge">
<title>Node38&#45;&gt;Node39</title>
<path fill="none" stroke="#191970" d="M673.8753,-48.5004C665.3727,-38.9775 655.1782,-27.5596 648.1095,-19.6427"/>
<polygon fill="#191970" stroke="#191970" points="671.5197,-51.1172 680.7907,-56.2455 676.7413,-46.4551 671.5197,-51.1172"/>
</g>
<!-- Node40 -->
<g id="node10" class="node">
<title>Node40</title>
<g id="a_node10"><a xlink:href="main_8cxx.html" target="_top" xlink:title="src/main.cxx">
<polygon fill="none" stroke="#000000" points="699,-.5 699,-19.5 778,-19.5 778,-.5 699,-.5"/>
<text text-anchor="middle" x="738.5" y="-7.5" font-family="Helvetica,sans-Serif" font-size="10.00" fill="#000000">src/main.cxx</text>
</a>
</g>
</g>
<!-- Node38&#45;&gt;Node40 -->
<g id="edge10" class="edge">
<title>Node38&#45;&gt;Node40</title>
<path fill="none" stroke="#191970" d="M704.8122,-48.5004C713.1447,-38.9775 723.1353,-27.5596 730.0627,-19.6427"/>
<polygon fill="#191970" stroke="#191970" points="701.9862,-46.415 698.0351,-56.2455 707.2543,-51.0245 701.9862,-46.415"/>
</g>
</g>
</svg>
        <g id="navigator" transform="translate(0 0)" fill="#404254">
                <rect fill="#f2f5e9" fill-opacity="0.5" stroke="#606060" stroke-width=".5" x="0" y="0" width="60" height="60"/>
                <use id="zoomplus" xlink:href="#zoomPlus" x="17" y="9" onmousedown="handleZoom(evt,'in')"/>
                <use id="zoomminus" xlink:href="#zoomMin" x="42" y="9" onmousedown="handleZoom(evt,'out')"/>
                <use id="reset" xlink:href="#resetDef" x="30" y="36" onmousedown="handleReset()"/>
                <g id="arrowUp" xlink:href="#dirArrow" transform="translate(30 24)" onmousedown="handlePan(0,-1)">
                  <use xlink:href="#rim" fill="#404040">
                        <set attributeName="fill" to="#808080" begin="arrowUp.mouseover" end="arrowUp.mouseout"/>
                  </use>
                  <path fill="none" stroke="white" stroke-width="1.5" d="M0,-3.0v7 M-2.5,-0.5L0,-3.0L2.5,-0.5"/>
                </g>
                <g id="arrowRight" xlink:href="#dirArrow" transform="rotate(90) translate(36 -43)" onmousedown="handlePan(1,0)">
                  <use xlink:href="#rim" fill="#404040">
                        <set attributeName="fill" to="#808080" begin="arrowRight.mouseover" end="arrowRight.mouseout"/>
                  </use>
                  <path fill="none" stroke="white" stroke-width="1.5" d="M0,-3.0v7 M-2.5,-0.5L0,-3.0L2.5,-0.5"/>
                </g>
                <g id="arrowDown" xlink:href="#dirArrow" transform="rotate(180) translate(-30 -48)" onmousedown="handlePan(0,1)">
                  <use xlink:href="#rim" fill="#404040">
                        <set attributeName="fill" to="#808080" begin="arrowDown.mouseover" end="arrowDown.mouseout"/>
                  </use>
                  <path fill="none" stroke="white" stroke-width="1.5" d="M0,-3.0v7 M-2.5,-0.5L0,-3.0L2.5,-0.5"/>
                </g>
                <g id="arrowLeft" xlink:href="#dirArrow" transform="rotate(270) translate(-36 17)" onmousedown="handlePan(-1,0)">
                  <use xlink:href="#rim" fill="#404040">
                        <set attributeName="fill" to="#808080" begin="arrowLeft.mouseover" end="arrowLeft.mouseout"/>
                  </use>
                  <path fill="none" stroke="white" stroke-width="1.5" d="M0,-3.0v7 M-2.5,-0.5L0,-3.0L2.5,-0.5"/>
                </g>
        </g>
        <svg viewBox="0 0 15 15" width="100%" height="30px" preserveAspectRatio="xMaxYMin meet">
         <g id="arrow_out" transform="scale(0.3 0.3)">
          <a xlink:href="iLayout_8hxx__dep__incl_org.svg" target="_base">
           <rect id="button" ry="5" rx="5" y="6" x="6" height="38" width="38"
                fill="#f2f5e9" fill-opacity="0.5" stroke="#606060" stroke-width="1.0"/>
           <path id="arrow"
             d="M 11.500037,31.436501 C 11.940474,20.09759 22.043105,11.32322 32.158766,21.979434 L 37.068811,17.246167 C 37.068811,17.246167 37.088388,32 37.088388,32 L 22.160133,31.978069 C 22.160133,31.978069 26.997745,27.140456 26.997745,27.140456 C 18.528582,18.264221 13.291696,25.230495 11.500037,31.436501 z"
             style="fill:#404040;"/>
          </a>
         </g>
        </svg>
</svg>
