<?xml version="1.0" encoding="UTF-8" standalone="no"?>
<!DOCTYPE svg PUBLIC "-//W3C//DTD SVG 1.1//EN"
 "http://www.w3.org/Graphics/SVG/1.1/DTD/svg11.dtd">
<!-- Generated by graphviz version 2.40.1 (20161225.0304)
 -->
<!-- Title: src/model/iModel.cxx Pages: 1 -->
<svg width="128pt" height="140pt"
 viewBox="0.00 0.00 128.00 140.00" xmlns="http://www.w3.org/2000/svg" xmlns:xlink="http://www.w3.org/1999/xlink">
<g id="graph0" class="graph" transform="scale(1 1) rotate(0) translate(4 136)">
<title>src/model/iModel.cxx</title>
<!-- Node0 -->
<g id="node1" class="node">
<title>Node0</title>
<polygon fill="#bfbfbf" stroke="#000000" points="0,-112.5 0,-131.5 120,-131.5 120,-112.5 0,-112.5"/>
<text text-anchor="middle" x="60" y="-119.5" font-family="Helvetica,sans-Serif" font-size="10.00" fill="#000000">src/model/iModel.cxx</text>
</g>
<!-- Node1 -->
<g id="node2" class="node">
<title>Node1</title>
<g id="a_node2"><a xlink:href="iModel_8hxx.html" target="_top" xlink:title="iModel.hxx">
<polygon fill="none" stroke="#000000" points="25,-56.5 25,-75.5 95,-75.5 95,-56.5 25,-56.5"/>
<text text-anchor="middle" x="60" y="-63.5" font-family="Helvetica,sans-Serif" font-size="10.00" fill="#000000">iModel.hxx</text>
</a>
</g>
</g>
<!-- Node0&#45;&gt;Node1 -->
<g id="edge1" class="edge">
<title>Node0&#45;&gt;Node1</title>
<path fill="none" stroke="#191970" d="M60,-112.2455C60,-104.9382 60,-94.6944 60,-85.7046"/>
<polygon fill="#191970" stroke="#191970" points="63.5001,-85.6426 60,-75.6427 56.5001,-85.6427 63.5001,-85.6426"/>
</g>
<!-- Node2 -->
<g id="node3" class="node">
<title>Node2</title>
<polygon fill="none" stroke="#bfbfbf" points="31,-.5 31,-19.5 89,-19.5 89,-.5 31,-.5"/>
<text text-anchor="middle" x="60" y="-7.5" font-family="Helvetica,sans-Serif" font-size="10.00" fill="#000000">memory</text>
</g>
<!-- Node1&#45;&gt;Node2 -->
<g id="edge2" class="edge">
<title>Node1&#45;&gt;Node2</title>
<path fill="none" stroke="#191970" d="M60,-56.2455C60,-48.9382 60,-38.6944 60,-29.7046"/>
<polygon fill="#191970" stroke="#191970" points="63.5001,-29.6426 60,-19.6427 56.5001,-29.6427 63.5001,-29.6426"/>
</g>
</g>
</svg>
