<?xml version="1.0" encoding="UTF-8" standalone="no"?>
<!DOCTYPE svg PUBLIC "-//W3C//DTD SVG 1.1//EN"
 "http://www.w3.org/Graphics/SVG/1.1/DTD/svg11.dtd">
<!-- Generated by graphviz version 2.40.1 (20161225.0304)
 -->
<!-- Title: Graphical Class Hierarchy Pages: 1 -->
<svg width="490pt" height="116pt"
 viewBox="0.00 0.00 490.00 116.00" xmlns="http://www.w3.org/2000/svg" xmlns:xlink="http://www.w3.org/1999/xlink">
<g id="graph0" class="graph" transform="scale(1 1) rotate(0) translate(4 112)">
<title>Graphical Class Hierarchy</title>
<!-- Node174 -->
<g id="node1" class="node">
<title>Node174</title>
<polygon fill="none" stroke="#bfbfbf" points="0,-66.5 0,-85.5 89,-85.5 89,-66.5 0,-66.5"/>
<text text-anchor="middle" x="44.5" y="-73.5" font-family="Helvetica,sans-Serif" font-size="10.00" fill="#000000">DispatchPolicy</text>
</g>
<!-- Node175 -->
<g id="node2" class="node">
<title>Node175</title>
<g id="a_node2"><a xlink:href="classSubject.html" target="_top" xlink:title="Allows to notify Observers about events. ">
<polygon fill="none" stroke="#000000" points="125,-88.5 125,-107.5 301,-107.5 301,-88.5 125,-88.5"/>
<text text-anchor="middle" x="213" y="-95.5" font-family="Helvetica,sans-Serif" font-size="10.00" fill="#000000">Subject&lt; Data, DispatchPolicy &gt;</text>
</a>
</g>
</g>
<!-- Node174&#45;&gt;Node175 -->
<g id="edge1" class="edge">
<title>Node174&#45;&gt;Node175</title>
<path fill="none" stroke="#8b1a1a" d="M99.3684,-83.1638C112.3512,-84.8589 126.3983,-86.6929 140.0428,-88.4744"/>
<polygon fill="#8b1a1a" stroke="#8b1a1a" points="99.5815,-79.662 89.2125,-81.8378 98.6752,-86.6031 99.5815,-79.662"/>
</g>
<!-- Node176 -->
<g id="node3" class="node">
<title>Node176</title>
<g id="a_node3"><a xlink:href="classSubject.html" target="_top" xlink:title="Subject\&lt; Transition\l\&lt; Model \&gt; \&gt;">
<polygon fill="none" stroke="#000000" points="157.5,-39 157.5,-69 268.5,-69 268.5,-39 157.5,-39"/>
<text text-anchor="start" x="165.5" y="-57" font-family="Helvetica,sans-Serif" font-size="10.00" fill="#000000">Subject&lt; Transition</text>
<text text-anchor="middle" x="213" y="-46" font-family="Helvetica,sans-Serif" font-size="10.00" fill="#000000">&lt; Model &gt; &gt;</text>
</a>
</g>
</g>
<!-- Node174&#45;&gt;Node176 -->
<g id="edge2" class="edge">
<title>Node174&#45;&gt;Node176</title>
<path fill="none" stroke="#8b1a1a" d="M99.272,-68.8488C117.8325,-66.4254 138.5771,-63.7169 157.2155,-61.2834"/>
<polygon fill="#8b1a1a" stroke="#8b1a1a" points="98.6752,-65.3969 89.2125,-70.1622 99.5815,-72.338 98.6752,-65.3969"/>
</g>
<!-- Node0 -->
<g id="node4" class="node">
<title>Node0</title>
<g id="a_node4"><a xlink:href="classTransitiveModel.html" target="_top" xlink:title="TransitiveModel\&lt; Model \&gt;">
<polygon fill="none" stroke="#000000" points="337,-22.5 337,-41.5 482,-41.5 482,-22.5 337,-22.5"/>
<text text-anchor="middle" x="409.5" y="-29.5" font-family="Helvetica,sans-Serif" font-size="10.00" fill="#000000">TransitiveModel&lt; Model &gt;</text>
</a>
</g>
</g>
<!-- Node176&#45;&gt;Node0 -->
<g id="edge3" class="edge">
<title>Node176&#45;&gt;Node0</title>
<path fill="none" stroke="#191970" d="M278.6912,-46.6453C297.3609,-44.555 317.7991,-42.2668 336.8557,-40.1332"/>
<polygon fill="#191970" stroke="#191970" points="278.0696,-43.1929 268.5211,-47.7839 278.8485,-50.1494 278.0696,-43.1929"/>
</g>
<!-- Node126 -->
<g id="node5" class="node">
<title>Node126</title>
<polygon fill="none" stroke="#bfbfbf" points="190,-.5 190,-19.5 236,-19.5 236,-.5 190,-.5"/>
<text text-anchor="middle" x="213" y="-7.5" font-family="Helvetica,sans-Serif" font-size="10.00" fill="#000000">Model</text>
</g>
<!-- Node126&#45;&gt;Node0 -->
<g id="edge4" class="edge">
<title>Node126&#45;&gt;Node0</title>
<path fill="none" stroke="#006400" d="M246.2664,-13.7245C271.0084,-16.4946 305.7186,-20.3807 336.7734,-23.8576"/>
<polygon fill="#006400" stroke="#006400" points="246.6401,-10.2445 236.3128,-12.6101 245.8612,-17.2011 246.6401,-10.2445"/>
</g>
</g>
</svg>
