<?xml version="1.0" encoding="UTF-8" standalone="no"?>
<!DOCTYPE svg PUBLIC "-//W3C//DTD SVG 1.1//EN"
 "http://www.w3.org/Graphics/SVG/1.1/DTD/svg11.dtd">
<!-- Generated by graphviz version 2.40.1 (20161225.0304)
 -->
<!-- Title: Graphical Class Hierarchy Pages: 1 -->
<svg width="240pt" height="66pt"
 viewBox="0.00 0.00 240.00 66.00" xmlns="http://www.w3.org/2000/svg" xmlns:xlink="http://www.w3.org/1999/xlink">
<g id="graph0" class="graph" transform="scale(1 1) rotate(0) translate(4 62)">
<title>Graphical Class Hierarchy</title>
<!-- Node0 -->
<g id="node1" class="node">
<title>Node0</title>
<g id="a_node1"><a xlink:href="structPositionHint.html" target="_top" xlink:title="Represents a hint to the position of a (or multiple) Box. ">
<polygon fill="none" stroke="#000000" points="0,-19.5 0,-38.5 76,-38.5 76,-19.5 0,-19.5"/>
<text text-anchor="middle" x="38" y="-26.5" font-family="Helvetica,sans-Serif" font-size="10.00" fill="#000000">PositionHint</text>
</a>
</g>
</g>
<!-- Node1 -->
<g id="node2" class="node">
<title>Node1</title>
<g id="a_node2"><a xlink:href="classMarginConfiguration.html" target="_top" xlink:title="Represents a PositionHint as margin around a Box. ">
<polygon fill="none" stroke="#000000" points="114.5,-38.5 114.5,-57.5 229.5,-57.5 229.5,-38.5 114.5,-38.5"/>
<text text-anchor="middle" x="172" y="-45.5" font-family="Helvetica,sans-Serif" font-size="10.00" fill="#000000">MarginConfiguration</text>
</a>
</g>
</g>
<!-- Node0&#45;&gt;Node1 -->
<g id="edge1" class="edge">
<title>Node0&#45;&gt;Node1</title>
<path fill="none" stroke="#191970" d="M86.1141,-35.8221C95.2649,-37.1197 104.9276,-38.4897 114.3395,-39.8243"/>
<polygon fill="#191970" stroke="#191970" points="86.4329,-32.3324 76.0406,-34.3938 85.4502,-39.2631 86.4329,-32.3324"/>
</g>
<!-- Node2 -->
<g id="node3" class="node">
<title>Node2</title>
<g id="a_node3"><a xlink:href="classPaddingConfiguration.html" target="_top" xlink:title="Represents a PositionHint as padding within a Box. ">
<polygon fill="none" stroke="#000000" points="112,-.5 112,-19.5 232,-19.5 232,-.5 112,-.5"/>
<text text-anchor="middle" x="172" y="-7.5" font-family="Helvetica,sans-Serif" font-size="10.00" fill="#000000">PaddingConfiguration</text>
</a>
</g>
</g>
<!-- Node0&#45;&gt;Node2 -->
<g id="edge2" class="edge">
<title>Node0&#45;&gt;Node2</title>
<path fill="none" stroke="#191970" d="M85.9953,-22.1947C94.3638,-21.0081 103.1636,-19.7604 111.8106,-18.5343"/>
<polygon fill="#191970" stroke="#191970" points="85.4502,-18.7369 76.0406,-23.6062 86.4329,-25.6676 85.4502,-18.7369"/>
</g>
</g>
</svg>
