<?xml version="1.0" encoding="UTF-8" standalone="no"?>
<!DOCTYPE svg PUBLIC "-//W3C//DTD SVG 1.1//EN"
 "http://www.w3.org/Graphics/SVG/1.1/DTD/svg11.dtd">
<!-- Generated by graphviz version 2.40.1 (20161225.0304)
 -->
<!-- Title: Graphical Class Hierarchy Pages: 1 -->
<svg width="740pt" height="231pt"
 viewBox="0.00 0.00 740.00 230.50" xmlns="http://www.w3.org/2000/svg" xmlns:xlink="http://www.w3.org/1999/xlink">
<g id="graph0" class="graph" transform="scale(1 1) rotate(0) translate(4 226.5)">
<title>Graphical Class Hierarchy</title>
<!-- Node150 -->
<g id="node1" class="node">
<title>Node150</title>
<g id="a_node1"><a xlink:href="classiModel.html" target="_top" xlink:title="iModel">
<polygon fill="none" stroke="#000000" points="266,-143 266,-162 315,-162 315,-143 266,-143"/>
<text text-anchor="middle" x="290.5" y="-150" font-family="Helvetica,sans-Serif" font-size="10.00" fill="#000000">iModel</text>
</a>
</g>
</g>
<!-- Node16 -->
<g id="node2" class="node">
<title>Node16</title>
<g id="a_node2"><a xlink:href="structDataModel.html" target="_top" xlink:title="DataModel\&lt; DataList \&gt;">
<polygon fill="none" stroke="#000000" points="453.5,-167 453.5,-186 585.5,-186 585.5,-167 453.5,-167"/>
<text text-anchor="middle" x="519.5" y="-174" font-family="Helvetica,sans-Serif" font-size="10.00" fill="#000000">DataModel&lt; DataList &gt;</text>
</a>
</g>
</g>
<!-- Node150&#45;&gt;Node16 -->
<g id="edge1" class="edge">
<title>Node150&#45;&gt;Node16</title>
<path fill="none" stroke="#191970" d="M325.3304,-156.1503C359.2404,-159.7042 411.6356,-165.1954 453.4558,-169.5783"/>
<polygon fill="#191970" stroke="#191970" points="325.3174,-152.6299 315.007,-155.0684 324.5877,-159.5918 325.3174,-152.6299"/>
</g>
<!-- Node19 -->
<g id="node3" class="node">
<title>Node19</title>
<g id="a_node3"><a xlink:href="structDataModel.html" target="_top" xlink:title="DataModel\&lt; ButtonNotifications \&gt;">
<polygon fill="none" stroke="#000000" points="427,-108 427,-127 612,-127 612,-108 427,-108"/>
<text text-anchor="middle" x="519.5" y="-115" font-family="Helvetica,sans-Serif" font-size="10.00" fill="#000000">DataModel&lt; ButtonNotifications &gt;</text>
</a>
</g>
</g>
<!-- Node150&#45;&gt;Node19 -->
<g id="edge2" class="edge">
<title>Node150&#45;&gt;Node19</title>
<path fill="none" stroke="#191970" d="M325.1878,-147.1984C360.1504,-141.8547 414.8672,-133.4919 457.3406,-127.0004"/>
<polygon fill="#191970" stroke="#191970" points="324.3634,-143.7836 315.007,-148.7544 325.421,-150.7033 324.3634,-143.7836"/>
</g>
<!-- Node2 -->
<g id="node5" class="node">
<title>Node2</title>
<g id="a_node5"><a xlink:href="structDataModel.html" target="_top" xlink:title="DataModel\&lt; MouseStateNotification \&gt;">
<polygon fill="none" stroke="#000000" points="417,-54 417,-73 622,-73 622,-54 417,-54"/>
<text text-anchor="middle" x="519.5" y="-61" font-family="Helvetica,sans-Serif" font-size="10.00" fill="#000000">DataModel&lt; MouseStateNotification &gt;</text>
</a>
</g>
</g>
<!-- Node150&#45;&gt;Node2 -->
<g id="edge4" class="edge">
<title>Node150&#45;&gt;Node2</title>
<path fill="none" stroke="#191970" d="M325.5537,-149.7794C343.0183,-147.2986 363.9827,-142.5578 381,-133.5 400.6987,-123.015 397.9777,-110.1674 417,-98.5 435.754,-86.9971 458.7756,-78.6979 478.2467,-73.0766"/>
<polygon fill="#191970" stroke="#191970" points="324.6975,-146.3581 315.1984,-151.0504 325.5503,-153.306 324.6975,-146.3581"/>
</g>
<!-- Node20 -->
<g id="node4" class="node">
<title>Node20</title>
<g id="a_node4"><a xlink:href="classButtonState.html" target="_top" xlink:title="ButtonState">
<polygon fill="none" stroke="#000000" points="658,-108 658,-127 732,-127 732,-108 658,-108"/>
<text text-anchor="middle" x="695" y="-115" font-family="Helvetica,sans-Serif" font-size="10.00" fill="#000000">ButtonState</text>
</a>
</g>
</g>
<!-- Node19&#45;&gt;Node20 -->
<g id="edge3" class="edge">
<title>Node19&#45;&gt;Node20</title>
<path fill="none" stroke="#191970" d="M622.3023,-117.5C634.8951,-117.5 647.0616,-117.5 657.7223,-117.5"/>
<polygon fill="#191970" stroke="#191970" points="622.1323,-114.0001 612.1323,-117.5 622.1322,-121.0001 622.1323,-114.0001"/>
</g>
<!-- Node3 -->
<g id="node6" class="node">
<title>Node3</title>
<g id="a_node6"><a xlink:href="classMouseState.html" target="_top" xlink:title="MouseState">
<polygon fill="none" stroke="#000000" points="658,-54 658,-73 732,-73 732,-54 658,-54"/>
<text text-anchor="middle" x="695" y="-61" font-family="Helvetica,sans-Serif" font-size="10.00" fill="#000000">MouseState</text>
</a>
</g>
</g>
<!-- Node2&#45;&gt;Node3 -->
<g id="edge5" class="edge">
<title>Node2&#45;&gt;Node3</title>
<path fill="none" stroke="#191970" d="M632.1463,-63.5C641.2848,-63.5 650.0306,-63.5 657.9402,-63.5"/>
<polygon fill="#191970" stroke="#191970" points="632.0969,-60.0001 622.0969,-63.5 632.0968,-67.0001 632.0969,-60.0001"/>
</g>
<!-- Node17 -->
<g id="node7" class="node">
<title>Node17</title>
<g id="a_node7"><a xlink:href="structUIMQDispatcher.html" target="_top" xlink:title="UIMQDispatcher\&lt; VariantType\l\&lt; ButtonNotifications \&gt; \&gt;">
<polygon fill="none" stroke="#000000" points="0,-82.5 0,-112.5 164,-112.5 164,-82.5 0,-82.5"/>
<text text-anchor="start" x="8" y="-100.5" font-family="Helvetica,sans-Serif" font-size="10.00" fill="#000000">UIMQDispatcher&lt; VariantType</text>
<text text-anchor="middle" x="82" y="-89.5" font-family="Helvetica,sans-Serif" font-size="10.00" fill="#000000">&lt; ButtonNotifications &gt; &gt;</text>
</a>
</g>
</g>
<!-- Node18 -->
<g id="node8" class="node">
<title>Node18</title>
<g id="a_node8"><a xlink:href="classSubject.html" target="_top" xlink:title="Subject\&lt; VariantType\l\&lt; ButtonNotifications\l \&gt;, UIMQDispatcher\&lt; VariantType\l\&lt; ButtonNotifications \&gt; \&gt; \&gt;">
<polygon fill="none" stroke="#000000" points="200,-71.5 200,-123.5 381,-123.5 381,-71.5 200,-71.5"/>
<text text-anchor="start" x="208" y="-111.5" font-family="Helvetica,sans-Serif" font-size="10.00" fill="#000000">Subject&lt; VariantType</text>
<text text-anchor="start" x="208" y="-100.5" font-family="Helvetica,sans-Serif" font-size="10.00" fill="#000000">&lt; ButtonNotifications</text>
<text text-anchor="start" x="208" y="-89.5" font-family="Helvetica,sans-Serif" font-size="10.00" fill="#000000"> &gt;, UIMQDispatcher&lt; VariantType</text>
<text text-anchor="middle" x="290.5" y="-78.5" font-family="Helvetica,sans-Serif" font-size="10.00" fill="#000000">&lt; ButtonNotifications &gt; &gt; &gt;</text>
</a>
</g>
</g>
<!-- Node17&#45;&gt;Node18 -->
<g id="edge6" class="edge">
<title>Node17&#45;&gt;Node18</title>
<path fill="none" stroke="#8b1a1a" d="M174.3673,-97.5C182.8358,-97.5 191.4102,-97.5 199.8632,-97.5"/>
<polygon fill="#8b1a1a" stroke="#8b1a1a" points="174.1055,-94.0001 164.1054,-97.5 174.1054,-101.0001 174.1055,-94.0001"/>
</g>
<!-- Node18&#45;&gt;Node19 -->
<g id="edge7" class="edge">
<title>Node18&#45;&gt;Node19</title>
<path fill="none" stroke="#191970" d="M391.2796,-106.3017C403.0411,-107.3289 414.9985,-108.3732 426.6458,-109.3905"/>
<polygon fill="#191970" stroke="#191970" points="391.2735,-102.7879 381.0069,-105.4045 390.6644,-109.7614 391.2735,-102.7879"/>
</g>
<!-- Node14 -->
<g id="node9" class="node">
<title>Node14</title>
<g id="a_node9"><a xlink:href="structUIMQDispatcher.html" target="_top" xlink:title="UIMQDispatcher\&lt; VariantType\l\&lt; DataList \&gt; \&gt;">
<polygon fill="none" stroke="#000000" points="0,-186.5 0,-216.5 164,-216.5 164,-186.5 0,-186.5"/>
<text text-anchor="start" x="8" y="-204.5" font-family="Helvetica,sans-Serif" font-size="10.00" fill="#000000">UIMQDispatcher&lt; VariantType</text>
<text text-anchor="middle" x="82" y="-193.5" font-family="Helvetica,sans-Serif" font-size="10.00" fill="#000000">&lt; DataList &gt; &gt;</text>
</a>
</g>
</g>
<!-- Node15 -->
<g id="node10" class="node">
<title>Node15</title>
<g id="a_node10"><a xlink:href="classSubject.html" target="_top" xlink:title="Subject\&lt; VariantType\l\&lt; DataList \&gt;, UIMQDispatcher\l\&lt; VariantType\&lt; DataList \&gt; \&gt; \&gt;">
<polygon fill="none" stroke="#000000" points="205.5,-181 205.5,-222 375.5,-222 375.5,-181 205.5,-181"/>
<text text-anchor="start" x="213.5" y="-210" font-family="Helvetica,sans-Serif" font-size="10.00" fill="#000000">Subject&lt; VariantType</text>
<text text-anchor="start" x="213.5" y="-199" font-family="Helvetica,sans-Serif" font-size="10.00" fill="#000000">&lt; DataList &gt;, UIMQDispatcher</text>
<text text-anchor="middle" x="290.5" y="-188" font-family="Helvetica,sans-Serif" font-size="10.00" fill="#000000">&lt; VariantType&lt; DataList &gt; &gt; &gt;</text>
</a>
</g>
</g>
<!-- Node14&#45;&gt;Node15 -->
<g id="edge8" class="edge">
<title>Node14&#45;&gt;Node15</title>
<path fill="none" stroke="#8b1a1a" d="M174.3591,-201.5C184.6806,-201.5 195.1596,-201.5 205.3844,-201.5"/>
<polygon fill="#8b1a1a" stroke="#8b1a1a" points="174.1055,-198.0001 164.1054,-201.5 174.1054,-205.0001 174.1055,-198.0001"/>
</g>
<!-- Node15&#45;&gt;Node16 -->
<g id="edge9" class="edge">
<title>Node15&#45;&gt;Node16</title>
<path fill="none" stroke="#191970" d="M385.7976,-191.0963C408.5639,-188.6109 432.3729,-186.0117 453.4846,-183.7069"/>
<polygon fill="#191970" stroke="#191970" points="385.3322,-187.6263 375.7711,-192.1909 386.092,-194.5849 385.3322,-187.6263"/>
</g>
<!-- Node0 -->
<g id="node11" class="node">
<title>Node0</title>
<g id="a_node11"><a xlink:href="structUIMQDispatcher.html" target="_top" xlink:title="UIMQDispatcher\&lt; VariantType\l\&lt; MouseStateNotification \&gt; \&gt;">
<polygon fill="none" stroke="#000000" points="0,-11.5 0,-41.5 164,-41.5 164,-11.5 0,-11.5"/>
<text text-anchor="start" x="8" y="-29.5" font-family="Helvetica,sans-Serif" font-size="10.00" fill="#000000">UIMQDispatcher&lt; VariantType</text>
<text text-anchor="middle" x="82" y="-18.5" font-family="Helvetica,sans-Serif" font-size="10.00" fill="#000000">&lt; MouseStateNotification &gt; &gt;</text>
</a>
</g>
</g>
<!-- Node1 -->
<g id="node12" class="node">
<title>Node1</title>
<g id="a_node12"><a xlink:href="classSubject.html" target="_top" xlink:title="Subject\&lt; VariantType\l\&lt; MouseStateNotification\l \&gt;, UIMQDispatcher\&lt; VariantType\l\&lt; MouseStateNotification \&gt; \&gt; \&gt;">
<polygon fill="none" stroke="#000000" points="200,-.5 200,-52.5 381,-52.5 381,-.5 200,-.5"/>
<text text-anchor="start" x="208" y="-40.5" font-family="Helvetica,sans-Serif" font-size="10.00" fill="#000000">Subject&lt; VariantType</text>
<text text-anchor="start" x="208" y="-29.5" font-family="Helvetica,sans-Serif" font-size="10.00" fill="#000000">&lt; MouseStateNotification</text>
<text text-anchor="start" x="208" y="-18.5" font-family="Helvetica,sans-Serif" font-size="10.00" fill="#000000"> &gt;, UIMQDispatcher&lt; VariantType</text>
<text text-anchor="middle" x="290.5" y="-7.5" font-family="Helvetica,sans-Serif" font-size="10.00" fill="#000000">&lt; MouseStateNotification &gt; &gt; &gt;</text>
</a>
</g>
</g>
<!-- Node0&#45;&gt;Node1 -->
<g id="edge10" class="edge">
<title>Node0&#45;&gt;Node1</title>
<path fill="none" stroke="#8b1a1a" d="M174.3673,-26.5C182.8358,-26.5 191.4102,-26.5 199.8632,-26.5"/>
<polygon fill="#8b1a1a" stroke="#8b1a1a" points="174.1055,-23.0001 164.1054,-26.5 174.1054,-30.0001 174.1055,-23.0001"/>
</g>
<!-- Node1&#45;&gt;Node2 -->
<g id="edge11" class="edge">
<title>Node1&#45;&gt;Node2</title>
<path fill="none" stroke="#191970" d="M391.1132,-42.7563C414.8384,-46.5896 439.3708,-50.5534 460.5547,-53.9761"/>
<polygon fill="#191970" stroke="#191970" points="391.4371,-39.2633 381.0069,-41.1234 390.3205,-46.1737 391.4371,-39.2633"/>
</g>
</g>
</svg>
