<?xml version="1.0" encoding="UTF-8" standalone="no"?>
<!DOCTYPE svg PUBLIC "-//W3C//DTD SVG 1.1//EN"
 "http://www.w3.org/Graphics/SVG/1.1/DTD/svg11.dtd">
<!-- Generated by graphviz version 2.40.1 (20161225.0304)
 -->
<!-- Title: Graphical Class Hierarchy Pages: 1 -->
<svg width="239pt" height="294pt"
 viewBox="0.00 0.00 239.00 294.00" xmlns="http://www.w3.org/2000/svg" xmlns:xlink="http://www.w3.org/1999/xlink">
<g id="graph0" class="graph" transform="scale(1 1) rotate(0) translate(4 290)">
<title>Graphical Class Hierarchy</title>
<!-- Node163 -->
<g id="node1" class="node">
<title>Node163</title>
<g id="a_node1"><a xlink:href="classGameService.html" target="_top" xlink:title="GameService">
<polygon fill="none" stroke="#000000" points="0,-171.5 0,-190.5 82,-190.5 82,-171.5 0,-171.5"/>
<text text-anchor="middle" x="41" y="-178.5" font-family="Helvetica,sans-Serif" font-size="10.00" fill="#000000">GameService</text>
</a>
</g>
</g>
<!-- Node164 -->
<g id="node2" class="node">
<title>Node164</title>
<g id="a_node2"><a xlink:href="classAudioMixer.html" target="_top" xlink:title="AudioMixer">
<polygon fill="none" stroke="#000000" points="139,-266.5 139,-285.5 210,-285.5 210,-266.5 139,-266.5"/>
<text text-anchor="middle" x="174.5" y="-273.5" font-family="Helvetica,sans-Serif" font-size="10.00" fill="#000000">AudioMixer</text>
</a>
</g>
</g>
<!-- Node163&#45;&gt;Node164 -->
<g id="edge1" class="edge">
<title>Node163&#45;&gt;Node164</title>
<path fill="none" stroke="#191970" d="M54.7672,-198.6459C68.95,-215.7437 92.5263,-241.3246 118,-257 124.3459,-260.905 131.5915,-264.1163 138.7287,-266.7154"/>
<polygon fill="#191970" stroke="#191970" points="57.2537,-196.1542 48.2465,-190.5755 51.8089,-200.5535 57.2537,-196.1542"/>
</g>
<!-- Node165 -->
<g id="node3" class="node">
<title>Node165</title>
<g id="a_node3"><a xlink:href="structGame_1_1GameVisitor.html" target="_top" xlink:title="Game::GameVisitor">
<polygon fill="none" stroke="#000000" points="118,-228.5 118,-247.5 231,-247.5 231,-228.5 118,-228.5"/>
<text text-anchor="middle" x="174.5" y="-235.5" font-family="Helvetica,sans-Serif" font-size="10.00" fill="#000000">Game::GameVisitor</text>
</a>
</g>
</g>
<!-- Node163&#45;&gt;Node165 -->
<g id="edge2" class="edge">
<title>Node163&#45;&gt;Node165</title>
<path fill="none" stroke="#191970" d="M67.7224,-195.2898C82.3532,-202.8316 100.9313,-211.9554 118,-219 126.2269,-222.3954 135.3025,-225.6537 143.7283,-228.4839"/>
<polygon fill="#191970" stroke="#191970" points="69.2183,-192.1226 58.7335,-190.6 65.9804,-198.3287 69.2183,-192.1226"/>
</g>
<!-- Node166 -->
<g id="node4" class="node">
<title>Node166</title>
<g id="a_node4"><a xlink:href="classGameClock.html" target="_top" xlink:title="GameClock">
<polygon fill="none" stroke="#000000" points="138,-190.5 138,-209.5 211,-209.5 211,-190.5 138,-190.5"/>
<text text-anchor="middle" x="174.5" y="-197.5" font-family="Helvetica,sans-Serif" font-size="10.00" fill="#000000">GameClock</text>
</a>
</g>
</g>
<!-- Node163&#45;&gt;Node166 -->
<g id="edge3" class="edge">
<title>Node163&#45;&gt;Node166</title>
<path fill="none" stroke="#191970" d="M92.4016,-188.3156C107.5348,-190.4694 123.7808,-192.7815 137.7943,-194.776"/>
<polygon fill="#191970" stroke="#191970" points="92.5371,-184.7997 82.1437,-186.8557 91.5508,-191.7298 92.5371,-184.7997"/>
</g>
<!-- Node1 -->
<g id="node5" class="node">
<title>Node1</title>
<g id="a_node5"><a xlink:href="classiActivity.html" target="_top" xlink:title="iActivity">
<polygon fill="none" stroke="#000000" points="146,-76.5 146,-95.5 203,-95.5 203,-76.5 146,-76.5"/>
<text text-anchor="middle" x="174.5" y="-83.5" font-family="Helvetica,sans-Serif" font-size="10.00" fill="#000000">iActivity</text>
</a>
</g>
</g>
<!-- Node163&#45;&gt;Node1 -->
<g id="edge4" class="edge">
<title>Node163&#45;&gt;Node1</title>
<path fill="none" stroke="#191970" d="M54.7672,-163.3541C68.95,-146.2563 92.5263,-120.6754 118,-105 126.4612,-99.7934 136.5218,-95.8198 145.7924,-92.8867"/>
<polygon fill="#191970" stroke="#191970" points="51.8089,-161.4465 48.2465,-171.4245 57.2537,-165.8458 51.8089,-161.4465"/>
</g>
<!-- Node167 -->
<g id="node6" class="node">
<title>Node167</title>
<g id="a_node6"><a xlink:href="classRandomizer.html" target="_top" xlink:title="Randomizer">
<polygon fill="none" stroke="#000000" points="137,-152.5 137,-171.5 212,-171.5 212,-152.5 137,-152.5"/>
<text text-anchor="middle" x="174.5" y="-159.5" font-family="Helvetica,sans-Serif" font-size="10.00" fill="#000000">Randomizer</text>
</a>
</g>
</g>
<!-- Node163&#45;&gt;Node167 -->
<g id="edge5" class="edge">
<title>Node163&#45;&gt;Node167</title>
<path fill="none" stroke="#191970" d="M92.221,-173.7101C107.0845,-171.5947 123.0357,-169.3245 136.8992,-167.3514"/>
<polygon fill="#191970" stroke="#191970" points="91.5508,-170.2702 82.1437,-175.1443 92.5371,-177.2003 91.5508,-170.2702"/>
</g>
<!-- Node168 -->
<g id="node7" class="node">
<title>Node168</title>
<g id="a_node7"><a xlink:href="classResourceManager.html" target="_top" xlink:title="ResourceManager">
<polygon fill="none" stroke="#000000" points="123,-114.5 123,-133.5 226,-133.5 226,-114.5 123,-114.5"/>
<text text-anchor="middle" x="174.5" y="-121.5" font-family="Helvetica,sans-Serif" font-size="10.00" fill="#000000">ResourceManager</text>
</a>
</g>
</g>
<!-- Node163&#45;&gt;Node168 -->
<g id="edge6" class="edge">
<title>Node163&#45;&gt;Node168</title>
<path fill="none" stroke="#191970" d="M67.7224,-166.7102C82.3532,-159.1684 100.9313,-150.0446 118,-143 126.2269,-139.6046 135.3025,-136.3463 143.7283,-133.5161"/>
<polygon fill="#191970" stroke="#191970" points="65.9804,-163.6713 58.7335,-171.4 69.2183,-169.8774 65.9804,-163.6713"/>
</g>
<!-- Node0 -->
<g id="node8" class="node">
<title>Node0</title>
<g id="a_node8"><a xlink:href="classiView.html" target="_top" xlink:title="Represents a View object for drawing and positioning. ">
<polygon fill="none" stroke="#000000" points="19,-38.5 19,-57.5 63,-57.5 63,-38.5 19,-38.5"/>
<text text-anchor="middle" x="41" y="-45.5" font-family="Helvetica,sans-Serif" font-size="10.00" fill="#000000">iView</text>
</a>
</g>
</g>
<!-- Node0&#45;&gt;Node1 -->
<g id="edge7" class="edge">
<title>Node0&#45;&gt;Node1</title>
<path fill="none" stroke="#191970" d="M72.6928,-57.0212C94.9191,-63.3478 124.3859,-71.7353 145.8967,-77.8582"/>
<polygon fill="#191970" stroke="#191970" points="73.621,-53.6464 63.0448,-54.2749 71.7045,-60.379 73.621,-53.6464"/>
</g>
<!-- Node2 -->
<g id="node9" class="node">
<title>Node2</title>
<g id="a_node9"><a xlink:href="classiLayout.html" target="_top" xlink:title="iLayout">
<polygon fill="none" stroke="#000000" points="148,-38.5 148,-57.5 201,-57.5 201,-38.5 148,-38.5"/>
<text text-anchor="middle" x="174.5" y="-45.5" font-family="Helvetica,sans-Serif" font-size="10.00" fill="#000000">iLayout</text>
</a>
</g>
</g>
<!-- Node0&#45;&gt;Node2 -->
<g id="edge8" class="edge">
<title>Node0&#45;&gt;Node2</title>
<path fill="none" stroke="#191970" d="M73.2696,-48C96.1007,-48 126.3505,-48 147.8201,-48"/>
<polygon fill="#191970" stroke="#191970" points="73.0448,-44.5001 63.0448,-48 73.0448,-51.5001 73.0448,-44.5001"/>
</g>
<!-- Node3 -->
<g id="node10" class="node">
<title>Node3</title>
<g id="a_node10"><a xlink:href="classiViewElement.html" target="_top" xlink:title="iViewElement">
<polygon fill="none" stroke="#000000" points="132.5,-.5 132.5,-19.5 216.5,-19.5 216.5,-.5 132.5,-.5"/>
<text text-anchor="middle" x="174.5" y="-7.5" font-family="Helvetica,sans-Serif" font-size="10.00" fill="#000000">iViewElement</text>
</a>
</g>
</g>
<!-- Node0&#45;&gt;Node3 -->
<g id="edge9" class="edge">
<title>Node0&#45;&gt;Node3</title>
<path fill="none" stroke="#191970" d="M72.8677,-38.9291C93.3954,-33.0859 120.0445,-25.5004 140.9039,-19.5629"/>
<polygon fill="#191970" stroke="#191970" points="71.7045,-35.621 63.0448,-41.7251 73.621,-42.3536 71.7045,-35.621"/>
</g>
</g>
</svg>
