<?xml version="1.0" encoding="UTF-8" standalone="no"?>
<!DOCTYPE svg PUBLIC "-//W3C//DTD SVG 1.1//EN"
 "http://www.w3.org/Graphics/SVG/1.1/DTD/svg11.dtd">
<!-- Generated by graphviz version 2.40.1 (20161225.0304)
 -->
<!-- Title: src/Initializer.cxx Pages: 1 -->
<svg width="342pt" height="140pt"
 viewBox="0.00 0.00 342.00 140.00" xmlns="http://www.w3.org/2000/svg" xmlns:xlink="http://www.w3.org/1999/xlink">
<g id="graph0" class="graph" transform="scale(1 1) rotate(0) translate(4 136)">
<title>src/Initializer.cxx</title>
<!-- Node0 -->
<g id="node1" class="node">
<title>Node0</title>
<polygon fill="#bfbfbf" stroke="#000000" points="123.5,-112.5 123.5,-131.5 222.5,-131.5 222.5,-112.5 123.5,-112.5"/>
<text text-anchor="middle" x="173" y="-119.5" font-family="Helvetica,sans-Serif" font-size="10.00" fill="#000000">src/Initializer.cxx</text>
</g>
<!-- Node1 -->
<g id="node2" class="node">
<title>Node1</title>
<g id="a_node2"><a xlink:href="Initializer_8hxx.html" target="_top" xlink:title="Initializer.hxx">
<polygon fill="none" stroke="#000000" points="15.5,-56.5 15.5,-75.5 98.5,-75.5 98.5,-56.5 15.5,-56.5"/>
<text text-anchor="middle" x="57" y="-63.5" font-family="Helvetica,sans-Serif" font-size="10.00" fill="#000000">Initializer.hxx</text>
</a>
</g>
</g>
<!-- Node0&#45;&gt;Node1 -->
<g id="edge1" class="edge">
<title>Node0&#45;&gt;Node1</title>
<path fill="none" stroke="#191970" d="M153.0589,-112.3733C134.5214,-103.4241 106.6972,-89.9917 85.7587,-79.8835"/>
<polygon fill="#191970" stroke="#191970" points="87.2081,-76.6967 76.6809,-75.5011 84.1648,-83.0006 87.2081,-76.6967"/>
</g>
<!-- Node4 -->
<g id="node5" class="node">
<title>Node4</title>
<polygon fill="none" stroke="#bfbfbf" points="116.5,-56.5 116.5,-75.5 229.5,-75.5 229.5,-56.5 116.5,-56.5"/>
<text text-anchor="middle" x="173" y="-63.5" font-family="Helvetica,sans-Serif" font-size="10.00" fill="#000000">../util/Exception.hxx</text>
</g>
<!-- Node0&#45;&gt;Node4 -->
<g id="edge4" class="edge">
<title>Node0&#45;&gt;Node4</title>
<path fill="none" stroke="#191970" d="M173,-112.2455C173,-104.9382 173,-94.6944 173,-85.7046"/>
<polygon fill="#191970" stroke="#191970" points="176.5001,-85.6426 173,-75.6427 169.5001,-85.6427 176.5001,-85.6426"/>
</g>
<!-- Node5 -->
<g id="node6" class="node">
<title>Node5</title>
<polygon fill="none" stroke="#bfbfbf" points="248,-56.5 248,-75.5 334,-75.5 334,-56.5 248,-56.5"/>
<text text-anchor="middle" x="291" y="-63.5" font-family="Helvetica,sans-Serif" font-size="10.00" fill="#000000">../util/LOG.hxx</text>
</g>
<!-- Node0&#45;&gt;Node5 -->
<g id="edge5" class="edge">
<title>Node0&#45;&gt;Node5</title>
<path fill="none" stroke="#191970" d="M193.2849,-112.3733C212.1421,-103.4241 240.446,-89.9917 261.7455,-79.8835"/>
<polygon fill="#191970" stroke="#191970" points="263.4461,-82.9506 270.9798,-75.5011 260.4449,-76.6266 263.4461,-82.9506"/>
</g>
<!-- Node2 -->
<g id="node3" class="node">
<title>Node2</title>
<polygon fill="none" stroke="#bfbfbf" points="0,-.5 0,-19.5 44,-19.5 44,-.5 0,-.5"/>
<text text-anchor="middle" x="22" y="-7.5" font-family="Helvetica,sans-Serif" font-size="10.00" fill="#000000">SDL.h</text>
</g>
<!-- Node1&#45;&gt;Node2 -->
<g id="edge2" class="edge">
<title>Node1&#45;&gt;Node2</title>
<path fill="none" stroke="#191970" d="M50.9035,-56.2455C46.0855,-48.5367 39.2249,-37.5598 33.3968,-28.2348"/>
<polygon fill="#191970" stroke="#191970" points="36.2947,-26.2677 28.0267,-19.6427 30.3587,-29.9777 36.2947,-26.2677"/>
</g>
<!-- Node3 -->
<g id="node4" class="node">
<title>Node3</title>
<polygon fill="none" stroke="#bfbfbf" points="62,-.5 62,-19.5 122,-19.5 122,-.5 62,-.5"/>
<text text-anchor="middle" x="92" y="-7.5" font-family="Helvetica,sans-Serif" font-size="10.00" fill="#000000">SDL_ttf.h</text>
</g>
<!-- Node1&#45;&gt;Node3 -->
<g id="edge3" class="edge">
<title>Node1&#45;&gt;Node3</title>
<path fill="none" stroke="#191970" d="M63.0965,-56.2455C67.9145,-48.5367 74.7751,-37.5598 80.6032,-28.2348"/>
<polygon fill="#191970" stroke="#191970" points="83.6413,-29.9777 85.9733,-19.6427 77.7053,-26.2677 83.6413,-29.9777"/>
</g>
</g>
</svg>
