<?xml version="1.0" encoding="UTF-8" standalone="no"?>
<!DOCTYPE svg PUBLIC "-//W3C//DTD SVG 1.1//EN"
 "http://www.w3.org/Graphics/SVG/1.1/DTD/svg11.dtd">
<!-- Generated by graphviz version 2.40.1 (20161225.0304)
 -->
<!-- Title: src/renderer/iRenderer.cxx Pages: 1 -->
<svg width="1343pt" height="196pt"
 viewBox="0.00 0.00 1343.07 196.00" xmlns="http://www.w3.org/2000/svg" xmlns:xlink="http://www.w3.org/1999/xlink">
<g id="graph0" class="graph" transform="scale(1 1) rotate(0) translate(4 192)">
<title>src/renderer/iRenderer.cxx</title>
<!-- Node0 -->
<g id="node1" class="node">
<title>Node0</title>
<polygon fill="#bfbfbf" stroke="#000000" points="564.0652,-168.5 564.0652,-187.5 708.0652,-187.5 708.0652,-168.5 564.0652,-168.5"/>
<text text-anchor="middle" x="636.0652" y="-175.5" font-family="Helvetica,sans-Serif" font-size="10.00" fill="#000000">src/renderer/iRenderer.cxx</text>
</g>
<!-- Node1 -->
<g id="node2" class="node">
<title>Node1</title>
<g id="a_node2"><a xlink:href="iRenderer_8hxx.html" target="_top" xlink:title="iRenderer.hxx">
<polygon fill="none" stroke="#000000" points="236.5652,-112.5 236.5652,-131.5 319.5652,-131.5 319.5652,-112.5 236.5652,-112.5"/>
<text text-anchor="middle" x="278.0652" y="-119.5" font-family="Helvetica,sans-Serif" font-size="10.00" fill="#000000">iRenderer.hxx</text>
</a>
</g>
</g>
<!-- Node0&#45;&gt;Node1 -->
<g id="edge1" class="edge">
<title>Node0&#45;&gt;Node1</title>
<path fill="none" stroke="#191970" d="M574.9295,-168.4369C505.8335,-157.6286 394.558,-140.2223 329.6626,-130.0711"/>
<polygon fill="#191970" stroke="#191970" points="330.0799,-126.5939 319.6591,-128.5063 328.998,-133.5098 330.0799,-126.5939"/>
</g>
<!-- Node12 -->
<g id="node13" class="node">
<title>Node12</title>
<g id="a_node13"><a xlink:href="Exception_8hxx.html" target="_top" xlink:title="../util/Exception.hxx">
<polygon fill="none" stroke="#000000" points="579.5652,-56.5 579.5652,-75.5 692.5652,-75.5 692.5652,-56.5 579.5652,-56.5"/>
<text text-anchor="middle" x="636.0652" y="-63.5" font-family="Helvetica,sans-Serif" font-size="10.00" fill="#000000">../util/Exception.hxx</text>
</a>
</g>
</g>
<!-- Node0&#45;&gt;Node12 -->
<g id="edge14" class="edge">
<title>Node0&#45;&gt;Node12</title>
<path fill="none" stroke="#191970" d="M636.0652,-168.4509C636.0652,-150.184 636.0652,-109.9553 636.0652,-85.6976"/>
<polygon fill="#191970" stroke="#191970" points="639.5653,-85.5249 636.0652,-75.5249 632.5653,-85.5249 639.5653,-85.5249"/>
</g>
<!-- Node15 -->
<g id="node16" class="node">
<title>Node15</title>
<g id="a_node16"><a xlink:href="LOG_8hxx.html" target="_top" xlink:title="../util/LOG.hxx">
<polygon fill="none" stroke="#000000" points="853.0652,-112.5 853.0652,-131.5 939.0652,-131.5 939.0652,-112.5 853.0652,-112.5"/>
<text text-anchor="middle" x="896.0652" y="-119.5" font-family="Helvetica,sans-Serif" font-size="10.00" fill="#000000">../util/LOG.hxx</text>
</a>
</g>
</g>
<!-- Node0&#45;&gt;Node15 -->
<g id="edge17" class="edge">
<title>Node0&#45;&gt;Node15</title>
<path fill="none" stroke="#191970" d="M680.4653,-168.4369C725.4201,-158.7543 794.959,-143.7767 842.8417,-133.4635"/>
<polygon fill="#191970" stroke="#191970" points="843.6751,-136.8644 852.714,-131.3372 842.2012,-130.0213 843.6751,-136.8644"/>
</g>
<!-- Node2 -->
<g id="node3" class="node">
<title>Node2</title>
<polygon fill="none" stroke="#bfbfbf" points="249.0652,-56.5 249.0652,-75.5 307.0652,-75.5 307.0652,-56.5 249.0652,-56.5"/>
<text text-anchor="middle" x="278.0652" y="-63.5" font-family="Helvetica,sans-Serif" font-size="10.00" fill="#000000">memory</text>
</g>
<!-- Node1&#45;&gt;Node2 -->
<g id="edge2" class="edge">
<title>Node1&#45;&gt;Node2</title>
<path fill="none" stroke="#191970" d="M278.0652,-112.2455C278.0652,-104.9382 278.0652,-94.6944 278.0652,-85.7046"/>
<polygon fill="#191970" stroke="#191970" points="281.5653,-85.6426 278.0652,-75.6427 274.5653,-85.6427 281.5653,-85.6426"/>
</g>
<!-- Node3 -->
<g id="node4" class="node">
<title>Node3</title>
<polygon fill="none" stroke="#bfbfbf" points="88.5652,-.5 88.5652,-19.5 129.5652,-19.5 129.5652,-.5 88.5652,-.5"/>
<text text-anchor="middle" x="109.0652" y="-7.5" font-family="Helvetica,sans-Serif" font-size="10.00" fill="#000000">tuple</text>
</g>
<!-- Node1&#45;&gt;Node3 -->
<g id="edge3" class="edge">
<title>Node1&#45;&gt;Node3</title>
<path fill="none" stroke="#191970" d="M236.3641,-117.8986C163.8414,-110.3425 20.7682,-93.3984 6.0652,-76 -18.1589,-47.3352 40.1359,-26.7961 78.5712,-16.8229"/>
<polygon fill="#191970" stroke="#191970" points="79.4625,-20.2079 88.3263,-14.4041 77.7778,-13.4137 79.4625,-20.2079"/>
</g>
<!-- Node4 -->
<g id="node5" class="node">
<title>Node4</title>
<polygon fill="none" stroke="#bfbfbf" points="15.0652,-56.5 15.0652,-75.5 115.0652,-75.5 115.0652,-56.5 15.0652,-56.5"/>
<text text-anchor="middle" x="65.0652" y="-63.5" font-family="Helvetica,sans-Serif" font-size="10.00" fill="#000000">betterEnums.hxx</text>
</g>
<!-- Node1&#45;&gt;Node4 -->
<g id="edge4" class="edge">
<title>Node1&#45;&gt;Node4</title>
<path fill="none" stroke="#191970" d="M241.4492,-112.3733C205.4172,-102.9001 150.2774,-88.4032 111.2538,-78.1435"/>
<polygon fill="#191970" stroke="#191970" points="111.7647,-74.6589 101.2034,-75.5011 109.9847,-81.4289 111.7647,-74.6589"/>
</g>
<!-- Node5 -->
<g id="node6" class="node">
<title>Node5</title>
<g id="a_node6"><a xlink:href="Color_8hxx.html" target="_top" xlink:title="../util/Color.hxx">
<polygon fill="none" stroke="#000000" points="433.0652,-56.5 433.0652,-75.5 523.0652,-75.5 523.0652,-56.5 433.0652,-56.5"/>
<text text-anchor="middle" x="478.0652" y="-63.5" font-family="Helvetica,sans-Serif" font-size="10.00" fill="#000000">../util/Color.hxx</text>
</a>
</g>
</g>
<!-- Node1&#45;&gt;Node5 -->
<g id="edge5" class="edge">
<title>Node1&#45;&gt;Node5</title>
<path fill="none" stroke="#191970" d="M312.4464,-112.3733C346.1353,-102.9404 397.6134,-88.5265 434.227,-78.2747"/>
<polygon fill="#191970" stroke="#191970" points="435.4467,-81.5679 444.1326,-75.5011 433.5592,-74.8271 435.4467,-81.5679"/>
</g>
<!-- Node8 -->
<g id="node9" class="node">
<title>Node8</title>
<g id="a_node9"><a xlink:href="iShape_8hxx.html" target="_top" xlink:title="../util/iShape.hxx">
<polygon fill="none" stroke="#000000" points="133.0652,-56.5 133.0652,-75.5 231.0652,-75.5 231.0652,-56.5 133.0652,-56.5"/>
<text text-anchor="middle" x="182.0652" y="-63.5" font-family="Helvetica,sans-Serif" font-size="10.00" fill="#000000">../util/iShape.hxx</text>
</a>
</g>
</g>
<!-- Node1&#45;&gt;Node8 -->
<g id="edge8" class="edge">
<title>Node1&#45;&gt;Node8</title>
<path fill="none" stroke="#191970" d="M261.3432,-112.2455C246.4762,-103.5731 224.5186,-90.7645 207.4794,-80.825"/>
<polygon fill="#191970" stroke="#191970" points="208.9968,-77.6582 198.5955,-75.6427 205.4697,-83.7047 208.9968,-77.6582"/>
</g>
<!-- Node9 -->
<g id="node10" class="node">
<title>Node9</title>
<g id="a_node10"><a xlink:href="Meta_8hxx.html" target="_top" xlink:title="../util/Meta.hxx">
<polygon fill="none" stroke="#000000" points="325.5652,-56.5 325.5652,-75.5 414.5652,-75.5 414.5652,-56.5 325.5652,-56.5"/>
<text text-anchor="middle" x="370.0652" y="-63.5" font-family="Helvetica,sans-Serif" font-size="10.00" fill="#000000">../util/Meta.hxx</text>
</a>
</g>
</g>
<!-- Node1&#45;&gt;Node9 -->
<g id="edge9" class="edge">
<title>Node1&#45;&gt;Node9</title>
<path fill="none" stroke="#191970" d="M294.0903,-112.2455C308.206,-103.6534 328.9915,-91.0014 345.2551,-81.1018"/>
<polygon fill="#191970" stroke="#191970" points="347.5015,-83.8319 354.2236,-75.6427 343.8618,-77.8525 347.5015,-83.8319"/>
</g>
<!-- Node6 -->
<g id="node7" class="node">
<title>Node6</title>
<polygon fill="none" stroke="#bfbfbf" points="439.0652,-.5 439.0652,-19.5 489.0652,-19.5 489.0652,-.5 439.0652,-.5"/>
<text text-anchor="middle" x="464.0652" y="-7.5" font-family="Helvetica,sans-Serif" font-size="10.00" fill="#000000">cstdint</text>
</g>
<!-- Node5&#45;&gt;Node6 -->
<g id="edge6" class="edge">
<title>Node5&#45;&gt;Node6</title>
<path fill="none" stroke="#191970" d="M475.6266,-56.2455C473.7796,-48.8579 471.1824,-38.4689 468.9173,-29.4087"/>
<polygon fill="#191970" stroke="#191970" points="472.2968,-28.4952 466.4758,-19.6427 465.5058,-30.193 472.2968,-28.4952"/>
</g>
<!-- Node7 -->
<g id="node8" class="node">
<title>Node7</title>
<polygon fill="none" stroke="#bfbfbf" points="507.0652,-.5 507.0652,-19.5 567.0652,-19.5 567.0652,-.5 507.0652,-.5"/>
<text text-anchor="middle" x="537.0652" y="-7.5" font-family="Helvetica,sans-Serif" font-size="10.00" fill="#000000">iostream</text>
</g>
<!-- Node5&#45;&gt;Node7 -->
<g id="edge7" class="edge">
<title>Node5&#45;&gt;Node7</title>
<path fill="none" stroke="#191970" d="M488.3422,-56.2455C496.887,-48.1352 509.243,-36.4075 519.3737,-26.7919"/>
<polygon fill="#191970" stroke="#191970" points="522.0623,-29.0655 526.9059,-19.6427 517.2433,-23.9884 522.0623,-29.0655"/>
</g>
<!-- Node9&#45;&gt;Node3 -->
<g id="edge13" class="edge">
<title>Node9&#45;&gt;Node3</title>
<path fill="none" stroke="#191970" d="M325.4942,-56.4369C272.5454,-45.0762 185.6222,-26.426 139.7023,-16.5735"/>
<polygon fill="#191970" stroke="#191970" points="140.2651,-13.1146 129.7533,-14.4388 138.7965,-19.9589 140.2651,-13.1146"/>
</g>
<!-- Node9&#45;&gt;Node7 -->
<g id="edge10" class="edge">
<title>Node9&#45;&gt;Node7</title>
<path fill="none" stroke="#191970" d="M398.7735,-56.3733C426.4228,-47.1016 468.4227,-33.0178 498.8817,-22.804"/>
<polygon fill="#191970" stroke="#191970" points="500.3631,-25.9989 508.7315,-19.5011 498.1375,-19.3621 500.3631,-25.9989"/>
</g>
<!-- Node10 -->
<g id="node11" class="node">
<title>Node10</title>
<polygon fill="none" stroke="#bfbfbf" points="263.5652,-.5 263.5652,-19.5 332.5652,-19.5 332.5652,-.5 263.5652,-.5"/>
<text text-anchor="middle" x="298.0652" y="-7.5" font-family="Helvetica,sans-Serif" font-size="10.00" fill="#000000">type_traits</text>
</g>
<!-- Node9&#45;&gt;Node10 -->
<g id="edge11" class="edge">
<title>Node9&#45;&gt;Node10</title>
<path fill="none" stroke="#191970" d="M357.5237,-56.2455C346.7864,-47.8943 331.1178,-35.7076 318.5605,-25.9408"/>
<polygon fill="#191970" stroke="#191970" points="320.5052,-23.0194 310.4629,-19.6427 316.2076,-28.5449 320.5052,-23.0194"/>
</g>
<!-- Node11 -->
<g id="node12" class="node">
<title>Node11</title>
<polygon fill="none" stroke="#bfbfbf" points="350.5652,-.5 350.5652,-19.5 401.5652,-19.5 401.5652,-.5 350.5652,-.5"/>
<text text-anchor="middle" x="376.0652" y="-7.5" font-family="Helvetica,sans-Serif" font-size="10.00" fill="#000000">variant</text>
</g>
<!-- Node9&#45;&gt;Node11 -->
<g id="edge12" class="edge">
<title>Node9&#45;&gt;Node11</title>
<path fill="none" stroke="#191970" d="M371.1103,-56.2455C371.8932,-48.9382 372.9908,-38.6944 373.954,-29.7046"/>
<polygon fill="#191970" stroke="#191970" points="377.4467,-29.9587 375.032,-19.6427 370.4865,-29.2129 377.4467,-29.9587"/>
</g>
<!-- Node13 -->
<g id="node14" class="node">
<title>Node13</title>
<polygon fill="none" stroke="#bfbfbf" points="680.5652,-.5 680.5652,-19.5 745.5652,-19.5 745.5652,-.5 680.5652,-.5"/>
<text text-anchor="middle" x="713.0652" y="-7.5" font-family="Helvetica,sans-Serif" font-size="10.00" fill="#000000">stdexcept</text>
</g>
<!-- Node12&#45;&gt;Node13 -->
<g id="edge15" class="edge">
<title>Node12&#45;&gt;Node13</title>
<path fill="none" stroke="#191970" d="M649.4775,-56.2455C661.0709,-47.814 678.0399,-35.4729 691.533,-25.6598"/>
<polygon fill="#191970" stroke="#191970" points="693.7777,-28.355 699.8065,-19.6427 689.6605,-22.6938 693.7777,-28.355"/>
</g>
<!-- Node14 -->
<g id="node15" class="node">
<title>Node14</title>
<polygon fill="none" stroke="#bfbfbf" points="597.5652,-.5 597.5652,-19.5 662.5652,-19.5 662.5652,-.5 597.5652,-.5"/>
<text text-anchor="middle" x="630.0652" y="-7.5" font-family="Helvetica,sans-Serif" font-size="10.00" fill="#000000">exception</text>
</g>
<!-- Node12&#45;&gt;Node14 -->
<g id="edge16" class="edge">
<title>Node12&#45;&gt;Node14</title>
<path fill="none" stroke="#191970" d="M635.02,-56.2455C634.2371,-48.9382 633.1396,-38.6944 632.1764,-29.7046"/>
<polygon fill="#191970" stroke="#191970" points="635.6438,-29.2129 631.0983,-19.6427 628.6836,-29.9587 635.6438,-29.2129"/>
</g>
<!-- Node15&#45;&gt;Node7 -->
<g id="edge20" class="edge">
<title>Node15&#45;&gt;Node7</title>
<path fill="none" stroke="#191970" d="M852.87,-120.7981C774.8727,-117.8464 614.4908,-107.9623 570.0652,-76 554.8354,-65.0428 546.2308,-45.0221 541.6555,-29.8941"/>
<polygon fill="#191970" stroke="#191970" points="544.9598,-28.7017 538.9989,-19.9428 538.1966,-30.5072 544.9598,-28.7017"/>
</g>
<!-- Node15&#45;&gt;Node9 -->
<g id="edge28" class="edge">
<title>Node15&#45;&gt;Node9</title>
<path fill="none" stroke="#191970" d="M852.9659,-119.046C771.4869,-113.1916 589.0916,-98.8006 425.0822,-76.0326"/>
<polygon fill="#191970" stroke="#191970" points="425.195,-72.5143 414.8058,-74.5915 424.2228,-79.4464 425.195,-72.5143"/>
</g>
<!-- Node15&#45;&gt;Node12 -->
<g id="edge19" class="edge">
<title>Node15&#45;&gt;Node12</title>
<path fill="none" stroke="#191970" d="M852.8396,-112.6899C808.2176,-103.079 738.4932,-88.0614 690.2224,-77.6646"/>
<polygon fill="#191970" stroke="#191970" points="690.7772,-74.2039 680.2644,-75.5198 689.3032,-81.047 690.7772,-74.2039"/>
</g>
<!-- Node16 -->
<g id="node17" class="node">
<title>Node16</title>
<polygon fill="none" stroke="#bfbfbf" points="951.0652,-56.5 951.0652,-75.5 995.0652,-75.5 995.0652,-56.5 951.0652,-56.5"/>
<text text-anchor="middle" x="973.0652" y="-63.5" font-family="Helvetica,sans-Serif" font-size="10.00" fill="#000000">string</text>
</g>
<!-- Node15&#45;&gt;Node16 -->
<g id="edge18" class="edge">
<title>Node15&#45;&gt;Node16</title>
<path fill="none" stroke="#191970" d="M909.4775,-112.2455C921.0709,-103.814 938.0399,-91.4729 951.533,-81.6598"/>
<polygon fill="#191970" stroke="#191970" points="953.7777,-84.355 959.8065,-75.6427 949.6605,-78.6938 953.7777,-84.355"/>
</g>
<!-- Node17 -->
<g id="node18" class="node">
<title>Node17</title>
<polygon fill="none" stroke="#bfbfbf" points="1013.0652,-56.5 1013.0652,-75.5 1063.0652,-75.5 1063.0652,-56.5 1013.0652,-56.5"/>
<text text-anchor="middle" x="1038.0652" y="-63.5" font-family="Helvetica,sans-Serif" font-size="10.00" fill="#000000">chrono</text>
</g>
<!-- Node15&#45;&gt;Node17 -->
<g id="edge21" class="edge">
<title>Node15&#45;&gt;Node17</title>
<path fill="none" stroke="#191970" d="M920.4758,-112.3733C943.6794,-103.2226 978.769,-89.3844 1004.5794,-79.2057"/>
<polygon fill="#191970" stroke="#191970" points="1005.9544,-82.4258 1013.973,-75.5011 1003.3862,-75.9139 1005.9544,-82.4258"/>
</g>
<!-- Node18 -->
<g id="node19" class="node">
<title>Node18</title>
<polygon fill="none" stroke="#bfbfbf" points="1081.0652,-56.5 1081.0652,-75.5 1125.0652,-75.5 1125.0652,-56.5 1081.0652,-56.5"/>
<text text-anchor="middle" x="1103.0652" y="-63.5" font-family="Helvetica,sans-Serif" font-size="10.00" fill="#000000">ctime</text>
</g>
<!-- Node15&#45;&gt;Node18 -->
<g id="edge22" class="edge">
<title>Node15&#45;&gt;Node18</title>
<path fill="none" stroke="#191970" d="M935.037,-112.4848C968.72,-104.1114 1018.9116,-91.2793 1071.0133,-76.2019"/>
<polygon fill="#191970" stroke="#191970" points="1072.1393,-79.5194 1080.7605,-73.361 1070.1806,-72.799 1072.1393,-79.5194"/>
</g>
<!-- Node19 -->
<g id="node20" class="node">
<title>Node19</title>
<polygon fill="none" stroke="#bfbfbf" points="1143.5652,-56.5 1143.5652,-75.5 1198.5652,-75.5 1198.5652,-56.5 1143.5652,-56.5"/>
<text text-anchor="middle" x="1171.0652" y="-63.5" font-family="Helvetica,sans-Serif" font-size="10.00" fill="#000000">fstream</text>
</g>
<!-- Node15&#45;&gt;Node19 -->
<g id="edge23" class="edge">
<title>Node15&#45;&gt;Node19</title>
<path fill="none" stroke="#191970" d="M939.2601,-114.6303C985.0442,-106.6014 1059.6567,-92.8994 1133.3254,-76.0433"/>
<polygon fill="#191970" stroke="#191970" points="1134.2836,-79.4143 1143.2397,-73.7541 1132.7086,-72.5937 1134.2836,-79.4143"/>
</g>
<!-- Node20 -->
<g id="node21" class="node">
<title>Node20</title>
<polygon fill="none" stroke="#bfbfbf" points="1217.0652,-56.5 1217.0652,-75.5 1273.0652,-75.5 1273.0652,-56.5 1217.0652,-56.5"/>
<text text-anchor="middle" x="1245.0652" y="-63.5" font-family="Helvetica,sans-Serif" font-size="10.00" fill="#000000">sstream</text>
</g>
<!-- Node15&#45;&gt;Node20 -->
<g id="edge24" class="edge">
<title>Node15&#45;&gt;Node20</title>
<path fill="none" stroke="#191970" d="M939.2445,-117.262C997.7713,-110.4832 1105.6771,-96.7242 1206.7894,-76.074"/>
<polygon fill="#191970" stroke="#191970" points="1207.7828,-79.4426 1216.8657,-73.9881 1206.3638,-72.5879 1207.7828,-79.4426"/>
</g>
<!-- Node21 -->
<g id="node22" class="node">
<title>Node21</title>
<polygon fill="none" stroke="#bfbfbf" points="1291.0652,-56.5 1291.0652,-75.5 1335.0652,-75.5 1335.0652,-56.5 1291.0652,-56.5"/>
<text text-anchor="middle" x="1313.0652" y="-63.5" font-family="Helvetica,sans-Serif" font-size="10.00" fill="#000000">SDL.h</text>
</g>
<!-- Node15&#45;&gt;Node21 -->
<g id="edge25" class="edge">
<title>Node15&#45;&gt;Node21</title>
<path fill="none" stroke="#191970" d="M939.0679,-119.5976C1009.015,-115.1006 1151.7832,-103.4681 1280.8013,-75.9186"/>
<polygon fill="#191970" stroke="#191970" points="1281.8271,-79.2774 1290.8553,-73.7329 1280.34,-72.4372 1281.8271,-79.2774"/>
</g>
<!-- Node22 -->
<g id="node23" class="node">
<title>Node22</title>
<polygon fill="none" stroke="#bfbfbf" points="711.0652,-56.5 711.0652,-75.5 775.0652,-75.5 775.0652,-56.5 711.0652,-56.5"/>
<text text-anchor="middle" x="743.0652" y="-63.5" font-family="Helvetica,sans-Serif" font-size="10.00" fill="#000000">algorithm</text>
</g>
<!-- Node15&#45;&gt;Node22 -->
<g id="edge26" class="edge">
<title>Node15&#45;&gt;Node22</title>
<path fill="none" stroke="#191970" d="M869.7635,-112.3733C844.6524,-103.1822 806.6214,-89.2624 778.778,-79.0713"/>
<polygon fill="#191970" stroke="#191970" points="779.6174,-75.6516 769.0236,-75.5011 777.2113,-82.2251 779.6174,-75.6516"/>
</g>
<!-- Node23 -->
<g id="node24" class="node">
<title>Node23</title>
<polygon fill="none" stroke="#bfbfbf" points="793.0652,-56.5 793.0652,-75.5 841.0652,-75.5 841.0652,-56.5 793.0652,-56.5"/>
<text text-anchor="middle" x="817.0652" y="-63.5" font-family="Helvetica,sans-Serif" font-size="10.00" fill="#000000">mutex</text>
</g>
<!-- Node15&#45;&gt;Node23 -->
<g id="edge27" class="edge">
<title>Node15&#45;&gt;Node23</title>
<path fill="none" stroke="#191970" d="M882.3044,-112.2455C870.4099,-103.814 853.0002,-91.4729 839.1566,-81.6598"/>
<polygon fill="#191970" stroke="#191970" points="840.8505,-78.5704 830.6682,-75.6427 836.8024,-84.2811 840.8505,-78.5704"/>
</g>
<!-- Node24 -->
<g id="node25" class="node">
<title>Node24</title>
<g id="a_node25"><a xlink:href="LOG_8inl_8hxx.html" target="_top" xlink:title="LOG.inl.hxx">
<polygon fill="none" stroke="#000000" points="859.5652,-56.5 859.5652,-75.5 932.5652,-75.5 932.5652,-56.5 859.5652,-56.5"/>
<text text-anchor="middle" x="896.0652" y="-63.5" font-family="Helvetica,sans-Serif" font-size="10.00" fill="#000000">LOG.inl.hxx</text>
</a>
</g>
</g>
<!-- Node15&#45;&gt;Node24 -->
<g id="edge29" class="edge">
<title>Node15&#45;&gt;Node24</title>
<path fill="none" stroke="#191970" d="M896.0652,-112.2455C896.0652,-104.9382 896.0652,-94.6944 896.0652,-85.7046"/>
<polygon fill="#191970" stroke="#191970" points="899.5653,-85.6426 896.0652,-75.6427 892.5653,-85.6427 899.5653,-85.6426"/>
</g>
</g>
</svg>
