<?xml version="1.0" encoding="UTF-8" standalone="no"?>
<!DOCTYPE svg PUBLIC "-//W3C//DTD SVG 1.1//EN"
 "http://www.w3.org/Graphics/SVG/1.1/DTD/svg11.dtd">
<!-- Generated by graphviz version 2.40.1 (20161225.0304)
 -->
<!-- Title: src/renderer/iRenderer.hxx Pages: 1 -->
<svg width="1055pt" height="196pt"
 viewBox="0.00 0.00 1055.00 196.00" xmlns="http://www.w3.org/2000/svg" xmlns:xlink="http://www.w3.org/1999/xlink">
<g id="graph0" class="graph" transform="scale(1 1) rotate(0) translate(4 192)">
<title>src/renderer/iRenderer.hxx</title>
<!-- Node11 -->
<g id="node1" class="node">
<title>Node11</title>
<polygon fill="#bfbfbf" stroke="#000000" points="636.5,-168.5 636.5,-187.5 781.5,-187.5 781.5,-168.5 636.5,-168.5"/>
<text text-anchor="middle" x="709" y="-175.5" font-family="Helvetica,sans-Serif" font-size="10.00" fill="#000000">src/renderer/iRenderer.hxx</text>
</g>
<!-- Node12 -->
<g id="node2" class="node">
<title>Node12</title>
<g id="a_node2"><a xlink:href="Window_8hxx.html" target="_top" xlink:title="src/view/Window.hxx">
<polygon fill="none" stroke="#000000" points="417.5,-112.5 417.5,-131.5 536.5,-131.5 536.5,-112.5 417.5,-112.5"/>
<text text-anchor="middle" x="477" y="-119.5" font-family="Helvetica,sans-Serif" font-size="10.00" fill="#000000">src/view/Window.hxx</text>
</a>
</g>
</g>
<!-- Node11&#45;&gt;Node12 -->
<g id="edge1" class="edge">
<title>Node11&#45;&gt;Node12</title>
<path fill="none" stroke="#191970" d="M659.4816,-166.0473C616.7803,-155.7401 555.9345,-141.0532 516.4552,-131.5237"/>
<polygon fill="#191970" stroke="#191970" points="658.8393,-169.4927 669.3814,-168.4369 660.4818,-162.6881 658.8393,-169.4927"/>
</g>
<!-- Node21 -->
<g id="node11" class="node">
<title>Node21</title>
<g id="a_node11"><a xlink:href="SDLRenderer_8hxx.html" target="_top" xlink:title="src/renderer/SDLRenderer.hxx">
<polygon fill="none" stroke="#000000" points="628.5,-112.5 628.5,-131.5 789.5,-131.5 789.5,-112.5 628.5,-112.5"/>
<text text-anchor="middle" x="709" y="-119.5" font-family="Helvetica,sans-Serif" font-size="10.00" fill="#000000">src/renderer/SDLRenderer.hxx</text>
</a>
</g>
</g>
<!-- Node11&#45;&gt;Node21 -->
<g id="edge10" class="edge">
<title>Node11&#45;&gt;Node21</title>
<path fill="none" stroke="#191970" d="M709,-158.1575C709,-149.155 709,-138.9199 709,-131.6427"/>
<polygon fill="#191970" stroke="#191970" points="705.5001,-158.2455 709,-168.2455 712.5001,-158.2456 705.5001,-158.2455"/>
</g>
<!-- Node23 -->
<g id="node13" class="node">
<title>Node23</title>
<g id="a_node13"><a xlink:href="iRenderer_8cxx.html" target="_top" xlink:title="src/renderer/iRenderer.cxx">
<polygon fill="none" stroke="#000000" points="808,-112.5 808,-131.5 952,-131.5 952,-112.5 808,-112.5"/>
<text text-anchor="middle" x="880" y="-119.5" font-family="Helvetica,sans-Serif" font-size="10.00" fill="#000000">src/renderer/iRenderer.cxx</text>
</a>
</g>
</g>
<!-- Node11&#45;&gt;Node23 -->
<g id="edge14" class="edge">
<title>Node11&#45;&gt;Node23</title>
<path fill="none" stroke="#191970" d="M748.1148,-165.1905C779.4432,-154.9309 822.6871,-140.7691 850.9876,-131.5011"/>
<polygon fill="#191970" stroke="#191970" points="746.81,-161.9348 738.3959,-168.3733 748.9886,-168.5872 746.81,-161.9348"/>
</g>
<!-- Node13 -->
<g id="node3" class="node">
<title>Node13</title>
<g id="a_node3"><a xlink:href="iActivity_8cxx.html" target="_top" xlink:title="src/activity/iActivity.cxx">
<polygon fill="none" stroke="#000000" points="410.5,-56.5 410.5,-75.5 543.5,-75.5 543.5,-56.5 410.5,-56.5"/>
<text text-anchor="middle" x="477" y="-63.5" font-family="Helvetica,sans-Serif" font-size="10.00" fill="#000000">src/activity/iActivity.cxx</text>
</a>
</g>
</g>
<!-- Node12&#45;&gt;Node13 -->
<g id="edge2" class="edge">
<title>Node12&#45;&gt;Node13</title>
<path fill="none" stroke="#191970" d="M477,-102.1575C477,-93.155 477,-82.9199 477,-75.6427"/>
<polygon fill="#191970" stroke="#191970" points="473.5001,-102.2455 477,-112.2455 480.5001,-102.2456 473.5001,-102.2455"/>
</g>
<!-- Node14 -->
<g id="node4" class="node">
<title>Node14</title>
<g id="a_node4"><a xlink:href="Camera_8cxx.html" target="_top" xlink:title="src/engine/basics/Camera.cxx">
<polygon fill="none" stroke="#000000" points="0,-56.5 0,-75.5 162,-75.5 162,-56.5 0,-56.5"/>
<text text-anchor="middle" x="81" y="-63.5" font-family="Helvetica,sans-Serif" font-size="10.00" fill="#000000">src/engine/basics/Camera.cxx</text>
</a>
</g>
</g>
<!-- Node12&#45;&gt;Node14 -->
<g id="edge3" class="edge">
<title>Node12&#45;&gt;Node14</title>
<path fill="none" stroke="#191970" d="M407.2727,-112.1396C334.33,-101.8244 220.6093,-85.7427 148.5073,-75.5465"/>
<polygon fill="#191970" stroke="#191970" points="406.8944,-115.6208 417.286,-113.5556 407.8747,-108.6898 406.8944,-115.6208"/>
</g>
<!-- Node15 -->
<g id="node5" class="node">
<title>Node15</title>
<g id="a_node5"><a xlink:href="Map_8cxx.html" target="_top" xlink:title="src/engine/Map.cxx">
<polygon fill="none" stroke="#000000" points="180,-56.5 180,-75.5 290,-75.5 290,-56.5 180,-56.5"/>
<text text-anchor="middle" x="235" y="-63.5" font-family="Helvetica,sans-Serif" font-size="10.00" fill="#000000">src/engine/Map.cxx</text>
</a>
</g>
</g>
<!-- Node12&#45;&gt;Node15 -->
<g id="edge4" class="edge">
<title>Node12&#45;&gt;Node15</title>
<path fill="none" stroke="#191970" d="M425.91,-110.1775C381.3413,-99.8641 317.5107,-85.0934 276.1559,-75.5237"/>
<polygon fill="#191970" stroke="#191970" points="425.142,-113.5922 435.6737,-112.4369 426.7202,-106.7724 425.142,-113.5922"/>
</g>
<!-- Node16 -->
<g id="node6" class="node">
<title>Node16</title>
<g id="a_node6"><a xlink:href="WindowManager_8cxx.html" target="_top" xlink:title="src/engine/WindowManager.cxx">
<polygon fill="none" stroke="#000000" points="699,-56.5 699,-75.5 869,-75.5 869,-56.5 699,-56.5"/>
<text text-anchor="middle" x="784" y="-63.5" font-family="Helvetica,sans-Serif" font-size="10.00" fill="#000000">src/engine/WindowManager.cxx</text>
</a>
</g>
</g>
<!-- Node12&#45;&gt;Node16 -->
<g id="edge5" class="edge">
<title>Node12&#45;&gt;Node16</title>
<path fill="none" stroke="#191970" d="M539.3341,-110.6296C595.9644,-100.2997 678.5559,-85.2341 731.7899,-75.5237"/>
<polygon fill="#191970" stroke="#191970" points="538.6359,-107.1991 529.4264,-112.4369 539.8921,-114.0855 538.6359,-107.1991"/>
</g>
<!-- Node17 -->
<g id="node7" class="node">
<title>Node17</title>
<g id="a_node7"><a xlink:href="Game_8hxx.html" target="_top" xlink:title="src/Game.hxx">
<polygon fill="none" stroke="#000000" points="308,-56.5 308,-75.5 392,-75.5 392,-56.5 308,-56.5"/>
<text text-anchor="middle" x="350" y="-63.5" font-family="Helvetica,sans-Serif" font-size="10.00" fill="#000000">src/Game.hxx</text>
</a>
</g>
</g>
<!-- Node12&#45;&gt;Node17 -->
<g id="edge6" class="edge">
<title>Node12&#45;&gt;Node17</title>
<path fill="none" stroke="#191970" d="M445.8108,-108.2473C422.7463,-98.0771 391.9288,-84.4883 371.5472,-75.5011"/>
<polygon fill="#191970" stroke="#191970" points="444.6058,-111.5411 455.1679,-112.3733 447.4301,-105.1361 444.6058,-111.5411"/>
</g>
<!-- Node20 -->
<g id="node10" class="node">
<title>Node20</title>
<g id="a_node10"><a xlink:href="Window_8cxx.html" target="_top" xlink:title="src/view/Window.cxx">
<polygon fill="none" stroke="#000000" points="561.5,-56.5 561.5,-75.5 680.5,-75.5 680.5,-56.5 561.5,-56.5"/>
<text text-anchor="middle" x="621" y="-63.5" font-family="Helvetica,sans-Serif" font-size="10.00" fill="#000000">src/view/Window.cxx</text>
</a>
</g>
</g>
<!-- Node12&#45;&gt;Node20 -->
<g id="edge9" class="edge">
<title>Node12&#45;&gt;Node20</title>
<path fill="none" stroke="#191970" d="M511.3182,-108.6541C537.578,-98.4419 573.1492,-84.6086 596.5685,-75.5011"/>
<polygon fill="#191970" stroke="#191970" points="509.806,-105.4867 501.7545,-112.3733 512.3431,-112.0108 509.806,-105.4867"/>
</g>
<!-- Node18 -->
<g id="node8" class="node">
<title>Node18</title>
<g id="a_node8"><a xlink:href="Game_8cxx.html" target="_top" xlink:title="src/Game.cxx">
<polygon fill="none" stroke="#000000" points="258.5,-.5 258.5,-19.5 341.5,-19.5 341.5,-.5 258.5,-.5"/>
<text text-anchor="middle" x="300" y="-7.5" font-family="Helvetica,sans-Serif" font-size="10.00" fill="#000000">src/Game.cxx</text>
</a>
</g>
</g>
<!-- Node17&#45;&gt;Node18 -->
<g id="edge7" class="edge">
<title>Node17&#45;&gt;Node18</title>
<path fill="none" stroke="#191970" d="M334.3753,-48.5004C325.8727,-38.9775 315.6782,-27.5596 308.6095,-19.6427"/>
<polygon fill="#191970" stroke="#191970" points="332.0197,-51.1172 341.2907,-56.2455 337.2413,-46.4551 332.0197,-51.1172"/>
</g>
<!-- Node19 -->
<g id="node9" class="node">
<title>Node19</title>
<g id="a_node9"><a xlink:href="main_8cxx.html" target="_top" xlink:title="src/main.cxx">
<polygon fill="none" stroke="#000000" points="359.5,-.5 359.5,-19.5 438.5,-19.5 438.5,-.5 359.5,-.5"/>
<text text-anchor="middle" x="399" y="-7.5" font-family="Helvetica,sans-Serif" font-size="10.00" fill="#000000">src/main.cxx</text>
</a>
</g>
</g>
<!-- Node17&#45;&gt;Node19 -->
<g id="edge8" class="edge">
<title>Node17&#45;&gt;Node19</title>
<path fill="none" stroke="#191970" d="M365.3122,-48.5004C373.6447,-38.9775 383.6353,-27.5596 390.5627,-19.6427"/>
<polygon fill="#191970" stroke="#191970" points="362.4862,-46.415 358.5351,-56.2455 367.7543,-51.0245 362.4862,-46.415"/>
</g>
<!-- Node21&#45;&gt;Node16 -->
<g id="edge11" class="edge">
<title>Node21&#45;&gt;Node16</title>
<path fill="none" stroke="#191970" d="M730.1477,-106.2097C743.3201,-96.3743 759.84,-84.0394 771.0857,-75.6427"/>
<polygon fill="#191970" stroke="#191970" points="727.9828,-103.4581 722.064,-112.2455 732.1709,-109.0671 727.9828,-103.4581"/>
</g>
<!-- Node21&#45;&gt;Node20 -->
<g id="edge13" class="edge">
<title>Node21&#45;&gt;Node20</title>
<path fill="none" stroke="#191970" d="M685.0655,-106.769C669.4717,-96.8456 649.599,-84.1994 636.1528,-75.6427"/>
<polygon fill="#191970" stroke="#191970" points="683.3559,-109.8296 693.6716,-112.2455 687.114,-103.9239 683.3559,-109.8296"/>
</g>
<!-- Node22 -->
<g id="node12" class="node">
<title>Node22</title>
<g id="a_node12"><a xlink:href="SDLRenderer_8cxx.html" target="_top" xlink:title="src/renderer/SDLRenderer.cxx">
<polygon fill="none" stroke="#000000" points="887,-56.5 887,-75.5 1047,-75.5 1047,-56.5 887,-56.5"/>
<text text-anchor="middle" x="967" y="-63.5" font-family="Helvetica,sans-Serif" font-size="10.00" fill="#000000">src/renderer/SDLRenderer.cxx</text>
</a>
</g>
</g>
<!-- Node21&#45;&gt;Node22 -->
<g id="edge12" class="edge">
<title>Node21&#45;&gt;Node22</title>
<path fill="none" stroke="#191970" d="M762.87,-110.3073C810.411,-99.9883 878.8488,-85.1336 923.1231,-75.5237"/>
<polygon fill="#191970" stroke="#191970" points="762.0887,-106.8953 753.0586,-112.4369 763.5735,-113.736 762.0887,-106.8953"/>
</g>
</g>
</svg>
