<?xml version="1.0" encoding="UTF-8" standalone="no"?>
<!DOCTYPE svg PUBLIC "-//W3C//DTD SVG 1.1//EN"
 "http://www.w3.org/Graphics/SVG/1.1/DTD/svg11.dtd">
<!-- Generated by graphviz version 2.40.1 (20161225.0304)
 -->
<!-- Title: src/util/iShape.hxx Pages: 1 -->
<svg width="3661pt" height="431pt"
 viewBox="0.00 0.00 3661.00 431.00" xmlns="http://www.w3.org/2000/svg" xmlns:xlink="http://www.w3.org/1999/xlink">
<g id="graph0" class="graph" transform="scale(1 1) rotate(0) translate(4 427)">
<title>src/util/iShape.hxx</title>
<!-- Node1 -->
<g id="node1" class="node">
<title>Node1</title>
<polygon fill="#bfbfbf" stroke="#000000" points="640,-403.5 640,-422.5 747,-422.5 747,-403.5 640,-403.5"/>
<text text-anchor="middle" x="693.5" y="-410.5" font-family="Helvetica,sans-Serif" font-size="10.00" fill="#000000">src/util/iShape.hxx</text>
</g>
<!-- Node2 -->
<g id="node2" class="node">
<title>Node2</title>
<g id="a_node2"><a xlink:href="iRenderer_8hxx.html" target="_top" xlink:title="src/renderer/iRenderer.hxx">
<polygon fill="none" stroke="#000000" points="655,-179.5 655,-198.5 800,-198.5 800,-179.5 655,-179.5"/>
<text text-anchor="middle" x="727.5" y="-186.5" font-family="Helvetica,sans-Serif" font-size="10.00" fill="#000000">src/renderer/iRenderer.hxx</text>
</a>
</g>
</g>
<!-- Node1&#45;&gt;Node2 -->
<g id="edge1" class="edge">
<title>Node1&#45;&gt;Node2</title>
<path fill="none" stroke="#191970" d="M687.3099,-393.5686C680.3943,-369.5593 670.642,-327.4164 674.5,-291 677.1816,-265.6877 674.9827,-257.6992 686.5,-235 693.7608,-220.6898 706.5891,-207.3565 715.9677,-198.7684"/>
<polygon fill="#191970" stroke="#191970" points="683.9882,-394.6762 690.2287,-403.2381 690.6896,-392.6533 683.9882,-394.6762"/>
</g>
<!-- Node3 -->
<g id="node3" class="node">
<title>Node3</title>
<g id="a_node3"><a xlink:href="Window_8hxx.html" target="_top" xlink:title="src/view/Window.hxx">
<polygon fill="none" stroke="#000000" points="508,-123.5 508,-142.5 627,-142.5 627,-123.5 508,-123.5"/>
<text text-anchor="middle" x="567.5" y="-130.5" font-family="Helvetica,sans-Serif" font-size="10.00" fill="#000000">src/view/Window.hxx</text>
</a>
</g>
</g>
<!-- Node1&#45;&gt;Node3 -->
<g id="edge16" class="edge">
<title>Node1&#45;&gt;Node3</title>
<path fill="none" stroke="#191970" d="M629.7906,-407.2605C565.135,-397.5228 474.5,-371.3297 474.5,-301 474.5,-301 474.5,-301 474.5,-245 474.5,-214.4754 475.0886,-203.3469 493.5,-179 506.1826,-162.2288 526.909,-150.1086 543.2051,-142.5331"/>
<polygon fill="#191970" stroke="#191970" points="629.5365,-410.7591 639.9266,-408.6863 630.5116,-403.8274 629.5365,-410.7591"/>
</g>
<!-- Node15 -->
<g id="node15" class="node">
<title>Node15</title>
<g id="a_node15"><a xlink:href="Rectangle_8hxx.html" target="_top" xlink:title="src/util/Rectangle.hxx">
<polygon fill="none" stroke="#000000" points="697.5,-347.5 697.5,-366.5 819.5,-366.5 819.5,-347.5 697.5,-347.5"/>
<text text-anchor="middle" x="758.5" y="-354.5" font-family="Helvetica,sans-Serif" font-size="10.00" fill="#000000">src/util/Rectangle.hxx</text>
</a>
</g>
</g>
<!-- Node1&#45;&gt;Node15 -->
<g id="edge17" class="edge">
<title>Node1&#45;&gt;Node15</title>
<path fill="none" stroke="#191970" d="M712.4835,-396.645C723.7879,-386.9058 737.747,-374.8795 747.3076,-366.6427"/>
<polygon fill="#191970" stroke="#191970" points="710.1138,-394.0668 704.8221,-403.2455 714.6827,-399.3701 710.1138,-394.0668"/>
</g>
<!-- Node40 -->
<g id="node40" class="node">
<title>Node40</title>
<g id="a_node40"><a xlink:href="iShape_8cxx.html" target="_top" xlink:title="src/util/iShape.cxx">
<polygon fill="none" stroke="#000000" points="837.5,-347.5 837.5,-366.5 943.5,-366.5 943.5,-347.5 837.5,-347.5"/>
<text text-anchor="middle" x="890.5" y="-354.5" font-family="Helvetica,sans-Serif" font-size="10.00" fill="#000000">src/util/iShape.cxx</text>
</a>
</g>
</g>
<!-- Node1&#45;&gt;Node40 -->
<g id="edge52" class="edge">
<title>Node1&#45;&gt;Node40</title>
<path fill="none" stroke="#191970" d="M737.1629,-400.5882C773.3569,-390.2996 824.0494,-375.8895 857.0764,-366.5011"/>
<polygon fill="#191970" stroke="#191970" points="736.0274,-397.2723 727.3655,-403.3733 737.9415,-404.0055 736.0274,-397.2723"/>
</g>
<!-- Node2&#45;&gt;Node3 -->
<g id="edge2" class="edge">
<title>Node2&#45;&gt;Node3</title>
<path fill="none" stroke="#191970" d="M690.5201,-176.057C661.2382,-165.8084 621.0115,-151.729 594.6461,-142.5011"/>
<polygon fill="#191970" stroke="#191970" points="689.4002,-179.3732 699.995,-179.3733 691.7127,-172.7662 689.4002,-179.3732"/>
</g>
<!-- Node12 -->
<g id="node12" class="node">
<title>Node12</title>
<g id="a_node12"><a xlink:href="SDLRenderer_8hxx.html" target="_top" xlink:title="src/renderer/SDLRenderer.hxx">
<polygon fill="none" stroke="#000000" points="647,-123.5 647,-142.5 808,-142.5 808,-123.5 647,-123.5"/>
<text text-anchor="middle" x="727.5" y="-130.5" font-family="Helvetica,sans-Serif" font-size="10.00" fill="#000000">src/renderer/SDLRenderer.hxx</text>
</a>
</g>
</g>
<!-- Node2&#45;&gt;Node12 -->
<g id="edge11" class="edge">
<title>Node2&#45;&gt;Node12</title>
<path fill="none" stroke="#191970" d="M727.5,-169.1575C727.5,-160.155 727.5,-149.9199 727.5,-142.6427"/>
<polygon fill="#191970" stroke="#191970" points="724.0001,-169.2455 727.5,-179.2455 731.0001,-169.2456 724.0001,-169.2455"/>
</g>
<!-- Node14 -->
<g id="node14" class="node">
<title>Node14</title>
<g id="a_node14"><a xlink:href="iRenderer_8cxx.html" target="_top" xlink:title="src/renderer/iRenderer.cxx">
<polygon fill="none" stroke="#000000" points="826.5,-123.5 826.5,-142.5 970.5,-142.5 970.5,-123.5 826.5,-123.5"/>
<text text-anchor="middle" x="898.5" y="-130.5" font-family="Helvetica,sans-Serif" font-size="10.00" fill="#000000">src/renderer/iRenderer.cxx</text>
</a>
</g>
</g>
<!-- Node2&#45;&gt;Node14 -->
<g id="edge15" class="edge">
<title>Node2&#45;&gt;Node14</title>
<path fill="none" stroke="#191970" d="M766.6148,-176.1905C797.9432,-165.9309 841.1871,-151.7691 869.4876,-142.5011"/>
<polygon fill="#191970" stroke="#191970" points="765.31,-172.9348 756.8959,-179.3733 767.4886,-179.5872 765.31,-172.9348"/>
</g>
<!-- Node4 -->
<g id="node4" class="node">
<title>Node4</title>
<g id="a_node4"><a xlink:href="iActivity_8cxx.html" target="_top" xlink:title="src/activity/iActivity.cxx">
<polygon fill="none" stroke="#000000" points="0,-62 0,-81 133,-81 133,-62 0,-62"/>
<text text-anchor="middle" x="66.5" y="-69" font-family="Helvetica,sans-Serif" font-size="10.00" fill="#000000">src/activity/iActivity.cxx</text>
</a>
</g>
</g>
<!-- Node3&#45;&gt;Node4 -->
<g id="edge3" class="edge">
<title>Node3&#45;&gt;Node4</title>
<path fill="none" stroke="#191970" d="M497.8128,-127.4679C413.4086,-120.3046 267.0506,-106.3979 142.5,-87 131.8555,-85.3422 120.4419,-83.2068 109.7794,-81.0543"/>
<polygon fill="#191970" stroke="#191970" points="497.5349,-130.9568 507.7932,-128.308 498.1221,-123.9815 497.5349,-130.9568"/>
</g>
<!-- Node5 -->
<g id="node5" class="node">
<title>Node5</title>
<g id="a_node5"><a xlink:href="Camera_8cxx.html" target="_top" xlink:title="src/engine/basics/Camera.cxx">
<polygon fill="none" stroke="#000000" points="253.5,-62 253.5,-81 415.5,-81 415.5,-62 253.5,-62"/>
<text text-anchor="middle" x="334.5" y="-69" font-family="Helvetica,sans-Serif" font-size="10.00" fill="#000000">src/engine/basics/Camera.cxx</text>
</a>
</g>
</g>
<!-- Node3&#45;&gt;Node5 -->
<g id="edge4" class="edge">
<title>Node3&#45;&gt;Node5</title>
<path fill="none" stroke="#191970" d="M521.4331,-120.8407C477.2157,-109.1696 411.327,-91.7784 370.7354,-81.0643"/>
<polygon fill="#191970" stroke="#191970" points="520.7873,-124.2901 531.3494,-123.4581 522.5738,-117.5218 520.7873,-124.2901"/>
</g>
<!-- Node6 -->
<g id="node6" class="node">
<title>Node6</title>
<g id="a_node6"><a xlink:href="Map_8cxx.html" target="_top" xlink:title="src/engine/Map.cxx">
<polygon fill="none" stroke="#000000" points="433.5,-62 433.5,-81 543.5,-81 543.5,-62 433.5,-62"/>
<text text-anchor="middle" x="488.5" y="-69" font-family="Helvetica,sans-Serif" font-size="10.00" fill="#000000">src/engine/Map.cxx</text>
</a>
</g>
</g>
<!-- Node3&#45;&gt;Node6 -->
<g id="edge5" class="edge">
<title>Node3&#45;&gt;Node6</title>
<path fill="none" stroke="#191970" d="M547.1387,-117.1491C532.46,-105.722 513.1312,-90.6749 500.7571,-81.0419"/>
<polygon fill="#191970" stroke="#191970" points="545.1154,-120.0095 555.1563,-123.3906 549.4154,-114.4859 545.1154,-120.0095"/>
</g>
<!-- Node7 -->
<g id="node7" class="node">
<title>Node7</title>
<g id="a_node7"><a xlink:href="WindowManager_8cxx.html" target="_top" xlink:title="src/engine/WindowManager.cxx">
<polygon fill="none" stroke="#000000" points="561.5,-62 561.5,-81 731.5,-81 731.5,-62 561.5,-62"/>
<text text-anchor="middle" x="646.5" y="-69" font-family="Helvetica,sans-Serif" font-size="10.00" fill="#000000">src/engine/WindowManager.cxx</text>
</a>
</g>
</g>
<!-- Node3&#45;&gt;Node7 -->
<g id="edge6" class="edge">
<title>Node3&#45;&gt;Node7</title>
<path fill="none" stroke="#191970" d="M587.8613,-117.1491C602.54,-105.722 621.8688,-90.6749 634.2429,-81.0419"/>
<polygon fill="#191970" stroke="#191970" points="585.5846,-114.4859 579.8438,-123.3906 589.8846,-120.0095 585.5846,-114.4859"/>
</g>
<!-- Node8 -->
<g id="node8" class="node">
<title>Node8</title>
<g id="a_node8"><a xlink:href="Game_8hxx.html" target="_top" xlink:title="src/Game.hxx">
<polygon fill="none" stroke="#000000" points="151.5,-62 151.5,-81 235.5,-81 235.5,-62 151.5,-62"/>
<text text-anchor="middle" x="193.5" y="-69" font-family="Helvetica,sans-Serif" font-size="10.00" fill="#000000">src/Game.hxx</text>
</a>
</g>
</g>
<!-- Node3&#45;&gt;Node8 -->
<g id="edge7" class="edge">
<title>Node3&#45;&gt;Node8</title>
<path fill="none" stroke="#191970" d="M497.5212,-126.1723C431.7194,-119.0141 330.7153,-106.1217 244.5,-87 237.182,-85.3769 229.3892,-83.2292 222.1547,-81.0514"/>
<polygon fill="#191970" stroke="#191970" points="497.4558,-129.6853 507.7721,-127.272 498.2025,-122.7252 497.4558,-129.6853"/>
</g>
<!-- Node11 -->
<g id="node11" class="node">
<title>Node11</title>
<g id="a_node11"><a xlink:href="Window_8cxx.html" target="_top" xlink:title="src/view/Window.cxx">
<polygon fill="none" stroke="#000000" points="750,-62 750,-81 869,-81 869,-62 750,-62"/>
<text text-anchor="middle" x="809.5" y="-69" font-family="Helvetica,sans-Serif" font-size="10.00" fill="#000000">src/view/Window.cxx</text>
</a>
</g>
</g>
<!-- Node3&#45;&gt;Node11 -->
<g id="edge10" class="edge">
<title>Node3&#45;&gt;Node11</title>
<path fill="none" stroke="#191970" d="M614.7673,-120.9878C660.6949,-109.3162 729.5279,-91.8235 771.8649,-81.0643"/>
<polygon fill="#191970" stroke="#191970" points="613.8768,-117.6028 605.047,-123.4581 615.601,-124.3872 613.8768,-117.6028"/>
</g>
<!-- Node9 -->
<g id="node9" class="node">
<title>Node9</title>
<g id="a_node9"><a xlink:href="Game_8cxx.html" target="_top" xlink:title="src/Game.cxx">
<polygon fill="none" stroke="#000000" points="642,-.5 642,-19.5 725,-19.5 725,-.5 642,-.5"/>
<text text-anchor="middle" x="683.5" y="-7.5" font-family="Helvetica,sans-Serif" font-size="10.00" fill="#000000">src/Game.cxx</text>
</a>
</g>
</g>
<!-- Node8&#45;&gt;Node9 -->
<g id="edge8" class="edge">
<title>Node8&#45;&gt;Node9</title>
<path fill="none" stroke="#191970" d="M231.0144,-59.218C235.5265,-58.0027 240.0953,-56.8916 244.5,-56 388.7096,-26.8083 563.5423,-15.5292 641.9455,-11.7141"/>
<polygon fill="#191970" stroke="#191970" points="229.9605,-55.879 221.3127,-61.9999 231.8901,-62.6079 229.9605,-55.879"/>
</g>
<!-- Node10 -->
<g id="node10" class="node">
<title>Node10</title>
<g id="a_node10"><a xlink:href="main_8cxx.html" target="_top" xlink:title="src/main.cxx">
<polygon fill="none" stroke="#000000" points="154,-.5 154,-19.5 233,-19.5 233,-.5 154,-.5"/>
<text text-anchor="middle" x="193.5" y="-7.5" font-family="Helvetica,sans-Serif" font-size="10.00" fill="#000000">src/main.cxx</text>
</a>
</g>
</g>
<!-- Node8&#45;&gt;Node10 -->
<g id="edge9" class="edge">
<title>Node8&#45;&gt;Node10</title>
<path fill="none" stroke="#191970" d="M193.5,-51.7462C193.5,-41.0519 193.5,-28.314 193.5,-19.7449"/>
<polygon fill="#191970" stroke="#191970" points="190.0001,-51.8906 193.5,-61.8906 197.0001,-51.8907 190.0001,-51.8906"/>
</g>
<!-- Node12&#45;&gt;Node7 -->
<g id="edge12" class="edge">
<title>Node12&#45;&gt;Node7</title>
<path fill="none" stroke="#191970" d="M706.6232,-117.1491C691.5729,-105.722 671.7548,-90.6749 659.0674,-81.0419"/>
<polygon fill="#191970" stroke="#191970" points="704.7628,-120.1311 714.8438,-123.3906 708.9958,-114.5559 704.7628,-120.1311"/>
</g>
<!-- Node12&#45;&gt;Node11 -->
<g id="edge14" class="edge">
<title>Node12&#45;&gt;Node11</title>
<path fill="none" stroke="#191970" d="M748.6345,-117.1491C763.8707,-105.722 783.9334,-90.6749 796.7775,-81.0419"/>
<polygon fill="#191970" stroke="#191970" points="746.2125,-114.5906 740.3125,-123.3906 750.4125,-120.1906 746.2125,-114.5906"/>
</g>
<!-- Node13 -->
<g id="node13" class="node">
<title>Node13</title>
<g id="a_node13"><a xlink:href="SDLRenderer_8cxx.html" target="_top" xlink:title="src/renderer/SDLRenderer.cxx">
<polygon fill="none" stroke="#000000" points="887.5,-62 887.5,-81 1047.5,-81 1047.5,-62 887.5,-62"/>
<text text-anchor="middle" x="967.5" y="-69" font-family="Helvetica,sans-Serif" font-size="10.00" fill="#000000">src/renderer/SDLRenderer.cxx</text>
</a>
</g>
</g>
<!-- Node12&#45;&gt;Node13 -->
<g id="edge13" class="edge">
<title>Node12&#45;&gt;Node13</title>
<path fill="none" stroke="#191970" d="M774.6635,-120.9144C820.2108,-109.2428 888.2768,-91.8009 930.176,-81.0643"/>
<polygon fill="#191970" stroke="#191970" points="773.5549,-117.5853 764.7367,-123.4581 775.2925,-124.3662 773.5549,-117.5853"/>
</g>
<!-- Node16 -->
<g id="node16" class="node">
<title>Node16</title>
<g id="a_node16"><a xlink:href="iViewElement_8hxx.html" target="_top" xlink:title="src/view/iViewElement.hxx">
<polygon fill="none" stroke="#000000" points="684,-291.5 684,-310.5 833,-310.5 833,-291.5 684,-291.5"/>
<text text-anchor="middle" x="758.5" y="-298.5" font-family="Helvetica,sans-Serif" font-size="10.00" fill="#000000">src/view/iViewElement.hxx</text>
</a>
</g>
</g>
<!-- Node15&#45;&gt;Node16 -->
<g id="edge18" class="edge">
<title>Node15&#45;&gt;Node16</title>
<path fill="none" stroke="#191970" d="M758.5,-337.1575C758.5,-328.155 758.5,-317.9199 758.5,-310.6427"/>
<polygon fill="#191970" stroke="#191970" points="755.0001,-337.2455 758.5,-347.2455 762.0001,-337.2456 755.0001,-337.2455"/>
</g>
<!-- Node21 -->
<g id="node21" class="node">
<title>Node21</title>
<g id="a_node21"><a xlink:href="PixelBuffer_8hxx.html" target="_top" xlink:title="src/util/PixelBuffer.hxx">
<polygon fill="none" stroke="#000000" points="1862.5,-179.5 1862.5,-198.5 1988.5,-198.5 1988.5,-179.5 1862.5,-179.5"/>
<text text-anchor="middle" x="1925.5" y="-186.5" font-family="Helvetica,sans-Serif" font-size="10.00" fill="#000000">src/util/PixelBuffer.hxx</text>
</a>
</g>
</g>
<!-- Node15&#45;&gt;Node21 -->
<g id="edge26" class="edge">
<title>Node15&#45;&gt;Node21</title>
<path fill="none" stroke="#191970" d="M802.6013,-344.7106C856.8013,-330.0126 951.767,-305.5727 1034.5,-291 1342.708,-236.712 1716.2082,-204.7932 1862.4703,-193.5838"/>
<polygon fill="#191970" stroke="#191970" points="801.371,-341.4182 792.644,-347.4258 803.2126,-348.1716 801.371,-341.4182"/>
</g>
<!-- Node39 -->
<g id="node39" class="node">
<title>Node39</title>
<g id="a_node39"><a xlink:href="Rectangle_8cxx.html" target="_top" xlink:title="src/util/Rectangle.cxx">
<polygon fill="none" stroke="#000000" points="1044,-291.5 1044,-310.5 1165,-310.5 1165,-291.5 1044,-291.5"/>
<text text-anchor="middle" x="1104.5" y="-298.5" font-family="Helvetica,sans-Serif" font-size="10.00" fill="#000000">src/util/Rectangle.cxx</text>
</a>
</g>
</g>
<!-- Node15&#45;&gt;Node39 -->
<g id="edge51" class="edge">
<title>Node15&#45;&gt;Node39</title>
<path fill="none" stroke="#191970" d="M827.5669,-345.8215C891.4195,-335.487 985.2881,-320.2944 1045.6573,-310.5237"/>
<polygon fill="#191970" stroke="#191970" points="826.8987,-342.3841 817.5864,-347.4369 828.0172,-349.2941 826.8987,-342.3841"/>
</g>
<!-- Node17 -->
<g id="node17" class="node">
<title>Node17</title>
<g id="a_node17"><a xlink:href="iLayout_8hxx.html" target="_top" xlink:title="src/layout/iLayout.hxx">
<polygon fill="none" stroke="#000000" points="696,-235.5 696,-254.5 821,-254.5 821,-235.5 696,-235.5"/>
<text text-anchor="middle" x="758.5" y="-242.5" font-family="Helvetica,sans-Serif" font-size="10.00" fill="#000000">src/layout/iLayout.hxx</text>
</a>
</g>
</g>
<!-- Node16&#45;&gt;Node17 -->
<g id="edge19" class="edge">
<title>Node16&#45;&gt;Node17</title>
<path fill="none" stroke="#191970" d="M758.5,-281.1575C758.5,-272.155 758.5,-261.9199 758.5,-254.6427"/>
<polygon fill="#191970" stroke="#191970" points="755.0001,-281.2455 758.5,-291.2455 762.0001,-281.2456 755.0001,-281.2455"/>
</g>
<!-- Node18 -->
<g id="node18" class="node">
<title>Node18</title>
<g id="a_node18"><a xlink:href="iActivity_8hxx.html" target="_top" xlink:title="src/activity/iActivity.hxx">
<polygon fill="none" stroke="#000000" points="502.5,-179.5 502.5,-198.5 636.5,-198.5 636.5,-179.5 502.5,-179.5"/>
<text text-anchor="middle" x="569.5" y="-186.5" font-family="Helvetica,sans-Serif" font-size="10.00" fill="#000000">src/activity/iActivity.hxx</text>
</a>
</g>
</g>
<!-- Node16&#45;&gt;Node18 -->
<g id="edge24" class="edge">
<title>Node16&#45;&gt;Node18</title>
<path fill="none" stroke="#191970" d="M733.6544,-286.2767C694.2708,-262.9383 618.5954,-218.0936 585.5732,-198.5249"/>
<polygon fill="#191970" stroke="#191970" points="731.9987,-289.3639 742.386,-291.4509 735.5674,-283.3418 731.9987,-289.3639"/>
</g>
<!-- Node20 -->
<g id="node20" class="node">
<title>Node20</title>
<g id="a_node20"><a xlink:href="iViewElement_8cxx.html" target="_top" xlink:title="src/view/iViewElement.cxx">
<polygon fill="none" stroke="#000000" points="839.5,-235.5 839.5,-254.5 987.5,-254.5 987.5,-235.5 839.5,-235.5"/>
<text text-anchor="middle" x="913.5" y="-242.5" font-family="Helvetica,sans-Serif" font-size="10.00" fill="#000000">src/view/iViewElement.cxx</text>
</a>
</g>
</g>
<!-- Node16&#45;&gt;Node20 -->
<g id="edge25" class="edge">
<title>Node16&#45;&gt;Node20</title>
<path fill="none" stroke="#191970" d="M794.6949,-287.9231C823.0297,-277.686 861.7718,-263.6889 887.2022,-254.5011"/>
<polygon fill="#191970" stroke="#191970" points="793.3612,-284.6835 785.1454,-291.3733 795.7398,-291.267 793.3612,-284.6835"/>
</g>
<!-- Node17&#45;&gt;Node18 -->
<g id="edge20" class="edge">
<title>Node17&#45;&gt;Node18</title>
<path fill="none" stroke="#191970" d="M716.1643,-232.4561C681.4706,-222.1765 633.1166,-207.8494 601.5663,-198.5011"/>
<polygon fill="#191970" stroke="#191970" points="715.4274,-235.8881 726.0097,-235.3733 717.4161,-229.1765 715.4274,-235.8881"/>
</g>
<!-- Node19 -->
<g id="node19" class="node">
<title>Node19</title>
<g id="a_node19"><a xlink:href="iLayout_8cxx.html" target="_top" xlink:title="src/layout/iLayout.cxx">
<polygon fill="none" stroke="#000000" points="818.5,-179.5 818.5,-198.5 942.5,-198.5 942.5,-179.5 818.5,-179.5"/>
<text text-anchor="middle" x="880.5" y="-186.5" font-family="Helvetica,sans-Serif" font-size="10.00" fill="#000000">src/layout/iLayout.cxx</text>
</a>
</g>
</g>
<!-- Node17&#45;&gt;Node19 -->
<g id="edge23" class="edge">
<title>Node17&#45;&gt;Node19</title>
<path fill="none" stroke="#191970" d="M788.7584,-231.1109C810.8819,-220.9559 840.3094,-207.4482 859.8011,-198.5011"/>
<polygon fill="#191970" stroke="#191970" points="787.1007,-228.0206 779.4725,-235.3733 790.021,-234.3824 787.1007,-228.0206"/>
</g>
<!-- Node18&#45;&gt;Node3 -->
<g id="edge22" class="edge">
<title>Node18&#45;&gt;Node3</title>
<path fill="none" stroke="#191970" d="M568.7913,-169.1575C568.4698,-160.155 568.1043,-149.9199 567.8444,-142.6427"/>
<polygon fill="#191970" stroke="#191970" points="565.2968,-169.3769 569.1516,-179.2455 572.2924,-169.127 565.2968,-169.3769"/>
</g>
<!-- Node18&#45;&gt;Node4 -->
<g id="edge21" class="edge">
<title>Node18&#45;&gt;Node4</title>
<path fill="none" stroke="#191970" d="M518.9158,-177.1836C419.0904,-153.8646 198.5297,-102.3419 107.2652,-81.0227"/>
<polygon fill="#191970" stroke="#191970" points="518.2294,-180.6174 528.7635,-179.484 519.8218,-173.8009 518.2294,-180.6174"/>
</g>
<!-- Node21&#45;&gt;Node3 -->
<g id="edge27" class="edge">
<title>Node21&#45;&gt;Node3</title>
<path fill="none" stroke="#191970" d="M1851.9427,-187.4021C1615.4085,-182.1018 875.9112,-164.2263 637.5,-143 634.0762,-142.6952 630.564,-142.3374 627.0236,-141.9419"/>
<polygon fill="#191970" stroke="#191970" points="1852.0793,-190.906 1862.155,-187.6301 1852.2357,-183.9077 1852.0793,-190.906"/>
</g>
<!-- Node22 -->
<g id="node22" class="node">
<title>Node22</title>
<g id="a_node22"><a xlink:href="Filesystem_8hxx.html" target="_top" xlink:title="src/util/Filesystem.hxx">
<polygon fill="none" stroke="#000000" points="1862.5,-123.5 1862.5,-142.5 1988.5,-142.5 1988.5,-123.5 1862.5,-123.5"/>
<text text-anchor="middle" x="1925.5" y="-130.5" font-family="Helvetica,sans-Serif" font-size="10.00" fill="#000000">src/util/Filesystem.hxx</text>
</a>
</g>
</g>
<!-- Node21&#45;&gt;Node22 -->
<g id="edge28" class="edge">
<title>Node21&#45;&gt;Node22</title>
<path fill="none" stroke="#191970" d="M1925.5,-169.1575C1925.5,-160.155 1925.5,-149.9199 1925.5,-142.6427"/>
<polygon fill="#191970" stroke="#191970" points="1922.0001,-169.2455 1925.5,-179.2455 1929.0001,-169.2456 1922.0001,-169.2455"/>
</g>
<!-- Node37 -->
<g id="node37" class="node">
<title>Node37</title>
<g id="a_node37"><a xlink:href="CursorView_8cxx.html" target="_top" xlink:title="src/view/CursorView.cxx">
<polygon fill="none" stroke="#000000" points="3518,-62 3518,-81 3653,-81 3653,-62 3518,-62"/>
<text text-anchor="middle" x="3585.5" y="-69" font-family="Helvetica,sans-Serif" font-size="10.00" fill="#000000">src/view/CursorView.cxx</text>
</a>
</g>
</g>
<!-- Node21&#45;&gt;Node37 -->
<g id="edge50" class="edge">
<title>Node21&#45;&gt;Node37</title>
<path fill="none" stroke="#191970" d="M1949.4854,-173.8541C1979.217,-155.2196 2027.1283,-125.6993 2036.5,-123 2193.82,-77.6878 3346.8251,-105.4299 3509.5,-87 3521.2748,-85.666 3533.9349,-83.4176 3545.4803,-81.041"/>
<polygon fill="#191970" stroke="#191970" points="1947.5097,-170.9619 1940.9048,-179.246 1951.2341,-176.8889 1947.5097,-170.9619"/>
</g>
<!-- Node38 -->
<g id="node38" class="node">
<title>Node38</title>
<g id="a_node38"><a xlink:href="PixelBuffer_8cxx.html" target="_top" xlink:title="src/util/PixelBuffer.cxx">
<polygon fill="none" stroke="#000000" points="2045,-123.5 2045,-142.5 2170,-142.5 2170,-123.5 2045,-123.5"/>
<text text-anchor="middle" x="2107.5" y="-130.5" font-family="Helvetica,sans-Serif" font-size="10.00" fill="#000000">src/util/PixelBuffer.cxx</text>
</a>
</g>
</g>
<!-- Node21&#45;&gt;Node38 -->
<g id="edge49" class="edge">
<title>Node21&#45;&gt;Node38</title>
<path fill="none" stroke="#191970" d="M1966.6986,-176.3235C2000.0758,-166.0536 2046.3699,-151.8093 2076.6214,-142.5011"/>
<polygon fill="#191970" stroke="#191970" points="1965.3154,-173.0871 1956.7869,-179.3733 1967.374,-179.7776 1965.3154,-173.0871"/>
</g>
<!-- Node22&#45;&gt;Node6 -->
<g id="edge31" class="edge">
<title>Node22&#45;&gt;Node6</title>
<path fill="none" stroke="#191970" d="M1852.0776,-132.5154C1605.3072,-130.5771 807.0173,-121.7131 552.5,-87 542.5318,-85.6405 531.8543,-83.3841 522.1329,-81.008"/>
<polygon fill="#191970" stroke="#191970" points="1852.3398,-136.0174 1862.3665,-132.5947 1852.3938,-129.0176 1852.3398,-136.0174"/>
</g>
<!-- Node22&#45;&gt;Node7 -->
<g id="edge36" class="edge">
<title>Node22&#45;&gt;Node7</title>
<path fill="none" stroke="#191970" d="M1852.1775,-131.3525C1628.6381,-126.1401 957.7586,-109.0424 740.5,-87 726.3484,-85.5642 711.0966,-83.3439 697.0809,-81.0281"/>
<polygon fill="#191970" stroke="#191970" points="1852.4019,-134.8586 1862.4805,-131.5917 1852.5645,-127.8604 1852.4019,-134.8586"/>
</g>
<!-- Node22&#45;&gt;Node9 -->
<g id="edge37" class="edge">
<title>Node22&#45;&gt;Node9</title>
<path fill="none" stroke="#191970" d="M1852.3132,-131.534C1662.4612,-127.3664 1164.0764,-113.9698 1094.5,-87 1074.1775,-79.1224 1076.5455,-64.5579 1056.5,-56 997.5425,-30.8296 809.3312,-17.1976 725.0273,-12.2205"/>
<polygon fill="#191970" stroke="#191970" points="1852.4008,-135.0366 1862.4745,-131.7547 1852.5528,-128.0383 1852.4008,-135.0366"/>
</g>
<!-- Node22&#45;&gt;Node11 -->
<g id="edge48" class="edge">
<title>Node22&#45;&gt;Node11</title>
<path fill="none" stroke="#191970" d="M1852.2874,-131.471C1646.7564,-126.9098 1067.1653,-112.1336 878.5,-87 867.9119,-85.5895 856.5514,-83.3475 846.1662,-81.0021"/>
<polygon fill="#191970" stroke="#191970" points="1852.2984,-134.972 1862.3732,-131.6932 1852.4527,-127.9737 1852.2984,-134.972"/>
</g>
<!-- Node22&#45;&gt;Node13 -->
<g id="edge38" class="edge">
<title>Node22&#45;&gt;Node13</title>
<path fill="none" stroke="#191970" d="M1852.0291,-131.817C1702.6985,-128.8115 1353.1646,-118.7134 1061.5,-87 1047.688,-85.4982 1032.8195,-83.3131 1019.0749,-81.0549"/>
<polygon fill="#191970" stroke="#191970" points="1852.3645,-135.3242 1862.4313,-132.0214 1852.502,-128.3255 1852.3645,-135.3242"/>
</g>
<!-- Node23 -->
<g id="node23" class="node">
<title>Node23</title>
<g id="a_node23"><a xlink:href="Settings_8cxx.html" target="_top" xlink:title="src/engine/basics/Settings.cxx">
<polygon fill="none" stroke="#000000" points="1103.5,-62 1103.5,-81 1267.5,-81 1267.5,-62 1103.5,-62"/>
<text text-anchor="middle" x="1185.5" y="-69" font-family="Helvetica,sans-Serif" font-size="10.00" fill="#000000">src/engine/basics/Settings.cxx</text>
</a>
</g>
</g>
<!-- Node22&#45;&gt;Node23 -->
<g id="edge29" class="edge">
<title>Node22&#45;&gt;Node23</title>
<path fill="none" stroke="#191970" d="M1851.9844,-130.1372C1731.4386,-124.9169 1484.3631,-112.0082 1276.5,-87 1263.4526,-85.4303 1249.4271,-83.2758 1236.3888,-81.0723"/>
<polygon fill="#191970" stroke="#191970" points="1852.0575,-133.6435 1862.198,-130.5742 1852.3568,-126.6499 1852.0575,-133.6435"/>
</g>
<!-- Node24 -->
<g id="node24" class="node">
<title>Node24</title>
<g id="a_node24"><a xlink:href="TerrainGenerator_8cxx.html" target="_top" xlink:title="src/engine/map/TerrainGenerator.cxx">
<polygon fill="none" stroke="#000000" points="1285.5,-62 1285.5,-81 1481.5,-81 1481.5,-62 1285.5,-62"/>
<text text-anchor="middle" x="1383.5" y="-69" font-family="Helvetica,sans-Serif" font-size="10.00" fill="#000000">src/engine/map/TerrainGenerator.cxx</text>
</a>
</g>
</g>
<!-- Node22&#45;&gt;Node24 -->
<g id="edge30" class="edge">
<title>Node22&#45;&gt;Node24</title>
<path fill="none" stroke="#191970" d="M1852.2012,-126.0645C1765.837,-117.6999 1618.0657,-102.7842 1491.5,-87 1477.1207,-85.2067 1461.691,-83.1011 1447.1228,-81.0299"/>
<polygon fill="#191970" stroke="#191970" points="1851.8755,-129.5493 1862.1657,-127.0269 1852.5485,-122.5817 1851.8755,-129.5493"/>
</g>
<!-- Node25 -->
<g id="node25" class="node">
<title>Node25</title>
<g id="a_node25"><a xlink:href="ResourcesManager_8cxx.html" target="_top" xlink:title="src/engine/ResourcesManager.cxx">
<polygon fill="none" stroke="#000000" points="1500,-62 1500,-81 1681,-81 1681,-62 1500,-62"/>
<text text-anchor="middle" x="1590.5" y="-69" font-family="Helvetica,sans-Serif" font-size="10.00" fill="#000000">src/engine/ResourcesManager.cxx</text>
</a>
</g>
</g>
<!-- Node22&#45;&gt;Node25 -->
<g id="edge32" class="edge">
<title>Node22&#45;&gt;Node25</title>
<path fill="none" stroke="#191970" d="M1863.6174,-121.6395C1799.986,-109.9579 1702.005,-91.9703 1642.3225,-81.0137"/>
<polygon fill="#191970" stroke="#191970" points="1863.0562,-125.0948 1873.5238,-123.4581 1864.3202,-118.2099 1863.0562,-125.0948"/>
</g>
<!-- Node26 -->
<g id="node26" class="node">
<title>Node26</title>
<g id="a_node26"><a xlink:href="TileManager_8cxx.html" target="_top" xlink:title="src/engine/TileManager.cxx">
<polygon fill="none" stroke="#000000" points="1699,-62 1699,-81 1848,-81 1848,-62 1699,-62"/>
<text text-anchor="middle" x="1773.5" y="-69" font-family="Helvetica,sans-Serif" font-size="10.00" fill="#000000">src/engine/TileManager.cxx</text>
</a>
</g>
</g>
<!-- Node22&#45;&gt;Node26 -->
<g id="edge33" class="edge">
<title>Node22&#45;&gt;Node26</title>
<path fill="none" stroke="#191970" d="M1892.1231,-119.4955C1863.3604,-107.858 1822.5605,-91.3501 1797.0832,-81.0419"/>
<polygon fill="#191970" stroke="#191970" points="1891.1673,-122.8844 1901.75,-123.3906 1893.7928,-116.3954 1891.1673,-122.8844"/>
</g>
<!-- Node27 -->
<g id="node27" class="node">
<title>Node27</title>
<g id="a_node27"><a xlink:href="Text_8cxx.html" target="_top" xlink:title="src/engine/ui/widgets\l/Text.cxx">
<polygon fill="none" stroke="#000000" points="1865.5,-56.5 1865.5,-86.5 1985.5,-86.5 1985.5,-56.5 1865.5,-56.5"/>
<text text-anchor="start" x="1873.5" y="-74.5" font-family="Helvetica,sans-Serif" font-size="10.00" fill="#000000">src/engine/ui/widgets</text>
<text text-anchor="middle" x="1925.5" y="-63.5" font-family="Helvetica,sans-Serif" font-size="10.00" fill="#000000">/Text.cxx</text>
</a>
</g>
</g>
<!-- Node22&#45;&gt;Node27 -->
<g id="edge34" class="edge">
<title>Node22&#45;&gt;Node27</title>
<path fill="none" stroke="#191970" d="M1925.5,-113.3693C1925.5,-104.681 1925.5,-94.6241 1925.5,-86.5446"/>
<polygon fill="#191970" stroke="#191970" points="1922.0001,-113.3906 1925.5,-123.3906 1929.0001,-113.3907 1922.0001,-113.3906"/>
</g>
<!-- Node28 -->
<g id="node28" class="node">
<title>Node28</title>
<g id="a_node28"><a xlink:href="UIManager_8cxx.html" target="_top" xlink:title="src/engine/UIManager.cxx">
<polygon fill="none" stroke="#000000" points="2003.5,-62 2003.5,-81 2145.5,-81 2145.5,-62 2003.5,-62"/>
<text text-anchor="middle" x="2074.5" y="-69" font-family="Helvetica,sans-Serif" font-size="10.00" fill="#000000">src/engine/UIManager.cxx</text>
</a>
</g>
</g>
<!-- Node22&#45;&gt;Node28 -->
<g id="edge35" class="edge">
<title>Node22&#45;&gt;Node28</title>
<path fill="none" stroke="#191970" d="M1958.2181,-119.4955C1986.4132,-107.858 2026.4078,-91.3501 2051.3822,-81.0419"/>
<polygon fill="#191970" stroke="#191970" points="1956.6894,-116.34 1948.7813,-123.3906 1959.3602,-122.8105 1956.6894,-116.34"/>
</g>
<!-- Node29 -->
<g id="node29" class="node">
<title>Node29</title>
<g id="a_node29"><a xlink:href="ScriptEngine_8cxx.html" target="_top" xlink:title="src/Scripting/ScriptEngine.cxx">
<polygon fill="none" stroke="#000000" points="2164,-62 2164,-81 2325,-81 2325,-62 2164,-62"/>
<text text-anchor="middle" x="2244.5" y="-69" font-family="Helvetica,sans-Serif" font-size="10.00" fill="#000000">src/Scripting/ScriptEngine.cxx</text>
</a>
</g>
</g>
<!-- Node22&#45;&gt;Node29 -->
<g id="edge39" class="edge">
<title>Node22&#45;&gt;Node29</title>
<path fill="none" stroke="#191970" d="M1985.1767,-121.4949C2045.7866,-109.81 2138.5545,-91.9252 2195.1526,-81.0137"/>
<polygon fill="#191970" stroke="#191970" points="1984.1503,-118.1283 1974.9937,-123.4581 1985.4755,-125.0017 1984.1503,-118.1283"/>
</g>
<!-- Node30 -->
<g id="node30" class="node">
<title>Node30</title>
<g id="a_node30"><a xlink:href="AudioMixer_8cxx.html" target="_top" xlink:title="src/services/AudioMixer.cxx">
<polygon fill="none" stroke="#000000" points="2343.5,-62 2343.5,-81 2495.5,-81 2495.5,-62 2343.5,-62"/>
<text text-anchor="middle" x="2419.5" y="-69" font-family="Helvetica,sans-Serif" font-size="10.00" fill="#000000">src/services/AudioMixer.cxx</text>
</a>
</g>
</g>
<!-- Node22&#45;&gt;Node30 -->
<g id="edge40" class="edge">
<title>Node22&#45;&gt;Node30</title>
<path fill="none" stroke="#191970" d="M1998.6272,-123.4648C1999.9282,-123.3076 2001.22,-123.1525 2002.5,-123 2149.8782,-105.4416 2187.6198,-108.3269 2334.5,-87 2346.2273,-85.2972 2358.8112,-83.1693 2370.6062,-81.0408"/>
<polygon fill="#191970" stroke="#191970" points="1998.0177,-120.0132 1988.5186,-124.7056 1998.8706,-126.9611 1998.0177,-120.0132"/>
</g>
<!-- Node31 -->
<g id="node31" class="node">
<title>Node31</title>
<g id="a_node31"><a xlink:href="ResourceManager_8cxx.html" target="_top" xlink:title="src/services/ResourceManager.cxx">
<polygon fill="none" stroke="#000000" points="2514,-62 2514,-81 2697,-81 2697,-62 2514,-62"/>
<text text-anchor="middle" x="2605.5" y="-69" font-family="Helvetica,sans-Serif" font-size="10.00" fill="#000000">src/services/ResourceManager.cxx</text>
</a>
</g>
</g>
<!-- Node22&#45;&gt;Node31 -->
<g id="edge41" class="edge">
<title>Node22&#45;&gt;Node31</title>
<path fill="none" stroke="#191970" d="M1999.1562,-123.3436C2000.2783,-123.2261 2001.3935,-123.1114 2002.5,-123 2225.0583,-100.5867 2282.2157,-111.9856 2504.5,-87 2518.8676,-85.385 2534.3237,-83.2274 2548.7191,-81.0362"/>
<polygon fill="#191970" stroke="#191970" points="1998.4729,-119.8976 1988.9157,-124.4704 1999.2386,-126.8556 1998.4729,-119.8976"/>
</g>
<!-- Node32 -->
<g id="node32" class="node">
<title>Node32</title>
<g id="a_node32"><a xlink:href="android_2Filesystem_8cxx.html" target="_top" xlink:title="src/util/android/Filesystem.cxx">
<polygon fill="none" stroke="#000000" points="2715,-62 2715,-81 2880,-81 2880,-62 2715,-62"/>
<text text-anchor="middle" x="2797.5" y="-69" font-family="Helvetica,sans-Serif" font-size="10.00" fill="#000000">src/util/android/Filesystem.cxx</text>
</a>
</g>
</g>
<!-- Node22&#45;&gt;Node32 -->
<g id="edge42" class="edge">
<title>Node22&#45;&gt;Node32</title>
<path fill="none" stroke="#191970" d="M1999.1531,-123.3117C2000.2762,-123.2041 2001.3924,-123.1001 2002.5,-123 2314.5263,-94.8039 2395.0924,-121.3625 2706.5,-87 2720.04,-85.5059 2734.6209,-83.2952 2748.0587,-81.0085"/>
<polygon fill="#191970" stroke="#191970" points="1998.4946,-119.8609 1988.9058,-124.367 1999.2118,-126.8241 1998.4946,-119.8609"/>
</g>
<!-- Node33 -->
<g id="node33" class="node">
<title>Node33</title>
<g id="a_node33"><a xlink:href="desktop_2Filesystem_8cxx.html" target="_top" xlink:title="src/util/desktop/Filesystem.cxx">
<polygon fill="none" stroke="#000000" points="2898,-62 2898,-81 3065,-81 3065,-62 2898,-62"/>
<text text-anchor="middle" x="2981.5" y="-69" font-family="Helvetica,sans-Serif" font-size="10.00" fill="#000000">src/util/desktop/Filesystem.cxx</text>
</a>
</g>
</g>
<!-- Node22&#45;&gt;Node33 -->
<g id="edge43" class="edge">
<title>Node22&#45;&gt;Node33</title>
<path fill="none" stroke="#191970" d="M1999.1517,-123.2953C2000.2752,-123.1928 2001.3919,-123.0943 2002.5,-123 2395.6272,-89.5606 2497.0743,-127.8559 2889.5,-87 2903.3548,-85.5576 2918.2835,-83.335 2932.001,-81.0193"/>
<polygon fill="#191970" stroke="#191970" points="1998.506,-119.8422 1988.9012,-124.3139 1999.1983,-126.8078 1998.506,-119.8422"/>
</g>
<!-- Node34 -->
<g id="node34" class="node">
<title>Node34</title>
<g id="a_node34"><a xlink:href="Filesystem_8cxx.html" target="_top" xlink:title="src/util/Filesystem.cxx">
<polygon fill="none" stroke="#000000" points="3083,-62 3083,-81 3208,-81 3208,-62 3083,-62"/>
<text text-anchor="middle" x="3145.5" y="-69" font-family="Helvetica,sans-Serif" font-size="10.00" fill="#000000">src/util/Filesystem.cxx</text>
</a>
</g>
</g>
<!-- Node22&#45;&gt;Node34 -->
<g id="edge44" class="edge">
<title>Node22&#45;&gt;Node34</title>
<path fill="none" stroke="#191970" d="M1999.1508,-123.2844C2000.2746,-123.1853 2001.3916,-123.0904 2002.5,-123 2477.6362,-84.2582 2601.4622,-146.081 3074.5,-87 3085.3919,-85.6396 3097.0808,-83.4137 3107.767,-81.0677"/>
<polygon fill="#191970" stroke="#191970" points="1998.5137,-119.8297 1988.8982,-124.2786 1999.1894,-126.797 1998.5137,-119.8297"/>
</g>
<!-- Node35 -->
<g id="node35" class="node">
<title>Node35</title>
<g id="a_node35"><a xlink:href="LOG_8cxx.html" target="_top" xlink:title="src/util/LOG.cxx">
<polygon fill="none" stroke="#000000" points="3226,-62 3226,-81 3319,-81 3319,-62 3226,-62"/>
<text text-anchor="middle" x="3272.5" y="-69" font-family="Helvetica,sans-Serif" font-size="10.00" fill="#000000">src/util/LOG.cxx</text>
</a>
</g>
</g>
<!-- Node22&#45;&gt;Node35 -->
<g id="edge45" class="edge">
<title>Node22&#45;&gt;Node35</title>
<path fill="none" stroke="#191970" d="M1999.1503,-123.2783C2000.2742,-123.1811 2001.3914,-123.0882 2002.5,-123 2271.7678,-101.5794 2950.5024,-127.9421 3217.5,-87 3226.1292,-85.6768 3235.3249,-83.4317 3243.6779,-81.055"/>
<polygon fill="#191970" stroke="#191970" points="1998.5181,-119.8227 1988.8966,-124.2587 1999.1844,-126.7909 1998.5181,-119.8227"/>
</g>
<!-- Node36 -->
<g id="node36" class="node">
<title>Node36</title>
<g id="a_node36"><a xlink:href="macOS_2Filesystem_8cxx.html" target="_top" xlink:title="src/util/macOS/Filesystem.cxx">
<polygon fill="none" stroke="#000000" points="3337,-62 3337,-81 3500,-81 3500,-62 3337,-62"/>
<text text-anchor="middle" x="3418.5" y="-69" font-family="Helvetica,sans-Serif" font-size="10.00" fill="#000000">src/util/macOS/Filesystem.cxx</text>
</a>
</g>
</g>
<!-- Node22&#45;&gt;Node36 -->
<g id="edge46" class="edge">
<title>Node22&#45;&gt;Node36</title>
<path fill="none" stroke="#191970" d="M1999.15,-123.2744C2000.274,-123.1784 2001.3913,-123.0868 2002.5,-123 2590.2513,-76.9765 2741.8273,-145.1798 3328.5,-87 3342.2265,-85.6388 3357.0178,-83.4126 3370.5647,-81.0666"/>
<polygon fill="#191970" stroke="#191970" points="1998.5208,-119.8183 1988.8957,-124.2462 1999.1813,-126.7871 1998.5208,-119.8183"/>
</g>
<!-- Node22&#45;&gt;Node37 -->
<g id="edge47" class="edge">
<title>Node22&#45;&gt;Node37</title>
<path fill="none" stroke="#191970" d="M1999.1496,-123.2694C2000.2738,-123.1749 2001.3911,-123.085 2002.5,-123 2670.5086,-71.7869 2843.769,-162.2366 3509.5,-87 3521.2752,-85.6692 3533.9354,-83.4218 3545.4808,-81.0452"/>
<polygon fill="#191970" stroke="#191970" points="1998.5244,-119.8125 1988.8944,-124.2298 1999.1772,-126.782 1998.5244,-119.8125"/>
</g>
</g>
</svg>
