<?xml version="1.0" encoding="UTF-8" standalone="no"?>
<!DOCTYPE svg PUBLIC "-//W3C//DTD SVG 1.1//EN"
 "http://www.w3.org/Graphics/SVG/1.1/DTD/svg11.dtd">
<!-- Generated by graphviz version 2.40.1 (20161225.0304)
 -->
<!-- Title: convertIsoToScreenCoordinates Pages: 1 -->
<svg width="341pt" height="154pt"
 viewBox="0.00 0.00 341.00 153.50" xmlns="http://www.w3.org/2000/svg" xmlns:xlink="http://www.w3.org/1999/xlink">
<g id="graph0" class="graph" transform="scale(1 1) rotate(0) translate(4 149.5)">
<title>convertIsoToScreenCoordinates</title>
<!-- Node13 -->
<g id="node1" class="node">
<title>Node13</title>
<polygon fill="#bfbfbf" stroke="#000000" points="0,-57.5 0,-76.5 170,-76.5 170,-57.5 0,-57.5"/>
<text text-anchor="middle" x="85" y="-64.5" font-family="Helvetica,sans-Serif" font-size="10.00" fill="#000000">convertIsoToScreenCoordinates</text>
</g>
<!-- Node14 -->
<g id="node2" class="node">
<title>Node14</title>
<g id="a_node2"><a xlink:href="classSingleton.html#af5cb1e5749949e2b68416cfb8d378044" target="_top" xlink:title="Get an instance of the singleton. ">
<polygon fill="none" stroke="#000000" points="208,-115 208,-145 331,-145 331,-115 208,-115"/>
<text text-anchor="start" x="216" y="-133" font-family="Helvetica,sans-Serif" font-size="10.00" fill="#000000">Singleton&lt; Camera &gt;</text>
<text text-anchor="middle" x="269.5" y="-122" font-family="Helvetica,sans-Serif" font-size="10.00" fill="#000000">::instance</text>
</a>
</g>
</g>
<!-- Node13&#45;&gt;Node14 -->
<g id="edge1" class="edge">
<title>Node13&#45;&gt;Node14</title>
<path fill="none" stroke="#191970" d="M113.0216,-76.5683C140.1797,-85.8418 182.0816,-100.1498 215.6921,-111.6266"/>
<polygon fill="#191970" stroke="#191970" points="214.7864,-115.0157 225.3809,-114.935 217.0485,-108.3912 214.7864,-115.0157"/>
</g>
<!-- Node15 -->
<g id="node3" class="node">
<title>Node15</title>
<g id="a_node3"><a xlink:href="classCamera.html#a8521826d32e55e2cc92fee0fcd10ea8b" target="_top" xlink:title="Camera::cameraOffset">
<polygon fill="none" stroke="#000000" points="206,-76.5 206,-95.5 333,-95.5 333,-76.5 206,-76.5"/>
<text text-anchor="middle" x="269.5" y="-83.5" font-family="Helvetica,sans-Serif" font-size="10.00" fill="#000000">Camera::cameraOffset</text>
</a>
</g>
</g>
<!-- Node13&#45;&gt;Node15 -->
<g id="edge2" class="edge">
<title>Node13&#45;&gt;Node15</title>
<path fill="none" stroke="#191970" d="M170.2292,-75.777C178.7541,-76.6549 187.3595,-77.5411 195.7519,-78.4053"/>
<polygon fill="#191970" stroke="#191970" points="195.5573,-81.9037 205.8633,-79.4466 196.2745,-74.9406 195.5573,-81.9037"/>
</g>
<!-- Node16 -->
<g id="node4" class="node">
<title>Node16</title>
<g id="a_node4"><a xlink:href="classCamera.html#a72f8d27fc42f8292cc319084409d718e" target="_top" xlink:title="Camera::zoomLevel">
<polygon fill="none" stroke="#000000" points="212.5,-38.5 212.5,-57.5 326.5,-57.5 326.5,-38.5 212.5,-38.5"/>
<text text-anchor="middle" x="269.5" y="-45.5" font-family="Helvetica,sans-Serif" font-size="10.00" fill="#000000">Camera::zoomLevel</text>
</a>
</g>
</g>
<!-- Node13&#45;&gt;Node16 -->
<g id="edge3" class="edge">
<title>Node13&#45;&gt;Node16</title>
<path fill="none" stroke="#191970" d="M170.2292,-58.223C180.9221,-57.1218 191.7415,-56.0076 202.1084,-54.9401"/>
<polygon fill="#191970" stroke="#191970" points="202.714,-58.3963 212.3029,-53.8902 201.9969,-51.4331 202.714,-58.3963"/>
</g>
<!-- Node17 -->
<g id="node5" class="node">
<title>Node17</title>
<g id="a_node5"><a xlink:href="classCamera.html#a96eee891e27570059e7ef82916dce1c1" target="_top" xlink:title="Camera::tileSize">
<polygon fill="none" stroke="#000000" points="221,-.5 221,-19.5 318,-19.5 318,-.5 221,-.5"/>
<text text-anchor="middle" x="269.5" y="-7.5" font-family="Helvetica,sans-Serif" font-size="10.00" fill="#000000">Camera::tileSize</text>
</a>
</g>
</g>
<!-- Node13&#45;&gt;Node17 -->
<g id="edge4" class="edge">
<title>Node13&#45;&gt;Node17</title>
<path fill="none" stroke="#191970" d="M115.0489,-57.4388C139.511,-49.6852 174.9495,-38.5206 206,-29 212.9586,-26.8664 220.3549,-24.6273 227.5479,-22.465"/>
<polygon fill="#191970" stroke="#191970" points="228.596,-25.8047 237.1703,-19.5812 226.5864,-19.0994 228.596,-25.8047"/>
</g>
</g>
</svg>
