<?xml version="1.0" encoding="UTF-8" standalone="no"?>
<!DOCTYPE svg PUBLIC "-//W3C//DTD SVG 1.1//EN"
 "http://www.w3.org/Graphics/SVG/1.1/DTD/svg11.dtd">
<!-- Generated by graphviz version 2.40.1 (20161225.0304)
 -->
<!-- Title: convertScreenToIsoCoordinates Pages: 1 -->
<svg width="511pt" height="157pt"
 viewBox="0.00 0.00 511.00 156.50" xmlns="http://www.w3.org/2000/svg" xmlns:xlink="http://www.w3.org/1999/xlink">
<g id="graph0" class="graph" transform="scale(1 1) rotate(0) translate(4 152.5)">
<title>convertScreenToIsoCoordinates</title>
<!-- Node37 -->
<g id="node1" class="node">
<title>Node37</title>
<polygon fill="#bfbfbf" stroke="#000000" points="0,-99.5 0,-118.5 170,-118.5 170,-99.5 0,-99.5"/>
<text text-anchor="middle" x="85" y="-106.5" font-family="Helvetica,sans-Serif" font-size="10.00" fill="#000000">convertScreenToIsoCoordinates</text>
</g>
<!-- Node38 -->
<g id="node2" class="node">
<title>Node38</title>
<g id="a_node2"><a xlink:href="classSingleton.html#af5cb1e5749949e2b68416cfb8d378044" target="_top" xlink:title="Get an instance of the singleton. ">
<polygon fill="none" stroke="#000000" points="380.5,-118 380.5,-148 498.5,-148 498.5,-118 380.5,-118"/>
<text text-anchor="start" x="388.5" y="-136" font-family="Helvetica,sans-Serif" font-size="10.00" fill="#000000">Singleton&lt; Engine &gt;</text>
<text text-anchor="middle" x="439.5" y="-125" font-family="Helvetica,sans-Serif" font-size="10.00" fill="#000000">::instance</text>
</a>
</g>
</g>
<!-- Node37&#45;&gt;Node38 -->
<g id="edge1" class="edge">
<title>Node37&#45;&gt;Node38</title>
<path fill="none" stroke="#191970" d="M170.3627,-108.9104C231.6296,-111.7654 313.1415,-117.4135 370.3487,-122.8385"/>
<polygon fill="#191970" stroke="#191970" points="370.0891,-126.3297 380.3806,-123.8127 370.7657,-119.3625 370.0891,-126.3297"/>
</g>
<!-- Node37&#45;&gt;Node38 -->
<g id="edge8" class="edge">
<title>Node37&#45;&gt;Node38</title>
<path fill="none" stroke="#191970" d="M147.5615,-118.5269C209.9188,-124.6261 305.4641,-131.1595 370.1158,-133.7888"/>
<polygon fill="#191970" stroke="#191970" points="370.09,-137.2903 380.2169,-134.1766 370.3586,-130.2954 370.09,-137.2903"/>
</g>
<!-- Node39 -->
<g id="node3" class="node">
<title>Node39</title>
<g id="a_node3"><a xlink:href="classMap.html#a64e71e521c539cf28828be9978c34889" target="_top" xlink:title="Returns the node at given screencoordinates. ">
<polygon fill="none" stroke="#000000" points="215,-76.5 215,-95.5 331,-95.5 331,-76.5 215,-76.5"/>
<text text-anchor="middle" x="273" y="-83.5" font-family="Helvetica,sans-Serif" font-size="10.00" fill="#000000">Map::findNodeInMap</text>
</a>
</g>
</g>
<!-- Node37&#45;&gt;Node39 -->
<g id="edge2" class="edge">
<title>Node37&#45;&gt;Node39</title>
<path fill="none" stroke="#191970" d="M162.8239,-99.479C176.6693,-97.7851 190.9975,-96.0322 204.5578,-94.3733"/>
<polygon fill="#191970" stroke="#191970" points="205.256,-97.814 214.757,-93.1255 204.4059,-90.8658 205.256,-97.814"/>
</g>
<!-- Node40 -->
<g id="node4" class="node">
<title>Node40</title>
<g id="a_node4"><a xlink:href="isoMath_8cxx.html#a0a076d973bc64ffa7859b894793c8000" target="_top" xlink:title="Calculates screen space coordinates to isometric space coordinates. A formula is used to calculate th...">
<polygon fill="none" stroke="#000000" points="206,-38.5 206,-57.5 340,-57.5 340,-38.5 206,-38.5"/>
<text text-anchor="middle" x="273" y="-45.5" font-family="Helvetica,sans-Serif" font-size="10.00" fill="#000000">calculateIsoCoordinates</text>
</a>
</g>
</g>
<!-- Node37&#45;&gt;Node40 -->
<g id="edge3" class="edge">
<title>Node37&#45;&gt;Node40</title>
<path fill="none" stroke="#191970" d="M111.2905,-99.3823C135.703,-90.5692 173.1264,-77.357 206,-67 213.056,-64.777 220.5666,-62.5312 227.9114,-60.4005"/>
<polygon fill="#191970" stroke="#191970" points="229.1155,-63.6965 237.766,-57.5793 227.1889,-56.9668 229.1155,-63.6965"/>
</g>
<!-- Node40&#45;&gt;Node38 -->
<g id="edge4" class="edge">
<title>Node40&#45;&gt;Node38</title>
<path fill="none" stroke="#191970" d="M319.066,-57.5082C326.351,-60.0017 333.5874,-63.1179 340,-67 359.9016,-79.0482 356.9829,-91.5991 376,-105 380.2611,-108.0027 384.8957,-110.7903 389.6558,-113.3496"/>
<polygon fill="#191970" stroke="#191970" points="388.3915,-116.631 398.8992,-117.9866 391.5303,-110.3741 388.3915,-116.631"/>
</g>
<!-- Node41 -->
<g id="node5" class="node">
<title>Node41</title>
<g id="a_node5"><a xlink:href="classCamera.html#a8521826d32e55e2cc92fee0fcd10ea8b" target="_top" xlink:title="Camera::cameraOffset">
<polygon fill="none" stroke="#000000" points="376,-76.5 376,-95.5 503,-95.5 503,-76.5 376,-76.5"/>
<text text-anchor="middle" x="439.5" y="-83.5" font-family="Helvetica,sans-Serif" font-size="10.00" fill="#000000">Camera::cameraOffset</text>
</a>
</g>
</g>
<!-- Node40&#45;&gt;Node41 -->
<g id="edge5" class="edge">
<title>Node40&#45;&gt;Node41</title>
<path fill="none" stroke="#191970" d="M315.015,-57.589C337.1844,-62.6487 364.5732,-68.8996 388.011,-74.2488"/>
<polygon fill="#191970" stroke="#191970" points="387.259,-77.6671 397.7871,-76.4799 388.8166,-70.8425 387.259,-77.6671"/>
</g>
<!-- Node42 -->
<g id="node6" class="node">
<title>Node42</title>
<g id="a_node6"><a xlink:href="classCamera.html#a72f8d27fc42f8292cc319084409d718e" target="_top" xlink:title="Camera::zoomLevel">
<polygon fill="none" stroke="#000000" points="382.5,-38.5 382.5,-57.5 496.5,-57.5 496.5,-38.5 382.5,-38.5"/>
<text text-anchor="middle" x="439.5" y="-45.5" font-family="Helvetica,sans-Serif" font-size="10.00" fill="#000000">Camera::zoomLevel</text>
</a>
</g>
</g>
<!-- Node40&#45;&gt;Node42 -->
<g id="edge6" class="edge">
<title>Node40&#45;&gt;Node42</title>
<path fill="none" stroke="#191970" d="M340.242,-48C350.8433,-48 361.8045,-48 372.4025,-48"/>
<polygon fill="#191970" stroke="#191970" points="372.4286,-51.5001 382.4285,-48 372.4285,-44.5001 372.4286,-51.5001"/>
</g>
<!-- Node43 -->
<g id="node7" class="node">
<title>Node43</title>
<g id="a_node7"><a xlink:href="classCamera.html#a96eee891e27570059e7ef82916dce1c1" target="_top" xlink:title="Camera::tileSize">
<polygon fill="none" stroke="#000000" points="391,-.5 391,-19.5 488,-19.5 488,-.5 391,-.5"/>
<text text-anchor="middle" x="439.5" y="-7.5" font-family="Helvetica,sans-Serif" font-size="10.00" fill="#000000">Camera::tileSize</text>
</a>
</g>
</g>
<!-- Node40&#45;&gt;Node43 -->
<g id="edge7" class="edge">
<title>Node40&#45;&gt;Node43</title>
<path fill="none" stroke="#191970" d="M315.015,-38.411C337.1844,-33.3513 364.5732,-27.1004 388.011,-21.7512"/>
<polygon fill="#191970" stroke="#191970" points="388.8166,-25.1575 397.7871,-19.5201 387.259,-18.3329 388.8166,-25.1575"/>
</g>
</g>
</svg>
