<?xml version="1.0" encoding="UTF-8" standalone="no"?>
<!DOCTYPE svg PUBLIC "-//W3C//DTD SVG 1.1//EN"
 "http://www.w3.org/Graphics/SVG/1.1/DTD/svg11.dtd">
<!-- Generated by graphviz version 2.40.1 (20161225.0304)
 -->
<!-- Title: clamp Pages: 1 -->
<svg width="506pt" height="28pt"
 viewBox="0.00 0.00 506.00 28.00" xmlns="http://www.w3.org/2000/svg" xmlns:xlink="http://www.w3.org/1999/xlink">
<g id="graph0" class="graph" transform="scale(1 1) rotate(0) translate(4 24)">
<title>clamp</title>
<!-- Node14 -->
<g id="node1" class="node">
<title>Node14</title>
<polygon fill="#bfbfbf" stroke="#000000" points="0,-.5 0,-19.5 47,-19.5 47,-.5 0,-.5"/>
<text text-anchor="middle" x="23.5" y="-7.5" font-family="Helvetica,sans-Serif" font-size="10.00" fill="#000000">clamp</text>
</g>
<!-- Node15 -->
<g id="node2" class="node">
<title>Node15</title>
<g id="a_node2"><a xlink:href="classRectangle.html#a4489166815bd21aabea7a321392f1c5a" target="_top" xlink:title="Intersects with another rectangle. ">
<polygon fill="none" stroke="#000000" points="83,-.5 83,-19.5 196,-19.5 196,-.5 83,-.5"/>
<text text-anchor="middle" x="139.5" y="-7.5" font-family="Helvetica,sans-Serif" font-size="10.00" fill="#000000">Rectangle::intersect</text>
</a>
</g>
</g>
<!-- Node14&#45;&gt;Node15 -->
<g id="edge1" class="edge">
<title>Node14&#45;&gt;Node15</title>
<path fill="none" stroke="#191970" d="M57.2699,-10C65.2673,-10 74.014,-10 82.7239,-10"/>
<polygon fill="#191970" stroke="#191970" points="57.2543,-6.5001 47.2542,-10 57.2542,-13.5001 57.2543,-6.5001"/>
</g>
<!-- Node16 -->
<g id="node3" class="node">
<title>Node16</title>
<g id="a_node3"><a xlink:href="classPixelBuffer.html#abbad3bec56ca536a543c42024045c99d" target="_top" xlink:title="Crop the pixel buffer around a region. ">
<polygon fill="none" stroke="#000000" points="232,-.5 232,-19.5 329,-19.5 329,-.5 232,-.5"/>
<text text-anchor="middle" x="280.5" y="-7.5" font-family="Helvetica,sans-Serif" font-size="10.00" fill="#000000">PixelBuffer::crop</text>
</a>
</g>
</g>
<!-- Node15&#45;&gt;Node16 -->
<g id="edge2" class="edge">
<title>Node15&#45;&gt;Node16</title>
<path fill="none" stroke="#191970" d="M206.0909,-10C214.7118,-10 223.4108,-10 231.6703,-10"/>
<polygon fill="#191970" stroke="#191970" points="206.0377,-6.5001 196.0377,-10 206.0376,-13.5001 206.0377,-6.5001"/>
</g>
<!-- Node17 -->
<g id="node4" class="node">
<title>Node17</title>
<g id="a_node4"><a xlink:href="classCursorView.html#a31952d744480fd52f49aa3d552a90f9f" target="_top" xlink:title="CursorView::CursorView">
<polygon fill="none" stroke="#000000" points="365,-.5 365,-19.5 498,-19.5 498,-.5 365,-.5"/>
<text text-anchor="middle" x="431.5" y="-7.5" font-family="Helvetica,sans-Serif" font-size="10.00" fill="#000000">CursorView::CursorView</text>
</a>
</g>
</g>
<!-- Node16&#45;&gt;Node17 -->
<g id="edge3" class="edge">
<title>Node16&#45;&gt;Node17</title>
<path fill="none" stroke="#191970" d="M339.1825,-10C347.585,-10 356.2803,-10 364.8228,-10"/>
<polygon fill="#191970" stroke="#191970" points="339.1086,-6.5001 329.1085,-10 339.1085,-13.5001 339.1086,-6.5001"/>
</g>
</g>
</svg>
