<?xml version="1.0" encoding="UTF-8" standalone="no"?>
<!DOCTYPE svg PUBLIC "-//W3C//DTD SVG 1.1//EN"
 "http://www.w3.org/Graphics/SVG/1.1/DTD/svg11.dtd">
<!-- Generated by graphviz version 2.40.1 (20161225.0304)
 -->
<!-- Title: isPointWithinMapBoundaries Pages: 1 -->
<!--zoomable 448 -->
<svg id="main" version="1.1" xmlns="http://www.w3.org/2000/svg" xmlns:xlink="http://www.w3.org/1999/xlink" xml:space="preserve" onload="init(evt)">
<style type="text/css"><![CDATA[
.edge:hover path { stroke: red; }
.edge:hover polygon { stroke: red; fill: red; }
]]></style>
<script type="text/javascript"><![CDATA[
var edges = document.getElementsByTagName('g');
if (edges && edges.length) {
  for (var i=0;i<edges.length;i++) {
    if (edges[i].id.substr(0,4)=='edge') {
      edges[i].setAttribute('class','edge');
    }
  }
}
]]></script>
        <defs>
                <circle id="rim" cx="0" cy="0" r="7"/>
                <circle id="rim2" cx="0" cy="0" r="3.5"/>
                <g id="zoomPlus">
                        <use xlink:href="#rim" fill="#404040">
                                <set attributeName="fill" to="#808080" begin="zoomplus.mouseover" end="zoomplus.mouseout"/>
                        </use>
                        <path d="M-4,0h8M0,-4v8" fill="none" stroke="white" stroke-width="1.5" pointer-events="none"/>
                </g>
                <g id="zoomMin">
                        <use xlink:href="#rim" fill="#404040">
                                <set attributeName="fill" to="#808080" begin="zoomminus.mouseover" end="zoomminus.mouseout"/>
                        </use>
                        <path d="M-4,0h8" fill="none" stroke="white" stroke-width="1.5" pointer-events="none"/>
                </g>
                <g id="dirArrow">
                        <path fill="none" stroke="white" stroke-width="1.5" d="M0,-3.0v7 M-2.5,-0.5L0,-3.0L2.5,-0.5"/>
                </g>
               <g id="resetDef">
                       <use xlink:href="#rim2" fill="#404040">
                               <set attributeName="fill" to="#808080" begin="reset.mouseover" end="reset.mouseout"/>
                       </use>
               </g>
        </defs>

<script type="text/javascript">
var viewWidth = 1302;
var viewHeight = 448;
var sectionId = 'dynsection-11';
</script>
<script xlink:href="svgpan.js"/>
<svg id="graph" class="graph">
<g id="viewport">
<title>isPointWithinMapBoundaries</title>
<!-- Node64 -->
<g id="node1" class="node">
<title>Node64</title>
<polygon fill="#bfbfbf" stroke="#000000" points="0,-242 0,-261 156,-261 156,-242 0,-242"/>
<text text-anchor="middle" x="78" y="-249" font-family="Helvetica,sans-Serif" font-size="10.00" fill="#000000">isPointWithinMapBoundaries</text>
</g>
<!-- Node65 -->
<g id="node2" class="node">
<title>Node65</title>
<g id="a_node2"><a xlink:href="classCamera.html#adfb240823ff20b97b69459490dbd8dc3" target="_top" xlink:title="Centers camera on given isometric coordinates. ">
<polygon fill="none" stroke="#000000" points="216.5,-335 216.5,-354 379.5,-354 379.5,-335 216.5,-335"/>
<text text-anchor="middle" x="298" y="-342" font-family="Helvetica,sans-Serif" font-size="10.00" fill="#000000">Camera::centerScreenOnPoint</text>
</a>
</g>
</g>
<!-- Node64&#45;&gt;Node65 -->
<g id="edge1" class="edge">
<title>Node64&#45;&gt;Node65</title>
<path fill="none" stroke="#191970" d="M97.5035,-267.6777C119.1906,-284.7883 155.9362,-311.2393 192,-325.5 201.8232,-329.3844 212.4736,-332.4796 223.1076,-334.9449"/>
<polygon fill="#191970" stroke="#191970" points="99.4249,-264.7315 89.4382,-261.1935 95.0388,-270.1871 99.4249,-264.7315"/>
</g>
<!-- Node68 -->
<g id="node5" class="node">
<title>Node68</title>
<g id="a_node5"><a xlink:href="classEventManager.html#a65ec91fd5016d4f9c4167fb8babed2df" target="_top" xlink:title="EventManager::checkEvents">
<polygon fill="none" stroke="#000000" points="830,-335 830,-354 984,-354 984,-335 830,-335"/>
<text text-anchor="middle" x="907" y="-342" font-family="Helvetica,sans-Serif" font-size="10.00" fill="#000000">EventManager::checkEvents</text>
</a>
</g>
</g>
<!-- Node64&#45;&gt;Node68 -->
<g id="edge16" class="edge">
<title>Node64&#45;&gt;Node68</title>
<path fill="none" stroke="#191970" d="M90.6791,-269.7597C109.5448,-295.3562 147.5898,-341.2589 192,-363.5 431.3633,-483.3757 532.3141,-439.9402 794,-383.5 826.2565,-376.5429 862.035,-363.1833 884.5173,-354.058"/>
<polygon fill="#191970" stroke="#191970" points="93.2985,-267.4072 84.6201,-261.3297 87.6144,-271.4926 93.2985,-267.4072"/>
</g>
<!-- Node74 -->
<g id="node11" class="node">
<title>Node74</title>
<g id="a_node11"><a xlink:href="isoMath_8hxx.html#aaaee008d05e747ab820bebea19db8506" target="_top" xlink:title="isPointWithinMapBoundaries">
<polygon fill="none" stroke="#000000" points="220,-297 220,-316 376,-316 376,-297 220,-297"/>
<text text-anchor="middle" x="298" y="-304" font-family="Helvetica,sans-Serif" font-size="10.00" fill="#000000">isPointWithinMapBoundaries</text>
</a>
</g>
</g>
<!-- Node64&#45;&gt;Node74 -->
<g id="edge15" class="edge">
<title>Node64&#45;&gt;Node74</title>
<path fill="none" stroke="#191970" d="M115.5271,-264.1758C137.6199,-271.3475 166.2039,-280.1275 192,-286.5 207.8174,-290.4074 225.1263,-293.9689 241.0861,-296.9683"/>
<polygon fill="#191970" stroke="#191970" points="116.4592,-260.7981 105.8664,-261.0082 114.2782,-267.4497 116.4592,-260.7981"/>
</g>
<!-- Node75 -->
<g id="node12" class="node">
<title>Node75</title>
<g id="a_node12"><a xlink:href="classMap.html#ad360682917f0061dbba995d645c56212" target="_top" xlink:title="Map\&lt; ObserverSPtr\&lt;\l Notification \&gt;, Set\l\&lt; typename Notification\l::TransitionType \&gt; \&gt;::getNeighborNodes">
<polygon fill="none" stroke="#000000" points="192,-225.5 192,-277.5 404,-277.5 404,-225.5 192,-225.5"/>
<text text-anchor="start" x="200" y="-265.5" font-family="Helvetica,sans-Serif" font-size="10.00" fill="#000000">Map&lt; ObserverSPtr&lt;</text>
<text text-anchor="start" x="200" y="-254.5" font-family="Helvetica,sans-Serif" font-size="10.00" fill="#000000"> Notification &gt;, Set</text>
<text text-anchor="start" x="200" y="-243.5" font-family="Helvetica,sans-Serif" font-size="10.00" fill="#000000">&lt; typename Notification</text>
<text text-anchor="middle" x="298" y="-232.5" font-family="Helvetica,sans-Serif" font-size="10.00" fill="#000000">::TransitionType &gt; &gt;::getNeighborNodes</text>
</a>
</g>
</g>
<!-- Node64&#45;&gt;Node75 -->
<g id="edge17" class="edge">
<title>Node64&#45;&gt;Node75</title>
<path fill="none" stroke="#191970" d="M166.3664,-251.5C174.7981,-251.5 183.4063,-251.5 191.9822,-251.5"/>
<polygon fill="#191970" stroke="#191970" points="166.1833,-248.0001 156.1832,-251.5 166.1832,-255.0001 166.1833,-248.0001"/>
</g>
<!-- Node76 -->
<g id="node13" class="node">
<title>Node76</title>
<g id="a_node13"><a xlink:href="classMap.html#a2dda1bb4e2785396a974c950a55aa679" target="_top" xlink:title="Get original corner point of given point within building borders. ">
<polygon fill="none" stroke="#000000" points="207,-143 207,-206 389,-206 389,-143 207,-143"/>
<text text-anchor="start" x="215" y="-194" font-family="Helvetica,sans-Serif" font-size="10.00" fill="#000000">Map&lt; ObserverSPtr&lt;</text>
<text text-anchor="start" x="215" y="-183" font-family="Helvetica,sans-Serif" font-size="10.00" fill="#000000"> Notification &gt;, Set</text>
<text text-anchor="start" x="215" y="-172" font-family="Helvetica,sans-Serif" font-size="10.00" fill="#000000">&lt; typename Notification</text>
<text text-anchor="start" x="215" y="-161" font-family="Helvetica,sans-Serif" font-size="10.00" fill="#000000">::TransitionType &gt; &gt;::getNodeOrig</text>
<text text-anchor="middle" x="298" y="-150" font-family="Helvetica,sans-Serif" font-size="10.00" fill="#000000">CornerPoint</text>
</a>
</g>
</g>
<!-- Node64&#45;&gt;Node76 -->
<g id="edge18" class="edge">
<title>Node64&#45;&gt;Node76</title>
<path fill="none" stroke="#191970" d="M115.0043,-238.5485C140.4013,-229.6596 175.2608,-217.4587 207.7451,-206.0892"/>
<polygon fill="#191970" stroke="#191970" points="113.7007,-235.2965 105.4183,-241.9036 116.0132,-241.9035 113.7007,-235.2965"/>
</g>
<!-- Node77 -->
<g id="node14" class="node">
<title>Node77</title>
<g id="a_node14"><a xlink:href="classMap.html#aa8cc2ed983007621bce12dd9d1b8ec5b" target="_top" xlink:title="Demolish a node This function gathers all tiles that should be demolished and invokes the nodes demol...">
<polygon fill="none" stroke="#000000" points="202.5,-71.5 202.5,-123.5 393.5,-123.5 393.5,-71.5 202.5,-71.5"/>
<text text-anchor="start" x="210.5" y="-111.5" font-family="Helvetica,sans-Serif" font-size="10.00" fill="#000000">Map&lt; ObserverSPtr&lt;</text>
<text text-anchor="start" x="210.5" y="-100.5" font-family="Helvetica,sans-Serif" font-size="10.00" fill="#000000"> Notification &gt;, Set</text>
<text text-anchor="start" x="210.5" y="-89.5" font-family="Helvetica,sans-Serif" font-size="10.00" fill="#000000">&lt; typename Notification</text>
<text text-anchor="middle" x="298" y="-78.5" font-family="Helvetica,sans-Serif" font-size="10.00" fill="#000000">::TransitionType &gt; &gt;::demolishNode</text>
</a>
</g>
</g>
<!-- Node64&#45;&gt;Node77 -->
<g id="edge19" class="edge">
<title>Node64&#45;&gt;Node77</title>
<path fill="none" stroke="#191970" d="M90.7905,-233.6489C110.0142,-208.0333 148.744,-160.9227 192,-133.5 197.7451,-129.8578 203.9006,-126.5387 210.2469,-123.5222"/>
<polygon fill="#191970" stroke="#191970" points="87.9398,-231.6176 84.8289,-241.7455 93.5766,-235.7681 87.9398,-231.6176"/>
</g>
<!-- Node78 -->
<g id="node15" class="node">
<title>Node78</title>
<g id="a_node15"><a xlink:href="classMap.html#a352929ea8cc2efc4f415c7ec795e1538" target="_top" xlink:title="Map\&lt; ObserverSPtr\&lt;\l Notification \&gt;, Set\l\&lt; typename Notification\l::TransitionType \&gt; \&gt;::isClickWithinTile">
<polygon fill="none" stroke="#000000" points="196.5,-.5 196.5,-52.5 399.5,-52.5 399.5,-.5 196.5,-.5"/>
<text text-anchor="start" x="204.5" y="-40.5" font-family="Helvetica,sans-Serif" font-size="10.00" fill="#000000">Map&lt; ObserverSPtr&lt;</text>
<text text-anchor="start" x="204.5" y="-29.5" font-family="Helvetica,sans-Serif" font-size="10.00" fill="#000000"> Notification &gt;, Set</text>
<text text-anchor="start" x="204.5" y="-18.5" font-family="Helvetica,sans-Serif" font-size="10.00" fill="#000000">&lt; typename Notification</text>
<text text-anchor="middle" x="298" y="-7.5" font-family="Helvetica,sans-Serif" font-size="10.00" fill="#000000">::TransitionType &gt; &gt;::isClickWithinTile</text>
</a>
</g>
</g>
<!-- Node64&#45;&gt;Node78 -->
<g id="edge20" class="edge">
<title>Node64&#45;&gt;Node78</title>
<path fill="none" stroke="#191970" d="M84.4028,-232.1253C98.0211,-193.871 133.4885,-108.3002 192,-61.5 196.0863,-58.2316 200.4897,-55.2633 205.098,-52.5682"/>
<polygon fill="#191970" stroke="#191970" points="80.9533,-231.3931 81.0074,-241.9878 87.572,-233.6718 80.9533,-231.3931"/>
</g>
<!-- Node66 -->
<g id="node3" class="node">
<title>Node66</title>
<g id="a_node3"><a xlink:href="classCamera.html#a0a8ee04ccb4f4cc9af52a964cf225f66" target="_top" xlink:title="Increases the zoom level of the camera. ">
<polygon fill="none" stroke="#000000" points="441.5,-373 441.5,-392 598.5,-392 598.5,-373 441.5,-373"/>
<text text-anchor="middle" x="520" y="-380" font-family="Helvetica,sans-Serif" font-size="10.00" fill="#000000">Camera::increaseZoomLevel</text>
</a>
</g>
</g>
<!-- Node65&#45;&gt;Node66 -->
<g id="edge2" class="edge">
<title>Node65&#45;&gt;Node66</title>
<path fill="none" stroke="#191970" d="M363.875,-355.7759C395.8136,-361.2429 433.7593,-367.7381 464.2436,-372.9561"/>
<polygon fill="#191970" stroke="#191970" points="364.1806,-352.2774 353.7334,-354.04 362.9995,-359.177 364.1806,-352.2774"/>
</g>
<!-- Node67 -->
<g id="node4" class="node">
<title>Node67</title>
<g id="a_node4"><a xlink:href="classCamera.html#a1f8ecd427814c5a4970223c2d13b9310" target="_top" xlink:title="Sets the pinch distance for Android. ">
<polygon fill="none" stroke="#000000" points="642.5,-335 642.5,-354 787.5,-354 787.5,-335 642.5,-335"/>
<text text-anchor="middle" x="715" y="-342" font-family="Helvetica,sans-Serif" font-size="10.00" fill="#000000">Camera::setPinchDistance</text>
</a>
</g>
</g>
<!-- Node65&#45;&gt;Node67 -->
<g id="edge12" class="edge">
<title>Node65&#45;&gt;Node67</title>
<path fill="none" stroke="#191970" d="M389.9295,-344.5C465.8888,-344.5 572.2646,-344.5 642.3586,-344.5"/>
<polygon fill="#191970" stroke="#191970" points="389.8883,-341.0001 379.8882,-344.5 389.8882,-348.0001 389.8883,-341.0001"/>
</g>
<!-- Node72 -->
<g id="node9" class="node">
<title>Node72</title>
<g id="a_node9"><a xlink:href="classCamera.html#aeea39f352d5873495dea6f376cf3207e" target="_top" xlink:title="Decreases the zoom level of the camera. ">
<polygon fill="none" stroke="#000000" points="440,-297 440,-316 600,-316 600,-297 440,-297"/>
<text text-anchor="middle" x="520" y="-304" font-family="Helvetica,sans-Serif" font-size="10.00" fill="#000000">Camera::decreaseZoomLevel</text>
</a>
</g>
</g>
<!-- Node65&#45;&gt;Node72 -->
<g id="edge9" class="edge">
<title>Node65&#45;&gt;Node72</title>
<path fill="none" stroke="#191970" d="M363.875,-333.2241C395.8136,-327.7571 433.7593,-321.2619 464.2436,-316.0439"/>
<polygon fill="#191970" stroke="#191970" points="362.9995,-329.823 353.7334,-334.96 364.1806,-336.7226 362.9995,-329.823"/>
</g>
<!-- Node73 -->
<g id="node10" class="node">
<title>Node73</title>
<g id="a_node10"><a xlink:href="classCamera.html#af29da768f8948f3afbf0a9b43530eb1d" target="_top" xlink:title="Centers camera on the middle of the map. ">
<polygon fill="none" stroke="#000000" points="636,-247.5 636,-277.5 794,-277.5 794,-247.5 636,-247.5"/>
<text text-anchor="start" x="644" y="-265.5" font-family="Helvetica,sans-Serif" font-size="10.00" fill="#000000">Camera::centerScreenOnMap</text>
<text text-anchor="middle" x="715" y="-254.5" font-family="Helvetica,sans-Serif" font-size="10.00" fill="#000000">Center</text>
</a>
</g>
</g>
<!-- Node65&#45;&gt;Node73 -->
<g id="edge13" class="edge">
<title>Node65&#45;&gt;Node73</title>
<path fill="none" stroke="#191970" d="M389.4938,-332.0548C394.5152,-330.1607 399.388,-327.989 404,-325.5 424.4732,-314.4509 419.0672,-297.6515 440,-287.5 501.0363,-257.9001 578.6156,-253.3841 635.8026,-255.2657"/>
<polygon fill="#191970" stroke="#191970" points="388.0397,-328.8516 379.684,-335.3655 390.2782,-335.484 388.0397,-328.8516"/>
</g>
<!-- Node66&#45;&gt;Node67 -->
<g id="edge3" class="edge">
<title>Node66&#45;&gt;Node67</title>
<path fill="none" stroke="#191970" d="M578.9588,-371.0106C606.782,-365.5886 639.5957,-359.1942 666.0248,-354.0439"/>
<polygon fill="#191970" stroke="#191970" points="578.1009,-367.6118 568.955,-372.96 579.4399,-374.4826 578.1009,-367.6118"/>
</g>
<!-- Node66&#45;&gt;Node68 -->
<g id="edge8" class="edge">
<title>Node66&#45;&gt;Node68</title>
<path fill="none" stroke="#191970" d="M608.9105,-378.5299C662.6236,-375.5861 732.3875,-370.7984 794,-363.5 814.6443,-361.0545 837.2636,-357.4396 856.8056,-354.0174"/>
<polygon fill="#191970" stroke="#191970" points="608.5297,-375.0452 598.7317,-379.0762 608.905,-382.0351 608.5297,-375.0452"/>
</g>
<!-- Node67&#45;&gt;Node68 -->
<g id="edge4" class="edge">
<title>Node67&#45;&gt;Node68</title>
<path fill="none" stroke="#191970" d="M797.7207,-344.5C808.3799,-344.5 819.2617,-344.5 829.8269,-344.5"/>
<polygon fill="#191970" stroke="#191970" points="797.587,-341.0001 787.587,-344.5 797.5869,-348.0001 797.587,-341.0001"/>
</g>
<!-- Node69 -->
<g id="node6" class="node">
<title>Node69</title>
<g id="a_node6"><a xlink:href="classGame.html#a1c2ab25d5216b2f4b2fe41efd2c09114" target="_top" xlink:title="begins the game starts running the game ">
<polygon fill="none" stroke="#000000" points="1020,-294 1020,-313 1088,-313 1088,-294 1020,-294"/>
<text text-anchor="middle" x="1054" y="-301" font-family="Helvetica,sans-Serif" font-size="10.00" fill="#000000">Game::run</text>
</a>
</g>
</g>
<!-- Node68&#45;&gt;Node69 -->
<g id="edge5" class="edge">
<title>Node68&#45;&gt;Node69</title>
<path fill="none" stroke="#191970" d="M950.8958,-332.2569C972.9621,-326.1024 999.3026,-318.7557 1019.8363,-313.0286"/>
<polygon fill="#191970" stroke="#191970" points="949.7863,-328.9327 941.0942,-334.9907 951.6669,-335.6754 949.7863,-328.9327"/>
</g>
<!-- Node70 -->
<g id="node7" class="node">
<title>Node70</title>
<g id="a_node7"><a xlink:href="main_8cxx.html#af582d708d899e67ead623eac34a22387" target="_top" xlink:title="protected_main">
<polygon fill="none" stroke="#000000" points="1124,-294 1124,-313 1217,-313 1217,-294 1124,-294"/>
<text text-anchor="middle" x="1170.5" y="-301" font-family="Helvetica,sans-Serif" font-size="10.00" fill="#000000">protected_main</text>
</a>
</g>
</g>
<!-- Node69&#45;&gt;Node70 -->
<g id="edge6" class="edge">
<title>Node69&#45;&gt;Node70</title>
<path fill="none" stroke="#191970" d="M1098.2653,-303.5C1106.5757,-303.5 1115.2897,-303.5 1123.6749,-303.5"/>
<polygon fill="#191970" stroke="#191970" points="1098.0098,-300.0001 1088.0098,-303.5 1098.0098,-307.0001 1098.0098,-300.0001"/>
</g>
<!-- Node71 -->
<g id="node8" class="node">
<title>Node71</title>
<g id="a_node8"><a xlink:href="main_8cxx.html#a3c04138a5bfe5d72780bb7e82a18e627" target="_top" xlink:title="main">
<polygon fill="none" stroke="#000000" points="1253,-294 1253,-313 1294,-313 1294,-294 1253,-294"/>
<text text-anchor="middle" x="1273.5" y="-301" font-family="Helvetica,sans-Serif" font-size="10.00" fill="#000000">main</text>
</a>
</g>
</g>
<!-- Node70&#45;&gt;Node71 -->
<g id="edge7" class="edge">
<title>Node70&#45;&gt;Node71</title>
<path fill="none" stroke="#191970" d="M1227.2133,-303.5C1236.4322,-303.5 1245.4259,-303.5 1252.9965,-303.5"/>
<polygon fill="#191970" stroke="#191970" points="1227.1782,-300.0001 1217.1782,-303.5 1227.1781,-307.0001 1227.1782,-300.0001"/>
</g>
<!-- Node72&#45;&gt;Node67 -->
<g id="edge10" class="edge">
<title>Node72&#45;&gt;Node67</title>
<path fill="none" stroke="#191970" d="M578.9588,-317.9894C606.782,-323.4114 639.5957,-329.8058 666.0248,-334.9561"/>
<polygon fill="#191970" stroke="#191970" points="579.4399,-314.5174 568.955,-316.04 578.1009,-321.3882 579.4399,-314.5174"/>
</g>
<!-- Node72&#45;&gt;Node68 -->
<g id="edge11" class="edge">
<title>Node72&#45;&gt;Node68</title>
<path fill="none" stroke="#191970" d="M610.3687,-310.5503C663.8822,-313.5005 732.9436,-318.2674 794,-325.5 814.6443,-327.9455 837.2636,-331.5604 856.8056,-334.9826"/>
<polygon fill="#191970" stroke="#191970" points="610.3963,-307.0468 600.2221,-310.0023 610.0188,-314.0366 610.3963,-307.0468"/>
</g>
<!-- Node73&#45;&gt;Node69 -->
<g id="edge14" class="edge">
<title>Node73&#45;&gt;Node69</title>
<path fill="none" stroke="#191970" d="M804.2863,-273.2986C874.8907,-281.8378 969.6287,-293.2958 1019.6803,-299.3492"/>
<polygon fill="#191970" stroke="#191970" points="804.4005,-269.787 794.0526,-272.0609 803.56,-276.7364 804.4005,-269.787"/>
</g>
</g>
</svg>
        <g id="navigator" transform="translate(0 0)" fill="#404254">
                <rect fill="#f2f5e9" fill-opacity="0.5" stroke="#606060" stroke-width=".5" x="0" y="0" width="60" height="60"/>
                <use id="zoomplus" xlink:href="#zoomPlus" x="17" y="9" onmousedown="handleZoom(evt,'in')"/>
                <use id="zoomminus" xlink:href="#zoomMin" x="42" y="9" onmousedown="handleZoom(evt,'out')"/>
                <use id="reset" xlink:href="#resetDef" x="30" y="36" onmousedown="handleReset()"/>
                <g id="arrowUp" xlink:href="#dirArrow" transform="translate(30 24)" onmousedown="handlePan(0,-1)">
                  <use xlink:href="#rim" fill="#404040">
                        <set attributeName="fill" to="#808080" begin="arrowUp.mouseover" end="arrowUp.mouseout"/>
                  </use>
                  <path fill="none" stroke="white" stroke-width="1.5" d="M0,-3.0v7 M-2.5,-0.5L0,-3.0L2.5,-0.5"/>
                </g>
                <g id="arrowRight" xlink:href="#dirArrow" transform="rotate(90) translate(36 -43)" onmousedown="handlePan(1,0)">
                  <use xlink:href="#rim" fill="#404040">
                        <set attributeName="fill" to="#808080" begin="arrowRight.mouseover" end="arrowRight.mouseout"/>
                  </use>
                  <path fill="none" stroke="white" stroke-width="1.5" d="M0,-3.0v7 M-2.5,-0.5L0,-3.0L2.5,-0.5"/>
                </g>
                <g id="arrowDown" xlink:href="#dirArrow" transform="rotate(180) translate(-30 -48)" onmousedown="handlePan(0,1)">
                  <use xlink:href="#rim" fill="#404040">
                        <set attributeName="fill" to="#808080" begin="arrowDown.mouseover" end="arrowDown.mouseout"/>
                  </use>
                  <path fill="none" stroke="white" stroke-width="1.5" d="M0,-3.0v7 M-2.5,-0.5L0,-3.0L2.5,-0.5"/>
                </g>
                <g id="arrowLeft" xlink:href="#dirArrow" transform="rotate(270) translate(-36 17)" onmousedown="handlePan(-1,0)">
                  <use xlink:href="#rim" fill="#404040">
                        <set attributeName="fill" to="#808080" begin="arrowLeft.mouseover" end="arrowLeft.mouseout"/>
                  </use>
                  <path fill="none" stroke="white" stroke-width="1.5" d="M0,-3.0v7 M-2.5,-0.5L0,-3.0L2.5,-0.5"/>
                </g>
        </g>
        <svg viewBox="0 0 15 15" width="100%" height="30px" preserveAspectRatio="xMaxYMin meet">
         <g id="arrow_out" transform="scale(0.3 0.3)">
          <a xlink:href="isoMath_8cxx_a7fa61c3d8ef446fb1c48dc4838023649_icgraph_org.svg" target="_base">
           <rect id="button" ry="5" rx="5" y="6" x="6" height="38" width="38"
                fill="#f2f5e9" fill-opacity="0.5" stroke="#606060" stroke-width="1.0"/>
           <path id="arrow"
             d="M 11.500037,31.436501 C 11.940474,20.09759 22.043105,11.32322 32.158766,21.979434 L 37.068811,17.246167 C 37.068811,17.246167 37.088388,32 37.088388,32 L 22.160133,31.978069 C 22.160133,31.978069 26.997745,27.140456 26.997745,27.140456 C 18.528582,18.264221 13.291696,25.230495 11.500037,31.436501 z"
             style="fill:#404040;"/>
          </a>
         </g>
        </svg>
</svg>
