<?xml version="1.0" encoding="UTF-8" standalone="no"?>
<!DOCTYPE svg PUBLIC "-//W3C//DTD SVG 1.1//EN"
 "http://www.w3.org/Graphics/SVG/1.1/DTD/svg11.dtd">
<!-- Generated by graphviz version 2.40.1 (20161225.0304)
 -->
<!-- Title: src/engine/basics/isoMath.cxx Pages: 1 -->
<svg width="2043pt" height="476pt"
 viewBox="0.00 0.00 2042.50 476.00" xmlns="http://www.w3.org/2000/svg" xmlns:xlink="http://www.w3.org/1999/xlink">
<g id="graph0" class="graph" transform="scale(1 1) rotate(0) translate(4 472)">
<title>src/engine/basics/isoMath.cxx</title>
<!-- Node0 -->
<g id="node1" class="node">
<title>Node0</title>
<polygon fill="#bfbfbf" stroke="#000000" points="730,-448.5 730,-467.5 892,-467.5 892,-448.5 730,-448.5"/>
<text text-anchor="middle" x="811" y="-455.5" font-family="Helvetica,sans-Serif" font-size="10.00" fill="#000000">src/engine/basics/isoMath.cxx</text>
</g>
<!-- Node1 -->
<g id="node2" class="node">
<title>Node1</title>
<g id="a_node2"><a xlink:href="isoMath_8hxx.html" target="_top" xlink:title="isoMath.hxx">
<polygon fill="none" stroke="#000000" points="236,-168.5 236,-187.5 312,-187.5 312,-168.5 236,-168.5"/>
<text text-anchor="middle" x="274" y="-175.5" font-family="Helvetica,sans-Serif" font-size="10.00" fill="#000000">isoMath.hxx</text>
</a>
</g>
</g>
<!-- Node0&#45;&gt;Node1 -->
<g id="edge1" class="edge">
<title>Node0&#45;&gt;Node1</title>
<path fill="none" stroke="#191970" d="M729.7365,-454.6427C531.2717,-445.3634 38,-415.3269 38,-346 38,-346 38,-346 38,-290 38,-248.665 157.6561,-209.4093 226.5656,-190.2294"/>
<polygon fill="#191970" stroke="#191970" points="227.6261,-193.5679 236.3441,-187.5474 225.7745,-186.8172 227.6261,-193.5679"/>
</g>
<!-- Node5 -->
<g id="node6" class="node">
<title>Node5</title>
<g id="a_node6"><a xlink:href="point_8hxx.html" target="_top" xlink:title="point.hxx">
<polygon fill="none" stroke="#000000" points="50,-112.5 50,-131.5 112,-131.5 112,-112.5 50,-112.5"/>
<text text-anchor="middle" x="81" y="-119.5" font-family="Helvetica,sans-Serif" font-size="10.00" fill="#000000">point.hxx</text>
</a>
</g>
</g>
<!-- Node0&#45;&gt;Node5 -->
<g id="edge63" class="edge">
<title>Node0&#45;&gt;Node5</title>
<path fill="none" stroke="#191970" d="M729.7165,-456.5739C574.3336,-453.1792 240.7503,-442.4858 130,-412 67.5262,-394.803 0,-410.7975 0,-346 0,-346 0,-346 0,-290 0,-230.1379 42.2437,-169.1203 65.7169,-139.8358"/>
<polygon fill="#191970" stroke="#191970" points="68.6769,-141.7473 72.3316,-131.8027 63.2731,-137.2976 68.6769,-141.7473"/>
</g>
<!-- Node6 -->
<g id="node7" class="node">
<title>Node6</title>
<g id="a_node7"><a xlink:href="Engine_8hxx.html" target="_top" xlink:title="../Engine.hxx">
<polygon fill="none" stroke="#000000" points="584,-392.5 584,-411.5 664,-411.5 664,-392.5 584,-392.5"/>
<text text-anchor="middle" x="624" y="-399.5" font-family="Helvetica,sans-Serif" font-size="10.00" fill="#000000">../Engine.hxx</text>
</a>
</g>
</g>
<!-- Node0&#45;&gt;Node6 -->
<g id="edge6" class="edge">
<title>Node0&#45;&gt;Node6</title>
<path fill="none" stroke="#191970" d="M778.8536,-448.3733C747.4891,-438.9807 699.6335,-424.6496 665.4284,-414.4064"/>
<polygon fill="#191970" stroke="#191970" points="666.3107,-411.0171 655.727,-411.5011 664.3025,-417.7229 666.3107,-411.0171"/>
</g>
<!-- Node26 -->
<g id="node27" class="node">
<title>Node26</title>
<g id="a_node27"><a xlink:href="Camera_8hxx.html" target="_top" xlink:title="Camera.hxx">
<polygon fill="none" stroke="#000000" points="558,-168.5 558,-187.5 634,-187.5 634,-168.5 558,-168.5"/>
<text text-anchor="middle" x="596" y="-175.5" font-family="Helvetica,sans-Serif" font-size="10.00" fill="#000000">Camera.hxx</text>
</a>
</g>
</g>
<!-- Node0&#45;&gt;Node26 -->
<g id="edge49" class="edge">
<title>Node0&#45;&gt;Node26</title>
<path fill="none" stroke="#191970" d="M827.9841,-448.368C855.3095,-431.4638 906,-393.6798 906,-346 906,-346 906,-346 906,-290 906,-262.4432 730.491,-212.9461 643.5912,-190.1275"/>
<polygon fill="#191970" stroke="#191970" points="644.262,-186.6854 633.7022,-187.5455 642.4936,-193.4583 644.262,-186.6854"/>
</g>
<!-- Node27 -->
<g id="node28" class="node">
<title>Node27</title>
<g id="a_node28"><a xlink:href="Settings_8hxx.html" target="_top" xlink:title="Settings.hxx">
<polygon fill="none" stroke="#000000" points="1145.5,-168.5 1145.5,-187.5 1222.5,-187.5 1222.5,-168.5 1145.5,-168.5"/>
<text text-anchor="middle" x="1184" y="-175.5" font-family="Helvetica,sans-Serif" font-size="10.00" fill="#000000">Settings.hxx</text>
</a>
</g>
</g>
<!-- Node0&#45;&gt;Node27 -->
<g id="edge53" class="edge">
<title>Node0&#45;&gt;Node27</title>
<path fill="none" stroke="#191970" d="M870.5015,-448.4555C958.7432,-432.5943 1114,-397.3859 1114,-346 1114,-346 1114,-346 1114,-290 1114,-251.1653 1144.6377,-214.6944 1165.3749,-194.4569"/>
<polygon fill="#191970" stroke="#191970" points="1167.862,-196.9226 1172.7533,-187.5244 1163.0688,-191.821 1167.862,-196.9226"/>
</g>
<!-- Node33 -->
<g id="node34" class="node">
<title>Node33</title>
<g id="a_node34"><a xlink:href="LOG_8hxx.html" target="_top" xlink:title="LOG.hxx">
<polygon fill="none" stroke="#000000" points="1544,-168.5 1544,-187.5 1602,-187.5 1602,-168.5 1544,-168.5"/>
<text text-anchor="middle" x="1573" y="-175.5" font-family="Helvetica,sans-Serif" font-size="10.00" fill="#000000">LOG.hxx</text>
</a>
</g>
</g>
<!-- Node0&#45;&gt;Node33 -->
<g id="edge64" class="edge">
<title>Node0&#45;&gt;Node33</title>
<path fill="none" stroke="#191970" d="M892.1729,-450.8201C1053.0593,-435.4922 1397,-396.7854 1397,-346 1397,-346 1397,-346 1397,-290 1397,-225.4871 1482.2084,-196.5269 1534.0491,-184.8774"/>
<polygon fill="#191970" stroke="#191970" points="1534.8849,-188.278 1543.9372,-182.7729 1533.4276,-181.4314 1534.8849,-188.278"/>
</g>
<!-- Node2 -->
<g id="node3" class="node">
<title>Node2</title>
<polygon fill="none" stroke="#bfbfbf" points="264.5,-56.5 264.5,-75.5 311.5,-75.5 311.5,-56.5 264.5,-56.5"/>
<text text-anchor="middle" x="288" y="-63.5" font-family="Helvetica,sans-Serif" font-size="10.00" fill="#000000">vector</text>
</g>
<!-- Node1&#45;&gt;Node2 -->
<g id="edge2" class="edge">
<title>Node1&#45;&gt;Node2</title>
<path fill="none" stroke="#191970" d="M261.3459,-168.2915C246.6137,-155.7245 225.4435,-132.9482 235,-112 240.6889,-99.5296 251.6131,-89.1361 262.0726,-81.4023"/>
<polygon fill="#191970" stroke="#191970" points="264.3523,-84.0832 270.6242,-75.5442 260.3963,-78.3082 264.3523,-84.0832"/>
</g>
<!-- Node3 -->
<g id="node4" class="node">
<title>Node3</title>
<polygon fill="none" stroke="#bfbfbf" points="244,-112.5 244,-131.5 308,-131.5 308,-112.5 244,-112.5"/>
<text text-anchor="middle" x="276" y="-119.5" font-family="Helvetica,sans-Serif" font-size="10.00" fill="#000000">algorithm</text>
</g>
<!-- Node1&#45;&gt;Node3 -->
<g id="edge3" class="edge">
<title>Node1&#45;&gt;Node3</title>
<path fill="none" stroke="#191970" d="M274.3484,-168.2455C274.6093,-160.9382 274.9752,-150.6944 275.2963,-141.7046"/>
<polygon fill="#191970" stroke="#191970" points="278.7964,-141.7613 275.6556,-131.6427 271.8008,-141.5113 278.7964,-141.7613"/>
</g>
<!-- Node4 -->
<g id="node5" class="node">
<title>Node4</title>
<polygon fill="none" stroke="#bfbfbf" points="364,-112.5 364,-131.5 408,-131.5 408,-112.5 364,-112.5"/>
<text text-anchor="middle" x="386" y="-119.5" font-family="Helvetica,sans-Serif" font-size="10.00" fill="#000000">SDL.h</text>
</g>
<!-- Node1&#45;&gt;Node4 -->
<g id="edge4" class="edge">
<title>Node1&#45;&gt;Node4</title>
<path fill="none" stroke="#191970" d="M293.2535,-168.3733C311.0712,-159.4644 337.7747,-146.1127 357.9594,-136.0203"/>
<polygon fill="#191970" stroke="#191970" points="359.6187,-139.1038 366.9978,-131.5011 356.4882,-132.8428 359.6187,-139.1038"/>
</g>
<!-- Node1&#45;&gt;Node5 -->
<g id="edge5" class="edge">
<title>Node1&#45;&gt;Node5</title>
<path fill="none" stroke="#191970" d="M240.8221,-168.3733C207.9608,-158.8384 157.5596,-144.2142 122.1628,-133.9436"/>
<polygon fill="#191970" stroke="#191970" points="122.7296,-130.4638 112.1503,-131.0384 120.7789,-137.1865 122.7296,-130.4638"/>
</g>
<!-- Node6&#45;&gt;Node4 -->
<g id="edge7" class="edge">
<title>Node6&#45;&gt;Node4</title>
<path fill="none" stroke="#191970" d="M607.1947,-392.3224C580.157,-375.351 530,-337.4704 530,-290 530,-290 530,-290 530,-234 530,-199.4675 515.0191,-190.7046 489,-168 477.8127,-158.2379 443.7435,-143.9023 417.823,-133.8357"/>
<polygon fill="#191970" stroke="#191970" points="418.9426,-130.5166 408.3524,-130.205 416.4369,-137.0527 418.9426,-130.5166"/>
</g>
<!-- Node6&#45;&gt;Node5 -->
<g id="edge14" class="edge">
<title>Node6&#45;&gt;Node5</title>
<path fill="none" stroke="#191970" d="M583.7275,-398.3886C526.2712,-392.6419 417.7852,-379.5812 328,-356 259.5757,-338.0291 234.0323,-344.4554 179,-300 126.2775,-257.4105 97.4934,-178.4914 86.4118,-141.7604"/>
<polygon fill="#191970" stroke="#191970" points="89.6729,-140.4377 83.5341,-131.8025 82.948,-142.3811 89.6729,-140.4377"/>
</g>
<!-- Node7 -->
<g id="node8" class="node">
<title>Node7</title>
<g id="a_node8"><a xlink:href="WindowManager_8hxx.html" target="_top" xlink:title="WindowManager.hxx">
<polygon fill="none" stroke="#000000" points="972,-168.5 972,-187.5 1090,-187.5 1090,-168.5 972,-168.5"/>
<text text-anchor="middle" x="1031" y="-175.5" font-family="Helvetica,sans-Serif" font-size="10.00" fill="#000000">WindowManager.hxx</text>
</a>
</g>
</g>
<!-- Node6&#45;&gt;Node7 -->
<g id="edge8" class="edge">
<title>Node6&#45;&gt;Node7</title>
<path fill="none" stroke="#191970" d="M664.0654,-400.4824C716.2118,-397.2681 809.2607,-387.2465 882,-356 920.5507,-339.4398 929.7867,-331.0548 958,-300 987.1753,-267.8863 1010.7026,-222.3533 1022.5826,-196.9706"/>
<polygon fill="#191970" stroke="#191970" points="1025.8395,-198.2643 1026.8141,-187.7144 1019.4732,-195.3539 1025.8395,-198.2643"/>
</g>
<!-- Node10 -->
<g id="node11" class="node">
<title>Node10</title>
<g id="a_node11"><a xlink:href="Singleton_8hxx.html" target="_top" xlink:title="../util/Singleton.hxx">
<polygon fill="none" stroke="#000000" points="891.5,-112.5 891.5,-131.5 1002.5,-131.5 1002.5,-112.5 891.5,-112.5"/>
<text text-anchor="middle" x="947" y="-119.5" font-family="Helvetica,sans-Serif" font-size="10.00" fill="#000000">../util/Singleton.hxx</text>
</a>
</g>
</g>
<!-- Node6&#45;&gt;Node10 -->
<g id="edge48" class="edge">
<title>Node6&#45;&gt;Node10</title>
<path fill="none" stroke="#191970" d="M635.1184,-392.3618C682.5827,-351.2162 868.5287,-190.0246 928.3517,-138.1657"/>
<polygon fill="#191970" stroke="#191970" points="930.6648,-140.7926 935.9284,-131.5977 926.0797,-135.5033 930.6648,-140.7926"/>
</g>
<!-- Node11 -->
<g id="node12" class="node">
<title>Node11</title>
<g id="a_node12"><a xlink:href="Map_8hxx.html" target="_top" xlink:title="Map.hxx">
<polygon fill="none" stroke="#000000" points="337,-336.5 337,-355.5 395,-355.5 395,-336.5 337,-336.5"/>
<text text-anchor="middle" x="366" y="-343.5" font-family="Helvetica,sans-Serif" font-size="10.00" fill="#000000">Map.hxx</text>
</a>
</g>
</g>
<!-- Node6&#45;&gt;Node11 -->
<g id="edge15" class="edge">
<title>Node6&#45;&gt;Node11</title>
<path fill="none" stroke="#191970" d="M583.9706,-393.3114C535.2113,-382.728 453.3874,-364.9678 405.0678,-354.4798"/>
<polygon fill="#191970" stroke="#191970" points="405.8042,-351.0583 395.2894,-352.3574 404.3194,-357.899 405.8042,-351.0583"/>
</g>
<!-- Node7&#45;&gt;Node2 -->
<g id="edge11" class="edge">
<title>Node7&#45;&gt;Node2</title>
<path fill="none" stroke="#191970" d="M1031.234,-168.0361C1030.9826,-153.182 1028.0793,-125.5325 1011,-112 983.6778,-90.3517 461.3302,-71.6963 321.9436,-67.0888"/>
<polygon fill="#191970" stroke="#191970" points="321.9544,-63.5874 311.8449,-66.7575 321.7248,-70.5836 321.9544,-63.5874"/>
</g>
<!-- Node7&#45;&gt;Node4 -->
<g id="edge12" class="edge">
<title>Node7&#45;&gt;Node4</title>
<path fill="none" stroke="#191970" d="M971.7658,-175.3556C842.9843,-169.3235 539.9759,-153.5266 418.3486,-131.7705"/>
<polygon fill="#191970" stroke="#191970" points="418.6605,-128.2676 408.1849,-129.8531 417.3628,-135.1463 418.6605,-128.2676"/>
</g>
<!-- Node8 -->
<g id="node9" class="node">
<title>Node8</title>
<polygon fill="none" stroke="#bfbfbf" points="1066,-56.5 1066,-75.5 1110,-75.5 1110,-56.5 1066,-56.5"/>
<text text-anchor="middle" x="1088" y="-63.5" font-family="Helvetica,sans-Serif" font-size="10.00" fill="#000000">string</text>
</g>
<!-- Node7&#45;&gt;Node8 -->
<g id="edge9" class="edge">
<title>Node7&#45;&gt;Node8</title>
<path fill="none" stroke="#191970" d="M1047.7162,-168.2157C1059.79,-160.1557 1075.2778,-147.5441 1083,-132 1090.1097,-117.6888 1090.9706,-99.4504 1090.2737,-85.7743"/>
<polygon fill="#191970" stroke="#191970" points="1093.74,-85.2221 1089.4248,-75.5458 1086.764,-85.8011 1093.74,-85.2221"/>
</g>
<!-- Node9 -->
<g id="node10" class="node">
<title>Node9</title>
<polygon fill="none" stroke="#bfbfbf" points="1415,-56.5 1415,-75.5 1475,-75.5 1475,-56.5 1415,-56.5"/>
<text text-anchor="middle" x="1445" y="-63.5" font-family="Helvetica,sans-Serif" font-size="10.00" fill="#000000">iostream</text>
</g>
<!-- Node7&#45;&gt;Node9 -->
<g id="edge10" class="edge">
<title>Node7&#45;&gt;Node9</title>
<path fill="none" stroke="#191970" d="M1058.6229,-168.446C1098.5577,-154.8337 1174.8857,-129.564 1241,-112 1310.5669,-93.5188 1331.2853,-93.3087 1405.0317,-76.1568"/>
<polygon fill="#191970" stroke="#191970" points="1405.8604,-79.5575 1414.793,-73.8603 1404.2572,-72.7435 1405.8604,-79.5575"/>
</g>
<!-- Node7&#45;&gt;Node10 -->
<g id="edge13" class="edge">
<title>Node7&#45;&gt;Node10</title>
<path fill="none" stroke="#191970" d="M1016.3683,-168.2455C1003.6006,-159.7337 984.8562,-147.2375 970.0701,-137.3801"/>
<polygon fill="#191970" stroke="#191970" points="971.726,-134.2775 961.464,-131.6427 967.8431,-140.1019 971.726,-134.2775"/>
</g>
<!-- Node11&#45;&gt;Node2 -->
<g id="edge16" class="edge">
<title>Node11&#45;&gt;Node2</title>
<path fill="none" stroke="#191970" d="M336.7948,-343.4489C266.7687,-335.5101 90.697,-304.2675 31,-188 15.5384,-157.8866 4.2316,-137.9233 26,-112 33.3268,-103.2747 185.0873,-80.6612 254.2186,-70.7605"/>
<polygon fill="#191970" stroke="#191970" points="254.7754,-74.2166 264.1811,-69.3398 253.7871,-67.2867 254.7754,-74.2166"/>
</g>
<!-- Node12 -->
<g id="node13" class="node">
<title>Node12</title>
<polygon fill="none" stroke="#bfbfbf" points="394,-280.5 394,-299.5 448,-299.5 448,-280.5 394,-280.5"/>
<text text-anchor="middle" x="421" y="-287.5" font-family="Helvetica,sans-Serif" font-size="10.00" fill="#000000">random</text>
</g>
<!-- Node11&#45;&gt;Node12 -->
<g id="edge17" class="edge">
<title>Node11&#45;&gt;Node12</title>
<path fill="none" stroke="#191970" d="M375.5803,-336.2455C383.5458,-328.1352 395.0641,-316.4075 404.5079,-306.7919"/>
<polygon fill="#191970" stroke="#191970" points="407.0195,-309.2297 411.5295,-299.6427 402.0253,-304.3247 407.0195,-309.2297"/>
</g>
<!-- Node13 -->
<g id="node14" class="node">
<title>Node13</title>
<g id="a_node14"><a xlink:href="MapNode_8hxx.html" target="_top" xlink:title="GameObjects/MapNode.hxx">
<polygon fill="none" stroke="#000000" points="294,-224.5 294,-243.5 446,-243.5 446,-224.5 294,-224.5"/>
<text text-anchor="middle" x="370" y="-231.5" font-family="Helvetica,sans-Serif" font-size="10.00" fill="#000000">GameObjects/MapNode.hxx</text>
</a>
</g>
</g>
<!-- Node11&#45;&gt;Node13 -->
<g id="edge18" class="edge">
<title>Node11&#45;&gt;Node13</title>
<path fill="none" stroke="#191970" d="M366.341,-336.4509C366.9934,-318.184 368.4302,-277.9553 369.2965,-253.6976"/>
<polygon fill="#191970" stroke="#191970" points="372.8006,-253.6435 369.6598,-243.5249 365.805,-253.3936 372.8006,-253.6435"/>
</g>
<!-- Node24 -->
<g id="node25" class="node">
<title>Node24</title>
<g id="a_node25"><a xlink:href="TerrainGenerator_8hxx.html" target="_top" xlink:title="map/TerrainGenerator.hxx">
<polygon fill="none" stroke="#000000" points="188.5,-280.5 188.5,-299.5 331.5,-299.5 331.5,-280.5 188.5,-280.5"/>
<text text-anchor="middle" x="260" y="-287.5" font-family="Helvetica,sans-Serif" font-size="10.00" fill="#000000">map/TerrainGenerator.hxx</text>
</a>
</g>
</g>
<!-- Node11&#45;&gt;Node24 -->
<g id="edge44" class="edge">
<title>Node11&#45;&gt;Node24</title>
<path fill="none" stroke="#191970" d="M347.5362,-336.2455C330.8926,-327.4527 306.2007,-314.4079 287.2808,-304.4125"/>
<polygon fill="#191970" stroke="#191970" points="288.7291,-301.2193 278.2522,-299.6427 285.4592,-307.4086 288.7291,-301.2193"/>
</g>
<!-- Node13&#45;&gt;Node2 -->
<g id="edge23" class="edge">
<title>Node13&#45;&gt;Node2</title>
<path fill="none" stroke="#191970" d="M366.4381,-224.2346C358.6122,-203.1775 338.8644,-152.1575 317,-112 311.8832,-102.6022 305.6126,-92.509 300.2128,-84.1782"/>
<polygon fill="#191970" stroke="#191970" points="303.0195,-82.0765 294.5943,-75.6525 297.1746,-85.9284 303.0195,-82.0765"/>
</g>
<!-- Node13&#45;&gt;Node3 -->
<g id="edge22" class="edge">
<title>Node13&#45;&gt;Node3</title>
<path fill="none" stroke="#191970" d="M363.4123,-224.2894C354.3512,-211.1357 337.3057,-187.1046 321,-168 312.3375,-157.8506 301.9628,-147.1588 293.3591,-138.6399"/>
<polygon fill="#191970" stroke="#191970" points="295.6547,-135.9895 286.0557,-131.5052 290.7632,-140.9968 295.6547,-135.9895"/>
</g>
<!-- Node13&#45;&gt;Node4 -->
<g id="edge19" class="edge">
<title>Node13&#45;&gt;Node4</title>
<path fill="none" stroke="#191970" d="M418.9701,-224.4436C439.2877,-217.8037 460.9044,-206.649 473,-188 477.837,-180.5424 477.587,-175.6139 473,-168 466.6639,-157.4826 440.0182,-144.2749 417.8657,-134.7131"/>
<polygon fill="#191970" stroke="#191970" points="418.9812,-131.3852 408.4067,-130.7282 416.2635,-137.8361 418.9812,-131.3852"/>
</g>
<!-- Node13&#45;&gt;Node5 -->
<g id="edge32" class="edge">
<title>Node13&#45;&gt;Node5</title>
<path fill="none" stroke="#191970" d="M293.7802,-225.0495C235.0632,-217.0864 159.5703,-204.2028 133,-188 114.4059,-176.6612 99.8138,-156.1004 90.8799,-140.9304"/>
<polygon fill="#191970" stroke="#191970" points="93.7672,-138.9215 85.841,-131.8912 87.653,-142.3299 93.7672,-138.9215"/>
</g>
<!-- Node13&#45;&gt;Node8 -->
<g id="edge21" class="edge">
<title>Node13&#45;&gt;Node8</title>
<path fill="none" stroke="#191970" d="M446.266,-227.7123C593.9747,-214.5889 913.1537,-181.3478 1011,-132 1035.1409,-119.8248 1058.0263,-98.5078 1072.4759,-83.3975"/>
<polygon fill="#191970" stroke="#191970" points="1075.3485,-85.4477 1079.59,-75.7389 1070.2198,-80.6836 1075.3485,-85.4477"/>
</g>
<!-- Node14 -->
<g id="node15" class="node">
<title>Node14</title>
<polygon fill="none" stroke="#bfbfbf" points="406,-168.5 406,-187.5 464,-187.5 464,-168.5 406,-168.5"/>
<text text-anchor="middle" x="435" y="-175.5" font-family="Helvetica,sans-Serif" font-size="10.00" fill="#000000">memory</text>
</g>
<!-- Node13&#45;&gt;Node14 -->
<g id="edge20" class="edge">
<title>Node13&#45;&gt;Node14</title>
<path fill="none" stroke="#191970" d="M381.3221,-224.2455C390.9223,-215.9746 404.8892,-203.9416 416.1695,-194.2232"/>
<polygon fill="#191970" stroke="#191970" points="418.516,-196.8214 423.8076,-187.6427 413.947,-191.5182 418.516,-196.8214"/>
</g>
<!-- Node15 -->
<g id="node16" class="node">
<title>Node15</title>
<g id="a_node16"><a xlink:href="Sprite_8hxx.html" target="_top" xlink:title="../Sprite.hxx">
<polygon fill="none" stroke="#000000" points="142.5,-168.5 142.5,-187.5 217.5,-187.5 217.5,-168.5 142.5,-168.5"/>
<text text-anchor="middle" x="180" y="-175.5" font-family="Helvetica,sans-Serif" font-size="10.00" fill="#000000">../Sprite.hxx</text>
</a>
</g>
</g>
<!-- Node13&#45;&gt;Node15 -->
<g id="edge24" class="edge">
<title>Node13&#45;&gt;Node15</title>
<path fill="none" stroke="#191970" d="M337.3378,-224.3733C305.4702,-214.9807 256.8469,-200.6496 222.093,-190.4064"/>
<polygon fill="#191970" stroke="#191970" points="222.8175,-186.9711 212.236,-187.5011 220.8385,-193.6855 222.8175,-186.9711"/>
</g>
<!-- Node16 -->
<g id="node17" class="node">
<title>Node16</title>
<g id="a_node17"><a xlink:href="enums_8hxx.html" target="_top" xlink:title="common/enums.hxx">
<polygon fill="none" stroke="#000000" points="82,-56.5 82,-75.5 198,-75.5 198,-56.5 82,-56.5"/>
<text text-anchor="middle" x="140" y="-63.5" font-family="Helvetica,sans-Serif" font-size="10.00" fill="#000000">common/enums.hxx</text>
</a>
</g>
</g>
<!-- Node13&#45;&gt;Node16 -->
<g id="edge31" class="edge">
<title>Node13&#45;&gt;Node16</title>
<path fill="none" stroke="#191970" d="M305.0247,-224.4566C233.0256,-213.5945 124.6797,-196.2884 107,-188 72.1682,-171.6706 57.1623,-166.9096 41,-132 29.0185,-106.1205 58.7527,-88.9591 88.6934,-78.6392"/>
<polygon fill="#191970" stroke="#191970" points="89.9214,-81.9209 98.3691,-75.5266 87.7777,-75.2572 89.9214,-81.9209"/>
</g>
<!-- Node19 -->
<g id="node20" class="node">
<title>Node19</title>
<g id="a_node20"><a xlink:href="TileManager_8hxx.html" target="_top" xlink:title="../TileManager.hxx">
<polygon fill="none" stroke="#000000" points="652,-168.5 652,-187.5 758,-187.5 758,-168.5 652,-168.5"/>
<text text-anchor="middle" x="705" y="-175.5" font-family="Helvetica,sans-Serif" font-size="10.00" fill="#000000">../TileManager.hxx</text>
</a>
</g>
</g>
<!-- Node13&#45;&gt;Node19 -->
<g id="edge33" class="edge">
<title>Node13&#45;&gt;Node19</title>
<path fill="none" stroke="#191970" d="M427.2079,-224.4369C486.8637,-214.4646 580.1195,-198.8755 641.8857,-188.5504"/>
<polygon fill="#191970" stroke="#191970" points="642.6113,-191.9778 651.8973,-186.8769 641.4571,-185.0736 642.6113,-191.9778"/>
</g>
<!-- Node15&#45;&gt;Node2 -->
<g id="edge26" class="edge">
<title>Node15&#45;&gt;Node2</title>
<path fill="none" stroke="#191970" d="M185.9315,-168.4136C194.4946,-154.9823 211.2508,-130.1727 229,-112 239.9924,-100.7453 253.7909,-89.843 265.2793,-81.4791"/>
<polygon fill="#191970" stroke="#191970" points="267.4069,-84.2609 273.5295,-75.6142 263.3511,-78.5556 267.4069,-84.2609"/>
</g>
<!-- Node15&#45;&gt;Node4 -->
<g id="edge25" class="edge">
<title>Node15&#45;&gt;Node4</title>
<path fill="none" stroke="#191970" d="M215.4127,-168.3733C254.3182,-157.797 316.2578,-140.959 353.8254,-130.7465"/>
<polygon fill="#191970" stroke="#191970" points="355.004,-134.0532 363.7357,-128.0524 353.1677,-127.2983 355.004,-134.0532"/>
</g>
<!-- Node15&#45;&gt;Node5 -->
<g id="edge27" class="edge">
<title>Node15&#45;&gt;Node5</title>
<path fill="none" stroke="#191970" d="M162.7555,-168.2455C147.4239,-159.5731 124.7801,-146.7645 107.2084,-136.825"/>
<polygon fill="#191970" stroke="#191970" points="108.4741,-133.5198 98.0469,-131.6427 105.0276,-139.6126 108.4741,-133.5198"/>
</g>
<!-- Node15&#45;&gt;Node16 -->
<g id="edge28" class="edge">
<title>Node15&#45;&gt;Node16</title>
<path fill="none" stroke="#191970" d="M176.5896,-168.4509C170.0067,-150.0186 155.4376,-109.2254 146.8011,-85.043"/>
<polygon fill="#191970" stroke="#191970" points="150.0613,-83.7651 143.4017,-75.5249 143.4691,-86.1195 150.0613,-83.7651"/>
</g>
<!-- Node17 -->
<g id="node18" class="node">
<title>Node17</title>
<polygon fill="none" stroke="#bfbfbf" points="64,-.5 64,-19.5 120,-19.5 120,-.5 64,-.5"/>
<text text-anchor="middle" x="92" y="-7.5" font-family="Helvetica,sans-Serif" font-size="10.00" fill="#000000">stddef.h</text>
</g>
<!-- Node16&#45;&gt;Node17 -->
<g id="edge29" class="edge">
<title>Node16&#45;&gt;Node17</title>
<path fill="none" stroke="#191970" d="M131.639,-56.2455C124.825,-48.2958 115.0319,-36.8706 106.8848,-27.3656"/>
<polygon fill="#191970" stroke="#191970" points="109.4305,-24.9575 100.2651,-19.6427 104.1157,-29.513 109.4305,-24.9575"/>
</g>
<!-- Node18 -->
<g id="node19" class="node">
<title>Node18</title>
<polygon fill="none" stroke="#bfbfbf" points="138,-.5 138,-19.5 238,-19.5 238,-.5 138,-.5"/>
<text text-anchor="middle" x="188" y="-7.5" font-family="Helvetica,sans-Serif" font-size="10.00" fill="#000000">betterEnums.hxx</text>
</g>
<!-- Node16&#45;&gt;Node18 -->
<g id="edge30" class="edge">
<title>Node16&#45;&gt;Node18</title>
<path fill="none" stroke="#191970" d="M148.361,-56.2455C155.175,-48.2958 164.9681,-36.8706 173.1152,-27.3656"/>
<polygon fill="#191970" stroke="#191970" points="175.8843,-29.513 179.7349,-19.6427 170.5695,-24.9575 175.8843,-29.513"/>
</g>
<!-- Node19&#45;&gt;Node4 -->
<g id="edge34" class="edge">
<title>Node19&#45;&gt;Node4</title>
<path fill="none" stroke="#191970" d="M651.9012,-169.4287C648.8899,-168.9448 645.9067,-168.4659 643,-168 545.7096,-152.4052 517.6532,-155.4661 418.0969,-131.9824"/>
<polygon fill="#191970" stroke="#191970" points="418.7742,-128.5458 408.2345,-129.6254 417.147,-135.3541 418.7742,-128.5458"/>
</g>
<!-- Node19&#45;&gt;Node8 -->
<g id="edge36" class="edge">
<title>Node19&#45;&gt;Node8</title>
<path fill="none" stroke="#191970" d="M738.4234,-168.4193C766.7005,-159.9456 808.0765,-146.675 843,-132 860.9586,-124.4537 863.6799,-118.6205 882,-112 941.6028,-90.4609 1014.6908,-77.03 1055.8415,-70.5823"/>
<polygon fill="#191970" stroke="#191970" points="1056.4749,-74.0263 1065.8319,-69.0565 1055.4181,-67.1065 1056.4749,-74.0263"/>
</g>
<!-- Node19&#45;&gt;Node10 -->
<g id="edge42" class="edge">
<title>Node19&#45;&gt;Node10</title>
<path fill="none" stroke="#191970" d="M746.3263,-168.4369C787.7427,-158.8529 851.5777,-144.0812 896.0935,-133.78"/>
<polygon fill="#191970" stroke="#191970" points="896.8907,-137.1881 905.8441,-131.5237 895.3125,-130.3683 896.8907,-137.1881"/>
</g>
<!-- Node20 -->
<g id="node21" class="node">
<title>Node20</title>
<polygon fill="none" stroke="#bfbfbf" points="521.5,-112.5 521.5,-131.5 614.5,-131.5 614.5,-112.5 521.5,-112.5"/>
<text text-anchor="middle" x="568" y="-119.5" font-family="Helvetica,sans-Serif" font-size="10.00" fill="#000000">unordered_map</text>
</g>
<!-- Node19&#45;&gt;Node20 -->
<g id="edge35" class="edge">
<title>Node19&#45;&gt;Node20</title>
<path fill="none" stroke="#191970" d="M681.4489,-168.3733C659.1609,-159.2629 625.5063,-145.5062 600.6363,-135.3404"/>
<polygon fill="#191970" stroke="#191970" points="601.8247,-132.0451 591.2438,-131.5011 599.1761,-138.5247 601.8247,-132.0451"/>
</g>
<!-- Node21 -->
<g id="node22" class="node">
<title>Node21</title>
<g id="a_node22"><a xlink:href="tileData_8hxx.html" target="_top" xlink:title="tileData.hxx">
<polygon fill="none" stroke="#000000" points="426.5,-112.5 426.5,-131.5 503.5,-131.5 503.5,-112.5 426.5,-112.5"/>
<text text-anchor="middle" x="465" y="-119.5" font-family="Helvetica,sans-Serif" font-size="10.00" fill="#000000">tileData.hxx</text>
</a>
</g>
</g>
<!-- Node19&#45;&gt;Node21 -->
<g id="edge37" class="edge">
<title>Node19&#45;&gt;Node21</title>
<path fill="none" stroke="#191970" d="M664.0152,-168.4369C622.4063,-158.7281 557.9815,-143.6957 513.7714,-133.38"/>
<polygon fill="#191970" stroke="#191970" points="514.3622,-129.9239 503.8285,-131.06 512.7715,-136.7408 514.3622,-129.9239"/>
</g>
<!-- Node22 -->
<g id="node23" class="node">
<title>Node22</title>
<polygon fill="none" stroke="#bfbfbf" points="633,-112.5 633,-131.5 691,-131.5 691,-112.5 633,-112.5"/>
<text text-anchor="middle" x="662" y="-119.5" font-family="Helvetica,sans-Serif" font-size="10.00" fill="#000000">json.hxx</text>
</g>
<!-- Node19&#45;&gt;Node22 -->
<g id="edge41" class="edge">
<title>Node19&#45;&gt;Node22</title>
<path fill="none" stroke="#191970" d="M697.51,-168.2455C691.4674,-160.3761 682.8097,-149.101 675.5559,-139.6542"/>
<polygon fill="#191970" stroke="#191970" points="678.2705,-137.4426 669.4042,-131.6427 672.7185,-141.7058 678.2705,-137.4426"/>
</g>
<!-- Node23 -->
<g id="node24" class="node">
<title>Node23</title>
<polygon fill="none" stroke="#bfbfbf" points="709.5,-112.5 709.5,-131.5 834.5,-131.5 834.5,-112.5 709.5,-112.5"/>
<text text-anchor="middle" x="772" y="-119.5" font-family="Helvetica,sans-Serif" font-size="10.00" fill="#000000">../common/enums.hxx</text>
</g>
<!-- Node19&#45;&gt;Node23 -->
<g id="edge43" class="edge">
<title>Node19&#45;&gt;Node23</title>
<path fill="none" stroke="#191970" d="M716.6705,-168.2455C726.5661,-159.9746 740.9627,-147.9416 752.5901,-138.2232"/>
<polygon fill="#191970" stroke="#191970" points="755.035,-140.7413 760.4632,-131.6427 750.5458,-135.3703 755.035,-140.7413"/>
</g>
<!-- Node21&#45;&gt;Node2 -->
<g id="edge39" class="edge">
<title>Node21&#45;&gt;Node2</title>
<path fill="none" stroke="#191970" d="M434.5726,-112.3733C403.0889,-102.4123 354.0495,-86.897 321.4835,-76.5937"/>
<polygon fill="#191970" stroke="#191970" points="322.1221,-73.1247 311.5321,-73.4452 320.0105,-79.7987 322.1221,-73.1247"/>
</g>
<!-- Node21&#45;&gt;Node8 -->
<g id="edge38" class="edge">
<title>Node21&#45;&gt;Node8</title>
<path fill="none" stroke="#191970" d="M503.6569,-113.3591C506.4729,-112.8576 509.2758,-112.3969 512,-112 717.8389,-82.0126 968.1152,-70.4247 1055.8033,-67.1034"/>
<polygon fill="#191970" stroke="#191970" points="1056.0479,-70.5969 1065.9119,-66.7302 1055.7896,-63.6016 1056.0479,-70.5969"/>
</g>
<!-- Node21&#45;&gt;Node16 -->
<g id="edge40" class="edge">
<title>Node21&#45;&gt;Node16</title>
<path fill="none" stroke="#191970" d="M426.2543,-113.7864C423.1263,-113.1665 420.0121,-112.5636 417,-112 346.0652,-98.7268 264.5423,-85.4225 208.3967,-76.5614"/>
<polygon fill="#191970" stroke="#191970" points="208.6393,-73.0566 198.2167,-74.9596 207.5511,-79.9715 208.6393,-73.0566"/>
</g>
<!-- Node24&#45;&gt;Node2 -->
<g id="edge47" class="edge">
<title>Node24&#45;&gt;Node2</title>
<path fill="none" stroke="#191970" d="M228.6562,-280.4663C154.1162,-256.2619 -22.8793,-188.8741 41,-112 47.8139,-103.8 188.3252,-81.289 254.3158,-71.1133"/>
<polygon fill="#191970" stroke="#191970" points="254.8823,-74.5675 264.2352,-69.5902 253.8198,-67.6486 254.8823,-74.5675"/>
</g>
<!-- Node24&#45;&gt;Node13 -->
<g id="edge45" class="edge">
<title>Node24&#45;&gt;Node13</title>
<path fill="none" stroke="#191970" d="M279.1605,-280.2455C296.5111,-271.4125 322.2901,-258.2887 341.9583,-248.2758"/>
<polygon fill="#191970" stroke="#191970" points="343.7353,-251.2986 351.059,-243.6427 340.5595,-245.0605 343.7353,-251.2986"/>
</g>
<!-- Node25 -->
<g id="node26" class="node">
<title>Node25</title>
<polygon fill="none" stroke="#bfbfbf" points="238,-224.5 238,-243.5 276,-243.5 276,-224.5 238,-224.5"/>
<text text-anchor="middle" x="257" y="-231.5" font-family="Helvetica,sans-Serif" font-size="10.00" fill="#000000">map</text>
</g>
<!-- Node24&#45;&gt;Node25 -->
<g id="edge46" class="edge">
<title>Node24&#45;&gt;Node25</title>
<path fill="none" stroke="#191970" d="M259.4774,-280.2455C259.086,-272.9382 258.5372,-262.6944 258.0556,-253.7046"/>
<polygon fill="#191970" stroke="#191970" points="261.5466,-253.4411 257.5166,-243.6427 254.5566,-253.8156 261.5466,-253.4411"/>
</g>
<!-- Node26&#45;&gt;Node4 -->
<g id="edge52" class="edge">
<title>Node26&#45;&gt;Node4</title>
<path fill="none" stroke="#191970" d="M557.7573,-168.883C523.4507,-160.5463 471.5323,-147.542 417.9646,-132.1667"/>
<polygon fill="#191970" stroke="#191970" points="418.8802,-128.7881 408.3014,-129.372 416.9354,-135.5125 418.8802,-128.7881"/>
</g>
<!-- Node26&#45;&gt;Node5 -->
<g id="edge50" class="edge">
<title>Node26&#45;&gt;Node5</title>
<path fill="none" stroke="#191970" d="M557.712,-173.8366C463.2477,-163.5648 219.6886,-137.0807 122.2191,-126.4821"/>
<polygon fill="#191970" stroke="#191970" points="122.4805,-122.99 112.1607,-125.3883 121.7237,-129.9489 122.4805,-122.99"/>
</g>
<!-- Node26&#45;&gt;Node10 -->
<g id="edge51" class="edge">
<title>Node26&#45;&gt;Node10</title>
<path fill="none" stroke="#191970" d="M634.182,-169.6778C637.1616,-169.089 640.1273,-168.5225 643,-168 724.8348,-153.1163 819.6791,-139.3085 881.375,-130.7813"/>
<polygon fill="#191970" stroke="#191970" points="881.9332,-134.2376 891.3627,-129.407 880.9789,-127.3029 881.9332,-134.2376"/>
</g>
<!-- Node27&#45;&gt;Node2 -->
<g id="edge55" class="edge">
<title>Node27&#45;&gt;Node2</title>
<path fill="none" stroke="#191970" d="M1167.2334,-168.456C1139.7744,-153.3662 1083.0525,-124.4375 1031,-112 893.5907,-79.1672 448.9794,-68.8641 322.095,-66.5556"/>
<polygon fill="#191970" stroke="#191970" points="321.8862,-63.0515 311.8258,-66.3738 321.7622,-70.0504 321.8862,-63.0515"/>
</g>
<!-- Node27&#45;&gt;Node8 -->
<g id="edge54" class="edge">
<title>Node27&#45;&gt;Node8</title>
<path fill="none" stroke="#191970" d="M1182.2663,-168.0794C1179.4331,-154.251 1172.697,-128.9726 1159,-112 1148.358,-98.813 1132.8871,-88.169 1119.1015,-80.4543"/>
<polygon fill="#191970" stroke="#191970" points="1120.3824,-77.1722 1109.907,-75.5861 1117.1069,-83.3586 1120.3824,-77.1722"/>
</g>
<!-- Node27&#45;&gt;Node10 -->
<g id="edge56" class="edge">
<title>Node27&#45;&gt;Node10</title>
<path fill="none" stroke="#191970" d="M1145.3944,-168.878C1105.1161,-159.3608 1041.7866,-144.3968 997.5455,-133.9432"/>
<polygon fill="#191970" stroke="#191970" points="998.1113,-130.4806 987.5744,-131.5872 996.5016,-137.293 998.1113,-130.4806"/>
</g>
<!-- Node28 -->
<g id="node29" class="node">
<title>Node28</title>
<g id="a_node29"><a xlink:href="Meta_8hxx.html" target="_top" xlink:title="../../util/Meta.hxx">
<polygon fill="none" stroke="#000000" points="1359,-112.5 1359,-131.5 1457,-131.5 1457,-112.5 1359,-112.5"/>
<text text-anchor="middle" x="1408" y="-119.5" font-family="Helvetica,sans-Serif" font-size="10.00" fill="#000000">../../util/Meta.hxx</text>
</a>
</g>
</g>
<!-- Node27&#45;&gt;Node28 -->
<g id="edge57" class="edge">
<title>Node27&#45;&gt;Node28</title>
<path fill="none" stroke="#191970" d="M1222.2525,-168.4369C1260.3467,-158.9133 1318.9313,-144.2672 1360.0987,-133.9753"/>
<polygon fill="#191970" stroke="#191970" points="1361.0528,-137.3446 1369.9053,-131.5237 1359.355,-130.5536 1361.0528,-137.3446"/>
</g>
<!-- Node32 -->
<g id="node33" class="node">
<title>Node32</title>
<polygon fill="none" stroke="#bfbfbf" points="1249.5,-112.5 1249.5,-131.5 1302.5,-131.5 1302.5,-112.5 1249.5,-112.5"/>
<text text-anchor="middle" x="1276" y="-119.5" font-family="Helvetica,sans-Serif" font-size="10.00" fill="#000000">cstddef</text>
</g>
<!-- Node27&#45;&gt;Node32 -->
<g id="edge62" class="edge">
<title>Node27&#45;&gt;Node32</title>
<path fill="none" stroke="#191970" d="M1200.0252,-168.2455C1214.1408,-159.6534 1234.9263,-147.0014 1251.1899,-137.1018"/>
<polygon fill="#191970" stroke="#191970" points="1253.4363,-139.8319 1260.1585,-131.6427 1249.7966,-133.8525 1253.4363,-139.8319"/>
</g>
<!-- Node28&#45;&gt;Node9 -->
<g id="edge58" class="edge">
<title>Node28&#45;&gt;Node9</title>
<path fill="none" stroke="#191970" d="M1414.4449,-112.2455C1419.5382,-104.5367 1426.7908,-93.5598 1432.952,-84.2348"/>
<polygon fill="#191970" stroke="#191970" points="1436.0365,-85.9155 1438.6289,-75.6427 1430.1962,-82.0566 1436.0365,-85.9155"/>
</g>
<!-- Node29 -->
<g id="node30" class="node">
<title>Node29</title>
<polygon fill="none" stroke="#bfbfbf" points="1258.5,-56.5 1258.5,-75.5 1327.5,-75.5 1327.5,-56.5 1258.5,-56.5"/>
<text text-anchor="middle" x="1293" y="-63.5" font-family="Helvetica,sans-Serif" font-size="10.00" fill="#000000">type_traits</text>
</g>
<!-- Node28&#45;&gt;Node29 -->
<g id="edge59" class="edge">
<title>Node28&#45;&gt;Node29</title>
<path fill="none" stroke="#191970" d="M1388.2308,-112.3733C1369.8531,-103.4241 1342.2688,-89.9917 1321.5107,-79.8835"/>
<polygon fill="#191970" stroke="#191970" points="1323.0343,-76.7325 1312.5112,-75.5011 1319.9696,-83.026 1323.0343,-76.7325"/>
</g>
<!-- Node30 -->
<g id="node31" class="node">
<title>Node30</title>
<polygon fill="none" stroke="#bfbfbf" points="1345.5,-56.5 1345.5,-75.5 1396.5,-75.5 1396.5,-56.5 1345.5,-56.5"/>
<text text-anchor="middle" x="1371" y="-63.5" font-family="Helvetica,sans-Serif" font-size="10.00" fill="#000000">variant</text>
</g>
<!-- Node28&#45;&gt;Node30 -->
<g id="edge60" class="edge">
<title>Node28&#45;&gt;Node30</title>
<path fill="none" stroke="#191970" d="M1401.5551,-112.2455C1396.4618,-104.5367 1389.2092,-93.5598 1383.048,-84.2348"/>
<polygon fill="#191970" stroke="#191970" points="1385.8038,-82.0566 1377.3711,-75.6427 1379.9635,-85.9155 1385.8038,-82.0566"/>
</g>
<!-- Node31 -->
<g id="node32" class="node">
<title>Node31</title>
<polygon fill="none" stroke="#bfbfbf" points="1493.5,-56.5 1493.5,-75.5 1534.5,-75.5 1534.5,-56.5 1493.5,-56.5"/>
<text text-anchor="middle" x="1514" y="-63.5" font-family="Helvetica,sans-Serif" font-size="10.00" fill="#000000">tuple</text>
</g>
<!-- Node28&#45;&gt;Node31 -->
<g id="edge61" class="edge">
<title>Node28&#45;&gt;Node31</title>
<path fill="none" stroke="#191970" d="M1426.4638,-112.2455C1443.1074,-103.4527 1467.7993,-90.4079 1486.7192,-80.4125"/>
<polygon fill="#191970" stroke="#191970" points="1488.5408,-83.4086 1495.7478,-75.6427 1485.2709,-77.2193 1488.5408,-83.4086"/>
</g>
<!-- Node33&#45;&gt;Node3 -->
<g id="edge75" class="edge">
<title>Node33&#45;&gt;Node3</title>
<path fill="none" stroke="#191970" d="M1543.906,-177.0554C1370.5133,-171.4053 476.7953,-141.9889 355,-132 343.0644,-131.0211 330.1608,-129.5597 318.3109,-128.0544"/>
<polygon fill="#191970" stroke="#191970" points="318.5896,-124.5611 308.2195,-126.7313 317.6796,-131.5016 318.5896,-124.5611"/>
</g>
<!-- Node33&#45;&gt;Node4 -->
<g id="edge74" class="edge">
<title>Node33&#45;&gt;Node4</title>
<path fill="none" stroke="#191970" d="M1543.9958,-177.0691C1376.4692,-171.6652 536.2556,-144.1867 418.1353,-131.2984"/>
<polygon fill="#191970" stroke="#191970" points="418.546,-127.8222 408.1669,-129.9495 417.6072,-134.759 418.546,-127.8222"/>
</g>
<!-- Node33&#45;&gt;Node8 -->
<g id="edge65" class="edge">
<title>Node33&#45;&gt;Node8</title>
<path fill="none" stroke="#191970" d="M1543.7798,-174.6352C1500.4828,-169.0603 1417.1732,-156.0607 1350,-132 1332.0326,-125.5643 1329.9703,-118.4278 1312,-112 1246.0407,-88.407 1164.5894,-75.4837 1120.3383,-69.7303"/>
<polygon fill="#191970" stroke="#191970" points="1120.5397,-66.2281 1110.1808,-68.4515 1119.6652,-73.1733 1120.5397,-66.2281"/>
</g>
<!-- Node33&#45;&gt;Node9 -->
<g id="edge69" class="edge">
<title>Node33&#45;&gt;Node9</title>
<path fill="none" stroke="#191970" d="M1602.169,-173.777C1647.6994,-166.0085 1727.5436,-146.9559 1698,-112 1667.0128,-75.3361 1531.9876,-85.8288 1485,-76 1484.8993,-75.9789 1484.7984,-75.9578 1484.6975,-75.9366"/>
<polygon fill="#191970" stroke="#191970" points="1485.6061,-72.5534 1475.0832,-73.7864 1484.0783,-79.3846 1485.6061,-72.5534"/>
</g>
<!-- Node33&#45;&gt;Node28 -->
<g id="edge77" class="edge">
<title>Node33&#45;&gt;Node28</title>
<path fill="none" stroke="#191970" d="M1544.6355,-168.3733C1517.3173,-159.1016 1475.8204,-145.0178 1445.7262,-134.804"/>
<polygon fill="#191970" stroke="#191970" points="1446.5887,-131.4008 1435.9944,-131.5011 1444.339,-138.0294 1446.5887,-131.4008"/>
</g>
<!-- Node34 -->
<g id="node35" class="node">
<title>Node34</title>
<g id="a_node35"><a xlink:href="Exception_8hxx.html" target="_top" xlink:title="Exception.hxx">
<polygon fill="none" stroke="#000000" points="1745,-112.5 1745,-131.5 1831,-131.5 1831,-112.5 1745,-112.5"/>
<text text-anchor="middle" x="1788" y="-119.5" font-family="Helvetica,sans-Serif" font-size="10.00" fill="#000000">Exception.hxx</text>
</a>
</g>
</g>
<!-- Node33&#45;&gt;Node34 -->
<g id="edge66" class="edge">
<title>Node33&#45;&gt;Node34</title>
<path fill="none" stroke="#191970" d="M1602.444,-170.3309C1638.3246,-160.9852 1699.3761,-145.0834 1741.5999,-134.0856"/>
<polygon fill="#191970" stroke="#191970" points="1742.5744,-137.4487 1751.3693,-131.541 1740.8099,-130.6747 1742.5744,-137.4487"/>
</g>
<!-- Node37 -->
<g id="node38" class="node">
<title>Node37</title>
<polygon fill="none" stroke="#bfbfbf" points="1849,-112.5 1849,-131.5 1899,-131.5 1899,-112.5 1849,-112.5"/>
<text text-anchor="middle" x="1874" y="-119.5" font-family="Helvetica,sans-Serif" font-size="10.00" fill="#000000">chrono</text>
</g>
<!-- Node33&#45;&gt;Node37 -->
<g id="edge70" class="edge">
<title>Node33&#45;&gt;Node37</title>
<path fill="none" stroke="#191970" d="M1602.0618,-174.1153C1649.6153,-167.5179 1747.1495,-152.9798 1838.8382,-132.0648"/>
<polygon fill="#191970" stroke="#191970" points="1839.8805,-135.4162 1848.8349,-129.7532 1838.3034,-128.5962 1839.8805,-135.4162"/>
</g>
<!-- Node38 -->
<g id="node39" class="node">
<title>Node38</title>
<polygon fill="none" stroke="#bfbfbf" points="1917,-112.5 1917,-131.5 1961,-131.5 1961,-112.5 1917,-112.5"/>
<text text-anchor="middle" x="1939" y="-119.5" font-family="Helvetica,sans-Serif" font-size="10.00" fill="#000000">ctime</text>
</g>
<!-- Node33&#45;&gt;Node38 -->
<g id="edge71" class="edge">
<title>Node33&#45;&gt;Node38</title>
<path fill="none" stroke="#191970" d="M1602.4377,-175.7074C1659.531,-170.8885 1789.322,-158.1158 1906.8943,-131.9249"/>
<polygon fill="#191970" stroke="#191970" points="1907.8005,-135.3084 1916.7792,-129.6841 1906.2529,-128.4816 1907.8005,-135.3084"/>
</g>
<!-- Node39 -->
<g id="node40" class="node">
<title>Node39</title>
<polygon fill="none" stroke="#bfbfbf" points="1979.5,-112.5 1979.5,-131.5 2034.5,-131.5 2034.5,-112.5 1979.5,-112.5"/>
<text text-anchor="middle" x="2007" y="-119.5" font-family="Helvetica,sans-Serif" font-size="10.00" fill="#000000">fstream</text>
</g>
<!-- Node33&#45;&gt;Node39 -->
<g id="edge72" class="edge">
<title>Node33&#45;&gt;Node39</title>
<path fill="none" stroke="#191970" d="M1602.1162,-176.1151C1666.5861,-171.625 1826.3278,-158.7572 1969.3893,-131.8589"/>
<polygon fill="#191970" stroke="#191970" points="1970.0562,-135.2949 1979.2229,-129.9825 1968.7441,-128.419 1970.0562,-135.2949"/>
</g>
<!-- Node40 -->
<g id="node41" class="node">
<title>Node40</title>
<polygon fill="none" stroke="#bfbfbf" points="1475,-112.5 1475,-131.5 1531,-131.5 1531,-112.5 1475,-112.5"/>
<text text-anchor="middle" x="1503" y="-119.5" font-family="Helvetica,sans-Serif" font-size="10.00" fill="#000000">sstream</text>
</g>
<!-- Node33&#45;&gt;Node40 -->
<g id="edge73" class="edge">
<title>Node33&#45;&gt;Node40</title>
<path fill="none" stroke="#191970" d="M1560.8069,-168.2455C1550.3679,-159.8943 1535.1345,-147.7076 1522.926,-137.9408"/>
<polygon fill="#191970" stroke="#191970" points="1525.0485,-135.1566 1515.0533,-131.6427 1520.6756,-140.6227 1525.0485,-135.1566"/>
</g>
<!-- Node41 -->
<g id="node42" class="node">
<title>Node41</title>
<polygon fill="none" stroke="#bfbfbf" points="1549,-112.5 1549,-131.5 1597,-131.5 1597,-112.5 1549,-112.5"/>
<text text-anchor="middle" x="1573" y="-119.5" font-family="Helvetica,sans-Serif" font-size="10.00" fill="#000000">mutex</text>
</g>
<!-- Node33&#45;&gt;Node41 -->
<g id="edge76" class="edge">
<title>Node33&#45;&gt;Node41</title>
<path fill="none" stroke="#191970" d="M1573,-168.2455C1573,-160.9382 1573,-150.6944 1573,-141.7046"/>
<polygon fill="#191970" stroke="#191970" points="1576.5001,-141.6426 1573,-131.6427 1569.5001,-141.6427 1576.5001,-141.6426"/>
</g>
<!-- Node42 -->
<g id="node43" class="node">
<title>Node42</title>
<g id="a_node43"><a xlink:href="LOG_8inl_8hxx.html" target="_top" xlink:title="LOG.inl.hxx">
<polygon fill="none" stroke="#000000" points="1615.5,-112.5 1615.5,-131.5 1688.5,-131.5 1688.5,-112.5 1615.5,-112.5"/>
<text text-anchor="middle" x="1652" y="-119.5" font-family="Helvetica,sans-Serif" font-size="10.00" fill="#000000">LOG.inl.hxx</text>
</a>
</g>
</g>
<!-- Node33&#45;&gt;Node42 -->
<g id="edge78" class="edge">
<title>Node33&#45;&gt;Node42</title>
<path fill="none" stroke="#191970" d="M1586.7607,-168.2455C1598.6552,-159.814 1616.065,-147.4729 1629.9085,-137.6598"/>
<polygon fill="#191970" stroke="#191970" points="1632.2628,-140.2811 1638.3969,-131.6427 1628.2146,-134.5704 1632.2628,-140.2811"/>
</g>
<!-- Node35 -->
<g id="node36" class="node">
<title>Node35</title>
<polygon fill="none" stroke="#bfbfbf" points="1796.5,-56.5 1796.5,-75.5 1861.5,-75.5 1861.5,-56.5 1796.5,-56.5"/>
<text text-anchor="middle" x="1829" y="-63.5" font-family="Helvetica,sans-Serif" font-size="10.00" fill="#000000">stdexcept</text>
</g>
<!-- Node34&#45;&gt;Node35 -->
<g id="edge67" class="edge">
<title>Node34&#45;&gt;Node35</title>
<path fill="none" stroke="#191970" d="M1795.1417,-112.2455C1800.8444,-104.4564 1808.99,-93.3308 1815.8625,-83.9439"/>
<polygon fill="#191970" stroke="#191970" points="1818.8568,-85.7789 1821.9402,-75.6427 1813.2087,-81.6437 1818.8568,-85.7789"/>
</g>
<!-- Node36 -->
<g id="node37" class="node">
<title>Node36</title>
<polygon fill="none" stroke="#bfbfbf" points="1713.5,-56.5 1713.5,-75.5 1778.5,-75.5 1778.5,-56.5 1713.5,-56.5"/>
<text text-anchor="middle" x="1746" y="-63.5" font-family="Helvetica,sans-Serif" font-size="10.00" fill="#000000">exception</text>
</g>
<!-- Node34&#45;&gt;Node36 -->
<g id="edge68" class="edge">
<title>Node34&#45;&gt;Node36</title>
<path fill="none" stroke="#191970" d="M1780.6842,-112.2455C1774.7821,-104.3761 1766.3258,-93.101 1759.2406,-83.6542"/>
<polygon fill="#191970" stroke="#191970" points="1762.0321,-81.5427 1753.232,-75.6427 1756.432,-85.7427 1762.0321,-81.5427"/>
</g>
</g>
</svg>
