<?xml version="1.0" encoding="UTF-8" standalone="no"?>
<!DOCTYPE svg PUBLIC "-//W3C//DTD SVG 1.1//EN"
 "http://www.w3.org/Graphics/SVG/1.1/DTD/svg11.dtd">
<!-- Generated by graphviz version 2.40.1 (20161225.0304)
 -->
<!-- Title: src/view/iViewElement.hxx Pages: 1 -->
<!--zoomable 308 -->
<svg id="main" version="1.1" xmlns="http://www.w3.org/2000/svg" xmlns:xlink="http://www.w3.org/1999/xlink" xml:space="preserve" onload="init(evt)">
<style type="text/css"><![CDATA[
.edge:hover path { stroke: red; }
.edge:hover polygon { stroke: red; fill: red; }
]]></style>
<script type="text/javascript"><![CDATA[
var edges = document.getElementsByTagName('g');
if (edges && edges.length) {
  for (var i=0;i<edges.length;i++) {
    if (edges[i].id.substr(0,4)=='edge') {
      edges[i].setAttribute('class','edge');
    }
  }
}
]]></script>
        <defs>
                <circle id="rim" cx="0" cy="0" r="7"/>
                <circle id="rim2" cx="0" cy="0" r="3.5"/>
                <g id="zoomPlus">
                        <use xlink:href="#rim" fill="#404040">
                                <set attributeName="fill" to="#808080" begin="zoomplus.mouseover" end="zoomplus.mouseout"/>
                        </use>
                        <path d="M-4,0h8M0,-4v8" fill="none" stroke="white" stroke-width="1.5" pointer-events="none"/>
                </g>
                <g id="zoomMin">
                        <use xlink:href="#rim" fill="#404040">
                                <set attributeName="fill" to="#808080" begin="zoomminus.mouseover" end="zoomminus.mouseout"/>
                        </use>
                        <path d="M-4,0h8" fill="none" stroke="white" stroke-width="1.5" pointer-events="none"/>
                </g>
                <g id="dirArrow">
                        <path fill="none" stroke="white" stroke-width="1.5" d="M0,-3.0v7 M-2.5,-0.5L0,-3.0L2.5,-0.5"/>
                </g>
               <g id="resetDef">
                       <use xlink:href="#rim2" fill="#404040">
                               <set attributeName="fill" to="#808080" begin="reset.mouseover" end="reset.mouseout"/>
                       </use>
               </g>
        </defs>

<script type="text/javascript">
var viewWidth = 1116;
var viewHeight = 308;
var sectionId = 'dynsection-0';
</script>
<script xlink:href="svgpan.js"/>
<svg id="graph" class="graph">
<g id="viewport">
<title>src/view/iViewElement.hxx</title>
<!-- Node0 -->
<g id="node1" class="node">
<title>Node0</title>
<polygon fill="#bfbfbf" stroke="#000000" points="60.5,-280.5 60.5,-299.5 209.5,-299.5 209.5,-280.5 60.5,-280.5"/>
<text text-anchor="middle" x="135" y="-287.5" font-family="Helvetica,sans-Serif" font-size="10.00" fill="#000000">src/view/iViewElement.hxx</text>
</g>
<!-- Node1 -->
<g id="node2" class="node">
<title>Node1</title>
<polygon fill="none" stroke="#bfbfbf" points="0,-168.5 0,-187.5 58,-187.5 58,-168.5 0,-168.5"/>
<text text-anchor="middle" x="29" y="-175.5" font-family="Helvetica,sans-Serif" font-size="10.00" fill="#000000">memory</text>
</g>
<!-- Node0&#45;&gt;Node1 -->
<g id="edge1" class="edge">
<title>Node0&#45;&gt;Node1</title>
<path fill="none" stroke="#191970" d="M103.549,-280.3973C84.9086,-273.1859 62.2225,-261.5029 48,-244 37.3201,-230.8567 32.6423,-211.9818 30.5941,-197.7808"/>
<polygon fill="#191970" stroke="#191970" points="34.0442,-197.14 29.4507,-187.5928 27.0879,-197.9208 34.0442,-197.14"/>
</g>
<!-- Node2 -->
<g id="node3" class="node">
<title>Node2</title>
<g id="a_node3"><a xlink:href="iView_8hxx.html" target="_top" xlink:title="iView.hxx">
<polygon fill="none" stroke="#000000" points="57,-224.5 57,-243.5 121,-243.5 121,-224.5 57,-224.5"/>
<text text-anchor="middle" x="89" y="-231.5" font-family="Helvetica,sans-Serif" font-size="10.00" fill="#000000">iView.hxx</text>
</a>
</g>
</g>
<!-- Node0&#45;&gt;Node2 -->
<g id="edge2" class="edge">
<title>Node0&#45;&gt;Node2</title>
<path fill="none" stroke="#191970" d="M126.9874,-280.2455C120.5232,-272.3761 111.2615,-261.101 103.5017,-251.6542"/>
<polygon fill="#191970" stroke="#191970" points="105.9727,-249.1484 96.9208,-243.6427 100.5636,-253.5916 105.9727,-249.1484"/>
</g>
<!-- Node3 -->
<g id="node4" class="node">
<title>Node3</title>
<g id="a_node4"><a xlink:href="BoxSizing_8hxx.html" target="_top" xlink:title="BoxSizing.hxx">
<polygon fill="none" stroke="#000000" points="139,-224.5 139,-243.5 225,-243.5 225,-224.5 139,-224.5"/>
<text text-anchor="middle" x="182" y="-231.5" font-family="Helvetica,sans-Serif" font-size="10.00" fill="#000000">BoxSizing.hxx</text>
</a>
</g>
</g>
<!-- Node0&#45;&gt;Node3 -->
<g id="edge4" class="edge">
<title>Node0&#45;&gt;Node3</title>
<path fill="none" stroke="#191970" d="M143.1868,-280.2455C149.8589,-272.2958 159.4479,-260.8706 167.4253,-251.3656"/>
<polygon fill="#191970" stroke="#191970" points="170.1592,-253.5525 173.907,-243.6427 164.7974,-249.0524 170.1592,-253.5525"/>
</g>
<!-- Node10 -->
<g id="node11" class="node">
<title>Node10</title>
<g id="a_node11"><a xlink:href="Rectangle_8hxx.html" target="_top" xlink:title="Rectangle.hxx">
<polygon fill="none" stroke="#000000" points="271,-224.5 271,-243.5 357,-243.5 357,-224.5 271,-224.5"/>
<text text-anchor="middle" x="314" y="-231.5" font-family="Helvetica,sans-Serif" font-size="10.00" fill="#000000">Rectangle.hxx</text>
</a>
</g>
</g>
<!-- Node0&#45;&gt;Node10 -->
<g id="edge11" class="edge">
<title>Node0&#45;&gt;Node10</title>
<path fill="none" stroke="#191970" d="M165.7712,-280.3733C195.665,-271.021 241.2093,-256.7725 273.9217,-246.5385"/>
<polygon fill="#191970" stroke="#191970" points="275.1315,-249.8273 283.6303,-243.5011 273.0414,-243.1466 275.1315,-249.8273"/>
</g>
<!-- Node2&#45;&gt;Node1 -->
<g id="edge3" class="edge">
<title>Node2&#45;&gt;Node1</title>
<path fill="none" stroke="#191970" d="M78.5488,-224.2455C69.7731,-216.0549 57.0446,-204.1749 46.686,-194.5069"/>
<polygon fill="#191970" stroke="#191970" points="49.0301,-191.9072 39.3314,-187.6427 44.2539,-197.0246 49.0301,-191.9072"/>
</g>
<!-- Node4 -->
<g id="node5" class="node">
<title>Node4</title>
<g id="a_node5"><a xlink:href="Meta_8hxx.html" target="_top" xlink:title="../util/Meta.hxx">
<polygon fill="none" stroke="#000000" points="196.5,-56.5 196.5,-75.5 285.5,-75.5 285.5,-56.5 196.5,-56.5"/>
<text text-anchor="middle" x="241" y="-63.5" font-family="Helvetica,sans-Serif" font-size="10.00" fill="#000000">../util/Meta.hxx</text>
</a>
</g>
</g>
<!-- Node3&#45;&gt;Node4 -->
<g id="edge5" class="edge">
<title>Node3&#45;&gt;Node4</title>
<path fill="none" stroke="#191970" d="M185.3411,-224.4862C194.708,-197.8144 221.3643,-121.9117 234.0833,-85.695"/>
<polygon fill="#191970" stroke="#191970" points="237.5372,-86.4227 237.5485,-75.8279 230.9327,-84.1032 237.5372,-86.4227"/>
</g>
<!-- Node9 -->
<g id="node10" class="node">
<title>Node9</title>
<g id="a_node10"><a xlink:href="BoxSizing_8inl_8hxx.html" target="_top" xlink:title="BoxSizing.inl.hxx">
<polygon fill="none" stroke="#000000" points="76.5,-168.5 76.5,-187.5 177.5,-187.5 177.5,-168.5 76.5,-168.5"/>
<text text-anchor="middle" x="127" y="-175.5" font-family="Helvetica,sans-Serif" font-size="10.00" fill="#000000">BoxSizing.inl.hxx</text>
</a>
</g>
</g>
<!-- Node3&#45;&gt;Node9 -->
<g id="edge10" class="edge">
<title>Node3&#45;&gt;Node9</title>
<path fill="none" stroke="#191970" d="M172.4197,-224.2455C164.4542,-216.1352 152.9359,-204.4075 143.4921,-194.7919"/>
<polygon fill="#191970" stroke="#191970" points="145.9747,-192.3247 136.4705,-187.6427 140.9805,-197.2297 145.9747,-192.3247"/>
</g>
<!-- Node5 -->
<g id="node6" class="node">
<title>Node5</title>
<polygon fill="none" stroke="#bfbfbf" points="363,-.5 363,-19.5 423,-19.5 423,-.5 363,-.5"/>
<text text-anchor="middle" x="393" y="-7.5" font-family="Helvetica,sans-Serif" font-size="10.00" fill="#000000">iostream</text>
</g>
<!-- Node4&#45;&gt;Node5 -->
<g id="edge6" class="edge">
<title>Node4&#45;&gt;Node5</title>
<path fill="none" stroke="#191970" d="M267.1297,-56.3733C292.0768,-47.1822 329.8592,-33.2624 357.5206,-23.0713"/>
<polygon fill="#191970" stroke="#191970" points="359.0378,-26.2424 367.2112,-19.5011 356.6178,-19.674 359.0378,-26.2424"/>
</g>
<!-- Node6 -->
<g id="node7" class="node">
<title>Node6</title>
<polygon fill="none" stroke="#bfbfbf" points="275.5,-.5 275.5,-19.5 344.5,-19.5 344.5,-.5 275.5,-.5"/>
<text text-anchor="middle" x="310" y="-7.5" font-family="Helvetica,sans-Serif" font-size="10.00" fill="#000000">type_traits</text>
</g>
<!-- Node4&#45;&gt;Node6 -->
<g id="edge7" class="edge">
<title>Node4&#45;&gt;Node6</title>
<path fill="none" stroke="#191970" d="M253.0189,-56.2455C263.2098,-47.9746 278.0362,-35.9416 290.0107,-26.2232"/>
<polygon fill="#191970" stroke="#191970" points="292.5598,-28.662 298.1188,-19.6427 288.1486,-23.2268 292.5598,-28.662"/>
</g>
<!-- Node7 -->
<g id="node8" class="node">
<title>Node7</title>
<polygon fill="none" stroke="#bfbfbf" points="206.5,-.5 206.5,-19.5 257.5,-19.5 257.5,-.5 206.5,-.5"/>
<text text-anchor="middle" x="232" y="-7.5" font-family="Helvetica,sans-Serif" font-size="10.00" fill="#000000">variant</text>
</g>
<!-- Node4&#45;&gt;Node7 -->
<g id="edge8" class="edge">
<title>Node4&#45;&gt;Node7</title>
<path fill="none" stroke="#191970" d="M239.4323,-56.2455C238.2579,-48.9382 236.6116,-38.6944 235.1668,-29.7046"/>
<polygon fill="#191970" stroke="#191970" points="238.5922,-28.9606 233.5497,-19.6427 231.6809,-30.0714 238.5922,-28.9606"/>
</g>
<!-- Node8 -->
<g id="node9" class="node">
<title>Node8</title>
<polygon fill="none" stroke="#bfbfbf" points="147.5,-.5 147.5,-19.5 188.5,-19.5 188.5,-.5 147.5,-.5"/>
<text text-anchor="middle" x="168" y="-7.5" font-family="Helvetica,sans-Serif" font-size="10.00" fill="#000000">tuple</text>
</g>
<!-- Node4&#45;&gt;Node8 -->
<g id="edge9" class="edge">
<title>Node4&#45;&gt;Node8</title>
<path fill="none" stroke="#191970" d="M228.2844,-56.2455C217.398,-47.8943 201.5117,-35.7076 188.78,-25.9408"/>
<polygon fill="#191970" stroke="#191970" points="190.6346,-22.9523 180.5699,-19.6427 186.3739,-28.5063 190.6346,-22.9523"/>
</g>
<!-- Node10&#45;&gt;Node5 -->
<g id="edge13" class="edge">
<title>Node10&#45;&gt;Node5</title>
<path fill="none" stroke="#191970" d="M312.5254,-224.3363C308.7335,-196.2307 301.0525,-112.9105 333,-56 340.2705,-43.0486 352.8363,-32.5592 364.5958,-24.8858"/>
<polygon fill="#191970" stroke="#191970" points="366.6056,-27.76 373.33,-19.5727 362.9676,-21.7796 366.6056,-27.76"/>
</g>
<!-- Node10&#45;&gt;Node8 -->
<g id="edge12" class="edge">
<title>Node10&#45;&gt;Node8</title>
<path fill="none" stroke="#191970" d="M303.8024,-224.2983C279.8869,-200.9944 219.7447,-139.1005 187,-76 179.4484,-61.4476 174.5276,-43.4876 171.5901,-29.9786"/>
<polygon fill="#191970" stroke="#191970" points="174.9591,-28.9752 169.5749,-19.8505 168.0937,-30.3413 174.9591,-28.9752"/>
</g>
<!-- Node11 -->
<g id="node12" class="node">
<title>Node11</title>
<g id="a_node12"><a xlink:href="iShape_8hxx.html" target="_top" xlink:title="../util/iShape.hxx">
<polygon fill="none" stroke="#000000" points="590,-168.5 590,-187.5 688,-187.5 688,-168.5 590,-168.5"/>
<text text-anchor="middle" x="639" y="-175.5" font-family="Helvetica,sans-Serif" font-size="10.00" fill="#000000">../util/iShape.hxx</text>
</a>
</g>
</g>
<!-- Node10&#45;&gt;Node11 -->
<g id="edge14" class="edge">
<title>Node10&#45;&gt;Node11</title>
<path fill="none" stroke="#191970" d="M357.1575,-226.5636C414.3587,-216.7074 515.5299,-199.2749 579.8247,-188.1964"/>
<polygon fill="#191970" stroke="#191970" points="580.5542,-191.6223 589.8147,-186.475 579.3655,-184.724 580.5542,-191.6223"/>
</g>
<!-- Node12 -->
<g id="node13" class="node">
<title>Node12</title>
<g id="a_node13"><a xlink:href="Rectangle_8inl_8hxx.html" target="_top" xlink:title="Rectangle.inl.hxx">
<polygon fill="none" stroke="#000000" points="470.5,-168.5 470.5,-187.5 571.5,-187.5 571.5,-168.5 470.5,-168.5"/>
<text text-anchor="middle" x="521" y="-175.5" font-family="Helvetica,sans-Serif" font-size="10.00" fill="#000000">Rectangle.inl.hxx</text>
</a>
</g>
</g>
<!-- Node10&#45;&gt;Node12 -->
<g id="edge15" class="edge">
<title>Node10&#45;&gt;Node12</title>
<path fill="none" stroke="#191970" d="M349.5846,-224.3733C384.6016,-214.9001 438.1881,-200.4032 476.1125,-190.1435"/>
<polygon fill="#191970" stroke="#191970" points="477.1408,-193.4912 485.8798,-187.5011 475.3127,-186.7341 477.1408,-193.4912"/>
</g>
<!-- Node13 -->
<g id="node14" class="node">
<title>Node13</title>
<polygon fill="none" stroke="#bfbfbf" points="1044,-56.5 1044,-75.5 1108,-75.5 1108,-56.5 1044,-56.5"/>
<text text-anchor="middle" x="1076" y="-63.5" font-family="Helvetica,sans-Serif" font-size="10.00" fill="#000000">algorithm</text>
</g>
<!-- Node12&#45;&gt;Node13 -->
<g id="edge16" class="edge">
<title>Node12&#45;&gt;Node13</title>
<path fill="none" stroke="#191970" d="M571.8566,-168.6644C662.5945,-151.8428 858.5511,-114.7693 1033.8807,-76.1828"/>
<polygon fill="#191970" stroke="#191970" points="1034.7913,-79.5661 1043.8018,-73.9928 1033.2824,-72.7307 1034.7913,-79.5661"/>
</g>
<!-- Node14 -->
<g id="node15" class="node">
<title>Node14</title>
<g id="a_node15"><a xlink:href="LOG_8hxx.html" target="_top" xlink:title="LOG.hxx">
<polygon fill="none" stroke="#000000" points="620,-112.5 620,-131.5 678,-131.5 678,-112.5 620,-112.5"/>
<text text-anchor="middle" x="649" y="-119.5" font-family="Helvetica,sans-Serif" font-size="10.00" fill="#000000">LOG.hxx</text>
</a>
</g>
</g>
<!-- Node12&#45;&gt;Node14 -->
<g id="edge17" class="edge">
<title>Node12&#45;&gt;Node14</title>
<path fill="none" stroke="#191970" d="M543.004,-168.3733C563.6435,-159.3435 594.7158,-145.7494 617.8889,-135.6111"/>
<polygon fill="#191970" stroke="#191970" points="619.5245,-138.7159 627.2831,-131.5011 616.7187,-132.3028 619.5245,-138.7159"/>
</g>
<!-- Node14&#45;&gt;Node4 -->
<g id="edge30" class="edge">
<title>Node14&#45;&gt;Node4</title>
<path fill="none" stroke="#191970" d="M619.9847,-118.0175C552.3886,-108.7396 383.523,-85.562 295.8169,-73.5239"/>
<polygon fill="#191970" stroke="#191970" points="296.1751,-70.0403 285.7921,-72.1479 295.2232,-76.9753 296.1751,-70.0403"/>
</g>
<!-- Node14&#45;&gt;Node5 -->
<g id="edge22" class="edge">
<title>Node14&#45;&gt;Node5</title>
<path fill="none" stroke="#191970" d="M678.0347,-120.9842C736.6754,-118.258 865.968,-108.6044 893,-76 898.6734,-69.1571 898.9906,-62.567 893,-56 862.2315,-22.2709 546.9895,-12.9403 433.4642,-10.6634"/>
<polygon fill="#191970" stroke="#191970" points="433.1894,-7.1575 423.1239,-10.4644 433.0547,-14.1562 433.1894,-7.1575"/>
</g>
<!-- Node14&#45;&gt;Node13 -->
<g id="edge28" class="edge">
<title>Node14&#45;&gt;Node13</title>
<path fill="none" stroke="#191970" d="M678.2318,-119.7289C741.3873,-114.5637 895.3979,-100.5778 1033.9051,-76.0166"/>
<polygon fill="#191970" stroke="#191970" points="1034.626,-79.4433 1043.8494,-74.2299 1033.388,-72.5536 1034.626,-79.4433"/>
</g>
<!-- Node15 -->
<g id="node16" class="node">
<title>Node15</title>
<polygon fill="none" stroke="#bfbfbf" points="562,-56.5 562,-75.5 606,-75.5 606,-56.5 562,-56.5"/>
<text text-anchor="middle" x="584" y="-63.5" font-family="Helvetica,sans-Serif" font-size="10.00" fill="#000000">string</text>
</g>
<!-- Node14&#45;&gt;Node15 -->
<g id="edge18" class="edge">
<title>Node14&#45;&gt;Node15</title>
<path fill="none" stroke="#191970" d="M637.6779,-112.2455C628.0777,-103.9746 614.1108,-91.9416 602.8305,-82.2232"/>
<polygon fill="#191970" stroke="#191970" points="605.053,-79.5182 595.1924,-75.6427 600.484,-84.8214 605.053,-79.5182"/>
</g>
<!-- Node16 -->
<g id="node17" class="node">
<title>Node16</title>
<g id="a_node17"><a xlink:href="Exception_8hxx.html" target="_top" xlink:title="Exception.hxx">
<polygon fill="none" stroke="#000000" points="940,-56.5 940,-75.5 1026,-75.5 1026,-56.5 940,-56.5"/>
<text text-anchor="middle" x="983" y="-63.5" font-family="Helvetica,sans-Serif" font-size="10.00" fill="#000000">Exception.hxx</text>
</a>
</g>
</g>
<!-- Node14&#45;&gt;Node16 -->
<g id="edge19" class="edge">
<title>Node14&#45;&gt;Node16</title>
<path fill="none" stroke="#191970" d="M678.1274,-117.2525C728.6187,-109.0029 835.6596,-91.4255 926,-76 927.2534,-75.786 928.5222,-75.5687 929.8018,-75.3489"/>
<polygon fill="#191970" stroke="#191970" points="930.489,-78.7822 939.7472,-73.6308 929.2973,-71.8843 930.489,-78.7822"/>
</g>
<!-- Node19 -->
<g id="node20" class="node">
<title>Node19</title>
<polygon fill="none" stroke="#bfbfbf" points="624,-56.5 624,-75.5 674,-75.5 674,-56.5 624,-56.5"/>
<text text-anchor="middle" x="649" y="-63.5" font-family="Helvetica,sans-Serif" font-size="10.00" fill="#000000">chrono</text>
</g>
<!-- Node14&#45;&gt;Node19 -->
<g id="edge23" class="edge">
<title>Node14&#45;&gt;Node19</title>
<path fill="none" stroke="#191970" d="M649,-112.2455C649,-104.9382 649,-94.6944 649,-85.7046"/>
<polygon fill="#191970" stroke="#191970" points="652.5001,-85.6426 649,-75.6427 645.5001,-85.6427 652.5001,-85.6426"/>
</g>
<!-- Node20 -->
<g id="node21" class="node">
<title>Node20</title>
<polygon fill="none" stroke="#bfbfbf" points="692,-56.5 692,-75.5 736,-75.5 736,-56.5 692,-56.5"/>
<text text-anchor="middle" x="714" y="-63.5" font-family="Helvetica,sans-Serif" font-size="10.00" fill="#000000">ctime</text>
</g>
<!-- Node14&#45;&gt;Node20 -->
<g id="edge24" class="edge">
<title>Node14&#45;&gt;Node20</title>
<path fill="none" stroke="#191970" d="M660.3221,-112.2455C669.9223,-103.9746 683.8892,-91.9416 695.1695,-82.2232"/>
<polygon fill="#191970" stroke="#191970" points="697.516,-84.8214 702.8076,-75.6427 692.947,-79.5182 697.516,-84.8214"/>
</g>
<!-- Node21 -->
<g id="node22" class="node">
<title>Node21</title>
<polygon fill="none" stroke="#bfbfbf" points="754.5,-56.5 754.5,-75.5 809.5,-75.5 809.5,-56.5 754.5,-56.5"/>
<text text-anchor="middle" x="782" y="-63.5" font-family="Helvetica,sans-Serif" font-size="10.00" fill="#000000">fstream</text>
</g>
<!-- Node14&#45;&gt;Node21 -->
<g id="edge25" class="edge">
<title>Node14&#45;&gt;Node21</title>
<path fill="none" stroke="#191970" d="M671.8635,-112.3733C693.405,-103.3032 725.8838,-89.6279 749.9956,-79.4755"/>
<polygon fill="#191970" stroke="#191970" points="751.5767,-82.6075 759.4348,-75.5011 748.8603,-76.156 751.5767,-82.6075"/>
</g>
<!-- Node22 -->
<g id="node23" class="node">
<title>Node22</title>
<polygon fill="none" stroke="#bfbfbf" points="828,-56.5 828,-75.5 884,-75.5 884,-56.5 828,-56.5"/>
<text text-anchor="middle" x="856" y="-63.5" font-family="Helvetica,sans-Serif" font-size="10.00" fill="#000000">sstream</text>
</g>
<!-- Node14&#45;&gt;Node22 -->
<g id="edge26" class="edge">
<title>Node14&#45;&gt;Node22</title>
<path fill="none" stroke="#191970" d="M678.219,-114.0953C714.8965,-104.1729 777.8778,-87.1345 818.1927,-76.2281"/>
<polygon fill="#191970" stroke="#191970" points="819.1851,-79.5855 827.9241,-73.5954 817.357,-72.8284 819.1851,-79.5855"/>
</g>
<!-- Node23 -->
<g id="node24" class="node">
<title>Node23</title>
<polygon fill="none" stroke="#bfbfbf" points="342,-56.5 342,-75.5 386,-75.5 386,-56.5 342,-56.5"/>
<text text-anchor="middle" x="364" y="-63.5" font-family="Helvetica,sans-Serif" font-size="10.00" fill="#000000">SDL.h</text>
</g>
<!-- Node14&#45;&gt;Node23 -->
<g id="edge27" class="edge">
<title>Node14&#45;&gt;Node23</title>
<path fill="none" stroke="#191970" d="M619.7819,-117.9994C574.0181,-111.4562 482.5381,-97.2633 396.2045,-76.0515"/>
<polygon fill="#191970" stroke="#191970" points="396.7984,-72.5924 386.2486,-73.5678 395.104,-79.3843 396.7984,-72.5924"/>
</g>
<!-- Node24 -->
<g id="node25" class="node">
<title>Node24</title>
<polygon fill="none" stroke="#bfbfbf" points="404,-56.5 404,-75.5 452,-75.5 452,-56.5 404,-56.5"/>
<text text-anchor="middle" x="428" y="-63.5" font-family="Helvetica,sans-Serif" font-size="10.00" fill="#000000">mutex</text>
</g>
<!-- Node14&#45;&gt;Node24 -->
<g id="edge29" class="edge">
<title>Node14&#45;&gt;Node24</title>
<path fill="none" stroke="#191970" d="M619.8883,-115.3937C584.7131,-107.299 523.5285,-92.8614 461.9836,-76.1679"/>
<polygon fill="#191970" stroke="#191970" points="462.6757,-72.7288 452.1068,-73.4699 460.8311,-79.4814 462.6757,-72.7288"/>
</g>
<!-- Node25 -->
<g id="node26" class="node">
<title>Node25</title>
<g id="a_node26"><a xlink:href="LOG_8inl_8hxx.html" target="_top" xlink:title="LOG.inl.hxx">
<polygon fill="none" stroke="#000000" points="470.5,-56.5 470.5,-75.5 543.5,-75.5 543.5,-56.5 470.5,-56.5"/>
<text text-anchor="middle" x="507" y="-63.5" font-family="Helvetica,sans-Serif" font-size="10.00" fill="#000000">LOG.inl.hxx</text>
</a>
</g>
</g>
<!-- Node14&#45;&gt;Node25 -->
<g id="edge31" class="edge">
<title>Node14&#45;&gt;Node25</title>
<path fill="none" stroke="#191970" d="M624.5893,-112.3733C601.3858,-103.2226 566.2962,-89.3844 540.4858,-79.2057"/>
<polygon fill="#191970" stroke="#191970" points="541.6789,-75.9139 531.0921,-75.5011 539.1108,-82.4258 541.6789,-75.9139"/>
</g>
<!-- Node17 -->
<g id="node18" class="node">
<title>Node17</title>
<polygon fill="none" stroke="#bfbfbf" points="908.5,-.5 908.5,-19.5 973.5,-19.5 973.5,-.5 908.5,-.5"/>
<text text-anchor="middle" x="941" y="-7.5" font-family="Helvetica,sans-Serif" font-size="10.00" fill="#000000">stdexcept</text>
</g>
<!-- Node16&#45;&gt;Node17 -->
<g id="edge20" class="edge">
<title>Node16&#45;&gt;Node17</title>
<path fill="none" stroke="#191970" d="M975.6842,-56.2455C969.7821,-48.3761 961.3258,-37.101 954.2406,-27.6542"/>
<polygon fill="#191970" stroke="#191970" points="957.0321,-25.5427 948.232,-19.6427 951.432,-29.7427 957.0321,-25.5427"/>
</g>
<!-- Node18 -->
<g id="node19" class="node">
<title>Node18</title>
<polygon fill="none" stroke="#bfbfbf" points="991.5,-.5 991.5,-19.5 1056.5,-19.5 1056.5,-.5 991.5,-.5"/>
<text text-anchor="middle" x="1024" y="-7.5" font-family="Helvetica,sans-Serif" font-size="10.00" fill="#000000">exception</text>
</g>
<!-- Node16&#45;&gt;Node18 -->
<g id="edge21" class="edge">
<title>Node16&#45;&gt;Node18</title>
<path fill="none" stroke="#191970" d="M990.1417,-56.2455C995.8444,-48.4564 1003.99,-37.3308 1010.8625,-27.9439"/>
<polygon fill="#191970" stroke="#191970" points="1013.8568,-29.7789 1016.9402,-19.6427 1008.2087,-25.6437 1013.8568,-29.7789"/>
</g>
</g>
</svg>
        <g id="navigator" transform="translate(0 0)" fill="#404254">
                <rect fill="#f2f5e9" fill-opacity="0.5" stroke="#606060" stroke-width=".5" x="0" y="0" width="60" height="60"/>
                <use id="zoomplus" xlink:href="#zoomPlus" x="17" y="9" onmousedown="handleZoom(evt,'in')"/>
                <use id="zoomminus" xlink:href="#zoomMin" x="42" y="9" onmousedown="handleZoom(evt,'out')"/>
                <use id="reset" xlink:href="#resetDef" x="30" y="36" onmousedown="handleReset()"/>
                <g id="arrowUp" xlink:href="#dirArrow" transform="translate(30 24)" onmousedown="handlePan(0,-1)">
                  <use xlink:href="#rim" fill="#404040">
                        <set attributeName="fill" to="#808080" begin="arrowUp.mouseover" end="arrowUp.mouseout"/>
                  </use>
                  <path fill="none" stroke="white" stroke-width="1.5" d="M0,-3.0v7 M-2.5,-0.5L0,-3.0L2.5,-0.5"/>
                </g>
                <g id="arrowRight" xlink:href="#dirArrow" transform="rotate(90) translate(36 -43)" onmousedown="handlePan(1,0)">
                  <use xlink:href="#rim" fill="#404040">
                        <set attributeName="fill" to="#808080" begin="arrowRight.mouseover" end="arrowRight.mouseout"/>
                  </use>
                  <path fill="none" stroke="white" stroke-width="1.5" d="M0,-3.0v7 M-2.5,-0.5L0,-3.0L2.5,-0.5"/>
                </g>
                <g id="arrowDown" xlink:href="#dirArrow" transform="rotate(180) translate(-30 -48)" onmousedown="handlePan(0,1)">
                  <use xlink:href="#rim" fill="#404040">
                        <set attributeName="fill" to="#808080" begin="arrowDown.mouseover" end="arrowDown.mouseout"/>
                  </use>
                  <path fill="none" stroke="white" stroke-width="1.5" d="M0,-3.0v7 M-2.5,-0.5L0,-3.0L2.5,-0.5"/>
                </g>
                <g id="arrowLeft" xlink:href="#dirArrow" transform="rotate(270) translate(-36 17)" onmousedown="handlePan(-1,0)">
                  <use xlink:href="#rim" fill="#404040">
                        <set attributeName="fill" to="#808080" begin="arrowLeft.mouseover" end="arrowLeft.mouseout"/>
                  </use>
                  <path fill="none" stroke="white" stroke-width="1.5" d="M0,-3.0v7 M-2.5,-0.5L0,-3.0L2.5,-0.5"/>
                </g>
        </g>
        <svg viewBox="0 0 15 15" width="100%" height="30px" preserveAspectRatio="xMaxYMin meet">
         <g id="arrow_out" transform="scale(0.3 0.3)">
          <a xlink:href="iViewElement_8hxx__incl_org.svg" target="_base">
           <rect id="button" ry="5" rx="5" y="6" x="6" height="38" width="38"
                fill="#f2f5e9" fill-opacity="0.5" stroke="#606060" stroke-width="1.0"/>
           <path id="arrow"
             d="M 11.500037,31.436501 C 11.940474,20.09759 22.043105,11.32322 32.158766,21.979434 L 37.068811,17.246167 C 37.068811,17.246167 37.088388,32 37.088388,32 L 22.160133,31.978069 C 22.160133,31.978069 26.997745,27.140456 26.997745,27.140456 C 18.528582,18.264221 13.291696,25.230495 11.500037,31.436501 z"
             style="fill:#404040;"/>
          </a>
         </g>
        </svg>
</svg>
