<?xml version="1.0" encoding="UTF-8" standalone="no"?>
<!DOCTYPE svg PUBLIC "-//W3C//DTD SVG 1.1//EN"
 "http://www.w3.org/Graphics/SVG/1.1/DTD/svg11.dtd">
<!-- Generated by graphviz version 2.40.1 (20161225.0304)
 -->
<!-- Title: src/view/iView.hxx Pages: 1 -->
<!--zoomable 364 -->
<svg id="main" version="1.1" xmlns="http://www.w3.org/2000/svg" xmlns:xlink="http://www.w3.org/1999/xlink" xml:space="preserve" onload="init(evt)">
<style type="text/css"><![CDATA[
.edge:hover path { stroke: red; }
.edge:hover polygon { stroke: red; fill: red; }
]]></style>
<script type="text/javascript"><![CDATA[
var edges = document.getElementsByTagName('g');
if (edges && edges.length) {
  for (var i=0;i<edges.length;i++) {
    if (edges[i].id.substr(0,4)=='edge') {
      edges[i].setAttribute('class','edge');
    }
  }
}
]]></script>
        <defs>
                <circle id="rim" cx="0" cy="0" r="7"/>
                <circle id="rim2" cx="0" cy="0" r="3.5"/>
                <g id="zoomPlus">
                        <use xlink:href="#rim" fill="#404040">
                                <set attributeName="fill" to="#808080" begin="zoomplus.mouseover" end="zoomplus.mouseout"/>
                        </use>
                        <path d="M-4,0h8M0,-4v8" fill="none" stroke="white" stroke-width="1.5" pointer-events="none"/>
                </g>
                <g id="zoomMin">
                        <use xlink:href="#rim" fill="#404040">
                                <set attributeName="fill" to="#808080" begin="zoomminus.mouseover" end="zoomminus.mouseout"/>
                        </use>
                        <path d="M-4,0h8" fill="none" stroke="white" stroke-width="1.5" pointer-events="none"/>
                </g>
                <g id="dirArrow">
                        <path fill="none" stroke="white" stroke-width="1.5" d="M0,-3.0v7 M-2.5,-0.5L0,-3.0L2.5,-0.5"/>
                </g>
               <g id="resetDef">
                       <use xlink:href="#rim2" fill="#404040">
                               <set attributeName="fill" to="#808080" begin="reset.mouseover" end="reset.mouseout"/>
                       </use>
               </g>
        </defs>

<script type="text/javascript">
var viewWidth = 877;
var viewHeight = 364;
var sectionId = 'dynsection-1';
</script>
<script xlink:href="svgpan.js"/>
<svg id="graph" class="graph">
<g id="viewport">
<title>src/view/iView.hxx</title>
<!-- Node2 -->
<g id="node1" class="node">
<title>Node2</title>
<polygon fill="#bfbfbf" stroke="#000000" points="234,-336.5 234,-355.5 341,-355.5 341,-336.5 234,-336.5"/>
<text text-anchor="middle" x="287.5" y="-343.5" font-family="Helvetica,sans-Serif" font-size="10.00" fill="#000000">src/view/iView.hxx</text>
</g>
<!-- Node3 -->
<g id="node2" class="node">
<title>Node3</title>
<g id="a_node2"><a xlink:href="iLayout_8hxx.html" target="_top" xlink:title="src/layout/iLayout.hxx">
<polygon fill="none" stroke="#000000" points="128,-224.5 128,-243.5 253,-243.5 253,-224.5 128,-224.5"/>
<text text-anchor="middle" x="190.5" y="-231.5" font-family="Helvetica,sans-Serif" font-size="10.00" fill="#000000">src/layout/iLayout.hxx</text>
</a>
</g>
</g>
<!-- Node2&#45;&gt;Node3 -->
<g id="edge1" class="edge">
<title>Node2&#45;&gt;Node3</title>
<path fill="none" stroke="#191970" d="M247.5251,-332.26C231.9067,-324.9795 215.2096,-314.4785 204.5,-300 191.9617,-283.0494 190.134,-257.3062 190.1539,-243.5151"/>
<polygon fill="#191970" stroke="#191970" points="246.4799,-335.6214 257.0472,-336.3836 249.2617,-329.1978 246.4799,-335.6214"/>
</g>
<!-- Node15 -->
<g id="node14" class="node">
<title>Node15</title>
<g id="a_node14"><a xlink:href="iViewElement_8hxx.html" target="_top" xlink:title="src/view/iViewElement.hxx">
<polygon fill="none" stroke="#000000" points="213,-280.5 213,-299.5 362,-299.5 362,-280.5 213,-280.5"/>
<text text-anchor="middle" x="287.5" y="-287.5" font-family="Helvetica,sans-Serif" font-size="10.00" fill="#000000">src/view/iViewElement.hxx</text>
</a>
</g>
</g>
<!-- Node2&#45;&gt;Node15 -->
<g id="edge14" class="edge">
<title>Node2&#45;&gt;Node15</title>
<path fill="none" stroke="#191970" d="M287.5,-326.1575C287.5,-317.155 287.5,-306.9199 287.5,-299.6427"/>
<polygon fill="#191970" stroke="#191970" points="284.0001,-326.2455 287.5,-336.2455 291.0001,-326.2456 284.0001,-326.2455"/>
</g>
<!-- Node17 -->
<g id="node16" class="node">
<title>Node17</title>
<g id="a_node16"><a xlink:href="iView_8cxx.html" target="_top" xlink:title="src/view/iView.cxx">
<polygon fill="none" stroke="#000000" points="380,-280.5 380,-299.5 487,-299.5 487,-280.5 380,-280.5"/>
<text text-anchor="middle" x="433.5" y="-287.5" font-family="Helvetica,sans-Serif" font-size="10.00" fill="#000000">src/view/iView.cxx</text>
</a>
</g>
</g>
<!-- Node2&#45;&gt;Node17 -->
<g id="edge18" class="edge">
<title>Node2&#45;&gt;Node17</title>
<path fill="none" stroke="#191970" d="M321.9435,-332.7888C348.6013,-322.5639 384.88,-308.6488 408.7292,-299.5011"/>
<polygon fill="#191970" stroke="#191970" points="320.6816,-329.5241 312.5983,-336.3733 323.1885,-336.0598 320.6816,-329.5241"/>
</g>
<!-- Node4 -->
<g id="node3" class="node">
<title>Node4</title>
<g id="a_node3"><a xlink:href="iActivity_8hxx.html" target="_top" xlink:title="src/activity/iActivity.hxx">
<polygon fill="none" stroke="#000000" points="217.5,-168.5 217.5,-187.5 351.5,-187.5 351.5,-168.5 217.5,-168.5"/>
<text text-anchor="middle" x="284.5" y="-175.5" font-family="Helvetica,sans-Serif" font-size="10.00" fill="#000000">src/activity/iActivity.hxx</text>
</a>
</g>
</g>
<!-- Node3&#45;&gt;Node4 -->
<g id="edge2" class="edge">
<title>Node3&#45;&gt;Node4</title>
<path fill="none" stroke="#191970" d="M215.6005,-219.0465C232.326,-209.0824 253.8168,-196.2794 268.3141,-187.6427"/>
<polygon fill="#191970" stroke="#191970" points="213.6732,-216.1206 206.8736,-224.2455 217.2559,-222.1343 213.6732,-216.1206"/>
</g>
<!-- Node14 -->
<g id="node13" class="node">
<title>Node14</title>
<g id="a_node13"><a xlink:href="iLayout_8cxx.html" target="_top" xlink:title="src/layout/iLayout.cxx">
<polygon fill="none" stroke="#000000" points="75.5,-168.5 75.5,-187.5 199.5,-187.5 199.5,-168.5 75.5,-168.5"/>
<text text-anchor="middle" x="137.5" y="-175.5" font-family="Helvetica,sans-Serif" font-size="10.00" fill="#000000">src/layout/iLayout.cxx</text>
</a>
</g>
</g>
<!-- Node3&#45;&gt;Node14 -->
<g id="edge13" class="edge">
<title>Node3&#45;&gt;Node14</title>
<path fill="none" stroke="#191970" d="M174.2104,-216.7884C165.1438,-207.2085 154.1946,-195.6396 146.6261,-187.6427"/>
<polygon fill="#191970" stroke="#191970" points="171.8522,-219.3884 181.2681,-224.2455 176.9363,-214.5767 171.8522,-219.3884"/>
</g>
<!-- Node5 -->
<g id="node4" class="node">
<title>Node5</title>
<g id="a_node4"><a xlink:href="iActivity_8cxx.html" target="_top" xlink:title="src/activity/iActivity.cxx">
<polygon fill="none" stroke="#000000" points="0,-56.5 0,-75.5 133,-75.5 133,-56.5 0,-56.5"/>
<text text-anchor="middle" x="66.5" y="-63.5" font-family="Helvetica,sans-Serif" font-size="10.00" fill="#000000">src/activity/iActivity.cxx</text>
</a>
</g>
</g>
<!-- Node4&#45;&gt;Node5 -->
<g id="edge3" class="edge">
<title>Node4&#45;&gt;Node5</title>
<path fill="none" stroke="#191970" d="M256.9831,-163.8629C211.8922,-140.6969 123.45,-95.2587 85.0395,-75.5249"/>
<polygon fill="#191970" stroke="#191970" points="255.4192,-166.9943 265.9134,-168.4509 258.6181,-160.7679 255.4192,-166.9943"/>
</g>
<!-- Node6 -->
<g id="node5" class="node">
<title>Node6</title>
<g id="a_node5"><a xlink:href="Window_8hxx.html" target="_top" xlink:title="src/view/Window.hxx">
<polygon fill="none" stroke="#000000" points="327,-112.5 327,-131.5 446,-131.5 446,-112.5 327,-112.5"/>
<text text-anchor="middle" x="386.5" y="-119.5" font-family="Helvetica,sans-Serif" font-size="10.00" fill="#000000">src/view/Window.hxx</text>
</a>
</g>
</g>
<!-- Node4&#45;&gt;Node6 -->
<g id="edge4" class="edge">
<title>Node4&#45;&gt;Node6</title>
<path fill="none" stroke="#191970" d="M311.234,-163.3225C329.4532,-153.3198 353.0598,-140.3593 368.9366,-131.6427"/>
<polygon fill="#191970" stroke="#191970" points="309.3484,-160.3649 302.267,-168.2455 312.7173,-166.5009 309.3484,-160.3649"/>
</g>
<!-- Node6&#45;&gt;Node5 -->
<g id="edge5" class="edge">
<title>Node6&#45;&gt;Node5</title>
<path fill="none" stroke="#191970" d="M321.8926,-110.6937C262.8547,-100.3621 176.5241,-85.2542 120.921,-75.5237"/>
<polygon fill="#191970" stroke="#191970" points="321.4,-114.1606 331.8536,-112.4369 322.6067,-107.2654 321.4,-114.1606"/>
</g>
<!-- Node7 -->
<g id="node6" class="node">
<title>Node7</title>
<g id="a_node6"><a xlink:href="Camera_8cxx.html" target="_top" xlink:title="src/engine/basics/Camera.cxx">
<polygon fill="none" stroke="#000000" points="151.5,-56.5 151.5,-75.5 313.5,-75.5 313.5,-56.5 151.5,-56.5"/>
<text text-anchor="middle" x="232.5" y="-63.5" font-family="Helvetica,sans-Serif" font-size="10.00" fill="#000000">src/engine/basics/Camera.cxx</text>
</a>
</g>
</g>
<!-- Node6&#45;&gt;Node7 -->
<g id="edge6" class="edge">
<title>Node6&#45;&gt;Node7</title>
<path fill="none" stroke="#191970" d="M350.5386,-108.9231C322.3866,-98.686 283.8945,-84.6889 258.6281,-75.5011"/>
<polygon fill="#191970" stroke="#191970" points="349.4324,-112.245 360.0265,-112.3733 351.8246,-105.6665 349.4324,-112.245"/>
</g>
<!-- Node8 -->
<g id="node7" class="node">
<title>Node8</title>
<g id="a_node7"><a xlink:href="Map_8cxx.html" target="_top" xlink:title="src/engine/Map.cxx">
<polygon fill="none" stroke="#000000" points="331.5,-56.5 331.5,-75.5 441.5,-75.5 441.5,-56.5 331.5,-56.5"/>
<text text-anchor="middle" x="386.5" y="-63.5" font-family="Helvetica,sans-Serif" font-size="10.00" fill="#000000">src/engine/Map.cxx</text>
</a>
</g>
</g>
<!-- Node6&#45;&gt;Node8 -->
<g id="edge7" class="edge">
<title>Node6&#45;&gt;Node8</title>
<path fill="none" stroke="#191970" d="M386.5,-102.1575C386.5,-93.155 386.5,-82.9199 386.5,-75.6427"/>
<polygon fill="#191970" stroke="#191970" points="383.0001,-102.2455 386.5,-112.2455 390.0001,-102.2456 383.0001,-102.2455"/>
</g>
<!-- Node9 -->
<g id="node8" class="node">
<title>Node9</title>
<g id="a_node8"><a xlink:href="WindowManager_8cxx.html" target="_top" xlink:title="src/engine/WindowManager.cxx">
<polygon fill="none" stroke="#000000" points="459.5,-56.5 459.5,-75.5 629.5,-75.5 629.5,-56.5 459.5,-56.5"/>
<text text-anchor="middle" x="544.5" y="-63.5" font-family="Helvetica,sans-Serif" font-size="10.00" fill="#000000">src/engine/WindowManager.cxx</text>
</a>
</g>
</g>
<!-- Node6&#45;&gt;Node9 -->
<g id="edge8" class="edge">
<title>Node6&#45;&gt;Node9</title>
<path fill="none" stroke="#191970" d="M423.3955,-108.9231C452.2787,-98.686 491.7706,-84.6889 517.6933,-75.5011"/>
<polygon fill="#191970" stroke="#191970" points="421.9174,-105.7336 413.6612,-112.3733 424.2559,-112.3314 421.9174,-105.7336"/>
</g>
<!-- Node10 -->
<g id="node9" class="node">
<title>Node10</title>
<g id="a_node9"><a xlink:href="Game_8hxx.html" target="_top" xlink:title="src/Game.hxx">
<polygon fill="none" stroke="#000000" points="647.5,-56.5 647.5,-75.5 731.5,-75.5 731.5,-56.5 647.5,-56.5"/>
<text text-anchor="middle" x="689.5" y="-63.5" font-family="Helvetica,sans-Serif" font-size="10.00" fill="#000000">src/Game.hxx</text>
</a>
</g>
</g>
<!-- Node6&#45;&gt;Node10 -->
<g id="edge9" class="edge">
<title>Node6&#45;&gt;Node10</title>
<path fill="none" stroke="#191970" d="M450.0092,-110.644C500.9906,-101.471 574.3885,-88.1364 638.5,-76 641.4256,-75.4462 644.4443,-74.869 647.4837,-74.2836"/>
<polygon fill="#191970" stroke="#191970" points="449.3442,-107.2074 440.1212,-112.4215 450.5827,-114.0969 449.3442,-107.2074"/>
</g>
<!-- Node13 -->
<g id="node12" class="node">
<title>Node13</title>
<g id="a_node12"><a xlink:href="Window_8cxx.html" target="_top" xlink:title="src/view/Window.cxx">
<polygon fill="none" stroke="#000000" points="750,-56.5 750,-75.5 869,-75.5 869,-56.5 750,-56.5"/>
<text text-anchor="middle" x="809.5" y="-63.5" font-family="Helvetica,sans-Serif" font-size="10.00" fill="#000000">src/view/Window.cxx</text>
</a>
</g>
</g>
<!-- Node6&#45;&gt;Node13 -->
<g id="edge12" class="edge">
<title>Node6&#45;&gt;Node13</title>
<path fill="none" stroke="#191970" d="M456.2598,-113.2426C527.6859,-104.2039 641.8939,-89.5512 740.5,-76 743.4979,-75.588 746.5683,-75.1611 749.6685,-74.7262"/>
<polygon fill="#191970" stroke="#191970" points="455.5209,-109.8081 446.0389,-114.5347 456.3989,-116.7528 455.5209,-109.8081"/>
</g>
<!-- Node11 -->
<g id="node10" class="node">
<title>Node11</title>
<g id="a_node10"><a xlink:href="Game_8cxx.html" target="_top" xlink:title="src/Game.cxx">
<polygon fill="none" stroke="#000000" points="598,-.5 598,-19.5 681,-19.5 681,-.5 598,-.5"/>
<text text-anchor="middle" x="639.5" y="-7.5" font-family="Helvetica,sans-Serif" font-size="10.00" fill="#000000">src/Game.cxx</text>
</a>
</g>
</g>
<!-- Node10&#45;&gt;Node11 -->
<g id="edge10" class="edge">
<title>Node10&#45;&gt;Node11</title>
<path fill="none" stroke="#191970" d="M673.8753,-48.5004C665.3727,-38.9775 655.1782,-27.5596 648.1095,-19.6427"/>
<polygon fill="#191970" stroke="#191970" points="671.5197,-51.1172 680.7907,-56.2455 676.7413,-46.4551 671.5197,-51.1172"/>
</g>
<!-- Node12 -->
<g id="node11" class="node">
<title>Node12</title>
<g id="a_node11"><a xlink:href="main_8cxx.html" target="_top" xlink:title="src/main.cxx">
<polygon fill="none" stroke="#000000" points="699,-.5 699,-19.5 778,-19.5 778,-.5 699,-.5"/>
<text text-anchor="middle" x="738.5" y="-7.5" font-family="Helvetica,sans-Serif" font-size="10.00" fill="#000000">src/main.cxx</text>
</a>
</g>
</g>
<!-- Node10&#45;&gt;Node12 -->
<g id="edge11" class="edge">
<title>Node10&#45;&gt;Node12</title>
<path fill="none" stroke="#191970" d="M704.8122,-48.5004C713.1447,-38.9775 723.1353,-27.5596 730.0627,-19.6427"/>
<polygon fill="#191970" stroke="#191970" points="701.9862,-46.415 698.0351,-56.2455 707.2543,-51.0245 701.9862,-46.415"/>
</g>
<!-- Node15&#45;&gt;Node3 -->
<g id="edge15" class="edge">
<title>Node15&#45;&gt;Node3</title>
<path fill="none" stroke="#191970" d="M261.5984,-275.0465C244.3391,-265.0824 222.1624,-252.2794 207.2025,-243.6427"/>
<polygon fill="#191970" stroke="#191970" points="260.1936,-278.2768 270.6039,-280.2455 263.6935,-272.2146 260.1936,-278.2768"/>
</g>
<!-- Node15&#45;&gt;Node4 -->
<g id="edge16" class="edge">
<title>Node15&#45;&gt;Node4</title>
<path fill="none" stroke="#191970" d="M286.9715,-270.2702C286.3214,-245.9985 285.2439,-205.7725 284.7551,-187.5249"/>
<polygon fill="#191970" stroke="#191970" points="283.4776,-270.5483 287.2442,-280.4509 290.4751,-270.3608 283.4776,-270.5483"/>
</g>
<!-- Node16 -->
<g id="node15" class="node">
<title>Node16</title>
<g id="a_node15"><a xlink:href="iViewElement_8cxx.html" target="_top" xlink:title="src/view/iViewElement.cxx">
<polygon fill="none" stroke="#000000" points="312.5,-224.5 312.5,-243.5 460.5,-243.5 460.5,-224.5 312.5,-224.5"/>
<text text-anchor="middle" x="386.5" y="-231.5" font-family="Helvetica,sans-Serif" font-size="10.00" fill="#000000">src/view/iViewElement.cxx</text>
</a>
</g>
</g>
<!-- Node15&#45;&gt;Node16 -->
<g id="edge17" class="edge">
<title>Node15&#45;&gt;Node16</title>
<path fill="none" stroke="#191970" d="M313.9357,-275.0465C331.5508,-265.0824 354.1847,-252.2794 369.4531,-243.6427"/>
<polygon fill="#191970" stroke="#191970" points="311.7253,-272.2756 304.7445,-280.2455 315.1717,-278.3684 311.7253,-272.2756"/>
</g>
</g>
</svg>
        <g id="navigator" transform="translate(0 0)" fill="#404254">
                <rect fill="#f2f5e9" fill-opacity="0.5" stroke="#606060" stroke-width=".5" x="0" y="0" width="60" height="60"/>
                <use id="zoomplus" xlink:href="#zoomPlus" x="17" y="9" onmousedown="handleZoom(evt,'in')"/>
                <use id="zoomminus" xlink:href="#zoomMin" x="42" y="9" onmousedown="handleZoom(evt,'out')"/>
                <use id="reset" xlink:href="#resetDef" x="30" y="36" onmousedown="handleReset()"/>
                <g id="arrowUp" xlink:href="#dirArrow" transform="translate(30 24)" onmousedown="handlePan(0,-1)">
                  <use xlink:href="#rim" fill="#404040">
                        <set attributeName="fill" to="#808080" begin="arrowUp.mouseover" end="arrowUp.mouseout"/>
                  </use>
                  <path fill="none" stroke="white" stroke-width="1.5" d="M0,-3.0v7 M-2.5,-0.5L0,-3.0L2.5,-0.5"/>
                </g>
                <g id="arrowRight" xlink:href="#dirArrow" transform="rotate(90) translate(36 -43)" onmousedown="handlePan(1,0)">
                  <use xlink:href="#rim" fill="#404040">
                        <set attributeName="fill" to="#808080" begin="arrowRight.mouseover" end="arrowRight.mouseout"/>
                  </use>
                  <path fill="none" stroke="white" stroke-width="1.5" d="M0,-3.0v7 M-2.5,-0.5L0,-3.0L2.5,-0.5"/>
                </g>
                <g id="arrowDown" xlink:href="#dirArrow" transform="rotate(180) translate(-30 -48)" onmousedown="handlePan(0,1)">
                  <use xlink:href="#rim" fill="#404040">
                        <set attributeName="fill" to="#808080" begin="arrowDown.mouseover" end="arrowDown.mouseout"/>
                  </use>
                  <path fill="none" stroke="white" stroke-width="1.5" d="M0,-3.0v7 M-2.5,-0.5L0,-3.0L2.5,-0.5"/>
                </g>
                <g id="arrowLeft" xlink:href="#dirArrow" transform="rotate(270) translate(-36 17)" onmousedown="handlePan(-1,0)">
                  <use xlink:href="#rim" fill="#404040">
                        <set attributeName="fill" to="#808080" begin="arrowLeft.mouseover" end="arrowLeft.mouseout"/>
                  </use>
                  <path fill="none" stroke="white" stroke-width="1.5" d="M0,-3.0v7 M-2.5,-0.5L0,-3.0L2.5,-0.5"/>
                </g>
        </g>
        <svg viewBox="0 0 15 15" width="100%" height="30px" preserveAspectRatio="xMaxYMin meet">
         <g id="arrow_out" transform="scale(0.3 0.3)">
          <a xlink:href="iView_8hxx__dep__incl_org.svg" target="_base">
           <rect id="button" ry="5" rx="5" y="6" x="6" height="38" width="38"
                fill="#f2f5e9" fill-opacity="0.5" stroke="#606060" stroke-width="1.0"/>
           <path id="arrow"
             d="M 11.500037,31.436501 C 11.940474,20.09759 22.043105,11.32322 32.158766,21.979434 L 37.068811,17.246167 C 37.068811,17.246167 37.088388,32 37.088388,32 L 22.160133,31.978069 C 22.160133,31.978069 26.997745,27.140456 26.997745,27.140456 C 18.528582,18.264221 13.291696,25.230495 11.500037,31.436501 z"
             style="fill:#404040;"/>
          </a>
         </g>
        </svg>
</svg>
