<?xml version="1.0" encoding="UTF-8" standalone="no"?>
<!DOCTYPE svg PUBLIC "-//W3C//DTD SVG 1.1//EN"
 "http://www.w3.org/Graphics/SVG/1.1/DTD/svg11.dtd">
<!-- Generated by graphviz version 2.40.1 (20161225.0304)
 -->
<!-- Title: src/view/iViewElement.cxx Pages: 1 -->
<!--zoomable 364 -->
<svg id="main" version="1.1" xmlns="http://www.w3.org/2000/svg" xmlns:xlink="http://www.w3.org/1999/xlink" xml:space="preserve" onload="init(evt)">
<style type="text/css"><![CDATA[
.edge:hover path { stroke: red; }
.edge:hover polygon { stroke: red; fill: red; }
]]></style>
<script type="text/javascript"><![CDATA[
var edges = document.getElementsByTagName('g');
if (edges && edges.length) {
  for (var i=0;i<edges.length;i++) {
    if (edges[i].id.substr(0,4)=='edge') {
      edges[i].setAttribute('class','edge');
    }
  }
}
]]></script>
        <defs>
                <circle id="rim" cx="0" cy="0" r="7"/>
                <circle id="rim2" cx="0" cy="0" r="3.5"/>
                <g id="zoomPlus">
                        <use xlink:href="#rim" fill="#404040">
                                <set attributeName="fill" to="#808080" begin="zoomplus.mouseover" end="zoomplus.mouseout"/>
                        </use>
                        <path d="M-4,0h8M0,-4v8" fill="none" stroke="white" stroke-width="1.5" pointer-events="none"/>
                </g>
                <g id="zoomMin">
                        <use xlink:href="#rim" fill="#404040">
                                <set attributeName="fill" to="#808080" begin="zoomminus.mouseover" end="zoomminus.mouseout"/>
                        </use>
                        <path d="M-4,0h8" fill="none" stroke="white" stroke-width="1.5" pointer-events="none"/>
                </g>
                <g id="dirArrow">
                        <path fill="none" stroke="white" stroke-width="1.5" d="M0,-3.0v7 M-2.5,-0.5L0,-3.0L2.5,-0.5"/>
                </g>
               <g id="resetDef">
                       <use xlink:href="#rim2" fill="#404040">
                               <set attributeName="fill" to="#808080" begin="reset.mouseover" end="reset.mouseout"/>
                       </use>
               </g>
        </defs>

<script type="text/javascript">
var viewWidth = 1146;
var viewHeight = 364;
var sectionId = 'dynsection-0';
</script>
<script xlink:href="svgpan.js"/>
<svg id="graph" class="graph">
<g id="viewport">
<title>src/view/iViewElement.cxx</title>
<!-- Node0 -->
<g id="node1" class="node">
<title>Node0</title>
<polygon fill="#bfbfbf" stroke="#000000" points="591.5,-336.5 591.5,-355.5 739.5,-355.5 739.5,-336.5 591.5,-336.5"/>
<text text-anchor="middle" x="665.5" y="-343.5" font-family="Helvetica,sans-Serif" font-size="10.00" fill="#000000">src/view/iViewElement.cxx</text>
</g>
<!-- Node1 -->
<g id="node2" class="node">
<title>Node1</title>
<g id="a_node2"><a xlink:href="iViewElement_8hxx.html" target="_top" xlink:title="iViewElement.hxx">
<polygon fill="none" stroke="#000000" points="493,-280.5 493,-299.5 598,-299.5 598,-280.5 493,-280.5"/>
<text text-anchor="middle" x="545.5" y="-287.5" font-family="Helvetica,sans-Serif" font-size="10.00" fill="#000000">iViewElement.hxx</text>
</a>
</g>
</g>
<!-- Node0&#45;&gt;Node1 -->
<g id="edge1" class="edge">
<title>Node0&#45;&gt;Node1</title>
<path fill="none" stroke="#191970" d="M644.8713,-336.3733C625.6081,-327.3838 596.6514,-313.8706 574.9581,-303.7471"/>
<polygon fill="#191970" stroke="#191970" points="576.4015,-300.5584 565.8595,-299.5011 573.4413,-306.9017 576.4015,-300.5584"/>
</g>
<!-- Node15 -->
<g id="node16" class="node">
<title>Node15</title>
<g id="a_node16"><a xlink:href="LOG_8hxx.html" target="_top" xlink:title="LOG.hxx">
<polygon fill="none" stroke="#000000" points="632.5,-112.5 632.5,-131.5 690.5,-131.5 690.5,-112.5 632.5,-112.5"/>
<text text-anchor="middle" x="661.5" y="-119.5" font-family="Helvetica,sans-Serif" font-size="10.00" fill="#000000">LOG.hxx</text>
</a>
</g>
</g>
<!-- Node0&#45;&gt;Node15 -->
<g id="edge34" class="edge">
<title>Node0&#45;&gt;Node15</title>
<path fill="none" stroke="#191970" d="M665.3281,-336.375C664.7229,-302.4851 662.6827,-188.2317 661.8542,-141.8332"/>
<polygon fill="#191970" stroke="#191970" points="665.3493,-141.525 661.6712,-131.5891 658.3504,-141.6501 665.3493,-141.525"/>
</g>
<!-- Node17 -->
<g id="node18" class="node">
<title>Node17</title>
<g id="a_node18"><a xlink:href="Exception_8hxx.html" target="_top" xlink:title="Exception.hxx">
<polygon fill="none" stroke="#000000" points="1021.5,-56.5 1021.5,-75.5 1107.5,-75.5 1107.5,-56.5 1021.5,-56.5"/>
<text text-anchor="middle" x="1064.5" y="-63.5" font-family="Helvetica,sans-Serif" font-size="10.00" fill="#000000">Exception.hxx</text>
</a>
</g>
</g>
<!-- Node0&#45;&gt;Node17 -->
<g id="edge33" class="edge">
<title>Node0&#45;&gt;Node17</title>
<path fill="none" stroke="#191970" d="M701.125,-336.4382C765.25,-318.1686 893.5,-276.3373 893.5,-234 893.5,-234 893.5,-234 893.5,-178 893.5,-120.7748 961.3447,-91.2037 1011.5656,-77.1532"/>
<polygon fill="#191970" stroke="#191970" points="1012.5877,-80.5031 1021.3495,-74.5465 1010.7855,-73.739 1012.5877,-80.5031"/>
</g>
<!-- Node2 -->
<g id="node3" class="node">
<title>Node2</title>
<polygon fill="none" stroke="#bfbfbf" points="577.5,-168.5 577.5,-187.5 635.5,-187.5 635.5,-168.5 577.5,-168.5"/>
<text text-anchor="middle" x="606.5" y="-175.5" font-family="Helvetica,sans-Serif" font-size="10.00" fill="#000000">memory</text>
</g>
<!-- Node1&#45;&gt;Node2 -->
<g id="edge2" class="edge">
<title>Node1&#45;&gt;Node2</title>
<path fill="none" stroke="#191970" d="M546.9046,-280.0577C549.115,-266.6414 554.2528,-242.3137 564.5,-224 570.5825,-213.1294 579.6945,-202.7283 587.8783,-194.575"/>
<polygon fill="#191970" stroke="#191970" points="590.4778,-196.9329 595.311,-187.5048 585.6532,-191.861 590.4778,-196.9329"/>
</g>
<!-- Node3 -->
<g id="node4" class="node">
<title>Node3</title>
<g id="a_node4"><a xlink:href="iView_8hxx.html" target="_top" xlink:title="iView.hxx">
<polygon fill="none" stroke="#000000" points="573.5,-224.5 573.5,-243.5 637.5,-243.5 637.5,-224.5 573.5,-224.5"/>
<text text-anchor="middle" x="605.5" y="-231.5" font-family="Helvetica,sans-Serif" font-size="10.00" fill="#000000">iView.hxx</text>
</a>
</g>
</g>
<!-- Node1&#45;&gt;Node3 -->
<g id="edge3" class="edge">
<title>Node1&#45;&gt;Node3</title>
<path fill="none" stroke="#191970" d="M555.9512,-280.2455C564.7269,-272.0549 577.4554,-260.1749 587.814,-250.5069"/>
<polygon fill="#191970" stroke="#191970" points="590.2461,-253.0246 595.1686,-243.6427 585.4699,-247.9072 590.2461,-253.0246"/>
</g>
<!-- Node4 -->
<g id="node5" class="node">
<title>Node4</title>
<g id="a_node5"><a xlink:href="BoxSizing_8hxx.html" target="_top" xlink:title="BoxSizing.hxx">
<polygon fill="none" stroke="#000000" points="86.5,-224.5 86.5,-243.5 172.5,-243.5 172.5,-224.5 86.5,-224.5"/>
<text text-anchor="middle" x="129.5" y="-231.5" font-family="Helvetica,sans-Serif" font-size="10.00" fill="#000000">BoxSizing.hxx</text>
</a>
</g>
</g>
<!-- Node1&#45;&gt;Node4 -->
<g id="edge5" class="edge">
<title>Node1&#45;&gt;Node4</title>
<path fill="none" stroke="#191970" d="M492.8133,-282.9076C413.1982,-272.1901 263.0506,-251.978 182.9736,-241.1984"/>
<polygon fill="#191970" stroke="#191970" points="183.0018,-237.6707 172.6242,-239.8052 182.0679,-244.6081 183.0018,-237.6707"/>
</g>
<!-- Node11 -->
<g id="node12" class="node">
<title>Node11</title>
<g id="a_node12"><a xlink:href="Rectangle_8hxx.html" target="_top" xlink:title="Rectangle.hxx">
<polygon fill="none" stroke="#000000" points="347.5,-224.5 347.5,-243.5 433.5,-243.5 433.5,-224.5 347.5,-224.5"/>
<text text-anchor="middle" x="390.5" y="-231.5" font-family="Helvetica,sans-Serif" font-size="10.00" fill="#000000">Rectangle.hxx</text>
</a>
</g>
</g>
<!-- Node1&#45;&gt;Node11 -->
<g id="edge12" class="edge">
<title>Node1&#45;&gt;Node11</title>
<path fill="none" stroke="#191970" d="M518.8546,-280.3733C493.3036,-271.1419 454.5488,-257.1402 426.3091,-246.9375"/>
<polygon fill="#191970" stroke="#191970" points="427.3921,-243.6074 416.7978,-243.5011 425.0135,-250.1909 427.3921,-243.6074"/>
</g>
<!-- Node3&#45;&gt;Node2 -->
<g id="edge4" class="edge">
<title>Node3&#45;&gt;Node2</title>
<path fill="none" stroke="#191970" d="M605.6742,-224.2455C605.8047,-216.9382 605.9876,-206.6944 606.1481,-197.7046"/>
<polygon fill="#191970" stroke="#191970" points="609.6486,-197.7036 606.3278,-187.6427 602.6497,-197.5786 609.6486,-197.7036"/>
</g>
<!-- Node5 -->
<g id="node6" class="node">
<title>Node5</title>
<g id="a_node6"><a xlink:href="Meta_8hxx.html" target="_top" xlink:title="../util/Meta.hxx">
<polygon fill="none" stroke="#000000" points="196,-56.5 196,-75.5 285,-75.5 285,-56.5 196,-56.5"/>
<text text-anchor="middle" x="240.5" y="-63.5" font-family="Helvetica,sans-Serif" font-size="10.00" fill="#000000">../util/Meta.hxx</text>
</a>
</g>
</g>
<!-- Node4&#45;&gt;Node5 -->
<g id="edge6" class="edge">
<title>Node4&#45;&gt;Node5</title>
<path fill="none" stroke="#191970" d="M135.7859,-224.4862C153.6362,-197.4695 204.8607,-119.9405 228.4022,-84.3102"/>
<polygon fill="#191970" stroke="#191970" points="231.4141,-86.1007 234.0066,-75.8279 225.5738,-82.2418 231.4141,-86.1007"/>
</g>
<!-- Node10 -->
<g id="node11" class="node">
<title>Node10</title>
<g id="a_node11"><a xlink:href="BoxSizing_8inl_8hxx.html" target="_top" xlink:title="BoxSizing.inl.hxx">
<polygon fill="none" stroke="#000000" points="0,-168.5 0,-187.5 101,-187.5 101,-168.5 0,-168.5"/>
<text text-anchor="middle" x="50.5" y="-175.5" font-family="Helvetica,sans-Serif" font-size="10.00" fill="#000000">BoxSizing.inl.hxx</text>
</a>
</g>
</g>
<!-- Node4&#45;&gt;Node10 -->
<g id="edge11" class="edge">
<title>Node4&#45;&gt;Node10</title>
<path fill="none" stroke="#191970" d="M115.7393,-224.2455C103.8448,-215.814 86.435,-203.4729 72.5915,-193.6598"/>
<polygon fill="#191970" stroke="#191970" points="74.2854,-190.5704 64.1031,-187.6427 70.2372,-196.2811 74.2854,-190.5704"/>
</g>
<!-- Node6 -->
<g id="node7" class="node">
<title>Node6</title>
<polygon fill="none" stroke="#bfbfbf" points="362.5,-.5 362.5,-19.5 422.5,-19.5 422.5,-.5 362.5,-.5"/>
<text text-anchor="middle" x="392.5" y="-7.5" font-family="Helvetica,sans-Serif" font-size="10.00" fill="#000000">iostream</text>
</g>
<!-- Node5&#45;&gt;Node6 -->
<g id="edge7" class="edge">
<title>Node5&#45;&gt;Node6</title>
<path fill="none" stroke="#191970" d="M266.6297,-56.3733C291.5768,-47.1822 329.3592,-33.2624 357.0206,-23.0713"/>
<polygon fill="#191970" stroke="#191970" points="358.5378,-26.2424 366.7112,-19.5011 356.1178,-19.674 358.5378,-26.2424"/>
</g>
<!-- Node7 -->
<g id="node8" class="node">
<title>Node7</title>
<polygon fill="none" stroke="#bfbfbf" points="275,-.5 275,-19.5 344,-19.5 344,-.5 275,-.5"/>
<text text-anchor="middle" x="309.5" y="-7.5" font-family="Helvetica,sans-Serif" font-size="10.00" fill="#000000">type_traits</text>
</g>
<!-- Node5&#45;&gt;Node7 -->
<g id="edge8" class="edge">
<title>Node5&#45;&gt;Node7</title>
<path fill="none" stroke="#191970" d="M252.5189,-56.2455C262.7098,-47.9746 277.5362,-35.9416 289.5107,-26.2232"/>
<polygon fill="#191970" stroke="#191970" points="292.0598,-28.662 297.6188,-19.6427 287.6486,-23.2268 292.0598,-28.662"/>
</g>
<!-- Node8 -->
<g id="node9" class="node">
<title>Node8</title>
<polygon fill="none" stroke="#bfbfbf" points="206,-.5 206,-19.5 257,-19.5 257,-.5 206,-.5"/>
<text text-anchor="middle" x="231.5" y="-7.5" font-family="Helvetica,sans-Serif" font-size="10.00" fill="#000000">variant</text>
</g>
<!-- Node5&#45;&gt;Node8 -->
<g id="edge9" class="edge">
<title>Node5&#45;&gt;Node8</title>
<path fill="none" stroke="#191970" d="M238.9323,-56.2455C237.7579,-48.9382 236.1116,-38.6944 234.6668,-29.7046"/>
<polygon fill="#191970" stroke="#191970" points="238.0922,-28.9606 233.0497,-19.6427 231.1809,-30.0714 238.0922,-28.9606"/>
</g>
<!-- Node9 -->
<g id="node10" class="node">
<title>Node9</title>
<polygon fill="none" stroke="#bfbfbf" points="147,-.5 147,-19.5 188,-19.5 188,-.5 147,-.5"/>
<text text-anchor="middle" x="167.5" y="-7.5" font-family="Helvetica,sans-Serif" font-size="10.00" fill="#000000">tuple</text>
</g>
<!-- Node5&#45;&gt;Node9 -->
<g id="edge10" class="edge">
<title>Node5&#45;&gt;Node9</title>
<path fill="none" stroke="#191970" d="M227.7844,-56.2455C216.898,-47.8943 201.0117,-35.7076 188.28,-25.9408"/>
<polygon fill="#191970" stroke="#191970" points="190.1346,-22.9523 180.0699,-19.6427 185.8739,-28.5063 190.1346,-22.9523"/>
</g>
<!-- Node11&#45;&gt;Node6 -->
<g id="edge14" class="edge">
<title>Node11&#45;&gt;Node6</title>
<path fill="none" stroke="#191970" d="M370.6759,-224.3695C357.1785,-216.6136 340.3843,-204.3161 332.5,-188 306.9748,-135.1773 306.5415,-108.6111 332.5,-56 338.9793,-42.8681 351.2062,-32.4457 362.9407,-24.8651"/>
<polygon fill="#191970" stroke="#191970" points="364.9244,-27.7572 371.7148,-19.6244 361.3348,-21.7475 364.9244,-27.7572"/>
</g>
<!-- Node11&#45;&gt;Node9 -->
<g id="edge13" class="edge">
<title>Node11&#45;&gt;Node9</title>
<path fill="none" stroke="#191970" d="M370.6641,-224.4738C329.5098,-203.6465 234.6745,-149.9413 186.5,-76 177.358,-61.9682 172.5282,-43.4666 170.0307,-29.6236"/>
<polygon fill="#191970" stroke="#191970" points="173.4821,-29.04 168.49,-19.6949 166.5649,-30.1134 173.4821,-29.04"/>
</g>
<!-- Node12 -->
<g id="node13" class="node">
<title>Node12</title>
<g id="a_node13"><a xlink:href="iShape_8hxx.html" target="_top" xlink:title="../util/iShape.hxx">
<polygon fill="none" stroke="#000000" points="341.5,-168.5 341.5,-187.5 439.5,-187.5 439.5,-168.5 341.5,-168.5"/>
<text text-anchor="middle" x="390.5" y="-175.5" font-family="Helvetica,sans-Serif" font-size="10.00" fill="#000000">../util/iShape.hxx</text>
</a>
</g>
</g>
<!-- Node11&#45;&gt;Node12 -->
<g id="edge15" class="edge">
<title>Node11&#45;&gt;Node12</title>
<path fill="none" stroke="#191970" d="M390.5,-224.2455C390.5,-216.9382 390.5,-206.6944 390.5,-197.7046"/>
<polygon fill="#191970" stroke="#191970" points="394.0001,-197.6426 390.5,-187.6427 387.0001,-197.6427 394.0001,-197.6426"/>
</g>
<!-- Node13 -->
<g id="node14" class="node">
<title>Node13</title>
<g id="a_node14"><a xlink:href="Rectangle_8inl_8hxx.html" target="_top" xlink:title="Rectangle.inl.hxx">
<polygon fill="none" stroke="#000000" points="458,-168.5 458,-187.5 559,-187.5 559,-168.5 458,-168.5"/>
<text text-anchor="middle" x="508.5" y="-175.5" font-family="Helvetica,sans-Serif" font-size="10.00" fill="#000000">Rectangle.inl.hxx</text>
</a>
</g>
</g>
<!-- Node11&#45;&gt;Node13 -->
<g id="edge16" class="edge">
<title>Node11&#45;&gt;Node13</title>
<path fill="none" stroke="#191970" d="M410.7849,-224.3733C429.6421,-215.4241 457.946,-201.9917 479.2455,-191.8835"/>
<polygon fill="#191970" stroke="#191970" points="480.9461,-194.9506 488.4798,-187.5011 477.9449,-188.6266 480.9461,-194.9506"/>
</g>
<!-- Node14 -->
<g id="node15" class="node">
<title>Node14</title>
<polygon fill="none" stroke="#bfbfbf" points="341.5,-56.5 341.5,-75.5 405.5,-75.5 405.5,-56.5 341.5,-56.5"/>
<text text-anchor="middle" x="373.5" y="-63.5" font-family="Helvetica,sans-Serif" font-size="10.00" fill="#000000">algorithm</text>
</g>
<!-- Node13&#45;&gt;Node14 -->
<g id="edge17" class="edge">
<title>Node13&#45;&gt;Node14</title>
<path fill="none" stroke="#191970" d="M496.99,-168.4509C473.8758,-149.2747 421.5892,-105.8962 393.0254,-82.1988"/>
<polygon fill="#191970" stroke="#191970" points="394.9119,-79.2162 384.9809,-75.5249 390.4424,-84.6036 394.9119,-79.2162"/>
</g>
<!-- Node13&#45;&gt;Node15 -->
<g id="edge18" class="edge">
<title>Node13&#45;&gt;Node15</title>
<path fill="none" stroke="#191970" d="M534.8016,-168.3733C559.9128,-159.1822 597.9438,-145.2624 625.7872,-135.0713"/>
<polygon fill="#191970" stroke="#191970" points="627.3538,-138.2251 635.5416,-131.5011 624.9478,-131.6516 627.3538,-138.2251"/>
</g>
<!-- Node15&#45;&gt;Node5 -->
<g id="edge31" class="edge">
<title>Node15&#45;&gt;Node5</title>
<path fill="none" stroke="#191970" d="M632.2303,-118.1066C562.4745,-108.828 385.5361,-85.2922 295.2741,-73.2859"/>
<polygon fill="#191970" stroke="#191970" points="295.6097,-69.7998 285.2355,-71.9506 294.6866,-76.7386 295.6097,-69.7998"/>
</g>
<!-- Node15&#45;&gt;Node6 -->
<g id="edge23" class="edge">
<title>Node15&#45;&gt;Node6</title>
<path fill="none" stroke="#191970" d="M671.9748,-112.0625C685.3166,-98.214 705.0016,-72.9118 690.5,-56 673.9223,-36.667 510.3569,-20.146 432.8468,-13.333"/>
<polygon fill="#191970" stroke="#191970" points="432.77,-9.8133 422.5052,-12.4368 432.1656,-16.7872 432.77,-9.8133"/>
</g>
<!-- Node15&#45;&gt;Node14 -->
<g id="edge29" class="edge">
<title>Node15&#45;&gt;Node14</title>
<path fill="none" stroke="#191970" d="M632.4967,-117.1323C588.0006,-109.5491 500.0044,-94.0984 415.6857,-76.1697"/>
<polygon fill="#191970" stroke="#191970" points="416.2017,-72.7009 405.6904,-74.0288 414.7355,-79.5457 416.2017,-72.7009"/>
</g>
<!-- Node16 -->
<g id="node17" class="node">
<title>Node16</title>
<polygon fill="none" stroke="#bfbfbf" points="829.5,-56.5 829.5,-75.5 873.5,-75.5 873.5,-56.5 829.5,-56.5"/>
<text text-anchor="middle" x="851.5" y="-63.5" font-family="Helvetica,sans-Serif" font-size="10.00" fill="#000000">string</text>
</g>
<!-- Node15&#45;&gt;Node16 -->
<g id="edge19" class="edge">
<title>Node15&#45;&gt;Node16</title>
<path fill="none" stroke="#191970" d="M690.6712,-113.6922C722.4167,-104.6081 774.6442,-89.5369 819.5,-76 819.601,-75.9695 819.7022,-75.939 819.8035,-75.9084"/>
<polygon fill="#191970" stroke="#191970" points="820.9477,-79.2185 829.4835,-72.9423 818.8969,-72.5256 820.9477,-79.2185"/>
</g>
<!-- Node15&#45;&gt;Node17 -->
<g id="edge20" class="edge">
<title>Node15&#45;&gt;Node17</title>
<path fill="none" stroke="#191970" d="M690.7081,-118.7695C749.4178,-112.1479 886.1213,-96.086 1011.265,-76.1231"/>
<polygon fill="#191970" stroke="#191970" points="1012.0873,-79.5359 1021.4049,-74.4928 1010.9761,-72.6247 1012.0873,-79.5359"/>
</g>
<!-- Node20 -->
<g id="node21" class="node">
<title>Node20</title>
<polygon fill="none" stroke="#bfbfbf" points="891.5,-56.5 891.5,-75.5 941.5,-75.5 941.5,-56.5 891.5,-56.5"/>
<text text-anchor="middle" x="916.5" y="-63.5" font-family="Helvetica,sans-Serif" font-size="10.00" fill="#000000">chrono</text>
</g>
<!-- Node15&#45;&gt;Node20 -->
<g id="edge24" class="edge">
<title>Node15&#45;&gt;Node20</title>
<path fill="none" stroke="#191970" d="M690.6302,-116.7145C731.2425,-109.1776 807.3584,-94.4438 881.3598,-76.1413"/>
<polygon fill="#191970" stroke="#191970" points="882.4579,-79.4746 891.3111,-73.6548 880.7609,-72.6834 882.4579,-79.4746"/>
</g>
<!-- Node21 -->
<g id="node22" class="node">
<title>Node21</title>
<polygon fill="none" stroke="#bfbfbf" points="959.5,-56.5 959.5,-75.5 1003.5,-75.5 1003.5,-56.5 959.5,-56.5"/>
<text text-anchor="middle" x="981.5" y="-63.5" font-family="Helvetica,sans-Serif" font-size="10.00" fill="#000000">ctime</text>
</g>
<!-- Node15&#45;&gt;Node21 -->
<g id="edge25" class="edge">
<title>Node15&#45;&gt;Node21</title>
<path fill="none" stroke="#191970" d="M690.503,-118.8848C741.2122,-113.1174 849.356,-99.3938 949.31,-75.9955"/>
<polygon fill="#191970" stroke="#191970" points="950.3479,-79.3463 959.2656,-73.6258 948.7269,-72.5365 950.3479,-79.3463"/>
</g>
<!-- Node22 -->
<g id="node23" class="node">
<title>Node22</title>
<polygon fill="none" stroke="#bfbfbf" points="424,-56.5 424,-75.5 479,-75.5 479,-56.5 424,-56.5"/>
<text text-anchor="middle" x="451.5" y="-63.5" font-family="Helvetica,sans-Serif" font-size="10.00" fill="#000000">fstream</text>
</g>
<!-- Node15&#45;&gt;Node22 -->
<g id="edge26" class="edge">
<title>Node15&#45;&gt;Node22</title>
<path fill="none" stroke="#191970" d="M632.4111,-114.3041C599.9063,-105.696 545.4546,-91.2507 489.1615,-76.1701"/>
<polygon fill="#191970" stroke="#191970" points="489.9423,-72.7559 479.377,-73.5474 488.1299,-79.5172 489.9423,-72.7559"/>
</g>
<!-- Node23 -->
<g id="node24" class="node">
<title>Node23</title>
<polygon fill="none" stroke="#bfbfbf" points="497.5,-56.5 497.5,-75.5 553.5,-75.5 553.5,-56.5 497.5,-56.5"/>
<text text-anchor="middle" x="525.5" y="-63.5" font-family="Helvetica,sans-Serif" font-size="10.00" fill="#000000">sstream</text>
</g>
<!-- Node15&#45;&gt;Node23 -->
<g id="edge27" class="edge">
<title>Node15&#45;&gt;Node23</title>
<path fill="none" stroke="#191970" d="M638.1208,-112.3733C615.9955,-103.2629 582.5866,-89.5062 557.8981,-79.3404"/>
<polygon fill="#191970" stroke="#191970" points="559.1536,-76.0723 548.5742,-75.5011 556.4883,-82.5451 559.1536,-76.0723"/>
</g>
<!-- Node24 -->
<g id="node25" class="node">
<title>Node24</title>
<polygon fill="none" stroke="#bfbfbf" points="571.5,-56.5 571.5,-75.5 615.5,-75.5 615.5,-56.5 571.5,-56.5"/>
<text text-anchor="middle" x="593.5" y="-63.5" font-family="Helvetica,sans-Serif" font-size="10.00" fill="#000000">SDL.h</text>
</g>
<!-- Node15&#45;&gt;Node24 -->
<g id="edge28" class="edge">
<title>Node15&#45;&gt;Node24</title>
<path fill="none" stroke="#191970" d="M649.6553,-112.2455C639.612,-103.9746 625.0005,-91.9416 613.1996,-82.2232"/>
<polygon fill="#191970" stroke="#191970" points="615.1533,-79.298 605.209,-75.6427 610.7033,-84.7015 615.1533,-79.298"/>
</g>
<!-- Node25 -->
<g id="node26" class="node">
<title>Node25</title>
<polygon fill="none" stroke="#bfbfbf" points="633.5,-56.5 633.5,-75.5 681.5,-75.5 681.5,-56.5 633.5,-56.5"/>
<text text-anchor="middle" x="657.5" y="-63.5" font-family="Helvetica,sans-Serif" font-size="10.00" fill="#000000">mutex</text>
</g>
<!-- Node15&#45;&gt;Node25 -->
<g id="edge30" class="edge">
<title>Node15&#45;&gt;Node25</title>
<path fill="none" stroke="#191970" d="M660.8033,-112.2455C660.2813,-104.9382 659.5496,-94.6944 658.9075,-85.7046"/>
<polygon fill="#191970" stroke="#191970" points="662.3924,-85.3679 658.1888,-75.6427 655.4102,-85.8667 662.3924,-85.3679"/>
</g>
<!-- Node26 -->
<g id="node27" class="node">
<title>Node26</title>
<g id="a_node27"><a xlink:href="LOG_8inl_8hxx.html" target="_top" xlink:title="LOG.inl.hxx">
<polygon fill="none" stroke="#000000" points="738,-56.5 738,-75.5 811,-75.5 811,-56.5 738,-56.5"/>
<text text-anchor="middle" x="774.5" y="-63.5" font-family="Helvetica,sans-Serif" font-size="10.00" fill="#000000">LOG.inl.hxx</text>
</a>
</g>
</g>
<!-- Node15&#45;&gt;Node26 -->
<g id="edge32" class="edge">
<title>Node15&#45;&gt;Node26</title>
<path fill="none" stroke="#191970" d="M680.9254,-112.3733C698.9021,-103.4644 725.8441,-90.1127 746.209,-80.0203"/>
<polygon fill="#191970" stroke="#191970" points="747.9222,-83.0776 755.3281,-75.5011 744.8139,-76.8055 747.9222,-83.0776"/>
</g>
<!-- Node18 -->
<g id="node19" class="node">
<title>Node18</title>
<polygon fill="none" stroke="#bfbfbf" points="990,-.5 990,-19.5 1055,-19.5 1055,-.5 990,-.5"/>
<text text-anchor="middle" x="1022.5" y="-7.5" font-family="Helvetica,sans-Serif" font-size="10.00" fill="#000000">stdexcept</text>
</g>
<!-- Node17&#45;&gt;Node18 -->
<g id="edge21" class="edge">
<title>Node17&#45;&gt;Node18</title>
<path fill="none" stroke="#191970" d="M1057.1842,-56.2455C1051.2821,-48.3761 1042.8258,-37.101 1035.7406,-27.6542"/>
<polygon fill="#191970" stroke="#191970" points="1038.5321,-25.5427 1029.732,-19.6427 1032.932,-29.7427 1038.5321,-25.5427"/>
</g>
<!-- Node19 -->
<g id="node20" class="node">
<title>Node19</title>
<polygon fill="none" stroke="#bfbfbf" points="1073,-.5 1073,-19.5 1138,-19.5 1138,-.5 1073,-.5"/>
<text text-anchor="middle" x="1105.5" y="-7.5" font-family="Helvetica,sans-Serif" font-size="10.00" fill="#000000">exception</text>
</g>
<!-- Node17&#45;&gt;Node19 -->
<g id="edge22" class="edge">
<title>Node17&#45;&gt;Node19</title>
<path fill="none" stroke="#191970" d="M1071.6417,-56.2455C1077.3444,-48.4564 1085.49,-37.3308 1092.3625,-27.9439"/>
<polygon fill="#191970" stroke="#191970" points="1095.3568,-29.7789 1098.4402,-19.6427 1089.7087,-25.6437 1095.3568,-29.7789"/>
</g>
</g>
</svg>
        <g id="navigator" transform="translate(0 0)" fill="#404254">
                <rect fill="#f2f5e9" fill-opacity="0.5" stroke="#606060" stroke-width=".5" x="0" y="0" width="60" height="60"/>
                <use id="zoomplus" xlink:href="#zoomPlus" x="17" y="9" onmousedown="handleZoom(evt,'in')"/>
                <use id="zoomminus" xlink:href="#zoomMin" x="42" y="9" onmousedown="handleZoom(evt,'out')"/>
                <use id="reset" xlink:href="#resetDef" x="30" y="36" onmousedown="handleReset()"/>
                <g id="arrowUp" xlink:href="#dirArrow" transform="translate(30 24)" onmousedown="handlePan(0,-1)">
                  <use xlink:href="#rim" fill="#404040">
                        <set attributeName="fill" to="#808080" begin="arrowUp.mouseover" end="arrowUp.mouseout"/>
                  </use>
                  <path fill="none" stroke="white" stroke-width="1.5" d="M0,-3.0v7 M-2.5,-0.5L0,-3.0L2.5,-0.5"/>
                </g>
                <g id="arrowRight" xlink:href="#dirArrow" transform="rotate(90) translate(36 -43)" onmousedown="handlePan(1,0)">
                  <use xlink:href="#rim" fill="#404040">
                        <set attributeName="fill" to="#808080" begin="arrowRight.mouseover" end="arrowRight.mouseout"/>
                  </use>
                  <path fill="none" stroke="white" stroke-width="1.5" d="M0,-3.0v7 M-2.5,-0.5L0,-3.0L2.5,-0.5"/>
                </g>
                <g id="arrowDown" xlink:href="#dirArrow" transform="rotate(180) translate(-30 -48)" onmousedown="handlePan(0,1)">
                  <use xlink:href="#rim" fill="#404040">
                        <set attributeName="fill" to="#808080" begin="arrowDown.mouseover" end="arrowDown.mouseout"/>
                  </use>
                  <path fill="none" stroke="white" stroke-width="1.5" d="M0,-3.0v7 M-2.5,-0.5L0,-3.0L2.5,-0.5"/>
                </g>
                <g id="arrowLeft" xlink:href="#dirArrow" transform="rotate(270) translate(-36 17)" onmousedown="handlePan(-1,0)">
                  <use xlink:href="#rim" fill="#404040">
                        <set attributeName="fill" to="#808080" begin="arrowLeft.mouseover" end="arrowLeft.mouseout"/>
                  </use>
                  <path fill="none" stroke="white" stroke-width="1.5" d="M0,-3.0v7 M-2.5,-0.5L0,-3.0L2.5,-0.5"/>
                </g>
        </g>
        <svg viewBox="0 0 15 15" width="100%" height="30px" preserveAspectRatio="xMaxYMin meet">
         <g id="arrow_out" transform="scale(0.3 0.3)">
          <a xlink:href="iViewElement_8cxx__incl_org.svg" target="_base">
           <rect id="button" ry="5" rx="5" y="6" x="6" height="38" width="38"
                fill="#f2f5e9" fill-opacity="0.5" stroke="#606060" stroke-width="1.0"/>
           <path id="arrow"
             d="M 11.500037,31.436501 C 11.940474,20.09759 22.043105,11.32322 32.158766,21.979434 L 37.068811,17.246167 C 37.068811,17.246167 37.088388,32 37.088388,32 L 22.160133,31.978069 C 22.160133,31.978069 26.997745,27.140456 26.997745,27.140456 C 18.528582,18.264221 13.291696,25.230495 11.500037,31.436501 z"
             style="fill:#404040;"/>
          </a>
         </g>
        </svg>
</svg>
