<?xml version="1.0" encoding="UTF-8" standalone="no"?>
<!DOCTYPE svg PUBLIC "-//W3C//DTD SVG 1.1//EN"
 "http://www.w3.org/Graphics/SVG/1.1/DTD/svg11.dtd">
<!-- Generated by graphviz version 2.40.1 (20161225.0304)
 -->
<!-- Title: src/engine/common/JsonSerialization.hxx Pages: 1 -->
<!--zoomable 364 -->
<svg id="main" version="1.1" xmlns="http://www.w3.org/2000/svg" xmlns:xlink="http://www.w3.org/1999/xlink" xml:space="preserve" onload="init(evt)">
<style type="text/css"><![CDATA[
.edge:hover path { stroke: red; }
.edge:hover polygon { stroke: red; fill: red; }
]]></style>
<script type="text/javascript"><![CDATA[
var edges = document.getElementsByTagName('g');
if (edges && edges.length) {
  for (var i=0;i<edges.length;i++) {
    if (edges[i].id.substr(0,4)=='edge') {
      edges[i].setAttribute('class','edge');
    }
  }
}
]]></script>
        <defs>
                <circle id="rim" cx="0" cy="0" r="7"/>
                <circle id="rim2" cx="0" cy="0" r="3.5"/>
                <g id="zoomPlus">
                        <use xlink:href="#rim" fill="#404040">
                                <set attributeName="fill" to="#808080" begin="zoomplus.mouseover" end="zoomplus.mouseout"/>
                        </use>
                        <path d="M-4,0h8M0,-4v8" fill="none" stroke="white" stroke-width="1.5" pointer-events="none"/>
                </g>
                <g id="zoomMin">
                        <use xlink:href="#rim" fill="#404040">
                                <set attributeName="fill" to="#808080" begin="zoomminus.mouseover" end="zoomminus.mouseout"/>
                        </use>
                        <path d="M-4,0h8" fill="none" stroke="white" stroke-width="1.5" pointer-events="none"/>
                </g>
                <g id="dirArrow">
                        <path fill="none" stroke="white" stroke-width="1.5" d="M0,-3.0v7 M-2.5,-0.5L0,-3.0L2.5,-0.5"/>
                </g>
               <g id="resetDef">
                       <use xlink:href="#rim2" fill="#404040">
                               <set attributeName="fill" to="#808080" begin="reset.mouseover" end="reset.mouseout"/>
                       </use>
               </g>
        </defs>

<script type="text/javascript">
var viewWidth = 1355;
var viewHeight = 364;
var sectionId = 'dynsection-0';
</script>
<script xlink:href="svgpan.js"/>
<svg id="graph" class="graph">
<g id="viewport">
<title>src/engine/common/JsonSerialization.hxx</title>
<!-- Node0 -->
<g id="node1" class="node">
<title>Node0</title>
<polygon fill="#bfbfbf" stroke="#000000" points="308.323,-336.5 308.323,-355.5 526.323,-355.5 526.323,-336.5 308.323,-336.5"/>
<text text-anchor="middle" x="417.323" y="-343.5" font-family="Helvetica,sans-Serif" font-size="10.00" fill="#000000">src/engine/common/JsonSerialization.hxx</text>
</g>
<!-- Node1 -->
<g id="node2" class="node">
<title>Node1</title>
<polygon fill="none" stroke="#bfbfbf" points="13.323,-112.5 13.323,-131.5 71.323,-131.5 71.323,-112.5 13.323,-112.5"/>
<text text-anchor="middle" x="42.323" y="-119.5" font-family="Helvetica,sans-Serif" font-size="10.00" fill="#000000">json.hxx</text>
</g>
<!-- Node0&#45;&gt;Node1 -->
<g id="edge1" class="edge">
<title>Node0&#45;&gt;Node1</title>
<path fill="none" stroke="#191970" d="M333.9959,-336.46C275.4631,-328.5663 203.1836,-316.0569 177.323,-300 113.1701,-260.1674 68.5129,-177.9666 50.8036,-140.8814"/>
<polygon fill="#191970" stroke="#191970" points="53.9199,-139.2821 46.5295,-131.6905 47.5727,-142.2339 53.9199,-139.2821"/>
</g>
<!-- Node2 -->
<g id="node3" class="node">
<title>Node2</title>
<polygon fill="none" stroke="#bfbfbf" points="89.823,-112.5 89.823,-131.5 182.823,-131.5 182.823,-112.5 89.823,-112.5"/>
<text text-anchor="middle" x="136.323" y="-119.5" font-family="Helvetica,sans-Serif" font-size="10.00" fill="#000000">unordered_map</text>
</g>
<!-- Node0&#45;&gt;Node2 -->
<g id="edge2" class="edge">
<title>Node0&#45;&gt;Node2</title>
<path fill="none" stroke="#191970" d="M328.9867,-336.4882C276.7216,-329.1853 216.9927,-317.3697 197.323,-300 150.2787,-258.4567 139.4896,-179.0135 137.0344,-141.9558"/>
<polygon fill="#191970" stroke="#191970" points="140.5263,-141.7085 136.5091,-131.9048 133.5359,-142.0739 140.5263,-141.7085"/>
</g>
<!-- Node3 -->
<g id="node4" class="node">
<title>Node3</title>
<polygon fill="none" stroke="#bfbfbf" points="206.323,-280.5 206.323,-299.5 248.323,-299.5 248.323,-280.5 206.323,-280.5"/>
<text text-anchor="middle" x="227.323" y="-287.5" font-family="Helvetica,sans-Serif" font-size="10.00" fill="#000000">array</text>
</g>
<!-- Node0&#45;&gt;Node3 -->
<g id="edge3" class="edge">
<title>Node0&#45;&gt;Node3</title>
<path fill="none" stroke="#191970" d="M384.6608,-336.3733C349.1236,-325.8991 292.7496,-309.2836 258.0086,-299.0442"/>
<polygon fill="#191970" stroke="#191970" points="258.9753,-295.6803 248.3937,-296.2103 256.9962,-302.3947 258.9753,-295.6803"/>
</g>
<!-- Node4 -->
<g id="node5" class="node">
<title>Node4</title>
<g id="a_node5"><a xlink:href="point_8hxx.html" target="_top" xlink:title="point.hxx">
<polygon fill="none" stroke="#000000" points="201.323,-112.5 201.323,-131.5 263.323,-131.5 263.323,-112.5 201.323,-112.5"/>
<text text-anchor="middle" x="232.323" y="-119.5" font-family="Helvetica,sans-Serif" font-size="10.00" fill="#000000">point.hxx</text>
</a>
</g>
</g>
<!-- Node0&#45;&gt;Node4 -->
<g id="edge4" class="edge">
<title>Node0&#45;&gt;Node4</title>
<path fill="none" stroke="#191970" d="M409.3738,-336.375C380.9099,-301.9107 283.8055,-184.3356 246.8035,-139.5331"/>
<polygon fill="#191970" stroke="#191970" points="249.3092,-137.0707 240.2426,-131.5891 243.9119,-141.5283 249.3092,-137.0707"/>
</g>
<!-- Node5 -->
<g id="node6" class="node">
<title>Node5</title>
<g id="a_node6"><a xlink:href="MapNode_8hxx.html" target="_top" xlink:title="GameObjects/MapNode.hxx">
<polygon fill="none" stroke="#000000" points="447.323,-224.5 447.323,-243.5 599.323,-243.5 599.323,-224.5 447.323,-224.5"/>
<text text-anchor="middle" x="523.323" y="-231.5" font-family="Helvetica,sans-Serif" font-size="10.00" fill="#000000">GameObjects/MapNode.hxx</text>
</a>
</g>
</g>
<!-- Node0&#45;&gt;Node5 -->
<g id="edge5" class="edge">
<title>Node0&#45;&gt;Node5</title>
<path fill="none" stroke="#191970" d="M426.3605,-336.4509C444.353,-317.4401 484.8579,-274.6423 507.4078,-250.816"/>
<polygon fill="#191970" stroke="#191970" points="509.9765,-253.1937 514.3084,-243.5249 504.8925,-248.382 509.9765,-253.1937"/>
</g>
<!-- Node19 -->
<g id="node20" class="node">
<title>Node19</title>
<g id="a_node20"><a xlink:href="TerrainGenerator_8hxx.html" target="_top" xlink:title="TerrainGenerator.hxx">
<polygon fill="none" stroke="#000000" points="655.823,-280.5 655.823,-299.5 774.823,-299.5 774.823,-280.5 655.823,-280.5"/>
<text text-anchor="middle" x="715.323" y="-287.5" font-family="Helvetica,sans-Serif" font-size="10.00" fill="#000000">TerrainGenerator.hxx</text>
</a>
</g>
</g>
<!-- Node0&#45;&gt;Node19 -->
<g id="edge31" class="edge">
<title>Node0&#45;&gt;Node19</title>
<path fill="none" stroke="#191970" d="M468.2124,-336.4369C519.8557,-326.7321 599.8056,-311.708 654.6979,-301.3926"/>
<polygon fill="#191970" stroke="#191970" points="655.4619,-304.8104 664.6435,-299.5237 654.1691,-297.9308 655.4619,-304.8104"/>
</g>
<!-- Node21 -->
<g id="node22" class="node">
<title>Node21</title>
<g id="a_node22"><a xlink:href="Settings_8hxx.html" target="_top" xlink:title="Settings.hxx">
<polygon fill="none" stroke="#000000" points="919.823,-168.5 919.823,-187.5 996.823,-187.5 996.823,-168.5 919.823,-168.5"/>
<text text-anchor="middle" x="958.323" y="-175.5" font-family="Helvetica,sans-Serif" font-size="10.00" fill="#000000">Settings.hxx</text>
</a>
</g>
</g>
<!-- Node0&#45;&gt;Node21 -->
<g id="edge35" class="edge">
<title>Node0&#45;&gt;Node21</title>
<path fill="none" stroke="#191970" d="M434.3917,-336.3458C476.144,-313.1691 587.3304,-254.0814 687.323,-224 780.4568,-195.982 809.775,-205.584 909.6864,-188.0158"/>
<polygon fill="#191970" stroke="#191970" points="910.3615,-191.4506 919.5801,-186.2286 909.1172,-184.562 910.3615,-191.4506"/>
</g>
<!-- Node28 -->
<g id="node29" class="node">
<title>Node28</title>
<g id="a_node29"><a xlink:href="ZipRange_8hxx.html" target="_top" xlink:title="../../util/ZipRange.hxx">
<polygon fill="none" stroke="#000000" points="1101.823,-168.5 1101.823,-187.5 1222.823,-187.5 1222.823,-168.5 1101.823,-168.5"/>
<text text-anchor="middle" x="1162.323" y="-175.5" font-family="Helvetica,sans-Serif" font-size="10.00" fill="#000000">../../util/ZipRange.hxx</text>
</a>
</g>
</g>
<!-- Node0&#45;&gt;Node28 -->
<g id="edge45" class="edge">
<title>Node0&#45;&gt;Node28</title>
<path fill="none" stroke="#191970" d="M526.4869,-341.652C654.739,-333.5473 872.1238,-310.3518 1046.323,-244 1080.9592,-230.8072 1117.6011,-208.3327 1140.219,-193.3267"/>
<polygon fill="#191970" stroke="#191970" points="1142.3902,-196.0842 1148.7272,-187.5934 1138.4784,-190.2792 1142.3902,-196.0842"/>
</g>
<!-- Node5&#45;&gt;Node4 -->
<g id="edge19" class="edge">
<title>Node5&#45;&gt;Node4</title>
<path fill="none" stroke="#191970" d="M460.8502,-224.431C422.927,-217.2794 374.1307,-205.6476 333.323,-188 302.9793,-174.8776 271.661,-152.8495 252.1033,-137.8844"/>
<polygon fill="#191970" stroke="#191970" points="254.03,-134.9485 243.9906,-131.5629 249.7274,-140.4702 254.03,-134.9485"/>
</g>
<!-- Node6 -->
<g id="node7" class="node">
<title>Node6</title>
<polygon fill="none" stroke="#bfbfbf" points="558.323,-112.5 558.323,-131.5 602.323,-131.5 602.323,-112.5 558.323,-112.5"/>
<text text-anchor="middle" x="580.323" y="-119.5" font-family="Helvetica,sans-Serif" font-size="10.00" fill="#000000">SDL.h</text>
</g>
<!-- Node5&#45;&gt;Node6 -->
<g id="edge6" class="edge">
<title>Node5&#45;&gt;Node6</title>
<path fill="none" stroke="#191970" d="M528.1828,-224.4509C537.6056,-205.936 558.5108,-164.8591 570.7965,-140.7187"/>
<polygon fill="#191970" stroke="#191970" points="574.0591,-142.0246 575.4755,-131.5249 567.8205,-138.8496 574.0591,-142.0246"/>
</g>
<!-- Node7 -->
<g id="node8" class="node">
<title>Node7</title>
<polygon fill="none" stroke="#bfbfbf" points="843.323,-168.5 843.323,-187.5 901.323,-187.5 901.323,-168.5 843.323,-168.5"/>
<text text-anchor="middle" x="872.323" y="-175.5" font-family="Helvetica,sans-Serif" font-size="10.00" fill="#000000">memory</text>
</g>
<!-- Node5&#45;&gt;Node7 -->
<g id="edge7" class="edge">
<title>Node5&#45;&gt;Node7</title>
<path fill="none" stroke="#191970" d="M597.803,-224.485C659.9389,-216.1448 750.7006,-203.0272 829.323,-188 830.5934,-187.7572 831.8831,-187.5029 833.1842,-187.2398"/>
<polygon fill="#191970" stroke="#191970" points="834.1966,-190.6026 843.2452,-185.0913 832.7347,-183.7569 834.1966,-190.6026"/>
</g>
<!-- Node8 -->
<g id="node9" class="node">
<title>Node8</title>
<polygon fill="none" stroke="#bfbfbf" points="303.323,-56.5 303.323,-75.5 347.323,-75.5 347.323,-56.5 303.323,-56.5"/>
<text text-anchor="middle" x="325.323" y="-63.5" font-family="Helvetica,sans-Serif" font-size="10.00" fill="#000000">string</text>
</g>
<!-- Node5&#45;&gt;Node8 -->
<g id="edge8" class="edge">
<title>Node5&#45;&gt;Node8</title>
<path fill="none" stroke="#191970" d="M447.1273,-230.4992C316.7439,-222.7376 59.5237,-199.1053 4.323,-132 -1.3239,-125.1353 -1.4995,-118.7164 4.323,-112 23.0782,-90.3656 214.7295,-74.067 292.648,-68.2856"/>
<polygon fill="#191970" stroke="#191970" points="293.1394,-71.7592 302.8579,-67.5402 292.6296,-64.7778 293.1394,-71.7592"/>
</g>
<!-- Node9 -->
<g id="node10" class="node">
<title>Node9</title>
<polygon fill="none" stroke="#bfbfbf" points="342.323,-168.5 342.323,-187.5 406.323,-187.5 406.323,-168.5 342.323,-168.5"/>
<text text-anchor="middle" x="374.323" y="-175.5" font-family="Helvetica,sans-Serif" font-size="10.00" fill="#000000">algorithm</text>
</g>
<!-- Node5&#45;&gt;Node9 -->
<g id="edge9" class="edge">
<title>Node5&#45;&gt;Node9</title>
<path fill="none" stroke="#191970" d="M497.709,-224.3733C473.2543,-215.1822 436.2176,-201.2624 409.1021,-191.0713"/>
<polygon fill="#191970" stroke="#191970" points="410.1949,-187.7431 399.6028,-187.5011 407.7321,-194.2956 410.1949,-187.7431"/>
</g>
<!-- Node10 -->
<g id="node11" class="node">
<title>Node10</title>
<polygon fill="none" stroke="#bfbfbf" points="860.823,-56.5 860.823,-75.5 907.823,-75.5 907.823,-56.5 860.823,-56.5"/>
<text text-anchor="middle" x="884.323" y="-63.5" font-family="Helvetica,sans-Serif" font-size="10.00" fill="#000000">vector</text>
</g>
<!-- Node5&#45;&gt;Node10 -->
<g id="edge10" class="edge">
<title>Node5&#45;&gt;Node10</title>
<path fill="none" stroke="#191970" d="M599.7377,-224.5536C638.6511,-217.7938 685.9329,-206.5052 725.323,-188 783.5076,-160.6653 840.5267,-109.2386 867.755,-82.7338"/>
<polygon fill="#191970" stroke="#191970" points="870.2625,-85.1767 874.92,-75.6605 865.3446,-80.1952 870.2625,-85.1767"/>
</g>
<!-- Node11 -->
<g id="node12" class="node">
<title>Node11</title>
<g id="a_node12"><a xlink:href="Sprite_8hxx.html" target="_top" xlink:title="../Sprite.hxx">
<polygon fill="none" stroke="#000000" points="586.823,-168.5 586.823,-187.5 661.823,-187.5 661.823,-168.5 586.823,-168.5"/>
<text text-anchor="middle" x="624.323" y="-175.5" font-family="Helvetica,sans-Serif" font-size="10.00" fill="#000000">../Sprite.hxx</text>
</a>
</g>
</g>
<!-- Node5&#45;&gt;Node11 -->
<g id="edge11" class="edge">
<title>Node5&#45;&gt;Node11</title>
<path fill="none" stroke="#191970" d="M540.9159,-224.2455C556.702,-215.4928 580.0869,-202.527 598.0817,-192.5496"/>
<polygon fill="#191970" stroke="#191970" points="599.8833,-195.5528 606.9318,-187.6427 596.4889,-189.4308 599.8833,-195.5528"/>
</g>
<!-- Node12 -->
<g id="node13" class="node">
<title>Node12</title>
<g id="a_node13"><a xlink:href="enums_8hxx.html" target="_top" xlink:title="common/enums.hxx">
<polygon fill="none" stroke="#000000" points="572.323,-56.5 572.323,-75.5 688.323,-75.5 688.323,-56.5 572.323,-56.5"/>
<text text-anchor="middle" x="630.323" y="-63.5" font-family="Helvetica,sans-Serif" font-size="10.00" fill="#000000">common/enums.hxx</text>
</a>
</g>
</g>
<!-- Node5&#45;&gt;Node12 -->
<g id="edge18" class="edge">
<title>Node5&#45;&gt;Node12</title>
<path fill="none" stroke="#191970" d="M598.6508,-224.4965C653.2348,-212.9999 722.3355,-187.6749 751.323,-132 765.8683,-104.0635 733.4687,-87.4069 698.5534,-77.8161"/>
<polygon fill="#191970" stroke="#191970" points="699.2307,-74.3768 688.6758,-75.2949 697.4995,-81.1594 699.2307,-74.3768"/>
</g>
<!-- Node15 -->
<g id="node16" class="node">
<title>Node15</title>
<g id="a_node16"><a xlink:href="TileManager_8hxx.html" target="_top" xlink:title="../TileManager.hxx">
<polygon fill="none" stroke="#000000" points="424.323,-168.5 424.323,-187.5 530.323,-187.5 530.323,-168.5 424.323,-168.5"/>
<text text-anchor="middle" x="477.323" y="-175.5" font-family="Helvetica,sans-Serif" font-size="10.00" fill="#000000">../TileManager.hxx</text>
</a>
</g>
</g>
<!-- Node5&#45;&gt;Node15 -->
<g id="edge20" class="edge">
<title>Node5&#45;&gt;Node15</title>
<path fill="none" stroke="#191970" d="M515.3104,-224.2455C508.8463,-216.3761 499.5846,-205.101 491.8247,-195.6542"/>
<polygon fill="#191970" stroke="#191970" points="494.2958,-193.1484 485.2438,-187.6427 488.8867,-197.5916 494.2958,-193.1484"/>
</g>
<!-- Node11&#45;&gt;Node4 -->
<g id="edge14" class="edge">
<title>Node11&#45;&gt;Node4</title>
<path fill="none" stroke="#191970" d="M586.7364,-172.6305C513.0703,-162.1068 350.2311,-138.844 273.6521,-127.9042"/>
<polygon fill="#191970" stroke="#191970" points="273.8317,-124.3944 263.4372,-126.4449 272.8417,-131.324 273.8317,-124.3944"/>
</g>
<!-- Node11&#45;&gt;Node6 -->
<g id="edge12" class="edge">
<title>Node11&#45;&gt;Node6</title>
<path fill="none" stroke="#191970" d="M616.6588,-168.2455C610.4757,-160.3761 601.6167,-149.101 594.1942,-139.6542"/>
<polygon fill="#191970" stroke="#191970" points="596.8298,-137.3435 587.8994,-131.6427 591.3255,-141.6683 596.8298,-137.3435"/>
</g>
<!-- Node11&#45;&gt;Node10 -->
<g id="edge13" class="edge">
<title>Node11&#45;&gt;Node10</title>
<path fill="none" stroke="#191970" d="M653.69,-168.4176C679.6675,-159.6927 718.4412,-146.0603 751.323,-132 788.8967,-115.9335 830.9381,-94.4557 857.5048,-80.4299"/>
<polygon fill="#191970" stroke="#191970" points="859.3652,-83.4049 866.5555,-75.6234 856.082,-77.2226 859.3652,-83.4049"/>
</g>
<!-- Node11&#45;&gt;Node12 -->
<g id="edge15" class="edge">
<title>Node11&#45;&gt;Node12</title>
<path fill="none" stroke="#191970" d="M624.8346,-168.4509C625.8132,-150.184 627.9683,-109.9553 629.2678,-85.6976"/>
<polygon fill="#191970" stroke="#191970" points="632.7727,-85.6978 629.8127,-75.5249 625.7827,-85.3233 632.7727,-85.6978"/>
</g>
<!-- Node13 -->
<g id="node14" class="node">
<title>Node13</title>
<polygon fill="none" stroke="#bfbfbf" points="554.323,-.5 554.323,-19.5 610.323,-19.5 610.323,-.5 554.323,-.5"/>
<text text-anchor="middle" x="582.323" y="-7.5" font-family="Helvetica,sans-Serif" font-size="10.00" fill="#000000">stddef.h</text>
</g>
<!-- Node12&#45;&gt;Node13 -->
<g id="edge16" class="edge">
<title>Node12&#45;&gt;Node13</title>
<path fill="none" stroke="#191970" d="M621.962,-56.2455C615.148,-48.2958 605.3549,-36.8706 597.2078,-27.3656"/>
<polygon fill="#191970" stroke="#191970" points="599.7535,-24.9575 590.5882,-19.6427 594.4387,-29.513 599.7535,-24.9575"/>
</g>
<!-- Node14 -->
<g id="node15" class="node">
<title>Node14</title>
<polygon fill="none" stroke="#bfbfbf" points="628.323,-.5 628.323,-19.5 728.323,-19.5 728.323,-.5 628.323,-.5"/>
<text text-anchor="middle" x="678.323" y="-7.5" font-family="Helvetica,sans-Serif" font-size="10.00" fill="#000000">betterEnums.hxx</text>
</g>
<!-- Node12&#45;&gt;Node14 -->
<g id="edge17" class="edge">
<title>Node12&#45;&gt;Node14</title>
<path fill="none" stroke="#191970" d="M638.684,-56.2455C645.498,-48.2958 655.2911,-36.8706 663.4382,-27.3656"/>
<polygon fill="#191970" stroke="#191970" points="666.2073,-29.513 670.0579,-19.6427 660.8925,-24.9575 666.2073,-29.513"/>
</g>
<!-- Node15&#45;&gt;Node1 -->
<g id="edge28" class="edge">
<title>Node15&#45;&gt;Node1</title>
<path fill="none" stroke="#191970" d="M424.2505,-169.2507C421.2325,-168.8122 418.2406,-168.3918 415.323,-168 270.0975,-148.499 229.3306,-158.6703 81.5726,-132.0031"/>
<polygon fill="#191970" stroke="#191970" points="82.1499,-128.5507 71.6831,-130.1926 80.8893,-135.4362 82.1499,-128.5507"/>
</g>
<!-- Node15&#45;&gt;Node2 -->
<g id="edge22" class="edge">
<title>Node15&#45;&gt;Node2</title>
<path fill="none" stroke="#191970" d="M424.0446,-169.4064C352.2384,-157.8236 229.8583,-138.0802 193.049,-132.0575"/>
<polygon fill="#191970" stroke="#191970" points="193.5007,-128.5847 183.0637,-130.4067 192.3589,-135.491 193.5007,-128.5847"/>
</g>
<!-- Node15&#45;&gt;Node6 -->
<g id="edge21" class="edge">
<title>Node15&#45;&gt;Node6</title>
<path fill="none" stroke="#191970" d="M495.2642,-168.2455C511.363,-159.4928 535.2109,-146.527 553.5621,-136.5496"/>
<polygon fill="#191970" stroke="#191970" points="555.4737,-139.4942 562.5874,-131.6427 552.1301,-133.3444 555.4737,-139.4942"/>
</g>
<!-- Node15&#45;&gt;Node8 -->
<g id="edge23" class="edge">
<title>Node15&#45;&gt;Node8</title>
<path fill="none" stroke="#191970" d="M431.8693,-168.4356C385.0426,-158.1248 317.8403,-141.8679 310.323,-132 299.909,-118.3296 306.2894,-98.7382 313.6741,-84.4527"/>
<polygon fill="#191970" stroke="#191970" points="316.8386,-85.9688 318.753,-75.5483 310.7582,-82.5005 316.8386,-85.9688"/>
</g>
<!-- Node16 -->
<g id="node17" class="node">
<title>Node16</title>
<g id="a_node17"><a xlink:href="tileData_8hxx.html" target="_top" xlink:title="tileData.hxx">
<polygon fill="none" stroke="#000000" points="319.823,-112.5 319.823,-131.5 396.823,-131.5 396.823,-112.5 319.823,-112.5"/>
<text text-anchor="middle" x="358.323" y="-119.5" font-family="Helvetica,sans-Serif" font-size="10.00" fill="#000000">tileData.hxx</text>
</a>
</g>
</g>
<!-- Node15&#45;&gt;Node16 -->
<g id="edge24" class="edge">
<title>Node15&#45;&gt;Node16</title>
<path fill="none" stroke="#191970" d="M456.8662,-168.3733C437.8492,-159.4241 409.3055,-145.9917 387.8254,-135.8835"/>
<polygon fill="#191970" stroke="#191970" points="389.0514,-132.5923 378.5129,-131.5011 386.0708,-138.926 389.0514,-132.5923"/>
</g>
<!-- Node17 -->
<g id="node18" class="node">
<title>Node17</title>
<g id="a_node18"><a xlink:href="Singleton_8hxx.html" target="_top" xlink:title="Singleton.hxx">
<polygon fill="none" stroke="#000000" points="658.823,-112.5 658.823,-131.5 741.823,-131.5 741.823,-112.5 658.823,-112.5"/>
<text text-anchor="middle" x="700.323" y="-119.5" font-family="Helvetica,sans-Serif" font-size="10.00" fill="#000000">Singleton.hxx</text>
</a>
</g>
</g>
<!-- Node15&#45;&gt;Node17 -->
<g id="edge29" class="edge">
<title>Node15&#45;&gt;Node17</title>
<path fill="none" stroke="#191970" d="M515.4047,-168.4369C553.3289,-158.9133 611.6519,-144.2672 652.6356,-133.9753"/>
<polygon fill="#191970" stroke="#191970" points="653.552,-137.3539 662.3984,-131.5237 651.847,-130.5647 653.552,-137.3539"/>
</g>
<!-- Node18 -->
<g id="node19" class="node">
<title>Node18</title>
<polygon fill="none" stroke="#bfbfbf" points="414.823,-112.5 414.823,-131.5 539.823,-131.5 539.823,-112.5 414.823,-112.5"/>
<text text-anchor="middle" x="477.323" y="-119.5" font-family="Helvetica,sans-Serif" font-size="10.00" fill="#000000">../common/enums.hxx</text>
</g>
<!-- Node15&#45;&gt;Node18 -->
<g id="edge30" class="edge">
<title>Node15&#45;&gt;Node18</title>
<path fill="none" stroke="#191970" d="M477.323,-168.2455C477.323,-160.9382 477.323,-150.6944 477.323,-141.7046"/>
<polygon fill="#191970" stroke="#191970" points="480.8231,-141.6426 477.323,-131.6427 473.8231,-141.6427 480.8231,-141.6426"/>
</g>
<!-- Node16&#45;&gt;Node8 -->
<g id="edge25" class="edge">
<title>Node16&#45;&gt;Node8</title>
<path fill="none" stroke="#191970" d="M352.5748,-112.2455C348.0795,-104.617 341.6982,-93.7881 336.2406,-84.5267"/>
<polygon fill="#191970" stroke="#191970" points="339.0977,-82.4811 331.0053,-75.6427 333.0669,-86.035 339.0977,-82.4811"/>
</g>
<!-- Node16&#45;&gt;Node10 -->
<g id="edge26" class="edge">
<title>Node16&#45;&gt;Node10</title>
<path fill="none" stroke="#191970" d="M396.9874,-113.4088C399.8016,-112.8957 402.6021,-112.4187 405.323,-112 571.3257,-86.4542 772.0137,-72.662 850.5279,-67.9177"/>
<polygon fill="#191970" stroke="#191970" points="851.0048,-71.3956 860.7794,-67.308 850.5892,-64.408 851.0048,-71.3956"/>
</g>
<!-- Node16&#45;&gt;Node12 -->
<g id="edge27" class="edge">
<title>Node16&#45;&gt;Node12</title>
<path fill="none" stroke="#191970" d="M397.0465,-113.7354C399.8469,-113.1456 402.628,-112.5622 405.323,-112 462.2921,-100.1162 527.4417,-86.8299 572.9238,-77.6037"/>
<polygon fill="#191970" stroke="#191970" points="573.7886,-80.9996 582.8937,-75.5824 572.3977,-74.1392 573.7886,-80.9996"/>
</g>
<!-- Node19&#45;&gt;Node5 -->
<g id="edge32" class="edge">
<title>Node19&#45;&gt;Node5</title>
<path fill="none" stroke="#191970" d="M682.317,-280.3733C650.1139,-270.9807 600.9788,-256.6496 565.8591,-246.4064"/>
<polygon fill="#191970" stroke="#191970" points="566.4783,-242.9412 555.8983,-243.5011 564.5183,-249.6612 566.4783,-242.9412"/>
</g>
<!-- Node19&#45;&gt;Node10 -->
<g id="edge34" class="edge">
<title>Node19&#45;&gt;Node10</title>
<path fill="none" stroke="#191970" d="M759.6145,-280.4553C832.9732,-263.7159 974.7615,-227.1086 1006.323,-188 1027.626,-161.603 1032.8698,-139.7225 1013.323,-112 1002.0856,-96.0624 952.287,-81.6631 917.9568,-73.3741"/>
<polygon fill="#191970" stroke="#191970" points="918.3944,-69.8817 907.859,-71.0029 916.7941,-76.6963 918.3944,-69.8817"/>
</g>
<!-- Node20 -->
<g id="node21" class="node">
<title>Node20</title>
<polygon fill="none" stroke="#bfbfbf" points="696.323,-224.5 696.323,-243.5 734.323,-243.5 734.323,-224.5 696.323,-224.5"/>
<text text-anchor="middle" x="715.323" y="-231.5" font-family="Helvetica,sans-Serif" font-size="10.00" fill="#000000">map</text>
</g>
<!-- Node19&#45;&gt;Node20 -->
<g id="edge33" class="edge">
<title>Node19&#45;&gt;Node20</title>
<path fill="none" stroke="#191970" d="M715.323,-280.2455C715.323,-272.9382 715.323,-262.6944 715.323,-253.7046"/>
<polygon fill="#191970" stroke="#191970" points="718.8231,-253.6426 715.323,-243.6427 711.8231,-253.6427 718.8231,-253.6426"/>
</g>
<!-- Node21&#45;&gt;Node8 -->
<g id="edge36" class="edge">
<title>Node21&#45;&gt;Node8</title>
<path fill="none" stroke="#191970" d="M933.9019,-168.4396C895.6182,-153.8597 818.8612,-126.2617 751.323,-112 606.6336,-81.4467 429.7733,-70.6064 357.9566,-67.2874"/>
<polygon fill="#191970" stroke="#191970" points="357.891,-63.7811 347.7456,-66.834 357.5805,-70.7742 357.891,-63.7811"/>
</g>
<!-- Node21&#45;&gt;Node10 -->
<g id="edge37" class="edge">
<title>Node21&#45;&gt;Node10</title>
<path fill="none" stroke="#191970" d="M952.0138,-168.4509C939.6715,-149.7707 912.1548,-108.1238 896.2662,-84.0761"/>
<polygon fill="#191970" stroke="#191970" points="899.049,-81.9388 890.6162,-75.5249 893.2087,-85.7977 899.049,-81.9388"/>
</g>
<!-- Node21&#45;&gt;Node17 -->
<g id="edge38" class="edge">
<title>Node21&#45;&gt;Node17</title>
<path fill="none" stroke="#191970" d="M919.6978,-169.6162C875.115,-159.9394 801.5906,-143.9806 752.0858,-133.2353"/>
<polygon fill="#191970" stroke="#191970" points="752.7283,-129.7934 742.2134,-131.0925 751.2434,-136.6341 752.7283,-129.7934"/>
</g>
<!-- Node22 -->
<g id="node23" class="node">
<title>Node22</title>
<g id="a_node23"><a xlink:href="Meta_8hxx.html" target="_top" xlink:title="../../util/Meta.hxx">
<polygon fill="none" stroke="#000000" points="1060.323,-112.5 1060.323,-131.5 1158.323,-131.5 1158.323,-112.5 1060.323,-112.5"/>
<text text-anchor="middle" x="1109.323" y="-119.5" font-family="Helvetica,sans-Serif" font-size="10.00" fill="#000000">../../util/Meta.hxx</text>
</a>
</g>
</g>
<!-- Node21&#45;&gt;Node22 -->
<g id="edge39" class="edge">
<title>Node21&#45;&gt;Node22</title>
<path fill="none" stroke="#191970" d="M984.2808,-168.3733C1009.0637,-159.1822 1046.5976,-145.2624 1074.0771,-135.0713"/>
<polygon fill="#191970" stroke="#191970" points="1075.5449,-138.26 1083.7039,-131.5011 1073.1109,-131.6968 1075.5449,-138.26"/>
</g>
<!-- Node27 -->
<g id="node28" class="node">
<title>Node27</title>
<polygon fill="none" stroke="#bfbfbf" points="950.823,-112.5 950.823,-131.5 1003.823,-131.5 1003.823,-112.5 950.823,-112.5"/>
<text text-anchor="middle" x="977.323" y="-119.5" font-family="Helvetica,sans-Serif" font-size="10.00" fill="#000000">cstddef</text>
</g>
<!-- Node21&#45;&gt;Node27 -->
<g id="edge44" class="edge">
<title>Node21&#45;&gt;Node27</title>
<path fill="none" stroke="#191970" d="M961.6326,-168.2455C964.1663,-160.7776 967.7407,-150.2427 970.838,-141.1137"/>
<polygon fill="#191970" stroke="#191970" points="974.1528,-142.237 974.0514,-131.6427 967.5239,-139.9879 974.1528,-142.237"/>
</g>
<!-- Node23 -->
<g id="node24" class="node">
<title>Node23</title>
<polygon fill="none" stroke="#bfbfbf" points="1113.323,-56.5 1113.323,-75.5 1173.323,-75.5 1173.323,-56.5 1113.323,-56.5"/>
<text text-anchor="middle" x="1143.323" y="-63.5" font-family="Helvetica,sans-Serif" font-size="10.00" fill="#000000">iostream</text>
</g>
<!-- Node22&#45;&gt;Node23 -->
<g id="edge40" class="edge">
<title>Node22&#45;&gt;Node23</title>
<path fill="none" stroke="#191970" d="M1115.2454,-112.2455C1119.9257,-104.5367 1126.5903,-93.5598 1132.2519,-84.2348"/>
<polygon fill="#191970" stroke="#191970" points="1135.2705,-86.007 1137.4685,-75.6427 1129.2869,-82.3741 1135.2705,-86.007"/>
</g>
<!-- Node24 -->
<g id="node25" class="node">
<title>Node24</title>
<polygon fill="none" stroke="#bfbfbf" points="1191.823,-56.5 1191.823,-75.5 1260.823,-75.5 1260.823,-56.5 1191.823,-56.5"/>
<text text-anchor="middle" x="1226.323" y="-63.5" font-family="Helvetica,sans-Serif" font-size="10.00" fill="#000000">type_traits</text>
</g>
<!-- Node22&#45;&gt;Node24 -->
<g id="edge41" class="edge">
<title>Node22&#45;&gt;Node24</title>
<path fill="none" stroke="#191970" d="M1129.436,-112.3733C1148.1333,-103.4241 1176.1974,-89.9917 1197.3164,-79.8835"/>
<polygon fill="#191970" stroke="#191970" points="1198.9635,-82.9755 1206.4724,-75.5011 1195.9413,-76.6614 1198.9635,-82.9755"/>
</g>
<!-- Node25 -->
<g id="node26" class="node">
<title>Node25</title>
<polygon fill="none" stroke="#bfbfbf" points="984.823,-56.5 984.823,-75.5 1035.823,-75.5 1035.823,-56.5 984.823,-56.5"/>
<text text-anchor="middle" x="1010.323" y="-63.5" font-family="Helvetica,sans-Serif" font-size="10.00" fill="#000000">variant</text>
</g>
<!-- Node22&#45;&gt;Node25 -->
<g id="edge42" class="edge">
<title>Node22&#45;&gt;Node25</title>
<path fill="none" stroke="#191970" d="M1092.0785,-112.2455C1076.7469,-103.5731 1054.1031,-90.7645 1036.5314,-80.825"/>
<polygon fill="#191970" stroke="#191970" points="1037.7971,-77.5198 1027.3699,-75.6427 1034.3506,-83.6126 1037.7971,-77.5198"/>
</g>
<!-- Node26 -->
<g id="node27" class="node">
<title>Node26</title>
<polygon fill="none" stroke="#bfbfbf" points="1053.823,-56.5 1053.823,-75.5 1094.823,-75.5 1094.823,-56.5 1053.823,-56.5"/>
<text text-anchor="middle" x="1074.323" y="-63.5" font-family="Helvetica,sans-Serif" font-size="10.00" fill="#000000">tuple</text>
</g>
<!-- Node22&#45;&gt;Node26 -->
<g id="edge43" class="edge">
<title>Node22&#45;&gt;Node26</title>
<path fill="none" stroke="#191970" d="M1103.2265,-112.2455C1098.4085,-104.5367 1091.5479,-93.5598 1085.7198,-84.2348"/>
<polygon fill="#191970" stroke="#191970" points="1088.6177,-82.2677 1080.3497,-75.6427 1082.6817,-85.9777 1088.6177,-82.2677"/>
</g>
<!-- Node28&#45;&gt;Node22 -->
<g id="edge47" class="edge">
<title>Node28&#45;&gt;Node22</title>
<path fill="none" stroke="#191970" d="M1153.0911,-168.2455C1145.4913,-160.2155 1134.5353,-148.6394 1125.4862,-139.0781"/>
<polygon fill="#191970" stroke="#191970" points="1127.865,-136.4998 1118.4491,-131.6427 1122.781,-141.3115 1127.865,-136.4998"/>
</g>
<!-- Node29 -->
<g id="node30" class="node">
<title>Node29</title>
<polygon fill="none" stroke="#bfbfbf" points="1176.823,-112.5 1176.823,-131.5 1229.823,-131.5 1229.823,-112.5 1176.823,-112.5"/>
<text text-anchor="middle" x="1203.323" y="-119.5" font-family="Helvetica,sans-Serif" font-size="10.00" fill="#000000">iterator</text>
</g>
<!-- Node28&#45;&gt;Node29 -->
<g id="edge46" class="edge">
<title>Node28&#45;&gt;Node29</title>
<path fill="none" stroke="#191970" d="M1169.4647,-168.2455C1175.1674,-160.4564 1183.313,-149.3308 1190.1855,-139.9439"/>
<polygon fill="#191970" stroke="#191970" points="1193.1798,-141.7789 1196.2632,-131.6427 1187.5317,-137.6437 1193.1798,-141.7789"/>
</g>
<!-- Node30 -->
<g id="node31" class="node">
<title>Node30</title>
<g id="a_node31"><a xlink:href="ZipRange_8inl_8hxx.html" target="_top" xlink:title="ZipRange.inl.hxx">
<polygon fill="none" stroke="#000000" points="1247.823,-112.5 1247.823,-131.5 1346.823,-131.5 1346.823,-112.5 1247.823,-112.5"/>
<text text-anchor="middle" x="1297.323" y="-119.5" font-family="Helvetica,sans-Serif" font-size="10.00" fill="#000000">ZipRange.inl.hxx</text>
</a>
</g>
</g>
<!-- Node28&#45;&gt;Node30 -->
<g id="edge48" class="edge">
<title>Node28&#45;&gt;Node30</title>
<path fill="none" stroke="#191970" d="M1185.5303,-168.3733C1207.4929,-159.2629 1240.6562,-145.5062 1265.1631,-135.3404"/>
<polygon fill="#191970" stroke="#191970" points="1266.5227,-138.5657 1274.4185,-131.5011 1263.8406,-132.0999 1266.5227,-138.5657"/>
</g>
</g>
</svg>
        <g id="navigator" transform="translate(0 0)" fill="#404254">
                <rect fill="#f2f5e9" fill-opacity="0.5" stroke="#606060" stroke-width=".5" x="0" y="0" width="60" height="60"/>
                <use id="zoomplus" xlink:href="#zoomPlus" x="17" y="9" onmousedown="handleZoom(evt,'in')"/>
                <use id="zoomminus" xlink:href="#zoomMin" x="42" y="9" onmousedown="handleZoom(evt,'out')"/>
                <use id="reset" xlink:href="#resetDef" x="30" y="36" onmousedown="handleReset()"/>
                <g id="arrowUp" xlink:href="#dirArrow" transform="translate(30 24)" onmousedown="handlePan(0,-1)">
                  <use xlink:href="#rim" fill="#404040">
                        <set attributeName="fill" to="#808080" begin="arrowUp.mouseover" end="arrowUp.mouseout"/>
                  </use>
                  <path fill="none" stroke="white" stroke-width="1.5" d="M0,-3.0v7 M-2.5,-0.5L0,-3.0L2.5,-0.5"/>
                </g>
                <g id="arrowRight" xlink:href="#dirArrow" transform="rotate(90) translate(36 -43)" onmousedown="handlePan(1,0)">
                  <use xlink:href="#rim" fill="#404040">
                        <set attributeName="fill" to="#808080" begin="arrowRight.mouseover" end="arrowRight.mouseout"/>
                  </use>
                  <path fill="none" stroke="white" stroke-width="1.5" d="M0,-3.0v7 M-2.5,-0.5L0,-3.0L2.5,-0.5"/>
                </g>
                <g id="arrowDown" xlink:href="#dirArrow" transform="rotate(180) translate(-30 -48)" onmousedown="handlePan(0,1)">
                  <use xlink:href="#rim" fill="#404040">
                        <set attributeName="fill" to="#808080" begin="arrowDown.mouseover" end="arrowDown.mouseout"/>
                  </use>
                  <path fill="none" stroke="white" stroke-width="1.5" d="M0,-3.0v7 M-2.5,-0.5L0,-3.0L2.5,-0.5"/>
                </g>
                <g id="arrowLeft" xlink:href="#dirArrow" transform="rotate(270) translate(-36 17)" onmousedown="handlePan(-1,0)">
                  <use xlink:href="#rim" fill="#404040">
                        <set attributeName="fill" to="#808080" begin="arrowLeft.mouseover" end="arrowLeft.mouseout"/>
                  </use>
                  <path fill="none" stroke="white" stroke-width="1.5" d="M0,-3.0v7 M-2.5,-0.5L0,-3.0L2.5,-0.5"/>
                </g>
        </g>
        <svg viewBox="0 0 15 15" width="100%" height="30px" preserveAspectRatio="xMaxYMin meet">
         <g id="arrow_out" transform="scale(0.3 0.3)">
          <a xlink:href="JsonSerialization_8hxx__incl_org.svg" target="_base">
           <rect id="button" ry="5" rx="5" y="6" x="6" height="38" width="38"
                fill="#f2f5e9" fill-opacity="0.5" stroke="#606060" stroke-width="1.0"/>
           <path id="arrow"
             d="M 11.500037,31.436501 C 11.940474,20.09759 22.043105,11.32322 32.158766,21.979434 L 37.068811,17.246167 C 37.068811,17.246167 37.088388,32 37.088388,32 L 22.160133,31.978069 C 22.160133,31.978069 26.997745,27.140456 26.997745,27.140456 C 18.528582,18.264221 13.291696,25.230495 11.500037,31.436501 z"
             style="fill:#404040;"/>
          </a>
         </g>
        </svg>
</svg>
