<?xml version="1.0" encoding="UTF-8" standalone="no"?>
<!DOCTYPE svg PUBLIC "-//W3C//DTD SVG 1.1//EN"
 "http://www.w3.org/Graphics/SVG/1.1/DTD/svg11.dtd">
<!-- Generated by graphviz version 2.40.1 (20161225.0304)
 -->
<!-- Title: src/util/LOG.cxx Pages: 1 -->
<svg width="1036pt" height="420pt"
 viewBox="0.00 0.00 1035.86 420.00" xmlns="http://www.w3.org/2000/svg" xmlns:xlink="http://www.w3.org/1999/xlink">
<g id="graph0" class="graph" transform="scale(1 1) rotate(0) translate(4 416)">
<title>src/util/LOG.cxx</title>
<!-- Node0 -->
<g id="node1" class="node">
<title>Node0</title>
<polygon fill="#bfbfbf" stroke="#000000" points="377.3563,-392.5 377.3563,-411.5 470.3563,-411.5 470.3563,-392.5 377.3563,-392.5"/>
<text text-anchor="middle" x="423.8563" y="-399.5" font-family="Helvetica,sans-Serif" font-size="10.00" fill="#000000">src/util/LOG.cxx</text>
</g>
<!-- Node1 -->
<g id="node2" class="node">
<title>Node1</title>
<g id="a_node2"><a xlink:href="LOG_8hxx.html" target="_top" xlink:title="LOG.hxx">
<polygon fill="none" stroke="#000000" points="507.8563,-112.5 507.8563,-131.5 565.8563,-131.5 565.8563,-112.5 507.8563,-112.5"/>
<text text-anchor="middle" x="536.8563" y="-119.5" font-family="Helvetica,sans-Serif" font-size="10.00" fill="#000000">LOG.hxx</text>
</a>
</g>
</g>
<!-- Node0&#45;&gt;Node1 -->
<g id="edge1" class="edge">
<title>Node0&#45;&gt;Node1</title>
<path fill="none" stroke="#191970" d="M444.8054,-392.4375C476.7209,-376.2626 533.8563,-340.284 533.8563,-290 533.8563,-290 533.8563,-290 533.8563,-234 533.8563,-201.7 535.1185,-164.1791 536.0055,-141.8005"/>
<polygon fill="#191970" stroke="#191970" points="539.5116,-141.7217 536.4265,-131.5861 532.5176,-141.4334 539.5116,-141.7217"/>
</g>
<!-- Node19 -->
<g id="node20" class="node">
<title>Node19</title>
<g id="a_node20"><a xlink:href="Filesystem_8hxx.html" target="_top" xlink:title="Filesystem.hxx">
<polygon fill="none" stroke="#000000" points="278.8563,-336.5 278.8563,-355.5 368.8563,-355.5 368.8563,-336.5 278.8563,-336.5"/>
<text text-anchor="middle" x="323.8563" y="-343.5" font-family="Helvetica,sans-Serif" font-size="10.00" fill="#000000">Filesystem.hxx</text>
</a>
</g>
</g>
<!-- Node0&#45;&gt;Node19 -->
<g id="edge20" class="edge">
<title>Node0&#45;&gt;Node19</title>
<path fill="none" stroke="#191970" d="M406.4376,-392.2455C390.8078,-383.4928 367.6544,-370.527 349.8378,-360.5496"/>
<polygon fill="#191970" stroke="#191970" points="351.5105,-357.475 341.0753,-355.6427 348.0903,-363.5825 351.5105,-357.475"/>
</g>
<!-- Node2 -->
<g id="node3" class="node">
<title>Node2</title>
<polygon fill="none" stroke="#bfbfbf" points="983.8563,-56.5 983.8563,-75.5 1027.8563,-75.5 1027.8563,-56.5 983.8563,-56.5"/>
<text text-anchor="middle" x="1005.8563" y="-63.5" font-family="Helvetica,sans-Serif" font-size="10.00" fill="#000000">string</text>
</g>
<!-- Node1&#45;&gt;Node2 -->
<g id="edge2" class="edge">
<title>Node1&#45;&gt;Node2</title>
<path fill="none" stroke="#191970" d="M565.8768,-121.0295C635.1142,-118.2754 815.4011,-108.5156 973.7393,-75.853"/>
<polygon fill="#191970" stroke="#191970" points="974.5873,-79.2513 983.6547,-73.7711 973.1488,-72.4007 974.5873,-79.2513"/>
</g>
<!-- Node3 -->
<g id="node4" class="node">
<title>Node3</title>
<g id="a_node4"><a xlink:href="Exception_8hxx.html" target="_top" xlink:title="Exception.hxx">
<polygon fill="none" stroke="#000000" points="879.8563,-56.5 879.8563,-75.5 965.8563,-75.5 965.8563,-56.5 879.8563,-56.5"/>
<text text-anchor="middle" x="922.8563" y="-63.5" font-family="Helvetica,sans-Serif" font-size="10.00" fill="#000000">Exception.hxx</text>
</a>
</g>
</g>
<!-- Node1&#45;&gt;Node3 -->
<g id="edge3" class="edge">
<title>Node1&#45;&gt;Node3</title>
<path fill="none" stroke="#191970" d="M565.869,-117.7909C630.4999,-108.4144 787.1132,-85.6933 869.7578,-73.7034"/>
<polygon fill="#191970" stroke="#191970" points="870.3069,-77.1605 879.7008,-72.2609 869.3018,-70.233 870.3069,-77.1605"/>
</g>
<!-- Node6 -->
<g id="node7" class="node">
<title>Node6</title>
<polygon fill="none" stroke="#bfbfbf" points="415.8563,-.5 415.8563,-19.5 475.8563,-19.5 475.8563,-.5 415.8563,-.5"/>
<text text-anchor="middle" x="445.8563" y="-7.5" font-family="Helvetica,sans-Serif" font-size="10.00" fill="#000000">iostream</text>
</g>
<!-- Node1&#45;&gt;Node6 -->
<g id="edge6" class="edge">
<title>Node1&#45;&gt;Node6</title>
<path fill="none" stroke="#191970" d="M549.3318,-112.4878C565.0139,-99.3554 588.342,-75.1264 574.8563,-56 564.3329,-41.075 519.9926,-27.4991 486.2072,-19.0269"/>
<polygon fill="#191970" stroke="#191970" points="486.6544,-15.5335 476.11,-16.5656 484.9966,-22.3344 486.6544,-15.5335"/>
</g>
<!-- Node7 -->
<g id="node8" class="node">
<title>Node7</title>
<polygon fill="none" stroke="#bfbfbf" points="305.8563,-56.5 305.8563,-75.5 355.8563,-75.5 355.8563,-56.5 305.8563,-56.5"/>
<text text-anchor="middle" x="330.8563" y="-63.5" font-family="Helvetica,sans-Serif" font-size="10.00" fill="#000000">chrono</text>
</g>
<!-- Node1&#45;&gt;Node7 -->
<g id="edge7" class="edge">
<title>Node1&#45;&gt;Node7</title>
<path fill="none" stroke="#191970" d="M507.5801,-114.4059C475.1779,-105.9494 421.1739,-91.7035 365.7218,-76.1989"/>
<polygon fill="#191970" stroke="#191970" points="366.661,-72.8273 356.0873,-73.4963 364.7703,-79.5671 366.661,-72.8273"/>
</g>
<!-- Node8 -->
<g id="node9" class="node">
<title>Node8</title>
<polygon fill="none" stroke="#bfbfbf" points="373.8563,-56.5 373.8563,-75.5 417.8563,-75.5 417.8563,-56.5 373.8563,-56.5"/>
<text text-anchor="middle" x="395.8563" y="-63.5" font-family="Helvetica,sans-Serif" font-size="10.00" fill="#000000">ctime</text>
</g>
<!-- Node1&#45;&gt;Node8 -->
<g id="edge8" class="edge">
<title>Node1&#45;&gt;Node8</title>
<path fill="none" stroke="#191970" d="M512.6175,-112.3733C489.0188,-103.0007 453.0386,-88.7107 427.2589,-78.472"/>
<polygon fill="#191970" stroke="#191970" points="428.5108,-75.2033 417.9251,-74.7649 425.927,-81.709 428.5108,-75.2033"/>
</g>
<!-- Node9 -->
<g id="node10" class="node">
<title>Node9</title>
<polygon fill="none" stroke="#bfbfbf" points="436.3563,-56.5 436.3563,-75.5 491.3563,-75.5 491.3563,-56.5 436.3563,-56.5"/>
<text text-anchor="middle" x="463.8563" y="-63.5" font-family="Helvetica,sans-Serif" font-size="10.00" fill="#000000">fstream</text>
</g>
<!-- Node1&#45;&gt;Node9 -->
<g id="edge9" class="edge">
<title>Node1&#45;&gt;Node9</title>
<path fill="none" stroke="#191970" d="M524.1407,-112.2455C513.2542,-103.8943 497.368,-91.7076 484.6363,-81.9408"/>
<polygon fill="#191970" stroke="#191970" points="486.4909,-78.9523 476.4262,-75.6427 482.2302,-84.5063 486.4909,-78.9523"/>
</g>
<!-- Node10 -->
<g id="node11" class="node">
<title>Node10</title>
<polygon fill="none" stroke="#bfbfbf" points="509.8563,-56.5 509.8563,-75.5 565.8563,-75.5 565.8563,-56.5 509.8563,-56.5"/>
<text text-anchor="middle" x="537.8563" y="-63.5" font-family="Helvetica,sans-Serif" font-size="10.00" fill="#000000">sstream</text>
</g>
<!-- Node1&#45;&gt;Node10 -->
<g id="edge10" class="edge">
<title>Node1&#45;&gt;Node10</title>
<path fill="none" stroke="#191970" d="M537.0305,-112.2455C537.161,-104.9382 537.3439,-94.6944 537.5044,-85.7046"/>
<polygon fill="#191970" stroke="#191970" points="541.0049,-85.7036 537.6841,-75.6427 534.006,-85.5786 541.0049,-85.7036"/>
</g>
<!-- Node11 -->
<g id="node12" class="node">
<title>Node11</title>
<polygon fill="none" stroke="#bfbfbf" points="621.8563,-56.5 621.8563,-75.5 665.8563,-75.5 665.8563,-56.5 621.8563,-56.5"/>
<text text-anchor="middle" x="643.8563" y="-63.5" font-family="Helvetica,sans-Serif" font-size="10.00" fill="#000000">SDL.h</text>
</g>
<!-- Node1&#45;&gt;Node11 -->
<g id="edge11" class="edge">
<title>Node1&#45;&gt;Node11</title>
<path fill="none" stroke="#191970" d="M555.4943,-112.2455C572.2949,-103.4527 597.2197,-90.4079 616.3181,-80.4125"/>
<polygon fill="#191970" stroke="#191970" points="618.1949,-83.3807 625.4319,-75.6427 614.949,-77.1787 618.1949,-83.3807"/>
</g>
<!-- Node12 -->
<g id="node13" class="node">
<title>Node12</title>
<polygon fill="none" stroke="#bfbfbf" points="223.8563,-56.5 223.8563,-75.5 287.8563,-75.5 287.8563,-56.5 223.8563,-56.5"/>
<text text-anchor="middle" x="255.8563" y="-63.5" font-family="Helvetica,sans-Serif" font-size="10.00" fill="#000000">algorithm</text>
</g>
<!-- Node1&#45;&gt;Node12 -->
<g id="edge12" class="edge">
<title>Node1&#45;&gt;Node12</title>
<path fill="none" stroke="#191970" d="M507.5746,-116.8737C464.0395,-109.1468 379.4556,-93.7317 297.9692,-76.1653"/>
<polygon fill="#191970" stroke="#191970" points="298.565,-72.7132 288.0501,-74.0128 297.0804,-79.554 298.565,-72.7132"/>
</g>
<!-- Node13 -->
<g id="node14" class="node">
<title>Node13</title>
<polygon fill="none" stroke="#bfbfbf" points="683.8563,-56.5 683.8563,-75.5 731.8563,-75.5 731.8563,-56.5 683.8563,-56.5"/>
<text text-anchor="middle" x="707.8563" y="-63.5" font-family="Helvetica,sans-Serif" font-size="10.00" fill="#000000">mutex</text>
</g>
<!-- Node1&#45;&gt;Node13 -->
<g id="edge13" class="edge">
<title>Node1&#45;&gt;Node13</title>
<path fill="none" stroke="#191970" d="M565.8641,-112.5004C595.7858,-102.7015 642.4154,-87.4309 674.0035,-77.0863"/>
<polygon fill="#191970" stroke="#191970" points="675.2765,-80.3524 683.6906,-73.9139 673.0979,-73.7 675.2765,-80.3524"/>
</g>
<!-- Node14 -->
<g id="node15" class="node">
<title>Node14</title>
<g id="a_node15"><a xlink:href="Meta_8hxx.html" target="_top" xlink:title="Meta.hxx">
<polygon fill="none" stroke="#000000" points="105.8563,-56.5 105.8563,-75.5 167.8563,-75.5 167.8563,-56.5 105.8563,-56.5"/>
<text text-anchor="middle" x="136.8563" y="-63.5" font-family="Helvetica,sans-Serif" font-size="10.00" fill="#000000">Meta.hxx</text>
</a>
</g>
</g>
<!-- Node1&#45;&gt;Node14 -->
<g id="edge14" class="edge">
<title>Node1&#45;&gt;Node14</title>
<path fill="none" stroke="#191970" d="M507.7671,-117.9275C437.741,-108.1239 259.5921,-83.183 178.361,-71.8107"/>
<polygon fill="#191970" stroke="#191970" points="178.4131,-68.2839 168.0244,-70.3635 177.4425,-75.2163 178.4131,-68.2839"/>
</g>
<!-- Node18 -->
<g id="node19" class="node">
<title>Node18</title>
<g id="a_node19"><a xlink:href="LOG_8inl_8hxx.html" target="_top" xlink:title="LOG.inl.hxx">
<polygon fill="none" stroke="#000000" points="750.3563,-56.5 750.3563,-75.5 823.3563,-75.5 823.3563,-56.5 750.3563,-56.5"/>
<text text-anchor="middle" x="786.8563" y="-63.5" font-family="Helvetica,sans-Serif" font-size="10.00" fill="#000000">LOG.inl.hxx</text>
</a>
</g>
</g>
<!-- Node1&#45;&gt;Node18 -->
<g id="edge19" class="edge">
<title>Node1&#45;&gt;Node18</title>
<path fill="none" stroke="#191970" d="M566.0237,-115.4665C608.8911,-105.8642 689.3375,-87.8442 740.3956,-76.4072"/>
<polygon fill="#191970" stroke="#191970" points="741.2024,-79.8133 750.1955,-74.212 739.6723,-72.9826 741.2024,-79.8133"/>
</g>
<!-- Node4 -->
<g id="node5" class="node">
<title>Node4</title>
<polygon fill="none" stroke="#bfbfbf" points="848.3563,-.5 848.3563,-19.5 913.3563,-19.5 913.3563,-.5 848.3563,-.5"/>
<text text-anchor="middle" x="880.8563" y="-7.5" font-family="Helvetica,sans-Serif" font-size="10.00" fill="#000000">stdexcept</text>
</g>
<!-- Node3&#45;&gt;Node4 -->
<g id="edge4" class="edge">
<title>Node3&#45;&gt;Node4</title>
<path fill="none" stroke="#191970" d="M915.5404,-56.2455C909.6384,-48.3761 901.182,-37.101 894.0969,-27.6542"/>
<polygon fill="#191970" stroke="#191970" points="896.8883,-25.5427 888.0883,-19.6427 891.2883,-29.7427 896.8883,-25.5427"/>
</g>
<!-- Node5 -->
<g id="node6" class="node">
<title>Node5</title>
<polygon fill="none" stroke="#bfbfbf" points="931.3563,-.5 931.3563,-19.5 996.3563,-19.5 996.3563,-.5 931.3563,-.5"/>
<text text-anchor="middle" x="963.8563" y="-7.5" font-family="Helvetica,sans-Serif" font-size="10.00" fill="#000000">exception</text>
</g>
<!-- Node3&#45;&gt;Node5 -->
<g id="edge5" class="edge">
<title>Node3&#45;&gt;Node5</title>
<path fill="none" stroke="#191970" d="M929.9979,-56.2455C935.7007,-48.4564 943.8463,-37.3308 950.7188,-27.9439"/>
<polygon fill="#191970" stroke="#191970" points="953.7131,-29.7789 956.7965,-19.6427 948.065,-25.6437 953.7131,-29.7789"/>
</g>
<!-- Node14&#45;&gt;Node6 -->
<g id="edge15" class="edge">
<title>Node14&#45;&gt;Node6</title>
<path fill="none" stroke="#191970" d="M168.2886,-58.821C172.8338,-57.8395 177.46,-56.871 181.8563,-56 260.8428,-40.351 353.6969,-24.8361 405.564,-16.4269"/>
<polygon fill="#191970" stroke="#191970" points="406.3686,-19.8424 415.6824,-14.7923 405.2522,-12.932 406.3686,-19.8424"/>
</g>
<!-- Node15 -->
<g id="node16" class="node">
<title>Node15</title>
<polygon fill="none" stroke="#bfbfbf" points="163.3563,-.5 163.3563,-19.5 232.3563,-19.5 232.3563,-.5 163.3563,-.5"/>
<text text-anchor="middle" x="197.8563" y="-7.5" font-family="Helvetica,sans-Serif" font-size="10.00" fill="#000000">type_traits</text>
</g>
<!-- Node14&#45;&gt;Node15 -->
<g id="edge16" class="edge">
<title>Node14&#45;&gt;Node15</title>
<path fill="none" stroke="#191970" d="M147.4817,-56.2455C156.4036,-48.0549 169.3443,-36.1749 179.8755,-26.5069"/>
<polygon fill="#191970" stroke="#191970" points="182.3531,-28.9837 187.3527,-19.6427 177.6191,-23.8271 182.3531,-28.9837"/>
</g>
<!-- Node16 -->
<g id="node17" class="node">
<title>Node16</title>
<polygon fill="none" stroke="#bfbfbf" points="94.3563,-.5 94.3563,-19.5 145.3563,-19.5 145.3563,-.5 94.3563,-.5"/>
<text text-anchor="middle" x="119.8563" y="-7.5" font-family="Helvetica,sans-Serif" font-size="10.00" fill="#000000">variant</text>
</g>
<!-- Node14&#45;&gt;Node16 -->
<g id="edge17" class="edge">
<title>Node14&#45;&gt;Node16</title>
<path fill="none" stroke="#191970" d="M133.8951,-56.2455C131.6524,-48.8579 128.4986,-38.4689 125.7482,-29.4087"/>
<polygon fill="#191970" stroke="#191970" points="129.0375,-28.1948 122.7835,-19.6427 122.3393,-30.2282 129.0375,-28.1948"/>
</g>
<!-- Node17 -->
<g id="node18" class="node">
<title>Node17</title>
<polygon fill="none" stroke="#bfbfbf" points="1.3563,-.5 1.3563,-19.5 42.3563,-19.5 42.3563,-.5 1.3563,-.5"/>
<text text-anchor="middle" x="21.8563" y="-7.5" font-family="Helvetica,sans-Serif" font-size="10.00" fill="#000000">tuple</text>
</g>
<!-- Node14&#45;&gt;Node17 -->
<g id="edge18" class="edge">
<title>Node14&#45;&gt;Node17</title>
<path fill="none" stroke="#191970" d="M117.0871,-56.3733C98.7094,-47.4241 71.125,-33.9917 50.367,-23.8835"/>
<polygon fill="#191970" stroke="#191970" points="51.8906,-20.7325 41.3675,-19.5011 48.8259,-27.026 51.8906,-20.7325"/>
</g>
<!-- Node19&#45;&gt;Node2 -->
<g id="edge22" class="edge">
<title>Node19&#45;&gt;Node2</title>
<path fill="none" stroke="#191970" d="M368.9838,-342.6806C512.3196,-331.5409 947.8563,-292.8501 947.8563,-234 947.8563,-234 947.8563,-234 947.8563,-178 947.8563,-141.0488 973.0583,-104.1465 990.2371,-83.2847"/>
<polygon fill="#191970" stroke="#191970" points="992.9548,-85.4919 996.7938,-75.6171 987.6346,-80.9426 992.9548,-85.4919"/>
</g>
<!-- Node20 -->
<g id="node21" class="node">
<title>Node20</title>
<polygon fill="none" stroke="#bfbfbf" points="154.8563,-280.5 154.8563,-299.5 208.8563,-299.5 208.8563,-280.5 154.8563,-280.5"/>
<text text-anchor="middle" x="181.8563" y="-287.5" font-family="Helvetica,sans-Serif" font-size="10.00" fill="#000000">ciso646</text>
</g>
<!-- Node19&#45;&gt;Node20 -->
<g id="edge21" class="edge">
<title>Node19&#45;&gt;Node20</title>
<path fill="none" stroke="#191970" d="M299.4456,-336.3733C276.242,-327.2226 241.1525,-313.3844 215.342,-303.2057"/>
<polygon fill="#191970" stroke="#191970" points="216.5352,-299.9139 205.9484,-299.5011 213.9671,-306.4258 216.5352,-299.9139"/>
</g>
<!-- Node21 -->
<g id="node22" class="node">
<title>Node21</title>
<polygon fill="none" stroke="#bfbfbf" points="17.3563,-224.5 17.3563,-243.5 64.3563,-243.5 64.3563,-224.5 17.3563,-224.5"/>
<text text-anchor="middle" x="40.8563" y="-231.5" font-family="Helvetica,sans-Serif" font-size="10.00" fill="#000000">vector</text>
</g>
<!-- Node19&#45;&gt;Node21 -->
<g id="edge23" class="edge">
<title>Node19&#45;&gt;Node21</title>
<path fill="none" stroke="#191970" d="M309.752,-336.4438C285.5088,-320.151 236.7242,-287.9801 217.8563,-280 159.567,-255.3468 138.7527,-261.2557 74.396,-244.2641"/>
<polygon fill="#191970" stroke="#191970" points="75.1438,-240.8403 64.5751,-241.5847 73.3012,-247.5935 75.1438,-240.8403"/>
</g>
<!-- Node22 -->
<g id="node23" class="node">
<title>Node22</title>
<g id="a_node23"><a xlink:href="PixelBuffer_8hxx.html" target="_top" xlink:title="../util/PixelBuffer.hxx">
<polygon fill="none" stroke="#000000" points="264.8563,-280.5 264.8563,-299.5 382.8563,-299.5 382.8563,-280.5 264.8563,-280.5"/>
<text text-anchor="middle" x="323.8563" y="-287.5" font-family="Helvetica,sans-Serif" font-size="10.00" fill="#000000">../util/PixelBuffer.hxx</text>
</a>
</g>
</g>
<!-- Node19&#45;&gt;Node22 -->
<g id="edge24" class="edge">
<title>Node19&#45;&gt;Node22</title>
<path fill="none" stroke="#191970" d="M323.8563,-336.2455C323.8563,-328.9382 323.8563,-318.6944 323.8563,-309.7046"/>
<polygon fill="#191970" stroke="#191970" points="327.3564,-309.6426 323.8563,-299.6427 320.3564,-309.6427 327.3564,-309.6426"/>
</g>
<!-- Node22&#45;&gt;Node21 -->
<g id="edge25" class="edge">
<title>Node22&#45;&gt;Node21</title>
<path fill="none" stroke="#191970" d="M264.8493,-281.2656C216.0068,-273.5642 144.67,-261.2327 74.4324,-244.1873"/>
<polygon fill="#191970" stroke="#191970" points="75.078,-240.7418 64.5314,-241.7508 73.4053,-247.539 75.078,-240.7418"/>
</g>
<!-- Node23 -->
<g id="node24" class="node">
<title>Node23</title>
<g id="a_node24"><a xlink:href="Rectangle_8hxx.html" target="_top" xlink:title="../util/Rectangle.hxx">
<polygon fill="none" stroke="#000000" points="205.3563,-224.5 205.3563,-243.5 318.3563,-243.5 318.3563,-224.5 205.3563,-224.5"/>
<text text-anchor="middle" x="261.8563" y="-231.5" font-family="Helvetica,sans-Serif" font-size="10.00" fill="#000000">../util/Rectangle.hxx</text>
</a>
</g>
</g>
<!-- Node22&#45;&gt;Node23 -->
<g id="edge26" class="edge">
<title>Node22&#45;&gt;Node23</title>
<path fill="none" stroke="#191970" d="M313.0567,-280.2455C303.9885,-272.0549 290.8357,-260.1749 280.1318,-250.5069"/>
<polygon fill="#191970" stroke="#191970" points="282.2992,-247.7482 272.5321,-243.6427 277.6071,-252.9429 282.2992,-247.7482"/>
</g>
<!-- Node26 -->
<g id="node27" class="node">
<title>Node26</title>
<g id="a_node27"><a xlink:href="Range_8hxx.html" target="_top" xlink:title="../util/Range.hxx">
<polygon fill="none" stroke="#000000" points="336.8563,-224.5 336.8563,-243.5 432.8563,-243.5 432.8563,-224.5 336.8563,-224.5"/>
<text text-anchor="middle" x="384.8563" y="-231.5" font-family="Helvetica,sans-Serif" font-size="10.00" fill="#000000">../util/Range.hxx</text>
</a>
</g>
</g>
<!-- Node22&#45;&gt;Node26 -->
<g id="edge33" class="edge">
<title>Node22&#45;&gt;Node26</title>
<path fill="none" stroke="#191970" d="M334.4817,-280.2455C343.4036,-272.0549 356.3443,-260.1749 366.8755,-250.5069"/>
<polygon fill="#191970" stroke="#191970" points="369.3531,-252.9837 374.3527,-243.6427 364.6191,-247.8271 369.3531,-252.9837"/>
</g>
<!-- Node29 -->
<g id="node30" class="node">
<title>Node29</title>
<g id="a_node30"><a xlink:href="Color_8hxx.html" target="_top" xlink:title="../util/Color.hxx">
<polygon fill="none" stroke="#000000" points="655.8563,-224.5 655.8563,-243.5 745.8563,-243.5 745.8563,-224.5 655.8563,-224.5"/>
<text text-anchor="middle" x="700.8563" y="-231.5" font-family="Helvetica,sans-Serif" font-size="10.00" fill="#000000">../util/Color.hxx</text>
</a>
</g>
</g>
<!-- Node22&#45;&gt;Node29 -->
<g id="edge37" class="edge">
<title>Node22&#45;&gt;Node29</title>
<path fill="none" stroke="#191970" d="M383.1773,-281.1884C455.2171,-270.4875 575.7587,-252.5821 645.8123,-242.1763"/>
<polygon fill="#191970" stroke="#191970" points="646.3928,-245.6286 655.77,-240.6972 645.3642,-238.7045 646.3928,-245.6286"/>
</g>
<!-- Node31 -->
<g id="node32" class="node">
<title>Node31</title>
<g id="a_node32"><a xlink:href="PixelBuffer_8inl_8hxx.html" target="_top" xlink:title="PixelBuffer.inl.hxx">
<polygon fill="none" stroke="#000000" points="82.3563,-224.5 82.3563,-243.5 187.3563,-243.5 187.3563,-224.5 82.3563,-224.5"/>
<text text-anchor="middle" x="134.8563" y="-231.5" font-family="Helvetica,sans-Serif" font-size="10.00" fill="#000000">PixelBuffer.inl.hxx</text>
</a>
</g>
</g>
<!-- Node22&#45;&gt;Node31 -->
<g id="edge40" class="edge">
<title>Node22&#45;&gt;Node31</title>
<path fill="none" stroke="#191970" d="M291.366,-280.3733C259.6661,-270.9807 211.2987,-256.6496 176.7277,-246.4064"/>
<polygon fill="#191970" stroke="#191970" points="177.5049,-242.9863 166.9226,-243.5011 175.5162,-249.6979 177.5049,-242.9863"/>
</g>
<!-- Node23&#45;&gt;Node6 -->
<g id="edge28" class="edge">
<title>Node23&#45;&gt;Node6</title>
<path fill="none" stroke="#191970" d="M246.8598,-224.3308C235.6965,-216.1671 221.3181,-203.3661 214.8563,-188 192.1145,-133.9205 177.6434,-101.3539 214.8563,-56 238.5299,-27.1474 345.8914,-16.0532 405.5575,-12.062"/>
<polygon fill="#191970" stroke="#191970" points="406.0011,-15.5411 415.7606,-11.4176 405.5598,-8.555 406.0011,-15.5411"/>
</g>
<!-- Node23&#45;&gt;Node17 -->
<g id="edge27" class="edge">
<title>Node23&#45;&gt;Node17</title>
<path fill="none" stroke="#191970" d="M205.2146,-224.9435C136.4086,-213.6724 28.7116,-195.0493 22.8563,-188 -15.0802,-142.3276 3.3619,-64.953 14.9267,-29.1846"/>
<polygon fill="#191970" stroke="#191970" points="18.3138,-30.0955 18.2249,-19.501 11.6876,-27.8385 18.3138,-30.0955"/>
</g>
<!-- Node24 -->
<g id="node25" class="node">
<title>Node24</title>
<g id="a_node25"><a xlink:href="iShape_8hxx.html" target="_top" xlink:title="../util/iShape.hxx">
<polygon fill="none" stroke="#000000" points="31.8563,-168.5 31.8563,-187.5 129.8563,-187.5 129.8563,-168.5 31.8563,-168.5"/>
<text text-anchor="middle" x="80.8563" y="-175.5" font-family="Helvetica,sans-Serif" font-size="10.00" fill="#000000">../util/iShape.hxx</text>
</a>
</g>
</g>
<!-- Node23&#45;&gt;Node24 -->
<g id="edge29" class="edge">
<title>Node23&#45;&gt;Node24</title>
<path fill="none" stroke="#191970" d="M230.7413,-224.3733C200.5134,-215.021 154.4603,-200.7725 121.3824,-190.5385"/>
<polygon fill="#191970" stroke="#191970" points="122.153,-187.1133 111.5653,-187.5011 120.084,-193.8005 122.153,-187.1133"/>
</g>
<!-- Node25 -->
<g id="node26" class="node">
<title>Node25</title>
<g id="a_node26"><a xlink:href="Rectangle_8inl_8hxx.html" target="_top" xlink:title="Rectangle.inl.hxx">
<polygon fill="none" stroke="#000000" points="224.3563,-168.5 224.3563,-187.5 325.3563,-187.5 325.3563,-168.5 224.3563,-168.5"/>
<text text-anchor="middle" x="274.8563" y="-175.5" font-family="Helvetica,sans-Serif" font-size="10.00" fill="#000000">Rectangle.inl.hxx</text>
</a>
</g>
</g>
<!-- Node23&#45;&gt;Node25 -->
<g id="edge30" class="edge">
<title>Node23&#45;&gt;Node25</title>
<path fill="none" stroke="#191970" d="M264.1207,-224.2455C265.8357,-216.8579 268.2474,-206.4689 270.3507,-197.4087"/>
<polygon fill="#191970" stroke="#191970" points="273.7658,-198.1751 272.6178,-187.6427 266.9471,-196.5922 273.7658,-198.1751"/>
</g>
<!-- Node25&#45;&gt;Node1 -->
<g id="edge32" class="edge">
<title>Node25&#45;&gt;Node1</title>
<path fill="none" stroke="#191970" d="M319.598,-168.4369C369.7056,-157.7269 450.1231,-140.5384 497.7909,-130.3498"/>
<polygon fill="#191970" stroke="#191970" points="498.6824,-133.7384 507.73,-128.2255 497.2193,-126.8931 498.6824,-133.7384"/>
</g>
<!-- Node25&#45;&gt;Node12 -->
<g id="edge31" class="edge">
<title>Node25&#45;&gt;Node12</title>
<path fill="none" stroke="#191970" d="M273.2364,-168.4509C270.1375,-150.184 263.313,-109.9553 259.1978,-85.6976"/>
<polygon fill="#191970" stroke="#191970" points="262.5954,-84.7986 257.4721,-75.5249 255.694,-85.9694 262.5954,-84.7986"/>
</g>
<!-- Node26&#45;&gt;Node14 -->
<g id="edge35" class="edge">
<title>Node26&#45;&gt;Node14</title>
<path fill="none" stroke="#191970" d="M336.5173,-224.9699C293.3827,-216.1948 234.1446,-202.1553 214.8563,-188 178.5351,-161.3446 154.842,-112.2217 143.8961,-85.1505"/>
<polygon fill="#191970" stroke="#191970" points="147.0877,-83.6999 140.2113,-75.6398 140.5605,-86.2289 147.0877,-83.6999"/>
</g>
<!-- Node27 -->
<g id="node28" class="node">
<title>Node27</title>
<polygon fill="none" stroke="#bfbfbf" points="345.3563,-168.5 345.3563,-187.5 398.3563,-187.5 398.3563,-168.5 345.3563,-168.5"/>
<text text-anchor="middle" x="371.8563" y="-175.5" font-family="Helvetica,sans-Serif" font-size="10.00" fill="#000000">iterator</text>
</g>
<!-- Node26&#45;&gt;Node27 -->
<g id="edge34" class="edge">
<title>Node26&#45;&gt;Node27</title>
<path fill="none" stroke="#191970" d="M382.5919,-224.2455C380.8769,-216.8579 378.4651,-206.4689 376.3619,-197.4087"/>
<polygon fill="#191970" stroke="#191970" points="379.7655,-196.5922 374.0948,-187.6427 372.9468,-198.1751 379.7655,-196.5922"/>
</g>
<!-- Node28 -->
<g id="node29" class="node">
<title>Node28</title>
<g id="a_node29"><a xlink:href="Range_8inl_8hxx.html" target="_top" xlink:title="Range.inl.hxx">
<polygon fill="none" stroke="#000000" points="416.3563,-168.5 416.3563,-187.5 499.3563,-187.5 499.3563,-168.5 416.3563,-168.5"/>
<text text-anchor="middle" x="457.8563" y="-175.5" font-family="Helvetica,sans-Serif" font-size="10.00" fill="#000000">Range.inl.hxx</text>
</a>
</g>
</g>
<!-- Node26&#45;&gt;Node28 -->
<g id="edge36" class="edge">
<title>Node26&#45;&gt;Node28</title>
<path fill="none" stroke="#191970" d="M397.5719,-224.2455C408.4583,-215.8943 424.3446,-203.7076 437.0763,-193.9408"/>
<polygon fill="#191970" stroke="#191970" points="439.4824,-196.5063 445.2864,-187.6427 435.2217,-190.9523 439.4824,-196.5063"/>
</g>
<!-- Node29&#45;&gt;Node6 -->
<g id="edge39" class="edge">
<title>Node29&#45;&gt;Node6</title>
<path fill="none" stroke="#191970" d="M717.5352,-224.4647C763.5128,-197.0454 885.2277,-116.1094 831.8563,-56 809.1276,-30.4019 579.9631,-16.485 485.8631,-11.8126"/>
<polygon fill="#191970" stroke="#191970" points="486.0262,-8.3165 475.8678,-11.326 485.6857,-15.3082 486.0262,-8.3165"/>
</g>
<!-- Node30 -->
<g id="node31" class="node">
<title>Node30</title>
<polygon fill="none" stroke="#bfbfbf" points="675.8563,-168.5 675.8563,-187.5 725.8563,-187.5 725.8563,-168.5 675.8563,-168.5"/>
<text text-anchor="middle" x="700.8563" y="-175.5" font-family="Helvetica,sans-Serif" font-size="10.00" fill="#000000">cstdint</text>
</g>
<!-- Node29&#45;&gt;Node30 -->
<g id="edge38" class="edge">
<title>Node29&#45;&gt;Node30</title>
<path fill="none" stroke="#191970" d="M700.8563,-224.2455C700.8563,-216.9382 700.8563,-206.6944 700.8563,-197.7046"/>
<polygon fill="#191970" stroke="#191970" points="704.3564,-197.6426 700.8563,-187.6427 697.3564,-197.6427 704.3564,-197.6426"/>
</g>
</g>
</svg>
