<?xml version="1.0" encoding="UTF-8" standalone="no"?>
<!DOCTYPE svg PUBLIC "-//W3C//DTD SVG 1.1//EN"
 "http://www.w3.org/Graphics/SVG/1.1/DTD/svg11.dtd">
<!-- Generated by graphviz version 2.40.1 (20161225.0304)
 -->
<!-- Title: src/util/LOG.hxx Pages: 1 -->
<svg width="854pt" height="140pt"
 viewBox="0.00 0.00 853.50 140.00" xmlns="http://www.w3.org/2000/svg" xmlns:xlink="http://www.w3.org/1999/xlink">
<g id="graph0" class="graph" transform="scale(1 1) rotate(0) translate(4 136)">
<title>src/util/LOG.hxx</title>
<!-- Node0 -->
<g id="node1" class="node">
<title>Node0</title>
<polygon fill="#bfbfbf" stroke="#000000" points="352,-112.5 352,-131.5 446,-131.5 446,-112.5 352,-112.5"/>
<text text-anchor="middle" x="399" y="-119.5" font-family="Helvetica,sans-Serif" font-size="10.00" fill="#000000">src/util/LOG.hxx</text>
</g>
<!-- Node1 -->
<g id="node2" class="node">
<title>Node1</title>
<polygon fill="none" stroke="#bfbfbf" points="0,-56.5 0,-75.5 44,-75.5 44,-56.5 0,-56.5"/>
<text text-anchor="middle" x="22" y="-63.5" font-family="Helvetica,sans-Serif" font-size="10.00" fill="#000000">string</text>
</g>
<!-- Node0&#45;&gt;Node1 -->
<g id="edge1" class="edge">
<title>Node0&#45;&gt;Node1</title>
<path fill="none" stroke="#191970" d="M351.7965,-118.4326C286.711,-112.9212 165.7169,-100.5475 54.28,-75.9559"/>
<polygon fill="#191970" stroke="#191970" points="54.7421,-72.4726 44.2181,-73.6958 53.2079,-79.3024 54.7421,-72.4726"/>
</g>
<!-- Node2 -->
<g id="node3" class="node">
<title>Node2</title>
<g id="a_node3"><a xlink:href="Exception_8hxx.html" target="_top" xlink:title="Exception.hxx">
<polygon fill="none" stroke="#000000" points="62,-56.5 62,-75.5 148,-75.5 148,-56.5 62,-56.5"/>
<text text-anchor="middle" x="105" y="-63.5" font-family="Helvetica,sans-Serif" font-size="10.00" fill="#000000">Exception.hxx</text>
</a>
</g>
</g>
<!-- Node0&#45;&gt;Node2 -->
<g id="edge2" class="edge">
<title>Node0&#45;&gt;Node2</title>
<path fill="none" stroke="#191970" d="M351.7638,-113.0026C298.8924,-102.9319 213.42,-86.6514 158.2258,-76.1383"/>
<polygon fill="#191970" stroke="#191970" points="158.7652,-72.6781 148.2869,-74.2451 157.4554,-79.5545 158.7652,-72.6781"/>
</g>
<!-- Node5 -->
<g id="node6" class="node">
<title>Node5</title>
<polygon fill="none" stroke="#bfbfbf" points="386,-.5 386,-19.5 446,-19.5 446,-.5 386,-.5"/>
<text text-anchor="middle" x="416" y="-7.5" font-family="Helvetica,sans-Serif" font-size="10.00" fill="#000000">iostream</text>
</g>
<!-- Node0&#45;&gt;Node5 -->
<g id="edge5" class="edge">
<title>Node0&#45;&gt;Node5</title>
<path fill="none" stroke="#191970" d="M351.9263,-118.0741C297.9084,-112.4786 214.2725,-100.1021 195,-76 189.4488,-69.0576 189.3915,-62.8961 195,-56 217.3476,-28.522 318.3093,-16.9143 375.7329,-12.4645"/>
<polygon fill="#191970" stroke="#191970" points="376.2036,-15.9394 385.9197,-11.7147 375.6897,-8.9583 376.2036,-15.9394"/>
</g>
<!-- Node6 -->
<g id="node7" class="node">
<title>Node6</title>
<polygon fill="none" stroke="#bfbfbf" points="204,-56.5 204,-75.5 254,-75.5 254,-56.5 204,-56.5"/>
<text text-anchor="middle" x="229" y="-63.5" font-family="Helvetica,sans-Serif" font-size="10.00" fill="#000000">chrono</text>
</g>
<!-- Node0&#45;&gt;Node6 -->
<g id="edge6" class="edge">
<title>Node0&#45;&gt;Node6</title>
<path fill="none" stroke="#191970" d="M369.776,-112.3733C340.3939,-102.6945 295.0924,-87.7716 263.8548,-77.4816"/>
<polygon fill="#191970" stroke="#191970" points="264.838,-74.1205 254.245,-74.316 262.6478,-80.7691 264.838,-74.1205"/>
</g>
<!-- Node7 -->
<g id="node8" class="node">
<title>Node7</title>
<polygon fill="none" stroke="#bfbfbf" points="272,-56.5 272,-75.5 316,-75.5 316,-56.5 272,-56.5"/>
<text text-anchor="middle" x="294" y="-63.5" font-family="Helvetica,sans-Serif" font-size="10.00" fill="#000000">ctime</text>
</g>
<!-- Node0&#45;&gt;Node7 -->
<g id="edge7" class="edge">
<title>Node0&#45;&gt;Node7</title>
<path fill="none" stroke="#191970" d="M380.7104,-112.2455C364.2238,-103.4527 339.7648,-90.4079 321.0235,-80.4125"/>
<polygon fill="#191970" stroke="#191970" points="322.5506,-77.2604 312.08,-75.6427 319.2565,-83.4368 322.5506,-77.2604"/>
</g>
<!-- Node8 -->
<g id="node9" class="node">
<title>Node8</title>
<polygon fill="none" stroke="#bfbfbf" points="334.5,-56.5 334.5,-75.5 389.5,-75.5 389.5,-56.5 334.5,-56.5"/>
<text text-anchor="middle" x="362" y="-63.5" font-family="Helvetica,sans-Serif" font-size="10.00" fill="#000000">fstream</text>
</g>
<!-- Node0&#45;&gt;Node8 -->
<g id="edge8" class="edge">
<title>Node0&#45;&gt;Node8</title>
<path fill="none" stroke="#191970" d="M392.5551,-112.2455C387.4618,-104.5367 380.2092,-93.5598 374.048,-84.2348"/>
<polygon fill="#191970" stroke="#191970" points="376.8038,-82.0566 368.3711,-75.6427 370.9635,-85.9155 376.8038,-82.0566"/>
</g>
<!-- Node9 -->
<g id="node10" class="node">
<title>Node9</title>
<polygon fill="none" stroke="#bfbfbf" points="408,-56.5 408,-75.5 464,-75.5 464,-56.5 408,-56.5"/>
<text text-anchor="middle" x="436" y="-63.5" font-family="Helvetica,sans-Serif" font-size="10.00" fill="#000000">sstream</text>
</g>
<!-- Node0&#45;&gt;Node9 -->
<g id="edge9" class="edge">
<title>Node0&#45;&gt;Node9</title>
<path fill="none" stroke="#191970" d="M405.4449,-112.2455C410.5382,-104.5367 417.7908,-93.5598 423.952,-84.2348"/>
<polygon fill="#191970" stroke="#191970" points="427.0365,-85.9155 429.6289,-75.6427 421.1962,-82.0566 427.0365,-85.9155"/>
</g>
<!-- Node10 -->
<g id="node11" class="node">
<title>Node10</title>
<polygon fill="none" stroke="#bfbfbf" points="482,-56.5 482,-75.5 526,-75.5 526,-56.5 482,-56.5"/>
<text text-anchor="middle" x="504" y="-63.5" font-family="Helvetica,sans-Serif" font-size="10.00" fill="#000000">SDL.h</text>
</g>
<!-- Node0&#45;&gt;Node10 -->
<g id="edge10" class="edge">
<title>Node0&#45;&gt;Node10</title>
<path fill="none" stroke="#191970" d="M417.2896,-112.2455C433.7762,-103.4527 458.2352,-90.4079 476.9765,-80.4125"/>
<polygon fill="#191970" stroke="#191970" points="478.7435,-83.4368 485.92,-75.6427 475.4494,-77.2604 478.7435,-83.4368"/>
</g>
<!-- Node11 -->
<g id="node12" class="node">
<title>Node11</title>
<polygon fill="none" stroke="#bfbfbf" points="544,-56.5 544,-75.5 608,-75.5 608,-56.5 544,-56.5"/>
<text text-anchor="middle" x="576" y="-63.5" font-family="Helvetica,sans-Serif" font-size="10.00" fill="#000000">algorithm</text>
</g>
<!-- Node0&#45;&gt;Node11 -->
<g id="edge11" class="edge">
<title>Node0&#45;&gt;Node11</title>
<path fill="none" stroke="#191970" d="M429.4274,-112.3733C458.9872,-103.021 504.0226,-88.7725 536.3695,-78.5385"/>
<polygon fill="#191970" stroke="#191970" points="537.4913,-81.8546 545.9697,-75.5011 535.3797,-75.1807 537.4913,-81.8546"/>
</g>
<!-- Node12 -->
<g id="node13" class="node">
<title>Node12</title>
<polygon fill="none" stroke="#bfbfbf" points="626,-56.5 626,-75.5 674,-75.5 674,-56.5 626,-56.5"/>
<text text-anchor="middle" x="650" y="-63.5" font-family="Helvetica,sans-Serif" font-size="10.00" fill="#000000">mutex</text>
</g>
<!-- Node0&#45;&gt;Node12 -->
<g id="edge12" class="edge">
<title>Node0&#45;&gt;Node12</title>
<path fill="none" stroke="#191970" d="M446.0488,-113.2897C488.2198,-105.2095 551.9505,-92.3281 616.046,-76.0874"/>
<polygon fill="#191970" stroke="#191970" points="617.0977,-79.4311 625.917,-73.5599 615.3613,-72.6499 617.0977,-79.4311"/>
</g>
<!-- Node13 -->
<g id="node14" class="node">
<title>Node13</title>
<g id="a_node14"><a xlink:href="Meta_8hxx.html" target="_top" xlink:title="Meta.hxx">
<polygon fill="none" stroke="#000000" points="692,-56.5 692,-75.5 754,-75.5 754,-56.5 692,-56.5"/>
<text text-anchor="middle" x="723" y="-63.5" font-family="Helvetica,sans-Serif" font-size="10.00" fill="#000000">Meta.hxx</text>
</a>
</g>
</g>
<!-- Node0&#45;&gt;Node13 -->
<g id="edge13" class="edge">
<title>Node0&#45;&gt;Node13</title>
<path fill="none" stroke="#191970" d="M446.2079,-115.5983C500.7019,-107.9323 593.206,-94.0729 681.6833,-76.1455"/>
<polygon fill="#191970" stroke="#191970" points="682.5196,-79.547 691.6144,-74.1123 681.1156,-72.6892 682.5196,-79.547"/>
</g>
<!-- Node17 -->
<g id="node18" class="node">
<title>Node17</title>
<g id="a_node18"><a xlink:href="LOG_8inl_8hxx.html" target="_top" xlink:title="LOG.inl.hxx">
<polygon fill="none" stroke="#000000" points="772.5,-56.5 772.5,-75.5 845.5,-75.5 845.5,-56.5 772.5,-56.5"/>
<text text-anchor="middle" x="809" y="-63.5" font-family="Helvetica,sans-Serif" font-size="10.00" fill="#000000">LOG.inl.hxx</text>
</a>
</g>
</g>
<!-- Node0&#45;&gt;Node17 -->
<g id="edge18" class="edge">
<title>Node0&#45;&gt;Node17</title>
<path fill="none" stroke="#191970" d="M446.0265,-117.3995C513.6736,-110.4868 642.5447,-96.2194 762.3202,-75.983"/>
<polygon fill="#191970" stroke="#191970" points="763.1304,-79.3954 772.3987,-74.2622 761.9522,-72.4952 763.1304,-79.3954"/>
</g>
<!-- Node3 -->
<g id="node4" class="node">
<title>Node3</title>
<polygon fill="none" stroke="#bfbfbf" points="31.5,-.5 31.5,-19.5 96.5,-19.5 96.5,-.5 31.5,-.5"/>
<text text-anchor="middle" x="64" y="-7.5" font-family="Helvetica,sans-Serif" font-size="10.00" fill="#000000">stdexcept</text>
</g>
<!-- Node2&#45;&gt;Node3 -->
<g id="edge3" class="edge">
<title>Node2&#45;&gt;Node3</title>
<path fill="none" stroke="#191970" d="M97.8583,-56.2455C92.1556,-48.4564 84.01,-37.3308 77.1375,-27.9439"/>
<polygon fill="#191970" stroke="#191970" points="79.7913,-25.6437 71.0598,-19.6427 74.1432,-29.7789 79.7913,-25.6437"/>
</g>
<!-- Node4 -->
<g id="node5" class="node">
<title>Node4</title>
<polygon fill="none" stroke="#bfbfbf" points="114.5,-.5 114.5,-19.5 179.5,-19.5 179.5,-.5 114.5,-.5"/>
<text text-anchor="middle" x="147" y="-7.5" font-family="Helvetica,sans-Serif" font-size="10.00" fill="#000000">exception</text>
</g>
<!-- Node2&#45;&gt;Node4 -->
<g id="edge4" class="edge">
<title>Node2&#45;&gt;Node4</title>
<path fill="none" stroke="#191970" d="M112.3158,-56.2455C118.2179,-48.3761 126.6742,-37.101 133.7594,-27.6542"/>
<polygon fill="#191970" stroke="#191970" points="136.568,-29.7427 139.768,-19.6427 130.9679,-25.5427 136.568,-29.7427"/>
</g>
<!-- Node13&#45;&gt;Node5 -->
<g id="edge14" class="edge">
<title>Node13&#45;&gt;Node5</title>
<path fill="none" stroke="#191970" d="M691.6082,-57.9177C688.7044,-57.2409 685.8017,-56.5907 683,-56 602.9592,-39.1244 508.4508,-23.9487 456.0681,-15.9511"/>
<polygon fill="#191970" stroke="#191970" points="456.582,-12.4891 446.17,-14.4489 455.5316,-19.4099 456.582,-12.4891"/>
</g>
<!-- Node14 -->
<g id="node15" class="node">
<title>Node14</title>
<polygon fill="none" stroke="#bfbfbf" points="610.5,-.5 610.5,-19.5 679.5,-19.5 679.5,-.5 610.5,-.5"/>
<text text-anchor="middle" x="645" y="-7.5" font-family="Helvetica,sans-Serif" font-size="10.00" fill="#000000">type_traits</text>
</g>
<!-- Node13&#45;&gt;Node14 -->
<g id="edge15" class="edge">
<title>Node13&#45;&gt;Node14</title>
<path fill="none" stroke="#191970" d="M709.4134,-56.2455C697.6695,-47.814 680.4801,-35.4729 666.8118,-25.6598"/>
<polygon fill="#191970" stroke="#191970" points="668.5954,-22.6316 658.4309,-19.6427 664.5129,-28.3179 668.5954,-22.6316"/>
</g>
<!-- Node15 -->
<g id="node16" class="node">
<title>Node15</title>
<polygon fill="none" stroke="#bfbfbf" points="697.5,-.5 697.5,-19.5 748.5,-19.5 748.5,-.5 697.5,-.5"/>
<text text-anchor="middle" x="723" y="-7.5" font-family="Helvetica,sans-Serif" font-size="10.00" fill="#000000">variant</text>
</g>
<!-- Node13&#45;&gt;Node15 -->
<g id="edge16" class="edge">
<title>Node13&#45;&gt;Node15</title>
<path fill="none" stroke="#191970" d="M723,-56.2455C723,-48.9382 723,-38.6944 723,-29.7046"/>
<polygon fill="#191970" stroke="#191970" points="726.5001,-29.6426 723,-19.6427 719.5001,-29.6427 726.5001,-29.6426"/>
</g>
<!-- Node16 -->
<g id="node17" class="node">
<title>Node16</title>
<polygon fill="none" stroke="#bfbfbf" points="766.5,-.5 766.5,-19.5 807.5,-19.5 807.5,-.5 766.5,-.5"/>
<text text-anchor="middle" x="787" y="-7.5" font-family="Helvetica,sans-Serif" font-size="10.00" fill="#000000">tuple</text>
</g>
<!-- Node13&#45;&gt;Node16 -->
<g id="edge17" class="edge">
<title>Node13&#45;&gt;Node16</title>
<path fill="none" stroke="#191970" d="M734.1479,-56.2455C743.5087,-48.0549 757.0858,-36.1749 768.1349,-26.5069"/>
<polygon fill="#191970" stroke="#191970" points="770.7588,-28.8618 775.9798,-19.6427 766.1492,-23.5937 770.7588,-28.8618"/>
</g>
</g>
</svg>
