<?xml version="1.0" encoding="UTF-8" standalone="no"?>
<!DOCTYPE svg PUBLIC "-//W3C//DTD SVG 1.1//EN"
 "http://www.w3.org/Graphics/SVG/1.1/DTD/svg11.dtd">
<!-- Generated by graphviz version 2.40.1 (20161225.0304)
 -->
<!-- Title: src/util/LOG.hxx Pages: 1 -->
<svg width="5743pt" height="487pt"
 viewBox="0.00 0.00 5743.00 487.00" xmlns="http://www.w3.org/2000/svg" xmlns:xlink="http://www.w3.org/1999/xlink">
<g id="graph0" class="graph" transform="scale(1 1) rotate(0) translate(4 483)">
<title>src/util/LOG.hxx</title>
<!-- Node18 -->
<g id="node1" class="node">
<title>Node18</title>
<polygon fill="#bfbfbf" stroke="#000000" points="2331.5,-459.5 2331.5,-478.5 2425.5,-478.5 2425.5,-459.5 2331.5,-459.5"/>
<text text-anchor="middle" x="2378.5" y="-466.5" font-family="Helvetica,sans-Serif" font-size="10.00" fill="#000000">src/util/LOG.hxx</text>
</g>
<!-- Node19 -->
<g id="node2" class="node">
<title>Node19</title>
<g id="a_node2"><a xlink:href="iActivity_8cxx.html" target="_top" xlink:title="src/activity/iActivity.cxx">
<polygon fill="none" stroke="#000000" points="497,-56.5 497,-75.5 630,-75.5 630,-56.5 497,-56.5"/>
<text text-anchor="middle" x="563.5" y="-63.5" font-family="Helvetica,sans-Serif" font-size="10.00" fill="#000000">src/activity/iActivity.cxx</text>
</a>
</g>
</g>
<!-- Node18&#45;&gt;Node19 -->
<g id="edge1" class="edge">
<title>Node18&#45;&gt;Node19</title>
<path fill="none" stroke="#191970" d="M2321.0264,-468.4532C1994.1889,-465.2525 382.7453,-448.2132 338.5,-423 303.4625,-403.0339 290.5,-386.3271 290.5,-346 290.5,-346 290.5,-346 290.5,-178 290.5,-130.0365 436.5583,-92.317 515.0076,-75.5167"/>
<polygon fill="#191970" stroke="#191970" points="2321.1818,-471.9548 2331.2155,-468.5526 2321.2502,-464.9551 2321.1818,-471.9548"/>
</g>
<!-- Node20 -->
<g id="node3" class="node">
<title>Node20</title>
<g id="a_node3"><a xlink:href="Rectangle_8inl_8hxx.html" target="_top" xlink:title="src/util/Rectangle.inl.hxx">
<polygon fill="none" stroke="#000000" points="612,-398 612,-417 749,-417 749,-398 612,-398"/>
<text text-anchor="middle" x="680.5" y="-405" font-family="Helvetica,sans-Serif" font-size="10.00" fill="#000000">src/util/Rectangle.inl.hxx</text>
</a>
</g>
</g>
<!-- Node18&#45;&gt;Node20 -->
<g id="edge2" class="edge">
<title>Node18&#45;&gt;Node20</title>
<path fill="none" stroke="#191970" d="M2320.9843,-468.5667C2070.6557,-466.4954 1074.7154,-456.2854 763.5,-423 750.8191,-421.6437 737.1713,-419.4192 724.6783,-417.0731"/>
<polygon fill="#191970" stroke="#191970" points="2321.2771,-472.0691 2331.3054,-468.651 2321.3343,-465.0694 2321.2771,-472.0691"/>
</g>
<!-- Node26 -->
<g id="node9" class="node">
<title>Node26</title>
<g id="a_node9"><a xlink:href="Camera_8cxx.html" target="_top" xlink:title="src/engine/basics/Camera.cxx">
<polygon fill="none" stroke="#000000" points="302.5,-56.5 302.5,-75.5 464.5,-75.5 464.5,-56.5 302.5,-56.5"/>
<text text-anchor="middle" x="383.5" y="-63.5" font-family="Helvetica,sans-Serif" font-size="10.00" fill="#000000">src/engine/basics/Camera.cxx</text>
</a>
</g>
</g>
<!-- Node18&#45;&gt;Node26 -->
<g id="edge23" class="edge">
<title>Node18&#45;&gt;Node26</title>
<path fill="none" stroke="#191970" d="M2320.9311,-468.4981C1989.9282,-465.5183 342.3163,-449.3797 297.5,-423 263.3405,-402.8931 252.5,-385.6379 252.5,-346 252.5,-346 252.5,-346 252.5,-178 252.5,-124.1402 317.2644,-90.6496 355.7183,-75.5116"/>
<polygon fill="#191970" stroke="#191970" points="2321.2135,-472.0007 2331.2445,-468.5905 2321.2763,-465.0009 2321.2135,-472.0007"/>
</g>
<!-- Node27 -->
<g id="node10" class="node">
<title>Node27</title>
<g id="a_node10"><a xlink:href="Map_8cxx.html" target="_top" xlink:title="src/engine/Map.cxx">
<polygon fill="none" stroke="#000000" points="159.5,-56.5 159.5,-75.5 269.5,-75.5 269.5,-56.5 159.5,-56.5"/>
<text text-anchor="middle" x="214.5" y="-63.5" font-family="Helvetica,sans-Serif" font-size="10.00" fill="#000000">src/engine/Map.cxx</text>
</a>
</g>
</g>
<!-- Node18&#45;&gt;Node27 -->
<g id="edge33" class="edge">
<title>Node18&#45;&gt;Node27</title>
<path fill="none" stroke="#191970" d="M2320.9614,-468.5217C1986.4397,-465.6472 305.1887,-449.881 259.5,-423 225.3365,-402.8999 214.5,-385.6379 214.5,-346 214.5,-346 214.5,-346 214.5,-178 214.5,-140.0833 214.5,-94.9462 214.5,-75.5884"/>
<polygon fill="#191970" stroke="#191970" points="2321.3492,-472.0251 2331.3788,-468.6108 2321.4091,-465.0253 2321.3492,-472.0251"/>
</g>
<!-- Node28 -->
<g id="node11" class="node">
<title>Node28</title>
<g id="a_node11"><a xlink:href="WindowManager_8cxx.html" target="_top" xlink:title="src/engine/WindowManager.cxx">
<polygon fill="none" stroke="#000000" points="648.5,-56.5 648.5,-75.5 818.5,-75.5 818.5,-56.5 648.5,-56.5"/>
<text text-anchor="middle" x="733.5" y="-63.5" font-family="Helvetica,sans-Serif" font-size="10.00" fill="#000000">src/engine/WindowManager.cxx</text>
</a>
</g>
</g>
<!-- Node18&#45;&gt;Node28 -->
<g id="edge42" class="edge">
<title>Node18&#45;&gt;Node28</title>
<path fill="none" stroke="#191970" d="M2320.9155,-468.843C2055.5018,-467.9127 960.4437,-461.7323 899.5,-423 826.9571,-376.896 858.5,-319.9538 858.5,-234 858.5,-234 858.5,-234 858.5,-178 858.5,-148.8618 782.2061,-96.8926 748.8275,-75.5505"/>
<polygon fill="#191970" stroke="#191970" points="2321.0925,-472.3435 2331.1044,-468.8776 2321.1163,-465.3436 2321.0925,-472.3435"/>
</g>
<!-- Node29 -->
<g id="node12" class="node">
<title>Node29</title>
<g id="a_node12"><a xlink:href="Game_8hxx.html" target="_top" xlink:title="src/Game.hxx">
<polygon fill="none" stroke="#000000" points="1161.5,-56.5 1161.5,-75.5 1245.5,-75.5 1245.5,-56.5 1161.5,-56.5"/>
<text text-anchor="middle" x="1203.5" y="-63.5" font-family="Helvetica,sans-Serif" font-size="10.00" fill="#000000">src/Game.hxx</text>
</a>
</g>
</g>
<!-- Node18&#45;&gt;Node29 -->
<g id="edge47" class="edge">
<title>Node18&#45;&gt;Node29</title>
<path fill="none" stroke="#191970" d="M2321.2667,-468.5468C2106.918,-466.5879 1361.9946,-457.3261 1325.5,-423 1282.2046,-382.2772 1311.5,-349.4377 1311.5,-290 1311.5,-290 1311.5,-290 1311.5,-178 1311.5,-128.0278 1255.0989,-91.791 1223.814,-75.5348"/>
<polygon fill="#191970" stroke="#191970" points="2321.3346,-472.0475 2331.3656,-468.6373 2321.3974,-465.0478 2321.3346,-472.0475"/>
</g>
<!-- Node30 -->
<g id="node13" class="node">
<title>Node30</title>
<g id="a_node13"><a xlink:href="Game_8cxx.html" target="_top" xlink:title="src/Game.cxx">
<polygon fill="none" stroke="#000000" points="1185,-.5 1185,-19.5 1268,-19.5 1268,-.5 1185,-.5"/>
<text text-anchor="middle" x="1226.5" y="-7.5" font-family="Helvetica,sans-Serif" font-size="10.00" fill="#000000">src/Game.cxx</text>
</a>
</g>
</g>
<!-- Node18&#45;&gt;Node30 -->
<g id="edge48" class="edge">
<title>Node18&#45;&gt;Node30</title>
<path fill="none" stroke="#191970" d="M2321.1134,-468.4936C2103.5134,-466.3247 1339.5752,-456.3544 1300.5,-423 1254.6237,-383.8402 1273.5,-350.3169 1273.5,-290 1273.5,-290 1273.5,-290 1273.5,-122 1273.5,-81.3018 1246.7864,-38.3109 1233.6383,-19.6161"/>
<polygon fill="#191970" stroke="#191970" points="2321.3254,-471.9957 2331.3592,-468.5939 2321.394,-464.996 2321.3254,-471.9957"/>
</g>
<!-- Node31 -->
<g id="node14" class="node">
<title>Node31</title>
<g id="a_node14"><a xlink:href="main_8cxx.html" target="_top" xlink:title="src/main.cxx">
<polygon fill="none" stroke="#000000" points="1298,-.5 1298,-19.5 1377,-19.5 1377,-.5 1298,-.5"/>
<text text-anchor="middle" x="1337.5" y="-7.5" font-family="Helvetica,sans-Serif" font-size="10.00" fill="#000000">src/main.cxx</text>
</a>
</g>
</g>
<!-- Node18&#45;&gt;Node31 -->
<g id="edge50" class="edge">
<title>Node18&#45;&gt;Node31</title>
<path fill="none" stroke="#191970" d="M2321.2996,-468.5051C2111.2887,-466.4212 1393.1076,-456.8376 1358.5,-423 1316.1379,-381.5805 1349.5,-349.2463 1349.5,-290 1349.5,-290 1349.5,-290 1349.5,-122 1349.5,-83.8663 1342.5374,-38.8428 1339.2193,-19.5514"/>
<polygon fill="#191970" stroke="#191970" points="2321.4619,-472.0067 2331.4955,-468.6043 2321.5301,-465.0071 2321.4619,-472.0067"/>
</g>
<!-- Node32 -->
<g id="node15" class="node">
<title>Node32</title>
<g id="a_node15"><a xlink:href="Window_8cxx.html" target="_top" xlink:title="src/view/Window.cxx">
<polygon fill="none" stroke="#000000" points="837,-56.5 837,-75.5 956,-75.5 956,-56.5 837,-56.5"/>
<text text-anchor="middle" x="896.5" y="-63.5" font-family="Helvetica,sans-Serif" font-size="10.00" fill="#000000">src/view/Window.cxx</text>
</a>
</g>
</g>
<!-- Node18&#45;&gt;Node32 -->
<g id="edge66" class="edge">
<title>Node18&#45;&gt;Node32</title>
<path fill="none" stroke="#191970" d="M2321.037,-468.6033C2076.4133,-466.7086 1128.3901,-457.2045 999.5,-423 937.8174,-406.6309 905.4571,-410.6491 872.5,-356 867.9095,-348.3882 871.4752,-344.8296 872.5,-336 877.8691,-289.7392 896.5,-280.5713 896.5,-234 896.5,-234 896.5,-234 896.5,-178 896.5,-140.0833 896.5,-94.9462 896.5,-75.5884"/>
<polygon fill="#191970" stroke="#191970" points="2321.1117,-472.1039 2331.1381,-468.6803 2321.1651,-465.1041 2321.1117,-472.1039"/>
</g>
<!-- Node33 -->
<g id="node16" class="node">
<title>Node33</title>
<g id="a_node16"><a xlink:href="iLayout_8cxx.html" target="_top" xlink:title="src/layout/iLayout.cxx">
<polygon fill="none" stroke="#000000" points="390.5,-168.5 390.5,-187.5 514.5,-187.5 514.5,-168.5 390.5,-168.5"/>
<text text-anchor="middle" x="452.5" y="-175.5" font-family="Helvetica,sans-Serif" font-size="10.00" fill="#000000">src/layout/iLayout.cxx</text>
</a>
</g>
</g>
<!-- Node18&#45;&gt;Node33 -->
<g id="edge49" class="edge">
<title>Node18&#45;&gt;Node33</title>
<path fill="none" stroke="#191970" d="M2321.0058,-468.6066C2030.168,-466.4754 727.9147,-455.1944 550.5,-423 447.745,-404.3536 328.5,-450.4331 328.5,-346 328.5,-346 328.5,-346 328.5,-290 328.5,-259.4754 327.3933,-246.9668 347.5,-224 363.5589,-205.6567 388.2916,-194.3355 409.7198,-187.5163"/>
<polygon fill="#191970" stroke="#191970" points="2321.2957,-472.1087 2331.3208,-468.6815 2321.3465,-465.1089 2321.2957,-472.1087"/>
</g>
<!-- Node34 -->
<g id="node17" class="node">
<title>Node34</title>
<g id="a_node17"><a xlink:href="iViewElement_8cxx.html" target="_top" xlink:title="src/view/iViewElement.cxx">
<polygon fill="none" stroke="#000000" points="356.5,-224.5 356.5,-243.5 504.5,-243.5 504.5,-224.5 356.5,-224.5"/>
<text text-anchor="middle" x="430.5" y="-231.5" font-family="Helvetica,sans-Serif" font-size="10.00" fill="#000000">src/view/iViewElement.cxx</text>
</a>
</g>
</g>
<!-- Node18&#45;&gt;Node34 -->
<g id="edge65" class="edge">
<title>Node18&#45;&gt;Node34</title>
<path fill="none" stroke="#191970" d="M2321.0174,-468.7767C2024.8992,-467.4668 682.3185,-459.5268 602.5,-423 515.7637,-383.3075 453.3992,-276.9772 435.6479,-243.9364"/>
<polygon fill="#191970" stroke="#191970" points="2321.0908,-472.277 2331.106,-468.8205 2321.1213,-465.277 2321.0908,-472.277"/>
</g>
<!-- Node54 -->
<g id="node19" class="node">
<title>Node54</title>
<g id="a_node19"><a xlink:href="Rectangle_8cxx.html" target="_top" xlink:title="src/util/Rectangle.cxx">
<polygon fill="none" stroke="#000000" points="709,-280.5 709,-299.5 830,-299.5 830,-280.5 709,-280.5"/>
<text text-anchor="middle" x="769.5" y="-287.5" font-family="Helvetica,sans-Serif" font-size="10.00" fill="#000000">src/util/Rectangle.cxx</text>
</a>
</g>
</g>
<!-- Node18&#45;&gt;Node54 -->
<g id="edge64" class="edge">
<title>Node18&#45;&gt;Node54</title>
<path fill="none" stroke="#191970" d="M2321.109,-468.2741C2041.2144,-464.6173 831.5815,-447.4215 801.5,-423 763.5177,-392.1643 765.9425,-324.8344 768.3385,-299.7099"/>
<polygon fill="#191970" stroke="#191970" points="2321.3958,-471.778 2331.4405,-468.4084 2321.4869,-464.7786 2321.3958,-471.778"/>
</g>
<!-- Node55 -->
<g id="node20" class="node">
<title>Node55</title>
<g id="a_node20"><a xlink:href="compression_8hxx.html" target="_top" xlink:title="src/engine/basics/compression.hxx">
<polygon fill="none" stroke="#000000" points="0,-112.5 0,-131.5 187,-131.5 187,-112.5 0,-112.5"/>
<text text-anchor="middle" x="93.5" y="-119.5" font-family="Helvetica,sans-Serif" font-size="10.00" fill="#000000">src/engine/basics/compression.hxx</text>
</a>
</g>
</g>
<!-- Node18&#45;&gt;Node55 -->
<g id="edge24" class="edge">
<title>Node18&#45;&gt;Node55</title>
<path fill="none" stroke="#191970" d="M2321.3023,-468.4391C1982.3061,-465.0362 249.7594,-446.5168 200.5,-423 160.0842,-403.7052 135.5,-390.7854 135.5,-346 135.5,-346 135.5,-346 135.5,-234 135.5,-193.9203 111.6283,-150.6153 99.8789,-131.7285"/>
<polygon fill="#191970" stroke="#191970" points="2321.3518,-471.9397 2331.3863,-468.54 2321.4219,-464.9401 2321.3518,-471.9397"/>
</g>
<!-- Node56 -->
<g id="node21" class="node">
<title>Node56</title>
<g id="a_node21"><a xlink:href="isoMath_8cxx.html" target="_top" xlink:title="src/engine/basics/isoMath.cxx">
<polygon fill="none" stroke="#000000" points="1367.5,-398 1367.5,-417 1529.5,-417 1529.5,-398 1367.5,-398"/>
<text text-anchor="middle" x="1448.5" y="-405" font-family="Helvetica,sans-Serif" font-size="10.00" fill="#000000">src/engine/basics/isoMath.cxx</text>
</a>
</g>
</g>
<!-- Node18&#45;&gt;Node56 -->
<g id="edge26" class="edge">
<title>Node18&#45;&gt;Node56</title>
<path fill="none" stroke="#191970" d="M2321.2482,-468.1488C2185.1327,-465.6278 1831.6378,-456.1559 1538.5,-423 1525.2662,-421.5032 1511.0271,-419.3198 1497.8673,-417.0616"/>
<polygon fill="#191970" stroke="#191970" points="2321.3776,-471.6516 2331.4389,-468.332 2321.5035,-464.6527 2321.3776,-471.6516"/>
</g>
<!-- Node37 -->
<g id="node22" class="node">
<title>Node37</title>
<g id="a_node22"><a xlink:href="Settings_8cxx.html" target="_top" xlink:title="src/engine/basics/Settings.cxx">
<polygon fill="none" stroke="#000000" points="1547.5,-398 1547.5,-417 1711.5,-417 1711.5,-398 1547.5,-398"/>
<text text-anchor="middle" x="1629.5" y="-405" font-family="Helvetica,sans-Serif" font-size="10.00" fill="#000000">src/engine/basics/Settings.cxx</text>
</a>
</g>
</g>
<!-- Node18&#45;&gt;Node37 -->
<g id="edge27" class="edge">
<title>Node18&#45;&gt;Node37</title>
<path fill="none" stroke="#191970" d="M2320.9871,-466.8941C2206.3917,-462.2757 1941.5702,-449.489 1720.5,-423 1707.2928,-421.4175 1693.0839,-419.2318 1679.9112,-417.0004"/>
<polygon fill="#191970" stroke="#191970" points="2321.1433,-470.403 2331.2744,-467.3029 2321.4213,-463.4085 2321.1433,-470.403"/>
</g>
<!-- Node57 -->
<g id="node23" class="node">
<title>Node57</title>
<g id="a_node23"><a xlink:href="Timer_8cxx.html" target="_top" xlink:title="src/engine/basics/Timer.cxx">
<polygon fill="none" stroke="#000000" points="1729.5,-398 1729.5,-417 1881.5,-417 1881.5,-398 1729.5,-398"/>
<text text-anchor="middle" x="1805.5" y="-405" font-family="Helvetica,sans-Serif" font-size="10.00" fill="#000000">src/engine/basics/Timer.cxx</text>
</a>
</g>
</g>
<!-- Node18&#45;&gt;Node57 -->
<g id="edge28" class="edge">
<title>Node18&#45;&gt;Node57</title>
<path fill="none" stroke="#191970" d="M2321.2088,-465.1581C2229.9921,-458.6886 2046.2398,-444.2143 1891.5,-423 1879.4756,-421.3515 1866.568,-419.2196 1854.5035,-417.0675"/>
<polygon fill="#191970" stroke="#191970" points="2321.1149,-468.6601 2331.3359,-465.8704 2321.6061,-461.6773 2321.1149,-468.6601"/>
</g>
<!-- Node58 -->
<g id="node24" class="node">
<title>Node58</title>
<g id="a_node24"><a xlink:href="Engine_8cxx.html" target="_top" xlink:title="src/engine/Engine.cxx">
<polygon fill="none" stroke="#000000" points="1900,-398 1900,-417 2023,-417 2023,-398 1900,-398"/>
<text text-anchor="middle" x="1961.5" y="-405" font-family="Helvetica,sans-Serif" font-size="10.00" fill="#000000">src/engine/Engine.cxx</text>
</a>
</g>
</g>
<!-- Node18&#45;&gt;Node58 -->
<g id="edge29" class="edge">
<title>Node18&#45;&gt;Node58</title>
<path fill="none" stroke="#191970" d="M2321.1055,-462.8426C2252.2832,-455.1197 2133.5563,-440.7171 2032.5,-423 2022.6825,-421.2788 2012.163,-419.1439 2002.3095,-417.0144"/>
<polygon fill="#191970" stroke="#191970" points="2320.9746,-466.3496 2331.3007,-463.9787 2321.7499,-459.3926 2320.9746,-466.3496"/>
</g>
<!-- Node59 -->
<g id="node25" class="node">
<title>Node59</title>
<g id="a_node25"><a xlink:href="EventManager_8cxx.html" target="_top" xlink:title="src/engine/EventManager.cxx">
<polygon fill="none" stroke="#000000" points="2041,-398 2041,-417 2200,-417 2200,-398 2041,-398"/>
<text text-anchor="middle" x="2120.5" y="-405" font-family="Helvetica,sans-Serif" font-size="10.00" fill="#000000">src/engine/EventManager.cxx</text>
</a>
</g>
</g>
<!-- Node18&#45;&gt;Node59 -->
<g id="edge30" class="edge">
<title>Node18&#45;&gt;Node59</title>
<path fill="none" stroke="#191970" d="M2328.7221,-457.1343C2279.7593,-445.463 2205.9488,-427.8686 2160.6233,-417.0643"/>
<polygon fill="#191970" stroke="#191970" points="2327.9315,-460.5439 2338.4706,-459.4581 2329.5547,-453.7347 2327.9315,-460.5439"/>
</g>
<!-- Node60 -->
<g id="node26" class="node">
<title>Node60</title>
<g id="a_node26"><a xlink:href="MapNode_8cxx.html" target="_top" xlink:title="src/engine/GameObjects\l/MapNode.cxx">
<polygon fill="none" stroke="#000000" points="2218.5,-392.5 2218.5,-422.5 2354.5,-422.5 2354.5,-392.5 2218.5,-392.5"/>
<text text-anchor="start" x="2226.5" y="-410.5" font-family="Helvetica,sans-Serif" font-size="10.00" fill="#000000">src/engine/GameObjects</text>
<text text-anchor="middle" x="2286.5" y="-399.5" font-family="Helvetica,sans-Serif" font-size="10.00" fill="#000000">/MapNode.cxx</text>
</a>
</g>
</g>
<!-- Node18&#45;&gt;Node60 -->
<g id="edge31" class="edge">
<title>Node18&#45;&gt;Node60</title>
<path fill="none" stroke="#191970" d="M2355.4385,-453.5839C2341.2336,-444.0882 2323.1066,-431.9707 2309.0057,-422.5446"/>
<polygon fill="#191970" stroke="#191970" points="2353.8663,-456.7429 2364.125,-459.3906 2357.7566,-450.9234 2353.8663,-456.7429"/>
</g>
<!-- Node38 -->
<g id="node27" class="node">
<title>Node38</title>
<g id="a_node27"><a xlink:href="TerrainGenerator_8cxx.html" target="_top" xlink:title="src/engine/map/TerrainGenerator.cxx">
<polygon fill="none" stroke="#000000" points="2372.5,-398 2372.5,-417 2568.5,-417 2568.5,-398 2372.5,-398"/>
<text text-anchor="middle" x="2470.5" y="-405" font-family="Helvetica,sans-Serif" font-size="10.00" fill="#000000">src/engine/map/TerrainGenerator.cxx</text>
</a>
</g>
</g>
<!-- Node18&#45;&gt;Node38 -->
<g id="edge32" class="edge">
<title>Node18&#45;&gt;Node38</title>
<path fill="none" stroke="#191970" d="M2401.2591,-453.786C2418.4618,-442.2864 2441.5462,-426.855 2456.2259,-417.0419"/>
<polygon fill="#191970" stroke="#191970" points="2399.2434,-450.9234 2392.875,-459.3906 2403.1337,-456.7429 2399.2434,-450.9234"/>
</g>
<!-- Node39 -->
<g id="node28" class="node">
<title>Node39</title>
<g id="a_node28"><a xlink:href="ResourcesManager_8cxx.html" target="_top" xlink:title="src/engine/ResourcesManager.cxx">
<polygon fill="none" stroke="#000000" points="2587,-398 2587,-417 2768,-417 2768,-398 2587,-398"/>
<text text-anchor="middle" x="2677.5" y="-405" font-family="Helvetica,sans-Serif" font-size="10.00" fill="#000000">src/engine/ResourcesManager.cxx</text>
</a>
</g>
</g>
<!-- Node18&#45;&gt;Node39 -->
<g id="edge34" class="edge">
<title>Node18&#45;&gt;Node39</title>
<path fill="none" stroke="#191970" d="M2434.7728,-457.4255C2491.5011,-445.7573 2578.0335,-427.9588 2631.0005,-417.0643"/>
<polygon fill="#191970" stroke="#191970" points="2433.9805,-454.0151 2424.8907,-459.4581 2435.3908,-460.8716 2433.9805,-454.0151"/>
</g>
<!-- Node61 -->
<g id="node29" class="node">
<title>Node61</title>
<g id="a_node29"><a xlink:href="Sprite_8cxx.html" target="_top" xlink:title="src/engine/Sprite.cxx">
<polygon fill="none" stroke="#000000" points="2786,-398 2786,-417 2905,-417 2905,-398 2786,-398"/>
<text text-anchor="middle" x="2845.5" y="-405" font-family="Helvetica,sans-Serif" font-size="10.00" fill="#000000">src/engine/Sprite.cxx</text>
</a>
</g>
</g>
<!-- Node18&#45;&gt;Node61 -->
<g id="edge35" class="edge">
<title>Node18&#45;&gt;Node61</title>
<path fill="none" stroke="#191970" d="M2435.7949,-464.3776C2513.5429,-457.654 2656.6334,-443.6787 2777.5,-423 2787.1673,-421.346 2797.5247,-419.187 2807.1677,-417.008"/>
<polygon fill="#191970" stroke="#191970" points="2435.391,-460.8993 2425.7259,-465.2393 2435.9879,-467.8738 2435.391,-460.8993"/>
</g>
<!-- Node40 -->
<g id="node30" class="node">
<title>Node40</title>
<g id="a_node30"><a xlink:href="TileManager_8cxx.html" target="_top" xlink:title="src/engine/TileManager.cxx">
<polygon fill="none" stroke="#000000" points="2923,-398 2923,-417 3072,-417 3072,-398 2923,-398"/>
<text text-anchor="middle" x="2997.5" y="-405" font-family="Helvetica,sans-Serif" font-size="10.00" fill="#000000">src/engine/TileManager.cxx</text>
</a>
</g>
</g>
<!-- Node18&#45;&gt;Node40 -->
<g id="edge36" class="edge">
<title>Node18&#45;&gt;Node40</title>
<path fill="none" stroke="#191970" d="M2435.6464,-465.9589C2533.8605,-460.3166 2740.8732,-446.6035 2914.5,-423 2926.4107,-421.3808 2939.2069,-419.2086 2951.0993,-417.0038"/>
<polygon fill="#191970" stroke="#191970" points="2435.4196,-462.4661 2425.6343,-466.5277 2435.8167,-469.4548 2435.4196,-462.4661"/>
</g>
<!-- Node62 -->
<g id="node31" class="node">
<title>Node62</title>
<g id="a_node31"><a xlink:href="UIElement_8cxx.html" target="_top" xlink:title="src/engine/ui/basics\l/UIElement.cxx">
<polygon fill="none" stroke="#000000" points="3090,-392.5 3090,-422.5 3203,-422.5 3203,-392.5 3090,-392.5"/>
<text text-anchor="start" x="3098" y="-410.5" font-family="Helvetica,sans-Serif" font-size="10.00" fill="#000000">src/engine/ui/basics</text>
<text text-anchor="middle" x="3146.5" y="-399.5" font-family="Helvetica,sans-Serif" font-size="10.00" fill="#000000">/UIElement.cxx</text>
</a>
</g>
</g>
<!-- Node18&#45;&gt;Node62 -->
<g id="edge37" class="edge">
<title>Node18&#45;&gt;Node62</title>
<path fill="none" stroke="#191970" d="M2435.6437,-466.5076C2580.125,-460.0054 2957.3402,-441.7288 3081.5,-423 3084.2531,-422.5847 3087.0613,-422.1111 3089.8901,-421.5936"/>
<polygon fill="#191970" stroke="#191970" points="2435.4832,-463.0112 2425.6499,-466.9552 2435.7965,-470.0041 2435.4832,-463.0112"/>
</g>
<!-- Node63 -->
<g id="node32" class="node">
<title>Node63</title>
<g id="a_node32"><a xlink:href="Button_8cxx.html" target="_top" xlink:title="src/engine/ui/widgets\l/Button.cxx">
<polygon fill="none" stroke="#000000" points="3221.5,-392.5 3221.5,-422.5 3341.5,-422.5 3341.5,-392.5 3221.5,-392.5"/>
<text text-anchor="start" x="3229.5" y="-410.5" font-family="Helvetica,sans-Serif" font-size="10.00" fill="#000000">src/engine/ui/widgets</text>
<text text-anchor="middle" x="3281.5" y="-399.5" font-family="Helvetica,sans-Serif" font-size="10.00" fill="#000000">/Button.cxx</text>
</a>
</g>
</g>
<!-- Node18&#45;&gt;Node63 -->
<g id="edge38" class="edge">
<title>Node18&#45;&gt;Node63</title>
<path fill="none" stroke="#191970" d="M2435.8181,-467.079C2598.6532,-461.4242 3061.9395,-443.9156 3212.5,-423 3215.4186,-422.5946 3218.3964,-422.1289 3221.3967,-421.6179"/>
<polygon fill="#191970" stroke="#191970" points="2435.4067,-463.591 2425.5335,-467.4342 2435.6484,-470.5868 2435.4067,-463.591"/>
</g>
<!-- Node64 -->
<g id="node33" class="node">
<title>Node64</title>
<g id="a_node33"><a xlink:href="Combobox_8cxx.html" target="_top" xlink:title="src/engine/ui/widgets\l/Combobox.cxx">
<polygon fill="none" stroke="#000000" points="3359.5,-392.5 3359.5,-422.5 3479.5,-422.5 3479.5,-392.5 3359.5,-392.5"/>
<text text-anchor="start" x="3367.5" y="-410.5" font-family="Helvetica,sans-Serif" font-size="10.00" fill="#000000">src/engine/ui/widgets</text>
<text text-anchor="middle" x="3419.5" y="-399.5" font-family="Helvetica,sans-Serif" font-size="10.00" fill="#000000">/Combobox.cxx</text>
</a>
</g>
</g>
<!-- Node18&#45;&gt;Node64 -->
<g id="edge39" class="edge">
<title>Node18&#45;&gt;Node64</title>
<path fill="none" stroke="#191970" d="M2435.8664,-467.5944C2616.482,-462.9625 3171.999,-447.0869 3350.5,-423 3353.4202,-422.606 3356.3993,-422.1496 3359.4006,-421.646"/>
<polygon fill="#191970" stroke="#191970" points="2435.6846,-464.0978 2425.777,-467.8514 2435.863,-471.0955 2435.6846,-464.0978"/>
</g>
<!-- Node41 -->
<g id="node34" class="node">
<title>Node41</title>
<g id="a_node34"><a xlink:href="Text_8cxx.html" target="_top" xlink:title="src/engine/ui/widgets\l/Text.cxx">
<polygon fill="none" stroke="#000000" points="3497.5,-392.5 3497.5,-422.5 3617.5,-422.5 3617.5,-392.5 3497.5,-392.5"/>
<text text-anchor="start" x="3505.5" y="-410.5" font-family="Helvetica,sans-Serif" font-size="10.00" fill="#000000">src/engine/ui/widgets</text>
<text text-anchor="middle" x="3557.5" y="-399.5" font-family="Helvetica,sans-Serif" font-size="10.00" fill="#000000">/Text.cxx</text>
</a>
</g>
</g>
<!-- Node18&#45;&gt;Node41 -->
<g id="edge40" class="edge">
<title>Node18&#45;&gt;Node41</title>
<path fill="none" stroke="#191970" d="M2435.8408,-467.9845C2632.9426,-464.2808 3281.8594,-450.2665 3488.5,-423 3491.4213,-422.6145 3494.4013,-422.1651 3497.4034,-421.6671"/>
<polygon fill="#191970" stroke="#191970" points="2435.6329,-464.4877 2425.6999,-468.1734 2435.7634,-471.4864 2435.6329,-464.4877"/>
</g>
<!-- Node42 -->
<g id="node35" class="node">
<title>Node42</title>
<g id="a_node35"><a xlink:href="UIManager_8cxx.html" target="_top" xlink:title="src/engine/UIManager.cxx">
<polygon fill="none" stroke="#000000" points="3635.5,-398 3635.5,-417 3777.5,-417 3777.5,-398 3635.5,-398"/>
<text text-anchor="middle" x="3706.5" y="-405" font-family="Helvetica,sans-Serif" font-size="10.00" fill="#000000">src/engine/UIManager.cxx</text>
</a>
</g>
</g>
<!-- Node18&#45;&gt;Node42 -->
<g id="edge41" class="edge">
<title>Node18&#45;&gt;Node42</title>
<path fill="none" stroke="#191970" d="M2435.7095,-468.0665C2648.0902,-464.4181 3391.122,-449.9763 3626.5,-423 3638.728,-421.5986 3651.8843,-419.3595 3663.9256,-417.014"/>
<polygon fill="#191970" stroke="#191970" points="2435.6453,-464.567 2425.7065,-468.2371 2435.7648,-471.566 2435.6453,-464.567"/>
</g>
<!-- Node65 -->
<g id="node36" class="node">
<title>Node65</title>
<g id="a_node36"><a xlink:href="Randomizer_8hxx.html" target="_top" xlink:title="src/services/Randomizer.hxx">
<polygon fill="none" stroke="#000000" points="1060.5,-398 1060.5,-417 1216.5,-417 1216.5,-398 1060.5,-398"/>
<text text-anchor="middle" x="1138.5" y="-405" font-family="Helvetica,sans-Serif" font-size="10.00" fill="#000000">src/services/Randomizer.hxx</text>
</a>
</g>
</g>
<!-- Node18&#45;&gt;Node65 -->
<g id="edge43" class="edge">
<title>Node18&#45;&gt;Node65</title>
<path fill="none" stroke="#191970" d="M2320.8571,-468.644C2154.4205,-467.1875 1658.87,-459.8325 1249.5,-423 1233.0274,-421.5179 1215.2565,-419.3112 1198.8654,-417.0245"/>
<polygon fill="#191970" stroke="#191970" points="2321.3107,-472.1479 2331.3396,-468.7317 2321.3693,-465.1481 2321.3107,-472.1479"/>
</g>
<!-- Node45 -->
<g id="node37" class="node">
<title>Node45</title>
<g id="a_node37"><a xlink:href="AudioMixer_8cxx.html" target="_top" xlink:title="src/services/AudioMixer.cxx">
<polygon fill="none" stroke="#000000" points="881.5,-336.5 881.5,-355.5 1033.5,-355.5 1033.5,-336.5 881.5,-336.5"/>
<text text-anchor="middle" x="957.5" y="-343.5" font-family="Helvetica,sans-Serif" font-size="10.00" fill="#000000">src/services/AudioMixer.cxx</text>
</a>
</g>
</g>
<!-- Node18&#45;&gt;Node45 -->
<g id="edge55" class="edge">
<title>Node18&#45;&gt;Node45</title>
<path fill="none" stroke="#191970" d="M2321.1844,-468.0365C2074.3343,-463.7559 1111.64,-445.6698 1051.5,-423 1013.7969,-408.7878 980.0282,-372.9204 965.3108,-355.6227"/>
<polygon fill="#191970" stroke="#191970" points="2321.3145,-471.5391 2331.3735,-468.2124 2321.4354,-464.5402 2321.3145,-471.5391"/>
</g>
<!-- Node67 -->
<g id="node39" class="node">
<title>Node67</title>
<g id="a_node39"><a xlink:href="ButtonState_8cxx.html" target="_top" xlink:title="src/model/ButtonState.cxx">
<polygon fill="none" stroke="#000000" points="3795.5,-398 3795.5,-417 3941.5,-417 3941.5,-398 3795.5,-398"/>
<text text-anchor="middle" x="3868.5" y="-405" font-family="Helvetica,sans-Serif" font-size="10.00" fill="#000000">src/model/ButtonState.cxx</text>
</a>
</g>
</g>
<!-- Node18&#45;&gt;Node67 -->
<g id="edge51" class="edge">
<title>Node18&#45;&gt;Node67</title>
<path fill="none" stroke="#191970" d="M2435.6438,-468.3096C2664.8443,-465.3583 3518.046,-452.5788 3786.5,-423 3799.0289,-421.6195 3812.5126,-419.3872 3824.855,-417.0414"/>
<polygon fill="#191970" stroke="#191970" points="2435.4769,-464.8113 2425.5224,-468.4387 2435.5662,-471.8108 2435.4769,-464.8113"/>
</g>
<!-- Node68 -->
<g id="node40" class="node">
<title>Node68</title>
<g id="a_node40"><a xlink:href="MouseState_8cxx.html" target="_top" xlink:title="src/model/MouseState.cxx">
<polygon fill="none" stroke="#000000" points="3960,-398 3960,-417 4105,-417 4105,-398 3960,-398"/>
<text text-anchor="middle" x="4032.5" y="-405" font-family="Helvetica,sans-Serif" font-size="10.00" fill="#000000">src/model/MouseState.cxx</text>
</a>
</g>
</g>
<!-- Node18&#45;&gt;Node68 -->
<g id="edge52" class="edge">
<title>Node18&#45;&gt;Node68</title>
<path fill="none" stroke="#191970" d="M2435.7033,-468.5345C2681.3686,-466.349 3648.1143,-455.7965 3950.5,-423 3963.0313,-421.6409 3976.5157,-419.4154 3988.8581,-417.0693"/>
<polygon fill="#191970" stroke="#191970" points="2435.5367,-465.0357 2425.5678,-468.6235 2435.5982,-472.0354 2435.5367,-465.0357"/>
</g>
<!-- Node69 -->
<g id="node41" class="node">
<title>Node69</title>
<g id="a_node41"><a xlink:href="iRenderer_8cxx.html" target="_top" xlink:title="src/renderer/iRenderer.cxx">
<polygon fill="none" stroke="#000000" points="4123.5,-398 4123.5,-417 4267.5,-417 4267.5,-398 4123.5,-398"/>
<text text-anchor="middle" x="4195.5" y="-405" font-family="Helvetica,sans-Serif" font-size="10.00" fill="#000000">src/renderer/iRenderer.cxx</text>
</a>
</g>
</g>
<!-- Node18&#45;&gt;Node69 -->
<g id="edge53" class="edge">
<title>Node18&#45;&gt;Node69</title>
<path fill="none" stroke="#191970" d="M2435.5983,-468.7356C2696.6261,-467.3354 3778.035,-459.4059 4114.5,-423 4127.0264,-421.6446 4140.5122,-419.3895 4152.8176,-417.0134"/>
<polygon fill="#191970" stroke="#191970" points="2435.5609,-465.2357 2425.5795,-468.7883 2435.5978,-472.2356 2435.5609,-465.2357"/>
</g>
<!-- Node43 -->
<g id="node42" class="node">
<title>Node43</title>
<g id="a_node42"><a xlink:href="SDLRenderer_8cxx.html" target="_top" xlink:title="src/renderer/SDLRenderer.cxx">
<polygon fill="none" stroke="#000000" points="4285.5,-398 4285.5,-417 4445.5,-417 4445.5,-398 4285.5,-398"/>
<text text-anchor="middle" x="4365.5" y="-405" font-family="Helvetica,sans-Serif" font-size="10.00" fill="#000000">src/renderer/SDLRenderer.cxx</text>
</a>
</g>
</g>
<!-- Node18&#45;&gt;Node43 -->
<g id="edge54" class="edge">
<title>Node18&#45;&gt;Node43</title>
<path fill="none" stroke="#191970" d="M2435.8793,-468.7566C2712.0344,-467.4096 3906.0918,-459.5399 4276.5,-423 4290.2352,-421.6451 4305.0441,-419.3901 4318.5654,-417.014"/>
<polygon fill="#191970" stroke="#191970" points="2435.6685,-465.2575 2425.6854,-468.8054 2435.7021,-472.2574 2435.6685,-465.2575"/>
</g>
<!-- Node70 -->
<g id="node43" class="node">
<title>Node70</title>
<g id="a_node43"><a xlink:href="GameClock_8cxx.html" target="_top" xlink:title="src/services/GameClock.cxx">
<polygon fill="none" stroke="#000000" points="4463.5,-398 4463.5,-417 4617.5,-417 4617.5,-398 4463.5,-398"/>
<text text-anchor="middle" x="4540.5" y="-405" font-family="Helvetica,sans-Serif" font-size="10.00" fill="#000000">src/services/GameClock.cxx</text>
</a>
</g>
</g>
<!-- Node18&#45;&gt;Node70 -->
<g id="edge56" class="edge">
<title>Node18&#45;&gt;Node70</title>
<path fill="none" stroke="#191970" d="M2435.9566,-468.2634C2749.686,-464.1693 4249.1255,-443.6552 4454.5,-423 4467.7836,-421.664 4482.0968,-419.415 4495.1621,-417.0385"/>
<polygon fill="#191970" stroke="#191970" points="2435.6826,-464.7665 2425.7291,-468.3965 2435.7738,-471.7659 2435.6826,-464.7665"/>
</g>
<!-- Node46 -->
<g id="node44" class="node">
<title>Node46</title>
<g id="a_node44"><a xlink:href="ResourceManager_8cxx.html" target="_top" xlink:title="src/services/ResourceManager.cxx">
<polygon fill="none" stroke="#000000" points="4636,-398 4636,-417 4819,-417 4819,-398 4636,-398"/>
<text text-anchor="middle" x="4727.5" y="-405" font-family="Helvetica,sans-Serif" font-size="10.00" fill="#000000">src/services/ResourceManager.cxx</text>
</a>
</g>
</g>
<!-- Node18&#45;&gt;Node46 -->
<g id="edge57" class="edge">
<title>Node18&#45;&gt;Node46</title>
<path fill="none" stroke="#191970" d="M2436.1982,-468.8508C2742.6804,-467.9016 4182.5793,-461.4364 4626.5,-423 4642.053,-421.6534 4658.8479,-419.401 4674.1931,-417.0247"/>
<polygon fill="#191970" stroke="#191970" points="2435.7666,-465.352 2425.7773,-468.8823 2435.7879,-472.352 2435.7666,-465.352"/>
</g>
<!-- Node47 -->
<g id="node45" class="node">
<title>Node47</title>
<g id="a_node45"><a xlink:href="android_2Filesystem_8cxx.html" target="_top" xlink:title="src/util/android/Filesystem.cxx">
<polygon fill="none" stroke="#000000" points="4837,-398 4837,-417 5002,-417 5002,-398 4837,-398"/>
<text text-anchor="middle" x="4919.5" y="-405" font-family="Helvetica,sans-Serif" font-size="10.00" fill="#000000">src/util/android/Filesystem.cxx</text>
</a>
</g>
</g>
<!-- Node18&#45;&gt;Node47 -->
<g id="edge58" class="edge">
<title>Node18&#45;&gt;Node47</title>
<path fill="none" stroke="#191970" d="M2435.7423,-468.4404C2781.4147,-464.9929 4583.594,-446.0254 4828.5,-423 4842.5411,-421.6799 4857.6819,-419.4358 4871.5071,-417.059"/>
<polygon fill="#191970" stroke="#191970" points="2435.6715,-464.9409 2425.7069,-468.5402 2435.7412,-471.9405 2435.6715,-464.9409"/>
</g>
<!-- Node71 -->
<g id="node46" class="node">
<title>Node71</title>
<g id="a_node46"><a xlink:href="Color_8cxx.html" target="_top" xlink:title="src/util/Color.cxx">
<polygon fill="none" stroke="#000000" points="5020.5,-398 5020.5,-417 5118.5,-417 5118.5,-398 5020.5,-398"/>
<text text-anchor="middle" x="5069.5" y="-405" font-family="Helvetica,sans-Serif" font-size="10.00" fill="#000000">src/util/Color.cxx</text>
</a>
</g>
</g>
<!-- Node18&#45;&gt;Node71 -->
<g id="edge59" class="edge">
<title>Node18&#45;&gt;Node71</title>
<path fill="none" stroke="#191970" d="M2435.9683,-468.8359C2797.3197,-467.693 4748.7322,-459.8432 5011.5,-423 5020.6864,-421.712 5030.4956,-419.4461 5039.3842,-417.038"/>
<polygon fill="#191970" stroke="#191970" points="2435.7336,-465.3366 2425.7446,-468.8678 2435.7555,-472.3365 2435.7336,-465.3366"/>
</g>
<!-- Node48 -->
<g id="node47" class="node">
<title>Node48</title>
<g id="a_node47"><a xlink:href="desktop_2Filesystem_8cxx.html" target="_top" xlink:title="src/util/desktop/Filesystem.cxx">
<polygon fill="none" stroke="#000000" points="5137,-398 5137,-417 5304,-417 5304,-398 5137,-398"/>
<text text-anchor="middle" x="5220.5" y="-405" font-family="Helvetica,sans-Serif" font-size="10.00" fill="#000000">src/util/desktop/Filesystem.cxx</text>
</a>
</g>
</g>
<!-- Node18&#45;&gt;Node48 -->
<g id="edge60" class="edge">
<title>Node18&#45;&gt;Node48</title>
<path fill="none" stroke="#191970" d="M2435.7967,-468.5529C2805.7839,-465.5981 4850.9637,-448.2178 5127.5,-423 5141.8448,-421.6919 5157.3168,-419.4515 5171.446,-417.0745"/>
<polygon fill="#191970" stroke="#191970" points="2435.5658,-465.0545 2425.594,-468.6341 2435.6216,-472.0543 2435.5658,-465.0545"/>
</g>
<!-- Node72 -->
<g id="node48" class="node">
<title>Node72</title>
<g id="a_node48"><a xlink:href="Exception_8cxx.html" target="_top" xlink:title="src/util/Exception.cxx">
<polygon fill="none" stroke="#000000" points="5322,-398 5322,-417 5443,-417 5443,-398 5322,-398"/>
<text text-anchor="middle" x="5382.5" y="-405" font-family="Helvetica,sans-Serif" font-size="10.00" fill="#000000">src/util/Exception.cxx</text>
</a>
</g>
</g>
<!-- Node18&#45;&gt;Node72 -->
<g id="edge61" class="edge">
<title>Node18&#45;&gt;Node72</title>
<path fill="none" stroke="#191970" d="M2435.7024,-468.8102C2819.884,-467.442 5018.0988,-458.1161 5313.5,-423 5324.3507,-421.7101 5335.9965,-419.4437 5346.573,-417.0356"/>
<polygon fill="#191970" stroke="#191970" points="2435.6389,-465.3103 2425.6513,-468.8456 2435.6637,-472.3102 2435.6389,-465.3103"/>
</g>
<!-- Node50 -->
<g id="node49" class="node">
<title>Node50</title>
<g id="a_node49"><a xlink:href="LOG_8cxx.html" target="_top" xlink:title="src/util/LOG.cxx">
<polygon fill="none" stroke="#000000" points="5461,-398 5461,-417 5554,-417 5554,-398 5461,-398"/>
<text text-anchor="middle" x="5507.5" y="-405" font-family="Helvetica,sans-Serif" font-size="10.00" fill="#000000">src/util/LOG.cxx</text>
</a>
</g>
</g>
<!-- Node18&#45;&gt;Node50 -->
<g id="edge62" class="edge">
<title>Node18&#45;&gt;Node50</title>
<path fill="none" stroke="#191970" d="M2435.7648,-468.5656C2843.6997,-465.4185 5297.5764,-445.5956 5452.5,-423 5461.2369,-421.7257 5470.5464,-419.4641 5478.9745,-417.0556"/>
<polygon fill="#191970" stroke="#191970" points="2435.6488,-465.0663 2425.676,-468.6432 2435.7027,-472.0661 2435.6488,-465.0663"/>
</g>
<!-- Node51 -->
<g id="node50" class="node">
<title>Node51</title>
<g id="a_node50"><a xlink:href="macOS_2Filesystem_8cxx.html" target="_top" xlink:title="src/util/macOS/Filesystem.cxx">
<polygon fill="none" stroke="#000000" points="5572,-398 5572,-417 5735,-417 5735,-398 5572,-398"/>
<text text-anchor="middle" x="5653.5" y="-405" font-family="Helvetica,sans-Serif" font-size="10.00" fill="#000000">src/util/macOS/Filesystem.cxx</text>
</a>
</g>
</g>
<!-- Node18&#45;&gt;Node51 -->
<g id="edge63" class="edge">
<title>Node18&#45;&gt;Node51</title>
<path fill="none" stroke="#191970" d="M2436.0149,-468.711C2839.6737,-466.6112 5240.8778,-452.9265 5563.5,-423 5577.5507,-421.6967 5592.7096,-419.4261 5606.5079,-417.0185"/>
<polygon fill="#191970" stroke="#191970" points="2435.7329,-465.2123 2425.7512,-468.7641 2435.7692,-472.2122 2435.7329,-465.2123"/>
</g>
<!-- Node21 -->
<g id="node4" class="node">
<title>Node21</title>
<g id="a_node4"><a xlink:href="Rectangle_8hxx.html" target="_top" xlink:title="src/util/Rectangle.hxx">
<polygon fill="none" stroke="#000000" points="619.5,-336.5 619.5,-355.5 741.5,-355.5 741.5,-336.5 619.5,-336.5"/>
<text text-anchor="middle" x="680.5" y="-343.5" font-family="Helvetica,sans-Serif" font-size="10.00" fill="#000000">src/util/Rectangle.hxx</text>
</a>
</g>
</g>
<!-- Node20&#45;&gt;Node21 -->
<g id="edge3" class="edge">
<title>Node20&#45;&gt;Node21</title>
<path fill="none" stroke="#191970" d="M680.5,-387.7462C680.5,-377.0519 680.5,-364.314 680.5,-355.7449"/>
<polygon fill="#191970" stroke="#191970" points="677.0001,-387.8906 680.5,-397.8906 684.0001,-387.8907 677.0001,-387.8906"/>
</g>
<!-- Node22 -->
<g id="node5" class="node">
<title>Node22</title>
<g id="a_node5"><a xlink:href="iViewElement_8hxx.html" target="_top" xlink:title="src/view/iViewElement.hxx">
<polygon fill="none" stroke="#000000" points="504,-280.5 504,-299.5 653,-299.5 653,-280.5 504,-280.5"/>
<text text-anchor="middle" x="578.5" y="-287.5" font-family="Helvetica,sans-Serif" font-size="10.00" fill="#000000">src/view/iViewElement.hxx</text>
</a>
</g>
</g>
<!-- Node21&#45;&gt;Node22 -->
<g id="edge4" class="edge">
<title>Node21&#45;&gt;Node22</title>
<path fill="none" stroke="#191970" d="M653.766,-331.3225C635.5468,-321.3198 611.9402,-308.3593 596.0634,-299.6427"/>
<polygon fill="#191970" stroke="#191970" points="652.2827,-334.5009 662.733,-336.2455 655.6516,-328.3649 652.2827,-334.5009"/>
</g>
<!-- Node35 -->
<g id="node18" class="node">
<title>Node35</title>
<g id="a_node18"><a xlink:href="PixelBuffer_8hxx.html" target="_top" xlink:title="src/util/PixelBuffer.hxx">
<polygon fill="none" stroke="#ff0000" points="704.5,-224.5 704.5,-243.5 830.5,-243.5 830.5,-224.5 704.5,-224.5"/>
<text text-anchor="middle" x="767.5" y="-231.5" font-family="Helvetica,sans-Serif" font-size="10.00" fill="#000000">src/util/PixelBuffer.hxx</text>
</a>
</g>
</g>
<!-- Node21&#45;&gt;Node35 -->
<g id="edge20" class="edge">
<title>Node21&#45;&gt;Node35</title>
<path fill="none" stroke="#191970" d="M682.6031,-326.0821C684.8966,-312.0987 689.6583,-293.5502 699.5,-280 711.3102,-263.7396 730.7392,-251.4365 745.8117,-243.6642"/>
<polygon fill="#191970" stroke="#191970" points="679.1154,-325.7561 681.243,-336.1351 686.0522,-326.6946 679.1154,-325.7561"/>
</g>
<!-- Node21&#45;&gt;Node54 -->
<g id="edge22" class="edge">
<title>Node21&#45;&gt;Node54</title>
<path fill="none" stroke="#191970" d="M704.7064,-330.769C720.4775,-320.8456 740.576,-308.1994 754.175,-299.6427"/>
<polygon fill="#191970" stroke="#191970" points="702.6026,-327.9575 696.0026,-336.2455 706.3305,-333.8823 702.6026,-327.9575"/>
</g>
<!-- Node23 -->
<g id="node6" class="node">
<title>Node23</title>
<g id="a_node6"><a xlink:href="iLayout_8hxx.html" target="_top" xlink:title="src/layout/iLayout.hxx">
<polygon fill="none" stroke="#000000" points="523,-224.5 523,-243.5 648,-243.5 648,-224.5 523,-224.5"/>
<text text-anchor="middle" x="585.5" y="-231.5" font-family="Helvetica,sans-Serif" font-size="10.00" fill="#000000">src/layout/iLayout.hxx</text>
</a>
</g>
</g>
<!-- Node22&#45;&gt;Node23 -->
<g id="edge5" class="edge">
<title>Node22&#45;&gt;Node23</title>
<path fill="none" stroke="#191970" d="M580.9803,-270.1575C582.1056,-261.155 583.385,-250.9199 584.2947,-243.6427"/>
<polygon fill="#191970" stroke="#191970" points="577.4868,-269.8886 579.7193,-280.2455 584.4327,-270.7569 577.4868,-269.8886"/>
</g>
<!-- Node24 -->
<g id="node7" class="node">
<title>Node24</title>
<g id="a_node7"><a xlink:href="iActivity_8hxx.html" target="_top" xlink:title="src/activity/iActivity.hxx">
<polygon fill="none" stroke="#000000" points="575.5,-168.5 575.5,-187.5 709.5,-187.5 709.5,-168.5 575.5,-168.5"/>
<text text-anchor="middle" x="642.5" y="-175.5" font-family="Helvetica,sans-Serif" font-size="10.00" fill="#000000">src/activity/iActivity.hxx</text>
</a>
</g>
</g>
<!-- Node22&#45;&gt;Node24 -->
<g id="edge18" class="edge">
<title>Node22&#45;&gt;Node24</title>
<path fill="none" stroke="#191970" d="M618.6797,-276.1625C633.262,-268.9691 648.1846,-258.5576 656.5,-244 666.8412,-225.8957 656.0333,-201.0594 648.4871,-187.6054"/>
<polygon fill="#191970" stroke="#191970" points="616.8915,-273.1297 609.2191,-280.4362 619.7733,-279.509 616.8915,-273.1297"/>
</g>
<!-- Node22&#45;&gt;Node34 -->
<g id="edge19" class="edge">
<title>Node22&#45;&gt;Node34</title>
<path fill="none" stroke="#191970" d="M543.5847,-276.7888C516.5617,-266.5639 479.786,-252.6488 455.6101,-243.5011"/>
<polygon fill="#191970" stroke="#191970" points="542.4664,-280.1078 553.0579,-280.3733 544.9437,-273.5608 542.4664,-280.1078"/>
</g>
<!-- Node23&#45;&gt;Node24 -->
<g id="edge6" class="edge">
<title>Node23&#45;&gt;Node24</title>
<path fill="none" stroke="#191970" d="M602.7271,-217.0751C612.5341,-207.4402 624.464,-195.7196 632.6851,-187.6427"/>
<polygon fill="#191970" stroke="#191970" points="600.1091,-214.7406 595.4286,-224.2455 605.0149,-219.734 600.1091,-214.7406"/>
</g>
<!-- Node23&#45;&gt;Node33 -->
<g id="edge17" class="edge">
<title>Node23&#45;&gt;Node33</title>
<path fill="none" stroke="#191970" d="M553.1603,-220.3833C528.9715,-210.1985 496.505,-196.5284 475.0652,-187.5011"/>
<polygon fill="#191970" stroke="#191970" points="552.0619,-223.7184 562.6365,-224.3733 554.7783,-217.2669 552.0619,-223.7184"/>
</g>
<!-- Node24&#45;&gt;Node19 -->
<g id="edge7" class="edge">
<title>Node24&#45;&gt;Node19</title>
<path fill="none" stroke="#191970" d="M629.0646,-160.1543C622.7471,-151.679 615.157,-141.3749 608.5,-132 594.529,-112.325 578.761,-88.9053 570.093,-75.9208"/>
<polygon fill="#191970" stroke="#191970" points="626.2999,-162.3014 635.095,-168.2087 631.9034,-158.106 626.2999,-162.3014"/>
</g>
<!-- Node25 -->
<g id="node8" class="node">
<title>Node25</title>
<g id="a_node8"><a xlink:href="Window_8hxx.html" target="_top" xlink:title="src/view/Window.hxx">
<polygon fill="none" stroke="#000000" points="618,-112.5 618,-131.5 737,-131.5 737,-112.5 618,-112.5"/>
<text text-anchor="middle" x="677.5" y="-119.5" font-family="Helvetica,sans-Serif" font-size="10.00" fill="#000000">src/view/Window.hxx</text>
</a>
</g>
</g>
<!-- Node24&#45;&gt;Node25 -->
<g id="edge8" class="edge">
<title>Node24&#45;&gt;Node25</title>
<path fill="none" stroke="#191970" d="M653.9815,-159.6296C659.8196,-150.2887 666.6752,-139.3197 671.4733,-131.6427"/>
<polygon fill="#191970" stroke="#191970" points="650.9286,-157.9105 648.5965,-168.2455 656.8646,-161.6206 650.9286,-157.9105"/>
</g>
<!-- Node25&#45;&gt;Node19 -->
<g id="edge9" class="edge">
<title>Node25&#45;&gt;Node19</title>
<path fill="none" stroke="#191970" d="M648.6679,-107.8368C628.0605,-97.7139 600.8918,-84.3679 582.8416,-75.5011"/>
<polygon fill="#191970" stroke="#191970" points="647.384,-111.1056 657.9027,-112.3733 650.4703,-104.8227 647.384,-111.1056"/>
</g>
<!-- Node25&#45;&gt;Node26 -->
<g id="edge10" class="edge">
<title>Node25&#45;&gt;Node26</title>
<path fill="none" stroke="#191970" d="M617.4683,-110.5654C563.2458,-100.2373 484.3735,-85.214 433.4993,-75.5237"/>
<polygon fill="#191970" stroke="#191970" points="616.8153,-114.0039 627.2937,-112.4369 618.1252,-107.1275 616.8153,-114.0039"/>
</g>
<!-- Node25&#45;&gt;Node27 -->
<g id="edge11" class="edge">
<title>Node25&#45;&gt;Node27</title>
<path fill="none" stroke="#191970" d="M607.9007,-113.8044C530.9585,-104.7111 403.3544,-89.5325 293.5,-76 285.8162,-75.0535 277.7138,-74.0425 269.7437,-73.0407"/>
<polygon fill="#191970" stroke="#191970" points="607.6102,-117.2943 617.9518,-114.9917 608.4314,-110.3427 607.6102,-117.2943"/>
</g>
<!-- Node25&#45;&gt;Node28 -->
<g id="edge12" class="edge">
<title>Node25&#45;&gt;Node28</title>
<path fill="none" stroke="#191970" d="M694.4249,-105.0751C704.0598,-95.4402 715.7804,-83.7196 723.8573,-75.6427"/>
<polygon fill="#191970" stroke="#191970" points="691.8507,-102.6996 687.2545,-112.2455 696.8004,-107.6493 691.8507,-102.6996"/>
</g>
<!-- Node25&#45;&gt;Node29 -->
<g id="edge13" class="edge">
<title>Node25&#45;&gt;Node29</title>
<path fill="none" stroke="#191970" d="M747.1433,-114.5855C857.9528,-102.7883 1071.0862,-80.0973 1161.4025,-70.4819"/>
<polygon fill="#191970" stroke="#191970" points="746.6446,-111.1187 737.0714,-115.6578 747.3857,-118.0794 746.6446,-111.1187"/>
</g>
<!-- Node25&#45;&gt;Node32 -->
<g id="edge16" class="edge">
<title>Node25&#45;&gt;Node32</title>
<path fill="none" stroke="#191970" d="M725.0108,-109.8511C765.3102,-99.5462 822.3148,-84.9697 859.3438,-75.5011"/>
<polygon fill="#191970" stroke="#191970" points="723.9686,-106.5049 715.1474,-112.3733 725.7028,-113.2867 723.9686,-106.5049"/>
</g>
<!-- Node29&#45;&gt;Node30 -->
<g id="edge14" class="edge">
<title>Node29&#45;&gt;Node30</title>
<path fill="none" stroke="#191970" d="M1211.4066,-46.7493C1215.1617,-37.6064 1219.4851,-27.0798 1222.5396,-19.6427"/>
<polygon fill="#191970" stroke="#191970" points="1208.068,-45.6656 1207.5063,-56.2455 1214.5431,-48.3251 1208.068,-45.6656"/>
</g>
<!-- Node29&#45;&gt;Node31 -->
<g id="edge15" class="edge">
<title>Node29&#45;&gt;Node31</title>
<path fill="none" stroke="#191970" d="M1236.0828,-52.3833C1260.4536,-42.1985 1293.1642,-28.5284 1314.7652,-19.5011"/>
<polygon fill="#191970" stroke="#191970" points="1234.4125,-49.2879 1226.5354,-56.3733 1237.1117,-55.7466 1234.4125,-49.2879"/>
</g>
<!-- Node35&#45;&gt;Node25 -->
<g id="edge21" class="edge">
<title>Node35&#45;&gt;Node25</title>
<path fill="none" stroke="#191970" d="M754.8182,-216.0247C745.164,-202.5649 731.3846,-183.8257 718.5,-168 707.9633,-155.0582 695.0434,-140.8076 686.5574,-131.6492"/>
<polygon fill="#191970" stroke="#191970" points="752.1296,-218.283 760.7811,-224.3988 757.8318,-214.2227 752.1296,-218.283"/>
</g>
<!-- Node55&#45;&gt;Node27 -->
<g id="edge25" class="edge">
<title>Node55&#45;&gt;Node27</title>
<path fill="none" stroke="#191970" d="M123.5104,-108.1109C145.4525,-97.9559 174.6388,-84.4482 193.9708,-75.5011"/>
<polygon fill="#191970" stroke="#191970" points="121.9058,-104.9968 114.3006,-112.3733 124.8459,-111.3494 121.9058,-104.9968"/>
</g>
<!-- Node65&#45;&gt;Node29 -->
<g id="edge44" class="edge">
<title>Node65&#45;&gt;Node29</title>
<path fill="none" stroke="#191970" d="M1170.2589,-393.2404C1186.2475,-384.5764 1204.6916,-372.0679 1216.5,-356 1234.5763,-331.4033 1235.5,-320.5246 1235.5,-290 1235.5,-290 1235.5,-290 1235.5,-178 1235.5,-138.7683 1217.123,-94.6778 1208.2217,-75.6226"/>
<polygon fill="#191970" stroke="#191970" points="1168.4932,-390.2125 1161.1975,-397.8952 1171.6918,-396.439 1168.4932,-390.2125"/>
</g>
<!-- Node65&#45;&gt;Node45 -->
<g id="edge45" class="edge">
<title>Node65&#45;&gt;Node45</title>
<path fill="none" stroke="#191970" d="M1100.5367,-394.6009C1066.2076,-382.9366 1016.4507,-366.0302 985.5827,-355.5419"/>
<polygon fill="#191970" stroke="#191970" points="1099.6244,-397.9873 1110.2188,-397.8906 1101.8764,-391.3595 1099.6244,-397.9873"/>
</g>
<!-- Node66 -->
<g id="node38" class="node">
<title>Node66</title>
<g id="a_node38"><a xlink:href="Randomizer_8cxx.html" target="_top" xlink:title="src/services/Randomizer.cxx">
<polygon fill="none" stroke="#000000" points="1052,-336.5 1052,-355.5 1207,-355.5 1207,-336.5 1052,-336.5"/>
<text text-anchor="middle" x="1129.5" y="-343.5" font-family="Helvetica,sans-Serif" font-size="10.00" fill="#000000">src/services/Randomizer.cxx</text>
</a>
</g>
</g>
<!-- Node65&#45;&gt;Node66 -->
<g id="edge46" class="edge">
<title>Node65&#45;&gt;Node66</title>
<path fill="none" stroke="#191970" d="M1135.6092,-387.7462C1134.0442,-377.0519 1132.1801,-364.314 1130.9261,-355.7449"/>
<polygon fill="#191970" stroke="#191970" points="1132.1826,-388.5028 1137.0938,-397.8906 1139.1088,-387.4892 1132.1826,-388.5028"/>
</g>
</g>
</svg>
