<?xml version="1.0" encoding="UTF-8" standalone="no"?>
<!DOCTYPE svg PUBLIC "-//W3C//DTD SVG 1.1//EN"
 "http://www.w3.org/Graphics/SVG/1.1/DTD/svg11.dtd">
<!-- Generated by graphviz version 2.40.1 (20161225.0304)
 -->
<!-- Title: src/engine/map/MapLayers.cxx Pages: 1 -->
<!--zoomable 196 -->
<svg id="main" version="1.1" xmlns="http://www.w3.org/2000/svg" xmlns:xlink="http://www.w3.org/1999/xlink" xml:space="preserve" onload="init(evt)">
<style type="text/css"><![CDATA[
.edge:hover path { stroke: red; }
.edge:hover polygon { stroke: red; fill: red; }
]]></style>
<script type="text/javascript"><![CDATA[
var edges = document.getElementsByTagName('g');
if (edges && edges.length) {
  for (var i=0;i<edges.length;i++) {
    if (edges[i].id.substr(0,4)=='edge') {
      edges[i].setAttribute('class','edge');
    }
  }
}
]]></script>
        <defs>
                <circle id="rim" cx="0" cy="0" r="7"/>
                <circle id="rim2" cx="0" cy="0" r="3.5"/>
                <g id="zoomPlus">
                        <use xlink:href="#rim" fill="#404040">
                                <set attributeName="fill" to="#808080" begin="zoomplus.mouseover" end="zoomplus.mouseout"/>
                        </use>
                        <path d="M-4,0h8M0,-4v8" fill="none" stroke="white" stroke-width="1.5" pointer-events="none"/>
                </g>
                <g id="zoomMin">
                        <use xlink:href="#rim" fill="#404040">
                                <set attributeName="fill" to="#808080" begin="zoomminus.mouseover" end="zoomminus.mouseout"/>
                        </use>
                        <path d="M-4,0h8" fill="none" stroke="white" stroke-width="1.5" pointer-events="none"/>
                </g>
                <g id="dirArrow">
                        <path fill="none" stroke="white" stroke-width="1.5" d="M0,-3.0v7 M-2.5,-0.5L0,-3.0L2.5,-0.5"/>
                </g>
               <g id="resetDef">
                       <use xlink:href="#rim2" fill="#404040">
                               <set attributeName="fill" to="#808080" begin="reset.mouseover" end="reset.mouseout"/>
                       </use>
               </g>
        </defs>

<script type="text/javascript">
var viewWidth = 603;
var viewHeight = 196;
var sectionId = 'dynsection-0';
</script>
<script xlink:href="svgpan.js"/>
<svg id="graph" class="graph">
<g id="viewport">
<title>src/engine/map/MapLayers.cxx</title>
<!-- Node0 -->
<g id="node1" class="node">
<title>Node0</title>
<polygon fill="#bfbfbf" stroke="#000000" points="147.5,-168.5 147.5,-187.5 314.5,-187.5 314.5,-168.5 147.5,-168.5"/>
<text text-anchor="middle" x="231" y="-175.5" font-family="Helvetica,sans-Serif" font-size="10.00" fill="#000000">src/engine/map/MapLayers.cxx</text>
</g>
<!-- Node1 -->
<g id="node2" class="node">
<title>Node1</title>
<g id="a_node2"><a xlink:href="MapLayers_8hxx.html" target="_top" xlink:title="MapLayers.hxx">
<polygon fill="none" stroke="#000000" points="135,-112.5 135,-131.5 225,-131.5 225,-112.5 135,-112.5"/>
<text text-anchor="middle" x="180" y="-119.5" font-family="Helvetica,sans-Serif" font-size="10.00" fill="#000000">MapLayers.hxx</text>
</a>
</g>
</g>
<!-- Node0&#45;&gt;Node1 -->
<g id="edge1" class="edge">
<title>Node0&#45;&gt;Node1</title>
<path fill="none" stroke="#191970" d="M222.1165,-168.2455C214.8034,-160.2155 204.2609,-148.6394 195.5533,-139.0781"/>
<polygon fill="#191970" stroke="#191970" points="198.1028,-136.6795 188.7817,-131.6427 192.9273,-141.3928 198.1028,-136.6795"/>
</g>
<!-- Node6 -->
<g id="node7" class="node">
<title>Node6</title>
<g id="a_node7"><a xlink:href="Settings_8hxx.html" target="_top" xlink:title="Settings.hxx">
<polygon fill="none" stroke="#000000" points="274.5,-112.5 274.5,-131.5 351.5,-131.5 351.5,-112.5 274.5,-112.5"/>
<text text-anchor="middle" x="313" y="-119.5" font-family="Helvetica,sans-Serif" font-size="10.00" fill="#000000">Settings.hxx</text>
</a>
</g>
</g>
<!-- Node0&#45;&gt;Node6 -->
<g id="edge6" class="edge">
<title>Node0&#45;&gt;Node6</title>
<path fill="none" stroke="#191970" d="M245.2833,-168.2455C257.747,-159.7337 276.0451,-147.2375 290.4792,-137.3801"/>
<polygon fill="#191970" stroke="#191970" points="292.5962,-140.1726 298.8804,-131.6427 288.6485,-134.392 292.5962,-140.1726"/>
</g>
<!-- Node2 -->
<g id="node3" class="node">
<title>Node2</title>
<g id="a_node3"><a xlink:href="enums_8hxx.html" target="_top" xlink:title="../common/enums.hxx">
<polygon fill="none" stroke="#000000" points="13.5,-56.5 13.5,-75.5 138.5,-75.5 138.5,-56.5 13.5,-56.5"/>
<text text-anchor="middle" x="76" y="-63.5" font-family="Helvetica,sans-Serif" font-size="10.00" fill="#000000">../common/enums.hxx</text>
</a>
</g>
</g>
<!-- Node1&#45;&gt;Node2 -->
<g id="edge2" class="edge">
<title>Node1&#45;&gt;Node2</title>
<path fill="none" stroke="#191970" d="M161.8846,-112.2455C145.555,-103.4527 121.329,-90.4079 102.7661,-80.4125"/>
<polygon fill="#191970" stroke="#191970" points="104.3719,-77.3021 93.9078,-75.6427 101.0532,-83.4654 104.3719,-77.3021"/>
</g>
<!-- Node5 -->
<g id="node6" class="node">
<title>Node5</title>
<polygon fill="none" stroke="#bfbfbf" points="156.5,-56.5 156.5,-75.5 203.5,-75.5 203.5,-56.5 156.5,-56.5"/>
<text text-anchor="middle" x="180" y="-63.5" font-family="Helvetica,sans-Serif" font-size="10.00" fill="#000000">vector</text>
</g>
<!-- Node1&#45;&gt;Node5 -->
<g id="edge5" class="edge">
<title>Node1&#45;&gt;Node5</title>
<path fill="none" stroke="#191970" d="M180,-112.2455C180,-104.9382 180,-94.6944 180,-85.7046"/>
<polygon fill="#191970" stroke="#191970" points="183.5001,-85.6426 180,-75.6427 176.5001,-85.6427 183.5001,-85.6426"/>
</g>
<!-- Node3 -->
<g id="node4" class="node">
<title>Node3</title>
<polygon fill="none" stroke="#bfbfbf" points="0,-.5 0,-19.5 56,-19.5 56,-.5 0,-.5"/>
<text text-anchor="middle" x="28" y="-7.5" font-family="Helvetica,sans-Serif" font-size="10.00" fill="#000000">stddef.h</text>
</g>
<!-- Node2&#45;&gt;Node3 -->
<g id="edge3" class="edge">
<title>Node2&#45;&gt;Node3</title>
<path fill="none" stroke="#191970" d="M67.639,-56.2455C60.825,-48.2958 51.0319,-36.8706 42.8848,-27.3656"/>
<polygon fill="#191970" stroke="#191970" points="45.4305,-24.9575 36.2651,-19.6427 40.1157,-29.513 45.4305,-24.9575"/>
</g>
<!-- Node4 -->
<g id="node5" class="node">
<title>Node4</title>
<polygon fill="none" stroke="#bfbfbf" points="74,-.5 74,-19.5 174,-19.5 174,-.5 74,-.5"/>
<text text-anchor="middle" x="124" y="-7.5" font-family="Helvetica,sans-Serif" font-size="10.00" fill="#000000">betterEnums.hxx</text>
</g>
<!-- Node2&#45;&gt;Node4 -->
<g id="edge4" class="edge">
<title>Node2&#45;&gt;Node4</title>
<path fill="none" stroke="#191970" d="M84.361,-56.2455C91.175,-48.2958 100.9681,-36.8706 109.1152,-27.3656"/>
<polygon fill="#191970" stroke="#191970" points="111.8843,-29.513 115.7349,-19.6427 106.5695,-24.9575 111.8843,-29.513"/>
</g>
<!-- Node6&#45;&gt;Node5 -->
<g id="edge8" class="edge">
<title>Node6&#45;&gt;Node5</title>
<path fill="none" stroke="#191970" d="M290.1365,-112.3733C268.595,-103.3032 236.1162,-89.6279 212.0044,-79.4755"/>
<polygon fill="#191970" stroke="#191970" points="213.1397,-76.156 202.5652,-75.5011 210.4233,-82.6075 213.1397,-76.156"/>
</g>
<!-- Node7 -->
<g id="node8" class="node">
<title>Node7</title>
<polygon fill="none" stroke="#bfbfbf" points="222,-56.5 222,-75.5 266,-75.5 266,-56.5 222,-56.5"/>
<text text-anchor="middle" x="244" y="-63.5" font-family="Helvetica,sans-Serif" font-size="10.00" fill="#000000">string</text>
</g>
<!-- Node6&#45;&gt;Node7 -->
<g id="edge7" class="edge">
<title>Node6&#45;&gt;Node7</title>
<path fill="none" stroke="#191970" d="M300.9811,-112.2455C290.7902,-103.9746 275.9638,-91.9416 263.9893,-82.2232"/>
<polygon fill="#191970" stroke="#191970" points="265.8514,-79.2268 255.8812,-75.6427 261.4402,-84.662 265.8514,-79.2268"/>
</g>
<!-- Node8 -->
<g id="node9" class="node">
<title>Node8</title>
<g id="a_node9"><a xlink:href="Singleton_8hxx.html" target="_top" xlink:title="../../util/Singleton.hxx">
<polygon fill="none" stroke="#000000" points="284,-56.5 284,-75.5 404,-75.5 404,-56.5 284,-56.5"/>
<text text-anchor="middle" x="344" y="-63.5" font-family="Helvetica,sans-Serif" font-size="10.00" fill="#000000">../../util/Singleton.hxx</text>
</a>
</g>
</g>
<!-- Node6&#45;&gt;Node8 -->
<g id="edge9" class="edge">
<title>Node6&#45;&gt;Node8</title>
<path fill="none" stroke="#191970" d="M318.3998,-112.2455C322.6227,-104.617 328.6173,-93.7881 333.7441,-84.5267"/>
<polygon fill="#191970" stroke="#191970" points="336.881,-86.0867 338.6621,-75.6427 330.7568,-82.6965 336.881,-86.0867"/>
</g>
<!-- Node9 -->
<g id="node10" class="node">
<title>Node9</title>
<g id="a_node10"><a xlink:href="Meta_8hxx.html" target="_top" xlink:title="../../util/Meta.hxx">
<polygon fill="none" stroke="#000000" points="422,-56.5 422,-75.5 520,-75.5 520,-56.5 422,-56.5"/>
<text text-anchor="middle" x="471" y="-63.5" font-family="Helvetica,sans-Serif" font-size="10.00" fill="#000000">../../util/Meta.hxx</text>
</a>
</g>
</g>
<!-- Node6&#45;&gt;Node9 -->
<g id="edge10" class="edge">
<title>Node6&#45;&gt;Node9</title>
<path fill="none" stroke="#191970" d="M340.1612,-112.3733C366.2067,-103.1419 405.7116,-89.1402 434.4979,-78.9375"/>
<polygon fill="#191970" stroke="#191970" points="435.937,-82.1408 444.1933,-75.5011 433.5985,-75.5429 435.937,-82.1408"/>
</g>
<!-- Node14 -->
<g id="node15" class="node">
<title>Node14</title>
<polygon fill="none" stroke="#bfbfbf" points="538.5,-56.5 538.5,-75.5 591.5,-75.5 591.5,-56.5 538.5,-56.5"/>
<text text-anchor="middle" x="565" y="-63.5" font-family="Helvetica,sans-Serif" font-size="10.00" fill="#000000">cstddef</text>
</g>
<!-- Node6&#45;&gt;Node14 -->
<g id="edge15" class="edge">
<title>Node6&#45;&gt;Node14</title>
<path fill="none" stroke="#191970" d="M351.7907,-114.4822C393.1179,-106.3085 460.6631,-92.4809 528.3299,-76.0516"/>
<polygon fill="#191970" stroke="#191970" points="529.4299,-79.3858 538.3113,-73.6091 527.766,-72.5864 529.4299,-79.3858"/>
</g>
<!-- Node10 -->
<g id="node11" class="node">
<title>Node10</title>
<polygon fill="none" stroke="#bfbfbf" points="319,-.5 319,-19.5 379,-19.5 379,-.5 319,-.5"/>
<text text-anchor="middle" x="349" y="-7.5" font-family="Helvetica,sans-Serif" font-size="10.00" fill="#000000">iostream</text>
</g>
<!-- Node9&#45;&gt;Node10 -->
<g id="edge11" class="edge">
<title>Node9&#45;&gt;Node10</title>
<path fill="none" stroke="#191970" d="M450.0275,-56.3733C430.4433,-47.3838 401.0039,-33.8706 378.949,-23.7471"/>
<polygon fill="#191970" stroke="#191970" points="380.2473,-20.4919 369.6989,-19.5011 377.3271,-26.8538 380.2473,-20.4919"/>
</g>
<!-- Node11 -->
<g id="node12" class="node">
<title>Node11</title>
<polygon fill="none" stroke="#bfbfbf" points="397.5,-.5 397.5,-19.5 466.5,-19.5 466.5,-.5 397.5,-.5"/>
<text text-anchor="middle" x="432" y="-7.5" font-family="Helvetica,sans-Serif" font-size="10.00" fill="#000000">type_traits</text>
</g>
<!-- Node9&#45;&gt;Node11 -->
<g id="edge12" class="edge">
<title>Node9&#45;&gt;Node11</title>
<path fill="none" stroke="#191970" d="M464.2067,-56.2455C458.7822,-48.4564 451.0339,-37.3308 444.4967,-27.9439"/>
<polygon fill="#191970" stroke="#191970" points="447.3025,-25.8485 438.7154,-19.6427 441.5583,-29.849 447.3025,-25.8485"/>
</g>
<!-- Node12 -->
<g id="node13" class="node">
<title>Node12</title>
<polygon fill="none" stroke="#bfbfbf" points="484.5,-.5 484.5,-19.5 535.5,-19.5 535.5,-.5 484.5,-.5"/>
<text text-anchor="middle" x="510" y="-7.5" font-family="Helvetica,sans-Serif" font-size="10.00" fill="#000000">variant</text>
</g>
<!-- Node9&#45;&gt;Node12 -->
<g id="edge13" class="edge">
<title>Node9&#45;&gt;Node12</title>
<path fill="none" stroke="#191970" d="M477.7933,-56.2455C483.2178,-48.4564 490.9661,-37.3308 497.5033,-27.9439"/>
<polygon fill="#191970" stroke="#191970" points="500.4417,-29.849 503.2846,-19.6427 494.6975,-25.8485 500.4417,-29.849"/>
</g>
<!-- Node13 -->
<g id="node14" class="node">
<title>Node13</title>
<polygon fill="none" stroke="#bfbfbf" points="553.5,-.5 553.5,-19.5 594.5,-19.5 594.5,-.5 553.5,-.5"/>
<text text-anchor="middle" x="574" y="-7.5" font-family="Helvetica,sans-Serif" font-size="10.00" fill="#000000">tuple</text>
</g>
<!-- Node9&#45;&gt;Node13 -->
<g id="edge14" class="edge">
<title>Node9&#45;&gt;Node13</title>
<path fill="none" stroke="#191970" d="M488.9412,-56.2455C505.04,-47.4928 528.8879,-34.527 547.2391,-24.5496"/>
<polygon fill="#191970" stroke="#191970" points="549.1507,-27.4942 556.2644,-19.6427 545.8071,-21.3444 549.1507,-27.4942"/>
</g>
</g>
</svg>
        <g id="navigator" transform="translate(0 0)" fill="#404254">
                <rect fill="#f2f5e9" fill-opacity="0.5" stroke="#606060" stroke-width=".5" x="0" y="0" width="60" height="60"/>
                <use id="zoomplus" xlink:href="#zoomPlus" x="17" y="9" onmousedown="handleZoom(evt,'in')"/>
                <use id="zoomminus" xlink:href="#zoomMin" x="42" y="9" onmousedown="handleZoom(evt,'out')"/>
                <use id="reset" xlink:href="#resetDef" x="30" y="36" onmousedown="handleReset()"/>
                <g id="arrowUp" xlink:href="#dirArrow" transform="translate(30 24)" onmousedown="handlePan(0,-1)">
                  <use xlink:href="#rim" fill="#404040">
                        <set attributeName="fill" to="#808080" begin="arrowUp.mouseover" end="arrowUp.mouseout"/>
                  </use>
                  <path fill="none" stroke="white" stroke-width="1.5" d="M0,-3.0v7 M-2.5,-0.5L0,-3.0L2.5,-0.5"/>
                </g>
                <g id="arrowRight" xlink:href="#dirArrow" transform="rotate(90) translate(36 -43)" onmousedown="handlePan(1,0)">
                  <use xlink:href="#rim" fill="#404040">
                        <set attributeName="fill" to="#808080" begin="arrowRight.mouseover" end="arrowRight.mouseout"/>
                  </use>
                  <path fill="none" stroke="white" stroke-width="1.5" d="M0,-3.0v7 M-2.5,-0.5L0,-3.0L2.5,-0.5"/>
                </g>
                <g id="arrowDown" xlink:href="#dirArrow" transform="rotate(180) translate(-30 -48)" onmousedown="handlePan(0,1)">
                  <use xlink:href="#rim" fill="#404040">
                        <set attributeName="fill" to="#808080" begin="arrowDown.mouseover" end="arrowDown.mouseout"/>
                  </use>
                  <path fill="none" stroke="white" stroke-width="1.5" d="M0,-3.0v7 M-2.5,-0.5L0,-3.0L2.5,-0.5"/>
                </g>
                <g id="arrowLeft" xlink:href="#dirArrow" transform="rotate(270) translate(-36 17)" onmousedown="handlePan(-1,0)">
                  <use xlink:href="#rim" fill="#404040">
                        <set attributeName="fill" to="#808080" begin="arrowLeft.mouseover" end="arrowLeft.mouseout"/>
                  </use>
                  <path fill="none" stroke="white" stroke-width="1.5" d="M0,-3.0v7 M-2.5,-0.5L0,-3.0L2.5,-0.5"/>
                </g>
        </g>
        <svg viewBox="0 0 15 15" width="100%" height="30px" preserveAspectRatio="xMaxYMin meet">
         <g id="arrow_out" transform="scale(0.3 0.3)">
          <a xlink:href="MapLayers_8cxx__incl_org.svg" target="_base">
           <rect id="button" ry="5" rx="5" y="6" x="6" height="38" width="38"
                fill="#f2f5e9" fill-opacity="0.5" stroke="#606060" stroke-width="1.0"/>
           <path id="arrow"
             d="M 11.500037,31.436501 C 11.940474,20.09759 22.043105,11.32322 32.158766,21.979434 L 37.068811,17.246167 C 37.068811,17.246167 37.088388,32 37.088388,32 L 22.160133,31.978069 C 22.160133,31.978069 26.997745,27.140456 26.997745,27.140456 C 18.528582,18.264221 13.291696,25.230495 11.500037,31.436501 z"
             style="fill:#404040;"/>
          </a>
         </g>
        </svg>
</svg>
