<?xml version="1.0" encoding="UTF-8" standalone="no"?>
<!DOCTYPE svg PUBLIC "-//W3C//DTD SVG 1.1//EN"
 "http://www.w3.org/Graphics/SVG/1.1/DTD/svg11.dtd">
<!-- Generated by graphviz version 2.40.1 (20161225.0304)
 -->
<!-- Title: src/engine/GameObjects/MapNode.cxx Pages: 1 -->
<svg width="2044pt" height="319pt"
 viewBox="0.00 0.00 2044.48 319.00" xmlns="http://www.w3.org/2000/svg" xmlns:xlink="http://www.w3.org/1999/xlink">
<g id="graph0" class="graph" transform="scale(1 1) rotate(0) translate(4 315)">
<title>src/engine/GameObjects/MapNode.cxx</title>
<!-- Node0 -->
<g id="node1" class="node">
<title>Node0</title>
<polygon fill="#bfbfbf" stroke="#000000" points="759.9786,-280.5 759.9786,-310.5 895.9786,-310.5 895.9786,-280.5 759.9786,-280.5"/>
<text text-anchor="start" x="767.9786" y="-298.5" font-family="Helvetica,sans-Serif" font-size="10.00" fill="#000000">src/engine/GameObjects</text>
<text text-anchor="middle" x="827.9786" y="-287.5" font-family="Helvetica,sans-Serif" font-size="10.00" fill="#000000">/MapNode.cxx</text>
</g>
<!-- Node1 -->
<g id="node2" class="node">
<title>Node1</title>
<polygon fill="none" stroke="#bfbfbf" points="150.4786,-224.5 150.4786,-243.5 199.4786,-243.5 199.4786,-224.5 150.4786,-224.5"/>
<text text-anchor="middle" x="174.9786" y="-231.5" font-family="Helvetica,sans-Serif" font-size="10.00" fill="#000000">cstdlib</text>
</g>
<!-- Node0&#45;&gt;Node1 -->
<g id="edge1" class="edge">
<title>Node0&#45;&gt;Node1</title>
<path fill="none" stroke="#191970" d="M759.8262,-293.5044C646.0275,-289.3428 410.43,-277.1848 213.9786,-244 212.514,-243.7526 211.0239,-243.4774 209.5224,-243.1806"/>
<polygon fill="#191970" stroke="#191970" points="210.1237,-239.7289 199.6026,-240.9772 208.6058,-246.5624 210.1237,-239.7289"/>
</g>
<!-- Node2 -->
<g id="node3" class="node">
<title>Node2</title>
<g id="a_node3"><a xlink:href="MapNode_8hxx.html" target="_top" xlink:title="MapNode.hxx">
<polygon fill="none" stroke="#000000" points="686.4786,-224.5 686.4786,-243.5 769.4786,-243.5 769.4786,-224.5 686.4786,-224.5"/>
<text text-anchor="middle" x="727.9786" y="-231.5" font-family="Helvetica,sans-Serif" font-size="10.00" fill="#000000">MapNode.hxx</text>
</a>
</g>
</g>
<!-- Node0&#45;&gt;Node2 -->
<g id="edge2" class="edge">
<title>Node0&#45;&gt;Node2</title>
<path fill="none" stroke="#191970" d="M803.5159,-280.4554C787.8552,-270.8241 767.6255,-258.3828 752.0431,-248.7996"/>
<polygon fill="#191970" stroke="#191970" points="753.8267,-245.7876 743.4751,-243.5303 750.1596,-251.7503 753.8267,-245.7876"/>
</g>
<!-- Node19 -->
<g id="node20" class="node">
<title>Node19</title>
<g id="a_node20"><a xlink:href="LOG_8hxx.html" target="_top" xlink:title="LOG.hxx">
<polygon fill="none" stroke="#000000" points="1506.9786,-168.5 1506.9786,-187.5 1564.9786,-187.5 1564.9786,-168.5 1506.9786,-168.5"/>
<text text-anchor="middle" x="1535.9786" y="-175.5" font-family="Helvetica,sans-Serif" font-size="10.00" fill="#000000">LOG.hxx</text>
</a>
</g>
</g>
<!-- Node0&#45;&gt;Node19 -->
<g id="edge28" class="edge">
<title>Node0&#45;&gt;Node19</title>
<path fill="none" stroke="#191970" d="M896.186,-284.1803C1042.2123,-259.9457 1381.1851,-203.6896 1496.6431,-184.5281"/>
<polygon fill="#191970" stroke="#191970" points="1497.4982,-187.9342 1506.7902,-182.8441 1496.3521,-181.0286 1497.4982,-187.9342"/>
</g>
<!-- Node34 -->
<g id="node35" class="node">
<title>Node34</title>
<g id="a_node35"><a xlink:href="MapLayers_8hxx.html" target="_top" xlink:title="../map/MapLayers.hxx">
<polygon fill="none" stroke="#000000" points="21.9786,-112.5 21.9786,-131.5 145.9786,-131.5 145.9786,-112.5 21.9786,-112.5"/>
<text text-anchor="middle" x="83.9786" y="-119.5" font-family="Helvetica,sans-Serif" font-size="10.00" fill="#000000">../map/MapLayers.hxx</text>
</a>
</g>
</g>
<!-- Node0&#45;&gt;Node34 -->
<g id="edge47" class="edge">
<title>Node0&#45;&gt;Node34</title>
<path fill="none" stroke="#191970" d="M759.5335,-287.3141C649.9861,-273.2139 429.1656,-240.6776 247.9786,-188 199.5033,-173.9065 145.6166,-150.6769 113.2843,-135.8697"/>
<polygon fill="#191970" stroke="#191970" points="114.5176,-132.584 103.972,-131.5642 111.58,-138.9378 114.5176,-132.584"/>
</g>
<!-- Node35 -->
<g id="node36" class="node">
<title>Node35</title>
<g id="a_node36"><a xlink:href="GameStates_8hxx.html" target="_top" xlink:title="GameStates.hxx">
<polygon fill="none" stroke="#000000" points="946.9786,-168.5 946.9786,-187.5 1044.9786,-187.5 1044.9786,-168.5 946.9786,-168.5"/>
<text text-anchor="middle" x="995.9786" y="-175.5" font-family="Helvetica,sans-Serif" font-size="10.00" fill="#000000">GameStates.hxx</text>
</a>
</g>
</g>
<!-- Node0&#45;&gt;Node35 -->
<g id="edge50" class="edge">
<title>Node0&#45;&gt;Node35</title>
<path fill="none" stroke="#191970" d="M849.5978,-280.3795C881.6759,-257.9439 941.5596,-216.0609 973.9006,-193.4415"/>
<polygon fill="#191970" stroke="#191970" points="976.0574,-196.2041 982.2461,-187.6046 972.0455,-190.4679 976.0574,-196.2041"/>
</g>
<!-- Node36 -->
<g id="node37" class="node">
<title>Node36</title>
<g id="a_node37"><a xlink:href="Settings_8hxx.html" target="_top" xlink:title="Settings.hxx">
<polygon fill="none" stroke="#000000" points="1136.4786,-168.5 1136.4786,-187.5 1213.4786,-187.5 1213.4786,-168.5 1136.4786,-168.5"/>
<text text-anchor="middle" x="1174.9786" y="-175.5" font-family="Helvetica,sans-Serif" font-size="10.00" fill="#000000">Settings.hxx</text>
</a>
</g>
</g>
<!-- Node0&#45;&gt;Node36 -->
<g id="edge54" class="edge">
<title>Node0&#45;&gt;Node36</title>
<path fill="none" stroke="#191970" d="M872.2789,-280.4992C940.9574,-257.2435 1071.9467,-212.8883 1136.7372,-190.9492"/>
<polygon fill="#191970" stroke="#191970" points="1138.1985,-194.1497 1146.5476,-187.6272 1135.9533,-187.5195 1138.1985,-194.1497"/>
</g>
<!-- Node3 -->
<g id="node4" class="node">
<title>Node3</title>
<polygon fill="none" stroke="#bfbfbf" points="315.9786,-112.5 315.9786,-131.5 359.9786,-131.5 359.9786,-112.5 315.9786,-112.5"/>
<text text-anchor="middle" x="337.9786" y="-119.5" font-family="Helvetica,sans-Serif" font-size="10.00" fill="#000000">SDL.h</text>
</g>
<!-- Node2&#45;&gt;Node3 -->
<g id="edge3" class="edge">
<title>Node2&#45;&gt;Node3</title>
<path fill="none" stroke="#191970" d="M693.3346,-224.4436C629.3225,-206.7165 488.2527,-167.3232 369.9786,-132 369.8775,-131.9698 369.7763,-131.9395 369.6749,-131.9092"/>
<polygon fill="#191970" stroke="#191970" points="370.5761,-128.525 359.9901,-128.959 368.5362,-135.2212 370.5761,-128.525"/>
</g>
<!-- Node4 -->
<g id="node5" class="node">
<title>Node4</title>
<polygon fill="none" stroke="#bfbfbf" points="870.9786,-168.5 870.9786,-187.5 928.9786,-187.5 928.9786,-168.5 870.9786,-168.5"/>
<text text-anchor="middle" x="899.9786" y="-175.5" font-family="Helvetica,sans-Serif" font-size="10.00" fill="#000000">memory</text>
</g>
<!-- Node2&#45;&gt;Node4 -->
<g id="edge4" class="edge">
<title>Node2&#45;&gt;Node4</title>
<path fill="none" stroke="#191970" d="M757.5465,-224.3733C786.1475,-215.0613 829.6575,-200.8953 861.0605,-190.671"/>
<polygon fill="#191970" stroke="#191970" points="862.3715,-193.9251 870.7966,-187.5011 860.2043,-187.269 862.3715,-193.9251"/>
</g>
<!-- Node5 -->
<g id="node6" class="node">
<title>Node5</title>
<polygon fill="none" stroke="#bfbfbf" points="1047.9786,-56.5 1047.9786,-75.5 1091.9786,-75.5 1091.9786,-56.5 1047.9786,-56.5"/>
<text text-anchor="middle" x="1069.9786" y="-63.5" font-family="Helvetica,sans-Serif" font-size="10.00" fill="#000000">string</text>
</g>
<!-- Node2&#45;&gt;Node5 -->
<g id="edge5" class="edge">
<title>Node2&#45;&gt;Node5</title>
<path fill="none" stroke="#191970" d="M769.7405,-230.9086C853.1846,-224.3346 1034.2463,-207.9261 1053.9786,-188 1080.6777,-161.0386 1078.0294,-112.7576 1073.9053,-85.722"/>
<polygon fill="#191970" stroke="#191970" points="1077.2987,-84.808 1072.1288,-75.5602 1070.4033,-86.0135 1077.2987,-84.808"/>
</g>
<!-- Node6 -->
<g id="node7" class="node">
<title>Node6</title>
<polygon fill="none" stroke="#bfbfbf" points="1245.9786,-112.5 1245.9786,-131.5 1309.9786,-131.5 1309.9786,-112.5 1245.9786,-112.5"/>
<text text-anchor="middle" x="1277.9786" y="-119.5" font-family="Helvetica,sans-Serif" font-size="10.00" fill="#000000">algorithm</text>
</g>
<!-- Node2&#45;&gt;Node6 -->
<g id="edge6" class="edge">
<title>Node2&#45;&gt;Node6</title>
<path fill="none" stroke="#191970" d="M769.8749,-231.9382C882.0327,-226.1624 1183.3088,-208.8729 1222.9786,-188 1243.0917,-177.4172 1258.747,-156.0499 1268.1256,-140.4857"/>
<polygon fill="#191970" stroke="#191970" points="1271.2261,-142.1139 1273.1376,-131.6929 1265.1447,-138.6473 1271.2261,-142.1139"/>
</g>
<!-- Node7 -->
<g id="node8" class="node">
<title>Node7</title>
<polygon fill="none" stroke="#bfbfbf" points="763.4786,-56.5 763.4786,-75.5 810.4786,-75.5 810.4786,-56.5 763.4786,-56.5"/>
<text text-anchor="middle" x="786.9786" y="-63.5" font-family="Helvetica,sans-Serif" font-size="10.00" fill="#000000">vector</text>
</g>
<!-- Node2&#45;&gt;Node7 -->
<g id="edge7" class="edge">
<title>Node2&#45;&gt;Node7</title>
<path fill="none" stroke="#191970" d="M744.6077,-224.3798C769.7559,-208.7442 816.4879,-175.1729 834.9786,-132 843.1013,-113.0349 826.4528,-94.2907 810.5855,-81.6522"/>
<polygon fill="#191970" stroke="#191970" points="812.6064,-78.7933 802.4945,-75.6309 808.4272,-84.4089 812.6064,-78.7933"/>
</g>
<!-- Node8 -->
<g id="node9" class="node">
<title>Node8</title>
<g id="a_node9"><a xlink:href="Sprite_8hxx.html" target="_top" xlink:title="../Sprite.hxx">
<polygon fill="none" stroke="#000000" points="256.4786,-168.5 256.4786,-187.5 331.4786,-187.5 331.4786,-168.5 256.4786,-168.5"/>
<text text-anchor="middle" x="293.9786" y="-175.5" font-family="Helvetica,sans-Serif" font-size="10.00" fill="#000000">../Sprite.hxx</text>
</a>
</g>
</g>
<!-- Node2&#45;&gt;Node8 -->
<g id="edge8" class="edge">
<title>Node2&#45;&gt;Node8</title>
<path fill="none" stroke="#191970" d="M686.3649,-228.6305C605.4269,-218.1869 427.2592,-195.1975 341.6888,-184.1562"/>
<polygon fill="#191970" stroke="#191970" points="342.0909,-180.6791 331.7252,-182.8705 341.1951,-187.6215 342.0909,-180.6791"/>
</g>
<!-- Node9 -->
<g id="node10" class="node">
<title>Node9</title>
<g id="a_node10"><a xlink:href="point_8hxx.html" target="_top" xlink:title="basics/point.hxx">
<polygon fill="none" stroke="#000000" points="201.9786,-112.5 201.9786,-131.5 297.9786,-131.5 297.9786,-112.5 201.9786,-112.5"/>
<text text-anchor="middle" x="249.9786" y="-119.5" font-family="Helvetica,sans-Serif" font-size="10.00" fill="#000000">basics/point.hxx</text>
</a>
</g>
</g>
<!-- Node2&#45;&gt;Node9 -->
<g id="edge16" class="edge">
<title>Node2&#45;&gt;Node9</title>
<path fill="none" stroke="#191970" d="M686.1847,-226.7563C639.0432,-218.3687 560.184,-203.6828 492.9786,-188 422.0337,-171.4445 340.4819,-148.4754 292.1957,-134.4581"/>
<polygon fill="#191970" stroke="#191970" points="292.9925,-131.0448 282.4127,-131.6084 291.0348,-137.7655 292.9925,-131.0448"/>
</g>
<!-- Node10 -->
<g id="node11" class="node">
<title>Node10</title>
<g id="a_node11"><a xlink:href="enums_8hxx.html" target="_top" xlink:title="common/enums.hxx">
<polygon fill="none" stroke="#000000" points="25.9786,-56.5 25.9786,-75.5 141.9786,-75.5 141.9786,-56.5 25.9786,-56.5"/>
<text text-anchor="middle" x="83.9786" y="-63.5" font-family="Helvetica,sans-Serif" font-size="10.00" fill="#000000">common/enums.hxx</text>
</a>
</g>
</g>
<!-- Node2&#45;&gt;Node10 -->
<g id="edge15" class="edge">
<title>Node2&#45;&gt;Node10</title>
<path fill="none" stroke="#191970" d="M686.2441,-231.3994C538.6453,-221.7673 47.8485,-185.873 4.9786,-132 -11.868,-110.8294 18.8363,-91.6173 46.7439,-79.4506"/>
<polygon fill="#191970" stroke="#191970" points="48.1308,-82.6646 56.0283,-75.602 45.4503,-76.1982 48.1308,-82.6646"/>
</g>
<!-- Node13 -->
<g id="node14" class="node">
<title>Node13</title>
<g id="a_node14"><a xlink:href="TileManager_8hxx.html" target="_top" xlink:title="../TileManager.hxx">
<polygon fill="none" stroke="#000000" points="608.9786,-168.5 608.9786,-187.5 714.9786,-187.5 714.9786,-168.5 608.9786,-168.5"/>
<text text-anchor="middle" x="661.9786" y="-175.5" font-family="Helvetica,sans-Serif" font-size="10.00" fill="#000000">../TileManager.hxx</text>
</a>
</g>
</g>
<!-- Node2&#45;&gt;Node13 -->
<g id="edge17" class="edge">
<title>Node2&#45;&gt;Node13</title>
<path fill="none" stroke="#191970" d="M716.4823,-224.2455C706.7344,-215.9746 692.5527,-203.9416 681.0989,-194.2232"/>
<polygon fill="#191970" stroke="#191970" points="683.2328,-191.4437 673.3432,-187.6427 678.7039,-196.7813 683.2328,-191.4437"/>
</g>
<!-- Node8&#45;&gt;Node3 -->
<g id="edge9" class="edge">
<title>Node8&#45;&gt;Node3</title>
<path fill="none" stroke="#191970" d="M301.6428,-168.2455C307.826,-160.3761 316.685,-149.101 324.1075,-139.6542"/>
<polygon fill="#191970" stroke="#191970" points="326.9761,-141.6683 330.4022,-131.6427 321.4719,-137.3435 326.9761,-141.6683"/>
</g>
<!-- Node8&#45;&gt;Node7 -->
<g id="edge10" class="edge">
<title>Node8&#45;&gt;Node7</title>
<path fill="none" stroke="#191970" d="M256.2076,-168.6257C218.5418,-157.5723 169.431,-137.4417 192.9786,-112 212.1386,-91.2989 630.0406,-72.4732 753.1464,-67.3608"/>
<polygon fill="#191970" stroke="#191970" points="753.6206,-70.8443 763.4681,-66.9357 753.3325,-63.8502 753.6206,-70.8443"/>
</g>
<!-- Node8&#45;&gt;Node9 -->
<g id="edge11" class="edge">
<title>Node8&#45;&gt;Node9</title>
<path fill="none" stroke="#191970" d="M286.3144,-168.2455C280.1313,-160.3761 271.2723,-149.101 263.8498,-139.6542"/>
<polygon fill="#191970" stroke="#191970" points="266.4854,-137.3435 257.555,-131.6427 260.9812,-141.6683 266.4854,-137.3435"/>
</g>
<!-- Node8&#45;&gt;Node10 -->
<g id="edge12" class="edge">
<title>Node8&#45;&gt;Node10</title>
<path fill="none" stroke="#191970" d="M256.376,-174.5376C183.4553,-167.4423 28.5822,-150.3656 12.9786,-132 -3.7138,-112.3529 24.9938,-92.5864 50.7447,-79.8785"/>
<polygon fill="#191970" stroke="#191970" points="52.444,-82.9473 60.0086,-75.5293 49.4691,-76.6109 52.444,-82.9473"/>
</g>
<!-- Node11 -->
<g id="node12" class="node">
<title>Node11</title>
<polygon fill="none" stroke="#bfbfbf" points="7.9786,-.5 7.9786,-19.5 63.9786,-19.5 63.9786,-.5 7.9786,-.5"/>
<text text-anchor="middle" x="35.9786" y="-7.5" font-family="Helvetica,sans-Serif" font-size="10.00" fill="#000000">stddef.h</text>
</g>
<!-- Node10&#45;&gt;Node11 -->
<g id="edge13" class="edge">
<title>Node10&#45;&gt;Node11</title>
<path fill="none" stroke="#191970" d="M75.6177,-56.2455C68.8036,-48.2958 59.0105,-36.8706 50.8634,-27.3656"/>
<polygon fill="#191970" stroke="#191970" points="53.4091,-24.9575 44.2438,-19.6427 48.0943,-29.513 53.4091,-24.9575"/>
</g>
<!-- Node12 -->
<g id="node13" class="node">
<title>Node12</title>
<polygon fill="none" stroke="#bfbfbf" points="81.9786,-.5 81.9786,-19.5 181.9786,-19.5 181.9786,-.5 81.9786,-.5"/>
<text text-anchor="middle" x="131.9786" y="-7.5" font-family="Helvetica,sans-Serif" font-size="10.00" fill="#000000">betterEnums.hxx</text>
</g>
<!-- Node10&#45;&gt;Node12 -->
<g id="edge14" class="edge">
<title>Node10&#45;&gt;Node12</title>
<path fill="none" stroke="#191970" d="M92.3396,-56.2455C99.1536,-48.2958 108.9467,-36.8706 117.0939,-27.3656"/>
<polygon fill="#191970" stroke="#191970" points="119.8629,-29.513 123.7135,-19.6427 114.5481,-24.9575 119.8629,-29.513"/>
</g>
<!-- Node13&#45;&gt;Node3 -->
<g id="edge18" class="edge">
<title>Node13&#45;&gt;Node3</title>
<path fill="none" stroke="#191970" d="M608.777,-171.9992C549.9024,-164.8083 452.4345,-151.2689 369.9786,-132 369.8794,-131.9768 369.7801,-131.9535 369.6807,-131.93"/>
<polygon fill="#191970" stroke="#191970" points="370.8071,-128.6081 360.2431,-129.4157 369.005,-135.3722 370.8071,-128.6081"/>
</g>
<!-- Node13&#45;&gt;Node5 -->
<g id="edge20" class="edge">
<title>Node13&#45;&gt;Node5</title>
<path fill="none" stroke="#191970" d="M698.4687,-168.455C733.5082,-159.2523 787.9125,-144.866 834.9786,-132 907.7914,-112.096 993.0504,-87.9373 1038.184,-75.081"/>
<polygon fill="#191970" stroke="#191970" points="1039.3183,-78.3971 1047.9757,-72.2898 1037.3993,-71.6653 1039.3183,-78.3971"/>
</g>
<!-- Node14 -->
<g id="node15" class="node">
<title>Node14</title>
<polygon fill="none" stroke="#bfbfbf" points="378.4786,-112.5 378.4786,-131.5 471.4786,-131.5 471.4786,-112.5 378.4786,-112.5"/>
<text text-anchor="middle" x="424.9786" y="-119.5" font-family="Helvetica,sans-Serif" font-size="10.00" fill="#000000">unordered_map</text>
</g>
<!-- Node13&#45;&gt;Node14 -->
<g id="edge19" class="edge">
<title>Node13&#45;&gt;Node14</title>
<path fill="none" stroke="#191970" d="M621.5062,-168.4369C581.0307,-158.8731 518.6919,-144.1432 475.1084,-133.845"/>
<polygon fill="#191970" stroke="#191970" points="475.8211,-130.4171 465.2842,-131.5237 474.2113,-137.2295 475.8211,-130.4171"/>
</g>
<!-- Node15 -->
<g id="node16" class="node">
<title>Node15</title>
<g id="a_node16"><a xlink:href="tileData_8hxx.html" target="_top" xlink:title="tileData.hxx">
<polygon fill="none" stroke="#000000" points="748.4786,-112.5 748.4786,-131.5 825.4786,-131.5 825.4786,-112.5 748.4786,-112.5"/>
<text text-anchor="middle" x="786.9786" y="-119.5" font-family="Helvetica,sans-Serif" font-size="10.00" fill="#000000">tileData.hxx</text>
</a>
</g>
</g>
<!-- Node13&#45;&gt;Node15 -->
<g id="edge21" class="edge">
<title>Node13&#45;&gt;Node15</title>
<path fill="none" stroke="#191970" d="M683.4669,-168.3733C703.6226,-159.3435 733.9667,-145.7494 756.5967,-135.6111"/>
<polygon fill="#191970" stroke="#191970" points="758.0757,-138.7838 765.7708,-131.5011 755.2137,-132.3955 758.0757,-138.7838"/>
</g>
<!-- Node16 -->
<g id="node17" class="node">
<title>Node16</title>
<polygon fill="none" stroke="#bfbfbf" points="489.9786,-112.5 489.9786,-131.5 547.9786,-131.5 547.9786,-112.5 489.9786,-112.5"/>
<text text-anchor="middle" x="518.9786" y="-119.5" font-family="Helvetica,sans-Serif" font-size="10.00" fill="#000000">json.hxx</text>
</g>
<!-- Node13&#45;&gt;Node16 -->
<g id="edge25" class="edge">
<title>Node13&#45;&gt;Node16</title>
<path fill="none" stroke="#191970" d="M637.3961,-168.3733C614.0291,-159.2226 578.6924,-145.3844 552.7002,-135.2057"/>
<polygon fill="#191970" stroke="#191970" points="553.8282,-131.8886 543.2404,-131.5011 551.2756,-138.4066 553.8282,-131.8886"/>
</g>
<!-- Node17 -->
<g id="node18" class="node">
<title>Node17</title>
<g id="a_node18"><a xlink:href="Singleton_8hxx.html" target="_top" xlink:title="Singleton.hxx">
<polygon fill="none" stroke="#000000" points="920.4786,-112.5 920.4786,-131.5 1003.4786,-131.5 1003.4786,-112.5 920.4786,-112.5"/>
<text text-anchor="middle" x="961.9786" y="-119.5" font-family="Helvetica,sans-Serif" font-size="10.00" fill="#000000">Singleton.hxx</text>
</a>
</g>
</g>
<!-- Node13&#45;&gt;Node17 -->
<g id="edge26" class="edge">
<title>Node13&#45;&gt;Node17</title>
<path fill="none" stroke="#191970" d="M713.2096,-168.4369C768.1928,-158.1734 855.0486,-141.9603 910.2306,-131.6596"/>
<polygon fill="#191970" stroke="#191970" points="910.963,-135.0835 920.1509,-129.8078 909.6784,-128.2023 910.963,-135.0835"/>
</g>
<!-- Node18 -->
<g id="node19" class="node">
<title>Node18</title>
<polygon fill="none" stroke="#bfbfbf" points="566.4786,-112.5 566.4786,-131.5 691.4786,-131.5 691.4786,-112.5 566.4786,-112.5"/>
<text text-anchor="middle" x="628.9786" y="-119.5" font-family="Helvetica,sans-Serif" font-size="10.00" fill="#000000">../common/enums.hxx</text>
</g>
<!-- Node13&#45;&gt;Node18 -->
<g id="edge27" class="edge">
<title>Node13&#45;&gt;Node18</title>
<path fill="none" stroke="#191970" d="M656.2305,-168.2455C651.7351,-160.617 645.3538,-149.7881 639.8962,-140.5267"/>
<polygon fill="#191970" stroke="#191970" points="642.7533,-138.4811 634.6609,-131.6427 636.7225,-142.035 642.7533,-138.4811"/>
</g>
<!-- Node15&#45;&gt;Node5 -->
<g id="edge22" class="edge">
<title>Node15&#45;&gt;Node5</title>
<path fill="none" stroke="#191970" d="M825.7352,-114.3309C881.9596,-103.2052 985.1392,-82.788 1037.5634,-72.4143"/>
<polygon fill="#191970" stroke="#191970" points="1038.5134,-75.7943 1047.6438,-70.4196 1037.1546,-68.9274 1038.5134,-75.7943"/>
</g>
<!-- Node15&#45;&gt;Node7 -->
<g id="edge23" class="edge">
<title>Node15&#45;&gt;Node7</title>
<path fill="none" stroke="#191970" d="M786.9786,-112.2455C786.9786,-104.9382 786.9786,-94.6944 786.9786,-85.7046"/>
<polygon fill="#191970" stroke="#191970" points="790.4787,-85.6426 786.9786,-75.6427 783.4787,-85.6427 790.4787,-85.6426"/>
</g>
<!-- Node15&#45;&gt;Node10 -->
<g id="edge24" class="edge">
<title>Node15&#45;&gt;Node10</title>
<path fill="none" stroke="#191970" d="M748.274,-114.1615C743.4731,-113.3476 738.6219,-112.6003 733.9786,-112 522.7557,-84.6926 270.6698,-72.6715 152.0551,-68.2218"/>
<polygon fill="#191970" stroke="#191970" points="152.1505,-64.7231 142.0282,-67.8519 151.8924,-71.7183 152.1505,-64.7231"/>
</g>
<!-- Node19&#45;&gt;Node3 -->
<g id="edge38" class="edge">
<title>Node19&#45;&gt;Node3</title>
<path fill="none" stroke="#191970" d="M1506.7249,-177.0638C1331.5999,-171.4322 427.6524,-141.9688 369.9786,-132 369.8783,-131.9827 369.7778,-131.9651 369.6772,-131.9473"/>
<polygon fill="#191970" stroke="#191970" points="370.7043,-128.5923 360.1737,-129.7573 369.1324,-135.4135 370.7043,-128.5923"/>
</g>
<!-- Node19&#45;&gt;Node5 -->
<g id="edge29" class="edge">
<title>Node19&#45;&gt;Node5</title>
<path fill="none" stroke="#191970" d="M1506.8132,-172.6822C1470.8411,-165.6323 1408.1723,-151.739 1356.9786,-132 1339.1712,-125.1339 1337.0118,-118.249 1318.9786,-112 1243.869,-85.9724 1150.6342,-73.7633 1102.3533,-68.8372"/>
<polygon fill="#191970" stroke="#191970" points="1102.4913,-65.334 1092.1975,-67.8416 1101.8084,-72.3006 1102.4913,-65.334"/>
</g>
<!-- Node19&#45;&gt;Node6 -->
<g id="edge39" class="edge">
<title>Node19&#45;&gt;Node6</title>
<path fill="none" stroke="#191970" d="M1506.8295,-171.679C1465.9609,-162.8157 1389.3057,-146.1881 1323.9786,-132 1322.7208,-131.7268 1321.4436,-131.4494 1320.1542,-131.1693"/>
<polygon fill="#191970" stroke="#191970" points="1320.6641,-127.6985 1310.1489,-128.9952 1319.1777,-134.5388 1320.6641,-127.6985"/>
</g>
<!-- Node20 -->
<g id="node21" class="node">
<title>Node20</title>
<g id="a_node21"><a xlink:href="Exception_8hxx.html" target="_top" xlink:title="Exception.hxx">
<polygon fill="none" stroke="#000000" points="1919.9786,-112.5 1919.9786,-131.5 2005.9786,-131.5 2005.9786,-112.5 1919.9786,-112.5"/>
<text text-anchor="middle" x="1962.9786" y="-119.5" font-family="Helvetica,sans-Serif" font-size="10.00" fill="#000000">Exception.hxx</text>
</a>
</g>
</g>
<!-- Node19&#45;&gt;Node20 -->
<g id="edge30" class="edge">
<title>Node19&#45;&gt;Node20</title>
<path fill="none" stroke="#191970" d="M1565.3051,-174.8583C1627.9754,-168.0338 1779.5461,-150.9378 1905.9786,-132 1907.2362,-131.8116 1908.5087,-131.6175 1909.7916,-131.4185"/>
<polygon fill="#191970" stroke="#191970" points="1910.4379,-134.8596 1919.7556,-129.8167 1909.3269,-127.9484 1910.4379,-134.8596"/>
</g>
<!-- Node23 -->
<g id="node24" class="node">
<title>Node23</title>
<polygon fill="none" stroke="#bfbfbf" points="1684.9786,-56.5 1684.9786,-75.5 1744.9786,-75.5 1744.9786,-56.5 1684.9786,-56.5"/>
<text text-anchor="middle" x="1714.9786" y="-63.5" font-family="Helvetica,sans-Serif" font-size="10.00" fill="#000000">iostream</text>
</g>
<!-- Node19&#45;&gt;Node23 -->
<g id="edge33" class="edge">
<title>Node19&#45;&gt;Node23</title>
<path fill="none" stroke="#191970" d="M1565.231,-176.1762C1643.4387,-171.0042 1852.8122,-155.1061 1872.9786,-132 1908.6606,-91.1166 1813.1239,-74.98 1755.3566,-69.0855"/>
<polygon fill="#191970" stroke="#191970" points="1755.6846,-65.601 1745.3964,-68.1314 1755.017,-72.5691 1755.6846,-65.601"/>
</g>
<!-- Node24 -->
<g id="node25" class="node">
<title>Node24</title>
<polygon fill="none" stroke="#bfbfbf" points="1445.9786,-112.5 1445.9786,-131.5 1495.9786,-131.5 1495.9786,-112.5 1445.9786,-112.5"/>
<text text-anchor="middle" x="1470.9786" y="-119.5" font-family="Helvetica,sans-Serif" font-size="10.00" fill="#000000">chrono</text>
</g>
<!-- Node19&#45;&gt;Node24 -->
<g id="edge34" class="edge">
<title>Node19&#45;&gt;Node24</title>
<path fill="none" stroke="#191970" d="M1524.6565,-168.2455C1515.0563,-159.9746 1501.0895,-147.9416 1489.8092,-138.2232"/>
<polygon fill="#191970" stroke="#191970" points="1492.0316,-135.5182 1482.171,-131.6427 1487.4626,-140.8214 1492.0316,-135.5182"/>
</g>
<!-- Node25 -->
<g id="node26" class="node">
<title>Node25</title>
<polygon fill="none" stroke="#bfbfbf" points="1513.9786,-112.5 1513.9786,-131.5 1557.9786,-131.5 1557.9786,-112.5 1513.9786,-112.5"/>
<text text-anchor="middle" x="1535.9786" y="-119.5" font-family="Helvetica,sans-Serif" font-size="10.00" fill="#000000">ctime</text>
</g>
<!-- Node19&#45;&gt;Node25 -->
<g id="edge35" class="edge">
<title>Node19&#45;&gt;Node25</title>
<path fill="none" stroke="#191970" d="M1535.9786,-168.2455C1535.9786,-160.9382 1535.9786,-150.6944 1535.9786,-141.7046"/>
<polygon fill="#191970" stroke="#191970" points="1539.4787,-141.6426 1535.9786,-131.6427 1532.4787,-141.6427 1539.4787,-141.6426"/>
</g>
<!-- Node26 -->
<g id="node27" class="node">
<title>Node26</title>
<polygon fill="none" stroke="#bfbfbf" points="1576.4786,-112.5 1576.4786,-131.5 1631.4786,-131.5 1631.4786,-112.5 1576.4786,-112.5"/>
<text text-anchor="middle" x="1603.9786" y="-119.5" font-family="Helvetica,sans-Serif" font-size="10.00" fill="#000000">fstream</text>
</g>
<!-- Node19&#45;&gt;Node26 -->
<g id="edge36" class="edge">
<title>Node19&#45;&gt;Node26</title>
<path fill="none" stroke="#191970" d="M1547.8233,-168.2455C1557.8666,-159.9746 1572.4781,-147.9416 1584.279,-138.2232"/>
<polygon fill="#191970" stroke="#191970" points="1586.7753,-140.7015 1592.2697,-131.6427 1582.3254,-135.298 1586.7753,-140.7015"/>
</g>
<!-- Node27 -->
<g id="node28" class="node">
<title>Node27</title>
<polygon fill="none" stroke="#bfbfbf" points="1649.9786,-112.5 1649.9786,-131.5 1705.9786,-131.5 1705.9786,-112.5 1649.9786,-112.5"/>
<text text-anchor="middle" x="1677.9786" y="-119.5" font-family="Helvetica,sans-Serif" font-size="10.00" fill="#000000">sstream</text>
</g>
<!-- Node19&#45;&gt;Node27 -->
<g id="edge37" class="edge">
<title>Node19&#45;&gt;Node27</title>
<path fill="none" stroke="#191970" d="M1560.3893,-168.3733C1583.5929,-159.2226 1618.6825,-145.3844 1644.4929,-135.2057"/>
<polygon fill="#191970" stroke="#191970" points="1645.8678,-138.4258 1653.8865,-131.5011 1643.2997,-131.9139 1645.8678,-138.4258"/>
</g>
<!-- Node28 -->
<g id="node29" class="node">
<title>Node28</title>
<polygon fill="none" stroke="#bfbfbf" points="1723.9786,-112.5 1723.9786,-131.5 1771.9786,-131.5 1771.9786,-112.5 1723.9786,-112.5"/>
<text text-anchor="middle" x="1747.9786" y="-119.5" font-family="Helvetica,sans-Serif" font-size="10.00" fill="#000000">mutex</text>
</g>
<!-- Node19&#45;&gt;Node28 -->
<g id="edge40" class="edge">
<title>Node19&#45;&gt;Node28</title>
<path fill="none" stroke="#191970" d="M1565.2248,-170.8912C1598.8777,-162.6226 1656.016,-148.3129 1714.1487,-132.1529"/>
<polygon fill="#191970" stroke="#191970" points="1715.1742,-135.5005 1723.8628,-129.4375 1713.2897,-128.7589 1715.1742,-135.5005"/>
</g>
<!-- Node29 -->
<g id="node30" class="node">
<title>Node29</title>
<g id="a_node30"><a xlink:href="Meta_8hxx.html" target="_top" xlink:title="Meta.hxx">
<polygon fill="none" stroke="#000000" points="1365.9786,-112.5 1365.9786,-131.5 1427.9786,-131.5 1427.9786,-112.5 1365.9786,-112.5"/>
<text text-anchor="middle" x="1396.9786" y="-119.5" font-family="Helvetica,sans-Serif" font-size="10.00" fill="#000000">Meta.hxx</text>
</a>
</g>
</g>
<!-- Node19&#45;&gt;Node29 -->
<g id="edge41" class="edge">
<title>Node19&#45;&gt;Node29</title>
<path fill="none" stroke="#191970" d="M1512.0837,-168.3733C1489.4704,-159.2629 1455.3245,-145.5062 1430.0914,-135.3404"/>
<polygon fill="#191970" stroke="#191970" points="1431.1453,-131.9917 1420.5618,-131.5011 1428.5294,-138.4845 1431.1453,-131.9917"/>
</g>
<!-- Node33 -->
<g id="node34" class="node">
<title>Node33</title>
<g id="a_node34"><a xlink:href="LOG_8inl_8hxx.html" target="_top" xlink:title="LOG.inl.hxx">
<polygon fill="none" stroke="#000000" points="1790.4786,-112.5 1790.4786,-131.5 1863.4786,-131.5 1863.4786,-112.5 1790.4786,-112.5"/>
<text text-anchor="middle" x="1826.9786" y="-119.5" font-family="Helvetica,sans-Serif" font-size="10.00" fill="#000000">LOG.inl.hxx</text>
</a>
</g>
</g>
<!-- Node19&#45;&gt;Node33 -->
<g id="edge46" class="edge">
<title>Node19&#45;&gt;Node33</title>
<path fill="none" stroke="#191970" d="M1565.0707,-172.8145C1609.2624,-164.8777 1696.193,-149.0312 1780.3586,-132.0814"/>
<polygon fill="#191970" stroke="#191970" points="1781.2321,-135.4757 1790.3401,-130.0633 1779.8448,-128.6145 1781.2321,-135.4757"/>
</g>
<!-- Node21 -->
<g id="node22" class="node">
<title>Node21</title>
<polygon fill="none" stroke="#bfbfbf" points="1971.4786,-56.5 1971.4786,-75.5 2036.4786,-75.5 2036.4786,-56.5 1971.4786,-56.5"/>
<text text-anchor="middle" x="2003.9786" y="-63.5" font-family="Helvetica,sans-Serif" font-size="10.00" fill="#000000">stdexcept</text>
</g>
<!-- Node20&#45;&gt;Node21 -->
<g id="edge31" class="edge">
<title>Node20&#45;&gt;Node21</title>
<path fill="none" stroke="#191970" d="M1970.1203,-112.2455C1975.823,-104.4564 1983.9686,-93.3308 1990.8411,-83.9439"/>
<polygon fill="#191970" stroke="#191970" points="1993.8354,-85.7789 1996.9188,-75.6427 1988.1874,-81.6437 1993.8354,-85.7789"/>
</g>
<!-- Node22 -->
<g id="node23" class="node">
<title>Node22</title>
<polygon fill="none" stroke="#bfbfbf" points="1888.4786,-56.5 1888.4786,-75.5 1953.4786,-75.5 1953.4786,-56.5 1888.4786,-56.5"/>
<text text-anchor="middle" x="1920.9786" y="-63.5" font-family="Helvetica,sans-Serif" font-size="10.00" fill="#000000">exception</text>
</g>
<!-- Node20&#45;&gt;Node22 -->
<g id="edge32" class="edge">
<title>Node20&#45;&gt;Node22</title>
<path fill="none" stroke="#191970" d="M1955.6628,-112.2455C1949.7607,-104.3761 1941.3044,-93.101 1934.2193,-83.6542"/>
<polygon fill="#191970" stroke="#191970" points="1937.0107,-81.5427 1928.2106,-75.6427 1931.4107,-85.7427 1937.0107,-81.5427"/>
</g>
<!-- Node29&#45;&gt;Node23 -->
<g id="edge42" class="edge">
<title>Node29&#45;&gt;Node23</title>
<path fill="none" stroke="#191970" d="M1428.3663,-113.8979C1431.271,-113.2253 1434.175,-112.5814 1436.9786,-112 1520.955,-94.5851 1620.2888,-79.4495 1674.5636,-71.6385"/>
<polygon fill="#191970" stroke="#191970" points="1675.3957,-75.0552 1684.7999,-70.1754 1674.4052,-68.1256 1675.3957,-75.0552"/>
</g>
<!-- Node30 -->
<g id="node31" class="node">
<title>Node30</title>
<polygon fill="none" stroke="#bfbfbf" points="1362.4786,-56.5 1362.4786,-75.5 1431.4786,-75.5 1431.4786,-56.5 1362.4786,-56.5"/>
<text text-anchor="middle" x="1396.9786" y="-63.5" font-family="Helvetica,sans-Serif" font-size="10.00" fill="#000000">type_traits</text>
</g>
<!-- Node29&#45;&gt;Node30 -->
<g id="edge43" class="edge">
<title>Node29&#45;&gt;Node30</title>
<path fill="none" stroke="#191970" d="M1396.9786,-112.2455C1396.9786,-104.9382 1396.9786,-94.6944 1396.9786,-85.7046"/>
<polygon fill="#191970" stroke="#191970" points="1400.4787,-85.6426 1396.9786,-75.6427 1393.4787,-85.6427 1400.4787,-85.6426"/>
</g>
<!-- Node31 -->
<g id="node32" class="node">
<title>Node31</title>
<polygon fill="none" stroke="#bfbfbf" points="1449.4786,-56.5 1449.4786,-75.5 1500.4786,-75.5 1500.4786,-56.5 1449.4786,-56.5"/>
<text text-anchor="middle" x="1474.9786" y="-63.5" font-family="Helvetica,sans-Serif" font-size="10.00" fill="#000000">variant</text>
</g>
<!-- Node29&#45;&gt;Node31 -->
<g id="edge44" class="edge">
<title>Node29&#45;&gt;Node31</title>
<path fill="none" stroke="#191970" d="M1410.5652,-112.2455C1422.3091,-103.814 1439.4985,-91.4729 1453.1668,-81.6598"/>
<polygon fill="#191970" stroke="#191970" points="1455.4657,-84.3179 1461.5478,-75.6427 1451.3833,-78.6316 1455.4657,-84.3179"/>
</g>
<!-- Node32 -->
<g id="node33" class="node">
<title>Node32</title>
<polygon fill="none" stroke="#bfbfbf" points="1303.4786,-56.5 1303.4786,-75.5 1344.4786,-75.5 1344.4786,-56.5 1303.4786,-56.5"/>
<text text-anchor="middle" x="1323.9786" y="-63.5" font-family="Helvetica,sans-Serif" font-size="10.00" fill="#000000">tuple</text>
</g>
<!-- Node29&#45;&gt;Node32 -->
<g id="edge45" class="edge">
<title>Node29&#45;&gt;Node32</title>
<path fill="none" stroke="#191970" d="M1384.263,-112.2455C1373.3766,-103.8943 1357.4904,-91.7076 1344.7586,-81.9408"/>
<polygon fill="#191970" stroke="#191970" points="1346.6132,-78.9523 1336.5485,-75.6427 1342.3526,-84.5063 1346.6132,-78.9523"/>
</g>
<!-- Node34&#45;&gt;Node7 -->
<g id="edge49" class="edge">
<title>Node34&#45;&gt;Node7</title>
<path fill="none" stroke="#191970" d="M146.158,-113.5221C150.8312,-112.9757 155.4774,-112.4609 159.9786,-112 386.0676,-88.8516 659.1787,-72.9271 753.2411,-67.7896"/>
<polygon fill="#191970" stroke="#191970" points="753.5099,-71.2803 763.3057,-67.2439 753.1308,-64.2906 753.5099,-71.2803"/>
</g>
<!-- Node34&#45;&gt;Node10 -->
<g id="edge48" class="edge">
<title>Node34&#45;&gt;Node10</title>
<path fill="none" stroke="#191970" d="M83.9786,-112.2455C83.9786,-104.9382 83.9786,-94.6944 83.9786,-85.7046"/>
<polygon fill="#191970" stroke="#191970" points="87.4787,-85.6426 83.9786,-75.6427 80.4787,-85.6427 87.4787,-85.6426"/>
</g>
<!-- Node35&#45;&gt;Node5 -->
<g id="edge51" class="edge">
<title>Node35&#45;&gt;Node5</title>
<path fill="none" stroke="#191970" d="M1002.2878,-168.4509C1014.6302,-149.7707 1042.1469,-108.1238 1058.0355,-84.0761"/>
<polygon fill="#191970" stroke="#191970" points="1061.093,-85.7977 1063.6854,-75.5249 1055.2526,-81.9388 1061.093,-85.7977"/>
</g>
<!-- Node35&#45;&gt;Node10 -->
<g id="edge53" class="edge">
<title>Node35&#45;&gt;Node10</title>
<path fill="none" stroke="#191970" d="M946.8938,-169.3678C873.9375,-156.5112 744.8783,-133.6554 739.9786,-132 721.5238,-125.7648 719.7309,-117.2734 700.9786,-112 599.4682,-83.4539 290.745,-71.637 152.3567,-67.6795"/>
<polygon fill="#191970" stroke="#191970" points="152.3874,-64.1791 142.2931,-67.397 152.191,-71.1763 152.3874,-64.1791"/>
</g>
<!-- Node35&#45;&gt;Node17 -->
<g id="edge52" class="edge">
<title>Node35&#45;&gt;Node17</title>
<path fill="none" stroke="#191970" d="M990.0563,-168.2455C985.3759,-160.5367 978.7114,-149.5598 973.0498,-140.2348"/>
<polygon fill="#191970" stroke="#191970" points="976.0147,-138.3741 967.8331,-131.6427 970.0312,-142.007 976.0147,-138.3741"/>
</g>
<!-- Node36&#45;&gt;Node5 -->
<g id="edge55" class="edge">
<title>Node36&#45;&gt;Node5</title>
<path fill="none" stroke="#191970" d="M1183.788,-168.2922C1194.9965,-154.7167 1211.4847,-129.7369 1198.9786,-112 1187.586,-95.8422 1136.5597,-81.2656 1102.1989,-73.0341"/>
<polygon fill="#191970" stroke="#191970" points="1102.666,-69.5493 1092.1326,-70.6885 1101.0774,-76.3667 1102.666,-69.5493"/>
</g>
<!-- Node36&#45;&gt;Node7 -->
<g id="edge56" class="edge">
<title>Node36&#45;&gt;Node7</title>
<path fill="none" stroke="#191970" d="M1154.9595,-168.4241C1124.7892,-154.3213 1065.5915,-127.9204 1012.9786,-112 946.0987,-91.7624 865.381,-77.7404 820.7695,-70.8639"/>
<polygon fill="#191970" stroke="#191970" points="821.1735,-67.3853 810.7621,-69.3484 820.1252,-74.3064 821.1735,-67.3853"/>
</g>
<!-- Node36&#45;&gt;Node17 -->
<g id="edge57" class="edge">
<title>Node36&#45;&gt;Node17</title>
<path fill="none" stroke="#191970" d="M1138.3626,-168.3733C1102.3307,-158.9001 1047.1908,-144.4032 1008.1673,-134.1435"/>
<polygon fill="#191970" stroke="#191970" points="1008.6781,-130.6589 998.1168,-131.5011 1006.8982,-137.4289 1008.6781,-130.6589"/>
</g>
<!-- Node36&#45;&gt;Node29 -->
<g id="edge58" class="edge">
<title>Node36&#45;&gt;Node29</title>
<path fill="none" stroke="#191970" d="M1212.8895,-168.4369C1252.6188,-158.4151 1314.8358,-142.7207 1355.7614,-132.3971"/>
<polygon fill="#191970" stroke="#191970" points="1356.8406,-135.7346 1365.6808,-129.8949 1355.1285,-128.9472 1356.8406,-135.7346"/>
</g>
<!-- Node37 -->
<g id="node38" class="node">
<title>Node37</title>
<polygon fill="none" stroke="#bfbfbf" points="1136.4786,-112.5 1136.4786,-131.5 1189.4786,-131.5 1189.4786,-112.5 1136.4786,-112.5"/>
<text text-anchor="middle" x="1162.9786" y="-119.5" font-family="Helvetica,sans-Serif" font-size="10.00" fill="#000000">cstddef</text>
</g>
<!-- Node36&#45;&gt;Node37 -->
<g id="edge59" class="edge">
<title>Node36&#45;&gt;Node37</title>
<path fill="none" stroke="#191970" d="M1172.8884,-168.2455C1171.3225,-160.9382 1169.1274,-150.6944 1167.201,-141.7046"/>
<polygon fill="#191970" stroke="#191970" points="1170.5626,-140.6873 1165.0449,-131.6427 1163.718,-142.1541 1170.5626,-140.6873"/>
</g>
</g>
</svg>
