<?xml version="1.0" encoding="UTF-8" standalone="no"?>
<!DOCTYPE svg PUBLIC "-//W3C//DTD SVG 1.1//EN"
 "http://www.w3.org/Graphics/SVG/1.1/DTD/svg11.dtd">
<!-- Generated by graphviz version 2.40.1 (20161225.0304)
 -->
<!-- Title: src/engine/MessageQueue.hxx Pages: 1 -->
<svg width="857pt" height="308pt"
 viewBox="0.00 0.00 857.00 308.00" xmlns="http://www.w3.org/2000/svg" xmlns:xlink="http://www.w3.org/1999/xlink">
<g id="graph0" class="graph" transform="scale(1 1) rotate(0) translate(4 304)">
<title>src/engine/MessageQueue.hxx</title>
<!-- Node0 -->
<g id="node1" class="node">
<title>Node0</title>
<polygon fill="#bfbfbf" stroke="#000000" points="245,-280.5 245,-299.5 410,-299.5 410,-280.5 245,-280.5"/>
<text text-anchor="middle" x="327.5" y="-287.5" font-family="Helvetica,sans-Serif" font-size="10.00" fill="#000000">src/engine/MessageQueue.hxx</text>
</g>
<!-- Node1 -->
<g id="node2" class="node">
<title>Node1</title>
<polygon fill="none" stroke="#bfbfbf" points="0,-224.5 0,-243.5 107,-243.5 107,-224.5 0,-224.5"/>
<text text-anchor="middle" x="53.5" y="-231.5" font-family="Helvetica,sans-Serif" font-size="10.00" fill="#000000">condition_variable</text>
</g>
<!-- Node0&#45;&gt;Node1 -->
<g id="edge1" class="edge">
<title>Node0&#45;&gt;Node1</title>
<path fill="none" stroke="#191970" d="M280.709,-280.4369C233.5205,-270.7925 160.628,-255.8948 110.1876,-245.5858"/>
<polygon fill="#191970" stroke="#191970" points="110.5963,-242.097 100.098,-243.5237 109.1946,-248.9553 110.5963,-242.097"/>
</g>
<!-- Node2 -->
<g id="node3" class="node">
<title>Node2</title>
<polygon fill="none" stroke="#bfbfbf" points="125.5,-224.5 125.5,-243.5 173.5,-243.5 173.5,-224.5 125.5,-224.5"/>
<text text-anchor="middle" x="149.5" y="-231.5" font-family="Helvetica,sans-Serif" font-size="10.00" fill="#000000">mutex</text>
</g>
<!-- Node0&#45;&gt;Node2 -->
<g id="edge2" class="edge">
<title>Node0&#45;&gt;Node2</title>
<path fill="none" stroke="#191970" d="M296.9007,-280.3733C265.2822,-270.4259 216.0569,-254.9393 183.3065,-244.6358"/>
<polygon fill="#191970" stroke="#191970" points="184.2987,-241.2788 173.7092,-241.6164 182.1979,-247.9562 184.2987,-241.2788"/>
</g>
<!-- Node3 -->
<g id="node4" class="node">
<title>Node3</title>
<polygon fill="none" stroke="#bfbfbf" points="192,-224.5 192,-243.5 239,-243.5 239,-224.5 192,-224.5"/>
<text text-anchor="middle" x="215.5" y="-231.5" font-family="Helvetica,sans-Serif" font-size="10.00" fill="#000000">deque</text>
</g>
<!-- Node0&#45;&gt;Node3 -->
<g id="edge3" class="edge">
<title>Node0&#45;&gt;Node3</title>
<path fill="none" stroke="#191970" d="M308.2465,-280.3733C290.4288,-271.4644 263.7253,-258.1127 243.5406,-248.0203"/>
<polygon fill="#191970" stroke="#191970" points="245.0118,-244.8428 234.5022,-243.5011 241.8813,-251.1038 245.0118,-244.8428"/>
</g>
<!-- Node4 -->
<g id="node5" class="node">
<title>Node4</title>
<polygon fill="none" stroke="#bfbfbf" points="192,-56.5 192,-75.5 239,-75.5 239,-56.5 192,-56.5"/>
<text text-anchor="middle" x="215.5" y="-63.5" font-family="Helvetica,sans-Serif" font-size="10.00" fill="#000000">vector</text>
</g>
<!-- Node0&#45;&gt;Node4 -->
<g id="edge4" class="edge">
<title>Node0&#45;&gt;Node4</title>
<path fill="none" stroke="#191970" d="M322.6875,-280.375C305.5989,-246.1979 247.6447,-130.2894 224.8341,-84.6683"/>
<polygon fill="#191970" stroke="#191970" points="227.8973,-82.9682 220.2946,-75.5891 221.6363,-86.0987 227.8973,-82.9682"/>
</g>
<!-- Node5 -->
<g id="node6" class="node">
<title>Node5</title>
<polygon fill="none" stroke="#bfbfbf" points="612,-112.5 612,-131.5 677,-131.5 677,-112.5 612,-112.5"/>
<text text-anchor="middle" x="644.5" y="-119.5" font-family="Helvetica,sans-Serif" font-size="10.00" fill="#000000">functional</text>
</g>
<!-- Node0&#45;&gt;Node5 -->
<g id="edge5" class="edge">
<title>Node0&#45;&gt;Node5</title>
<path fill="none" stroke="#191970" d="M351.5538,-280.4862C373.8008,-271.5371 407.6802,-257.5273 436.5,-244 485.4455,-221.0263 497.8725,-215.3739 544.5,-188 572.0343,-171.8352 602.5001,-151.3279 622.4837,-137.4966"/>
<polygon fill="#191970" stroke="#191970" points="624.6726,-140.2374 630.8795,-131.651 620.6728,-134.4926 624.6726,-140.2374"/>
</g>
<!-- Node6 -->
<g id="node7" class="node">
<title>Node6</title>
<polygon fill="none" stroke="#bfbfbf" points="649.5,-224.5 649.5,-243.5 703.5,-243.5 703.5,-224.5 649.5,-224.5"/>
<text text-anchor="middle" x="676.5" y="-231.5" font-family="Helvetica,sans-Serif" font-size="10.00" fill="#000000">ciso646</text>
</g>
<!-- Node0&#45;&gt;Node6 -->
<g id="edge6" class="edge">
<title>Node0&#45;&gt;Node6</title>
<path fill="none" stroke="#191970" d="M404.4103,-280.4892C466.9193,-272.2856 557.2457,-259.3538 635.5,-244 636.7537,-243.754 638.0268,-243.4952 639.3109,-243.2263"/>
<polygon fill="#191970" stroke="#191970" points="640.2292,-246.6076 649.2294,-241.0177 638.7077,-239.775 640.2292,-246.6076"/>
</g>
<!-- Node7 -->
<g id="node8" class="node">
<title>Node7</title>
<g id="a_node8"><a xlink:href="Events_8hxx.html" target="_top" xlink:title="../Events.hxx">
<polygon fill="none" stroke="#000000" points="347.5,-224.5 347.5,-243.5 427.5,-243.5 427.5,-224.5 347.5,-224.5"/>
<text text-anchor="middle" x="387.5" y="-231.5" font-family="Helvetica,sans-Serif" font-size="10.00" fill="#000000">../Events.hxx</text>
</a>
</g>
</g>
<!-- Node0&#45;&gt;Node7 -->
<g id="edge7" class="edge">
<title>Node0&#45;&gt;Node7</title>
<path fill="none" stroke="#191970" d="M337.9512,-280.2455C346.7269,-272.0549 359.4554,-260.1749 369.814,-250.5069"/>
<polygon fill="#191970" stroke="#191970" points="372.2461,-253.0246 377.1686,-243.6427 367.4699,-247.9072 372.2461,-253.0246"/>
</g>
<!-- Node19 -->
<g id="node20" class="node">
<title>Node19</title>
<g id="a_node20"><a xlink:href="MessageQueue_8inl_8hxx.html" target="_top" xlink:title="MessageQueue.inl.hxx">
<polygon fill="none" stroke="#000000" points="722,-224.5 722,-243.5 849,-243.5 849,-224.5 722,-224.5"/>
<text text-anchor="middle" x="785.5" y="-231.5" font-family="Helvetica,sans-Serif" font-size="10.00" fill="#000000">MessageQueue.inl.hxx</text>
</a>
</g>
</g>
<!-- Node0&#45;&gt;Node19 -->
<g id="edge23" class="edge">
<title>Node0&#45;&gt;Node19</title>
<path fill="none" stroke="#191970" d="M410.1629,-280.5403C485.8751,-271.7801 601.3347,-258.181 711.8186,-244.0697"/>
<polygon fill="#191970" stroke="#191970" points="712.3328,-247.5325 721.8073,-242.7908 711.4438,-240.5892 712.3328,-247.5325"/>
</g>
<!-- Node8 -->
<g id="node9" class="node">
<title>Node8</title>
<polygon fill="none" stroke="#bfbfbf" points="464.5,-168.5 464.5,-187.5 508.5,-187.5 508.5,-168.5 464.5,-168.5"/>
<text text-anchor="middle" x="486.5" y="-175.5" font-family="Helvetica,sans-Serif" font-size="10.00" fill="#000000">string</text>
</g>
<!-- Node7&#45;&gt;Node8 -->
<g id="edge8" class="edge">
<title>Node7&#45;&gt;Node8</title>
<path fill="none" stroke="#191970" d="M404.7445,-224.2455C420.0761,-215.5731 442.7199,-202.7645 460.2916,-192.825"/>
<polygon fill="#191970" stroke="#191970" points="462.4724,-195.6126 469.4531,-187.6427 459.0259,-189.5198 462.4724,-195.6126"/>
</g>
<!-- Node9 -->
<g id="node10" class="node">
<title>Node9</title>
<polygon fill="none" stroke="#bfbfbf" points="482.5,-56.5 482.5,-75.5 582.5,-75.5 582.5,-56.5 482.5,-56.5"/>
<text text-anchor="middle" x="532.5" y="-63.5" font-family="Helvetica,sans-Serif" font-size="10.00" fill="#000000">betterEnums.hxx</text>
</g>
<!-- Node7&#45;&gt;Node9 -->
<g id="edge9" class="edge">
<title>Node7&#45;&gt;Node9</title>
<path fill="none" stroke="#191970" d="M427.5938,-225.6899C454.6955,-218.7231 490.351,-206.8269 517.5,-188 544.2011,-169.4837 553.385,-162.5329 564.5,-132 570.7175,-114.9205 560.054,-96.3692 549.4008,-83.2969"/>
<polygon fill="#191970" stroke="#191970" points="551.8207,-80.7494 542.5792,-75.5681 546.5726,-85.3816 551.8207,-80.7494"/>
</g>
<!-- Node10 -->
<g id="node11" class="node">
<title>Node10</title>
<g id="a_node11"><a xlink:href="Meta_8hxx.html" target="_top" xlink:title="util/Meta.hxx">
<polygon fill="none" stroke="#000000" points="257.5,-56.5 257.5,-75.5 337.5,-75.5 337.5,-56.5 257.5,-56.5"/>
<text text-anchor="middle" x="297.5" y="-63.5" font-family="Helvetica,sans-Serif" font-size="10.00" fill="#000000">util/Meta.hxx</text>
</a>
</g>
</g>
<!-- Node7&#45;&gt;Node10 -->
<g id="edge10" class="edge">
<title>Node7&#45;&gt;Node10</title>
<path fill="none" stroke="#191970" d="M367.4561,-224.3033C339.1107,-209.2284 288.932,-177.1388 272.5,-132 266.5745,-115.7226 274.8181,-97.295 283.3882,-84.0564"/>
<polygon fill="#191970" stroke="#191970" points="286.3005,-85.9998 289.2034,-75.8104 280.5799,-81.9655 286.3005,-85.9998"/>
</g>
<!-- Node15 -->
<g id="node16" class="node">
<title>Node15</title>
<g id="a_node16"><a xlink:href="UIEvents_8hxx.html" target="_top" xlink:title="events/UIEvents.hxx">
<polygon fill="none" stroke="#000000" points="329,-168.5 329,-187.5 446,-187.5 446,-168.5 329,-168.5"/>
<text text-anchor="middle" x="387.5" y="-175.5" font-family="Helvetica,sans-Serif" font-size="10.00" fill="#000000">events/UIEvents.hxx</text>
</a>
</g>
</g>
<!-- Node7&#45;&gt;Node15 -->
<g id="edge15" class="edge">
<title>Node7&#45;&gt;Node15</title>
<path fill="none" stroke="#191970" d="M387.5,-224.2455C387.5,-216.9382 387.5,-206.6944 387.5,-197.7046"/>
<polygon fill="#191970" stroke="#191970" points="391.0001,-197.6426 387.5,-187.6427 384.0001,-197.6427 391.0001,-197.6426"/>
</g>
<!-- Node11 -->
<g id="node12" class="node">
<title>Node11</title>
<polygon fill="none" stroke="#bfbfbf" points="145.5,-.5 145.5,-19.5 205.5,-19.5 205.5,-.5 145.5,-.5"/>
<text text-anchor="middle" x="175.5" y="-7.5" font-family="Helvetica,sans-Serif" font-size="10.00" fill="#000000">iostream</text>
</g>
<!-- Node10&#45;&gt;Node11 -->
<g id="edge11" class="edge">
<title>Node10&#45;&gt;Node11</title>
<path fill="none" stroke="#191970" d="M276.5275,-56.3733C256.9433,-47.3838 227.5039,-33.8706 205.449,-23.7471"/>
<polygon fill="#191970" stroke="#191970" points="206.7473,-20.4919 196.1989,-19.5011 203.8271,-26.8538 206.7473,-20.4919"/>
</g>
<!-- Node12 -->
<g id="node13" class="node">
<title>Node12</title>
<polygon fill="none" stroke="#bfbfbf" points="224,-.5 224,-19.5 293,-19.5 293,-.5 224,-.5"/>
<text text-anchor="middle" x="258.5" y="-7.5" font-family="Helvetica,sans-Serif" font-size="10.00" fill="#000000">type_traits</text>
</g>
<!-- Node10&#45;&gt;Node12 -->
<g id="edge12" class="edge">
<title>Node10&#45;&gt;Node12</title>
<path fill="none" stroke="#191970" d="M290.7067,-56.2455C285.2822,-48.4564 277.5339,-37.3308 270.9967,-27.9439"/>
<polygon fill="#191970" stroke="#191970" points="273.8025,-25.8485 265.2154,-19.6427 268.0583,-29.849 273.8025,-25.8485"/>
</g>
<!-- Node13 -->
<g id="node14" class="node">
<title>Node13</title>
<polygon fill="none" stroke="#bfbfbf" points="311,-.5 311,-19.5 362,-19.5 362,-.5 311,-.5"/>
<text text-anchor="middle" x="336.5" y="-7.5" font-family="Helvetica,sans-Serif" font-size="10.00" fill="#000000">variant</text>
</g>
<!-- Node10&#45;&gt;Node13 -->
<g id="edge13" class="edge">
<title>Node10&#45;&gt;Node13</title>
<path fill="none" stroke="#191970" d="M304.2933,-56.2455C309.7178,-48.4564 317.4661,-37.3308 324.0033,-27.9439"/>
<polygon fill="#191970" stroke="#191970" points="326.9417,-29.849 329.7846,-19.6427 321.1975,-25.8485 326.9417,-29.849"/>
</g>
<!-- Node14 -->
<g id="node15" class="node">
<title>Node14</title>
<polygon fill="none" stroke="#bfbfbf" points="380,-.5 380,-19.5 421,-19.5 421,-.5 380,-.5"/>
<text text-anchor="middle" x="400.5" y="-7.5" font-family="Helvetica,sans-Serif" font-size="10.00" fill="#000000">tuple</text>
</g>
<!-- Node10&#45;&gt;Node14 -->
<g id="edge14" class="edge">
<title>Node10&#45;&gt;Node14</title>
<path fill="none" stroke="#191970" d="M315.4412,-56.2455C331.54,-47.4928 355.3879,-34.527 373.7391,-24.5496"/>
<polygon fill="#191970" stroke="#191970" points="375.6507,-27.4942 382.7644,-19.6427 372.3071,-21.3444 375.6507,-27.4942"/>
</g>
<!-- Node15&#45;&gt;Node5 -->
<g id="edge16" class="edge">
<title>Node15&#45;&gt;Node5</title>
<path fill="none" stroke="#191970" d="M431.3879,-168.4369C479.07,-158.047 554.7328,-141.5602 601.9027,-131.2819"/>
<polygon fill="#191970" stroke="#191970" points="602.778,-134.6734 611.8035,-129.1245 601.2876,-127.8339 602.778,-134.6734"/>
</g>
<!-- Node16 -->
<g id="node17" class="node">
<title>Node16</title>
<g id="a_node17"><a xlink:href="ActivityType_8hxx.html" target="_top" xlink:title="../activity/ActivityType.hxx">
<polygon fill="none" stroke="#000000" points="409.5,-112.5 409.5,-131.5 555.5,-131.5 555.5,-112.5 409.5,-112.5"/>
<text text-anchor="middle" x="482.5" y="-119.5" font-family="Helvetica,sans-Serif" font-size="10.00" fill="#000000">../activity/ActivityType.hxx</text>
</a>
</g>
</g>
<!-- Node15&#45;&gt;Node16 -->
<g id="edge17" class="edge">
<title>Node15&#45;&gt;Node16</title>
<path fill="none" stroke="#191970" d="M404.0477,-168.2455C418.7599,-159.5731 440.4888,-146.7645 457.3505,-136.825"/>
<polygon fill="#191970" stroke="#191970" points="459.3046,-139.736 466.1419,-131.6427 455.7498,-133.7057 459.3046,-139.736"/>
</g>
<!-- Node17 -->
<g id="node18" class="node">
<title>Node17</title>
<g id="a_node18"><a xlink:href="Observer_8hxx.html" target="_top" xlink:title="../util/Observer.hxx">
<polygon fill="none" stroke="#000000" points="282,-112.5 282,-131.5 391,-131.5 391,-112.5 282,-112.5"/>
<text text-anchor="middle" x="336.5" y="-119.5" font-family="Helvetica,sans-Serif" font-size="10.00" fill="#000000">../util/Observer.hxx</text>
</a>
</g>
</g>
<!-- Node15&#45;&gt;Node17 -->
<g id="edge19" class="edge">
<title>Node15&#45;&gt;Node17</title>
<path fill="none" stroke="#191970" d="M378.6165,-168.2455C371.3034,-160.2155 360.7609,-148.6394 352.0533,-139.0781"/>
<polygon fill="#191970" stroke="#191970" points="354.6028,-136.6795 345.2817,-131.6427 349.4273,-141.3928 354.6028,-136.6795"/>
</g>
<!-- Node16&#45;&gt;Node9 -->
<g id="edge18" class="edge">
<title>Node16&#45;&gt;Node9</title>
<path fill="none" stroke="#191970" d="M491.2093,-112.2455C498.3073,-104.2958 508.5084,-92.8706 516.995,-83.3656"/>
<polygon fill="#191970" stroke="#191970" points="519.8411,-85.4331 523.8905,-75.6427 514.6195,-80.771 519.8411,-85.4331"/>
</g>
<!-- Node17&#45;&gt;Node4 -->
<g id="edge20" class="edge">
<title>Node17&#45;&gt;Node4</title>
<path fill="none" stroke="#191970" d="M315.6994,-112.3733C296.2757,-103.3838 267.0776,-89.8706 245.2036,-79.7471"/>
<polygon fill="#191970" stroke="#191970" points="246.5745,-76.5249 236.0292,-75.5011 243.6344,-82.8776 246.5745,-76.5249"/>
</g>
<!-- Node17&#45;&gt;Node10 -->
<g id="edge22" class="edge">
<title>Node17&#45;&gt;Node10</title>
<path fill="none" stroke="#191970" d="M329.7067,-112.2455C324.2822,-104.4564 316.5339,-93.3308 309.9967,-83.9439"/>
<polygon fill="#191970" stroke="#191970" points="312.8025,-81.8485 304.2154,-75.6427 307.0583,-85.849 312.8025,-81.8485"/>
</g>
<!-- Node18 -->
<g id="node19" class="node">
<title>Node18</title>
<polygon fill="none" stroke="#bfbfbf" points="355.5,-56.5 355.5,-75.5 413.5,-75.5 413.5,-56.5 355.5,-56.5"/>
<text text-anchor="middle" x="384.5" y="-63.5" font-family="Helvetica,sans-Serif" font-size="10.00" fill="#000000">memory</text>
</g>
<!-- Node17&#45;&gt;Node18 -->
<g id="edge21" class="edge">
<title>Node17&#45;&gt;Node18</title>
<path fill="none" stroke="#191970" d="M344.861,-112.2455C351.675,-104.2958 361.4681,-92.8706 369.6152,-83.3656"/>
<polygon fill="#191970" stroke="#191970" points="372.3843,-85.513 376.2349,-75.6427 367.0695,-80.9575 372.3843,-85.513"/>
</g>
</g>
</svg>
