<?xml version="1.0" encoding="UTF-8" standalone="no"?>
<!DOCTYPE svg PUBLIC "-//W3C//DTD SVG 1.1//EN"
 "http://www.w3.org/Graphics/SVG/1.1/DTD/svg11.dtd">
<!-- Generated by graphviz version 2.40.1 (20161225.0304)
 -->
<!-- Title: src/engine/MessageQueue.hxx Pages: 1 -->
<!--zoomable 420 -->
<svg id="main" version="1.1" xmlns="http://www.w3.org/2000/svg" xmlns:xlink="http://www.w3.org/1999/xlink" xml:space="preserve" onload="init(evt)">
<style type="text/css"><![CDATA[
.edge:hover path { stroke: red; }
.edge:hover polygon { stroke: red; fill: red; }
]]></style>
<script type="text/javascript"><![CDATA[
var edges = document.getElementsByTagName('g');
if (edges && edges.length) {
  for (var i=0;i<edges.length;i++) {
    if (edges[i].id.substr(0,4)=='edge') {
      edges[i].setAttribute('class','edge');
    }
  }
}
]]></script>
        <defs>
                <circle id="rim" cx="0" cy="0" r="7"/>
                <circle id="rim2" cx="0" cy="0" r="3.5"/>
                <g id="zoomPlus">
                        <use xlink:href="#rim" fill="#404040">
                                <set attributeName="fill" to="#808080" begin="zoomplus.mouseover" end="zoomplus.mouseout"/>
                        </use>
                        <path d="M-4,0h8M0,-4v8" fill="none" stroke="white" stroke-width="1.5" pointer-events="none"/>
                </g>
                <g id="zoomMin">
                        <use xlink:href="#rim" fill="#404040">
                                <set attributeName="fill" to="#808080" begin="zoomminus.mouseover" end="zoomminus.mouseout"/>
                        </use>
                        <path d="M-4,0h8" fill="none" stroke="white" stroke-width="1.5" pointer-events="none"/>
                </g>
                <g id="dirArrow">
                        <path fill="none" stroke="white" stroke-width="1.5" d="M0,-3.0v7 M-2.5,-0.5L0,-3.0L2.5,-0.5"/>
                </g>
               <g id="resetDef">
                       <use xlink:href="#rim2" fill="#404040">
                               <set attributeName="fill" to="#808080" begin="reset.mouseover" end="reset.mouseout"/>
                       </use>
               </g>
        </defs>

<script type="text/javascript">
var viewWidth = 1016;
var viewHeight = 420;
var sectionId = 'dynsection-1';
</script>
<script xlink:href="svgpan.js"/>
<svg id="graph" class="graph">
<g id="viewport">
<title>src/engine/MessageQueue.hxx</title>
<!-- Node20 -->
<g id="node1" class="node">
<title>Node20</title>
<polygon fill="#bfbfbf" stroke="#000000" points="633,-392.5 633,-411.5 798,-411.5 798,-392.5 633,-392.5"/>
<text text-anchor="middle" x="715.5" y="-399.5" font-family="Helvetica,sans-Serif" font-size="10.00" fill="#000000">src/engine/MessageQueue.hxx</text>
</g>
<!-- Node21 -->
<g id="node2" class="node">
<title>Node21</title>
<g id="a_node2"><a xlink:href="iActivity_8cxx.html" target="_top" xlink:title="src/activity/iActivity.cxx">
<polygon fill="none" stroke="#000000" points="0,-56.5 0,-75.5 133,-75.5 133,-56.5 0,-56.5"/>
<text text-anchor="middle" x="66.5" y="-63.5" font-family="Helvetica,sans-Serif" font-size="10.00" fill="#000000">src/activity/iActivity.cxx</text>
</a>
</g>
</g>
<!-- Node20&#45;&gt;Node21 -->
<g id="edge1" class="edge">
<title>Node20&#45;&gt;Node21</title>
<path fill="none" stroke="#191970" d="M622.649,-392.4059C466.5711,-375.0111 168.5,-335.7962 168.5,-290 168.5,-290 168.5,-290 168.5,-178 168.5,-129.0827 114.6549,-92.1243 85.2084,-75.5702"/>
<polygon fill="#191970" stroke="#191970" points="622.3954,-395.8991 632.7196,-393.52 623.1651,-388.9416 622.3954,-395.8991"/>
</g>
<!-- Node22 -->
<g id="node3" class="node">
<title>Node22</title>
<g id="a_node3"><a xlink:href="DataModel_8hxx.html" target="_top" xlink:title="src/model/DataModel.hxx">
<polygon fill="none" stroke="#000000" points="589,-280.5 589,-299.5 730,-299.5 730,-280.5 589,-280.5"/>
<text text-anchor="middle" x="659.5" y="-287.5" font-family="Helvetica,sans-Serif" font-size="10.00" fill="#000000">src/model/DataModel.hxx</text>
</a>
</g>
</g>
<!-- Node20&#45;&gt;Node22 -->
<g id="edge2" class="edge">
<title>Node20&#45;&gt;Node22</title>
<path fill="none" stroke="#191970" d="M664.7248,-388.6855C648.3742,-381.7334 632.0327,-371.3501 622.5,-356 610.303,-336.3596 632.3652,-312.5295 647.3451,-299.5536"/>
<polygon fill="#191970" stroke="#191970" points="663.7123,-392.0466 674.3015,-392.3939 666.2401,-385.519 663.7123,-392.0466"/>
</g>
<!-- Node29 -->
<g id="node10" class="node">
<title>Node29</title>
<g id="a_node10"><a xlink:href="Game_8hxx.html" target="_top" xlink:title="src/Game.hxx">
<polygon fill="none" stroke="#000000" points="785.5,-56.5 785.5,-75.5 869.5,-75.5 869.5,-56.5 785.5,-56.5"/>
<text text-anchor="middle" x="827.5" y="-63.5" font-family="Helvetica,sans-Serif" font-size="10.00" fill="#000000">src/Game.hxx</text>
</a>
</g>
</g>
<!-- Node20&#45;&gt;Node29 -->
<g id="edge21" class="edge">
<title>Node20&#45;&gt;Node29</title>
<path fill="none" stroke="#191970" d="M760.8874,-388.8152C778.3111,-381.6711 796.995,-371.1214 809.5,-356 828.8765,-332.5694 827.5,-320.4047 827.5,-290 827.5,-290 827.5,-290 827.5,-178 827.5,-140.0833 827.5,-94.9462 827.5,-75.5884"/>
<polygon fill="#191970" stroke="#191970" points="759.4797,-385.6062 751.3844,-392.4412 761.9752,-392.1463 759.4797,-385.6062"/>
</g>
<!-- Node37 -->
<g id="node18" class="node">
<title>Node37</title>
<g id="a_node18"><a xlink:href="UIMQDispatcher_8hxx.html" target="_top" xlink:title="src/engine/UIMQDispatcher.hxx">
<polygon fill="none" stroke="#000000" points="631,-336.5 631,-355.5 800,-355.5 800,-336.5 631,-336.5"/>
<text text-anchor="middle" x="715.5" y="-343.5" font-family="Helvetica,sans-Serif" font-size="10.00" fill="#000000">src/engine/UIMQDispatcher.hxx</text>
</a>
</g>
</g>
<!-- Node20&#45;&gt;Node37 -->
<g id="edge19" class="edge">
<title>Node20&#45;&gt;Node37</title>
<path fill="none" stroke="#191970" d="M715.5,-382.1575C715.5,-373.155 715.5,-362.9199 715.5,-355.6427"/>
<polygon fill="#191970" stroke="#191970" points="712.0001,-382.2455 715.5,-392.2455 719.0001,-382.2456 712.0001,-382.2455"/>
</g>
<!-- Node38 -->
<g id="node19" class="node">
<title>Node38</title>
<g id="a_node19"><a xlink:href="AudioMixer_8cxx.html" target="_top" xlink:title="src/services/AudioMixer.cxx">
<polygon fill="none" stroke="#000000" points="855.5,-336.5 855.5,-355.5 1007.5,-355.5 1007.5,-336.5 855.5,-336.5"/>
<text text-anchor="middle" x="931.5" y="-343.5" font-family="Helvetica,sans-Serif" font-size="10.00" fill="#000000">src/services/AudioMixer.cxx</text>
</a>
</g>
</g>
<!-- Node20&#45;&gt;Node38 -->
<g id="edge22" class="edge">
<title>Node20&#45;&gt;Node38</title>
<path fill="none" stroke="#191970" d="M762.36,-389.8511C802.1073,-379.5462 858.331,-364.9697 894.8528,-355.5011"/>
<polygon fill="#191970" stroke="#191970" points="761.4333,-386.4756 752.6317,-392.3733 763.1901,-393.2516 761.4333,-386.4756"/>
</g>
<!-- Node23 -->
<g id="node4" class="node">
<title>Node23</title>
<g id="a_node4"><a xlink:href="MouseState_8hxx.html" target="_top" xlink:title="src/model/MouseState.hxx">
<polygon fill="none" stroke="#000000" points="410.5,-224.5 410.5,-243.5 556.5,-243.5 556.5,-224.5 410.5,-224.5"/>
<text text-anchor="middle" x="483.5" y="-231.5" font-family="Helvetica,sans-Serif" font-size="10.00" fill="#000000">src/model/MouseState.hxx</text>
</a>
</g>
</g>
<!-- Node22&#45;&gt;Node23 -->
<g id="edge3" class="edge">
<title>Node22&#45;&gt;Node23</title>
<path fill="none" stroke="#191970" d="M619.6596,-277.3235C587.3827,-267.0536 542.6148,-252.8093 513.3607,-243.5011"/>
<polygon fill="#191970" stroke="#191970" points="618.654,-280.6764 629.2445,-280.3733 620.7765,-274.0059 618.654,-280.6764"/>
</g>
<!-- Node35 -->
<g id="node16" class="node">
<title>Node35</title>
<g id="a_node16"><a xlink:href="ButtonState_8hxx.html" target="_top" xlink:title="src/model/ButtonState.hxx">
<polygon fill="none" stroke="#000000" points="653.5,-224.5 653.5,-243.5 799.5,-243.5 799.5,-224.5 653.5,-224.5"/>
<text text-anchor="middle" x="726.5" y="-231.5" font-family="Helvetica,sans-Serif" font-size="10.00" fill="#000000">src/model/ButtonState.hxx</text>
</a>
</g>
</g>
<!-- Node22&#45;&gt;Node35 -->
<g id="edge17" class="edge">
<title>Node22&#45;&gt;Node35</title>
<path fill="none" stroke="#191970" d="M679.0676,-273.645C690.7198,-263.9058 705.1084,-251.8795 714.9632,-243.6427"/>
<polygon fill="#191970" stroke="#191970" points="676.5988,-271.1469 671.1705,-280.2455 681.0879,-276.5179 676.5988,-271.1469"/>
</g>
<!-- Node24 -->
<g id="node5" class="node">
<title>Node24</title>
<g id="a_node5"><a xlink:href="CursorView_8hxx.html" target="_top" xlink:title="src/view/CursorView.hxx">
<polygon fill="none" stroke="#000000" points="335.5,-168.5 335.5,-187.5 471.5,-187.5 471.5,-168.5 335.5,-168.5"/>
<text text-anchor="middle" x="403.5" y="-175.5" font-family="Helvetica,sans-Serif" font-size="10.00" fill="#000000">src/view/CursorView.hxx</text>
</a>
</g>
</g>
<!-- Node23&#45;&gt;Node24 -->
<g id="edge4" class="edge">
<title>Node23&#45;&gt;Node24</title>
<path fill="none" stroke="#191970" d="M461.3429,-218.49C447.228,-208.6096 429.3849,-196.1194 417.2752,-187.6427"/>
<polygon fill="#191970" stroke="#191970" points="459.3656,-221.3782 469.5651,-224.2455 463.3799,-215.6436 459.3656,-221.3782"/>
</g>
<!-- Node25 -->
<g id="node6" class="node">
<title>Node25</title>
<g id="a_node6"><a xlink:href="Window_8hxx.html" target="_top" xlink:title="src/view/Window.hxx">
<polygon fill="none" stroke="#000000" points="327,-112.5 327,-131.5 446,-131.5 446,-112.5 327,-112.5"/>
<text text-anchor="middle" x="386.5" y="-119.5" font-family="Helvetica,sans-Serif" font-size="10.00" fill="#000000">src/view/Window.hxx</text>
</a>
</g>
</g>
<!-- Node23&#45;&gt;Node25 -->
<g id="edge15" class="edge">
<title>Node23&#45;&gt;Node25</title>
<path fill="none" stroke="#191970" d="M415.5751,-222.4243C378.3851,-214.5524 337.6371,-202.8684 326.5,-188 310.4392,-166.5583 343.4864,-143.9555 366.6037,-131.5529"/>
<polygon fill="#191970" stroke="#191970" points="414.9375,-225.8663 425.4363,-224.4429 416.3413,-219.0085 414.9375,-225.8663"/>
</g>
<!-- Node34 -->
<g id="node15" class="node">
<title>Node34</title>
<g id="a_node15"><a xlink:href="MouseState_8cxx.html" target="_top" xlink:title="src/model/MouseState.cxx">
<polygon fill="none" stroke="#000000" points="490,-168.5 490,-187.5 635,-187.5 635,-168.5 490,-168.5"/>
<text text-anchor="middle" x="562.5" y="-175.5" font-family="Helvetica,sans-Serif" font-size="10.00" fill="#000000">src/model/MouseState.cxx</text>
</a>
</g>
</g>
<!-- Node23&#45;&gt;Node34 -->
<g id="edge16" class="edge">
<title>Node23&#45;&gt;Node34</title>
<path fill="none" stroke="#191970" d="M505.7756,-218.2097C519.6505,-208.3743 537.0515,-196.0394 548.8969,-187.6427"/>
<polygon fill="#191970" stroke="#191970" points="503.3949,-215.6071 497.2607,-224.2455 507.4431,-221.3178 503.3949,-215.6071"/>
</g>
<!-- Node24&#45;&gt;Node25 -->
<g id="edge5" class="edge">
<title>Node24&#45;&gt;Node25</title>
<path fill="none" stroke="#191970" d="M397.5663,-158.4538C394.8119,-149.3803 391.6607,-138.9998 389.4272,-131.6427"/>
<polygon fill="#191970" stroke="#191970" points="394.2849,-159.6934 400.5388,-168.2455 400.983,-157.66 394.2849,-159.6934"/>
</g>
<!-- Node33 -->
<g id="node14" class="node">
<title>Node33</title>
<g id="a_node14"><a xlink:href="CursorView_8cxx.html" target="_top" xlink:title="src/view/CursorView.cxx">
<polygon fill="none" stroke="#000000" points="464,-112.5 464,-131.5 599,-131.5 599,-112.5 464,-112.5"/>
<text text-anchor="middle" x="531.5" y="-119.5" font-family="Helvetica,sans-Serif" font-size="10.00" fill="#000000">src/view/CursorView.cxx</text>
</a>
</g>
</g>
<!-- Node24&#45;&gt;Node33 -->
<g id="edge14" class="edge">
<title>Node24&#45;&gt;Node33</title>
<path fill="none" stroke="#191970" d="M434.9348,-164.2473C458.1809,-154.0771 489.2411,-140.4883 509.7831,-131.5011"/>
<polygon fill="#191970" stroke="#191970" points="433.2627,-161.1585 425.504,-168.3733 436.0685,-167.5716 433.2627,-161.1585"/>
</g>
<!-- Node25&#45;&gt;Node21 -->
<g id="edge6" class="edge">
<title>Node25&#45;&gt;Node21</title>
<path fill="none" stroke="#191970" d="M321.8926,-110.6937C262.8547,-100.3621 176.5241,-85.2542 120.921,-75.5237"/>
<polygon fill="#191970" stroke="#191970" points="321.4,-114.1606 331.8536,-112.4369 322.6067,-107.2654 321.4,-114.1606"/>
</g>
<!-- Node26 -->
<g id="node7" class="node">
<title>Node26</title>
<g id="a_node7"><a xlink:href="Camera_8cxx.html" target="_top" xlink:title="src/engine/basics/Camera.cxx">
<polygon fill="none" stroke="#000000" points="151.5,-56.5 151.5,-75.5 313.5,-75.5 313.5,-56.5 151.5,-56.5"/>
<text text-anchor="middle" x="232.5" y="-63.5" font-family="Helvetica,sans-Serif" font-size="10.00" fill="#000000">src/engine/basics/Camera.cxx</text>
</a>
</g>
</g>
<!-- Node25&#45;&gt;Node26 -->
<g id="edge7" class="edge">
<title>Node25&#45;&gt;Node26</title>
<path fill="none" stroke="#191970" d="M350.5386,-108.9231C322.3866,-98.686 283.8945,-84.6889 258.6281,-75.5011"/>
<polygon fill="#191970" stroke="#191970" points="349.4324,-112.245 360.0265,-112.3733 351.8246,-105.6665 349.4324,-112.245"/>
</g>
<!-- Node27 -->
<g id="node8" class="node">
<title>Node27</title>
<g id="a_node8"><a xlink:href="Map_8cxx.html" target="_top" xlink:title="src/engine/Map.cxx">
<polygon fill="none" stroke="#000000" points="331.5,-56.5 331.5,-75.5 441.5,-75.5 441.5,-56.5 331.5,-56.5"/>
<text text-anchor="middle" x="386.5" y="-63.5" font-family="Helvetica,sans-Serif" font-size="10.00" fill="#000000">src/engine/Map.cxx</text>
</a>
</g>
</g>
<!-- Node25&#45;&gt;Node27 -->
<g id="edge8" class="edge">
<title>Node25&#45;&gt;Node27</title>
<path fill="none" stroke="#191970" d="M386.5,-102.1575C386.5,-93.155 386.5,-82.9199 386.5,-75.6427"/>
<polygon fill="#191970" stroke="#191970" points="383.0001,-102.2455 386.5,-112.2455 390.0001,-102.2456 383.0001,-102.2455"/>
</g>
<!-- Node28 -->
<g id="node9" class="node">
<title>Node28</title>
<g id="a_node9"><a xlink:href="WindowManager_8cxx.html" target="_top" xlink:title="src/engine/WindowManager.cxx">
<polygon fill="none" stroke="#000000" points="459.5,-56.5 459.5,-75.5 629.5,-75.5 629.5,-56.5 459.5,-56.5"/>
<text text-anchor="middle" x="544.5" y="-63.5" font-family="Helvetica,sans-Serif" font-size="10.00" fill="#000000">src/engine/WindowManager.cxx</text>
</a>
</g>
</g>
<!-- Node25&#45;&gt;Node28 -->
<g id="edge9" class="edge">
<title>Node25&#45;&gt;Node28</title>
<path fill="none" stroke="#191970" d="M423.3955,-108.9231C452.2787,-98.686 491.7706,-84.6889 517.6933,-75.5011"/>
<polygon fill="#191970" stroke="#191970" points="421.9174,-105.7336 413.6612,-112.3733 424.2559,-112.3314 421.9174,-105.7336"/>
</g>
<!-- Node25&#45;&gt;Node29 -->
<g id="edge10" class="edge">
<title>Node25&#45;&gt;Node29</title>
<path fill="none" stroke="#191970" d="M456.2006,-111.8191C599.0211,-93.7037 637.365,-97.3813 776.5,-76 779.3538,-75.5614 782.291,-75.0763 785.2462,-74.563"/>
<polygon fill="#191970" stroke="#191970" points="455.6616,-108.3594 446.1879,-113.1029 456.5518,-115.3026 455.6616,-108.3594"/>
</g>
<!-- Node32 -->
<g id="node13" class="node">
<title>Node32</title>
<g id="a_node13"><a xlink:href="Window_8cxx.html" target="_top" xlink:title="src/view/Window.cxx">
<polygon fill="none" stroke="#000000" points="648,-56.5 648,-75.5 767,-75.5 767,-56.5 648,-56.5"/>
<text text-anchor="middle" x="707.5" y="-63.5" font-family="Helvetica,sans-Serif" font-size="10.00" fill="#000000">src/view/Window.cxx</text>
</a>
</g>
</g>
<!-- Node25&#45;&gt;Node32 -->
<g id="edge13" class="edge">
<title>Node25&#45;&gt;Node32</title>
<path fill="none" stroke="#191970" d="M451.3093,-110.6937C510.5317,-100.3621 597.1321,-85.2542 652.909,-75.5237"/>
<polygon fill="#191970" stroke="#191970" points="450.5668,-107.2703 441.3171,-112.4369 451.7699,-114.1661 450.5668,-107.2703"/>
</g>
<!-- Node30 -->
<g id="node11" class="node">
<title>Node30</title>
<g id="a_node11"><a xlink:href="Game_8cxx.html" target="_top" xlink:title="src/Game.cxx">
<polygon fill="none" stroke="#000000" points="736,-.5 736,-19.5 819,-19.5 819,-.5 736,-.5"/>
<text text-anchor="middle" x="777.5" y="-7.5" font-family="Helvetica,sans-Serif" font-size="10.00" fill="#000000">src/Game.cxx</text>
</a>
</g>
</g>
<!-- Node29&#45;&gt;Node30 -->
<g id="edge11" class="edge">
<title>Node29&#45;&gt;Node30</title>
<path fill="none" stroke="#191970" d="M811.8753,-48.5004C803.3727,-38.9775 793.1782,-27.5596 786.1095,-19.6427"/>
<polygon fill="#191970" stroke="#191970" points="809.5197,-51.1172 818.7907,-56.2455 814.7413,-46.4551 809.5197,-51.1172"/>
</g>
<!-- Node31 -->
<g id="node12" class="node">
<title>Node31</title>
<g id="a_node12"><a xlink:href="main_8cxx.html" target="_top" xlink:title="src/main.cxx">
<polygon fill="none" stroke="#000000" points="837,-.5 837,-19.5 916,-19.5 916,-.5 837,-.5"/>
<text text-anchor="middle" x="876.5" y="-7.5" font-family="Helvetica,sans-Serif" font-size="10.00" fill="#000000">src/main.cxx</text>
</a>
</g>
</g>
<!-- Node29&#45;&gt;Node31 -->
<g id="edge12" class="edge">
<title>Node29&#45;&gt;Node31</title>
<path fill="none" stroke="#191970" d="M842.8122,-48.5004C851.1447,-38.9775 861.1353,-27.5596 868.0627,-19.6427"/>
<polygon fill="#191970" stroke="#191970" points="839.9862,-46.415 836.0351,-56.2455 845.2543,-51.0245 839.9862,-46.415"/>
</g>
<!-- Node36 -->
<g id="node17" class="node">
<title>Node36</title>
<g id="a_node17"><a xlink:href="ButtonState_8cxx.html" target="_top" xlink:title="src/model/ButtonState.cxx">
<polygon fill="none" stroke="#000000" points="653.5,-168.5 653.5,-187.5 799.5,-187.5 799.5,-168.5 653.5,-168.5"/>
<text text-anchor="middle" x="726.5" y="-175.5" font-family="Helvetica,sans-Serif" font-size="10.00" fill="#000000">src/model/ButtonState.cxx</text>
</a>
</g>
</g>
<!-- Node35&#45;&gt;Node36 -->
<g id="edge18" class="edge">
<title>Node35&#45;&gt;Node36</title>
<path fill="none" stroke="#191970" d="M726.5,-214.1575C726.5,-205.155 726.5,-194.9199 726.5,-187.6427"/>
<polygon fill="#191970" stroke="#191970" points="723.0001,-214.2455 726.5,-224.2455 730.0001,-214.2456 723.0001,-214.2455"/>
</g>
<!-- Node37&#45;&gt;Node22 -->
<g id="edge20" class="edge">
<title>Node37&#45;&gt;Node22</title>
<path fill="none" stroke="#191970" d="M698.5751,-329.0751C688.9402,-319.4402 677.2196,-307.7196 669.1427,-299.6427"/>
<polygon fill="#191970" stroke="#191970" points="696.1996,-331.6493 705.7455,-336.2455 701.1493,-326.6996 696.1996,-331.6493"/>
</g>
</g>
</svg>
        <g id="navigator" transform="translate(0 0)" fill="#404254">
                <rect fill="#f2f5e9" fill-opacity="0.5" stroke="#606060" stroke-width=".5" x="0" y="0" width="60" height="60"/>
                <use id="zoomplus" xlink:href="#zoomPlus" x="17" y="9" onmousedown="handleZoom(evt,'in')"/>
                <use id="zoomminus" xlink:href="#zoomMin" x="42" y="9" onmousedown="handleZoom(evt,'out')"/>
                <use id="reset" xlink:href="#resetDef" x="30" y="36" onmousedown="handleReset()"/>
                <g id="arrowUp" xlink:href="#dirArrow" transform="translate(30 24)" onmousedown="handlePan(0,-1)">
                  <use xlink:href="#rim" fill="#404040">
                        <set attributeName="fill" to="#808080" begin="arrowUp.mouseover" end="arrowUp.mouseout"/>
                  </use>
                  <path fill="none" stroke="white" stroke-width="1.5" d="M0,-3.0v7 M-2.5,-0.5L0,-3.0L2.5,-0.5"/>
                </g>
                <g id="arrowRight" xlink:href="#dirArrow" transform="rotate(90) translate(36 -43)" onmousedown="handlePan(1,0)">
                  <use xlink:href="#rim" fill="#404040">
                        <set attributeName="fill" to="#808080" begin="arrowRight.mouseover" end="arrowRight.mouseout"/>
                  </use>
                  <path fill="none" stroke="white" stroke-width="1.5" d="M0,-3.0v7 M-2.5,-0.5L0,-3.0L2.5,-0.5"/>
                </g>
                <g id="arrowDown" xlink:href="#dirArrow" transform="rotate(180) translate(-30 -48)" onmousedown="handlePan(0,1)">
                  <use xlink:href="#rim" fill="#404040">
                        <set attributeName="fill" to="#808080" begin="arrowDown.mouseover" end="arrowDown.mouseout"/>
                  </use>
                  <path fill="none" stroke="white" stroke-width="1.5" d="M0,-3.0v7 M-2.5,-0.5L0,-3.0L2.5,-0.5"/>
                </g>
                <g id="arrowLeft" xlink:href="#dirArrow" transform="rotate(270) translate(-36 17)" onmousedown="handlePan(-1,0)">
                  <use xlink:href="#rim" fill="#404040">
                        <set attributeName="fill" to="#808080" begin="arrowLeft.mouseover" end="arrowLeft.mouseout"/>
                  </use>
                  <path fill="none" stroke="white" stroke-width="1.5" d="M0,-3.0v7 M-2.5,-0.5L0,-3.0L2.5,-0.5"/>
                </g>
        </g>
        <svg viewBox="0 0 15 15" width="100%" height="30px" preserveAspectRatio="xMaxYMin meet">
         <g id="arrow_out" transform="scale(0.3 0.3)">
          <a xlink:href="MessageQueue_8hxx__dep__incl_org.svg" target="_base">
           <rect id="button" ry="5" rx="5" y="6" x="6" height="38" width="38"
                fill="#f2f5e9" fill-opacity="0.5" stroke="#606060" stroke-width="1.0"/>
           <path id="arrow"
             d="M 11.500037,31.436501 C 11.940474,20.09759 22.043105,11.32322 32.158766,21.979434 L 37.068811,17.246167 C 37.068811,17.246167 37.088388,32 37.088388,32 L 22.160133,31.978069 C 22.160133,31.978069 26.997745,27.140456 26.997745,27.140456 C 18.528582,18.264221 13.291696,25.230495 11.500037,31.436501 z"
             style="fill:#404040;"/>
          </a>
         </g>
        </svg>
</svg>
