<?xml version="1.0" encoding="UTF-8" standalone="no"?>
<!DOCTYPE svg PUBLIC "-//W3C//DTD SVG 1.1//EN"
 "http://www.w3.org/Graphics/SVG/1.1/DTD/svg11.dtd">
<!-- Generated by graphviz version 2.40.1 (20161225.0304)
 -->
<!-- Title: src/model/MouseState.hxx Pages: 1 -->
<svg width="877pt" height="252pt"
 viewBox="0.00 0.00 877.00 252.00" xmlns="http://www.w3.org/2000/svg" xmlns:xlink="http://www.w3.org/1999/xlink">
<g id="graph0" class="graph" transform="scale(1 1) rotate(0) translate(4 248)">
<title>src/model/MouseState.hxx</title>
<!-- Node24 -->
<g id="node1" class="node">
<title>Node24</title>
<polygon fill="#bfbfbf" stroke="#000000" points="488.5,-224.5 488.5,-243.5 634.5,-243.5 634.5,-224.5 488.5,-224.5"/>
<text text-anchor="middle" x="561.5" y="-231.5" font-family="Helvetica,sans-Serif" font-size="10.00" fill="#000000">src/model/MouseState.hxx</text>
</g>
<!-- Node25 -->
<g id="node2" class="node">
<title>Node25</title>
<g id="a_node2"><a xlink:href="CursorView_8hxx.html" target="_top" xlink:title="src/view/CursorView.hxx">
<polygon fill="none" stroke="#000000" points="493.5,-168.5 493.5,-187.5 629.5,-187.5 629.5,-168.5 493.5,-168.5"/>
<text text-anchor="middle" x="561.5" y="-175.5" font-family="Helvetica,sans-Serif" font-size="10.00" fill="#000000">src/view/CursorView.hxx</text>
</a>
</g>
</g>
<!-- Node24&#45;&gt;Node25 -->
<g id="edge1" class="edge">
<title>Node24&#45;&gt;Node25</title>
<path fill="none" stroke="#191970" d="M561.5,-214.1575C561.5,-205.155 561.5,-194.9199 561.5,-187.6427"/>
<polygon fill="#191970" stroke="#191970" points="558.0001,-214.2455 561.5,-224.2455 565.0001,-214.2456 558.0001,-214.2455"/>
</g>
<!-- Node26 -->
<g id="node3" class="node">
<title>Node26</title>
<g id="a_node3"><a xlink:href="Window_8hxx.html" target="_top" xlink:title="src/view/Window.hxx">
<polygon fill="none" stroke="#000000" points="406,-112.5 406,-131.5 525,-131.5 525,-112.5 406,-112.5"/>
<text text-anchor="middle" x="465.5" y="-119.5" font-family="Helvetica,sans-Serif" font-size="10.00" fill="#000000">src/view/Window.hxx</text>
</a>
</g>
</g>
<!-- Node24&#45;&gt;Node26 -->
<g id="edge12" class="edge">
<title>Node24&#45;&gt;Node26</title>
<path fill="none" stroke="#191970" d="M526.0711,-219.9022C511.3204,-212.4212 495.1783,-201.8646 484.5,-188 471.4038,-170.996 467.3308,-145.2745 466.0667,-131.501"/>
<polygon fill="#191970" stroke="#191970" points="524.9578,-223.2482 535.4922,-224.3781 527.9617,-216.9254 524.9578,-223.2482"/>
</g>
<!-- Node36 -->
<g id="node13" class="node">
<title>Node36</title>
<g id="a_node13"><a xlink:href="MouseState_8cxx.html" target="_top" xlink:title="src/model/MouseState.cxx">
<polygon fill="none" stroke="#000000" points="648,-168.5 648,-187.5 793,-187.5 793,-168.5 648,-168.5"/>
<text text-anchor="middle" x="720.5" y="-175.5" font-family="Helvetica,sans-Serif" font-size="10.00" fill="#000000">src/model/MouseState.cxx</text>
</a>
</g>
</g>
<!-- Node24&#45;&gt;Node36 -->
<g id="edge13" class="edge">
<title>Node24&#45;&gt;Node36</title>
<path fill="none" stroke="#191970" d="M598.629,-220.9231C627.695,-210.686 667.4369,-196.6889 693.5236,-187.5011"/>
<polygon fill="#191970" stroke="#191970" points="597.1025,-217.75 588.8331,-224.3733 599.4279,-224.3524 597.1025,-217.75"/>
</g>
<!-- Node25&#45;&gt;Node26 -->
<g id="edge2" class="edge">
<title>Node25&#45;&gt;Node26</title>
<path fill="none" stroke="#191970" d="M535.8654,-163.0465C518.7841,-153.0824 496.836,-140.2794 482.0303,-131.6427"/>
<polygon fill="#191970" stroke="#191970" points="534.3767,-166.23 544.7781,-168.2455 537.9038,-160.1836 534.3767,-166.23"/>
</g>
<!-- Node35 -->
<g id="node12" class="node">
<title>Node35</title>
<g id="a_node12"><a xlink:href="CursorView_8cxx.html" target="_top" xlink:title="src/view/CursorView.cxx">
<polygon fill="none" stroke="#000000" points="543,-112.5 543,-131.5 678,-131.5 678,-112.5 543,-112.5"/>
<text text-anchor="middle" x="610.5" y="-119.5" font-family="Helvetica,sans-Serif" font-size="10.00" fill="#000000">src/view/CursorView.cxx</text>
</a>
</g>
</g>
<!-- Node25&#45;&gt;Node35 -->
<g id="edge11" class="edge">
<title>Node25&#45;&gt;Node35</title>
<path fill="none" stroke="#191970" d="M576.8122,-160.5004C585.1447,-150.9775 595.1353,-139.5596 602.0627,-131.6427"/>
<polygon fill="#191970" stroke="#191970" points="573.9862,-158.415 570.0351,-168.2455 579.2543,-163.0245 573.9862,-158.415"/>
</g>
<!-- Node27 -->
<g id="node4" class="node">
<title>Node27</title>
<g id="a_node4"><a xlink:href="iActivity_8cxx.html" target="_top" xlink:title="src/activity/iActivity.cxx">
<polygon fill="none" stroke="#000000" points="0,-56.5 0,-75.5 133,-75.5 133,-56.5 0,-56.5"/>
<text text-anchor="middle" x="66.5" y="-63.5" font-family="Helvetica,sans-Serif" font-size="10.00" fill="#000000">src/activity/iActivity.cxx</text>
</a>
</g>
</g>
<!-- Node26&#45;&gt;Node27 -->
<g id="edge3" class="edge">
<title>Node26&#45;&gt;Node27</title>
<path fill="none" stroke="#191970" d="M395.6263,-112.1932C321.739,-101.823 206.0176,-85.5814 133.3117,-75.3771"/>
<polygon fill="#191970" stroke="#191970" points="395.3762,-115.6923 405.7657,-113.6162 396.3492,-108.7602 395.3762,-115.6923"/>
</g>
<!-- Node28 -->
<g id="node5" class="node">
<title>Node28</title>
<g id="a_node5"><a xlink:href="Camera_8cxx.html" target="_top" xlink:title="src/engine/basics/Camera.cxx">
<polygon fill="none" stroke="#000000" points="151.5,-56.5 151.5,-75.5 313.5,-75.5 313.5,-56.5 151.5,-56.5"/>
<text text-anchor="middle" x="232.5" y="-63.5" font-family="Helvetica,sans-Serif" font-size="10.00" fill="#000000">src/engine/basics/Camera.cxx</text>
</a>
</g>
</g>
<!-- Node26&#45;&gt;Node28 -->
<g id="edge4" class="edge">
<title>Node26&#45;&gt;Node28</title>
<path fill="none" stroke="#191970" d="M415.7682,-110.0473C372.8828,-99.7401 311.7748,-85.0532 272.1253,-75.5237"/>
<polygon fill="#191970" stroke="#191970" points="415.1696,-113.503 425.7106,-112.4369 416.8054,-106.6968 415.1696,-113.503"/>
</g>
<!-- Node29 -->
<g id="node6" class="node">
<title>Node29</title>
<g id="a_node6"><a xlink:href="Map_8cxx.html" target="_top" xlink:title="src/engine/Map.cxx">
<polygon fill="none" stroke="#000000" points="331.5,-56.5 331.5,-75.5 441.5,-75.5 441.5,-56.5 331.5,-56.5"/>
<text text-anchor="middle" x="386.5" y="-63.5" font-family="Helvetica,sans-Serif" font-size="10.00" fill="#000000">src/engine/Map.cxx</text>
</a>
</g>
</g>
<!-- Node26&#45;&gt;Node29 -->
<g id="edge5" class="edge">
<title>Node26&#45;&gt;Node29</title>
<path fill="none" stroke="#191970" d="M443.2244,-106.2097C429.3495,-96.3743 411.9485,-84.0394 400.1031,-75.6427"/>
<polygon fill="#191970" stroke="#191970" points="441.5569,-109.3178 451.7393,-112.2455 445.6051,-103.6071 441.5569,-109.3178"/>
</g>
<!-- Node30 -->
<g id="node7" class="node">
<title>Node30</title>
<g id="a_node7"><a xlink:href="WindowManager_8cxx.html" target="_top" xlink:title="src/engine/WindowManager.cxx">
<polygon fill="none" stroke="#000000" points="459.5,-56.5 459.5,-75.5 629.5,-75.5 629.5,-56.5 459.5,-56.5"/>
<text text-anchor="middle" x="544.5" y="-63.5" font-family="Helvetica,sans-Serif" font-size="10.00" fill="#000000">src/engine/WindowManager.cxx</text>
</a>
</g>
</g>
<!-- Node26&#45;&gt;Node30 -->
<g id="edge6" class="edge">
<title>Node26&#45;&gt;Node30</title>
<path fill="none" stroke="#191970" d="M487.7756,-106.2097C501.6505,-96.3743 519.0515,-84.0394 530.8969,-75.6427"/>
<polygon fill="#191970" stroke="#191970" points="485.3949,-103.6071 479.2607,-112.2455 489.4431,-109.3178 485.3949,-103.6071"/>
</g>
<!-- Node31 -->
<g id="node8" class="node">
<title>Node31</title>
<g id="a_node8"><a xlink:href="Game_8hxx.html" target="_top" xlink:title="src/Game.hxx">
<polygon fill="none" stroke="#000000" points="647.5,-56.5 647.5,-75.5 731.5,-75.5 731.5,-56.5 647.5,-56.5"/>
<text text-anchor="middle" x="689.5" y="-63.5" font-family="Helvetica,sans-Serif" font-size="10.00" fill="#000000">src/Game.hxx</text>
</a>
</g>
</g>
<!-- Node26&#45;&gt;Node31 -->
<g id="edge7" class="edge">
<title>Node26&#45;&gt;Node31</title>
<path fill="none" stroke="#191970" d="M513.572,-109.982C554.7875,-99.6781 613.3678,-85.0331 651.4053,-75.5237"/>
<polygon fill="#191970" stroke="#191970" points="512.605,-106.616 503.7525,-112.4369 514.3028,-113.407 512.605,-106.616"/>
</g>
<!-- Node34 -->
<g id="node11" class="node">
<title>Node34</title>
<g id="a_node11"><a xlink:href="Window_8cxx.html" target="_top" xlink:title="src/view/Window.cxx">
<polygon fill="none" stroke="#000000" points="750,-56.5 750,-75.5 869,-75.5 869,-56.5 750,-56.5"/>
<text text-anchor="middle" x="809.5" y="-63.5" font-family="Helvetica,sans-Serif" font-size="10.00" fill="#000000">src/view/Window.cxx</text>
</a>
</g>
</g>
<!-- Node26&#45;&gt;Node34 -->
<g id="edge10" class="edge">
<title>Node26&#45;&gt;Node34</title>
<path fill="none" stroke="#191970" d="M534.1677,-110.8215C597.6512,-100.487 690.9771,-85.2944 750.9975,-75.5237"/>
<polygon fill="#191970" stroke="#191970" points="533.5525,-107.3755 524.2448,-112.4369 534.6773,-114.2846 533.5525,-107.3755"/>
</g>
<!-- Node32 -->
<g id="node9" class="node">
<title>Node32</title>
<g id="a_node9"><a xlink:href="Game_8cxx.html" target="_top" xlink:title="src/Game.cxx">
<polygon fill="none" stroke="#000000" points="599,-.5 599,-19.5 682,-19.5 682,-.5 599,-.5"/>
<text text-anchor="middle" x="640.5" y="-7.5" font-family="Helvetica,sans-Serif" font-size="10.00" fill="#000000">src/Game.cxx</text>
</a>
</g>
</g>
<!-- Node31&#45;&gt;Node32 -->
<g id="edge8" class="edge">
<title>Node31&#45;&gt;Node32</title>
<path fill="none" stroke="#191970" d="M674.1878,-48.5004C665.8553,-38.9775 655.8647,-27.5596 648.9373,-19.6427"/>
<polygon fill="#191970" stroke="#191970" points="671.7457,-51.0245 680.9649,-56.2455 677.0138,-46.415 671.7457,-51.0245"/>
</g>
<!-- Node33 -->
<g id="node10" class="node">
<title>Node33</title>
<g id="a_node10"><a xlink:href="main_8cxx.html" target="_top" xlink:title="src/main.cxx">
<polygon fill="none" stroke="#000000" points="700,-.5 700,-19.5 779,-19.5 779,-.5 700,-.5"/>
<text text-anchor="middle" x="739.5" y="-7.5" font-family="Helvetica,sans-Serif" font-size="10.00" fill="#000000">src/main.cxx</text>
</a>
</g>
</g>
<!-- Node31&#45;&gt;Node33 -->
<g id="edge9" class="edge">
<title>Node31&#45;&gt;Node33</title>
<path fill="none" stroke="#191970" d="M705.1247,-48.5004C713.6273,-38.9775 723.8218,-27.5596 730.8905,-19.6427"/>
<polygon fill="#191970" stroke="#191970" points="702.2587,-46.4551 698.2093,-56.2455 707.4803,-51.1172 702.2587,-46.4551"/>
</g>
</g>
</svg>
