<?xml version="1.0" encoding="UTF-8" standalone="no"?>
<!DOCTYPE svg PUBLIC "-//W3C//DTD SVG 1.1//EN"
 "http://www.w3.org/Graphics/SVG/1.1/DTD/svg11.dtd">
<!-- Generated by graphviz version 2.40.1 (20161225.0304)
 -->
<!-- Title: fs::getBasePath Pages: 1 -->
<svg width="1208pt" height="522pt"
 viewBox="0.00 0.00 1208.00 522.00" xmlns="http://www.w3.org/2000/svg" xmlns:xlink="http://www.w3.org/1999/xlink">
<g id="graph0" class="graph" transform="scale(1 1) rotate(0) translate(4 518)">
<title>fs::getBasePath</title>
<!-- Node21 -->
<g id="node1" class="node">
<title>Node21</title>
<polygon fill="#bfbfbf" stroke="#000000" points="0,-180.5 0,-199.5 92,-199.5 92,-180.5 0,-180.5"/>
<text text-anchor="middle" x="46" y="-187.5" font-family="Helvetica,sans-Serif" font-size="10.00" fill="#000000">fs::getBasePath</text>
</g>
<!-- Node22 -->
<g id="node2" class="node">
<title>Node22</title>
<g id="a_node2"><a xlink:href="classResourcesManager.html#a54721d26f52c4887b735d2cdaf60b078" target="_top" xlink:title="ResourcesManager::create\lSurfaceFromFile">
<polygon fill="none" stroke="#000000" points="132,-421 132,-451 277,-451 277,-421 132,-421"/>
<text text-anchor="start" x="140" y="-439" font-family="Helvetica,sans-Serif" font-size="10.00" fill="#000000">ResourcesManager::create</text>
<text text-anchor="middle" x="204.5" y="-428" font-family="Helvetica,sans-Serif" font-size="10.00" fill="#000000">SurfaceFromFile</text>
</a>
</g>
</g>
<!-- Node21&#45;&gt;Node22 -->
<g id="edge1" class="edge">
<title>Node21&#45;&gt;Node22</title>
<path fill="none" stroke="#191970" d="M54.5224,-209.1651C68.228,-239.1976 96.8093,-298.6992 128,-345 147.1421,-373.4153 173.6253,-403.2424 189.8805,-420.7025"/>
<polygon fill="#191970" stroke="#191970" points="57.6184,-207.5165 50.315,-199.8412 51.2379,-210.3957 57.6184,-207.5165"/>
</g>
<!-- Node30 -->
<g id="node10" class="node">
<title>Node30</title>
<g id="a_node10"><a xlink:href="classText.html#a3bf5a064fd37d06b8d3dc5a700556897" target="_top" xlink:title="Draws a text string to the screen Draws a text string to the screen. This could either be a standalon...">
<polygon fill="none" stroke="#000000" points="139.5,-316.5 139.5,-335.5 269.5,-335.5 269.5,-316.5 139.5,-316.5"/>
<text text-anchor="middle" x="204.5" y="-323.5" font-family="Helvetica,sans-Serif" font-size="10.00" fill="#000000">Text::createTextTexture</text>
</a>
</g>
</g>
<!-- Node21&#45;&gt;Node30 -->
<g id="edge10" class="edge">
<title>Node21&#45;&gt;Node30</title>
<path fill="none" stroke="#191970" d="M54.9632,-208.8353C67.7533,-233.7381 93.5579,-277.338 128,-302 136.8275,-308.3209 147.3776,-313.018 157.7811,-316.4941"/>
<polygon fill="#191970" stroke="#191970" points="58.0118,-207.105 50.4293,-199.7053 51.7423,-210.2184 58.0118,-207.105"/>
</g>
<!-- Node39 -->
<g id="node19" class="node">
<title>Node39</title>
<g id="a_node19"><a xlink:href="classGame.html#afa220e533b80333d5b3c8dbba01fdd16" target="_top" xlink:title="starts setting up the game starts game initialization. ">
<polygon fill="none" stroke="#000000" points="361,-249.5 361,-268.5 455,-268.5 455,-249.5 361,-249.5"/>
<text text-anchor="middle" x="408" y="-256.5" font-family="Helvetica,sans-Serif" font-size="10.00" fill="#000000">Game::initialize</text>
</a>
</g>
</g>
<!-- Node21&#45;&gt;Node39 -->
<g id="edge20" class="edge">
<title>Node21&#45;&gt;Node39</title>
<path fill="none" stroke="#191970" d="M58.0584,-207.9627C72.2,-227.2411 97.6131,-256.7437 128,-269 211.6807,-302.7519 321.1062,-282.3393 375.0294,-268.5367"/>
<polygon fill="#191970" stroke="#191970" points="60.8391,-205.8328 52.2126,-199.6818 55.1204,-209.8698 60.8391,-205.8328"/>
</g>
<!-- Node40 -->
<g id="node20" class="node">
<title>Node40</title>
<g id="a_node20"><a xlink:href="classSDLRenderer.html#aa86775df99d8c9c49f9f269cea1c883a" target="_top" xlink:title="SDLRenderer::SDLRenderer">
<polygon fill="none" stroke="#000000" points="131,-240.5 131,-259.5 278,-259.5 278,-240.5 131,-240.5"/>
<text text-anchor="middle" x="204.5" y="-247.5" font-family="Helvetica,sans-Serif" font-size="10.00" fill="#000000">SDLRenderer::SDLRenderer</text>
</a>
</g>
</g>
<!-- Node21&#45;&gt;Node40 -->
<g id="edge22" class="edge">
<title>Node21&#45;&gt;Node40</title>
<path fill="none" stroke="#191970" d="M71.6245,-204.6468C87.4754,-213.2393 108.4623,-223.7896 128,-231 137.8855,-234.6483 148.7452,-237.8208 159.0987,-240.4737"/>
<polygon fill="#191970" stroke="#191970" points="72.9238,-201.3662 62.4777,-199.5971 69.5406,-207.4943 72.9238,-201.3662"/>
</g>
<!-- Node41 -->
<g id="node21" class="node">
<title>Node41</title>
<g id="a_node21"><a xlink:href="ScriptEngine_8cxx.html#a4d2a8186429cb8b469e21c03dc4c8e33" target="_top" xlink:title="print">
<polygon fill="none" stroke="#000000" points="185,-202.5 185,-221.5 224,-221.5 224,-202.5 185,-202.5"/>
<text text-anchor="middle" x="204.5" y="-209.5" font-family="Helvetica,sans-Serif" font-size="10.00" fill="#000000">print</text>
</a>
</g>
</g>
<!-- Node21&#45;&gt;Node41 -->
<g id="edge23" class="edge">
<title>Node21&#45;&gt;Node41</title>
<path fill="none" stroke="#191970" d="M102.2254,-197.8042C130.9689,-201.7938 164.1376,-206.3976 184.7164,-209.254"/>
<polygon fill="#191970" stroke="#191970" points="102.6571,-194.3306 92.2708,-196.4225 101.6947,-201.2641 102.6571,-194.3306"/>
</g>
<!-- Node42 -->
<g id="node22" class="node">
<title>Node42</title>
<g id="a_node22"><a xlink:href="classResourceManager.html#a9825fcd46b3af5c1f1bf22eb8dd23936" target="_top" xlink:title="Creates the ResourceManager. ">
<polygon fill="none" stroke="#000000" points="128,-153 128,-183 281,-183 281,-153 128,-153"/>
<text text-anchor="start" x="136" y="-171" font-family="Helvetica,sans-Serif" font-size="10.00" fill="#000000">ResourceManager::Resource</text>
<text text-anchor="middle" x="204.5" y="-160" font-family="Helvetica,sans-Serif" font-size="10.00" fill="#000000">Manager</text>
</a>
</g>
</g>
<!-- Node21&#45;&gt;Node42 -->
<g id="edge24" class="edge">
<title>Node21&#45;&gt;Node42</title>
<path fill="none" stroke="#191970" d="M102.176,-182.2027C110.4692,-181.0516 119.1317,-179.8492 127.7546,-178.6524"/>
<polygon fill="#191970" stroke="#191970" points="101.6947,-178.7359 92.2708,-183.5775 102.6571,-185.6694 101.6947,-178.7359"/>
</g>
<!-- Node43 -->
<g id="node23" class="node">
<title>Node43</title>
<g id="a_node23"><a xlink:href="desktop_2Filesystem_8cxx.html#a4d36fc93e1ad546bbbd83efa8a1ebba2" target="_top" xlink:title="forEachFileType">
<polygon fill="none" stroke="#000000" points="158.5,-114.5 158.5,-133.5 250.5,-133.5 250.5,-114.5 158.5,-114.5"/>
<text text-anchor="middle" x="204.5" y="-121.5" font-family="Helvetica,sans-Serif" font-size="10.00" fill="#000000">forEachFileType</text>
</a>
</g>
</g>
<!-- Node21&#45;&gt;Node43 -->
<g id="edge25" class="edge">
<title>Node21&#45;&gt;Node43</title>
<path fill="none" stroke="#191970" d="M69.2066,-174.8658C85.2054,-164.9698 107.2473,-152.3726 128,-144 138.1845,-139.8911 149.4744,-136.3972 160.1842,-133.5351"/>
<polygon fill="#191970" stroke="#191970" points="67.1341,-172.0348 60.5405,-180.3279 70.8666,-177.9567 67.1341,-172.0348"/>
</g>
<!-- Node44 -->
<g id="node24" class="node">
<title>Node44</title>
<g id="a_node24"><a xlink:href="classLOG.html#a6fc1e3db47b4b54e899cf480f8a2306f" target="_top" xlink:title="Write log message to error.log file. ">
<polygon fill="none" stroke="#000000" points="150.5,-76.5 150.5,-95.5 258.5,-95.5 258.5,-76.5 150.5,-76.5"/>
<text text-anchor="middle" x="204.5" y="-83.5" font-family="Helvetica,sans-Serif" font-size="10.00" fill="#000000">LOG::writeErrorLog</text>
</a>
</g>
</g>
<!-- Node21&#45;&gt;Node44 -->
<g id="edge26" class="edge">
<title>Node21&#45;&gt;Node44</title>
<path fill="none" stroke="#191970" d="M58.4128,-172.0899C72.8703,-152.6098 98.5637,-121.9873 128,-105 134.8746,-101.0328 142.5609,-97.8879 150.3383,-95.3965"/>
<polygon fill="#191970" stroke="#191970" points="55.4254,-170.2489 52.4191,-180.4083 61.1047,-174.3411 55.4254,-170.2489"/>
</g>
<!-- Node46 -->
<g id="node26" class="node">
<title>Node46</title>
<g id="a_node26"><a xlink:href="classCursorView.html#a31952d744480fd52f49aa3d552a90f9f" target="_top" xlink:title="CursorView::CursorView">
<polygon fill="none" stroke="#000000" points="138,-38.5 138,-57.5 271,-57.5 271,-38.5 138,-38.5"/>
<text text-anchor="middle" x="204.5" y="-45.5" font-family="Helvetica,sans-Serif" font-size="10.00" fill="#000000">CursorView::CursorView</text>
</a>
</g>
</g>
<!-- Node21&#45;&gt;Node46 -->
<g id="edge28" class="edge">
<title>Node21&#45;&gt;Node46</title>
<path fill="none" stroke="#191970" d="M53.3996,-170.9451C65.0264,-143.5946 90.2173,-93.5827 128,-67 133.4842,-63.1415 139.6716,-60.064 146.0922,-57.6099"/>
<polygon fill="#191970" stroke="#191970" points="50.1517,-169.6408 49.6098,-180.2217 56.6318,-172.2882 50.1517,-169.6408"/>
</g>
<!-- Node47 -->
<g id="node27" class="node">
<title>Node47</title>
<g id="a_node27"><a xlink:href="classWindow.html#a51382238ba9aad6491768c86d123a48f" target="_top" xlink:title="Window::Window">
<polygon fill="none" stroke="#000000" points="154.5,-.5 154.5,-19.5 254.5,-19.5 254.5,-.5 154.5,-.5"/>
<text text-anchor="middle" x="204.5" y="-7.5" font-family="Helvetica,sans-Serif" font-size="10.00" fill="#000000">Window::Window</text>
</a>
</g>
</g>
<!-- Node21&#45;&gt;Node47 -->
<g id="edge29" class="edge">
<title>Node21&#45;&gt;Node47</title>
<path fill="none" stroke="#191970" d="M50.4183,-170.0904C59.0904,-135.82 81.6697,-65.8248 128,-29 135.6062,-22.9544 144.8777,-18.8007 154.3057,-15.9546"/>
<polygon fill="#191970" stroke="#191970" points="46.9123,-169.7042 47.9963,-180.2434 53.7212,-171.3285 46.9123,-169.7042"/>
</g>
<!-- Node23 -->
<g id="node3" class="node">
<title>Node23</title>
<g id="a_node3"><a xlink:href="classResourcesManager.html#ab376a89547592db4cca25309eac2931c" target="_top" xlink:title="ResourcesManager::loadTexture">
<polygon fill="none" stroke="#000000" points="322.5,-469.5 322.5,-488.5 493.5,-488.5 493.5,-469.5 322.5,-469.5"/>
<text text-anchor="middle" x="408" y="-476.5" font-family="Helvetica,sans-Serif" font-size="10.00" fill="#000000">ResourcesManager::loadTexture</text>
</a>
</g>
</g>
<!-- Node22&#45;&gt;Node23 -->
<g id="edge2" class="edge">
<title>Node22&#45;&gt;Node23</title>
<path fill="none" stroke="#191970" d="M285.6543,-453.1481C311.9794,-458.7106 340.2242,-464.6788 362.9354,-469.4777"/>
<polygon fill="#191970" stroke="#191970" points="286.182,-449.6824 275.6744,-451.0393 284.7348,-456.5312 286.182,-449.6824"/>
</g>
<!-- Node28 -->
<g id="node8" class="node">
<title>Node28</title>
<g id="a_node8"><a xlink:href="classResourcesManager.html#ac221a499e20ca7aedd00028842c7a101" target="_top" xlink:title="ResourcesManager::loadUITexture">
<polygon fill="none" stroke="#000000" points="317,-426.5 317,-445.5 499,-445.5 499,-426.5 317,-426.5"/>
<text text-anchor="middle" x="408" y="-433.5" font-family="Helvetica,sans-Serif" font-size="10.00" fill="#000000">ResourcesManager::loadUITexture</text>
</a>
</g>
</g>
<!-- Node22&#45;&gt;Node28 -->
<g id="edge8" class="edge">
<title>Node22&#45;&gt;Node28</title>
<path fill="none" stroke="#191970" d="M287.2026,-436C296.9909,-436 307.0231,-436 316.9192,-436"/>
<polygon fill="#191970" stroke="#191970" points="287.1064,-432.5001 277.1063,-436 287.1063,-439.5001 287.1064,-432.5001"/>
</g>
<!-- Node24 -->
<g id="node4" class="node">
<title>Node24</title>
<g id="a_node4"><a xlink:href="classTileManager.html#a9e03faf9425ee26a2f5fb1fa4c94d173" target="_top" xlink:title="TileManager::addJSONObject\lToTileData">
<polygon fill="none" stroke="#000000" points="539,-470 539,-500 695,-500 695,-470 539,-470"/>
<text text-anchor="start" x="547" y="-488" font-family="Helvetica,sans-Serif" font-size="10.00" fill="#000000">TileManager::addJSONObject</text>
<text text-anchor="middle" x="617" y="-477" font-family="Helvetica,sans-Serif" font-size="10.00" fill="#000000">ToTileData</text>
</a>
</g>
</g>
<!-- Node23&#45;&gt;Node24 -->
<g id="edge3" class="edge">
<title>Node23&#45;&gt;Node24</title>
<path fill="none" stroke="#191970" d="M503.8697,-481.7522C515.6028,-482.0891 527.482,-482.4301 538.9103,-482.7582"/>
<polygon fill="#191970" stroke="#191970" points="503.7077,-478.2462 493.6113,-481.4577 503.5067,-485.2434 503.7077,-478.2462"/>
</g>
<!-- Node25 -->
<g id="node5" class="node">
<title>Node25</title>
<g id="a_node5"><a xlink:href="classTileManager.html#a1575d9a9530e13fe0286b8fece9e47ea" target="_top" xlink:title="TileManager::init">
<polygon fill="none" stroke="#000000" points="735,-475.5 735,-494.5 833,-494.5 833,-475.5 735,-475.5"/>
<text text-anchor="middle" x="784" y="-482.5" font-family="Helvetica,sans-Serif" font-size="10.00" fill="#000000">TileManager::init</text>
</a>
</g>
</g>
<!-- Node24&#45;&gt;Node25 -->
<g id="edge4" class="edge">
<title>Node24&#45;&gt;Node25</title>
<path fill="none" stroke="#191970" d="M705.3214,-485C715.5119,-485 725.6063,-485 734.9948,-485"/>
<polygon fill="#191970" stroke="#191970" points="705.1215,-481.5001 695.1215,-485 705.1214,-488.5001 705.1215,-481.5001"/>
</g>
<!-- Node26 -->
<g id="node6" class="node">
<title>Node26</title>
<g id="a_node6"><a xlink:href="classTileManager.html#ac6f5d9eb4db57f9ad597223658574394" target="_top" xlink:title="TileManager::TileManager">
<polygon fill="none" stroke="#000000" points="869,-494.5 869,-513.5 1012,-513.5 1012,-494.5 869,-494.5"/>
<text text-anchor="middle" x="940.5" y="-501.5" font-family="Helvetica,sans-Serif" font-size="10.00" fill="#000000">TileManager::TileManager</text>
</a>
</g>
</g>
<!-- Node25&#45;&gt;Node26 -->
<g id="edge5" class="edge">
<title>Node25&#45;&gt;Node26</title>
<path fill="none" stroke="#191970" d="M843.1731,-492.184C851.5918,-493.206 860.3242,-494.2662 868.9473,-495.3131"/>
<polygon fill="#191970" stroke="#191970" points="843.4371,-488.6904 833.0882,-490.9596 842.5934,-495.6394 843.4371,-488.6904"/>
</g>
<!-- Node27 -->
<g id="node7" class="node">
<title>Node27</title>
<g id="a_node7"><a xlink:href="classTileManager.html#af094937b10637c493557e22b42cf25ed" target="_top" xlink:title="TileManager::getAllTileData">
<polygon fill="none" stroke="#000000" points="1048,-475.5 1048,-494.5 1200,-494.5 1200,-475.5 1048,-475.5"/>
<text text-anchor="middle" x="1124" y="-482.5" font-family="Helvetica,sans-Serif" font-size="10.00" fill="#000000">TileManager::getAllTileData</text>
</a>
</g>
</g>
<!-- Node25&#45;&gt;Node27 -->
<g id="edge7" class="edge">
<title>Node25&#45;&gt;Node27</title>
<path fill="none" stroke="#191970" d="M843.3322,-485C900.1451,-485 986.1219,-485 1047.9405,-485"/>
<polygon fill="#191970" stroke="#191970" points="843.0758,-481.5001 833.0758,-485 843.0758,-488.5001 843.0758,-481.5001"/>
</g>
<!-- Node26&#45;&gt;Node27 -->
<g id="edge6" class="edge">
<title>Node26&#45;&gt;Node27</title>
<path fill="none" stroke="#191970" d="M1022.4402,-495.5157C1030.8686,-494.643 1039.4087,-493.7588 1047.7716,-492.8929"/>
<polygon fill="#191970" stroke="#191970" points="1021.8206,-492.0611 1012.2343,-496.5725 1022.5416,-499.0239 1021.8206,-492.0611"/>
</g>
<!-- Node29 -->
<g id="node9" class="node">
<title>Node29</title>
<g id="a_node9"><a xlink:href="classResourcesManager.html#a7fe5ff24c1df6a60214bea3ca474d155" target="_top" xlink:title="ResourcesManager::Resources\lManager">
<polygon fill="none" stroke="#000000" points="535,-421 535,-451 699,-451 699,-421 535,-421"/>
<text text-anchor="start" x="543" y="-439" font-family="Helvetica,sans-Serif" font-size="10.00" fill="#000000">ResourcesManager::Resources</text>
<text text-anchor="middle" x="617" y="-428" font-family="Helvetica,sans-Serif" font-size="10.00" fill="#000000">Manager</text>
</a>
</g>
</g>
<!-- Node28&#45;&gt;Node29 -->
<g id="edge9" class="edge">
<title>Node28&#45;&gt;Node29</title>
<path fill="none" stroke="#191970" d="M509.1284,-436C517.7268,-436 526.3558,-436 534.782,-436"/>
<polygon fill="#191970" stroke="#191970" points="509.0625,-432.5001 499.0625,-436 509.0624,-439.5001 509.0625,-432.5001"/>
</g>
<!-- Node31 -->
<g id="node11" class="node">
<title>Node31</title>
<g id="a_node11"><a xlink:href="classText.html#a14b9f0937696af5fd95317eb8313bf92" target="_top" xlink:title="sets the text for this text widget. ">
<polygon fill="none" stroke="#000000" points="369,-335.5 369,-354.5 447,-354.5 447,-335.5 369,-335.5"/>
<text text-anchor="middle" x="408" y="-342.5" font-family="Helvetica,sans-Serif" font-size="10.00" fill="#000000">Text::setText</text>
</a>
</g>
</g>
<!-- Node30&#45;&gt;Node31 -->
<g id="edge11" class="edge">
<title>Node30&#45;&gt;Node31</title>
<path fill="none" stroke="#191970" d="M279.8441,-333.0346C310.1009,-335.8595 343.7043,-338.997 368.9085,-341.3502"/>
<polygon fill="#191970" stroke="#191970" points="280.0105,-329.535 269.7284,-332.0901 279.3597,-336.5047 280.0105,-329.535"/>
</g>
<!-- Node38 -->
<g id="node18" class="node">
<title>Node38</title>
<g id="a_node18"><a xlink:href="classText.html#af6db01e16738de0391ad928c54334f0e" target="_top" xlink:title="gets the Font size of this element gets the font size of the element ">
<polygon fill="none" stroke="#000000" points="358,-297.5 358,-316.5 458,-316.5 458,-297.5 358,-297.5"/>
<text text-anchor="middle" x="408" y="-304.5" font-family="Helvetica,sans-Serif" font-size="10.00" fill="#000000">Text::getFontSize</text>
</a>
</g>
</g>
<!-- Node30&#45;&gt;Node38 -->
<g id="edge19" class="edge">
<title>Node30&#45;&gt;Node38</title>
<path fill="none" stroke="#191970" d="M279.948,-318.9557C305.9821,-316.525 334.4826,-313.864 357.9729,-311.6708"/>
<polygon fill="#191970" stroke="#191970" points="279.3597,-315.4953 269.7284,-319.9099 280.0105,-322.465 279.3597,-315.4953"/>
</g>
<!-- Node32 -->
<g id="node12" class="node">
<title>Node32</title>
<g id="a_node12"><a xlink:href="classText.html#a398a47abd355749d9e99bf74aa6a4a8d" target="_top" xlink:title="Sets the Font size of this element. ">
<polygon fill="none" stroke="#000000" points="567.5,-382.5 567.5,-401.5 666.5,-401.5 666.5,-382.5 567.5,-382.5"/>
<text text-anchor="middle" x="617" y="-389.5" font-family="Helvetica,sans-Serif" font-size="10.00" fill="#000000">Text::setFontSize</text>
</a>
</g>
</g>
<!-- Node31&#45;&gt;Node32 -->
<g id="edge12" class="edge">
<title>Node31&#45;&gt;Node32</title>
<path fill="none" stroke="#191970" d="M457.4942,-356.1303C493.1425,-364.1469 540.7355,-374.8496 574.633,-382.4725"/>
<polygon fill="#191970" stroke="#191970" points="457.8356,-352.6197 447.3113,-353.8403 456.2997,-359.4491 457.8356,-352.6197"/>
</g>
<!-- Node33 -->
<g id="node13" class="node">
<title>Node33</title>
<g id="a_node13"><a xlink:href="classText.html#ab3e26143fccc52699bcc5149cae852bc" target="_top" xlink:title="default Constructor ">
<polygon fill="none" stroke="#000000" points="752.5,-363.5 752.5,-382.5 815.5,-382.5 815.5,-363.5 752.5,-363.5"/>
<text text-anchor="middle" x="784" y="-370.5" font-family="Helvetica,sans-Serif" font-size="10.00" fill="#000000">Text::Text</text>
</a>
</g>
</g>
<!-- Node31&#45;&gt;Node33 -->
<g id="edge14" class="edge">
<title>Node31&#45;&gt;Node33</title>
<path fill="none" stroke="#191970" d="M457.2929,-348.6707C535.7847,-354.5159 686.9826,-365.7753 752.4746,-370.6524"/>
<polygon fill="#191970" stroke="#191970" points="457.4069,-345.1696 447.1745,-347.9173 456.887,-352.1503 457.4069,-345.1696"/>
</g>
<!-- Node34 -->
<g id="node14" class="node">
<title>Node34</title>
<g id="a_node14"><a xlink:href="classTextField.html#abe03b4b6ebf469645940cfa018bcdca2" target="_top" xlink:title="TextField::addText">
<polygon fill="none" stroke="#000000" points="565,-306.5 565,-325.5 669,-325.5 669,-306.5 565,-306.5"/>
<text text-anchor="middle" x="617" y="-313.5" font-family="Helvetica,sans-Serif" font-size="10.00" fill="#000000">TextField::addText</text>
</a>
</g>
</g>
<!-- Node31&#45;&gt;Node34 -->
<g id="edge15" class="edge">
<title>Node31&#45;&gt;Node34</title>
<path fill="none" stroke="#191970" d="M457.4404,-338.1398C489.7786,-333.6527 531.9636,-327.7993 564.8353,-323.2382"/>
<polygon fill="#191970" stroke="#191970" points="456.7353,-334.7041 447.3113,-339.5453 457.6975,-341.6376 456.7353,-334.7041"/>
</g>
<!-- Node35 -->
<g id="node15" class="node">
<title>Node35</title>
<g id="a_node15"><a xlink:href="classGame.html#a560299f0291c281f7b44e7ef0dd7b264" target="_top" xlink:title="initializes and displays the main menu initializes and displays the main menu ">
<polygon fill="none" stroke="#000000" points="565.5,-268.5 565.5,-287.5 668.5,-287.5 668.5,-268.5 565.5,-268.5"/>
<text text-anchor="middle" x="617" y="-275.5" font-family="Helvetica,sans-Serif" font-size="10.00" fill="#000000">Game::mainMenu</text>
</a>
</g>
</g>
<!-- Node31&#45;&gt;Node35 -->
<g id="edge16" class="edge">
<title>Node31&#45;&gt;Node35</title>
<path fill="none" stroke="#191970" d="M457.3041,-339.0899C471.2243,-336.2668 486.087,-332.1104 499,-326 517.5714,-317.2121 516.5258,-305.9903 535,-297 544.4608,-292.396 555.0862,-288.8788 565.4728,-286.2013"/>
<polygon fill="#191970" stroke="#191970" points="456.5764,-335.665 447.3759,-340.9188 457.8446,-342.5492 456.5764,-335.665"/>
</g>
<!-- Node32&#45;&gt;Node33 -->
<g id="edge13" class="edge">
<title>Node32&#45;&gt;Node33</title>
<path fill="none" stroke="#191970" d="M676.6095,-385.2181C702.1039,-382.3175 730.8427,-379.0478 752.1709,-376.6213"/>
<polygon fill="#191970" stroke="#191970" points="676.1936,-381.7427 666.6534,-386.3508 676.9849,-388.6979 676.1936,-381.7427"/>
</g>
<!-- Node36 -->
<g id="node16" class="node">
<title>Node36</title>
<g id="a_node16"><a xlink:href="main_8cxx.html#af582d708d899e67ead623eac34a22387" target="_top" xlink:title="protected_main">
<polygon fill="none" stroke="#000000" points="737.5,-249.5 737.5,-268.5 830.5,-268.5 830.5,-249.5 737.5,-249.5"/>
<text text-anchor="middle" x="784" y="-256.5" font-family="Helvetica,sans-Serif" font-size="10.00" fill="#000000">protected_main</text>
</a>
</g>
</g>
<!-- Node35&#45;&gt;Node36 -->
<g id="edge17" class="edge">
<title>Node35&#45;&gt;Node36</title>
<path fill="none" stroke="#191970" d="M678.8894,-270.9587C698.2828,-268.7523 719.3465,-266.3558 737.4899,-264.2916"/>
<polygon fill="#191970" stroke="#191970" points="678.4646,-267.4843 668.9244,-272.0924 679.256,-274.4395 678.4646,-267.4843"/>
</g>
<!-- Node37 -->
<g id="node17" class="node">
<title>Node37</title>
<g id="a_node17"><a xlink:href="main_8cxx.html#a3c04138a5bfe5d72780bb7e82a18e627" target="_top" xlink:title="main">
<polygon fill="none" stroke="#000000" points="920,-249.5 920,-268.5 961,-268.5 961,-249.5 920,-249.5"/>
<text text-anchor="middle" x="940.5" y="-256.5" font-family="Helvetica,sans-Serif" font-size="10.00" fill="#000000">main</text>
</a>
</g>
</g>
<!-- Node36&#45;&gt;Node37 -->
<g id="edge18" class="edge">
<title>Node36&#45;&gt;Node37</title>
<path fill="none" stroke="#191970" d="M840.8876,-259C868.482,-259 899.9146,-259 919.9637,-259"/>
<polygon fill="#191970" stroke="#191970" points="840.5315,-255.5001 830.5314,-259 840.5314,-262.5001 840.5315,-255.5001"/>
</g>
<!-- Node39&#45;&gt;Node36 -->
<g id="edge21" class="edge">
<title>Node39&#45;&gt;Node36</title>
<path fill="none" stroke="#191970" d="M465.3777,-259C539.8504,-259 668.3947,-259 737.2483,-259"/>
<polygon fill="#191970" stroke="#191970" points="465.24,-255.5001 455.2399,-259 465.2399,-262.5001 465.24,-255.5001"/>
</g>
<!-- Node45 -->
<g id="node25" class="node">
<title>Node45</title>
<g id="a_node25"><a xlink:href="classLOG.html#abe93cb14ebaf37291f7dcb0f4940afd8" target="_top" xlink:title="Destroy a Logger. ">
<polygon fill="none" stroke="#000000" points="372.5,-76.5 372.5,-95.5 443.5,-95.5 443.5,-76.5 372.5,-76.5"/>
<text text-anchor="middle" x="408" y="-83.5" font-family="Helvetica,sans-Serif" font-size="10.00" fill="#000000">LOG::~LOG</text>
</a>
</g>
</g>
<!-- Node44&#45;&gt;Node45 -->
<g id="edge27" class="edge">
<title>Node44&#45;&gt;Node45</title>
<path fill="none" stroke="#191970" d="M269.1494,-86C303.3406,-86 344.0077,-86 372.463,-86"/>
<polygon fill="#191970" stroke="#191970" points="268.767,-82.5001 258.7669,-86 268.7669,-89.5001 268.767,-82.5001"/>
</g>
</g>
</svg>
