<?xml version="1.0" encoding="UTF-8" standalone="no"?>
<!DOCTYPE svg PUBLIC "-//W3C//DTD SVG 1.1//EN"
 "http://www.w3.org/Graphics/SVG/1.1/DTD/svg11.dtd">
<!-- Generated by graphviz version 2.40.1 (20161225.0304)
 -->
<!-- Title: utils::strings::endsWith Pages: 1 -->
<svg width="1181pt" height="154pt"
 viewBox="0.00 0.00 1181.00 153.50" xmlns="http://www.w3.org/2000/svg" xmlns:xlink="http://www.w3.org/1999/xlink">
<g id="graph0" class="graph" transform="scale(1 1) rotate(0) translate(4 149.5)">
<title>utils::strings::endsWith</title>
<!-- Node1 -->
<g id="node1" class="node">
<title>Node1</title>
<polygon fill="#bfbfbf" stroke="#000000" points="0,-88 0,-107 128,-107 128,-88 0,-88"/>
<text text-anchor="middle" x="64" y="-95" font-family="Helvetica,sans-Serif" font-size="10.00" fill="#000000">utils::strings::endsWith</text>
</g>
<!-- Node2 -->
<g id="node2" class="node">
<title>Node2</title>
<g id="a_node2"><a xlink:href="namespaceutils.html#a36536812767e08111caf7ad382071e14" target="_top" xlink:title="Helper function for Reverse template because c++11 does not support template deduction. ">
<polygon fill="none" stroke="#000000" points="191.5,-126 191.5,-145 310.5,-145 310.5,-126 191.5,-126"/>
<text text-anchor="middle" x="251" y="-133" font-family="Helvetica,sans-Serif" font-size="10.00" fill="#000000">utils::ReverseIterator</text>
</a>
</g>
</g>
<!-- Node1&#45;&gt;Node2 -->
<g id="edge1" class="edge">
<title>Node1&#45;&gt;Node2</title>
<path fill="none" stroke="#191970" d="M121.131,-109.1095C147.7267,-114.514 178.9731,-120.8635 204.1513,-125.9799"/>
<polygon fill="#191970" stroke="#191970" points="121.6847,-105.6506 111.188,-107.089 120.2907,-112.5104 121.6847,-105.6506"/>
</g>
<!-- Node3 -->
<g id="node3" class="node">
<title>Node3</title>
<g id="a_node3"><a xlink:href="classUIManager.html#aae7a89e9d50bb6192e4140e07bd5f94b" target="_top" xlink:title="UIManager::createBuildMenu">
<polygon fill="none" stroke="#000000" points="385.5,-88 385.5,-107 542.5,-107 542.5,-88 385.5,-88"/>
<text text-anchor="middle" x="464" y="-95" font-family="Helvetica,sans-Serif" font-size="10.00" fill="#000000">UIManager::createBuildMenu</text>
</a>
</g>
</g>
<!-- Node1&#45;&gt;Node3 -->
<g id="edge2" class="edge">
<title>Node1&#45;&gt;Node3</title>
<path fill="none" stroke="#191970" d="M138.3804,-97.5C208.6942,-97.5 313.8142,-97.5 385.4613,-97.5"/>
<polygon fill="#191970" stroke="#191970" points="138.267,-94.0001 128.2669,-97.5 138.2669,-101.0001 138.267,-94.0001"/>
</g>
<!-- Node8 -->
<g id="node8" class="node">
<title>Node8</title>
<g id="a_node8"><a xlink:href="classUIManager.html#af885d42286536573cd418ed008abfc07" target="_top" xlink:title="UIManager::setBuildMenuLayout">
<polygon fill="none" stroke="#000000" points="164,-50 164,-69 338,-69 338,-50 164,-50"/>
<text text-anchor="middle" x="251" y="-57" font-family="Helvetica,sans-Serif" font-size="10.00" fill="#000000">UIManager::setBuildMenuLayout</text>
</a>
</g>
</g>
<!-- Node1&#45;&gt;Node8 -->
<g id="edge7" class="edge">
<title>Node1&#45;&gt;Node8</title>
<path fill="none" stroke="#191970" d="M121.131,-85.8905C147.7267,-80.486 178.9731,-74.1365 204.1513,-69.0201"/>
<polygon fill="#191970" stroke="#191970" points="120.2907,-82.4896 111.188,-87.911 121.6847,-89.3494 120.2907,-82.4896"/>
</g>
<!-- Node4 -->
<g id="node4" class="node">
<title>Node4</title>
<g id="a_node4"><a xlink:href="classUIManager.html#aedd9d0577af515a852425dfe414b2968" target="_top" xlink:title="Parses the UiLayout.json files and creates UI Elements. ">
<polygon fill="none" stroke="#000000" points="772,-50 772,-69 863,-69 863,-50 772,-50"/>
<text text-anchor="middle" x="817.5" y="-57" font-family="Helvetica,sans-Serif" font-size="10.00" fill="#000000">UIManager::init</text>
</a>
</g>
</g>
<!-- Node3&#45;&gt;Node4 -->
<g id="edge3" class="edge">
<title>Node3&#45;&gt;Node4</title>
<path fill="none" stroke="#191970" d="M552.8354,-91.5123C606.0768,-87.4636 675.0523,-81.4101 736,-73.5 747.6745,-71.9848 760.2319,-70.0039 771.9088,-68.0111"/>
<polygon fill="#191970" stroke="#191970" points="552.4536,-88.0311 542.7438,-92.2701 552.9778,-95.0114 552.4536,-88.0311"/>
</g>
<!-- Node5 -->
<g id="node5" class="node">
<title>Node5</title>
<g id="a_node5"><a xlink:href="classGame.html#a1c2ab25d5216b2f4b2fe41efd2c09114" target="_top" xlink:title="begins the game starts running the game ">
<polygon fill="none" stroke="#000000" points="899,-50 899,-69 967,-69 967,-50 899,-50"/>
<text text-anchor="middle" x="933" y="-57" font-family="Helvetica,sans-Serif" font-size="10.00" fill="#000000">Game::run</text>
</a>
</g>
</g>
<!-- Node4&#45;&gt;Node5 -->
<g id="edge4" class="edge">
<title>Node4&#45;&gt;Node5</title>
<path fill="none" stroke="#191970" d="M873.2726,-59.5C881.9603,-59.5 890.7077,-59.5 898.7272,-59.5"/>
<polygon fill="#191970" stroke="#191970" points="873.1487,-56.0001 863.1487,-59.5 873.1486,-63.0001 873.1487,-56.0001"/>
</g>
<!-- Node6 -->
<g id="node6" class="node">
<title>Node6</title>
<g id="a_node6"><a xlink:href="main_8cxx.html#af582d708d899e67ead623eac34a22387" target="_top" xlink:title="protected_main">
<polygon fill="none" stroke="#000000" points="1003,-50 1003,-69 1096,-69 1096,-50 1003,-50"/>
<text text-anchor="middle" x="1049.5" y="-57" font-family="Helvetica,sans-Serif" font-size="10.00" fill="#000000">protected_main</text>
</a>
</g>
</g>
<!-- Node5&#45;&gt;Node6 -->
<g id="edge5" class="edge">
<title>Node5&#45;&gt;Node6</title>
<path fill="none" stroke="#191970" d="M977.2653,-59.5C985.5757,-59.5 994.2897,-59.5 1002.6749,-59.5"/>
<polygon fill="#191970" stroke="#191970" points="977.0098,-56.0001 967.0098,-59.5 977.0098,-63.0001 977.0098,-56.0001"/>
</g>
<!-- Node7 -->
<g id="node7" class="node">
<title>Node7</title>
<g id="a_node7"><a xlink:href="main_8cxx.html#a3c04138a5bfe5d72780bb7e82a18e627" target="_top" xlink:title="main">
<polygon fill="none" stroke="#000000" points="1132,-50 1132,-69 1173,-69 1173,-50 1132,-50"/>
<text text-anchor="middle" x="1152.5" y="-57" font-family="Helvetica,sans-Serif" font-size="10.00" fill="#000000">main</text>
</a>
</g>
</g>
<!-- Node6&#45;&gt;Node7 -->
<g id="edge6" class="edge">
<title>Node6&#45;&gt;Node7</title>
<path fill="none" stroke="#191970" d="M1106.2133,-59.5C1115.4322,-59.5 1124.4259,-59.5 1131.9965,-59.5"/>
<polygon fill="#191970" stroke="#191970" points="1106.1782,-56.0001 1096.1782,-59.5 1106.1781,-63.0001 1106.1782,-56.0001"/>
</g>
<!-- Node8&#45;&gt;Node3 -->
<g id="edge9" class="edge">
<title>Node8&#45;&gt;Node3</title>
<path fill="none" stroke="#191970" d="M314.6026,-70.847C345.1632,-76.2991 381.3821,-82.7607 410.504,-87.9561"/>
<polygon fill="#191970" stroke="#191970" points="314.9333,-67.3507 304.474,-69.04 313.7038,-74.2419 314.9333,-67.3507"/>
</g>
<!-- Node8&#45;&gt;Node4 -->
<g id="edge8" class="edge">
<title>Node8&#45;&gt;Node4</title>
<path fill="none" stroke="#191970" d="M348.5019,-59.5C472.2042,-59.5 680.4477,-59.5 771.997,-59.5"/>
<polygon fill="#191970" stroke="#191970" points="348.2742,-56.0001 338.2741,-59.5 348.2741,-63.0001 348.2742,-56.0001"/>
</g>
<!-- Node9 -->
<g id="node9" class="node">
<title>Node9</title>
<g id="a_node9"><a xlink:href="classUIManager.html#a3ccb2fc669262f18ebdcdf3d5c43a3e8" target="_top" xlink:title="CallbackFunction that sets the Build Menu Position Used as callback function for the ComboBox that ho...">
<polygon fill="none" stroke="#000000" points="374,-9 374,-28 554,-28 554,-9 374,-9"/>
<text text-anchor="middle" x="464" y="-16" font-family="Helvetica,sans-Serif" font-size="10.00" fill="#000000">UIManager::setBuildMenuPosition</text>
</a>
</g>
</g>
<!-- Node8&#45;&gt;Node9 -->
<g id="edge10" class="edge">
<title>Node8&#45;&gt;Node9</title>
<path fill="none" stroke="#191970" d="M310.3224,-48.0811C343.1222,-41.7676 383.4044,-34.0137 414.4976,-28.0286"/>
<polygon fill="#191970" stroke="#191970" points="309.56,-44.6636 300.4019,-49.9907 310.8832,-51.5374 309.56,-44.6636"/>
</g>
<!-- Node10 -->
<g id="node10" class="node">
<title>Node10</title>
<g id="a_node10"><a xlink:href="classUIManager.html#a5c4cb8e02504ffa0d3faf45181feab9d" target="_top" xlink:title="Fill UI Widgets whose ID start with a $ with data Used for filling widgets with data, like BuildMenu Position combobox, Screen Resolution ComboBox and so on. ">
<polygon fill="none" stroke="#000000" points="590,-.5 590,-30.5 736,-30.5 736,-.5 590,-.5"/>
<text text-anchor="start" x="598" y="-18.5" font-family="Helvetica,sans-Serif" font-size="10.00" fill="#000000">UIManager::initializeDollar</text>
<text text-anchor="middle" x="663" y="-7.5" font-family="Helvetica,sans-Serif" font-size="10.00" fill="#000000">Variables</text>
</a>
</g>
</g>
<!-- Node9&#45;&gt;Node10 -->
<g id="edge11" class="edge">
<title>Node9&#45;&gt;Node10</title>
<path fill="none" stroke="#191970" d="M564.2766,-16.9883C572.8841,-16.8585 581.4838,-16.7289 589.8181,-16.6032"/>
<polygon fill="#191970" stroke="#191970" points="564.1301,-13.49 554.184,-17.1404 564.2357,-20.4892 564.1301,-13.49"/>
</g>
<!-- Node10&#45;&gt;Node4 -->
<g id="edge12" class="edge">
<title>Node10&#45;&gt;Node4</title>
<path fill="none" stroke="#191970" d="M725.4126,-33.2745C745.3957,-38.9654 766.7551,-45.0484 783.8672,-49.9217"/>
<polygon fill="#191970" stroke="#191970" points="726.3143,-29.8921 715.738,-30.5192 724.3969,-36.6245 726.3143,-29.8921"/>
</g>
</g>
</svg>
