<?xml version="1.0" encoding="UTF-8" standalone="no"?>
<!DOCTYPE svg PUBLIC "-//W3C//DTD SVG 1.1//EN"
 "http://www.w3.org/Graphics/SVG/1.1/DTD/svg11.dtd">
<!-- Generated by graphviz version 2.40.1 (20161225.0304)
 -->
<!-- Title: utils::strings::startsWith Pages: 1 -->
<svg width="760pt" height="78pt"
 viewBox="0.00 0.00 760.00 77.50" xmlns="http://www.w3.org/2000/svg" xmlns:xlink="http://www.w3.org/1999/xlink">
<g id="graph0" class="graph" transform="scale(1 1) rotate(0) translate(4 73.5)">
<title>utils::strings::startsWith</title>
<!-- Node23 -->
<g id="node1" class="node">
<title>Node23</title>
<polygon fill="#bfbfbf" stroke="#000000" points="0,-28 0,-47 133,-47 133,-28 0,-28"/>
<text text-anchor="middle" x="66.5" y="-35" font-family="Helvetica,sans-Serif" font-size="10.00" fill="#000000">utils::strings::startsWith</text>
</g>
<!-- Node24 -->
<g id="node2" class="node">
<title>Node24</title>
<g id="a_node2"><a xlink:href="namespaceutils.html#a36536812767e08111caf7ad382071e14" target="_top" xlink:title="Helper function for Reverse template because c++11 does not support template deduction. ">
<polygon fill="none" stroke="#000000" points="182.5,-50 182.5,-69 301.5,-69 301.5,-50 182.5,-50"/>
<text text-anchor="middle" x="242" y="-57" font-family="Helvetica,sans-Serif" font-size="10.00" fill="#000000">utils::ReverseIterator</text>
</a>
</g>
</g>
<!-- Node23&#45;&gt;Node24 -->
<g id="edge1" class="edge">
<title>Node23&#45;&gt;Node24</title>
<path fill="none" stroke="#191970" d="M143.0737,-47.099C156.2303,-48.7482 169.7276,-50.4402 182.3565,-52.0233"/>
<polygon fill="#191970" stroke="#191970" points="143.457,-43.6197 133.0993,-45.8486 142.5862,-50.5654 143.457,-43.6197"/>
</g>
<!-- Node25 -->
<g id="node3" class="node">
<title>Node25</title>
<g id="a_node3"><a xlink:href="classUIManager.html#a5c4cb8e02504ffa0d3faf45181feab9d" target="_top" xlink:title="Fill UI Widgets whose ID start with a $ with data Used for filling widgets with data, like BuildMenu Position combobox, Screen Resolution ComboBox and so on. ">
<polygon fill="none" stroke="#000000" points="169,-.5 169,-30.5 315,-30.5 315,-.5 169,-.5"/>
<text text-anchor="start" x="177" y="-18.5" font-family="Helvetica,sans-Serif" font-size="10.00" fill="#000000">UIManager::initializeDollar</text>
<text text-anchor="middle" x="242" y="-7.5" font-family="Helvetica,sans-Serif" font-size="10.00" fill="#000000">Variables</text>
</a>
</g>
</g>
<!-- Node23&#45;&gt;Node25 -->
<g id="edge2" class="edge">
<title>Node23&#45;&gt;Node25</title>
<path fill="none" stroke="#191970" d="M143.1062,-27.8969C151.7046,-26.8191 160.4481,-25.723 168.9992,-24.6511"/>
<polygon fill="#191970" stroke="#191970" points="142.5862,-24.4346 133.0993,-29.1514 143.457,-31.3803 142.5862,-24.4346"/>
</g>
<!-- Node26 -->
<g id="node4" class="node">
<title>Node26</title>
<g id="a_node4"><a xlink:href="classUIManager.html#aedd9d0577af515a852425dfe414b2968" target="_top" xlink:title="Parses the UiLayout.json files and creates UI Elements. ">
<polygon fill="none" stroke="#000000" points="351,-6 351,-25 442,-25 442,-6 351,-6"/>
<text text-anchor="middle" x="396.5" y="-13" font-family="Helvetica,sans-Serif" font-size="10.00" fill="#000000">UIManager::init</text>
</a>
</g>
</g>
<!-- Node25&#45;&gt;Node26 -->
<g id="edge3" class="edge">
<title>Node25&#45;&gt;Node26</title>
<path fill="none" stroke="#191970" d="M325.4491,-15.5C334.1801,-15.5 342.8047,-15.5 350.873,-15.5"/>
<polygon fill="#191970" stroke="#191970" points="325.178,-12.0001 315.1779,-15.5 325.1779,-19.0001 325.178,-12.0001"/>
</g>
<!-- Node27 -->
<g id="node5" class="node">
<title>Node27</title>
<g id="a_node5"><a xlink:href="classGame.html#a1c2ab25d5216b2f4b2fe41efd2c09114" target="_top" xlink:title="begins the game starts running the game ">
<polygon fill="none" stroke="#000000" points="478,-6 478,-25 546,-25 546,-6 478,-6"/>
<text text-anchor="middle" x="512" y="-13" font-family="Helvetica,sans-Serif" font-size="10.00" fill="#000000">Game::run</text>
</a>
</g>
</g>
<!-- Node26&#45;&gt;Node27 -->
<g id="edge4" class="edge">
<title>Node26&#45;&gt;Node27</title>
<path fill="none" stroke="#191970" d="M452.2726,-15.5C460.9603,-15.5 469.7077,-15.5 477.7272,-15.5"/>
<polygon fill="#191970" stroke="#191970" points="452.1487,-12.0001 442.1487,-15.5 452.1486,-19.0001 452.1487,-12.0001"/>
</g>
<!-- Node28 -->
<g id="node6" class="node">
<title>Node28</title>
<g id="a_node6"><a xlink:href="main_8cxx.html#af582d708d899e67ead623eac34a22387" target="_top" xlink:title="protected_main">
<polygon fill="none" stroke="#000000" points="582,-6 582,-25 675,-25 675,-6 582,-6"/>
<text text-anchor="middle" x="628.5" y="-13" font-family="Helvetica,sans-Serif" font-size="10.00" fill="#000000">protected_main</text>
</a>
</g>
</g>
<!-- Node27&#45;&gt;Node28 -->
<g id="edge5" class="edge">
<title>Node27&#45;&gt;Node28</title>
<path fill="none" stroke="#191970" d="M556.2653,-15.5C564.5757,-15.5 573.2897,-15.5 581.6749,-15.5"/>
<polygon fill="#191970" stroke="#191970" points="556.0098,-12.0001 546.0098,-15.5 556.0098,-19.0001 556.0098,-12.0001"/>
</g>
<!-- Node29 -->
<g id="node7" class="node">
<title>Node29</title>
<g id="a_node7"><a xlink:href="main_8cxx.html#a3c04138a5bfe5d72780bb7e82a18e627" target="_top" xlink:title="main">
<polygon fill="none" stroke="#000000" points="711,-6 711,-25 752,-25 752,-6 711,-6"/>
<text text-anchor="middle" x="731.5" y="-13" font-family="Helvetica,sans-Serif" font-size="10.00" fill="#000000">main</text>
</a>
</g>
</g>
<!-- Node28&#45;&gt;Node29 -->
<g id="edge6" class="edge">
<title>Node28&#45;&gt;Node29</title>
<path fill="none" stroke="#191970" d="M685.2133,-15.5C694.4322,-15.5 703.4259,-15.5 710.9965,-15.5"/>
<polygon fill="#191970" stroke="#191970" points="685.1782,-12.0001 675.1782,-15.5 685.1781,-19.0001 685.1782,-12.0001"/>
</g>
</g>
</svg>
