<?xml version="1.0" encoding="UTF-8" standalone="no"?>
<!DOCTYPE svg PUBLIC "-//W3C//DTD SVG 1.1//EN"
 "http://www.w3.org/Graphics/SVG/1.1/DTD/svg11.dtd">
<!-- Generated by graphviz version 2.40.1 (20161225.0304)
 -->
<!-- Title: src/util/Observer.hxx Pages: 1 -->
<svg width="304pt" height="140pt"
 viewBox="0.00 0.00 304.00 140.00" xmlns="http://www.w3.org/2000/svg" xmlns:xlink="http://www.w3.org/1999/xlink">
<g id="graph0" class="graph" transform="scale(1 1) rotate(0) translate(4 136)">
<title>src/util/Observer.hxx</title>
<!-- Node0 -->
<g id="node1" class="node">
<title>Node0</title>
<polygon fill="#bfbfbf" stroke="#000000" points="36,-112.5 36,-131.5 153,-131.5 153,-112.5 36,-112.5"/>
<text text-anchor="middle" x="94.5" y="-119.5" font-family="Helvetica,sans-Serif" font-size="10.00" fill="#000000">src/util/Observer.hxx</text>
</g>
<!-- Node1 -->
<g id="node2" class="node">
<title>Node1</title>
<polygon fill="none" stroke="#bfbfbf" points="0,-56.5 0,-75.5 47,-75.5 47,-56.5 0,-56.5"/>
<text text-anchor="middle" x="23.5" y="-63.5" font-family="Helvetica,sans-Serif" font-size="10.00" fill="#000000">vector</text>
</g>
<!-- Node0&#45;&gt;Node1 -->
<g id="edge1" class="edge">
<title>Node0&#45;&gt;Node1</title>
<path fill="none" stroke="#191970" d="M82.1327,-112.2455C71.5446,-103.8943 56.0936,-91.7076 43.7107,-81.9408"/>
<polygon fill="#191970" stroke="#191970" points="45.7447,-79.0875 35.7255,-75.6427 41.4097,-84.5837 45.7447,-79.0875"/>
</g>
<!-- Node2 -->
<g id="node3" class="node">
<title>Node2</title>
<polygon fill="none" stroke="#bfbfbf" points="65.5,-56.5 65.5,-75.5 123.5,-75.5 123.5,-56.5 65.5,-56.5"/>
<text text-anchor="middle" x="94.5" y="-63.5" font-family="Helvetica,sans-Serif" font-size="10.00" fill="#000000">memory</text>
</g>
<!-- Node0&#45;&gt;Node2 -->
<g id="edge2" class="edge">
<title>Node0&#45;&gt;Node2</title>
<path fill="none" stroke="#191970" d="M94.5,-112.2455C94.5,-104.9382 94.5,-94.6944 94.5,-85.7046"/>
<polygon fill="#191970" stroke="#191970" points="98.0001,-85.6426 94.5,-75.6427 91.0001,-85.6427 98.0001,-85.6426"/>
</g>
<!-- Node3 -->
<g id="node4" class="node">
<title>Node3</title>
<g id="a_node4"><a xlink:href="Meta_8hxx.html" target="_top" xlink:title="Meta.hxx">
<polygon fill="none" stroke="#000000" points="141.5,-56.5 141.5,-75.5 203.5,-75.5 203.5,-56.5 141.5,-56.5"/>
<text text-anchor="middle" x="172.5" y="-63.5" font-family="Helvetica,sans-Serif" font-size="10.00" fill="#000000">Meta.hxx</text>
</a>
</g>
</g>
<!-- Node0&#45;&gt;Node3 -->
<g id="edge3" class="edge">
<title>Node0&#45;&gt;Node3</title>
<path fill="none" stroke="#191970" d="M108.0866,-112.2455C119.8305,-103.814 137.0199,-91.4729 150.6882,-81.6598"/>
<polygon fill="#191970" stroke="#191970" points="152.9871,-84.3179 159.0691,-75.6427 148.9046,-78.6316 152.9871,-84.3179"/>
</g>
<!-- Node4 -->
<g id="node5" class="node">
<title>Node4</title>
<polygon fill="none" stroke="#bfbfbf" points="20.5,-.5 20.5,-19.5 80.5,-19.5 80.5,-.5 20.5,-.5"/>
<text text-anchor="middle" x="50.5" y="-7.5" font-family="Helvetica,sans-Serif" font-size="10.00" fill="#000000">iostream</text>
</g>
<!-- Node3&#45;&gt;Node4 -->
<g id="edge4" class="edge">
<title>Node3&#45;&gt;Node4</title>
<path fill="none" stroke="#191970" d="M151.5275,-56.3733C131.9433,-47.3838 102.5039,-33.8706 80.449,-23.7471"/>
<polygon fill="#191970" stroke="#191970" points="81.7473,-20.4919 71.1989,-19.5011 78.8271,-26.8538 81.7473,-20.4919"/>
</g>
<!-- Node5 -->
<g id="node6" class="node">
<title>Node5</title>
<polygon fill="none" stroke="#bfbfbf" points="99,-.5 99,-19.5 168,-19.5 168,-.5 99,-.5"/>
<text text-anchor="middle" x="133.5" y="-7.5" font-family="Helvetica,sans-Serif" font-size="10.00" fill="#000000">type_traits</text>
</g>
<!-- Node3&#45;&gt;Node5 -->
<g id="edge5" class="edge">
<title>Node3&#45;&gt;Node5</title>
<path fill="none" stroke="#191970" d="M165.7067,-56.2455C160.2822,-48.4564 152.5339,-37.3308 145.9967,-27.9439"/>
<polygon fill="#191970" stroke="#191970" points="148.8025,-25.8485 140.2154,-19.6427 143.0583,-29.849 148.8025,-25.8485"/>
</g>
<!-- Node6 -->
<g id="node7" class="node">
<title>Node6</title>
<polygon fill="none" stroke="#bfbfbf" points="186,-.5 186,-19.5 237,-19.5 237,-.5 186,-.5"/>
<text text-anchor="middle" x="211.5" y="-7.5" font-family="Helvetica,sans-Serif" font-size="10.00" fill="#000000">variant</text>
</g>
<!-- Node3&#45;&gt;Node6 -->
<g id="edge6" class="edge">
<title>Node3&#45;&gt;Node6</title>
<path fill="none" stroke="#191970" d="M179.2933,-56.2455C184.7178,-48.4564 192.4661,-37.3308 199.0033,-27.9439"/>
<polygon fill="#191970" stroke="#191970" points="201.9417,-29.849 204.7846,-19.6427 196.1975,-25.8485 201.9417,-29.849"/>
</g>
<!-- Node7 -->
<g id="node8" class="node">
<title>Node7</title>
<polygon fill="none" stroke="#bfbfbf" points="255,-.5 255,-19.5 296,-19.5 296,-.5 255,-.5"/>
<text text-anchor="middle" x="275.5" y="-7.5" font-family="Helvetica,sans-Serif" font-size="10.00" fill="#000000">tuple</text>
</g>
<!-- Node3&#45;&gt;Node7 -->
<g id="edge7" class="edge">
<title>Node3&#45;&gt;Node7</title>
<path fill="none" stroke="#191970" d="M190.4412,-56.2455C206.54,-47.4928 230.3879,-34.527 248.7391,-24.5496"/>
<polygon fill="#191970" stroke="#191970" points="250.6507,-27.4942 257.7644,-19.6427 247.3071,-21.3444 250.6507,-27.4942"/>
</g>
</g>
</svg>
