<?xml version="1.0" encoding="UTF-8" standalone="no"?>
<!DOCTYPE svg PUBLIC "-//W3C//DTD SVG 1.1//EN"
 "http://www.w3.org/Graphics/SVG/1.1/DTD/svg11.dtd">
<!-- Generated by graphviz version 2.40.1 (20161225.0304)
 -->
<!-- Title: src/util/PixelBuffer.hxx Pages: 1 -->
<svg width="3662pt" height="207pt"
 viewBox="0.00 0.00 3662.00 207.00" xmlns="http://www.w3.org/2000/svg" xmlns:xlink="http://www.w3.org/1999/xlink">
<g id="graph0" class="graph" transform="scale(1 1) rotate(0) translate(4 203)">
<title>src/util/PixelBuffer.hxx</title>
<!-- Node29 -->
<g id="node1" class="node">
<title>Node29</title>
<polygon fill="#bfbfbf" stroke="#000000" points="2071.5,-179.5 2071.5,-198.5 2197.5,-198.5 2197.5,-179.5 2071.5,-179.5"/>
<text text-anchor="middle" x="2134.5" y="-186.5" font-family="Helvetica,sans-Serif" font-size="10.00" fill="#000000">src/util/PixelBuffer.hxx</text>
</g>
<!-- Node30 -->
<g id="node2" class="node">
<title>Node30</title>
<g id="a_node2"><a xlink:href="Window_8hxx.html" target="_top" xlink:title="src/view/Window.hxx">
<polygon fill="none" stroke="#000000" points="429,-123.5 429,-142.5 548,-142.5 548,-123.5 429,-123.5"/>
<text text-anchor="middle" x="488.5" y="-130.5" font-family="Helvetica,sans-Serif" font-size="10.00" fill="#000000">src/view/Window.hxx</text>
</a>
</g>
</g>
<!-- Node29&#45;&gt;Node30 -->
<g id="edge1" class="edge">
<title>Node29&#45;&gt;Node30</title>
<path fill="none" stroke="#191970" d="M2061.1352,-186.504C1783.6969,-177.065 801.5801,-143.6516 548.3956,-135.0378"/>
<polygon fill="#191970" stroke="#191970" points="2061.3717,-190.014 2071.485,-186.8561 2061.6098,-183.018 2061.3717,-190.014"/>
</g>
<!-- Node39 -->
<g id="node11" class="node">
<title>Node39</title>
<g id="a_node11"><a xlink:href="Filesystem_8hxx.html" target="_top" xlink:title="src/util/Filesystem.hxx">
<polygon fill="none" stroke="#000000" points="2026.5,-123.5 2026.5,-142.5 2152.5,-142.5 2152.5,-123.5 2026.5,-123.5"/>
<text text-anchor="middle" x="2089.5" y="-130.5" font-family="Helvetica,sans-Serif" font-size="10.00" fill="#000000">src/util/Filesystem.hxx</text>
</a>
</g>
</g>
<!-- Node29&#45;&gt;Node39 -->
<g id="edge10" class="edge">
<title>Node29&#45;&gt;Node39</title>
<path fill="none" stroke="#191970" d="M2120.2054,-171.2112C2112.6004,-161.7472 2103.5462,-150.4797 2097.2486,-142.6427"/>
<polygon fill="#191970" stroke="#191970" points="2117.6694,-173.6428 2126.6616,-179.2455 2123.1259,-169.2581 2117.6694,-173.6428"/>
</g>
<!-- Node55 -->
<g id="node27" class="node">
<title>Node55</title>
<g id="a_node27"><a xlink:href="CursorView_8cxx.html" target="_top" xlink:title="src/view/CursorView.cxx">
<polygon fill="none" stroke="#000000" points="3519,-62 3519,-81 3654,-81 3654,-62 3519,-62"/>
<text text-anchor="middle" x="3586.5" y="-69" font-family="Helvetica,sans-Serif" font-size="10.00" fill="#000000">src/view/CursorView.cxx</text>
</a>
</g>
</g>
<!-- Node29&#45;&gt;Node55 -->
<g id="edge32" class="edge">
<title>Node29&#45;&gt;Node55</title>
<path fill="none" stroke="#191970" d="M2146.7095,-170.557C2158.3969,-154.6923 2177.6059,-132.8536 2200.5,-123 2334.2484,-65.4346 3365.8401,-103.6116 3510.5,-87 3522.2728,-85.6481 3534.9322,-83.3941 3546.4777,-81.0179"/>
<polygon fill="#191970" stroke="#191970" points="2143.612,-168.8775 2140.7263,-179.0718 2149.3394,-172.9021 2143.612,-168.8775"/>
</g>
<!-- Node56 -->
<g id="node28" class="node">
<title>Node56</title>
<g id="a_node28"><a xlink:href="PixelBuffer_8cxx.html" target="_top" xlink:title="src/util/PixelBuffer.cxx">
<polygon fill="none" stroke="#000000" points="2209,-123.5 2209,-142.5 2334,-142.5 2334,-123.5 2209,-123.5"/>
<text text-anchor="middle" x="2271.5" y="-130.5" font-family="Helvetica,sans-Serif" font-size="10.00" fill="#000000">src/util/PixelBuffer.cxx</text>
</a>
</g>
</g>
<!-- Node29&#45;&gt;Node56 -->
<g id="edge31" class="edge">
<title>Node29&#45;&gt;Node56</title>
<path fill="none" stroke="#191970" d="M2167.4806,-175.5189C2192.4311,-165.3201 2226.0734,-151.5685 2248.2562,-142.5011"/>
<polygon fill="#191970" stroke="#191970" points="2165.9834,-172.3497 2158.0511,-179.3733 2168.632,-178.8293 2165.9834,-172.3497"/>
</g>
<!-- Node31 -->
<g id="node3" class="node">
<title>Node31</title>
<g id="a_node3"><a xlink:href="iActivity_8cxx.html" target="_top" xlink:title="src/activity/iActivity.cxx">
<polygon fill="none" stroke="#000000" points="0,-62 0,-81 133,-81 133,-62 0,-62"/>
<text text-anchor="middle" x="66.5" y="-69" font-family="Helvetica,sans-Serif" font-size="10.00" fill="#000000">src/activity/iActivity.cxx</text>
</a>
</g>
</g>
<!-- Node30&#45;&gt;Node31 -->
<g id="edge2" class="edge">
<title>Node30&#45;&gt;Node31</title>
<path fill="none" stroke="#191970" d="M418.8982,-125.1775C348.8772,-116.972 237.903,-103.0507 142.5,-87 132.142,-85.2574 121.0405,-83.1377 110.6102,-81.0326"/>
<polygon fill="#191970" stroke="#191970" points="418.5873,-128.6649 428.9253,-126.3462 419.3978,-121.7119 418.5873,-128.6649"/>
</g>
<!-- Node32 -->
<g id="node4" class="node">
<title>Node32</title>
<g id="a_node4"><a xlink:href="Camera_8cxx.html" target="_top" xlink:title="src/engine/basics/Camera.cxx">
<polygon fill="none" stroke="#000000" points="151.5,-62 151.5,-81 313.5,-81 313.5,-62 151.5,-62"/>
<text text-anchor="middle" x="232.5" y="-69" font-family="Helvetica,sans-Serif" font-size="10.00" fill="#000000">src/engine/basics/Camera.cxx</text>
</a>
</g>
</g>
<!-- Node30&#45;&gt;Node32 -->
<g id="edge3" class="edge">
<title>Node30&#45;&gt;Node32</title>
<path fill="none" stroke="#191970" d="M438.8034,-121.0612C390.219,-109.3895 317.1925,-91.846 272.3123,-81.0643"/>
<polygon fill="#191970" stroke="#191970" points="438.2399,-124.5253 448.7809,-123.4581 439.8751,-117.719 438.2399,-124.5253"/>
</g>
<!-- Node33 -->
<g id="node5" class="node">
<title>Node33</title>
<g id="a_node5"><a xlink:href="Map_8cxx.html" target="_top" xlink:title="src/engine/Map.cxx">
<polygon fill="none" stroke="#000000" points="433.5,-62 433.5,-81 543.5,-81 543.5,-62 433.5,-62"/>
<text text-anchor="middle" x="488.5" y="-69" font-family="Helvetica,sans-Serif" font-size="10.00" fill="#000000">src/engine/Map.cxx</text>
</a>
</g>
</g>
<!-- Node30&#45;&gt;Node33 -->
<g id="edge4" class="edge">
<title>Node30&#45;&gt;Node33</title>
<path fill="none" stroke="#191970" d="M488.5,-113.2462C488.5,-102.5519 488.5,-89.814 488.5,-81.2449"/>
<polygon fill="#191970" stroke="#191970" points="485.0001,-113.3906 488.5,-123.3906 492.0001,-113.3907 485.0001,-113.3906"/>
</g>
<!-- Node34 -->
<g id="node6" class="node">
<title>Node34</title>
<g id="a_node6"><a xlink:href="WindowManager_8cxx.html" target="_top" xlink:title="src/engine/WindowManager.cxx">
<polygon fill="none" stroke="#000000" points="561.5,-62 561.5,-81 731.5,-81 731.5,-62 561.5,-62"/>
<text text-anchor="middle" x="646.5" y="-69" font-family="Helvetica,sans-Serif" font-size="10.00" fill="#000000">src/engine/WindowManager.cxx</text>
</a>
</g>
</g>
<!-- Node30&#45;&gt;Node34 -->
<g id="edge5" class="edge">
<title>Node30&#45;&gt;Node34</title>
<path fill="none" stroke="#191970" d="M522.8034,-119.6477C552.7218,-108.0023 595.3872,-91.3952 621.9859,-81.0419"/>
<polygon fill="#191970" stroke="#191970" points="521.2369,-116.5016 513.1875,-123.3906 523.776,-123.0249 521.2369,-116.5016"/>
</g>
<!-- Node35 -->
<g id="node7" class="node">
<title>Node35</title>
<g id="a_node7"><a xlink:href="Game_8hxx.html" target="_top" xlink:title="src/Game.hxx">
<polygon fill="none" stroke="#000000" points="331.5,-62 331.5,-81 415.5,-81 415.5,-62 331.5,-62"/>
<text text-anchor="middle" x="373.5" y="-69" font-family="Helvetica,sans-Serif" font-size="10.00" fill="#000000">src/Game.hxx</text>
</a>
</g>
</g>
<!-- Node30&#45;&gt;Node35 -->
<g id="edge6" class="edge">
<title>Node30&#45;&gt;Node35</title>
<path fill="none" stroke="#191970" d="M461.5189,-118.571C439.8769,-106.9972 410.1131,-91.0801 391.3426,-81.0419"/>
<polygon fill="#191970" stroke="#191970" points="460.0625,-121.7611 470.5313,-123.3906 463.3636,-115.5884 460.0625,-121.7611"/>
</g>
<!-- Node38 -->
<g id="node10" class="node">
<title>Node38</title>
<g id="a_node10"><a xlink:href="Window_8cxx.html" target="_top" xlink:title="src/view/Window.cxx">
<polygon fill="none" stroke="#000000" points="750,-62 750,-81 869,-81 869,-62 750,-62"/>
<text text-anchor="middle" x="809.5" y="-69" font-family="Helvetica,sans-Serif" font-size="10.00" fill="#000000">src/view/Window.cxx</text>
</a>
</g>
</g>
<!-- Node30&#45;&gt;Node38 -->
<g id="edge9" class="edge">
<title>Node30&#45;&gt;Node38</title>
<path fill="none" stroke="#191970" d="M554.5659,-121.6926C605.4807,-112.7966 677.5818,-99.804 740.5,-87 749.5233,-85.1637 759.1819,-83.073 768.3289,-81.0346"/>
<polygon fill="#191970" stroke="#191970" points="553.9253,-118.2514 544.6744,-123.416 555.1268,-125.1476 553.9253,-118.2514"/>
</g>
<!-- Node36 -->
<g id="node8" class="node">
<title>Node36</title>
<g id="a_node8"><a xlink:href="Game_8cxx.html" target="_top" xlink:title="src/Game.cxx">
<polygon fill="none" stroke="#000000" points="1559,-.5 1559,-19.5 1642,-19.5 1642,-.5 1559,-.5"/>
<text text-anchor="middle" x="1600.5" y="-7.5" font-family="Helvetica,sans-Serif" font-size="10.00" fill="#000000">src/Game.cxx</text>
</a>
</g>
</g>
<!-- Node35&#45;&gt;Node36 -->
<g id="edge7" class="edge">
<title>Node35&#45;&gt;Node36</title>
<path fill="none" stroke="#191970" d="M409.9329,-59.2016C414.7859,-57.9256 419.7321,-56.8041 424.5,-56 649.3995,-18.0718 1376.3985,-11.3124 1558.7272,-10.2037"/>
<polygon fill="#191970" stroke="#191970" points="408.843,-55.8728 400.1891,-61.9851 410.7659,-62.6035 408.843,-55.8728"/>
</g>
<!-- Node37 -->
<g id="node9" class="node">
<title>Node37</title>
<g id="a_node9"><a xlink:href="main_8cxx.html" target="_top" xlink:title="src/main.cxx">
<polygon fill="none" stroke="#000000" points="334,-.5 334,-19.5 413,-19.5 413,-.5 334,-.5"/>
<text text-anchor="middle" x="373.5" y="-7.5" font-family="Helvetica,sans-Serif" font-size="10.00" fill="#000000">src/main.cxx</text>
</a>
</g>
</g>
<!-- Node35&#45;&gt;Node37 -->
<g id="edge8" class="edge">
<title>Node35&#45;&gt;Node37</title>
<path fill="none" stroke="#191970" d="M373.5,-51.7462C373.5,-41.0519 373.5,-28.314 373.5,-19.7449"/>
<polygon fill="#191970" stroke="#191970" points="370.0001,-51.8906 373.5,-61.8906 377.0001,-51.8907 370.0001,-51.8906"/>
</g>
<!-- Node39&#45;&gt;Node33 -->
<g id="edge13" class="edge">
<title>Node39&#45;&gt;Node33</title>
<path fill="none" stroke="#191970" d="M2015.9842,-132.8218C1750.3122,-131.8626 840.5115,-125.7576 552.5,-87 542.5294,-85.6583 531.8511,-83.4074 522.1298,-81.031"/>
<polygon fill="#191970" stroke="#191970" points="2016.2721,-136.3227 2026.2842,-132.8575 2016.2964,-129.3227 2016.2721,-136.3227"/>
</g>
<!-- Node39&#45;&gt;Node34 -->
<g id="edge18" class="edge">
<title>Node39&#45;&gt;Node34</title>
<path fill="none" stroke="#191970" d="M2016.1915,-131.7517C1772.5619,-127.4064 991.2278,-111.8413 740.5,-87 726.3451,-85.5976 711.0922,-83.3882 697.0765,-81.0722"/>
<polygon fill="#191970" stroke="#191970" points="2016.2932,-135.2539 2026.3537,-131.9319 2016.4174,-128.255 2016.2932,-135.2539"/>
</g>
<!-- Node39&#45;&gt;Node36 -->
<g id="edge19" class="edge">
<title>Node39&#45;&gt;Node36</title>
<path fill="none" stroke="#191970" d="M2163.1553,-123.3352C2164.2777,-123.2203 2165.3932,-123.1085 2166.5,-123 2287.5023,-111.1435 2793.671,-143.7347 2709.5,-56 2671.8753,-16.7823 1839.1294,-10.9619 1642.0447,-10.1328"/>
<polygon fill="#191970" stroke="#191970" points="2162.4786,-119.8879 2152.913,-124.4432 2163.2315,-126.8473 2162.4786,-119.8879"/>
</g>
<!-- Node39&#45;&gt;Node38 -->
<g id="edge30" class="edge">
<title>Node39&#45;&gt;Node38</title>
<path fill="none" stroke="#191970" d="M2016.0315,-131.972C1788.9447,-128.5164 1100.2854,-115.8757 878.5,-87 867.9078,-85.6209 856.5459,-83.389 846.1608,-81.0433"/>
<polygon fill="#191970" stroke="#191970" points="2016.1199,-135.4737 2026.1715,-132.1249 2016.2255,-128.4745 2016.1199,-135.4737"/>
</g>
<!-- Node40 -->
<g id="node12" class="node">
<title>Node40</title>
<g id="a_node12"><a xlink:href="Settings_8cxx.html" target="_top" xlink:title="src/engine/basics/Settings.cxx">
<polygon fill="none" stroke="#000000" points="2756.5,-62 2756.5,-81 2920.5,-81 2920.5,-62 2756.5,-62"/>
<text text-anchor="middle" x="2838.5" y="-69" font-family="Helvetica,sans-Serif" font-size="10.00" fill="#000000">src/engine/basics/Settings.cxx</text>
</a>
</g>
</g>
<!-- Node39&#45;&gt;Node40 -->
<g id="edge11" class="edge">
<title>Node39&#45;&gt;Node40</title>
<path fill="none" stroke="#191970" d="M2163.1548,-123.3293C2164.2773,-123.2163 2165.393,-123.1064 2166.5,-123 2421.8238,-98.4692 2487.5861,-115.4762 2742.5,-87 2756.4259,-85.4444 2771.413,-83.2681 2785.3093,-81.0372"/>
<polygon fill="#191970" stroke="#191970" points="2162.4826,-119.8812 2152.9112,-124.4241 2163.2265,-126.8415 2162.4826,-119.8812"/>
</g>
<!-- Node41 -->
<g id="node13" class="node">
<title>Node41</title>
<g id="a_node13"><a xlink:href="TerrainGenerator_8cxx.html" target="_top" xlink:title="src/engine/map/TerrainGenerator.cxx">
<polygon fill="none" stroke="#000000" points="2938.5,-62 2938.5,-81 3134.5,-81 3134.5,-62 2938.5,-62"/>
<text text-anchor="middle" x="3036.5" y="-69" font-family="Helvetica,sans-Serif" font-size="10.00" fill="#000000">src/engine/map/TerrainGenerator.cxx</text>
</a>
</g>
</g>
<!-- Node39&#45;&gt;Node41 -->
<g id="edge12" class="edge">
<title>Node39&#45;&gt;Node41</title>
<path fill="none" stroke="#191970" d="M2163.1526,-123.3056C2164.2758,-123.1999 2165.3922,-123.0979 2166.5,-123 2504.6703,-93.1138 2591.5587,-119.3729 2929.5,-87 2945.2886,-85.4875 2962.3121,-83.2848 2978.035,-81.0122"/>
<polygon fill="#191970" stroke="#191970" points="2162.4989,-119.8539 2152.9041,-124.3471 2163.2067,-126.818 2162.4989,-119.8539"/>
</g>
<!-- Node42 -->
<g id="node14" class="node">
<title>Node42</title>
<g id="a_node14"><a xlink:href="ResourcesManager_8cxx.html" target="_top" xlink:title="src/engine/ResourcesManager.cxx">
<polygon fill="none" stroke="#000000" points="3153,-62 3153,-81 3334,-81 3334,-62 3153,-62"/>
<text text-anchor="middle" x="3243.5" y="-69" font-family="Helvetica,sans-Serif" font-size="10.00" fill="#000000">src/engine/ResourcesManager.cxx</text>
</a>
</g>
</g>
<!-- Node39&#45;&gt;Node42 -->
<g id="edge14" class="edge">
<title>Node39&#45;&gt;Node42</title>
<path fill="none" stroke="#191970" d="M2163.1512,-123.2895C2164.2749,-123.1888 2165.3917,-123.0922 2166.5,-123 2599.5215,-86.9812 2710.9549,-128.3484 3143.5,-87 3158.5403,-85.5623 3174.7608,-83.3413 3189.6712,-81.0255"/>
<polygon fill="#191970" stroke="#191970" points="2162.5101,-119.8355 2152.8996,-124.2951 2163.1935,-126.8021 2162.5101,-119.8355"/>
</g>
<!-- Node43 -->
<g id="node15" class="node">
<title>Node43</title>
<g id="a_node15"><a xlink:href="TileManager_8cxx.html" target="_top" xlink:title="src/engine/TileManager.cxx">
<polygon fill="none" stroke="#000000" points="3352,-62 3352,-81 3501,-81 3501,-62 3352,-62"/>
<text text-anchor="middle" x="3426.5" y="-69" font-family="Helvetica,sans-Serif" font-size="10.00" fill="#000000">src/engine/TileManager.cxx</text>
</a>
</g>
</g>
<!-- Node39&#45;&gt;Node43 -->
<g id="edge15" class="edge">
<title>Node39&#45;&gt;Node43</title>
<path fill="none" stroke="#191970" d="M2163.1504,-123.2798C2164.2743,-123.1821 2165.3914,-123.0887 2166.5,-123 2688.1877,-81.2482 2823.1709,-143.2037 3343.5,-87 3356.1794,-85.6304 3369.8268,-83.4016 3382.3198,-81.0557"/>
<polygon fill="#191970" stroke="#191970" points="2162.517,-119.8244 2152.897,-124.2635 2163.1856,-126.7924 2162.517,-119.8244"/>
</g>
<!-- Node44 -->
<g id="node16" class="node">
<title>Node44</title>
<g id="a_node16"><a xlink:href="Text_8cxx.html" target="_top" xlink:title="src/engine/ui/widgets\l/Text.cxx">
<polygon fill="none" stroke="#000000" points="887.5,-56.5 887.5,-86.5 1007.5,-86.5 1007.5,-56.5 887.5,-56.5"/>
<text text-anchor="start" x="895.5" y="-74.5" font-family="Helvetica,sans-Serif" font-size="10.00" fill="#000000">src/engine/ui/widgets</text>
<text text-anchor="middle" x="947.5" y="-63.5" font-family="Helvetica,sans-Serif" font-size="10.00" fill="#000000">/Text.cxx</text>
</a>
</g>
</g>
<!-- Node39&#45;&gt;Node44 -->
<g id="edge16" class="edge">
<title>Node39&#45;&gt;Node44</title>
<path fill="none" stroke="#191970" d="M2015.9486,-131.5541C1806.6303,-127.1678 1210.3096,-112.7141 1016.5,-87 1013.579,-86.6124 1010.5992,-86.1613 1007.5973,-85.662"/>
<polygon fill="#191970" stroke="#191970" points="2016.1442,-135.0588 2026.2149,-131.7676 2016.2899,-128.0603 2016.1442,-135.0588"/>
</g>
<!-- Node45 -->
<g id="node17" class="node">
<title>Node45</title>
<g id="a_node17"><a xlink:href="UIManager_8cxx.html" target="_top" xlink:title="src/engine/UIManager.cxx">
<polygon fill="none" stroke="#000000" points="1025.5,-62 1025.5,-81 1167.5,-81 1167.5,-62 1025.5,-62"/>
<text text-anchor="middle" x="1096.5" y="-69" font-family="Helvetica,sans-Serif" font-size="10.00" fill="#000000">src/engine/UIManager.cxx</text>
</a>
</g>
</g>
<!-- Node39&#45;&gt;Node45 -->
<g id="edge17" class="edge">
<title>Node39&#45;&gt;Node45</title>
<path fill="none" stroke="#191970" d="M2016.1386,-130.6416C1829.2274,-124.4179 1338.4718,-106.6717 1176.5,-87 1164.5626,-85.5502 1151.7328,-83.3543 1139.9193,-81.0677"/>
<polygon fill="#191970" stroke="#191970" points="2016.2989,-134.1488 2026.4094,-130.9822 2016.531,-127.1526 2016.2989,-134.1488"/>
</g>
<!-- Node46 -->
<g id="node18" class="node">
<title>Node46</title>
<g id="a_node18"><a xlink:href="SDLRenderer_8cxx.html" target="_top" xlink:title="src/renderer/SDLRenderer.cxx">
<polygon fill="none" stroke="#000000" points="1185.5,-62 1185.5,-81 1345.5,-81 1345.5,-62 1185.5,-62"/>
<text text-anchor="middle" x="1265.5" y="-69" font-family="Helvetica,sans-Serif" font-size="10.00" fill="#000000">src/renderer/SDLRenderer.cxx</text>
</a>
</g>
</g>
<!-- Node39&#45;&gt;Node46 -->
<g id="edge20" class="edge">
<title>Node39&#45;&gt;Node46</title>
<path fill="none" stroke="#191970" d="M2016.3371,-131.084C1883.9107,-127.0242 1595.8103,-115.4768 1354.5,-87 1341.572,-85.4744 1327.6715,-83.3087 1314.7881,-81.0784"/>
<polygon fill="#191970" stroke="#191970" points="2016.2656,-134.5834 2026.3666,-131.3862 2016.4765,-127.5865 2016.2656,-134.5834"/>
</g>
<!-- Node47 -->
<g id="node19" class="node">
<title>Node47</title>
<g id="a_node19"><a xlink:href="ScriptEngine_8cxx.html" target="_top" xlink:title="src/Scripting/ScriptEngine.cxx">
<polygon fill="none" stroke="#000000" points="1364,-62 1364,-81 1525,-81 1525,-62 1364,-62"/>
<text text-anchor="middle" x="1444.5" y="-69" font-family="Helvetica,sans-Serif" font-size="10.00" fill="#000000">src/Scripting/ScriptEngine.cxx</text>
</a>
</g>
</g>
<!-- Node39&#45;&gt;Node47 -->
<g id="edge21" class="edge">
<title>Node39&#45;&gt;Node47</title>
<path fill="none" stroke="#191970" d="M2016.1679,-128.98C1909.7545,-122.6801 1706.4484,-108.8895 1534.5,-87 1521.7602,-85.3782 1508.0722,-83.2309 1495.3114,-81.0531"/>
<polygon fill="#191970" stroke="#191970" points="2016.2836,-132.4927 2026.4715,-129.5844 2016.6936,-125.5047 2016.2836,-132.4927"/>
</g>
<!-- Node48 -->
<g id="node20" class="node">
<title>Node48</title>
<g id="a_node20"><a xlink:href="AudioMixer_8cxx.html" target="_top" xlink:title="src/services/AudioMixer.cxx">
<polygon fill="none" stroke="#000000" points="1543.5,-62 1543.5,-81 1695.5,-81 1695.5,-62 1543.5,-62"/>
<text text-anchor="middle" x="1619.5" y="-69" font-family="Helvetica,sans-Serif" font-size="10.00" fill="#000000">src/services/AudioMixer.cxx</text>
</a>
</g>
</g>
<!-- Node39&#45;&gt;Node48 -->
<g id="edge22" class="edge">
<title>Node39&#45;&gt;Node48</title>
<path fill="none" stroke="#191970" d="M2016.1661,-125.5934C1938.5704,-117.4397 1812.6362,-103.3038 1704.5,-87 1692.9305,-85.2557 1680.5203,-83.1353 1668.8556,-81.0301"/>
<polygon fill="#191970" stroke="#191970" points="2016.0097,-129.096 2026.3195,-126.6551 2016.7378,-122.134 2016.0097,-129.096"/>
</g>
<!-- Node49 -->
<g id="node21" class="node">
<title>Node49</title>
<g id="a_node21"><a xlink:href="ResourceManager_8cxx.html" target="_top" xlink:title="src/services/ResourceManager.cxx">
<polygon fill="none" stroke="#000000" points="1714,-62 1714,-81 1897,-81 1897,-62 1714,-62"/>
<text text-anchor="middle" x="1805.5" y="-69" font-family="Helvetica,sans-Serif" font-size="10.00" fill="#000000">src/services/ResourceManager.cxx</text>
</a>
</g>
</g>
<!-- Node39&#45;&gt;Node49 -->
<g id="edge23" class="edge">
<title>Node39&#45;&gt;Node49</title>
<path fill="none" stroke="#191970" d="M2035.3795,-121.2802C1981.4877,-109.61 1899.7682,-91.9137 1849.6668,-81.0643"/>
<polygon fill="#191970" stroke="#191970" points="2034.9224,-124.7623 2045.4366,-123.4581 2036.4039,-117.9209 2034.9224,-124.7623"/>
</g>
<!-- Node50 -->
<g id="node22" class="node">
<title>Node50</title>
<g id="a_node22"><a xlink:href="android_2Filesystem_8cxx.html" target="_top" xlink:title="src/util/android/Filesystem.cxx">
<polygon fill="none" stroke="#000000" points="1915,-62 1915,-81 2080,-81 2080,-62 1915,-62"/>
<text text-anchor="middle" x="1997.5" y="-69" font-family="Helvetica,sans-Serif" font-size="10.00" fill="#000000">src/util/android/Filesystem.cxx</text>
</a>
</g>
</g>
<!-- Node39&#45;&gt;Node50 -->
<g id="edge24" class="edge">
<title>Node39&#45;&gt;Node50</title>
<path fill="none" stroke="#191970" d="M2066.7409,-117.786C2049.5382,-106.2864 2026.4538,-90.855 2011.7741,-81.0419"/>
<polygon fill="#191970" stroke="#191970" points="2064.8663,-120.7429 2075.125,-123.3906 2068.7566,-114.9234 2064.8663,-120.7429"/>
</g>
<!-- Node51 -->
<g id="node23" class="node">
<title>Node51</title>
<g id="a_node23"><a xlink:href="desktop_2Filesystem_8cxx.html" target="_top" xlink:title="src/util/desktop/Filesystem.cxx">
<polygon fill="none" stroke="#000000" points="2098,-62 2098,-81 2265,-81 2265,-62 2098,-62"/>
<text text-anchor="middle" x="2181.5" y="-69" font-family="Helvetica,sans-Serif" font-size="10.00" fill="#000000">src/util/desktop/Filesystem.cxx</text>
</a>
</g>
</g>
<!-- Node39&#45;&gt;Node51 -->
<g id="edge25" class="edge">
<title>Node39&#45;&gt;Node51</title>
<path fill="none" stroke="#191970" d="M2112.2591,-117.786C2129.4618,-106.2864 2152.5462,-90.855 2167.2259,-81.0419"/>
<polygon fill="#191970" stroke="#191970" points="2110.2434,-114.9234 2103.875,-123.3906 2114.1337,-120.7429 2110.2434,-114.9234"/>
</g>
<!-- Node52 -->
<g id="node24" class="node">
<title>Node52</title>
<g id="a_node24"><a xlink:href="Filesystem_8cxx.html" target="_top" xlink:title="src/util/Filesystem.cxx">
<polygon fill="none" stroke="#000000" points="2283,-62 2283,-81 2408,-81 2408,-62 2283,-62"/>
<text text-anchor="middle" x="2345.5" y="-69" font-family="Helvetica,sans-Serif" font-size="10.00" fill="#000000">src/util/Filesystem.cxx</text>
</a>
</g>
</g>
<!-- Node39&#45;&gt;Node52 -->
<g id="edge26" class="edge">
<title>Node39&#45;&gt;Node52</title>
<path fill="none" stroke="#191970" d="M2139.1966,-121.0612C2187.781,-109.3895 2260.8075,-91.846 2305.6877,-81.0643"/>
<polygon fill="#191970" stroke="#191970" points="2138.1249,-117.719 2129.2191,-123.4581 2139.7601,-124.5253 2138.1249,-117.719"/>
</g>
<!-- Node53 -->
<g id="node25" class="node">
<title>Node53</title>
<g id="a_node25"><a xlink:href="LOG_8cxx.html" target="_top" xlink:title="src/util/LOG.cxx">
<polygon fill="none" stroke="#000000" points="2426,-62 2426,-81 2519,-81 2519,-62 2426,-62"/>
<text text-anchor="middle" x="2472.5" y="-69" font-family="Helvetica,sans-Serif" font-size="10.00" fill="#000000">src/util/LOG.cxx</text>
</a>
</g>
</g>
<!-- Node39&#45;&gt;Node53 -->
<g id="edge27" class="edge">
<title>Node39&#45;&gt;Node53</title>
<path fill="none" stroke="#191970" d="M2162.7806,-123.2576C2251.7969,-111.3396 2393.1503,-92.114 2417.5,-87 2425.3641,-85.3484 2433.7579,-83.1901 2441.5589,-81.0113"/>
<polygon fill="#191970" stroke="#191970" points="2162.1792,-119.8068 2152.7316,-124.6018 2163.1073,-126.745 2162.1792,-119.8068"/>
</g>
<!-- Node54 -->
<g id="node26" class="node">
<title>Node54</title>
<g id="a_node26"><a xlink:href="macOS_2Filesystem_8cxx.html" target="_top" xlink:title="src/util/macOS/Filesystem.cxx">
<polygon fill="none" stroke="#000000" points="2537,-62 2537,-81 2700,-81 2700,-62 2537,-62"/>
<text text-anchor="middle" x="2618.5" y="-69" font-family="Helvetica,sans-Serif" font-size="10.00" fill="#000000">src/util/macOS/Filesystem.cxx</text>
</a>
</g>
</g>
<!-- Node39&#45;&gt;Node54 -->
<g id="edge28" class="edge">
<title>Node39&#45;&gt;Node54</title>
<path fill="none" stroke="#191970" d="M2162.6254,-123.4489C2163.9269,-123.2966 2165.2193,-123.1468 2166.5,-123 2327.1306,-104.5865 2368.285,-108.7345 2528.5,-87 2540.9118,-85.3162 2554.2339,-83.1956 2566.7225,-81.0681"/>
<polygon fill="#191970" stroke="#191970" points="2162.0261,-119.9956 2152.5133,-124.6599 2162.8585,-126.946 2162.0261,-119.9956"/>
</g>
<!-- Node39&#45;&gt;Node55 -->
<g id="edge29" class="edge">
<title>Node39&#45;&gt;Node55</title>
<path fill="none" stroke="#191970" d="M2163.1499,-123.2739C2164.274,-123.178 2165.3913,-123.0866 2166.5,-123 2762.2325,-76.4604 2916.83,-154.9633 3510.5,-87 3522.2732,-85.6522 3534.9328,-83.3995 3546.4783,-81.0232"/>
<polygon fill="#191970" stroke="#191970" points="2162.5212,-119.8176 2152.8955,-124.2444 2163.1808,-126.7865 2162.5212,-119.8176"/>
</g>
</g>
</svg>
