<?xml version="1.0" encoding="UTF-8" standalone="no"?>
<!DOCTYPE svg PUBLIC "-//W3C//DTD SVG 1.1//EN"
 "http://www.w3.org/Graphics/SVG/1.1/DTD/svg11.dtd">
<!-- Generated by graphviz version 2.40.1 (20161225.0304)
 -->
<!-- Title: src/util/PixelBuffer.cxx Pages: 1 -->
<!--zoomable 364 -->
<svg id="main" version="1.1" xmlns="http://www.w3.org/2000/svg" xmlns:xlink="http://www.w3.org/1999/xlink" xml:space="preserve" onload="init(evt)">
<style type="text/css"><![CDATA[
.edge:hover path { stroke: red; }
.edge:hover polygon { stroke: red; fill: red; }
]]></style>
<script type="text/javascript"><![CDATA[
var edges = document.getElementsByTagName('g');
if (edges && edges.length) {
  for (var i=0;i<edges.length;i++) {
    if (edges[i].id.substr(0,4)=='edge') {
      edges[i].setAttribute('class','edge');
    }
  }
}
]]></script>
        <defs>
                <circle id="rim" cx="0" cy="0" r="7"/>
                <circle id="rim2" cx="0" cy="0" r="3.5"/>
                <g id="zoomPlus">
                        <use xlink:href="#rim" fill="#404040">
                                <set attributeName="fill" to="#808080" begin="zoomplus.mouseover" end="zoomplus.mouseout"/>
                        </use>
                        <path d="M-4,0h8M0,-4v8" fill="none" stroke="white" stroke-width="1.5" pointer-events="none"/>
                </g>
                <g id="zoomMin">
                        <use xlink:href="#rim" fill="#404040">
                                <set attributeName="fill" to="#808080" begin="zoomminus.mouseover" end="zoomminus.mouseout"/>
                        </use>
                        <path d="M-4,0h8" fill="none" stroke="white" stroke-width="1.5" pointer-events="none"/>
                </g>
                <g id="dirArrow">
                        <path fill="none" stroke="white" stroke-width="1.5" d="M0,-3.0v7 M-2.5,-0.5L0,-3.0L2.5,-0.5"/>
                </g>
               <g id="resetDef">
                       <use xlink:href="#rim2" fill="#404040">
                               <set attributeName="fill" to="#808080" begin="reset.mouseover" end="reset.mouseout"/>
                       </use>
               </g>
        </defs>

<script type="text/javascript">
var viewWidth = 1198;
var viewHeight = 364;
var sectionId = 'dynsection-0';
</script>
<script xlink:href="svgpan.js"/>
<svg id="graph" class="graph">
<g id="viewport">
<title>src/util/PixelBuffer.cxx</title>
<!-- Node0 -->
<g id="node1" class="node">
<title>Node0</title>
<polygon fill="#bfbfbf" stroke="#000000" points="700.5,-336.5 700.5,-355.5 825.5,-355.5 825.5,-336.5 700.5,-336.5"/>
<text text-anchor="middle" x="763" y="-343.5" font-family="Helvetica,sans-Serif" font-size="10.00" fill="#000000">src/util/PixelBuffer.cxx</text>
</g>
<!-- Node1 -->
<g id="node2" class="node">
<title>Node1</title>
<g id="a_node2"><a xlink:href="PixelBuffer_8hxx.html" target="_top" xlink:title="PixelBuffer.hxx">
<polygon fill="none" stroke="#000000" points="718,-280.5 718,-299.5 808,-299.5 808,-280.5 718,-280.5"/>
<text text-anchor="middle" x="763" y="-287.5" font-family="Helvetica,sans-Serif" font-size="10.00" fill="#000000">PixelBuffer.hxx</text>
</a>
</g>
</g>
<!-- Node0&#45;&gt;Node1 -->
<g id="edge1" class="edge">
<title>Node0&#45;&gt;Node1</title>
<path fill="none" stroke="#191970" d="M763,-336.2455C763,-328.9382 763,-318.6944 763,-309.7046"/>
<polygon fill="#191970" stroke="#191970" points="766.5001,-309.6426 763,-299.6427 759.5001,-309.6427 766.5001,-309.6426"/>
</g>
<!-- Node2 -->
<g id="node3" class="node">
<title>Node2</title>
<polygon fill="none" stroke="#bfbfbf" points="303.5,-224.5 303.5,-243.5 350.5,-243.5 350.5,-224.5 303.5,-224.5"/>
<text text-anchor="middle" x="327" y="-231.5" font-family="Helvetica,sans-Serif" font-size="10.00" fill="#000000">vector</text>
</g>
<!-- Node1&#45;&gt;Node2 -->
<g id="edge2" class="edge">
<title>Node1&#45;&gt;Node2</title>
<path fill="none" stroke="#191970" d="M717.8542,-287.5132C644.7166,-282.9058 495.7683,-271.1221 360.7686,-243.8086"/>
<polygon fill="#191970" stroke="#191970" points="361.1613,-240.3162 350.6611,-241.7288 359.7504,-247.1725 361.1613,-240.3162"/>
</g>
<!-- Node3 -->
<g id="node4" class="node">
<title>Node3</title>
<g id="a_node4"><a xlink:href="Rectangle_8hxx.html" target="_top" xlink:title="../util/Rectangle.hxx">
<polygon fill="none" stroke="#000000" points="706.5,-224.5 706.5,-243.5 819.5,-243.5 819.5,-224.5 706.5,-224.5"/>
<text text-anchor="middle" x="763" y="-231.5" font-family="Helvetica,sans-Serif" font-size="10.00" fill="#000000">../util/Rectangle.hxx</text>
</a>
</g>
</g>
<!-- Node1&#45;&gt;Node3 -->
<g id="edge3" class="edge">
<title>Node1&#45;&gt;Node3</title>
<path fill="none" stroke="#191970" d="M763,-280.2455C763,-272.9382 763,-262.6944 763,-253.7046"/>
<polygon fill="#191970" stroke="#191970" points="766.5001,-253.6426 763,-243.6427 759.5001,-253.6427 766.5001,-253.6426"/>
</g>
<!-- Node24 -->
<g id="node25" class="node">
<title>Node24</title>
<g id="a_node25"><a xlink:href="Range_8hxx.html" target="_top" xlink:title="../util/Range.hxx">
<polygon fill="none" stroke="#000000" points="959,-224.5 959,-243.5 1055,-243.5 1055,-224.5 959,-224.5"/>
<text text-anchor="middle" x="1007" y="-231.5" font-family="Helvetica,sans-Serif" font-size="10.00" fill="#000000">../util/Range.hxx</text>
</a>
</g>
</g>
<!-- Node1&#45;&gt;Node24 -->
<g id="edge28" class="edge">
<title>Node1&#45;&gt;Node24</title>
<path fill="none" stroke="#191970" d="M804.6679,-280.4369C846.4266,-270.8529 910.7891,-256.0812 955.6728,-245.78"/>
<polygon fill="#191970" stroke="#191970" points="956.5404,-249.172 965.504,-243.5237 954.9745,-242.3494 956.5404,-249.172"/>
</g>
<!-- Node27 -->
<g id="node28" class="node">
<title>Node27</title>
<g id="a_node28"><a xlink:href="Color_8hxx.html" target="_top" xlink:title="../util/Color.hxx">
<polygon fill="none" stroke="#000000" points="369,-224.5 369,-243.5 459,-243.5 459,-224.5 369,-224.5"/>
<text text-anchor="middle" x="414" y="-231.5" font-family="Helvetica,sans-Serif" font-size="10.00" fill="#000000">../util/Color.hxx</text>
</a>
</g>
</g>
<!-- Node1&#45;&gt;Node27 -->
<g id="edge32" class="edge">
<title>Node1&#45;&gt;Node27</title>
<path fill="none" stroke="#191970" d="M717.7321,-282.7364C654.0512,-272.5182 538.1307,-253.9178 469.3879,-242.8875"/>
<polygon fill="#191970" stroke="#191970" points="469.6159,-239.3793 459.1877,-241.2507 468.5068,-246.2909 469.6159,-239.3793"/>
</g>
<!-- Node29 -->
<g id="node30" class="node">
<title>Node29</title>
<g id="a_node30"><a xlink:href="PixelBuffer_8inl_8hxx.html" target="_top" xlink:title="PixelBuffer.inl.hxx">
<polygon fill="none" stroke="#000000" points="1073.5,-224.5 1073.5,-243.5 1178.5,-243.5 1178.5,-224.5 1073.5,-224.5"/>
<text text-anchor="middle" x="1126" y="-231.5" font-family="Helvetica,sans-Serif" font-size="10.00" fill="#000000">PixelBuffer.inl.hxx</text>
</a>
</g>
</g>
<!-- Node1&#45;&gt;Node29 -->
<g id="edge35" class="edge">
<title>Node1&#45;&gt;Node29</title>
<path fill="none" stroke="#191970" d="M808.1481,-283.2192C865.083,-274.6417 966.2599,-259.3118 1063.2621,-244.1061"/>
<polygon fill="#191970" stroke="#191970" points="1063.9032,-247.5484 1073.2395,-242.5402 1062.8178,-240.6331 1063.9032,-247.5484"/>
</g>
<!-- Node4 -->
<g id="node5" class="node">
<title>Node4</title>
<polygon fill="none" stroke="#bfbfbf" points="1004.5,-.5 1004.5,-19.5 1045.5,-19.5 1045.5,-.5 1004.5,-.5"/>
<text text-anchor="middle" x="1025" y="-7.5" font-family="Helvetica,sans-Serif" font-size="10.00" fill="#000000">tuple</text>
</g>
<!-- Node3&#45;&gt;Node4 -->
<g id="edge4" class="edge">
<title>Node3&#45;&gt;Node4</title>
<path fill="none" stroke="#191970" d="M796.8817,-224.4647C821.1525,-216.7549 854.0056,-204.4734 880,-188 941.3479,-149.1221 958.2615,-136.1285 999,-76 1008.7022,-61.6799 1015.5846,-43.2064 1019.8208,-29.4474"/>
<polygon fill="#191970" stroke="#191970" points="1023.2545,-30.171 1022.6542,-19.5932 1016.5271,-28.2366 1023.2545,-30.171"/>
</g>
<!-- Node5 -->
<g id="node6" class="node">
<title>Node5</title>
<polygon fill="none" stroke="#bfbfbf" points="105,-.5 105,-19.5 165,-19.5 165,-.5 105,-.5"/>
<text text-anchor="middle" x="135" y="-7.5" font-family="Helvetica,sans-Serif" font-size="10.00" fill="#000000">iostream</text>
</g>
<!-- Node3&#45;&gt;Node5 -->
<g id="edge5" class="edge">
<title>Node3&#45;&gt;Node5</title>
<path fill="none" stroke="#191970" d="M706.4786,-226.8592C570.2833,-208.5268 229.4124,-155.583 151,-76 138.9987,-63.8196 135.4603,-44.2573 134.6477,-29.5865"/>
<polygon fill="#191970" stroke="#191970" points="138.146,-29.4584 134.4626,-19.5245 131.1472,-29.5872 138.146,-29.4584"/>
</g>
<!-- Node6 -->
<g id="node7" class="node">
<title>Node6</title>
<g id="a_node7"><a xlink:href="iShape_8hxx.html" target="_top" xlink:title="../util/iShape.hxx">
<polygon fill="none" stroke="#000000" points="773,-168.5 773,-187.5 871,-187.5 871,-168.5 773,-168.5"/>
<text text-anchor="middle" x="822" y="-175.5" font-family="Helvetica,sans-Serif" font-size="10.00" fill="#000000">../util/iShape.hxx</text>
</a>
</g>
</g>
<!-- Node3&#45;&gt;Node6 -->
<g id="edge6" class="edge">
<title>Node3&#45;&gt;Node6</title>
<path fill="none" stroke="#191970" d="M773.277,-224.2455C781.8218,-216.1352 794.1778,-204.4075 804.3085,-194.7919"/>
<polygon fill="#191970" stroke="#191970" points="806.9972,-197.0655 811.8408,-187.6427 802.1782,-191.9884 806.9972,-197.0655"/>
</g>
<!-- Node7 -->
<g id="node8" class="node">
<title>Node7</title>
<g id="a_node8"><a xlink:href="Rectangle_8inl_8hxx.html" target="_top" xlink:title="Rectangle.inl.hxx">
<polygon fill="none" stroke="#000000" points="653.5,-168.5 653.5,-187.5 754.5,-187.5 754.5,-168.5 653.5,-168.5"/>
<text text-anchor="middle" x="704" y="-175.5" font-family="Helvetica,sans-Serif" font-size="10.00" fill="#000000">Rectangle.inl.hxx</text>
</a>
</g>
</g>
<!-- Node3&#45;&gt;Node7 -->
<g id="edge7" class="edge">
<title>Node3&#45;&gt;Node7</title>
<path fill="none" stroke="#191970" d="M752.723,-224.2455C744.1782,-216.1352 731.8222,-204.4075 721.6915,-194.7919"/>
<polygon fill="#191970" stroke="#191970" points="723.8218,-191.9884 714.1592,-187.6427 719.0028,-197.0655 723.8218,-191.9884"/>
</g>
<!-- Node8 -->
<g id="node9" class="node">
<title>Node8</title>
<polygon fill="none" stroke="#bfbfbf" points="846,-56.5 846,-75.5 910,-75.5 910,-56.5 846,-56.5"/>
<text text-anchor="middle" x="878" y="-63.5" font-family="Helvetica,sans-Serif" font-size="10.00" fill="#000000">algorithm</text>
</g>
<!-- Node7&#45;&gt;Node8 -->
<g id="edge8" class="edge">
<title>Node7&#45;&gt;Node8</title>
<path fill="none" stroke="#191970" d="M718.8351,-168.4509C749.1404,-148.9441 818.3534,-104.3932 854.7106,-80.9909"/>
<polygon fill="#191970" stroke="#191970" points="856.6881,-83.8804 863.2024,-75.5249 852.8994,-77.9944 856.6881,-83.8804"/>
</g>
<!-- Node9 -->
<g id="node10" class="node">
<title>Node9</title>
<g id="a_node10"><a xlink:href="LOG_8hxx.html" target="_top" xlink:title="LOG.hxx">
<polygon fill="none" stroke="#000000" points="557,-112.5 557,-131.5 615,-131.5 615,-112.5 557,-112.5"/>
<text text-anchor="middle" x="586" y="-119.5" font-family="Helvetica,sans-Serif" font-size="10.00" fill="#000000">LOG.hxx</text>
</a>
</g>
</g>
<!-- Node7&#45;&gt;Node9 -->
<g id="edge9" class="edge">
<title>Node7&#45;&gt;Node9</title>
<path fill="none" stroke="#191970" d="M683.7151,-168.3733C664.8579,-159.4241 636.554,-145.9917 615.2545,-135.8835"/>
<polygon fill="#191970" stroke="#191970" points="616.5551,-132.6266 606.0202,-131.5011 613.5539,-138.9506 616.5551,-132.6266"/>
</g>
<!-- Node9&#45;&gt;Node5 -->
<g id="edge14" class="edge">
<title>Node9&#45;&gt;Node5</title>
<path fill="none" stroke="#191970" d="M556.7425,-120.266C467.8473,-114.7878 205.0285,-96.9684 173,-76 156.4622,-65.1731 146.2806,-44.4832 140.6714,-29.1423"/>
<polygon fill="#191970" stroke="#191970" points="143.965,-27.9544 137.4966,-19.5633 137.3204,-30.1566 143.965,-27.9544"/>
</g>
<!-- Node9&#45;&gt;Node8 -->
<g id="edge20" class="edge">
<title>Node9&#45;&gt;Node8</title>
<path fill="none" stroke="#191970" d="M615.095,-117.2315C660.235,-109.7116 750.0715,-94.2611 835.9078,-76.1439"/>
<polygon fill="#191970" stroke="#191970" points="836.7584,-79.5413 845.8115,-74.0376 835.3021,-72.6945 836.7584,-79.5413"/>
</g>
<!-- Node10 -->
<g id="node11" class="node">
<title>Node10</title>
<polygon fill="none" stroke="#bfbfbf" points="784,-56.5 784,-75.5 828,-75.5 828,-56.5 784,-56.5"/>
<text text-anchor="middle" x="806" y="-63.5" font-family="Helvetica,sans-Serif" font-size="10.00" fill="#000000">string</text>
</g>
<!-- Node9&#45;&gt;Node10 -->
<g id="edge10" class="edge">
<title>Node9&#45;&gt;Node10</title>
<path fill="none" stroke="#191970" d="M615.133,-115.4708C652.2122,-107.0236 718.1591,-91.5402 774,-76 774.0981,-75.9727 774.1964,-75.9453 774.2948,-75.9178"/>
<polygon fill="#191970" stroke="#191970" points="775.0589,-79.3411 783.6736,-73.1737 773.0931,-72.6227 775.0589,-79.3411"/>
</g>
<!-- Node11 -->
<g id="node12" class="node">
<title>Node11</title>
<g id="a_node12"><a xlink:href="Exception_8hxx.html" target="_top" xlink:title="Exception.hxx">
<polygon fill="none" stroke="#000000" points="460,-56.5 460,-75.5 546,-75.5 546,-56.5 460,-56.5"/>
<text text-anchor="middle" x="503" y="-63.5" font-family="Helvetica,sans-Serif" font-size="10.00" fill="#000000">Exception.hxx</text>
</a>
</g>
</g>
<!-- Node9&#45;&gt;Node11 -->
<g id="edge11" class="edge">
<title>Node9&#45;&gt;Node11</title>
<path fill="none" stroke="#191970" d="M571.5425,-112.2455C558.9268,-103.7337 540.4056,-91.2375 525.7955,-81.3801"/>
<polygon fill="#191970" stroke="#191970" points="527.5391,-78.3343 517.2918,-75.6427 523.6239,-84.1371 527.5391,-78.3343"/>
</g>
<!-- Node14 -->
<g id="node15" class="node">
<title>Node14</title>
<polygon fill="none" stroke="#bfbfbf" points="182,-56.5 182,-75.5 232,-75.5 232,-56.5 182,-56.5"/>
<text text-anchor="middle" x="207" y="-63.5" font-family="Helvetica,sans-Serif" font-size="10.00" fill="#000000">chrono</text>
</g>
<!-- Node9&#45;&gt;Node14 -->
<g id="edge15" class="edge">
<title>Node9&#45;&gt;Node14</title>
<path fill="none" stroke="#191970" d="M556.6632,-119.6195C498.3977,-114.5653 363.8954,-101.2713 242.0136,-75.9459"/>
<polygon fill="#191970" stroke="#191970" points="242.6483,-72.5029 232.141,-73.8619 241.2024,-79.3519 242.6483,-72.5029"/>
</g>
<!-- Node15 -->
<g id="node16" class="node">
<title>Node15</title>
<polygon fill="none" stroke="#bfbfbf" points="250,-56.5 250,-75.5 294,-75.5 294,-56.5 250,-56.5"/>
<text text-anchor="middle" x="272" y="-63.5" font-family="Helvetica,sans-Serif" font-size="10.00" fill="#000000">ctime</text>
</g>
<!-- Node9&#45;&gt;Node15 -->
<g id="edge16" class="edge">
<title>Node9&#45;&gt;Node15</title>
<path fill="none" stroke="#191970" d="M556.7865,-118.7279C506.8393,-112.8179 401.7413,-99.0086 304.2515,-76.0181"/>
<polygon fill="#191970" stroke="#191970" points="304.777,-72.5449 294.2365,-73.6168 303.1449,-79.352 304.777,-72.5449"/>
</g>
<!-- Node16 -->
<g id="node17" class="node">
<title>Node16</title>
<polygon fill="none" stroke="#bfbfbf" points="312.5,-56.5 312.5,-75.5 367.5,-75.5 367.5,-56.5 312.5,-56.5"/>
<text text-anchor="middle" x="340" y="-63.5" font-family="Helvetica,sans-Serif" font-size="10.00" fill="#000000">fstream</text>
</g>
<!-- Node9&#45;&gt;Node16 -->
<g id="edge17" class="edge">
<title>Node9&#45;&gt;Node16</title>
<path fill="none" stroke="#191970" d="M556.8221,-116.0332C518.1505,-108.0261 447.5806,-93.0729 377.6968,-76.0866"/>
<polygon fill="#191970" stroke="#191970" points="378.3891,-72.6528 367.8438,-73.6768 376.726,-79.4524 378.3891,-72.6528"/>
</g>
<!-- Node17 -->
<g id="node18" class="node">
<title>Node17</title>
<polygon fill="none" stroke="#bfbfbf" points="386,-56.5 386,-75.5 442,-75.5 442,-56.5 386,-56.5"/>
<text text-anchor="middle" x="414" y="-63.5" font-family="Helvetica,sans-Serif" font-size="10.00" fill="#000000">sstream</text>
</g>
<!-- Node9&#45;&gt;Node17 -->
<g id="edge18" class="edge">
<title>Node9&#45;&gt;Node17</title>
<path fill="none" stroke="#191970" d="M556.8225,-112.5004C527.9367,-103.0957 483.5702,-88.6507 451.9568,-78.358"/>
<polygon fill="#191970" stroke="#191970" points="452.7689,-74.9417 442.1766,-75.1738 450.6018,-81.5978 452.7689,-74.9417"/>
</g>
<!-- Node18 -->
<g id="node19" class="node">
<title>Node18</title>
<polygon fill="none" stroke="#bfbfbf" points="564,-56.5 564,-75.5 608,-75.5 608,-56.5 564,-56.5"/>
<text text-anchor="middle" x="586" y="-63.5" font-family="Helvetica,sans-Serif" font-size="10.00" fill="#000000">SDL.h</text>
</g>
<!-- Node9&#45;&gt;Node18 -->
<g id="edge19" class="edge">
<title>Node9&#45;&gt;Node18</title>
<path fill="none" stroke="#191970" d="M586,-112.2455C586,-104.9382 586,-94.6944 586,-85.7046"/>
<polygon fill="#191970" stroke="#191970" points="589.5001,-85.6426 586,-75.6427 582.5001,-85.6427 589.5001,-85.6426"/>
</g>
<!-- Node19 -->
<g id="node20" class="node">
<title>Node19</title>
<polygon fill="none" stroke="#bfbfbf" points="626,-56.5 626,-75.5 674,-75.5 674,-56.5 626,-56.5"/>
<text text-anchor="middle" x="650" y="-63.5" font-family="Helvetica,sans-Serif" font-size="10.00" fill="#000000">mutex</text>
</g>
<!-- Node9&#45;&gt;Node19 -->
<g id="edge21" class="edge">
<title>Node9&#45;&gt;Node19</title>
<path fill="none" stroke="#191970" d="M597.1479,-112.2455C606.5087,-104.0549 620.0858,-92.1749 631.1349,-82.5069"/>
<polygon fill="#191970" stroke="#191970" points="633.7588,-84.8618 638.9798,-75.6427 629.1492,-79.5937 633.7588,-84.8618"/>
</g>
<!-- Node20 -->
<g id="node21" class="node">
<title>Node20</title>
<g id="a_node21"><a xlink:href="Meta_8hxx.html" target="_top" xlink:title="Meta.hxx">
<polygon fill="none" stroke="#000000" points="928,-56.5 928,-75.5 990,-75.5 990,-56.5 928,-56.5"/>
<text text-anchor="middle" x="959" y="-63.5" font-family="Helvetica,sans-Serif" font-size="10.00" fill="#000000">Meta.hxx</text>
</a>
</g>
</g>
<!-- Node9&#45;&gt;Node20 -->
<g id="edge22" class="edge">
<title>Node9&#45;&gt;Node20</title>
<path fill="none" stroke="#191970" d="M615.1255,-119.0446C671.6426,-113.0813 800.2651,-98.3958 917.7484,-76.0822"/>
<polygon fill="#191970" stroke="#191970" points="918.4693,-79.5077 927.6284,-74.1822 917.1473,-72.6337 918.4693,-79.5077"/>
</g>
<!-- Node23 -->
<g id="node24" class="node">
<title>Node23</title>
<g id="a_node24"><a xlink:href="LOG_8inl_8hxx.html" target="_top" xlink:title="LOG.inl.hxx">
<polygon fill="none" stroke="#000000" points="692.5,-56.5 692.5,-75.5 765.5,-75.5 765.5,-56.5 692.5,-56.5"/>
<text text-anchor="middle" x="729" y="-63.5" font-family="Helvetica,sans-Serif" font-size="10.00" fill="#000000">LOG.inl.hxx</text>
</a>
</g>
</g>
<!-- Node9&#45;&gt;Node23 -->
<g id="edge27" class="edge">
<title>Node9&#45;&gt;Node23</title>
<path fill="none" stroke="#191970" d="M610.5826,-112.3733C633.9496,-103.2226 669.2862,-89.3844 695.2784,-79.2057"/>
<polygon fill="#191970" stroke="#191970" points="696.703,-82.4066 704.7382,-75.5011 694.1505,-75.8886 696.703,-82.4066"/>
</g>
<!-- Node12 -->
<g id="node13" class="node">
<title>Node12</title>
<polygon fill="none" stroke="#bfbfbf" points="511.5,-.5 511.5,-19.5 576.5,-19.5 576.5,-.5 511.5,-.5"/>
<text text-anchor="middle" x="544" y="-7.5" font-family="Helvetica,sans-Serif" font-size="10.00" fill="#000000">stdexcept</text>
</g>
<!-- Node11&#45;&gt;Node12 -->
<g id="edge12" class="edge">
<title>Node11&#45;&gt;Node12</title>
<path fill="none" stroke="#191970" d="M510.1417,-56.2455C515.8444,-48.4564 523.99,-37.3308 530.8625,-27.9439"/>
<polygon fill="#191970" stroke="#191970" points="533.8568,-29.7789 536.9402,-19.6427 528.2087,-25.6437 533.8568,-29.7789"/>
</g>
<!-- Node13 -->
<g id="node14" class="node">
<title>Node13</title>
<polygon fill="none" stroke="#bfbfbf" points="428.5,-.5 428.5,-19.5 493.5,-19.5 493.5,-.5 428.5,-.5"/>
<text text-anchor="middle" x="461" y="-7.5" font-family="Helvetica,sans-Serif" font-size="10.00" fill="#000000">exception</text>
</g>
<!-- Node11&#45;&gt;Node13 -->
<g id="edge13" class="edge">
<title>Node11&#45;&gt;Node13</title>
<path fill="none" stroke="#191970" d="M495.6842,-56.2455C489.7821,-48.3761 481.3258,-37.101 474.2406,-27.6542"/>
<polygon fill="#191970" stroke="#191970" points="477.0321,-25.5427 468.232,-19.6427 471.432,-29.7427 477.0321,-25.5427"/>
</g>
<!-- Node20&#45;&gt;Node4 -->
<g id="edge26" class="edge">
<title>Node20&#45;&gt;Node4</title>
<path fill="none" stroke="#191970" d="M970.4963,-56.2455C980.2442,-47.9746 994.4259,-35.9416 1005.8798,-26.2232"/>
<polygon fill="#191970" stroke="#191970" points="1008.2747,-28.7813 1013.6354,-19.6427 1003.7459,-23.4437 1008.2747,-28.7813"/>
</g>
<!-- Node20&#45;&gt;Node5 -->
<g id="edge23" class="edge">
<title>Node20&#45;&gt;Node5</title>
<path fill="none" stroke="#191970" d="M927.6694,-57.5808C924.7528,-56.9748 921.8303,-56.433 919,-56 773.3597,-33.7215 314.8645,-16.2745 175.5477,-11.3792"/>
<polygon fill="#191970" stroke="#191970" points="175.4363,-7.8733 165.3203,-11.0223 175.1921,-14.869 175.4363,-7.8733"/>
</g>
<!-- Node21 -->
<g id="node22" class="node">
<title>Node21</title>
<polygon fill="none" stroke="#bfbfbf" points="917.5,-.5 917.5,-19.5 986.5,-19.5 986.5,-.5 917.5,-.5"/>
<text text-anchor="middle" x="952" y="-7.5" font-family="Helvetica,sans-Serif" font-size="10.00" fill="#000000">type_traits</text>
</g>
<!-- Node20&#45;&gt;Node21 -->
<g id="edge24" class="edge">
<title>Node20&#45;&gt;Node21</title>
<path fill="none" stroke="#191970" d="M957.7807,-56.2455C956.8673,-48.9382 955.5868,-38.6944 954.4631,-29.7046"/>
<polygon fill="#191970" stroke="#191970" points="957.9187,-29.1313 953.2053,-19.6427 950.9728,-29.9996 957.9187,-29.1313"/>
</g>
<!-- Node22 -->
<g id="node23" class="node">
<title>Node22</title>
<polygon fill="none" stroke="#bfbfbf" points="848.5,-.5 848.5,-19.5 899.5,-19.5 899.5,-.5 848.5,-.5"/>
<text text-anchor="middle" x="874" y="-7.5" font-family="Helvetica,sans-Serif" font-size="10.00" fill="#000000">variant</text>
</g>
<!-- Node20&#45;&gt;Node22 -->
<g id="edge25" class="edge">
<title>Node20&#45;&gt;Node22</title>
<path fill="none" stroke="#191970" d="M944.1941,-56.2455C931.2744,-47.7337 912.3069,-35.2375 897.3448,-25.3801"/>
<polygon fill="#191970" stroke="#191970" points="898.9124,-22.2216 888.6362,-19.6427 895.0613,-28.067 898.9124,-22.2216"/>
</g>
<!-- Node24&#45;&gt;Node20 -->
<g id="edge30" class="edge">
<title>Node24&#45;&gt;Node20</title>
<path fill="none" stroke="#191970" d="M1004.2818,-224.4862C996.6613,-197.8144 974.9748,-121.9117 964.6271,-85.695"/>
<polygon fill="#191970" stroke="#191970" points="967.9206,-84.4816 961.808,-75.8279 961.1899,-86.4047 967.9206,-84.4816"/>
</g>
<!-- Node25 -->
<g id="node26" class="node">
<title>Node25</title>
<polygon fill="none" stroke="#bfbfbf" points="1035.5,-168.5 1035.5,-187.5 1088.5,-187.5 1088.5,-168.5 1035.5,-168.5"/>
<text text-anchor="middle" x="1062" y="-175.5" font-family="Helvetica,sans-Serif" font-size="10.00" fill="#000000">iterator</text>
</g>
<!-- Node24&#45;&gt;Node25 -->
<g id="edge29" class="edge">
<title>Node24&#45;&gt;Node25</title>
<path fill="none" stroke="#191970" d="M1016.5803,-224.2455C1024.5458,-216.1352 1036.0641,-204.4075 1045.5079,-194.7919"/>
<polygon fill="#191970" stroke="#191970" points="1048.0195,-197.2297 1052.5295,-187.6427 1043.0253,-192.3247 1048.0195,-197.2297"/>
</g>
<!-- Node26 -->
<g id="node27" class="node">
<title>Node26</title>
<g id="a_node27"><a xlink:href="Range_8inl_8hxx.html" target="_top" xlink:title="Range.inl.hxx">
<polygon fill="none" stroke="#000000" points="1106.5,-168.5 1106.5,-187.5 1189.5,-187.5 1189.5,-168.5 1106.5,-168.5"/>
<text text-anchor="middle" x="1148" y="-175.5" font-family="Helvetica,sans-Serif" font-size="10.00" fill="#000000">Range.inl.hxx</text>
</a>
</g>
</g>
<!-- Node24&#45;&gt;Node26 -->
<g id="edge31" class="edge">
<title>Node24&#45;&gt;Node26</title>
<path fill="none" stroke="#191970" d="M1031.2388,-224.3733C1054.2789,-215.2226 1089.1214,-201.3844 1114.7501,-191.2057"/>
<polygon fill="#191970" stroke="#191970" points="1116.0756,-194.4452 1124.0775,-187.5011 1113.4918,-187.9395 1116.0756,-194.4452"/>
</g>
<!-- Node27&#45;&gt;Node5 -->
<g id="edge34" class="edge">
<title>Node27&#45;&gt;Node5</title>
<path fill="none" stroke="#191970" d="M368.7043,-225.6137C365.4228,-225.0524 362.162,-224.5087 359,-224 302.0634,-214.8401 139.844,-231.5145 102,-188 63.5012,-143.7324 84.0389,-111.8496 102,-56 105.3946,-45.4445 112.2058,-35.2592 118.7631,-27.1676"/>
<polygon fill="#191970" stroke="#191970" points="121.447,-29.4149 125.3508,-19.5654 116.1569,-24.8307 121.447,-29.4149"/>
</g>
<!-- Node28 -->
<g id="node29" class="node">
<title>Node28</title>
<polygon fill="none" stroke="#bfbfbf" points="0,-168.5 0,-187.5 50,-187.5 50,-168.5 0,-168.5"/>
<text text-anchor="middle" x="25" y="-175.5" font-family="Helvetica,sans-Serif" font-size="10.00" fill="#000000">cstdint</text>
</g>
<!-- Node27&#45;&gt;Node28 -->
<g id="edge33" class="edge">
<title>Node27&#45;&gt;Node28</title>
<path fill="none" stroke="#191970" d="M368.7143,-225.5498C365.4304,-225.0035 362.1664,-224.4806 359,-224 228.4121,-204.1776 193.8002,-212.4545 64,-188 62.7249,-187.7598 61.4297,-187.5018 60.124,-187.2299"/>
<polygon fill="#191970" stroke="#191970" points="60.596,-183.7478 50.0681,-184.9372 59.0399,-190.5727 60.596,-183.7478"/>
</g>
</g>
</svg>
        <g id="navigator" transform="translate(0 0)" fill="#404254">
                <rect fill="#f2f5e9" fill-opacity="0.5" stroke="#606060" stroke-width=".5" x="0" y="0" width="60" height="60"/>
                <use id="zoomplus" xlink:href="#zoomPlus" x="17" y="9" onmousedown="handleZoom(evt,'in')"/>
                <use id="zoomminus" xlink:href="#zoomMin" x="42" y="9" onmousedown="handleZoom(evt,'out')"/>
                <use id="reset" xlink:href="#resetDef" x="30" y="36" onmousedown="handleReset()"/>
                <g id="arrowUp" xlink:href="#dirArrow" transform="translate(30 24)" onmousedown="handlePan(0,-1)">
                  <use xlink:href="#rim" fill="#404040">
                        <set attributeName="fill" to="#808080" begin="arrowUp.mouseover" end="arrowUp.mouseout"/>
                  </use>
                  <path fill="none" stroke="white" stroke-width="1.5" d="M0,-3.0v7 M-2.5,-0.5L0,-3.0L2.5,-0.5"/>
                </g>
                <g id="arrowRight" xlink:href="#dirArrow" transform="rotate(90) translate(36 -43)" onmousedown="handlePan(1,0)">
                  <use xlink:href="#rim" fill="#404040">
                        <set attributeName="fill" to="#808080" begin="arrowRight.mouseover" end="arrowRight.mouseout"/>
                  </use>
                  <path fill="none" stroke="white" stroke-width="1.5" d="M0,-3.0v7 M-2.5,-0.5L0,-3.0L2.5,-0.5"/>
                </g>
                <g id="arrowDown" xlink:href="#dirArrow" transform="rotate(180) translate(-30 -48)" onmousedown="handlePan(0,1)">
                  <use xlink:href="#rim" fill="#404040">
                        <set attributeName="fill" to="#808080" begin="arrowDown.mouseover" end="arrowDown.mouseout"/>
                  </use>
                  <path fill="none" stroke="white" stroke-width="1.5" d="M0,-3.0v7 M-2.5,-0.5L0,-3.0L2.5,-0.5"/>
                </g>
                <g id="arrowLeft" xlink:href="#dirArrow" transform="rotate(270) translate(-36 17)" onmousedown="handlePan(-1,0)">
                  <use xlink:href="#rim" fill="#404040">
                        <set attributeName="fill" to="#808080" begin="arrowLeft.mouseover" end="arrowLeft.mouseout"/>
                  </use>
                  <path fill="none" stroke="white" stroke-width="1.5" d="M0,-3.0v7 M-2.5,-0.5L0,-3.0L2.5,-0.5"/>
                </g>
        </g>
        <svg viewBox="0 0 15 15" width="100%" height="30px" preserveAspectRatio="xMaxYMin meet">
         <g id="arrow_out" transform="scale(0.3 0.3)">
          <a xlink:href="PixelBuffer_8cxx__incl_org.svg" target="_base">
           <rect id="button" ry="5" rx="5" y="6" x="6" height="38" width="38"
                fill="#f2f5e9" fill-opacity="0.5" stroke="#606060" stroke-width="1.0"/>
           <path id="arrow"
             d="M 11.500037,31.436501 C 11.940474,20.09759 22.043105,11.32322 32.158766,21.979434 L 37.068811,17.246167 C 37.068811,17.246167 37.088388,32 37.088388,32 L 22.160133,31.978069 C 22.160133,31.978069 26.997745,27.140456 26.997745,27.140456 C 18.528582,18.264221 13.291696,25.230495 11.500037,31.436501 z"
             style="fill:#404040;"/>
          </a>
         </g>
        </svg>
</svg>
