<?xml version="1.0" encoding="UTF-8" standalone="no"?>
<!DOCTYPE svg PUBLIC "-//W3C//DTD SVG 1.1//EN"
 "http://www.w3.org/Graphics/SVG/1.1/DTD/svg11.dtd">
<!-- Generated by graphviz version 2.40.1 (20161225.0304)
 -->
<!-- Title: src/util/Point2D.cxx Pages: 1 -->
<svg width="292pt" height="196pt"
 viewBox="0.00 0.00 291.50 196.00" xmlns="http://www.w3.org/2000/svg" xmlns:xlink="http://www.w3.org/1999/xlink">
<g id="graph0" class="graph" transform="scale(1 1) rotate(0) translate(4 192)">
<title>src/util/Point2D.cxx</title>
<!-- Node0 -->
<g id="node1" class="node">
<title>Node0</title>
<polygon fill="#bfbfbf" stroke="#000000" points="47.5,-168.5 47.5,-187.5 158.5,-187.5 158.5,-168.5 47.5,-168.5"/>
<text text-anchor="middle" x="103" y="-175.5" font-family="Helvetica,sans-Serif" font-size="10.00" fill="#000000">src/util/Point2D.cxx</text>
</g>
<!-- Node1 -->
<g id="node2" class="node">
<title>Node1</title>
<g id="a_node2"><a xlink:href="Point2D_8hxx.html" target="_top" xlink:title="Point2D.hxx">
<polygon fill="none" stroke="#000000" points="0,-112.5 0,-131.5 76,-131.5 76,-112.5 0,-112.5"/>
<text text-anchor="middle" x="38" y="-119.5" font-family="Helvetica,sans-Serif" font-size="10.00" fill="#000000">Point2D.hxx</text>
</a>
</g>
</g>
<!-- Node0&#45;&gt;Node1 -->
<g id="edge1" class="edge">
<title>Node0&#45;&gt;Node1</title>
<path fill="none" stroke="#191970" d="M91.6779,-168.2455C82.0777,-159.9746 68.1108,-147.9416 56.8305,-138.2232"/>
<polygon fill="#191970" stroke="#191970" points="59.053,-135.5182 49.1924,-131.6427 54.484,-140.8214 59.053,-135.5182"/>
</g>
<!-- Node7 -->
<g id="node8" class="node">
<title>Node7</title>
<g id="a_node8"><a xlink:href="MouseEvents_8hxx.html" target="_top" xlink:title="../events/MouseEvents.hxx">
<polygon fill="none" stroke="#000000" points="94.5,-112.5 94.5,-131.5 241.5,-131.5 241.5,-112.5 94.5,-112.5"/>
<text text-anchor="middle" x="168" y="-119.5" font-family="Helvetica,sans-Serif" font-size="10.00" fill="#000000">../events/MouseEvents.hxx</text>
</a>
</g>
</g>
<!-- Node0&#45;&gt;Node7 -->
<g id="edge8" class="edge">
<title>Node0&#45;&gt;Node7</title>
<path fill="none" stroke="#191970" d="M114.3221,-168.2455C123.9223,-159.9746 137.8892,-147.9416 149.1695,-138.2232"/>
<polygon fill="#191970" stroke="#191970" points="151.516,-140.8214 156.8076,-131.6427 146.947,-135.5182 151.516,-140.8214"/>
</g>
<!-- Node2 -->
<g id="node3" class="node">
<title>Node2</title>
<g id="a_node3"><a xlink:href="Meta_8hxx.html" target="_top" xlink:title="Meta.hxx">
<polygon fill="none" stroke="#000000" points="113,-56.5 113,-75.5 175,-75.5 175,-56.5 113,-56.5"/>
<text text-anchor="middle" x="144" y="-63.5" font-family="Helvetica,sans-Serif" font-size="10.00" fill="#000000">Meta.hxx</text>
</a>
</g>
</g>
<!-- Node1&#45;&gt;Node2 -->
<g id="edge2" class="edge">
<title>Node1&#45;&gt;Node2</title>
<path fill="none" stroke="#191970" d="M56.4638,-112.2455C73.1074,-103.4527 97.7993,-90.4079 116.7192,-80.4125"/>
<polygon fill="#191970" stroke="#191970" points="118.5408,-83.4086 125.7478,-75.6427 115.2709,-77.2193 118.5408,-83.4086"/>
</g>
<!-- Node3 -->
<g id="node4" class="node">
<title>Node3</title>
<polygon fill="none" stroke="#bfbfbf" points="8,-.5 8,-19.5 68,-19.5 68,-.5 8,-.5"/>
<text text-anchor="middle" x="38" y="-7.5" font-family="Helvetica,sans-Serif" font-size="10.00" fill="#000000">iostream</text>
</g>
<!-- Node1&#45;&gt;Node3 -->
<g id="edge7" class="edge">
<title>Node1&#45;&gt;Node3</title>
<path fill="none" stroke="#191970" d="M38,-112.4509C38,-94.184 38,-53.9553 38,-29.6976"/>
<polygon fill="#191970" stroke="#191970" points="41.5001,-29.5249 38,-19.5249 34.5001,-29.5249 41.5001,-29.5249"/>
</g>
<!-- Node2&#45;&gt;Node3 -->
<g id="edge3" class="edge">
<title>Node2&#45;&gt;Node3</title>
<path fill="none" stroke="#191970" d="M125.5362,-56.2455C108.8926,-47.4527 84.2007,-34.4079 65.2808,-24.4125"/>
<polygon fill="#191970" stroke="#191970" points="66.7291,-21.2193 56.2522,-19.6427 63.4592,-27.4086 66.7291,-21.2193"/>
</g>
<!-- Node4 -->
<g id="node5" class="node">
<title>Node4</title>
<polygon fill="none" stroke="#bfbfbf" points="86.5,-.5 86.5,-19.5 155.5,-19.5 155.5,-.5 86.5,-.5"/>
<text text-anchor="middle" x="121" y="-7.5" font-family="Helvetica,sans-Serif" font-size="10.00" fill="#000000">type_traits</text>
</g>
<!-- Node2&#45;&gt;Node4 -->
<g id="edge4" class="edge">
<title>Node2&#45;&gt;Node4</title>
<path fill="none" stroke="#191970" d="M139.9937,-56.2455C136.9265,-48.7776 132.5997,-38.2427 128.8503,-29.1137"/>
<polygon fill="#191970" stroke="#191970" points="131.9972,-27.5631 124.9604,-19.6427 125.5221,-30.2226 131.9972,-27.5631"/>
</g>
<!-- Node5 -->
<g id="node6" class="node">
<title>Node5</title>
<polygon fill="none" stroke="#bfbfbf" points="173.5,-.5 173.5,-19.5 224.5,-19.5 224.5,-.5 173.5,-.5"/>
<text text-anchor="middle" x="199" y="-7.5" font-family="Helvetica,sans-Serif" font-size="10.00" fill="#000000">variant</text>
</g>
<!-- Node2&#45;&gt;Node5 -->
<g id="edge5" class="edge">
<title>Node2&#45;&gt;Node5</title>
<path fill="none" stroke="#191970" d="M153.5803,-56.2455C161.5458,-48.1352 173.0641,-36.4075 182.5079,-26.7919"/>
<polygon fill="#191970" stroke="#191970" points="185.0195,-29.2297 189.5295,-19.6427 180.0253,-24.3247 185.0195,-29.2297"/>
</g>
<!-- Node6 -->
<g id="node7" class="node">
<title>Node6</title>
<polygon fill="none" stroke="#bfbfbf" points="242.5,-.5 242.5,-19.5 283.5,-19.5 283.5,-.5 242.5,-.5"/>
<text text-anchor="middle" x="263" y="-7.5" font-family="Helvetica,sans-Serif" font-size="10.00" fill="#000000">tuple</text>
</g>
<!-- Node2&#45;&gt;Node6 -->
<g id="edge6" class="edge">
<title>Node2&#45;&gt;Node6</title>
<path fill="none" stroke="#191970" d="M164.4568,-56.3733C183.4738,-47.4241 212.0175,-33.9917 233.4976,-23.8835"/>
<polygon fill="#191970" stroke="#191970" points="235.2522,-26.926 242.8101,-19.5011 232.2716,-20.5923 235.2522,-26.926"/>
</g>
<!-- Node7&#45;&gt;Node2 -->
<g id="edge9" class="edge">
<title>Node7&#45;&gt;Node2</title>
<path fill="none" stroke="#191970" d="M163.8195,-112.2455C160.619,-104.7776 156.104,-94.2427 152.1916,-85.1137"/>
<polygon fill="#191970" stroke="#191970" points="155.2888,-83.4554 148.1326,-75.6427 148.8548,-86.2129 155.2888,-83.4554"/>
</g>
</g>
</svg>
