<?xml version="1.0" encoding="UTF-8" standalone="no"?>
<!DOCTYPE svg PUBLIC "-//W3C//DTD SVG 1.1//EN"
 "http://www.w3.org/Graphics/SVG/1.1/DTD/svg11.dtd">
<!-- Generated by graphviz version 2.40.1 (20161225.0304)
 -->
<!-- Title: src/services/Randomizer.hxx Pages: 1 -->
<!--zoomable 364 -->
<svg id="main" version="1.1" xmlns="http://www.w3.org/2000/svg" xmlns:xlink="http://www.w3.org/1999/xlink" xml:space="preserve" onload="init(evt)">
<style type="text/css"><![CDATA[
.edge:hover path { stroke: red; }
.edge:hover polygon { stroke: red; fill: red; }
]]></style>
<script type="text/javascript"><![CDATA[
var edges = document.getElementsByTagName('g');
if (edges && edges.length) {
  for (var i=0;i<edges.length;i++) {
    if (edges[i].id.substr(0,4)=='edge') {
      edges[i].setAttribute('class','edge');
    }
  }
}
]]></script>
        <defs>
                <circle id="rim" cx="0" cy="0" r="7"/>
                <circle id="rim2" cx="0" cy="0" r="3.5"/>
                <g id="zoomPlus">
                        <use xlink:href="#rim" fill="#404040">
                                <set attributeName="fill" to="#808080" begin="zoomplus.mouseover" end="zoomplus.mouseout"/>
                        </use>
                        <path d="M-4,0h8M0,-4v8" fill="none" stroke="white" stroke-width="1.5" pointer-events="none"/>
                </g>
                <g id="zoomMin">
                        <use xlink:href="#rim" fill="#404040">
                                <set attributeName="fill" to="#808080" begin="zoomminus.mouseover" end="zoomminus.mouseout"/>
                        </use>
                        <path d="M-4,0h8" fill="none" stroke="white" stroke-width="1.5" pointer-events="none"/>
                </g>
                <g id="dirArrow">
                        <path fill="none" stroke="white" stroke-width="1.5" d="M0,-3.0v7 M-2.5,-0.5L0,-3.0L2.5,-0.5"/>
                </g>
               <g id="resetDef">
                       <use xlink:href="#rim2" fill="#404040">
                               <set attributeName="fill" to="#808080" begin="reset.mouseover" end="reset.mouseout"/>
                       </use>
               </g>
        </defs>

<script type="text/javascript">
var viewWidth = 1181;
var viewHeight = 364;
var sectionId = 'dynsection-0';
</script>
<script xlink:href="svgpan.js"/>
<svg id="graph" class="graph">
<g id="viewport">
<title>src/services/Randomizer.hxx</title>
<!-- Node0 -->
<g id="node1" class="node">
<title>Node0</title>
<polygon fill="#bfbfbf" stroke="#000000" points="307.5411,-336.5 307.5411,-355.5 463.5411,-355.5 463.5411,-336.5 307.5411,-336.5"/>
<text text-anchor="middle" x="385.5411" y="-343.5" font-family="Helvetica,sans-Serif" font-size="10.00" fill="#000000">src/services/Randomizer.hxx</text>
</g>
<!-- Node1 -->
<g id="node2" class="node">
<title>Node1</title>
<polygon fill="none" stroke="#bfbfbf" points="236.5411,-280.5 236.5411,-299.5 290.5411,-299.5 290.5411,-280.5 236.5411,-280.5"/>
<text text-anchor="middle" x="263.5411" y="-287.5" font-family="Helvetica,sans-Serif" font-size="10.00" fill="#000000">random</text>
</g>
<!-- Node0&#45;&gt;Node1 -->
<g id="edge1" class="edge">
<title>Node0&#45;&gt;Node1</title>
<path fill="none" stroke="#191970" d="M364.5686,-336.3733C344.9844,-327.3838 315.545,-313.8706 293.4902,-303.7471"/>
<polygon fill="#191970" stroke="#191970" points="294.7884,-300.4919 284.24,-299.5011 291.8682,-306.8538 294.7884,-300.4919"/>
</g>
<!-- Node2 -->
<g id="node3" class="node">
<title>Node2</title>
<polygon fill="none" stroke="#bfbfbf" points="309.0411,-280.5 309.0411,-299.5 362.0411,-299.5 362.0411,-280.5 309.0411,-280.5"/>
<text text-anchor="middle" x="335.5411" y="-287.5" font-family="Helvetica,sans-Serif" font-size="10.00" fill="#000000">iterator</text>
</g>
<!-- Node0&#45;&gt;Node2 -->
<g id="edge2" class="edge">
<title>Node0&#45;&gt;Node2</title>
<path fill="none" stroke="#191970" d="M376.8318,-336.2455C369.7338,-328.2958 359.5327,-316.8706 351.0461,-307.3656"/>
<polygon fill="#191970" stroke="#191970" points="353.4216,-304.771 344.1507,-299.6427 348.2001,-309.4331 353.4216,-304.771"/>
</g>
<!-- Node3 -->
<g id="node4" class="node">
<title>Node3</title>
<g id="a_node4"><a xlink:href="GameService_8hxx.html" target="_top" xlink:title="../GameService.hxx">
<polygon fill="none" stroke="#000000" points="380.5411,-280.5 380.5411,-299.5 492.5411,-299.5 492.5411,-280.5 380.5411,-280.5"/>
<text text-anchor="middle" x="436.5411" y="-287.5" font-family="Helvetica,sans-Serif" font-size="10.00" fill="#000000">../GameService.hxx</text>
</a>
</g>
</g>
<!-- Node0&#45;&gt;Node3 -->
<g id="edge3" class="edge">
<title>Node0&#45;&gt;Node3</title>
<path fill="none" stroke="#191970" d="M394.4247,-336.2455C401.7377,-328.2155 412.2803,-316.6394 420.9878,-307.0781"/>
<polygon fill="#191970" stroke="#191970" points="423.6138,-309.3928 427.7594,-299.6427 418.4384,-304.6795 423.6138,-309.3928"/>
</g>
<!-- Node19 -->
<g id="node20" class="node">
<title>Node19</title>
<g id="a_node20"><a xlink:href="LOG_8hxx.html" target="_top" xlink:title="LOG.hxx">
<polygon fill="none" stroke="#000000" points="672.5411,-224.5 672.5411,-243.5 730.5411,-243.5 730.5411,-224.5 672.5411,-224.5"/>
<text text-anchor="middle" x="701.5411" y="-231.5" font-family="Helvetica,sans-Serif" font-size="10.00" fill="#000000">LOG.hxx</text>
</a>
</g>
</g>
<!-- Node0&#45;&gt;Node19 -->
<g id="edge21" class="edge">
<title>Node0&#45;&gt;Node19</title>
<path fill="none" stroke="#191970" d="M412.4831,-336.4509C469.1527,-316.3655 600.7361,-269.7284 664.96,-246.9655"/>
<polygon fill="#191970" stroke="#191970" points="666.4111,-250.1646 674.6673,-243.5249 664.0726,-243.5667 666.4111,-250.1646"/>
</g>
<!-- Node4 -->
<g id="node5" class="node">
<title>Node4</title>
<g id="a_node5"><a xlink:href="Events_8hxx.html" target="_top" xlink:title="Events.hxx">
<polygon fill="none" stroke="#000000" points="129.0411,-224.5 129.0411,-243.5 200.0411,-243.5 200.0411,-224.5 129.0411,-224.5"/>
<text text-anchor="middle" x="164.5411" y="-231.5" font-family="Helvetica,sans-Serif" font-size="10.00" fill="#000000">Events.hxx</text>
</a>
</g>
</g>
<!-- Node3&#45;&gt;Node4 -->
<g id="edge4" class="edge">
<title>Node3&#45;&gt;Node4</title>
<path fill="none" stroke="#191970" d="M390.0917,-280.4369C339.8408,-270.0911 260.2271,-253.7001 210.2621,-243.4131"/>
<polygon fill="#191970" stroke="#191970" points="210.8772,-239.9664 200.3768,-241.3779 209.4656,-246.8226 210.8772,-239.9664"/>
</g>
<!-- Node18 -->
<g id="node19" class="node">
<title>Node18</title>
<g id="a_node19"><a xlink:href="GameService_8inl_8hxx.html" target="_top" xlink:title="GameService.inl.hxx">
<polygon fill="none" stroke="#000000" points="377.5411,-224.5 377.5411,-243.5 495.5411,-243.5 495.5411,-224.5 377.5411,-224.5"/>
<text text-anchor="middle" x="436.5411" y="-231.5" font-family="Helvetica,sans-Serif" font-size="10.00" fill="#000000">GameService.inl.hxx</text>
</a>
</g>
</g>
<!-- Node3&#45;&gt;Node18 -->
<g id="edge20" class="edge">
<title>Node3&#45;&gt;Node18</title>
<path fill="none" stroke="#191970" d="M436.5411,-280.2455C436.5411,-272.9382 436.5411,-262.6944 436.5411,-253.7046"/>
<polygon fill="#191970" stroke="#191970" points="440.0412,-253.6426 436.5411,-243.6427 433.0412,-253.6427 440.0412,-253.6426"/>
</g>
<!-- Node5 -->
<g id="node6" class="node">
<title>Node5</title>
<polygon fill="none" stroke="#bfbfbf" points="241.5411,-168.5 241.5411,-187.5 285.5411,-187.5 285.5411,-168.5 241.5411,-168.5"/>
<text text-anchor="middle" x="263.5411" y="-175.5" font-family="Helvetica,sans-Serif" font-size="10.00" fill="#000000">string</text>
</g>
<!-- Node4&#45;&gt;Node5 -->
<g id="edge5" class="edge">
<title>Node4&#45;&gt;Node5</title>
<path fill="none" stroke="#191970" d="M181.7856,-224.2455C197.1172,-215.5731 219.761,-202.7645 237.3327,-192.825"/>
<polygon fill="#191970" stroke="#191970" points="239.5135,-195.6126 246.4943,-187.6427 236.067,-189.5198 239.5135,-195.6126"/>
</g>
<!-- Node6 -->
<g id="node7" class="node">
<title>Node6</title>
<polygon fill="none" stroke="#bfbfbf" points="25.5411,-56.5 25.5411,-75.5 125.5411,-75.5 125.5411,-56.5 25.5411,-56.5"/>
<text text-anchor="middle" x="75.5411" y="-63.5" font-family="Helvetica,sans-Serif" font-size="10.00" fill="#000000">betterEnums.hxx</text>
</g>
<!-- Node4&#45;&gt;Node6 -->
<g id="edge6" class="edge">
<title>Node4&#45;&gt;Node6</title>
<path fill="none" stroke="#191970" d="M128.8517,-228.1202C88.7164,-220.6947 27.3248,-206.608 13.5411,-188 -6.5642,-160.8576 -1.643,-142.1725 13.5411,-112 20.2148,-98.7387 32.7204,-88.3415 44.7619,-80.8125"/>
<polygon fill="#191970" stroke="#191970" points="46.8613,-83.6422 53.7753,-75.6143 43.3641,-77.5783 46.8613,-83.6422"/>
</g>
<!-- Node7 -->
<g id="node8" class="node">
<title>Node7</title>
<g id="a_node8"><a xlink:href="Meta_8hxx.html" target="_top" xlink:title="util/Meta.hxx">
<polygon fill="none" stroke="#000000" points="229.5411,-56.5 229.5411,-75.5 309.5411,-75.5 309.5411,-56.5 229.5411,-56.5"/>
<text text-anchor="middle" x="269.5411" y="-63.5" font-family="Helvetica,sans-Serif" font-size="10.00" fill="#000000">util/Meta.hxx</text>
</a>
</g>
</g>
<!-- Node4&#45;&gt;Node7 -->
<g id="edge7" class="edge">
<title>Node4&#45;&gt;Node7</title>
<path fill="none" stroke="#191970" d="M142.1218,-224.4151C98.61,-204.5023 10.0599,-156.7746 46.5411,-112 67.8586,-85.8363 159.9449,-74.1103 218.9131,-69.2018"/>
<polygon fill="#191970" stroke="#191970" points="219.462,-72.6694 229.1541,-68.3898 218.9087,-65.6913 219.462,-72.6694"/>
</g>
<!-- Node12 -->
<g id="node13" class="node">
<title>Node12</title>
<g id="a_node13"><a xlink:href="UIEvents_8hxx.html" target="_top" xlink:title="events/UIEvents.hxx">
<polygon fill="none" stroke="#000000" points="106.0411,-168.5 106.0411,-187.5 223.0411,-187.5 223.0411,-168.5 106.0411,-168.5"/>
<text text-anchor="middle" x="164.5411" y="-175.5" font-family="Helvetica,sans-Serif" font-size="10.00" fill="#000000">events/UIEvents.hxx</text>
</a>
</g>
</g>
<!-- Node4&#45;&gt;Node12 -->
<g id="edge12" class="edge">
<title>Node4&#45;&gt;Node12</title>
<path fill="none" stroke="#191970" d="M164.5411,-224.2455C164.5411,-216.9382 164.5411,-206.6944 164.5411,-197.7046"/>
<polygon fill="#191970" stroke="#191970" points="168.0412,-197.6426 164.5411,-187.6427 161.0412,-197.6427 168.0412,-197.6426"/>
</g>
<!-- Node8 -->
<g id="node9" class="node">
<title>Node8</title>
<polygon fill="none" stroke="#bfbfbf" points="410.5411,-.5 410.5411,-19.5 470.5411,-19.5 470.5411,-.5 410.5411,-.5"/>
<text text-anchor="middle" x="440.5411" y="-7.5" font-family="Helvetica,sans-Serif" font-size="10.00" fill="#000000">iostream</text>
</g>
<!-- Node7&#45;&gt;Node8 -->
<g id="edge8" class="edge">
<title>Node7&#45;&gt;Node8</title>
<path fill="none" stroke="#191970" d="M298.9371,-56.3733C327.3718,-47.0613 370.6288,-32.8953 401.8493,-22.671"/>
<polygon fill="#191970" stroke="#191970" points="403.1147,-25.9396 411.5288,-19.5011 400.9361,-19.2872 403.1147,-25.9396"/>
</g>
<!-- Node9 -->
<g id="node10" class="node">
<title>Node9</title>
<polygon fill="none" stroke="#bfbfbf" points="157.0411,-.5 157.0411,-19.5 226.0411,-19.5 226.0411,-.5 157.0411,-.5"/>
<text text-anchor="middle" x="191.5411" y="-7.5" font-family="Helvetica,sans-Serif" font-size="10.00" fill="#000000">type_traits</text>
</g>
<!-- Node7&#45;&gt;Node9 -->
<g id="edge9" class="edge">
<title>Node7&#45;&gt;Node9</title>
<path fill="none" stroke="#191970" d="M255.9546,-56.2455C244.2107,-47.814 227.0213,-35.4729 213.353,-25.6598"/>
<polygon fill="#191970" stroke="#191970" points="215.1365,-22.6316 204.972,-19.6427 211.054,-28.3179 215.1365,-22.6316"/>
</g>
<!-- Node10 -->
<g id="node11" class="node">
<title>Node10</title>
<polygon fill="none" stroke="#bfbfbf" points="244.0411,-.5 244.0411,-19.5 295.0411,-19.5 295.0411,-.5 244.0411,-.5"/>
<text text-anchor="middle" x="269.5411" y="-7.5" font-family="Helvetica,sans-Serif" font-size="10.00" fill="#000000">variant</text>
</g>
<!-- Node7&#45;&gt;Node10 -->
<g id="edge10" class="edge">
<title>Node7&#45;&gt;Node10</title>
<path fill="none" stroke="#191970" d="M269.5411,-56.2455C269.5411,-48.9382 269.5411,-38.6944 269.5411,-29.7046"/>
<polygon fill="#191970" stroke="#191970" points="273.0412,-29.6426 269.5411,-19.6427 266.0412,-29.6427 273.0412,-29.6426"/>
</g>
<!-- Node11 -->
<g id="node12" class="node">
<title>Node11</title>
<polygon fill="none" stroke="#bfbfbf" points="313.0411,-.5 313.0411,-19.5 354.0411,-19.5 354.0411,-.5 313.0411,-.5"/>
<text text-anchor="middle" x="333.5411" y="-7.5" font-family="Helvetica,sans-Serif" font-size="10.00" fill="#000000">tuple</text>
</g>
<!-- Node7&#45;&gt;Node11 -->
<g id="edge11" class="edge">
<title>Node7&#45;&gt;Node11</title>
<path fill="none" stroke="#191970" d="M280.6891,-56.2455C290.0498,-48.0549 303.6269,-36.1749 314.6761,-26.5069"/>
<polygon fill="#191970" stroke="#191970" points="317.2999,-28.8618 322.5209,-19.6427 312.6904,-23.5937 317.2999,-28.8618"/>
</g>
<!-- Node13 -->
<g id="node14" class="node">
<title>Node13</title>
<polygon fill="none" stroke="#bfbfbf" points="56.0411,-112.5 56.0411,-131.5 121.0411,-131.5 121.0411,-112.5 56.0411,-112.5"/>
<text text-anchor="middle" x="88.5411" y="-119.5" font-family="Helvetica,sans-Serif" font-size="10.00" fill="#000000">functional</text>
</g>
<!-- Node12&#45;&gt;Node13 -->
<g id="edge13" class="edge">
<title>Node12&#45;&gt;Node13</title>
<path fill="none" stroke="#191970" d="M151.3029,-168.2455C139.8602,-159.814 123.1115,-147.4729 109.7937,-137.6598"/>
<polygon fill="#191970" stroke="#191970" points="111.7544,-134.757 101.6276,-131.6427 107.602,-140.3924 111.7544,-134.757"/>
</g>
<!-- Node14 -->
<g id="node15" class="node">
<title>Node14</title>
<g id="a_node15"><a xlink:href="ActivityType_8hxx.html" target="_top" xlink:title="../activity/ActivityType.hxx">
<polygon fill="none" stroke="#000000" points="139.5411,-112.5 139.5411,-131.5 285.5411,-131.5 285.5411,-112.5 139.5411,-112.5"/>
<text text-anchor="middle" x="212.5411" y="-119.5" font-family="Helvetica,sans-Serif" font-size="10.00" fill="#000000">../activity/ActivityType.hxx</text>
</a>
</g>
</g>
<!-- Node12&#45;&gt;Node14 -->
<g id="edge14" class="edge">
<title>Node12&#45;&gt;Node14</title>
<path fill="none" stroke="#191970" d="M172.9021,-168.2455C179.7161,-160.2958 189.5092,-148.8706 197.6564,-139.3656"/>
<polygon fill="#191970" stroke="#191970" points="200.4254,-141.513 204.276,-131.6427 195.1106,-136.9575 200.4254,-141.513"/>
</g>
<!-- Node15 -->
<g id="node16" class="node">
<title>Node15</title>
<g id="a_node16"><a xlink:href="Observer_8hxx.html" target="_top" xlink:title="../util/Observer.hxx">
<polygon fill="none" stroke="#000000" points="342.0411,-112.5 342.0411,-131.5 451.0411,-131.5 451.0411,-112.5 342.0411,-112.5"/>
<text text-anchor="middle" x="396.5411" y="-119.5" font-family="Helvetica,sans-Serif" font-size="10.00" fill="#000000">../util/Observer.hxx</text>
</a>
</g>
</g>
<!-- Node12&#45;&gt;Node15 -->
<g id="edge16" class="edge">
<title>Node12&#45;&gt;Node15</title>
<path fill="none" stroke="#191970" d="M204.1598,-168.4369C243.6979,-158.8932 304.548,-144.2052 347.1993,-133.9101"/>
<polygon fill="#191970" stroke="#191970" points="348.1864,-137.2724 357.0859,-131.5237 346.5438,-130.4679 348.1864,-137.2724"/>
</g>
<!-- Node14&#45;&gt;Node6 -->
<g id="edge15" class="edge">
<title>Node14&#45;&gt;Node6</title>
<path fill="none" stroke="#191970" d="M188.99,-112.3733C166.7021,-103.2629 133.0475,-89.5062 108.1774,-79.3404"/>
<polygon fill="#191970" stroke="#191970" points="109.3658,-76.0451 98.785,-75.5011 106.7172,-82.5247 109.3658,-76.0451"/>
</g>
<!-- Node15&#45;&gt;Node7 -->
<g id="edge19" class="edge">
<title>Node15&#45;&gt;Node7</title>
<path fill="none" stroke="#191970" d="M374.7091,-112.3733C354.2308,-103.3435 323.4013,-89.7494 300.4092,-79.6111"/>
<polygon fill="#191970" stroke="#191970" points="301.6504,-76.3333 291.0883,-75.5011 298.8262,-82.7383 301.6504,-76.3333"/>
</g>
<!-- Node16 -->
<g id="node17" class="node">
<title>Node16</title>
<polygon fill="none" stroke="#bfbfbf" points="328.0411,-56.5 328.0411,-75.5 375.0411,-75.5 375.0411,-56.5 328.0411,-56.5"/>
<text text-anchor="middle" x="351.5411" y="-63.5" font-family="Helvetica,sans-Serif" font-size="10.00" fill="#000000">vector</text>
</g>
<!-- Node15&#45;&gt;Node16 -->
<g id="edge17" class="edge">
<title>Node15&#45;&gt;Node16</title>
<path fill="none" stroke="#191970" d="M388.7027,-112.2455C382.3791,-104.3761 373.3187,-93.101 365.7275,-83.6542"/>
<polygon fill="#191970" stroke="#191970" points="368.282,-81.2454 359.2897,-75.6427 362.8254,-85.6302 368.282,-81.2454"/>
</g>
<!-- Node17 -->
<g id="node18" class="node">
<title>Node17</title>
<polygon fill="none" stroke="#bfbfbf" points="393.5411,-56.5 393.5411,-75.5 451.5411,-75.5 451.5411,-56.5 393.5411,-56.5"/>
<text text-anchor="middle" x="422.5411" y="-63.5" font-family="Helvetica,sans-Serif" font-size="10.00" fill="#000000">memory</text>
</g>
<!-- Node15&#45;&gt;Node17 -->
<g id="edge18" class="edge">
<title>Node15&#45;&gt;Node17</title>
<path fill="none" stroke="#191970" d="M401.07,-112.2455C404.5745,-104.6973 409.5338,-94.0158 413.8034,-84.8197"/>
<polygon fill="#191970" stroke="#191970" points="417.0275,-86.1867 418.0642,-75.6427 410.6785,-83.2389 417.0275,-86.1867"/>
</g>
<!-- Node19&#45;&gt;Node5 -->
<g id="edge22" class="edge">
<title>Node19&#45;&gt;Node5</title>
<path fill="none" stroke="#191970" d="M672.0443,-232.2168C605.234,-227.8318 437.4419,-214.8701 299.5411,-188 298.2877,-187.7558 297.0141,-187.4899 295.7308,-187.2073"/>
<polygon fill="#191970" stroke="#191970" points="296.4259,-183.7741 285.88,-184.7906 294.758,-190.5725 296.4259,-183.7741"/>
</g>
<!-- Node19&#45;&gt;Node7 -->
<g id="edge34" class="edge">
<title>Node19&#45;&gt;Node7</title>
<path fill="none" stroke="#191970" d="M672.5013,-232.3618C606.4603,-227.3643 442.2566,-207.6394 332.5411,-132 313.101,-118.5977 294.9401,-98.4261 283.1597,-83.9124"/>
<polygon fill="#191970" stroke="#191970" points="285.6366,-81.401 276.695,-75.7178 280.1409,-85.7366 285.6366,-81.401"/>
</g>
<!-- Node19&#45;&gt;Node8 -->
<g id="edge26" class="edge">
<title>Node19&#45;&gt;Node8</title>
<path fill="none" stroke="#191970" d="M672.2074,-231.0141C622.1855,-225.3439 523.3719,-211.4434 498.5411,-188 454.1505,-146.0896 481.2001,-113.4476 460.5411,-56 457.2729,-46.9118 453.0827,-37.0645 449.3828,-28.8216"/>
<polygon fill="#191970" stroke="#191970" points="452.5591,-27.3513 445.2078,-19.7217 446.1967,-30.2703 452.5591,-27.3513"/>
</g>
<!-- Node20 -->
<g id="node21" class="node">
<title>Node20</title>
<g id="a_node21"><a xlink:href="Exception_8hxx.html" target="_top" xlink:title="Exception.hxx">
<polygon fill="none" stroke="#000000" points="507.5411,-168.5 507.5411,-187.5 593.5411,-187.5 593.5411,-168.5 507.5411,-168.5"/>
<text text-anchor="middle" x="550.5411" y="-175.5" font-family="Helvetica,sans-Serif" font-size="10.00" fill="#000000">Exception.hxx</text>
</a>
</g>
</g>
<!-- Node19&#45;&gt;Node20 -->
<g id="edge23" class="edge">
<title>Node19&#45;&gt;Node20</title>
<path fill="none" stroke="#191970" d="M675.5833,-224.3733C650.8004,-215.1822 613.2665,-201.2624 585.7871,-191.0713"/>
<polygon fill="#191970" stroke="#191970" points="586.7533,-187.6968 576.1602,-187.5011 584.3192,-194.26 586.7533,-187.6968"/>
</g>
<!-- Node23 -->
<g id="node24" class="node">
<title>Node23</title>
<polygon fill="none" stroke="#bfbfbf" points="611.5411,-168.5 611.5411,-187.5 661.5411,-187.5 661.5411,-168.5 611.5411,-168.5"/>
<text text-anchor="middle" x="636.5411" y="-175.5" font-family="Helvetica,sans-Serif" font-size="10.00" fill="#000000">chrono</text>
</g>
<!-- Node19&#45;&gt;Node23 -->
<g id="edge27" class="edge">
<title>Node19&#45;&gt;Node23</title>
<path fill="none" stroke="#191970" d="M690.219,-224.2455C680.6188,-215.9746 666.652,-203.9416 655.3717,-194.2232"/>
<polygon fill="#191970" stroke="#191970" points="657.5941,-191.5182 647.7335,-187.6427 653.0251,-196.8214 657.5941,-191.5182"/>
</g>
<!-- Node24 -->
<g id="node25" class="node">
<title>Node24</title>
<polygon fill="none" stroke="#bfbfbf" points="679.5411,-168.5 679.5411,-187.5 723.5411,-187.5 723.5411,-168.5 679.5411,-168.5"/>
<text text-anchor="middle" x="701.5411" y="-175.5" font-family="Helvetica,sans-Serif" font-size="10.00" fill="#000000">ctime</text>
</g>
<!-- Node19&#45;&gt;Node24 -->
<g id="edge28" class="edge">
<title>Node19&#45;&gt;Node24</title>
<path fill="none" stroke="#191970" d="M701.5411,-224.2455C701.5411,-216.9382 701.5411,-206.6944 701.5411,-197.7046"/>
<polygon fill="#191970" stroke="#191970" points="705.0412,-197.6426 701.5411,-187.6427 698.0412,-197.6427 705.0412,-197.6426"/>
</g>
<!-- Node25 -->
<g id="node26" class="node">
<title>Node25</title>
<polygon fill="none" stroke="#bfbfbf" points="742.0411,-168.5 742.0411,-187.5 797.0411,-187.5 797.0411,-168.5 742.0411,-168.5"/>
<text text-anchor="middle" x="769.5411" y="-175.5" font-family="Helvetica,sans-Serif" font-size="10.00" fill="#000000">fstream</text>
</g>
<!-- Node19&#45;&gt;Node25 -->
<g id="edge29" class="edge">
<title>Node19&#45;&gt;Node25</title>
<path fill="none" stroke="#191970" d="M713.3858,-224.2455C723.4291,-215.9746 738.0406,-203.9416 749.8415,-194.2232"/>
<polygon fill="#191970" stroke="#191970" points="752.3378,-196.7015 757.8322,-187.6427 747.8879,-191.298 752.3378,-196.7015"/>
</g>
<!-- Node26 -->
<g id="node27" class="node">
<title>Node26</title>
<polygon fill="none" stroke="#bfbfbf" points="815.5411,-168.5 815.5411,-187.5 871.5411,-187.5 871.5411,-168.5 815.5411,-168.5"/>
<text text-anchor="middle" x="843.5411" y="-175.5" font-family="Helvetica,sans-Serif" font-size="10.00" fill="#000000">sstream</text>
</g>
<!-- Node19&#45;&gt;Node26 -->
<g id="edge30" class="edge">
<title>Node19&#45;&gt;Node26</title>
<path fill="none" stroke="#191970" d="M725.9518,-224.3733C749.1554,-215.2226 784.245,-201.3844 810.0554,-191.2057"/>
<polygon fill="#191970" stroke="#191970" points="811.4303,-194.4258 819.449,-187.5011 808.8622,-187.9139 811.4303,-194.4258"/>
</g>
<!-- Node27 -->
<g id="node28" class="node">
<title>Node27</title>
<polygon fill="none" stroke="#bfbfbf" points="889.5411,-168.5 889.5411,-187.5 933.5411,-187.5 933.5411,-168.5 889.5411,-168.5"/>
<text text-anchor="middle" x="911.5411" y="-175.5" font-family="Helvetica,sans-Serif" font-size="10.00" fill="#000000">SDL.h</text>
</g>
<!-- Node19&#45;&gt;Node27 -->
<g id="edge31" class="edge">
<title>Node19&#45;&gt;Node27</title>
<path fill="none" stroke="#191970" d="M730.8323,-227.0494C764.5272,-218.9282 821.7069,-204.7639 879.573,-188.1661"/>
<polygon fill="#191970" stroke="#191970" points="880.6048,-191.5112 889.2397,-185.372 878.6611,-184.7864 880.6048,-191.5112"/>
</g>
<!-- Node28 -->
<g id="node29" class="node">
<title>Node28</title>
<polygon fill="none" stroke="#bfbfbf" points="951.5411,-168.5 951.5411,-187.5 1015.5411,-187.5 1015.5411,-168.5 951.5411,-168.5"/>
<text text-anchor="middle" x="983.5411" y="-175.5" font-family="Helvetica,sans-Serif" font-size="10.00" fill="#000000">algorithm</text>
</g>
<!-- Node19&#45;&gt;Node28 -->
<g id="edge32" class="edge">
<title>Node19&#45;&gt;Node28</title>
<path fill="none" stroke="#191970" d="M730.5731,-228.9486C774.1748,-221.2563 859.3725,-205.8161 941.3673,-188.1768"/>
<polygon fill="#191970" stroke="#191970" points="942.3153,-191.5527 951.3478,-186.0151 940.8335,-184.7113 942.3153,-191.5527"/>
</g>
<!-- Node29 -->
<g id="node30" class="node">
<title>Node29</title>
<polygon fill="none" stroke="#bfbfbf" points="1033.5411,-168.5 1033.5411,-187.5 1081.5411,-187.5 1081.5411,-168.5 1033.5411,-168.5"/>
<text text-anchor="middle" x="1057.5411" y="-175.5" font-family="Helvetica,sans-Serif" font-size="10.00" fill="#000000">mutex</text>
</g>
<!-- Node19&#45;&gt;Node29 -->
<g id="edge33" class="edge">
<title>Node19&#45;&gt;Node29</title>
<path fill="none" stroke="#191970" d="M730.7622,-231.3492C786.1377,-226.0033 910.2367,-212.4835 1023.6185,-187.9236"/>
<polygon fill="#191970" stroke="#191970" points="1024.4892,-191.3158 1033.503,-185.7479 1022.9844,-184.4794 1024.4892,-191.3158"/>
</g>
<!-- Node30 -->
<g id="node31" class="node">
<title>Node30</title>
<g id="a_node31"><a xlink:href="LOG_8inl_8hxx.html" target="_top" xlink:title="LOG.inl.hxx">
<polygon fill="none" stroke="#000000" points="1100.0411,-168.5 1100.0411,-187.5 1173.0411,-187.5 1173.0411,-168.5 1100.0411,-168.5"/>
<text text-anchor="middle" x="1136.5411" y="-175.5" font-family="Helvetica,sans-Serif" font-size="10.00" fill="#000000">LOG.inl.hxx</text>
</a>
</g>
</g>
<!-- Node19&#45;&gt;Node30 -->
<g id="edge35" class="edge">
<title>Node19&#45;&gt;Node30</title>
<path fill="none" stroke="#191970" d="M730.9572,-231.4976C794.5201,-225.8819 949.5731,-211.0628 1089.8699,-187.9661"/>
<polygon fill="#191970" stroke="#191970" points="1090.6549,-191.3836 1099.9443,-186.2888 1089.5053,-184.4787 1090.6549,-191.3836"/>
</g>
<!-- Node21 -->
<g id="node22" class="node">
<title>Node21</title>
<polygon fill="none" stroke="#bfbfbf" points="513.0411,-112.5 513.0411,-131.5 578.0411,-131.5 578.0411,-112.5 513.0411,-112.5"/>
<text text-anchor="middle" x="545.5411" y="-119.5" font-family="Helvetica,sans-Serif" font-size="10.00" fill="#000000">stdexcept</text>
</g>
<!-- Node20&#45;&gt;Node21 -->
<g id="edge24" class="edge">
<title>Node20&#45;&gt;Node21</title>
<path fill="none" stroke="#191970" d="M549.6702,-168.2455C549.0178,-160.9382 548.1031,-150.6944 547.3005,-141.7046"/>
<polygon fill="#191970" stroke="#191970" points="550.7776,-141.2918 546.4021,-131.6427 543.8054,-141.9143 550.7776,-141.2918"/>
</g>
<!-- Node22 -->
<g id="node23" class="node">
<title>Node22</title>
<polygon fill="none" stroke="#bfbfbf" points="596.0411,-112.5 596.0411,-131.5 661.0411,-131.5 661.0411,-112.5 596.0411,-112.5"/>
<text text-anchor="middle" x="628.5411" y="-119.5" font-family="Helvetica,sans-Serif" font-size="10.00" fill="#000000">exception</text>
</g>
<!-- Node20&#45;&gt;Node22 -->
<g id="edge25" class="edge">
<title>Node20&#45;&gt;Node22</title>
<path fill="none" stroke="#191970" d="M564.1277,-168.2455C575.8716,-159.814 593.061,-147.4729 606.7293,-137.6598"/>
<polygon fill="#191970" stroke="#191970" points="609.0283,-140.3179 615.1103,-131.6427 604.9458,-134.6316 609.0283,-140.3179"/>
</g>
</g>
</svg>
        <g id="navigator" transform="translate(0 0)" fill="#404254">
                <rect fill="#f2f5e9" fill-opacity="0.5" stroke="#606060" stroke-width=".5" x="0" y="0" width="60" height="60"/>
                <use id="zoomplus" xlink:href="#zoomPlus" x="17" y="9" onmousedown="handleZoom(evt,'in')"/>
                <use id="zoomminus" xlink:href="#zoomMin" x="42" y="9" onmousedown="handleZoom(evt,'out')"/>
                <use id="reset" xlink:href="#resetDef" x="30" y="36" onmousedown="handleReset()"/>
                <g id="arrowUp" xlink:href="#dirArrow" transform="translate(30 24)" onmousedown="handlePan(0,-1)">
                  <use xlink:href="#rim" fill="#404040">
                        <set attributeName="fill" to="#808080" begin="arrowUp.mouseover" end="arrowUp.mouseout"/>
                  </use>
                  <path fill="none" stroke="white" stroke-width="1.5" d="M0,-3.0v7 M-2.5,-0.5L0,-3.0L2.5,-0.5"/>
                </g>
                <g id="arrowRight" xlink:href="#dirArrow" transform="rotate(90) translate(36 -43)" onmousedown="handlePan(1,0)">
                  <use xlink:href="#rim" fill="#404040">
                        <set attributeName="fill" to="#808080" begin="arrowRight.mouseover" end="arrowRight.mouseout"/>
                  </use>
                  <path fill="none" stroke="white" stroke-width="1.5" d="M0,-3.0v7 M-2.5,-0.5L0,-3.0L2.5,-0.5"/>
                </g>
                <g id="arrowDown" xlink:href="#dirArrow" transform="rotate(180) translate(-30 -48)" onmousedown="handlePan(0,1)">
                  <use xlink:href="#rim" fill="#404040">
                        <set attributeName="fill" to="#808080" begin="arrowDown.mouseover" end="arrowDown.mouseout"/>
                  </use>
                  <path fill="none" stroke="white" stroke-width="1.5" d="M0,-3.0v7 M-2.5,-0.5L0,-3.0L2.5,-0.5"/>
                </g>
                <g id="arrowLeft" xlink:href="#dirArrow" transform="rotate(270) translate(-36 17)" onmousedown="handlePan(-1,0)">
                  <use xlink:href="#rim" fill="#404040">
                        <set attributeName="fill" to="#808080" begin="arrowLeft.mouseover" end="arrowLeft.mouseout"/>
                  </use>
                  <path fill="none" stroke="white" stroke-width="1.5" d="M0,-3.0v7 M-2.5,-0.5L0,-3.0L2.5,-0.5"/>
                </g>
        </g>
        <svg viewBox="0 0 15 15" width="100%" height="30px" preserveAspectRatio="xMaxYMin meet">
         <g id="arrow_out" transform="scale(0.3 0.3)">
          <a xlink:href="Randomizer_8hxx__incl_org.svg" target="_base">
           <rect id="button" ry="5" rx="5" y="6" x="6" height="38" width="38"
                fill="#f2f5e9" fill-opacity="0.5" stroke="#606060" stroke-width="1.0"/>
           <path id="arrow"
             d="M 11.500037,31.436501 C 11.940474,20.09759 22.043105,11.32322 32.158766,21.979434 L 37.068811,17.246167 C 37.068811,17.246167 37.088388,32 37.088388,32 L 22.160133,31.978069 C 22.160133,31.978069 26.997745,27.140456 26.997745,27.140456 C 18.528582,18.264221 13.291696,25.230495 11.500037,31.436501 z"
             style="fill:#404040;"/>
          </a>
         </g>
        </svg>
</svg>
