<?xml version="1.0" encoding="UTF-8" standalone="no"?>
<!DOCTYPE svg PUBLIC "-//W3C//DTD SVG 1.1//EN"
 "http://www.w3.org/Graphics/SVG/1.1/DTD/svg11.dtd">
<!-- Generated by graphviz version 2.40.1 (20161225.0304)
 -->
<!-- Title: src/util/Range.hxx Pages: 1 -->
<svg width="306pt" height="140pt"
 viewBox="0.00 0.00 305.50 140.00" xmlns="http://www.w3.org/2000/svg" xmlns:xlink="http://www.w3.org/1999/xlink">
<g id="graph0" class="graph" transform="scale(1 1) rotate(0) translate(4 136)">
<title>src/util/Range.hxx</title>
<!-- Node0 -->
<g id="node1" class="node">
<title>Node0</title>
<polygon fill="#bfbfbf" stroke="#000000" points="100,-112.5 100,-131.5 204,-131.5 204,-112.5 100,-112.5"/>
<text text-anchor="middle" x="152" y="-119.5" font-family="Helvetica,sans-Serif" font-size="10.00" fill="#000000">src/util/Range.hxx</text>
</g>
<!-- Node1 -->
<g id="node2" class="node">
<title>Node1</title>
<polygon fill="none" stroke="#bfbfbf" points="36.5,-56.5 36.5,-75.5 89.5,-75.5 89.5,-56.5 36.5,-56.5"/>
<text text-anchor="middle" x="63" y="-63.5" font-family="Helvetica,sans-Serif" font-size="10.00" fill="#000000">iterator</text>
</g>
<!-- Node0&#45;&gt;Node1 -->
<g id="edge1" class="edge">
<title>Node0&#45;&gt;Node1</title>
<path fill="none" stroke="#191970" d="M136.4974,-112.2455C122.842,-103.6534 102.7343,-91.0014 87.0011,-81.1018"/>
<polygon fill="#191970" stroke="#191970" points="88.6529,-78.006 78.325,-75.6427 84.9249,-83.9307 88.6529,-78.006"/>
</g>
<!-- Node2 -->
<g id="node3" class="node">
<title>Node2</title>
<g id="a_node3"><a xlink:href="Meta_8hxx.html" target="_top" xlink:title="../util/Meta.hxx">
<polygon fill="none" stroke="#000000" points="107.5,-56.5 107.5,-75.5 196.5,-75.5 196.5,-56.5 107.5,-56.5"/>
<text text-anchor="middle" x="152" y="-63.5" font-family="Helvetica,sans-Serif" font-size="10.00" fill="#000000">../util/Meta.hxx</text>
</a>
</g>
</g>
<!-- Node0&#45;&gt;Node2 -->
<g id="edge2" class="edge">
<title>Node0&#45;&gt;Node2</title>
<path fill="none" stroke="#191970" d="M152,-112.2455C152,-104.9382 152,-94.6944 152,-85.7046"/>
<polygon fill="#191970" stroke="#191970" points="155.5001,-85.6426 152,-75.6427 148.5001,-85.6427 155.5001,-85.6426"/>
</g>
<!-- Node7 -->
<g id="node8" class="node">
<title>Node7</title>
<g id="a_node8"><a xlink:href="Range_8inl_8hxx.html" target="_top" xlink:title="Range.inl.hxx">
<polygon fill="none" stroke="#000000" points="214.5,-56.5 214.5,-75.5 297.5,-75.5 297.5,-56.5 214.5,-56.5"/>
<text text-anchor="middle" x="256" y="-63.5" font-family="Helvetica,sans-Serif" font-size="10.00" fill="#000000">Range.inl.hxx</text>
</a>
</g>
</g>
<!-- Node0&#45;&gt;Node7 -->
<g id="edge7" class="edge">
<title>Node0&#45;&gt;Node7</title>
<path fill="none" stroke="#191970" d="M170.1154,-112.2455C186.445,-103.4527 210.671,-90.4079 229.2339,-80.4125"/>
<polygon fill="#191970" stroke="#191970" points="230.9468,-83.4654 238.0922,-75.6427 227.6281,-77.3021 230.9468,-83.4654"/>
</g>
<!-- Node3 -->
<g id="node4" class="node">
<title>Node3</title>
<polygon fill="none" stroke="#bfbfbf" points="0,-.5 0,-19.5 60,-19.5 60,-.5 0,-.5"/>
<text text-anchor="middle" x="30" y="-7.5" font-family="Helvetica,sans-Serif" font-size="10.00" fill="#000000">iostream</text>
</g>
<!-- Node2&#45;&gt;Node3 -->
<g id="edge3" class="edge">
<title>Node2&#45;&gt;Node3</title>
<path fill="none" stroke="#191970" d="M131.0275,-56.3733C111.4433,-47.3838 82.0039,-33.8706 59.949,-23.7471"/>
<polygon fill="#191970" stroke="#191970" points="61.2473,-20.4919 50.6989,-19.5011 58.3271,-26.8538 61.2473,-20.4919"/>
</g>
<!-- Node4 -->
<g id="node5" class="node">
<title>Node4</title>
<polygon fill="none" stroke="#bfbfbf" points="78.5,-.5 78.5,-19.5 147.5,-19.5 147.5,-.5 78.5,-.5"/>
<text text-anchor="middle" x="113" y="-7.5" font-family="Helvetica,sans-Serif" font-size="10.00" fill="#000000">type_traits</text>
</g>
<!-- Node2&#45;&gt;Node4 -->
<g id="edge4" class="edge">
<title>Node2&#45;&gt;Node4</title>
<path fill="none" stroke="#191970" d="M145.2067,-56.2455C139.7822,-48.4564 132.0339,-37.3308 125.4967,-27.9439"/>
<polygon fill="#191970" stroke="#191970" points="128.3025,-25.8485 119.7154,-19.6427 122.5583,-29.849 128.3025,-25.8485"/>
</g>
<!-- Node5 -->
<g id="node6" class="node">
<title>Node5</title>
<polygon fill="none" stroke="#bfbfbf" points="165.5,-.5 165.5,-19.5 216.5,-19.5 216.5,-.5 165.5,-.5"/>
<text text-anchor="middle" x="191" y="-7.5" font-family="Helvetica,sans-Serif" font-size="10.00" fill="#000000">variant</text>
</g>
<!-- Node2&#45;&gt;Node5 -->
<g id="edge5" class="edge">
<title>Node2&#45;&gt;Node5</title>
<path fill="none" stroke="#191970" d="M158.7933,-56.2455C164.2178,-48.4564 171.9661,-37.3308 178.5033,-27.9439"/>
<polygon fill="#191970" stroke="#191970" points="181.4417,-29.849 184.2846,-19.6427 175.6975,-25.8485 181.4417,-29.849"/>
</g>
<!-- Node6 -->
<g id="node7" class="node">
<title>Node6</title>
<polygon fill="none" stroke="#bfbfbf" points="234.5,-.5 234.5,-19.5 275.5,-19.5 275.5,-.5 234.5,-.5"/>
<text text-anchor="middle" x="255" y="-7.5" font-family="Helvetica,sans-Serif" font-size="10.00" fill="#000000">tuple</text>
</g>
<!-- Node2&#45;&gt;Node6 -->
<g id="edge6" class="edge">
<title>Node2&#45;&gt;Node6</title>
<path fill="none" stroke="#191970" d="M169.9412,-56.2455C186.04,-47.4928 209.8879,-34.527 228.2391,-24.5496"/>
<polygon fill="#191970" stroke="#191970" points="230.1507,-27.4942 237.2644,-19.6427 226.8071,-21.3444 230.1507,-27.4942"/>
</g>
</g>
</svg>
