<?xml version="1.0" encoding="UTF-8" standalone="no"?>
<!DOCTYPE svg PUBLIC "-//W3C//DTD SVG 1.1//EN"
 "http://www.w3.org/Graphics/SVG/1.1/DTD/svg11.dtd">
<!-- Generated by graphviz version 2.40.1 (20161225.0304)
 -->
<!-- Title: operator== Pages: 1 -->
<svg width="198pt" height="66pt"
 viewBox="0.00 0.00 198.00 66.00" xmlns="http://www.w3.org/2000/svg" xmlns:xlink="http://www.w3.org/1999/xlink">
<g id="graph0" class="graph" transform="scale(1 1) rotate(0) translate(4 62)">
<title>operator==</title>
<!-- Node0 -->
<g id="node1" class="node">
<title>Node0</title>
<polygon fill="#bfbfbf" stroke="#000000" points="0,-19.5 0,-38.5 74,-38.5 74,-19.5 0,-19.5"/>
<text text-anchor="middle" x="37" y="-26.5" font-family="Helvetica,sans-Serif" font-size="10.00" fill="#000000">operator==</text>
</g>
<!-- Node1 -->
<g id="node2" class="node">
<title>Node1</title>
<g id="a_node2"><a xlink:href="classRange.html#a1016865083aff5a67af566a8cf276f0e" target="_top" xlink:title="Range::begin">
<polygon fill="none" stroke="#000000" points="110,-38.5 110,-57.5 190,-57.5 190,-38.5 110,-38.5"/>
<text text-anchor="middle" x="150" y="-45.5" font-family="Helvetica,sans-Serif" font-size="10.00" fill="#000000">Range::begin</text>
</a>
</g>
</g>
<!-- Node0&#45;&gt;Node1 -->
<g id="edge1" class="edge">
<title>Node0&#45;&gt;Node1</title>
<path fill="none" stroke="#191970" d="M74.0004,-35.2213C82.2353,-36.6059 91.1001,-38.0965 99.7658,-39.5535"/>
<polygon fill="#191970" stroke="#191970" points="99.3555,-43.0336 109.7975,-41.2403 100.5163,-36.1305 99.3555,-43.0336"/>
</g>
<!-- Node2 -->
<g id="node3" class="node">
<title>Node2</title>
<g id="a_node3"><a xlink:href="classRange.html#a99cc7f9fe23bb3465a50b2aa4352a058" target="_top" xlink:title="Range::end">
<polygon fill="none" stroke="#000000" points="114.5,-.5 114.5,-19.5 185.5,-19.5 185.5,-.5 114.5,-.5"/>
<text text-anchor="middle" x="150" y="-7.5" font-family="Helvetica,sans-Serif" font-size="10.00" fill="#000000">Range::end</text>
</a>
</g>
</g>
<!-- Node0&#45;&gt;Node2 -->
<g id="edge2" class="edge">
<title>Node0&#45;&gt;Node2</title>
<path fill="none" stroke="#191970" d="M74.0004,-22.7787C83.7519,-21.1391 94.3867,-19.3509 104.5283,-17.6457"/>
<polygon fill="#191970" stroke="#191970" points="105.1733,-21.0865 114.4545,-15.9767 104.0125,-14.1834 105.1733,-21.0865"/>
</g>
</g>
</svg>
