<?xml version="1.0" encoding="UTF-8" standalone="no"?>
<!DOCTYPE svg PUBLIC "-//W3C//DTD SVG 1.1//EN"
 "http://www.w3.org/Graphics/SVG/1.1/DTD/svg11.dtd">
<!-- Generated by graphviz version 2.40.1 (20161225.0304)
 -->
<!-- Title: src/util/Range.inl.hxx Pages: 1 -->
<svg width="3661pt" height="375pt"
 viewBox="0.00 0.00 3661.00 375.00" xmlns="http://www.w3.org/2000/svg" xmlns:xlink="http://www.w3.org/1999/xlink">
<g id="graph0" class="graph" transform="scale(1 1) rotate(0) translate(4 371)">
<title>src/util/Range.inl.hxx</title>
<!-- Node1 -->
<g id="node1" class="node">
<title>Node1</title>
<polygon fill="#bfbfbf" stroke="#000000" points="474,-347.5 474,-366.5 593,-366.5 593,-347.5 474,-347.5"/>
<text text-anchor="middle" x="533.5" y="-354.5" font-family="Helvetica,sans-Serif" font-size="10.00" fill="#000000">src/util/Range.inl.hxx</text>
</g>
<!-- Node2 -->
<g id="node2" class="node">
<title>Node2</title>
<g id="a_node2"><a xlink:href="Range_8hxx.html" target="_top" xlink:title="src/util/Range.hxx">
<polygon fill="none" stroke="#000000" points="481.5,-291.5 481.5,-310.5 585.5,-310.5 585.5,-291.5 481.5,-291.5"/>
<text text-anchor="middle" x="533.5" y="-298.5" font-family="Helvetica,sans-Serif" font-size="10.00" fill="#000000">src/util/Range.hxx</text>
</a>
</g>
</g>
<!-- Node1&#45;&gt;Node2 -->
<g id="edge1" class="edge">
<title>Node1&#45;&gt;Node2</title>
<path fill="none" stroke="#191970" d="M533.5,-337.1575C533.5,-328.155 533.5,-317.9199 533.5,-310.6427"/>
<polygon fill="#191970" stroke="#191970" points="530.0001,-337.2455 533.5,-347.2455 537.0001,-337.2456 530.0001,-337.2455"/>
</g>
<!-- Node3 -->
<g id="node3" class="node">
<title>Node3</title>
<g id="a_node3"><a xlink:href="iLayout_8hxx.html" target="_top" xlink:title="src/layout/iLayout.hxx">
<polygon fill="none" stroke="#000000" points="426,-235.5 426,-254.5 551,-254.5 551,-235.5 426,-235.5"/>
<text text-anchor="middle" x="488.5" y="-242.5" font-family="Helvetica,sans-Serif" font-size="10.00" fill="#000000">src/layout/iLayout.hxx</text>
</a>
</g>
</g>
<!-- Node2&#45;&gt;Node3 -->
<g id="edge2" class="edge">
<title>Node2&#45;&gt;Node3</title>
<path fill="none" stroke="#191970" d="M519.2054,-283.2112C511.6004,-273.7472 502.5462,-262.4797 496.2486,-254.6427"/>
<polygon fill="#191970" stroke="#191970" points="516.6694,-285.6428 525.6616,-291.2455 522.1259,-281.2581 516.6694,-285.6428"/>
</g>
<!-- Node15 -->
<g id="node15" class="node">
<title>Node15</title>
<g id="a_node15"><a xlink:href="PixelBuffer_8hxx.html" target="_top" xlink:title="src/util/PixelBuffer.hxx">
<polygon fill="none" stroke="#000000" points="1908.5,-179.5 1908.5,-198.5 2034.5,-198.5 2034.5,-179.5 1908.5,-179.5"/>
<text text-anchor="middle" x="1971.5" y="-186.5" font-family="Helvetica,sans-Serif" font-size="10.00" fill="#000000">src/util/PixelBuffer.hxx</text>
</a>
</g>
</g>
<!-- Node2&#45;&gt;Node15 -->
<g id="edge15" class="edge">
<title>Node2&#45;&gt;Node15</title>
<path fill="none" stroke="#191970" d="M595.6506,-296.1593C831.6645,-277.7772 1671.0195,-212.4032 1908.4906,-193.9075"/>
<polygon fill="#191970" stroke="#191970" points="595.2267,-292.6817 585.5287,-296.9477 595.7703,-299.6605 595.2267,-292.6817"/>
</g>
<!-- Node4 -->
<g id="node4" class="node">
<title>Node4</title>
<g id="a_node4"><a xlink:href="iActivity_8hxx.html" target="_top" xlink:title="src/activity/iActivity.hxx">
<polygon fill="none" stroke="#000000" points="421.5,-179.5 421.5,-198.5 555.5,-198.5 555.5,-179.5 421.5,-179.5"/>
<text text-anchor="middle" x="488.5" y="-186.5" font-family="Helvetica,sans-Serif" font-size="10.00" fill="#000000">src/activity/iActivity.hxx</text>
</a>
</g>
</g>
<!-- Node3&#45;&gt;Node4 -->
<g id="edge3" class="edge">
<title>Node3&#45;&gt;Node4</title>
<path fill="none" stroke="#191970" d="M488.5,-225.1575C488.5,-216.155 488.5,-205.9199 488.5,-198.6427"/>
<polygon fill="#191970" stroke="#191970" points="485.0001,-225.2455 488.5,-235.2455 492.0001,-225.2456 485.0001,-225.2455"/>
</g>
<!-- Node14 -->
<g id="node14" class="node">
<title>Node14</title>
<g id="a_node14"><a xlink:href="iLayout_8cxx.html" target="_top" xlink:title="src/layout/iLayout.cxx">
<polygon fill="none" stroke="#000000" points="279.5,-179.5 279.5,-198.5 403.5,-198.5 403.5,-179.5 279.5,-179.5"/>
<text text-anchor="middle" x="341.5" y="-186.5" font-family="Helvetica,sans-Serif" font-size="10.00" fill="#000000">src/layout/iLayout.cxx</text>
</a>
</g>
</g>
<!-- Node3&#45;&gt;Node14 -->
<g id="edge14" class="edge">
<title>Node3&#45;&gt;Node14</title>
<path fill="none" stroke="#191970" d="M453.8206,-231.7888C426.9802,-221.5639 390.453,-207.6488 366.4404,-198.5011"/>
<polygon fill="#191970" stroke="#191970" points="452.6389,-235.0839 463.2298,-235.3733 455.1309,-228.5425 452.6389,-235.0839"/>
</g>
<!-- Node5 -->
<g id="node5" class="node">
<title>Node5</title>
<g id="a_node5"><a xlink:href="iActivity_8cxx.html" target="_top" xlink:title="src/activity/iActivity.cxx">
<polygon fill="none" stroke="#000000" points="0,-62 0,-81 133,-81 133,-62 0,-62"/>
<text text-anchor="middle" x="66.5" y="-69" font-family="Helvetica,sans-Serif" font-size="10.00" fill="#000000">src/activity/iActivity.cxx</text>
</a>
</g>
</g>
<!-- Node4&#45;&gt;Node5 -->
<g id="edge4" class="edge">
<title>Node4&#45;&gt;Node5</title>
<path fill="none" stroke="#191970" d="M444.5277,-176.7565C360.0725,-153.2412 176.8044,-102.2127 100.7006,-81.0227"/>
<polygon fill="#191970" stroke="#191970" points="443.751,-180.1734 454.3234,-179.484 445.6287,-173.4299 443.751,-180.1734"/>
</g>
<!-- Node6 -->
<g id="node6" class="node">
<title>Node6</title>
<g id="a_node6"><a xlink:href="Window_8hxx.html" target="_top" xlink:title="src/view/Window.hxx">
<polygon fill="none" stroke="#000000" points="429,-123.5 429,-142.5 548,-142.5 548,-123.5 429,-123.5"/>
<text text-anchor="middle" x="488.5" y="-130.5" font-family="Helvetica,sans-Serif" font-size="10.00" fill="#000000">src/view/Window.hxx</text>
</a>
</g>
</g>
<!-- Node4&#45;&gt;Node6 -->
<g id="edge5" class="edge">
<title>Node4&#45;&gt;Node6</title>
<path fill="none" stroke="#191970" d="M488.5,-169.1575C488.5,-160.155 488.5,-149.9199 488.5,-142.6427"/>
<polygon fill="#191970" stroke="#191970" points="485.0001,-169.2455 488.5,-179.2455 492.0001,-169.2456 485.0001,-169.2455"/>
</g>
<!-- Node6&#45;&gt;Node5 -->
<g id="edge6" class="edge">
<title>Node6&#45;&gt;Node5</title>
<path fill="none" stroke="#191970" d="M418.8982,-125.1775C348.8772,-116.972 237.903,-103.0507 142.5,-87 132.142,-85.2574 121.0405,-83.1377 110.6102,-81.0326"/>
<polygon fill="#191970" stroke="#191970" points="418.5873,-128.6649 428.9253,-126.3462 419.3978,-121.7119 418.5873,-128.6649"/>
</g>
<!-- Node7 -->
<g id="node7" class="node">
<title>Node7</title>
<g id="a_node7"><a xlink:href="Camera_8cxx.html" target="_top" xlink:title="src/engine/basics/Camera.cxx">
<polygon fill="none" stroke="#000000" points="253.5,-62 253.5,-81 415.5,-81 415.5,-62 253.5,-62"/>
<text text-anchor="middle" x="334.5" y="-69" font-family="Helvetica,sans-Serif" font-size="10.00" fill="#000000">src/engine/basics/Camera.cxx</text>
</a>
</g>
</g>
<!-- Node6&#45;&gt;Node7 -->
<g id="edge7" class="edge">
<title>Node6&#45;&gt;Node7</title>
<path fill="none" stroke="#191970" d="M455.065,-119.6477C425.9041,-108.0023 384.3188,-91.3952 358.3935,-81.0419"/>
<polygon fill="#191970" stroke="#191970" points="453.8526,-122.9323 464.4375,-123.3906 456.4487,-116.4315 453.8526,-122.9323"/>
</g>
<!-- Node8 -->
<g id="node8" class="node">
<title>Node8</title>
<g id="a_node8"><a xlink:href="Map_8cxx.html" target="_top" xlink:title="src/engine/Map.cxx">
<polygon fill="none" stroke="#000000" points="433.5,-62 433.5,-81 543.5,-81 543.5,-62 433.5,-62"/>
<text text-anchor="middle" x="488.5" y="-69" font-family="Helvetica,sans-Serif" font-size="10.00" fill="#000000">src/engine/Map.cxx</text>
</a>
</g>
</g>
<!-- Node6&#45;&gt;Node8 -->
<g id="edge8" class="edge">
<title>Node6&#45;&gt;Node8</title>
<path fill="none" stroke="#191970" d="M488.5,-113.2462C488.5,-102.5519 488.5,-89.814 488.5,-81.2449"/>
<polygon fill="#191970" stroke="#191970" points="485.0001,-113.3906 488.5,-123.3906 492.0001,-113.3907 485.0001,-113.3906"/>
</g>
<!-- Node9 -->
<g id="node9" class="node">
<title>Node9</title>
<g id="a_node9"><a xlink:href="WindowManager_8cxx.html" target="_top" xlink:title="src/engine/WindowManager.cxx">
<polygon fill="none" stroke="#000000" points="561.5,-62 561.5,-81 731.5,-81 731.5,-62 561.5,-62"/>
<text text-anchor="middle" x="646.5" y="-69" font-family="Helvetica,sans-Serif" font-size="10.00" fill="#000000">src/engine/WindowManager.cxx</text>
</a>
</g>
</g>
<!-- Node6&#45;&gt;Node9 -->
<g id="edge9" class="edge">
<title>Node6&#45;&gt;Node9</title>
<path fill="none" stroke="#191970" d="M522.8034,-119.6477C552.7218,-108.0023 595.3872,-91.3952 621.9859,-81.0419"/>
<polygon fill="#191970" stroke="#191970" points="521.2369,-116.5016 513.1875,-123.3906 523.776,-123.0249 521.2369,-116.5016"/>
</g>
<!-- Node10 -->
<g id="node10" class="node">
<title>Node10</title>
<g id="a_node10"><a xlink:href="Game_8hxx.html" target="_top" xlink:title="src/Game.hxx">
<polygon fill="none" stroke="#000000" points="151.5,-62 151.5,-81 235.5,-81 235.5,-62 151.5,-62"/>
<text text-anchor="middle" x="193.5" y="-69" font-family="Helvetica,sans-Serif" font-size="10.00" fill="#000000">src/Game.hxx</text>
</a>
</g>
</g>
<!-- Node6&#45;&gt;Node10 -->
<g id="edge10" class="edge">
<title>Node6&#45;&gt;Node10</title>
<path fill="none" stroke="#191970" d="M419.0719,-121.9788C370.0078,-113.6877 302.8579,-101.3241 244.5,-87 237.4899,-85.2794 230.017,-83.1683 223.0142,-81.0645"/>
<polygon fill="#191970" stroke="#191970" points="418.5052,-125.4326 428.9462,-123.6337 419.6623,-118.5288 418.5052,-125.4326"/>
</g>
<!-- Node13 -->
<g id="node13" class="node">
<title>Node13</title>
<g id="a_node13"><a xlink:href="Window_8cxx.html" target="_top" xlink:title="src/view/Window.cxx">
<polygon fill="none" stroke="#000000" points="750,-62 750,-81 869,-81 869,-62 750,-62"/>
<text text-anchor="middle" x="809.5" y="-69" font-family="Helvetica,sans-Serif" font-size="10.00" fill="#000000">src/view/Window.cxx</text>
</a>
</g>
</g>
<!-- Node6&#45;&gt;Node13 -->
<g id="edge13" class="edge">
<title>Node6&#45;&gt;Node13</title>
<path fill="none" stroke="#191970" d="M554.5659,-121.6926C605.4807,-112.7966 677.5818,-99.804 740.5,-87 749.5233,-85.1637 759.1819,-83.073 768.3289,-81.0346"/>
<polygon fill="#191970" stroke="#191970" points="553.9253,-118.2514 544.6744,-123.416 555.1268,-125.1476 553.9253,-118.2514"/>
</g>
<!-- Node11 -->
<g id="node11" class="node">
<title>Node11</title>
<g id="a_node11"><a xlink:href="Game_8cxx.html" target="_top" xlink:title="src/Game.cxx">
<polygon fill="none" stroke="#000000" points="1552,-.5 1552,-19.5 1635,-19.5 1635,-.5 1552,-.5"/>
<text text-anchor="middle" x="1593.5" y="-7.5" font-family="Helvetica,sans-Serif" font-size="10.00" fill="#000000">src/Game.cxx</text>
</a>
</g>
</g>
<!-- Node10&#45;&gt;Node11 -->
<g id="edge11" class="edge">
<title>Node10&#45;&gt;Node11</title>
<path fill="none" stroke="#191970" d="M229.9291,-59.1789C234.7827,-57.9066 239.7301,-56.7921 244.5,-56 375.9787,-34.1653 1339.1307,-14.8104 1551.953,-10.7716"/>
<polygon fill="#191970" stroke="#191970" points="228.8407,-55.8496 220.1847,-61.9591 230.7613,-62.581 228.8407,-55.8496"/>
</g>
<!-- Node12 -->
<g id="node12" class="node">
<title>Node12</title>
<g id="a_node12"><a xlink:href="main_8cxx.html" target="_top" xlink:title="src/main.cxx">
<polygon fill="none" stroke="#000000" points="154,-.5 154,-19.5 233,-19.5 233,-.5 154,-.5"/>
<text text-anchor="middle" x="193.5" y="-7.5" font-family="Helvetica,sans-Serif" font-size="10.00" fill="#000000">src/main.cxx</text>
</a>
</g>
</g>
<!-- Node10&#45;&gt;Node12 -->
<g id="edge12" class="edge">
<title>Node10&#45;&gt;Node12</title>
<path fill="none" stroke="#191970" d="M193.5,-51.7462C193.5,-41.0519 193.5,-28.314 193.5,-19.7449"/>
<polygon fill="#191970" stroke="#191970" points="190.0001,-51.8906 193.5,-61.8906 197.0001,-51.8907 190.0001,-51.8906"/>
</g>
<!-- Node15&#45;&gt;Node6 -->
<g id="edge16" class="edge">
<title>Node15&#45;&gt;Node6</title>
<path fill="none" stroke="#191970" d="M1897.8938,-186.2205C1640.4169,-176.4979 783.0903,-144.1241 548.3627,-135.2605"/>
<polygon fill="#191970" stroke="#191970" points="1898.1268,-189.7317 1908.2518,-186.6117 1898.391,-182.7367 1898.1268,-189.7317"/>
</g>
<!-- Node16 -->
<g id="node16" class="node">
<title>Node16</title>
<g id="a_node16"><a xlink:href="Filesystem_8hxx.html" target="_top" xlink:title="src/util/Filesystem.hxx">
<polygon fill="none" stroke="#000000" points="1908.5,-123.5 1908.5,-142.5 2034.5,-142.5 2034.5,-123.5 1908.5,-123.5"/>
<text text-anchor="middle" x="1971.5" y="-130.5" font-family="Helvetica,sans-Serif" font-size="10.00" fill="#000000">src/util/Filesystem.hxx</text>
</a>
</g>
</g>
<!-- Node15&#45;&gt;Node16 -->
<g id="edge17" class="edge">
<title>Node15&#45;&gt;Node16</title>
<path fill="none" stroke="#191970" d="M1971.5,-169.1575C1971.5,-160.155 1971.5,-149.9199 1971.5,-142.6427"/>
<polygon fill="#191970" stroke="#191970" points="1968.0001,-169.2455 1971.5,-179.2455 1975.0001,-169.2456 1968.0001,-169.2455"/>
</g>
<!-- Node32 -->
<g id="node32" class="node">
<title>Node32</title>
<g id="a_node32"><a xlink:href="CursorView_8cxx.html" target="_top" xlink:title="src/view/CursorView.cxx">
<polygon fill="none" stroke="#000000" points="3518,-62 3518,-81 3653,-81 3653,-62 3518,-62"/>
<text text-anchor="middle" x="3585.5" y="-69" font-family="Helvetica,sans-Serif" font-size="10.00" fill="#000000">src/view/CursorView.cxx</text>
</a>
</g>
</g>
<!-- Node15&#45;&gt;Node32 -->
<g id="edge39" class="edge">
<title>Node15&#45;&gt;Node32</title>
<path fill="none" stroke="#191970" d="M1995.4857,-173.8552C2025.2177,-155.222 2073.1293,-125.703 2082.5,-123 2234.8928,-79.042 3351.9092,-104.9167 3509.5,-87 3521.2743,-85.6614 3533.9342,-83.4115 3545.4796,-81.0351"/>
<polygon fill="#191970" stroke="#191970" points="1993.5102,-170.9629 1986.905,-179.2467 1997.2344,-176.89 1993.5102,-170.9629"/>
</g>
<!-- Node33 -->
<g id="node33" class="node">
<title>Node33</title>
<g id="a_node33"><a xlink:href="PixelBuffer_8cxx.html" target="_top" xlink:title="src/util/PixelBuffer.cxx">
<polygon fill="none" stroke="#000000" points="2091,-123.5 2091,-142.5 2216,-142.5 2216,-123.5 2091,-123.5"/>
<text text-anchor="middle" x="2153.5" y="-130.5" font-family="Helvetica,sans-Serif" font-size="10.00" fill="#000000">src/util/PixelBuffer.cxx</text>
</a>
</g>
</g>
<!-- Node15&#45;&gt;Node33 -->
<g id="edge38" class="edge">
<title>Node15&#45;&gt;Node33</title>
<path fill="none" stroke="#191970" d="M2012.6986,-176.3235C2046.0758,-166.0536 2092.3699,-151.8093 2122.6214,-142.5011"/>
<polygon fill="#191970" stroke="#191970" points="2011.3154,-173.0871 2002.7869,-179.3733 2013.374,-179.7776 2011.3154,-173.0871"/>
</g>
<!-- Node16&#45;&gt;Node8 -->
<g id="edge20" class="edge">
<title>Node16&#45;&gt;Node8</title>
<path fill="none" stroke="#191970" d="M1898.1677,-132.6091C1646.1286,-130.9548 816.4376,-122.8521 552.5,-87 542.5311,-85.6459 531.8533,-83.3912 522.132,-81.015"/>
<polygon fill="#191970" stroke="#191970" points="1898.2902,-136.1099 1908.3125,-132.6742 1898.3352,-129.11 1898.2902,-136.1099"/>
</g>
<!-- Node16&#45;&gt;Node9 -->
<g id="edge25" class="edge">
<title>Node16&#45;&gt;Node9</title>
<path fill="none" stroke="#191970" d="M1898.0807,-131.4729C1668.6679,-126.5092 967.0941,-109.8238 740.5,-87 726.3474,-85.5745 711.0953,-83.3575 697.0796,-81.0417"/>
<polygon fill="#191970" stroke="#191970" points="1898.2474,-134.9772 1908.3205,-131.6935 1898.3982,-127.9789 1898.2474,-134.9772"/>
</g>
<!-- Node16&#45;&gt;Node11 -->
<g id="edge26" class="edge">
<title>Node16&#45;&gt;Node11</title>
<path fill="none" stroke="#191970" d="M2045.1521,-123.2999C2046.2755,-123.196 2047.392,-123.0959 2048.5,-123 2094.3167,-119.035 2843.6966,-120.218 2875.5,-87 2885.0282,-77.048 2885.0661,-65.9155 2875.5,-56 2853.4528,-33.1475 1852.6845,-14.4955 1635.0051,-10.7046"/>
<polygon fill="#191970" stroke="#191970" points="2044.5028,-119.8474 2034.9025,-124.3288 2045.2021,-126.8124 2044.5028,-119.8474"/>
</g>
<!-- Node16&#45;&gt;Node13 -->
<g id="edge37" class="edge">
<title>Node16&#45;&gt;Node13</title>
<path fill="none" stroke="#191970" d="M1898.3157,-131.6614C1686.5403,-127.5118 1075.6268,-113.5209 877.5,-87 867.0589,-85.6024 855.8608,-83.3645 845.6263,-81.019"/>
<polygon fill="#191970" stroke="#191970" points="1898.3296,-135.1622 1908.3958,-131.8574 1898.4658,-128.1635 1898.3296,-135.1622"/>
</g>
<!-- Node17 -->
<g id="node17" class="node">
<title>Node17</title>
<g id="a_node17"><a xlink:href="Settings_8cxx.html" target="_top" xlink:title="src/engine/basics/Settings.cxx">
<polygon fill="none" stroke="#000000" points="2922.5,-62 2922.5,-81 3086.5,-81 3086.5,-62 2922.5,-62"/>
<text text-anchor="middle" x="3004.5" y="-69" font-family="Helvetica,sans-Serif" font-size="10.00" fill="#000000">src/engine/basics/Settings.cxx</text>
</a>
</g>
</g>
<!-- Node16&#45;&gt;Node17 -->
<g id="edge18" class="edge">
<title>Node16&#45;&gt;Node17</title>
<path fill="none" stroke="#191970" d="M2045.1519,-123.2973C2046.2753,-123.1942 2047.3919,-123.095 2048.5,-123 2429.6598,-90.3344 2527.8909,-125.556 2908.5,-87 2922.7771,-85.5537 2938.1568,-83.3591 2952.3329,-81.0725"/>
<polygon fill="#191970" stroke="#191970" points="2044.5047,-119.8444 2034.9017,-124.3204 2045.1999,-126.8098 2044.5047,-119.8444"/>
</g>
<!-- Node18 -->
<g id="node18" class="node">
<title>Node18</title>
<g id="a_node18"><a xlink:href="TerrainGenerator_8cxx.html" target="_top" xlink:title="src/engine/map/TerrainGenerator.cxx">
<polygon fill="none" stroke="#000000" points="3104.5,-62 3104.5,-81 3300.5,-81 3300.5,-62 3104.5,-62"/>
<text text-anchor="middle" x="3202.5" y="-69" font-family="Helvetica,sans-Serif" font-size="10.00" fill="#000000">src/engine/map/TerrainGenerator.cxx</text>
</a>
</g>
</g>
<!-- Node16&#45;&gt;Node18 -->
<g id="edge19" class="edge">
<title>Node16&#45;&gt;Node18</title>
<path fill="none" stroke="#191970" d="M2045.1509,-123.2857C2046.2746,-123.1862 2047.3916,-123.0908 2048.5,-123 2512.553,-84.9748 2631.7393,-128.4377 3095.5,-87 3111.5784,-85.5634 3128.9295,-83.3427 3144.8837,-81.027"/>
<polygon fill="#191970" stroke="#191970" points="2044.5128,-119.8311 2034.8986,-124.2827 2045.1904,-126.7983 2044.5128,-119.8311"/>
</g>
<!-- Node19 -->
<g id="node19" class="node">
<title>Node19</title>
<g id="a_node19"><a xlink:href="ResourcesManager_8cxx.html" target="_top" xlink:title="src/engine/ResourcesManager.cxx">
<polygon fill="none" stroke="#000000" points="3319,-62 3319,-81 3500,-81 3500,-62 3319,-62"/>
<text text-anchor="middle" x="3409.5" y="-69" font-family="Helvetica,sans-Serif" font-size="10.00" fill="#000000">src/engine/ResourcesManager.cxx</text>
</a>
</g>
</g>
<!-- Node16&#45;&gt;Node19 -->
<g id="edge21" class="edge">
<title>Node16&#45;&gt;Node19</title>
<path fill="none" stroke="#191970" d="M2045.1502,-123.2766C2046.2741,-123.1799 2047.3913,-123.0876 2048.5,-123 2607.431,-78.84 2751.1552,-138.0394 3309.5,-87 3324.7211,-85.6086 3341.1459,-83.3728 3356.1985,-81.0272"/>
<polygon fill="#191970" stroke="#191970" points="2044.5193,-119.8208 2034.8962,-124.2533 2045.183,-126.7892 2044.5193,-119.8208"/>
</g>
<!-- Node20 -->
<g id="node20" class="node">
<title>Node20</title>
<g id="a_node20"><a xlink:href="TileManager_8cxx.html" target="_top" xlink:title="src/engine/TileManager.cxx">
<polygon fill="none" stroke="#000000" points="887,-62 887,-81 1036,-81 1036,-62 887,-62"/>
<text text-anchor="middle" x="961.5" y="-69" font-family="Helvetica,sans-Serif" font-size="10.00" fill="#000000">src/engine/TileManager.cxx</text>
</a>
</g>
</g>
<!-- Node16&#45;&gt;Node20 -->
<g id="edge22" class="edge">
<title>Node16&#45;&gt;Node20</title>
<path fill="none" stroke="#191970" d="M1898.3194,-130.6479C1709.5451,-124.3751 1209.3996,-106.3987 1044.5,-87 1032.1253,-85.5443 1018.8179,-83.3464 1006.5614,-81.0598"/>
<polygon fill="#191970" stroke="#191970" points="1898.3085,-134.1494 1908.4188,-130.9822 1898.5401,-127.1532 1898.3085,-134.1494"/>
</g>
<!-- Node21 -->
<g id="node21" class="node">
<title>Node21</title>
<g id="a_node21"><a xlink:href="Text_8cxx.html" target="_top" xlink:title="src/engine/ui/widgets\l/Text.cxx">
<polygon fill="none" stroke="#000000" points="1053.5,-56.5 1053.5,-86.5 1173.5,-86.5 1173.5,-56.5 1053.5,-56.5"/>
<text text-anchor="start" x="1061.5" y="-74.5" font-family="Helvetica,sans-Serif" font-size="10.00" fill="#000000">src/engine/ui/widgets</text>
<text text-anchor="middle" x="1113.5" y="-63.5" font-family="Helvetica,sans-Serif" font-size="10.00" fill="#000000">/Text.cxx</text>
</a>
</g>
</g>
<!-- Node16&#45;&gt;Node21 -->
<g id="edge23" class="edge">
<title>Node16&#45;&gt;Node21</title>
<path fill="none" stroke="#191970" d="M1898.3891,-130.2615C1730.1391,-123.712 1319.485,-106.2487 1182.5,-87 1179.582,-86.59 1176.6047,-86.1206 1173.6049,-85.6066"/>
<polygon fill="#191970" stroke="#191970" points="1898.2644,-133.7592 1908.3925,-130.6491 1898.5355,-126.7644 1898.2644,-133.7592"/>
</g>
<!-- Node22 -->
<g id="node22" class="node">
<title>Node22</title>
<g id="a_node22"><a xlink:href="UIManager_8cxx.html" target="_top" xlink:title="src/engine/UIManager.cxx">
<polygon fill="none" stroke="#000000" points="1191.5,-62 1191.5,-81 1333.5,-81 1333.5,-62 1191.5,-62"/>
<text text-anchor="middle" x="1262.5" y="-69" font-family="Helvetica,sans-Serif" font-size="10.00" fill="#000000">src/engine/UIManager.cxx</text>
</a>
</g>
</g>
<!-- Node16&#45;&gt;Node22 -->
<g id="edge24" class="edge">
<title>Node16&#45;&gt;Node22</title>
<path fill="none" stroke="#191970" d="M1897.9809,-130.447C1780.272,-125.7258 1542.4167,-113.5821 1342.5,-87 1330.8603,-85.4523 1318.3588,-83.2789 1306.7778,-81.0481"/>
<polygon fill="#191970" stroke="#191970" points="1898.1757,-133.9573 1908.306,-130.8543 1898.4517,-126.9627 1898.1757,-133.9573"/>
</g>
<!-- Node23 -->
<g id="node23" class="node">
<title>Node23</title>
<g id="a_node23"><a xlink:href="SDLRenderer_8cxx.html" target="_top" xlink:title="src/renderer/SDLRenderer.cxx">
<polygon fill="none" stroke="#000000" points="1351.5,-62 1351.5,-81 1511.5,-81 1511.5,-62 1351.5,-62"/>
<text text-anchor="middle" x="1431.5" y="-69" font-family="Helvetica,sans-Serif" font-size="10.00" fill="#000000">src/renderer/SDLRenderer.cxx</text>
</a>
</g>
</g>
<!-- Node16&#45;&gt;Node23 -->
<g id="edge27" class="edge">
<title>Node16&#45;&gt;Node23</title>
<path fill="none" stroke="#191970" d="M1898.3492,-127.0771C1809.1564,-119.4972 1653.9166,-105.1487 1521.5,-87 1509.0905,-85.2992 1495.7693,-83.172 1483.2809,-81.0436"/>
<polygon fill="#191970" stroke="#191970" points="1898.1029,-130.5687 1908.3621,-127.9232 1898.6923,-123.5936 1898.1029,-130.5687"/>
</g>
<!-- Node24 -->
<g id="node24" class="node">
<title>Node24</title>
<g id="a_node24"><a xlink:href="ScriptEngine_8cxx.html" target="_top" xlink:title="src/Scripting/ScriptEngine.cxx">
<polygon fill="none" stroke="#000000" points="1530,-62 1530,-81 1691,-81 1691,-62 1530,-62"/>
<text text-anchor="middle" x="1610.5" y="-69" font-family="Helvetica,sans-Serif" font-size="10.00" fill="#000000">src/Scripting/ScriptEngine.cxx</text>
</a>
</g>
</g>
<!-- Node16&#45;&gt;Node24 -->
<g id="edge28" class="edge">
<title>Node16&#45;&gt;Node24</title>
<path fill="none" stroke="#191970" d="M1905.2334,-121.7976C1850.3618,-112.5105 1770.3561,-98.9441 1700.5,-87 1689.2477,-85.0761 1677.2056,-83.0083 1665.7082,-81.0297"/>
<polygon fill="#191970" stroke="#191970" points="1904.7347,-125.2629 1915.1785,-123.4806 1905.9027,-118.361 1904.7347,-125.2629"/>
</g>
<!-- Node25 -->
<g id="node25" class="node">
<title>Node25</title>
<g id="a_node25"><a xlink:href="AudioMixer_8cxx.html" target="_top" xlink:title="src/services/AudioMixer.cxx">
<polygon fill="none" stroke="#000000" points="1709.5,-62 1709.5,-81 1861.5,-81 1861.5,-62 1709.5,-62"/>
<text text-anchor="middle" x="1785.5" y="-69" font-family="Helvetica,sans-Serif" font-size="10.00" fill="#000000">src/services/AudioMixer.cxx</text>
</a>
</g>
</g>
<!-- Node16&#45;&gt;Node25 -->
<g id="edge29" class="edge">
<title>Node16&#45;&gt;Node25</title>
<path fill="none" stroke="#191970" d="M1932.9413,-120.2507C1897.6499,-108.5818 1846.2153,-91.5752 1814.3584,-81.0419"/>
<polygon fill="#191970" stroke="#191970" points="1931.8443,-123.5743 1942.4375,-123.3906 1934.0418,-116.9282 1931.8443,-123.5743"/>
</g>
<!-- Node26 -->
<g id="node26" class="node">
<title>Node26</title>
<g id="a_node26"><a xlink:href="ResourceManager_8cxx.html" target="_top" xlink:title="src/services/ResourceManager.cxx">
<polygon fill="none" stroke="#000000" points="1880,-62 1880,-81 2063,-81 2063,-62 1880,-62"/>
<text text-anchor="middle" x="1971.5" y="-69" font-family="Helvetica,sans-Serif" font-size="10.00" fill="#000000">src/services/ResourceManager.cxx</text>
</a>
</g>
</g>
<!-- Node16&#45;&gt;Node26 -->
<g id="edge30" class="edge">
<title>Node16&#45;&gt;Node26</title>
<path fill="none" stroke="#191970" d="M1971.5,-113.2462C1971.5,-102.5519 1971.5,-89.814 1971.5,-81.2449"/>
<polygon fill="#191970" stroke="#191970" points="1968.0001,-113.3906 1971.5,-123.3906 1975.0001,-113.3907 1968.0001,-113.3906"/>
</g>
<!-- Node27 -->
<g id="node27" class="node">
<title>Node27</title>
<g id="a_node27"><a xlink:href="android_2Filesystem_8cxx.html" target="_top" xlink:title="src/util/android/Filesystem.cxx">
<polygon fill="none" stroke="#000000" points="2081,-62 2081,-81 2246,-81 2246,-62 2081,-62"/>
<text text-anchor="middle" x="2163.5" y="-69" font-family="Helvetica,sans-Serif" font-size="10.00" fill="#000000">src/util/android/Filesystem.cxx</text>
</a>
</g>
</g>
<!-- Node16&#45;&gt;Node27 -->
<g id="edge31" class="edge">
<title>Node16&#45;&gt;Node27</title>
<path fill="none" stroke="#191970" d="M2011.3026,-120.2507C2047.7324,-108.5818 2100.8262,-91.5752 2133.7107,-81.0419"/>
<polygon fill="#191970" stroke="#191970" points="2009.9557,-117.0069 2001.5,-123.3906 2012.0911,-123.6733 2009.9557,-117.0069"/>
</g>
<!-- Node28 -->
<g id="node28" class="node">
<title>Node28</title>
<g id="a_node28"><a xlink:href="desktop_2Filesystem_8cxx.html" target="_top" xlink:title="src/util/desktop/Filesystem.cxx">
<polygon fill="none" stroke="#000000" points="2264,-62 2264,-81 2431,-81 2431,-62 2264,-62"/>
<text text-anchor="middle" x="2347.5" y="-69" font-family="Helvetica,sans-Serif" font-size="10.00" fill="#000000">src/util/desktop/Filesystem.cxx</text>
</a>
</g>
</g>
<!-- Node16&#45;&gt;Node28 -->
<g id="edge32" class="edge">
<title>Node16&#45;&gt;Node28</title>
<path fill="none" stroke="#191970" d="M2041.1477,-121.8451C2098.6532,-112.6047 2182.3964,-99.0784 2255.5,-87 2267.0061,-85.0989 2279.3173,-83.0411 2291.0707,-81.0652"/>
<polygon fill="#191970" stroke="#191970" points="2040.3997,-118.4203 2031.0813,-123.462 2041.5098,-125.3318 2040.3997,-118.4203"/>
</g>
<!-- Node29 -->
<g id="node29" class="node">
<title>Node29</title>
<g id="a_node29"><a xlink:href="Filesystem_8cxx.html" target="_top" xlink:title="src/util/Filesystem.cxx">
<polygon fill="none" stroke="#000000" points="2449,-62 2449,-81 2574,-81 2574,-62 2449,-62"/>
<text text-anchor="middle" x="2511.5" y="-69" font-family="Helvetica,sans-Serif" font-size="10.00" fill="#000000">src/util/Filesystem.cxx</text>
</a>
</g>
</g>
<!-- Node16&#45;&gt;Node29 -->
<g id="edge33" class="edge">
<title>Node16&#45;&gt;Node29</title>
<path fill="none" stroke="#191970" d="M2044.6239,-123.4355C2045.9259,-123.2873 2047.2188,-123.142 2048.5,-123 2222.391,-103.7305 2267.5953,-113.7086 2440.5,-87 2450.7244,-85.4206 2461.6834,-83.2627 2471.8574,-81.059"/>
<polygon fill="#191970" stroke="#191970" points="2044.0334,-119.9807 2034.5089,-124.6212 2044.8484,-126.9331 2044.0334,-119.9807"/>
</g>
<!-- Node30 -->
<g id="node30" class="node">
<title>Node30</title>
<g id="a_node30"><a xlink:href="LOG_8cxx.html" target="_top" xlink:title="src/util/LOG.cxx">
<polygon fill="none" stroke="#000000" points="2592,-62 2592,-81 2685,-81 2685,-62 2592,-62"/>
<text text-anchor="middle" x="2638.5" y="-69" font-family="Helvetica,sans-Serif" font-size="10.00" fill="#000000">src/util/LOG.cxx</text>
</a>
</g>
</g>
<!-- Node16&#45;&gt;Node30 -->
<g id="edge34" class="edge">
<title>Node16&#45;&gt;Node30</title>
<path fill="none" stroke="#191970" d="M2045.1555,-123.3368C2046.2778,-123.2214 2047.3932,-123.109 2048.5,-123 2285.6681,-99.6426 2348.6579,-127.5398 2583.5,-87 2591.9073,-85.5487 2600.8729,-83.3232 2609.073,-81.0076"/>
<polygon fill="#191970" stroke="#191970" points="2044.4775,-119.8897 2034.9135,-124.4482 2045.2328,-126.8488 2044.4775,-119.8897"/>
</g>
<!-- Node31 -->
<g id="node31" class="node">
<title>Node31</title>
<g id="a_node31"><a xlink:href="macOS_2Filesystem_8cxx.html" target="_top" xlink:title="src/util/macOS/Filesystem.cxx">
<polygon fill="none" stroke="#000000" points="2703,-62 2703,-81 2866,-81 2866,-62 2703,-62"/>
<text text-anchor="middle" x="2784.5" y="-69" font-family="Helvetica,sans-Serif" font-size="10.00" fill="#000000">src/util/macOS/Filesystem.cxx</text>
</a>
</g>
</g>
<!-- Node16&#45;&gt;Node31 -->
<g id="edge35" class="edge">
<title>Node16&#45;&gt;Node31</title>
<path fill="none" stroke="#191970" d="M2045.1538,-123.3188C2046.2766,-123.209 2047.3926,-123.1026 2048.5,-123 2334.8297,-96.4651 2408.7809,-119.4561 2694.5,-87 2707.7331,-85.4968 2721.9719,-83.3112 2735.1317,-81.053"/>
<polygon fill="#191970" stroke="#191970" points="2044.4897,-119.8691 2034.908,-124.3901 2045.2177,-126.8311 2044.4897,-119.8691"/>
</g>
<!-- Node16&#45;&gt;Node32 -->
<g id="edge36" class="edge">
<title>Node16&#45;&gt;Node32</title>
<path fill="none" stroke="#191970" d="M2045.1497,-123.2705C2046.2738,-123.1757 2047.3912,-123.0854 2048.5,-123 2696.1113,-73.1058 2864.1056,-160.184 3509.5,-87 3521.2747,-85.6648 3533.9347,-83.416 3545.4801,-81.0395"/>
<polygon fill="#191970" stroke="#191970" points="2044.5236,-119.8138 2034.8947,-124.2335 2045.1781,-126.7832 2044.5236,-119.8138"/>
</g>
</g>
</svg>
