<?xml version="1.0" encoding="UTF-8" standalone="no"?>
<!DOCTYPE svg PUBLIC "-//W3C//DTD SVG 1.1//EN"
 "http://www.w3.org/Graphics/SVG/1.1/DTD/svg11.dtd">
<!-- Generated by graphviz version 2.40.1 (20161225.0304)
 -->
<!-- Title: src/services/ResourceManager.hxx Pages: 1 -->
<svg width="697pt" height="364pt"
 viewBox="0.00 0.00 697.00 364.00" xmlns="http://www.w3.org/2000/svg" xmlns:xlink="http://www.w3.org/1999/xlink">
<g id="graph0" class="graph" transform="scale(1 1) rotate(0) translate(4 360)">
<title>src/services/ResourceManager.hxx</title>
<!-- Node0 -->
<g id="node1" class="node">
<title>Node0</title>
<polygon fill="#bfbfbf" stroke="#000000" points="271,-336.5 271,-355.5 455,-355.5 455,-336.5 271,-336.5"/>
<text text-anchor="middle" x="363" y="-343.5" font-family="Helvetica,sans-Serif" font-size="10.00" fill="#000000">src/services/ResourceManager.hxx</text>
</g>
<!-- Node1 -->
<g id="node2" class="node">
<title>Node1</title>
<polygon fill="none" stroke="#bfbfbf" points="111.5,-280.5 111.5,-299.5 204.5,-299.5 204.5,-280.5 111.5,-280.5"/>
<text text-anchor="middle" x="158" y="-287.5" font-family="Helvetica,sans-Serif" font-size="10.00" fill="#000000">unordered_map</text>
</g>
<!-- Node0&#45;&gt;Node1 -->
<g id="edge1" class="edge">
<title>Node0&#45;&gt;Node1</title>
<path fill="none" stroke="#191970" d="M327.7592,-336.3733C293.0806,-326.9001 240.0117,-312.4032 202.4538,-302.1435"/>
<polygon fill="#191970" stroke="#191970" points="203.3498,-298.7601 192.7809,-299.5011 201.5051,-305.5126 203.3498,-298.7601"/>
</g>
<!-- Node2 -->
<g id="node3" class="node">
<title>Node2</title>
<polygon fill="none" stroke="#bfbfbf" points="0,-168.5 0,-187.5 44,-187.5 44,-168.5 0,-168.5"/>
<text text-anchor="middle" x="22" y="-175.5" font-family="Helvetica,sans-Serif" font-size="10.00" fill="#000000">string</text>
</g>
<!-- Node0&#45;&gt;Node2 -->
<g id="edge2" class="edge">
<title>Node0&#45;&gt;Node2</title>
<path fill="none" stroke="#191970" d="M343.6893,-336.4862C286.6173,-308.3686 118.4919,-225.5385 50.761,-192.1696"/>
<polygon fill="#191970" stroke="#191970" points="52.0388,-188.8975 41.5215,-187.6177 48.9452,-195.1768 52.0388,-188.8975"/>
</g>
<!-- Node3 -->
<g id="node4" class="node">
<title>Node3</title>
<g id="a_node4"><a xlink:href="GameService_8hxx.html" target="_top" xlink:title="../GameService.hxx">
<polygon fill="none" stroke="#000000" points="307,-280.5 307,-299.5 419,-299.5 419,-280.5 307,-280.5"/>
<text text-anchor="middle" x="363" y="-287.5" font-family="Helvetica,sans-Serif" font-size="10.00" fill="#000000">../GameService.hxx</text>
</a>
</g>
</g>
<!-- Node0&#45;&gt;Node3 -->
<g id="edge3" class="edge">
<title>Node0&#45;&gt;Node3</title>
<path fill="none" stroke="#191970" d="M363,-336.2455C363,-328.9382 363,-318.6944 363,-309.7046"/>
<polygon fill="#191970" stroke="#191970" points="366.5001,-309.6426 363,-299.6427 359.5001,-309.6427 366.5001,-309.6426"/>
</g>
<!-- Node6 -->
<g id="node7" class="node">
<title>Node6</title>
<g id="a_node7"><a xlink:href="Meta_8hxx.html" target="_top" xlink:title="util/Meta.hxx">
<polygon fill="none" stroke="#000000" points="449,-56.5 449,-75.5 529,-75.5 529,-56.5 449,-56.5"/>
<text text-anchor="middle" x="489" y="-63.5" font-family="Helvetica,sans-Serif" font-size="10.00" fill="#000000">util/Meta.hxx</text>
</a>
</g>
</g>
<!-- Node0&#45;&gt;Node6 -->
<g id="edge21" class="edge">
<title>Node0&#45;&gt;Node6</title>
<path fill="none" stroke="#191970" d="M403.7887,-336.4547C451.1927,-322.6536 523,-292.1507 523,-234 523,-234 523,-234 523,-178 523,-143.9677 508.4485,-106.5293 498.3849,-84.7067"/>
<polygon fill="#191970" stroke="#191970" points="501.4939,-83.0954 494.0168,-75.5891 495.181,-86.1198 501.4939,-83.0954"/>
</g>
<!-- Node18 -->
<g id="node19" class="node">
<title>Node18</title>
<g id="a_node19"><a xlink:href="ResourceManager_8inl_8hxx.html" target="_top" xlink:title="ResourceManager.inl.hxx">
<polygon fill="none" stroke="#000000" points="551,-280.5 551,-299.5 689,-299.5 689,-280.5 551,-280.5"/>
<text text-anchor="middle" x="620" y="-287.5" font-family="Helvetica,sans-Serif" font-size="10.00" fill="#000000">ResourceManager.inl.hxx</text>
</a>
</g>
</g>
<!-- Node0&#45;&gt;Node18 -->
<g id="edge22" class="edge">
<title>Node0&#45;&gt;Node18</title>
<path fill="none" stroke="#191970" d="M406.8879,-336.4369C450.9638,-326.8328 518.9481,-312.0191 566.2358,-301.7152"/>
<polygon fill="#191970" stroke="#191970" points="567.2676,-305.0725 576.2932,-299.5237 565.7772,-298.233 567.2676,-305.0725"/>
</g>
<!-- Node4 -->
<g id="node5" class="node">
<title>Node4</title>
<g id="a_node5"><a xlink:href="Events_8hxx.html" target="_top" xlink:title="Events.hxx">
<polygon fill="none" stroke="#000000" points="261.5,-224.5 261.5,-243.5 332.5,-243.5 332.5,-224.5 261.5,-224.5"/>
<text text-anchor="middle" x="297" y="-231.5" font-family="Helvetica,sans-Serif" font-size="10.00" fill="#000000">Events.hxx</text>
</a>
</g>
</g>
<!-- Node3&#45;&gt;Node4 -->
<g id="edge4" class="edge">
<title>Node3&#45;&gt;Node4</title>
<path fill="none" stroke="#191970" d="M351.5037,-280.2455C341.7558,-271.9746 327.5741,-259.9416 316.1202,-250.2232"/>
<polygon fill="#191970" stroke="#191970" points="318.2541,-247.4437 308.3646,-243.6427 313.7253,-252.7813 318.2541,-247.4437"/>
</g>
<!-- Node17 -->
<g id="node18" class="node">
<title>Node17</title>
<g id="a_node18"><a xlink:href="GameService_8inl_8hxx.html" target="_top" xlink:title="GameService.inl.hxx">
<polygon fill="none" stroke="#000000" points="351,-224.5 351,-243.5 469,-243.5 469,-224.5 351,-224.5"/>
<text text-anchor="middle" x="410" y="-231.5" font-family="Helvetica,sans-Serif" font-size="10.00" fill="#000000">GameService.inl.hxx</text>
</a>
</g>
</g>
<!-- Node3&#45;&gt;Node17 -->
<g id="edge20" class="edge">
<title>Node3&#45;&gt;Node17</title>
<path fill="none" stroke="#191970" d="M371.1868,-280.2455C377.8589,-272.2958 387.4479,-260.8706 395.4253,-251.3656"/>
<polygon fill="#191970" stroke="#191970" points="398.1592,-253.5525 401.907,-243.6427 392.7974,-249.0524 398.1592,-253.5525"/>
</g>
<!-- Node4&#45;&gt;Node2 -->
<g id="edge5" class="edge">
<title>Node4&#45;&gt;Node2</title>
<path fill="none" stroke="#191970" d="M261.4992,-226.8581C256.6289,-225.8905 251.6918,-224.916 247,-224 163.0743,-207.6149 141.2665,-207.4598 58,-188 56.7209,-187.7011 55.4189,-187.3869 54.1057,-187.0617"/>
<polygon fill="#191970" stroke="#191970" points="54.5705,-183.5657 44.0106,-184.4247 52.8013,-190.3385 54.5705,-183.5657"/>
</g>
<!-- Node5 -->
<g id="node6" class="node">
<title>Node5</title>
<polygon fill="none" stroke="#bfbfbf" points="73,-56.5 73,-75.5 173,-75.5 173,-56.5 73,-56.5"/>
<text text-anchor="middle" x="123" y="-63.5" font-family="Helvetica,sans-Serif" font-size="10.00" fill="#000000">betterEnums.hxx</text>
</g>
<!-- Node4&#45;&gt;Node5 -->
<g id="edge6" class="edge">
<title>Node4&#45;&gt;Node5</title>
<path fill="none" stroke="#191970" d="M269.4031,-224.4532C218.0816,-206.0786 111.3102,-164.7201 91,-132 81.1194,-116.0822 93.1649,-96.6615 105.1978,-83.0217"/>
<polygon fill="#191970" stroke="#191970" points="107.7727,-85.3929 112.1153,-75.7289 102.694,-80.5756 107.7727,-85.3929"/>
</g>
<!-- Node4&#45;&gt;Node6 -->
<g id="edge7" class="edge">
<title>Node4&#45;&gt;Node6</title>
<path fill="none" stroke="#191970" d="M324.1168,-224.4349C361.2514,-210.0076 427.6778,-179.24 466,-132 476.8575,-118.6159 482.7471,-99.7673 485.8391,-85.6376"/>
<polygon fill="#191970" stroke="#191970" points="489.3347,-85.9893 487.7605,-75.5121 482.4574,-84.6842 489.3347,-85.9893"/>
</g>
<!-- Node11 -->
<g id="node12" class="node">
<title>Node11</title>
<g id="a_node12"><a xlink:href="UIEvents_8hxx.html" target="_top" xlink:title="events/UIEvents.hxx">
<polygon fill="none" stroke="#000000" points="238.5,-168.5 238.5,-187.5 355.5,-187.5 355.5,-168.5 238.5,-168.5"/>
<text text-anchor="middle" x="297" y="-175.5" font-family="Helvetica,sans-Serif" font-size="10.00" fill="#000000">events/UIEvents.hxx</text>
</a>
</g>
</g>
<!-- Node4&#45;&gt;Node11 -->
<g id="edge12" class="edge">
<title>Node4&#45;&gt;Node11</title>
<path fill="none" stroke="#191970" d="M297,-224.2455C297,-216.9382 297,-206.6944 297,-197.7046"/>
<polygon fill="#191970" stroke="#191970" points="300.5001,-197.6426 297,-187.6427 293.5001,-197.6427 300.5001,-197.6426"/>
</g>
<!-- Node7 -->
<g id="node8" class="node">
<title>Node7</title>
<polygon fill="none" stroke="#bfbfbf" points="337,-.5 337,-19.5 397,-19.5 397,-.5 337,-.5"/>
<text text-anchor="middle" x="367" y="-7.5" font-family="Helvetica,sans-Serif" font-size="10.00" fill="#000000">iostream</text>
</g>
<!-- Node6&#45;&gt;Node7 -->
<g id="edge8" class="edge">
<title>Node6&#45;&gt;Node7</title>
<path fill="none" stroke="#191970" d="M468.0275,-56.3733C448.4433,-47.3838 419.0039,-33.8706 396.949,-23.7471"/>
<polygon fill="#191970" stroke="#191970" points="398.2473,-20.4919 387.6989,-19.5011 395.3271,-26.8538 398.2473,-20.4919"/>
</g>
<!-- Node8 -->
<g id="node9" class="node">
<title>Node8</title>
<polygon fill="none" stroke="#bfbfbf" points="415.5,-.5 415.5,-19.5 484.5,-19.5 484.5,-.5 415.5,-.5"/>
<text text-anchor="middle" x="450" y="-7.5" font-family="Helvetica,sans-Serif" font-size="10.00" fill="#000000">type_traits</text>
</g>
<!-- Node6&#45;&gt;Node8 -->
<g id="edge9" class="edge">
<title>Node6&#45;&gt;Node8</title>
<path fill="none" stroke="#191970" d="M482.2067,-56.2455C476.7822,-48.4564 469.0339,-37.3308 462.4967,-27.9439"/>
<polygon fill="#191970" stroke="#191970" points="465.3025,-25.8485 456.7154,-19.6427 459.5583,-29.849 465.3025,-25.8485"/>
</g>
<!-- Node9 -->
<g id="node10" class="node">
<title>Node9</title>
<polygon fill="none" stroke="#bfbfbf" points="502.5,-.5 502.5,-19.5 553.5,-19.5 553.5,-.5 502.5,-.5"/>
<text text-anchor="middle" x="528" y="-7.5" font-family="Helvetica,sans-Serif" font-size="10.00" fill="#000000">variant</text>
</g>
<!-- Node6&#45;&gt;Node9 -->
<g id="edge10" class="edge">
<title>Node6&#45;&gt;Node9</title>
<path fill="none" stroke="#191970" d="M495.7933,-56.2455C501.2178,-48.4564 508.9661,-37.3308 515.5033,-27.9439"/>
<polygon fill="#191970" stroke="#191970" points="518.4417,-29.849 521.2846,-19.6427 512.6975,-25.8485 518.4417,-29.849"/>
</g>
<!-- Node10 -->
<g id="node11" class="node">
<title>Node10</title>
<polygon fill="none" stroke="#bfbfbf" points="571.5,-.5 571.5,-19.5 612.5,-19.5 612.5,-.5 571.5,-.5"/>
<text text-anchor="middle" x="592" y="-7.5" font-family="Helvetica,sans-Serif" font-size="10.00" fill="#000000">tuple</text>
</g>
<!-- Node6&#45;&gt;Node10 -->
<g id="edge11" class="edge">
<title>Node6&#45;&gt;Node10</title>
<path fill="none" stroke="#191970" d="M506.9412,-56.2455C523.04,-47.4928 546.8879,-34.527 565.2391,-24.5496"/>
<polygon fill="#191970" stroke="#191970" points="567.1507,-27.4942 574.2644,-19.6427 563.8071,-21.3444 567.1507,-27.4942"/>
</g>
<!-- Node12 -->
<g id="node13" class="node">
<title>Node12</title>
<polygon fill="none" stroke="#bfbfbf" points="264.5,-112.5 264.5,-131.5 329.5,-131.5 329.5,-112.5 264.5,-112.5"/>
<text text-anchor="middle" x="297" y="-119.5" font-family="Helvetica,sans-Serif" font-size="10.00" fill="#000000">functional</text>
</g>
<!-- Node11&#45;&gt;Node12 -->
<g id="edge13" class="edge">
<title>Node11&#45;&gt;Node12</title>
<path fill="none" stroke="#191970" d="M297,-168.2455C297,-160.9382 297,-150.6944 297,-141.7046"/>
<polygon fill="#191970" stroke="#191970" points="300.5001,-141.6426 297,-131.6427 293.5001,-141.6427 300.5001,-141.6426"/>
</g>
<!-- Node13 -->
<g id="node14" class="node">
<title>Node13</title>
<g id="a_node14"><a xlink:href="ActivityType_8hxx.html" target="_top" xlink:title="../activity/ActivityType.hxx">
<polygon fill="none" stroke="#000000" points="100,-112.5 100,-131.5 246,-131.5 246,-112.5 100,-112.5"/>
<text text-anchor="middle" x="173" y="-119.5" font-family="Helvetica,sans-Serif" font-size="10.00" fill="#000000">../activity/ActivityType.hxx</text>
</a>
</g>
</g>
<!-- Node11&#45;&gt;Node13 -->
<g id="edge14" class="edge">
<title>Node11&#45;&gt;Node13</title>
<path fill="none" stroke="#191970" d="M275.6836,-168.3733C255.7784,-159.3838 225.8564,-145.8706 203.44,-135.7471"/>
<polygon fill="#191970" stroke="#191970" points="204.5925,-132.4272 194.0382,-131.5011 201.7113,-138.8068 204.5925,-132.4272"/>
</g>
<!-- Node14 -->
<g id="node15" class="node">
<title>Node14</title>
<g id="a_node15"><a xlink:href="Observer_8hxx.html" target="_top" xlink:title="../util/Observer.hxx">
<polygon fill="none" stroke="#000000" points="347.5,-112.5 347.5,-131.5 456.5,-131.5 456.5,-112.5 347.5,-112.5"/>
<text text-anchor="middle" x="402" y="-119.5" font-family="Helvetica,sans-Serif" font-size="10.00" fill="#000000">../util/Observer.hxx</text>
</a>
</g>
</g>
<!-- Node11&#45;&gt;Node14 -->
<g id="edge16" class="edge">
<title>Node11&#45;&gt;Node14</title>
<path fill="none" stroke="#191970" d="M315.2896,-168.2455C331.7762,-159.4527 356.2352,-146.4079 374.9765,-136.4125"/>
<polygon fill="#191970" stroke="#191970" points="376.7435,-139.4368 383.92,-131.6427 373.4494,-133.2604 376.7435,-139.4368"/>
</g>
<!-- Node13&#45;&gt;Node5 -->
<g id="edge15" class="edge">
<title>Node13&#45;&gt;Node5</title>
<path fill="none" stroke="#191970" d="M164.2907,-112.2455C157.1927,-104.2958 146.9916,-92.8706 138.505,-83.3656"/>
<polygon fill="#191970" stroke="#191970" points="140.8805,-80.771 131.6095,-75.6427 135.6589,-85.4331 140.8805,-80.771"/>
</g>
<!-- Node14&#45;&gt;Node6 -->
<g id="edge19" class="edge">
<title>Node14&#45;&gt;Node6</title>
<path fill="none" stroke="#191970" d="M417.1542,-112.2455C430.5027,-103.6534 450.1586,-91.0014 465.5383,-81.1018"/>
<polygon fill="#191970" stroke="#191970" points="467.5051,-83.9982 474.0194,-75.6427 463.7164,-78.1121 467.5051,-83.9982"/>
</g>
<!-- Node15 -->
<g id="node16" class="node">
<title>Node15</title>
<polygon fill="none" stroke="#bfbfbf" points="307.5,-56.5 307.5,-75.5 354.5,-75.5 354.5,-56.5 307.5,-56.5"/>
<text text-anchor="middle" x="331" y="-63.5" font-family="Helvetica,sans-Serif" font-size="10.00" fill="#000000">vector</text>
</g>
<!-- Node14&#45;&gt;Node15 -->
<g id="edge17" class="edge">
<title>Node14&#45;&gt;Node15</title>
<path fill="none" stroke="#191970" d="M389.6327,-112.2455C379.0446,-103.8943 363.5936,-91.7076 351.2107,-81.9408"/>
<polygon fill="#191970" stroke="#191970" points="353.2447,-79.0875 343.2255,-75.6427 348.9097,-84.5837 353.2447,-79.0875"/>
</g>
<!-- Node16 -->
<g id="node17" class="node">
<title>Node16</title>
<polygon fill="none" stroke="#bfbfbf" points="373,-56.5 373,-75.5 431,-75.5 431,-56.5 373,-56.5"/>
<text text-anchor="middle" x="402" y="-63.5" font-family="Helvetica,sans-Serif" font-size="10.00" fill="#000000">memory</text>
</g>
<!-- Node14&#45;&gt;Node16 -->
<g id="edge18" class="edge">
<title>Node14&#45;&gt;Node16</title>
<path fill="none" stroke="#191970" d="M402,-112.2455C402,-104.9382 402,-94.6944 402,-85.7046"/>
<polygon fill="#191970" stroke="#191970" points="405.5001,-85.6426 402,-75.6427 398.5001,-85.6427 405.5001,-85.6426"/>
</g>
</g>
</svg>
