<?xml version="1.0" encoding="UTF-8" standalone="no"?>
<!DOCTYPE svg PUBLIC "-//W3C//DTD SVG 1.1//EN"
 "http://www.w3.org/Graphics/SVG/1.1/DTD/svg11.dtd">
<!-- Generated by graphviz version 2.40.1 (20161225.0304)
 -->
<!-- Title: src/engine/ResourcesManager.hxx Pages: 1 -->
<svg width="2613pt" height="486pt"
 viewBox="0.00 0.00 2612.50 486.00" xmlns="http://www.w3.org/2000/svg" xmlns:xlink="http://www.w3.org/1999/xlink">
<g id="graph0" class="graph" transform="scale(1 1) rotate(0) translate(4 482)">
<title>src/engine/ResourcesManager.hxx</title>
<!-- Node14 -->
<g id="node1" class="node">
<title>Node14</title>
<polygon fill="#bfbfbf" stroke="#000000" points="1887,-458.5 1887,-477.5 2069,-477.5 2069,-458.5 1887,-458.5"/>
<text text-anchor="middle" x="1978" y="-465.5" font-family="Helvetica,sans-Serif" font-size="10.00" fill="#000000">src/engine/ResourcesManager.hxx</text>
</g>
<!-- Node15 -->
<g id="node2" class="node">
<title>Node15</title>
<g id="a_node2"><a xlink:href="UIElement_8hxx.html" target="_top" xlink:title="src/engine/ui/basics\l/UIElement.hxx">
<polygon fill="none" stroke="#000000" points="915.5,-391.5 915.5,-421.5 1028.5,-421.5 1028.5,-391.5 915.5,-391.5"/>
<text text-anchor="start" x="923.5" y="-409.5" font-family="Helvetica,sans-Serif" font-size="10.00" fill="#000000">src/engine/ui/basics</text>
<text text-anchor="middle" x="972" y="-398.5" font-family="Helvetica,sans-Serif" font-size="10.00" fill="#000000">/UIElement.hxx</text>
</a>
</g>
</g>
<!-- Node14&#45;&gt;Node15 -->
<g id="edge1" class="edge">
<title>Node14&#45;&gt;Node15</title>
<path fill="none" stroke="#191970" d="M1876.8761,-461.818C1667.4331,-449.0141 1192.1149,-419.9563 1028.5444,-409.9567"/>
<polygon fill="#191970" stroke="#191970" points="1876.7549,-465.317 1886.9499,-462.4338 1877.1821,-458.3301 1876.7549,-465.317"/>
</g>
<!-- Node20 -->
<g id="node7" class="node">
<title>Node20</title>
<g id="a_node7"><a xlink:href="Game_8cxx.html" target="_top" xlink:title="src/Game.cxx">
<polygon fill="none" stroke="#000000" points="1240.5,-.5 1240.5,-19.5 1323.5,-19.5 1323.5,-.5 1240.5,-.5"/>
<text text-anchor="middle" x="1282" y="-7.5" font-family="Helvetica,sans-Serif" font-size="10.00" fill="#000000">src/Game.cxx</text>
</a>
</g>
</g>
<!-- Node14&#45;&gt;Node20 -->
<g id="edge61" class="edge">
<title>Node14&#45;&gt;Node20</title>
<path fill="none" stroke="#191970" d="M1925.5494,-455.9715C1892.0507,-447.2705 1852.7709,-434.8307 1841,-422 1815.4947,-394.1983 1821,-377.2287 1821,-339.5 1821,-339.5 1821,-339.5 1821,-138.5 1821,-36.4089 1450.4863,-15.2735 1323.8459,-11.0312"/>
<polygon fill="#191970" stroke="#191970" points="1924.7152,-459.3707 1935.2687,-458.4357 1926.4355,-452.5854 1924.7152,-459.3707"/>
</g>
<!-- Node23 -->
<g id="node10" class="node">
<title>Node23</title>
<g id="a_node10"><a xlink:href="UIManager_8cxx.html" target="_top" xlink:title="src/engine/UIManager.cxx">
<polygon fill="none" stroke="#000000" points="1189,-62 1189,-81 1331,-81 1331,-62 1189,-62"/>
<text text-anchor="middle" x="1260" y="-69" font-family="Helvetica,sans-Serif" font-size="10.00" fill="#000000">src/engine/UIManager.cxx</text>
</a>
</g>
</g>
<!-- Node14&#45;&gt;Node23 -->
<g id="edge60" class="edge">
<title>Node14&#45;&gt;Node23</title>
<path fill="none" stroke="#191970" d="M1908.9105,-456.5137C1868.1617,-448.418 1821.7577,-436.461 1807,-422 1779.7251,-395.2735 1783,-377.6867 1783,-339.5 1783,-339.5 1783,-339.5 1783,-205.5 1783,-113.2916 1474.0763,-83.667 1331.0784,-74.8933"/>
<polygon fill="#191970" stroke="#191970" points="1908.3711,-459.9741 1918.8538,-458.4367 1909.7003,-453.1015 1908.3711,-459.9741"/>
</g>
<!-- Node48 -->
<g id="node35" class="node">
<title>Node48</title>
<g id="a_node35"><a xlink:href="Engine_8cxx.html" target="_top" xlink:title="src/engine/Engine.cxx">
<polygon fill="none" stroke="#000000" points="1849.5,-397 1849.5,-416 1972.5,-416 1972.5,-397 1849.5,-397"/>
<text text-anchor="middle" x="1911" y="-404" font-family="Helvetica,sans-Serif" font-size="10.00" fill="#000000">src/engine/Engine.cxx</text>
</a>
</g>
</g>
<!-- Node14&#45;&gt;Node48 -->
<g id="edge55" class="edge">
<title>Node14&#45;&gt;Node48</title>
<path fill="none" stroke="#191970" d="M1960.0769,-451.5482C1947.8007,-440.2798 1931.9345,-425.716 1921.6163,-416.2449"/>
<polygon fill="#191970" stroke="#191970" points="1957.7975,-454.2068 1967.5313,-458.3906 1962.531,-449.0499 1957.7975,-454.2068"/>
</g>
<!-- Node49 -->
<g id="node36" class="node">
<title>Node49</title>
<g id="a_node36"><a xlink:href="Map_8cxx.html" target="_top" xlink:title="src/engine/Map.cxx">
<polygon fill="none" stroke="#000000" points="1991,-397 1991,-416 2101,-416 2101,-397 1991,-397"/>
<text text-anchor="middle" x="2046" y="-404" font-family="Helvetica,sans-Serif" font-size="10.00" fill="#000000">src/engine/Map.cxx</text>
</a>
</g>
</g>
<!-- Node14&#45;&gt;Node49 -->
<g id="edge56" class="edge">
<title>Node14&#45;&gt;Node49</title>
<path fill="none" stroke="#191970" d="M1996.1906,-451.5482C2008.65,-440.2798 2024.753,-425.716 2035.2252,-416.2449"/>
<polygon fill="#191970" stroke="#191970" points="1993.694,-449.0871 1988.625,-458.3906 1998.3894,-454.2787 1993.694,-449.0871"/>
</g>
<!-- Node50 -->
<g id="node37" class="node">
<title>Node50</title>
<g id="a_node37"><a xlink:href="ResourcesManager_8cxx.html" target="_top" xlink:title="src/engine/ResourcesManager.cxx">
<polygon fill="none" stroke="#000000" points="2119.5,-397 2119.5,-416 2300.5,-416 2300.5,-397 2119.5,-397"/>
<text text-anchor="middle" x="2210" y="-404" font-family="Helvetica,sans-Serif" font-size="10.00" fill="#000000">src/engine/ResourcesManager.cxx</text>
</a>
</g>
</g>
<!-- Node14&#45;&gt;Node50 -->
<g id="edge57" class="edge">
<title>Node14&#45;&gt;Node50</title>
<path fill="none" stroke="#191970" d="M2023.8691,-455.8407C2067.8968,-444.1696 2133.5027,-426.7784 2173.9201,-416.0643"/>
<polygon fill="#191970" stroke="#191970" points="2022.7647,-452.5125 2013.9954,-458.4581 2024.5584,-459.2788 2022.7647,-452.5125"/>
</g>
<!-- Node51 -->
<g id="node38" class="node">
<title>Node51</title>
<g id="a_node38"><a xlink:href="Sprite_8cxx.html" target="_top" xlink:title="src/engine/Sprite.cxx">
<polygon fill="none" stroke="#000000" points="2318.5,-397 2318.5,-416 2437.5,-416 2437.5,-397 2318.5,-397"/>
<text text-anchor="middle" x="2378" y="-404" font-family="Helvetica,sans-Serif" font-size="10.00" fill="#000000">src/engine/Sprite.cxx</text>
</a>
</g>
</g>
<!-- Node14&#45;&gt;Node51 -->
<g id="edge58" class="edge">
<title>Node14&#45;&gt;Node51</title>
<path fill="none" stroke="#191970" d="M2071.2776,-457.2633C2138.006,-449.0503 2229.8296,-436.6627 2310,-422 2319.4095,-420.2791 2329.4873,-418.1442 2338.9247,-416.0148"/>
<polygon fill="#191970" stroke="#191970" points="2070.7059,-453.8071 2061.2046,-458.4949 2071.5554,-460.7553 2070.7059,-453.8071"/>
</g>
<!-- Node52 -->
<g id="node39" class="node">
<title>Node52</title>
<g id="a_node39"><a xlink:href="TileManager_8cxx.html" target="_top" xlink:title="src/engine/TileManager.cxx">
<polygon fill="none" stroke="#000000" points="2455.5,-397 2455.5,-416 2604.5,-416 2604.5,-397 2455.5,-397"/>
<text text-anchor="middle" x="2530" y="-404" font-family="Helvetica,sans-Serif" font-size="10.00" fill="#000000">src/engine/TileManager.cxx</text>
</a>
</g>
</g>
<!-- Node14&#45;&gt;Node52 -->
<g id="edge59" class="edge">
<title>Node14&#45;&gt;Node52</title>
<path fill="none" stroke="#191970" d="M2079.2644,-460.6226C2174.4574,-453.0835 2320.7837,-439.9404 2447,-422 2458.6104,-420.3497 2471.0697,-418.2172 2482.7136,-416.065"/>
<polygon fill="#191970" stroke="#191970" points="2078.7607,-457.1513 2069.0658,-461.4243 2079.3094,-464.1297 2078.7607,-457.1513"/>
</g>
<!-- Node16 -->
<g id="node3" class="node">
<title>Node16</title>
<g id="a_node3"><a xlink:href="UIManager_8hxx.html" target="_top" xlink:title="src/engine/UIManager.hxx">
<polygon fill="none" stroke="#000000" points="832.5,-129 832.5,-148 975.5,-148 975.5,-129 832.5,-129"/>
<text text-anchor="middle" x="904" y="-136" font-family="Helvetica,sans-Serif" font-size="10.00" fill="#000000">src/engine/UIManager.hxx</text>
</a>
</g>
</g>
<!-- Node15&#45;&gt;Node16 -->
<g id="edge2" class="edge">
<title>Node15&#45;&gt;Node16</title>
<path fill="none" stroke="#191970" d="M1038.7122,-405.9995C1204.3411,-404.1442 1624.4423,-395.4581 1672,-355 1705.6142,-326.4038 1718.009,-289.3592 1688,-257 1651.8586,-218.0282 1262.6468,-233.5543 1211,-221 1176.7487,-212.6742 1171.5781,-200.7229 1138,-190 1078.7594,-171.082 1008.9072,-156.6962 961.0406,-148.0009"/>
<polygon fill="#191970" stroke="#191970" points="1038.6111,-402.5003 1028.6492,-406.1073 1038.6861,-409.4999 1038.6111,-402.5003"/>
</g>
<!-- Node24 -->
<g id="node11" class="node">
<title>Node24</title>
<g id="a_node11"><a xlink:href="Layout_8hxx.html" target="_top" xlink:title="src/engine/ui/basics\l/Layout.hxx">
<polygon fill="none" stroke="#000000" points="1220.5,-190.5 1220.5,-220.5 1333.5,-220.5 1333.5,-190.5 1220.5,-190.5"/>
<text text-anchor="start" x="1228.5" y="-208.5" font-family="Helvetica,sans-Serif" font-size="10.00" fill="#000000">src/engine/ui/basics</text>
<text text-anchor="middle" x="1277" y="-197.5" font-family="Helvetica,sans-Serif" font-size="10.00" fill="#000000">/Layout.hxx</text>
</a>
</g>
</g>
<!-- Node15&#45;&gt;Node24 -->
<g id="edge11" class="edge">
<title>Node15&#45;&gt;Node24</title>
<path fill="none" stroke="#191970" d="M1038.7784,-404.3567C1218.0418,-398.2807 1697.8776,-379.7669 1721,-355 1750.7233,-323.1628 1749.9699,-289.5243 1721,-257 1695.6447,-228.5338 1447.6195,-213.4251 1333.6963,-207.9396"/>
<polygon fill="#191970" stroke="#191970" points="1038.5604,-400.8619 1028.6838,-404.6964 1038.7959,-407.858 1038.5604,-400.8619"/>
</g>
<!-- Node25 -->
<g id="node12" class="node">
<title>Node25</title>
<g id="a_node12"><a xlink:href="ButtonGroup_8hxx.html" target="_top" xlink:title="src/engine/ui/basics\l/ButtonGroup.hxx">
<polygon fill="none" stroke="#000000" points="57.5,-190.5 57.5,-220.5 170.5,-220.5 170.5,-190.5 57.5,-190.5"/>
<text text-anchor="start" x="65.5" y="-208.5" font-family="Helvetica,sans-Serif" font-size="10.00" fill="#000000">src/engine/ui/basics</text>
<text text-anchor="middle" x="114" y="-197.5" font-family="Helvetica,sans-Serif" font-size="10.00" fill="#000000">/ButtonGroup.hxx</text>
</a>
</g>
</g>
<!-- Node15&#45;&gt;Node25 -->
<g id="edge14" class="edge">
<title>Node15&#45;&gt;Node25</title>
<path fill="none" stroke="#191970" d="M904.9839,-405.7577C754.9056,-403.4098 396.0463,-393.7889 282,-355 230.6502,-337.5351 220.1039,-324.5171 180,-288 157.2154,-267.2532 135.9118,-238.2068 123.9578,-220.6889"/>
<polygon fill="#191970" stroke="#191970" points="905.3711,-409.2638 915.4225,-405.9145 905.4763,-402.2646 905.3711,-409.2638"/>
</g>
<!-- Node26 -->
<g id="node13" class="node">
<title>Node26</title>
<g id="a_node13"><a xlink:href="IMenuGroup_8hxx.html" target="_top" xlink:title="src/engine/ui/menuGroups\l/IMenuGroup.hxx">
<polygon fill="none" stroke="#000000" points="0,-123.5 0,-153.5 144,-153.5 144,-123.5 0,-123.5"/>
<text text-anchor="start" x="8" y="-141.5" font-family="Helvetica,sans-Serif" font-size="10.00" fill="#000000">src/engine/ui/menuGroups</text>
<text text-anchor="middle" x="72" y="-130.5" font-family="Helvetica,sans-Serif" font-size="10.00" fill="#000000">/IMenuGroup.hxx</text>
</a>
</g>
</g>
<!-- Node15&#45;&gt;Node26 -->
<g id="edge49" class="edge">
<title>Node15&#45;&gt;Node26</title>
<path fill="none" stroke="#191970" d="M905.0976,-404.2056C732.3152,-397.9597 280.2258,-379.4685 217,-355 127.6041,-320.4036 89.7117,-307.3057 48,-221 37.2251,-198.7056 50.5152,-170.6354 61.1915,-153.654"/>
<polygon fill="#191970" stroke="#191970" points="905.2121,-407.7119 915.3313,-404.573 905.4633,-400.7164 905.2121,-407.7119"/>
</g>
<!-- Node27 -->
<g id="node14" class="node">
<title>Node27</title>
<g id="a_node14"><a xlink:href="Button_8hxx.html" target="_top" xlink:title="src/engine/ui/widgets\l/Button.hxx">
<polygon fill="none" stroke="#000000" points="189,-257.5 189,-287.5 309,-287.5 309,-257.5 189,-257.5"/>
<text text-anchor="start" x="197" y="-275.5" font-family="Helvetica,sans-Serif" font-size="10.00" fill="#000000">src/engine/ui/widgets</text>
<text text-anchor="middle" x="249" y="-264.5" font-family="Helvetica,sans-Serif" font-size="10.00" fill="#000000">/Button.hxx</text>
</a>
</g>
</g>
<!-- Node15&#45;&gt;Node27 -->
<g id="edge18" class="edge">
<title>Node15&#45;&gt;Node27</title>
<path fill="none" stroke="#191970" d="M904.9079,-403.9919C749.5107,-397.7822 374.2183,-380.3392 323,-355 292.8205,-340.0693 269.3218,-306.9994 257.4729,-287.5671"/>
<polygon fill="#191970" stroke="#191970" points="905.134,-407.5035 915.2647,-404.4021 905.4111,-400.509 905.134,-407.5035"/>
</g>
<!-- Node29 -->
<g id="node16" class="node">
<title>Node29</title>
<g id="a_node16"><a xlink:href="Text_8hxx.html" target="_top" xlink:title="src/engine/ui/widgets\l/Text.hxx">
<polygon fill="none" stroke="#000000" points="591,-324.5 591,-354.5 711,-354.5 711,-324.5 591,-324.5"/>
<text text-anchor="start" x="599" y="-342.5" font-family="Helvetica,sans-Serif" font-size="10.00" fill="#000000">src/engine/ui/widgets</text>
<text text-anchor="middle" x="651" y="-331.5" font-family="Helvetica,sans-Serif" font-size="10.00" fill="#000000">/Text.hxx</text>
</a>
</g>
</g>
<!-- Node15&#45;&gt;Node29 -->
<g id="edge22" class="edge">
<title>Node15&#45;&gt;Node29</title>
<path fill="none" stroke="#191970" d="M905.3226,-392.5829C848.1177,-380.6429 766.4078,-363.5882 711.1694,-352.0587"/>
<polygon fill="#191970" stroke="#191970" points="904.8464,-396.0589 915.3506,-394.676 906.2767,-389.2065 904.8464,-396.0589"/>
</g>
<!-- Node30 -->
<g id="node17" class="node">
<title>Node30</title>
<g id="a_node17"><a xlink:href="TextField_8hxx.html" target="_top" xlink:title="src/engine/ui/widgets\l/TextField.hxx">
<polygon fill="none" stroke="#000000" points="365,-257.5 365,-287.5 485,-287.5 485,-257.5 365,-257.5"/>
<text text-anchor="start" x="373" y="-275.5" font-family="Helvetica,sans-Serif" font-size="10.00" fill="#000000">src/engine/ui/widgets</text>
<text text-anchor="middle" x="425" y="-264.5" font-family="Helvetica,sans-Serif" font-size="10.00" fill="#000000">/TextField.hxx</text>
</a>
</g>
</g>
<!-- Node15&#45;&gt;Node30 -->
<g id="edge40" class="edge">
<title>Node15&#45;&gt;Node30</title>
<path fill="none" stroke="#191970" d="M905.073,-400.5258C809.94,-391.5459 640.6423,-373.6269 582,-355 531.0844,-338.8274 477.0694,-306.682 447.543,-287.6429"/>
<polygon fill="#191970" stroke="#191970" points="904.885,-404.0234 915.1678,-401.4714 905.5379,-397.0539 904.885,-404.0234"/>
</g>
<!-- Node31 -->
<g id="node18" class="node">
<title>Node31</title>
<g id="a_node18"><a xlink:href="Combobox_8hxx.html" target="_top" xlink:title="src/engine/ui/widgets\l/Combobox.hxx">
<polygon fill="none" stroke="#000000" points="365,-190.5 365,-220.5 485,-220.5 485,-190.5 365,-190.5"/>
<text text-anchor="start" x="373" y="-208.5" font-family="Helvetica,sans-Serif" font-size="10.00" fill="#000000">src/engine/ui/widgets</text>
<text text-anchor="middle" x="425" y="-197.5" font-family="Helvetica,sans-Serif" font-size="10.00" fill="#000000">/Combobox.hxx</text>
</a>
</g>
</g>
<!-- Node15&#45;&gt;Node31 -->
<g id="edge39" class="edge">
<title>Node15&#45;&gt;Node31</title>
<path fill="none" stroke="#191970" d="M905.123,-401.6324C794.9976,-393.1913 580.3747,-374.8304 507,-355 436.1221,-335.8444 396.0269,-349.5505 356,-288 348.4888,-276.4497 349.8241,-269.3161 356,-257 363.9065,-241.2327 379.1842,-229.0591 393.3579,-220.5161"/>
<polygon fill="#191970" stroke="#191970" points="904.887,-405.1244 915.1239,-402.3937 905.4184,-398.1446 904.887,-405.1244"/>
</g>
<!-- Node34 -->
<g id="node21" class="node">
<title>Node34</title>
<g id="a_node21"><a xlink:href="Tooltip_8hxx.html" target="_top" xlink:title="src/engine/ui/widgets\l/Tooltip.hxx">
<polygon fill="none" stroke="#000000" points="717,-257.5 717,-287.5 837,-287.5 837,-257.5 717,-257.5"/>
<text text-anchor="start" x="725" y="-275.5" font-family="Helvetica,sans-Serif" font-size="10.00" fill="#000000">src/engine/ui/widgets</text>
<text text-anchor="middle" x="777" y="-264.5" font-family="Helvetica,sans-Serif" font-size="10.00" fill="#000000">/Tooltip.hxx</text>
</a>
</g>
</g>
<!-- Node15&#45;&gt;Node34 -->
<g id="edge44" class="edge">
<title>Node15&#45;&gt;Node34</title>
<path fill="none" stroke="#191970" d="M905.5011,-390.7076C881.3181,-382.7427 854.8354,-371.227 834,-355 810.5133,-336.7082 792.971,-306.043 783.9111,-287.6961"/>
<polygon fill="#191970" stroke="#191970" points="904.7557,-394.1421 915.345,-393.8006 906.854,-387.4639 904.7557,-394.1421"/>
</g>
<!-- Node37 -->
<g id="node24" class="node">
<title>Node37</title>
<g id="a_node24"><a xlink:href="Checkbox_8hxx.html" target="_top" xlink:title="src/engine/ui/widgets\l/Checkbox.hxx">
<polygon fill="none" stroke="#000000" points="843,-324.5 843,-354.5 963,-354.5 963,-324.5 843,-324.5"/>
<text text-anchor="start" x="851" y="-342.5" font-family="Helvetica,sans-Serif" font-size="10.00" fill="#000000">src/engine/ui/widgets</text>
<text text-anchor="middle" x="903" y="-331.5" font-family="Helvetica,sans-Serif" font-size="10.00" fill="#000000">/Checkbox.hxx</text>
</a>
</g>
</g>
<!-- Node15&#45;&gt;Node37 -->
<g id="edge36" class="edge">
<title>Node15&#45;&gt;Node37</title>
<path fill="none" stroke="#191970" d="M949.046,-384.2113C939.0457,-374.5009 927.5824,-363.3698 918.5952,-354.6432"/>
<polygon fill="#191970" stroke="#191970" points="946.7303,-386.8413 956.3428,-391.2967 951.6068,-381.8193 946.7303,-386.8413"/>
</g>
<!-- Node39 -->
<g id="node26" class="node">
<title>Node39</title>
<g id="a_node26"><a xlink:href="Frame_8hxx.html" target="_top" xlink:title="src/engine/ui/widgets\l/Frame.hxx">
<polygon fill="none" stroke="#000000" points="981,-324.5 981,-354.5 1101,-354.5 1101,-324.5 981,-324.5"/>
<text text-anchor="start" x="989" y="-342.5" font-family="Helvetica,sans-Serif" font-size="10.00" fill="#000000">src/engine/ui/widgets</text>
<text text-anchor="middle" x="1041" y="-331.5" font-family="Helvetica,sans-Serif" font-size="10.00" fill="#000000">/Frame.hxx</text>
</a>
</g>
</g>
<!-- Node15&#45;&gt;Node39 -->
<g id="edge41" class="edge">
<title>Node15&#45;&gt;Node39</title>
<path fill="none" stroke="#191970" d="M994.954,-384.2113C1004.9543,-374.5009 1016.4176,-363.3698 1025.4048,-354.6432"/>
<polygon fill="#191970" stroke="#191970" points="992.3932,-381.8193 987.6572,-391.2967 997.2697,-386.8413 992.3932,-381.8193"/>
</g>
<!-- Node41 -->
<g id="node28" class="node">
<title>Node41</title>
<g id="a_node28"><a xlink:href="Slider_8hxx.html" target="_top" xlink:title="src/engine/ui/widgets\l/Slider.hxx">
<polygon fill="none" stroke="#000000" points="1389,-324.5 1389,-354.5 1509,-354.5 1509,-324.5 1389,-324.5"/>
<text text-anchor="start" x="1397" y="-342.5" font-family="Helvetica,sans-Serif" font-size="10.00" fill="#000000">src/engine/ui/widgets</text>
<text text-anchor="middle" x="1449" y="-331.5" font-family="Helvetica,sans-Serif" font-size="10.00" fill="#000000">/Slider.hxx</text>
</a>
</g>
</g>
<!-- Node15&#45;&gt;Node41 -->
<g id="edge45" class="edge">
<title>Node15&#45;&gt;Node41</title>
<path fill="none" stroke="#191970" d="M1038.5742,-399.9776C1119.4032,-391.6212 1259.719,-375.7075 1379,-355 1382.1886,-354.4465 1385.4515,-353.8455 1388.7408,-353.2124"/>
<polygon fill="#191970" stroke="#191970" points="1038.1261,-396.5051 1028.5359,-401.0082 1038.841,-403.4686 1038.1261,-396.5051"/>
</g>
<!-- Node43 -->
<g id="node30" class="node">
<title>Node43</title>
<g id="a_node30"><a xlink:href="UIElement_8cxx.html" target="_top" xlink:title="src/engine/ui/basics\l/UIElement.cxx">
<polygon fill="none" stroke="#000000" points="1257.5,-324.5 1257.5,-354.5 1370.5,-354.5 1370.5,-324.5 1257.5,-324.5"/>
<text text-anchor="start" x="1265.5" y="-342.5" font-family="Helvetica,sans-Serif" font-size="10.00" fill="#000000">src/engine/ui/basics</text>
<text text-anchor="middle" x="1314" y="-331.5" font-family="Helvetica,sans-Serif" font-size="10.00" fill="#000000">/UIElement.cxx</text>
</a>
</g>
</g>
<!-- Node15&#45;&gt;Node43 -->
<g id="edge48" class="edge">
<title>Node15&#45;&gt;Node43</title>
<path fill="none" stroke="#191970" d="M1038.857,-394.9169C1094.8589,-385.0008 1176.8294,-369.9888 1248,-355 1250.9945,-354.3693 1254.0616,-353.7069 1257.1555,-353.0256"/>
<polygon fill="#191970" stroke="#191970" points="1037.9502,-391.5228 1028.7109,-396.708 1039.1671,-398.4162 1037.9502,-391.5228"/>
</g>
<!-- Node44 -->
<g id="node31" class="node">
<title>Node44</title>
<g id="a_node31"><a xlink:href="Bar_8hxx.html" target="_top" xlink:title="src/engine/ui/widgets\l/Bar.hxx">
<polygon fill="none" stroke="#000000" points="1543,-324.5 1543,-354.5 1663,-354.5 1663,-324.5 1543,-324.5"/>
<text text-anchor="start" x="1551" y="-342.5" font-family="Helvetica,sans-Serif" font-size="10.00" fill="#000000">src/engine/ui/widgets</text>
<text text-anchor="middle" x="1603" y="-331.5" font-family="Helvetica,sans-Serif" font-size="10.00" fill="#000000">/Bar.hxx</text>
</a>
</g>
</g>
<!-- Node15&#45;&gt;Node44 -->
<g id="edge50" class="edge">
<title>Node15&#45;&gt;Node44</title>
<path fill="none" stroke="#191970" d="M1039.0512,-402.0485C1142.2547,-394.7748 1346.1145,-378.7331 1518,-355 1526.024,-353.8921 1534.445,-352.5619 1542.7383,-351.1525"/>
<polygon fill="#191970" stroke="#191970" points="1038.5111,-398.5776 1028.7796,-402.7668 1038.9995,-405.5606 1038.5111,-398.5776"/>
</g>
<!-- Node46 -->
<g id="node33" class="node">
<title>Node46</title>
<g id="a_node33"><a xlink:href="Image_8hxx.html" target="_top" xlink:title="src/engine/ui/widgets\l/Image.hxx">
<polygon fill="none" stroke="#000000" points="1119,-324.5 1119,-354.5 1239,-354.5 1239,-324.5 1119,-324.5"/>
<text text-anchor="start" x="1127" y="-342.5" font-family="Helvetica,sans-Serif" font-size="10.00" fill="#000000">src/engine/ui/widgets</text>
<text text-anchor="middle" x="1179" y="-331.5" font-family="Helvetica,sans-Serif" font-size="10.00" fill="#000000">/Image.hxx</text>
</a>
</g>
</g>
<!-- Node15&#45;&gt;Node46 -->
<g id="edge52" class="edge">
<title>Node15&#45;&gt;Node46</title>
<path fill="none" stroke="#191970" d="M1028.3043,-388.2759C1060.9281,-377.7165 1101.5125,-364.5805 1132.3425,-354.6017"/>
<polygon fill="#191970" stroke="#191970" points="1026.8911,-385.0545 1018.4548,-391.4639 1029.0467,-391.7143 1026.8911,-385.0545"/>
</g>
<!-- Node17 -->
<g id="node4" class="node">
<title>Node17</title>
<g id="a_node4"><a xlink:href="EventManager_8hxx.html" target="_top" xlink:title="src/engine/EventManager.hxx">
<polygon fill="none" stroke="#000000" points="825,-62 825,-81 985,-81 985,-62 825,-62"/>
<text text-anchor="middle" x="905" y="-69" font-family="Helvetica,sans-Serif" font-size="10.00" fill="#000000">src/engine/EventManager.hxx</text>
</a>
</g>
</g>
<!-- Node16&#45;&gt;Node17 -->
<g id="edge3" class="edge">
<title>Node16&#45;&gt;Node17</title>
<path fill="none" stroke="#191970" d="M904.2969,-118.6079C904.4819,-106.214 904.7115,-90.8263 904.857,-81.0817"/>
<polygon fill="#191970" stroke="#191970" points="900.793,-118.8494 904.1433,-128.9005 907.7922,-118.9539 900.793,-118.8494"/>
</g>
<!-- Node16&#45;&gt;Node20 -->
<g id="edge10" class="edge">
<title>Node16&#45;&gt;Node20</title>
<path fill="none" stroke="#191970" d="M930.1897,-123.9183C948.2428,-113.7683 972.7235,-99.8092 994,-87 1016.0779,-73.7084 1019.0407,-65.4895 1043,-56 1108.9995,-29.8596 1191.3034,-18.2179 1240.0885,-13.3031"/>
<polygon fill="#191970" stroke="#191970" points="928.398,-120.9102 921.386,-128.8526 931.8205,-127.0165 928.398,-120.9102"/>
</g>
<!-- Node21 -->
<g id="node8" class="node">
<title>Node21</title>
<g id="a_node8"><a xlink:href="ButtonGroup_8cxx.html" target="_top" xlink:title="src/engine/ui/basics\l/ButtonGroup.cxx">
<polygon fill="none" stroke="#000000" points="447.5,-56.5 447.5,-86.5 560.5,-86.5 560.5,-56.5 447.5,-56.5"/>
<text text-anchor="start" x="455.5" y="-74.5" font-family="Helvetica,sans-Serif" font-size="10.00" fill="#000000">src/engine/ui/basics</text>
<text text-anchor="middle" x="504" y="-63.5" font-family="Helvetica,sans-Serif" font-size="10.00" fill="#000000">/ButtonGroup.cxx</text>
</a>
</g>
</g>
<!-- Node16&#45;&gt;Node21 -->
<g id="edge7" class="edge">
<title>Node16&#45;&gt;Node21</title>
<path fill="none" stroke="#191970" d="M836.9872,-127.2754C759.5467,-114.3041 633.4603,-93.1846 560.6892,-80.9954"/>
<polygon fill="#191970" stroke="#191970" points="836.6737,-130.7715 847.1146,-128.9717 837.8302,-123.8677 836.6737,-130.7715"/>
</g>
<!-- Node22 -->
<g id="node9" class="node">
<title>Node22</title>
<g id="a_node9"><a xlink:href="Layout_8cxx.html" target="_top" xlink:title="src/engine/ui/basics\l/Layout.cxx">
<polygon fill="none" stroke="#000000" points="1052.5,-56.5 1052.5,-86.5 1165.5,-86.5 1165.5,-56.5 1052.5,-56.5"/>
<text text-anchor="start" x="1060.5" y="-74.5" font-family="Helvetica,sans-Serif" font-size="10.00" fill="#000000">src/engine/ui/basics</text>
<text text-anchor="middle" x="1109" y="-63.5" font-family="Helvetica,sans-Serif" font-size="10.00" fill="#000000">/Layout.cxx</text>
</a>
</g>
</g>
<!-- Node16&#45;&gt;Node22 -->
<g id="edge8" class="edge">
<title>Node16&#45;&gt;Node22</title>
<path fill="none" stroke="#191970" d="M943.0131,-125.7494C977.1999,-114.5761 1026.9301,-98.3229 1063.0379,-86.5218"/>
<polygon fill="#191970" stroke="#191970" points="941.7894,-122.4671 933.3715,-128.9005 943.9641,-129.1207 941.7894,-122.4671"/>
</g>
<!-- Node16&#45;&gt;Node23 -->
<g id="edge9" class="edge">
<title>Node16&#45;&gt;Node23</title>
<path fill="none" stroke="#191970" d="M964.4731,-127.1188C1033.3606,-114.154 1144.7087,-93.1981 1209.2587,-81.0496"/>
<polygon fill="#191970" stroke="#191970" points="963.8081,-123.6824 954.628,-128.9717 965.1029,-130.5617 963.8081,-123.6824"/>
</g>
<!-- Node18 -->
<g id="node5" class="node">
<title>Node18</title>
<g id="a_node5"><a xlink:href="Timer_8cxx.html" target="_top" xlink:title="src/engine/basics/Timer.cxx">
<polygon fill="none" stroke="#000000" points="909,-.5 909,-19.5 1061,-19.5 1061,-.5 909,-.5"/>
<text text-anchor="middle" x="985" y="-7.5" font-family="Helvetica,sans-Serif" font-size="10.00" fill="#000000">src/engine/basics/Timer.cxx</text>
</a>
</g>
</g>
<!-- Node17&#45;&gt;Node18 -->
<g id="edge4" class="edge">
<title>Node17&#45;&gt;Node18</title>
<path fill="none" stroke="#191970" d="M925.619,-55.6491C940.4836,-44.222 960.057,-29.1749 972.5878,-19.5419"/>
<polygon fill="#191970" stroke="#191970" points="923.2949,-53.021 917.5,-61.8906 927.5613,-58.5707 923.2949,-53.021"/>
</g>
<!-- Node19 -->
<g id="node6" class="node">
<title>Node19</title>
<g id="a_node6"><a xlink:href="EventManager_8cxx.html" target="_top" xlink:title="src/engine/EventManager.cxx">
<polygon fill="none" stroke="#000000" points="731.5,-.5 731.5,-19.5 890.5,-19.5 890.5,-.5 731.5,-.5"/>
<text text-anchor="middle" x="811" y="-7.5" font-family="Helvetica,sans-Serif" font-size="10.00" fill="#000000">src/engine/EventManager.cxx</text>
</a>
</g>
</g>
<!-- Node17&#45;&gt;Node19 -->
<g id="edge5" class="edge">
<title>Node17&#45;&gt;Node19</title>
<path fill="none" stroke="#191970" d="M881.7461,-56.286C864.1694,-44.7864 840.5832,-29.355 825.5844,-19.5419"/>
<polygon fill="#191970" stroke="#191970" points="880.0281,-59.3445 890.3125,-61.8906 883.8606,-53.4868 880.0281,-59.3445"/>
</g>
<!-- Node17&#45;&gt;Node20 -->
<g id="edge6" class="edge">
<title>Node17&#45;&gt;Node20</title>
<path fill="none" stroke="#191970" d="M973.6844,-60.2955C1051.5119,-47.5995 1175.8815,-27.3111 1240.2954,-16.8033"/>
<polygon fill="#191970" stroke="#191970" points="972.7986,-56.8937 963.4926,-61.9581 973.9257,-63.8023 972.7986,-56.8937"/>
</g>
<!-- Node24&#45;&gt;Node16 -->
<g id="edge12" class="edge">
<title>Node24&#45;&gt;Node16</title>
<path fill="none" stroke="#191970" d="M1210.4565,-190.8766C1208.9578,-190.5784 1207.4707,-190.2858 1206,-190 1122.7236,-173.8183 1025.9848,-157.8089 964.8859,-148.0386"/>
<polygon fill="#191970" stroke="#191970" points="1209.9703,-194.3493 1220.4672,-192.9126 1211.3655,-187.4897 1209.9703,-194.3493"/>
</g>
<!-- Node24&#45;&gt;Node22 -->
<g id="edge13" class="edge">
<title>Node24&#45;&gt;Node22</title>
<path fill="none" stroke="#191970" d="M1249.8967,-183.8819C1215.6681,-156.5805 1157.6563,-110.3092 1127.8759,-86.5558"/>
<polygon fill="#191970" stroke="#191970" points="1248.0546,-186.8896 1258.0548,-190.389 1252.4195,-181.4171 1248.0546,-186.8896"/>
</g>
<!-- Node25&#45;&gt;Node16 -->
<g id="edge15" class="edge">
<title>Node25&#45;&gt;Node16</title>
<path fill="none" stroke="#191970" d="M180.8969,-190.0331C424.9304,-153.6541 703.7656,-142.9933 832.418,-139.811"/>
<polygon fill="#191970" stroke="#191970" points="180.1356,-186.6082 170.7695,-191.5607 181.1798,-193.5299 180.1356,-186.6082"/>
</g>
<!-- Node25&#45;&gt;Node21 -->
<g id="edge16" class="edge">
<title>Node25&#45;&gt;Node21</title>
<path fill="none" stroke="#191970" d="M167.5989,-187.084C245.4294,-160.3422 388.265,-111.2654 460.1809,-86.5558"/>
<polygon fill="#191970" stroke="#191970" points="166.2999,-183.8294 157.9798,-190.389 168.5745,-190.4495 166.2999,-183.8294"/>
</g>
<!-- Node25&#45;&gt;Node26 -->
<g id="edge17" class="edge">
<title>Node25&#45;&gt;Node26</title>
<path fill="none" stroke="#191970" d="M99.1267,-181.7735C93.2604,-172.4154 86.695,-161.9421 81.4927,-153.6432"/>
<polygon fill="#191970" stroke="#191970" points="96.1926,-183.6828 104.4695,-190.2967 102.1237,-179.9648 96.1926,-183.6828"/>
</g>
<!-- Node27&#45;&gt;Node16 -->
<g id="edge20" class="edge">
<title>Node27&#45;&gt;Node16</title>
<path fill="none" stroke="#191970" d="M277.9126,-251.3509C290.3432,-242.1474 304.9791,-231.1628 318,-221 335.182,-207.5895 335.8325,-198.2664 356,-190 440.44,-155.3893 703.9271,-143.7565 832.2855,-140.0805"/>
<polygon fill="#191970" stroke="#191970" points="275.6747,-248.6524 269.706,-257.406 279.8308,-254.2852 275.6747,-248.6524"/>
</g>
<!-- Node27&#45;&gt;Node25 -->
<g id="edge19" class="edge">
<title>Node27&#45;&gt;Node25</title>
<path fill="none" stroke="#191970" d="M209.534,-252.9132C188.8445,-242.645 163.8818,-230.2561 144.6626,-220.7177"/>
<polygon fill="#191970" stroke="#191970" points="208.1899,-256.1534 218.7034,-257.4639 211.3018,-249.8831 208.1899,-256.1534"/>
</g>
<!-- Node28 -->
<g id="node15" class="node">
<title>Node28</title>
<g id="a_node15"><a xlink:href="Button_8cxx.html" target="_top" xlink:title="src/engine/ui/widgets\l/Button.cxx">
<polygon fill="none" stroke="#000000" points="189,-190.5 189,-220.5 309,-220.5 309,-190.5 189,-190.5"/>
<text text-anchor="start" x="197" y="-208.5" font-family="Helvetica,sans-Serif" font-size="10.00" fill="#000000">src/engine/ui/widgets</text>
<text text-anchor="middle" x="249" y="-197.5" font-family="Helvetica,sans-Serif" font-size="10.00" fill="#000000">/Button.cxx</text>
</a>
</g>
</g>
<!-- Node27&#45;&gt;Node28 -->
<g id="edge21" class="edge">
<title>Node27&#45;&gt;Node28</title>
<path fill="none" stroke="#191970" d="M249,-247.0249C249,-238.128 249,-228.4287 249,-220.6432"/>
<polygon fill="#191970" stroke="#191970" points="245.5001,-247.2966 249,-257.2967 252.5001,-247.2967 245.5001,-247.2966"/>
</g>
<!-- Node29&#45;&gt;Node16 -->
<g id="edge30" class="edge">
<title>Node29&#45;&gt;Node16</title>
<path fill="none" stroke="#191970" d="M658.8912,-314.4369C670.628,-281.189 695.8327,-222.8806 737,-190 764.6184,-167.941 801.6848,-155.2937 833.8804,-148.0603"/>
<polygon fill="#191970" stroke="#191970" points="655.4478,-313.6928 655.5506,-324.2871 662.077,-315.941 655.4478,-313.6928"/>
</g>
<!-- Node29&#45;&gt;Node27 -->
<g id="edge23" class="edge">
<title>Node29&#45;&gt;Node27</title>
<path fill="none" stroke="#191970" d="M580.7436,-327.7906C503.8731,-314.9789 381.9367,-294.6561 309.2658,-282.5443"/>
<polygon fill="#191970" stroke="#191970" points="580.3772,-331.2777 590.8165,-329.4694 581.528,-324.373 580.3772,-331.2777"/>
</g>
<!-- Node29&#45;&gt;Node30 -->
<g id="edge24" class="edge">
<title>Node29&#45;&gt;Node30</title>
<path fill="none" stroke="#191970" d="M590.4469,-321.5484C554.6742,-310.9432 509.89,-297.6665 475.94,-287.6017"/>
<polygon fill="#191970" stroke="#191970" points="589.6988,-324.9771 600.2812,-324.4639 591.6885,-318.2658 589.6988,-324.9771"/>
</g>
<!-- Node33 -->
<g id="node20" class="node">
<title>Node33</title>
<g id="a_node20"><a xlink:href="TextField_8cxx.html" target="_top" xlink:title="src/engine/ui/widgets\l/TextField.cxx">
<polygon fill="none" stroke="#000000" points="541,-190.5 541,-220.5 661,-220.5 661,-190.5 541,-190.5"/>
<text text-anchor="start" x="549" y="-208.5" font-family="Helvetica,sans-Serif" font-size="10.00" fill="#000000">src/engine/ui/widgets</text>
<text text-anchor="middle" x="601" y="-197.5" font-family="Helvetica,sans-Serif" font-size="10.00" fill="#000000">/TextField.cxx</text>
</a>
</g>
</g>
<!-- Node29&#45;&gt;Node33 -->
<g id="edge35" class="edge">
<title>Node29&#45;&gt;Node33</title>
<path fill="none" stroke="#191970" d="M647.3381,-314.3916C644.3969,-297.7139 639.4999,-275.556 632,-257 626.7598,-244.0349 618.5119,-230.5324 611.8406,-220.6072"/>
<polygon fill="#191970" stroke="#191970" points="643.9188,-315.1681 648.9962,-324.467 650.8259,-314.0313 643.9188,-315.1681"/>
</g>
<!-- Node29&#45;&gt;Node34 -->
<g id="edge31" class="edge">
<title>Node29&#45;&gt;Node34</title>
<path fill="none" stroke="#191970" d="M688.3578,-319.6352C707.5645,-309.422 730.6053,-297.1702 748.3816,-287.7177"/>
<polygon fill="#191970" stroke="#191970" points="686.463,-316.6786 679.2769,-324.4639 689.7495,-322.8591 686.463,-316.6786"/>
</g>
<!-- Node36 -->
<g id="node23" class="node">
<title>Node36</title>
<g id="a_node23"><a xlink:href="Text_8cxx.html" target="_top" xlink:title="src/engine/ui/widgets\l/Text.cxx">
<polygon fill="none" stroke="#000000" points="503,-257.5 503,-287.5 623,-287.5 623,-257.5 503,-257.5"/>
<text text-anchor="start" x="511" y="-275.5" font-family="Helvetica,sans-Serif" font-size="10.00" fill="#000000">src/engine/ui/widgets</text>
<text text-anchor="middle" x="563" y="-264.5" font-family="Helvetica,sans-Serif" font-size="10.00" fill="#000000">/Text.cxx</text>
</a>
</g>
</g>
<!-- Node29&#45;&gt;Node36 -->
<g id="edge34" class="edge">
<title>Node29&#45;&gt;Node36</title>
<path fill="none" stroke="#191970" d="M622.8457,-318.0643C609.834,-308.1577 594.6886,-296.6265 582.8895,-287.6432"/>
<polygon fill="#191970" stroke="#191970" points="620.9548,-321.0237 631.0314,-324.2967 625.1952,-315.4542 620.9548,-321.0237"/>
</g>
<!-- Node30&#45;&gt;Node16 -->
<g id="edge28" class="edge">
<title>Node30&#45;&gt;Node16</title>
<path fill="none" stroke="#191970" d="M453.9126,-251.3509C466.3432,-242.1474 480.9791,-231.1628 494,-221 511.182,-207.5895 512.0186,-198.7067 532,-190 584.4494,-167.1458 739.8163,-151.4232 832.3412,-143.7949"/>
<polygon fill="#191970" stroke="#191970" points="451.6747,-248.6524 445.706,-257.406 455.8308,-254.2852 451.6747,-248.6524"/>
</g>
<!-- Node30&#45;&gt;Node31 -->
<g id="edge25" class="edge">
<title>Node30&#45;&gt;Node31</title>
<path fill="none" stroke="#191970" d="M425,-247.0249C425,-238.128 425,-228.4287 425,-220.6432"/>
<polygon fill="#191970" stroke="#191970" points="421.5001,-247.2966 425,-257.2967 428.5001,-247.2967 421.5001,-247.2966"/>
</g>
<!-- Node30&#45;&gt;Node33 -->
<g id="edge29" class="edge">
<title>Node30&#45;&gt;Node33</title>
<path fill="none" stroke="#191970" d="M473.9516,-253.865C501.5014,-243.3773 535.4559,-230.4515 561.3299,-220.6017"/>
<polygon fill="#191970" stroke="#191970" points="472.5983,-250.6351 464.4978,-257.4639 475.0888,-257.1771 472.5983,-250.6351"/>
</g>
<!-- Node31&#45;&gt;Node16 -->
<g id="edge26" class="edge">
<title>Node31&#45;&gt;Node16</title>
<path fill="none" stroke="#191970" d="M495.1458,-190.6609C496.4401,-190.4347 497.7258,-190.2141 499,-190 615.2067,-170.4734 751.285,-154.589 832.4163,-145.8513"/>
<polygon fill="#191970" stroke="#191970" points="494.3096,-187.2556 485.0993,-192.492 495.5648,-194.1421 494.3096,-187.2556"/>
</g>
<!-- Node32 -->
<g id="node19" class="node">
<title>Node32</title>
<g id="a_node19"><a xlink:href="Combobox_8cxx.html" target="_top" xlink:title="src/engine/ui/widgets\l/Combobox.cxx">
<polygon fill="none" stroke="#000000" points="365,-123.5 365,-153.5 485,-153.5 485,-123.5 365,-123.5"/>
<text text-anchor="start" x="373" y="-141.5" font-family="Helvetica,sans-Serif" font-size="10.00" fill="#000000">src/engine/ui/widgets</text>
<text text-anchor="middle" x="425" y="-130.5" font-family="Helvetica,sans-Serif" font-size="10.00" fill="#000000">/Combobox.cxx</text>
</a>
</g>
</g>
<!-- Node31&#45;&gt;Node32 -->
<g id="edge27" class="edge">
<title>Node31&#45;&gt;Node32</title>
<path fill="none" stroke="#191970" d="M425,-180.0249C425,-171.128 425,-161.4287 425,-153.6432"/>
<polygon fill="#191970" stroke="#191970" points="421.5001,-180.2966 425,-190.2967 428.5001,-180.2967 421.5001,-180.2966"/>
</g>
<!-- Node34&#45;&gt;Node16 -->
<g id="edge32" class="edge">
<title>Node34&#45;&gt;Node16</title>
<path fill="none" stroke="#191970" d="M757.0568,-249.3195C744.5437,-231.8301 733.0239,-207.8775 746,-190 759.007,-172.0798 813.2218,-157.134 854.5507,-148.0385"/>
<polygon fill="#191970" stroke="#191970" points="754.3248,-251.5087 763.1765,-257.331 759.8876,-247.2595 754.3248,-251.5087"/>
</g>
<!-- Node35 -->
<g id="node22" class="node">
<title>Node35</title>
<g id="a_node22"><a xlink:href="Tooltip_8cxx.html" target="_top" xlink:title="src/engine/ui/widgets\l/Tooltip.cxx">
<polygon fill="none" stroke="#000000" points="755,-190.5 755,-220.5 875,-220.5 875,-190.5 755,-190.5"/>
<text text-anchor="start" x="763" y="-208.5" font-family="Helvetica,sans-Serif" font-size="10.00" fill="#000000">src/engine/ui/widgets</text>
<text text-anchor="middle" x="815" y="-197.5" font-family="Helvetica,sans-Serif" font-size="10.00" fill="#000000">/Tooltip.cxx</text>
</a>
</g>
</g>
<!-- Node34&#45;&gt;Node35 -->
<g id="edge33" class="edge">
<title>Node34&#45;&gt;Node35</title>
<path fill="none" stroke="#191970" d="M790.6212,-248.4837C795.8868,-239.1996 801.753,-228.8565 806.4113,-220.6432"/>
<polygon fill="#191970" stroke="#191970" points="787.5118,-246.8716 785.6228,-257.2967 793.6007,-250.325 787.5118,-246.8716"/>
</g>
<!-- Node37&#45;&gt;Node16 -->
<g id="edge37" class="edge">
<title>Node37&#45;&gt;Node16</title>
<path fill="none" stroke="#191970" d="M891.8228,-314.6574C888.6354,-306.3549 885.5961,-296.9375 884,-288 881.5778,-274.4368 882.8495,-270.7297 884,-257 887.4147,-216.2496 897.3243,-168.4357 901.7818,-148.2615"/>
<polygon fill="#191970" stroke="#191970" points="888.6703,-316.1952 895.6971,-324.1245 895.1488,-313.5439 888.6703,-316.1952"/>
</g>
<!-- Node38 -->
<g id="node25" class="node">
<title>Node38</title>
<g id="a_node25"><a xlink:href="Checkbox_8cxx.html" target="_top" xlink:title="src/engine/ui/widgets\l/Checkbox.cxx">
<polygon fill="none" stroke="#000000" points="893,-257.5 893,-287.5 1013,-287.5 1013,-257.5 893,-257.5"/>
<text text-anchor="start" x="901" y="-275.5" font-family="Helvetica,sans-Serif" font-size="10.00" fill="#000000">src/engine/ui/widgets</text>
<text text-anchor="middle" x="953" y="-264.5" font-family="Helvetica,sans-Serif" font-size="10.00" fill="#000000">/Checkbox.cxx</text>
</a>
</g>
</g>
<!-- Node37&#45;&gt;Node38 -->
<g id="edge38" class="edge">
<title>Node37&#45;&gt;Node38</title>
<path fill="none" stroke="#191970" d="M920.4906,-316.0626C927.5287,-306.6315 935.4421,-296.0276 941.6991,-287.6432"/>
<polygon fill="#191970" stroke="#191970" points="917.5216,-314.189 914.3458,-324.2967 923.1317,-318.3756 917.5216,-314.189"/>
</g>
<!-- Node39&#45;&gt;Node16 -->
<g id="edge42" class="edge">
<title>Node39&#45;&gt;Node16</title>
<path fill="none" stroke="#191970" d="M1038.813,-314.0153C1036.495,-297.0099 1031.7382,-274.6233 1022,-257 995.18,-208.4638 942.6951,-166.389 917.7716,-148.1519"/>
<polygon fill="#191970" stroke="#191970" points="1035.3784,-314.7811 1040.0119,-324.309 1042.3314,-313.9712 1035.3784,-314.7811"/>
</g>
<!-- Node40 -->
<g id="node27" class="node">
<title>Node40</title>
<g id="a_node27"><a xlink:href="Frame_8cxx.html" target="_top" xlink:title="src/engine/ui/widgets\l/Frame.cxx">
<polygon fill="none" stroke="#000000" points="1069,-257.5 1069,-287.5 1189,-287.5 1189,-257.5 1069,-257.5"/>
<text text-anchor="start" x="1077" y="-275.5" font-family="Helvetica,sans-Serif" font-size="10.00" fill="#000000">src/engine/ui/widgets</text>
<text text-anchor="middle" x="1129" y="-264.5" font-family="Helvetica,sans-Serif" font-size="10.00" fill="#000000">/Frame.cxx</text>
</a>
</g>
</g>
<!-- Node39&#45;&gt;Node40 -->
<g id="edge43" class="edge">
<title>Node39&#45;&gt;Node40</title>
<path fill="none" stroke="#191970" d="M1069.1543,-318.0643C1082.166,-308.1577 1097.3114,-296.6265 1109.1105,-287.6432"/>
<polygon fill="#191970" stroke="#191970" points="1066.8048,-315.4542 1060.9686,-324.2967 1071.0452,-321.0237 1066.8048,-315.4542"/>
</g>
<!-- Node41&#45;&gt;Node16 -->
<g id="edge46" class="edge">
<title>Node41&#45;&gt;Node16</title>
<path fill="none" stroke="#191970" d="M1425.0613,-317.4825C1403.3653,-298.6951 1369.715,-272.3536 1336,-257 1270.4546,-227.1511 1247.6337,-239.3931 1178,-221 1088.1809,-197.2751 983.3797,-164.1901 933.4104,-148.0787"/>
<polygon fill="#191970" stroke="#191970" points="1422.9504,-320.2875 1432.7664,-324.2745 1427.5792,-315.0363 1422.9504,-320.2875"/>
</g>
<!-- Node42 -->
<g id="node29" class="node">
<title>Node42</title>
<g id="a_node29"><a xlink:href="Slider_8cxx.html" target="_top" xlink:title="src/engine/ui/widgets\l/Slider.cxx">
<polygon fill="none" stroke="#000000" points="1421,-257.5 1421,-287.5 1541,-287.5 1541,-257.5 1421,-257.5"/>
<text text-anchor="start" x="1429" y="-275.5" font-family="Helvetica,sans-Serif" font-size="10.00" fill="#000000">src/engine/ui/widgets</text>
<text text-anchor="middle" x="1481" y="-264.5" font-family="Helvetica,sans-Serif" font-size="10.00" fill="#000000">/Slider.cxx</text>
</a>
</g>
</g>
<!-- Node41&#45;&gt;Node42 -->
<g id="edge47" class="edge">
<title>Node41&#45;&gt;Node42</title>
<path fill="none" stroke="#191970" d="M1460.6092,-315.1932C1465.0075,-305.9844 1469.8855,-295.771 1473.7674,-287.6432"/>
<polygon fill="#191970" stroke="#191970" points="1457.4129,-313.7646 1456.2613,-324.2967 1463.7294,-316.7815 1457.4129,-313.7646"/>
</g>
<!-- Node45 -->
<g id="node32" class="node">
<title>Node45</title>
<g id="a_node32"><a xlink:href="Bar_8cxx.html" target="_top" xlink:title="src/engine/ui/widgets\l/Bar.cxx">
<polygon fill="none" stroke="#000000" points="1559,-257.5 1559,-287.5 1679,-287.5 1679,-257.5 1559,-257.5"/>
<text text-anchor="start" x="1567" y="-275.5" font-family="Helvetica,sans-Serif" font-size="10.00" fill="#000000">src/engine/ui/widgets</text>
<text text-anchor="middle" x="1619" y="-264.5" font-family="Helvetica,sans-Serif" font-size="10.00" fill="#000000">/Bar.cxx</text>
</a>
</g>
</g>
<!-- Node44&#45;&gt;Node45 -->
<g id="edge51" class="edge">
<title>Node44&#45;&gt;Node45</title>
<path fill="none" stroke="#191970" d="M1609.0136,-314.3179C1611.1573,-305.3414 1613.5041,-295.5143 1615.3837,-287.6432"/>
<polygon fill="#191970" stroke="#191970" points="1605.5492,-313.7572 1606.6306,-324.2967 1612.3577,-315.3831 1605.5492,-313.7572"/>
</g>
<!-- Node46&#45;&gt;Node20 -->
<g id="edge54" class="edge">
<title>Node46&#45;&gt;Node20</title>
<path fill="none" stroke="#191970" d="M1244.701,-321.6115C1284.9293,-310.0348 1329.8577,-295.7279 1336,-288 1360.4104,-257.2881 1348.843,-73.9567 1340,-56 1331.9374,-39.6279 1314.9739,-27.2654 1301.4646,-19.5017"/>
<polygon fill="#191970" stroke="#191970" points="1243.5276,-318.3065 1234.8704,-324.4141 1245.4469,-325.0382 1243.5276,-318.3065"/>
</g>
<!-- Node47 -->
<g id="node34" class="node">
<title>Node47</title>
<g id="a_node34"><a xlink:href="Image_8cxx.html" target="_top" xlink:title="src/engine/ui/widgets\l/Image.cxx">
<polygon fill="none" stroke="#000000" points="1207,-257.5 1207,-287.5 1327,-287.5 1327,-257.5 1207,-257.5"/>
<text text-anchor="start" x="1215" y="-275.5" font-family="Helvetica,sans-Serif" font-size="10.00" fill="#000000">src/engine/ui/widgets</text>
<text text-anchor="middle" x="1267" y="-264.5" font-family="Helvetica,sans-Serif" font-size="10.00" fill="#000000">/Image.cxx</text>
</a>
</g>
</g>
<!-- Node46&#45;&gt;Node47 -->
<g id="edge53" class="edge">
<title>Node46&#45;&gt;Node47</title>
<path fill="none" stroke="#191970" d="M1207.1543,-318.0643C1220.166,-308.1577 1235.3114,-296.6265 1247.1105,-287.6432"/>
<polygon fill="#191970" stroke="#191970" points="1204.8048,-315.4542 1198.9686,-324.2967 1209.0452,-321.0237 1204.8048,-315.4542"/>
</g>
</g>
</svg>
