<?xml version="1.0" encoding="UTF-8" standalone="no"?>
<!DOCTYPE svg PUBLIC "-//W3C//DTD SVG 1.1//EN"
 "http://www.w3.org/Graphics/SVG/1.1/DTD/svg11.dtd">
<!-- Generated by graphviz version 2.40.1 (20161225.0304)
 -->
<!-- Title: src/Scripting/ScriptEngine.cxx Pages: 1 -->
<svg width="1520pt" height="420pt"
 viewBox="0.00 0.00 1520.00 420.00" xmlns="http://www.w3.org/2000/svg" xmlns:xlink="http://www.w3.org/1999/xlink">
<g id="graph0" class="graph" transform="scale(1 1) rotate(0) translate(4 416)">
<title>src/Scripting/ScriptEngine.cxx</title>
<!-- Node0 -->
<g id="node1" class="node">
<title>Node0</title>
<polygon fill="#bfbfbf" stroke="#000000" points="935.5,-392.5 935.5,-411.5 1096.5,-411.5 1096.5,-392.5 935.5,-392.5"/>
<text text-anchor="middle" x="1016" y="-399.5" font-family="Helvetica,sans-Serif" font-size="10.00" fill="#000000">src/Scripting/ScriptEngine.cxx</text>
</g>
<!-- Node1 -->
<g id="node2" class="node">
<title>Node1</title>
<g id="a_node2"><a xlink:href="ScriptEngine_8hxx.html" target="_top" xlink:title="ScriptEngine.hxx">
<polygon fill="none" stroke="#000000" points="0,-336.5 0,-355.5 98,-355.5 98,-336.5 0,-336.5"/>
<text text-anchor="middle" x="49" y="-343.5" font-family="Helvetica,sans-Serif" font-size="10.00" fill="#000000">ScriptEngine.hxx</text>
</a>
</g>
</g>
<!-- Node0&#45;&gt;Node1 -->
<g id="edge1" class="edge">
<title>Node0&#45;&gt;Node1</title>
<path fill="none" stroke="#191970" d="M935.355,-400.7768C777.0836,-397.7398 414.8241,-387.6472 112,-356 110.7299,-355.8673 109.4464,-355.7262 108.1533,-355.5778"/>
<polygon fill="#191970" stroke="#191970" points="108.4729,-352.0905 98.114,-354.314 107.5985,-359.0357 108.4729,-352.0905"/>
</g>
<!-- Node2 -->
<g id="node3" class="node">
<title>Node2</title>
<g id="a_node3"><a xlink:href="Filesystem_8hxx.html" target="_top" xlink:title="Filesystem.hxx">
<polygon fill="none" stroke="#000000" points="369,-336.5 369,-355.5 459,-355.5 459,-336.5 369,-336.5"/>
<text text-anchor="middle" x="414" y="-343.5" font-family="Helvetica,sans-Serif" font-size="10.00" fill="#000000">Filesystem.hxx</text>
</a>
</g>
</g>
<!-- Node0&#45;&gt;Node2 -->
<g id="edge2" class="edge">
<title>Node0&#45;&gt;Node2</title>
<path fill="none" stroke="#191970" d="M935.4363,-394.5057C811.2554,-382.954 576.266,-361.0945 469.4014,-351.1536"/>
<polygon fill="#191970" stroke="#191970" points="469.442,-347.6424 459.1607,-350.201 468.7935,-354.6123 469.442,-347.6424"/>
</g>
<!-- Node4 -->
<g id="node5" class="node">
<title>Node4</title>
<polygon fill="none" stroke="#bfbfbf" points="117,-56.5 117,-75.5 161,-75.5 161,-56.5 117,-56.5"/>
<text text-anchor="middle" x="139" y="-63.5" font-family="Helvetica,sans-Serif" font-size="10.00" fill="#000000">string</text>
</g>
<!-- Node0&#45;&gt;Node4 -->
<g id="edge45" class="edge">
<title>Node0&#45;&gt;Node4</title>
<path fill="none" stroke="#191970" d="M935.4487,-400.2473C716.3672,-394.4172 126,-371.1756 126,-290 126,-290 126,-290 126,-178 126,-145.3457 131.52,-107.6911 135.3661,-85.4184"/>
<polygon fill="#191970" stroke="#191970" points="138.8165,-86.0059 137.1374,-75.545 131.9265,-84.7698 138.8165,-86.0059"/>
</g>
<!-- Node21 -->
<g id="node22" class="node">
<title>Node21</title>
<polygon fill="none" stroke="#bfbfbf" points="957,-56.5 957,-75.5 1001,-75.5 1001,-56.5 957,-56.5"/>
<text text-anchor="middle" x="979" y="-63.5" font-family="Helvetica,sans-Serif" font-size="10.00" fill="#000000">SDL.h</text>
</g>
<!-- Node0&#45;&gt;Node21 -->
<g id="edge46" class="edge">
<title>Node0&#45;&gt;Node21</title>
<path fill="none" stroke="#191970" d="M1010.9832,-392.4109C1001.5255,-373.4144 982,-329.4221 982,-290 982,-290 982,-290 982,-178 982,-145.7 980.7378,-108.1791 979.8508,-85.8005"/>
<polygon fill="#191970" stroke="#191970" points="983.3387,-85.4334 979.4298,-75.5861 976.3447,-85.7217 983.3387,-85.4334"/>
</g>
<!-- Node33 -->
<g id="node34" class="node">
<title>Node33</title>
<polygon fill="none" stroke="#bfbfbf" points="1010,-336.5 1010,-355.5 1090,-355.5 1090,-336.5 1010,-336.5"/>
<text text-anchor="middle" x="1050" y="-343.5" font-family="Helvetica,sans-Serif" font-size="10.00" fill="#000000">angelscript.h</text>
</g>
<!-- Node0&#45;&gt;Node33 -->
<g id="edge41" class="edge">
<title>Node0&#45;&gt;Node33</title>
<path fill="none" stroke="#191970" d="M1021.9223,-392.2455C1026.6027,-384.5367 1033.2673,-373.5598 1038.9289,-364.2348"/>
<polygon fill="#191970" stroke="#191970" points="1041.9475,-366.007 1044.1455,-355.6427 1035.9639,-362.3741 1041.9475,-366.007"/>
</g>
<!-- Node34 -->
<g id="node35" class="node">
<title>Node34</title>
<polygon fill="none" stroke="#bfbfbf" points="1108,-336.5 1108,-355.5 1276,-355.5 1276,-336.5 1108,-336.5"/>
<text text-anchor="middle" x="1192" y="-343.5" font-family="Helvetica,sans-Serif" font-size="10.00" fill="#000000">scriptstdstring/scriptstdstring.h</text>
</g>
<!-- Node0&#45;&gt;Node34 -->
<g id="edge42" class="edge">
<title>Node0&#45;&gt;Node34</title>
<path fill="none" stroke="#191970" d="M1046.2555,-392.3733C1075.6483,-383.021 1120.4292,-368.7725 1152.5934,-358.5385"/>
<polygon fill="#191970" stroke="#191970" points="1153.6713,-361.8685 1162.1393,-355.5011 1151.5488,-355.198 1153.6713,-361.8685"/>
</g>
<!-- Node35 -->
<g id="node36" class="node">
<title>Node35</title>
<polygon fill="none" stroke="#bfbfbf" points="1293.5,-336.5 1293.5,-355.5 1442.5,-355.5 1442.5,-336.5 1293.5,-336.5"/>
<text text-anchor="middle" x="1368" y="-343.5" font-family="Helvetica,sans-Serif" font-size="10.00" fill="#000000">scriptbuilder/scriptbuilder.h</text>
</g>
<!-- Node0&#45;&gt;Node35 -->
<g id="edge43" class="edge">
<title>Node0&#45;&gt;Node35</title>
<path fill="none" stroke="#191970" d="M1076.111,-392.4369C1137.6187,-382.6516 1233.1197,-367.4582 1297.9973,-357.1368"/>
<polygon fill="#191970" stroke="#191970" points="1298.8111,-360.5514 1308.1369,-355.5237 1297.7112,-353.6384 1298.8111,-360.5514"/>
</g>
<!-- Node36 -->
<g id="node37" class="node">
<title>Node36</title>
<polygon fill="none" stroke="#bfbfbf" points="1460,-336.5 1460,-355.5 1512,-355.5 1512,-336.5 1460,-336.5"/>
<text text-anchor="middle" x="1486" y="-343.5" font-family="Helvetica,sans-Serif" font-size="10.00" fill="#000000">cassert</text>
</g>
<!-- Node0&#45;&gt;Node36 -->
<g id="edge44" class="edge">
<title>Node0&#45;&gt;Node36</title>
<path fill="none" stroke="#191970" d="M1096.6114,-397.8717C1182.3809,-392.4914 1322.0514,-380.9039 1449.8004,-356.1867"/>
<polygon fill="#191970" stroke="#191970" points="1450.6227,-359.5921 1459.7593,-354.228 1449.2718,-352.7236 1450.6227,-359.5921"/>
</g>
<!-- Node3 -->
<g id="node4" class="node">
<title>Node3</title>
<polygon fill="none" stroke="#bfbfbf" points="332,-280.5 332,-299.5 386,-299.5 386,-280.5 332,-280.5"/>
<text text-anchor="middle" x="359" y="-287.5" font-family="Helvetica,sans-Serif" font-size="10.00" fill="#000000">ciso646</text>
</g>
<!-- Node2&#45;&gt;Node3 -->
<g id="edge3" class="edge">
<title>Node2&#45;&gt;Node3</title>
<path fill="none" stroke="#191970" d="M404.4197,-336.2455C396.4542,-328.1352 384.9359,-316.4075 375.4921,-306.7919"/>
<polygon fill="#191970" stroke="#191970" points="377.9747,-304.3247 368.4705,-299.6427 372.9805,-309.2297 377.9747,-304.3247"/>
</g>
<!-- Node2&#45;&gt;Node4 -->
<g id="edge4" class="edge">
<title>Node2&#45;&gt;Node4</title>
<path fill="none" stroke="#191970" d="M372.4369,-336.4454C301.3484,-318.8862 164,-279.1219 164,-234 164,-234 164,-234 164,-178 164,-144.7847 153.397,-107.3305 146.0013,-85.2459"/>
<polygon fill="#191970" stroke="#191970" points="149.2805,-84.0195 142.6888,-75.7249 142.6692,-86.3197 149.2805,-84.0195"/>
</g>
<!-- Node5 -->
<g id="node6" class="node">
<title>Node5</title>
<polygon fill="none" stroke="#bfbfbf" points="354.5,-224.5 354.5,-243.5 401.5,-243.5 401.5,-224.5 354.5,-224.5"/>
<text text-anchor="middle" x="378" y="-231.5" font-family="Helvetica,sans-Serif" font-size="10.00" fill="#000000">vector</text>
</g>
<!-- Node2&#45;&gt;Node5 -->
<g id="edge5" class="edge">
<title>Node2&#45;&gt;Node5</title>
<path fill="none" stroke="#191970" d="M411.3922,-336.0908C407.9225,-323.1187 401.4702,-299.7125 395,-280 392.0876,-271.1269 388.55,-261.4126 385.4577,-253.2069"/>
<polygon fill="#191970" stroke="#191970" points="388.7002,-251.8871 381.8593,-243.7968 382.1619,-254.3873 388.7002,-251.8871"/>
</g>
<!-- Node6 -->
<g id="node7" class="node">
<title>Node6</title>
<g id="a_node7"><a xlink:href="PixelBuffer_8hxx.html" target="_top" xlink:title="../util/PixelBuffer.hxx">
<polygon fill="none" stroke="#000000" points="477,-280.5 477,-299.5 595,-299.5 595,-280.5 477,-280.5"/>
<text text-anchor="middle" x="536" y="-287.5" font-family="Helvetica,sans-Serif" font-size="10.00" fill="#000000">../util/PixelBuffer.hxx</text>
</a>
</g>
</g>
<!-- Node2&#45;&gt;Node6 -->
<g id="edge6" class="edge">
<title>Node2&#45;&gt;Node6</title>
<path fill="none" stroke="#191970" d="M434.9725,-336.3733C454.5567,-327.3838 483.9961,-313.8706 506.051,-303.7471"/>
<polygon fill="#191970" stroke="#191970" points="507.6729,-306.8538 515.3011,-299.5011 504.7527,-300.4919 507.6729,-306.8538"/>
</g>
<!-- Node6&#45;&gt;Node5 -->
<g id="edge7" class="edge">
<title>Node6&#45;&gt;Node5</title>
<path fill="none" stroke="#191970" d="M508.8388,-280.3733C481.8462,-270.8062 440.3975,-256.1156 411.4055,-245.8399"/>
<polygon fill="#191970" stroke="#191970" points="412.309,-242.4469 401.7143,-242.4051 409.9705,-249.0447 412.309,-242.4469"/>
</g>
<!-- Node7 -->
<g id="node8" class="node">
<title>Node7</title>
<g id="a_node8"><a xlink:href="Rectangle_8hxx.html" target="_top" xlink:title="../util/Rectangle.hxx">
<polygon fill="none" stroke="#000000" points="542.5,-224.5 542.5,-243.5 655.5,-243.5 655.5,-224.5 542.5,-224.5"/>
<text text-anchor="middle" x="599" y="-231.5" font-family="Helvetica,sans-Serif" font-size="10.00" fill="#000000">../util/Rectangle.hxx</text>
</a>
</g>
</g>
<!-- Node6&#45;&gt;Node7 -->
<g id="edge8" class="edge">
<title>Node6&#45;&gt;Node7</title>
<path fill="none" stroke="#191970" d="M546.9738,-280.2455C556.1882,-272.0549 569.5532,-260.1749 580.4297,-250.5069"/>
<polygon fill="#191970" stroke="#191970" points="583.0032,-252.9023 588.152,-243.6427 578.3526,-247.6704 583.0032,-252.9023"/>
</g>
<!-- Node27 -->
<g id="node28" class="node">
<title>Node27</title>
<g id="a_node28"><a xlink:href="Range_8hxx.html" target="_top" xlink:title="../util/Range.hxx">
<polygon fill="none" stroke="#000000" points="686,-224.5 686,-243.5 782,-243.5 782,-224.5 686,-224.5"/>
<text text-anchor="middle" x="734" y="-231.5" font-family="Helvetica,sans-Serif" font-size="10.00" fill="#000000">../util/Range.hxx</text>
</a>
</g>
</g>
<!-- Node6&#45;&gt;Node27 -->
<g id="edge33" class="edge">
<title>Node6&#45;&gt;Node27</title>
<path fill="none" stroke="#191970" d="M570.0374,-280.3733C603.3894,-270.9404 654.3527,-256.5265 690.6002,-246.2747"/>
<polygon fill="#191970" stroke="#191970" points="691.7368,-249.5906 700.4067,-243.5011 689.8316,-242.8548 691.7368,-249.5906"/>
</g>
<!-- Node30 -->
<g id="node31" class="node">
<title>Node30</title>
<g id="a_node31"><a xlink:href="Color_8hxx.html" target="_top" xlink:title="../util/Color.hxx">
<polygon fill="none" stroke="#000000" points="864,-224.5 864,-243.5 954,-243.5 954,-224.5 864,-224.5"/>
<text text-anchor="middle" x="909" y="-231.5" font-family="Helvetica,sans-Serif" font-size="10.00" fill="#000000">../util/Color.hxx</text>
</a>
</g>
</g>
<!-- Node6&#45;&gt;Node30 -->
<g id="edge37" class="edge">
<title>Node6&#45;&gt;Node30</title>
<path fill="none" stroke="#191970" d="M595.103,-281.1266C666.1277,-270.4634 784.3715,-252.711 853.6718,-242.3066"/>
<polygon fill="#191970" stroke="#191970" points="854.5749,-245.7104 863.9444,-240.7644 853.5356,-238.788 854.5749,-245.7104"/>
</g>
<!-- Node32 -->
<g id="node33" class="node">
<title>Node32</title>
<g id="a_node33"><a xlink:href="PixelBuffer_8inl_8hxx.html" target="_top" xlink:title="PixelBuffer.inl.hxx">
<polygon fill="none" stroke="#000000" points="419.5,-224.5 419.5,-243.5 524.5,-243.5 524.5,-224.5 419.5,-224.5"/>
<text text-anchor="middle" x="472" y="-231.5" font-family="Helvetica,sans-Serif" font-size="10.00" fill="#000000">PixelBuffer.inl.hxx</text>
</a>
</g>
</g>
<!-- Node6&#45;&gt;Node32 -->
<g id="edge40" class="edge">
<title>Node6&#45;&gt;Node32</title>
<path fill="none" stroke="#191970" d="M524.8521,-280.2455C515.4913,-272.0549 501.9142,-260.1749 490.8651,-250.5069"/>
<polygon fill="#191970" stroke="#191970" points="492.8508,-247.5937 483.0202,-243.6427 488.2412,-252.8618 492.8508,-247.5937"/>
</g>
<!-- Node8 -->
<g id="node9" class="node">
<title>Node8</title>
<polygon fill="none" stroke="#bfbfbf" points="189.5,-.5 189.5,-19.5 230.5,-19.5 230.5,-.5 189.5,-.5"/>
<text text-anchor="middle" x="210" y="-7.5" font-family="Helvetica,sans-Serif" font-size="10.00" fill="#000000">tuple</text>
</g>
<!-- Node7&#45;&gt;Node8 -->
<g id="edge9" class="edge">
<title>Node7&#45;&gt;Node8</title>
<path fill="none" stroke="#191970" d="M542.8023,-224.4189C504.5638,-216.9157 453.2498,-204.8996 410,-188 314.3859,-150.6394 260.096,-164.4527 208,-76 199.8289,-62.1265 201.2259,-43.6095 204.1516,-29.7203"/>
<polygon fill="#191970" stroke="#191970" points="207.6142,-30.3037 206.6721,-19.7508 200.8277,-28.5879 207.6142,-30.3037"/>
</g>
<!-- Node9 -->
<g id="node10" class="node">
<title>Node9</title>
<polygon fill="none" stroke="#bfbfbf" points="980,-.5 980,-19.5 1040,-19.5 1040,-.5 980,-.5"/>
<text text-anchor="middle" x="1010" y="-7.5" font-family="Helvetica,sans-Serif" font-size="10.00" fill="#000000">iostream</text>
</g>
<!-- Node7&#45;&gt;Node9 -->
<g id="edge10" class="edge">
<title>Node7&#45;&gt;Node9</title>
<path fill="none" stroke="#191970" d="M614.849,-224.2729C637.8377,-210.4501 682.0594,-184.9263 722,-168 845.7209,-115.5687 930.7486,-184.5132 1010,-76 1019.6935,-62.7274 1018.5244,-43.6081 1015.6223,-29.3608"/>
<polygon fill="#191970" stroke="#191970" points="1019.0065,-28.4657 1013.2163,-19.593 1012.2096,-30.1399 1019.0065,-28.4657"/>
</g>
<!-- Node10 -->
<g id="node11" class="node">
<title>Node10</title>
<g id="a_node11"><a xlink:href="iShape_8hxx.html" target="_top" xlink:title="../util/iShape.hxx">
<polygon fill="none" stroke="#000000" points="419,-168.5 419,-187.5 517,-187.5 517,-168.5 419,-168.5"/>
<text text-anchor="middle" x="468" y="-175.5" font-family="Helvetica,sans-Serif" font-size="10.00" fill="#000000">../util/iShape.hxx</text>
</a>
</g>
</g>
<!-- Node7&#45;&gt;Node10 -->
<g id="edge11" class="edge">
<title>Node7&#45;&gt;Node10</title>
<path fill="none" stroke="#191970" d="M576.4803,-224.3733C555.2628,-215.3032 523.2724,-201.6279 499.5231,-191.4755"/>
<polygon fill="#191970" stroke="#191970" points="500.7967,-188.2136 490.2258,-187.5011 498.0452,-194.6502 500.7967,-188.2136"/>
</g>
<!-- Node11 -->
<g id="node12" class="node">
<title>Node11</title>
<g id="a_node12"><a xlink:href="Rectangle_8inl_8hxx.html" target="_top" xlink:title="Rectangle.inl.hxx">
<polygon fill="none" stroke="#000000" points="535.5,-168.5 535.5,-187.5 636.5,-187.5 636.5,-168.5 535.5,-168.5"/>
<text text-anchor="middle" x="586" y="-175.5" font-family="Helvetica,sans-Serif" font-size="10.00" fill="#000000">Rectangle.inl.hxx</text>
</a>
</g>
</g>
<!-- Node7&#45;&gt;Node11 -->
<g id="edge12" class="edge">
<title>Node7&#45;&gt;Node11</title>
<path fill="none" stroke="#191970" d="M596.7356,-224.2455C595.0206,-216.8579 592.6088,-206.4689 590.5056,-197.4087"/>
<polygon fill="#191970" stroke="#191970" points="593.9092,-196.5922 588.2385,-187.6427 587.0905,-198.1751 593.9092,-196.5922"/>
</g>
<!-- Node12 -->
<g id="node13" class="node">
<title>Node12</title>
<polygon fill="none" stroke="#bfbfbf" points="217,-56.5 217,-75.5 281,-75.5 281,-56.5 217,-56.5"/>
<text text-anchor="middle" x="249" y="-63.5" font-family="Helvetica,sans-Serif" font-size="10.00" fill="#000000">algorithm</text>
</g>
<!-- Node11&#45;&gt;Node12 -->
<g id="edge13" class="edge">
<title>Node11&#45;&gt;Node12</title>
<path fill="none" stroke="#191970" d="M557.2676,-168.4509C496.5833,-148.2829 355.3477,-101.3441 287.1703,-78.6857"/>
<polygon fill="#191970" stroke="#191970" points="288.2532,-75.3574 277.6597,-75.5249 286.0455,-82.0002 288.2532,-75.3574"/>
</g>
<!-- Node13 -->
<g id="node14" class="node">
<title>Node13</title>
<g id="a_node14"><a xlink:href="LOG_8hxx.html" target="_top" xlink:title="LOG.hxx">
<polygon fill="none" stroke="#000000" points="557,-112.5 557,-131.5 615,-131.5 615,-112.5 557,-112.5"/>
<text text-anchor="middle" x="586" y="-119.5" font-family="Helvetica,sans-Serif" font-size="10.00" fill="#000000">LOG.hxx</text>
</a>
</g>
</g>
<!-- Node11&#45;&gt;Node13 -->
<g id="edge14" class="edge">
<title>Node11&#45;&gt;Node13</title>
<path fill="none" stroke="#191970" d="M586,-168.2455C586,-160.9382 586,-150.6944 586,-141.7046"/>
<polygon fill="#191970" stroke="#191970" points="589.5001,-141.6426 586,-131.6427 582.5001,-141.6427 589.5001,-141.6426"/>
</g>
<!-- Node13&#45;&gt;Node4 -->
<g id="edge15" class="edge">
<title>Node13&#45;&gt;Node4</title>
<path fill="none" stroke="#191970" d="M556.5633,-118.6495C492.914,-111.354 337.7486,-93.2945 208,-76 195.9662,-74.396 182.7705,-72.5139 171.1705,-70.8178"/>
<polygon fill="#191970" stroke="#191970" points="171.4486,-67.321 161.0452,-69.3258 170.4281,-74.2463 171.4486,-67.321"/>
</g>
<!-- Node13&#45;&gt;Node9 -->
<g id="edge19" class="edge">
<title>Node13&#45;&gt;Node9</title>
<path fill="none" stroke="#191970" d="M615.2329,-119.5061C684.3645,-113.3436 856.1416,-96.408 910,-76 926.4581,-69.7637 964.8518,-42.9342 988.9906,-25.461"/>
<polygon fill="#191970" stroke="#191970" points="991.1491,-28.2188 997.1718,-19.5023 987.028,-22.5605 991.1491,-28.2188"/>
</g>
<!-- Node13&#45;&gt;Node12 -->
<g id="edge25" class="edge">
<title>Node13&#45;&gt;Node12</title>
<path fill="none" stroke="#191970" d="M556.8653,-118.3095C505.2911,-111.5967 394.3779,-96.3543 291.1363,-76.0966"/>
<polygon fill="#191970" stroke="#191970" points="291.6612,-72.6326 281.1714,-74.1206 290.2996,-79.4989 291.6612,-72.6326"/>
</g>
<!-- Node14 -->
<g id="node15" class="node">
<title>Node14</title>
<g id="a_node15"><a xlink:href="Exception_8hxx.html" target="_top" xlink:title="Exception.hxx">
<polygon fill="none" stroke="#000000" points="299,-56.5 299,-75.5 385,-75.5 385,-56.5 299,-56.5"/>
<text text-anchor="middle" x="342" y="-63.5" font-family="Helvetica,sans-Serif" font-size="10.00" fill="#000000">Exception.hxx</text>
</a>
</g>
</g>
<!-- Node13&#45;&gt;Node14 -->
<g id="edge16" class="edge">
<title>Node13&#45;&gt;Node14</title>
<path fill="none" stroke="#191970" d="M556.5679,-115.2451C516.2502,-105.9918 443.2122,-89.229 393.671,-77.8589"/>
<polygon fill="#191970" stroke="#191970" points="394.3143,-74.4156 383.7847,-75.5899 392.7484,-81.2382 394.3143,-74.4156"/>
</g>
<!-- Node17 -->
<g id="node18" class="node">
<title>Node17</title>
<polygon fill="none" stroke="#bfbfbf" points="403,-56.5 403,-75.5 453,-75.5 453,-56.5 403,-56.5"/>
<text text-anchor="middle" x="428" y="-63.5" font-family="Helvetica,sans-Serif" font-size="10.00" fill="#000000">chrono</text>
</g>
<!-- Node13&#45;&gt;Node17 -->
<g id="edge20" class="edge">
<title>Node13&#45;&gt;Node17</title>
<path fill="none" stroke="#191970" d="M558.8388,-112.3733C532.3197,-102.9741 491.8474,-88.6295 462.9428,-78.3848"/>
<polygon fill="#191970" stroke="#191970" points="463.8378,-74.9887 453.2431,-74.9469 461.4993,-81.5866 463.8378,-74.9887"/>
</g>
<!-- Node18 -->
<g id="node19" class="node">
<title>Node18</title>
<polygon fill="none" stroke="#bfbfbf" points="471,-56.5 471,-75.5 515,-75.5 515,-56.5 471,-56.5"/>
<text text-anchor="middle" x="493" y="-63.5" font-family="Helvetica,sans-Serif" font-size="10.00" fill="#000000">ctime</text>
</g>
<!-- Node13&#45;&gt;Node18 -->
<g id="edge21" class="edge">
<title>Node13&#45;&gt;Node18</title>
<path fill="none" stroke="#191970" d="M569.8006,-112.2455C555.3982,-103.5731 534.1268,-90.7645 517.6201,-80.825"/>
<polygon fill="#191970" stroke="#191970" points="519.386,-77.8028 509.0137,-75.6427 515.775,-83.7996 519.386,-77.8028"/>
</g>
<!-- Node19 -->
<g id="node20" class="node">
<title>Node19</title>
<polygon fill="none" stroke="#bfbfbf" points="533.5,-56.5 533.5,-75.5 588.5,-75.5 588.5,-56.5 533.5,-56.5"/>
<text text-anchor="middle" x="561" y="-63.5" font-family="Helvetica,sans-Serif" font-size="10.00" fill="#000000">fstream</text>
</g>
<!-- Node13&#45;&gt;Node19 -->
<g id="edge22" class="edge">
<title>Node13&#45;&gt;Node19</title>
<path fill="none" stroke="#191970" d="M581.6453,-112.2455C578.2756,-104.6973 573.507,-94.0158 569.4017,-84.8197"/>
<polygon fill="#191970" stroke="#191970" points="572.5773,-83.3473 565.3048,-75.6427 566.1853,-86.2009 572.5773,-83.3473"/>
</g>
<!-- Node20 -->
<g id="node21" class="node">
<title>Node20</title>
<polygon fill="none" stroke="#bfbfbf" points="607,-56.5 607,-75.5 663,-75.5 663,-56.5 607,-56.5"/>
<text text-anchor="middle" x="635" y="-63.5" font-family="Helvetica,sans-Serif" font-size="10.00" fill="#000000">sstream</text>
</g>
<!-- Node13&#45;&gt;Node20 -->
<g id="edge23" class="edge">
<title>Node13&#45;&gt;Node20</title>
<path fill="none" stroke="#191970" d="M594.5351,-112.2455C601.4912,-104.2958 611.4883,-92.8706 619.8051,-83.3656"/>
<polygon fill="#191970" stroke="#191970" points="622.6116,-85.4732 626.5627,-75.6427 617.3436,-80.8637 622.6116,-85.4732"/>
</g>
<!-- Node13&#45;&gt;Node21 -->
<g id="edge24" class="edge">
<title>Node13&#45;&gt;Node21</title>
<path fill="none" stroke="#191970" d="M615.3854,-119.6451C676.7159,-114.4169 822.6408,-100.3412 943,-76 944.2517,-75.7469 945.5238,-75.4735 946.8058,-75.1846"/>
<polygon fill="#191970" stroke="#191970" points="947.7891,-78.5468 956.6512,-72.7404 946.1025,-71.753 947.7891,-78.5468"/>
</g>
<!-- Node22 -->
<g id="node23" class="node">
<title>Node22</title>
<polygon fill="none" stroke="#bfbfbf" points="681,-56.5 681,-75.5 729,-75.5 729,-56.5 681,-56.5"/>
<text text-anchor="middle" x="705" y="-63.5" font-family="Helvetica,sans-Serif" font-size="10.00" fill="#000000">mutex</text>
</g>
<!-- Node13&#45;&gt;Node22 -->
<g id="edge26" class="edge">
<title>Node13&#45;&gt;Node22</title>
<path fill="none" stroke="#191970" d="M606.4568,-112.3733C625.4738,-103.4241 654.0175,-89.9917 675.4976,-79.8835"/>
<polygon fill="#191970" stroke="#191970" points="677.2522,-82.926 684.8101,-75.5011 674.2716,-76.5923 677.2522,-82.926"/>
</g>
<!-- Node23 -->
<g id="node24" class="node">
<title>Node23</title>
<g id="a_node24"><a xlink:href="Meta_8hxx.html" target="_top" xlink:title="Meta.hxx">
<polygon fill="none" stroke="#000000" points="839,-56.5 839,-75.5 901,-75.5 901,-56.5 839,-56.5"/>
<text text-anchor="middle" x="870" y="-63.5" font-family="Helvetica,sans-Serif" font-size="10.00" fill="#000000">Meta.hxx</text>
</a>
</g>
</g>
<!-- Node13&#45;&gt;Node23 -->
<g id="edge27" class="edge">
<title>Node13&#45;&gt;Node23</title>
<path fill="none" stroke="#191970" d="M615.2752,-116.9668C659.2864,-109.2899 745.325,-93.8566 828.7992,-75.9504"/>
<polygon fill="#191970" stroke="#191970" points="829.6638,-79.3445 838.6996,-73.8122 828.186,-72.5022 829.6638,-79.3445"/>
</g>
<!-- Node26 -->
<g id="node27" class="node">
<title>Node26</title>
<g id="a_node27"><a xlink:href="LOG_8inl_8hxx.html" target="_top" xlink:title="LOG.inl.hxx">
<polygon fill="none" stroke="#000000" points="747.5,-56.5 747.5,-75.5 820.5,-75.5 820.5,-56.5 747.5,-56.5"/>
<text text-anchor="middle" x="784" y="-63.5" font-family="Helvetica,sans-Serif" font-size="10.00" fill="#000000">LOG.inl.hxx</text>
</a>
</g>
</g>
<!-- Node13&#45;&gt;Node26 -->
<g id="edge32" class="edge">
<title>Node13&#45;&gt;Node26</title>
<path fill="none" stroke="#191970" d="M615.2156,-113.737C648.2962,-104.3809 702.5276,-89.0427 740.5687,-78.2836"/>
<polygon fill="#191970" stroke="#191970" points="741.6825,-81.606 750.3524,-75.5165 739.7773,-74.8702 741.6825,-81.606"/>
</g>
<!-- Node15 -->
<g id="node16" class="node">
<title>Node15</title>
<polygon fill="none" stroke="#bfbfbf" points="268.5,-.5 268.5,-19.5 333.5,-19.5 333.5,-.5 268.5,-.5"/>
<text text-anchor="middle" x="301" y="-7.5" font-family="Helvetica,sans-Serif" font-size="10.00" fill="#000000">stdexcept</text>
</g>
<!-- Node14&#45;&gt;Node15 -->
<g id="edge17" class="edge">
<title>Node14&#45;&gt;Node15</title>
<path fill="none" stroke="#191970" d="M334.8583,-56.2455C329.1556,-48.4564 321.01,-37.3308 314.1375,-27.9439"/>
<polygon fill="#191970" stroke="#191970" points="316.7913,-25.6437 308.0598,-19.6427 311.1432,-29.7789 316.7913,-25.6437"/>
</g>
<!-- Node16 -->
<g id="node17" class="node">
<title>Node16</title>
<polygon fill="none" stroke="#bfbfbf" points="351.5,-.5 351.5,-19.5 416.5,-19.5 416.5,-.5 351.5,-.5"/>
<text text-anchor="middle" x="384" y="-7.5" font-family="Helvetica,sans-Serif" font-size="10.00" fill="#000000">exception</text>
</g>
<!-- Node14&#45;&gt;Node16 -->
<g id="edge18" class="edge">
<title>Node14&#45;&gt;Node16</title>
<path fill="none" stroke="#191970" d="M349.3158,-56.2455C355.2179,-48.3761 363.6742,-37.101 370.7594,-27.6542"/>
<polygon fill="#191970" stroke="#191970" points="373.568,-29.7427 376.768,-19.6427 367.9679,-25.5427 373.568,-29.7427"/>
</g>
<!-- Node23&#45;&gt;Node8 -->
<g id="edge31" class="edge">
<title>Node23&#45;&gt;Node8</title>
<path fill="none" stroke="#191970" d="M838.774,-57.7834C835.4896,-57.0994 832.187,-56.4854 829,-56 578.0561,-17.7776 510.6233,-53.4586 259,-20 253.0454,-19.2082 246.7303,-18.114 240.6845,-16.9386"/>
<polygon fill="#191970" stroke="#191970" points="241.3753,-13.5075 230.8754,-14.923 239.9663,-20.3642 241.3753,-13.5075"/>
</g>
<!-- Node23&#45;&gt;Node9 -->
<g id="edge28" class="edge">
<title>Node23&#45;&gt;Node9</title>
<path fill="none" stroke="#191970" d="M894.0669,-56.3733C916.8428,-47.2629 951.2344,-33.5062 976.649,-23.3404"/>
<polygon fill="#191970" stroke="#191970" points="978.2623,-26.4648 986.2472,-19.5011 975.6625,-19.9654 978.2623,-26.4648"/>
</g>
<!-- Node24 -->
<g id="node25" class="node">
<title>Node24</title>
<polygon fill="none" stroke="#bfbfbf" points="854.5,-.5 854.5,-19.5 923.5,-19.5 923.5,-.5 854.5,-.5"/>
<text text-anchor="middle" x="889" y="-7.5" font-family="Helvetica,sans-Serif" font-size="10.00" fill="#000000">type_traits</text>
</g>
<!-- Node23&#45;&gt;Node24 -->
<g id="edge29" class="edge">
<title>Node23&#45;&gt;Node24</title>
<path fill="none" stroke="#191970" d="M873.3095,-56.2455C875.8433,-48.7776 879.4177,-38.2427 882.515,-29.1137"/>
<polygon fill="#191970" stroke="#191970" points="885.8298,-30.237 885.7284,-19.6427 879.2009,-27.9879 885.8298,-30.237"/>
</g>
<!-- Node25 -->
<g id="node26" class="node">
<title>Node25</title>
<polygon fill="none" stroke="#bfbfbf" points="785.5,-.5 785.5,-19.5 836.5,-19.5 836.5,-.5 785.5,-.5"/>
<text text-anchor="middle" x="811" y="-7.5" font-family="Helvetica,sans-Serif" font-size="10.00" fill="#000000">variant</text>
</g>
<!-- Node23&#45;&gt;Node25 -->
<g id="edge30" class="edge">
<title>Node23&#45;&gt;Node25</title>
<path fill="none" stroke="#191970" d="M859.723,-56.2455C851.1782,-48.1352 838.8222,-36.4075 828.6915,-26.7919"/>
<polygon fill="#191970" stroke="#191970" points="830.8218,-23.9884 821.1592,-19.6427 826.0028,-29.0655 830.8218,-23.9884"/>
</g>
<!-- Node27&#45;&gt;Node23 -->
<g id="edge35" class="edge">
<title>Node27&#45;&gt;Node23</title>
<path fill="none" stroke="#191970" d="M728.6519,-224.4636C721.9269,-211.0917 712.3596,-186.3522 722,-168 745.2797,-123.683 797.4987,-94.8548 833.2472,-79.5057"/>
<polygon fill="#191970" stroke="#191970" points="834.9521,-82.5881 842.8556,-75.5322 832.277,-76.1194 834.9521,-82.5881"/>
</g>
<!-- Node28 -->
<g id="node29" class="node">
<title>Node28</title>
<polygon fill="none" stroke="#bfbfbf" points="731.5,-168.5 731.5,-187.5 784.5,-187.5 784.5,-168.5 731.5,-168.5"/>
<text text-anchor="middle" x="758" y="-175.5" font-family="Helvetica,sans-Serif" font-size="10.00" fill="#000000">iterator</text>
</g>
<!-- Node27&#45;&gt;Node28 -->
<g id="edge34" class="edge">
<title>Node27&#45;&gt;Node28</title>
<path fill="none" stroke="#191970" d="M738.1805,-224.2455C741.381,-216.7776 745.896,-206.2427 749.8084,-197.1137"/>
<polygon fill="#191970" stroke="#191970" points="753.1452,-198.2129 753.8674,-187.6427 746.7112,-195.4554 753.1452,-198.2129"/>
</g>
<!-- Node29 -->
<g id="node30" class="node">
<title>Node29</title>
<g id="a_node30"><a xlink:href="Range_8inl_8hxx.html" target="_top" xlink:title="Range.inl.hxx">
<polygon fill="none" stroke="#000000" points="802.5,-168.5 802.5,-187.5 885.5,-187.5 885.5,-168.5 802.5,-168.5"/>
<text text-anchor="middle" x="844" y="-175.5" font-family="Helvetica,sans-Serif" font-size="10.00" fill="#000000">Range.inl.hxx</text>
</a>
</g>
</g>
<!-- Node27&#45;&gt;Node29 -->
<g id="edge36" class="edge">
<title>Node27&#45;&gt;Node29</title>
<path fill="none" stroke="#191970" d="M753.1605,-224.2455C770.5111,-215.4125 796.2901,-202.2887 815.9583,-192.2758"/>
<polygon fill="#191970" stroke="#191970" points="817.7353,-195.2986 825.059,-187.6427 814.5595,-189.0605 817.7353,-195.2986"/>
</g>
<!-- Node30&#45;&gt;Node9 -->
<g id="edge39" class="edge">
<title>Node30&#45;&gt;Node9</title>
<path fill="none" stroke="#191970" d="M929.1453,-224.4725C958.5039,-209.4014 1012.2366,-177.077 1037,-132 1053.3141,-102.3032 1053.3734,-88.2559 1043,-56 1039.6054,-45.4445 1032.7942,-35.2592 1026.2369,-27.1676"/>
<polygon fill="#191970" stroke="#191970" points="1028.8431,-24.8307 1019.6492,-19.5654 1023.553,-29.4149 1028.8431,-24.8307"/>
</g>
<!-- Node31 -->
<g id="node32" class="node">
<title>Node31</title>
<polygon fill="none" stroke="#bfbfbf" points="904,-168.5 904,-187.5 954,-187.5 954,-168.5 904,-168.5"/>
<text text-anchor="middle" x="929" y="-175.5" font-family="Helvetica,sans-Serif" font-size="10.00" fill="#000000">cstdint</text>
</g>
<!-- Node30&#45;&gt;Node31 -->
<g id="edge38" class="edge">
<title>Node30&#45;&gt;Node31</title>
<path fill="none" stroke="#191970" d="M912.4837,-224.2455C915.1508,-216.7776 918.9133,-206.2427 922.1737,-197.1137"/>
<polygon fill="#191970" stroke="#191970" points="925.4889,-198.2373 925.5562,-187.6427 918.8967,-195.8829 925.4889,-198.2373"/>
</g>
</g>
</svg>
