<?xml version="1.0" encoding="UTF-8" standalone="no"?>
<!DOCTYPE svg PUBLIC "-//W3C//DTD SVG 1.1//EN"
 "http://www.w3.org/Graphics/SVG/1.1/DTD/svg11.dtd">
<!-- Generated by graphviz version 2.40.1 (20161225.0304)
 -->
<!-- Title: src/renderer/SDLRenderer.cxx Pages: 1 -->
<!--zoomable 420 -->
<svg id="main" version="1.1" xmlns="http://www.w3.org/2000/svg" xmlns:xlink="http://www.w3.org/1999/xlink" xml:space="preserve" onload="init(evt)">
<style type="text/css"><![CDATA[
.edge:hover path { stroke: red; }
.edge:hover polygon { stroke: red; fill: red; }
]]></style>
<script type="text/javascript"><![CDATA[
var edges = document.getElementsByTagName('g');
if (edges && edges.length) {
  for (var i=0;i<edges.length;i++) {
    if (edges[i].id.substr(0,4)=='edge') {
      edges[i].setAttribute('class','edge');
    }
  }
}
]]></script>
        <defs>
                <circle id="rim" cx="0" cy="0" r="7"/>
                <circle id="rim2" cx="0" cy="0" r="3.5"/>
                <g id="zoomPlus">
                        <use xlink:href="#rim" fill="#404040">
                                <set attributeName="fill" to="#808080" begin="zoomplus.mouseover" end="zoomplus.mouseout"/>
                        </use>
                        <path d="M-4,0h8M0,-4v8" fill="none" stroke="white" stroke-width="1.5" pointer-events="none"/>
                </g>
                <g id="zoomMin">
                        <use xlink:href="#rim" fill="#404040">
                                <set attributeName="fill" to="#808080" begin="zoomminus.mouseover" end="zoomminus.mouseout"/>
                        </use>
                        <path d="M-4,0h8" fill="none" stroke="white" stroke-width="1.5" pointer-events="none"/>
                </g>
                <g id="dirArrow">
                        <path fill="none" stroke="white" stroke-width="1.5" d="M0,-3.0v7 M-2.5,-0.5L0,-3.0L2.5,-0.5"/>
                </g>
               <g id="resetDef">
                       <use xlink:href="#rim2" fill="#404040">
                               <set attributeName="fill" to="#808080" begin="reset.mouseover" end="reset.mouseout"/>
                       </use>
               </g>
        </defs>

<script type="text/javascript">
var viewWidth = 1470;
var viewHeight = 420;
var sectionId = 'dynsection-0';
</script>
<script xlink:href="svgpan.js"/>
<svg id="graph" class="graph">
<g id="viewport">
<title>src/renderer/SDLRenderer.cxx</title>
<!-- Node0 -->
<g id="node1" class="node">
<title>Node0</title>
<polygon fill="#bfbfbf" stroke="#000000" points="603.5,-392.5 603.5,-411.5 763.5,-411.5 763.5,-392.5 603.5,-392.5"/>
<text text-anchor="middle" x="683.5" y="-399.5" font-family="Helvetica,sans-Serif" font-size="10.00" fill="#000000">src/renderer/SDLRenderer.cxx</text>
</g>
<!-- Node1 -->
<g id="node2" class="node">
<title>Node1</title>
<g id="a_node2"><a xlink:href="SDLRenderer_8hxx.html" target="_top" xlink:title="SDLRenderer.hxx">
<polygon fill="none" stroke="#000000" points="466,-280.5 466,-299.5 565,-299.5 565,-280.5 466,-280.5"/>
<text text-anchor="middle" x="515.5" y="-287.5" font-family="Helvetica,sans-Serif" font-size="10.00" fill="#000000">SDLRenderer.hxx</text>
</a>
</g>
</g>
<!-- Node0&#45;&gt;Node1 -->
<g id="edge1" class="edge">
<title>Node0&#45;&gt;Node1</title>
<path fill="none" stroke="#191970" d="M669.1764,-392.4509C640.0402,-373.0268 573.6555,-328.7703 538.4342,-305.2895"/>
<polygon fill="#191970" stroke="#191970" points="540.0493,-302.1598 529.7873,-299.5249 536.1664,-307.9841 540.0493,-302.1598"/>
</g>
<!-- Node16 -->
<g id="node17" class="node">
<title>Node16</title>
<g id="a_node17"><a xlink:href="Exception_8hxx.html" target="_top" xlink:title="../util/Exception.hxx">
<polygon fill="none" stroke="#000000" points="17,-56.5 17,-75.5 130,-75.5 130,-56.5 17,-56.5"/>
<text text-anchor="middle" x="73.5" y="-63.5" font-family="Helvetica,sans-Serif" font-size="10.00" fill="#000000">../util/Exception.hxx</text>
</a>
</g>
</g>
<!-- Node0&#45;&gt;Node16 -->
<g id="edge18" class="edge">
<title>Node0&#45;&gt;Node16</title>
<path fill="none" stroke="#191970" d="M603.4398,-395.5381C437.9448,-381.102 73.5,-343.2645 73.5,-290 73.5,-290 73.5,-290 73.5,-178 73.5,-145.7116 73.5,-108.1872 73.5,-85.8048"/>
<polygon fill="#191970" stroke="#191970" points="77.0001,-85.5883 73.5,-75.5884 70.0001,-85.5884 77.0001,-85.5883"/>
</g>
<!-- Node19 -->
<g id="node20" class="node">
<title>Node19</title>
<g id="a_node20"><a xlink:href="LOG_8hxx.html" target="_top" xlink:title="../util/LOG.hxx">
<polygon fill="none" stroke="#000000" points="575.5,-112.5 575.5,-131.5 661.5,-131.5 661.5,-112.5 575.5,-112.5"/>
<text text-anchor="middle" x="618.5" y="-119.5" font-family="Helvetica,sans-Serif" font-size="10.00" fill="#000000">../util/LOG.hxx</text>
</a>
</g>
</g>
<!-- Node0&#45;&gt;Node19 -->
<g id="edge21" class="edge">
<title>Node0&#45;&gt;Node19</title>
<path fill="none" stroke="#191970" d="M683.5,-392.4116C683.5,-373.0538 683.5,-327.9167 683.5,-290 683.5,-290 683.5,-290 683.5,-234 683.5,-196.0918 655.3008,-159.5315 636.0498,-138.9893"/>
<polygon fill="#191970" stroke="#191970" points="638.4269,-136.4136 628.9434,-131.6899 633.4113,-141.2966 638.4269,-136.4136"/>
</g>
<!-- Node28 -->
<g id="node29" class="node">
<title>Node28</title>
<g id="a_node29"><a xlink:href="Filesystem_8hxx.html" target="_top" xlink:title="../util/Filesystem.hxx">
<polygon fill="none" stroke="#000000" points="976.5,-336.5 976.5,-355.5 1094.5,-355.5 1094.5,-336.5 976.5,-336.5"/>
<text text-anchor="middle" x="1035.5" y="-343.5" font-family="Helvetica,sans-Serif" font-size="10.00" fill="#000000">../util/Filesystem.hxx</text>
</a>
</g>
</g>
<!-- Node0&#45;&gt;Node28 -->
<g id="edge34" class="edge">
<title>Node0&#45;&gt;Node28</title>
<path fill="none" stroke="#191970" d="M743.611,-392.4369C805.3051,-382.6219 901.1988,-367.3661 966.0862,-357.0431"/>
<polygon fill="#191970" stroke="#191970" points="966.8982,-360.458 976.2241,-355.4303 965.7983,-353.545 966.8982,-360.458"/>
</g>
<!-- Node37 -->
<g id="node38" class="node">
<title>Node37</title>
<g id="a_node38"><a xlink:href="Settings_8hxx.html" target="_top" xlink:title="../engine/basics/Settings.hxx">
<polygon fill="none" stroke="#000000" points="1194.5,-280.5 1194.5,-299.5 1350.5,-299.5 1350.5,-280.5 1194.5,-280.5"/>
<text text-anchor="middle" x="1272.5" y="-287.5" font-family="Helvetica,sans-Serif" font-size="10.00" fill="#000000">../engine/basics/Settings.hxx</text>
</a>
</g>
</g>
<!-- Node0&#45;&gt;Node37 -->
<g id="edge53" class="edge">
<title>Node0&#45;&gt;Node37</title>
<path fill="none" stroke="#191970" d="M763.5405,-399.4832C848.8606,-395.3578 987.3821,-384.5026 1103.5,-356 1154.5899,-343.4593 1210.9481,-319.1906 1243.9556,-303.8341"/>
<polygon fill="#191970" stroke="#191970" points="1245.4634,-306.9928 1253.0202,-299.5669 1242.4819,-300.6595 1245.4634,-306.9928"/>
</g>
<!-- Node2 -->
<g id="node3" class="node">
<title>Node2</title>
<polygon fill="none" stroke="#bfbfbf" points="251.5,-56.5 251.5,-75.5 295.5,-75.5 295.5,-56.5 251.5,-56.5"/>
<text text-anchor="middle" x="273.5" y="-63.5" font-family="Helvetica,sans-Serif" font-size="10.00" fill="#000000">SDL.h</text>
</g>
<!-- Node1&#45;&gt;Node2 -->
<g id="edge2" class="edge">
<title>Node1&#45;&gt;Node2</title>
<path fill="none" stroke="#191970" d="M465.7285,-280.7289C386.8782,-264.9164 239.0202,-230.3009 208.5,-188 183.176,-152.901 225.7897,-106.7087 253.189,-82.4716"/>
<polygon fill="#191970" stroke="#191970" points="255.7899,-84.8525 261.1117,-75.6912 251.2384,-79.5342 255.7899,-84.8525"/>
</g>
<!-- Node3 -->
<g id="node4" class="node">
<title>Node3</title>
<polygon fill="none" stroke="#bfbfbf" points="101.5,-224.5 101.5,-243.5 161.5,-243.5 161.5,-224.5 101.5,-224.5"/>
<text text-anchor="middle" x="131.5" y="-231.5" font-family="Helvetica,sans-Serif" font-size="10.00" fill="#000000">SDL_ttf.h</text>
</g>
<!-- Node1&#45;&gt;Node3 -->
<g id="edge3" class="edge">
<title>Node1&#45;&gt;Node3</title>
<path fill="none" stroke="#191970" d="M465.7319,-284.6721C399.2927,-277.239 278.0746,-262.5571 175.5,-244 174.2425,-243.7725 172.9667,-243.5334 171.6799,-243.2851"/>
<polygon fill="#191970" stroke="#191970" points="172.2237,-239.8238 161.7241,-241.2411 170.8159,-246.6808 172.2237,-239.8238"/>
</g>
<!-- Node4 -->
<g id="node5" class="node">
<title>Node4</title>
<polygon fill="none" stroke="#bfbfbf" points="1081,-224.5 1081,-243.5 1128,-243.5 1128,-224.5 1081,-224.5"/>
<text text-anchor="middle" x="1104.5" y="-231.5" font-family="Helvetica,sans-Serif" font-size="10.00" fill="#000000">vector</text>
</g>
<!-- Node1&#45;&gt;Node4 -->
<g id="edge4" class="edge">
<title>Node1&#45;&gt;Node4</title>
<path fill="none" stroke="#191970" d="M565.1422,-287.244C679.066,-280.7076 957.5028,-263.4751 1070.7442,-243.6803"/>
<polygon fill="#191970" stroke="#191970" points="1071.6556,-247.0715 1080.8569,-241.8192 1070.3886,-240.1871 1071.6556,-247.0715"/>
</g>
<!-- Node5 -->
<g id="node6" class="node">
<title>Node5</title>
<g id="a_node6"><a xlink:href="iRenderer_8hxx.html" target="_top" xlink:title="iRenderer.hxx">
<polygon fill="none" stroke="#000000" points="474,-224.5 474,-243.5 557,-243.5 557,-224.5 474,-224.5"/>
<text text-anchor="middle" x="515.5" y="-231.5" font-family="Helvetica,sans-Serif" font-size="10.00" fill="#000000">iRenderer.hxx</text>
</a>
</g>
</g>
<!-- Node1&#45;&gt;Node5 -->
<g id="edge5" class="edge">
<title>Node1&#45;&gt;Node5</title>
<path fill="none" stroke="#191970" d="M515.5,-280.2455C515.5,-272.9382 515.5,-262.6944 515.5,-253.7046"/>
<polygon fill="#191970" stroke="#191970" points="519.0001,-253.6426 515.5,-243.6427 512.0001,-253.6427 519.0001,-253.6426"/>
</g>
<!-- Node6 -->
<g id="node7" class="node">
<title>Node6</title>
<polygon fill="none" stroke="#bfbfbf" points="443.5,-168.5 443.5,-187.5 501.5,-187.5 501.5,-168.5 443.5,-168.5"/>
<text text-anchor="middle" x="472.5" y="-175.5" font-family="Helvetica,sans-Serif" font-size="10.00" fill="#000000">memory</text>
</g>
<!-- Node5&#45;&gt;Node6 -->
<g id="edge6" class="edge">
<title>Node5&#45;&gt;Node6</title>
<path fill="none" stroke="#191970" d="M508.01,-224.2455C501.9674,-216.3761 493.3097,-205.101 486.0559,-195.6542"/>
<polygon fill="#191970" stroke="#191970" points="488.7705,-193.4426 479.9042,-187.6427 483.2185,-197.7058 488.7705,-193.4426"/>
</g>
<!-- Node7 -->
<g id="node8" class="node">
<title>Node7</title>
<polygon fill="none" stroke="#bfbfbf" points="897,-.5 897,-19.5 938,-19.5 938,-.5 897,-.5"/>
<text text-anchor="middle" x="917.5" y="-7.5" font-family="Helvetica,sans-Serif" font-size="10.00" fill="#000000">tuple</text>
</g>
<!-- Node5&#45;&gt;Node7 -->
<g id="edge7" class="edge">
<title>Node5&#45;&gt;Node7</title>
<path fill="none" stroke="#191970" d="M557.2717,-232.3206C631.0394,-228.6203 780.5613,-217.6023 822.5,-188 851.1244,-167.7955 893.0233,-70.4744 909.9713,-28.8973"/>
<polygon fill="#191970" stroke="#191970" points="913.223,-30.1919 913.7192,-19.6087 906.7315,-27.5726 913.223,-30.1919"/>
</g>
<!-- Node8 -->
<g id="node9" class="node">
<title>Node8</title>
<polygon fill="none" stroke="#bfbfbf" points="325.5,-168.5 325.5,-187.5 425.5,-187.5 425.5,-168.5 325.5,-168.5"/>
<text text-anchor="middle" x="375.5" y="-175.5" font-family="Helvetica,sans-Serif" font-size="10.00" fill="#000000">betterEnums.hxx</text>
</g>
<!-- Node5&#45;&gt;Node8 -->
<g id="edge8" class="edge">
<title>Node5&#45;&gt;Node8</title>
<path fill="none" stroke="#191970" d="M491.4331,-224.3733C468.6572,-215.2629 434.2656,-201.5062 408.851,-191.3404"/>
<polygon fill="#191970" stroke="#191970" points="409.8375,-187.9654 399.2528,-187.5011 407.2377,-194.4648 409.8375,-187.9654"/>
</g>
<!-- Node9 -->
<g id="node10" class="node">
<title>Node9</title>
<g id="a_node10"><a xlink:href="Color_8hxx.html" target="_top" xlink:title="../util/Color.hxx">
<polygon fill="none" stroke="#000000" points="217.5,-168.5 217.5,-187.5 307.5,-187.5 307.5,-168.5 217.5,-168.5"/>
<text text-anchor="middle" x="262.5" y="-175.5" font-family="Helvetica,sans-Serif" font-size="10.00" fill="#000000">../util/Color.hxx</text>
</a>
</g>
</g>
<!-- Node5&#45;&gt;Node9 -->
<g id="edge9" class="edge">
<title>Node5&#45;&gt;Node9</title>
<path fill="none" stroke="#191970" d="M473.7222,-224.7527C430.4421,-215.173 362.6746,-200.173 315.6169,-189.7571"/>
<polygon fill="#191970" stroke="#191970" points="316.1307,-186.2862 305.6106,-187.5423 314.6179,-193.1208 316.1307,-186.2862"/>
</g>
<!-- Node12 -->
<g id="node13" class="node">
<title>Node12</title>
<g id="a_node13"><a xlink:href="iShape_8hxx.html" target="_top" xlink:title="../util/iShape.hxx">
<polygon fill="none" stroke="#000000" points="519.5,-168.5 519.5,-187.5 617.5,-187.5 617.5,-168.5 519.5,-168.5"/>
<text text-anchor="middle" x="568.5" y="-175.5" font-family="Helvetica,sans-Serif" font-size="10.00" fill="#000000">../util/iShape.hxx</text>
</a>
</g>
</g>
<!-- Node5&#45;&gt;Node12 -->
<g id="edge12" class="edge">
<title>Node5&#45;&gt;Node12</title>
<path fill="none" stroke="#191970" d="M524.7319,-224.2455C532.3317,-216.2155 543.2877,-204.6394 552.3368,-195.0781"/>
<polygon fill="#191970" stroke="#191970" points="555.0421,-197.3115 559.3739,-187.6427 549.958,-192.4998 555.0421,-197.3115"/>
</g>
<!-- Node13 -->
<g id="node14" class="node">
<title>Node13</title>
<g id="a_node14"><a xlink:href="Meta_8hxx.html" target="_top" xlink:title="../util/Meta.hxx">
<polygon fill="none" stroke="#000000" points="946,-56.5 946,-75.5 1035,-75.5 1035,-56.5 946,-56.5"/>
<text text-anchor="middle" x="990.5" y="-63.5" font-family="Helvetica,sans-Serif" font-size="10.00" fill="#000000">../util/Meta.hxx</text>
</a>
</g>
</g>
<!-- Node5&#45;&gt;Node13 -->
<g id="edge13" class="edge">
<title>Node5&#45;&gt;Node13</title>
<path fill="none" stroke="#191970" d="M557.0547,-231.4529C635.7272,-226.1307 803.2293,-212.2684 855.5,-188 908.243,-163.5123 954.9362,-111.1617 977.0096,-83.6793"/>
<polygon fill="#191970" stroke="#191970" points="979.8566,-85.721 983.2877,-75.697 974.3545,-81.3935 979.8566,-85.721"/>
</g>
<!-- Node10 -->
<g id="node11" class="node">
<title>Node10</title>
<polygon fill="none" stroke="#bfbfbf" points="237.5,-112.5 237.5,-131.5 287.5,-131.5 287.5,-112.5 237.5,-112.5"/>
<text text-anchor="middle" x="262.5" y="-119.5" font-family="Helvetica,sans-Serif" font-size="10.00" fill="#000000">cstdint</text>
</g>
<!-- Node9&#45;&gt;Node10 -->
<g id="edge10" class="edge">
<title>Node9&#45;&gt;Node10</title>
<path fill="none" stroke="#191970" d="M262.5,-168.2455C262.5,-160.9382 262.5,-150.6944 262.5,-141.7046"/>
<polygon fill="#191970" stroke="#191970" points="266.0001,-141.6426 262.5,-131.6427 259.0001,-141.6427 266.0001,-141.6426"/>
</g>
<!-- Node11 -->
<g id="node12" class="node">
<title>Node11</title>
<polygon fill="none" stroke="#bfbfbf" points="243.5,-.5 243.5,-19.5 303.5,-19.5 303.5,-.5 243.5,-.5"/>
<text text-anchor="middle" x="273.5" y="-7.5" font-family="Helvetica,sans-Serif" font-size="10.00" fill="#000000">iostream</text>
</g>
<!-- Node9&#45;&gt;Node11 -->
<g id="edge11" class="edge">
<title>Node9&#45;&gt;Node11</title>
<path fill="none" stroke="#191970" d="M252.3585,-168.3161C231.7516,-147.4174 188.6376,-96.687 209.5,-56 216.433,-42.4789 229.3936,-32.0326 241.8481,-24.5377"/>
<polygon fill="#191970" stroke="#191970" points="243.6928,-27.5168 250.734,-19.6001 240.2928,-21.3979 243.6928,-27.5168"/>
</g>
<!-- Node13&#45;&gt;Node7 -->
<g id="edge17" class="edge">
<title>Node13&#45;&gt;Node7</title>
<path fill="none" stroke="#191970" d="M977.7844,-56.2455C966.898,-47.8943 951.0117,-35.7076 938.28,-25.9408"/>
<polygon fill="#191970" stroke="#191970" points="940.1346,-22.9523 930.0699,-19.6427 935.8739,-28.5063 940.1346,-22.9523"/>
</g>
<!-- Node13&#45;&gt;Node11 -->
<g id="edge14" class="edge">
<title>Node13&#45;&gt;Node11</title>
<path fill="none" stroke="#191970" d="M945.9193,-62.5181C815.8573,-52.3598 438.2179,-22.865 313.7875,-13.1466"/>
<polygon fill="#191970" stroke="#191970" points="313.8075,-9.6376 303.5653,-12.3482 313.2624,-16.6163 313.8075,-9.6376"/>
</g>
<!-- Node14 -->
<g id="node15" class="node">
<title>Node14</title>
<polygon fill="none" stroke="#bfbfbf" points="956,-.5 956,-19.5 1025,-19.5 1025,-.5 956,-.5"/>
<text text-anchor="middle" x="990.5" y="-7.5" font-family="Helvetica,sans-Serif" font-size="10.00" fill="#000000">type_traits</text>
</g>
<!-- Node13&#45;&gt;Node14 -->
<g id="edge15" class="edge">
<title>Node13&#45;&gt;Node14</title>
<path fill="none" stroke="#191970" d="M990.5,-56.2455C990.5,-48.9382 990.5,-38.6944 990.5,-29.7046"/>
<polygon fill="#191970" stroke="#191970" points="994.0001,-29.6426 990.5,-19.6427 987.0001,-29.6427 994.0001,-29.6426"/>
</g>
<!-- Node15 -->
<g id="node16" class="node">
<title>Node15</title>
<polygon fill="none" stroke="#bfbfbf" points="1043,-.5 1043,-19.5 1094,-19.5 1094,-.5 1043,-.5"/>
<text text-anchor="middle" x="1068.5" y="-7.5" font-family="Helvetica,sans-Serif" font-size="10.00" fill="#000000">variant</text>
</g>
<!-- Node13&#45;&gt;Node15 -->
<g id="edge16" class="edge">
<title>Node13&#45;&gt;Node15</title>
<path fill="none" stroke="#191970" d="M1004.0866,-56.2455C1015.8305,-47.814 1033.0199,-35.4729 1046.6882,-25.6598"/>
<polygon fill="#191970" stroke="#191970" points="1048.9871,-28.3179 1055.0691,-19.6427 1044.9046,-22.6316 1048.9871,-28.3179"/>
</g>
<!-- Node17 -->
<g id="node18" class="node">
<title>Node17</title>
<polygon fill="none" stroke="#bfbfbf" points="0,-.5 0,-19.5 65,-19.5 65,-.5 0,-.5"/>
<text text-anchor="middle" x="32.5" y="-7.5" font-family="Helvetica,sans-Serif" font-size="10.00" fill="#000000">stdexcept</text>
</g>
<!-- Node16&#45;&gt;Node17 -->
<g id="edge19" class="edge">
<title>Node16&#45;&gt;Node17</title>
<path fill="none" stroke="#191970" d="M66.3583,-56.2455C60.6556,-48.4564 52.51,-37.3308 45.6375,-27.9439"/>
<polygon fill="#191970" stroke="#191970" points="48.2913,-25.6437 39.5598,-19.6427 42.6432,-29.7789 48.2913,-25.6437"/>
</g>
<!-- Node18 -->
<g id="node19" class="node">
<title>Node18</title>
<polygon fill="none" stroke="#bfbfbf" points="83,-.5 83,-19.5 148,-19.5 148,-.5 83,-.5"/>
<text text-anchor="middle" x="115.5" y="-7.5" font-family="Helvetica,sans-Serif" font-size="10.00" fill="#000000">exception</text>
</g>
<!-- Node16&#45;&gt;Node18 -->
<g id="edge20" class="edge">
<title>Node16&#45;&gt;Node18</title>
<path fill="none" stroke="#191970" d="M80.8158,-56.2455C86.7179,-48.3761 95.1742,-37.101 102.2594,-27.6542"/>
<polygon fill="#191970" stroke="#191970" points="105.068,-29.7427 108.268,-19.6427 99.4679,-25.5427 105.068,-29.7427"/>
</g>
<!-- Node19&#45;&gt;Node2 -->
<g id="edge29" class="edge">
<title>Node19&#45;&gt;Node2</title>
<path fill="none" stroke="#191970" d="M575.4644,-117.2915C515.4868,-110.3448 403.5358,-95.9806 309.5,-76 308.2508,-75.7346 306.9809,-75.4508 305.7007,-75.1532"/>
<polygon fill="#191970" stroke="#191970" points="306.4155,-71.7239 295.8631,-72.6713 304.7031,-78.5112 306.4155,-71.7239"/>
</g>
<!-- Node19&#45;&gt;Node11 -->
<g id="edge24" class="edge">
<title>Node19&#45;&gt;Node11</title>
<path fill="none" stroke="#191970" d="M575.3144,-117.9343C508.2417,-111.0993 382.5715,-96.0616 342.5,-76 319.9482,-64.7095 299.8312,-43.5282 287.2201,-28.2001"/>
<polygon fill="#191970" stroke="#191970" points="289.6537,-25.6355 280.7006,-19.9704 284.1668,-29.9822 289.6537,-25.6355"/>
</g>
<!-- Node19&#45;&gt;Node13 -->
<g id="edge32" class="edge">
<title>Node19&#45;&gt;Node13</title>
<path fill="none" stroke="#191970" d="M661.5365,-115.5214C729.3956,-105.306 861.1836,-85.467 935.7077,-74.2483"/>
<polygon fill="#191970" stroke="#191970" points="936.4631,-77.6741 945.8307,-72.7244 935.4211,-70.7521 936.4631,-77.6741"/>
</g>
<!-- Node19&#45;&gt;Node16 -->
<g id="edge23" class="edge">
<title>Node19&#45;&gt;Node16</title>
<path fill="none" stroke="#191970" d="M575.2792,-117.559C480.5513,-107.8255 254.0705,-84.554 140.636,-72.8984"/>
<polygon fill="#191970" stroke="#191970" points="140.6556,-69.382 130.3501,-71.8415 139.94,-76.3454 140.6556,-69.382"/>
</g>
<!-- Node20 -->
<g id="node21" class="node">
<title>Node20</title>
<polygon fill="none" stroke="#bfbfbf" points="1182.5,-56.5 1182.5,-75.5 1226.5,-75.5 1226.5,-56.5 1182.5,-56.5"/>
<text text-anchor="middle" x="1204.5" y="-63.5" font-family="Helvetica,sans-Serif" font-size="10.00" fill="#000000">string</text>
</g>
<!-- Node19&#45;&gt;Node20 -->
<g id="edge22" class="edge">
<title>Node19&#45;&gt;Node20</title>
<path fill="none" stroke="#191970" d="M661.59,-117.8822C773.8001,-107.159 1073.1858,-78.5488 1172.2034,-69.0864"/>
<polygon fill="#191970" stroke="#191970" points="1172.5887,-72.5656 1182.2104,-68.1301 1171.9227,-65.5973 1172.5887,-72.5656"/>
</g>
<!-- Node21 -->
<g id="node22" class="node">
<title>Node21</title>
<polygon fill="none" stroke="#bfbfbf" points="351.5,-56.5 351.5,-75.5 401.5,-75.5 401.5,-56.5 351.5,-56.5"/>
<text text-anchor="middle" x="376.5" y="-63.5" font-family="Helvetica,sans-Serif" font-size="10.00" fill="#000000">chrono</text>
</g>
<!-- Node19&#45;&gt;Node21 -->
<g id="edge25" class="edge">
<title>Node19&#45;&gt;Node21</title>
<path fill="none" stroke="#191970" d="M575.2724,-113.3397C535.2024,-105.1113 473.7294,-91.9806 411.6613,-76.1784"/>
<polygon fill="#191970" stroke="#191970" points="412.2541,-72.7171 401.6978,-73.6196 410.5129,-79.4971 412.2541,-72.7171"/>
</g>
<!-- Node22 -->
<g id="node23" class="node">
<title>Node22</title>
<polygon fill="none" stroke="#bfbfbf" points="419.5,-56.5 419.5,-75.5 463.5,-75.5 463.5,-56.5 419.5,-56.5"/>
<text text-anchor="middle" x="441.5" y="-63.5" font-family="Helvetica,sans-Serif" font-size="10.00" fill="#000000">ctime</text>
</g>
<!-- Node19&#45;&gt;Node22 -->
<g id="edge26" class="edge">
<title>Node19&#45;&gt;Node22</title>
<path fill="none" stroke="#191970" d="M588.001,-112.4572C560.4132,-103.8106 518.4249,-90.6145 473.2042,-76.2109"/>
<polygon fill="#191970" stroke="#191970" points="474.1002,-72.8231 463.5095,-73.1203 471.9739,-79.4924 474.1002,-72.8231"/>
</g>
<!-- Node23 -->
<g id="node24" class="node">
<title>Node23</title>
<polygon fill="none" stroke="#bfbfbf" points="482,-56.5 482,-75.5 537,-75.5 537,-56.5 482,-56.5"/>
<text text-anchor="middle" x="509.5" y="-63.5" font-family="Helvetica,sans-Serif" font-size="10.00" fill="#000000">fstream</text>
</g>
<!-- Node19&#45;&gt;Node23 -->
<g id="edge27" class="edge">
<title>Node19&#45;&gt;Node23</title>
<path fill="none" stroke="#191970" d="M599.5136,-112.2455C582.3208,-103.4125 556.7762,-90.2887 537.2868,-80.2758"/>
<polygon fill="#191970" stroke="#191970" points="538.763,-77.0993 528.2688,-75.6427 535.5641,-83.3257 538.763,-77.0993"/>
</g>
<!-- Node24 -->
<g id="node25" class="node">
<title>Node24</title>
<polygon fill="none" stroke="#bfbfbf" points="555.5,-56.5 555.5,-75.5 611.5,-75.5 611.5,-56.5 555.5,-56.5"/>
<text text-anchor="middle" x="583.5" y="-63.5" font-family="Helvetica,sans-Serif" font-size="10.00" fill="#000000">sstream</text>
</g>
<!-- Node19&#45;&gt;Node24 -->
<g id="edge28" class="edge">
<title>Node19&#45;&gt;Node24</title>
<path fill="none" stroke="#191970" d="M612.4035,-112.2455C607.5855,-104.5367 600.7249,-93.5598 594.8968,-84.2348"/>
<polygon fill="#191970" stroke="#191970" points="597.7947,-82.2677 589.5267,-75.6427 591.8587,-85.9777 597.7947,-82.2677"/>
</g>
<!-- Node25 -->
<g id="node26" class="node">
<title>Node25</title>
<polygon fill="none" stroke="#bfbfbf" points="787.5,-56.5 787.5,-75.5 851.5,-75.5 851.5,-56.5 787.5,-56.5"/>
<text text-anchor="middle" x="819.5" y="-63.5" font-family="Helvetica,sans-Serif" font-size="10.00" fill="#000000">algorithm</text>
</g>
<!-- Node19&#45;&gt;Node25 -->
<g id="edge30" class="edge">
<title>Node19&#45;&gt;Node25</title>
<path fill="none" stroke="#191970" d="M653.0531,-112.3733C687.526,-102.7689 740.5332,-88.0007 777.4347,-77.7197"/>
<polygon fill="#191970" stroke="#191970" points="778.6932,-81.0024 787.387,-74.9469 776.8145,-74.2592 778.6932,-81.0024"/>
</g>
<!-- Node26 -->
<g id="node27" class="node">
<title>Node26</title>
<polygon fill="none" stroke="#bfbfbf" points="629.5,-56.5 629.5,-75.5 677.5,-75.5 677.5,-56.5 629.5,-56.5"/>
<text text-anchor="middle" x="653.5" y="-63.5" font-family="Helvetica,sans-Serif" font-size="10.00" fill="#000000">mutex</text>
</g>
<!-- Node19&#45;&gt;Node26 -->
<g id="edge31" class="edge">
<title>Node19&#45;&gt;Node26</title>
<path fill="none" stroke="#191970" d="M624.5965,-112.2455C629.4145,-104.5367 636.2751,-93.5598 642.1032,-84.2348"/>
<polygon fill="#191970" stroke="#191970" points="645.1413,-85.9777 647.4733,-75.6427 639.2053,-82.2677 645.1413,-85.9777"/>
</g>
<!-- Node27 -->
<g id="node28" class="node">
<title>Node27</title>
<g id="a_node28"><a xlink:href="LOG_8inl_8hxx.html" target="_top" xlink:title="LOG.inl.hxx">
<polygon fill="none" stroke="#000000" points="696,-56.5 696,-75.5 769,-75.5 769,-56.5 696,-56.5"/>
<text text-anchor="middle" x="732.5" y="-63.5" font-family="Helvetica,sans-Serif" font-size="10.00" fill="#000000">LOG.inl.hxx</text>
</a>
</g>
</g>
<!-- Node19&#45;&gt;Node27 -->
<g id="edge33" class="edge">
<title>Node19&#45;&gt;Node27</title>
<path fill="none" stroke="#191970" d="M638.0973,-112.3733C656.2331,-103.4644 683.4135,-90.1127 703.9587,-80.0203"/>
<polygon fill="#191970" stroke="#191970" points="705.7261,-83.0517 713.1584,-75.5011 702.6397,-76.7688 705.7261,-83.0517"/>
</g>
<!-- Node28&#45;&gt;Node4 -->
<g id="edge37" class="edge">
<title>Node28&#45;&gt;Node4</title>
<path fill="none" stroke="#191970" d="M1044.116,-336.1979C1051.8213,-327.1649 1063.1535,-313.1997 1071.5,-300 1081.1024,-284.8141 1090.0881,-266.4581 1096.2507,-252.9634"/>
<polygon fill="#191970" stroke="#191970" points="1099.4947,-254.2826 1100.3765,-243.7246 1093.103,-251.4283 1099.4947,-254.2826"/>
</g>
<!-- Node28&#45;&gt;Node20 -->
<g id="edge36" class="edge">
<title>Node28&#45;&gt;Node20</title>
<path fill="none" stroke="#191970" d="M1048.275,-336.3617C1059.7856,-327.4389 1076.9331,-313.5436 1090.5,-300 1113.4958,-277.0436 1121.0983,-272.0497 1137.5,-244 1168.7969,-190.4769 1190.2284,-119.7058 1199.4289,-85.785"/>
<polygon fill="#191970" stroke="#191970" points="1202.9037,-86.3347 1202.0767,-75.7722 1196.1363,-84.5451 1202.9037,-86.3347"/>
</g>
<!-- Node29 -->
<g id="node30" class="node">
<title>Node29</title>
<polygon fill="none" stroke="#bfbfbf" points="1008.5,-280.5 1008.5,-299.5 1062.5,-299.5 1062.5,-280.5 1008.5,-280.5"/>
<text text-anchor="middle" x="1035.5" y="-287.5" font-family="Helvetica,sans-Serif" font-size="10.00" fill="#000000">ciso646</text>
</g>
<!-- Node28&#45;&gt;Node29 -->
<g id="edge35" class="edge">
<title>Node28&#45;&gt;Node29</title>
<path fill="none" stroke="#191970" d="M1035.5,-336.2455C1035.5,-328.9382 1035.5,-318.6944 1035.5,-309.7046"/>
<polygon fill="#191970" stroke="#191970" points="1039.0001,-309.6426 1035.5,-299.6427 1032.0001,-309.6427 1039.0001,-309.6426"/>
</g>
<!-- Node30 -->
<g id="node31" class="node">
<title>Node30</title>
<g id="a_node31"><a xlink:href="PixelBuffer_8hxx.html" target="_top" xlink:title="../util/PixelBuffer.hxx">
<polygon fill="none" stroke="#000000" points="845.5,-280.5 845.5,-299.5 963.5,-299.5 963.5,-280.5 845.5,-280.5"/>
<text text-anchor="middle" x="904.5" y="-287.5" font-family="Helvetica,sans-Serif" font-size="10.00" fill="#000000">../util/PixelBuffer.hxx</text>
</a>
</g>
</g>
<!-- Node28&#45;&gt;Node30 -->
<g id="edge38" class="edge">
<title>Node28&#45;&gt;Node30</title>
<path fill="none" stroke="#191970" d="M1012.9803,-336.3733C991.7628,-327.3032 959.7724,-313.6279 936.0231,-303.4755"/>
<polygon fill="#191970" stroke="#191970" points="937.2967,-300.2136 926.7258,-299.5011 934.5452,-306.6502 937.2967,-300.2136"/>
</g>
<!-- Node30&#45;&gt;Node4 -->
<g id="edge39" class="edge">
<title>Node30&#45;&gt;Node4</title>
<path fill="none" stroke="#191970" d="M940.0835,-280.4801C971.8935,-271.9072 1020.0177,-258.785 1070.8666,-244.1334"/>
<polygon fill="#191970" stroke="#191970" points="1072.0939,-247.422 1080.7284,-241.2824 1070.1497,-240.6974 1072.0939,-247.422"/>
</g>
<!-- Node30&#45;&gt;Node9 -->
<g id="edge51" class="edge">
<title>Node30&#45;&gt;Node9</title>
<path fill="none" stroke="#191970" d="M845.1638,-287.7793C760.0548,-283.6977 598.7737,-272.617 464.5,-244 403.626,-231.0263 335.2597,-206.4896 295.712,-191.264"/>
<polygon fill="#191970" stroke="#191970" points="296.8892,-187.9666 286.3005,-187.6064 294.3535,-194.4912 296.8892,-187.9666"/>
</g>
<!-- Node31 -->
<g id="node32" class="node">
<title>Node31</title>
<g id="a_node32"><a xlink:href="Rectangle_8hxx.html" target="_top" xlink:title="../util/Rectangle.hxx">
<polygon fill="none" stroke="#000000" points="835,-224.5 835,-243.5 948,-243.5 948,-224.5 835,-224.5"/>
<text text-anchor="middle" x="891.5" y="-231.5" font-family="Helvetica,sans-Serif" font-size="10.00" fill="#000000">../util/Rectangle.hxx</text>
</a>
</g>
</g>
<!-- Node30&#45;&gt;Node31 -->
<g id="edge40" class="edge">
<title>Node30&#45;&gt;Node31</title>
<path fill="none" stroke="#191970" d="M902.2356,-280.2455C900.5206,-272.8579 898.1088,-262.4689 896.0056,-253.4087"/>
<polygon fill="#191970" stroke="#191970" points="899.4092,-252.5922 893.7385,-243.6427 892.5905,-254.1751 899.4092,-252.5922"/>
</g>
<!-- Node33 -->
<g id="node34" class="node">
<title>Node33</title>
<g id="a_node34"><a xlink:href="Range_8hxx.html" target="_top" xlink:title="../util/Range.hxx">
<polygon fill="none" stroke="#000000" points="966.5,-224.5 966.5,-243.5 1062.5,-243.5 1062.5,-224.5 966.5,-224.5"/>
<text text-anchor="middle" x="1014.5" y="-231.5" font-family="Helvetica,sans-Serif" font-size="10.00" fill="#000000">../util/Range.hxx</text>
</a>
</g>
</g>
<!-- Node30&#45;&gt;Node33 -->
<g id="edge47" class="edge">
<title>Node30&#45;&gt;Node33</title>
<path fill="none" stroke="#191970" d="M923.6605,-280.2455C941.0111,-271.4125 966.7901,-258.2887 986.4583,-248.2758"/>
<polygon fill="#191970" stroke="#191970" points="988.2353,-251.2986 995.559,-243.6427 985.0595,-245.0605 988.2353,-251.2986"/>
</g>
<!-- Node36 -->
<g id="node37" class="node">
<title>Node36</title>
<g id="a_node37"><a xlink:href="PixelBuffer_8inl_8hxx.html" target="_top" xlink:title="PixelBuffer.inl.hxx">
<polygon fill="none" stroke="#000000" points="712,-224.5 712,-243.5 817,-243.5 817,-224.5 712,-224.5"/>
<text text-anchor="middle" x="764.5" y="-231.5" font-family="Helvetica,sans-Serif" font-size="10.00" fill="#000000">PixelBuffer.inl.hxx</text>
</a>
</g>
</g>
<!-- Node30&#45;&gt;Node36 -->
<g id="edge52" class="edge">
<title>Node30&#45;&gt;Node36</title>
<path fill="none" stroke="#191970" d="M880.4331,-280.3733C857.6572,-271.2629 823.2656,-257.5062 797.851,-247.3404"/>
<polygon fill="#191970" stroke="#191970" points="798.8375,-243.9654 788.2528,-243.5011 796.2377,-250.4648 798.8375,-243.9654"/>
</g>
<!-- Node31&#45;&gt;Node7 -->
<g id="edge41" class="edge">
<title>Node31&#45;&gt;Node7</title>
<path fill="none" stroke="#191970" d="M892.6172,-224.375C896.5592,-190.4133 909.8686,-75.7472 915.2321,-29.5392"/>
<polygon fill="#191970" stroke="#191970" points="918.7106,-29.926 916.387,-19.5891 911.7573,-29.1189 918.7106,-29.926"/>
</g>
<!-- Node31&#45;&gt;Node11 -->
<g id="edge42" class="edge">
<title>Node31&#45;&gt;Node11</title>
<path fill="none" stroke="#191970" d="M851.2587,-224.4348C812.9593,-215.2771 753.7332,-200.9748 702.5,-188 668.6411,-179.4253 660.3742,-176.5139 626.5,-168 541.3986,-146.6108 296.8405,-144.8974 242.5,-76 230.8349,-61.21 243.2031,-41.3157 255.6075,-27.2474"/>
<polygon fill="#191970" stroke="#191970" points="258.4004,-29.3882 262.7337,-19.72 253.3171,-24.5757 258.4004,-29.3882"/>
</g>
<!-- Node31&#45;&gt;Node12 -->
<g id="edge43" class="edge">
<title>Node31&#45;&gt;Node12</title>
<path fill="none" stroke="#191970" d="M836.3413,-224.4369C778.2597,-214.367 687.1448,-198.57 627.6144,-188.2489"/>
<polygon fill="#191970" stroke="#191970" points="628.0632,-184.7746 617.6123,-186.5148 626.8674,-191.6717 628.0632,-184.7746"/>
</g>
<!-- Node32 -->
<g id="node33" class="node">
<title>Node32</title>
<g id="a_node33"><a xlink:href="Rectangle_8inl_8hxx.html" target="_top" xlink:title="Rectangle.inl.hxx">
<polygon fill="none" stroke="#000000" points="712,-168.5 712,-187.5 813,-187.5 813,-168.5 712,-168.5"/>
<text text-anchor="middle" x="762.5" y="-175.5" font-family="Helvetica,sans-Serif" font-size="10.00" fill="#000000">Rectangle.inl.hxx</text>
</a>
</g>
</g>
<!-- Node31&#45;&gt;Node32 -->
<g id="edge44" class="edge">
<title>Node31&#45;&gt;Node32</title>
<path fill="none" stroke="#191970" d="M869.3241,-224.3733C848.5234,-215.3435 817.2083,-201.7494 793.8542,-191.6111"/>
<polygon fill="#191970" stroke="#191970" points="794.9532,-188.2727 784.3865,-187.5011 792.1657,-194.6938 794.9532,-188.2727"/>
</g>
<!-- Node32&#45;&gt;Node19 -->
<g id="edge46" class="edge">
<title>Node32&#45;&gt;Node19</title>
<path fill="none" stroke="#191970" d="M737.7455,-168.3733C714.2151,-159.2226 678.6313,-145.3844 652.4574,-135.2057"/>
<polygon fill="#191970" stroke="#191970" points="653.5201,-131.8636 642.9315,-131.5011 650.9829,-138.3877 653.5201,-131.8636"/>
</g>
<!-- Node32&#45;&gt;Node25 -->
<g id="edge45" class="edge">
<title>Node32&#45;&gt;Node25</title>
<path fill="none" stroke="#191970" d="M767.3598,-168.4509C776.7826,-149.936 797.6878,-108.8591 809.9735,-84.7187"/>
<polygon fill="#191970" stroke="#191970" points="813.2361,-86.0246 814.6525,-75.5249 806.9975,-82.8496 813.2361,-86.0246"/>
</g>
<!-- Node33&#45;&gt;Node13 -->
<g id="edge49" class="edge">
<title>Node33&#45;&gt;Node13</title>
<path fill="none" stroke="#191970" d="M1053.2675,-224.4925C1084.9371,-214.5101 1122.5071,-196.2803 1109.5,-168 1090.9299,-127.6245 1047.6187,-97.2504 1018.6938,-80.55"/>
<polygon fill="#191970" stroke="#191970" points="1020.2947,-77.4352 1009.8577,-75.613 1016.8803,-83.5461 1020.2947,-77.4352"/>
</g>
<!-- Node34 -->
<g id="node35" class="node">
<title>Node34</title>
<polygon fill="none" stroke="#bfbfbf" points="946,-168.5 946,-187.5 999,-187.5 999,-168.5 946,-168.5"/>
<text text-anchor="middle" x="972.5" y="-175.5" font-family="Helvetica,sans-Serif" font-size="10.00" fill="#000000">iterator</text>
</g>
<!-- Node33&#45;&gt;Node34 -->
<g id="edge48" class="edge">
<title>Node33&#45;&gt;Node34</title>
<path fill="none" stroke="#191970" d="M1007.1842,-224.2455C1001.2821,-216.3761 992.8258,-205.101 985.7406,-195.6542"/>
<polygon fill="#191970" stroke="#191970" points="988.5321,-193.5427 979.732,-187.6427 982.932,-197.7427 988.5321,-193.5427"/>
</g>
<!-- Node35 -->
<g id="node36" class="node">
<title>Node35</title>
<g id="a_node36"><a xlink:href="Range_8inl_8hxx.html" target="_top" xlink:title="Range.inl.hxx">
<polygon fill="none" stroke="#000000" points="1017,-168.5 1017,-187.5 1100,-187.5 1100,-168.5 1017,-168.5"/>
<text text-anchor="middle" x="1058.5" y="-175.5" font-family="Helvetica,sans-Serif" font-size="10.00" fill="#000000">Range.inl.hxx</text>
</a>
</g>
</g>
<!-- Node33&#45;&gt;Node35 -->
<g id="edge50" class="edge">
<title>Node33&#45;&gt;Node35</title>
<path fill="none" stroke="#191970" d="M1022.1642,-224.2455C1028.3473,-216.3761 1037.2063,-205.101 1044.6289,-195.6542"/>
<polygon fill="#191970" stroke="#191970" points="1047.4975,-197.6683 1050.9236,-187.6427 1041.9932,-193.3435 1047.4975,-197.6683"/>
</g>
<!-- Node37&#45;&gt;Node4 -->
<g id="edge55" class="edge">
<title>Node37&#45;&gt;Node4</title>
<path fill="none" stroke="#191970" d="M1243.6198,-280.3733C1214.2877,-270.5959 1168.9013,-255.4671 1138.0059,-245.1686"/>
<polygon fill="#191970" stroke="#191970" points="1138.7216,-241.7179 1128.128,-241.876 1136.508,-248.3587 1138.7216,-241.7179"/>
</g>
<!-- Node37&#45;&gt;Node13 -->
<g id="edge57" class="edge">
<title>Node37&#45;&gt;Node13</title>
<path fill="none" stroke="#191970" d="M1264.5336,-280.388C1240.3812,-251.7121 1164.8801,-165.4476 1087.5,-112 1068.3463,-98.7703 1044.7932,-87.5003 1025.6926,-79.4268"/>
<polygon fill="#191970" stroke="#191970" points="1027.0149,-76.1862 1016.4355,-75.6145 1024.3492,-82.6589 1027.0149,-76.1862"/>
</g>
<!-- Node37&#45;&gt;Node20 -->
<g id="edge54" class="edge">
<title>Node37&#45;&gt;Node20</title>
<path fill="none" stroke="#191970" d="M1269.5763,-280.3516C1261.4717,-253.6087 1238.0287,-176.2691 1218.5,-112 1215.8337,-103.2253 1212.8776,-93.5104 1210.3715,-85.2782"/>
<polygon fill="#191970" stroke="#191970" points="1213.6595,-84.0608 1207.3983,-75.514 1206.9631,-86.0999 1213.6595,-84.0608"/>
</g>
<!-- Node38 -->
<g id="node39" class="node">
<title>Node38</title>
<g id="a_node39"><a xlink:href="Singleton_8hxx.html" target="_top" xlink:title="../../util/Singleton.hxx">
<polygon fill="none" stroke="#000000" points="1270.5,-224.5 1270.5,-243.5 1390.5,-243.5 1390.5,-224.5 1270.5,-224.5"/>
<text text-anchor="middle" x="1330.5" y="-231.5" font-family="Helvetica,sans-Serif" font-size="10.00" fill="#000000">../../util/Singleton.hxx</text>
</a>
</g>
</g>
<!-- Node37&#45;&gt;Node38 -->
<g id="edge56" class="edge">
<title>Node37&#45;&gt;Node38</title>
<path fill="none" stroke="#191970" d="M1282.6028,-280.2455C1291.0028,-272.1352 1303.1494,-260.4075 1313.1084,-250.7919"/>
<polygon fill="#191970" stroke="#191970" points="1315.75,-253.1066 1320.5129,-243.6427 1310.8878,-248.0707 1315.75,-253.1066"/>
</g>
<!-- Node39 -->
<g id="node40" class="node">
<title>Node39</title>
<polygon fill="none" stroke="#bfbfbf" points="1409,-224.5 1409,-243.5 1462,-243.5 1462,-224.5 1409,-224.5"/>
<text text-anchor="middle" x="1435.5" y="-231.5" font-family="Helvetica,sans-Serif" font-size="10.00" fill="#000000">cstddef</text>
</g>
<!-- Node37&#45;&gt;Node39 -->
<g id="edge58" class="edge">
<title>Node37&#45;&gt;Node39</title>
<path fill="none" stroke="#191970" d="M1300.5207,-280.3733C1327.8349,-270.9892 1369.4975,-256.6757 1399.3072,-246.4343"/>
<polygon fill="#191970" stroke="#191970" points="1400.6041,-249.6896 1408.9243,-243.1303 1398.3296,-243.0694 1400.6041,-249.6896"/>
</g>
</g>
</svg>
        <g id="navigator" transform="translate(0 0)" fill="#404254">
                <rect fill="#f2f5e9" fill-opacity="0.5" stroke="#606060" stroke-width=".5" x="0" y="0" width="60" height="60"/>
                <use id="zoomplus" xlink:href="#zoomPlus" x="17" y="9" onmousedown="handleZoom(evt,'in')"/>
                <use id="zoomminus" xlink:href="#zoomMin" x="42" y="9" onmousedown="handleZoom(evt,'out')"/>
                <use id="reset" xlink:href="#resetDef" x="30" y="36" onmousedown="handleReset()"/>
                <g id="arrowUp" xlink:href="#dirArrow" transform="translate(30 24)" onmousedown="handlePan(0,-1)">
                  <use xlink:href="#rim" fill="#404040">
                        <set attributeName="fill" to="#808080" begin="arrowUp.mouseover" end="arrowUp.mouseout"/>
                  </use>
                  <path fill="none" stroke="white" stroke-width="1.5" d="M0,-3.0v7 M-2.5,-0.5L0,-3.0L2.5,-0.5"/>
                </g>
                <g id="arrowRight" xlink:href="#dirArrow" transform="rotate(90) translate(36 -43)" onmousedown="handlePan(1,0)">
                  <use xlink:href="#rim" fill="#404040">
                        <set attributeName="fill" to="#808080" begin="arrowRight.mouseover" end="arrowRight.mouseout"/>
                  </use>
                  <path fill="none" stroke="white" stroke-width="1.5" d="M0,-3.0v7 M-2.5,-0.5L0,-3.0L2.5,-0.5"/>
                </g>
                <g id="arrowDown" xlink:href="#dirArrow" transform="rotate(180) translate(-30 -48)" onmousedown="handlePan(0,1)">
                  <use xlink:href="#rim" fill="#404040">
                        <set attributeName="fill" to="#808080" begin="arrowDown.mouseover" end="arrowDown.mouseout"/>
                  </use>
                  <path fill="none" stroke="white" stroke-width="1.5" d="M0,-3.0v7 M-2.5,-0.5L0,-3.0L2.5,-0.5"/>
                </g>
                <g id="arrowLeft" xlink:href="#dirArrow" transform="rotate(270) translate(-36 17)" onmousedown="handlePan(-1,0)">
                  <use xlink:href="#rim" fill="#404040">
                        <set attributeName="fill" to="#808080" begin="arrowLeft.mouseover" end="arrowLeft.mouseout"/>
                  </use>
                  <path fill="none" stroke="white" stroke-width="1.5" d="M0,-3.0v7 M-2.5,-0.5L0,-3.0L2.5,-0.5"/>
                </g>
        </g>
        <svg viewBox="0 0 15 15" width="100%" height="30px" preserveAspectRatio="xMaxYMin meet">
         <g id="arrow_out" transform="scale(0.3 0.3)">
          <a xlink:href="SDLRenderer_8cxx__incl_org.svg" target="_base">
           <rect id="button" ry="5" rx="5" y="6" x="6" height="38" width="38"
                fill="#f2f5e9" fill-opacity="0.5" stroke="#606060" stroke-width="1.0"/>
           <path id="arrow"
             d="M 11.500037,31.436501 C 11.940474,20.09759 22.043105,11.32322 32.158766,21.979434 L 37.068811,17.246167 C 37.068811,17.246167 37.088388,32 37.088388,32 L 22.160133,31.978069 C 22.160133,31.978069 26.997745,27.140456 26.997745,27.140456 C 18.528582,18.264221 13.291696,25.230495 11.500037,31.436501 z"
             style="fill:#404040;"/>
          </a>
         </g>
        </svg>
</svg>
