<?xml version="1.0" encoding="UTF-8" standalone="no"?>
<!DOCTYPE svg PUBLIC "-//W3C//DTD SVG 1.1//EN"
 "http://www.w3.org/Graphics/SVG/1.1/DTD/svg11.dtd">
<!-- Generated by graphviz version 2.40.1 (20161225.0304)
 -->
<!-- Title: src/engine/basics/Settings.hxx Pages: 1 -->
<svg width="447pt" height="140pt"
 viewBox="0.00 0.00 446.50 140.00" xmlns="http://www.w3.org/2000/svg" xmlns:xlink="http://www.w3.org/1999/xlink">
<g id="graph0" class="graph" transform="scale(1 1) rotate(0) translate(4 136)">
<title>src/engine/basics/Settings.hxx</title>
<!-- Node0 -->
<g id="node1" class="node">
<title>Node0</title>
<polygon fill="#bfbfbf" stroke="#000000" points="106,-112.5 106,-131.5 270,-131.5 270,-112.5 106,-112.5"/>
<text text-anchor="middle" x="188" y="-119.5" font-family="Helvetica,sans-Serif" font-size="10.00" fill="#000000">src/engine/basics/Settings.hxx</text>
</g>
<!-- Node1 -->
<g id="node2" class="node">
<title>Node1</title>
<polygon fill="none" stroke="#bfbfbf" points="0,-56.5 0,-75.5 44,-75.5 44,-56.5 0,-56.5"/>
<text text-anchor="middle" x="22" y="-63.5" font-family="Helvetica,sans-Serif" font-size="10.00" fill="#000000">string</text>
</g>
<!-- Node0&#45;&gt;Node1 -->
<g id="edge1" class="edge">
<title>Node0&#45;&gt;Node1</title>
<path fill="none" stroke="#191970" d="M159.4636,-112.3733C130.0643,-102.4554 84.3426,-87.0313 53.8001,-76.7278"/>
<polygon fill="#191970" stroke="#191970" points="54.6638,-73.3254 44.0696,-73.4452 52.4262,-79.9581 54.6638,-73.3254"/>
</g>
<!-- Node2 -->
<g id="node3" class="node">
<title>Node2</title>
<polygon fill="none" stroke="#bfbfbf" points="62.5,-56.5 62.5,-75.5 109.5,-75.5 109.5,-56.5 62.5,-56.5"/>
<text text-anchor="middle" x="86" y="-63.5" font-family="Helvetica,sans-Serif" font-size="10.00" fill="#000000">vector</text>
</g>
<!-- Node0&#45;&gt;Node2 -->
<g id="edge2" class="edge">
<title>Node0&#45;&gt;Node2</title>
<path fill="none" stroke="#191970" d="M170.233,-112.2455C154.2905,-103.4928 130.6741,-90.527 112.5011,-80.5496"/>
<polygon fill="#191970" stroke="#191970" points="114.0137,-77.3873 103.5634,-75.6427 110.6448,-83.5233 114.0137,-77.3873"/>
</g>
<!-- Node3 -->
<g id="node4" class="node">
<title>Node3</title>
<g id="a_node4"><a xlink:href="Singleton_8hxx.html" target="_top" xlink:title="../../util/Singleton.hxx">
<polygon fill="none" stroke="#000000" points="128,-56.5 128,-75.5 248,-75.5 248,-56.5 128,-56.5"/>
<text text-anchor="middle" x="188" y="-63.5" font-family="Helvetica,sans-Serif" font-size="10.00" fill="#000000">../../util/Singleton.hxx</text>
</a>
</g>
</g>
<!-- Node0&#45;&gt;Node3 -->
<g id="edge3" class="edge">
<title>Node0&#45;&gt;Node3</title>
<path fill="none" stroke="#191970" d="M188,-112.2455C188,-104.9382 188,-94.6944 188,-85.7046"/>
<polygon fill="#191970" stroke="#191970" points="191.5001,-85.6426 188,-75.6427 184.5001,-85.6427 191.5001,-85.6426"/>
</g>
<!-- Node4 -->
<g id="node5" class="node">
<title>Node4</title>
<g id="a_node5"><a xlink:href="Meta_8hxx.html" target="_top" xlink:title="../../util/Meta.hxx">
<polygon fill="none" stroke="#000000" points="266,-56.5 266,-75.5 364,-75.5 364,-56.5 266,-56.5"/>
<text text-anchor="middle" x="315" y="-63.5" font-family="Helvetica,sans-Serif" font-size="10.00" fill="#000000">../../util/Meta.hxx</text>
</a>
</g>
</g>
<!-- Node0&#45;&gt;Node4 -->
<g id="edge4" class="edge">
<title>Node0&#45;&gt;Node4</title>
<path fill="none" stroke="#191970" d="M209.8321,-112.3733C230.3103,-103.3435 261.1399,-89.7494 284.1319,-79.6111"/>
<polygon fill="#191970" stroke="#191970" points="285.715,-82.7383 293.4528,-75.5011 282.8907,-76.3333 285.715,-82.7383"/>
</g>
<!-- Node9 -->
<g id="node10" class="node">
<title>Node9</title>
<polygon fill="none" stroke="#bfbfbf" points="382.5,-56.5 382.5,-75.5 435.5,-75.5 435.5,-56.5 382.5,-56.5"/>
<text text-anchor="middle" x="409" y="-63.5" font-family="Helvetica,sans-Serif" font-size="10.00" fill="#000000">cstddef</text>
</g>
<!-- Node0&#45;&gt;Node9 -->
<g id="edge9" class="edge">
<title>Node0&#45;&gt;Node9</title>
<path fill="none" stroke="#191970" d="M227.7765,-112.4413C263.243,-103.8442 316.8116,-90.6782 372.5866,-76.059"/>
<polygon fill="#191970" stroke="#191970" points="373.5049,-79.4366 382.2856,-73.5078 371.7242,-72.6669 373.5049,-79.4366"/>
</g>
<!-- Node5 -->
<g id="node6" class="node">
<title>Node5</title>
<polygon fill="none" stroke="#bfbfbf" points="163,-.5 163,-19.5 223,-19.5 223,-.5 163,-.5"/>
<text text-anchor="middle" x="193" y="-7.5" font-family="Helvetica,sans-Serif" font-size="10.00" fill="#000000">iostream</text>
</g>
<!-- Node4&#45;&gt;Node5 -->
<g id="edge5" class="edge">
<title>Node4&#45;&gt;Node5</title>
<path fill="none" stroke="#191970" d="M294.0275,-56.3733C274.4433,-47.3838 245.0039,-33.8706 222.949,-23.7471"/>
<polygon fill="#191970" stroke="#191970" points="224.2473,-20.4919 213.6989,-19.5011 221.3271,-26.8538 224.2473,-20.4919"/>
</g>
<!-- Node6 -->
<g id="node7" class="node">
<title>Node6</title>
<polygon fill="none" stroke="#bfbfbf" points="241.5,-.5 241.5,-19.5 310.5,-19.5 310.5,-.5 241.5,-.5"/>
<text text-anchor="middle" x="276" y="-7.5" font-family="Helvetica,sans-Serif" font-size="10.00" fill="#000000">type_traits</text>
</g>
<!-- Node4&#45;&gt;Node6 -->
<g id="edge6" class="edge">
<title>Node4&#45;&gt;Node6</title>
<path fill="none" stroke="#191970" d="M308.2067,-56.2455C302.7822,-48.4564 295.0339,-37.3308 288.4967,-27.9439"/>
<polygon fill="#191970" stroke="#191970" points="291.3025,-25.8485 282.7154,-19.6427 285.5583,-29.849 291.3025,-25.8485"/>
</g>
<!-- Node7 -->
<g id="node8" class="node">
<title>Node7</title>
<polygon fill="none" stroke="#bfbfbf" points="328.5,-.5 328.5,-19.5 379.5,-19.5 379.5,-.5 328.5,-.5"/>
<text text-anchor="middle" x="354" y="-7.5" font-family="Helvetica,sans-Serif" font-size="10.00" fill="#000000">variant</text>
</g>
<!-- Node4&#45;&gt;Node7 -->
<g id="edge7" class="edge">
<title>Node4&#45;&gt;Node7</title>
<path fill="none" stroke="#191970" d="M321.7933,-56.2455C327.2178,-48.4564 334.9661,-37.3308 341.5033,-27.9439"/>
<polygon fill="#191970" stroke="#191970" points="344.4417,-29.849 347.2846,-19.6427 338.6975,-25.8485 344.4417,-29.849"/>
</g>
<!-- Node8 -->
<g id="node9" class="node">
<title>Node8</title>
<polygon fill="none" stroke="#bfbfbf" points="397.5,-.5 397.5,-19.5 438.5,-19.5 438.5,-.5 397.5,-.5"/>
<text text-anchor="middle" x="418" y="-7.5" font-family="Helvetica,sans-Serif" font-size="10.00" fill="#000000">tuple</text>
</g>
<!-- Node4&#45;&gt;Node8 -->
<g id="edge8" class="edge">
<title>Node4&#45;&gt;Node8</title>
<path fill="none" stroke="#191970" d="M332.9412,-56.2455C349.04,-47.4928 372.8879,-34.527 391.2391,-24.5496"/>
<polygon fill="#191970" stroke="#191970" points="393.1507,-27.4942 400.2644,-19.6427 389.8071,-21.3444 393.1507,-27.4942"/>
</g>
</g>
</svg>
