<?xml version="1.0" encoding="UTF-8" standalone="no"?>
<!DOCTYPE svg PUBLIC "-//W3C//DTD SVG 1.1//EN"
 "http://www.w3.org/Graphics/SVG/1.1/DTD/svg11.dtd">
<!-- Generated by graphviz version 2.40.1 (20161225.0304)
 -->
<!-- Title: src/engine/basics/Settings.hxx Pages: 1 -->
<!--zoomable 151 -->
<svg id="main" version="1.1" xmlns="http://www.w3.org/2000/svg" xmlns:xlink="http://www.w3.org/1999/xlink" xml:space="preserve" onload="init(evt)">
<style type="text/css"><![CDATA[
.edge:hover path { stroke: red; }
.edge:hover polygon { stroke: red; fill: red; }
]]></style>
<script type="text/javascript"><![CDATA[
var edges = document.getElementsByTagName('g');
if (edges && edges.length) {
  for (var i=0;i<edges.length;i++) {
    if (edges[i].id.substr(0,4)=='edge') {
      edges[i].setAttribute('class','edge');
    }
  }
}
]]></script>
        <defs>
                <circle id="rim" cx="0" cy="0" r="7"/>
                <circle id="rim2" cx="0" cy="0" r="3.5"/>
                <g id="zoomPlus">
                        <use xlink:href="#rim" fill="#404040">
                                <set attributeName="fill" to="#808080" begin="zoomplus.mouseover" end="zoomplus.mouseout"/>
                        </use>
                        <path d="M-4,0h8M0,-4v8" fill="none" stroke="white" stroke-width="1.5" pointer-events="none"/>
                </g>
                <g id="zoomMin">
                        <use xlink:href="#rim" fill="#404040">
                                <set attributeName="fill" to="#808080" begin="zoomminus.mouseover" end="zoomminus.mouseout"/>
                        </use>
                        <path d="M-4,0h8" fill="none" stroke="white" stroke-width="1.5" pointer-events="none"/>
                </g>
                <g id="dirArrow">
                        <path fill="none" stroke="white" stroke-width="1.5" d="M0,-3.0v7 M-2.5,-0.5L0,-3.0L2.5,-0.5"/>
                </g>
               <g id="resetDef">
                       <use xlink:href="#rim2" fill="#404040">
                               <set attributeName="fill" to="#808080" begin="reset.mouseover" end="reset.mouseout"/>
                       </use>
               </g>
        </defs>

<script type="text/javascript">
var viewWidth = 3867;
var viewHeight = 151;
var sectionId = 'dynsection-1';
</script>
<script xlink:href="svgpan.js"/>
<svg id="graph" class="graph">
<g id="viewport">
<title>src/engine/basics/Settings.hxx</title>
<!-- Node10 -->
<g id="node1" class="node">
<title>Node10</title>
<polygon fill="#bfbfbf" stroke="#000000" points="1814.5,-123.5 1814.5,-142.5 1978.5,-142.5 1978.5,-123.5 1814.5,-123.5"/>
<text text-anchor="middle" x="1896.5" y="-130.5" font-family="Helvetica,sans-Serif" font-size="10.00" fill="#000000">src/engine/basics/Settings.hxx</text>
</g>
<!-- Node11 -->
<g id="node2" class="node">
<title>Node11</title>
<g id="a_node2"><a xlink:href="Soundtrack_8cxx.html" target="_top" xlink:title="src/engine/audio/Soundtrack.cxx">
<polygon fill="none" stroke="#000000" points="0,-62 0,-81 175,-81 175,-62 0,-62"/>
<text text-anchor="middle" x="87.5" y="-69" font-family="Helvetica,sans-Serif" font-size="10.00" fill="#000000">src/engine/audio/Soundtrack.cxx</text>
</a>
</g>
</g>
<!-- Node10&#45;&gt;Node11 -->
<g id="edge1" class="edge">
<title>Node10&#45;&gt;Node11</title>
<path fill="none" stroke="#191970" d="M1804.097,-132.122C1495.649,-128.9392 503.026,-116.5989 184.5,-87 169.6418,-85.6193 153.6086,-83.3717 138.9393,-81.011"/>
<polygon fill="#191970" stroke="#191970" points="1804.3049,-135.6242 1814.3403,-132.2269 1804.3767,-128.6246 1804.3049,-135.6242"/>
</g>
<!-- Node12 -->
<g id="node3" class="node">
<title>Node12</title>
<g id="a_node3"><a xlink:href="Camera_8cxx.html" target="_top" xlink:title="src/engine/basics/Camera.cxx">
<polygon fill="none" stroke="#000000" points="193.5,-62 193.5,-81 355.5,-81 355.5,-62 193.5,-62"/>
<text text-anchor="middle" x="274.5" y="-69" font-family="Helvetica,sans-Serif" font-size="10.00" fill="#000000">src/engine/basics/Camera.cxx</text>
</a>
</g>
</g>
<!-- Node10&#45;&gt;Node12 -->
<g id="edge2" class="edge">
<title>Node10&#45;&gt;Node12</title>
<path fill="none" stroke="#191970" d="M1803.6932,-131.9248C1516.695,-128.3296 645.9645,-115.3211 364.5,-87 350.7754,-85.619 335.9848,-83.3865 322.4379,-81.0408"/>
<polygon fill="#191970" stroke="#191970" points="1804.0209,-135.4291 1814.0636,-132.0538 1804.108,-128.4296 1804.0209,-135.4291"/>
</g>
<!-- Node13 -->
<g id="node4" class="node">
<title>Node13</title>
<g id="a_node4"><a xlink:href="isoMath_8cxx.html" target="_top" xlink:title="src/engine/basics/isoMath.cxx">
<polygon fill="none" stroke="#000000" points="373.5,-62 373.5,-81 535.5,-81 535.5,-62 373.5,-62"/>
<text text-anchor="middle" x="454.5" y="-69" font-family="Helvetica,sans-Serif" font-size="10.00" fill="#000000">src/engine/basics/isoMath.cxx</text>
</a>
</g>
</g>
<!-- Node10&#45;&gt;Node13 -->
<g id="edge3" class="edge">
<title>Node10&#45;&gt;Node13</title>
<path fill="none" stroke="#191970" d="M1804.2101,-131.3842C1541.6331,-126.5426 793.6617,-110.9887 549.5,-87 535.1973,-85.5948 519.7831,-83.3844 505.6183,-81.0685"/>
<polygon fill="#191970" stroke="#191970" points="1804.4091,-134.8883 1814.4717,-131.5725 1804.5376,-127.8895 1804.4091,-134.8883"/>
</g>
<!-- Node14 -->
<g id="node5" class="node">
<title>Node14</title>
<g id="a_node5"><a xlink:href="Settings_8cxx.html" target="_top" xlink:title="src/engine/basics/Settings.cxx">
<polygon fill="none" stroke="#000000" points="201.5,-.5 201.5,-19.5 365.5,-19.5 365.5,-.5 201.5,-.5"/>
<text text-anchor="middle" x="283.5" y="-7.5" font-family="Helvetica,sans-Serif" font-size="10.00" fill="#000000">src/engine/basics/Settings.cxx</text>
</a>
</g>
</g>
<!-- Node10&#45;&gt;Node14 -->
<g id="edge4" class="edge">
<title>Node10&#45;&gt;Node14</title>
<path fill="none" stroke="#191970" d="M1803.9631,-131.3787C1514.0895,-126.0874 639.4794,-108.4241 582.5,-87 562.0985,-79.3291 564.3174,-65.0737 544.5,-56 512.8628,-41.5145 427.5025,-28.0885 362.944,-19.5265"/>
<polygon fill="#191970" stroke="#191970" points="1803.9638,-134.8792 1814.0258,-131.5617 1804.0912,-127.8804 1803.9638,-134.8792"/>
</g>
<!-- Node15 -->
<g id="node6" class="node">
<title>Node15</title>
<g id="a_node6"><a xlink:href="JsonSerialization_8hxx.html" target="_top" xlink:title="src/engine/common/JsonSerialization.hxx">
<polygon fill="none" stroke="#000000" points="591.5,-62 591.5,-81 809.5,-81 809.5,-62 591.5,-62"/>
<text text-anchor="middle" x="700.5" y="-69" font-family="Helvetica,sans-Serif" font-size="10.00" fill="#000000">src/engine/common/JsonSerialization.hxx</text>
</a>
</g>
</g>
<!-- Node10&#45;&gt;Node15 -->
<g id="edge5" class="edge">
<title>Node10&#45;&gt;Node15</title>
<path fill="none" stroke="#191970" d="M1804.2315,-131.6071C1618.3489,-128.2355 1185.6437,-117.5282 823.5,-87 805.4845,-85.4813 786.0488,-83.2905 768.0645,-81.032"/>
<polygon fill="#191970" stroke="#191970" points="1804.1779,-135.1067 1814.2389,-131.7859 1804.303,-128.1078 1804.1779,-135.1067"/>
</g>
<!-- Node17 -->
<g id="node8" class="node">
<title>Node17</title>
<g id="a_node8"><a xlink:href="Map_8cxx.html" target="_top" xlink:title="src/engine/Map.cxx">
<polygon fill="none" stroke="#000000" points="799.5,-.5 799.5,-19.5 909.5,-19.5 909.5,-.5 799.5,-.5"/>
<text text-anchor="middle" x="854.5" y="-7.5" font-family="Helvetica,sans-Serif" font-size="10.00" fill="#000000">src/engine/Map.cxx</text>
</a>
</g>
</g>
<!-- Node10&#45;&gt;Node17 -->
<g id="edge15" class="edge">
<title>Node10&#45;&gt;Node17</title>
<path fill="none" stroke="#191970" d="M1804.0558,-131.5143C1561.2482,-127.2512 921.5023,-113.5478 884.5,-87 862.3518,-71.1095 856.5546,-36.3916 855.0375,-19.5464"/>
<polygon fill="#191970" stroke="#191970" points="1804.2104,-135.0174 1814.2699,-131.6922 1804.3324,-128.0185 1804.2104,-135.0174"/>
</g>
<!-- Node18 -->
<g id="node9" class="node">
<title>Node18</title>
<g id="a_node9"><a xlink:href="AudioMixer_8cxx.html" target="_top" xlink:title="src/services/AudioMixer.cxx">
<polygon fill="none" stroke="#000000" points="927.5,-.5 927.5,-19.5 1079.5,-19.5 1079.5,-.5 927.5,-.5"/>
<text text-anchor="middle" x="1003.5" y="-7.5" font-family="Helvetica,sans-Serif" font-size="10.00" fill="#000000">src/services/AudioMixer.cxx</text>
</a>
</g>
</g>
<!-- Node10&#45;&gt;Node18 -->
<g id="edge27" class="edge">
<title>Node10&#45;&gt;Node18</title>
<path fill="none" stroke="#191970" d="M1804.0295,-132.1681C1562.0414,-129.5399 926.5947,-119.5564 895.5,-87 885.9839,-77.0365 887.9026,-67.4938 895.5,-56 907.8618,-37.2984 929.5403,-26.1755 950.2467,-19.5712"/>
<polygon fill="#191970" stroke="#191970" points="1804.1736,-135.6698 1814.2105,-132.2769 1804.2485,-128.6702 1804.1736,-135.6698"/>
</g>
<!-- Node20 -->
<g id="node11" class="node">
<title>Node20</title>
<g id="a_node11"><a xlink:href="Engine_8cxx.html" target="_top" xlink:title="src/engine/Engine.cxx">
<polygon fill="none" stroke="#000000" points="904,-62 904,-81 1027,-81 1027,-62 904,-62"/>
<text text-anchor="middle" x="965.5" y="-69" font-family="Helvetica,sans-Serif" font-size="10.00" fill="#000000">src/engine/Engine.cxx</text>
</a>
</g>
</g>
<!-- Node10&#45;&gt;Node20 -->
<g id="edge11" class="edge">
<title>Node10&#45;&gt;Node20</title>
<path fill="none" stroke="#191970" d="M1804.1312,-129.9483C1613.5868,-123.343 1182.5435,-106.7157 1036.5,-87 1025.7472,-85.5484 1014.2063,-83.3228 1003.6203,-81.0072"/>
<polygon fill="#191970" stroke="#191970" points="1804.2862,-133.4557 1814.401,-130.3027 1804.5277,-126.4598 1804.2862,-133.4557"/>
</g>
<!-- Node21 -->
<g id="node12" class="node">
<title>Node21</title>
<g id="a_node12"><a xlink:href="EventManager_8cxx.html" target="_top" xlink:title="src/engine/EventManager.cxx">
<polygon fill="none" stroke="#000000" points="1045,-62 1045,-81 1204,-81 1204,-62 1045,-62"/>
<text text-anchor="middle" x="1124.5" y="-69" font-family="Helvetica,sans-Serif" font-size="10.00" fill="#000000">src/engine/EventManager.cxx</text>
</a>
</g>
</g>
<!-- Node10&#45;&gt;Node21 -->
<g id="edge12" class="edge">
<title>Node10&#45;&gt;Node21</title>
<path fill="none" stroke="#191970" d="M1804.4662,-129.876C1673.0137,-124.7164 1424.0878,-112.358 1213.5,-87 1200.5757,-85.4437 1186.6765,-83.2673 1173.7931,-81.0364"/>
<polygon fill="#191970" stroke="#191970" points="1804.37,-133.3748 1814.4981,-130.2647 1804.6411,-126.38 1804.37,-133.3748"/>
</g>
<!-- Node22 -->
<g id="node13" class="node">
<title>Node22</title>
<g id="a_node13"><a xlink:href="MapNode_8cxx.html" target="_top" xlink:title="src/engine/GameObjects\l/MapNode.cxx">
<polygon fill="none" stroke="#000000" points="1222.5,-56.5 1222.5,-86.5 1358.5,-86.5 1358.5,-56.5 1222.5,-56.5"/>
<text text-anchor="start" x="1230.5" y="-74.5" font-family="Helvetica,sans-Serif" font-size="10.00" fill="#000000">src/engine/GameObjects</text>
<text text-anchor="middle" x="1290.5" y="-63.5" font-family="Helvetica,sans-Serif" font-size="10.00" fill="#000000">/MapNode.cxx</text>
</a>
</g>
</g>
<!-- Node10&#45;&gt;Node22 -->
<g id="edge13" class="edge">
<title>Node10&#45;&gt;Node22</title>
<path fill="none" stroke="#191970" d="M1804.3308,-128.0307C1698.6836,-121.6262 1520.5057,-108.6585 1368.5,-87 1365.3563,-86.5521 1362.1478,-86.0595 1358.9117,-85.534"/>
<polygon fill="#191970" stroke="#191970" points="1804.1333,-131.525 1814.325,-128.63 1804.5524,-124.5376 1804.1333,-131.525"/>
</g>
<!-- Node23 -->
<g id="node14" class="node">
<title>Node23</title>
<g id="a_node14"><a xlink:href="MapLayers_8cxx.html" target="_top" xlink:title="src/engine/map/MapLayers.cxx">
<polygon fill="none" stroke="#000000" points="1377,-62 1377,-81 1544,-81 1544,-62 1377,-62"/>
<text text-anchor="middle" x="1460.5" y="-69" font-family="Helvetica,sans-Serif" font-size="10.00" fill="#000000">src/engine/map/MapLayers.cxx</text>
</a>
</g>
</g>
<!-- Node10&#45;&gt;Node23 -->
<g id="edge14" class="edge">
<title>Node10&#45;&gt;Node23</title>
<path fill="none" stroke="#191970" d="M1810.0956,-122.1856C1740.6726,-113.3103 1640.7086,-100.1118 1553.5,-87 1541.36,-85.1748 1528.3511,-83.0886 1516.0243,-81.0511"/>
<polygon fill="#191970" stroke="#191970" points="1809.7491,-125.6696 1820.1116,-123.4631 1810.6348,-118.7259 1809.7491,-125.6696"/>
</g>
<!-- Node24 -->
<g id="node15" class="node">
<title>Node24</title>
<g id="a_node15"><a xlink:href="ResourcesManager_8cxx.html" target="_top" xlink:title="src/engine/ResourcesManager.cxx">
<polygon fill="none" stroke="#000000" points="1562,-62 1562,-81 1743,-81 1743,-62 1562,-62"/>
<text text-anchor="middle" x="1652.5" y="-69" font-family="Helvetica,sans-Serif" font-size="10.00" fill="#000000">src/engine/ResourcesManager.cxx</text>
</a>
</g>
</g>
<!-- Node10&#45;&gt;Node24 -->
<g id="edge16" class="edge">
<title>Node10&#45;&gt;Node24</title>
<path fill="none" stroke="#191970" d="M1848.842,-120.9878C1802.5349,-109.3162 1733.133,-91.8235 1690.4461,-81.0643"/>
<polygon fill="#191970" stroke="#191970" points="1848.0905,-124.4078 1858.6427,-123.4581 1849.8014,-117.6201 1848.0905,-124.4078"/>
</g>
<!-- Node25 -->
<g id="node16" class="node">
<title>Node25</title>
<g id="a_node16"><a xlink:href="Sprite_8cxx.html" target="_top" xlink:title="src/engine/Sprite.cxx">
<polygon fill="none" stroke="#000000" points="1761,-62 1761,-81 1880,-81 1880,-62 1761,-62"/>
<text text-anchor="middle" x="1820.5" y="-69" font-family="Helvetica,sans-Serif" font-size="10.00" fill="#000000">src/engine/Sprite.cxx</text>
</a>
</g>
</g>
<!-- Node10&#45;&gt;Node25 -->
<g id="edge17" class="edge">
<title>Node10&#45;&gt;Node25</title>
<path fill="none" stroke="#191970" d="M1876.566,-116.8692C1862.5875,-105.5576 1844.3581,-90.8062 1832.5424,-81.2449"/>
<polygon fill="#191970" stroke="#191970" points="1874.6496,-119.8209 1884.625,-123.3906 1879.053,-114.3793 1874.6496,-119.8209"/>
</g>
<!-- Node26 -->
<g id="node17" class="node">
<title>Node26</title>
<g id="a_node17"><a xlink:href="TileManager_8cxx.html" target="_top" xlink:title="src/engine/TileManager.cxx">
<polygon fill="none" stroke="#000000" points="1898,-62 1898,-81 2047,-81 2047,-62 1898,-62"/>
<text text-anchor="middle" x="1972.5" y="-69" font-family="Helvetica,sans-Serif" font-size="10.00" fill="#000000">src/engine/TileManager.cxx</text>
</a>
</g>
</g>
<!-- Node10&#45;&gt;Node26 -->
<g id="edge18" class="edge">
<title>Node10&#45;&gt;Node26</title>
<path fill="none" stroke="#191970" d="M1916.434,-116.8692C1930.4125,-105.5576 1948.6419,-90.8062 1960.4576,-81.2449"/>
<polygon fill="#191970" stroke="#191970" points="1913.947,-114.3793 1908.375,-123.3906 1918.3504,-119.8209 1913.947,-114.3793"/>
</g>
<!-- Node27 -->
<g id="node18" class="node">
<title>Node27</title>
<g id="a_node18"><a xlink:href="Layout_8cxx.html" target="_top" xlink:title="src/engine/ui/basics\l/Layout.cxx">
<polygon fill="none" stroke="#000000" points="2065,-56.5 2065,-86.5 2178,-86.5 2178,-56.5 2065,-56.5"/>
<text text-anchor="start" x="2073" y="-74.5" font-family="Helvetica,sans-Serif" font-size="10.00" fill="#000000">src/engine/ui/basics</text>
<text text-anchor="middle" x="2121.5" y="-63.5" font-family="Helvetica,sans-Serif" font-size="10.00" fill="#000000">/Layout.cxx</text>
</a>
</g>
</g>
<!-- Node10&#45;&gt;Node27 -->
<g id="edge19" class="edge">
<title>Node10&#45;&gt;Node27</title>
<path fill="none" stroke="#191970" d="M1941.3944,-120.7289C1977.3789,-110.8931 2028.0318,-97.048 2066.4588,-86.5446"/>
<polygon fill="#191970" stroke="#191970" points="1940.3796,-117.3778 1931.6563,-123.3906 1942.2252,-124.1301 1940.3796,-117.3778"/>
</g>
<!-- Node28 -->
<g id="node19" class="node">
<title>Node28</title>
<g id="a_node19"><a xlink:href="UIElement_8cxx.html" target="_top" xlink:title="src/engine/ui/basics\l/UIElement.cxx">
<polygon fill="none" stroke="#000000" points="2196,-56.5 2196,-86.5 2309,-86.5 2309,-56.5 2196,-56.5"/>
<text text-anchor="start" x="2204" y="-74.5" font-family="Helvetica,sans-Serif" font-size="10.00" fill="#000000">src/engine/ui/basics</text>
<text text-anchor="middle" x="2252.5" y="-63.5" font-family="Helvetica,sans-Serif" font-size="10.00" fill="#000000">/UIElement.cxx</text>
</a>
</g>
</g>
<!-- Node10&#45;&gt;Node28 -->
<g id="edge20" class="edge">
<title>Node10&#45;&gt;Node28</title>
<path fill="none" stroke="#191970" d="M1976.3835,-122.0707C2035.0165,-113.6367 2116.4728,-101.0606 2187.5,-87 2190.2313,-86.4593 2193.0217,-85.8838 2195.8362,-85.2847"/>
<polygon fill="#191970" stroke="#191970" points="1975.8469,-118.6118 1966.4431,-123.4924 1976.838,-125.5413 1975.8469,-118.6118"/>
</g>
<!-- Node29 -->
<g id="node20" class="node">
<title>Node29</title>
<g id="a_node20"><a xlink:href="Text_8cxx.html" target="_top" xlink:title="src/engine/ui/widgets\l/Text.cxx">
<polygon fill="none" stroke="#000000" points="2327.5,-56.5 2327.5,-86.5 2447.5,-86.5 2447.5,-56.5 2327.5,-56.5"/>
<text text-anchor="start" x="2335.5" y="-74.5" font-family="Helvetica,sans-Serif" font-size="10.00" fill="#000000">src/engine/ui/widgets</text>
<text text-anchor="middle" x="2387.5" y="-63.5" font-family="Helvetica,sans-Serif" font-size="10.00" fill="#000000">/Text.cxx</text>
</a>
</g>
</g>
<!-- Node10&#45;&gt;Node29 -->
<g id="edge21" class="edge">
<title>Node10&#45;&gt;Node29</title>
<path fill="none" stroke="#191970" d="M1988.5299,-125.9681C2074.293,-118.7062 2205.5617,-105.7794 2318.5,-87 2321.4067,-86.5167 2324.3749,-85.9877 2327.3674,-85.426"/>
<polygon fill="#191970" stroke="#191970" points="1988.2333,-122.4806 1978.5608,-126.804 1988.8183,-129.4561 1988.2333,-122.4806"/>
</g>
<!-- Node30 -->
<g id="node21" class="node">
<title>Node30</title>
<g id="a_node21"><a xlink:href="UIManager_8cxx.html" target="_top" xlink:title="src/engine/UIManager.cxx">
<polygon fill="none" stroke="#000000" points="2465.5,-62 2465.5,-81 2607.5,-81 2607.5,-62 2465.5,-62"/>
<text text-anchor="middle" x="2536.5" y="-69" font-family="Helvetica,sans-Serif" font-size="10.00" fill="#000000">src/engine/UIManager.cxx</text>
</a>
</g>
</g>
<!-- Node10&#45;&gt;Node30 -->
<g id="edge22" class="edge">
<title>Node10&#45;&gt;Node30</title>
<path fill="none" stroke="#191970" d="M1989.074,-128.5051C2100.3974,-122.3834 2292.734,-109.5221 2456.5,-87 2467.9925,-85.4195 2480.3306,-83.2612 2491.7935,-81.0574"/>
<polygon fill="#191970" stroke="#191970" points="1988.6834,-125.0211 1978.8882,-129.0589 1989.0634,-132.0108 1988.6834,-125.0211"/>
</g>
<!-- Node31 -->
<g id="node22" class="node">
<title>Node31</title>
<g id="a_node22"><a xlink:href="WindowManager_8cxx.html" target="_top" xlink:title="src/engine/WindowManager.cxx">
<polygon fill="none" stroke="#000000" points="2625.5,-62 2625.5,-81 2795.5,-81 2795.5,-62 2625.5,-62"/>
<text text-anchor="middle" x="2710.5" y="-69" font-family="Helvetica,sans-Serif" font-size="10.00" fill="#000000">src/engine/WindowManager.cxx</text>
</a>
</g>
</g>
<!-- Node10&#45;&gt;Node31 -->
<g id="edge23" class="edge">
<title>Node10&#45;&gt;Node31</title>
<path fill="none" stroke="#191970" d="M1988.5819,-130.0538C2125.7573,-125.0009 2391.7415,-112.6458 2616.5,-87 2630.1395,-85.4437 2644.8158,-83.2672 2658.4227,-81.0363"/>
<polygon fill="#191970" stroke="#191970" points="1988.3942,-126.5582 1978.5281,-130.4195 1988.6487,-133.5536 1988.3942,-126.5582"/>
</g>
<!-- Node32 -->
<g id="node23" class="node">
<title>Node32</title>
<g id="a_node23"><a xlink:href="Game_8cxx.html" target="_top" xlink:title="src/Game.cxx">
<polygon fill="none" stroke="#000000" points="2814,-62 2814,-81 2897,-81 2897,-62 2814,-62"/>
<text text-anchor="middle" x="2855.5" y="-69" font-family="Helvetica,sans-Serif" font-size="10.00" fill="#000000">src/Game.cxx</text>
</a>
</g>
</g>
<!-- Node10&#45;&gt;Node32 -->
<g id="edge24" class="edge">
<title>Node10&#45;&gt;Node32</title>
<path fill="none" stroke="#191970" d="M1988.739,-131.1855C2187.3224,-126.8128 2649.853,-113.9976 2804.5,-87 2812.4311,-85.6154 2820.8617,-83.3818 2828.5363,-81.0361"/>
<polygon fill="#191970" stroke="#191970" points="1988.5444,-127.6888 1978.6231,-131.406 1988.697,-134.6872 1988.5444,-127.6888"/>
</g>
<!-- Node33 -->
<g id="node24" class="node">
<title>Node33</title>
<g id="a_node24"><a xlink:href="main_8cxx.html" target="_top" xlink:title="src/main.cxx">
<polygon fill="none" stroke="#000000" points="2915,-62 2915,-81 2994,-81 2994,-62 2915,-62"/>
<text text-anchor="middle" x="2954.5" y="-69" font-family="Helvetica,sans-Serif" font-size="10.00" fill="#000000">src/main.cxx</text>
</a>
</g>
</g>
<!-- Node10&#45;&gt;Node33 -->
<g id="edge25" class="edge">
<title>Node10&#45;&gt;Node33</title>
<path fill="none" stroke="#191970" d="M1988.8633,-131.9379C2203.7128,-128.9585 2731.9893,-118.5627 2906.5,-87 2913.997,-85.6441 2921.9421,-83.4196 2929.1648,-81.0735"/>
<polygon fill="#191970" stroke="#191970" points="1988.5138,-128.4422 1978.5625,-132.0783 1988.6094,-135.4416 1988.5138,-128.4422"/>
</g>
<!-- Node34 -->
<g id="node25" class="node">
<title>Node34</title>
<g id="a_node25"><a xlink:href="SDLRenderer_8cxx.html" target="_top" xlink:title="src/renderer/SDLRenderer.cxx">
<polygon fill="none" stroke="#000000" points="3012.5,-62 3012.5,-81 3172.5,-81 3172.5,-62 3012.5,-62"/>
<text text-anchor="middle" x="3092.5" y="-69" font-family="Helvetica,sans-Serif" font-size="10.00" fill="#000000">src/renderer/SDLRenderer.cxx</text>
</a>
</g>
</g>
<!-- Node10&#45;&gt;Node34 -->
<g id="edge26" class="edge">
<title>Node10&#45;&gt;Node34</title>
<path fill="none" stroke="#191970" d="M1989.1932,-130.7123C2218.5154,-124.8004 2807.9601,-107.9988 3003.5,-87 3016.9111,-85.5598 3031.3556,-83.338 3044.6257,-81.0223"/>
<polygon fill="#191970" stroke="#191970" points="1988.7844,-127.2215 1978.8776,-130.9771 1988.9641,-134.2192 1988.7844,-127.2215"/>
</g>
<!-- Node35 -->
<g id="node26" class="node">
<title>Node35</title>
<g id="a_node26"><a xlink:href="android_2Filesystem_8cxx.html" target="_top" xlink:title="src/util/android/Filesystem.cxx">
<polygon fill="none" stroke="#000000" points="3191,-62 3191,-81 3356,-81 3356,-62 3191,-62"/>
<text text-anchor="middle" x="3273.5" y="-69" font-family="Helvetica,sans-Serif" font-size="10.00" fill="#000000">src/util/android/Filesystem.cxx</text>
</a>
</g>
</g>
<!-- Node10&#45;&gt;Node35 -->
<g id="edge28" class="edge">
<title>Node10&#45;&gt;Node35</title>
<path fill="none" stroke="#191970" d="M1988.9433,-131.2674C2243.2989,-126.2485 2949.9901,-110.5434 3181.5,-87 3195.3582,-85.5907 3210.288,-83.379 3224.0055,-81.0631"/>
<polygon fill="#191970" stroke="#191970" points="1988.5587,-127.7742 1978.6294,-131.4699 1988.6962,-134.7728 1988.5587,-127.7742"/>
</g>
<!-- Node36 -->
<g id="node27" class="node">
<title>Node36</title>
<g id="a_node27"><a xlink:href="desktop_2Filesystem_8cxx.html" target="_top" xlink:title="src/util/desktop/Filesystem.cxx">
<polygon fill="none" stroke="#000000" points="3374,-62 3374,-81 3541,-81 3541,-62 3374,-62"/>
<text text-anchor="middle" x="3457.5" y="-69" font-family="Helvetica,sans-Serif" font-size="10.00" fill="#000000">src/util/desktop/Filesystem.cxx</text>
</a>
</g>
</g>
<!-- Node10&#45;&gt;Node36 -->
<g id="edge29" class="edge">
<title>Node10&#45;&gt;Node36</title>
<path fill="none" stroke="#191970" d="M1988.8702,-131.7484C2267.4505,-127.7138 3096.665,-113.7311 3365.5,-87 3379.5225,-85.6057 3394.6395,-83.3689 3408.4876,-81.0233"/>
<polygon fill="#191970" stroke="#191970" points="1988.7452,-128.2497 1978.7966,-131.8934 1988.846,-135.249 1988.7452,-128.2497"/>
</g>
<!-- Node37 -->
<g id="node28" class="node">
<title>Node37</title>
<g id="a_node28"><a xlink:href="macOS_2Filesystem_8cxx.html" target="_top" xlink:title="src/util/macOS/Filesystem.cxx">
<polygon fill="none" stroke="#000000" points="3559,-62 3559,-81 3722,-81 3722,-62 3559,-62"/>
<text text-anchor="middle" x="3640.5" y="-69" font-family="Helvetica,sans-Serif" font-size="10.00" fill="#000000">src/util/macOS/Filesystem.cxx</text>
</a>
</g>
</g>
<!-- Node10&#45;&gt;Node37 -->
<g id="edge30" class="edge">
<title>Node10&#45;&gt;Node37</title>
<path fill="none" stroke="#191970" d="M1988.6311,-132.1704C2289.8832,-129.1853 3243.9218,-117.5055 3550.5,-87 3564.2261,-85.6342 3579.0172,-83.4066 3592.5641,-81.0606"/>
<polygon fill="#191970" stroke="#191970" points="1988.5858,-128.6706 1978.6207,-132.2688 1988.6547,-135.6702 1988.5858,-128.6706"/>
</g>
<!-- Node38 -->
<g id="node29" class="node">
<title>Node38</title>
<g id="a_node29"><a xlink:href="Window_8cxx.html" target="_top" xlink:title="src/view/Window.cxx">
<polygon fill="none" stroke="#000000" points="3740,-62 3740,-81 3859,-81 3859,-62 3740,-62"/>
<text text-anchor="middle" x="3799.5" y="-69" font-family="Helvetica,sans-Serif" font-size="10.00" fill="#000000">src/view/Window.cxx</text>
</a>
</g>
</g>
<!-- Node10&#45;&gt;Node38 -->
<g id="edge31" class="edge">
<title>Node10&#45;&gt;Node38</title>
<path fill="none" stroke="#191970" d="M1988.5495,-131.7678C2336.1792,-126.9668 3558.2085,-108.7024 3731.5,-87 3742.0728,-85.6759 3753.4119,-83.4306 3763.7412,-81.0538"/>
<polygon fill="#191970" stroke="#191970" points="1988.4724,-128.2684 1978.5216,-131.9059 1988.5689,-135.2678 1988.4724,-128.2684"/>
</g>
<!-- Node15&#45;&gt;Node14 -->
<g id="edge6" class="edge">
<title>Node15&#45;&gt;Node14</title>
<path fill="none" stroke="#191970" d="M625.901,-60.498C546.7778,-48.8287 423.0631,-30.583 348.0074,-19.5137"/>
<polygon fill="#191970" stroke="#191970" points="625.3976,-63.9615 635.8013,-61.9581 626.419,-57.0364 625.3976,-63.9615"/>
</g>
<!-- Node16 -->
<g id="node7" class="node">
<title>Node16</title>
<g id="a_node7"><a xlink:href="TerrainGenerator_8cxx.html" target="_top" xlink:title="src/engine/map/TerrainGenerator.cxx">
<polygon fill="none" stroke="#000000" points="585.5,-.5 585.5,-19.5 781.5,-19.5 781.5,-.5 585.5,-.5"/>
<text text-anchor="middle" x="683.5" y="-7.5" font-family="Helvetica,sans-Serif" font-size="10.00" fill="#000000">src/engine/map/TerrainGenerator.cxx</text>
</a>
</g>
</g>
<!-- Node15&#45;&gt;Node16 -->
<g id="edge7" class="edge">
<title>Node15&#45;&gt;Node16</title>
<path fill="none" stroke="#191970" d="M695.1328,-52.0832C692.1577,-41.3205 688.5873,-28.4042 686.1937,-19.7449"/>
<polygon fill="#191970" stroke="#191970" points="691.8059,-53.1846 697.8438,-61.8906 698.5529,-51.3195 691.8059,-53.1846"/>
</g>
<!-- Node15&#45;&gt;Node17 -->
<g id="edge8" class="edge">
<title>Node15&#45;&gt;Node17</title>
<path fill="none" stroke="#191970" d="M733.935,-58.1477C763.0959,-46.5023 804.6812,-29.8952 830.6065,-19.5419"/>
<polygon fill="#191970" stroke="#191970" points="732.5513,-54.9315 724.5625,-61.8906 735.1474,-61.4323 732.5513,-54.9315"/>
</g>
<!-- Node15&#45;&gt;Node18 -->
<g id="edge9" class="edge">
<title>Node15&#45;&gt;Node18</title>
<path fill="none" stroke="#191970" d="M757.5256,-59.9255C815.0128,-48.2573 902.7029,-30.4588 956.3784,-19.5643"/>
<polygon fill="#191970" stroke="#191970" points="756.6152,-56.5388 747.5113,-61.9581 758.0077,-63.3989 756.6152,-56.5388"/>
</g>
<!-- Node19 -->
<g id="node10" class="node">
<title>Node19</title>
<g id="a_node10"><a xlink:href="ResourceManager_8cxx.html" target="_top" xlink:title="src/services/ResourceManager.cxx">
<polygon fill="none" stroke="#000000" points="384,-.5 384,-19.5 567,-19.5 567,-.5 384,-.5"/>
<text text-anchor="middle" x="475.5" y="-7.5" font-family="Helvetica,sans-Serif" font-size="10.00" fill="#000000">src/services/ResourceManager.cxx</text>
</a>
</g>
</g>
<!-- Node15&#45;&gt;Node19 -->
<g id="edge10" class="edge">
<title>Node15&#45;&gt;Node19</title>
<path fill="none" stroke="#191970" d="M655.4886,-59.1969C612.7644,-47.5189 549.44,-30.2103 510.4094,-19.5419"/>
<polygon fill="#191970" stroke="#191970" points="654.7748,-62.6301 665.3438,-61.8906 656.6204,-55.8778 654.7748,-62.6301"/>
</g>
</g>
</svg>
        <g id="navigator" transform="translate(0 0)" fill="#404254">
                <rect fill="#f2f5e9" fill-opacity="0.5" stroke="#606060" stroke-width=".5" x="0" y="0" width="60" height="60"/>
                <use id="zoomplus" xlink:href="#zoomPlus" x="17" y="9" onmousedown="handleZoom(evt,'in')"/>
                <use id="zoomminus" xlink:href="#zoomMin" x="42" y="9" onmousedown="handleZoom(evt,'out')"/>
                <use id="reset" xlink:href="#resetDef" x="30" y="36" onmousedown="handleReset()"/>
                <g id="arrowUp" xlink:href="#dirArrow" transform="translate(30 24)" onmousedown="handlePan(0,-1)">
                  <use xlink:href="#rim" fill="#404040">
                        <set attributeName="fill" to="#808080" begin="arrowUp.mouseover" end="arrowUp.mouseout"/>
                  </use>
                  <path fill="none" stroke="white" stroke-width="1.5" d="M0,-3.0v7 M-2.5,-0.5L0,-3.0L2.5,-0.5"/>
                </g>
                <g id="arrowRight" xlink:href="#dirArrow" transform="rotate(90) translate(36 -43)" onmousedown="handlePan(1,0)">
                  <use xlink:href="#rim" fill="#404040">
                        <set attributeName="fill" to="#808080" begin="arrowRight.mouseover" end="arrowRight.mouseout"/>
                  </use>
                  <path fill="none" stroke="white" stroke-width="1.5" d="M0,-3.0v7 M-2.5,-0.5L0,-3.0L2.5,-0.5"/>
                </g>
                <g id="arrowDown" xlink:href="#dirArrow" transform="rotate(180) translate(-30 -48)" onmousedown="handlePan(0,1)">
                  <use xlink:href="#rim" fill="#404040">
                        <set attributeName="fill" to="#808080" begin="arrowDown.mouseover" end="arrowDown.mouseout"/>
                  </use>
                  <path fill="none" stroke="white" stroke-width="1.5" d="M0,-3.0v7 M-2.5,-0.5L0,-3.0L2.5,-0.5"/>
                </g>
                <g id="arrowLeft" xlink:href="#dirArrow" transform="rotate(270) translate(-36 17)" onmousedown="handlePan(-1,0)">
                  <use xlink:href="#rim" fill="#404040">
                        <set attributeName="fill" to="#808080" begin="arrowLeft.mouseover" end="arrowLeft.mouseout"/>
                  </use>
                  <path fill="none" stroke="white" stroke-width="1.5" d="M0,-3.0v7 M-2.5,-0.5L0,-3.0L2.5,-0.5"/>
                </g>
        </g>
        <svg viewBox="0 0 15 15" width="100%" height="30px" preserveAspectRatio="xMaxYMin meet">
         <g id="arrow_out" transform="scale(0.3 0.3)">
          <a xlink:href="Settings_8hxx__dep__incl_org.svg" target="_base">
           <rect id="button" ry="5" rx="5" y="6" x="6" height="38" width="38"
                fill="#f2f5e9" fill-opacity="0.5" stroke="#606060" stroke-width="1.0"/>
           <path id="arrow"
             d="M 11.500037,31.436501 C 11.940474,20.09759 22.043105,11.32322 32.158766,21.979434 L 37.068811,17.246167 C 37.068811,17.246167 37.088388,32 37.088388,32 L 22.160133,31.978069 C 22.160133,31.978069 26.997745,27.140456 26.997745,27.140456 C 18.528582,18.264221 13.291696,25.230495 11.500037,31.436501 z"
             style="fill:#404040;"/>
          </a>
         </g>
        </svg>
</svg>
