<?xml version="1.0" encoding="UTF-8" standalone="no"?>
<!DOCTYPE svg PUBLIC "-//W3C//DTD SVG 1.1//EN"
 "http://www.w3.org/Graphics/SVG/1.1/DTD/svg11.dtd">
<!-- Generated by graphviz version 2.40.1 (20161225.0304)
 -->
<!-- Title: src/engine/audio/Soundtrack.hxx Pages: 1 -->
<svg width="451pt" height="140pt"
 viewBox="0.00 0.00 450.50 140.00" xmlns="http://www.w3.org/2000/svg" xmlns:xlink="http://www.w3.org/1999/xlink">
<g id="graph0" class="graph" transform="scale(1 1) rotate(0) translate(4 136)">
<title>src/engine/audio/Soundtrack.hxx</title>
<!-- Node0 -->
<g id="node1" class="node">
<title>Node0</title>
<polygon fill="#bfbfbf" stroke="#000000" points="145,-112.5 145,-131.5 321,-131.5 321,-112.5 145,-112.5"/>
<text text-anchor="middle" x="233" y="-119.5" font-family="Helvetica,sans-Serif" font-size="10.00" fill="#000000">src/engine/audio/Soundtrack.hxx</text>
</g>
<!-- Node1 -->
<g id="node2" class="node">
<title>Node1</title>
<polygon fill="none" stroke="#bfbfbf" points="0,-56.5 0,-75.5 58,-75.5 58,-56.5 0,-56.5"/>
<text text-anchor="middle" x="29" y="-63.5" font-family="Helvetica,sans-Serif" font-size="10.00" fill="#000000">memory</text>
</g>
<!-- Node0&#45;&gt;Node1 -->
<g id="edge1" class="edge">
<title>Node0&#45;&gt;Node1</title>
<path fill="none" stroke="#191970" d="M197.9311,-112.3733C161.7983,-102.4544 105.6028,-87.0282 68.0686,-76.7247"/>
<polygon fill="#191970" stroke="#191970" points="68.5788,-73.2354 58.009,-73.9633 66.7258,-79.9856 68.5788,-73.2354"/>
</g>
<!-- Node2 -->
<g id="node3" class="node">
<title>Node2</title>
<polygon fill="none" stroke="#bfbfbf" points="76,-56.5 76,-75.5 120,-75.5 120,-56.5 76,-56.5"/>
<text text-anchor="middle" x="98" y="-63.5" font-family="Helvetica,sans-Serif" font-size="10.00" fill="#000000">string</text>
</g>
<!-- Node0&#45;&gt;Node2 -->
<g id="edge2" class="edge">
<title>Node0&#45;&gt;Node2</title>
<path fill="none" stroke="#191970" d="M209.7927,-112.3733C187.5639,-103.1524 153.8612,-89.1721 129.2725,-78.9723"/>
<polygon fill="#191970" stroke="#191970" points="130.5885,-75.729 120.0105,-75.1303 127.9063,-82.1948 130.5885,-75.729"/>
</g>
<!-- Node3 -->
<g id="node4" class="node">
<title>Node3</title>
<g id="a_node4"><a xlink:href="Meta_8hxx.html" target="_top" xlink:title="../../util/Meta.hxx">
<polygon fill="none" stroke="#000000" points="138,-56.5 138,-75.5 236,-75.5 236,-56.5 138,-56.5"/>
<text text-anchor="middle" x="187" y="-63.5" font-family="Helvetica,sans-Serif" font-size="10.00" fill="#000000">../../util/Meta.hxx</text>
</a>
</g>
</g>
<!-- Node0&#45;&gt;Node3 -->
<g id="edge3" class="edge">
<title>Node0&#45;&gt;Node3</title>
<path fill="none" stroke="#191970" d="M224.9874,-112.2455C218.5232,-104.3761 209.2615,-93.101 201.5017,-83.6542"/>
<polygon fill="#191970" stroke="#191970" points="203.9727,-81.1484 194.9208,-75.6427 198.5636,-85.5916 203.9727,-81.1484"/>
</g>
<!-- Node8 -->
<g id="node9" class="node">
<title>Node8</title>
<polygon fill="none" stroke="#bfbfbf" points="254,-56.5 254,-75.5 304,-75.5 304,-56.5 254,-56.5"/>
<text text-anchor="middle" x="279" y="-63.5" font-family="Helvetica,sans-Serif" font-size="10.00" fill="#000000">AL/al.h</text>
</g>
<!-- Node0&#45;&gt;Node8 -->
<g id="edge8" class="edge">
<title>Node0&#45;&gt;Node8</title>
<path fill="none" stroke="#191970" d="M241.0126,-112.2455C247.4768,-104.3761 256.7385,-93.101 264.4983,-83.6542"/>
<polygon fill="#191970" stroke="#191970" points="267.4364,-85.5916 271.0792,-75.6427 262.0273,-81.1484 267.4364,-85.5916"/>
</g>
<!-- Node9 -->
<g id="node10" class="node">
<title>Node9</title>
<polygon fill="none" stroke="#bfbfbf" points="322.5,-56.5 322.5,-75.5 377.5,-75.5 377.5,-56.5 322.5,-56.5"/>
<text text-anchor="middle" x="350" y="-63.5" font-family="Helvetica,sans-Serif" font-size="10.00" fill="#000000">AL/alc.h</text>
</g>
<!-- Node0&#45;&gt;Node9 -->
<g id="edge9" class="edge">
<title>Node0&#45;&gt;Node9</title>
<path fill="none" stroke="#191970" d="M253.113,-112.3733C271.8103,-103.4241 299.8744,-89.9917 320.9934,-79.8835"/>
<polygon fill="#191970" stroke="#191970" points="322.6405,-82.9755 330.1494,-75.5011 319.6183,-76.6614 322.6405,-82.9755"/>
</g>
<!-- Node10 -->
<g id="node11" class="node">
<title>Node10</title>
<polygon fill="none" stroke="#bfbfbf" points="395.5,-56.5 395.5,-75.5 442.5,-75.5 442.5,-56.5 395.5,-56.5"/>
<text text-anchor="middle" x="419" y="-63.5" font-family="Helvetica,sans-Serif" font-size="10.00" fill="#000000">vector</text>
</g>
<!-- Node0&#45;&gt;Node10 -->
<g id="edge10" class="edge">
<title>Node0&#45;&gt;Node10</title>
<path fill="none" stroke="#191970" d="M265.4831,-112.4267C294.6643,-103.7979 338.933,-90.6376 385.575,-76.4139"/>
<polygon fill="#191970" stroke="#191970" points="386.7035,-79.7289 395.2447,-73.4601 384.6584,-73.0343 386.7035,-79.7289"/>
</g>
<!-- Node4 -->
<g id="node5" class="node">
<title>Node4</title>
<polygon fill="none" stroke="#bfbfbf" points="35,-.5 35,-19.5 95,-19.5 95,-.5 35,-.5"/>
<text text-anchor="middle" x="65" y="-7.5" font-family="Helvetica,sans-Serif" font-size="10.00" fill="#000000">iostream</text>
</g>
<!-- Node3&#45;&gt;Node4 -->
<g id="edge4" class="edge">
<title>Node3&#45;&gt;Node4</title>
<path fill="none" stroke="#191970" d="M166.0275,-56.3733C146.4433,-47.3838 117.0039,-33.8706 94.949,-23.7471"/>
<polygon fill="#191970" stroke="#191970" points="96.2473,-20.4919 85.6989,-19.5011 93.3271,-26.8538 96.2473,-20.4919"/>
</g>
<!-- Node5 -->
<g id="node6" class="node">
<title>Node5</title>
<polygon fill="none" stroke="#bfbfbf" points="113.5,-.5 113.5,-19.5 182.5,-19.5 182.5,-.5 113.5,-.5"/>
<text text-anchor="middle" x="148" y="-7.5" font-family="Helvetica,sans-Serif" font-size="10.00" fill="#000000">type_traits</text>
</g>
<!-- Node3&#45;&gt;Node5 -->
<g id="edge5" class="edge">
<title>Node3&#45;&gt;Node5</title>
<path fill="none" stroke="#191970" d="M180.2067,-56.2455C174.7822,-48.4564 167.0339,-37.3308 160.4967,-27.9439"/>
<polygon fill="#191970" stroke="#191970" points="163.3025,-25.8485 154.7154,-19.6427 157.5583,-29.849 163.3025,-25.8485"/>
</g>
<!-- Node6 -->
<g id="node7" class="node">
<title>Node6</title>
<polygon fill="none" stroke="#bfbfbf" points="200.5,-.5 200.5,-19.5 251.5,-19.5 251.5,-.5 200.5,-.5"/>
<text text-anchor="middle" x="226" y="-7.5" font-family="Helvetica,sans-Serif" font-size="10.00" fill="#000000">variant</text>
</g>
<!-- Node3&#45;&gt;Node6 -->
<g id="edge6" class="edge">
<title>Node3&#45;&gt;Node6</title>
<path fill="none" stroke="#191970" d="M193.7933,-56.2455C199.2178,-48.4564 206.9661,-37.3308 213.5033,-27.9439"/>
<polygon fill="#191970" stroke="#191970" points="216.4417,-29.849 219.2846,-19.6427 210.6975,-25.8485 216.4417,-29.849"/>
</g>
<!-- Node7 -->
<g id="node8" class="node">
<title>Node7</title>
<polygon fill="none" stroke="#bfbfbf" points="269.5,-.5 269.5,-19.5 310.5,-19.5 310.5,-.5 269.5,-.5"/>
<text text-anchor="middle" x="290" y="-7.5" font-family="Helvetica,sans-Serif" font-size="10.00" fill="#000000">tuple</text>
</g>
<!-- Node3&#45;&gt;Node7 -->
<g id="edge7" class="edge">
<title>Node3&#45;&gt;Node7</title>
<path fill="none" stroke="#191970" d="M204.9412,-56.2455C221.04,-47.4928 244.8879,-34.527 263.2391,-24.5496"/>
<polygon fill="#191970" stroke="#191970" points="265.1507,-27.4942 272.2644,-19.6427 261.8071,-21.3444 265.1507,-27.4942"/>
</g>
</g>
</svg>
