<?xml version="1.0" encoding="UTF-8" standalone="no"?>
<!DOCTYPE svg PUBLIC "-//W3C//DTD SVG 1.1//EN"
 "http://www.w3.org/Graphics/SVG/1.1/DTD/svg11.dtd">
<!-- Generated by graphviz version 2.40.1 (20161225.0304)
 -->
<!-- Title: src/engine/Sprite.cxx Pages: 1 -->
<svg width="2183pt" height="308pt"
 viewBox="0.00 0.00 2182.79 308.00" xmlns="http://www.w3.org/2000/svg" xmlns:xlink="http://www.w3.org/1999/xlink">
<g id="graph0" class="graph" transform="scale(1 1) rotate(0) translate(4 304)">
<title>src/engine/Sprite.cxx</title>
<!-- Node0 -->
<g id="node1" class="node">
<title>Node0</title>
<polygon fill="#bfbfbf" stroke="#000000" points="864.7916,-280.5 864.7916,-299.5 983.7916,-299.5 983.7916,-280.5 864.7916,-280.5"/>
<text text-anchor="middle" x="924.2916" y="-287.5" font-family="Helvetica,sans-Serif" font-size="10.00" fill="#000000">src/engine/Sprite.cxx</text>
</g>
<!-- Node1 -->
<g id="node2" class="node">
<title>Node1</title>
<g id="a_node2"><a xlink:href="Sprite_8hxx.html" target="_top" xlink:title="Sprite.hxx">
<polygon fill="none" stroke="#000000" points="465.2916,-168.5 465.2916,-187.5 531.2916,-187.5 531.2916,-168.5 465.2916,-168.5"/>
<text text-anchor="middle" x="498.2916" y="-175.5" font-family="Helvetica,sans-Serif" font-size="10.00" fill="#000000">Sprite.hxx</text>
</a>
</g>
</g>
<!-- Node0&#45;&gt;Node1 -->
<g id="edge1" class="edge">
<title>Node0&#45;&gt;Node1</title>
<path fill="none" stroke="#191970" d="M864.7433,-285.1469C806.521,-279.2911 715.8547,-267.1949 640.2916,-244 597.9808,-231.0122 552.0551,-207.8507 524.2246,-192.7084"/>
<polygon fill="#191970" stroke="#191970" points="525.6179,-189.4799 515.1708,-187.7166 522.2381,-195.6099 525.6179,-189.4799"/>
</g>
<!-- Node5 -->
<g id="node6" class="node">
<title>Node5</title>
<g id="a_node6"><a xlink:href="enums_8hxx.html" target="_top" xlink:title="common/enums.hxx">
<polygon fill="none" stroke="#000000" points="102.2916,-56.5 102.2916,-75.5 218.2916,-75.5 218.2916,-56.5 102.2916,-56.5"/>
<text text-anchor="middle" x="160.2916" y="-63.5" font-family="Helvetica,sans-Serif" font-size="10.00" fill="#000000">common/enums.hxx</text>
</a>
</g>
</g>
<!-- Node0&#45;&gt;Node5 -->
<g id="edge41" class="edge">
<title>Node0&#45;&gt;Node5</title>
<path fill="none" stroke="#191970" d="M864.6613,-285.9902C780.719,-279.822 623.109,-266.3207 490.2916,-244 381.4206,-225.7037 355.8358,-212.9379 248.2916,-188 141.1692,-163.1599 75.6851,-218.1079 7.2916,-132 -20.1757,-97.4185 39.525,-80.6107 92.1992,-72.6762"/>
<polygon fill="#191970" stroke="#191970" points="92.8602,-76.1176 102.2708,-71.2502 91.8789,-69.1867 92.8602,-76.1176"/>
</g>
<!-- Node8 -->
<g id="node9" class="node">
<title>Node8</title>
<g id="a_node9"><a xlink:href="ResourcesManager_8hxx.html" target="_top" xlink:title="ResourcesManager.hxx">
<polygon fill="none" stroke="#000000" points="649.2916,-224.5 649.2916,-243.5 777.2916,-243.5 777.2916,-224.5 649.2916,-224.5"/>
<text text-anchor="middle" x="713.2916" y="-231.5" font-family="Helvetica,sans-Serif" font-size="10.00" fill="#000000">ResourcesManager.hxx</text>
</a>
</g>
</g>
<!-- Node0&#45;&gt;Node8 -->
<g id="edge8" class="edge">
<title>Node0&#45;&gt;Node8</title>
<path fill="none" stroke="#191970" d="M888.0194,-280.3733C852.3258,-270.9001 797.7037,-256.4032 759.0465,-246.1435"/>
<polygon fill="#191970" stroke="#191970" points="759.6537,-242.6835 749.0905,-243.5011 757.858,-249.4493 759.6537,-242.6835"/>
</g>
<!-- Node17 -->
<g id="node18" class="node">
<title>Node17</title>
<g id="a_node18"><a xlink:href="WindowManager_8hxx.html" target="_top" xlink:title="WindowManager.hxx">
<polygon fill="none" stroke="#000000" points="1115.2916,-168.5 1115.2916,-187.5 1233.2916,-187.5 1233.2916,-168.5 1115.2916,-168.5"/>
<text text-anchor="middle" x="1174.2916" y="-175.5" font-family="Helvetica,sans-Serif" font-size="10.00" fill="#000000">WindowManager.hxx</text>
</a>
</g>
</g>
<!-- Node0&#45;&gt;Node17 -->
<g id="edge23" class="edge">
<title>Node0&#45;&gt;Node17</title>
<path fill="none" stroke="#191970" d="M945.6065,-280.4509C989.9787,-260.5722 1092.4051,-214.6852 1143.7658,-191.6756"/>
<polygon fill="#191970" stroke="#191970" points="1145.3356,-194.8075 1153.0307,-187.5249 1142.4737,-188.4193 1145.3356,-194.8075"/>
</g>
<!-- Node18 -->
<g id="node19" class="node">
<title>Node18</title>
<g id="a_node19"><a xlink:href="Camera_8hxx.html" target="_top" xlink:title="basics/Camera.hxx">
<polygon fill="none" stroke="#000000" points="741.2916,-168.5 741.2916,-187.5 851.2916,-187.5 851.2916,-168.5 741.2916,-168.5"/>
<text text-anchor="middle" x="796.2916" y="-175.5" font-family="Helvetica,sans-Serif" font-size="10.00" fill="#000000">basics/Camera.hxx</text>
</a>
</g>
</g>
<!-- Node0&#45;&gt;Node18 -->
<g id="edge29" class="edge">
<title>Node0&#45;&gt;Node18</title>
<path fill="none" stroke="#191970" d="M913.3784,-280.4509C891.4627,-261.2747 841.8873,-217.8962 814.8045,-194.1988"/>
<polygon fill="#191970" stroke="#191970" points="817.0078,-191.4759 807.1772,-187.5249 812.3982,-196.744 817.0078,-191.4759"/>
</g>
<!-- Node19 -->
<g id="node20" class="node">
<title>Node19</title>
<g id="a_node20"><a xlink:href="isoMath_8hxx.html" target="_top" xlink:title="basics/isoMath.hxx">
<polygon fill="none" stroke="#000000" points="869.2916,-168.5 869.2916,-187.5 979.2916,-187.5 979.2916,-168.5 869.2916,-168.5"/>
<text text-anchor="middle" x="924.2916" y="-175.5" font-family="Helvetica,sans-Serif" font-size="10.00" fill="#000000">basics/isoMath.hxx</text>
</a>
</g>
</g>
<!-- Node0&#45;&gt;Node19 -->
<g id="edge33" class="edge">
<title>Node0&#45;&gt;Node19</title>
<path fill="none" stroke="#191970" d="M924.2916,-280.4509C924.2916,-262.184 924.2916,-221.9553 924.2916,-197.6976"/>
<polygon fill="#191970" stroke="#191970" points="927.7917,-197.5249 924.2916,-187.5249 920.7917,-197.5249 927.7917,-197.5249"/>
</g>
<!-- Node21 -->
<g id="node22" class="node">
<title>Node21</title>
<g id="a_node22"><a xlink:href="MapLayers_8hxx.html" target="_top" xlink:title="map/MapLayers.hxx">
<polygon fill="none" stroke="#000000" points="16.7916,-112.5 16.7916,-131.5 131.7916,-131.5 131.7916,-112.5 16.7916,-112.5"/>
<text text-anchor="middle" x="74.2916" y="-119.5" font-family="Helvetica,sans-Serif" font-size="10.00" fill="#000000">map/MapLayers.hxx</text>
</a>
</g>
</g>
<!-- Node0&#45;&gt;Node21 -->
<g id="edge38" class="edge">
<title>Node0&#45;&gt;Node21</title>
<path fill="none" stroke="#191970" d="M864.7325,-283.7746C796.6257,-276.2318 681.9289,-262.2355 584.2916,-244 410.441,-211.5303 206.7623,-158.0869 118.635,-134.1985"/>
<polygon fill="#191970" stroke="#191970" points="119.537,-130.8167 108.969,-131.5711 117.7008,-137.5717 119.537,-130.8167"/>
</g>
<!-- Node22 -->
<g id="node23" class="node">
<title>Node22</title>
<g id="a_node23"><a xlink:href="LOG_8hxx.html" target="_top" xlink:title="LOG.hxx">
<polygon fill="none" stroke="#000000" points="1618.2916,-168.5 1618.2916,-187.5 1676.2916,-187.5 1676.2916,-168.5 1618.2916,-168.5"/>
<text text-anchor="middle" x="1647.2916" y="-175.5" font-family="Helvetica,sans-Serif" font-size="10.00" fill="#000000">LOG.hxx</text>
</a>
</g>
</g>
<!-- Node0&#45;&gt;Node22 -->
<g id="edge42" class="edge">
<title>Node0&#45;&gt;Node22</title>
<path fill="none" stroke="#191970" d="M984.0728,-280.7393C1127.5887,-258.5072 1488.5486,-202.5909 1608.1298,-184.0666"/>
<polygon fill="#191970" stroke="#191970" points="1608.9386,-187.4831 1618.2849,-182.4934 1607.8669,-180.5656 1608.9386,-187.4831"/>
</g>
<!-- Node23 -->
<g id="node24" class="node">
<title>Node23</title>
<g id="a_node24"><a xlink:href="Exception_8hxx.html" target="_top" xlink:title="Exception.hxx">
<polygon fill="none" stroke="#000000" points="2058.2916,-112.5 2058.2916,-131.5 2144.2916,-131.5 2144.2916,-112.5 2058.2916,-112.5"/>
<text text-anchor="middle" x="2101.2916" y="-119.5" font-family="Helvetica,sans-Serif" font-size="10.00" fill="#000000">Exception.hxx</text>
</a>
</g>
</g>
<!-- Node0&#45;&gt;Node23 -->
<g id="edge61" class="edge">
<title>Node0&#45;&gt;Node23</title>
<path fill="none" stroke="#191970" d="M984.0953,-283.0755C1058.1487,-274.4062 1188.1205,-258.8809 1299.2916,-244 1630.0796,-199.7221 1715.5342,-189.6528 2048.2673,-132.134"/>
<polygon fill="#191970" stroke="#191970" points="2048.9271,-135.5719 2058.1841,-130.4184 2047.7338,-128.6744 2048.9271,-135.5719"/>
</g>
<!-- Node36 -->
<g id="node37" class="node">
<title>Node36</title>
<g id="a_node37"><a xlink:href="Settings_8hxx.html" target="_top" xlink:title="Settings.hxx">
<polygon fill="none" stroke="#000000" points="1252.7916,-168.5 1252.7916,-187.5 1329.7916,-187.5 1329.7916,-168.5 1252.7916,-168.5"/>
<text text-anchor="middle" x="1291.2916" y="-175.5" font-family="Helvetica,sans-Serif" font-size="10.00" fill="#000000">Settings.hxx</text>
</a>
</g>
</g>
<!-- Node0&#45;&gt;Node36 -->
<g id="edge62" class="edge">
<title>Node0&#45;&gt;Node36</title>
<path fill="none" stroke="#191970" d="M955.5818,-280.4509C1021.8037,-260.2415 1176.1074,-213.1516 1250.1788,-190.5467"/>
<polygon fill="#191970" stroke="#191970" points="1251.5377,-193.7914 1260.0806,-187.5249 1249.4944,-187.0962 1251.5377,-193.7914"/>
</g>
<!-- Node38 -->
<g id="node39" class="node">
<title>Node38</title>
<g id="a_node39"><a xlink:href="GameStates_8hxx.html" target="_top" xlink:title="GameStates.hxx">
<polygon fill="none" stroke="#000000" points="997.2916,-168.5 997.2916,-187.5 1095.2916,-187.5 1095.2916,-168.5 997.2916,-168.5"/>
<text text-anchor="middle" x="1046.2916" y="-175.5" font-family="Helvetica,sans-Serif" font-size="10.00" fill="#000000">GameStates.hxx</text>
</a>
</g>
</g>
<!-- Node0&#45;&gt;Node38 -->
<g id="edge68" class="edge">
<title>Node0&#45;&gt;Node38</title>
<path fill="none" stroke="#191970" d="M934.6933,-280.4509C955.4916,-261.3574 1002.4264,-218.2697 1028.3115,-194.5063"/>
<polygon fill="#191970" stroke="#191970" points="1030.9167,-196.8659 1035.9163,-187.5249 1026.1828,-191.7093 1030.9167,-196.8659"/>
</g>
<!-- Node2 -->
<g id="node3" class="node">
<title>Node2</title>
<polygon fill="none" stroke="#bfbfbf" points="844.2916,-112.5 844.2916,-131.5 888.2916,-131.5 888.2916,-112.5 844.2916,-112.5"/>
<text text-anchor="middle" x="866.2916" y="-119.5" font-family="Helvetica,sans-Serif" font-size="10.00" fill="#000000">SDL.h</text>
</g>
<!-- Node1&#45;&gt;Node2 -->
<g id="edge2" class="edge">
<title>Node1&#45;&gt;Node2</title>
<path fill="none" stroke="#191970" d="M531.3022,-173.831C604.9247,-164.4882 779.7927,-142.0345 834.1419,-131.7448"/>
<polygon fill="#191970" stroke="#191970" points="834.9901,-135.1435 844.0713,-129.6863 833.569,-128.2892 834.9901,-135.1435"/>
</g>
<!-- Node3 -->
<g id="node4" class="node">
<title>Node3</title>
<polygon fill="none" stroke="#bfbfbf" points="751.7916,-56.5 751.7916,-75.5 798.7916,-75.5 798.7916,-56.5 751.7916,-56.5"/>
<text text-anchor="middle" x="775.2916" y="-63.5" font-family="Helvetica,sans-Serif" font-size="10.00" fill="#000000">vector</text>
</g>
<!-- Node1&#45;&gt;Node3 -->
<g id="edge3" class="edge">
<title>Node1&#45;&gt;Node3</title>
<path fill="none" stroke="#191970" d="M465.071,-174.9616C394.1806,-168.1423 233.2153,-150.7423 217.2916,-132 211.5363,-125.2259 211.2699,-118.5385 217.2916,-112 252.8912,-73.3449 626.5118,-67.1719 741.683,-66.1868"/>
<polygon fill="#191970" stroke="#191970" points="741.7232,-69.6867 751.6956,-66.1089 741.6686,-62.6869 741.7232,-69.6867"/>
</g>
<!-- Node4 -->
<g id="node5" class="node">
<title>Node4</title>
<g id="a_node5"><a xlink:href="point_8hxx.html" target="_top" xlink:title="basics/point.hxx">
<polygon fill="none" stroke="#000000" points="730.2916,-112.5 730.2916,-131.5 826.2916,-131.5 826.2916,-112.5 730.2916,-112.5"/>
<text text-anchor="middle" x="778.2916" y="-119.5" font-family="Helvetica,sans-Serif" font-size="10.00" fill="#000000">basics/point.hxx</text>
</a>
</g>
</g>
<!-- Node1&#45;&gt;Node4 -->
<g id="edge4" class="edge">
<title>Node1&#45;&gt;Node4</title>
<path fill="none" stroke="#191970" d="M531.5108,-171.3562C578.1107,-162.0362 663.5708,-144.9442 720.6647,-133.5254"/>
<polygon fill="#191970" stroke="#191970" points="721.508,-136.9261 730.6274,-131.5328 720.1351,-130.0621 721.508,-136.9261"/>
</g>
<!-- Node1&#45;&gt;Node5 -->
<g id="edge5" class="edge">
<title>Node1&#45;&gt;Node5</title>
<path fill="none" stroke="#191970" d="M465.1237,-175.8575C398.6556,-171.0636 251.8675,-157.8117 209.2916,-132 191.0722,-120.9544 177.4381,-100.3449 169.2377,-85.0833"/>
<polygon fill="#191970" stroke="#191970" points="172.2727,-83.3287 164.64,-75.9808 166.0245,-86.4848 172.2727,-83.3287"/>
</g>
<!-- Node6 -->
<g id="node7" class="node">
<title>Node6</title>
<polygon fill="none" stroke="#bfbfbf" points="84.2916,-.5 84.2916,-19.5 140.2916,-19.5 140.2916,-.5 84.2916,-.5"/>
<text text-anchor="middle" x="112.2916" y="-7.5" font-family="Helvetica,sans-Serif" font-size="10.00" fill="#000000">stddef.h</text>
</g>
<!-- Node5&#45;&gt;Node6 -->
<g id="edge6" class="edge">
<title>Node5&#45;&gt;Node6</title>
<path fill="none" stroke="#191970" d="M151.9306,-56.2455C145.1166,-48.2958 135.3235,-36.8706 127.1764,-27.3656"/>
<polygon fill="#191970" stroke="#191970" points="129.7221,-24.9575 120.5568,-19.6427 124.4073,-29.513 129.7221,-24.9575"/>
</g>
<!-- Node7 -->
<g id="node8" class="node">
<title>Node7</title>
<polygon fill="none" stroke="#bfbfbf" points="158.2916,-.5 158.2916,-19.5 258.2916,-19.5 258.2916,-.5 158.2916,-.5"/>
<text text-anchor="middle" x="208.2916" y="-7.5" font-family="Helvetica,sans-Serif" font-size="10.00" fill="#000000">betterEnums.hxx</text>
</g>
<!-- Node5&#45;&gt;Node7 -->
<g id="edge7" class="edge">
<title>Node5&#45;&gt;Node7</title>
<path fill="none" stroke="#191970" d="M168.6526,-56.2455C175.4666,-48.2958 185.2597,-36.8706 193.4068,-27.3656"/>
<polygon fill="#191970" stroke="#191970" points="196.1759,-29.513 200.0265,-19.6427 190.8611,-24.9575 196.1759,-29.513"/>
</g>
<!-- Node8&#45;&gt;Node2 -->
<g id="edge11" class="edge">
<title>Node8&#45;&gt;Node2</title>
<path fill="none" stroke="#191970" d="M713.4107,-224.1156C714.1171,-209.8645 717.5023,-183.5538 732.2916,-168 734.1343,-166.062 795.3454,-145.5179 834.391,-132.5487"/>
<polygon fill="#191970" stroke="#191970" points="835.8799,-135.7424 844.2694,-129.272 833.676,-129.0984 835.8799,-135.7424"/>
</g>
<!-- Node9 -->
<g id="node10" class="node">
<title>Node9</title>
<polygon fill="none" stroke="#bfbfbf" points="1446.2916,-56.5 1446.2916,-75.5 1506.2916,-75.5 1506.2916,-56.5 1446.2916,-56.5"/>
<text text-anchor="middle" x="1476.2916" y="-63.5" font-family="Helvetica,sans-Serif" font-size="10.00" fill="#000000">iostream</text>
</g>
<!-- Node8&#45;&gt;Node9 -->
<g id="edge9" class="edge">
<title>Node8&#45;&gt;Node9</title>
<path fill="none" stroke="#191970" d="M777.3511,-231.2246C926.3232,-224.4942 1287.3515,-206.4923 1339.2916,-188 1395.0632,-168.1435 1442.073,-112.801 1463.6406,-83.9745"/>
<polygon fill="#191970" stroke="#191970" points="1466.6646,-85.7678 1469.728,-75.6255 1461.0084,-81.6438 1466.6646,-85.7678"/>
</g>
<!-- Node10 -->
<g id="node11" class="node">
<title>Node10</title>
<polygon fill="none" stroke="#bfbfbf" points="226.7916,-112.5 226.7916,-131.5 319.7916,-131.5 319.7916,-112.5 226.7916,-112.5"/>
<text text-anchor="middle" x="273.2916" y="-119.5" font-family="Helvetica,sans-Serif" font-size="10.00" fill="#000000">unordered_map</text>
</g>
<!-- Node8&#45;&gt;Node10 -->
<g id="edge10" class="edge">
<title>Node8&#45;&gt;Node10</title>
<path fill="none" stroke="#191970" d="M680.5696,-224.4236C652.892,-215.9526 612.407,-202.6834 578.2916,-188 560.7612,-180.4548 558.3672,-174.1254 540.2916,-168 453.1832,-138.4808 424.8815,-147.684 330.0489,-132.074"/>
<polygon fill="#191970" stroke="#191970" points="330.4824,-128.5976 320.0377,-130.3753 329.3113,-135.499 330.4824,-128.5976"/>
</g>
<!-- Node11 -->
<g id="node12" class="node">
<title>Node11</title>
<g id="a_node12"><a xlink:href="TileManager_8hxx.html" target="_top" xlink:title="TileManager.hxx">
<polygon fill="none" stroke="#000000" points="587.7916,-168.5 587.7916,-187.5 684.7916,-187.5 684.7916,-168.5 587.7916,-168.5"/>
<text text-anchor="middle" x="636.2916" y="-175.5" font-family="Helvetica,sans-Serif" font-size="10.00" fill="#000000">TileManager.hxx</text>
</a>
</g>
</g>
<!-- Node8&#45;&gt;Node11 -->
<g id="edge12" class="edge">
<title>Node8&#45;&gt;Node11</title>
<path fill="none" stroke="#191970" d="M699.8792,-224.2455C688.2859,-215.814 671.3169,-203.4729 657.8238,-193.6598"/>
<polygon fill="#191970" stroke="#191970" points="659.6963,-190.6938 649.5503,-187.6427 655.579,-196.355 659.6963,-190.6938"/>
</g>
<!-- Node11&#45;&gt;Node2 -->
<g id="edge13" class="edge">
<title>Node11&#45;&gt;Node2</title>
<path fill="none" stroke="#191970" d="M682.8135,-168.4156C721.1077,-160.2636 776.9867,-147.7689 834.0893,-132.175"/>
<polygon fill="#191970" stroke="#191970" points="835.3001,-135.4718 844.0087,-129.4377 833.438,-128.724 835.3001,-135.4718"/>
</g>
<!-- Node11&#45;&gt;Node10 -->
<g id="edge14" class="edge">
<title>Node11&#45;&gt;Node10</title>
<path fill="none" stroke="#191970" d="M587.4608,-170.1951C582.6741,-169.4462 577.8893,-168.704 573.2916,-168 468.1107,-151.8936 439.16,-149.7534 330.1204,-132.096"/>
<polygon fill="#191970" stroke="#191970" points="330.4566,-128.6048 320.0245,-130.4541 329.3329,-135.514 330.4566,-128.6048"/>
</g>
<!-- Node12 -->
<g id="node13" class="node">
<title>Node12</title>
<polygon fill="none" stroke="#bfbfbf" points="1154.2916,-56.5 1154.2916,-75.5 1198.2916,-75.5 1198.2916,-56.5 1154.2916,-56.5"/>
<text text-anchor="middle" x="1176.2916" y="-63.5" font-family="Helvetica,sans-Serif" font-size="10.00" fill="#000000">string</text>
</g>
<!-- Node11&#45;&gt;Node12 -->
<g id="edge15" class="edge">
<title>Node11&#45;&gt;Node12</title>
<path fill="none" stroke="#191970" d="M645.1061,-168.3042C659.4263,-153.2771 689.3732,-124.7669 721.2916,-112 798.4164,-81.1513 1053.4389,-70 1144.0209,-66.9557"/>
<polygon fill="#191970" stroke="#191970" points="1144.3483,-70.447 1154.2293,-66.6239 1144.1208,-63.4507 1144.3483,-70.447"/>
</g>
<!-- Node13 -->
<g id="node14" class="node">
<title>Node13</title>
<g id="a_node14"><a xlink:href="tileData_8hxx.html" target="_top" xlink:title="tileData.hxx">
<polygon fill="none" stroke="#000000" points="596.7916,-112.5 596.7916,-131.5 673.7916,-131.5 673.7916,-112.5 596.7916,-112.5"/>
<text text-anchor="middle" x="635.2916" y="-119.5" font-family="Helvetica,sans-Serif" font-size="10.00" fill="#000000">tileData.hxx</text>
</a>
</g>
</g>
<!-- Node11&#45;&gt;Node13 -->
<g id="edge16" class="edge">
<title>Node11&#45;&gt;Node13</title>
<path fill="none" stroke="#191970" d="M636.1174,-168.2455C635.9869,-160.9382 635.804,-150.6944 635.6435,-141.7046"/>
<polygon fill="#191970" stroke="#191970" points="639.1419,-141.5786 635.4638,-131.6427 632.143,-141.7036 639.1419,-141.5786"/>
</g>
<!-- Node14 -->
<g id="node15" class="node">
<title>Node14</title>
<polygon fill="none" stroke="#bfbfbf" points="338.2916,-112.5 338.2916,-131.5 396.2916,-131.5 396.2916,-112.5 338.2916,-112.5"/>
<text text-anchor="middle" x="367.2916" y="-119.5" font-family="Helvetica,sans-Serif" font-size="10.00" fill="#000000">json.hxx</text>
</g>
<!-- Node11&#45;&gt;Node14 -->
<g id="edge20" class="edge">
<title>Node11&#45;&gt;Node14</title>
<path fill="none" stroke="#191970" d="M587.4369,-169.1635C542.7528,-160.8809 474.605,-147.7484 406.3597,-132.1455"/>
<polygon fill="#191970" stroke="#191970" points="406.8233,-128.6607 396.2927,-129.8258 405.2514,-135.482 406.8233,-128.6607"/>
</g>
<!-- Node15 -->
<g id="node16" class="node">
<title>Node15</title>
<g id="a_node16"><a xlink:href="Singleton_8hxx.html" target="_top" xlink:title="Singleton.hxx">
<polygon fill="none" stroke="#000000" points="944.7916,-112.5 944.7916,-131.5 1027.7916,-131.5 1027.7916,-112.5 944.7916,-112.5"/>
<text text-anchor="middle" x="986.2916" y="-119.5" font-family="Helvetica,sans-Serif" font-size="10.00" fill="#000000">Singleton.hxx</text>
</a>
</g>
</g>
<!-- Node11&#45;&gt;Node15 -->
<g id="edge21" class="edge">
<title>Node11&#45;&gt;Node15</title>
<path fill="none" stroke="#191970" d="M684.9576,-170.2134C750.705,-159.6939 867.394,-141.0236 934.6424,-130.2639"/>
<polygon fill="#191970" stroke="#191970" points="935.2731,-133.7076 944.5945,-128.6715 934.1671,-126.7955 935.2731,-133.7076"/>
</g>
<!-- Node16 -->
<g id="node17" class="node">
<title>Node16</title>
<polygon fill="none" stroke="#bfbfbf" points="414.7916,-112.5 414.7916,-131.5 539.7916,-131.5 539.7916,-112.5 414.7916,-112.5"/>
<text text-anchor="middle" x="477.2916" y="-119.5" font-family="Helvetica,sans-Serif" font-size="10.00" fill="#000000">../common/enums.hxx</text>
</g>
<!-- Node11&#45;&gt;Node16 -->
<g id="edge22" class="edge">
<title>Node11&#45;&gt;Node16</title>
<path fill="none" stroke="#191970" d="M608.9585,-168.3733C582.7482,-159.1419 542.9932,-145.1402 514.0248,-134.9375"/>
<polygon fill="#191970" stroke="#191970" points="514.8628,-131.5219 504.268,-131.5011 512.5374,-138.1244 514.8628,-131.5219"/>
</g>
<!-- Node13&#45;&gt;Node3 -->
<g id="edge18" class="edge">
<title>Node13&#45;&gt;Node3</title>
<path fill="none" stroke="#191970" d="M659.3585,-112.3733C682.1344,-103.2629 716.526,-89.5062 741.9406,-79.3404"/>
<polygon fill="#191970" stroke="#191970" points="743.5539,-82.4648 751.5388,-75.5011 740.9541,-75.9654 743.5539,-82.4648"/>
</g>
<!-- Node13&#45;&gt;Node5 -->
<g id="edge19" class="edge">
<title>Node13&#45;&gt;Node5</title>
<path fill="none" stroke="#191970" d="M596.5633,-114.3323C591.7664,-113.4891 586.9226,-112.6882 582.2916,-112 458.0797,-93.5407 312.2635,-79.2754 228.6309,-71.7989"/>
<polygon fill="#191970" stroke="#191970" points="228.7673,-68.2973 218.4969,-70.899 228.1481,-75.2699 228.7673,-68.2973"/>
</g>
<!-- Node13&#45;&gt;Node12 -->
<g id="edge17" class="edge">
<title>Node13&#45;&gt;Node12</title>
<path fill="none" stroke="#191970" d="M674.0104,-114.2666C678.8089,-113.4347 683.6557,-112.6544 688.2916,-112 858.9032,-87.9161 1064.9069,-73.1535 1143.5898,-68.0332"/>
<polygon fill="#191970" stroke="#191970" points="1144.0756,-71.5093 1153.8304,-67.3748 1143.6263,-64.5237 1144.0756,-71.5093"/>
</g>
<!-- Node17&#45;&gt;Node2 -->
<g id="edge27" class="edge">
<title>Node17&#45;&gt;Node2</title>
<path fill="none" stroke="#191970" d="M1121.6945,-168.4369C1057.5866,-156.7809 951.2751,-137.4515 898.3197,-127.8233"/>
<polygon fill="#191970" stroke="#191970" points="898.9331,-124.3775 888.4683,-126.0321 897.6809,-131.2646 898.9331,-124.3775"/>
</g>
<!-- Node17&#45;&gt;Node3 -->
<g id="edge26" class="edge">
<title>Node17&#45;&gt;Node3</title>
<path fill="none" stroke="#191970" d="M1169.3884,-168.4225C1161.2189,-153.5576 1143.3169,-125.2657 1119.2916,-112 1066.3949,-82.7929 885.2315,-71.1157 809.2544,-67.4281"/>
<polygon fill="#191970" stroke="#191970" points="809.409,-63.9316 799.2561,-66.9598 809.0814,-70.9239 809.409,-63.9316"/>
</g>
<!-- Node17&#45;&gt;Node9 -->
<g id="edge25" class="edge">
<title>Node17&#45;&gt;Node9</title>
<path fill="none" stroke="#191970" d="M1199.0207,-168.4637C1232.711,-155.5075 1294.9501,-131.6996 1348.2916,-112 1378.9937,-100.6614 1413.9711,-88.1167 1439.5948,-78.9955"/>
<polygon fill="#191970" stroke="#191970" points="1441.0227,-82.2025 1449.2726,-75.5549 1438.6779,-75.6069 1441.0227,-82.2025"/>
</g>
<!-- Node17&#45;&gt;Node12 -->
<g id="edge24" class="edge">
<title>Node17&#45;&gt;Node12</title>
<path fill="none" stroke="#191970" d="M1178.7026,-168.3802C1182.6335,-159.2426 1188.0942,-145.0061 1190.2916,-132 1192.9707,-116.1427 1188.7492,-98.3106 1184.2583,-85.183"/>
<polygon fill="#191970" stroke="#191970" points="1187.5222,-83.9187 1180.7257,-75.7911 1180.9704,-86.3831 1187.5222,-83.9187"/>
</g>
<!-- Node17&#45;&gt;Node15 -->
<g id="edge28" class="edge">
<title>Node17&#45;&gt;Node15</title>
<path fill="none" stroke="#191970" d="M1141.9733,-168.3733C1110.441,-158.9807 1062.3296,-144.6496 1027.9415,-134.4064"/>
<polygon fill="#191970" stroke="#191970" points="1028.7713,-131.0016 1018.1882,-131.5011 1026.7729,-137.7103 1028.7713,-131.0016"/>
</g>
<!-- Node18&#45;&gt;Node2 -->
<g id="edge32" class="edge">
<title>Node18&#45;&gt;Node2</title>
<path fill="none" stroke="#191970" d="M808.4847,-168.2455C818.9237,-159.8943 834.1571,-147.7076 846.3656,-137.9408"/>
<polygon fill="#191970" stroke="#191970" points="848.616,-140.6227 854.2383,-131.6427 844.2431,-135.1566 848.616,-140.6227"/>
</g>
<!-- Node18&#45;&gt;Node4 -->
<g id="edge30" class="edge">
<title>Node18&#45;&gt;Node4</title>
<path fill="none" stroke="#191970" d="M793.1562,-168.2455C790.7817,-160.8579 787.4423,-150.4689 784.5301,-141.4087"/>
<polygon fill="#191970" stroke="#191970" points="787.7833,-140.0919 781.391,-131.6427 781.1191,-142.234 787.7833,-140.0919"/>
</g>
<!-- Node18&#45;&gt;Node15 -->
<g id="edge31" class="edge">
<title>Node18&#45;&gt;Node15</title>
<path fill="none" stroke="#191970" d="M828.9538,-168.3733C860.8214,-158.9807 909.4447,-144.6496 944.1986,-134.4064"/>
<polygon fill="#191970" stroke="#191970" points="945.4531,-137.6855 954.0557,-131.5011 943.4741,-130.9711 945.4531,-137.6855"/>
</g>
<!-- Node19&#45;&gt;Node2 -->
<g id="edge36" class="edge">
<title>Node19&#45;&gt;Node2</title>
<path fill="none" stroke="#191970" d="M914.1888,-168.2455C905.7888,-160.1352 893.6422,-148.4075 883.6832,-138.7919"/>
<polygon fill="#191970" stroke="#191970" points="885.9038,-136.0707 876.2787,-131.6427 881.0416,-141.1066 885.9038,-136.0707"/>
</g>
<!-- Node19&#45;&gt;Node3 -->
<g id="edge34" class="edge">
<title>Node19&#45;&gt;Node3</title>
<path fill="none" stroke="#191970" d="M922.7893,-168.1112C920.1248,-153.8545 913.266,-127.5371 897.2916,-112 873.2254,-88.5926 836.0962,-76.8676 809.1177,-71.1453"/>
<polygon fill="#191970" stroke="#191970" points="809.4492,-67.6442 798.9649,-69.1705 808.1126,-74.5155 809.4492,-67.6442"/>
</g>
<!-- Node19&#45;&gt;Node4 -->
<g id="edge37" class="edge">
<title>Node19&#45;&gt;Node4</title>
<path fill="none" stroke="#191970" d="M899.1933,-168.3733C875.3361,-159.2226 839.2581,-145.3844 812.7206,-135.2057"/>
<polygon fill="#191970" stroke="#191970" points="813.6526,-131.8145 803.0624,-131.5011 811.1457,-138.3503 813.6526,-131.8145"/>
</g>
<!-- Node20 -->
<g id="node21" class="node">
<title>Node20</title>
<polygon fill="none" stroke="#bfbfbf" points="1046.2916,-112.5 1046.2916,-131.5 1110.2916,-131.5 1110.2916,-112.5 1046.2916,-112.5"/>
<text text-anchor="middle" x="1078.2916" y="-119.5" font-family="Helvetica,sans-Serif" font-size="10.00" fill="#000000">algorithm</text>
</g>
<!-- Node19&#45;&gt;Node20 -->
<g id="edge35" class="edge">
<title>Node19&#45;&gt;Node20</title>
<path fill="none" stroke="#191970" d="M950.7651,-168.3733C976.1513,-159.1419 1014.6561,-145.1402 1042.7136,-134.9375"/>
<polygon fill="#191970" stroke="#191970" points="1043.9617,-138.2079 1052.1635,-131.5011 1041.5695,-131.6293 1043.9617,-138.2079"/>
</g>
<!-- Node21&#45;&gt;Node3 -->
<g id="edge40" class="edge">
<title>Node21&#45;&gt;Node3</title>
<path fill="none" stroke="#191970" d="M131.9394,-116.6173C148.8087,-115.0806 167.2854,-113.4348 184.2916,-112 396.1619,-94.1249 650.9815,-75.1413 741.4339,-68.4806"/>
<polygon fill="#191970" stroke="#191970" points="741.9196,-71.9545 751.636,-67.7304 741.4061,-64.9733 741.9196,-71.9545"/>
</g>
<!-- Node21&#45;&gt;Node5 -->
<g id="edge39" class="edge">
<title>Node21&#45;&gt;Node5</title>
<path fill="none" stroke="#191970" d="M89.2717,-112.2455C102.4667,-103.6534 121.8967,-91.0014 137.0995,-81.1018"/>
<polygon fill="#191970" stroke="#191970" points="139.0131,-84.0325 145.4832,-75.6427 135.1933,-78.1665 139.0131,-84.0325"/>
</g>
<!-- Node22&#45;&gt;Node2 -->
<g id="edge52" class="edge">
<title>Node22&#45;&gt;Node2</title>
<path fill="none" stroke="#191970" d="M1618.0587,-176.9446C1520.8359,-173.2566 1199.5485,-159.6413 935.2916,-132 923.2172,-130.737 910.0128,-128.9287 898.4171,-127.1963"/>
<polygon fill="#191970" stroke="#191970" points="898.714,-123.7009 888.2989,-125.6444 897.6527,-130.62 898.714,-123.7009"/>
</g>
<!-- Node22&#45;&gt;Node9 -->
<g id="edge47" class="edge">
<title>Node22&#45;&gt;Node9</title>
<path fill="none" stroke="#191970" d="M1618.234,-170.4517C1593.992,-163.2179 1559.3282,-150.6264 1533.2916,-132 1514.9368,-118.8691 1498.6315,-98.6528 1488.2121,-84.0545"/>
<polygon fill="#191970" stroke="#191970" points="1491.0797,-82.0474 1482.5195,-75.8045 1485.3181,-86.023 1491.0797,-82.0474"/>
</g>
<!-- Node22&#45;&gt;Node12 -->
<g id="edge43" class="edge">
<title>Node22&#45;&gt;Node12</title>
<path fill="none" stroke="#191970" d="M1618.0144,-168.5588C1574.8482,-154.8597 1491.4378,-129.23 1419.2916,-112 1344.5151,-94.1418 1255.4653,-78.7616 1208.6887,-71.1291"/>
<polygon fill="#191970" stroke="#191970" points="1208.9847,-67.6316 1198.5539,-69.4891 1207.8664,-74.5417 1208.9847,-67.6316"/>
</g>
<!-- Node22&#45;&gt;Node20 -->
<g id="edge53" class="edge">
<title>Node22&#45;&gt;Node20</title>
<path fill="none" stroke="#191970" d="M1617.8979,-175.1071C1523.983,-165.8642 1230.8906,-137.0185 1120.722,-126.1759"/>
<polygon fill="#191970" stroke="#191970" points="1120.9391,-122.6805 1110.6444,-125.1841 1120.2534,-129.6468 1120.9391,-122.6805"/>
</g>
<!-- Node22&#45;&gt;Node23 -->
<g id="edge44" class="edge">
<title>Node22&#45;&gt;Node23</title>
<path fill="none" stroke="#191970" d="M1676.6485,-175.4125C1741.6782,-169.5162 1902.9543,-153.9862 2048.2186,-132.0684"/>
<polygon fill="#191970" stroke="#191970" points="2048.8461,-135.5132 2058.2051,-130.5475 2047.7921,-128.593 2048.8461,-135.5132"/>
</g>
<!-- Node26 -->
<g id="node27" class="node">
<title>Node26</title>
<polygon fill="none" stroke="#bfbfbf" points="1622.2916,-112.5 1622.2916,-131.5 1672.2916,-131.5 1672.2916,-112.5 1622.2916,-112.5"/>
<text text-anchor="middle" x="1647.2916" y="-119.5" font-family="Helvetica,sans-Serif" font-size="10.00" fill="#000000">chrono</text>
</g>
<!-- Node22&#45;&gt;Node26 -->
<g id="edge48" class="edge">
<title>Node22&#45;&gt;Node26</title>
<path fill="none" stroke="#191970" d="M1647.2916,-168.2455C1647.2916,-160.9382 1647.2916,-150.6944 1647.2916,-141.7046"/>
<polygon fill="#191970" stroke="#191970" points="1650.7917,-141.6426 1647.2916,-131.6427 1643.7917,-141.6427 1650.7917,-141.6426"/>
</g>
<!-- Node27 -->
<g id="node28" class="node">
<title>Node27</title>
<polygon fill="none" stroke="#bfbfbf" points="1690.2916,-112.5 1690.2916,-131.5 1734.2916,-131.5 1734.2916,-112.5 1690.2916,-112.5"/>
<text text-anchor="middle" x="1712.2916" y="-119.5" font-family="Helvetica,sans-Serif" font-size="10.00" fill="#000000">ctime</text>
</g>
<!-- Node22&#45;&gt;Node27 -->
<g id="edge49" class="edge">
<title>Node22&#45;&gt;Node27</title>
<path fill="none" stroke="#191970" d="M1658.6137,-168.2455C1668.2139,-159.9746 1682.1808,-147.9416 1693.4611,-138.2232"/>
<polygon fill="#191970" stroke="#191970" points="1695.8076,-140.8214 1701.0992,-131.6427 1691.2386,-135.5182 1695.8076,-140.8214"/>
</g>
<!-- Node28 -->
<g id="node29" class="node">
<title>Node28</title>
<polygon fill="none" stroke="#bfbfbf" points="1752.7916,-112.5 1752.7916,-131.5 1807.7916,-131.5 1807.7916,-112.5 1752.7916,-112.5"/>
<text text-anchor="middle" x="1780.2916" y="-119.5" font-family="Helvetica,sans-Serif" font-size="10.00" fill="#000000">fstream</text>
</g>
<!-- Node22&#45;&gt;Node28 -->
<g id="edge50" class="edge">
<title>Node22&#45;&gt;Node28</title>
<path fill="none" stroke="#191970" d="M1670.1551,-168.3733C1691.6966,-159.3032 1724.1754,-145.6279 1748.2872,-135.4755"/>
<polygon fill="#191970" stroke="#191970" points="1749.8683,-138.6075 1757.7264,-131.5011 1747.1519,-132.156 1749.8683,-138.6075"/>
</g>
<!-- Node29 -->
<g id="node30" class="node">
<title>Node29</title>
<polygon fill="none" stroke="#bfbfbf" points="1826.2916,-112.5 1826.2916,-131.5 1882.2916,-131.5 1882.2916,-112.5 1826.2916,-112.5"/>
<text text-anchor="middle" x="1854.2916" y="-119.5" font-family="Helvetica,sans-Serif" font-size="10.00" fill="#000000">sstream</text>
</g>
<!-- Node22&#45;&gt;Node29 -->
<g id="edge51" class="edge">
<title>Node22&#45;&gt;Node29</title>
<path fill="none" stroke="#191970" d="M1676.5106,-170.0953C1713.1881,-160.1729 1776.1694,-143.1345 1816.4843,-132.2281"/>
<polygon fill="#191970" stroke="#191970" points="1817.4767,-135.5855 1826.2157,-129.5954 1815.6486,-128.8284 1817.4767,-135.5855"/>
</g>
<!-- Node30 -->
<g id="node31" class="node">
<title>Node30</title>
<polygon fill="none" stroke="#bfbfbf" points="1900.2916,-112.5 1900.2916,-131.5 1948.2916,-131.5 1948.2916,-112.5 1900.2916,-112.5"/>
<text text-anchor="middle" x="1924.2916" y="-119.5" font-family="Helvetica,sans-Serif" font-size="10.00" fill="#000000">mutex</text>
</g>
<!-- Node22&#45;&gt;Node30 -->
<g id="edge54" class="edge">
<title>Node22&#45;&gt;Node30</title>
<path fill="none" stroke="#191970" d="M1676.4304,-173.551C1720.6572,-166.5734 1807.5172,-151.9914 1890.4005,-132.0185"/>
<polygon fill="#191970" stroke="#191970" points="1891.339,-135.3922 1900.2239,-129.6209 1889.6791,-128.5919 1891.339,-135.3922"/>
</g>
<!-- Node31 -->
<g id="node32" class="node">
<title>Node31</title>
<g id="a_node32"><a xlink:href="Meta_8hxx.html" target="_top" xlink:title="Meta.hxx">
<polygon fill="none" stroke="#000000" points="1542.2916,-112.5 1542.2916,-131.5 1604.2916,-131.5 1604.2916,-112.5 1542.2916,-112.5"/>
<text text-anchor="middle" x="1573.2916" y="-119.5" font-family="Helvetica,sans-Serif" font-size="10.00" fill="#000000">Meta.hxx</text>
</a>
</g>
</g>
<!-- Node22&#45;&gt;Node31 -->
<g id="edge55" class="edge">
<title>Node22&#45;&gt;Node31</title>
<path fill="none" stroke="#191970" d="M1634.4018,-168.2455C1623.3662,-159.8943 1607.2624,-147.7076 1594.3563,-137.9408"/>
<polygon fill="#191970" stroke="#191970" points="1596.1199,-134.8862 1586.0337,-131.6427 1591.8957,-140.4681 1596.1199,-134.8862"/>
</g>
<!-- Node35 -->
<g id="node36" class="node">
<title>Node35</title>
<g id="a_node36"><a xlink:href="LOG_8inl_8hxx.html" target="_top" xlink:title="LOG.inl.hxx">
<polygon fill="none" stroke="#000000" points="1966.7916,-112.5 1966.7916,-131.5 2039.7916,-131.5 2039.7916,-112.5 1966.7916,-112.5"/>
<text text-anchor="middle" x="2003.2916" y="-119.5" font-family="Helvetica,sans-Serif" font-size="10.00" fill="#000000">LOG.inl.hxx</text>
</a>
</g>
</g>
<!-- Node22&#45;&gt;Node35 -->
<g id="edge60" class="edge">
<title>Node22&#45;&gt;Node35</title>
<path fill="none" stroke="#191970" d="M1676.4608,-174.3324C1729.921,-167.4686 1847.3791,-151.7309 1956.7947,-131.9886"/>
<polygon fill="#191970" stroke="#191970" points="1957.4657,-135.4241 1966.6775,-130.1903 1956.2125,-128.5372 1957.4657,-135.4241"/>
</g>
<!-- Node24 -->
<g id="node25" class="node">
<title>Node24</title>
<polygon fill="none" stroke="#bfbfbf" points="2026.7916,-56.5 2026.7916,-75.5 2091.7916,-75.5 2091.7916,-56.5 2026.7916,-56.5"/>
<text text-anchor="middle" x="2059.2916" y="-63.5" font-family="Helvetica,sans-Serif" font-size="10.00" fill="#000000">stdexcept</text>
</g>
<!-- Node23&#45;&gt;Node24 -->
<g id="edge45" class="edge">
<title>Node23&#45;&gt;Node24</title>
<path fill="none" stroke="#191970" d="M2093.9758,-112.2455C2088.0737,-104.3761 2079.6174,-93.101 2072.5322,-83.6542"/>
<polygon fill="#191970" stroke="#191970" points="2075.3237,-81.5427 2066.5236,-75.6427 2069.7236,-85.7427 2075.3237,-81.5427"/>
</g>
<!-- Node25 -->
<g id="node26" class="node">
<title>Node25</title>
<polygon fill="none" stroke="#bfbfbf" points="2109.7916,-56.5 2109.7916,-75.5 2174.7916,-75.5 2174.7916,-56.5 2109.7916,-56.5"/>
<text text-anchor="middle" x="2142.2916" y="-63.5" font-family="Helvetica,sans-Serif" font-size="10.00" fill="#000000">exception</text>
</g>
<!-- Node23&#45;&gt;Node25 -->
<g id="edge46" class="edge">
<title>Node23&#45;&gt;Node25</title>
<path fill="none" stroke="#191970" d="M2108.4333,-112.2455C2114.136,-104.4564 2122.2816,-93.3308 2129.1541,-83.9439"/>
<polygon fill="#191970" stroke="#191970" points="2132.1484,-85.7789 2135.2318,-75.6427 2126.5003,-81.6437 2132.1484,-85.7789"/>
</g>
<!-- Node31&#45;&gt;Node9 -->
<g id="edge56" class="edge">
<title>Node31&#45;&gt;Node9</title>
<path fill="none" stroke="#191970" d="M1556.3955,-112.2455C1541.3736,-103.5731 1519.1873,-90.7645 1501.9706,-80.825"/>
<polygon fill="#191970" stroke="#191970" points="1503.4044,-77.6114 1492.9941,-75.6427 1499.9045,-83.6737 1503.4044,-77.6114"/>
</g>
<!-- Node32 -->
<g id="node33" class="node">
<title>Node32</title>
<polygon fill="none" stroke="#bfbfbf" points="1652.7916,-56.5 1652.7916,-75.5 1721.7916,-75.5 1721.7916,-56.5 1652.7916,-56.5"/>
<text text-anchor="middle" x="1687.2916" y="-63.5" font-family="Helvetica,sans-Serif" font-size="10.00" fill="#000000">type_traits</text>
</g>
<!-- Node31&#45;&gt;Node32 -->
<g id="edge57" class="edge">
<title>Node31&#45;&gt;Node32</title>
<path fill="none" stroke="#191970" d="M1592.8889,-112.3733C1611.0247,-103.4644 1638.2051,-90.1127 1658.7503,-80.0203"/>
<polygon fill="#191970" stroke="#191970" points="1660.5177,-83.0517 1667.95,-75.5011 1657.4313,-76.7688 1660.5177,-83.0517"/>
</g>
<!-- Node33 -->
<g id="node34" class="node">
<title>Node33</title>
<polygon fill="none" stroke="#bfbfbf" points="1524.7916,-56.5 1524.7916,-75.5 1575.7916,-75.5 1575.7916,-56.5 1524.7916,-56.5"/>
<text text-anchor="middle" x="1550.2916" y="-63.5" font-family="Helvetica,sans-Serif" font-size="10.00" fill="#000000">variant</text>
</g>
<!-- Node31&#45;&gt;Node33 -->
<g id="edge58" class="edge">
<title>Node31&#45;&gt;Node33</title>
<path fill="none" stroke="#191970" d="M1569.2853,-112.2455C1566.2181,-104.7776 1561.8913,-94.2427 1558.1419,-85.1137"/>
<polygon fill="#191970" stroke="#191970" points="1561.2888,-83.5631 1554.252,-75.6427 1554.8137,-86.2226 1561.2888,-83.5631"/>
</g>
<!-- Node34 -->
<g id="node35" class="node">
<title>Node34</title>
<polygon fill="none" stroke="#bfbfbf" points="1593.7916,-56.5 1593.7916,-75.5 1634.7916,-75.5 1634.7916,-56.5 1593.7916,-56.5"/>
<text text-anchor="middle" x="1614.2916" y="-63.5" font-family="Helvetica,sans-Serif" font-size="10.00" fill="#000000">tuple</text>
</g>
<!-- Node31&#45;&gt;Node34 -->
<g id="edge59" class="edge">
<title>Node31&#45;&gt;Node34</title>
<path fill="none" stroke="#191970" d="M1580.4333,-112.2455C1586.136,-104.4564 1594.2816,-93.3308 1601.1541,-83.9439"/>
<polygon fill="#191970" stroke="#191970" points="1604.1484,-85.7789 1607.2318,-75.6427 1598.5003,-81.6437 1604.1484,-85.7789"/>
</g>
<!-- Node36&#45;&gt;Node3 -->
<g id="edge64" class="edge">
<title>Node36&#45;&gt;Node3</title>
<path fill="none" stroke="#191970" d="M1274.2751,-168.3278C1247.5243,-153.5986 1193.5899,-125.8038 1144.2916,-112 1024.1582,-78.362 875.1338,-69.2966 809.2875,-66.8734"/>
<polygon fill="#191970" stroke="#191970" points="809.1961,-63.3684 799.0832,-66.5273 808.9588,-70.3643 809.1961,-63.3684"/>
</g>
<!-- Node36&#45;&gt;Node12 -->
<g id="edge63" class="edge">
<title>Node36&#45;&gt;Node12</title>
<path fill="none" stroke="#191970" d="M1297.507,-168.0881C1305.2935,-154.2702 1316.2495,-129.004 1304.2916,-112 1293.0279,-95.9831 1242.639,-81.4133 1208.5448,-73.1376"/>
<polygon fill="#191970" stroke="#191970" points="1209.0851,-69.669 1198.5483,-70.7767 1207.4761,-76.4816 1209.0851,-69.669"/>
</g>
<!-- Node36&#45;&gt;Node15 -->
<g id="edge65" class="edge">
<title>Node36&#45;&gt;Node15</title>
<path fill="none" stroke="#191970" d="M1252.5277,-169.9866C1249.0686,-169.3026 1245.6183,-168.6314 1242.2916,-168 1154.5153,-151.3393 1129.9029,-149.0449 1038.0388,-132.1077"/>
<polygon fill="#191970" stroke="#191970" points="1038.4975,-128.6332 1028.0273,-130.2532 1037.2225,-135.5161 1038.4975,-128.6332"/>
</g>
<!-- Node36&#45;&gt;Node31 -->
<g id="edge66" class="edge">
<title>Node36&#45;&gt;Node31</title>
<path fill="none" stroke="#191970" d="M1329.9112,-170.3309C1382.9115,-159.806 1477.7842,-140.966 1532.1009,-130.1797"/>
<polygon fill="#191970" stroke="#191970" points="1532.9487,-133.5798 1542.0755,-128.199 1531.5852,-126.7138 1532.9487,-133.5798"/>
</g>
<!-- Node37 -->
<g id="node38" class="node">
<title>Node37</title>
<polygon fill="none" stroke="#bfbfbf" points="1356.7916,-112.5 1356.7916,-131.5 1409.7916,-131.5 1409.7916,-112.5 1356.7916,-112.5"/>
<text text-anchor="middle" x="1383.2916" y="-119.5" font-family="Helvetica,sans-Serif" font-size="10.00" fill="#000000">cstddef</text>
</g>
<!-- Node36&#45;&gt;Node37 -->
<g id="edge67" class="edge">
<title>Node36&#45;&gt;Node37</title>
<path fill="none" stroke="#191970" d="M1307.3168,-168.2455C1321.4324,-159.6534 1342.218,-147.0014 1358.4815,-137.1018"/>
<polygon fill="#191970" stroke="#191970" points="1360.7279,-139.8319 1367.4501,-131.6427 1357.0882,-133.8525 1360.7279,-139.8319"/>
</g>
<!-- Node38&#45;&gt;Node5 -->
<g id="edge71" class="edge">
<title>Node38&#45;&gt;Node5</title>
<path fill="none" stroke="#191970" d="M997.2864,-169.2629C994.2466,-168.8103 991.2298,-168.3845 988.2916,-168 810.8657,-144.7794 759.1779,-181.7419 587.2916,-132 568.5797,-126.585 566.9245,-117.6808 548.2916,-112 490.1489,-94.2734 323.2531,-78.8218 228.3715,-71.1478"/>
<polygon fill="#191970" stroke="#191970" points="228.5431,-67.6504 218.2954,-70.3402 227.9837,-74.6281 228.5431,-67.6504"/>
</g>
<!-- Node38&#45;&gt;Node12 -->
<g id="edge69" class="edge">
<title>Node38&#45;&gt;Node12</title>
<path fill="none" stroke="#191970" d="M1064.7123,-168.4079C1080.1219,-159.9272 1102.2566,-146.6528 1119.2916,-132 1136.0514,-117.584 1152.2361,-98.1415 1163.0493,-84.0963"/>
<polygon fill="#191970" stroke="#191970" points="1166.1123,-85.8471 1169.3315,-75.7532 1160.5203,-81.6364 1166.1123,-85.8471"/>
</g>
<!-- Node38&#45;&gt;Node15 -->
<g id="edge70" class="edge">
<title>Node38&#45;&gt;Node15</title>
<path fill="none" stroke="#191970" d="M1035.8404,-168.2455C1027.0647,-160.0549 1014.3362,-148.1749 1003.9776,-138.5069"/>
<polygon fill="#191970" stroke="#191970" points="1006.3217,-135.9072 996.623,-131.6427 1001.5455,-141.0246 1006.3217,-135.9072"/>
</g>
</g>
</svg>
