<?xml version="1.0" encoding="UTF-8" standalone="no"?>
<!DOCTYPE svg PUBLIC "-//W3C//DTD SVG 1.1//EN"
 "http://www.w3.org/Graphics/SVG/1.1/DTD/svg11.dtd">
<!-- Generated by graphviz version 2.40.1 (20161225.0304)
 -->
<!-- Title: RGBAColor::saturation Pages: 1 -->
<svg width="273pt" height="104pt"
 viewBox="0.00 0.00 273.00 104.00" xmlns="http://www.w3.org/2000/svg" xmlns:xlink="http://www.w3.org/1999/xlink">
<g id="graph0" class="graph" transform="scale(1 1) rotate(0) translate(4 100)">
<title>RGBAColor::saturation</title>
<!-- Node64 -->
<g id="node1" class="node">
<title>Node64</title>
<polygon fill="#bfbfbf" stroke="#000000" points="0,-38.5 0,-57.5 125,-57.5 125,-38.5 0,-38.5"/>
<text text-anchor="middle" x="62.5" y="-45.5" font-family="Helvetica,sans-Serif" font-size="10.00" fill="#000000">RGBAColor::saturation</text>
</g>
<!-- Node65 -->
<g id="node2" class="node">
<title>Node65</title>
<g id="a_node2"><a xlink:href="structRGBAColor.html#a8a63c03d13e9427879b4f8f3ce623d69" target="_top" xlink:title="RGBAColor::red">
<polygon fill="none" stroke="#000000" points="167,-76.5 167,-95.5 259,-95.5 259,-76.5 167,-76.5"/>
<text text-anchor="middle" x="213" y="-83.5" font-family="Helvetica,sans-Serif" font-size="10.00" fill="#000000">RGBAColor::red</text>
</a>
</g>
</g>
<!-- Node64&#45;&gt;Node65 -->
<g id="edge1" class="edge">
<title>Node64&#45;&gt;Node65</title>
<path fill="none" stroke="#191970" d="M100.4775,-57.589C120.1587,-62.5583 144.3907,-68.6767 165.3206,-73.9613"/>
<polygon fill="#191970" stroke="#191970" points="164.743,-77.4253 175.2956,-76.4799 166.4567,-70.6383 164.743,-77.4253"/>
</g>
<!-- Node66 -->
<g id="node3" class="node">
<title>Node66</title>
<g id="a_node3"><a xlink:href="structRGBAColor.html#a8523bfbb8c7b8fbbdb8f2ba328079adb" target="_top" xlink:title="RGBAColor::green">
<polygon fill="none" stroke="#000000" points="161,-38.5 161,-57.5 265,-57.5 265,-38.5 161,-38.5"/>
<text text-anchor="middle" x="213" y="-45.5" font-family="Helvetica,sans-Serif" font-size="10.00" fill="#000000">RGBAColor::green</text>
</a>
</g>
</g>
<!-- Node64&#45;&gt;Node66 -->
<g id="edge2" class="edge">
<title>Node64&#45;&gt;Node66</title>
<path fill="none" stroke="#191970" d="M125.0181,-48C133.5157,-48 142.2363,-48 150.7295,-48"/>
<polygon fill="#191970" stroke="#191970" points="150.9463,-51.5001 160.9463,-48 150.9462,-44.5001 150.9463,-51.5001"/>
</g>
<!-- Node67 -->
<g id="node4" class="node">
<title>Node67</title>
<g id="a_node4"><a xlink:href="structRGBAColor.html#a959baeeec5e43348b7bd901bbc31f8f8" target="_top" xlink:title="RGBAColor::blue">
<polygon fill="none" stroke="#000000" points="164.5,-.5 164.5,-19.5 261.5,-19.5 261.5,-.5 164.5,-.5"/>
<text text-anchor="middle" x="213" y="-7.5" font-family="Helvetica,sans-Serif" font-size="10.00" fill="#000000">RGBAColor::blue</text>
</a>
</g>
</g>
<!-- Node64&#45;&gt;Node67 -->
<g id="edge3" class="edge">
<title>Node64&#45;&gt;Node67</title>
<path fill="none" stroke="#191970" d="M100.4775,-38.411C120.1587,-33.4417 144.3907,-27.3233 165.3206,-22.0387"/>
<polygon fill="#191970" stroke="#191970" points="166.4567,-25.3617 175.2956,-19.5201 164.743,-18.5747 166.4567,-25.3617"/>
</g>
</g>
</svg>
