<?xml version="1.0" encoding="UTF-8" standalone="no"?>
<!DOCTYPE svg PUBLIC "-//W3C//DTD SVG 1.1//EN"
 "http://www.w3.org/Graphics/SVG/1.1/DTD/svg11.dtd">
<!-- Generated by graphviz version 2.40.1 (20161225.0304)
 -->
<!-- Title: AudioTriggerEcho3DEvent Pages: 1 -->
<svg width="233pt" height="215pt"
 viewBox="0.00 0.00 232.50 215.00" xmlns="http://www.w3.org/2000/svg" xmlns:xlink="http://www.w3.org/1999/xlink">
<g id="graph0" class="graph" transform="scale(1 1) rotate(0) translate(4 211)">
<title>AudioTriggerEcho3DEvent</title>
<!-- Node1 -->
<g id="node1" class="node">
<title>Node1</title>
<polygon fill="#bfbfbf" stroke="#000000" points="25.5,-.5 25.5,-57.5 167.5,-57.5 167.5,-.5 25.5,-.5"/>
<text text-anchor="middle" x="96.5" y="-45.5" font-family="Helvetica,sans-Serif" font-size="10.00" fill="#000000">AudioTriggerEcho3DEvent</text>
<polyline fill="none" stroke="#000000" points="25.5,-38.5 167.5,-38.5 "/>
<text text-anchor="start" x="33.5" y="-26.5" font-family="Helvetica,sans-Serif" font-size="10.00" fill="#000000">+ trigger</text>
<polyline fill="none" stroke="#000000" points="25.5,-19.5 167.5,-19.5 "/>
<text text-anchor="middle" x="96.5" y="-7.5" font-family="Helvetica,sans-Serif" font-size="10.00" fill="#000000"> </text>
</g>
<!-- Node2 -->
<g id="node2" class="node">
<title>Node2</title>
<g id="a_node2"><a xlink:href="structCoordinate3D.html" target="_top" xlink:title="a 3&#45;dimensional coordinate ">
<polygon fill="none" stroke="#000000" points="0,-116.5 0,-195.5 83,-195.5 83,-116.5 0,-116.5"/>
<text text-anchor="middle" x="41.5" y="-183.5" font-family="Helvetica,sans-Serif" font-size="10.00" fill="#000000">Coordinate3D</text>
<polyline fill="none" stroke="#000000" points="0,-176.5 83,-176.5 "/>
<text text-anchor="start" x="8" y="-164.5" font-family="Helvetica,sans-Serif" font-size="10.00" fill="#000000">+ x</text>
<text text-anchor="start" x="8" y="-153.5" font-family="Helvetica,sans-Serif" font-size="10.00" fill="#000000">+ y</text>
<text text-anchor="start" x="8" y="-142.5" font-family="Helvetica,sans-Serif" font-size="10.00" fill="#000000">+ z</text>
<polyline fill="none" stroke="#000000" points="0,-135.5 83,-135.5 "/>
<text text-anchor="middle" x="41.5" y="-123.5" font-family="Helvetica,sans-Serif" font-size="10.00" fill="#000000"> </text>
</a>
</g>
</g>
<!-- Node2&#45;&gt;Node1 -->
<g id="edge1" class="edge">
<title>Node2&#45;&gt;Node1</title>
<path fill="none" stroke="#404040" d="M58.7514,-116.1649C65.2785,-101.0932 72.7045,-83.946 79.233,-68.8711"/>
<polygon fill="none" stroke="#404040" points="79.2518,-68.8275 77.9657,-61.732 84.0207,-57.8158 85.3068,-64.9113 79.2518,-68.8275"/>
<text text-anchor="middle" x="102" y="-79" font-family="Helvetica,sans-Serif" font-size="10.00" fill="#000000"> +position</text>
</g>
<!-- Node3 -->
<g id="node3" class="node">
<title>Node3</title>
<g id="a_node3"><a xlink:href="structEchoProperties.html" target="_top" xlink:title="an echo effect ">
<polygon fill="none" stroke="#000000" points="101,-105.5 101,-206.5 204,-206.5 204,-105.5 101,-105.5"/>
<text text-anchor="middle" x="152.5" y="-194.5" font-family="Helvetica,sans-Serif" font-size="10.00" fill="#000000">EchoProperties</text>
<polyline fill="none" stroke="#000000" points="101,-187.5 204,-187.5 "/>
<text text-anchor="start" x="109" y="-175.5" font-family="Helvetica,sans-Serif" font-size="10.00" fill="#000000">+ flEchoDelay</text>
<text text-anchor="start" x="109" y="-164.5" font-family="Helvetica,sans-Serif" font-size="10.00" fill="#000000">+ flEchoLRDelay</text>
<text text-anchor="start" x="109" y="-153.5" font-family="Helvetica,sans-Serif" font-size="10.00" fill="#000000">+ flEchoDamping</text>
<text text-anchor="start" x="109" y="-142.5" font-family="Helvetica,sans-Serif" font-size="10.00" fill="#000000">+ flEchoFeedback</text>
<text text-anchor="start" x="109" y="-131.5" font-family="Helvetica,sans-Serif" font-size="10.00" fill="#000000">+ flEchoSpread</text>
<polyline fill="none" stroke="#000000" points="101,-124.5 204,-124.5 "/>
<text text-anchor="middle" x="152.5" y="-112.5" font-family="Helvetica,sans-Serif" font-size="10.00" fill="#000000"> </text>
</a>
</g>
</g>
<!-- Node3&#45;&gt;Node1 -->
<g id="edge2" class="edge">
<title>Node3&#45;&gt;Node1</title>
<path fill="none" stroke="#404040" d="M141.5687,-105.4938C138.5859,-95.4807 134.9237,-85.221 130.5,-76 129.185,-73.2589 127.7073,-70.5108 126.1237,-67.7954"/>
<polygon fill="none" stroke="#404040" points="126.0564,-67.6897 119.4594,-64.7778 119.61,-57.5682 126.2071,-60.4802 126.0564,-67.6897"/>
<text text-anchor="middle" x="179.5" y="-79" font-family="Helvetica,sans-Serif" font-size="10.00" fill="#000000"> +echo_properties</text>
</g>
</g>
</svg>
