<?xml version="1.0" encoding="UTF-8" standalone="no"?>
<!DOCTYPE svg PUBLIC "-//W3C//DTD SVG 1.1//EN"
 "http://www.w3.org/Graphics/SVG/1.1/DTD/svg11.dtd">
<!-- Generated by graphviz version 2.40.1 (20161225.0304)
 -->
<!-- Title: AudioTriggerReverb3DEvent Pages: 1 -->
<svg width="252pt" height="292pt"
 viewBox="0.00 0.00 252.00 292.00" xmlns="http://www.w3.org/2000/svg" xmlns:xlink="http://www.w3.org/1999/xlink">
<g id="graph0" class="graph" transform="scale(1 1) rotate(0) translate(4 288)">
<title>AudioTriggerReverb3DEvent</title>
<!-- Node1 -->
<g id="node1" class="node">
<title>Node1</title>
<polygon fill="#bfbfbf" stroke="#000000" points="60.5,-.5 60.5,-57.5 212.5,-57.5 212.5,-.5 60.5,-.5"/>
<text text-anchor="middle" x="136.5" y="-45.5" font-family="Helvetica,sans-Serif" font-size="10.00" fill="#000000">AudioTriggerReverb3DEvent</text>
<polyline fill="none" stroke="#000000" points="60.5,-38.5 212.5,-38.5 "/>
<text text-anchor="start" x="68.5" y="-26.5" font-family="Helvetica,sans-Serif" font-size="10.00" fill="#000000">+ trigger</text>
<polyline fill="none" stroke="#000000" points="60.5,-19.5 212.5,-19.5 "/>
<text text-anchor="middle" x="136.5" y="-7.5" font-family="Helvetica,sans-Serif" font-size="10.00" fill="#000000"> </text>
</g>
<!-- Node2 -->
<g id="node2" class="node">
<title>Node2</title>
<g id="a_node2"><a xlink:href="structStandardReverbProperties.html" target="_top" xlink:title="a standard reverb effect ">
<polygon fill="none" stroke="#000000" points="0,-105.5 0,-283.5 143,-283.5 143,-105.5 0,-105.5"/>
<text text-anchor="middle" x="71.5" y="-271.5" font-family="Helvetica,sans-Serif" font-size="10.00" fill="#000000">StandardReverbProperties</text>
<polyline fill="none" stroke="#000000" points="0,-264.5 143,-264.5 "/>
<text text-anchor="start" x="8" y="-252.5" font-family="Helvetica,sans-Serif" font-size="10.00" fill="#000000">+ flDensity</text>
<text text-anchor="start" x="8" y="-241.5" font-family="Helvetica,sans-Serif" font-size="10.00" fill="#000000">+ flDiffusion</text>
<text text-anchor="start" x="8" y="-230.5" font-family="Helvetica,sans-Serif" font-size="10.00" fill="#000000">+ flGain</text>
<text text-anchor="start" x="8" y="-219.5" font-family="Helvetica,sans-Serif" font-size="10.00" fill="#000000">+ flGainHF</text>
<text text-anchor="start" x="8" y="-208.5" font-family="Helvetica,sans-Serif" font-size="10.00" fill="#000000">+ flDecayTime</text>
<text text-anchor="start" x="8" y="-197.5" font-family="Helvetica,sans-Serif" font-size="10.00" fill="#000000">+ flDecayHFRatio</text>
<text text-anchor="start" x="8" y="-186.5" font-family="Helvetica,sans-Serif" font-size="10.00" fill="#000000">+ flReflectionsGain</text>
<text text-anchor="start" x="8" y="-175.5" font-family="Helvetica,sans-Serif" font-size="10.00" fill="#000000">+ flReflectionsDelay</text>
<text text-anchor="start" x="8" y="-164.5" font-family="Helvetica,sans-Serif" font-size="10.00" fill="#000000">+ flLateReverbGain</text>
<text text-anchor="start" x="8" y="-153.5" font-family="Helvetica,sans-Serif" font-size="10.00" fill="#000000">+ flLateReverbDelay</text>
<text text-anchor="start" x="8" y="-142.5" font-family="Helvetica,sans-Serif" font-size="10.00" fill="#000000">+ flAirAbsorptionGainHF</text>
<text text-anchor="start" x="8" y="-131.5" font-family="Helvetica,sans-Serif" font-size="10.00" fill="#000000">+ flRoomRolloffFactor</text>
<polyline fill="none" stroke="#000000" points="0,-124.5 143,-124.5 "/>
<text text-anchor="middle" x="71.5" y="-112.5" font-family="Helvetica,sans-Serif" font-size="10.00" fill="#000000"> </text>
</a>
</g>
</g>
<!-- Node2&#45;&gt;Node1 -->
<g id="edge1" class="edge">
<title>Node2&#45;&gt;Node1</title>
<path fill="none" stroke="#404040" d="M72.3202,-105.3448C74.5637,-95.1142 77.8356,-85.1018 82.5,-76 84.1208,-72.8373 86.0532,-69.7948 88.2074,-66.885"/>
<polygon fill="none" stroke="#404040" points="88.4334,-66.6221 89.311,-59.4645 96.2555,-57.5218 95.3779,-64.6793 88.4334,-66.6221"/>
<text text-anchor="middle" x="131.5" y="-79" font-family="Helvetica,sans-Serif" font-size="10.00" fill="#000000"> +reverb_properties</text>
</g>
<!-- Node3 -->
<g id="node3" class="node">
<title>Node3</title>
<g id="a_node3"><a xlink:href="structCoordinate3D.html" target="_top" xlink:title="a 3&#45;dimensional coordinate ">
<polygon fill="none" stroke="#000000" points="161,-155 161,-234 244,-234 244,-155 161,-155"/>
<text text-anchor="middle" x="202.5" y="-222" font-family="Helvetica,sans-Serif" font-size="10.00" fill="#000000">Coordinate3D</text>
<polyline fill="none" stroke="#000000" points="161,-215 244,-215 "/>
<text text-anchor="start" x="169" y="-203" font-family="Helvetica,sans-Serif" font-size="10.00" fill="#000000">+ x</text>
<text text-anchor="start" x="169" y="-192" font-family="Helvetica,sans-Serif" font-size="10.00" fill="#000000">+ y</text>
<text text-anchor="start" x="169" y="-181" font-family="Helvetica,sans-Serif" font-size="10.00" fill="#000000">+ z</text>
<polyline fill="none" stroke="#000000" points="161,-174 244,-174 "/>
<text text-anchor="middle" x="202.5" y="-162" font-family="Helvetica,sans-Serif" font-size="10.00" fill="#000000"> </text>
</a>
</g>
</g>
<!-- Node3&#45;&gt;Node1 -->
<g id="edge2" class="edge">
<title>Node3&#45;&gt;Node1</title>
<path fill="none" stroke="#404040" d="M200.731,-154.8303C198.3363,-130.9201 192.8653,-100.4636 180.5,-76 179.0149,-73.0619 177.2891,-70.1778 175.3977,-67.374"/>
<polygon fill="none" stroke="#404040" points="175.2356,-67.1614 168.4162,-64.817 167.9575,-57.6205 174.7768,-59.9649 175.2356,-67.1614"/>
<text text-anchor="middle" x="210" y="-79" font-family="Helvetica,sans-Serif" font-size="10.00" fill="#000000"> +position</text>
</g>
</g>
</svg>
