<?xml version="1.0" encoding="UTF-8" standalone="no"?>
<!DOCTYPE svg PUBLIC "-//W3C//DTD SVG 1.1//EN"
 "http://www.w3.org/Graphics/SVG/1.1/DTD/svg11.dtd">
<!-- Generated by graphviz version 2.40.1 (20161225.0304)
 -->
<!-- Title: DataModel&lt; DataList &gt; Pages: 1 -->
<!--zoomable 1039 -->
<svg id="main" version="1.1" xmlns="http://www.w3.org/2000/svg" xmlns:xlink="http://www.w3.org/1999/xlink" xml:space="preserve" onload="init(evt)">
<style type="text/css"><![CDATA[
.edge:hover path { stroke: red; }
.edge:hover polygon { stroke: red; fill: red; }
]]></style>
<script type="text/javascript"><![CDATA[
var edges = document.getElementsByTagName('g');
if (edges && edges.length) {
  for (var i=0;i<edges.length;i++) {
    if (edges[i].id.substr(0,4)=='edge') {
      edges[i].setAttribute('class','edge');
    }
  }
}
]]></script>
        <defs>
                <circle id="rim" cx="0" cy="0" r="7"/>
                <circle id="rim2" cx="0" cy="0" r="3.5"/>
                <g id="zoomPlus">
                        <use xlink:href="#rim" fill="#404040">
                                <set attributeName="fill" to="#808080" begin="zoomplus.mouseover" end="zoomplus.mouseout"/>
                        </use>
                        <path d="M-4,0h8M0,-4v8" fill="none" stroke="white" stroke-width="1.5" pointer-events="none"/>
                </g>
                <g id="zoomMin">
                        <use xlink:href="#rim" fill="#404040">
                                <set attributeName="fill" to="#808080" begin="zoomminus.mouseover" end="zoomminus.mouseout"/>
                        </use>
                        <path d="M-4,0h8" fill="none" stroke="white" stroke-width="1.5" pointer-events="none"/>
                </g>
                <g id="dirArrow">
                        <path fill="none" stroke="white" stroke-width="1.5" d="M0,-3.0v7 M-2.5,-0.5L0,-3.0L2.5,-0.5"/>
                </g>
               <g id="resetDef">
                       <use xlink:href="#rim2" fill="#404040">
                               <set attributeName="fill" to="#808080" begin="reset.mouseover" end="reset.mouseout"/>
                       </use>
               </g>
        </defs>

<script type="text/javascript">
var viewWidth = 501;
var viewHeight = 1039;
var sectionId = 'dynsection-1';
</script>
<script xlink:href="svgpan.js"/>
<svg id="graph" class="graph">
<g id="viewport">
<title>DataModel&lt; DataList &gt;</title>
<!-- Node11 -->
<g id="node1" class="node">
<title>Node11</title>
<polygon fill="#bfbfbf" stroke="#000000" points="85.5,-.5 85.5,-57.5 217.5,-57.5 217.5,-.5 85.5,-.5"/>
<text text-anchor="middle" x="151.5" y="-45.5" font-family="Helvetica,sans-Serif" font-size="10.00" fill="#000000">DataModel&lt; DataList &gt;</text>
<polyline fill="none" stroke="#000000" points="85.5,-38.5 217.5,-38.5 "/>
<text text-anchor="middle" x="151.5" y="-26.5" font-family="Helvetica,sans-Serif" font-size="10.00" fill="#000000"> </text>
<polyline fill="none" stroke="#000000" points="85.5,-19.5 217.5,-19.5 "/>
<text text-anchor="start" x="93.5" y="-7.5" font-family="Helvetica,sans-Serif" font-size="10.00" fill="#000000">+ DataModel()</text>
</g>
<!-- Node12 -->
<g id="node2" class="node">
<title>Node12</title>
<g id="a_node2"><a xlink:href="classiModel.html" target="_top" xlink:title="{iModel\n||+ ~iModel()\l}">
<polygon fill="none" stroke="#000000" points="101.5,-128.5 101.5,-185.5 177.5,-185.5 177.5,-128.5 101.5,-128.5"/>
<text text-anchor="middle" x="139.5" y="-173.5" font-family="Helvetica,sans-Serif" font-size="10.00" fill="#000000">iModel</text>
<polyline fill="none" stroke="#000000" points="101.5,-166.5 177.5,-166.5 "/>
<text text-anchor="middle" x="139.5" y="-154.5" font-family="Helvetica,sans-Serif" font-size="10.00" fill="#000000"> </text>
<polyline fill="none" stroke="#000000" points="101.5,-147.5 177.5,-147.5 "/>
<text text-anchor="start" x="109.5" y="-135.5" font-family="Helvetica,sans-Serif" font-size="10.00" fill="#000000">+ ~iModel()</text>
</a>
</g>
</g>
<!-- Node12&#45;&gt;Node11 -->
<g id="edge1" class="edge">
<title>Node12&#45;&gt;Node11</title>
<path fill="none" stroke="#191970" d="M143.1398,-118.1754C144.9674,-98.6812 147.1425,-75.4798 148.816,-57.6298"/>
<polygon fill="none" stroke="#191970" points="139.6418,-117.9912 142.193,-128.2743 146.6113,-118.6447 139.6418,-117.9912"/>
</g>
<!-- Node13 -->
<g id="node3" class="node">
<title>Node13</title>
<g id="a_node3"><a xlink:href="classSubject.html" target="_top" xlink:title="{Subject\&lt; VariantType\l\&lt; DataList \&gt;, UIMQDispatcher\l\&lt; VariantType\&lt; DataList \&gt; \&gt; \&gt;\n|&#45; m_Observers\l|+ addObserver()\l# Subject()\l# notifyObservers()\l# ~Subject()\l# mustNotify()\l}">
<polygon fill="none" stroke="#000000" points="195.5,-95.5 195.5,-218.5 365.5,-218.5 365.5,-95.5 195.5,-95.5"/>
<text text-anchor="start" x="203.5" y="-206.5" font-family="Helvetica,sans-Serif" font-size="10.00" fill="#000000">Subject&lt; VariantType</text>
<text text-anchor="start" x="203.5" y="-195.5" font-family="Helvetica,sans-Serif" font-size="10.00" fill="#000000">&lt; DataList &gt;, UIMQDispatcher</text>
<text text-anchor="middle" x="280.5" y="-184.5" font-family="Helvetica,sans-Serif" font-size="10.00" fill="#000000">&lt; VariantType&lt; DataList &gt; &gt; &gt;</text>
<polyline fill="none" stroke="#000000" points="195.5,-177.5 365.5,-177.5 "/>
<text text-anchor="start" x="203.5" y="-165.5" font-family="Helvetica,sans-Serif" font-size="10.00" fill="#000000">&#45; m_Observers</text>
<polyline fill="none" stroke="#000000" points="195.5,-158.5 365.5,-158.5 "/>
<text text-anchor="start" x="203.5" y="-146.5" font-family="Helvetica,sans-Serif" font-size="10.00" fill="#000000">+ addObserver()</text>
<text text-anchor="start" x="203.5" y="-135.5" font-family="Helvetica,sans-Serif" font-size="10.00" fill="#000000"># Subject()</text>
<text text-anchor="start" x="203.5" y="-124.5" font-family="Helvetica,sans-Serif" font-size="10.00" fill="#000000"># notifyObservers()</text>
<text text-anchor="start" x="203.5" y="-113.5" font-family="Helvetica,sans-Serif" font-size="10.00" fill="#000000"># ~Subject()</text>
<text text-anchor="start" x="203.5" y="-102.5" font-family="Helvetica,sans-Serif" font-size="10.00" fill="#000000"># mustNotify()</text>
</a>
</g>
</g>
<!-- Node13&#45;&gt;Node11 -->
<g id="edge2" class="edge">
<title>Node13&#45;&gt;Node11</title>
<path fill="none" stroke="#191970" d="M211.1132,-88.151C200.2475,-77.3696 189.5678,-66.7727 180.3171,-57.5937"/>
<polygon fill="none" stroke="#191970" points="208.7034,-90.6906 218.2672,-95.2496 213.6338,-85.7216 208.7034,-90.6906"/>
</g>
<!-- Node14 -->
<g id="node4" class="node">
<title>Node14</title>
<g id="a_node4"><a xlink:href="structUIMQDispatcher.html" target="_top" xlink:title="{UIMQDispatcher\&lt; VariantType\l\&lt; DataList \&gt; \&gt;\n||+ dispatch()\l}">
<polygon fill="none" stroke="#000000" points="85.5,-305 85.5,-373 249.5,-373 249.5,-305 85.5,-305"/>
<text text-anchor="start" x="93.5" y="-361" font-family="Helvetica,sans-Serif" font-size="10.00" fill="#000000">UIMQDispatcher&lt; VariantType</text>
<text text-anchor="middle" x="167.5" y="-350" font-family="Helvetica,sans-Serif" font-size="10.00" fill="#000000">&lt; DataList &gt; &gt;</text>
<polyline fill="none" stroke="#000000" points="85.5,-343 249.5,-343 "/>
<text text-anchor="middle" x="167.5" y="-331" font-family="Helvetica,sans-Serif" font-size="10.00" fill="#000000"> </text>
<polyline fill="none" stroke="#000000" points="85.5,-324 249.5,-324 "/>
<text text-anchor="start" x="93.5" y="-312" font-family="Helvetica,sans-Serif" font-size="10.00" fill="#000000">+ dispatch()</text>
</a>
</g>
</g>
<!-- Node14&#45;&gt;Node13 -->
<g id="edge3" class="edge">
<title>Node14&#45;&gt;Node13</title>
<path fill="none" stroke="#8b1a1a" d="M194.0614,-296.2197C208.4019,-273.1226 226.3607,-244.1978 242.1879,-218.7062"/>
<polygon fill="none" stroke="#8b1a1a" points="191.0558,-294.4253 188.7544,-304.7672 197.0028,-298.1177 191.0558,-294.4253"/>
</g>
<!-- Node15 -->
<g id="node5" class="node">
<title>Node15</title>
<g id="a_node5"><a xlink:href="classUILoopMQ.html" target="_top" xlink:title="UI Actor&#39;s message queue. ">
<polygon fill="none" stroke="#000000" points="46.5,-542.5 46.5,-599.5 112.5,-599.5 112.5,-542.5 46.5,-542.5"/>
<text text-anchor="middle" x="79.5" y="-587.5" font-family="Helvetica,sans-Serif" font-size="10.00" fill="#000000">UILoopMQ</text>
<polyline fill="none" stroke="#000000" points="46.5,-580.5 112.5,-580.5 "/>
<text text-anchor="middle" x="79.5" y="-568.5" font-family="Helvetica,sans-Serif" font-size="10.00" fill="#000000"> </text>
<polyline fill="none" stroke="#000000" points="46.5,-561.5 112.5,-561.5 "/>
<text text-anchor="middle" x="79.5" y="-549.5" font-family="Helvetica,sans-Serif" font-size="10.00" fill="#000000"> </text>
</a>
</g>
</g>
<!-- Node15&#45;&gt;Node14 -->
<g id="edge4" class="edge">
<title>Node15&#45;&gt;Node14</title>
<path fill="none" stroke="#404040" d="M71.194,-542.386C64.6225,-514.4342 58.6355,-471.2217 72.5,-437 81.0208,-415.968 96.4609,-396.9575 112.451,-381.3992"/>
<polygon fill="none" stroke="#404040" points="112.5646,-381.2936 114.233,-374.2781 121.3505,-373.12 119.6821,-380.1354 112.5646,-381.2936"/>
<text text-anchor="middle" x="89" y="-463.5" font-family="Helvetica,sans-Serif" font-size="10.00" fill="#000000"> +loop</text>
</g>
<!-- Node18 -->
<g id="node8" class="node">
<title>Node18</title>
<g id="a_node8"><a xlink:href="structUIMQDispatcher.html" target="_top" xlink:title="An asynchronous dispatch to Observers based on a UIMessageQueue processed on another thread...">
<polygon fill="none" stroke="#000000" points="115,-437.5 115,-494.5 278,-494.5 278,-437.5 115,-437.5"/>
<text text-anchor="middle" x="196.5" y="-482.5" font-family="Helvetica,sans-Serif" font-size="10.00" fill="#000000">UIMQDispatcher&lt; DataArgs &gt;</text>
<polyline fill="none" stroke="#000000" points="115,-475.5 278,-475.5 "/>
<text text-anchor="middle" x="196.5" y="-463.5" font-family="Helvetica,sans-Serif" font-size="10.00" fill="#000000"> </text>
<polyline fill="none" stroke="#000000" points="115,-456.5 278,-456.5 "/>
<text text-anchor="start" x="123" y="-444.5" font-family="Helvetica,sans-Serif" font-size="10.00" fill="#000000">+ dispatch()</text>
</a>
</g>
</g>
<!-- Node15&#45;&gt;Node18 -->
<g id="edge8" class="edge">
<title>Node15&#45;&gt;Node18</title>
<path fill="none" stroke="#404040" d="M111.4708,-542.3083C125.0132,-530.1548 140.962,-515.8418 155.3662,-502.915"/>
<polygon fill="none" stroke="#404040" points="155.637,-502.672 157.4308,-495.6875 164.5679,-494.657 162.7741,-501.6415 155.637,-502.672"/>
<text text-anchor="middle" x="159" y="-516" font-family="Helvetica,sans-Serif" font-size="10.00" fill="#000000"> +loop</text>
</g>
<!-- Node16 -->
<g id="node6" class="node">
<title>Node16</title>
<g id="a_node6"><a xlink:href="classMessageQueue.html" target="_top" xlink:title="{MessageQueue\&lt; VariantType\l\&lt; UIEvents \&gt; \&gt;\n|&#45; m_OnEvent\l&#45; m_Semaphore\l&#45; m_Queue\l|+ push()\l+ peek()\l+ getEnumerable()\l+ MessageQueue()\l+ MessageQueue()\l+ MessageQueue()\l+ operator=()\l+ operator=()\l&#45; wakeCondition()\l}">
<polygon fill="none" stroke="#000000" points="0,-637.5 0,-815.5 159,-815.5 159,-637.5 0,-637.5"/>
<text text-anchor="start" x="8" y="-803.5" font-family="Helvetica,sans-Serif" font-size="10.00" fill="#000000">MessageQueue&lt; VariantType</text>
<text text-anchor="middle" x="79.5" y="-792.5" font-family="Helvetica,sans-Serif" font-size="10.00" fill="#000000">&lt; UIEvents &gt; &gt;</text>
<polyline fill="none" stroke="#000000" points="0,-785.5 159,-785.5 "/>
<text text-anchor="start" x="8" y="-773.5" font-family="Helvetica,sans-Serif" font-size="10.00" fill="#000000">&#45; m_OnEvent</text>
<text text-anchor="start" x="8" y="-762.5" font-family="Helvetica,sans-Serif" font-size="10.00" fill="#000000">&#45; m_Semaphore</text>
<text text-anchor="start" x="8" y="-751.5" font-family="Helvetica,sans-Serif" font-size="10.00" fill="#000000">&#45; m_Queue</text>
<polyline fill="none" stroke="#000000" points="0,-744.5 159,-744.5 "/>
<text text-anchor="start" x="8" y="-732.5" font-family="Helvetica,sans-Serif" font-size="10.00" fill="#000000">+ push()</text>
<text text-anchor="start" x="8" y="-721.5" font-family="Helvetica,sans-Serif" font-size="10.00" fill="#000000">+ peek()</text>
<text text-anchor="start" x="8" y="-710.5" font-family="Helvetica,sans-Serif" font-size="10.00" fill="#000000">+ getEnumerable()</text>
<text text-anchor="start" x="8" y="-699.5" font-family="Helvetica,sans-Serif" font-size="10.00" fill="#000000">+ MessageQueue()</text>
<text text-anchor="start" x="8" y="-688.5" font-family="Helvetica,sans-Serif" font-size="10.00" fill="#000000">+ MessageQueue()</text>
<text text-anchor="start" x="8" y="-677.5" font-family="Helvetica,sans-Serif" font-size="10.00" fill="#000000">+ MessageQueue()</text>
<text text-anchor="start" x="8" y="-666.5" font-family="Helvetica,sans-Serif" font-size="10.00" fill="#000000">+ operator=()</text>
<text text-anchor="start" x="8" y="-655.5" font-family="Helvetica,sans-Serif" font-size="10.00" fill="#000000">+ operator=()</text>
<text text-anchor="start" x="8" y="-644.5" font-family="Helvetica,sans-Serif" font-size="10.00" fill="#000000">&#45; wakeCondition()</text>
</a>
</g>
</g>
<!-- Node16&#45;&gt;Node15 -->
<g id="edge5" class="edge">
<title>Node16&#45;&gt;Node15</title>
<path fill="none" stroke="#191970" d="M79.5,-627.3332C79.5,-617.4109 79.5,-607.9934 79.5,-599.7987"/>
<polygon fill="none" stroke="#191970" points="76.0001,-627.397 79.5,-637.397 83.0001,-627.3971 76.0001,-627.397"/>
</g>
<!-- Node17 -->
<g id="node7" class="node">
<title>Node17</title>
<g id="a_node7"><a xlink:href="classMessageQueue.html" target="_top" xlink:title="{MessageQueue\&lt; Event \&gt;\n|&#45; m_OnEvent\l&#45; m_Semaphore\l&#45; m_Queue\l|+ push()\l+ peek()\l+ getEnumerable()\l+ MessageQueue()\l+ operator=()\l+ MessageQueue()\l+ MessageQueue()\l+ operator=()\l&#45; wakeCondition()\l}">
<polygon fill="none" stroke="#000000" points="9,-863.5 9,-1030.5 150,-1030.5 150,-863.5 9,-863.5"/>
<text text-anchor="middle" x="79.5" y="-1018.5" font-family="Helvetica,sans-Serif" font-size="10.00" fill="#000000">MessageQueue&lt; Event &gt;</text>
<polyline fill="none" stroke="#000000" points="9,-1011.5 150,-1011.5 "/>
<text text-anchor="start" x="17" y="-999.5" font-family="Helvetica,sans-Serif" font-size="10.00" fill="#000000">&#45; m_OnEvent</text>
<text text-anchor="start" x="17" y="-988.5" font-family="Helvetica,sans-Serif" font-size="10.00" fill="#000000">&#45; m_Semaphore</text>
<text text-anchor="start" x="17" y="-977.5" font-family="Helvetica,sans-Serif" font-size="10.00" fill="#000000">&#45; m_Queue</text>
<polyline fill="none" stroke="#000000" points="9,-970.5 150,-970.5 "/>
<text text-anchor="start" x="17" y="-958.5" font-family="Helvetica,sans-Serif" font-size="10.00" fill="#000000">+ push()</text>
<text text-anchor="start" x="17" y="-947.5" font-family="Helvetica,sans-Serif" font-size="10.00" fill="#000000">+ peek()</text>
<text text-anchor="start" x="17" y="-936.5" font-family="Helvetica,sans-Serif" font-size="10.00" fill="#000000">+ getEnumerable()</text>
<text text-anchor="start" x="17" y="-925.5" font-family="Helvetica,sans-Serif" font-size="10.00" fill="#000000">+ MessageQueue()</text>
<text text-anchor="start" x="17" y="-914.5" font-family="Helvetica,sans-Serif" font-size="10.00" fill="#000000">+ operator=()</text>
<text text-anchor="start" x="17" y="-903.5" font-family="Helvetica,sans-Serif" font-size="10.00" fill="#000000">+ MessageQueue()</text>
<text text-anchor="start" x="17" y="-892.5" font-family="Helvetica,sans-Serif" font-size="10.00" fill="#000000">+ MessageQueue()</text>
<text text-anchor="start" x="17" y="-881.5" font-family="Helvetica,sans-Serif" font-size="10.00" fill="#000000">+ operator=()</text>
<text text-anchor="start" x="17" y="-870.5" font-family="Helvetica,sans-Serif" font-size="10.00" fill="#000000">&#45; wakeCondition()</text>
</a>
</g>
</g>
<!-- Node17&#45;&gt;Node16 -->
<g id="edge6" class="edge">
<title>Node17&#45;&gt;Node16</title>
<path fill="none" stroke="#ffa500" d="M79.5,-852.996C79.5,-840.6056 79.5,-827.9353 79.5,-815.6296"/>
<polygon fill="#ffa500" stroke="#ffa500" points="76.0001,-853.324 79.5,-863.324 83.0001,-853.324 76.0001,-853.324"/>
<text text-anchor="middle" x="154" y="-837" font-family="Helvetica,sans-Serif" font-size="10.00" fill="#000000"> &lt; VariantType&lt; UIEvents &gt; &gt;</text>
</g>
<!-- Node18&#45;&gt;Node14 -->
<g id="edge7" class="edge">
<title>Node18&#45;&gt;Node14</title>
<path fill="none" stroke="#ffa500" d="M187.7537,-427.6974C183.7998,-410.3819 179.1646,-390.0827 175.3269,-373.2765"/>
<polygon fill="#ffa500" stroke="#ffa500" points="184.3534,-428.5288 189.9918,-437.4987 191.1778,-426.9705 184.3534,-428.5288"/>
<text text-anchor="middle" x="258.5" y="-411" font-family="Helvetica,sans-Serif" font-size="10.00" fill="#000000"> &lt; VariantType&lt; DataList &gt; &gt;</text>
</g>
<!-- Node19 -->
<g id="node9" class="node">
<title>Node19</title>
<g id="a_node9"><a xlink:href="classSubject.html" target="_top" xlink:title="Allows to notify Observers about events. ">
<polygon fill="none" stroke="#000000" points="267.5,-288.5 267.5,-389.5 443.5,-389.5 443.5,-288.5 267.5,-288.5"/>
<text text-anchor="middle" x="355.5" y="-377.5" font-family="Helvetica,sans-Serif" font-size="10.00" fill="#000000">Subject&lt; Data, DispatchPolicy &gt;</text>
<polyline fill="none" stroke="#000000" points="267.5,-370.5 443.5,-370.5 "/>
<text text-anchor="start" x="275.5" y="-358.5" font-family="Helvetica,sans-Serif" font-size="10.00" fill="#000000">&#45; m_Observers</text>
<polyline fill="none" stroke="#000000" points="267.5,-351.5 443.5,-351.5 "/>
<text text-anchor="start" x="275.5" y="-339.5" font-family="Helvetica,sans-Serif" font-size="10.00" fill="#000000">+ addObserver()</text>
<text text-anchor="start" x="275.5" y="-328.5" font-family="Helvetica,sans-Serif" font-size="10.00" fill="#000000"># Subject()</text>
<text text-anchor="start" x="275.5" y="-317.5" font-family="Helvetica,sans-Serif" font-size="10.00" fill="#000000"># notifyObservers()</text>
<text text-anchor="start" x="275.5" y="-306.5" font-family="Helvetica,sans-Serif" font-size="10.00" fill="#000000"># ~Subject()</text>
<text text-anchor="start" x="275.5" y="-295.5" font-family="Helvetica,sans-Serif" font-size="10.00" fill="#000000"># mustNotify()</text>
</a>
</g>
</g>
<!-- Node19&#45;&gt;Node13 -->
<g id="edge9" class="edge">
<title>Node19&#45;&gt;Node13</title>
<path fill="none" stroke="#ffa500" d="M330.7747,-279C322.8074,-259.666 313.9664,-238.2118 305.948,-218.7538"/>
<polygon fill="#ffa500" stroke="#ffa500" points="327.5622,-280.3907 334.6083,-288.3029 334.0342,-277.7236 327.5622,-280.3907"/>
<text text-anchor="start" x="327.5" y="-262" font-family="Helvetica,sans-Serif" font-size="10.00" fill="#000000"> &lt; VariantType&lt; DataList</text>
<text text-anchor="start" x="327.5" y="-251" font-family="Helvetica,sans-Serif" font-size="10.00" fill="#000000"> &gt;, UIMQDispatcher&lt; VariantType</text>
<text text-anchor="middle" x="410" y="-240" font-family="Helvetica,sans-Serif" font-size="10.00" fill="#000000">&lt; DataList &gt; &gt; &gt;</text>
</g>
<!-- Node20 -->
<g id="node10" class="node">
<title>Node20</title>
<polygon fill="none" stroke="#bfbfbf" points="311,-437.5 311,-494.5 400,-494.5 400,-437.5 311,-437.5"/>
<text text-anchor="middle" x="355.5" y="-482.5" font-family="Helvetica,sans-Serif" font-size="10.00" fill="#000000">DispatchPolicy</text>
<polyline fill="none" stroke="#bfbfbf" points="311,-475.5 400,-475.5 "/>
<text text-anchor="middle" x="355.5" y="-463.5" font-family="Helvetica,sans-Serif" font-size="10.00" fill="#000000"> </text>
<polyline fill="none" stroke="#bfbfbf" points="311,-456.5 400,-456.5 "/>
<text text-anchor="middle" x="355.5" y="-444.5" font-family="Helvetica,sans-Serif" font-size="10.00" fill="#000000"> </text>
</g>
<!-- Node20&#45;&gt;Node19 -->
<g id="edge10" class="edge">
<title>Node20&#45;&gt;Node19</title>
<path fill="none" stroke="#8b1a1a" d="M355.5,-427.4413C355.5,-415.5288 355.5,-402.224 355.5,-389.625"/>
<polygon fill="none" stroke="#8b1a1a" points="352.0001,-427.4987 355.5,-437.4987 359.0001,-427.4988 352.0001,-427.4987"/>
</g>
</g>
</svg>
        <g id="navigator" transform="translate(0 0)" fill="#404254">
                <rect fill="#f2f5e9" fill-opacity="0.5" stroke="#606060" stroke-width=".5" x="0" y="0" width="60" height="60"/>
                <use id="zoomplus" xlink:href="#zoomPlus" x="17" y="9" onmousedown="handleZoom(evt,'in')"/>
                <use id="zoomminus" xlink:href="#zoomMin" x="42" y="9" onmousedown="handleZoom(evt,'out')"/>
                <use id="reset" xlink:href="#resetDef" x="30" y="36" onmousedown="handleReset()"/>
                <g id="arrowUp" xlink:href="#dirArrow" transform="translate(30 24)" onmousedown="handlePan(0,-1)">
                  <use xlink:href="#rim" fill="#404040">
                        <set attributeName="fill" to="#808080" begin="arrowUp.mouseover" end="arrowUp.mouseout"/>
                  </use>
                  <path fill="none" stroke="white" stroke-width="1.5" d="M0,-3.0v7 M-2.5,-0.5L0,-3.0L2.5,-0.5"/>
                </g>
                <g id="arrowRight" xlink:href="#dirArrow" transform="rotate(90) translate(36 -43)" onmousedown="handlePan(1,0)">
                  <use xlink:href="#rim" fill="#404040">
                        <set attributeName="fill" to="#808080" begin="arrowRight.mouseover" end="arrowRight.mouseout"/>
                  </use>
                  <path fill="none" stroke="white" stroke-width="1.5" d="M0,-3.0v7 M-2.5,-0.5L0,-3.0L2.5,-0.5"/>
                </g>
                <g id="arrowDown" xlink:href="#dirArrow" transform="rotate(180) translate(-30 -48)" onmousedown="handlePan(0,1)">
                  <use xlink:href="#rim" fill="#404040">
                        <set attributeName="fill" to="#808080" begin="arrowDown.mouseover" end="arrowDown.mouseout"/>
                  </use>
                  <path fill="none" stroke="white" stroke-width="1.5" d="M0,-3.0v7 M-2.5,-0.5L0,-3.0L2.5,-0.5"/>
                </g>
                <g id="arrowLeft" xlink:href="#dirArrow" transform="rotate(270) translate(-36 17)" onmousedown="handlePan(-1,0)">
                  <use xlink:href="#rim" fill="#404040">
                        <set attributeName="fill" to="#808080" begin="arrowLeft.mouseover" end="arrowLeft.mouseout"/>
                  </use>
                  <path fill="none" stroke="white" stroke-width="1.5" d="M0,-3.0v7 M-2.5,-0.5L0,-3.0L2.5,-0.5"/>
                </g>
        </g>
        <svg viewBox="0 0 15 15" width="100%" height="30px" preserveAspectRatio="xMaxYMin meet">
         <g id="arrow_out" transform="scale(0.3 0.3)">
          <a xlink:href="structDataModel__coll__graph_org.svg" target="_base">
           <rect id="button" ry="5" rx="5" y="6" x="6" height="38" width="38"
                fill="#f2f5e9" fill-opacity="0.5" stroke="#606060" stroke-width="1.0"/>
           <path id="arrow"
             d="M 11.500037,31.436501 C 11.940474,20.09759 22.043105,11.32322 32.158766,21.979434 L 37.068811,17.246167 C 37.068811,17.246167 37.088388,32 37.088388,32 L 22.160133,31.978069 C 22.160133,31.978069 26.997745,27.140456 26.997745,27.140456 C 18.528582,18.264221 13.291696,25.230495 11.500037,31.436501 z"
             style="fill:#404040;"/>
          </a>
         </g>
        </svg>
</svg>
