<?xml version="1.0" encoding="UTF-8" standalone="no"?>
<!DOCTYPE svg PUBLIC "-//W3C//DTD SVG 1.1//EN"
 "http://www.w3.org/Graphics/SVG/1.1/DTD/svg11.dtd">
<!-- Generated by graphviz version 2.40.1 (20161225.0304)
 -->
<!-- Title: RGBAColor::to_SDL Pages: 1 -->
<svg width="293pt" height="104pt"
 viewBox="0.00 0.00 293.00 104.00" xmlns="http://www.w3.org/2000/svg" xmlns:xlink="http://www.w3.org/1999/xlink">
<g id="graph0" class="graph" transform="scale(1 1) rotate(0) translate(4 100)">
<title>RGBAColor::to_SDL</title>
<!-- Node72 -->
<g id="node1" class="node">
<title>Node72</title>
<polygon fill="#bfbfbf" stroke="#000000" points="0,-38.5 0,-57.5 110,-57.5 110,-38.5 0,-38.5"/>
<text text-anchor="middle" x="55" y="-45.5" font-family="Helvetica,sans-Serif" font-size="10.00" fill="#000000">RGBAColor::to_SDL</text>
</g>
<!-- Node73 -->
<g id="node2" class="node">
<title>Node73</title>
<g id="a_node2"><a xlink:href="classSDLRenderer.html#a6541b0f4cc60e8fe20cc6fb0bec97f1b" target="_top" xlink:title="SDLRenderer::drawText">
<polygon fill="none" stroke="#000000" points="151,-76.5 151,-95.5 280,-95.5 280,-76.5 151,-76.5"/>
<text text-anchor="middle" x="215.5" y="-83.5" font-family="Helvetica,sans-Serif" font-size="10.00" fill="#000000">SDLRenderer::drawText</text>
</a>
</g>
</g>
<!-- Node72&#45;&gt;Node73 -->
<g id="edge1" class="edge">
<title>Node72&#45;&gt;Node73</title>
<path fill="none" stroke="#191970" d="M105.2453,-59.8961C127.8052,-65.2374 154.0609,-71.4537 175.2903,-76.4799"/>
<polygon fill="#191970" stroke="#191970" points="106.0383,-56.4871 95.5009,-57.589 104.4255,-63.2988 106.0383,-56.4871"/>
</g>
<!-- Node74 -->
<g id="node3" class="node">
<title>Node74</title>
<g id="a_node3"><a xlink:href="classSDLRenderer.html#a437321420e34cd050515bdcd59b3add4" target="_top" xlink:title="SDLRenderer::drawShape">
<polygon fill="none" stroke="#000000" points="146,-38.5 146,-57.5 285,-57.5 285,-38.5 146,-38.5"/>
<text text-anchor="middle" x="215.5" y="-45.5" font-family="Helvetica,sans-Serif" font-size="10.00" fill="#000000">SDLRenderer::drawShape</text>
</a>
</g>
</g>
<!-- Node72&#45;&gt;Node74 -->
<g id="edge2" class="edge">
<title>Node72&#45;&gt;Node74</title>
<path fill="none" stroke="#191970" d="M120.3867,-48C128.8232,-48 137.4867,-48 145.9866,-48"/>
<polygon fill="#191970" stroke="#191970" points="120.235,-44.5001 110.235,-48 120.235,-51.5001 120.235,-44.5001"/>
</g>
<!-- Node75 -->
<g id="node4" class="node">
<title>Node75</title>
<g id="a_node4"><a xlink:href="structRGBAColor.html#a755420286bdcbf77dcd7511e9a28f806" target="_top" xlink:title="RGBAColor::RGBAColor">
<polygon fill="none" stroke="#000000" points="151,-.5 151,-19.5 280,-19.5 280,-.5 151,-.5"/>
<text text-anchor="middle" x="215.5" y="-7.5" font-family="Helvetica,sans-Serif" font-size="10.00" fill="#000000">RGBAColor::RGBAColor</text>
</a>
</g>
</g>
<!-- Node72&#45;&gt;Node75 -->
<g id="edge3" class="edge">
<title>Node72&#45;&gt;Node75</title>
<path fill="none" stroke="#191970" d="M105.2453,-36.1039C127.8052,-30.7626 154.0609,-24.5463 175.2903,-19.5201"/>
<polygon fill="#191970" stroke="#191970" points="104.4255,-32.7012 95.5009,-38.411 106.0383,-39.5129 104.4255,-32.7012"/>
</g>
</g>
</svg>
