<?xml version="1.0" encoding="UTF-8" standalone="no"?>
<!DOCTYPE svg PUBLIC "-//W3C//DTD SVG 1.1//EN"
 "http://www.w3.org/Graphics/SVG/1.1/DTD/svg11.dtd">
<!-- Generated by graphviz version 2.40.1 (20161225.0304)
 -->
<!-- Title: RGBAColor::RGBAColor Pages: 1 -->
<svg width="438pt" height="357pt"
 viewBox="0.00 0.00 438.00 357.04" xmlns="http://www.w3.org/2000/svg" xmlns:xlink="http://www.w3.org/1999/xlink">
<g id="graph0" class="graph" transform="scale(1 1) rotate(0) translate(4 353.0441)">
<title>RGBAColor::RGBAColor</title>
<!-- Node2 -->
<g id="node1" class="node">
<title>Node2</title>
<polygon fill="#bfbfbf" stroke="#000000" points="0,-171.5 0,-190.5 129,-190.5 129,-171.5 0,-171.5"/>
<text text-anchor="middle" x="64.5" y="-178.5" font-family="Helvetica,sans-Serif" font-size="10.00" fill="#000000">RGBAColor::RGBAColor</text>
</g>
<!-- Node3 -->
<g id="node2" class="node">
<title>Node3</title>
<g id="a_node2"><a xlink:href="structRGBAColor.html#ab27257376e621ff4a8862a90ddd1ffab" target="_top" xlink:title="RGBAColor::hue">
<polygon fill="none" stroke="#000000" points="180.5,-304.5 180.5,-323.5 274.5,-323.5 274.5,-304.5 180.5,-304.5"/>
<text text-anchor="middle" x="227.5" y="-311.5" font-family="Helvetica,sans-Serif" font-size="10.00" fill="#000000">RGBAColor::hue</text>
</a>
</g>
</g>
<!-- Node2&#45;&gt;Node3 -->
<g id="edge1" class="edge">
<title>Node2&#45;&gt;Node3</title>
<path fill="none" stroke="#191970" d="M70.2474,-190.5517C83.8807,-212.3932 120.4,-266.3065 165,-295 168.286,-297.1141 171.8196,-299.0032 175.4746,-300.6898"/>
<polygon fill="#191970" stroke="#191970" points="174.1572,-303.9323 184.738,-304.4772 176.8064,-297.453 174.1572,-303.9323"/>
</g>
<!-- Node4 -->
<g id="node3" class="node">
<title>Node4</title>
<g id="a_node3"><a xlink:href="structRGBAColor.html#a8a63c03d13e9427879b4f8f3ce623d69" target="_top" xlink:title="RGBAColor::red">
<polygon fill="none" stroke="#000000" points="332,-304.5 332,-323.5 424,-323.5 424,-304.5 332,-304.5"/>
<text text-anchor="middle" x="378" y="-311.5" font-family="Helvetica,sans-Serif" font-size="10.00" fill="#000000">RGBAColor::red</text>
</a>
</g>
</g>
<!-- Node2&#45;&gt;Node4 -->
<g id="edge13" class="edge">
<title>Node2&#45;&gt;Node4</title>
<path fill="none" stroke="#191970" d="M67.2744,-190.5087C76.0574,-218.6284 106.2075,-301.3912 165,-333 222.9429,-364.1521 302.7225,-343.0756 346.3481,-327.1481"/>
<polygon fill="#191970" stroke="#191970" points="347.745,-330.3618 355.8572,-323.547 345.2658,-323.8155 347.745,-330.3618"/>
</g>
<!-- Node5 -->
<g id="node4" class="node">
<title>Node5</title>
<g id="a_node4"><a xlink:href="structRGBAColor.html#a8523bfbb8c7b8fbbdb8f2ba328079adb" target="_top" xlink:title="RGBAColor::green">
<polygon fill="none" stroke="#000000" points="326,-228.5 326,-247.5 430,-247.5 430,-228.5 326,-228.5"/>
<text text-anchor="middle" x="378" y="-235.5" font-family="Helvetica,sans-Serif" font-size="10.00" fill="#000000">RGBAColor::green</text>
</a>
</g>
</g>
<!-- Node2&#45;&gt;Node5 -->
<g id="edge14" class="edge">
<title>Node2&#45;&gt;Node5</title>
<path fill="none" stroke="#191970" d="M129.4596,-173.852C175.2293,-170.8737 237.4697,-171.0118 290,-186 315.5757,-193.2974 341.367,-209.8733 358.3552,-222.3624"/>
<polygon fill="#191970" stroke="#191970" points="356.3048,-225.2 366.3888,-228.45 360.5325,-219.6208 356.3048,-225.2"/>
</g>
<!-- Node6 -->
<g id="node5" class="node">
<title>Node6</title>
<g id="a_node5"><a xlink:href="structRGBAColor.html#a959baeeec5e43348b7bd901bbc31f8f8" target="_top" xlink:title="RGBAColor::blue">
<polygon fill="none" stroke="#000000" points="329.5,-266.5 329.5,-285.5 426.5,-285.5 426.5,-266.5 329.5,-266.5"/>
<text text-anchor="middle" x="378" y="-273.5" font-family="Helvetica,sans-Serif" font-size="10.00" fill="#000000">RGBAColor::blue</text>
</a>
</g>
</g>
<!-- Node2&#45;&gt;Node6 -->
<g id="edge15" class="edge">
<title>Node2&#45;&gt;Node6</title>
<path fill="none" stroke="#191970" d="M129.1518,-187.289C185.66,-193.6152 262.8036,-204.5048 290,-219 310.5305,-229.9423 306.5576,-244.2239 326,-257 328.9406,-258.9324 332.1037,-260.7006 335.3653,-262.3122"/>
<polygon fill="#191970" stroke="#191970" points="334.1544,-265.6035 344.7158,-266.4451 336.9844,-259.2011 334.1544,-265.6035"/>
</g>
<!-- Node7 -->
<g id="node6" class="node">
<title>Node7</title>
<g id="a_node6"><a xlink:href="structRGBAColor.html#ab835dd9b5967615be31d7087a0499607" target="_top" xlink:title="RGBAColor::lightness">
<polygon fill="none" stroke="#000000" points="167.5,-266.5 167.5,-285.5 287.5,-285.5 287.5,-266.5 167.5,-266.5"/>
<text text-anchor="middle" x="227.5" y="-273.5" font-family="Helvetica,sans-Serif" font-size="10.00" fill="#000000">RGBAColor::lightness</text>
</a>
</g>
</g>
<!-- Node2&#45;&gt;Node7 -->
<g id="edge5" class="edge">
<title>Node2&#45;&gt;Node7</title>
<path fill="none" stroke="#191970" d="M74.5241,-190.5394C91.7276,-206.4354 128.553,-238.4267 165,-257 169.3197,-259.2013 173.9396,-261.1973 178.639,-262.9951"/>
<polygon fill="#191970" stroke="#191970" points="177.7311,-266.3861 188.326,-266.4093 180.0581,-259.7841 177.7311,-266.3861"/>
</g>
<!-- Node8 -->
<g id="node7" class="node">
<title>Node8</title>
<g id="a_node7"><a xlink:href="structRGBAColor.html#a8de2a717601cc3fba0e65c6e4e7e1524" target="_top" xlink:title="RGBAColor::saturation">
<polygon fill="none" stroke="#000000" points="165,-228.5 165,-247.5 290,-247.5 290,-228.5 165,-228.5"/>
<text text-anchor="middle" x="227.5" y="-235.5" font-family="Helvetica,sans-Serif" font-size="10.00" fill="#000000">RGBAColor::saturation</text>
</a>
</g>
</g>
<!-- Node2&#45;&gt;Node8 -->
<g id="edge9" class="edge">
<title>Node2&#45;&gt;Node8</title>
<path fill="none" stroke="#191970" d="M91.7825,-190.5405C118.8155,-199.9938 160.4132,-214.5402 190.4304,-225.037"/>
<polygon fill="#191970" stroke="#191970" points="189.5336,-228.4312 200.1285,-228.4284 191.8443,-221.8235 189.5336,-228.4312"/>
</g>
<!-- Node9 -->
<g id="node8" class="node">
<title>Node9</title>
<g id="a_node8"><a xlink:href="structRGBAColor.html#ab9156bde0e82ab0ead3c14a4458eb054" target="_top" xlink:title="RGBAColor::alpha">
<polygon fill="none" stroke="#000000" points="176,-114.5 176,-133.5 279,-133.5 279,-114.5 176,-114.5"/>
<text text-anchor="middle" x="227.5" y="-121.5" font-family="Helvetica,sans-Serif" font-size="10.00" fill="#000000">RGBAColor::alpha</text>
</a>
</g>
</g>
<!-- Node2&#45;&gt;Node9 -->
<g id="edge16" class="edge">
<title>Node2&#45;&gt;Node9</title>
<path fill="none" stroke="#191970" d="M91.7825,-171.4595C118.8155,-162.0062 160.4132,-147.4598 190.4304,-136.963"/>
<polygon fill="#191970" stroke="#191970" points="191.8443,-140.1765 200.1285,-133.5716 189.5336,-133.5688 191.8443,-140.1765"/>
</g>
<!-- Node10 -->
<g id="node9" class="node">
<title>Node10</title>
<g id="a_node9"><a xlink:href="WindowManager_8hxx.html#a14f743ccc2b88b078f0c72e8c9baf74b" target="_top" xlink:title="deprecated">
<polygon fill="none" stroke="#000000" points="192,-76.5 192,-95.5 263,-95.5 263,-76.5 192,-76.5"/>
<text text-anchor="middle" x="227.5" y="-83.5" font-family="Helvetica,sans-Serif" font-size="10.00" fill="#000000">deprecated</text>
</a>
</g>
</g>
<!-- Node2&#45;&gt;Node10 -->
<g id="edge17" class="edge">
<title>Node2&#45;&gt;Node10</title>
<path fill="none" stroke="#191970" d="M74.5241,-171.4606C91.7276,-155.5646 128.553,-123.5733 165,-105 170.3728,-102.262 176.21,-99.8418 182.0869,-97.7253"/>
<polygon fill="#191970" stroke="#191970" points="183.5556,-100.9254 191.9397,-94.4479 181.3462,-94.2832 183.5556,-100.9254"/>
</g>
<!-- Node11 -->
<g id="node10" class="node">
<title>Node11</title>
<g id="a_node10"><a xlink:href="structRGBAColor.html#aba740eb0cce3571dbb4af983ab7d055d" target="_top" xlink:title="RGBAColor::to_SDL">
<polygon fill="none" stroke="#000000" points="172.5,-38.5 172.5,-57.5 282.5,-57.5 282.5,-38.5 172.5,-38.5"/>
<text text-anchor="middle" x="227.5" y="-45.5" font-family="Helvetica,sans-Serif" font-size="10.00" fill="#000000">RGBAColor::to_SDL</text>
</a>
</g>
</g>
<!-- Node2&#45;&gt;Node11 -->
<g id="edge18" class="edge">
<title>Node2&#45;&gt;Node11</title>
<path fill="none" stroke="#191970" d="M70.2474,-171.4483C83.8807,-149.6068 120.4,-95.6935 165,-67 168.286,-64.8859 171.8196,-62.9968 175.4746,-61.3102"/>
<polygon fill="#191970" stroke="#191970" points="176.8064,-64.547 184.738,-57.5228 174.1572,-58.0677 176.8064,-64.547"/>
</g>
<!-- Node12 -->
<g id="node11" class="node">
<title>Node12</title>
<g id="a_node11"><a xlink:href="structRGBAColor.html#a3cd700ece11761d8cfeb8a8e69813cd2" target="_top" xlink:title="RGBAColor::fromHSLA">
<polygon fill="none" stroke="#000000" points="165,-.5 165,-19.5 290,-19.5 290,-.5 165,-.5"/>
<text text-anchor="middle" x="227.5" y="-7.5" font-family="Helvetica,sans-Serif" font-size="10.00" fill="#000000">RGBAColor::fromHSLA</text>
</a>
</g>
</g>
<!-- Node2&#45;&gt;Node12 -->
<g id="edge19" class="edge">
<title>Node2&#45;&gt;Node12</title>
<path fill="none" stroke="#191970" d="M68.2117,-171.122C78.8747,-144.097 112.2545,-68.3419 165,-29 167.5099,-27.1279 170.2054,-25.4386 173.0172,-23.9145"/>
<polygon fill="#191970" stroke="#191970" points="174.7215,-26.9818 182.309,-19.5873 171.7662,-20.6362 174.7215,-26.9818"/>
</g>
<!-- Node3&#45;&gt;Node4 -->
<g id="edge2" class="edge">
<title>Node3&#45;&gt;Node4</title>
<path fill="none" stroke="#191970" d="M274.7062,-314C289.6977,-314 306.4221,-314 321.9726,-314"/>
<polygon fill="#191970" stroke="#191970" points="321.9921,-317.5001 331.992,-314 321.992,-310.5001 321.9921,-317.5001"/>
</g>
<!-- Node3&#45;&gt;Node5 -->
<g id="edge3" class="edge">
<title>Node3&#45;&gt;Node5</title>
<path fill="none" stroke="#191970" d="M269.8166,-304.4101C276.8335,-301.9131 283.8265,-298.8171 290,-295 309.7875,-282.7653 306.5576,-269.7761 326,-257 328.9406,-255.0676 332.1037,-253.2994 335.3653,-251.6878"/>
<polygon fill="#191970" stroke="#191970" points="336.9844,-254.7989 344.7158,-247.5549 334.1544,-248.3965 336.9844,-254.7989"/>
</g>
<!-- Node3&#45;&gt;Node6 -->
<g id="edge4" class="edge">
<title>Node3&#45;&gt;Node6</title>
<path fill="none" stroke="#191970" d="M265.4775,-304.411C285.1587,-299.4417 309.3907,-293.3233 330.3206,-288.0387"/>
<polygon fill="#191970" stroke="#191970" points="331.4567,-291.3617 340.2956,-285.5201 329.743,-284.5747 331.4567,-291.3617"/>
</g>
<!-- Node7&#45;&gt;Node4 -->
<g id="edge6" class="edge">
<title>Node7&#45;&gt;Node4</title>
<path fill="none" stroke="#191970" d="M265.4775,-285.589C285.1587,-290.5583 309.3907,-296.6767 330.3206,-301.9613"/>
<polygon fill="#191970" stroke="#191970" points="329.743,-305.4253 340.2956,-304.4799 331.4567,-298.6383 329.743,-305.4253"/>
</g>
<!-- Node7&#45;&gt;Node5 -->
<g id="edge7" class="edge">
<title>Node7&#45;&gt;Node5</title>
<path fill="none" stroke="#191970" d="M265.4775,-266.411C285.1587,-261.4417 309.3907,-255.3233 330.3206,-250.0387"/>
<polygon fill="#191970" stroke="#191970" points="331.4567,-253.3617 340.2956,-247.5201 329.743,-246.5747 331.4567,-253.3617"/>
</g>
<!-- Node7&#45;&gt;Node6 -->
<g id="edge8" class="edge">
<title>Node7&#45;&gt;Node6</title>
<path fill="none" stroke="#191970" d="M287.8469,-276C298.1509,-276 308.8433,-276 319.1089,-276"/>
<polygon fill="#191970" stroke="#191970" points="319.202,-279.5001 329.2019,-276 319.2019,-272.5001 319.202,-279.5001"/>
</g>
<!-- Node8&#45;&gt;Node4 -->
<g id="edge10" class="edge">
<title>Node8&#45;&gt;Node4</title>
<path fill="none" stroke="#191970" d="M269.8166,-247.5899C276.8335,-250.0869 283.8265,-253.1829 290,-257 309.7875,-269.2347 306.5576,-282.2239 326,-295 328.9406,-296.9324 332.1037,-298.7006 335.3653,-300.3122"/>
<polygon fill="#191970" stroke="#191970" points="334.1544,-303.6035 344.7158,-304.4451 336.9844,-297.2011 334.1544,-303.6035"/>
</g>
<!-- Node8&#45;&gt;Node5 -->
<g id="edge11" class="edge">
<title>Node8&#45;&gt;Node5</title>
<path fill="none" stroke="#191970" d="M290.0181,-238C298.5157,-238 307.2363,-238 315.7295,-238"/>
<polygon fill="#191970" stroke="#191970" points="315.9463,-241.5001 325.9463,-238 315.9462,-234.5001 315.9463,-241.5001"/>
</g>
<!-- Node8&#45;&gt;Node6 -->
<g id="edge12" class="edge">
<title>Node8&#45;&gt;Node6</title>
<path fill="none" stroke="#191970" d="M265.4775,-247.589C285.1587,-252.5583 309.3907,-258.6767 330.3206,-263.9613"/>
<polygon fill="#191970" stroke="#191970" points="329.743,-267.4253 340.2956,-266.4799 331.4567,-260.6383 329.743,-267.4253"/>
</g>
</g>
</svg>
