<?xml version="1.0" encoding="UTF-8" standalone="no"?>
<!DOCTYPE svg PUBLIC "-//W3C//DTD SVG 1.1//EN"
 "http://www.w3.org/Graphics/SVG/1.1/DTD/svg11.dtd">
<!-- Generated by graphviz version 2.40.1 (20161225.0304)
 -->
<!-- Title: RGBAColor::green Pages: 1 -->
<svg width="467pt" height="161pt"
 viewBox="0.00 0.00 467.00 161.42" xmlns="http://www.w3.org/2000/svg" xmlns:xlink="http://www.w3.org/1999/xlink">
<g id="graph0" class="graph" transform="scale(1 1) rotate(0) translate(4 157.422)">
<title>RGBAColor::green</title>
<!-- Node31 -->
<g id="node1" class="node">
<title>Node31</title>
<polygon fill="#bfbfbf" stroke="#000000" points="0,-76.5 0,-95.5 104,-95.5 104,-76.5 0,-76.5"/>
<text text-anchor="middle" x="52" y="-83.5" font-family="Helvetica,sans-Serif" font-size="10.00" fill="#000000">RGBAColor::green</text>
</g>
<!-- Node32 -->
<g id="node2" class="node">
<title>Node32</title>
<g id="a_node2"><a xlink:href="structRGBAColor.html#ab27257376e621ff4a8862a90ddd1ffab" target="_top" xlink:title="RGBAColor::hue">
<polygon fill="none" stroke="#000000" points="155.5,-114.5 155.5,-133.5 249.5,-133.5 249.5,-114.5 155.5,-114.5"/>
<text text-anchor="middle" x="202.5" y="-121.5" font-family="Helvetica,sans-Serif" font-size="10.00" fill="#000000">RGBAColor::hue</text>
</a>
</g>
</g>
<!-- Node31&#45;&gt;Node32 -->
<g id="edge1" class="edge">
<title>Node31&#45;&gt;Node32</title>
<path fill="none" stroke="#191970" d="M99.6847,-98.04C120.7103,-103.3488 145.0674,-109.4988 164.7956,-114.4799"/>
<polygon fill="#191970" stroke="#191970" points="100.5301,-94.6437 89.9775,-95.589 98.8164,-101.4307 100.5301,-94.6437"/>
</g>
<!-- Node33 -->
<g id="node3" class="node">
<title>Node33</title>
<g id="a_node3"><a xlink:href="structRGBAColor.html#a755420286bdcbf77dcd7511e9a28f806" target="_top" xlink:title="RGBAColor::RGBAColor">
<polygon fill="none" stroke="#000000" points="315.5,-114.5 315.5,-133.5 444.5,-133.5 444.5,-114.5 315.5,-114.5"/>
<text text-anchor="middle" x="380" y="-121.5" font-family="Helvetica,sans-Serif" font-size="10.00" fill="#000000">RGBAColor::RGBAColor</text>
</a>
</g>
</g>
<!-- Node31&#45;&gt;Node33 -->
<g id="edge12" class="edge">
<title>Node31&#45;&gt;Node33</title>
<path fill="none" stroke="#191970" d="M70.2104,-102.3465C86.9791,-116.2185 113.243,-135.0914 140,-143 212.3495,-164.3844 301.9873,-146.1679 348.5668,-133.563"/>
<polygon fill="#191970" stroke="#191970" points="72.2306,-99.4689 62.3547,-95.6327 67.6827,-104.7903 72.2306,-99.4689"/>
</g>
<!-- Node35 -->
<g id="node5" class="node">
<title>Node35</title>
<g id="a_node5"><a xlink:href="structRGBAColor.html#ab835dd9b5967615be31d7087a0499607" target="_top" xlink:title="RGBAColor::lightness">
<polygon fill="none" stroke="#000000" points="142.5,-76.5 142.5,-95.5 262.5,-95.5 262.5,-76.5 142.5,-76.5"/>
<text text-anchor="middle" x="202.5" y="-83.5" font-family="Helvetica,sans-Serif" font-size="10.00" fill="#000000">RGBAColor::lightness</text>
</a>
</g>
</g>
<!-- Node31&#45;&gt;Node35 -->
<g id="edge4" class="edge">
<title>Node31&#45;&gt;Node35</title>
<path fill="none" stroke="#191970" d="M114.4869,-86C123.7111,-86 133.1989,-86 142.3738,-86"/>
<polygon fill="#191970" stroke="#191970" points="114.2153,-82.5001 104.2152,-86 114.2152,-89.5001 114.2153,-82.5001"/>
</g>
<!-- Node36 -->
<g id="node6" class="node">
<title>Node36</title>
<g id="a_node6"><a xlink:href="structRGBAColor.html#a8de2a717601cc3fba0e65c6e4e7e1524" target="_top" xlink:title="RGBAColor::saturation">
<polygon fill="none" stroke="#000000" points="140,-38.5 140,-57.5 265,-57.5 265,-38.5 140,-38.5"/>
<text text-anchor="middle" x="202.5" y="-45.5" font-family="Helvetica,sans-Serif" font-size="10.00" fill="#000000">RGBAColor::saturation</text>
</a>
</g>
</g>
<!-- Node31&#45;&gt;Node36 -->
<g id="edge7" class="edge">
<title>Node31&#45;&gt;Node36</title>
<path fill="none" stroke="#191970" d="M99.6847,-73.96C120.7103,-68.6512 145.0674,-62.5012 164.7956,-57.5201"/>
<polygon fill="#191970" stroke="#191970" points="98.8164,-70.5693 89.9775,-76.411 100.5301,-77.3563 98.8164,-70.5693"/>
</g>
<!-- Node37 -->
<g id="node7" class="node">
<title>Node37</title>
<g id="a_node7"><a xlink:href="Color_8hxx.html#a66462eba8baae6dccf946e527f5b6a3a" target="_top" xlink:title="operator\&lt;\&lt;">
<polygon fill="none" stroke="#000000" points="165.5,-.5 165.5,-19.5 239.5,-19.5 239.5,-.5 165.5,-.5"/>
<text text-anchor="middle" x="202.5" y="-7.5" font-family="Helvetica,sans-Serif" font-size="10.00" fill="#000000">operator&lt;&lt;</text>
</a>
</g>
</g>
<!-- Node31&#45;&gt;Node37 -->
<g id="edge10" class="edge">
<title>Node31&#45;&gt;Node37</title>
<path fill="none" stroke="#191970" d="M72.6664,-70.2301C89.9142,-57.669 115.54,-40.3647 140,-29 147.9195,-25.3204 156.7293,-22.1354 165.1773,-19.4803"/>
<polygon fill="#191970" stroke="#191970" points="70.4123,-67.5441 64.4612,-76.3097 74.5797,-73.1685 70.4123,-67.5441"/>
</g>
<!-- Node32&#45;&gt;Node33 -->
<g id="edge2" class="edge">
<title>Node32&#45;&gt;Node33</title>
<path fill="none" stroke="#191970" d="M259.7816,-124C277.4933,-124 297.1258,-124 315.3024,-124"/>
<polygon fill="#191970" stroke="#191970" points="259.6008,-120.5001 249.6007,-124 259.6007,-127.5001 259.6008,-120.5001"/>
</g>
<!-- Node34 -->
<g id="node4" class="node">
<title>Node34</title>
<g id="a_node4"><a xlink:href="classPixelBuffer.html#a4967e7c476e99c2a5efb234c033657be" target="_top" xlink:title="Recolors magic pixels. ">
<polygon fill="none" stroke="#000000" points="301,-76.5 301,-95.5 459,-95.5 459,-76.5 301,-76.5"/>
<text text-anchor="middle" x="380" y="-83.5" font-family="Helvetica,sans-Serif" font-size="10.00" fill="#000000">PixelBuffer::colorMagicPixels</text>
</a>
</g>
</g>
<!-- Node32&#45;&gt;Node34 -->
<g id="edge3" class="edge">
<title>Node32&#45;&gt;Node34</title>
<path fill="none" stroke="#191970" d="M257.3969,-112.2474C282.4954,-106.8742 311.8428,-100.5914 335.5313,-95.5201"/>
<polygon fill="#191970" stroke="#191970" points="256.3365,-108.8951 247.2907,-114.411 257.8019,-115.74 256.3365,-108.8951"/>
</g>
<!-- Node35&#45;&gt;Node33 -->
<g id="edge5" class="edge">
<title>Node35&#45;&gt;Node33</title>
<path fill="none" stroke="#191970" d="M257.3969,-97.7526C282.4954,-103.1258 311.8428,-109.4086 335.5313,-114.4799"/>
<polygon fill="#191970" stroke="#191970" points="257.8019,-94.26 247.2907,-95.589 256.3365,-101.1049 257.8019,-94.26"/>
</g>
<!-- Node35&#45;&gt;Node34 -->
<g id="edge6" class="edge">
<title>Node35&#45;&gt;Node34</title>
<path fill="none" stroke="#191970" d="M272.8201,-86C282.0013,-86 291.4578,-86 300.7728,-86"/>
<polygon fill="#191970" stroke="#191970" points="272.5934,-82.5001 262.5934,-86 272.5934,-89.5001 272.5934,-82.5001"/>
</g>
<!-- Node36&#45;&gt;Node33 -->
<g id="edge8" class="edge">
<title>Node36&#45;&gt;Node33</title>
<path fill="none" stroke="#191970" d="M254.2665,-61.3646C258.0027,-63.0407 261.6239,-64.9125 265,-67 284.7875,-79.2347 280.8596,-93.3552 301,-105 307.7166,-108.8834 315.1937,-111.9752 322.7944,-114.4362"/>
<polygon fill="#191970" stroke="#191970" points="255.4015,-58.0491 244.8166,-57.5899 252.8049,-64.5497 255.4015,-58.0491"/>
</g>
<!-- Node36&#45;&gt;Node34 -->
<g id="edge9" class="edge">
<title>Node36&#45;&gt;Node34</title>
<path fill="none" stroke="#191970" d="M257.3969,-59.7526C282.4954,-65.1258 311.8428,-71.4086 335.5313,-76.4799"/>
<polygon fill="#191970" stroke="#191970" points="257.8019,-56.26 247.2907,-57.589 256.3365,-63.1049 257.8019,-56.26"/>
</g>
<!-- Node38 -->
<g id="node8" class="node">
<title>Node38</title>
<g id="a_node8"><a xlink:href="Color_8hxx.html#a20ab73b1995e8eb26e6e263687a467f8" target="_top" xlink:title="operator&quot;&quot;_rgba">
<polygon fill="none" stroke="#000000" points="333,-.5 333,-19.5 427,-19.5 427,-.5 333,-.5"/>
<text text-anchor="middle" x="380" y="-7.5" font-family="Helvetica,sans-Serif" font-size="10.00" fill="#000000">operator&quot;&quot;_rgba</text>
</a>
</g>
</g>
<!-- Node37&#45;&gt;Node38 -->
<g id="edge11" class="edge">
<title>Node37&#45;&gt;Node38</title>
<path fill="none" stroke="#191970" d="M249.932,-10C275.553,-10 307.088,-10 332.6901,-10"/>
<polygon fill="#191970" stroke="#191970" points="249.7099,-6.5001 239.7098,-10 249.7098,-13.5001 249.7099,-6.5001"/>
</g>
</g>
</svg>
