<?xml version="1.0" encoding="UTF-8" standalone="no"?>
<!DOCTYPE svg PUBLIC "-//W3C//DTD SVG 1.1//EN"
 "http://www.w3.org/Graphics/SVG/1.1/DTD/svg11.dtd">
<!-- Generated by graphviz version 2.40.1 (20161225.0304)
 -->
<!-- Title: RGBAColor::red Pages: 1 -->
<svg width="455pt" height="162pt"
 viewBox="0.00 0.00 455.00 162.15" xmlns="http://www.w3.org/2000/svg" xmlns:xlink="http://www.w3.org/1999/xlink">
<g id="graph0" class="graph" transform="scale(1 1) rotate(0) translate(4 158.1455)">
<title>RGBAColor::red</title>
<!-- Node56 -->
<g id="node1" class="node">
<title>Node56</title>
<polygon fill="#bfbfbf" stroke="#000000" points="0,-76.5 0,-95.5 92,-95.5 92,-76.5 0,-76.5"/>
<text text-anchor="middle" x="46" y="-83.5" font-family="Helvetica,sans-Serif" font-size="10.00" fill="#000000">RGBAColor::red</text>
</g>
<!-- Node57 -->
<g id="node2" class="node">
<title>Node57</title>
<g id="a_node2"><a xlink:href="structRGBAColor.html#ab27257376e621ff4a8862a90ddd1ffab" target="_top" xlink:title="RGBAColor::hue">
<polygon fill="none" stroke="#000000" points="143.5,-114.5 143.5,-133.5 237.5,-133.5 237.5,-114.5 143.5,-114.5"/>
<text text-anchor="middle" x="190.5" y="-121.5" font-family="Helvetica,sans-Serif" font-size="10.00" fill="#000000">RGBAColor::hue</text>
</a>
</g>
</g>
<!-- Node56&#45;&gt;Node57 -->
<g id="edge1" class="edge">
<title>Node56&#45;&gt;Node57</title>
<path fill="none" stroke="#191970" d="M92.3325,-98.1843C112.3939,-103.46 135.5285,-109.5438 154.2988,-114.4799"/>
<polygon fill="#191970" stroke="#191970" points="93.0248,-94.7474 82.4635,-95.589 91.2445,-101.5173 93.0248,-94.7474"/>
</g>
<!-- Node58 -->
<g id="node3" class="node">
<title>Node58</title>
<g id="a_node3"><a xlink:href="structRGBAColor.html#a755420286bdcbf77dcd7511e9a28f806" target="_top" xlink:title="RGBAColor::RGBAColor">
<polygon fill="none" stroke="#000000" points="303.5,-114.5 303.5,-133.5 432.5,-133.5 432.5,-114.5 303.5,-114.5"/>
<text text-anchor="middle" x="368" y="-121.5" font-family="Helvetica,sans-Serif" font-size="10.00" fill="#000000">RGBAColor::RGBAColor</text>
</a>
</g>
</g>
<!-- Node56&#45;&gt;Node58 -->
<g id="edge12" class="edge">
<title>Node56&#45;&gt;Node58</title>
<path fill="none" stroke="#191970" d="M63.1914,-102.7101C78.6996,-116.5321 102.8736,-135.1249 128,-143 200.5888,-165.7508 291.2691,-146.5496 337.6284,-133.5479"/>
<polygon fill="#191970" stroke="#191970" points="65.2369,-99.8348 55.5163,-95.6204 60.4871,-104.9768 65.2369,-99.8348"/>
</g>
<!-- Node60 -->
<g id="node5" class="node">
<title>Node60</title>
<g id="a_node5"><a xlink:href="structRGBAColor.html#ab835dd9b5967615be31d7087a0499607" target="_top" xlink:title="RGBAColor::lightness">
<polygon fill="none" stroke="#000000" points="130.5,-76.5 130.5,-95.5 250.5,-95.5 250.5,-76.5 130.5,-76.5"/>
<text text-anchor="middle" x="190.5" y="-83.5" font-family="Helvetica,sans-Serif" font-size="10.00" fill="#000000">RGBAColor::lightness</text>
</a>
</g>
</g>
<!-- Node56&#45;&gt;Node60 -->
<g id="edge4" class="edge">
<title>Node56&#45;&gt;Node60</title>
<path fill="none" stroke="#191970" d="M102.2993,-86C111.4831,-86 121.0289,-86 130.3021,-86"/>
<polygon fill="#191970" stroke="#191970" points="102.118,-82.5001 92.118,-86 102.118,-89.5001 102.118,-82.5001"/>
</g>
<!-- Node61 -->
<g id="node6" class="node">
<title>Node61</title>
<g id="a_node6"><a xlink:href="structRGBAColor.html#a8de2a717601cc3fba0e65c6e4e7e1524" target="_top" xlink:title="RGBAColor::saturation">
<polygon fill="none" stroke="#000000" points="128,-38.5 128,-57.5 253,-57.5 253,-38.5 128,-38.5"/>
<text text-anchor="middle" x="190.5" y="-45.5" font-family="Helvetica,sans-Serif" font-size="10.00" fill="#000000">RGBAColor::saturation</text>
</a>
</g>
</g>
<!-- Node56&#45;&gt;Node61 -->
<g id="edge7" class="edge">
<title>Node56&#45;&gt;Node61</title>
<path fill="none" stroke="#191970" d="M92.3325,-73.8157C112.3939,-68.54 135.5285,-62.4562 154.2988,-57.5201"/>
<polygon fill="#191970" stroke="#191970" points="91.2445,-70.4827 82.4635,-76.411 93.0248,-77.2526 91.2445,-70.4827"/>
</g>
<!-- Node62 -->
<g id="node7" class="node">
<title>Node62</title>
<g id="a_node7"><a xlink:href="Color_8hxx.html#a66462eba8baae6dccf946e527f5b6a3a" target="_top" xlink:title="operator\&lt;\&lt;">
<polygon fill="none" stroke="#000000" points="153.5,-.5 153.5,-19.5 227.5,-19.5 227.5,-.5 153.5,-.5"/>
<text text-anchor="middle" x="190.5" y="-7.5" font-family="Helvetica,sans-Serif" font-size="10.00" fill="#000000">operator&lt;&lt;</text>
</a>
</g>
</g>
<!-- Node56&#45;&gt;Node62 -->
<g id="edge10" class="edge">
<title>Node56&#45;&gt;Node62</title>
<path fill="none" stroke="#191970" d="M65.2512,-70.0125C81.2209,-57.4129 104.9627,-40.1648 128,-29 135.9604,-25.1421 144.8721,-21.8712 153.4164,-19.1878"/>
<polygon fill="#191970" stroke="#191970" points="62.8286,-67.4695 57.2326,-76.466 67.2174,-72.9228 62.8286,-67.4695"/>
</g>
<!-- Node57&#45;&gt;Node58 -->
<g id="edge2" class="edge">
<title>Node57&#45;&gt;Node58</title>
<path fill="none" stroke="#191970" d="M247.7816,-124C265.4933,-124 285.1258,-124 303.3024,-124"/>
<polygon fill="#191970" stroke="#191970" points="247.6008,-120.5001 237.6007,-124 247.6007,-127.5001 247.6008,-120.5001"/>
</g>
<!-- Node59 -->
<g id="node4" class="node">
<title>Node59</title>
<g id="a_node4"><a xlink:href="classPixelBuffer.html#a4967e7c476e99c2a5efb234c033657be" target="_top" xlink:title="Recolors magic pixels. ">
<polygon fill="none" stroke="#000000" points="289,-76.5 289,-95.5 447,-95.5 447,-76.5 289,-76.5"/>
<text text-anchor="middle" x="368" y="-83.5" font-family="Helvetica,sans-Serif" font-size="10.00" fill="#000000">PixelBuffer::colorMagicPixels</text>
</a>
</g>
</g>
<!-- Node57&#45;&gt;Node59 -->
<g id="edge3" class="edge">
<title>Node57&#45;&gt;Node59</title>
<path fill="none" stroke="#191970" d="M245.3969,-112.2474C270.4954,-106.8742 299.8428,-100.5914 323.5313,-95.5201"/>
<polygon fill="#191970" stroke="#191970" points="244.3365,-108.8951 235.2907,-114.411 245.8019,-115.74 244.3365,-108.8951"/>
</g>
<!-- Node60&#45;&gt;Node58 -->
<g id="edge5" class="edge">
<title>Node60&#45;&gt;Node58</title>
<path fill="none" stroke="#191970" d="M245.3969,-97.7526C270.4954,-103.1258 299.8428,-109.4086 323.5313,-114.4799"/>
<polygon fill="#191970" stroke="#191970" points="245.8019,-94.26 235.2907,-95.589 244.3365,-101.1049 245.8019,-94.26"/>
</g>
<!-- Node60&#45;&gt;Node59 -->
<g id="edge6" class="edge">
<title>Node60&#45;&gt;Node59</title>
<path fill="none" stroke="#191970" d="M260.8201,-86C270.0013,-86 279.4578,-86 288.7728,-86"/>
<polygon fill="#191970" stroke="#191970" points="260.5934,-82.5001 250.5934,-86 260.5934,-89.5001 260.5934,-82.5001"/>
</g>
<!-- Node61&#45;&gt;Node58 -->
<g id="edge8" class="edge">
<title>Node61&#45;&gt;Node58</title>
<path fill="none" stroke="#191970" d="M242.2665,-61.3646C246.0027,-63.0407 249.6239,-64.9125 253,-67 272.7875,-79.2347 268.8596,-93.3552 289,-105 295.7166,-108.8834 303.1937,-111.9752 310.7944,-114.4362"/>
<polygon fill="#191970" stroke="#191970" points="243.4015,-58.0491 232.8166,-57.5899 240.8049,-64.5497 243.4015,-58.0491"/>
</g>
<!-- Node61&#45;&gt;Node59 -->
<g id="edge9" class="edge">
<title>Node61&#45;&gt;Node59</title>
<path fill="none" stroke="#191970" d="M245.3969,-59.7526C270.4954,-65.1258 299.8428,-71.4086 323.5313,-76.4799"/>
<polygon fill="#191970" stroke="#191970" points="245.8019,-56.26 235.2907,-57.589 244.3365,-63.1049 245.8019,-56.26"/>
</g>
<!-- Node63 -->
<g id="node8" class="node">
<title>Node63</title>
<g id="a_node8"><a xlink:href="Color_8hxx.html#a20ab73b1995e8eb26e6e263687a467f8" target="_top" xlink:title="operator&quot;&quot;_rgba">
<polygon fill="none" stroke="#000000" points="321,-.5 321,-19.5 415,-19.5 415,-.5 321,-.5"/>
<text text-anchor="middle" x="368" y="-7.5" font-family="Helvetica,sans-Serif" font-size="10.00" fill="#000000">operator&quot;&quot;_rgba</text>
</a>
</g>
</g>
<!-- Node62&#45;&gt;Node63 -->
<g id="edge11" class="edge">
<title>Node62&#45;&gt;Node63</title>
<path fill="none" stroke="#191970" d="M237.932,-10C263.553,-10 295.088,-10 320.6901,-10"/>
<polygon fill="#191970" stroke="#191970" points="237.7099,-6.5001 227.7098,-10 237.7098,-13.5001 237.7099,-6.5001"/>
</g>
</g>
</svg>
