<?xml version="1.0" encoding="UTF-8" standalone="no"?>
<!DOCTYPE svg PUBLIC "-//W3C//DTD SVG 1.1//EN"
 "http://www.w3.org/Graphics/SVG/1.1/DTD/svg11.dtd">
<!-- Generated by graphviz version 2.40.1 (20161225.0304)
 -->
<!-- Title: AudioPlayEcho3DEvent Pages: 1 -->
<svg width="373pt" height="507pt"
 viewBox="0.00 0.00 373.00 507.00" xmlns="http://www.w3.org/2000/svg" xmlns:xlink="http://www.w3.org/1999/xlink">
<g id="graph0" class="graph" transform="scale(1 1) rotate(0) translate(4 503)">
<title>AudioPlayEcho3DEvent</title>
<!-- Node1 -->
<g id="node1" class="node">
<title>Node1</title>
<polygon fill="#bfbfbf" stroke="#000000" points="137.5,-.5 137.5,-57.5 267.5,-57.5 267.5,-.5 137.5,-.5"/>
<text text-anchor="middle" x="202.5" y="-45.5" font-family="Helvetica,sans-Serif" font-size="10.00" fill="#000000">AudioPlayEcho3DEvent</text>
<polyline fill="none" stroke="#000000" points="137.5,-38.5 267.5,-38.5 "/>
<text text-anchor="middle" x="202.5" y="-26.5" font-family="Helvetica,sans-Serif" font-size="10.00" fill="#000000"> </text>
<polyline fill="none" stroke="#000000" points="137.5,-19.5 267.5,-19.5 "/>
<text text-anchor="middle" x="202.5" y="-7.5" font-family="Helvetica,sans-Serif" font-size="10.00" fill="#000000"> </text>
</g>
<!-- Node2 -->
<g id="node2" class="node">
<title>Node2</title>
<g id="a_node2"><a xlink:href="structStrongType.html" target="_top" xlink:title="{StrongType\&lt; string,\l struct SoundtrackIDTag \&gt;\n|&#45; m_Data\l|+ StrongType()\l+ StrongType()\l+ StrongType()\l+ StrongType()\l+ operator=()\l+ operator=()\l+ operator=()\l+ operator=()\l+ get()\l+ get()\l}">
<polygon fill="none" stroke="#000000" points="0,-105.5 0,-272.5 143,-272.5 143,-105.5 0,-105.5"/>
<text text-anchor="start" x="8" y="-260.5" font-family="Helvetica,sans-Serif" font-size="10.00" fill="#000000">StrongType&lt; string,</text>
<text text-anchor="middle" x="71.5" y="-249.5" font-family="Helvetica,sans-Serif" font-size="10.00" fill="#000000"> struct SoundtrackIDTag &gt;</text>
<polyline fill="none" stroke="#000000" points="0,-242.5 143,-242.5 "/>
<text text-anchor="start" x="8" y="-230.5" font-family="Helvetica,sans-Serif" font-size="10.00" fill="#000000">&#45; m_Data</text>
<polyline fill="none" stroke="#000000" points="0,-223.5 143,-223.5 "/>
<text text-anchor="start" x="8" y="-211.5" font-family="Helvetica,sans-Serif" font-size="10.00" fill="#000000">+ StrongType()</text>
<text text-anchor="start" x="8" y="-200.5" font-family="Helvetica,sans-Serif" font-size="10.00" fill="#000000">+ StrongType()</text>
<text text-anchor="start" x="8" y="-189.5" font-family="Helvetica,sans-Serif" font-size="10.00" fill="#000000">+ StrongType()</text>
<text text-anchor="start" x="8" y="-178.5" font-family="Helvetica,sans-Serif" font-size="10.00" fill="#000000">+ StrongType()</text>
<text text-anchor="start" x="8" y="-167.5" font-family="Helvetica,sans-Serif" font-size="10.00" fill="#000000">+ operator=()</text>
<text text-anchor="start" x="8" y="-156.5" font-family="Helvetica,sans-Serif" font-size="10.00" fill="#000000">+ operator=()</text>
<text text-anchor="start" x="8" y="-145.5" font-family="Helvetica,sans-Serif" font-size="10.00" fill="#000000">+ operator=()</text>
<text text-anchor="start" x="8" y="-134.5" font-family="Helvetica,sans-Serif" font-size="10.00" fill="#000000">+ operator=()</text>
<text text-anchor="start" x="8" y="-123.5" font-family="Helvetica,sans-Serif" font-size="10.00" fill="#000000">+ get()</text>
<text text-anchor="start" x="8" y="-112.5" font-family="Helvetica,sans-Serif" font-size="10.00" fill="#000000">+ get()</text>
</a>
</g>
</g>
<!-- Node2&#45;&gt;Node1 -->
<g id="edge1" class="edge">
<title>Node2&#45;&gt;Node1</title>
<path fill="none" stroke="#404040" d="M140.0693,-105.2512C150.9995,-91.9014 161.8154,-78.6911 171.2961,-67.1116"/>
<polygon fill="none" stroke="#404040" points="171.317,-67.0861 172.0231,-59.9096 178.9191,-57.8011 178.213,-64.9776 171.317,-67.0861"/>
<text text-anchor="middle" x="175.5" y="-79" font-family="Helvetica,sans-Serif" font-size="10.00" fill="#000000"> +ID</text>
</g>
<!-- Node3 -->
<g id="node3" class="node">
<title>Node3</title>
<g id="a_node3"><a xlink:href="structStrongType.html" target="_top" xlink:title="{StrongType\&lt; WeakType,\l typename \&gt;\n|&#45; m_Data\l|+ StrongType()\l+ StrongType()\l+ StrongType()\l+ operator=()\l+ operator=()\l+ operator=()\l+ operator=()\l+ StrongType()\l+ get()\l+ get()\l}">
<polygon fill="none" stroke="#000000" points="4.5,-331.5 4.5,-498.5 138.5,-498.5 138.5,-331.5 4.5,-331.5"/>
<text text-anchor="start" x="12.5" y="-486.5" font-family="Helvetica,sans-Serif" font-size="10.00" fill="#000000">StrongType&lt; WeakType,</text>
<text text-anchor="middle" x="71.5" y="-475.5" font-family="Helvetica,sans-Serif" font-size="10.00" fill="#000000"> typename &gt;</text>
<polyline fill="none" stroke="#000000" points="4.5,-468.5 138.5,-468.5 "/>
<text text-anchor="start" x="12.5" y="-456.5" font-family="Helvetica,sans-Serif" font-size="10.00" fill="#000000">&#45; m_Data</text>
<polyline fill="none" stroke="#000000" points="4.5,-449.5 138.5,-449.5 "/>
<text text-anchor="start" x="12.5" y="-437.5" font-family="Helvetica,sans-Serif" font-size="10.00" fill="#000000">+ StrongType()</text>
<text text-anchor="start" x="12.5" y="-426.5" font-family="Helvetica,sans-Serif" font-size="10.00" fill="#000000">+ StrongType()</text>
<text text-anchor="start" x="12.5" y="-415.5" font-family="Helvetica,sans-Serif" font-size="10.00" fill="#000000">+ StrongType()</text>
<text text-anchor="start" x="12.5" y="-404.5" font-family="Helvetica,sans-Serif" font-size="10.00" fill="#000000">+ operator=()</text>
<text text-anchor="start" x="12.5" y="-393.5" font-family="Helvetica,sans-Serif" font-size="10.00" fill="#000000">+ operator=()</text>
<text text-anchor="start" x="12.5" y="-382.5" font-family="Helvetica,sans-Serif" font-size="10.00" fill="#000000">+ operator=()</text>
<text text-anchor="start" x="12.5" y="-371.5" font-family="Helvetica,sans-Serif" font-size="10.00" fill="#000000">+ operator=()</text>
<text text-anchor="start" x="12.5" y="-360.5" font-family="Helvetica,sans-Serif" font-size="10.00" fill="#000000">+ StrongType()</text>
<text text-anchor="start" x="12.5" y="-349.5" font-family="Helvetica,sans-Serif" font-size="10.00" fill="#000000">+ get()</text>
<text text-anchor="start" x="12.5" y="-338.5" font-family="Helvetica,sans-Serif" font-size="10.00" fill="#000000">+ get()</text>
</a>
</g>
</g>
<!-- Node3&#45;&gt;Node2 -->
<g id="edge2" class="edge">
<title>Node3&#45;&gt;Node2</title>
<path fill="none" stroke="#ffa500" d="M71.5,-321.4721C71.5,-305.2514 71.5,-288.4787 71.5,-272.5458"/>
<polygon fill="#ffa500" stroke="#ffa500" points="68.0001,-321.488 71.5,-331.488 75.0001,-321.4881 68.0001,-321.488"/>
<text text-anchor="start" x="71.5" y="-305" font-family="Helvetica,sans-Serif" font-size="10.00" fill="#000000"> &lt; string, struct Soundtrack</text>
<text text-anchor="middle" x="138.5" y="-294" font-family="Helvetica,sans-Serif" font-size="10.00" fill="#000000">IDTag &gt;</text>
</g>
<!-- Node4 -->
<g id="node4" class="node">
<title>Node4</title>
<g id="a_node4"><a xlink:href="structCoordinate3D.html" target="_top" xlink:title="a 3&#45;dimensional coordinate ">
<polygon fill="none" stroke="#000000" points="161,-149.5 161,-228.5 244,-228.5 244,-149.5 161,-149.5"/>
<text text-anchor="middle" x="202.5" y="-216.5" font-family="Helvetica,sans-Serif" font-size="10.00" fill="#000000">Coordinate3D</text>
<polyline fill="none" stroke="#000000" points="161,-209.5 244,-209.5 "/>
<text text-anchor="start" x="169" y="-197.5" font-family="Helvetica,sans-Serif" font-size="10.00" fill="#000000">+ x</text>
<text text-anchor="start" x="169" y="-186.5" font-family="Helvetica,sans-Serif" font-size="10.00" fill="#000000">+ y</text>
<text text-anchor="start" x="169" y="-175.5" font-family="Helvetica,sans-Serif" font-size="10.00" fill="#000000">+ z</text>
<polyline fill="none" stroke="#000000" points="161,-168.5 244,-168.5 "/>
<text text-anchor="middle" x="202.5" y="-156.5" font-family="Helvetica,sans-Serif" font-size="10.00" fill="#000000"> </text>
</a>
</g>
</g>
<!-- Node4&#45;&gt;Node1 -->
<g id="edge3" class="edge">
<title>Node4&#45;&gt;Node1</title>
<path fill="none" stroke="#404040" d="M202.5,-149.4494C202.5,-125.1779 202.5,-94.1652 202.5,-69.6873"/>
<polygon fill="none" stroke="#404040" points="202.5001,-69.5529 198.5,-63.5529 202.5,-57.5529 206.5,-63.5529 202.5001,-69.5529"/>
<text text-anchor="middle" x="228" y="-79" font-family="Helvetica,sans-Serif" font-size="10.00" fill="#000000"> +position</text>
</g>
<!-- Node5 -->
<g id="node5" class="node">
<title>Node5</title>
<g id="a_node5"><a xlink:href="structEchoProperties.html" target="_top" xlink:title="an echo effect ">
<polygon fill="none" stroke="#000000" points="262,-138.5 262,-239.5 365,-239.5 365,-138.5 262,-138.5"/>
<text text-anchor="middle" x="313.5" y="-227.5" font-family="Helvetica,sans-Serif" font-size="10.00" fill="#000000">EchoProperties</text>
<polyline fill="none" stroke="#000000" points="262,-220.5 365,-220.5 "/>
<text text-anchor="start" x="270" y="-208.5" font-family="Helvetica,sans-Serif" font-size="10.00" fill="#000000">+ flEchoDelay</text>
<text text-anchor="start" x="270" y="-197.5" font-family="Helvetica,sans-Serif" font-size="10.00" fill="#000000">+ flEchoLRDelay</text>
<text text-anchor="start" x="270" y="-186.5" font-family="Helvetica,sans-Serif" font-size="10.00" fill="#000000">+ flEchoDamping</text>
<text text-anchor="start" x="270" y="-175.5" font-family="Helvetica,sans-Serif" font-size="10.00" fill="#000000">+ flEchoFeedback</text>
<text text-anchor="start" x="270" y="-164.5" font-family="Helvetica,sans-Serif" font-size="10.00" fill="#000000">+ flEchoSpread</text>
<polyline fill="none" stroke="#000000" points="262,-157.5 365,-157.5 "/>
<text text-anchor="middle" x="313.5" y="-145.5" font-family="Helvetica,sans-Serif" font-size="10.00" fill="#000000"> </text>
</a>
</g>
</g>
<!-- Node5&#45;&gt;Node1 -->
<g id="edge4" class="edge">
<title>Node5&#45;&gt;Node1</title>
<path fill="none" stroke="#404040" d="M293.6921,-138.3519C284.3842,-117.8927 272.1006,-94.7396 257.5,-76 254.9128,-72.6793 252.0602,-69.4225 249.0563,-66.2698"/>
<polygon fill="none" stroke="#404040" points="248.8647,-66.0826 241.7781,-64.7485 240.2839,-57.6938 247.3706,-59.0279 248.8647,-66.0826"/>
<text text-anchor="middle" x="308.5" y="-79" font-family="Helvetica,sans-Serif" font-size="10.00" fill="#000000"> +echo_properties</text>
</g>
</g>
</svg>
