<?xml version="1.0" encoding="UTF-8" standalone="no"?>
<!DOCTYPE svg PUBLIC "-//W3C//DTD SVG 1.1//EN"
 "http://www.w3.org/Graphics/SVG/1.1/DTD/svg11.dtd">
<!-- Generated by graphviz version 2.40.1 (20161225.0304)
 -->
<!-- Title: UIMQDispatcher&lt; DataArgs &gt; Pages: 1 -->
<!--zoomable 873 -->
<svg id="main" version="1.1" xmlns="http://www.w3.org/2000/svg" xmlns:xlink="http://www.w3.org/1999/xlink" xml:space="preserve" onload="init(evt)">
<style type="text/css"><![CDATA[
.edge:hover path { stroke: red; }
.edge:hover polygon { stroke: red; fill: red; }
]]></style>
<script type="text/javascript"><![CDATA[
var edges = document.getElementsByTagName('g');
if (edges && edges.length) {
  for (var i=0;i<edges.length;i++) {
    if (edges[i].id.substr(0,4)=='edge') {
      edges[i].setAttribute('class','edge');
    }
  }
}
]]></script>
        <defs>
                <circle id="rim" cx="0" cy="0" r="7"/>
                <circle id="rim2" cx="0" cy="0" r="3.5"/>
                <g id="zoomPlus">
                        <use xlink:href="#rim" fill="#404040">
                                <set attributeName="fill" to="#808080" begin="zoomplus.mouseover" end="zoomplus.mouseout"/>
                        </use>
                        <path d="M-4,0h8M0,-4v8" fill="none" stroke="white" stroke-width="1.5" pointer-events="none"/>
                </g>
                <g id="zoomMin">
                        <use xlink:href="#rim" fill="#404040">
                                <set attributeName="fill" to="#808080" begin="zoomminus.mouseover" end="zoomminus.mouseout"/>
                        </use>
                        <path d="M-4,0h8" fill="none" stroke="white" stroke-width="1.5" pointer-events="none"/>
                </g>
                <g id="dirArrow">
                        <path fill="none" stroke="white" stroke-width="1.5" d="M0,-3.0v7 M-2.5,-0.5L0,-3.0L2.5,-0.5"/>
                </g>
               <g id="resetDef">
                       <use xlink:href="#rim2" fill="#404040">
                               <set attributeName="fill" to="#808080" begin="reset.mouseover" end="reset.mouseout"/>
                       </use>
               </g>
        </defs>

<script type="text/javascript">
var viewWidth = 621;
var viewHeight = 873;
var sectionId = 'dynsection-0';
</script>
<script xlink:href="svgpan.js"/>
<svg id="graph" class="graph">
<g id="viewport">
<title>UIMQDispatcher&lt; DataArgs &gt;</title>
<!-- Node0 -->
<g id="node1" class="node">
<title>Node0</title>
<polygon fill="#bfbfbf" stroke="#000000" points="172,-807.5 172,-864.5 335,-864.5 335,-807.5 172,-807.5"/>
<text text-anchor="middle" x="253.5" y="-852.5" font-family="Helvetica,sans-Serif" font-size="10.00" fill="#000000">UIMQDispatcher&lt; DataArgs &gt;</text>
<polyline fill="none" stroke="#000000" points="172,-845.5 335,-845.5 "/>
<text text-anchor="start" x="180" y="-833.5" font-family="Helvetica,sans-Serif" font-size="10.00" fill="#000000">+ loop</text>
<polyline fill="none" stroke="#000000" points="172,-826.5 335,-826.5 "/>
<text text-anchor="start" x="180" y="-814.5" font-family="Helvetica,sans-Serif" font-size="10.00" fill="#000000">+ dispatch()</text>
</g>
<!-- Node1 -->
<g id="node2" class="node">
<title>Node1</title>
<g id="a_node2"><a xlink:href="structUIMQDispatcher.html" target="_top" xlink:title="{UIMQDispatcher\&lt; VariantType\l\&lt; MouseStateNotification \&gt; \&gt;\n|+ loop\l|+ dispatch()\l}">
<polygon fill="none" stroke="#000000" points="8.5,-680.5 8.5,-748.5 172.5,-748.5 172.5,-680.5 8.5,-680.5"/>
<text text-anchor="start" x="16.5" y="-736.5" font-family="Helvetica,sans-Serif" font-size="10.00" fill="#000000">UIMQDispatcher&lt; VariantType</text>
<text text-anchor="middle" x="90.5" y="-725.5" font-family="Helvetica,sans-Serif" font-size="10.00" fill="#000000">&lt; MouseStateNotification &gt; &gt;</text>
<polyline fill="none" stroke="#000000" points="8.5,-718.5 172.5,-718.5 "/>
<text text-anchor="start" x="16.5" y="-706.5" font-family="Helvetica,sans-Serif" font-size="10.00" fill="#000000">+ loop</text>
<polyline fill="none" stroke="#000000" points="8.5,-699.5 172.5,-699.5 "/>
<text text-anchor="start" x="16.5" y="-687.5" font-family="Helvetica,sans-Serif" font-size="10.00" fill="#000000">+ dispatch()</text>
</a>
</g>
</g>
<!-- Node0&#45;&gt;Node1 -->
<g id="edge1" class="edge">
<title>Node0&#45;&gt;Node1</title>
<path fill="none" stroke="#ffa500" d="M161.9288,-814.3412C137.6902,-806.9353 115.918,-798.1851 107.5,-789 97.5505,-778.1439 93.033,-762.6958 91.1075,-748.6788"/>
<polygon fill="#ffa500" stroke="#ffa500" points="161.1047,-817.747 171.6862,-817.2172 163.0838,-811.0326 161.1047,-817.747"/>
<text text-anchor="start" x="107.5" y="-781" font-family="Helvetica,sans-Serif" font-size="10.00" fill="#000000"> &lt; VariantType&lt; MouseState</text>
<text text-anchor="middle" x="177.5" y="-770" font-family="Helvetica,sans-Serif" font-size="10.00" fill="#000000">Notification &gt; &gt;</text>
</g>
<!-- Node5 -->
<g id="node6" class="node">
<title>Node5</title>
<g id="a_node6"><a xlink:href="structUIMQDispatcher.html" target="_top" xlink:title="{UIMQDispatcher\&lt; VariantType\l\&lt; DataList \&gt; \&gt;\n|+ loop\l|+ dispatch()\l}">
<polygon fill="none" stroke="#000000" points="190.5,-680.5 190.5,-748.5 354.5,-748.5 354.5,-680.5 190.5,-680.5"/>
<text text-anchor="start" x="198.5" y="-736.5" font-family="Helvetica,sans-Serif" font-size="10.00" fill="#000000">UIMQDispatcher&lt; VariantType</text>
<text text-anchor="middle" x="272.5" y="-725.5" font-family="Helvetica,sans-Serif" font-size="10.00" fill="#000000">&lt; DataList &gt; &gt;</text>
<polyline fill="none" stroke="#000000" points="190.5,-718.5 354.5,-718.5 "/>
<text text-anchor="start" x="198.5" y="-706.5" font-family="Helvetica,sans-Serif" font-size="10.00" fill="#000000">+ loop</text>
<polyline fill="none" stroke="#000000" points="190.5,-699.5 354.5,-699.5 "/>
<text text-anchor="start" x="198.5" y="-687.5" font-family="Helvetica,sans-Serif" font-size="10.00" fill="#000000">+ dispatch()</text>
</a>
</g>
</g>
<!-- Node0&#45;&gt;Node5 -->
<g id="edge5" class="edge">
<title>Node0&#45;&gt;Node5</title>
<path fill="none" stroke="#ffa500" d="M251.9198,-797.2547C252.1,-787.3345 252.8069,-776.7235 254.5,-767 255.5578,-760.9247 257.2118,-754.6059 259.0976,-748.5449"/>
<polygon fill="#ffa500" stroke="#ffa500" points="248.4199,-797.2708 251.9035,-807.2765 255.4199,-797.2823 248.4199,-797.2708"/>
<text text-anchor="middle" x="327.5" y="-775.5" font-family="Helvetica,sans-Serif" font-size="10.00" fill="#000000"> &lt; VariantType&lt; DataList &gt; &gt;</text>
</g>
<!-- Node10 -->
<g id="node11" class="node">
<title>Node10</title>
<g id="a_node11"><a xlink:href="structUIMQDispatcher.html" target="_top" xlink:title="{UIMQDispatcher\&lt; VariantType\l\&lt; ButtonNotifications \&gt; \&gt;\n|+ loop\l|+ dispatch()\l}">
<polygon fill="none" stroke="#000000" points="339.5,-593.5 339.5,-661.5 503.5,-661.5 503.5,-593.5 339.5,-593.5"/>
<text text-anchor="start" x="347.5" y="-649.5" font-family="Helvetica,sans-Serif" font-size="10.00" fill="#000000">UIMQDispatcher&lt; VariantType</text>
<text text-anchor="middle" x="421.5" y="-638.5" font-family="Helvetica,sans-Serif" font-size="10.00" fill="#000000">&lt; ButtonNotifications &gt; &gt;</text>
<polyline fill="none" stroke="#000000" points="339.5,-631.5 503.5,-631.5 "/>
<text text-anchor="start" x="347.5" y="-619.5" font-family="Helvetica,sans-Serif" font-size="10.00" fill="#000000">+ loop</text>
<polyline fill="none" stroke="#000000" points="339.5,-612.5 503.5,-612.5 "/>
<text text-anchor="start" x="347.5" y="-600.5" font-family="Helvetica,sans-Serif" font-size="10.00" fill="#000000">+ dispatch()</text>
</a>
</g>
</g>
<!-- Node0&#45;&gt;Node10 -->
<g id="edge11" class="edge">
<title>Node0&#45;&gt;Node10</title>
<path fill="none" stroke="#ffa500" d="M344.8663,-815.2847C369.8495,-807.8252 392.319,-798.8055 400.5,-789 430.1154,-753.5037 430.4677,-697.4722 426.8558,-661.6151"/>
<polygon fill="#ffa500" stroke="#ffa500" points="343.8365,-811.9389 335.1928,-818.0657 345.7706,-818.6665 343.8365,-811.9389"/>
<text text-anchor="middle" x="513" y="-775.5" font-family="Helvetica,sans-Serif" font-size="10.00" fill="#000000"> &lt; VariantType&lt; ButtonNotifications &gt; &gt;</text>
</g>
<!-- Node2 -->
<g id="node3" class="node">
<title>Node2</title>
<g id="a_node3"><a xlink:href="classSubject.html" target="_top" xlink:title="{Subject\&lt; VariantType\l\&lt; MouseStateNotification\l \&gt;, UIMQDispatcher\&lt; VariantType\l\&lt; MouseStateNotification \&gt; \&gt; \&gt;\n|&#45; m_Observers\l|+ addObserver()\l# Subject()\l# notifyObservers()\l# ~Subject()\l# mustNotify()\l}">
<polygon fill="none" stroke="#000000" points="0,-298.5 0,-432.5 181,-432.5 181,-298.5 0,-298.5"/>
<text text-anchor="start" x="8" y="-420.5" font-family="Helvetica,sans-Serif" font-size="10.00" fill="#000000">Subject&lt; VariantType</text>
<text text-anchor="start" x="8" y="-409.5" font-family="Helvetica,sans-Serif" font-size="10.00" fill="#000000">&lt; MouseStateNotification</text>
<text text-anchor="start" x="8" y="-398.5" font-family="Helvetica,sans-Serif" font-size="10.00" fill="#000000"> &gt;, UIMQDispatcher&lt; VariantType</text>
<text text-anchor="middle" x="90.5" y="-387.5" font-family="Helvetica,sans-Serif" font-size="10.00" fill="#000000">&lt; MouseStateNotification &gt; &gt; &gt;</text>
<polyline fill="none" stroke="#000000" points="0,-380.5 181,-380.5 "/>
<text text-anchor="start" x="8" y="-368.5" font-family="Helvetica,sans-Serif" font-size="10.00" fill="#000000">&#45; m_Observers</text>
<polyline fill="none" stroke="#000000" points="0,-361.5 181,-361.5 "/>
<text text-anchor="start" x="8" y="-349.5" font-family="Helvetica,sans-Serif" font-size="10.00" fill="#000000">+ addObserver()</text>
<text text-anchor="start" x="8" y="-338.5" font-family="Helvetica,sans-Serif" font-size="10.00" fill="#000000"># Subject()</text>
<text text-anchor="start" x="8" y="-327.5" font-family="Helvetica,sans-Serif" font-size="10.00" fill="#000000"># notifyObservers()</text>
<text text-anchor="start" x="8" y="-316.5" font-family="Helvetica,sans-Serif" font-size="10.00" fill="#000000"># ~Subject()</text>
<text text-anchor="start" x="8" y="-305.5" font-family="Helvetica,sans-Serif" font-size="10.00" fill="#000000"># mustNotify()</text>
</a>
</g>
</g>
<!-- Node1&#45;&gt;Node2 -->
<g id="edge2" class="edge">
<title>Node1&#45;&gt;Node2</title>
<path fill="none" stroke="#8b1a1a" d="M90.5,-670.1309C90.5,-610.1614 90.5,-502.7116 90.5,-432.7786"/>
<polygon fill="none" stroke="#8b1a1a" points="87.0001,-670.4009 90.5,-680.401 94.0001,-670.401 87.0001,-670.4009"/>
</g>
<!-- Node3 -->
<g id="node4" class="node">
<title>Node3</title>
<g id="a_node4"><a xlink:href="structDataModel.html" target="_top" xlink:title="{DataModel\&lt; MouseStateNotification \&gt;\n||+ DataModel()\l}">
<polygon fill="none" stroke="#000000" points="5,-117.5 5,-174.5 210,-174.5 210,-117.5 5,-117.5"/>
<text text-anchor="middle" x="107.5" y="-162.5" font-family="Helvetica,sans-Serif" font-size="10.00" fill="#000000">DataModel&lt; MouseStateNotification &gt;</text>
<polyline fill="none" stroke="#000000" points="5,-155.5 210,-155.5 "/>
<text text-anchor="middle" x="107.5" y="-143.5" font-family="Helvetica,sans-Serif" font-size="10.00" fill="#000000"> </text>
<polyline fill="none" stroke="#000000" points="5,-136.5 210,-136.5 "/>
<text text-anchor="start" x="13" y="-124.5" font-family="Helvetica,sans-Serif" font-size="10.00" fill="#000000">+ DataModel()</text>
</a>
</g>
</g>
<!-- Node2&#45;&gt;Node3 -->
<g id="edge3" class="edge">
<title>Node2&#45;&gt;Node3</title>
<path fill="none" stroke="#191970" d="M96.4779,-288.3151C99.5296,-248.9114 103.0584,-203.3495 105.2844,-174.6078"/>
<polygon fill="none" stroke="#191970" points="92.9756,-288.2096 95.6929,-298.4501 99.9547,-288.7502 92.9756,-288.2096"/>
</g>
<!-- Node4 -->
<g id="node5" class="node">
<title>Node4</title>
<g id="a_node5"><a xlink:href="classMouseState.html" target="_top" xlink:title="{MouseState\n|&#45; m_Model\l|+ setPosition()\l+ setCursor()\l+ ~MouseState()\l}">
<polygon fill="none" stroke="#000000" points="57,-.5 57,-79.5 158,-79.5 158,-.5 57,-.5"/>
<text text-anchor="middle" x="107.5" y="-67.5" font-family="Helvetica,sans-Serif" font-size="10.00" fill="#000000">MouseState</text>
<polyline fill="none" stroke="#000000" points="57,-60.5 158,-60.5 "/>
<text text-anchor="start" x="65" y="-48.5" font-family="Helvetica,sans-Serif" font-size="10.00" fill="#000000">&#45; m_Model</text>
<polyline fill="none" stroke="#000000" points="57,-41.5 158,-41.5 "/>
<text text-anchor="start" x="65" y="-29.5" font-family="Helvetica,sans-Serif" font-size="10.00" fill="#000000">+ setPosition()</text>
<text text-anchor="start" x="65" y="-18.5" font-family="Helvetica,sans-Serif" font-size="10.00" fill="#000000">+ setCursor()</text>
<text text-anchor="start" x="65" y="-7.5" font-family="Helvetica,sans-Serif" font-size="10.00" fill="#000000">+ ~MouseState()</text>
</a>
</g>
</g>
<!-- Node3&#45;&gt;Node4 -->
<g id="edge4" class="edge">
<title>Node3&#45;&gt;Node4</title>
<path fill="none" stroke="#191970" d="M107.5,-107.1908C107.5,-98.2839 107.5,-88.7999 107.5,-79.8499"/>
<polygon fill="none" stroke="#191970" points="104.0001,-107.3148 107.5,-117.3149 111.0001,-107.3149 104.0001,-107.3148"/>
</g>
<!-- Node6 -->
<g id="node7" class="node">
<title>Node6</title>
<g id="a_node7"><a xlink:href="classSubject.html" target="_top" xlink:title="{Subject\&lt; VariantType\l\&lt; DataList \&gt;, UIMQDispatcher\l\&lt; VariantType\&lt; DataList \&gt; \&gt; \&gt;\n|&#45; m_Observers\l|+ addObserver()\l# Subject()\l# notifyObservers()\l# ~Subject()\l# mustNotify()\l}">
<polygon fill="none" stroke="#000000" points="187.5,-451.5 187.5,-574.5 357.5,-574.5 357.5,-451.5 187.5,-451.5"/>
<text text-anchor="start" x="195.5" y="-562.5" font-family="Helvetica,sans-Serif" font-size="10.00" fill="#000000">Subject&lt; VariantType</text>
<text text-anchor="start" x="195.5" y="-551.5" font-family="Helvetica,sans-Serif" font-size="10.00" fill="#000000">&lt; DataList &gt;, UIMQDispatcher</text>
<text text-anchor="middle" x="272.5" y="-540.5" font-family="Helvetica,sans-Serif" font-size="10.00" fill="#000000">&lt; VariantType&lt; DataList &gt; &gt; &gt;</text>
<polyline fill="none" stroke="#000000" points="187.5,-533.5 357.5,-533.5 "/>
<text text-anchor="start" x="195.5" y="-521.5" font-family="Helvetica,sans-Serif" font-size="10.00" fill="#000000">&#45; m_Observers</text>
<polyline fill="none" stroke="#000000" points="187.5,-514.5 357.5,-514.5 "/>
<text text-anchor="start" x="195.5" y="-502.5" font-family="Helvetica,sans-Serif" font-size="10.00" fill="#000000">+ addObserver()</text>
<text text-anchor="start" x="195.5" y="-491.5" font-family="Helvetica,sans-Serif" font-size="10.00" fill="#000000"># Subject()</text>
<text text-anchor="start" x="195.5" y="-480.5" font-family="Helvetica,sans-Serif" font-size="10.00" fill="#000000"># notifyObservers()</text>
<text text-anchor="start" x="195.5" y="-469.5" font-family="Helvetica,sans-Serif" font-size="10.00" fill="#000000"># ~Subject()</text>
<text text-anchor="start" x="195.5" y="-458.5" font-family="Helvetica,sans-Serif" font-size="10.00" fill="#000000"># mustNotify()</text>
</a>
</g>
</g>
<!-- Node5&#45;&gt;Node6 -->
<g id="edge6" class="edge">
<title>Node5&#45;&gt;Node6</title>
<path fill="none" stroke="#8b1a1a" d="M272.5,-670.0336C272.5,-642.0299 272.5,-605.4839 272.5,-574.6952"/>
<polygon fill="none" stroke="#8b1a1a" points="269.0001,-670.3182 272.5,-680.3183 276.0001,-670.3183 269.0001,-670.3182"/>
</g>
<!-- Node7 -->
<g id="node8" class="node">
<title>Node7</title>
<g id="a_node8"><a xlink:href="structDataModel.html" target="_top" xlink:title="{DataModel\&lt; DataList \&gt;\n||+ DataModel()\l}">
<polygon fill="none" stroke="#000000" points="206.5,-222.5 206.5,-279.5 338.5,-279.5 338.5,-222.5 206.5,-222.5"/>
<text text-anchor="middle" x="272.5" y="-267.5" font-family="Helvetica,sans-Serif" font-size="10.00" fill="#000000">DataModel&lt; DataList &gt;</text>
<polyline fill="none" stroke="#000000" points="206.5,-260.5 338.5,-260.5 "/>
<text text-anchor="middle" x="272.5" y="-248.5" font-family="Helvetica,sans-Serif" font-size="10.00" fill="#000000"> </text>
<polyline fill="none" stroke="#000000" points="206.5,-241.5 338.5,-241.5 "/>
<text text-anchor="start" x="214.5" y="-229.5" font-family="Helvetica,sans-Serif" font-size="10.00" fill="#000000">+ DataModel()</text>
</a>
</g>
</g>
<!-- Node6&#45;&gt;Node7 -->
<g id="edge7" class="edge">
<title>Node6&#45;&gt;Node7</title>
<path fill="none" stroke="#191970" d="M272.5,-441.1727C272.5,-387.9685 272.5,-318.278 272.5,-279.7498"/>
<polygon fill="none" stroke="#191970" points="269.0001,-441.2414 272.5,-451.2414 276.0001,-441.2415 269.0001,-441.2414"/>
</g>
<!-- Node7&#45;&gt;Node3 -->
<g id="edge8" class="edge">
<title>Node7&#45;&gt;Node3</title>
<path fill="none" stroke="#ffa500" d="M196.7365,-235.2006C176.1853,-228.1951 155.0629,-218.1972 138.5,-204 129.3979,-196.1979 122.5473,-185.0388 117.6325,-174.5889"/>
<polygon fill="#ffa500" stroke="#ffa500" points="195.8462,-238.5905 206.4372,-238.3086 197.982,-231.9243 195.8462,-238.5905"/>
<text text-anchor="middle" x="208" y="-196" font-family="Helvetica,sans-Serif" font-size="10.00" fill="#000000"> &lt; MouseStateNotification &gt;</text>
</g>
<!-- Node8 -->
<g id="node9" class="node">
<title>Node8</title>
<g id="a_node9"><a xlink:href="structDataModel.html" target="_top" xlink:title="{DataModel\&lt; ButtonNotifications \&gt;\n||+ DataModel()\l}">
<polygon fill="none" stroke="#000000" points="278,-117.5 278,-174.5 463,-174.5 463,-117.5 278,-117.5"/>
<text text-anchor="middle" x="370.5" y="-162.5" font-family="Helvetica,sans-Serif" font-size="10.00" fill="#000000">DataModel&lt; ButtonNotifications &gt;</text>
<polyline fill="none" stroke="#000000" points="278,-155.5 463,-155.5 "/>
<text text-anchor="middle" x="370.5" y="-143.5" font-family="Helvetica,sans-Serif" font-size="10.00" fill="#000000"> </text>
<polyline fill="none" stroke="#000000" points="278,-136.5 463,-136.5 "/>
<text text-anchor="start" x="286" y="-124.5" font-family="Helvetica,sans-Serif" font-size="10.00" fill="#000000">+ DataModel()</text>
</a>
</g>
</g>
<!-- Node7&#45;&gt;Node8 -->
<g id="edge9" class="edge">
<title>Node7&#45;&gt;Node8</title>
<path fill="none" stroke="#ffa500" d="M277.8717,-212.3428C280.0715,-205.4397 283.1619,-198.6556 287.5,-193 292.8416,-186.0361 299.5289,-179.9411 306.7759,-174.6538"/>
<polygon fill="#ffa500" stroke="#ffa500" points="274.3794,-211.8646 275.2442,-222.4241 281.1531,-213.6301 274.3794,-211.8646"/>
<text text-anchor="middle" x="347.5" y="-196" font-family="Helvetica,sans-Serif" font-size="10.00" fill="#000000"> &lt; ButtonNotifications &gt;</text>
</g>
<!-- Node9 -->
<g id="node10" class="node">
<title>Node9</title>
<g id="a_node10"><a xlink:href="classButtonState.html" target="_top" xlink:title="{ButtonState\n|&#45; m_Status\l|+ setStatus()\l+ ~ButtonState()\l}">
<polygon fill="none" stroke="#000000" points="320,-6 320,-74 421,-74 421,-6 320,-6"/>
<text text-anchor="middle" x="370.5" y="-62" font-family="Helvetica,sans-Serif" font-size="10.00" fill="#000000">ButtonState</text>
<polyline fill="none" stroke="#000000" points="320,-55 421,-55 "/>
<text text-anchor="start" x="328" y="-43" font-family="Helvetica,sans-Serif" font-size="10.00" fill="#000000">&#45; m_Status</text>
<polyline fill="none" stroke="#000000" points="320,-36 421,-36 "/>
<text text-anchor="start" x="328" y="-24" font-family="Helvetica,sans-Serif" font-size="10.00" fill="#000000">+ setStatus()</text>
<text text-anchor="start" x="328" y="-13" font-family="Helvetica,sans-Serif" font-size="10.00" fill="#000000">+ ~ButtonState()</text>
</a>
</g>
</g>
<!-- Node8&#45;&gt;Node9 -->
<g id="edge10" class="edge">
<title>Node8&#45;&gt;Node9</title>
<path fill="none" stroke="#191970" d="M370.5,-107.302C370.5,-96.5183 370.5,-84.8808 370.5,-74.3648"/>
<polygon fill="none" stroke="#191970" points="367.0001,-107.3148 370.5,-117.3149 374.0001,-107.3149 367.0001,-107.3148"/>
</g>
<!-- Node11 -->
<g id="node12" class="node">
<title>Node11</title>
<g id="a_node12"><a xlink:href="classSubject.html" target="_top" xlink:title="{Subject\&lt; VariantType\l\&lt; ButtonNotifications\l \&gt;, UIMQDispatcher\&lt; VariantType\l\&lt; ButtonNotifications \&gt; \&gt; \&gt;\n|&#45; m_Observers\l|+ addObserver()\l# Subject()\l# notifyObservers()\l# ~Subject()\l# mustNotify()\l}">
<polygon fill="none" stroke="#000000" points="331,-298.5 331,-432.5 512,-432.5 512,-298.5 331,-298.5"/>
<text text-anchor="start" x="339" y="-420.5" font-family="Helvetica,sans-Serif" font-size="10.00" fill="#000000">Subject&lt; VariantType</text>
<text text-anchor="start" x="339" y="-409.5" font-family="Helvetica,sans-Serif" font-size="10.00" fill="#000000">&lt; ButtonNotifications</text>
<text text-anchor="start" x="339" y="-398.5" font-family="Helvetica,sans-Serif" font-size="10.00" fill="#000000"> &gt;, UIMQDispatcher&lt; VariantType</text>
<text text-anchor="middle" x="421.5" y="-387.5" font-family="Helvetica,sans-Serif" font-size="10.00" fill="#000000">&lt; ButtonNotifications &gt; &gt; &gt;</text>
<polyline fill="none" stroke="#000000" points="331,-380.5 512,-380.5 "/>
<text text-anchor="start" x="339" y="-368.5" font-family="Helvetica,sans-Serif" font-size="10.00" fill="#000000">&#45; m_Observers</text>
<polyline fill="none" stroke="#000000" points="331,-361.5 512,-361.5 "/>
<text text-anchor="start" x="339" y="-349.5" font-family="Helvetica,sans-Serif" font-size="10.00" fill="#000000">+ addObserver()</text>
<text text-anchor="start" x="339" y="-338.5" font-family="Helvetica,sans-Serif" font-size="10.00" fill="#000000"># Subject()</text>
<text text-anchor="start" x="339" y="-327.5" font-family="Helvetica,sans-Serif" font-size="10.00" fill="#000000"># notifyObservers()</text>
<text text-anchor="start" x="339" y="-316.5" font-family="Helvetica,sans-Serif" font-size="10.00" fill="#000000"># ~Subject()</text>
<text text-anchor="start" x="339" y="-305.5" font-family="Helvetica,sans-Serif" font-size="10.00" fill="#000000"># mustNotify()</text>
</a>
</g>
</g>
<!-- Node10&#45;&gt;Node11 -->
<g id="edge12" class="edge">
<title>Node10&#45;&gt;Node11</title>
<path fill="none" stroke="#8b1a1a" d="M421.5,-583.2305C421.5,-541.9767 421.5,-479.8847 421.5,-432.5516"/>
<polygon fill="none" stroke="#8b1a1a" points="418.0001,-583.248 421.5,-593.2481 425.0001,-583.2481 418.0001,-583.248"/>
</g>
<!-- Node11&#45;&gt;Node8 -->
<g id="edge13" class="edge">
<title>Node11&#45;&gt;Node8</title>
<path fill="none" stroke="#191970" d="M424.711,-288.1697C423.5726,-257.6229 419.1852,-222.7782 407.5,-193 404.9963,-186.6197 401.3243,-180.4053 397.2528,-174.6953"/>
<polygon fill="none" stroke="#191970" points="421.217,-288.4461 424.9784,-298.3507 428.2146,-288.2623 421.217,-288.4461"/>
</g>
</g>
</svg>
        <g id="navigator" transform="translate(0 0)" fill="#404254">
                <rect fill="#f2f5e9" fill-opacity="0.5" stroke="#606060" stroke-width=".5" x="0" y="0" width="60" height="60"/>
                <use id="zoomplus" xlink:href="#zoomPlus" x="17" y="9" onmousedown="handleZoom(evt,'in')"/>
                <use id="zoomminus" xlink:href="#zoomMin" x="42" y="9" onmousedown="handleZoom(evt,'out')"/>
                <use id="reset" xlink:href="#resetDef" x="30" y="36" onmousedown="handleReset()"/>
                <g id="arrowUp" xlink:href="#dirArrow" transform="translate(30 24)" onmousedown="handlePan(0,-1)">
                  <use xlink:href="#rim" fill="#404040">
                        <set attributeName="fill" to="#808080" begin="arrowUp.mouseover" end="arrowUp.mouseout"/>
                  </use>
                  <path fill="none" stroke="white" stroke-width="1.5" d="M0,-3.0v7 M-2.5,-0.5L0,-3.0L2.5,-0.5"/>
                </g>
                <g id="arrowRight" xlink:href="#dirArrow" transform="rotate(90) translate(36 -43)" onmousedown="handlePan(1,0)">
                  <use xlink:href="#rim" fill="#404040">
                        <set attributeName="fill" to="#808080" begin="arrowRight.mouseover" end="arrowRight.mouseout"/>
                  </use>
                  <path fill="none" stroke="white" stroke-width="1.5" d="M0,-3.0v7 M-2.5,-0.5L0,-3.0L2.5,-0.5"/>
                </g>
                <g id="arrowDown" xlink:href="#dirArrow" transform="rotate(180) translate(-30 -48)" onmousedown="handlePan(0,1)">
                  <use xlink:href="#rim" fill="#404040">
                        <set attributeName="fill" to="#808080" begin="arrowDown.mouseover" end="arrowDown.mouseout"/>
                  </use>
                  <path fill="none" stroke="white" stroke-width="1.5" d="M0,-3.0v7 M-2.5,-0.5L0,-3.0L2.5,-0.5"/>
                </g>
                <g id="arrowLeft" xlink:href="#dirArrow" transform="rotate(270) translate(-36 17)" onmousedown="handlePan(-1,0)">
                  <use xlink:href="#rim" fill="#404040">
                        <set attributeName="fill" to="#808080" begin="arrowLeft.mouseover" end="arrowLeft.mouseout"/>
                  </use>
                  <path fill="none" stroke="white" stroke-width="1.5" d="M0,-3.0v7 M-2.5,-0.5L0,-3.0L2.5,-0.5"/>
                </g>
        </g>
        <svg viewBox="0 0 15 15" width="100%" height="30px" preserveAspectRatio="xMaxYMin meet">
         <g id="arrow_out" transform="scale(0.3 0.3)">
          <a xlink:href="structUIMQDispatcher__inherit__graph_org.svg" target="_base">
           <rect id="button" ry="5" rx="5" y="6" x="6" height="38" width="38"
                fill="#f2f5e9" fill-opacity="0.5" stroke="#606060" stroke-width="1.0"/>
           <path id="arrow"
             d="M 11.500037,31.436501 C 11.940474,20.09759 22.043105,11.32322 32.158766,21.979434 L 37.068811,17.246167 C 37.068811,17.246167 37.088388,32 37.088388,32 L 22.160133,31.978069 C 22.160133,31.978069 26.997745,27.140456 26.997745,27.140456 C 18.528582,18.264221 13.291696,25.230495 11.500037,31.436501 z"
             style="fill:#404040;"/>
          </a>
         </g>
        </svg>
</svg>
