<?xml version="1.0" encoding="UTF-8" standalone="no"?>
<!DOCTYPE svg PUBLIC "-//W3C//DTD SVG 1.1//EN"
 "http://www.w3.org/Graphics/SVG/1.1/DTD/svg11.dtd">
<!-- Generated by graphviz version 2.40.1 (20161225.0304)
 -->
<!-- Title: RGBAColor::blue Pages: 1 -->
<svg width="460pt" height="162pt"
 viewBox="0.00 0.00 460.00 161.84" xmlns="http://www.w3.org/2000/svg" xmlns:xlink="http://www.w3.org/1999/xlink">
<g id="graph0" class="graph" transform="scale(1 1) rotate(0) translate(4 157.8362)">
<title>RGBAColor::blue</title>
<!-- Node18 -->
<g id="node1" class="node">
<title>Node18</title>
<polygon fill="#bfbfbf" stroke="#000000" points="0,-76.5 0,-95.5 97,-95.5 97,-76.5 0,-76.5"/>
<text text-anchor="middle" x="48.5" y="-83.5" font-family="Helvetica,sans-Serif" font-size="10.00" fill="#000000">RGBAColor::blue</text>
</g>
<!-- Node19 -->
<g id="node2" class="node">
<title>Node19</title>
<g id="a_node2"><a xlink:href="structRGBAColor.html#ab27257376e621ff4a8862a90ddd1ffab" target="_top" xlink:title="RGBAColor::hue">
<polygon fill="none" stroke="#000000" points="148.5,-114.5 148.5,-133.5 242.5,-133.5 242.5,-114.5 148.5,-114.5"/>
<text text-anchor="middle" x="195.5" y="-121.5" font-family="Helvetica,sans-Serif" font-size="10.00" fill="#000000">RGBAColor::hue</text>
</a>
</g>
</g>
<!-- Node18&#45;&gt;Node19 -->
<g id="edge1" class="edge">
<title>Node18&#45;&gt;Node19</title>
<path fill="none" stroke="#191970" d="M95.3548,-98.1121C115.8276,-103.4044 139.4903,-109.5213 158.6724,-114.4799"/>
<polygon fill="#191970" stroke="#191970" points="96.152,-94.7032 85.5943,-95.589 94.4001,-101.4805 96.152,-94.7032"/>
</g>
<!-- Node20 -->
<g id="node3" class="node">
<title>Node20</title>
<g id="a_node3"><a xlink:href="structRGBAColor.html#a755420286bdcbf77dcd7511e9a28f806" target="_top" xlink:title="RGBAColor::RGBAColor">
<polygon fill="none" stroke="#000000" points="308.5,-114.5 308.5,-133.5 437.5,-133.5 437.5,-114.5 308.5,-114.5"/>
<text text-anchor="middle" x="373" y="-121.5" font-family="Helvetica,sans-Serif" font-size="10.00" fill="#000000">RGBAColor::RGBAColor</text>
</a>
</g>
</g>
<!-- Node18&#45;&gt;Node20 -->
<g id="edge12" class="edge">
<title>Node18&#45;&gt;Node20</title>
<path fill="none" stroke="#191970" d="M65.8672,-102.3357C81.8904,-116.2007 107.061,-135.0692 133,-143 205.5465,-165.181 295.8624,-146.3595 342.2852,-133.5263"/>
<polygon fill="#191970" stroke="#191970" points="68.153,-99.6844 58.3664,-95.6258 63.486,-104.9016 68.153,-99.6844"/>
</g>
<!-- Node22 -->
<g id="node5" class="node">
<title>Node22</title>
<g id="a_node5"><a xlink:href="structRGBAColor.html#ab835dd9b5967615be31d7087a0499607" target="_top" xlink:title="RGBAColor::lightness">
<polygon fill="none" stroke="#000000" points="135.5,-76.5 135.5,-95.5 255.5,-95.5 255.5,-76.5 135.5,-76.5"/>
<text text-anchor="middle" x="195.5" y="-83.5" font-family="Helvetica,sans-Serif" font-size="10.00" fill="#000000">RGBAColor::lightness</text>
</a>
</g>
</g>
<!-- Node18&#45;&gt;Node22 -->
<g id="edge4" class="edge">
<title>Node18&#45;&gt;Node22</title>
<path fill="none" stroke="#191970" d="M107.3291,-86C116.593,-86 126.1811,-86 135.4718,-86"/>
<polygon fill="#191970" stroke="#191970" points="107.0407,-82.5001 97.0407,-86 107.0407,-89.5001 107.0407,-82.5001"/>
</g>
<!-- Node23 -->
<g id="node6" class="node">
<title>Node23</title>
<g id="a_node6"><a xlink:href="structRGBAColor.html#a8de2a717601cc3fba0e65c6e4e7e1524" target="_top" xlink:title="RGBAColor::saturation">
<polygon fill="none" stroke="#000000" points="133,-38.5 133,-57.5 258,-57.5 258,-38.5 133,-38.5"/>
<text text-anchor="middle" x="195.5" y="-45.5" font-family="Helvetica,sans-Serif" font-size="10.00" fill="#000000">RGBAColor::saturation</text>
</a>
</g>
</g>
<!-- Node18&#45;&gt;Node23 -->
<g id="edge7" class="edge">
<title>Node18&#45;&gt;Node23</title>
<path fill="none" stroke="#191970" d="M95.3548,-73.8879C115.8276,-68.5956 139.4903,-62.4787 158.6724,-57.5201"/>
<polygon fill="#191970" stroke="#191970" points="94.4001,-70.5195 85.5943,-76.411 96.152,-77.2968 94.4001,-70.5195"/>
</g>
<!-- Node24 -->
<g id="node7" class="node">
<title>Node24</title>
<g id="a_node7"><a xlink:href="Color_8hxx.html#a66462eba8baae6dccf946e527f5b6a3a" target="_top" xlink:title="operator\&lt;\&lt;">
<polygon fill="none" stroke="#000000" points="158.5,-.5 158.5,-19.5 232.5,-19.5 232.5,-.5 158.5,-.5"/>
<text text-anchor="middle" x="195.5" y="-7.5" font-family="Helvetica,sans-Serif" font-size="10.00" fill="#000000">operator&lt;&lt;</text>
</a>
</g>
</g>
<!-- Node18&#45;&gt;Node24 -->
<g id="edge10" class="edge">
<title>Node18&#45;&gt;Node24</title>
<path fill="none" stroke="#191970" d="M68.4173,-70.0479C84.9194,-57.4685 109.4077,-40.2305 133,-29 140.9872,-25.1979 149.9094,-21.9488 158.4552,-19.2688"/>
<polygon fill="#191970" stroke="#191970" points="65.8763,-67.5898 60.1275,-76.4894 70.1714,-73.1173 65.8763,-67.5898"/>
</g>
<!-- Node19&#45;&gt;Node20 -->
<g id="edge2" class="edge">
<title>Node19&#45;&gt;Node20</title>
<path fill="none" stroke="#191970" d="M252.7816,-124C270.4933,-124 290.1258,-124 308.3024,-124"/>
<polygon fill="#191970" stroke="#191970" points="252.6008,-120.5001 242.6007,-124 252.6007,-127.5001 252.6008,-120.5001"/>
</g>
<!-- Node21 -->
<g id="node4" class="node">
<title>Node21</title>
<g id="a_node4"><a xlink:href="classPixelBuffer.html#a4967e7c476e99c2a5efb234c033657be" target="_top" xlink:title="Recolors magic pixels. ">
<polygon fill="none" stroke="#000000" points="294,-76.5 294,-95.5 452,-95.5 452,-76.5 294,-76.5"/>
<text text-anchor="middle" x="373" y="-83.5" font-family="Helvetica,sans-Serif" font-size="10.00" fill="#000000">PixelBuffer::colorMagicPixels</text>
</a>
</g>
</g>
<!-- Node19&#45;&gt;Node21 -->
<g id="edge3" class="edge">
<title>Node19&#45;&gt;Node21</title>
<path fill="none" stroke="#191970" d="M250.3969,-112.2474C275.4954,-106.8742 304.8428,-100.5914 328.5313,-95.5201"/>
<polygon fill="#191970" stroke="#191970" points="249.3365,-108.8951 240.2907,-114.411 250.8019,-115.74 249.3365,-108.8951"/>
</g>
<!-- Node22&#45;&gt;Node20 -->
<g id="edge5" class="edge">
<title>Node22&#45;&gt;Node20</title>
<path fill="none" stroke="#191970" d="M250.3969,-97.7526C275.4954,-103.1258 304.8428,-109.4086 328.5313,-114.4799"/>
<polygon fill="#191970" stroke="#191970" points="250.8019,-94.26 240.2907,-95.589 249.3365,-101.1049 250.8019,-94.26"/>
</g>
<!-- Node22&#45;&gt;Node21 -->
<g id="edge6" class="edge">
<title>Node22&#45;&gt;Node21</title>
<path fill="none" stroke="#191970" d="M265.8201,-86C275.0013,-86 284.4578,-86 293.7728,-86"/>
<polygon fill="#191970" stroke="#191970" points="265.5934,-82.5001 255.5934,-86 265.5934,-89.5001 265.5934,-82.5001"/>
</g>
<!-- Node23&#45;&gt;Node20 -->
<g id="edge8" class="edge">
<title>Node23&#45;&gt;Node20</title>
<path fill="none" stroke="#191970" d="M247.2665,-61.3646C251.0027,-63.0407 254.6239,-64.9125 258,-67 277.7875,-79.2347 273.8596,-93.3552 294,-105 300.7166,-108.8834 308.1937,-111.9752 315.7944,-114.4362"/>
<polygon fill="#191970" stroke="#191970" points="248.4015,-58.0491 237.8166,-57.5899 245.8049,-64.5497 248.4015,-58.0491"/>
</g>
<!-- Node23&#45;&gt;Node21 -->
<g id="edge9" class="edge">
<title>Node23&#45;&gt;Node21</title>
<path fill="none" stroke="#191970" d="M250.3969,-59.7526C275.4954,-65.1258 304.8428,-71.4086 328.5313,-76.4799"/>
<polygon fill="#191970" stroke="#191970" points="250.8019,-56.26 240.2907,-57.589 249.3365,-63.1049 250.8019,-56.26"/>
</g>
<!-- Node25 -->
<g id="node8" class="node">
<title>Node25</title>
<g id="a_node8"><a xlink:href="Color_8hxx.html#a20ab73b1995e8eb26e6e263687a467f8" target="_top" xlink:title="operator&quot;&quot;_rgba">
<polygon fill="none" stroke="#000000" points="326,-.5 326,-19.5 420,-19.5 420,-.5 326,-.5"/>
<text text-anchor="middle" x="373" y="-7.5" font-family="Helvetica,sans-Serif" font-size="10.00" fill="#000000">operator&quot;&quot;_rgba</text>
</a>
</g>
</g>
<!-- Node24&#45;&gt;Node25 -->
<g id="edge11" class="edge">
<title>Node24&#45;&gt;Node25</title>
<path fill="none" stroke="#191970" d="M242.932,-10C268.553,-10 300.088,-10 325.6901,-10"/>
<polygon fill="#191970" stroke="#191970" points="242.7099,-6.5001 232.7098,-10 242.7098,-13.5001 242.7099,-6.5001"/>
</g>
</g>
</svg>
