<?xml version="1.0" encoding="UTF-8" standalone="no"?>
<!DOCTYPE svg PUBLIC "-//W3C//DTD SVG 1.1//EN"
 "http://www.w3.org/Graphics/SVG/1.1/DTD/svg11.dtd">
<!-- Generated by graphviz version 2.40.1 (20161225.0304)
 -->
<!-- Title: RGBAColor::lightness Pages: 1 -->
<svg width="322pt" height="66pt"
 viewBox="0.00 0.00 322.00 66.00" xmlns="http://www.w3.org/2000/svg" xmlns:xlink="http://www.w3.org/1999/xlink">
<g id="graph0" class="graph" transform="scale(1 1) rotate(0) translate(4 62)">
<title>RGBAColor::lightness</title>
<!-- Node50 -->
<g id="node1" class="node">
<title>Node50</title>
<polygon fill="#bfbfbf" stroke="#000000" points="0,-19.5 0,-38.5 120,-38.5 120,-19.5 0,-19.5"/>
<text text-anchor="middle" x="60" y="-26.5" font-family="Helvetica,sans-Serif" font-size="10.00" fill="#000000">RGBAColor::lightness</text>
</g>
<!-- Node51 -->
<g id="node2" class="node">
<title>Node51</title>
<g id="a_node2"><a xlink:href="structRGBAColor.html#a755420286bdcbf77dcd7511e9a28f806" target="_top" xlink:title="RGBAColor::RGBAColor">
<polygon fill="none" stroke="#000000" points="170.5,-38.5 170.5,-57.5 299.5,-57.5 299.5,-38.5 170.5,-38.5"/>
<text text-anchor="middle" x="235" y="-45.5" font-family="Helvetica,sans-Serif" font-size="10.00" fill="#000000">RGBAColor::RGBAColor</text>
</a>
</g>
</g>
<!-- Node50&#45;&gt;Node51 -->
<g id="edge1" class="edge">
<title>Node50&#45;&gt;Node51</title>
<path fill="none" stroke="#191970" d="M130.2563,-36.6278C143.5429,-38.0704 157.3818,-39.5729 170.4811,-40.9951"/>
<polygon fill="#191970" stroke="#191970" points="130.5445,-33.1386 120.2251,-35.5387 129.7888,-40.0977 130.5445,-33.1386"/>
</g>
<!-- Node52 -->
<g id="node3" class="node">
<title>Node52</title>
<g id="a_node3"><a xlink:href="classPixelBuffer.html#a4967e7c476e99c2a5efb234c033657be" target="_top" xlink:title="Recolors magic pixels. ">
<polygon fill="none" stroke="#000000" points="156,-.5 156,-19.5 314,-19.5 314,-.5 156,-.5"/>
<text text-anchor="middle" x="235" y="-7.5" font-family="Helvetica,sans-Serif" font-size="10.00" fill="#000000">PixelBuffer::colorMagicPixels</text>
</a>
</g>
</g>
<!-- Node50&#45;&gt;Node52 -->
<g id="edge2" class="edge">
<title>Node50&#45;&gt;Node52</title>
<path fill="none" stroke="#191970" d="M130.323,-21.3649C138.7085,-20.4545 147.3131,-19.5203 155.8121,-18.5975"/>
<polygon fill="#191970" stroke="#191970" points="129.7888,-17.9023 120.2251,-22.4613 130.5445,-24.8614 129.7888,-17.9023"/>
</g>
</g>
</svg>
