<?xml version="1.0" encoding="UTF-8" standalone="no"?>
<!DOCTYPE svg PUBLIC "-//W3C//DTD SVG 1.1//EN"
 "http://www.w3.org/Graphics/SVG/1.1/DTD/svg11.dtd">
<!-- Generated by graphviz version 2.40.1 (20161225.0304)
 -->
<!-- Title: RGBAColor::lightness Pages: 1 -->
<svg width="268pt" height="104pt"
 viewBox="0.00 0.00 268.00 104.00" xmlns="http://www.w3.org/2000/svg" xmlns:xlink="http://www.w3.org/1999/xlink">
<g id="graph0" class="graph" transform="scale(1 1) rotate(0) translate(4 100)">
<title>RGBAColor::lightness</title>
<!-- Node46 -->
<g id="node1" class="node">
<title>Node46</title>
<polygon fill="#bfbfbf" stroke="#000000" points="0,-38.5 0,-57.5 120,-57.5 120,-38.5 0,-38.5"/>
<text text-anchor="middle" x="60" y="-45.5" font-family="Helvetica,sans-Serif" font-size="10.00" fill="#000000">RGBAColor::lightness</text>
</g>
<!-- Node47 -->
<g id="node2" class="node">
<title>Node47</title>
<g id="a_node2"><a xlink:href="structRGBAColor.html#a8a63c03d13e9427879b4f8f3ce623d69" target="_top" xlink:title="RGBAColor::red">
<polygon fill="none" stroke="#000000" points="162,-76.5 162,-95.5 254,-95.5 254,-76.5 162,-76.5"/>
<text text-anchor="middle" x="208" y="-83.5" font-family="Helvetica,sans-Serif" font-size="10.00" fill="#000000">RGBAColor::red</text>
</a>
</g>
</g>
<!-- Node46&#45;&gt;Node47 -->
<g id="edge1" class="edge">
<title>Node46&#45;&gt;Node47</title>
<path fill="none" stroke="#191970" d="M97.3466,-57.589C116.7009,-62.5583 140.5304,-68.6767 161.1126,-73.9613"/>
<polygon fill="#191970" stroke="#191970" points="160.3656,-77.383 170.9219,-76.4799 162.1065,-70.6029 160.3656,-77.383"/>
</g>
<!-- Node48 -->
<g id="node3" class="node">
<title>Node48</title>
<g id="a_node3"><a xlink:href="structRGBAColor.html#a8523bfbb8c7b8fbbdb8f2ba328079adb" target="_top" xlink:title="RGBAColor::green">
<polygon fill="none" stroke="#000000" points="156,-38.5 156,-57.5 260,-57.5 260,-38.5 156,-38.5"/>
<text text-anchor="middle" x="208" y="-45.5" font-family="Helvetica,sans-Serif" font-size="10.00" fill="#000000">RGBAColor::green</text>
</a>
</g>
</g>
<!-- Node46&#45;&gt;Node48 -->
<g id="edge2" class="edge">
<title>Node46&#45;&gt;Node48</title>
<path fill="none" stroke="#191970" d="M120.1973,-48C128.6178,-48 137.2855,-48 145.7432,-48"/>
<polygon fill="#191970" stroke="#191970" points="145.9248,-51.5001 155.9248,-48 145.9248,-44.5001 145.9248,-51.5001"/>
</g>
<!-- Node49 -->
<g id="node4" class="node">
<title>Node49</title>
<g id="a_node4"><a xlink:href="structRGBAColor.html#a959baeeec5e43348b7bd901bbc31f8f8" target="_top" xlink:title="RGBAColor::blue">
<polygon fill="none" stroke="#000000" points="159.5,-.5 159.5,-19.5 256.5,-19.5 256.5,-.5 159.5,-.5"/>
<text text-anchor="middle" x="208" y="-7.5" font-family="Helvetica,sans-Serif" font-size="10.00" fill="#000000">RGBAColor::blue</text>
</a>
</g>
</g>
<!-- Node46&#45;&gt;Node49 -->
<g id="edge3" class="edge">
<title>Node46&#45;&gt;Node49</title>
<path fill="none" stroke="#191970" d="M97.3466,-38.411C116.7009,-33.4417 140.5304,-27.3233 161.1126,-22.0387"/>
<polygon fill="#191970" stroke="#191970" points="162.1065,-25.3971 170.9219,-19.5201 160.3656,-18.617 162.1065,-25.3971"/>
</g>
</g>
</svg>
