<?xml version="1.0" encoding="UTF-8" standalone="no"?>
<!DOCTYPE svg PUBLIC "-//W3C//DTD SVG 1.1//EN"
 "http://www.w3.org/Graphics/SVG/1.1/DTD/svg11.dtd">
<!-- Generated by graphviz version 2.40.1 (20161225.0304)
 -->
<!-- Title: StrongType::get Pages: 1 -->
<!--zoomable 378 -->
<svg id="main" version="1.1" xmlns="http://www.w3.org/2000/svg" xmlns:xlink="http://www.w3.org/1999/xlink" xml:space="preserve" onload="init(evt)">
<style type="text/css"><![CDATA[
.edge:hover path { stroke: red; }
.edge:hover polygon { stroke: red; fill: red; }
]]></style>
<script type="text/javascript"><![CDATA[
var edges = document.getElementsByTagName('g');
if (edges && edges.length) {
  for (var i=0;i<edges.length;i++) {
    if (edges[i].id.substr(0,4)=='edge') {
      edges[i].setAttribute('class','edge');
    }
  }
}
]]></script>
        <defs>
                <circle id="rim" cx="0" cy="0" r="7"/>
                <circle id="rim2" cx="0" cy="0" r="3.5"/>
                <g id="zoomPlus">
                        <use xlink:href="#rim" fill="#404040">
                                <set attributeName="fill" to="#808080" begin="zoomplus.mouseover" end="zoomplus.mouseout"/>
                        </use>
                        <path d="M-4,0h8M0,-4v8" fill="none" stroke="white" stroke-width="1.5" pointer-events="none"/>
                </g>
                <g id="zoomMin">
                        <use xlink:href="#rim" fill="#404040">
                                <set attributeName="fill" to="#808080" begin="zoomminus.mouseover" end="zoomminus.mouseout"/>
                        </use>
                        <path d="M-4,0h8" fill="none" stroke="white" stroke-width="1.5" pointer-events="none"/>
                </g>
                <g id="dirArrow">
                        <path fill="none" stroke="white" stroke-width="1.5" d="M0,-3.0v7 M-2.5,-0.5L0,-3.0L2.5,-0.5"/>
                </g>
               <g id="resetDef">
                       <use xlink:href="#rim2" fill="#404040">
                               <set attributeName="fill" to="#808080" begin="reset.mouseover" end="reset.mouseout"/>
                       </use>
               </g>
        </defs>

<script type="text/javascript">
var viewWidth = 912;
var viewHeight = 378;
var sectionId = 'dynsection-2';
</script>
<script xlink:href="svgpan.js"/>
<svg id="graph" class="graph">
<g id="viewport">
<title>StrongType::get</title>
<!-- Node9 -->
<g id="node1" class="node">
<title>Node9</title>
<polygon fill="#bfbfbf" stroke="#000000" points="0,-186.5 0,-205.5 92,-205.5 92,-186.5 0,-186.5"/>
<text text-anchor="middle" x="46" y="-193.5" font-family="Helvetica,sans-Serif" font-size="10.00" fill="#000000">StrongType::get</text>
</g>
<!-- Node10 -->
<g id="node2" class="node">
<title>Node10</title>
<g id="a_node2"><a xlink:href="JsonSerialization_8hxx.html#a6dcce644b59e7427558a898572efa868" target="_top" xlink:title="to_json">
<polygon fill="none" stroke="#000000" points="193,-338.5 193,-357.5 245,-357.5 245,-338.5 193,-338.5"/>
<text text-anchor="middle" x="219" y="-345.5" font-family="Helvetica,sans-Serif" font-size="10.00" fill="#000000">to_json</text>
</a>
</g>
</g>
<!-- Node9&#45;&gt;Node10 -->
<g id="edge1" class="edge">
<title>Node9&#45;&gt;Node10</title>
<path fill="none" stroke="#191970" d="M52.2079,-215.0931C62.8015,-244.4849 87.2668,-300.4052 128,-329 147.0215,-342.3532 173.4368,-346.6957 192.9093,-347.9396"/>
<polygon fill="#191970" stroke="#191970" points="55.4923,-213.881 48.9282,-205.5645 48.8734,-216.1592 55.4923,-213.881"/>
</g>
<!-- Node11 -->
<g id="node3" class="node">
<title>Node11</title>
<g id="a_node3"><a xlink:href="classResourcesManager.html#ac221a499e20ca7aedd00028842c7a101" target="_top" xlink:title="ResourcesManager::loadUITexture">
<polygon fill="none" stroke="#000000" points="128,-300.5 128,-319.5 310,-319.5 310,-300.5 128,-300.5"/>
<text text-anchor="middle" x="219" y="-307.5" font-family="Helvetica,sans-Serif" font-size="10.00" fill="#000000">ResourcesManager::loadUITexture</text>
</a>
</g>
</g>
<!-- Node9&#45;&gt;Node11 -->
<g id="edge2" class="edge">
<title>Node9&#45;&gt;Node11</title>
<path fill="none" stroke="#191970" d="M56.5632,-214.3135C70.1754,-236.1689 95.9477,-272.122 128,-291 134.5361,-294.8496 141.7395,-297.9261 149.1449,-300.3836"/>
<polygon fill="#191970" stroke="#191970" points="59.4957,-212.3985 51.3381,-205.638 53.4993,-216.01 59.4957,-212.3985"/>
</g>
<!-- Node13 -->
<g id="node5" class="node">
<title>Node13</title>
<g id="a_node5"><a xlink:href="classTileManager.html#a1575d9a9530e13fe0286b8fece9e47ea" target="_top" xlink:title="TileManager::init">
<polygon fill="none" stroke="#000000" points="170,-262.5 170,-281.5 268,-281.5 268,-262.5 170,-262.5"/>
<text text-anchor="middle" x="219" y="-269.5" font-family="Helvetica,sans-Serif" font-size="10.00" fill="#000000">TileManager::init</text>
</a>
</g>
</g>
<!-- Node9&#45;&gt;Node13 -->
<g id="edge4" class="edge">
<title>Node9&#45;&gt;Node13</title>
<path fill="none" stroke="#191970" d="M64.7253,-212.3248C80.548,-225.2676 104.3531,-242.8166 128,-253 141.0444,-258.6175 155.8738,-262.6181 169.7195,-265.4496"/>
<polygon fill="#191970" stroke="#191970" points="66.7189,-209.4288 56.8078,-205.6843 62.2206,-214.7922 66.7189,-209.4288"/>
</g>
<!-- Node16 -->
<g id="node8" class="node">
<title>Node16</title>
<g id="a_node8"><a xlink:href="classText.html#a3bf5a064fd37d06b8d3dc5a700556897" target="_top" xlink:title="Draws a text string to the screen Draws a text string to the screen. This could either be a standalon...">
<polygon fill="none" stroke="#000000" points="154,-224.5 154,-243.5 284,-243.5 284,-224.5 154,-224.5"/>
<text text-anchor="middle" x="219" y="-231.5" font-family="Helvetica,sans-Serif" font-size="10.00" fill="#000000">Text::createTextTexture</text>
</a>
</g>
</g>
<!-- Node9&#45;&gt;Node16 -->
<g id="edge8" class="edge">
<title>Node9&#45;&gt;Node16</title>
<path fill="none" stroke="#191970" d="M99.5051,-207.7526C123.9673,-213.1258 152.5707,-219.4086 175.6587,-224.4799"/>
<polygon fill="#191970" stroke="#191970" points="100.1733,-204.316 89.6552,-205.589 98.6714,-211.153 100.1733,-204.316"/>
</g>
<!-- Node25 -->
<g id="node17" class="node">
<title>Node25</title>
<g id="a_node17"><a xlink:href="classUIManager.html#aedd9d0577af515a852425dfe414b2968" target="_top" xlink:title="Parses the UiLayout.json files and creates UI Elements. ">
<polygon fill="none" stroke="#000000" points="382.5,-129.5 382.5,-148.5 473.5,-148.5 473.5,-129.5 382.5,-129.5"/>
<text text-anchor="middle" x="428" y="-136.5" font-family="Helvetica,sans-Serif" font-size="10.00" fill="#000000">UIManager::init</text>
</a>
</g>
</g>
<!-- Node9&#45;&gt;Node25 -->
<g id="edge18" class="edge">
<title>Node9&#45;&gt;Node25</title>
<path fill="none" stroke="#191970" d="M102.2477,-195.8379C156.0469,-194.7716 239.2273,-190.7355 310,-177 343.3822,-170.5212 380.5068,-157.5647 404.0384,-148.5943"/>
<polygon fill="#191970" stroke="#191970" points="102.1619,-192.3387 92.223,-196.0089 102.2813,-199.3377 102.1619,-192.3387"/>
</g>
<!-- Node27 -->
<g id="node19" class="node">
<title>Node27</title>
<g id="a_node19"><a xlink:href="classSDLRenderer.html#aa86775df99d8c9c49f9f269cea1c883a" target="_top" xlink:title="SDLRenderer::SDLRenderer">
<polygon fill="none" stroke="#000000" points="145.5,-148.5 145.5,-167.5 292.5,-167.5 292.5,-148.5 145.5,-148.5"/>
<text text-anchor="middle" x="219" y="-155.5" font-family="Helvetica,sans-Serif" font-size="10.00" fill="#000000">SDLRenderer::SDLRenderer</text>
</a>
</g>
</g>
<!-- Node9&#45;&gt;Node27 -->
<g id="edge21" class="edge">
<title>Node9&#45;&gt;Node27</title>
<path fill="none" stroke="#191970" d="M99.5051,-184.2474C123.9673,-178.8742 152.5707,-172.5914 175.6587,-167.5201"/>
<polygon fill="#191970" stroke="#191970" points="98.6714,-180.847 89.6552,-186.411 100.1733,-187.684 98.6714,-180.847"/>
</g>
<!-- Node28 -->
<g id="node20" class="node">
<title>Node28</title>
<g id="a_node20"><a xlink:href="classAudioMixer.html#add40bb51b99554f0408efe1630bf983d" target="_top" xlink:title="AudioMixer::AudioMixer">
<polygon fill="none" stroke="#000000" points="153,-110.5 153,-129.5 285,-129.5 285,-110.5 153,-110.5"/>
<text text-anchor="middle" x="219" y="-117.5" font-family="Helvetica,sans-Serif" font-size="10.00" fill="#000000">AudioMixer::AudioMixer</text>
</a>
</g>
</g>
<!-- Node9&#45;&gt;Node28 -->
<g id="edge22" class="edge">
<title>Node9&#45;&gt;Node28</title>
<path fill="none" stroke="#191970" d="M64.7253,-179.6752C80.548,-166.7324 104.3531,-149.1834 128,-139 136.8939,-135.1699 146.6176,-132.0915 156.2935,-129.6227"/>
<polygon fill="#191970" stroke="#191970" points="62.2206,-177.2078 56.8078,-186.3157 66.7189,-182.5712 62.2206,-177.2078"/>
</g>
<!-- Node29 -->
<g id="node21" class="node">
<title>Node29</title>
<g id="a_node21"><a xlink:href="classResourceManager.html#a9825fcd46b3af5c1f1bf22eb8dd23936" target="_top" xlink:title="Creates the ResourceManager. ">
<polygon fill="none" stroke="#000000" points="142.5,-61 142.5,-91 295.5,-91 295.5,-61 142.5,-61"/>
<text text-anchor="start" x="150.5" y="-79" font-family="Helvetica,sans-Serif" font-size="10.00" fill="#000000">ResourceManager::Resource</text>
<text text-anchor="middle" x="219" y="-68" font-family="Helvetica,sans-Serif" font-size="10.00" fill="#000000">Manager</text>
</a>
</g>
</g>
<!-- Node9&#45;&gt;Node29 -->
<g id="edge23" class="edge">
<title>Node9&#45;&gt;Node29</title>
<path fill="none" stroke="#191970" d="M56.9764,-177.685C70.8425,-156.1266 96.7115,-120.7654 128,-101 134.0947,-97.1499 140.7826,-93.8847 147.6797,-91.1172"/>
<polygon fill="#191970" stroke="#191970" points="53.9542,-175.9169 51.6304,-186.2537 59.8932,-179.6221 53.9542,-175.9169"/>
</g>
<!-- Node30 -->
<g id="node22" class="node">
<title>Node30</title>
<g id="a_node22"><a xlink:href="structstd_1_1hash_3_01StrongType_3_01WeakType_00_01Tag_01_4_01_4.html#af5cc4d4b0c32432b42d02c69bd7eb786" target="_top" xlink:title="std::hash\&lt; StrongType\l\&lt; WeakType, Tag \&gt; \&gt;::\loperator()">
<polygon fill="none" stroke="#000000" points="155,-.5 155,-41.5 283,-41.5 283,-.5 155,-.5"/>
<text text-anchor="start" x="163" y="-29.5" font-family="Helvetica,sans-Serif" font-size="10.00" fill="#000000">std::hash&lt; StrongType</text>
<text text-anchor="start" x="163" y="-18.5" font-family="Helvetica,sans-Serif" font-size="10.00" fill="#000000">&lt; WeakType, Tag &gt; &gt;::</text>
<text text-anchor="middle" x="219" y="-7.5" font-family="Helvetica,sans-Serif" font-size="10.00" fill="#000000">operator()</text>
</a>
</g>
</g>
<!-- Node9&#45;&gt;Node30 -->
<g id="edge24" class="edge">
<title>Node9&#45;&gt;Node30</title>
<path fill="none" stroke="#191970" d="M51.8522,-176.6439C62.1931,-145.6621 86.6066,-84.9749 128,-51 135.8436,-44.5621 145.116,-39.489 154.691,-35.4957"/>
<polygon fill="#191970" stroke="#191970" points="48.4858,-175.6804 48.7766,-186.2712 55.1538,-177.8106 48.4858,-175.6804"/>
</g>
<!-- Node12 -->
<g id="node4" class="node">
<title>Node12</title>
<g id="a_node4"><a xlink:href="classResourcesManager.html#a7fe5ff24c1df6a60214bea3ca474d155" target="_top" xlink:title="ResourcesManager::Resources\lManager">
<polygon fill="none" stroke="#000000" points="346,-339 346,-369 510,-369 510,-339 346,-339"/>
<text text-anchor="start" x="354" y="-357" font-family="Helvetica,sans-Serif" font-size="10.00" fill="#000000">ResourcesManager::Resources</text>
<text text-anchor="middle" x="428" y="-346" font-family="Helvetica,sans-Serif" font-size="10.00" fill="#000000">Manager</text>
</a>
</g>
</g>
<!-- Node11&#45;&gt;Node12 -->
<g id="edge3" class="edge">
<title>Node11&#45;&gt;Node12</title>
<path fill="none" stroke="#191970" d="M274.8647,-321.637C286.479,-324.0639 298.6396,-326.6106 310,-329 325.2669,-332.211 341.6414,-335.6704 357.1859,-338.9616"/>
<polygon fill="#191970" stroke="#191970" points="275.3371,-318.1602 264.8328,-319.542 273.9061,-325.0124 275.3371,-318.1602"/>
</g>
<!-- Node14 -->
<g id="node6" class="node">
<title>Node14</title>
<g id="a_node6"><a xlink:href="classTileManager.html#ac6f5d9eb4db57f9ad597223658574394" target="_top" xlink:title="TileManager::TileManager">
<polygon fill="none" stroke="#000000" points="356.5,-300.5 356.5,-319.5 499.5,-319.5 499.5,-300.5 356.5,-300.5"/>
<text text-anchor="middle" x="428" y="-307.5" font-family="Helvetica,sans-Serif" font-size="10.00" fill="#000000">TileManager::TileManager</text>
</a>
</g>
</g>
<!-- Node13&#45;&gt;Node14 -->
<g id="edge5" class="edge">
<title>Node13&#45;&gt;Node14</title>
<path fill="none" stroke="#191970" d="M278.1421,-282.7531C308.8365,-288.3339 346.009,-295.0925 375.6523,-300.4822"/>
<polygon fill="#191970" stroke="#191970" points="278.466,-279.2547 268.0012,-280.9093 277.2138,-286.1418 278.466,-279.2547"/>
</g>
<!-- Node15 -->
<g id="node7" class="node">
<title>Node15</title>
<g id="a_node7"><a xlink:href="classTileManager.html#af094937b10637c493557e22b42cf25ed" target="_top" xlink:title="TileManager::getAllTileData">
<polygon fill="none" stroke="#000000" points="546,-300.5 546,-319.5 698,-319.5 698,-300.5 546,-300.5"/>
<text text-anchor="middle" x="622" y="-307.5" font-family="Helvetica,sans-Serif" font-size="10.00" fill="#000000">TileManager::getAllTileData</text>
</a>
</g>
</g>
<!-- Node13&#45;&gt;Node15 -->
<g id="edge7" class="edge">
<title>Node13&#45;&gt;Node15</title>
<path fill="none" stroke="#191970" d="M278.2886,-274.0841C337.207,-276.5752 430.0697,-281.6359 510,-291 530.5677,-293.4096 553.105,-297.0389 572.5362,-300.482"/>
<polygon fill="#191970" stroke="#191970" points="278.1887,-270.5771 268.0532,-273.6628 277.9008,-277.5712 278.1887,-270.5771"/>
</g>
<!-- Node14&#45;&gt;Node15 -->
<g id="edge6" class="edge">
<title>Node14&#45;&gt;Node15</title>
<path fill="none" stroke="#191970" d="M510.0001,-310C521.8459,-310 533.9976,-310 545.7252,-310"/>
<polygon fill="#191970" stroke="#191970" points="509.6873,-306.5001 499.6873,-310 509.6872,-313.5001 509.6873,-306.5001"/>
</g>
<!-- Node17 -->
<g id="node9" class="node">
<title>Node17</title>
<g id="a_node9"><a xlink:href="classText.html#a14b9f0937696af5fd95317eb8313bf92" target="_top" xlink:title="sets the text for this text widget. ">
<polygon fill="none" stroke="#000000" points="389,-224.5 389,-243.5 467,-243.5 467,-224.5 389,-224.5"/>
<text text-anchor="middle" x="428" y="-231.5" font-family="Helvetica,sans-Serif" font-size="10.00" fill="#000000">Text::setText</text>
</a>
</g>
</g>
<!-- Node16&#45;&gt;Node17 -->
<g id="edge9" class="edge">
<title>Node16&#45;&gt;Node17</title>
<path fill="none" stroke="#191970" d="M294.4762,-234C326.3899,-234 362.2261,-234 388.7318,-234"/>
<polygon fill="#191970" stroke="#191970" points="294.2692,-230.5001 284.2692,-234 294.2692,-237.5001 294.2692,-230.5001"/>
</g>
<!-- Node24 -->
<g id="node16" class="node">
<title>Node24</title>
<g id="a_node16"><a xlink:href="classText.html#af6db01e16738de0391ad928c54334f0e" target="_top" xlink:title="gets the Font size of this element gets the font size of the element ">
<polygon fill="none" stroke="#000000" points="378,-186.5 378,-205.5 478,-205.5 478,-186.5 378,-186.5"/>
<text text-anchor="middle" x="428" y="-193.5" font-family="Helvetica,sans-Serif" font-size="10.00" fill="#000000">Text::getFontSize</text>
</a>
</g>
</g>
<!-- Node16&#45;&gt;Node24 -->
<g id="edge17" class="edge">
<title>Node16&#45;&gt;Node24</title>
<path fill="none" stroke="#191970" d="M281.6403,-222.6108C312.3403,-217.029 348.8148,-210.3973 377.6718,-205.1506"/>
<polygon fill="#191970" stroke="#191970" points="280.6823,-219.2276 271.4698,-224.46 281.9346,-226.1147 280.6823,-219.2276"/>
</g>
<!-- Node18 -->
<g id="node10" class="node">
<title>Node18</title>
<g id="a_node10"><a xlink:href="classText.html#a398a47abd355749d9e99bf74aa6a4a8d" target="_top" xlink:title="Sets the Font size of this element. ">
<polygon fill="none" stroke="#000000" points="572.5,-262.5 572.5,-281.5 671.5,-281.5 671.5,-262.5 572.5,-262.5"/>
<text text-anchor="middle" x="622" y="-269.5" font-family="Helvetica,sans-Serif" font-size="10.00" fill="#000000">Text::setFontSize</text>
</a>
</g>
</g>
<!-- Node17&#45;&gt;Node18 -->
<g id="edge10" class="edge">
<title>Node17&#45;&gt;Node18</title>
<path fill="none" stroke="#191970" d="M477.3031,-243.6573C506.689,-249.4133 543.8506,-256.6924 573.1552,-262.4325"/>
<polygon fill="#191970" stroke="#191970" points="477.7451,-240.1775 467.2588,-241.6899 476.3995,-247.0469 477.7451,-240.1775"/>
</g>
<!-- Node19 -->
<g id="node11" class="node">
<title>Node19</title>
<g id="a_node11"><a xlink:href="classText.html#ab3e26143fccc52699bcc5149cae852bc" target="_top" xlink:title="default Constructor ">
<polygon fill="none" stroke="#000000" points="749,-243.5 749,-262.5 812,-262.5 812,-243.5 749,-243.5"/>
<text text-anchor="middle" x="780.5" y="-250.5" font-family="Helvetica,sans-Serif" font-size="10.00" fill="#000000">Text::Text</text>
</a>
</g>
</g>
<!-- Node17&#45;&gt;Node19 -->
<g id="edge12" class="edge">
<title>Node17&#45;&gt;Node19</title>
<path fill="none" stroke="#191970" d="M477.4651,-236.6662C551.1139,-240.6359 687.5063,-247.9876 748.9927,-251.3017"/>
<polygon fill="#191970" stroke="#191970" points="477.2444,-233.1493 467.0705,-236.1059 476.8676,-240.1392 477.2444,-233.1493"/>
</g>
<!-- Node20 -->
<g id="node12" class="node">
<title>Node20</title>
<g id="a_node12"><a xlink:href="classTextField.html#abe03b4b6ebf469645940cfa018bcdca2" target="_top" xlink:title="TextField::addText">
<polygon fill="none" stroke="#000000" points="570,-186.5 570,-205.5 674,-205.5 674,-186.5 570,-186.5"/>
<text text-anchor="middle" x="622" y="-193.5" font-family="Helvetica,sans-Serif" font-size="10.00" fill="#000000">TextField::addText</text>
</a>
</g>
</g>
<!-- Node17&#45;&gt;Node20 -->
<g id="edge13" class="edge">
<title>Node17&#45;&gt;Node20</title>
<path fill="none" stroke="#191970" d="M477.3031,-224.3427C506.689,-218.5867 543.8506,-211.3076 573.1552,-205.5675"/>
<polygon fill="#191970" stroke="#191970" points="476.3995,-220.9531 467.2588,-226.3101 477.7451,-227.8225 476.3995,-220.9531"/>
</g>
<!-- Node21 -->
<g id="node13" class="node">
<title>Node21</title>
<g id="a_node13"><a xlink:href="classGame.html#a560299f0291c281f7b44e7ef0dd7b264" target="_top" xlink:title="initializes and displays the main menu initializes and displays the main menu ">
<polygon fill="none" stroke="#000000" points="570.5,-148.5 570.5,-167.5 673.5,-167.5 673.5,-148.5 570.5,-148.5"/>
<text text-anchor="middle" x="622" y="-155.5" font-family="Helvetica,sans-Serif" font-size="10.00" fill="#000000">Game::mainMenu</text>
</a>
</g>
</g>
<!-- Node17&#45;&gt;Node21 -->
<g id="edge14" class="edge">
<title>Node17&#45;&gt;Node21</title>
<path fill="none" stroke="#191970" d="M477.0725,-227.527C488.3701,-224.7311 499.9957,-220.7288 510,-215 530.1887,-203.4393 525.912,-188.7348 546,-177 553.3984,-172.678 561.7582,-169.3326 570.158,-166.7448"/>
<polygon fill="#191970" stroke="#191970" points="476.2897,-224.1155 467.2778,-229.6865 477.7969,-230.9513 476.2897,-224.1155"/>
</g>
<!-- Node18&#45;&gt;Node19 -->
<g id="edge11" class="edge">
<title>Node18&#45;&gt;Node19</title>
<path fill="none" stroke="#191970" d="M681.6815,-264.8458C704.5332,-262.1064 729.7004,-259.0895 748.9174,-256.7859"/>
<polygon fill="#191970" stroke="#191970" points="681.2278,-261.375 671.7155,-266.0404 682.061,-268.3252 681.2278,-261.375"/>
</g>
<!-- Node22 -->
<g id="node14" class="node">
<title>Node22</title>
<g id="a_node14"><a xlink:href="main_8cxx.html#af582d708d899e67ead623eac34a22387" target="_top" xlink:title="protected_main">
<polygon fill="none" stroke="#000000" points="734,-129.5 734,-148.5 827,-148.5 827,-129.5 734,-129.5"/>
<text text-anchor="middle" x="780.5" y="-136.5" font-family="Helvetica,sans-Serif" font-size="10.00" fill="#000000">protected_main</text>
</a>
</g>
</g>
<!-- Node21&#45;&gt;Node22 -->
<g id="edge15" class="edge">
<title>Node21&#45;&gt;Node22</title>
<path fill="none" stroke="#191970" d="M684.0525,-150.5615C700.6231,-148.5751 718.2476,-146.4624 733.8354,-144.5939"/>
<polygon fill="#191970" stroke="#191970" points="683.4111,-147.1133 673.8988,-151.7787 684.2444,-154.0635 683.4111,-147.1133"/>
</g>
<!-- Node23 -->
<g id="node15" class="node">
<title>Node23</title>
<g id="a_node15"><a xlink:href="main_8cxx.html#a3c04138a5bfe5d72780bb7e82a18e627" target="_top" xlink:title="main">
<polygon fill="none" stroke="#000000" points="863,-129.5 863,-148.5 904,-148.5 904,-129.5 863,-129.5"/>
<text text-anchor="middle" x="883.5" y="-136.5" font-family="Helvetica,sans-Serif" font-size="10.00" fill="#000000">main</text>
</a>
</g>
</g>
<!-- Node22&#45;&gt;Node23 -->
<g id="edge16" class="edge">
<title>Node22&#45;&gt;Node23</title>
<path fill="none" stroke="#191970" d="M837.2133,-139C846.4322,-139 855.4259,-139 862.9965,-139"/>
<polygon fill="#191970" stroke="#191970" points="837.1782,-135.5001 827.1782,-139 837.1781,-142.5001 837.1782,-135.5001"/>
</g>
<!-- Node26 -->
<g id="node18" class="node">
<title>Node26</title>
<g id="a_node18"><a xlink:href="classGame.html#a1c2ab25d5216b2f4b2fe41efd2c09114" target="_top" xlink:title="begins the game starts running the game ">
<polygon fill="none" stroke="#000000" points="588,-110.5 588,-129.5 656,-129.5 656,-110.5 588,-110.5"/>
<text text-anchor="middle" x="622" y="-117.5" font-family="Helvetica,sans-Serif" font-size="10.00" fill="#000000">Game::run</text>
</a>
</g>
</g>
<!-- Node25&#45;&gt;Node26 -->
<g id="edge19" class="edge">
<title>Node25&#45;&gt;Node26</title>
<path fill="none" stroke="#191970" d="M484.1103,-133.5047C517.6688,-130.218 559.2198,-126.1486 587.8885,-123.3408"/>
<polygon fill="#191970" stroke="#191970" points="483.5865,-130.0391 473.9753,-134.4973 484.2689,-137.0058 483.5865,-130.0391"/>
</g>
<!-- Node26&#45;&gt;Node22 -->
<g id="edge20" class="edge">
<title>Node26&#45;&gt;Node22</title>
<path fill="none" stroke="#191970" d="M666.004,-125.2749C687.1371,-127.8082 712.4695,-130.8449 733.9273,-133.4172"/>
<polygon fill="#191970" stroke="#191970" points="666.3478,-121.7912 656.0022,-124.076 665.5145,-128.7414 666.3478,-121.7912"/>
</g>
</g>
</svg>
        <g id="navigator" transform="translate(0 0)" fill="#404254">
                <rect fill="#f2f5e9" fill-opacity="0.5" stroke="#606060" stroke-width=".5" x="0" y="0" width="60" height="60"/>
                <use id="zoomplus" xlink:href="#zoomPlus" x="17" y="9" onmousedown="handleZoom(evt,'in')"/>
                <use id="zoomminus" xlink:href="#zoomMin" x="42" y="9" onmousedown="handleZoom(evt,'out')"/>
                <use id="reset" xlink:href="#resetDef" x="30" y="36" onmousedown="handleReset()"/>
                <g id="arrowUp" xlink:href="#dirArrow" transform="translate(30 24)" onmousedown="handlePan(0,-1)">
                  <use xlink:href="#rim" fill="#404040">
                        <set attributeName="fill" to="#808080" begin="arrowUp.mouseover" end="arrowUp.mouseout"/>
                  </use>
                  <path fill="none" stroke="white" stroke-width="1.5" d="M0,-3.0v7 M-2.5,-0.5L0,-3.0L2.5,-0.5"/>
                </g>
                <g id="arrowRight" xlink:href="#dirArrow" transform="rotate(90) translate(36 -43)" onmousedown="handlePan(1,0)">
                  <use xlink:href="#rim" fill="#404040">
                        <set attributeName="fill" to="#808080" begin="arrowRight.mouseover" end="arrowRight.mouseout"/>
                  </use>
                  <path fill="none" stroke="white" stroke-width="1.5" d="M0,-3.0v7 M-2.5,-0.5L0,-3.0L2.5,-0.5"/>
                </g>
                <g id="arrowDown" xlink:href="#dirArrow" transform="rotate(180) translate(-30 -48)" onmousedown="handlePan(0,1)">
                  <use xlink:href="#rim" fill="#404040">
                        <set attributeName="fill" to="#808080" begin="arrowDown.mouseover" end="arrowDown.mouseout"/>
                  </use>
                  <path fill="none" stroke="white" stroke-width="1.5" d="M0,-3.0v7 M-2.5,-0.5L0,-3.0L2.5,-0.5"/>
                </g>
                <g id="arrowLeft" xlink:href="#dirArrow" transform="rotate(270) translate(-36 17)" onmousedown="handlePan(-1,0)">
                  <use xlink:href="#rim" fill="#404040">
                        <set attributeName="fill" to="#808080" begin="arrowLeft.mouseover" end="arrowLeft.mouseout"/>
                  </use>
                  <path fill="none" stroke="white" stroke-width="1.5" d="M0,-3.0v7 M-2.5,-0.5L0,-3.0L2.5,-0.5"/>
                </g>
        </g>
        <svg viewBox="0 0 15 15" width="100%" height="30px" preserveAspectRatio="xMaxYMin meet">
         <g id="arrow_out" transform="scale(0.3 0.3)">
          <a xlink:href="structStrongType_acc66e6d6b9c95193a97a839560499933_icgraph_org.svg" target="_base">
           <rect id="button" ry="5" rx="5" y="6" x="6" height="38" width="38"
                fill="#f2f5e9" fill-opacity="0.5" stroke="#606060" stroke-width="1.0"/>
           <path id="arrow"
             d="M 11.500037,31.436501 C 11.940474,20.09759 22.043105,11.32322 32.158766,21.979434 L 37.068811,17.246167 C 37.068811,17.246167 37.088388,32 37.088388,32 L 22.160133,31.978069 C 22.160133,31.978069 26.997745,27.140456 26.997745,27.140456 C 18.528582,18.264221 13.291696,25.230495 11.500037,31.436501 z"
             style="fill:#404040;"/>
          </a>
         </g>
        </svg>
</svg>
