<?xml version="1.0" encoding="UTF-8" standalone="no"?>
<!DOCTYPE svg PUBLIC "-//W3C//DTD SVG 1.1//EN"
 "http://www.w3.org/Graphics/SVG/1.1/DTD/svg11.dtd">
<!-- Generated by graphviz version 2.40.1 (20161225.0304)
 -->
<!-- Title: AudioTriggerEchoEvent Pages: 1 -->
<svg width="162pt" height="215pt"
 viewBox="0.00 0.00 162.00 215.00" xmlns="http://www.w3.org/2000/svg" xmlns:xlink="http://www.w3.org/1999/xlink">
<g id="graph0" class="graph" transform="scale(1 1) rotate(0) translate(4 211)">
<title>AudioTriggerEchoEvent</title>
<!-- Node1 -->
<g id="node1" class="node">
<title>Node1</title>
<polygon fill="#bfbfbf" stroke="#000000" points="0,-.5 0,-57.5 128,-57.5 128,-.5 0,-.5"/>
<text text-anchor="middle" x="64" y="-45.5" font-family="Helvetica,sans-Serif" font-size="10.00" fill="#000000">AudioTriggerEchoEvent</text>
<polyline fill="none" stroke="#000000" points="0,-38.5 128,-38.5 "/>
<text text-anchor="start" x="8" y="-26.5" font-family="Helvetica,sans-Serif" font-size="10.00" fill="#000000">+ trigger</text>
<polyline fill="none" stroke="#000000" points="0,-19.5 128,-19.5 "/>
<text text-anchor="middle" x="64" y="-7.5" font-family="Helvetica,sans-Serif" font-size="10.00" fill="#000000"> </text>
</g>
<!-- Node2 -->
<g id="node2" class="node">
<title>Node2</title>
<g id="a_node2"><a xlink:href="structEchoProperties.html" target="_top" xlink:title="an echo effect ">
<polygon fill="none" stroke="#000000" points="12.5,-105.5 12.5,-206.5 115.5,-206.5 115.5,-105.5 12.5,-105.5"/>
<text text-anchor="middle" x="64" y="-194.5" font-family="Helvetica,sans-Serif" font-size="10.00" fill="#000000">EchoProperties</text>
<polyline fill="none" stroke="#000000" points="12.5,-187.5 115.5,-187.5 "/>
<text text-anchor="start" x="20.5" y="-175.5" font-family="Helvetica,sans-Serif" font-size="10.00" fill="#000000">+ flEchoDelay</text>
<text text-anchor="start" x="20.5" y="-164.5" font-family="Helvetica,sans-Serif" font-size="10.00" fill="#000000">+ flEchoLRDelay</text>
<text text-anchor="start" x="20.5" y="-153.5" font-family="Helvetica,sans-Serif" font-size="10.00" fill="#000000">+ flEchoDamping</text>
<text text-anchor="start" x="20.5" y="-142.5" font-family="Helvetica,sans-Serif" font-size="10.00" fill="#000000">+ flEchoFeedback</text>
<text text-anchor="start" x="20.5" y="-131.5" font-family="Helvetica,sans-Serif" font-size="10.00" fill="#000000">+ flEchoSpread</text>
<polyline fill="none" stroke="#000000" points="12.5,-124.5 115.5,-124.5 "/>
<text text-anchor="middle" x="64" y="-112.5" font-family="Helvetica,sans-Serif" font-size="10.00" fill="#000000"> </text>
</a>
</g>
</g>
<!-- Node2&#45;&gt;Node1 -->
<g id="edge1" class="edge">
<title>Node2&#45;&gt;Node1</title>
<path fill="none" stroke="#404040" d="M64,-105.4413C64,-93.681 64,-81.3021 64,-70.0123"/>
<polygon fill="none" stroke="#404040" points="64.0001,-69.8195 60,-63.8195 64,-57.8195 68,-63.8195 64.0001,-69.8195"/>
<text text-anchor="middle" x="109" y="-79" font-family="Helvetica,sans-Serif" font-size="10.00" fill="#000000"> +echo_properties</text>
</g>
</g>
</svg>
