<?xml version="1.0" encoding="UTF-8" standalone="no"?>
<!DOCTYPE svg PUBLIC "-//W3C//DTD SVG 1.1//EN"
 "http://www.w3.org/Graphics/SVG/1.1/DTD/svg11.dtd">
<!-- Generated by graphviz version 2.40.1 (20161225.0304)
 -->
<!-- Title: src/engine/TileManager.cxx Pages: 1 -->
<!--zoomable 420 -->
<svg id="main" version="1.1" xmlns="http://www.w3.org/2000/svg" xmlns:xlink="http://www.w3.org/1999/xlink" xml:space="preserve" onload="init(evt)">
<style type="text/css"><![CDATA[
.edge:hover path { stroke: red; }
.edge:hover polygon { stroke: red; fill: red; }
]]></style>
<script type="text/javascript"><![CDATA[
var edges = document.getElementsByTagName('g');
if (edges && edges.length) {
  for (var i=0;i<edges.length;i++) {
    if (edges[i].id.substr(0,4)=='edge') {
      edges[i].setAttribute('class','edge');
    }
  }
}
]]></script>
        <defs>
                <circle id="rim" cx="0" cy="0" r="7"/>
                <circle id="rim2" cx="0" cy="0" r="3.5"/>
                <g id="zoomPlus">
                        <use xlink:href="#rim" fill="#404040">
                                <set attributeName="fill" to="#808080" begin="zoomplus.mouseover" end="zoomplus.mouseout"/>
                        </use>
                        <path d="M-4,0h8M0,-4v8" fill="none" stroke="white" stroke-width="1.5" pointer-events="none"/>
                </g>
                <g id="zoomMin">
                        <use xlink:href="#rim" fill="#404040">
                                <set attributeName="fill" to="#808080" begin="zoomminus.mouseover" end="zoomminus.mouseout"/>
                        </use>
                        <path d="M-4,0h8" fill="none" stroke="white" stroke-width="1.5" pointer-events="none"/>
                </g>
                <g id="dirArrow">
                        <path fill="none" stroke="white" stroke-width="1.5" d="M0,-3.0v7 M-2.5,-0.5L0,-3.0L2.5,-0.5"/>
                </g>
               <g id="resetDef">
                       <use xlink:href="#rim2" fill="#404040">
                               <set attributeName="fill" to="#808080" begin="reset.mouseover" end="reset.mouseout"/>
                       </use>
               </g>
        </defs>

<script type="text/javascript">
var viewWidth = 1719;
var viewHeight = 420;
var sectionId = 'dynsection-0';
</script>
<script xlink:href="svgpan.js"/>
<svg id="graph" class="graph">
<g id="viewport">
<title>src/engine/TileManager.cxx</title>
<!-- Node0 -->
<g id="node1" class="node">
<title>Node0</title>
<polygon fill="#bfbfbf" stroke="#000000" points="685.5,-392.5 685.5,-411.5 834.5,-411.5 834.5,-392.5 685.5,-392.5"/>
<text text-anchor="middle" x="760" y="-399.5" font-family="Helvetica,sans-Serif" font-size="10.00" fill="#000000">src/engine/TileManager.cxx</text>
</g>
<!-- Node1 -->
<g id="node2" class="node">
<title>Node1</title>
<g id="a_node2"><a xlink:href="TileManager_8hxx.html" target="_top" xlink:title="TileManager.hxx">
<polygon fill="none" stroke="#000000" points="200.5,-168.5 200.5,-187.5 297.5,-187.5 297.5,-168.5 200.5,-168.5"/>
<text text-anchor="middle" x="249" y="-175.5" font-family="Helvetica,sans-Serif" font-size="10.00" fill="#000000">TileManager.hxx</text>
</a>
</g>
</g>
<!-- Node0&#45;&gt;Node1 -->
<g id="edge1" class="edge">
<title>Node0&#45;&gt;Node1</title>
<path fill="none" stroke="#191970" d="M727.5251,-392.4191C699.2978,-383.7978 657.4811,-370.3158 622,-356 489.0449,-302.3556 336.4053,-224.0143 275.8048,-192.2084"/>
<polygon fill="#191970" stroke="#191970" points="277.3655,-189.0747 266.8862,-187.5142 274.1051,-195.2691 277.3655,-189.0747"/>
</g>
<!-- Node13 -->
<g id="node14" class="node">
<title>Node13</title>
<g id="a_node14"><a xlink:href="LOG_8hxx.html" target="_top" xlink:title="LOG.hxx">
<polygon fill="none" stroke="#000000" points="1203,-112.5 1203,-131.5 1261,-131.5 1261,-112.5 1203,-112.5"/>
<text text-anchor="middle" x="1232" y="-119.5" font-family="Helvetica,sans-Serif" font-size="10.00" fill="#000000">LOG.hxx</text>
</a>
</g>
</g>
<!-- Node0&#45;&gt;Node13 -->
<g id="edge14" class="edge">
<title>Node0&#45;&gt;Node13</title>
<path fill="none" stroke="#191970" d="M773.4742,-392.4391C785.0823,-383.7798 801.8392,-370.2313 814,-356 877.6306,-281.5351 847.4065,-222.1883 929,-168 971.6148,-139.6985 1121.1679,-127.96 1192.963,-123.8703"/>
<polygon fill="#191970" stroke="#191970" points="1193.1763,-127.364 1202.9696,-123.3213 1192.7928,-120.3745 1193.1763,-127.364"/>
</g>
<!-- Node14 -->
<g id="node15" class="node">
<title>Node14</title>
<g id="a_node15"><a xlink:href="Exception_8hxx.html" target="_top" xlink:title="Exception.hxx">
<polygon fill="none" stroke="#000000" points="1594,-56.5 1594,-75.5 1680,-75.5 1680,-56.5 1594,-56.5"/>
<text text-anchor="middle" x="1637" y="-63.5" font-family="Helvetica,sans-Serif" font-size="10.00" fill="#000000">Exception.hxx</text>
</a>
</g>
</g>
<!-- Node0&#45;&gt;Node14 -->
<g id="edge33" class="edge">
<title>Node0&#45;&gt;Node14</title>
<path fill="none" stroke="#191970" d="M834.5291,-399.8827C1040.7847,-393.0396 1604,-367.2781 1604,-290 1604,-290 1604,-290 1604,-178 1604,-144.051 1618.1235,-106.5869 1627.8911,-84.7366"/>
<polygon fill="#191970" stroke="#191970" points="1631.0937,-86.1501 1632.1307,-75.6061 1624.7448,-83.202 1631.0937,-86.1501"/>
</g>
<!-- Node29 -->
<g id="node30" class="node">
<title>Node29</title>
<g id="a_node30"><a xlink:href="Settings_8hxx.html" target="_top" xlink:title="basics/Settings.hxx">
<polygon fill="none" stroke="#000000" points="656.5,-112.5 656.5,-131.5 767.5,-131.5 767.5,-112.5 656.5,-112.5"/>
<text text-anchor="middle" x="712" y="-119.5" font-family="Helvetica,sans-Serif" font-size="10.00" fill="#000000">basics/Settings.hxx</text>
</a>
</g>
</g>
<!-- Node0&#45;&gt;Node29 -->
<g id="edge34" class="edge">
<title>Node0&#45;&gt;Node29</title>
<path fill="none" stroke="#191970" d="M743.1947,-392.3224C716.157,-375.351 666,-337.4704 666,-290 666,-290 666,-290 666,-234 666,-198.66 685.8391,-161.4332 699.4597,-140.0395"/>
<polygon fill="#191970" stroke="#191970" points="702.4179,-141.9114 705.0136,-131.6394 696.5788,-138.0507 702.4179,-141.9114"/>
</g>
<!-- Node31 -->
<g id="node32" class="node">
<title>Node31</title>
<g id="a_node32"><a xlink:href="ResourcesManager_8hxx.html" target="_top" xlink:title="ResourcesManager.hxx">
<polygon fill="none" stroke="#000000" points="451,-224.5 451,-243.5 579,-243.5 579,-224.5 451,-224.5"/>
<text text-anchor="middle" x="515" y="-231.5" font-family="Helvetica,sans-Serif" font-size="10.00" fill="#000000">ResourcesManager.hxx</text>
</a>
</g>
</g>
<!-- Node0&#45;&gt;Node31 -->
<g id="edge40" class="edge">
<title>Node0&#45;&gt;Node31</title>
<path fill="none" stroke="#191970" d="M730.7704,-392.4803C708.2903,-384.4804 676.9567,-371.8245 652,-356 603.2163,-325.0673 554.7907,-276.7277 530.7026,-251.1727"/>
<polygon fill="#191970" stroke="#191970" points="533.1443,-248.659 523.7673,-243.7272 528.0222,-253.4301 533.1443,-248.659"/>
</g>
<!-- Node32 -->
<g id="node33" class="node">
<title>Node32</title>
<g id="a_node33"><a xlink:href="Filesystem_8hxx.html" target="_top" xlink:title="Filesystem.hxx">
<polygon fill="none" stroke="#000000" points="715,-336.5 715,-355.5 805,-355.5 805,-336.5 715,-336.5"/>
<text text-anchor="middle" x="760" y="-343.5" font-family="Helvetica,sans-Serif" font-size="10.00" fill="#000000">Filesystem.hxx</text>
</a>
</g>
</g>
<!-- Node0&#45;&gt;Node32 -->
<g id="edge45" class="edge">
<title>Node0&#45;&gt;Node32</title>
<path fill="none" stroke="#191970" d="M760,-392.2455C760,-384.9382 760,-374.6944 760,-365.7046"/>
<polygon fill="#191970" stroke="#191970" points="763.5001,-365.6426 760,-355.6427 756.5001,-365.6427 763.5001,-365.6426"/>
</g>
<!-- Node44 -->
<g id="node45" class="node">
<title>Node44</title>
<polygon fill="none" stroke="#bfbfbf" points="1632,-336.5 1632,-355.5 1676,-355.5 1676,-336.5 1632,-336.5"/>
<text text-anchor="middle" x="1654" y="-343.5" font-family="Helvetica,sans-Serif" font-size="10.00" fill="#000000">bitset</text>
</g>
<!-- Node0&#45;&gt;Node44 -->
<g id="edge66" class="edge">
<title>Node0&#45;&gt;Node44</title>
<path fill="none" stroke="#191970" d="M834.5553,-400.0833C1014.3921,-395.1243 1468.2108,-380.5195 1618,-356 1619.2603,-355.7937 1620.5396,-355.56 1621.8277,-355.3043"/>
<polygon fill="#191970" stroke="#191970" points="1622.7546,-358.6822 1631.6994,-353.0042 1621.1661,-351.8648 1622.7546,-358.6822"/>
</g>
<!-- Node2 -->
<g id="node3" class="node">
<title>Node2</title>
<polygon fill="none" stroke="#bfbfbf" points="287,-56.5 287,-75.5 331,-75.5 331,-56.5 287,-56.5"/>
<text text-anchor="middle" x="309" y="-63.5" font-family="Helvetica,sans-Serif" font-size="10.00" fill="#000000">SDL.h</text>
</g>
<!-- Node1&#45;&gt;Node2 -->
<g id="edge2" class="edge">
<title>Node1&#45;&gt;Node2</title>
<path fill="none" stroke="#191970" d="M254.1156,-168.4509C264.0786,-149.8533 286.2365,-108.4919 299.1448,-84.3964"/>
<polygon fill="#191970" stroke="#191970" points="302.2603,-85.9925 303.8974,-75.5249 296.0899,-82.6869 302.2603,-85.9925"/>
</g>
<!-- Node3 -->
<g id="node4" class="node">
<title>Node3</title>
<polygon fill="none" stroke="#bfbfbf" points="468.5,-112.5 468.5,-131.5 561.5,-131.5 561.5,-112.5 468.5,-112.5"/>
<text text-anchor="middle" x="515" y="-119.5" font-family="Helvetica,sans-Serif" font-size="10.00" fill="#000000">unordered_map</text>
</g>
<!-- Node1&#45;&gt;Node3 -->
<g id="edge3" class="edge">
<title>Node1&#45;&gt;Node3</title>
<path fill="none" stroke="#191970" d="M294.4248,-168.4369C340.2355,-158.7925 410.9998,-143.8948 459.9675,-133.5858"/>
<polygon fill="#191970" stroke="#191970" points="460.6981,-137.0088 469.7626,-131.5237 459.256,-130.1589 460.6981,-137.0088"/>
</g>
<!-- Node4 -->
<g id="node5" class="node">
<title>Node4</title>
<polygon fill="none" stroke="#bfbfbf" points="618,-56.5 618,-75.5 662,-75.5 662,-56.5 618,-56.5"/>
<text text-anchor="middle" x="640" y="-63.5" font-family="Helvetica,sans-Serif" font-size="10.00" fill="#000000">string</text>
</g>
<!-- Node1&#45;&gt;Node4 -->
<g id="edge4" class="edge">
<title>Node1&#45;&gt;Node4</title>
<path fill="none" stroke="#191970" d="M294.8366,-168.4426C329.7563,-160.5015 378.6992,-147.9392 420,-132 438.1732,-124.9864 440.7784,-118.887 459,-112 509.5148,-92.9074 570.9161,-79.1868 607.6548,-71.9299"/>
<polygon fill="#191970" stroke="#191970" points="608.6263,-75.3069 617.7793,-69.9709 607.2965,-68.4344 608.6263,-75.3069"/>
</g>
<!-- Node5 -->
<g id="node6" class="node">
<title>Node5</title>
<g id="a_node6"><a xlink:href="tileData_8hxx.html" target="_top" xlink:title="tileData.hxx">
<polygon fill="none" stroke="#000000" points="334.5,-112.5 334.5,-131.5 411.5,-131.5 411.5,-112.5 334.5,-112.5"/>
<text text-anchor="middle" x="373" y="-119.5" font-family="Helvetica,sans-Serif" font-size="10.00" fill="#000000">tileData.hxx</text>
</a>
</g>
</g>
<!-- Node1&#45;&gt;Node5 -->
<g id="edge5" class="edge">
<title>Node1&#45;&gt;Node5</title>
<path fill="none" stroke="#191970" d="M270.3164,-168.3733C290.2216,-159.3838 320.1436,-145.8706 342.56,-135.7471"/>
<polygon fill="#191970" stroke="#191970" points="344.2887,-138.8068 351.9618,-131.5011 341.4075,-132.4272 344.2887,-138.8068"/>
</g>
<!-- Node10 -->
<g id="node11" class="node">
<title>Node10</title>
<polygon fill="none" stroke="#bfbfbf" points="0,-112.5 0,-131.5 58,-131.5 58,-112.5 0,-112.5"/>
<text text-anchor="middle" x="29" y="-119.5" font-family="Helvetica,sans-Serif" font-size="10.00" fill="#000000">json.hxx</text>
</g>
<!-- Node1&#45;&gt;Node10 -->
<g id="edge11" class="edge">
<title>Node1&#45;&gt;Node10</title>
<path fill="none" stroke="#191970" d="M210.6256,-168.4165C175.8607,-159.7087 122.9633,-146.3955 67.9644,-132.2324"/>
<polygon fill="#191970" stroke="#191970" points="68.5957,-128.7807 58.0385,-129.6729 66.8478,-135.559 68.5957,-128.7807"/>
</g>
<!-- Node11 -->
<g id="node12" class="node">
<title>Node11</title>
<g id="a_node12"><a xlink:href="Singleton_8hxx.html" target="_top" xlink:title="Singleton.hxx">
<polygon fill="none" stroke="#000000" points="185.5,-56.5 185.5,-75.5 268.5,-75.5 268.5,-56.5 185.5,-56.5"/>
<text text-anchor="middle" x="227" y="-63.5" font-family="Helvetica,sans-Serif" font-size="10.00" fill="#000000">Singleton.hxx</text>
</a>
</g>
</g>
<!-- Node1&#45;&gt;Node11 -->
<g id="edge12" class="edge">
<title>Node1&#45;&gt;Node11</title>
<path fill="none" stroke="#191970" d="M247.1243,-168.4509C243.5199,-150.1013 235.5625,-109.5908 230.8047,-85.3693"/>
<polygon fill="#191970" stroke="#191970" points="234.2329,-84.6627 228.871,-75.5249 227.3641,-86.012 234.2329,-84.6627"/>
</g>
<!-- Node12 -->
<g id="node13" class="node">
<title>Node12</title>
<polygon fill="none" stroke="#bfbfbf" points="76.5,-112.5 76.5,-131.5 201.5,-131.5 201.5,-112.5 76.5,-112.5"/>
<text text-anchor="middle" x="139" y="-119.5" font-family="Helvetica,sans-Serif" font-size="10.00" fill="#000000">../common/enums.hxx</text>
</g>
<!-- Node1&#45;&gt;Node12 -->
<g id="edge13" class="edge">
<title>Node1&#45;&gt;Node12</title>
<path fill="none" stroke="#191970" d="M229.8395,-168.2455C212.4889,-159.4125 186.7099,-146.2887 167.0417,-136.2758"/>
<polygon fill="#191970" stroke="#191970" points="168.4405,-133.0605 157.941,-131.6427 165.2647,-139.2986 168.4405,-133.0605"/>
</g>
<!-- Node5&#45;&gt;Node4 -->
<g id="edge6" class="edge">
<title>Node5&#45;&gt;Node4</title>
<path fill="none" stroke="#191970" d="M411.5389,-113.9169C464.5252,-102.8037 558.8912,-83.0116 608.1213,-72.6862"/>
<polygon fill="#191970" stroke="#191970" points="608.8416,-76.1113 617.9102,-70.6331 607.4047,-69.2604 608.8416,-76.1113"/>
</g>
<!-- Node6 -->
<g id="node7" class="node">
<title>Node6</title>
<polygon fill="none" stroke="#bfbfbf" points="764.5,-56.5 764.5,-75.5 811.5,-75.5 811.5,-56.5 764.5,-56.5"/>
<text text-anchor="middle" x="788" y="-63.5" font-family="Helvetica,sans-Serif" font-size="10.00" fill="#000000">vector</text>
</g>
<!-- Node5&#45;&gt;Node6 -->
<g id="edge7" class="edge">
<title>Node5&#45;&gt;Node6</title>
<path fill="none" stroke="#191970" d="M411.5645,-117.5162C500.43,-107.1468 714.5015,-81.9408 747,-76 749.3716,-75.5665 751.811,-75.0791 754.2615,-74.559"/>
<polygon fill="#191970" stroke="#191970" points="755.2762,-77.9178 764.2528,-72.2902 753.726,-71.0916 755.2762,-77.9178"/>
</g>
<!-- Node7 -->
<g id="node8" class="node">
<title>Node7</title>
<g id="a_node8"><a xlink:href="enums_8hxx.html" target="_top" xlink:title="enums.hxx">
<polygon fill="none" stroke="#000000" points="349.5,-56.5 349.5,-75.5 420.5,-75.5 420.5,-56.5 349.5,-56.5"/>
<text text-anchor="middle" x="385" y="-63.5" font-family="Helvetica,sans-Serif" font-size="10.00" fill="#000000">enums.hxx</text>
</a>
</g>
</g>
<!-- Node5&#45;&gt;Node7 -->
<g id="edge8" class="edge">
<title>Node5&#45;&gt;Node7</title>
<path fill="none" stroke="#191970" d="M375.0902,-112.2455C376.6561,-104.9382 378.8512,-94.6944 380.7776,-85.7046"/>
<polygon fill="#191970" stroke="#191970" points="384.2607,-86.1541 382.9337,-75.6427 377.416,-84.6873 384.2607,-86.1541"/>
</g>
<!-- Node8 -->
<g id="node9" class="node">
<title>Node8</title>
<polygon fill="none" stroke="#bfbfbf" points="309,-.5 309,-19.5 365,-19.5 365,-.5 309,-.5"/>
<text text-anchor="middle" x="337" y="-7.5" font-family="Helvetica,sans-Serif" font-size="10.00" fill="#000000">stddef.h</text>
</g>
<!-- Node7&#45;&gt;Node8 -->
<g id="edge9" class="edge">
<title>Node7&#45;&gt;Node8</title>
<path fill="none" stroke="#191970" d="M376.639,-56.2455C369.825,-48.2958 360.0319,-36.8706 351.8848,-27.3656"/>
<polygon fill="#191970" stroke="#191970" points="354.4305,-24.9575 345.2651,-19.6427 349.1157,-29.513 354.4305,-24.9575"/>
</g>
<!-- Node9 -->
<g id="node10" class="node">
<title>Node9</title>
<polygon fill="none" stroke="#bfbfbf" points="383,-.5 383,-19.5 483,-19.5 483,-.5 383,-.5"/>
<text text-anchor="middle" x="433" y="-7.5" font-family="Helvetica,sans-Serif" font-size="10.00" fill="#000000">betterEnums.hxx</text>
</g>
<!-- Node7&#45;&gt;Node9 -->
<g id="edge10" class="edge">
<title>Node7&#45;&gt;Node9</title>
<path fill="none" stroke="#191970" d="M393.361,-56.2455C400.175,-48.2958 409.9681,-36.8706 418.1152,-27.3656"/>
<polygon fill="#191970" stroke="#191970" points="420.8843,-29.513 424.7349,-19.6427 415.5695,-24.9575 420.8843,-29.513"/>
</g>
<!-- Node13&#45;&gt;Node2 -->
<g id="edge24" class="edge">
<title>Node13&#45;&gt;Node2</title>
<path fill="none" stroke="#191970" d="M1202.5834,-121.5113C1070.5489,-119.1633 531.1799,-107.8857 341.2942,-75.7141"/>
<polygon fill="#191970" stroke="#191970" points="341.6307,-72.2192 331.1728,-73.9171 340.4069,-79.1114 341.6307,-72.2192"/>
</g>
<!-- Node13&#45;&gt;Node4 -->
<g id="edge15" class="edge">
<title>Node13&#45;&gt;Node4</title>
<path fill="none" stroke="#191970" d="M1202.8098,-121.517C1119.7573,-119.7293 875.2786,-111.5932 676,-76 674.7428,-75.7755 673.4661,-75.5263 672.1803,-75.2577"/>
<polygon fill="#191970" stroke="#191970" points="672.8577,-71.8211 662.3181,-72.9015 671.2311,-78.6295 672.8577,-71.8211"/>
</g>
<!-- Node13&#45;&gt;Node14 -->
<g id="edge16" class="edge">
<title>Node13&#45;&gt;Node14</title>
<path fill="none" stroke="#191970" d="M1261.1266,-117.9726C1328.7503,-108.6222 1497.2075,-85.3293 1583.782,-73.3585"/>
<polygon fill="#191970" stroke="#191970" points="1584.4953,-76.7933 1593.9217,-71.9565 1583.5365,-69.8593 1584.4953,-76.7933"/>
</g>
<!-- Node17 -->
<g id="node18" class="node">
<title>Node17</title>
<polygon fill="none" stroke="#bfbfbf" points="847,-.5 847,-19.5 907,-19.5 907,-.5 847,-.5"/>
<text text-anchor="middle" x="877" y="-7.5" font-family="Helvetica,sans-Serif" font-size="10.00" fill="#000000">iostream</text>
</g>
<!-- Node13&#45;&gt;Node17 -->
<g id="edge19" class="edge">
<title>Node13&#45;&gt;Node17</title>
<path fill="none" stroke="#191970" d="M1202.924,-121.1815C1132.9799,-118.6945 957.6646,-109.224 911,-76 895.6224,-65.0516 886.7119,-45.0296 881.9017,-29.8989"/>
<polygon fill="#191970" stroke="#191970" points="885.1768,-28.6174 879.0901,-19.9455 878.4404,-30.5204 885.1768,-28.6174"/>
</g>
<!-- Node18 -->
<g id="node19" class="node">
<title>Node18</title>
<polygon fill="none" stroke="#bfbfbf" points="1000,-56.5 1000,-75.5 1050,-75.5 1050,-56.5 1000,-56.5"/>
<text text-anchor="middle" x="1025" y="-63.5" font-family="Helvetica,sans-Serif" font-size="10.00" fill="#000000">chrono</text>
</g>
<!-- Node13&#45;&gt;Node18 -->
<g id="edge20" class="edge">
<title>Node13&#45;&gt;Node18</title>
<path fill="none" stroke="#191970" d="M1202.8575,-114.4996C1170.3046,-106.0672 1115.8071,-91.7892 1059.9363,-76.2153"/>
<polygon fill="#191970" stroke="#191970" points="1060.8031,-72.8235 1050.2299,-73.5003 1058.9174,-79.5648 1060.8031,-72.8235"/>
</g>
<!-- Node19 -->
<g id="node20" class="node">
<title>Node19</title>
<polygon fill="none" stroke="#bfbfbf" points="1068,-56.5 1068,-75.5 1112,-75.5 1112,-56.5 1068,-56.5"/>
<text text-anchor="middle" x="1090" y="-63.5" font-family="Helvetica,sans-Serif" font-size="10.00" fill="#000000">ctime</text>
</g>
<!-- Node13&#45;&gt;Node19 -->
<g id="edge21" class="edge">
<title>Node13&#45;&gt;Node19</title>
<path fill="none" stroke="#191970" d="M1207.5893,-112.3733C1183.8232,-103.0007 1147.5879,-88.7107 1121.6253,-78.472"/>
<polygon fill="#191970" stroke="#191970" points="1122.8121,-75.1777 1112.2253,-74.7649 1120.244,-81.6896 1122.8121,-75.1777"/>
</g>
<!-- Node20 -->
<g id="node21" class="node">
<title>Node20</title>
<polygon fill="none" stroke="#bfbfbf" points="1130.5,-56.5 1130.5,-75.5 1185.5,-75.5 1185.5,-56.5 1130.5,-56.5"/>
<text text-anchor="middle" x="1158" y="-63.5" font-family="Helvetica,sans-Serif" font-size="10.00" fill="#000000">fstream</text>
</g>
<!-- Node13&#45;&gt;Node20 -->
<g id="edge22" class="edge">
<title>Node13&#45;&gt;Node20</title>
<path fill="none" stroke="#191970" d="M1219.1102,-112.2455C1208.0746,-103.8943 1191.9708,-91.7076 1179.0647,-81.9408"/>
<polygon fill="#191970" stroke="#191970" points="1180.8283,-78.8862 1170.7421,-75.6427 1176.6041,-84.4681 1180.8283,-78.8862"/>
</g>
<!-- Node21 -->
<g id="node22" class="node">
<title>Node21</title>
<polygon fill="none" stroke="#bfbfbf" points="1204,-56.5 1204,-75.5 1260,-75.5 1260,-56.5 1204,-56.5"/>
<text text-anchor="middle" x="1232" y="-63.5" font-family="Helvetica,sans-Serif" font-size="10.00" fill="#000000">sstream</text>
</g>
<!-- Node13&#45;&gt;Node21 -->
<g id="edge23" class="edge">
<title>Node13&#45;&gt;Node21</title>
<path fill="none" stroke="#191970" d="M1232,-112.2455C1232,-104.9382 1232,-94.6944 1232,-85.7046"/>
<polygon fill="#191970" stroke="#191970" points="1235.5001,-85.6426 1232,-75.6427 1228.5001,-85.6427 1235.5001,-85.6426"/>
</g>
<!-- Node22 -->
<g id="node23" class="node">
<title>Node22</title>
<polygon fill="none" stroke="#bfbfbf" points="1436,-56.5 1436,-75.5 1500,-75.5 1500,-56.5 1436,-56.5"/>
<text text-anchor="middle" x="1468" y="-63.5" font-family="Helvetica,sans-Serif" font-size="10.00" fill="#000000">algorithm</text>
</g>
<!-- Node13&#45;&gt;Node22 -->
<g id="edge25" class="edge">
<title>Node13&#45;&gt;Node22</title>
<path fill="none" stroke="#191970" d="M1261.089,-115.2104C1297.3505,-106.7309 1361.4883,-91.6811 1425.8643,-76.2607"/>
<polygon fill="#191970" stroke="#191970" points="1426.8685,-79.6192 1435.7766,-73.8837 1425.2361,-72.8121 1426.8685,-79.6192"/>
</g>
<!-- Node23 -->
<g id="node24" class="node">
<title>Node23</title>
<polygon fill="none" stroke="#bfbfbf" points="1278,-56.5 1278,-75.5 1326,-75.5 1326,-56.5 1278,-56.5"/>
<text text-anchor="middle" x="1302" y="-63.5" font-family="Helvetica,sans-Serif" font-size="10.00" fill="#000000">mutex</text>
</g>
<!-- Node13&#45;&gt;Node23 -->
<g id="edge26" class="edge">
<title>Node13&#45;&gt;Node23</title>
<path fill="none" stroke="#191970" d="M1244.1931,-112.2455C1254.6321,-103.8943 1269.8655,-91.7076 1282.074,-81.9408"/>
<polygon fill="#191970" stroke="#191970" points="1284.3244,-84.6227 1289.9467,-75.6427 1279.9515,-79.1566 1284.3244,-84.6227"/>
</g>
<!-- Node24 -->
<g id="node25" class="node">
<title>Node24</title>
<g id="a_node25"><a xlink:href="Meta_8hxx.html" target="_top" xlink:title="Meta.hxx">
<polygon fill="none" stroke="#000000" points="920,-56.5 920,-75.5 982,-75.5 982,-56.5 920,-56.5"/>
<text text-anchor="middle" x="951" y="-63.5" font-family="Helvetica,sans-Serif" font-size="10.00" fill="#000000">Meta.hxx</text>
</a>
</g>
</g>
<!-- Node13&#45;&gt;Node24 -->
<g id="edge27" class="edge">
<title>Node13&#45;&gt;Node24</title>
<path fill="none" stroke="#191970" d="M1202.898,-115.0302C1198.2575,-113.9771 1193.5032,-112.9324 1189,-112 1104.4943,-94.5022 1080.1283,-94.8104 992.2615,-76.1696"/>
<polygon fill="#191970" stroke="#191970" points="992.9093,-72.729 982.3977,-74.0547 991.4417,-79.5734 992.9093,-72.729"/>
</g>
<!-- Node28 -->
<g id="node29" class="node">
<title>Node28</title>
<g id="a_node29"><a xlink:href="LOG_8inl_8hxx.html" target="_top" xlink:title="LOG.inl.hxx">
<polygon fill="none" stroke="#000000" points="1344.5,-56.5 1344.5,-75.5 1417.5,-75.5 1417.5,-56.5 1344.5,-56.5"/>
<text text-anchor="middle" x="1381" y="-63.5" font-family="Helvetica,sans-Serif" font-size="10.00" fill="#000000">LOG.inl.hxx</text>
</a>
</g>
</g>
<!-- Node13&#45;&gt;Node28 -->
<g id="edge32" class="edge">
<title>Node13&#45;&gt;Node28</title>
<path fill="none" stroke="#191970" d="M1257.614,-112.3733C1282.0687,-103.1822 1319.1054,-89.2624 1346.2209,-79.0713"/>
<polygon fill="#191970" stroke="#191970" points="1347.5909,-82.2956 1355.7202,-75.5011 1345.1281,-75.7431 1347.5909,-82.2956"/>
</g>
<!-- Node15 -->
<g id="node16" class="node">
<title>Node15</title>
<polygon fill="none" stroke="#bfbfbf" points="1562.5,-.5 1562.5,-19.5 1627.5,-19.5 1627.5,-.5 1562.5,-.5"/>
<text text-anchor="middle" x="1595" y="-7.5" font-family="Helvetica,sans-Serif" font-size="10.00" fill="#000000">stdexcept</text>
</g>
<!-- Node14&#45;&gt;Node15 -->
<g id="edge17" class="edge">
<title>Node14&#45;&gt;Node15</title>
<path fill="none" stroke="#191970" d="M1629.6842,-56.2455C1623.7821,-48.3761 1615.3258,-37.101 1608.2406,-27.6542"/>
<polygon fill="#191970" stroke="#191970" points="1611.0321,-25.5427 1602.232,-19.6427 1605.432,-29.7427 1611.0321,-25.5427"/>
</g>
<!-- Node16 -->
<g id="node17" class="node">
<title>Node16</title>
<polygon fill="none" stroke="#bfbfbf" points="1645.5,-.5 1645.5,-19.5 1710.5,-19.5 1710.5,-.5 1645.5,-.5"/>
<text text-anchor="middle" x="1678" y="-7.5" font-family="Helvetica,sans-Serif" font-size="10.00" fill="#000000">exception</text>
</g>
<!-- Node14&#45;&gt;Node16 -->
<g id="edge18" class="edge">
<title>Node14&#45;&gt;Node16</title>
<path fill="none" stroke="#191970" d="M1644.1417,-56.2455C1649.8444,-48.4564 1657.99,-37.3308 1664.8625,-27.9439"/>
<polygon fill="#191970" stroke="#191970" points="1667.8568,-29.7789 1670.9402,-19.6427 1662.2087,-25.6437 1667.8568,-29.7789"/>
</g>
<!-- Node24&#45;&gt;Node17 -->
<g id="edge28" class="edge">
<title>Node24&#45;&gt;Node17</title>
<path fill="none" stroke="#191970" d="M938.1102,-56.2455C927.0746,-47.8943 910.9708,-35.7076 898.0647,-25.9408"/>
<polygon fill="#191970" stroke="#191970" points="899.8283,-22.8862 889.7421,-19.6427 895.6041,-28.4681 899.8283,-22.8862"/>
</g>
<!-- Node25 -->
<g id="node26" class="node">
<title>Node25</title>
<polygon fill="none" stroke="#bfbfbf" points="994.5,-.5 994.5,-19.5 1063.5,-19.5 1063.5,-.5 994.5,-.5"/>
<text text-anchor="middle" x="1029" y="-7.5" font-family="Helvetica,sans-Serif" font-size="10.00" fill="#000000">type_traits</text>
</g>
<!-- Node24&#45;&gt;Node25 -->
<g id="edge29" class="edge">
<title>Node24&#45;&gt;Node25</title>
<path fill="none" stroke="#191970" d="M964.5866,-56.2455C976.3305,-47.814 993.5199,-35.4729 1007.1882,-25.6598"/>
<polygon fill="#191970" stroke="#191970" points="1009.4871,-28.3179 1015.5691,-19.6427 1005.4046,-22.6316 1009.4871,-28.3179"/>
</g>
<!-- Node26 -->
<g id="node27" class="node">
<title>Node26</title>
<polygon fill="none" stroke="#bfbfbf" points="925.5,-.5 925.5,-19.5 976.5,-19.5 976.5,-.5 925.5,-.5"/>
<text text-anchor="middle" x="951" y="-7.5" font-family="Helvetica,sans-Serif" font-size="10.00" fill="#000000">variant</text>
</g>
<!-- Node24&#45;&gt;Node26 -->
<g id="edge30" class="edge">
<title>Node24&#45;&gt;Node26</title>
<path fill="none" stroke="#191970" d="M951,-56.2455C951,-48.9382 951,-38.6944 951,-29.7046"/>
<polygon fill="#191970" stroke="#191970" points="954.5001,-29.6426 951,-19.6427 947.5001,-29.6427 954.5001,-29.6426"/>
</g>
<!-- Node27 -->
<g id="node28" class="node">
<title>Node27</title>
<polygon fill="none" stroke="#bfbfbf" points="1313.5,-.5 1313.5,-19.5 1354.5,-19.5 1354.5,-.5 1313.5,-.5"/>
<text text-anchor="middle" x="1334" y="-7.5" font-family="Helvetica,sans-Serif" font-size="10.00" fill="#000000">tuple</text>
</g>
<!-- Node24&#45;&gt;Node27 -->
<g id="edge31" class="edge">
<title>Node24&#45;&gt;Node27</title>
<path fill="none" stroke="#191970" d="M982.3694,-57.8059C985.2778,-57.1526 988.1878,-56.5384 991,-56 1105.3973,-34.1003 1243.2305,-18.9896 1303.4036,-12.9442"/>
<polygon fill="#191970" stroke="#191970" points="1303.7752,-16.4246 1313.3805,-11.9538 1303.0836,-9.4588 1303.7752,-16.4246"/>
</g>
<!-- Node29&#45;&gt;Node4 -->
<g id="edge35" class="edge">
<title>Node29&#45;&gt;Node4</title>
<path fill="none" stroke="#191970" d="M699.4586,-112.2455C688.7213,-103.8943 673.0527,-91.7076 660.4953,-81.9408"/>
<polygon fill="#191970" stroke="#191970" points="662.4401,-79.0194 652.3977,-75.6427 658.1425,-84.5449 662.4401,-79.0194"/>
</g>
<!-- Node29&#45;&gt;Node6 -->
<g id="edge36" class="edge">
<title>Node29&#45;&gt;Node6</title>
<path fill="none" stroke="#191970" d="M725.2382,-112.2455C736.681,-103.814 753.4296,-91.4729 766.7475,-81.6598"/>
<polygon fill="#191970" stroke="#191970" points="768.9391,-84.3924 774.9135,-75.6427 764.7867,-78.757 768.9391,-84.3924"/>
</g>
<!-- Node29&#45;&gt;Node11 -->
<g id="edge37" class="edge">
<title>Node29&#45;&gt;Node11</title>
<path fill="none" stroke="#191970" d="M656.3074,-117.676C575.4649,-111.0511 420.7068,-97.0606 278.8842,-76.0137"/>
<polygon fill="#191970" stroke="#191970" points="279.105,-72.5077 268.6965,-74.4861 278.0669,-79.4303 279.105,-72.5077"/>
</g>
<!-- Node29&#45;&gt;Node24 -->
<g id="edge38" class="edge">
<title>Node29&#45;&gt;Node24</title>
<path fill="none" stroke="#191970" d="M752.814,-112.4369C796.7233,-102.1485 866.1474,-85.8818 910.0927,-75.585"/>
<polygon fill="#191970" stroke="#191970" points="910.9364,-78.9822 919.8742,-73.2931 909.3394,-72.1668 910.9364,-78.9822"/>
</g>
<!-- Node30 -->
<g id="node31" class="node">
<title>Node30</title>
<polygon fill="none" stroke="#bfbfbf" points="685.5,-56.5 685.5,-75.5 738.5,-75.5 738.5,-56.5 685.5,-56.5"/>
<text text-anchor="middle" x="712" y="-63.5" font-family="Helvetica,sans-Serif" font-size="10.00" fill="#000000">cstddef</text>
</g>
<!-- Node29&#45;&gt;Node30 -->
<g id="edge39" class="edge">
<title>Node29&#45;&gt;Node30</title>
<path fill="none" stroke="#191970" d="M712,-112.2455C712,-104.9382 712,-94.6944 712,-85.7046"/>
<polygon fill="#191970" stroke="#191970" points="715.5001,-85.6426 712,-75.6427 708.5001,-85.6427 715.5001,-85.6426"/>
</g>
<!-- Node31&#45;&gt;Node1 -->
<g id="edge44" class="edge">
<title>Node31&#45;&gt;Node1</title>
<path fill="none" stroke="#191970" d="M469.5752,-224.4369C423.7645,-214.7925 353.0002,-199.8948 304.0325,-189.5858"/>
<polygon fill="#191970" stroke="#191970" points="304.744,-186.1589 294.2374,-187.5237 303.3019,-193.0088 304.744,-186.1589"/>
</g>
<!-- Node31&#45;&gt;Node2 -->
<g id="edge43" class="edge">
<title>Node31&#45;&gt;Node2</title>
<path fill="none" stroke="#191970" d="M479.0183,-224.4858C435.7723,-211.1487 364.1495,-182.6551 325,-132 314.7597,-118.7502 310.9572,-99.8869 309.6011,-85.7175"/>
<polygon fill="#191970" stroke="#191970" points="313.083,-85.3175 308.9618,-75.5571 306.0968,-85.7571 313.083,-85.3175"/>
</g>
<!-- Node31&#45;&gt;Node3 -->
<g id="edge42" class="edge">
<title>Node31&#45;&gt;Node3</title>
<path fill="none" stroke="#191970" d="M515,-224.4509C515,-206.184 515,-165.9553 515,-141.6976"/>
<polygon fill="#191970" stroke="#191970" points="518.5001,-141.5249 515,-131.5249 511.5001,-141.5249 518.5001,-141.5249"/>
</g>
<!-- Node31&#45;&gt;Node17 -->
<g id="edge41" class="edge">
<title>Node31&#45;&gt;Node17</title>
<path fill="none" stroke="#191970" d="M520.2215,-224.4722C530.0698,-206.4676 552.0145,-166.1853 570,-132 587.6771,-98.4008 578.3975,-78.4693 609,-56 644.5785,-29.8772 771.1748,-17.3735 836.837,-12.5308"/>
<polygon fill="#191970" stroke="#191970" points="837.1032,-16.0208 846.829,-11.8185 836.6054,-9.0386 837.1032,-16.0208"/>
</g>
<!-- Node32&#45;&gt;Node4 -->
<g id="edge47" class="edge">
<title>Node32&#45;&gt;Node4</title>
<path fill="none" stroke="#191970" d="M753.1478,-336.3483C732.8485,-307.191 672.8373,-216.8013 647,-132 642.4285,-116.9958 640.7395,-99.287 640.16,-85.9923"/>
<polygon fill="#191970" stroke="#191970" points="643.6494,-85.5304 639.8919,-75.6242 636.6517,-85.7114 643.6494,-85.5304"/>
</g>
<!-- Node32&#45;&gt;Node6 -->
<g id="edge48" class="edge">
<title>Node32&#45;&gt;Node6</title>
<path fill="none" stroke="#191970" d="M759.8108,-336.1455C759.6404,-323.2327 759.5988,-299.8905 761,-280 766.0556,-208.2322 778.7301,-123.6544 784.7403,-85.9161"/>
<polygon fill="#191970" stroke="#191970" points="788.2391,-86.2037 786.3757,-75.774 781.3283,-85.0892 788.2391,-86.2037"/>
</g>
<!-- Node33 -->
<g id="node34" class="node">
<title>Node33</title>
<polygon fill="none" stroke="#bfbfbf" points="770,-280.5 770,-299.5 824,-299.5 824,-280.5 770,-280.5"/>
<text text-anchor="middle" x="797" y="-287.5" font-family="Helvetica,sans-Serif" font-size="10.00" fill="#000000">ciso646</text>
</g>
<!-- Node32&#45;&gt;Node33 -->
<g id="edge46" class="edge">
<title>Node32&#45;&gt;Node33</title>
<path fill="none" stroke="#191970" d="M766.4449,-336.2455C771.5382,-328.5367 778.7908,-317.5598 784.952,-308.2348"/>
<polygon fill="#191970" stroke="#191970" points="788.0365,-309.9155 790.6289,-299.6427 782.1962,-306.0566 788.0365,-309.9155"/>
</g>
<!-- Node34 -->
<g id="node35" class="node">
<title>Node34</title>
<g id="a_node35"><a xlink:href="PixelBuffer_8hxx.html" target="_top" xlink:title="../util/PixelBuffer.hxx">
<polygon fill="none" stroke="#000000" points="962,-280.5 962,-299.5 1080,-299.5 1080,-280.5 962,-280.5"/>
<text text-anchor="middle" x="1021" y="-287.5" font-family="Helvetica,sans-Serif" font-size="10.00" fill="#000000">../util/PixelBuffer.hxx</text>
</a>
</g>
</g>
<!-- Node32&#45;&gt;Node34 -->
<g id="edge49" class="edge">
<title>Node32&#45;&gt;Node34</title>
<path fill="none" stroke="#191970" d="M804.5709,-336.4369C849.4268,-326.8127 918.6649,-311.957 966.7008,-301.6504"/>
<polygon fill="#191970" stroke="#191970" points="967.5697,-305.0437 976.6129,-299.5237 966.1011,-298.1995 967.5697,-305.0437"/>
</g>
<!-- Node34&#45;&gt;Node6 -->
<g id="edge50" class="edge">
<title>Node34&#45;&gt;Node6</title>
<path fill="none" stroke="#191970" d="M983.0515,-280.4664C959.8697,-273.2568 930.6266,-261.551 909,-244 879.9901,-220.4572 822.4716,-125.0856 798.683,-84.4651"/>
<polygon fill="#191970" stroke="#191970" points="801.7024,-82.695 793.6441,-75.8165 795.6541,-86.2189 801.7024,-82.695"/>
</g>
<!-- Node35 -->
<g id="node36" class="node">
<title>Node35</title>
<g id="a_node36"><a xlink:href="Rectangle_8hxx.html" target="_top" xlink:title="../util/Rectangle.hxx">
<polygon fill="none" stroke="#000000" points="1392.5,-224.5 1392.5,-243.5 1505.5,-243.5 1505.5,-224.5 1392.5,-224.5"/>
<text text-anchor="middle" x="1449" y="-231.5" font-family="Helvetica,sans-Serif" font-size="10.00" fill="#000000">../util/Rectangle.hxx</text>
</a>
</g>
</g>
<!-- Node34&#45;&gt;Node35 -->
<g id="edge51" class="edge">
<title>Node34&#45;&gt;Node35</title>
<path fill="none" stroke="#191970" d="M1080.0622,-282.2722C1159.2018,-271.9175 1299.2727,-253.5905 1382.1803,-242.7428"/>
<polygon fill="#191970" stroke="#191970" points="1382.786,-246.1934 1392.2473,-241.4256 1381.8778,-239.2526 1382.786,-246.1934"/>
</g>
<!-- Node38 -->
<g id="node39" class="node">
<title>Node38</title>
<g id="a_node39"><a xlink:href="Range_8hxx.html" target="_top" xlink:title="../util/Range.hxx">
<polygon fill="none" stroke="#000000" points="1150,-224.5 1150,-243.5 1246,-243.5 1246,-224.5 1150,-224.5"/>
<text text-anchor="middle" x="1198" y="-231.5" font-family="Helvetica,sans-Serif" font-size="10.00" fill="#000000">../util/Range.hxx</text>
</a>
</g>
</g>
<!-- Node34&#45;&gt;Node38 -->
<g id="edge58" class="edge">
<title>Node34&#45;&gt;Node38</title>
<path fill="none" stroke="#191970" d="M1051.4274,-280.3733C1080.9872,-271.021 1126.0226,-256.7725 1158.3695,-246.5385"/>
<polygon fill="#191970" stroke="#191970" points="1159.4913,-249.8546 1167.9697,-243.5011 1157.3797,-243.1807 1159.4913,-249.8546"/>
</g>
<!-- Node41 -->
<g id="node42" class="node">
<title>Node41</title>
<g id="a_node42"><a xlink:href="Color_8hxx.html" target="_top" xlink:title="../util/Color.hxx">
<polygon fill="none" stroke="#000000" points="918,-224.5 918,-243.5 1008,-243.5 1008,-224.5 918,-224.5"/>
<text text-anchor="middle" x="963" y="-231.5" font-family="Helvetica,sans-Serif" font-size="10.00" fill="#000000">../util/Color.hxx</text>
</a>
</g>
</g>
<!-- Node34&#45;&gt;Node41 -->
<g id="edge62" class="edge">
<title>Node34&#45;&gt;Node41</title>
<path fill="none" stroke="#191970" d="M1010.8972,-280.2455C1002.4972,-272.1352 990.3506,-260.4075 980.3916,-250.7919"/>
<polygon fill="#191970" stroke="#191970" points="982.6122,-248.0707 972.9871,-243.6427 977.75,-253.1066 982.6122,-248.0707"/>
</g>
<!-- Node43 -->
<g id="node44" class="node">
<title>Node43</title>
<g id="a_node44"><a xlink:href="PixelBuffer_8inl_8hxx.html" target="_top" xlink:title="PixelBuffer.inl.hxx">
<polygon fill="none" stroke="#000000" points="1026.5,-224.5 1026.5,-243.5 1131.5,-243.5 1131.5,-224.5 1026.5,-224.5"/>
<text text-anchor="middle" x="1079" y="-231.5" font-family="Helvetica,sans-Serif" font-size="10.00" fill="#000000">PixelBuffer.inl.hxx</text>
</a>
</g>
</g>
<!-- Node34&#45;&gt;Node43 -->
<g id="edge65" class="edge">
<title>Node34&#45;&gt;Node43</title>
<path fill="none" stroke="#191970" d="M1031.1028,-280.2455C1039.5028,-272.1352 1051.6494,-260.4075 1061.6084,-250.7919"/>
<polygon fill="#191970" stroke="#191970" points="1064.25,-253.1066 1069.0129,-243.6427 1059.3878,-248.0707 1064.25,-253.1066"/>
</g>
<!-- Node35&#45;&gt;Node17 -->
<g id="edge53" class="edge">
<title>Node35&#45;&gt;Node17</title>
<path fill="none" stroke="#191970" d="M1469.7852,-224.3756C1483.687,-216.6917 1500.8691,-204.4793 1509,-188 1534.9585,-135.3889 1549.2049,-98.7241 1509,-56 1463.8385,-8.0088 982.1309,-30.034 917,-20 916.8983,-19.9843 916.7965,-19.9685 916.6946,-19.9526"/>
<polygon fill="#191970" stroke="#191970" points="917.4942,-16.5417 907.0199,-18.1353 916.2019,-23.4213 917.4942,-16.5417"/>
</g>
<!-- Node35&#45;&gt;Node27 -->
<g id="edge52" class="edge">
<title>Node35&#45;&gt;Node27</title>
<path fill="none" stroke="#191970" d="M1490.1985,-224.3939C1509.4492,-217.6178 1530.5964,-206.3627 1542,-188 1572.9504,-138.1617 1578.7326,-101.7438 1542,-56 1520.1195,-28.7518 1417.1947,-16.6656 1364.8039,-12.2049"/>
<polygon fill="#191970" stroke="#191970" points="1364.9884,-8.7084 1354.7383,-11.389 1364.4229,-15.6855 1364.9884,-8.7084"/>
</g>
<!-- Node36 -->
<g id="node37" class="node">
<title>Node36</title>
<g id="a_node37"><a xlink:href="iShape_8hxx.html" target="_top" xlink:title="../util/iShape.hxx">
<polygon fill="none" stroke="#000000" points="1282,-168.5 1282,-187.5 1380,-187.5 1380,-168.5 1282,-168.5"/>
<text text-anchor="middle" x="1331" y="-175.5" font-family="Helvetica,sans-Serif" font-size="10.00" fill="#000000">../util/iShape.hxx</text>
</a>
</g>
</g>
<!-- Node35&#45;&gt;Node36 -->
<g id="edge54" class="edge">
<title>Node35&#45;&gt;Node36</title>
<path fill="none" stroke="#191970" d="M1428.7151,-224.3733C1409.8579,-215.4241 1381.554,-201.9917 1360.2545,-191.8835"/>
<polygon fill="#191970" stroke="#191970" points="1361.5551,-188.6266 1351.0202,-187.5011 1358.5539,-194.9506 1361.5551,-188.6266"/>
</g>
<!-- Node37 -->
<g id="node38" class="node">
<title>Node37</title>
<g id="a_node38"><a xlink:href="Rectangle_8inl_8hxx.html" target="_top" xlink:title="Rectangle.inl.hxx">
<polygon fill="none" stroke="#000000" points="1398.5,-168.5 1398.5,-187.5 1499.5,-187.5 1499.5,-168.5 1398.5,-168.5"/>
<text text-anchor="middle" x="1449" y="-175.5" font-family="Helvetica,sans-Serif" font-size="10.00" fill="#000000">Rectangle.inl.hxx</text>
</a>
</g>
</g>
<!-- Node35&#45;&gt;Node37 -->
<g id="edge55" class="edge">
<title>Node35&#45;&gt;Node37</title>
<path fill="none" stroke="#191970" d="M1449,-224.2455C1449,-216.9382 1449,-206.6944 1449,-197.7046"/>
<polygon fill="#191970" stroke="#191970" points="1452.5001,-197.6426 1449,-187.6427 1445.5001,-197.6427 1452.5001,-197.6426"/>
</g>
<!-- Node37&#45;&gt;Node13 -->
<g id="edge57" class="edge">
<title>Node37&#45;&gt;Node13</title>
<path fill="none" stroke="#191970" d="M1411.6964,-168.3733C1372.4572,-158.247 1310.9749,-142.3806 1271.0799,-132.0851"/>
<polygon fill="#191970" stroke="#191970" points="1271.7384,-128.6405 1261.1811,-129.5306 1269.9892,-135.4184 1271.7384,-128.6405"/>
</g>
<!-- Node37&#45;&gt;Node22 -->
<g id="edge56" class="edge">
<title>Node37&#45;&gt;Node22</title>
<path fill="none" stroke="#191970" d="M1450.6199,-168.4509C1453.7188,-150.184 1460.5433,-109.9553 1464.6584,-85.6976"/>
<polygon fill="#191970" stroke="#191970" points="1468.1623,-85.9694 1466.3842,-75.5249 1461.2609,-84.7986 1468.1623,-85.9694"/>
</g>
<!-- Node38&#45;&gt;Node24 -->
<g id="edge60" class="edge">
<title>Node38&#45;&gt;Node24</title>
<path fill="none" stroke="#191970" d="M1196.1775,-224.2638C1193.0847,-210.1973 1185.5654,-184.1143 1170,-168 1143.2536,-140.3105 1042.2534,-99.8828 987.2457,-79.224"/>
<polygon fill="#191970" stroke="#191970" points="988.1307,-75.8186 977.538,-75.6041 985.6849,-82.3775 988.1307,-75.8186"/>
</g>
<!-- Node39 -->
<g id="node40" class="node">
<title>Node39</title>
<polygon fill="none" stroke="#bfbfbf" points="1006.5,-168.5 1006.5,-187.5 1059.5,-187.5 1059.5,-168.5 1006.5,-168.5"/>
<text text-anchor="middle" x="1033" y="-175.5" font-family="Helvetica,sans-Serif" font-size="10.00" fill="#000000">iterator</text>
</g>
<!-- Node38&#45;&gt;Node39 -->
<g id="edge59" class="edge">
<title>Node38&#45;&gt;Node39</title>
<path fill="none" stroke="#191970" d="M1169.6355,-224.3733C1141.9034,-214.9611 1099.5596,-200.5899 1069.3662,-190.3425"/>
<polygon fill="#191970" stroke="#191970" points="1070.2255,-186.9381 1059.6311,-187.0384 1067.9757,-193.5667 1070.2255,-186.9381"/>
</g>
<!-- Node40 -->
<g id="node41" class="node">
<title>Node40</title>
<g id="a_node41"><a xlink:href="Range_8inl_8hxx.html" target="_top" xlink:title="Range.inl.hxx">
<polygon fill="none" stroke="#000000" points="1077.5,-168.5 1077.5,-187.5 1160.5,-187.5 1160.5,-168.5 1077.5,-168.5"/>
<text text-anchor="middle" x="1119" y="-175.5" font-family="Helvetica,sans-Serif" font-size="10.00" fill="#000000">Range.inl.hxx</text>
</a>
</g>
</g>
<!-- Node38&#45;&gt;Node40 -->
<g id="edge61" class="edge">
<title>Node38&#45;&gt;Node40</title>
<path fill="none" stroke="#191970" d="M1184.2393,-224.2455C1172.3448,-215.814 1154.935,-203.4729 1141.0915,-193.6598"/>
<polygon fill="#191970" stroke="#191970" points="1142.7854,-190.5704 1132.6031,-187.6427 1138.7372,-196.2811 1142.7854,-190.5704"/>
</g>
<!-- Node41&#45;&gt;Node17 -->
<g id="edge64" class="edge">
<title>Node41&#45;&gt;Node17</title>
<path fill="none" stroke="#191970" d="M954.5348,-224.3388C947.0368,-215.4007 936.1943,-201.4956 929,-188 904.135,-141.3566 902.662,-127.061 889,-76 884.9024,-60.6853 881.7695,-42.9963 879.734,-29.788"/>
<polygon fill="#191970" stroke="#191970" points="883.1408,-28.8952 878.2311,-19.5066 876.2144,-29.9077 883.1408,-28.8952"/>
</g>
<!-- Node42 -->
<g id="node43" class="node">
<title>Node42</title>
<polygon fill="none" stroke="#bfbfbf" points="938,-168.5 938,-187.5 988,-187.5 988,-168.5 938,-168.5"/>
<text text-anchor="middle" x="963" y="-175.5" font-family="Helvetica,sans-Serif" font-size="10.00" fill="#000000">cstdint</text>
</g>
<!-- Node41&#45;&gt;Node42 -->
<g id="edge63" class="edge">
<title>Node41&#45;&gt;Node42</title>
<path fill="none" stroke="#191970" d="M963,-224.2455C963,-216.9382 963,-206.6944 963,-197.7046"/>
<polygon fill="#191970" stroke="#191970" points="966.5001,-197.6426 963,-187.6427 959.5001,-197.6427 966.5001,-197.6426"/>
</g>
</g>
</svg>
        <g id="navigator" transform="translate(0 0)" fill="#404254">
                <rect fill="#f2f5e9" fill-opacity="0.5" stroke="#606060" stroke-width=".5" x="0" y="0" width="60" height="60"/>
                <use id="zoomplus" xlink:href="#zoomPlus" x="17" y="9" onmousedown="handleZoom(evt,'in')"/>
                <use id="zoomminus" xlink:href="#zoomMin" x="42" y="9" onmousedown="handleZoom(evt,'out')"/>
                <use id="reset" xlink:href="#resetDef" x="30" y="36" onmousedown="handleReset()"/>
                <g id="arrowUp" xlink:href="#dirArrow" transform="translate(30 24)" onmousedown="handlePan(0,-1)">
                  <use xlink:href="#rim" fill="#404040">
                        <set attributeName="fill" to="#808080" begin="arrowUp.mouseover" end="arrowUp.mouseout"/>
                  </use>
                  <path fill="none" stroke="white" stroke-width="1.5" d="M0,-3.0v7 M-2.5,-0.5L0,-3.0L2.5,-0.5"/>
                </g>
                <g id="arrowRight" xlink:href="#dirArrow" transform="rotate(90) translate(36 -43)" onmousedown="handlePan(1,0)">
                  <use xlink:href="#rim" fill="#404040">
                        <set attributeName="fill" to="#808080" begin="arrowRight.mouseover" end="arrowRight.mouseout"/>
                  </use>
                  <path fill="none" stroke="white" stroke-width="1.5" d="M0,-3.0v7 M-2.5,-0.5L0,-3.0L2.5,-0.5"/>
                </g>
                <g id="arrowDown" xlink:href="#dirArrow" transform="rotate(180) translate(-30 -48)" onmousedown="handlePan(0,1)">
                  <use xlink:href="#rim" fill="#404040">
                        <set attributeName="fill" to="#808080" begin="arrowDown.mouseover" end="arrowDown.mouseout"/>
                  </use>
                  <path fill="none" stroke="white" stroke-width="1.5" d="M0,-3.0v7 M-2.5,-0.5L0,-3.0L2.5,-0.5"/>
                </g>
                <g id="arrowLeft" xlink:href="#dirArrow" transform="rotate(270) translate(-36 17)" onmousedown="handlePan(-1,0)">
                  <use xlink:href="#rim" fill="#404040">
                        <set attributeName="fill" to="#808080" begin="arrowLeft.mouseover" end="arrowLeft.mouseout"/>
                  </use>
                  <path fill="none" stroke="white" stroke-width="1.5" d="M0,-3.0v7 M-2.5,-0.5L0,-3.0L2.5,-0.5"/>
                </g>
        </g>
        <svg viewBox="0 0 15 15" width="100%" height="30px" preserveAspectRatio="xMaxYMin meet">
         <g id="arrow_out" transform="scale(0.3 0.3)">
          <a xlink:href="TileManager_8cxx__incl_org.svg" target="_base">
           <rect id="button" ry="5" rx="5" y="6" x="6" height="38" width="38"
                fill="#f2f5e9" fill-opacity="0.5" stroke="#606060" stroke-width="1.0"/>
           <path id="arrow"
             d="M 11.500037,31.436501 C 11.940474,20.09759 22.043105,11.32322 32.158766,21.979434 L 37.068811,17.246167 C 37.068811,17.246167 37.088388,32 37.088388,32 L 22.160133,31.978069 C 22.160133,31.978069 26.997745,27.140456 26.997745,27.140456 C 18.528582,18.264221 13.291696,25.230495 11.500037,31.436501 z"
             style="fill:#404040;"/>
          </a>
         </g>
        </svg>
</svg>
