<?xml version="1.0" encoding="UTF-8" standalone="no"?>
<!DOCTYPE svg PUBLIC "-//W3C//DTD SVG 1.1//EN"
 "http://www.w3.org/Graphics/SVG/1.1/DTD/svg11.dtd">
<!-- Generated by graphviz version 2.40.1 (20161225.0304)
 -->
<!-- Title: src/util/TransitiveModel.hxx Pages: 1 -->
<svg width="617pt" height="196pt"
 viewBox="0.00 0.00 617.00 196.00" xmlns="http://www.w3.org/2000/svg" xmlns:xlink="http://www.w3.org/1999/xlink">
<g id="graph0" class="graph" transform="scale(1 1) rotate(0) translate(4 192)">
<title>src/util/TransitiveModel.hxx</title>
<!-- Node0 -->
<g id="node1" class="node">
<title>Node0</title>
<polygon fill="#bfbfbf" stroke="#000000" points="305,-168.5 305,-187.5 455,-187.5 455,-168.5 305,-168.5"/>
<text text-anchor="middle" x="380" y="-175.5" font-family="Helvetica,sans-Serif" font-size="10.00" fill="#000000">src/util/TransitiveModel.hxx</text>
</g>
<!-- Node1 -->
<g id="node2" class="node">
<title>Node1</title>
<g id="a_node2"><a xlink:href="Meta_8hxx.html" target="_top" xlink:title="Meta.hxx">
<polygon fill="none" stroke="#000000" points="121,-56.5 121,-75.5 183,-75.5 183,-56.5 121,-56.5"/>
<text text-anchor="middle" x="152" y="-63.5" font-family="Helvetica,sans-Serif" font-size="10.00" fill="#000000">Meta.hxx</text>
</a>
</g>
</g>
<!-- Node0&#45;&gt;Node1 -->
<g id="edge1" class="edge">
<title>Node0&#45;&gt;Node1</title>
<path fill="none" stroke="#191970" d="M304.7834,-169.0518C254.1503,-161.595 193.2437,-149.3736 174,-132 160.9979,-120.2614 155.6669,-100.6403 153.4883,-85.8356"/>
<polygon fill="#191970" stroke="#191970" points="156.9414,-85.2175 152.362,-75.6635 149.9839,-85.988 156.9414,-85.2175"/>
</g>
<!-- Node6 -->
<g id="node7" class="node">
<title>Node6</title>
<g id="a_node7"><a xlink:href="Observer_8hxx.html" target="_top" xlink:title="Observer.hxx">
<polygon fill="none" stroke="#000000" points="183.5,-112.5 183.5,-131.5 264.5,-131.5 264.5,-112.5 183.5,-112.5"/>
<text text-anchor="middle" x="224" y="-119.5" font-family="Helvetica,sans-Serif" font-size="10.00" fill="#000000">Observer.hxx</text>
</a>
</g>
</g>
<!-- Node0&#45;&gt;Node6 -->
<g id="edge6" class="edge">
<title>Node0&#45;&gt;Node6</title>
<path fill="none" stroke="#191970" d="M353.1826,-168.3733C327.4668,-159.1419 288.462,-145.1402 260.0401,-134.9375"/>
<polygon fill="#191970" stroke="#191970" points="261.0619,-131.5857 250.4674,-131.5011 258.6968,-138.174 261.0619,-131.5857"/>
</g>
<!-- Node9 -->
<g id="node10" class="node">
<title>Node9</title>
<polygon fill="none" stroke="#bfbfbf" points="283,-112.5 283,-131.5 369,-131.5 369,-112.5 283,-112.5"/>
<text text-anchor="middle" x="326" y="-119.5" font-family="Helvetica,sans-Serif" font-size="10.00" fill="#000000">unordered_set</text>
</g>
<!-- Node0&#45;&gt;Node9 -->
<g id="edge10" class="edge">
<title>Node0&#45;&gt;Node9</title>
<path fill="none" stroke="#191970" d="M370.5939,-168.2455C362.8507,-160.2155 351.688,-148.6394 342.4682,-139.0781"/>
<polygon fill="#191970" stroke="#191970" points="344.7591,-136.4117 335.2983,-131.6427 339.7202,-141.2706 344.7591,-136.4117"/>
</g>
<!-- Node10 -->
<g id="node11" class="node">
<title>Node10</title>
<polygon fill="none" stroke="#bfbfbf" points="387.5,-112.5 387.5,-131.5 480.5,-131.5 480.5,-112.5 387.5,-112.5"/>
<text text-anchor="middle" x="434" y="-119.5" font-family="Helvetica,sans-Serif" font-size="10.00" fill="#000000">unordered_map</text>
</g>
<!-- Node0&#45;&gt;Node10 -->
<g id="edge11" class="edge">
<title>Node0&#45;&gt;Node10</title>
<path fill="none" stroke="#191970" d="M389.4061,-168.2455C397.1493,-160.2155 408.312,-148.6394 417.5318,-139.0781"/>
<polygon fill="#191970" stroke="#191970" points="420.2798,-141.2706 424.7017,-131.6427 415.2409,-136.4117 420.2798,-141.2706"/>
</g>
<!-- Node11 -->
<g id="node12" class="node">
<title>Node11</title>
<polygon fill="none" stroke="#bfbfbf" points="499,-112.5 499,-131.5 537,-131.5 537,-112.5 499,-112.5"/>
<text text-anchor="middle" x="518" y="-119.5" font-family="Helvetica,sans-Serif" font-size="10.00" fill="#000000">map</text>
</g>
<!-- Node0&#45;&gt;Node11 -->
<g id="edge12" class="edge">
<title>Node0&#45;&gt;Node11</title>
<path fill="none" stroke="#191970" d="M403.723,-168.3733C427.3982,-158.7659 463.8062,-143.9917 489.1425,-133.7103"/>
<polygon fill="#191970" stroke="#191970" points="490.6412,-136.8794 498.5913,-129.876 488.0091,-130.3931 490.6412,-136.8794"/>
</g>
<!-- Node12 -->
<g id="node13" class="node">
<title>Node12</title>
<polygon fill="none" stroke="#bfbfbf" points="555,-112.5 555,-131.5 609,-131.5 609,-112.5 555,-112.5"/>
<text text-anchor="middle" x="582" y="-119.5" font-family="Helvetica,sans-Serif" font-size="10.00" fill="#000000">ciso646</text>
</g>
<!-- Node0&#45;&gt;Node12 -->
<g id="edge13" class="edge">
<title>Node0&#45;&gt;Node12</title>
<path fill="none" stroke="#191970" d="M414.3376,-168.4915C445.8751,-159.7568 494.174,-146.3762 545.0157,-132.272"/>
<polygon fill="#191970" stroke="#191970" points="546.1734,-135.5831 554.8737,-129.537 544.302,-128.8379 546.1734,-135.5831"/>
</g>
<!-- Node2 -->
<g id="node3" class="node">
<title>Node2</title>
<polygon fill="none" stroke="#bfbfbf" points="0,-.5 0,-19.5 60,-19.5 60,-.5 0,-.5"/>
<text text-anchor="middle" x="30" y="-7.5" font-family="Helvetica,sans-Serif" font-size="10.00" fill="#000000">iostream</text>
</g>
<!-- Node1&#45;&gt;Node2 -->
<g id="edge2" class="edge">
<title>Node1&#45;&gt;Node2</title>
<path fill="none" stroke="#191970" d="M131.0275,-56.3733C111.4433,-47.3838 82.0039,-33.8706 59.949,-23.7471"/>
<polygon fill="#191970" stroke="#191970" points="61.2473,-20.4919 50.6989,-19.5011 58.3271,-26.8538 61.2473,-20.4919"/>
</g>
<!-- Node3 -->
<g id="node4" class="node">
<title>Node3</title>
<polygon fill="none" stroke="#bfbfbf" points="78.5,-.5 78.5,-19.5 147.5,-19.5 147.5,-.5 78.5,-.5"/>
<text text-anchor="middle" x="113" y="-7.5" font-family="Helvetica,sans-Serif" font-size="10.00" fill="#000000">type_traits</text>
</g>
<!-- Node1&#45;&gt;Node3 -->
<g id="edge3" class="edge">
<title>Node1&#45;&gt;Node3</title>
<path fill="none" stroke="#191970" d="M145.2067,-56.2455C139.7822,-48.4564 132.0339,-37.3308 125.4967,-27.9439"/>
<polygon fill="#191970" stroke="#191970" points="128.3025,-25.8485 119.7154,-19.6427 122.5583,-29.849 128.3025,-25.8485"/>
</g>
<!-- Node4 -->
<g id="node5" class="node">
<title>Node4</title>
<polygon fill="none" stroke="#bfbfbf" points="165.5,-.5 165.5,-19.5 216.5,-19.5 216.5,-.5 165.5,-.5"/>
<text text-anchor="middle" x="191" y="-7.5" font-family="Helvetica,sans-Serif" font-size="10.00" fill="#000000">variant</text>
</g>
<!-- Node1&#45;&gt;Node4 -->
<g id="edge4" class="edge">
<title>Node1&#45;&gt;Node4</title>
<path fill="none" stroke="#191970" d="M158.7933,-56.2455C164.2178,-48.4564 171.9661,-37.3308 178.5033,-27.9439"/>
<polygon fill="#191970" stroke="#191970" points="181.4417,-29.849 184.2846,-19.6427 175.6975,-25.8485 181.4417,-29.849"/>
</g>
<!-- Node5 -->
<g id="node6" class="node">
<title>Node5</title>
<polygon fill="none" stroke="#bfbfbf" points="234.5,-.5 234.5,-19.5 275.5,-19.5 275.5,-.5 234.5,-.5"/>
<text text-anchor="middle" x="255" y="-7.5" font-family="Helvetica,sans-Serif" font-size="10.00" fill="#000000">tuple</text>
</g>
<!-- Node1&#45;&gt;Node5 -->
<g id="edge5" class="edge">
<title>Node1&#45;&gt;Node5</title>
<path fill="none" stroke="#191970" d="M169.9412,-56.2455C186.04,-47.4928 209.8879,-34.527 228.2391,-24.5496"/>
<polygon fill="#191970" stroke="#191970" points="230.1507,-27.4942 237.2644,-19.6427 226.8071,-21.3444 230.1507,-27.4942"/>
</g>
<!-- Node6&#45;&gt;Node1 -->
<g id="edge9" class="edge">
<title>Node6&#45;&gt;Node1</title>
<path fill="none" stroke="#191970" d="M211.4586,-112.2455C200.7213,-103.8943 185.0527,-91.7076 172.4953,-81.9408"/>
<polygon fill="#191970" stroke="#191970" points="174.4401,-79.0194 164.3977,-75.6427 170.1425,-84.5449 174.4401,-79.0194"/>
</g>
<!-- Node7 -->
<g id="node8" class="node">
<title>Node7</title>
<polygon fill="none" stroke="#bfbfbf" points="201.5,-56.5 201.5,-75.5 248.5,-75.5 248.5,-56.5 201.5,-56.5"/>
<text text-anchor="middle" x="225" y="-63.5" font-family="Helvetica,sans-Serif" font-size="10.00" fill="#000000">vector</text>
</g>
<!-- Node6&#45;&gt;Node7 -->
<g id="edge7" class="edge">
<title>Node6&#45;&gt;Node7</title>
<path fill="none" stroke="#191970" d="M224.1742,-112.2455C224.3047,-104.9382 224.4876,-94.6944 224.6481,-85.7046"/>
<polygon fill="#191970" stroke="#191970" points="228.1486,-85.7036 224.8278,-75.6427 221.1497,-85.5786 228.1486,-85.7036"/>
</g>
<!-- Node8 -->
<g id="node9" class="node">
<title>Node8</title>
<polygon fill="none" stroke="#bfbfbf" points="267,-56.5 267,-75.5 325,-75.5 325,-56.5 267,-56.5"/>
<text text-anchor="middle" x="296" y="-63.5" font-family="Helvetica,sans-Serif" font-size="10.00" fill="#000000">memory</text>
</g>
<!-- Node6&#45;&gt;Node8 -->
<g id="edge8" class="edge">
<title>Node6&#45;&gt;Node8</title>
<path fill="none" stroke="#191970" d="M236.5414,-112.2455C247.2787,-103.8943 262.9473,-91.7076 275.5047,-81.9408"/>
<polygon fill="#191970" stroke="#191970" points="277.8575,-84.5449 283.6023,-75.6427 273.5599,-79.0194 277.8575,-84.5449"/>
</g>
</g>
</svg>
