<?xml version="1.0" encoding="UTF-8" standalone="no"?>
<!DOCTYPE svg PUBLIC "-//W3C//DTD SVG 1.1//EN"
 "http://www.w3.org/Graphics/SVG/1.1/DTD/svg11.dtd">
<!-- Generated by graphviz version 2.40.1 (20161225.0304)
 -->
<!-- Title: src/engine/UIManager.hxx Pages: 1 -->
<svg width="1213pt" height="532pt"
 viewBox="0.00 0.00 1213.00 532.00" xmlns="http://www.w3.org/2000/svg" xmlns:xlink="http://www.w3.org/1999/xlink">
<g id="graph0" class="graph" transform="scale(1 1) rotate(0) translate(4 528)">
<title>src/engine/UIManager.hxx</title>
<!-- Node0 -->
<g id="node1" class="node">
<title>Node0</title>
<polygon fill="#bfbfbf" stroke="#000000" points="560.5,-504.5 560.5,-523.5 703.5,-523.5 703.5,-504.5 560.5,-504.5"/>
<text text-anchor="middle" x="632" y="-511.5" font-family="Helvetica,sans-Serif" font-size="10.00" fill="#000000">src/engine/UIManager.hxx</text>
</g>
<!-- Node1 -->
<g id="node2" class="node">
<title>Node1</title>
<polygon fill="none" stroke="#bfbfbf" points="261,-112.5 261,-131.5 305,-131.5 305,-112.5 261,-112.5"/>
<text text-anchor="middle" x="283" y="-119.5" font-family="Helvetica,sans-Serif" font-size="10.00" fill="#000000">SDL.h</text>
</g>
<!-- Node0&#45;&gt;Node1 -->
<g id="edge1" class="edge">
<title>Node0&#45;&gt;Node1</title>
<path fill="none" stroke="#191970" d="M560.3245,-508.9346C455.0532,-501.0671 263.877,-485.034 197,-468 122.8544,-449.1147 38,-478.5129 38,-402 38,-402 38,-402 38,-234 38,-187.7198 184.4303,-146.0579 250.882,-129.5341"/>
<polygon fill="#191970" stroke="#191970" points="251.9442,-132.8776 260.8258,-127.1011 250.2804,-126.0781 251.9442,-132.8776"/>
</g>
<!-- Node2 -->
<g id="node3" class="node">
<title>Node2</title>
<polygon fill="none" stroke="#bfbfbf" points="171.5,-56.5 171.5,-75.5 218.5,-75.5 218.5,-56.5 171.5,-56.5"/>
<text text-anchor="middle" x="195" y="-63.5" font-family="Helvetica,sans-Serif" font-size="10.00" fill="#000000">vector</text>
</g>
<!-- Node0&#45;&gt;Node2 -->
<g id="edge2" class="edge">
<title>Node0&#45;&gt;Node2</title>
<path fill="none" stroke="#191970" d="M560.2361,-511.1742C416.6308,-505.0933 103.8714,-489.5514 60,-468 24.4185,-450.521 0,-441.6428 0,-402 0,-402 0,-402 0,-178 0,-104.4624 105.5683,-78.5061 161.3543,-69.9236"/>
<polygon fill="#191970" stroke="#191970" points="162.0762,-73.3559 171.4784,-68.4726 161.083,-66.4268 162.0762,-73.3559"/>
</g>
<!-- Node3 -->
<g id="node4" class="node">
<title>Node3</title>
<g id="a_node4"><a xlink:href="UIElement_8hxx.html" target="_top" xlink:title="ui/basics/UIElement.hxx">
<polygon fill="none" stroke="#000000" points="622,-280.5 622,-299.5 756,-299.5 756,-280.5 622,-280.5"/>
<text text-anchor="middle" x="689" y="-287.5" font-family="Helvetica,sans-Serif" font-size="10.00" fill="#000000">ui/basics/UIElement.hxx</text>
</a>
</g>
</g>
<!-- Node0&#45;&gt;Node3 -->
<g id="edge3" class="edge">
<title>Node0&#45;&gt;Node3</title>
<path fill="none" stroke="#191970" d="M577.0484,-504.4904C504.0506,-489.2434 388.6253,-454.4986 428,-392 451.2648,-355.0724 570.1303,-319.8025 639.1584,-302.0068"/>
<polygon fill="#191970" stroke="#191970" points="640.1369,-305.3694 648.964,-299.5099 638.4095,-298.5859 640.1369,-305.3694"/>
</g>
<!-- Node15 -->
<g id="node16" class="node">
<title>Node15</title>
<g id="a_node16"><a xlink:href="Singleton_8hxx.html" target="_top" xlink:title="Singleton.hxx">
<polygon fill="none" stroke="#000000" points="477.5,-112.5 477.5,-131.5 560.5,-131.5 560.5,-112.5 477.5,-112.5"/>
<text text-anchor="middle" x="519" y="-119.5" font-family="Helvetica,sans-Serif" font-size="10.00" fill="#000000">Singleton.hxx</text>
</a>
</g>
</g>
<!-- Node0&#45;&gt;Node15 -->
<g id="edge74" class="edge">
<title>Node0&#45;&gt;Node15</title>
<path fill="none" stroke="#191970" d="M703.5801,-511.2263C784.5441,-506.8411 919.8485,-495.7266 1033,-468 1112.5264,-448.5129 1205,-483.8792 1205,-402 1205,-402 1205,-402 1205,-346 1205,-228.8714 1069.6222,-290.2232 962,-244 884.8349,-210.858 869.5208,-191.8586 789,-168 697.0656,-140.7595 668.3251,-149.1218 570.7069,-132.2318"/>
<polygon fill="#191970" stroke="#191970" points="571.1789,-128.761 560.7209,-130.4583 569.9548,-135.6531 571.1789,-128.761"/>
</g>
<!-- Node23 -->
<g id="node24" class="node">
<title>Node23</title>
<g id="a_node24"><a xlink:href="Layout_8hxx.html" target="_top" xlink:title="ui/basics/Layout.hxx">
<polygon fill="none" stroke="#000000" points="66,-336.5 66,-355.5 182,-355.5 182,-336.5 66,-336.5"/>
<text text-anchor="middle" x="124" y="-343.5" font-family="Helvetica,sans-Serif" font-size="10.00" fill="#000000">ui/basics/Layout.hxx</text>
</a>
</g>
</g>
<!-- Node0&#45;&gt;Node23 -->
<g id="edge37" class="edge">
<title>Node0&#45;&gt;Node23</title>
<path fill="none" stroke="#191970" d="M560.3145,-512.1066C460.0488,-508.4067 283.9275,-497.7682 228,-468 183.3621,-444.2408 149.7001,-392.7551 133.9185,-364.8662"/>
<polygon fill="#191970" stroke="#191970" points="136.8006,-362.8423 128.926,-355.7541 130.6616,-366.2058 136.8006,-362.8423"/>
</g>
<!-- Node24 -->
<g id="node25" class="node">
<title>Node24</title>
<g id="a_node25"><a xlink:href="ButtonGroup_8hxx.html" target="_top" xlink:title="ui/basics/ButtonGroup.hxx">
<polygon fill="none" stroke="#000000" points="797.5,-448.5 797.5,-467.5 942.5,-467.5 942.5,-448.5 797.5,-448.5"/>
<text text-anchor="middle" x="870" y="-455.5" font-family="Helvetica,sans-Serif" font-size="10.00" fill="#000000">ui/basics/ButtonGroup.hxx</text>
</a>
</g>
</g>
<!-- Node0&#45;&gt;Node24 -->
<g id="edge42" class="edge">
<title>Node0&#45;&gt;Node24</title>
<path fill="none" stroke="#191970" d="M672.6432,-504.4369C713.2895,-494.8731 775.8913,-480.1432 819.6587,-469.845"/>
<polygon fill="#191970" stroke="#191970" points="820.5919,-473.2211 829.5244,-467.5237 818.9886,-466.4072 820.5919,-473.2211"/>
</g>
<!-- Node25 -->
<g id="node26" class="node">
<title>Node25</title>
<g id="a_node26"><a xlink:href="Button_8hxx.html" target="_top" xlink:title="../widgets/Button.hxx">
<polygon fill="none" stroke="#000000" points="911,-392.5 911,-411.5 1031,-411.5 1031,-392.5 911,-392.5"/>
<text text-anchor="middle" x="971" y="-399.5" font-family="Helvetica,sans-Serif" font-size="10.00" fill="#000000">../widgets/Button.hxx</text>
</a>
</g>
</g>
<!-- Node0&#45;&gt;Node25 -->
<g id="edge49" class="edge">
<title>Node0&#45;&gt;Node25</title>
<path fill="none" stroke="#191970" d="M703.7966,-507.8009C792.3744,-499.5246 933.5905,-484.0371 952,-468 965.0393,-456.641 969.4025,-436.9694 970.735,-422.0496"/>
<polygon fill="#191970" stroke="#191970" points="974.2447,-421.9477 971.2568,-411.7829 967.2537,-421.5923 974.2447,-421.9477"/>
</g>
<!-- Node26 -->
<g id="node27" class="node">
<title>Node26</title>
<g id="a_node27"><a xlink:href="Text_8hxx.html" target="_top" xlink:title="Text.hxx">
<polygon fill="none" stroke="#000000" points="949,-336.5 949,-355.5 1007,-355.5 1007,-336.5 949,-336.5"/>
<text text-anchor="middle" x="978" y="-343.5" font-family="Helvetica,sans-Serif" font-size="10.00" fill="#000000">Text.hxx</text>
</a>
</g>
</g>
<!-- Node0&#45;&gt;Node26 -->
<g id="edge60" class="edge">
<title>Node0&#45;&gt;Node26</title>
<path fill="none" stroke="#191970" d="M703.7488,-508.9242C788.9063,-502.098 925.2587,-488.4098 972,-468 1013.5374,-449.8625 1060.3747,-432.4869 1040,-392 1035.8449,-383.7433 1018.1691,-371.0303 1002.7484,-361.06"/>
<polygon fill="#191970" stroke="#191970" points="1004.3717,-357.9455 994.0487,-355.5609 1000.6315,-363.8626 1004.3717,-357.9455"/>
</g>
<!-- Node27 -->
<g id="node28" class="node">
<title>Node27</title>
<g id="a_node28"><a xlink:href="Checkbox_8hxx.html" target="_top" xlink:title="ui/widgets/Checkbox.hxx">
<polygon fill="none" stroke="#000000" points="715.5,-392.5 715.5,-411.5 854.5,-411.5 854.5,-392.5 715.5,-392.5"/>
<text text-anchor="middle" x="785" y="-399.5" font-family="Helvetica,sans-Serif" font-size="10.00" fill="#000000">ui/widgets/Checkbox.hxx</text>
</a>
</g>
</g>
<!-- Node0&#45;&gt;Node27 -->
<g id="edge50" class="edge">
<title>Node0&#45;&gt;Node27</title>
<path fill="none" stroke="#191970" d="M645.0447,-504.4509C671.4666,-485.1094 731.523,-441.1465 763.7024,-417.5904"/>
<polygon fill="#191970" stroke="#191970" points="765.9866,-420.2559 771.9883,-411.5249 761.8518,-414.6075 765.9866,-420.2559"/>
</g>
<!-- Node28 -->
<g id="node29" class="node">
<title>Node28</title>
<g id="a_node29"><a xlink:href="Combobox_8hxx.html" target="_top" xlink:title="ui/widgets/Combobox.hxx">
<polygon fill="none" stroke="#000000" points="237.5,-448.5 237.5,-467.5 380.5,-467.5 380.5,-448.5 237.5,-448.5"/>
<text text-anchor="middle" x="309" y="-455.5" font-family="Helvetica,sans-Serif" font-size="10.00" fill="#000000">ui/widgets/Combobox.hxx</text>
</a>
</g>
</g>
<!-- Node0&#45;&gt;Node28 -->
<g id="edge52" class="edge">
<title>Node0&#45;&gt;Node28</title>
<path fill="none" stroke="#191970" d="M576.8413,-504.4369C520.6333,-494.6918 433.4888,-479.5832 373.9718,-469.2645"/>
<polygon fill="#191970" stroke="#191970" points="374.3821,-465.7835 363.9312,-467.5237 373.1863,-472.6806 374.3821,-465.7835"/>
</g>
<!-- Node29 -->
<g id="node30" class="node">
<title>Node29</title>
<g id="a_node30"><a xlink:href="TextField_8hxx.html" target="_top" xlink:title="TextField.hxx">
<polygon fill="none" stroke="#000000" points="617,-392.5 617,-411.5 697,-411.5 697,-392.5 617,-392.5"/>
<text text-anchor="middle" x="657" y="-399.5" font-family="Helvetica,sans-Serif" font-size="10.00" fill="#000000">TextField.hxx</text>
</a>
</g>
</g>
<!-- Node0&#45;&gt;Node29 -->
<g id="edge61" class="edge">
<title>Node0&#45;&gt;Node29</title>
<path fill="none" stroke="#191970" d="M639.3819,-504.4183C645.7273,-495.5336 654.4061,-481.6624 658,-468 662.0086,-452.7614 661.4226,-434.8523 660.0212,-421.5375"/>
<polygon fill="#191970" stroke="#191970" points="663.4889,-421.0616 658.7351,-411.5931 656.5467,-421.9595 663.4889,-421.0616"/>
</g>
<!-- Node30 -->
<g id="node31" class="node">
<title>Node30</title>
<g id="a_node31"><a xlink:href="Frame_8hxx.html" target="_top" xlink:title="ui/widgets/Frame.hxx">
<polygon fill="none" stroke="#000000" points="527.5,-448.5 527.5,-467.5 648.5,-467.5 648.5,-448.5 527.5,-448.5"/>
<text text-anchor="middle" x="588" y="-455.5" font-family="Helvetica,sans-Serif" font-size="10.00" fill="#000000">ui/widgets/Frame.hxx</text>
</a>
</g>
</g>
<!-- Node0&#45;&gt;Node30 -->
<g id="edge58" class="edge">
<title>Node0&#45;&gt;Node30</title>
<path fill="none" stroke="#191970" d="M624.3358,-504.2455C618.1527,-496.3761 609.2937,-485.101 601.8711,-475.6542"/>
<polygon fill="#191970" stroke="#191970" points="604.5068,-473.3435 595.5764,-467.6427 599.0025,-477.6683 604.5068,-473.3435"/>
</g>
<!-- Node31 -->
<g id="node32" class="node">
<title>Node31</title>
<g id="a_node32"><a xlink:href="Tooltip_8hxx.html" target="_top" xlink:title="ui/widgets/Tooltip.hxx">
<polygon fill="none" stroke="#000000" points="437.5,-392.5 437.5,-411.5 560.5,-411.5 560.5,-392.5 437.5,-392.5"/>
<text text-anchor="middle" x="499" y="-399.5" font-family="Helvetica,sans-Serif" font-size="10.00" fill="#000000">ui/widgets/Tooltip.hxx</text>
</a>
</g>
</g>
<!-- Node0&#45;&gt;Node31 -->
<g id="edge62" class="edge">
<title>Node0&#45;&gt;Node31</title>
<path fill="none" stroke="#191970" d="M582.4603,-504.4437C559.9714,-497.7461 534.7223,-486.5441 518,-468 506.6586,-455.423 502.0534,-436.486 500.2008,-422.1175"/>
<polygon fill="#191970" stroke="#191970" points="503.6499,-421.411 499.2291,-411.7825 496.6806,-422.0663 503.6499,-421.411"/>
</g>
<!-- Node36 -->
<g id="node37" class="node">
<title>Node36</title>
<g id="a_node37"><a xlink:href="Slider_8hxx.html" target="_top" xlink:title="ui/widgets/Slider.hxx">
<polygon fill="none" stroke="#000000" points="1038,-336.5 1038,-355.5 1156,-355.5 1156,-336.5 1038,-336.5"/>
<text text-anchor="middle" x="1097" y="-343.5" font-family="Helvetica,sans-Serif" font-size="10.00" fill="#000000">ui/widgets/Slider.hxx</text>
</a>
</g>
</g>
<!-- Node0&#45;&gt;Node36 -->
<g id="edge71" class="edge">
<title>Node0&#45;&gt;Node36</title>
<path fill="none" stroke="#191970" d="M703.7999,-511.1518C797.3477,-506.4263 954.9937,-494.6947 1006,-468 1048.7439,-445.6296 1076.8052,-393.113 1089.3855,-364.8292"/>
<polygon fill="#191970" stroke="#191970" points="1092.6154,-366.1775 1093.3184,-355.606 1086.1764,-363.4318 1092.6154,-366.1775"/>
</g>
<!-- Node3&#45;&gt;Node1 -->
<g id="edge36" class="edge">
<title>Node3&#45;&gt;Node1</title>
<path fill="none" stroke="#191970" d="M678.4401,-280.2492C649.6843,-253.9006 570.0019,-182.2975 538,-168 446.7384,-127.227 413.3801,-154.5441 316,-132 315.6719,-131.9241 315.3424,-131.8466 315.0115,-131.7678"/>
<polygon fill="#191970" stroke="#191970" points="315.8206,-128.3615 305.2578,-129.1849 314.0286,-135.1282 315.8206,-128.3615"/>
</g>
<!-- Node4 -->
<g id="node5" class="node">
<title>Node4</title>
<polygon fill="none" stroke="#bfbfbf" points="956,-56.5 956,-75.5 1000,-75.5 1000,-56.5 956,-56.5"/>
<text text-anchor="middle" x="978" y="-63.5" font-family="Helvetica,sans-Serif" font-size="10.00" fill="#000000">string</text>
</g>
<!-- Node3&#45;&gt;Node4 -->
<g id="edge4" class="edge">
<title>Node3&#45;&gt;Node4</title>
<path fill="none" stroke="#191970" d="M746.615,-280.4626C809.0827,-267.8422 909.3076,-240.7397 980,-188 1013.2117,-163.2226 1051.7078,-149.4616 1034,-112 1027.9754,-99.2547 1016.4968,-88.8542 1005.4926,-81.1874"/>
<polygon fill="#191970" stroke="#191970" points="1007.1828,-78.1127 996.8824,-75.6324 1003.3879,-83.9948 1007.1828,-78.1127"/>
</g>
<!-- Node5 -->
<g id="node6" class="node">
<title>Node5</title>
<g id="a_node6"><a xlink:href="mapEdit_8hxx.html" target="_top" xlink:title="../../basics/mapEdit.hxx">
<polygon fill="none" stroke="#000000" points="971,-224.5 971,-243.5 1101,-243.5 1101,-224.5 971,-224.5"/>
<text text-anchor="middle" x="1036" y="-231.5" font-family="Helvetica,sans-Serif" font-size="10.00" fill="#000000">../../basics/mapEdit.hxx</text>
</a>
</g>
</g>
<!-- Node3&#45;&gt;Node5 -->
<g id="edge5" class="edge">
<title>Node3&#45;&gt;Node5</title>
<path fill="none" stroke="#191970" d="M748.2572,-280.4369C808.8911,-270.6516 903.0356,-255.4582 966.9917,-245.1368"/>
<polygon fill="#191970" stroke="#191970" points="967.6726,-248.5723 976.9873,-243.5237 966.5573,-241.6617 967.6726,-248.5723"/>
</g>
<!-- Node6 -->
<g id="node7" class="node">
<title>Node6</title>
<g id="a_node7"><a xlink:href="ResourcesManager_8hxx.html" target="_top" xlink:title="../../ResourcesManager.hxx">
<polygon fill="none" stroke="#000000" points="717,-224.5 717,-243.5 863,-243.5 863,-224.5 717,-224.5"/>
<text text-anchor="middle" x="790" y="-231.5" font-family="Helvetica,sans-Serif" font-size="10.00" fill="#000000">../../ResourcesManager.hxx</text>
</a>
</g>
</g>
<!-- Node3&#45;&gt;Node6 -->
<g id="edge7" class="edge">
<title>Node3&#45;&gt;Node6</title>
<path fill="none" stroke="#191970" d="M706.5929,-280.2455C722.379,-271.4928 745.7639,-258.527 763.7587,-248.5496"/>
<polygon fill="#191970" stroke="#191970" points="765.5603,-251.5528 772.6087,-243.6427 762.1659,-245.4308 765.5603,-251.5528"/>
</g>
<!-- Node17 -->
<g id="node18" class="node">
<title>Node17</title>
<g id="a_node18"><a xlink:href="WindowManager_8hxx.html" target="_top" xlink:title="../../WindowManager.hxx">
<polygon fill="none" stroke="#000000" points="624,-168.5 624,-187.5 760,-187.5 760,-168.5 624,-168.5"/>
<text text-anchor="middle" x="692" y="-175.5" font-family="Helvetica,sans-Serif" font-size="10.00" fill="#000000">../../WindowManager.hxx</text>
</a>
</g>
</g>
<!-- Node3&#45;&gt;Node17 -->
<g id="edge24" class="edge">
<title>Node3&#45;&gt;Node17</title>
<path fill="none" stroke="#191970" d="M689.2558,-280.4509C689.7451,-262.184 690.8226,-221.9553 691.4724,-197.6976"/>
<polygon fill="#191970" stroke="#191970" points="694.9758,-197.6151 691.7449,-187.5249 687.9783,-197.4276 694.9758,-197.6151"/>
</g>
<!-- Node18 -->
<g id="node19" class="node">
<title>Node18</title>
<g id="a_node19"><a xlink:href="signal_8hxx.html" target="_top" xlink:title="../../basics/signal.hxx">
<polygon fill="none" stroke="#000000" points="452.5,-224.5 452.5,-243.5 571.5,-243.5 571.5,-224.5 452.5,-224.5"/>
<text text-anchor="middle" x="512" y="-231.5" font-family="Helvetica,sans-Serif" font-size="10.00" fill="#000000">../../basics/signal.hxx</text>
</a>
</g>
</g>
<!-- Node3&#45;&gt;Node18 -->
<g id="edge30" class="edge">
<title>Node3&#45;&gt;Node18</title>
<path fill="none" stroke="#191970" d="M658.5726,-280.3733C629.0128,-271.021 583.9774,-256.7725 551.6305,-246.5385"/>
<polygon fill="#191970" stroke="#191970" points="552.6203,-243.1807 542.0303,-243.5011 550.5087,-249.8546 552.6203,-243.1807"/>
</g>
<!-- Node5&#45;&gt;Node4 -->
<g id="edge6" class="edge">
<title>Node5&#45;&gt;Node4</title>
<path fill="none" stroke="#191970" d="M1043.064,-224.3997C1058.023,-202.7959 1089.7288,-149.3326 1067,-112 1054.6198,-91.6653 1030.0358,-79.9252 1009.8371,-73.4023"/>
<polygon fill="#191970" stroke="#191970" points="1010.6361,-69.9891 1000.0549,-70.5266 1008.6618,-76.7049 1010.6361,-69.9891"/>
</g>
<!-- Node6&#45;&gt;Node1 -->
<g id="edge10" class="edge">
<title>Node6&#45;&gt;Node1</title>
<path fill="none" stroke="#191970" d="M744.7322,-224.4398C708.9961,-216.3362 658.1433,-203.5629 615,-188 595.1733,-180.848 592.2119,-173.9772 572,-168 461.8196,-135.4168 428.2034,-156.7343 316,-132 315.6712,-131.9275 315.3408,-131.8534 315.0093,-131.7777"/>
<polygon fill="#191970" stroke="#191970" points="315.8012,-128.3674 305.2431,-129.2498 314.047,-135.1441 315.8012,-128.3674"/>
</g>
<!-- Node7 -->
<g id="node8" class="node">
<title>Node7</title>
<polygon fill="none" stroke="#bfbfbf" points="399,-112.5 399,-131.5 459,-131.5 459,-112.5 399,-112.5"/>
<text text-anchor="middle" x="429" y="-119.5" font-family="Helvetica,sans-Serif" font-size="10.00" fill="#000000">iostream</text>
</g>
<!-- Node6&#45;&gt;Node7 -->
<g id="edge8" class="edge">
<title>Node6&#45;&gt;Node7</title>
<path fill="none" stroke="#191970" d="M789.9781,-224.1396C789.3646,-209.4206 785.8658,-181.9452 769,-168 719.3135,-126.9176 549.6892,-142.8476 469.401,-131.8065"/>
<polygon fill="#191970" stroke="#191970" points="469.5763,-128.2895 459.1458,-130.1486 468.4591,-135.1998 469.5763,-128.2895"/>
</g>
<!-- Node8 -->
<g id="node9" class="node">
<title>Node8</title>
<polygon fill="none" stroke="#bfbfbf" points="931.5,-112.5 931.5,-131.5 1024.5,-131.5 1024.5,-112.5 931.5,-112.5"/>
<text text-anchor="middle" x="978" y="-119.5" font-family="Helvetica,sans-Serif" font-size="10.00" fill="#000000">unordered_map</text>
</g>
<!-- Node6&#45;&gt;Node8 -->
<g id="edge9" class="edge">
<title>Node6&#45;&gt;Node8</title>
<path fill="none" stroke="#191970" d="M849.7255,-224.4915C892.5465,-216.4976 945.324,-203.8444 961,-188 973.0693,-175.801 976.9197,-156.2411 977.9899,-141.576"/>
<polygon fill="#191970" stroke="#191970" points="981.4898,-141.6395 978.3564,-131.5187 974.4944,-141.3845 981.4898,-141.6395"/>
</g>
<!-- Node9 -->
<g id="node10" class="node">
<title>Node9</title>
<g id="a_node10"><a xlink:href="TileManager_8hxx.html" target="_top" xlink:title="TileManager.hxx">
<polygon fill="none" stroke="#000000" points="854.5,-168.5 854.5,-187.5 951.5,-187.5 951.5,-168.5 854.5,-168.5"/>
<text text-anchor="middle" x="903" y="-175.5" font-family="Helvetica,sans-Serif" font-size="10.00" fill="#000000">TileManager.hxx</text>
</a>
</g>
</g>
<!-- Node6&#45;&gt;Node9 -->
<g id="edge11" class="edge">
<title>Node6&#45;&gt;Node9</title>
<path fill="none" stroke="#191970" d="M809.4254,-224.3733C827.4021,-215.4644 854.3441,-202.1127 874.709,-192.0203"/>
<polygon fill="#191970" stroke="#191970" points="876.4222,-195.0776 883.8281,-187.5011 873.3139,-188.8055 876.4222,-195.0776"/>
</g>
<!-- Node9&#45;&gt;Node1 -->
<g id="edge12" class="edge">
<title>Node9&#45;&gt;Node1</title>
<path fill="none" stroke="#191970" d="M854.1887,-173.6847C762.9905,-165.6083 560.5257,-147.6138 390,-132 364.887,-129.7006 336.4644,-127.0416 315.2278,-125.0437"/>
<polygon fill="#191970" stroke="#191970" points="315.4141,-121.5459 305.1299,-124.0927 314.7576,-128.5151 315.4141,-121.5459"/>
</g>
<!-- Node9&#45;&gt;Node4 -->
<g id="edge14" class="edge">
<title>Node9&#45;&gt;Node4</title>
<path fill="none" stroke="#191970" d="M904.1648,-168.3033C906.1676,-154.741 911.245,-129.7766 923,-112 930.9641,-99.9563 943.0024,-89.3829 953.788,-81.42"/>
<polygon fill="#191970" stroke="#191970" points="955.8885,-84.2218 962.0674,-75.6153 951.87,-78.4901 955.8885,-84.2218"/>
</g>
<!-- Node9&#45;&gt;Node8 -->
<g id="edge13" class="edge">
<title>Node9&#45;&gt;Node8</title>
<path fill="none" stroke="#191970" d="M916.064,-168.2455C927.3562,-159.814 943.8845,-147.4729 957.0271,-137.6598"/>
<polygon fill="#191970" stroke="#191970" points="959.1669,-140.4301 965.0857,-131.6427 954.9789,-134.8211 959.1669,-140.4301"/>
</g>
<!-- Node10 -->
<g id="node11" class="node">
<title>Node10</title>
<g id="a_node11"><a xlink:href="tileData_8hxx.html" target="_top" xlink:title="tileData.hxx">
<polygon fill="none" stroke="#000000" points="578.5,-112.5 578.5,-131.5 655.5,-131.5 655.5,-112.5 578.5,-112.5"/>
<text text-anchor="middle" x="617" y="-119.5" font-family="Helvetica,sans-Serif" font-size="10.00" fill="#000000">tileData.hxx</text>
</a>
</g>
</g>
<!-- Node9&#45;&gt;Node10 -->
<g id="edge15" class="edge">
<title>Node9&#45;&gt;Node10</title>
<path fill="none" stroke="#191970" d="M854.1869,-168.7795C808.2111,-160.0467 737.1392,-146.4239 665.5977,-132.0981"/>
<polygon fill="#191970" stroke="#191970" points="665.9955,-128.6082 655.5024,-130.0724 664.6183,-135.4714 665.9955,-128.6082"/>
</g>
<!-- Node14 -->
<g id="node15" class="node">
<title>Node14</title>
<polygon fill="none" stroke="#bfbfbf" points="817,-112.5 817,-131.5 875,-131.5 875,-112.5 817,-112.5"/>
<text text-anchor="middle" x="846" y="-119.5" font-family="Helvetica,sans-Serif" font-size="10.00" fill="#000000">json.hxx</text>
</g>
<!-- Node9&#45;&gt;Node14 -->
<g id="edge21" class="edge">
<title>Node9&#45;&gt;Node14</title>
<path fill="none" stroke="#191970" d="M893.0714,-168.2455C884.8162,-160.1352 872.8791,-148.4075 863.0918,-138.7919"/>
<polygon fill="#191970" stroke="#191970" points="865.4011,-136.1542 855.8149,-131.6427 860.4954,-141.1476 865.4011,-136.1542"/>
</g>
<!-- Node9&#45;&gt;Node15 -->
<g id="edge22" class="edge">
<title>Node9&#45;&gt;Node15</title>
<path fill="none" stroke="#191970" d="M854.1796,-170.1256C849.3907,-169.3908 844.6026,-168.6709 840,-168 722.9382,-150.9369 690.5498,-151.8616 570.6422,-132.1964"/>
<polygon fill="#191970" stroke="#191970" points="571.1416,-128.7316 560.7045,-130.5527 569.9992,-135.6377 571.1416,-128.7316"/>
</g>
<!-- Node16 -->
<g id="node17" class="node">
<title>Node16</title>
<polygon fill="none" stroke="#bfbfbf" points="673.5,-112.5 673.5,-131.5 798.5,-131.5 798.5,-112.5 673.5,-112.5"/>
<text text-anchor="middle" x="736" y="-119.5" font-family="Helvetica,sans-Serif" font-size="10.00" fill="#000000">../common/enums.hxx</text>
</g>
<!-- Node9&#45;&gt;Node16 -->
<g id="edge23" class="edge">
<title>Node9&#45;&gt;Node16</title>
<path fill="none" stroke="#191970" d="M874.2917,-168.3733C846.6423,-159.1016 804.6424,-145.0178 774.1834,-134.804"/>
<polygon fill="#191970" stroke="#191970" points="774.9276,-131.3621 764.3337,-131.5011 772.7021,-137.9989 774.9276,-131.3621"/>
</g>
<!-- Node10&#45;&gt;Node2 -->
<g id="edge17" class="edge">
<title>Node10&#45;&gt;Node2</title>
<path fill="none" stroke="#191970" d="M578.2792,-113.6454C575.1456,-113.0571 572.0234,-112.5 569,-112 444.2752,-91.3741 294.7421,-75.6763 228.9223,-69.2193"/>
<polygon fill="#191970" stroke="#191970" points="229.0187,-65.7123 218.7268,-68.2276 228.3409,-72.6794 229.0187,-65.7123"/>
</g>
<!-- Node10&#45;&gt;Node4 -->
<g id="edge16" class="edge">
<title>Node10&#45;&gt;Node4</title>
<path fill="none" stroke="#191970" d="M655.7343,-113.7241C658.8649,-113.1182 661.9827,-112.5355 665,-112 767.117,-93.8755 888.8844,-77.4613 945.7534,-70.0954"/>
<polygon fill="#191970" stroke="#191970" points="946.4467,-73.5351 955.9175,-68.7859 945.5522,-66.5925 946.4467,-73.5351"/>
</g>
<!-- Node11 -->
<g id="node12" class="node">
<title>Node11</title>
<g id="a_node12"><a xlink:href="enums_8hxx.html" target="_top" xlink:title="enums.hxx">
<polygon fill="none" stroke="#000000" points="581.5,-56.5 581.5,-75.5 652.5,-75.5 652.5,-56.5 581.5,-56.5"/>
<text text-anchor="middle" x="617" y="-63.5" font-family="Helvetica,sans-Serif" font-size="10.00" fill="#000000">enums.hxx</text>
</a>
</g>
</g>
<!-- Node10&#45;&gt;Node11 -->
<g id="edge18" class="edge">
<title>Node10&#45;&gt;Node11</title>
<path fill="none" stroke="#191970" d="M617,-112.2455C617,-104.9382 617,-94.6944 617,-85.7046"/>
<polygon fill="#191970" stroke="#191970" points="620.5001,-85.6426 617,-75.6427 613.5001,-85.6427 620.5001,-85.6426"/>
</g>
<!-- Node12 -->
<g id="node13" class="node">
<title>Node12</title>
<polygon fill="none" stroke="#bfbfbf" points="541,-.5 541,-19.5 597,-19.5 597,-.5 541,-.5"/>
<text text-anchor="middle" x="569" y="-7.5" font-family="Helvetica,sans-Serif" font-size="10.00" fill="#000000">stddef.h</text>
</g>
<!-- Node11&#45;&gt;Node12 -->
<g id="edge19" class="edge">
<title>Node11&#45;&gt;Node12</title>
<path fill="none" stroke="#191970" d="M608.639,-56.2455C601.825,-48.2958 592.0319,-36.8706 583.8848,-27.3656"/>
<polygon fill="#191970" stroke="#191970" points="586.4305,-24.9575 577.2651,-19.6427 581.1157,-29.513 586.4305,-24.9575"/>
</g>
<!-- Node13 -->
<g id="node14" class="node">
<title>Node13</title>
<polygon fill="none" stroke="#bfbfbf" points="615,-.5 615,-19.5 715,-19.5 715,-.5 615,-.5"/>
<text text-anchor="middle" x="665" y="-7.5" font-family="Helvetica,sans-Serif" font-size="10.00" fill="#000000">betterEnums.hxx</text>
</g>
<!-- Node11&#45;&gt;Node13 -->
<g id="edge20" class="edge">
<title>Node11&#45;&gt;Node13</title>
<path fill="none" stroke="#191970" d="M625.361,-56.2455C632.175,-48.2958 641.9681,-36.8706 650.1152,-27.3656"/>
<polygon fill="#191970" stroke="#191970" points="652.8843,-29.513 656.7349,-19.6427 647.5695,-24.9575 652.8843,-29.513"/>
</g>
<!-- Node17&#45;&gt;Node1 -->
<g id="edge28" class="edge">
<title>Node17&#45;&gt;Node1</title>
<path fill="none" stroke="#191970" d="M623.9905,-169.6766C517.4137,-156.6243 322.7143,-132.7407 319,-132 317.7476,-131.7503 316.4749,-131.4798 315.1925,-131.1933"/>
<polygon fill="#191970" stroke="#191970" points="315.8926,-127.7611 305.3449,-128.7596 314.2132,-134.5566 315.8926,-127.7611"/>
</g>
<!-- Node17&#45;&gt;Node2 -->
<g id="edge27" class="edge">
<title>Node17&#45;&gt;Node2</title>
<path fill="none" stroke="#191970" d="M623.7019,-169.4221C546.7143,-159.4776 426.4893,-143.0431 382,-132 326.4126,-118.2021 264.1023,-94.4657 227.2809,-79.5345"/>
<polygon fill="#191970" stroke="#191970" points="228.1787,-76.1202 217.598,-75.5722 225.5276,-82.5988 228.1787,-76.1202"/>
</g>
<!-- Node17&#45;&gt;Node4 -->
<g id="edge25" class="edge">
<title>Node17&#45;&gt;Node4</title>
<path fill="none" stroke="#191970" d="M623.8182,-168.7305C535.9224,-156.622 393.8127,-136.4374 390,-132 384.2071,-125.258 383.9647,-118.5259 390,-112 409.0228,-91.4309 825.4105,-72.4058 945.7192,-67.3227"/>
<polygon fill="#191970" stroke="#191970" points="945.9396,-70.8167 955.7842,-66.9009 945.6464,-63.8228 945.9396,-70.8167"/>
</g>
<!-- Node17&#45;&gt;Node7 -->
<g id="edge26" class="edge">
<title>Node17&#45;&gt;Node7</title>
<path fill="none" stroke="#191970" d="M642.0279,-168.4581C598.7545,-160.0327 534.2517,-147.087 469.2156,-132.2041"/>
<polygon fill="#191970" stroke="#191970" points="469.7288,-128.7307 459.1984,-129.8971 468.1578,-135.5522 469.7288,-128.7307"/>
</g>
<!-- Node17&#45;&gt;Node15 -->
<g id="edge29" class="edge">
<title>Node17&#45;&gt;Node15</title>
<path fill="none" stroke="#191970" d="M662.2602,-168.3733C633.493,-159.0613 589.73,-144.8953 558.1444,-134.671"/>
<polygon fill="#191970" stroke="#191970" points="558.9436,-131.251 548.3517,-131.5011 556.7878,-137.9107 558.9436,-131.251"/>
</g>
<!-- Node18&#45;&gt;Node2 -->
<g id="edge34" class="edge">
<title>Node18&#45;&gt;Node2</title>
<path fill="none" stroke="#191970" d="M452.2862,-226.192C413.9312,-219.5786 363.8342,-207.891 323,-188 272.4162,-163.3598 228.6532,-111.4675 207.8723,-83.975"/>
<polygon fill="#191970" stroke="#191970" points="210.487,-81.624 201.7292,-75.6614 204.8572,-85.784 210.487,-81.624"/>
</g>
<!-- Node19 -->
<g id="node20" class="node">
<title>Node19</title>
<polygon fill="none" stroke="#bfbfbf" points="218,-168.5 218,-187.5 276,-187.5 276,-168.5 218,-168.5"/>
<text text-anchor="middle" x="247" y="-175.5" font-family="Helvetica,sans-Serif" font-size="10.00" fill="#000000">memory</text>
</g>
<!-- Node18&#45;&gt;Node19 -->
<g id="edge31" class="edge">
<title>Node18&#45;&gt;Node19</title>
<path fill="none" stroke="#191970" d="M464.293,-224.4618C419.2886,-215.3818 349.97,-201.1843 290,-188 288.7368,-187.7223 287.4533,-187.4377 286.1576,-187.1484"/>
<polygon fill="#191970" stroke="#191970" points="286.6491,-183.6711 276.1226,-184.8731 285.1011,-190.4978 286.6491,-183.6711"/>
</g>
<!-- Node20 -->
<g id="node21" class="node">
<title>Node20</title>
<polygon fill="none" stroke="#bfbfbf" points="464.5,-168.5 464.5,-187.5 529.5,-187.5 529.5,-168.5 464.5,-168.5"/>
<text text-anchor="middle" x="497" y="-175.5" font-family="Helvetica,sans-Serif" font-size="10.00" fill="#000000">functional</text>
</g>
<!-- Node18&#45;&gt;Node20 -->
<g id="edge32" class="edge">
<title>Node18&#45;&gt;Node20</title>
<path fill="none" stroke="#191970" d="M509.3872,-224.2455C507.4084,-216.8579 504.6256,-206.4689 502.1988,-197.4087"/>
<polygon fill="#191970" stroke="#191970" points="505.5511,-196.3966 499.5829,-187.6427 498.7895,-198.2078 505.5511,-196.3966"/>
</g>
<!-- Node21 -->
<g id="node22" class="node">
<title>Node21</title>
<polygon fill="none" stroke="#bfbfbf" points="332,-168.5 332,-187.5 364,-187.5 364,-168.5 332,-168.5"/>
<text text-anchor="middle" x="348" y="-175.5" font-family="Helvetica,sans-Serif" font-size="10.00" fill="#000000">list</text>
</g>
<!-- Node18&#45;&gt;Node21 -->
<g id="edge33" class="edge">
<title>Node18&#45;&gt;Node21</title>
<path fill="none" stroke="#191970" d="M481.4465,-224.479C455.1486,-216.1545 416.0046,-203.4574 373.725,-188.1238"/>
<polygon fill="#191970" stroke="#191970" points="374.6763,-184.7451 364.0825,-184.6002 372.2737,-191.3199 374.6763,-184.7451"/>
</g>
<!-- Node22 -->
<g id="node23" class="node">
<title>Node22</title>
<polygon fill="none" stroke="#bfbfbf" points="382,-168.5 382,-187.5 446,-187.5 446,-168.5 382,-168.5"/>
<text text-anchor="middle" x="414" y="-175.5" font-family="Helvetica,sans-Serif" font-size="10.00" fill="#000000">algorithm</text>
</g>
<!-- Node18&#45;&gt;Node22 -->
<g id="edge35" class="edge">
<title>Node18&#45;&gt;Node22</title>
<path fill="none" stroke="#191970" d="M494.9297,-224.2455C479.753,-215.5731 457.3379,-202.7645 439.9437,-192.825"/>
<polygon fill="#191970" stroke="#191970" points="441.2936,-189.5653 430.8747,-187.6427 437.8206,-195.643 441.2936,-189.5653"/>
</g>
<!-- Node23&#45;&gt;Node2 -->
<g id="edge40" class="edge">
<title>Node23&#45;&gt;Node2</title>
<path fill="none" stroke="#191970" d="M116.7098,-336.4077C103.282,-317.7535 76,-274.829 76,-234 76,-234 76,-234 76,-178 76,-130.5429 126.8067,-97.2858 162.0247,-79.9335"/>
<polygon fill="#191970" stroke="#191970" points="163.9425,-82.8984 171.4894,-75.4624 160.9525,-76.5691 163.9425,-82.8984"/>
</g>
<!-- Node23&#45;&gt;Node3 -->
<g id="edge38" class="edge">
<title>Node23&#45;&gt;Node3</title>
<path fill="none" stroke="#191970" d="M182.073,-340.2441C284.442,-330.0978 496.9973,-309.0304 611.6642,-297.6651"/>
<polygon fill="#191970" stroke="#191970" points="612.1673,-301.1325 621.7733,-296.6632 611.4768,-294.1667 612.1673,-301.1325"/>
</g>
<!-- Node23&#45;&gt;Node4 -->
<g id="edge39" class="edge">
<title>Node23&#45;&gt;Node4</title>
<path fill="none" stroke="#191970" d="M124.0281,-336.063C124.2295,-323.0608 125.1589,-299.6222 129,-280 146.7772,-189.1841 165.8076,-145.6813 252,-112 317.1454,-86.5432 813.1633,-70.6991 945.5869,-66.8931"/>
<polygon fill="#191970" stroke="#191970" points="945.979,-70.3835 955.8755,-66.6007 945.7801,-63.3863 945.979,-70.3835"/>
</g>
<!-- Node23&#45;&gt;Node15 -->
<g id="edge41" class="edge">
<title>Node23&#45;&gt;Node15</title>
<path fill="none" stroke="#191970" d="M125.1898,-336.4822C129.5973,-305.7276 148.0311,-208.6635 209,-168 303.0424,-105.278 350.7325,-148.6651 467.2898,-131.9324"/>
<polygon fill="#191970" stroke="#191970" points="467.9439,-135.3728 477.2858,-130.375 466.8662,-128.4563 467.9439,-135.3728"/>
</g>
<!-- Node24&#45;&gt;Node3 -->
<g id="edge43" class="edge">
<title>Node24&#45;&gt;Node3</title>
<path fill="none" stroke="#191970" d="M871.7313,-448.1641C873.6024,-434.4363 874.9976,-409.2766 864,-392 834.1926,-345.1742 774.6118,-317.3145 733.3054,-302.8346"/>
<polygon fill="#191970" stroke="#191970" points="734.3422,-299.4906 723.748,-299.6072 732.1026,-306.1227 734.3422,-299.4906"/>
</g>
<!-- Node24&#45;&gt;Node25 -->
<g id="edge44" class="edge">
<title>Node24&#45;&gt;Node25</title>
<path fill="none" stroke="#191970" d="M887.5929,-448.2455C903.379,-439.4928 926.7639,-426.527 944.7587,-416.5496"/>
<polygon fill="#191970" stroke="#191970" points="946.5603,-419.5528 953.6087,-411.6427 943.1659,-413.4308 946.5603,-419.5528"/>
</g>
<!-- Node25&#45;&gt;Node3 -->
<g id="edge45" class="edge">
<title>Node25&#45;&gt;Node3</title>
<path fill="none" stroke="#191970" d="M963.0165,-392.2216C950.5264,-377.6098 924.891,-350.2725 897,-336 856.4812,-315.2655 806.8489,-303.8357 766.2301,-297.5563"/>
<polygon fill="#191970" stroke="#191970" points="766.5113,-294.0601 756.1085,-296.0682 765.4931,-300.9856 766.5113,-294.0601"/>
</g>
<!-- Node25&#45;&gt;Node26 -->
<g id="edge46" class="edge">
<title>Node25&#45;&gt;Node26</title>
<path fill="none" stroke="#191970" d="M972.2193,-392.2455C973.1327,-384.9382 974.4132,-374.6944 975.5369,-365.7046"/>
<polygon fill="#191970" stroke="#191970" points="979.0272,-365.9996 976.7947,-355.6427 972.0813,-365.1313 979.0272,-365.9996"/>
</g>
<!-- Node26&#45;&gt;Node3 -->
<g id="edge48" class="edge">
<title>Node26&#45;&gt;Node3</title>
<path fill="none" stroke="#191970" d="M948.8939,-339.05C944.254,-337.9943 939.5008,-336.9437 935,-336 873.734,-323.1543 803.5116,-310.1978 753.8188,-301.3238"/>
<polygon fill="#191970" stroke="#191970" points="754.3089,-297.8561 743.8503,-299.5492 753.082,-304.7478 754.3089,-297.8561"/>
</g>
<!-- Node26&#45;&gt;Node4 -->
<g id="edge47" class="edge">
<title>Node26&#45;&gt;Node4</title>
<path fill="none" stroke="#191970" d="M1007.1143,-338.6569C1050.9932,-325.6411 1129,-294.0564 1129,-234 1129,-234 1129,-234 1129,-178 1129,-119.2555 1054.3641,-87.7524 1010.0376,-74.2228"/>
<polygon fill="#191970" stroke="#191970" points="1010.8602,-70.817 1000.2806,-71.3839 1008.9046,-77.5383 1010.8602,-70.817"/>
</g>
<!-- Node27&#45;&gt;Node3 -->
<g id="edge51" class="edge">
<title>Node27&#45;&gt;Node3</title>
<path fill="none" stroke="#191970" d="M776.8151,-392.4509C760.5909,-373.5227 724.1549,-331.014 703.6811,-307.1279"/>
<polygon fill="#191970" stroke="#191970" points="706.3295,-304.8397 697.1642,-299.5249 701.0147,-309.3953 706.3295,-304.8397"/>
</g>
<!-- Node28&#45;&gt;Node3 -->
<g id="edge54" class="edge">
<title>Node28&#45;&gt;Node3</title>
<path fill="none" stroke="#191970" d="M312.6456,-448.3975C322.1477,-424.806 350.0979,-363.9012 395,-336 430.2043,-314.1248 536.7738,-301.6004 611.4196,-295.2986"/>
<polygon fill="#191970" stroke="#191970" points="612.0505,-298.7586 621.7298,-294.4504 611.4765,-291.7822 612.0505,-298.7586"/>
</g>
<!-- Node28&#45;&gt;Node19 -->
<g id="edge53" class="edge">
<title>Node28&#45;&gt;Node19</title>
<path fill="none" stroke="#191970" d="M302.5558,-448.3176C283.5298,-419.0746 227.7624,-328.4703 209,-244 207.0726,-235.3226 205.9919,-232.3644 209,-224 212.9436,-213.0341 220.7597,-202.8227 228.2831,-194.8204"/>
<polygon fill="#191970" stroke="#191970" points="230.9193,-197.1354 235.5547,-187.6084 225.9899,-192.1653 230.9193,-197.1354"/>
</g>
<!-- Node28&#45;&gt;Node29 -->
<g id="edge55" class="edge">
<title>Node28&#45;&gt;Node29</title>
<path fill="none" stroke="#191970" d="M368.4279,-448.4369C435.5477,-437.636 543.6122,-420.2463 606.7134,-410.0921"/>
<polygon fill="#191970" stroke="#191970" points="607.5022,-413.5103 616.8191,-408.4659 606.39,-406.5992 607.5022,-413.5103"/>
</g>
<!-- Node29&#45;&gt;Node3 -->
<g id="edge56" class="edge">
<title>Node29&#45;&gt;Node3</title>
<path fill="none" stroke="#191970" d="M659.7283,-392.4509C664.9711,-374.1013 676.5455,-333.5908 683.4659,-309.3693"/>
<polygon fill="#191970" stroke="#191970" points="686.8967,-310.1017 686.2786,-299.5249 680.166,-308.1786 686.8967,-310.1017"/>
</g>
<!-- Node29&#45;&gt;Node26 -->
<g id="edge57" class="edge">
<title>Node29&#45;&gt;Node26</title>
<path fill="none" stroke="#191970" d="M697.0972,-393.8733C700.4448,-393.2274 703.7791,-392.5953 707,-392 789.2685,-376.7943 885.9508,-360.8421 938.7238,-352.2969"/>
<polygon fill="#191970" stroke="#191970" points="939.3619,-355.7392 948.6756,-350.689 938.2454,-348.8289 939.3619,-355.7392"/>
</g>
<!-- Node30&#45;&gt;Node3 -->
<g id="edge59" class="edge">
<title>Node30&#45;&gt;Node3</title>
<path fill="none" stroke="#191970" d="M589.7732,-448.1606C592.4338,-434.8608 598.219,-410.6648 608,-392 625.3578,-358.8766 654.0916,-325.9826 672.2602,-306.8445"/>
<polygon fill="#191970" stroke="#191970" points="674.9026,-309.1467 679.3359,-299.524 669.8694,-304.2818 674.9026,-309.1467"/>
</g>
<!-- Node31&#45;&gt;Node3 -->
<g id="edge63" class="edge">
<title>Node31&#45;&gt;Node3</title>
<path fill="none" stroke="#191970" d="M508.0242,-392.3454C521.4976,-378.3805 548.172,-352.4229 575,-336 597.6741,-322.1199 625.2738,-310.8563 647.6372,-302.9492"/>
<polygon fill="#191970" stroke="#191970" points="648.8719,-306.2258 657.1884,-299.6618 646.5937,-299.6069 648.8719,-306.2258"/>
</g>
<!-- Node31&#45;&gt;Node26 -->
<g id="edge64" class="edge">
<title>Node31&#45;&gt;Node26</title>
<path fill="none" stroke="#191970" d="M560.6403,-394.7936C660.7154,-383.0938 855.7064,-360.2974 938.884,-350.5731"/>
<polygon fill="#191970" stroke="#191970" points="939.4008,-354.0366 948.9267,-349.399 938.5879,-347.0839 939.4008,-354.0366"/>
</g>
<!-- Node32 -->
<g id="node33" class="node">
<title>Node32</title>
<g id="a_node33"><a xlink:href="Timer_8hxx.html" target="_top" xlink:title="../../basics/Timer.hxx">
<polygon fill="none" stroke="#000000" points="293.5,-280.5 293.5,-299.5 410.5,-299.5 410.5,-280.5 293.5,-280.5"/>
<text text-anchor="middle" x="352" y="-287.5" font-family="Helvetica,sans-Serif" font-size="10.00" fill="#000000">../../basics/Timer.hxx</text>
</a>
</g>
</g>
<!-- Node31&#45;&gt;Node32 -->
<g id="edge65" class="edge">
<title>Node31&#45;&gt;Node32</title>
<path fill="none" stroke="#191970" d="M486.4669,-392.4509C461.0811,-373.1094 403.3798,-329.1465 372.4624,-305.5904"/>
<polygon fill="#191970" stroke="#191970" points="374.5769,-302.8013 364.5014,-299.5249 370.3346,-308.3694 374.5769,-302.8013"/>
</g>
<!-- Node32&#45;&gt;Node1 -->
<g id="edge69" class="edge">
<title>Node32&#45;&gt;Node1</title>
<path fill="none" stroke="#191970" d="M369.504,-280.2934C390.6495,-267.3457 421.4605,-243.7592 405,-224 348.3111,-155.9506 265.6889,-256.0494 209,-188 191.5544,-167.0582 223.9952,-146.7743 251.2878,-134.3451"/>
<polygon fill="#191970" stroke="#191970" points="252.8564,-137.4798 260.6366,-130.2882 250.0698,-131.0584 252.8564,-137.4798"/>
</g>
<!-- Node32&#45;&gt;Node18 -->
<g id="edge70" class="edge">
<title>Node32&#45;&gt;Node18</title>
<path fill="none" stroke="#191970" d="M379.505,-280.3733C405.8802,-271.1419 445.8851,-257.1402 475.0358,-246.9375"/>
<polygon fill="#191970" stroke="#191970" points="476.5716,-250.1082 484.8539,-243.5011 474.2591,-243.5012 476.5716,-250.1082"/>
</g>
<!-- Node33 -->
<g id="node34" class="node">
<title>Node33</title>
<polygon fill="none" stroke="#bfbfbf" points="284,-224.5 284,-243.5 328,-243.5 328,-224.5 284,-224.5"/>
<text text-anchor="middle" x="306" y="-231.5" font-family="Helvetica,sans-Serif" font-size="10.00" fill="#000000">ctime</text>
</g>
<!-- Node32&#45;&gt;Node33 -->
<g id="edge66" class="edge">
<title>Node32&#45;&gt;Node33</title>
<path fill="none" stroke="#191970" d="M343.9874,-280.2455C337.5232,-272.3761 328.2615,-261.101 320.5017,-251.6542"/>
<polygon fill="#191970" stroke="#191970" points="322.9727,-249.1484 313.9208,-243.6427 317.5636,-253.5916 322.9727,-249.1484"/>
</g>
<!-- Node34 -->
<g id="node35" class="node">
<title>Node34</title>
<polygon fill="none" stroke="#bfbfbf" points="346,-224.5 346,-243.5 396,-243.5 396,-224.5 346,-224.5"/>
<text text-anchor="middle" x="371" y="-231.5" font-family="Helvetica,sans-Serif" font-size="10.00" fill="#000000">chrono</text>
</g>
<!-- Node32&#45;&gt;Node34 -->
<g id="edge67" class="edge">
<title>Node32&#45;&gt;Node34</title>
<path fill="none" stroke="#191970" d="M355.3095,-280.2455C357.8433,-272.7776 361.4177,-262.2427 364.515,-253.1137"/>
<polygon fill="#191970" stroke="#191970" points="367.8298,-254.237 367.7284,-243.6427 361.2009,-251.9879 367.8298,-254.237"/>
</g>
<!-- Node35 -->
<g id="node36" class="node">
<title>Node35</title>
<polygon fill="none" stroke="#bfbfbf" points="218,-224.5 218,-243.5 266,-243.5 266,-224.5 218,-224.5"/>
<text text-anchor="middle" x="242" y="-231.5" font-family="Helvetica,sans-Serif" font-size="10.00" fill="#000000">thread</text>
</g>
<!-- Node32&#45;&gt;Node35 -->
<g id="edge68" class="edge">
<title>Node32&#45;&gt;Node35</title>
<path fill="none" stroke="#191970" d="M332.8395,-280.2455C315.4889,-271.4125 289.7099,-258.2887 270.0417,-248.2758"/>
<polygon fill="#191970" stroke="#191970" points="271.4405,-245.0605 260.941,-243.6427 268.2647,-251.2986 271.4405,-245.0605"/>
</g>
<!-- Node36&#45;&gt;Node3 -->
<g id="edge73" class="edge">
<title>Node36&#45;&gt;Node3</title>
<path fill="none" stroke="#191970" d="M1037.6733,-337.8571C966.0755,-328.03 845.493,-311.4794 766.577,-300.6478"/>
<polygon fill="#191970" stroke="#191970" points="766.5908,-297.117 756.2077,-299.2246 765.6388,-304.052 766.5908,-297.117"/>
</g>
<!-- Node36&#45;&gt;Node4 -->
<g id="edge72" class="edge">
<title>Node36&#45;&gt;Node4</title>
<path fill="none" stroke="#191970" d="M1108.2467,-336.4756C1128.0341,-318.5856 1167,-277.7959 1167,-234 1167,-234 1167,-234 1167,-178 1167,-105.949 1064.086,-79.247 1010.1416,-70.1996"/>
<polygon fill="#191970" stroke="#191970" points="1010.4721,-66.7088 1000.0506,-68.6173 1009.3877,-73.6243 1010.4721,-66.7088"/>
</g>
</g>
</svg>
