<?xml version="1.0" encoding="UTF-8" standalone="no"?>
<!DOCTYPE svg PUBLIC "-//W3C//DTD SVG 1.1//EN"
 "http://www.w3.org/Graphics/SVG/1.1/DTD/svg11.dtd">
<!-- Generated by graphviz version 2.40.1 (20161225.0304)
 -->
<!-- Title: src/engine/UIMQDispatcher.hxx Pages: 1 -->
<svg width="966pt" height="364pt"
 viewBox="0.00 0.00 965.50 364.00" xmlns="http://www.w3.org/2000/svg" xmlns:xlink="http://www.w3.org/1999/xlink">
<g id="graph0" class="graph" transform="scale(1 1) rotate(0) translate(4 360)">
<title>src/engine/UIMQDispatcher.hxx</title>
<!-- Node21 -->
<g id="node1" class="node">
<title>Node21</title>
<polygon fill="#bfbfbf" stroke="#000000" points="638,-336.5 638,-355.5 807,-355.5 807,-336.5 638,-336.5"/>
<text text-anchor="middle" x="722.5" y="-343.5" font-family="Helvetica,sans-Serif" font-size="10.00" fill="#000000">src/engine/UIMQDispatcher.hxx</text>
</g>
<!-- Node22 -->
<g id="node2" class="node">
<title>Node22</title>
<g id="a_node2"><a xlink:href="DataModel_8hxx.html" target="_top" xlink:title="src/model/DataModel.hxx">
<polygon fill="none" stroke="#000000" points="652,-280.5 652,-299.5 793,-299.5 793,-280.5 652,-280.5"/>
<text text-anchor="middle" x="722.5" y="-287.5" font-family="Helvetica,sans-Serif" font-size="10.00" fill="#000000">src/model/DataModel.hxx</text>
</a>
</g>
</g>
<!-- Node21&#45;&gt;Node22 -->
<g id="edge1" class="edge">
<title>Node21&#45;&gt;Node22</title>
<path fill="none" stroke="#191970" d="M722.5,-326.1575C722.5,-317.155 722.5,-306.9199 722.5,-299.6427"/>
<polygon fill="#191970" stroke="#191970" points="719.0001,-326.2455 722.5,-336.2455 726.0001,-326.2456 719.0001,-326.2455"/>
</g>
<!-- Node23 -->
<g id="node3" class="node">
<title>Node23</title>
<g id="a_node3"><a xlink:href="MouseState_8hxx.html" target="_top" xlink:title="src/model/MouseState.hxx">
<polygon fill="none" stroke="#000000" points="567.5,-224.5 567.5,-243.5 713.5,-243.5 713.5,-224.5 567.5,-224.5"/>
<text text-anchor="middle" x="640.5" y="-231.5" font-family="Helvetica,sans-Serif" font-size="10.00" fill="#000000">src/model/MouseState.hxx</text>
</a>
</g>
</g>
<!-- Node22&#45;&gt;Node23 -->
<g id="edge2" class="edge">
<title>Node22&#45;&gt;Node23</title>
<path fill="none" stroke="#191970" d="M699.789,-274.49C685.3212,-264.6096 667.032,-252.1194 654.6196,-243.6427"/>
<polygon fill="#191970" stroke="#191970" points="697.9848,-277.4962 708.2167,-280.2455 701.9325,-271.7156 697.9848,-277.4962"/>
</g>
<!-- Node36 -->
<g id="node16" class="node">
<title>Node36</title>
<g id="a_node16"><a xlink:href="ButtonState_8hxx.html" target="_top" xlink:title="src/model/ButtonState.hxx">
<polygon fill="none" stroke="#000000" points="771.5,-224.5 771.5,-243.5 917.5,-243.5 917.5,-224.5 771.5,-224.5"/>
<text text-anchor="middle" x="844.5" y="-231.5" font-family="Helvetica,sans-Serif" font-size="10.00" fill="#000000">src/model/ButtonState.hxx</text>
</a>
</g>
</g>
<!-- Node22&#45;&gt;Node36 -->
<g id="edge16" class="edge">
<title>Node22&#45;&gt;Node36</title>
<path fill="none" stroke="#191970" d="M752.7584,-276.1109C774.8819,-265.9559 804.3094,-252.4482 823.8011,-243.5011"/>
<polygon fill="#191970" stroke="#191970" points="751.1007,-273.0206 743.4725,-280.3733 754.021,-279.3824 751.1007,-273.0206"/>
</g>
<!-- Node24 -->
<g id="node4" class="node">
<title>Node24</title>
<g id="a_node4"><a xlink:href="CursorView_8hxx.html" target="_top" xlink:title="src/view/CursorView.hxx">
<polygon fill="none" stroke="#000000" points="493.5,-168.5 493.5,-187.5 629.5,-187.5 629.5,-168.5 493.5,-168.5"/>
<text text-anchor="middle" x="561.5" y="-175.5" font-family="Helvetica,sans-Serif" font-size="10.00" fill="#000000">src/view/CursorView.hxx</text>
</a>
</g>
</g>
<!-- Node23&#45;&gt;Node24 -->
<g id="edge3" class="edge">
<title>Node23&#45;&gt;Node24</title>
<path fill="none" stroke="#191970" d="M618.2244,-218.2097C604.3495,-208.3743 586.9485,-196.0394 575.1031,-187.6427"/>
<polygon fill="#191970" stroke="#191970" points="616.5569,-221.3178 626.7393,-224.2455 620.6051,-215.6071 616.5569,-221.3178"/>
</g>
<!-- Node25 -->
<g id="node5" class="node">
<title>Node25</title>
<g id="a_node5"><a xlink:href="Window_8hxx.html" target="_top" xlink:title="src/view/Window.hxx">
<polygon fill="none" stroke="#000000" points="406,-112.5 406,-131.5 525,-131.5 525,-112.5 406,-112.5"/>
<text text-anchor="middle" x="465.5" y="-119.5" font-family="Helvetica,sans-Serif" font-size="10.00" fill="#000000">src/view/Window.hxx</text>
</a>
</g>
</g>
<!-- Node23&#45;&gt;Node25 -->
<g id="edge14" class="edge">
<title>Node23&#45;&gt;Node25</title>
<path fill="none" stroke="#191970" d="M579.3663,-222.2752C541.7092,-213.8904 498.1104,-201.6984 484.5,-188 469.3726,-172.7748 466.1248,-146.3306 465.5297,-131.9713"/>
<polygon fill="#191970" stroke="#191970" points="578.7787,-225.7291 589.2937,-224.4302 580.2638,-218.8884 578.7787,-225.7291"/>
</g>
<!-- Node35 -->
<g id="node15" class="node">
<title>Node35</title>
<g id="a_node15"><a xlink:href="MouseState_8cxx.html" target="_top" xlink:title="src/model/MouseState.cxx">
<polygon fill="none" stroke="#000000" points="648,-168.5 648,-187.5 793,-187.5 793,-168.5 648,-168.5"/>
<text text-anchor="middle" x="720.5" y="-175.5" font-family="Helvetica,sans-Serif" font-size="10.00" fill="#000000">src/model/MouseState.cxx</text>
</a>
</g>
</g>
<!-- Node23&#45;&gt;Node35 -->
<g id="edge15" class="edge">
<title>Node23&#45;&gt;Node35</title>
<path fill="none" stroke="#191970" d="M662.6571,-218.49C676.772,-208.6096 694.6151,-196.1194 706.7248,-187.6427"/>
<polygon fill="#191970" stroke="#191970" points="660.6201,-215.6436 654.4349,-224.2455 664.6344,-221.3782 660.6201,-215.6436"/>
</g>
<!-- Node24&#45;&gt;Node25 -->
<g id="edge4" class="edge">
<title>Node24&#45;&gt;Node25</title>
<path fill="none" stroke="#191970" d="M535.8654,-163.0465C518.7841,-153.0824 496.836,-140.2794 482.0303,-131.6427"/>
<polygon fill="#191970" stroke="#191970" points="534.3767,-166.23 544.7781,-168.2455 537.9038,-160.1836 534.3767,-166.23"/>
</g>
<!-- Node34 -->
<g id="node14" class="node">
<title>Node34</title>
<g id="a_node14"><a xlink:href="CursorView_8cxx.html" target="_top" xlink:title="src/view/CursorView.cxx">
<polygon fill="none" stroke="#000000" points="543,-112.5 543,-131.5 678,-131.5 678,-112.5 543,-112.5"/>
<text text-anchor="middle" x="610.5" y="-119.5" font-family="Helvetica,sans-Serif" font-size="10.00" fill="#000000">src/view/CursorView.cxx</text>
</a>
</g>
</g>
<!-- Node24&#45;&gt;Node34 -->
<g id="edge13" class="edge">
<title>Node24&#45;&gt;Node34</title>
<path fill="none" stroke="#191970" d="M576.8122,-160.5004C585.1447,-150.9775 595.1353,-139.5596 602.0627,-131.6427"/>
<polygon fill="#191970" stroke="#191970" points="573.9862,-158.415 570.0351,-168.2455 579.2543,-163.0245 573.9862,-158.415"/>
</g>
<!-- Node26 -->
<g id="node6" class="node">
<title>Node26</title>
<g id="a_node6"><a xlink:href="iActivity_8cxx.html" target="_top" xlink:title="src/activity/iActivity.cxx">
<polygon fill="none" stroke="#000000" points="0,-56.5 0,-75.5 133,-75.5 133,-56.5 0,-56.5"/>
<text text-anchor="middle" x="66.5" y="-63.5" font-family="Helvetica,sans-Serif" font-size="10.00" fill="#000000">src/activity/iActivity.cxx</text>
</a>
</g>
</g>
<!-- Node25&#45;&gt;Node26 -->
<g id="edge5" class="edge">
<title>Node25&#45;&gt;Node26</title>
<path fill="none" stroke="#191970" d="M395.6263,-112.1932C321.739,-101.823 206.0176,-85.5814 133.3117,-75.3771"/>
<polygon fill="#191970" stroke="#191970" points="395.3762,-115.6923 405.7657,-113.6162 396.3492,-108.7602 395.3762,-115.6923"/>
</g>
<!-- Node27 -->
<g id="node7" class="node">
<title>Node27</title>
<g id="a_node7"><a xlink:href="Camera_8cxx.html" target="_top" xlink:title="src/engine/basics/Camera.cxx">
<polygon fill="none" stroke="#000000" points="151.5,-56.5 151.5,-75.5 313.5,-75.5 313.5,-56.5 151.5,-56.5"/>
<text text-anchor="middle" x="232.5" y="-63.5" font-family="Helvetica,sans-Serif" font-size="10.00" fill="#000000">src/engine/basics/Camera.cxx</text>
</a>
</g>
</g>
<!-- Node25&#45;&gt;Node27 -->
<g id="edge6" class="edge">
<title>Node25&#45;&gt;Node27</title>
<path fill="none" stroke="#191970" d="M415.7682,-110.0473C372.8828,-99.7401 311.7748,-85.0532 272.1253,-75.5237"/>
<polygon fill="#191970" stroke="#191970" points="415.1696,-113.503 425.7106,-112.4369 416.8054,-106.6968 415.1696,-113.503"/>
</g>
<!-- Node28 -->
<g id="node8" class="node">
<title>Node28</title>
<g id="a_node8"><a xlink:href="Map_8cxx.html" target="_top" xlink:title="src/engine/Map.cxx">
<polygon fill="none" stroke="#000000" points="331.5,-56.5 331.5,-75.5 441.5,-75.5 441.5,-56.5 331.5,-56.5"/>
<text text-anchor="middle" x="386.5" y="-63.5" font-family="Helvetica,sans-Serif" font-size="10.00" fill="#000000">src/engine/Map.cxx</text>
</a>
</g>
</g>
<!-- Node25&#45;&gt;Node28 -->
<g id="edge7" class="edge">
<title>Node25&#45;&gt;Node28</title>
<path fill="none" stroke="#191970" d="M443.2244,-106.2097C429.3495,-96.3743 411.9485,-84.0394 400.1031,-75.6427"/>
<polygon fill="#191970" stroke="#191970" points="441.5569,-109.3178 451.7393,-112.2455 445.6051,-103.6071 441.5569,-109.3178"/>
</g>
<!-- Node29 -->
<g id="node9" class="node">
<title>Node29</title>
<g id="a_node9"><a xlink:href="WindowManager_8cxx.html" target="_top" xlink:title="src/engine/WindowManager.cxx">
<polygon fill="none" stroke="#000000" points="459.5,-56.5 459.5,-75.5 629.5,-75.5 629.5,-56.5 459.5,-56.5"/>
<text text-anchor="middle" x="544.5" y="-63.5" font-family="Helvetica,sans-Serif" font-size="10.00" fill="#000000">src/engine/WindowManager.cxx</text>
</a>
</g>
</g>
<!-- Node25&#45;&gt;Node29 -->
<g id="edge8" class="edge">
<title>Node25&#45;&gt;Node29</title>
<path fill="none" stroke="#191970" d="M487.7756,-106.2097C501.6505,-96.3743 519.0515,-84.0394 530.8969,-75.6427"/>
<polygon fill="#191970" stroke="#191970" points="485.3949,-103.6071 479.2607,-112.2455 489.4431,-109.3178 485.3949,-103.6071"/>
</g>
<!-- Node30 -->
<g id="node10" class="node">
<title>Node30</title>
<g id="a_node10"><a xlink:href="Game_8hxx.html" target="_top" xlink:title="src/Game.hxx">
<polygon fill="none" stroke="#000000" points="647.5,-56.5 647.5,-75.5 731.5,-75.5 731.5,-56.5 647.5,-56.5"/>
<text text-anchor="middle" x="689.5" y="-63.5" font-family="Helvetica,sans-Serif" font-size="10.00" fill="#000000">src/Game.hxx</text>
</a>
</g>
</g>
<!-- Node25&#45;&gt;Node30 -->
<g id="edge9" class="edge">
<title>Node25&#45;&gt;Node30</title>
<path fill="none" stroke="#191970" d="M513.572,-109.982C554.7875,-99.6781 613.3678,-85.0331 651.4053,-75.5237"/>
<polygon fill="#191970" stroke="#191970" points="512.605,-106.616 503.7525,-112.4369 514.3028,-113.407 512.605,-106.616"/>
</g>
<!-- Node33 -->
<g id="node13" class="node">
<title>Node33</title>
<g id="a_node13"><a xlink:href="Window_8cxx.html" target="_top" xlink:title="src/view/Window.cxx">
<polygon fill="none" stroke="#000000" points="750,-56.5 750,-75.5 869,-75.5 869,-56.5 750,-56.5"/>
<text text-anchor="middle" x="809.5" y="-63.5" font-family="Helvetica,sans-Serif" font-size="10.00" fill="#000000">src/view/Window.cxx</text>
</a>
</g>
</g>
<!-- Node25&#45;&gt;Node33 -->
<g id="edge12" class="edge">
<title>Node25&#45;&gt;Node33</title>
<path fill="none" stroke="#191970" d="M534.1677,-110.8215C597.6512,-100.487 690.9771,-85.2944 750.9975,-75.5237"/>
<polygon fill="#191970" stroke="#191970" points="533.5525,-107.3755 524.2448,-112.4369 534.6773,-114.2846 533.5525,-107.3755"/>
</g>
<!-- Node31 -->
<g id="node11" class="node">
<title>Node31</title>
<g id="a_node11"><a xlink:href="Game_8cxx.html" target="_top" xlink:title="src/Game.cxx">
<polygon fill="none" stroke="#000000" points="598,-.5 598,-19.5 681,-19.5 681,-.5 598,-.5"/>
<text text-anchor="middle" x="639.5" y="-7.5" font-family="Helvetica,sans-Serif" font-size="10.00" fill="#000000">src/Game.cxx</text>
</a>
</g>
</g>
<!-- Node30&#45;&gt;Node31 -->
<g id="edge10" class="edge">
<title>Node30&#45;&gt;Node31</title>
<path fill="none" stroke="#191970" d="M673.8753,-48.5004C665.3727,-38.9775 655.1782,-27.5596 648.1095,-19.6427"/>
<polygon fill="#191970" stroke="#191970" points="671.5197,-51.1172 680.7907,-56.2455 676.7413,-46.4551 671.5197,-51.1172"/>
</g>
<!-- Node32 -->
<g id="node12" class="node">
<title>Node32</title>
<g id="a_node12"><a xlink:href="main_8cxx.html" target="_top" xlink:title="src/main.cxx">
<polygon fill="none" stroke="#000000" points="699,-.5 699,-19.5 778,-19.5 778,-.5 699,-.5"/>
<text text-anchor="middle" x="738.5" y="-7.5" font-family="Helvetica,sans-Serif" font-size="10.00" fill="#000000">src/main.cxx</text>
</a>
</g>
</g>
<!-- Node30&#45;&gt;Node32 -->
<g id="edge11" class="edge">
<title>Node30&#45;&gt;Node32</title>
<path fill="none" stroke="#191970" d="M704.8122,-48.5004C713.1447,-38.9775 723.1353,-27.5596 730.0627,-19.6427"/>
<polygon fill="#191970" stroke="#191970" points="701.9862,-46.415 698.0351,-56.2455 707.2543,-51.0245 701.9862,-46.415"/>
</g>
<!-- Node37 -->
<g id="node17" class="node">
<title>Node37</title>
<g id="a_node17"><a xlink:href="ButtonState_8cxx.html" target="_top" xlink:title="src/model/ButtonState.cxx">
<polygon fill="none" stroke="#000000" points="811.5,-168.5 811.5,-187.5 957.5,-187.5 957.5,-168.5 811.5,-168.5"/>
<text text-anchor="middle" x="884.5" y="-175.5" font-family="Helvetica,sans-Serif" font-size="10.00" fill="#000000">src/model/ButtonState.cxx</text>
</a>
</g>
</g>
<!-- Node36&#45;&gt;Node37 -->
<g id="edge17" class="edge">
<title>Node36&#45;&gt;Node37</title>
<path fill="none" stroke="#191970" d="M857.4136,-215.9209C864.1303,-206.5176 872.0717,-195.3997 877.6124,-187.6427"/>
<polygon fill="#191970" stroke="#191970" points="854.4318,-214.0738 851.4675,-224.2455 860.128,-218.1425 854.4318,-214.0738"/>
</g>
</g>
</svg>
