<?xml version="1.0" encoding="UTF-8" standalone="no"?>
<!DOCTYPE svg PUBLIC "-//W3C//DTD SVG 1.1//EN"
 "http://www.w3.org/Graphics/SVG/1.1/DTD/svg11.dtd">
<!-- Generated by graphviz version 2.40.1 (20161225.0304)
 -->
<!-- Title: src/engine/UIMQDispatcher.hxx Pages: 1 -->
<svg width="665pt" height="364pt"
 viewBox="0.00 0.00 665.00 364.00" xmlns="http://www.w3.org/2000/svg" xmlns:xlink="http://www.w3.org/1999/xlink">
<g id="graph0" class="graph" transform="scale(1 1) rotate(0) translate(4 360)">
<title>src/engine/UIMQDispatcher.hxx</title>
<!-- Node0 -->
<g id="node1" class="node">
<title>Node0</title>
<polygon fill="#bfbfbf" stroke="#000000" points="31,-336.5 31,-355.5 200,-355.5 200,-336.5 31,-336.5"/>
<text text-anchor="middle" x="115.5" y="-343.5" font-family="Helvetica,sans-Serif" font-size="10.00" fill="#000000">src/engine/UIMQDispatcher.hxx</text>
</g>
<!-- Node1 -->
<g id="node2" class="node">
<title>Node1</title>
<g id="a_node2"><a xlink:href="Observer_8hxx.html" target="_top" xlink:title="Observer.hxx">
<polygon fill="none" stroke="#000000" points="137,-112.5 137,-131.5 218,-131.5 218,-112.5 137,-112.5"/>
<text text-anchor="middle" x="177.5" y="-119.5" font-family="Helvetica,sans-Serif" font-size="10.00" fill="#000000">Observer.hxx</text>
</a>
</g>
</g>
<!-- Node0&#45;&gt;Node1 -->
<g id="edge1" class="edge">
<title>Node0&#45;&gt;Node1</title>
<path fill="none" stroke="#191970" d="M99.9809,-336.402C69.8188,-316.465 8.2031,-268.6952 31.5,-224 54.4922,-179.8895 106.2437,-150.9379 141.529,-135.5126"/>
<polygon fill="#191970" stroke="#191970" points="143.1505,-138.6275 151.007,-131.5193 140.4326,-132.1767 143.1505,-138.6275"/>
</g>
<!-- Node9 -->
<g id="node10" class="node">
<title>Node9</title>
<g id="a_node10"><a xlink:href="MessageQueue_8hxx.html" target="_top" xlink:title="MessageQueue.hxx">
<polygon fill="none" stroke="#000000" points="200.5,-280.5 200.5,-299.5 312.5,-299.5 312.5,-280.5 200.5,-280.5"/>
<text text-anchor="middle" x="256.5" y="-287.5" font-family="Helvetica,sans-Serif" font-size="10.00" fill="#000000">MessageQueue.hxx</text>
</a>
</g>
</g>
<!-- Node0&#45;&gt;Node9 -->
<g id="edge9" class="edge">
<title>Node0&#45;&gt;Node9</title>
<path fill="none" stroke="#191970" d="M139.7388,-336.3733C162.7789,-327.2226 197.6214,-313.3844 223.2501,-303.2057"/>
<polygon fill="#191970" stroke="#191970" points="224.5756,-306.4452 232.5775,-299.5011 221.9918,-299.9395 224.5756,-306.4452"/>
</g>
<!-- Node2 -->
<g id="node3" class="node">
<title>Node2</title>
<polygon fill="none" stroke="#bfbfbf" points="0,-56.5 0,-75.5 47,-75.5 47,-56.5 0,-56.5"/>
<text text-anchor="middle" x="23.5" y="-63.5" font-family="Helvetica,sans-Serif" font-size="10.00" fill="#000000">vector</text>
</g>
<!-- Node1&#45;&gt;Node2 -->
<g id="edge2" class="edge">
<title>Node1&#45;&gt;Node2</title>
<path fill="none" stroke="#191970" d="M151.0265,-112.3733C124.871,-102.8622 84.7899,-88.2872 56.5568,-78.0207"/>
<polygon fill="#191970" stroke="#191970" points="57.7008,-74.7125 47.1068,-74.5843 55.3086,-81.2911 57.7008,-74.7125"/>
</g>
<!-- Node3 -->
<g id="node4" class="node">
<title>Node3</title>
<polygon fill="none" stroke="#bfbfbf" points="148.5,-56.5 148.5,-75.5 206.5,-75.5 206.5,-56.5 148.5,-56.5"/>
<text text-anchor="middle" x="177.5" y="-63.5" font-family="Helvetica,sans-Serif" font-size="10.00" fill="#000000">memory</text>
</g>
<!-- Node1&#45;&gt;Node3 -->
<g id="edge3" class="edge">
<title>Node1&#45;&gt;Node3</title>
<path fill="none" stroke="#191970" d="M177.5,-112.2455C177.5,-104.9382 177.5,-94.6944 177.5,-85.7046"/>
<polygon fill="#191970" stroke="#191970" points="181.0001,-85.6426 177.5,-75.6427 174.0001,-85.6427 181.0001,-85.6426"/>
</g>
<!-- Node4 -->
<g id="node5" class="node">
<title>Node4</title>
<g id="a_node5"><a xlink:href="Meta_8hxx.html" target="_top" xlink:title="Meta.hxx">
<polygon fill="none" stroke="#000000" points="265.5,-56.5 265.5,-75.5 327.5,-75.5 327.5,-56.5 265.5,-56.5"/>
<text text-anchor="middle" x="296.5" y="-63.5" font-family="Helvetica,sans-Serif" font-size="10.00" fill="#000000">Meta.hxx</text>
</a>
</g>
</g>
<!-- Node1&#45;&gt;Node4 -->
<g id="edge4" class="edge">
<title>Node1&#45;&gt;Node4</title>
<path fill="none" stroke="#191970" d="M197.9568,-112.3733C216.9738,-103.4241 245.5175,-89.9917 266.9976,-79.8835"/>
<polygon fill="#191970" stroke="#191970" points="268.7522,-82.926 276.3101,-75.5011 265.7716,-76.5923 268.7522,-82.926"/>
</g>
<!-- Node5 -->
<g id="node6" class="node">
<title>Node5</title>
<polygon fill="none" stroke="#bfbfbf" points="144.5,-.5 144.5,-19.5 204.5,-19.5 204.5,-.5 144.5,-.5"/>
<text text-anchor="middle" x="174.5" y="-7.5" font-family="Helvetica,sans-Serif" font-size="10.00" fill="#000000">iostream</text>
</g>
<!-- Node4&#45;&gt;Node5 -->
<g id="edge5" class="edge">
<title>Node4&#45;&gt;Node5</title>
<path fill="none" stroke="#191970" d="M275.5275,-56.3733C255.9433,-47.3838 226.5039,-33.8706 204.449,-23.7471"/>
<polygon fill="#191970" stroke="#191970" points="205.7473,-20.4919 195.1989,-19.5011 202.8271,-26.8538 205.7473,-20.4919"/>
</g>
<!-- Node6 -->
<g id="node7" class="node">
<title>Node6</title>
<polygon fill="none" stroke="#bfbfbf" points="223,-.5 223,-19.5 292,-19.5 292,-.5 223,-.5"/>
<text text-anchor="middle" x="257.5" y="-7.5" font-family="Helvetica,sans-Serif" font-size="10.00" fill="#000000">type_traits</text>
</g>
<!-- Node4&#45;&gt;Node6 -->
<g id="edge6" class="edge">
<title>Node4&#45;&gt;Node6</title>
<path fill="none" stroke="#191970" d="M289.7067,-56.2455C284.2822,-48.4564 276.5339,-37.3308 269.9967,-27.9439"/>
<polygon fill="#191970" stroke="#191970" points="272.8025,-25.8485 264.2154,-19.6427 267.0583,-29.849 272.8025,-25.8485"/>
</g>
<!-- Node7 -->
<g id="node8" class="node">
<title>Node7</title>
<polygon fill="none" stroke="#bfbfbf" points="310,-.5 310,-19.5 361,-19.5 361,-.5 310,-.5"/>
<text text-anchor="middle" x="335.5" y="-7.5" font-family="Helvetica,sans-Serif" font-size="10.00" fill="#000000">variant</text>
</g>
<!-- Node4&#45;&gt;Node7 -->
<g id="edge7" class="edge">
<title>Node4&#45;&gt;Node7</title>
<path fill="none" stroke="#191970" d="M303.2933,-56.2455C308.7178,-48.4564 316.4661,-37.3308 323.0033,-27.9439"/>
<polygon fill="#191970" stroke="#191970" points="325.9417,-29.849 328.7846,-19.6427 320.1975,-25.8485 325.9417,-29.849"/>
</g>
<!-- Node8 -->
<g id="node9" class="node">
<title>Node8</title>
<polygon fill="none" stroke="#bfbfbf" points="379,-.5 379,-19.5 420,-19.5 420,-.5 379,-.5"/>
<text text-anchor="middle" x="399.5" y="-7.5" font-family="Helvetica,sans-Serif" font-size="10.00" fill="#000000">tuple</text>
</g>
<!-- Node4&#45;&gt;Node8 -->
<g id="edge8" class="edge">
<title>Node4&#45;&gt;Node8</title>
<path fill="none" stroke="#191970" d="M314.4412,-56.2455C330.54,-47.4928 354.3879,-34.527 372.7391,-24.5496"/>
<polygon fill="#191970" stroke="#191970" points="374.6507,-27.4942 381.7644,-19.6427 371.3071,-21.3444 374.6507,-27.4942"/>
</g>
<!-- Node9&#45;&gt;Node2 -->
<g id="edge13" class="edge">
<title>Node9&#45;&gt;Node2</title>
<path fill="none" stroke="#191970" d="M200.3279,-286.2467C140.9548,-280.9967 52.9636,-269.1223 31.5,-244 -7.1053,-198.814 7.7292,-121.1957 17.5354,-85.2755"/>
<polygon fill="#191970" stroke="#191970" points="20.9324,-86.1275 20.3525,-75.5486 14.2087,-84.1801 20.9324,-86.1275"/>
</g>
<!-- Node10 -->
<g id="node11" class="node">
<title>Node10</title>
<polygon fill="none" stroke="#bfbfbf" points="41,-224.5 41,-243.5 148,-243.5 148,-224.5 41,-224.5"/>
<text text-anchor="middle" x="94.5" y="-231.5" font-family="Helvetica,sans-Serif" font-size="10.00" fill="#000000">condition_variable</text>
</g>
<!-- Node9&#45;&gt;Node10 -->
<g id="edge10" class="edge">
<title>Node9&#45;&gt;Node10</title>
<path fill="none" stroke="#191970" d="M228.6512,-280.3733C201.8297,-271.1016 161.0873,-257.0178 131.5402,-246.804"/>
<polygon fill="#191970" stroke="#191970" points="132.5802,-243.4603 121.9854,-243.5011 130.2931,-250.0762 132.5802,-243.4603"/>
</g>
<!-- Node11 -->
<g id="node12" class="node">
<title>Node11</title>
<polygon fill="none" stroke="#bfbfbf" points="166.5,-224.5 166.5,-243.5 214.5,-243.5 214.5,-224.5 166.5,-224.5"/>
<text text-anchor="middle" x="190.5" y="-231.5" font-family="Helvetica,sans-Serif" font-size="10.00" fill="#000000">mutex</text>
</g>
<!-- Node9&#45;&gt;Node11 -->
<g id="edge11" class="edge">
<title>Node9&#45;&gt;Node11</title>
<path fill="none" stroke="#191970" d="M245.0037,-280.2455C235.2558,-271.9746 221.0741,-259.9416 209.6202,-250.2232"/>
<polygon fill="#191970" stroke="#191970" points="211.7541,-247.4437 201.8646,-243.6427 207.2253,-252.7813 211.7541,-247.4437"/>
</g>
<!-- Node12 -->
<g id="node13" class="node">
<title>Node12</title>
<polygon fill="none" stroke="#bfbfbf" points="233,-224.5 233,-243.5 280,-243.5 280,-224.5 233,-224.5"/>
<text text-anchor="middle" x="256.5" y="-231.5" font-family="Helvetica,sans-Serif" font-size="10.00" fill="#000000">deque</text>
</g>
<!-- Node9&#45;&gt;Node12 -->
<g id="edge12" class="edge">
<title>Node9&#45;&gt;Node12</title>
<path fill="none" stroke="#191970" d="M256.5,-280.2455C256.5,-272.9382 256.5,-262.6944 256.5,-253.7046"/>
<polygon fill="#191970" stroke="#191970" points="260.0001,-253.6426 256.5,-243.6427 253.0001,-253.6427 260.0001,-253.6426"/>
</g>
<!-- Node13 -->
<g id="node14" class="node">
<title>Node13</title>
<polygon fill="none" stroke="#bfbfbf" points="592,-112.5 592,-131.5 657,-131.5 657,-112.5 592,-112.5"/>
<text text-anchor="middle" x="624.5" y="-119.5" font-family="Helvetica,sans-Serif" font-size="10.00" fill="#000000">functional</text>
</g>
<!-- Node9&#45;&gt;Node13 -->
<g id="edge14" class="edge">
<title>Node9&#45;&gt;Node13</title>
<path fill="none" stroke="#191970" d="M312.5696,-286.2628C405.8909,-279.5119 584.9252,-264.0979 605.5,-244 632.7372,-217.3941 631.3245,-168.9753 627.9066,-141.822"/>
<polygon fill="#191970" stroke="#191970" points="631.3221,-140.9927 626.3967,-131.6124 624.3975,-142.0169 631.3221,-140.9927"/>
</g>
<!-- Node14 -->
<g id="node15" class="node">
<title>Node14</title>
<polygon fill="none" stroke="#bfbfbf" points="298.5,-224.5 298.5,-243.5 352.5,-243.5 352.5,-224.5 298.5,-224.5"/>
<text text-anchor="middle" x="325.5" y="-231.5" font-family="Helvetica,sans-Serif" font-size="10.00" fill="#000000">ciso646</text>
</g>
<!-- Node9&#45;&gt;Node14 -->
<g id="edge15" class="edge">
<title>Node9&#45;&gt;Node14</title>
<path fill="none" stroke="#191970" d="M268.5189,-280.2455C278.7098,-271.9746 293.5362,-259.9416 305.5107,-250.2232"/>
<polygon fill="#191970" stroke="#191970" points="308.0598,-252.662 313.6188,-243.6427 303.6486,-247.2268 308.0598,-252.662"/>
</g>
<!-- Node15 -->
<g id="node16" class="node">
<title>Node15</title>
<g id="a_node16"><a xlink:href="Events_8hxx.html" target="_top" xlink:title="../Events.hxx">
<polygon fill="none" stroke="#000000" points="516.5,-224.5 516.5,-243.5 596.5,-243.5 596.5,-224.5 516.5,-224.5"/>
<text text-anchor="middle" x="556.5" y="-231.5" font-family="Helvetica,sans-Serif" font-size="10.00" fill="#000000">../Events.hxx</text>
</a>
</g>
</g>
<!-- Node9&#45;&gt;Node15 -->
<g id="edge16" class="edge">
<title>Node9&#45;&gt;Node15</title>
<path fill="none" stroke="#191970" d="M310.4175,-280.4413C359.1,-271.7376 432.9656,-258.3511 506.5012,-244.1666"/>
<polygon fill="#191970" stroke="#191970" points="507.2484,-247.587 516.4017,-242.2515 505.919,-240.7144 507.2484,-247.587"/>
</g>
<!-- Node20 -->
<g id="node21" class="node">
<title>Node20</title>
<g id="a_node21"><a xlink:href="MessageQueue_8inl_8hxx.html" target="_top" xlink:title="MessageQueue.inl.hxx">
<polygon fill="none" stroke="#000000" points="371,-224.5 371,-243.5 498,-243.5 498,-224.5 371,-224.5"/>
<text text-anchor="middle" x="434.5" y="-231.5" font-family="Helvetica,sans-Serif" font-size="10.00" fill="#000000">MessageQueue.inl.hxx</text>
</a>
</g>
</g>
<!-- Node9&#45;&gt;Node20 -->
<g id="edge25" class="edge">
<title>Node9&#45;&gt;Node20</title>
<path fill="none" stroke="#191970" d="M287.0993,-280.3733C316.8261,-271.021 362.1159,-256.7725 394.6456,-246.5385"/>
<polygon fill="#191970" stroke="#191970" points="395.8113,-249.8409 404.3,-243.5011 393.7105,-243.1636 395.8113,-249.8409"/>
</g>
<!-- Node15&#45;&gt;Node4 -->
<g id="edge19" class="edge">
<title>Node15&#45;&gt;Node4</title>
<path fill="none" stroke="#191970" d="M516.2999,-225.684C456.2538,-213.1943 349.7773,-190.7534 346.5,-188 315.2304,-161.7292 303.2605,-112.8176 298.8774,-85.5846"/>
<polygon fill="#191970" stroke="#191970" points="302.3417,-85.0856 297.4671,-75.6788 295.4116,-86.0723 302.3417,-85.0856"/>
</g>
<!-- Node16 -->
<g id="node17" class="node">
<title>Node16</title>
<polygon fill="none" stroke="#bfbfbf" points="355.5,-168.5 355.5,-187.5 399.5,-187.5 399.5,-168.5 355.5,-168.5"/>
<text text-anchor="middle" x="377.5" y="-175.5" font-family="Helvetica,sans-Serif" font-size="10.00" fill="#000000">string</text>
</g>
<!-- Node15&#45;&gt;Node16 -->
<g id="edge17" class="edge">
<title>Node15&#45;&gt;Node16</title>
<path fill="none" stroke="#191970" d="M525.7288,-224.3733C493.2079,-214.1991 442.1651,-198.2304 409.2707,-187.9394"/>
<polygon fill="#191970" stroke="#191970" points="410.2743,-184.5862 399.6854,-184.9407 408.1842,-191.2669 410.2743,-184.5862"/>
</g>
<!-- Node17 -->
<g id="node18" class="node">
<title>Node17</title>
<polygon fill="none" stroke="#bfbfbf" points="462.5,-56.5 462.5,-75.5 562.5,-75.5 562.5,-56.5 462.5,-56.5"/>
<text text-anchor="middle" x="512.5" y="-63.5" font-family="Helvetica,sans-Serif" font-size="10.00" fill="#000000">betterEnums.hxx</text>
</g>
<!-- Node15&#45;&gt;Node17 -->
<g id="edge18" class="edge">
<title>Node15&#45;&gt;Node17</title>
<path fill="none" stroke="#191970" d="M557.1574,-224.4594C558.27,-203.4179 559.1389,-151.7423 544.5,-112 540.7465,-101.81 534.1823,-91.7605 527.9721,-83.6665"/>
<polygon fill="#191970" stroke="#191970" points="530.5476,-81.286 521.5221,-75.7369 525.1172,-85.7032 530.5476,-81.286"/>
</g>
<!-- Node18 -->
<g id="node19" class="node">
<title>Node18</title>
<g id="a_node19"><a xlink:href="UIEvents_8hxx.html" target="_top" xlink:title="events/UIEvents.hxx">
<polygon fill="none" stroke="#000000" points="418,-168.5 418,-187.5 535,-187.5 535,-168.5 418,-168.5"/>
<text text-anchor="middle" x="476.5" y="-175.5" font-family="Helvetica,sans-Serif" font-size="10.00" fill="#000000">events/UIEvents.hxx</text>
</a>
</g>
</g>
<!-- Node15&#45;&gt;Node18 -->
<g id="edge20" class="edge">
<title>Node15&#45;&gt;Node18</title>
<path fill="none" stroke="#191970" d="M542.5651,-224.2455C530.4053,-215.7337 512.5536,-203.2375 498.4715,-193.3801"/>
<polygon fill="#191970" stroke="#191970" points="500.4747,-190.51 490.2752,-187.6427 496.4605,-196.2447 500.4747,-190.51"/>
</g>
<!-- Node18&#45;&gt;Node1 -->
<g id="edge24" class="edge">
<title>Node18&#45;&gt;Node1</title>
<path fill="none" stroke="#191970" d="M425.4398,-168.4369C370.3258,-158.1145 283.0804,-141.7743 228.1331,-131.4831"/>
<polygon fill="#191970" stroke="#191970" points="228.7376,-128.0356 218.2642,-129.6348 227.4489,-134.9159 228.7376,-128.0356"/>
</g>
<!-- Node18&#45;&gt;Node13 -->
<g id="edge21" class="edge">
<title>Node18&#45;&gt;Node13</title>
<path fill="none" stroke="#191970" d="M501.9421,-168.3733C526.2326,-159.1822 563.0208,-145.2624 589.9543,-135.0713"/>
<polygon fill="#191970" stroke="#191970" points="591.2757,-138.3136 599.3899,-131.5011 588.7984,-131.7666 591.2757,-138.3136"/>
</g>
<!-- Node19 -->
<g id="node20" class="node">
<title>Node19</title>
<g id="a_node20"><a xlink:href="ActivityType_8hxx.html" target="_top" xlink:title="../activity/ActivityType.hxx">
<polygon fill="none" stroke="#000000" points="389.5,-112.5 389.5,-131.5 535.5,-131.5 535.5,-112.5 389.5,-112.5"/>
<text text-anchor="middle" x="462.5" y="-119.5" font-family="Helvetica,sans-Serif" font-size="10.00" fill="#000000">../activity/ActivityType.hxx</text>
</a>
</g>
</g>
<!-- Node18&#45;&gt;Node19 -->
<g id="edge22" class="edge">
<title>Node18&#45;&gt;Node19</title>
<path fill="none" stroke="#191970" d="M474.0614,-168.2455C472.2145,-160.8579 469.6172,-150.4689 467.3522,-141.4087"/>
<polygon fill="#191970" stroke="#191970" points="470.7316,-140.4952 464.9107,-131.6427 463.9406,-142.193 470.7316,-140.4952"/>
</g>
<!-- Node19&#45;&gt;Node17 -->
<g id="edge23" class="edge">
<title>Node19&#45;&gt;Node17</title>
<path fill="none" stroke="#191970" d="M471.2093,-112.2455C478.3073,-104.2958 488.5084,-92.8706 496.995,-83.3656"/>
<polygon fill="#191970" stroke="#191970" points="499.8411,-85.4331 503.8905,-75.6427 494.6195,-80.771 499.8411,-85.4331"/>
</g>
</g>
</svg>
