<?xml version="1.0" encoding="UTF-8" standalone="no"?>
<!DOCTYPE svg PUBLIC "-//W3C//DTD SVG 1.1//EN"
 "http://www.w3.org/Graphics/SVG/1.1/DTD/svg11.dtd">
<!-- Generated by graphviz version 2.40.1 (20161225.0304)
 -->
<!-- Title: src/util/ZipRange.hxx Pages: 1 -->
<svg width="886pt" height="140pt"
 viewBox="0.00 0.00 885.50 140.00" xmlns="http://www.w3.org/2000/svg" xmlns:xlink="http://www.w3.org/1999/xlink">
<g id="graph0" class="graph" transform="scale(1 1) rotate(0) translate(4 136)">
<title>src/util/ZipRange.hxx</title>
<!-- Node8 -->
<g id="node1" class="node">
<title>Node8</title>
<polygon fill="#bfbfbf" stroke="#000000" points="589,-112.5 589,-131.5 709,-131.5 709,-112.5 589,-112.5"/>
<text text-anchor="middle" x="649" y="-119.5" font-family="Helvetica,sans-Serif" font-size="10.00" fill="#000000">src/util/ZipRange.hxx</text>
</g>
<!-- Node9 -->
<g id="node2" class="node">
<title>Node9</title>
<g id="a_node2"><a xlink:href="JsonSerialization_8hxx.html" target="_top" xlink:title="src/engine/common/JsonSerialization.hxx">
<polygon fill="none" stroke="#000000" points="342,-56.5 342,-75.5 560,-75.5 560,-56.5 342,-56.5"/>
<text text-anchor="middle" x="451" y="-63.5" font-family="Helvetica,sans-Serif" font-size="10.00" fill="#000000">src/engine/common/JsonSerialization.hxx</text>
</a>
</g>
</g>
<!-- Node8&#45;&gt;Node9 -->
<g id="edge1" class="edge">
<title>Node8&#45;&gt;Node9</title>
<path fill="none" stroke="#191970" d="M605.1155,-109.5882C568.7377,-99.2996 517.7879,-84.8895 484.5933,-75.5011"/>
<polygon fill="#191970" stroke="#191970" points="604.3875,-113.0195 614.9626,-112.3733 606.2926,-106.2838 604.3875,-113.0195"/>
</g>
<!-- Node15 -->
<g id="node8" class="node">
<title>Node15</title>
<g id="a_node8"><a xlink:href="UIManager_8cxx.html" target="_top" xlink:title="src/engine/UIManager.cxx">
<polygon fill="none" stroke="#000000" points="578,-56.5 578,-75.5 720,-75.5 720,-56.5 578,-56.5"/>
<text text-anchor="middle" x="649" y="-63.5" font-family="Helvetica,sans-Serif" font-size="10.00" fill="#000000">src/engine/UIManager.cxx</text>
</a>
</g>
</g>
<!-- Node8&#45;&gt;Node15 -->
<g id="edge7" class="edge">
<title>Node8&#45;&gt;Node15</title>
<path fill="none" stroke="#191970" d="M649,-102.1575C649,-93.155 649,-82.9199 649,-75.6427"/>
<polygon fill="#191970" stroke="#191970" points="645.5001,-102.2455 649,-112.2455 652.5001,-102.2456 645.5001,-102.2455"/>
</g>
<!-- Node16 -->
<g id="node9" class="node">
<title>Node16</title>
<g id="a_node9"><a xlink:href="CursorView_8cxx.html" target="_top" xlink:title="src/view/CursorView.cxx">
<polygon fill="none" stroke="#000000" points="738.5,-56.5 738.5,-75.5 873.5,-75.5 873.5,-56.5 738.5,-56.5"/>
<text text-anchor="middle" x="806" y="-63.5" font-family="Helvetica,sans-Serif" font-size="10.00" fill="#000000">src/view/CursorView.cxx</text>
</a>
</g>
</g>
<!-- Node8&#45;&gt;Node16 -->
<g id="edge8" class="edge">
<title>Node8&#45;&gt;Node16</title>
<path fill="none" stroke="#191970" d="M685.6619,-108.9231C714.3624,-98.686 753.6044,-84.6889 779.3629,-75.5011"/>
<polygon fill="#191970" stroke="#191970" points="684.2322,-105.7171 675.9893,-112.3733 686.5839,-112.3102 684.2322,-105.7171"/>
</g>
<!-- Node10 -->
<g id="node3" class="node">
<title>Node10</title>
<g id="a_node3"><a xlink:href="Settings_8cxx.html" target="_top" xlink:title="src/engine/basics/Settings.cxx">
<polygon fill="none" stroke="#000000" points="0,-.5 0,-19.5 164,-19.5 164,-.5 0,-.5"/>
<text text-anchor="middle" x="82" y="-7.5" font-family="Helvetica,sans-Serif" font-size="10.00" fill="#000000">src/engine/basics/Settings.cxx</text>
</a>
</g>
</g>
<!-- Node9&#45;&gt;Node10 -->
<g id="edge2" class="edge">
<title>Node9&#45;&gt;Node10</title>
<path fill="none" stroke="#191970" d="M377.7619,-54.8853C309.6569,-44.5496 209.2689,-29.3145 144.7542,-19.5237"/>
<polygon fill="#191970" stroke="#191970" points="377.5739,-58.3967 387.9859,-56.4369 378.6243,-51.476 377.5739,-58.3967"/>
</g>
<!-- Node11 -->
<g id="node4" class="node">
<title>Node11</title>
<g id="a_node4"><a xlink:href="TerrainGenerator_8cxx.html" target="_top" xlink:title="src/engine/map/TerrainGenerator.cxx">
<polygon fill="none" stroke="#000000" points="182,-.5 182,-19.5 378,-19.5 378,-.5 182,-.5"/>
<text text-anchor="middle" x="280" y="-7.5" font-family="Helvetica,sans-Serif" font-size="10.00" fill="#000000">src/engine/map/TerrainGenerator.cxx</text>
</a>
</g>
</g>
<!-- Node9&#45;&gt;Node11 -->
<g id="edge3" class="edge">
<title>Node9&#45;&gt;Node11</title>
<path fill="none" stroke="#191970" d="M411.8852,-53.1905C380.5568,-42.9309 337.3129,-28.7691 309.0124,-19.5011"/>
<polygon fill="#191970" stroke="#191970" points="411.0114,-56.5872 421.6041,-56.3733 413.19,-49.9348 411.0114,-56.5872"/>
</g>
<!-- Node12 -->
<g id="node5" class="node">
<title>Node12</title>
<g id="a_node5"><a xlink:href="Map_8cxx.html" target="_top" xlink:title="src/engine/Map.cxx">
<polygon fill="none" stroke="#000000" points="396,-.5 396,-19.5 506,-19.5 506,-.5 396,-.5"/>
<text text-anchor="middle" x="451" y="-7.5" font-family="Helvetica,sans-Serif" font-size="10.00" fill="#000000">src/engine/Map.cxx</text>
</a>
</g>
</g>
<!-- Node9&#45;&gt;Node12 -->
<g id="edge4" class="edge">
<title>Node9&#45;&gt;Node12</title>
<path fill="none" stroke="#191970" d="M451,-46.1575C451,-37.155 451,-26.9199 451,-19.6427"/>
<polygon fill="#191970" stroke="#191970" points="447.5001,-46.2455 451,-56.2455 454.5001,-46.2456 447.5001,-46.2455"/>
</g>
<!-- Node13 -->
<g id="node6" class="node">
<title>Node13</title>
<g id="a_node6"><a xlink:href="AudioMixer_8cxx.html" target="_top" xlink:title="src/services/AudioMixer.cxx">
<polygon fill="none" stroke="#000000" points="524,-.5 524,-19.5 676,-19.5 676,-.5 524,-.5"/>
<text text-anchor="middle" x="600" y="-7.5" font-family="Helvetica,sans-Serif" font-size="10.00" fill="#000000">src/services/AudioMixer.cxx</text>
</a>
</g>
</g>
<!-- Node9&#45;&gt;Node13 -->
<g id="edge5" class="edge">
<title>Node9&#45;&gt;Node13</title>
<path fill="none" stroke="#191970" d="M486.1512,-52.7888C513.3568,-42.5639 550.3809,-28.6488 574.7202,-19.5011"/>
<polygon fill="#191970" stroke="#191970" points="484.7434,-49.5788 476.614,-56.3733 487.2061,-56.1313 484.7434,-49.5788"/>
</g>
<!-- Node14 -->
<g id="node7" class="node">
<title>Node14</title>
<g id="a_node7"><a xlink:href="ResourceManager_8cxx.html" target="_top" xlink:title="src/services/ResourceManager.cxx">
<polygon fill="none" stroke="#000000" points="694.5,-.5 694.5,-19.5 877.5,-19.5 877.5,-.5 694.5,-.5"/>
<text text-anchor="middle" x="786" y="-7.5" font-family="Helvetica,sans-Serif" font-size="10.00" fill="#000000">src/services/ResourceManager.cxx</text>
</a>
</g>
</g>
<!-- Node9&#45;&gt;Node14 -->
<g id="edge6" class="edge">
<title>Node9&#45;&gt;Node14</title>
<path fill="none" stroke="#191970" d="M518.2531,-54.7577C580.0676,-44.4245 670.6983,-29.2743 729.028,-19.5237"/>
<polygon fill="#191970" stroke="#191970" points="517.494,-51.3359 508.2079,-56.4369 518.6482,-58.2401 517.494,-51.3359"/>
</g>
</g>
</svg>
